<?xml version="1.0" encoding="utf-8"?>
<svg xmlns="http://www.w3.org/2000/svg" xmlns:xlink="http://www.w3.org/1999/xlink" width="600" height="400" viewBox="0 0 2400 1600">
<defs>
  <clipPath id="clip930">
    <rect x="0" y="0" width="2400" height="1600"/>
  </clipPath>
</defs>
<path clip-path="url(#clip930)" d="M0 1600 L2400 1600 L2400 8.88178e-14 L0 8.88178e-14  Z" fill="#f0f1eb" fill-rule="evenodd" fill-opacity="1"/>
<defs>
  <clipPath id="clip931">
    <rect x="480" y="0" width="1681" height="1600"/>
  </clipPath>
</defs>
<path clip-path="url(#clip930)" d="M257.204 1423.18 L2352.76 1423.18 L2352.76 47.2441 L257.204 47.2441  Z" fill="#f0f1eb" fill-rule="evenodd" fill-opacity="1"/>
<defs>
  <clipPath id="clip932">
    <rect x="257" y="47" width="2097" height="1377"/>
  </clipPath>
</defs>
<polyline clip-path="url(#clip932)" style="stroke:#000000; stroke-linecap:round; stroke-linejoin:round; stroke-width:2; stroke-opacity:0.1; fill:none" points="257.204,1423.18 257.204,47.2441 "/>
<polyline clip-path="url(#clip932)" style="stroke:#000000; stroke-linecap:round; stroke-linejoin:round; stroke-width:2; stroke-opacity:0.1; fill:none" points="955.721,1423.18 955.721,47.2441 "/>
<polyline clip-path="url(#clip932)" style="stroke:#000000; stroke-linecap:round; stroke-linejoin:round; stroke-width:2; stroke-opacity:0.1; fill:none" points="1654.24,1423.18 1654.24,47.2441 "/>
<polyline clip-path="url(#clip932)" style="stroke:#000000; stroke-linecap:round; stroke-linejoin:round; stroke-width:2; stroke-opacity:0.1; fill:none" points="2352.76,1423.18 2352.76,47.2441 "/>
<polyline clip-path="url(#clip932)" style="stroke:#000000; stroke-linecap:round; stroke-linejoin:round; stroke-width:2; stroke-opacity:0.1; fill:none" points="257.204,1423.18 2352.76,1423.18 "/>
<polyline clip-path="url(#clip932)" style="stroke:#000000; stroke-linecap:round; stroke-linejoin:round; stroke-width:2; stroke-opacity:0.1; fill:none" points="257.204,1079.2 2352.76,1079.2 "/>
<polyline clip-path="url(#clip932)" style="stroke:#000000; stroke-linecap:round; stroke-linejoin:round; stroke-width:2; stroke-opacity:0.1; fill:none" points="257.204,735.212 2352.76,735.212 "/>
<polyline clip-path="url(#clip932)" style="stroke:#000000; stroke-linecap:round; stroke-linejoin:round; stroke-width:2; stroke-opacity:0.1; fill:none" points="257.204,391.228 2352.76,391.228 "/>
<polyline clip-path="url(#clip932)" style="stroke:#000000; stroke-linecap:round; stroke-linejoin:round; stroke-width:2; stroke-opacity:0.1; fill:none" points="257.204,47.2441 2352.76,47.2441 "/>
<polyline clip-path="url(#clip930)" style="stroke:#000000; stroke-linecap:round; stroke-linejoin:round; stroke-width:4; stroke-opacity:1; fill:none" points="257.204,1423.18 2352.76,1423.18 "/>
<polyline clip-path="url(#clip930)" style="stroke:#000000; stroke-linecap:round; stroke-linejoin:round; stroke-width:4; stroke-opacity:1; fill:none" points="257.204,1423.18 257.204,1404.28 "/>
<polyline clip-path="url(#clip930)" style="stroke:#000000; stroke-linecap:round; stroke-linejoin:round; stroke-width:4; stroke-opacity:1; fill:none" points="955.721,1423.18 955.721,1404.28 "/>
<polyline clip-path="url(#clip930)" style="stroke:#000000; stroke-linecap:round; stroke-linejoin:round; stroke-width:4; stroke-opacity:1; fill:none" points="1654.24,1423.18 1654.24,1404.28 "/>
<polyline clip-path="url(#clip930)" style="stroke:#000000; stroke-linecap:round; stroke-linejoin:round; stroke-width:4; stroke-opacity:1; fill:none" points="2352.76,1423.18 2352.76,1404.28 "/>
<path clip-path="url(#clip930)" d="M246.047 1466.95 Q249.403 1467.66 251.278 1469.93 Q253.176 1472.2 253.176 1475.53 Q253.176 1480.65 249.658 1483.45 Q246.139 1486.25 239.658 1486.25 Q237.482 1486.25 235.167 1485.81 Q232.875 1485.39 230.422 1484.54 L230.422 1480.02 Q232.366 1481.16 234.681 1481.74 Q236.996 1482.32 239.519 1482.32 Q243.917 1482.32 246.209 1480.58 Q248.524 1478.84 248.524 1475.53 Q248.524 1472.48 246.371 1470.77 Q244.241 1469.03 240.422 1469.03 L236.394 1469.03 L236.394 1465.19 L240.607 1465.19 Q244.056 1465.19 245.885 1463.82 Q247.713 1462.43 247.713 1459.84 Q247.713 1457.18 245.815 1455.77 Q243.94 1454.33 240.422 1454.33 Q238.5 1454.33 236.301 1454.75 Q234.102 1455.16 231.463 1456.04 L231.463 1451.88 Q234.125 1451.14 236.44 1450.77 Q238.778 1450.39 240.838 1450.39 Q246.162 1450.39 249.264 1452.83 Q252.366 1455.23 252.366 1459.35 Q252.366 1462.22 250.723 1464.21 Q249.079 1466.18 246.047 1466.95 Z" fill="#000000" fill-rule="nonzero" fill-opacity="1" /><path clip-path="url(#clip930)" d="M272.042 1454.1 Q268.431 1454.1 266.602 1457.66 Q264.797 1461.2 264.797 1468.33 Q264.797 1475.44 266.602 1479.01 Q268.431 1482.55 272.042 1482.55 Q275.676 1482.55 277.482 1479.01 Q279.31 1475.44 279.31 1468.33 Q279.31 1461.2 277.482 1457.66 Q275.676 1454.1 272.042 1454.1 M272.042 1450.39 Q277.852 1450.39 280.908 1455 Q283.986 1459.58 283.986 1468.33 Q283.986 1477.06 280.908 1481.67 Q277.852 1486.25 272.042 1486.25 Q266.232 1486.25 263.153 1481.67 Q260.098 1477.06 260.098 1468.33 Q260.098 1459.58 263.153 1455 Q266.232 1450.39 272.042 1450.39 Z" fill="#000000" fill-rule="nonzero" fill-opacity="1" /><path clip-path="url(#clip930)" d="M943.893 1455.09 L932.087 1473.54 L943.893 1473.54 L943.893 1455.09 M942.666 1451.02 L948.545 1451.02 L948.545 1473.54 L953.476 1473.54 L953.476 1477.43 L948.545 1477.43 L948.545 1485.58 L943.893 1485.58 L943.893 1477.43 L928.291 1477.43 L928.291 1472.92 L942.666 1451.02 Z" fill="#000000" fill-rule="nonzero" fill-opacity="1" /><path clip-path="url(#clip930)" d="M971.207 1454.1 Q967.596 1454.1 965.768 1457.66 Q963.962 1461.2 963.962 1468.33 Q963.962 1475.44 965.768 1479.01 Q967.596 1482.55 971.207 1482.55 Q974.842 1482.55 976.647 1479.01 Q978.476 1475.44 978.476 1468.33 Q978.476 1461.2 976.647 1457.66 Q974.842 1454.1 971.207 1454.1 M971.207 1450.39 Q977.018 1450.39 980.073 1455 Q983.152 1459.58 983.152 1468.33 Q983.152 1477.06 980.073 1481.67 Q977.018 1486.25 971.207 1486.25 Q965.397 1486.25 962.319 1481.67 Q959.263 1477.06 959.263 1468.33 Q959.263 1459.58 962.319 1455 Q965.397 1450.39 971.207 1450.39 Z" fill="#000000" fill-rule="nonzero" fill-opacity="1" /><path clip-path="url(#clip930)" d="M1628.94 1451.02 L1647.29 1451.02 L1647.29 1454.96 L1633.22 1454.96 L1633.22 1463.43 Q1634.24 1463.08 1635.26 1462.92 Q1636.28 1462.73 1637.29 1462.73 Q1643.08 1462.73 1646.46 1465.9 Q1649.84 1469.08 1649.84 1474.49 Q1649.84 1480.07 1646.37 1483.17 Q1642.9 1486.25 1636.58 1486.25 Q1634.4 1486.25 1632.13 1485.88 Q1629.89 1485.51 1627.48 1484.77 L1627.48 1480.07 Q1629.56 1481.2 1631.79 1481.76 Q1634.01 1482.32 1636.48 1482.32 Q1640.49 1482.32 1642.83 1480.21 Q1645.16 1478.1 1645.16 1474.49 Q1645.16 1470.88 1642.83 1468.77 Q1640.49 1466.67 1636.48 1466.67 Q1634.61 1466.67 1632.73 1467.08 Q1630.88 1467.5 1628.94 1468.38 L1628.94 1451.02 Z" fill="#000000" fill-rule="nonzero" fill-opacity="1" /><path clip-path="url(#clip930)" d="M1669.05 1454.1 Q1665.44 1454.1 1663.61 1457.66 Q1661.81 1461.2 1661.81 1468.33 Q1661.81 1475.44 1663.61 1479.01 Q1665.44 1482.55 1669.05 1482.55 Q1672.69 1482.55 1674.49 1479.01 Q1676.32 1475.44 1676.32 1468.33 Q1676.32 1461.2 1674.49 1457.66 Q1672.69 1454.1 1669.05 1454.1 M1669.05 1450.39 Q1674.86 1450.39 1677.92 1455 Q1681 1459.58 1681 1468.33 Q1681 1477.06 1677.92 1481.67 Q1674.86 1486.25 1669.05 1486.25 Q1663.24 1486.25 1660.16 1481.67 Q1657.11 1477.06 1657.11 1468.33 Q1657.11 1459.58 1660.16 1455 Q1663.24 1450.39 1669.05 1450.39 Z" fill="#000000" fill-rule="nonzero" fill-opacity="1" /><path clip-path="url(#clip930)" d="M2338.16 1466.44 Q2335.01 1466.44 2333.16 1468.59 Q2331.33 1470.74 2331.33 1474.49 Q2331.33 1478.22 2333.16 1480.39 Q2335.01 1482.55 2338.16 1482.55 Q2341.31 1482.55 2343.14 1480.39 Q2344.99 1478.22 2344.99 1474.49 Q2344.99 1470.74 2343.14 1468.59 Q2341.31 1466.44 2338.16 1466.44 M2347.44 1451.78 L2347.44 1456.04 Q2345.68 1455.21 2343.88 1454.77 Q2342.1 1454.33 2340.34 1454.33 Q2335.71 1454.33 2333.25 1457.45 Q2330.82 1460.58 2330.48 1466.9 Q2331.84 1464.89 2333.9 1463.82 Q2335.96 1462.73 2338.44 1462.73 Q2343.65 1462.73 2346.66 1465.9 Q2349.69 1469.05 2349.69 1474.49 Q2349.69 1479.82 2346.54 1483.03 Q2343.39 1486.25 2338.16 1486.25 Q2332.17 1486.25 2328.99 1481.67 Q2325.82 1477.06 2325.82 1468.33 Q2325.82 1460.14 2329.71 1455.28 Q2333.6 1450.39 2340.15 1450.39 Q2341.91 1450.39 2343.69 1450.74 Q2345.5 1451.09 2347.44 1451.78 Z" fill="#000000" fill-rule="nonzero" fill-opacity="1" /><path clip-path="url(#clip930)" d="M2367.74 1454.1 Q2364.13 1454.1 2362.3 1457.66 Q2360.5 1461.2 2360.5 1468.33 Q2360.5 1475.44 2362.3 1479.01 Q2364.13 1482.55 2367.74 1482.55 Q2371.38 1482.55 2373.18 1479.01 Q2375.01 1475.44 2375.01 1468.33 Q2375.01 1461.2 2373.18 1457.66 Q2371.38 1454.1 2367.74 1454.1 M2367.74 1450.39 Q2373.55 1450.39 2376.61 1455 Q2379.69 1459.58 2379.69 1468.33 Q2379.69 1477.06 2376.61 1481.67 Q2373.55 1486.25 2367.74 1486.25 Q2361.93 1486.25 2358.86 1481.67 Q2355.8 1477.06 2355.8 1468.33 Q2355.8 1459.58 2358.86 1455 Q2361.93 1450.39 2367.74 1450.39 Z" fill="#000000" fill-rule="nonzero" fill-opacity="1" /><path clip-path="url(#clip930)" d="M1313.45 1531.91 Q1313.45 1532.81 1313.03 1533.04 Q1312.61 1533.23 1311.45 1533.23 L1305.27 1533.23 L1300.38 1552.69 Q1299.99 1554.39 1299.99 1555.84 Q1299.99 1557.45 1300.47 1558.16 Q1300.99 1558.87 1302.05 1558.87 Q1304.14 1558.87 1306.4 1556.97 Q1308.68 1555.07 1310.62 1550.43 Q1310.87 1549.82 1311 1549.69 Q1311.16 1549.53 1311.58 1549.53 Q1312.39 1549.53 1312.39 1550.17 Q1312.39 1550.4 1311.94 1551.43 Q1311.52 1552.46 1310.58 1553.97 Q1309.68 1555.49 1308.49 1556.9 Q1307.33 1558.32 1305.56 1559.35 Q1303.79 1560.35 1301.89 1560.35 Q1299.22 1560.35 1297.51 1558.64 Q1295.83 1556.94 1295.83 1554.26 Q1295.83 1553.39 1296.51 1550.62 Q1297.19 1547.82 1300.86 1533.23 L1295.03 1533.23 Q1294.22 1533.23 1293.9 1533.2 Q1293.61 1533.17 1293.39 1533.01 Q1293.19 1532.81 1293.19 1532.43 Q1293.19 1531.82 1293.45 1531.56 Q1293.71 1531.27 1294.03 1531.24 Q1294.39 1531.17 1295.19 1531.17 L1301.37 1531.17 L1303.95 1520.71 Q1304.21 1519.67 1304.85 1519.09 Q1305.53 1518.48 1305.91 1518.42 Q1306.3 1518.32 1306.59 1518.32 Q1307.46 1518.32 1307.98 1518.81 Q1308.49 1519.26 1308.49 1520.09 Q1308.49 1520.54 1305.79 1531.17 L1311.58 1531.17 Q1312.32 1531.17 1312.61 1531.2 Q1312.94 1531.24 1313.19 1531.4 Q1313.45 1531.56 1313.45 1531.91 Z" fill="#000000" fill-rule="nonzero" fill-opacity="1" /><polyline clip-path="url(#clip930)" style="stroke:#000000; stroke-linecap:round; stroke-linejoin:round; stroke-width:4; stroke-opacity:1; fill:none" points="257.204,1423.18 257.204,47.2441 "/>
<polyline clip-path="url(#clip930)" style="stroke:#000000; stroke-linecap:round; stroke-linejoin:round; stroke-width:4; stroke-opacity:1; fill:none" points="257.204,1423.18 276.102,1423.18 "/>
<polyline clip-path="url(#clip930)" style="stroke:#000000; stroke-linecap:round; stroke-linejoin:round; stroke-width:4; stroke-opacity:1; fill:none" points="257.204,1079.2 276.102,1079.2 "/>
<polyline clip-path="url(#clip930)" style="stroke:#000000; stroke-linecap:round; stroke-linejoin:round; stroke-width:4; stroke-opacity:1; fill:none" points="257.204,735.212 276.102,735.212 "/>
<polyline clip-path="url(#clip930)" style="stroke:#000000; stroke-linecap:round; stroke-linejoin:round; stroke-width:4; stroke-opacity:1; fill:none" points="257.204,391.228 276.102,391.228 "/>
<polyline clip-path="url(#clip930)" style="stroke:#000000; stroke-linecap:round; stroke-linejoin:round; stroke-width:4; stroke-opacity:1; fill:none" points="257.204,47.2441 276.102,47.2441 "/>
<path clip-path="url(#clip930)" d="M114.26 1423.63 L143.936 1423.63 L143.936 1427.57 L114.26 1427.57 L114.26 1423.63 Z" fill="#000000" fill-rule="nonzero" fill-opacity="1" /><path clip-path="url(#clip930)" d="M154.839 1436.52 L162.477 1436.52 L162.477 1410.16 L154.167 1411.83 L154.167 1407.57 L162.431 1405.9 L167.107 1405.9 L167.107 1436.52 L174.746 1436.52 L174.746 1440.46 L154.839 1440.46 L154.839 1436.52 Z" fill="#000000" fill-rule="nonzero" fill-opacity="1" /><path clip-path="url(#clip930)" d="M184.19 1434.58 L189.075 1434.58 L189.075 1440.46 L184.19 1440.46 L184.19 1434.58 Z" fill="#000000" fill-rule="nonzero" fill-opacity="1" /><path clip-path="url(#clip930)" d="M209.26 1408.98 Q205.649 1408.98 203.82 1412.54 Q202.014 1416.08 202.014 1423.21 Q202.014 1430.32 203.82 1433.89 Q205.649 1437.43 209.26 1437.43 Q212.894 1437.43 214.699 1433.89 Q216.528 1430.32 216.528 1423.21 Q216.528 1416.08 214.699 1412.54 Q212.894 1408.98 209.26 1408.98 M209.26 1405.27 Q215.07 1405.27 218.125 1409.88 Q221.204 1414.46 221.204 1423.21 Q221.204 1431.94 218.125 1436.55 Q215.07 1441.13 209.26 1441.13 Q203.449 1441.13 200.371 1436.55 Q197.315 1431.94 197.315 1423.21 Q197.315 1414.46 200.371 1409.88 Q203.449 1405.27 209.26 1405.27 Z" fill="#000000" fill-rule="nonzero" fill-opacity="1" /><path clip-path="url(#clip930)" d="M115.256 1079.65 L144.931 1079.65 L144.931 1083.58 L115.256 1083.58 L115.256 1079.65 Z" fill="#000000" fill-rule="nonzero" fill-opacity="1" /><path clip-path="url(#clip930)" d="M165.024 1064.99 Q161.413 1064.99 159.584 1068.56 Q157.778 1072.1 157.778 1079.23 Q157.778 1086.34 159.584 1089.9 Q161.413 1093.44 165.024 1093.44 Q168.658 1093.44 170.464 1089.9 Q172.292 1086.34 172.292 1079.23 Q172.292 1072.1 170.464 1068.56 Q168.658 1064.99 165.024 1064.99 M165.024 1061.29 Q170.834 1061.29 173.889 1065.9 Q176.968 1070.48 176.968 1079.23 Q176.968 1087.96 173.889 1092.56 Q170.834 1097.15 165.024 1097.15 Q159.214 1097.15 156.135 1092.56 Q153.079 1087.96 153.079 1079.23 Q153.079 1070.48 156.135 1065.9 Q159.214 1061.29 165.024 1061.29 Z" fill="#000000" fill-rule="nonzero" fill-opacity="1" /><path clip-path="url(#clip930)" d="M185.186 1090.6 L190.07 1090.6 L190.07 1096.48 L185.186 1096.48 L185.186 1090.6 Z" fill="#000000" fill-rule="nonzero" fill-opacity="1" /><path clip-path="url(#clip930)" d="M200.301 1061.92 L218.658 1061.92 L218.658 1065.85 L204.584 1065.85 L204.584 1074.32 Q205.602 1073.98 206.621 1073.81 Q207.639 1073.63 208.658 1073.63 Q214.445 1073.63 217.824 1076.8 Q221.204 1079.97 221.204 1085.39 Q221.204 1090.97 217.732 1094.07 Q214.26 1097.15 207.94 1097.15 Q205.764 1097.15 203.496 1096.78 Q201.25 1096.41 198.843 1095.67 L198.843 1090.97 Q200.926 1092.1 203.149 1092.66 Q205.371 1093.21 207.848 1093.21 Q211.852 1093.21 214.19 1091.11 Q216.528 1089 216.528 1085.39 Q216.528 1081.78 214.19 1079.67 Q211.852 1077.56 207.848 1077.56 Q205.973 1077.56 204.098 1077.98 Q202.246 1078.4 200.301 1079.28 L200.301 1061.92 Z" fill="#000000" fill-rule="nonzero" fill-opacity="1" /><path clip-path="url(#clip930)" d="M164.028 721.011 Q160.417 721.011 158.589 724.575 Q156.783 728.117 156.783 735.247 Q156.783 742.353 158.589 745.918 Q160.417 749.46 164.028 749.46 Q167.663 749.46 169.468 745.918 Q171.297 742.353 171.297 735.247 Q171.297 728.117 169.468 724.575 Q167.663 721.011 164.028 721.011 M164.028 717.307 Q169.839 717.307 172.894 721.913 Q175.973 726.497 175.973 735.247 Q175.973 743.973 172.894 748.58 Q169.839 753.163 164.028 753.163 Q158.218 753.163 155.14 748.58 Q152.084 743.973 152.084 735.247 Q152.084 726.497 155.14 721.913 Q158.218 717.307 164.028 717.307 Z" fill="#000000" fill-rule="nonzero" fill-opacity="1" /><path clip-path="url(#clip930)" d="M184.19 746.612 L189.075 746.612 L189.075 752.492 L184.19 752.492 L184.19 746.612 Z" fill="#000000" fill-rule="nonzero" fill-opacity="1" /><path clip-path="url(#clip930)" d="M209.26 721.011 Q205.649 721.011 203.82 724.575 Q202.014 728.117 202.014 735.247 Q202.014 742.353 203.82 745.918 Q205.649 749.46 209.26 749.46 Q212.894 749.46 214.699 745.918 Q216.528 742.353 216.528 735.247 Q216.528 728.117 214.699 724.575 Q212.894 721.011 209.26 721.011 M209.26 717.307 Q215.07 717.307 218.125 721.913 Q221.204 726.497 221.204 735.247 Q221.204 743.973 218.125 748.58 Q215.07 753.163 209.26 753.163 Q203.449 753.163 200.371 748.58 Q197.315 743.973 197.315 735.247 Q197.315 726.497 200.371 721.913 Q203.449 717.307 209.26 717.307 Z" fill="#000000" fill-rule="nonzero" fill-opacity="1" /><path clip-path="url(#clip930)" d="M165.024 377.027 Q161.413 377.027 159.584 380.592 Q157.778 384.133 157.778 391.263 Q157.778 398.369 159.584 401.934 Q161.413 405.476 165.024 405.476 Q168.658 405.476 170.464 401.934 Q172.292 398.369 172.292 391.263 Q172.292 384.133 170.464 380.592 Q168.658 377.027 165.024 377.027 M165.024 373.323 Q170.834 373.323 173.889 377.929 Q176.968 382.513 176.968 391.263 Q176.968 399.99 173.889 404.596 Q170.834 409.179 165.024 409.179 Q159.214 409.179 156.135 404.596 Q153.079 399.99 153.079 391.263 Q153.079 382.513 156.135 377.929 Q159.214 373.323 165.024 373.323 Z" fill="#000000" fill-rule="nonzero" fill-opacity="1" /><path clip-path="url(#clip930)" d="M185.186 402.628 L190.07 402.628 L190.07 408.508 L185.186 408.508 L185.186 402.628 Z" fill="#000000" fill-rule="nonzero" fill-opacity="1" /><path clip-path="url(#clip930)" d="M200.301 373.948 L218.658 373.948 L218.658 377.883 L204.584 377.883 L204.584 386.355 Q205.602 386.008 206.621 385.846 Q207.639 385.661 208.658 385.661 Q214.445 385.661 217.824 388.832 Q221.204 392.003 221.204 397.42 Q221.204 402.999 217.732 406.101 Q214.26 409.179 207.94 409.179 Q205.764 409.179 203.496 408.809 Q201.25 408.439 198.843 407.698 L198.843 402.999 Q200.926 404.133 203.149 404.689 Q205.371 405.244 207.848 405.244 Q211.852 405.244 214.19 403.138 Q216.528 401.031 216.528 397.42 Q216.528 393.809 214.19 391.703 Q211.852 389.596 207.848 389.596 Q205.973 389.596 204.098 390.013 Q202.246 390.429 200.301 391.309 L200.301 373.948 Z" fill="#000000" fill-rule="nonzero" fill-opacity="1" /><path clip-path="url(#clip930)" d="M154.839 60.5889 L162.477 60.5889 L162.477 34.2233 L154.167 35.89 L154.167 31.6308 L162.431 29.9641 L167.107 29.9641 L167.107 60.5889 L174.746 60.5889 L174.746 64.5241 L154.839 64.5241 L154.839 60.5889 Z" fill="#000000" fill-rule="nonzero" fill-opacity="1" /><path clip-path="url(#clip930)" d="M184.19 58.6445 L189.075 58.6445 L189.075 64.5241 L184.19 64.5241 L184.19 58.6445 Z" fill="#000000" fill-rule="nonzero" fill-opacity="1" /><path clip-path="url(#clip930)" d="M209.26 33.0428 Q205.649 33.0428 203.82 36.6076 Q202.014 40.1492 202.014 47.2788 Q202.014 54.3853 203.82 57.9501 Q205.649 61.4917 209.26 61.4917 Q212.894 61.4917 214.699 57.9501 Q216.528 54.3853 216.528 47.2788 Q216.528 40.1492 214.699 36.6076 Q212.894 33.0428 209.26 33.0428 M209.26 29.3391 Q215.07 29.3391 218.125 33.9456 Q221.204 38.5289 221.204 47.2788 Q221.204 56.0056 218.125 60.6121 Q215.07 65.1954 209.26 65.1954 Q203.449 65.1954 200.371 60.6121 Q197.315 56.0056 197.315 47.2788 Q197.315 38.5289 200.371 33.9456 Q203.449 29.3391 209.26 29.3391 Z" fill="#000000" fill-rule="nonzero" fill-opacity="1" /><path clip-path="url(#clip930)" d="M28.6084 717.788 Q29.4458 717.788 31.0561 718.142 Q35.5971 719.269 38.7211 723.488 Q39.3008 724.197 40.0415 725.453 Q41.0399 723.939 42.8756 722.618 Q45.903 720.654 49.9931 720.654 Q51.8933 720.654 54.2121 721.169 Q59.5905 722.618 63.4552 727.707 Q67.2233 732.828 67.2233 738.915 Q67.2233 742.2 65.4842 744.454 Q63.7128 746.676 60.7499 747.546 L78.8174 752.022 Q79.2683 752.119 79.2683 752.699 L79.2683 753.021 Q79.2683 753.697 78.4953 753.697 L37.9159 743.52 Q35.1784 742.844 32.602 741.749 Q30.0255 740.654 27.7067 739.14 Q25.3879 737.594 23.6809 735.823 Q21.9418 734.052 20.9434 731.862 Q19.9129 729.672 19.9129 727.353 Q19.9129 722.49 23.2301 719.72 Q25.5811 717.788 28.6084 717.788 M27.449 721.491 Q25.4523 721.491 24.0674 722.296 Q21.4265 723.939 21.4265 727.417 Q21.4265 729.511 22.3927 731.507 Q23.3267 733.472 24.937 735.05 Q26.5473 736.628 28.7373 737.981 Q30.9273 739.333 33.3105 740.332 Q35.6615 741.298 38.238 741.942 L54.2121 745.903 Q55.919 746.29 57.4327 746.29 Q61.0397 746.29 63.3908 744.293 Q65.7418 742.296 65.7418 738.85 Q65.7418 734.277 62.328 730.348 Q59.2684 726.934 53.89 725.517 Q50.5084 724.712 48.1574 724.712 Q45.5809 724.712 43.5842 725.646 Q41.9739 726.322 41.0077 727.643 Q41.8773 730.09 41.8773 732.57 Q41.8773 733.762 41.845 734.406 Q41.8128 735.018 41.684 735.92 Q41.5552 736.789 41.2009 737.208 Q40.8467 737.594 40.2992 737.594 Q39.9771 737.594 39.8483 737.53 Q39.333 737.401 38.9787 736.982 Q38.6245 736.564 38.4634 736.081 Q38.2702 735.597 38.1736 734.792 Q38.077 733.955 38.077 733.407 Q38.0448 732.86 38.0448 731.926 Q38.0448 729.736 38.9143 727.514 Q38.4634 726.676 37.6583 725.775 Q34.9852 722.908 30.734 721.942 Q29.1559 721.491 27.449 721.491 M39.9127 729.607 Q39.5584 730.96 39.5584 731.99 Q39.5584 735.758 40.1703 735.952 Q40.2348 735.952 40.2992 735.823 Q40.3314 735.694 40.3636 735.404 Q40.3636 735.082 40.3958 734.825 Q40.428 734.535 40.428 734.052 Q40.428 733.568 40.428 733.311 Q40.428 733.021 40.428 732.506 Q40.428 731.217 39.9127 729.607 Z" fill="#000000" fill-rule="nonzero" fill-opacity="1" /><polyline clip-path="url(#clip932)" style="stroke:#e95420; stroke-linecap:round; stroke-linejoin:round; stroke-width:8; stroke-opacity:1; fill:none" points="-367.451,-433.935 -114.906,2053.37 148.46,-540.51 398.17,1918.88 611.07,-177.958 786.05,1545.42 904.717,376.683 997.174,1287.29 1100.27,271.893 1147.5,737.021 1287.69,-643.705 1428.17,739.929 1428.76,734.098 1429.52,741.519 1431.31,723.866 1433.4,744.466 1436.65,712.49 1439.71,742.666 1440.76,732.325 1441.26,737.22 1441.97,730.202 1442.85,738.868 1444.17,725.903 1445.55,739.51 1447.16,723.655 1448.72,739 1449.98,726.552 1451.05,737.076 1451.42,733.395 1452.38,742.848 1454.45,722.444 1455.84,736.101 1456.39,730.742 1458.14,748.067 1459.9,730.769 1461.18,743.346 1462.47,730.602 1463.92,744.905 1465.55,728.86 1466.86,741.718 1468.25,728.061 1469.73,742.718 1471.59,724.427 1473.27,740.958 1474.87,725.182 1476.52,741.441 1477.79,728.954 1479.05,741.377 1480.59,726.211 1482.16,741.699 1482.97,733.785 1483.56,739.613 1485.15,723.941 1642.75,2276.13 1799.78,729.538 1801.31,744.608 1802.6,731.87 1803.91,744.727 1805.68,727.318 1807.17,742.009 1808.48,729.12 1809.25,736.721 1881.64,23.7073 1954.6,742.274 1956.45,724.058 1959.51,754.145 1961.49,734.637 1961.8,737.687 1963.25,723.372 1965.28,743.337 1967.34,723.008 1969.35,742.779 1971.76,718.997 1974.5,745.929 1976.46,726.593 1978.07,742.44 1979.43,729.009 1980.15,736.076 1980.37,733.88 1982.03,750.221 1983.97,731.149 1985.41,745.325 1987.55,724.284 1989.57,744.262 1991.49,725.414 1993.68,746.989 1995.55,728.556 1997.72,749.95 1999.81,729.381 2001.31,744.126 2002.79,729.561 2004.13,742.793 2005.94,725 2008.89,754.132 2011.09,732.502 2013.82,759.409 2016.83,729.738 2017.5,736.244 2018.37,727.594 2020.04,744.041 2021.24,732.217 2023.06,750.144 2026.11,720.125 2130.62,1749.44 2234.39,727.391 2235.26,735.886 2235.68,731.673 2236.36,738.303 2237.49,727.143 2239.03,742.355 2240.65,726.415 2242.36,743.262 2244.43,722.942 2245.98,738.201 2246.43,733.679 2247.44,743.596 2248.39,734.218 2249.35,743.672 2251.05,726.935 2252.39,740.063 2254.21,722.107 2256.74,747.032 2258.45,730.216 2260.2,747.514 2261.75,732.332 2262.9,743.714 2265.34,719.696 2267.75,743.448 2353.08,-96.9869 2438.09,740.225 2439.33,727.954 2441.88,752.986 2444.99,722.306 2446.56,737.742 2446.92,734.207 2448.2,746.812 2498.04,255.945 2547.38,741.96 2549.58,720.277 2552.21,746.144 2554.8,720.594 "/>
</svg>
