<?xml version="1.0" encoding="utf-8"?>
<svg xmlns="http://www.w3.org/2000/svg" xmlns:xlink="http://www.w3.org/1999/xlink" width="576" height="384" viewBox="0 0 2304 1536">
<defs>
  <clipPath id="clip770">
    <rect x="0" y="0" width="2304" height="1536"/>
  </clipPath>
</defs>
<path clip-path="url(#clip770)" d="M0 1536 L2304 1536 L2304 8.52651e-14 L0 8.52651e-14  Z" fill="#ffffff" fill-rule="evenodd" fill-opacity="1"/>
<defs>
  <clipPath id="clip771">
    <rect x="460" y="0" width="1614" height="1536"/>
  </clipPath>
</defs>
<path clip-path="url(#clip770)" d="M250.111 1347.54 L2256.76 1347.54 L2256.76 47.2441 L250.111 47.2441  Z" fill="#ffffff" fill-rule="evenodd" fill-opacity="1"/>
<defs>
  <clipPath id="clip772">
    <rect x="250" y="47" width="2008" height="1301"/>
  </clipPath>
</defs>
<polyline clip-path="url(#clip772)" style="stroke:#000000; stroke-linecap:round; stroke-linejoin:round; stroke-width:2; stroke-opacity:0.1; fill:none" points="306.903,1347.54 306.903,47.2441 "/>
<polyline clip-path="url(#clip772)" style="stroke:#000000; stroke-linecap:round; stroke-linejoin:round; stroke-width:2; stroke-opacity:0.1; fill:none" points="1253.43,1347.54 1253.43,47.2441 "/>
<polyline clip-path="url(#clip772)" style="stroke:#000000; stroke-linecap:round; stroke-linejoin:round; stroke-width:2; stroke-opacity:0.1; fill:none" points="2199.96,1347.54 2199.96,47.2441 "/>
<polyline clip-path="url(#clip770)" style="stroke:#000000; stroke-linecap:round; stroke-linejoin:round; stroke-width:4; stroke-opacity:1; fill:none" points="250.111,1347.54 2256.76,1347.54 "/>
<polyline clip-path="url(#clip770)" style="stroke:#000000; stroke-linecap:round; stroke-linejoin:round; stroke-width:4; stroke-opacity:1; fill:none" points="306.903,1347.54 306.903,1328.64 "/>
<polyline clip-path="url(#clip770)" style="stroke:#000000; stroke-linecap:round; stroke-linejoin:round; stroke-width:4; stroke-opacity:1; fill:none" points="1253.43,1347.54 1253.43,1328.64 "/>
<polyline clip-path="url(#clip770)" style="stroke:#000000; stroke-linecap:round; stroke-linejoin:round; stroke-width:4; stroke-opacity:1; fill:none" points="2199.96,1347.54 2199.96,1328.64 "/>
<path clip-path="url(#clip770)" d="M273.231 1420.89 L280.87 1420.89 L280.87 1394.53 L272.559 1396.19 L272.559 1391.94 L280.823 1390.27 L285.499 1390.27 L285.499 1420.89 L293.138 1420.89 L293.138 1424.83 L273.231 1424.83 L273.231 1420.89 Z" fill="#000000" fill-rule="nonzero" fill-opacity="1" /><path clip-path="url(#clip770)" d="M312.582 1393.35 Q308.971 1393.35 307.143 1396.91 Q305.337 1400.45 305.337 1407.58 Q305.337 1414.69 307.143 1418.25 Q308.971 1421.8 312.582 1421.8 Q316.217 1421.8 318.022 1418.25 Q319.851 1414.69 319.851 1407.58 Q319.851 1400.45 318.022 1396.91 Q316.217 1393.35 312.582 1393.35 M312.582 1389.64 Q318.392 1389.64 321.448 1394.25 Q324.527 1398.83 324.527 1407.58 Q324.527 1416.31 321.448 1420.92 Q318.392 1425.5 312.582 1425.5 Q306.772 1425.5 303.693 1420.92 Q300.638 1416.31 300.638 1407.58 Q300.638 1398.83 303.693 1394.25 Q306.772 1389.64 312.582 1389.64 Z" fill="#000000" fill-rule="nonzero" fill-opacity="1" /><path clip-path="url(#clip770)" d="M325.072 1394.22 L331.279 1394.22 L331.279 1372.8 L324.527 1374.15 L324.527 1370.69 L331.241 1369.34 L335.04 1369.34 L335.04 1394.22 L341.247 1394.22 L341.247 1397.42 L325.072 1397.42 L325.072 1394.22 Z" fill="#000000" fill-rule="nonzero" fill-opacity="1" /><path clip-path="url(#clip770)" d="M1219.21 1420.89 L1226.85 1420.89 L1226.85 1394.53 L1218.54 1396.19 L1218.54 1391.94 L1226.8 1390.27 L1231.47 1390.27 L1231.47 1420.89 L1239.11 1420.89 L1239.11 1424.83 L1219.21 1424.83 L1219.21 1420.89 Z" fill="#000000" fill-rule="nonzero" fill-opacity="1" /><path clip-path="url(#clip770)" d="M1258.56 1393.35 Q1254.95 1393.35 1253.12 1396.91 Q1251.31 1400.45 1251.31 1407.58 Q1251.31 1414.69 1253.12 1418.25 Q1254.95 1421.8 1258.56 1421.8 Q1262.19 1421.8 1264 1418.25 Q1265.83 1414.69 1265.83 1407.58 Q1265.83 1400.45 1264 1396.91 Q1262.19 1393.35 1258.56 1393.35 M1258.56 1389.64 Q1264.37 1389.64 1267.42 1394.25 Q1270.5 1398.83 1270.5 1407.58 Q1270.5 1416.31 1267.42 1420.92 Q1264.37 1425.5 1258.56 1425.5 Q1252.75 1425.5 1249.67 1420.92 Q1246.61 1416.31 1246.61 1407.58 Q1246.61 1398.83 1249.67 1394.25 Q1252.75 1389.64 1258.56 1389.64 Z" fill="#000000" fill-rule="nonzero" fill-opacity="1" /><path clip-path="url(#clip770)" d="M1275.07 1394.22 L1288.33 1394.22 L1288.33 1397.42 L1270.5 1397.42 L1270.5 1394.22 Q1272.67 1391.98 1276.39 1388.22 Q1280.13 1384.44 1281.09 1383.35 Q1282.92 1381.3 1283.63 1379.89 Q1284.36 1378.46 1284.36 1377.09 Q1284.36 1374.85 1282.78 1373.44 Q1281.22 1372.03 1278.7 1372.03 Q1276.92 1372.03 1274.92 1372.65 Q1272.95 1373.27 1270.69 1374.53 L1270.69 1370.69 Q1272.98 1369.77 1274.98 1369.3 Q1276.97 1368.83 1278.63 1368.83 Q1282.99 1368.83 1285.59 1371.01 Q1288.18 1373.19 1288.18 1376.84 Q1288.18 1378.57 1287.52 1380.13 Q1286.88 1381.68 1285.17 1383.78 Q1284.7 1384.33 1282.18 1386.94 Q1279.66 1389.54 1275.07 1394.22 Z" fill="#000000" fill-rule="nonzero" fill-opacity="1" /><path clip-path="url(#clip770)" d="M2165.41 1420.89 L2173.05 1420.89 L2173.05 1394.53 L2164.74 1396.19 L2164.74 1391.94 L2173 1390.27 L2177.68 1390.27 L2177.68 1420.89 L2185.31 1420.89 L2185.31 1424.83 L2165.41 1424.83 L2165.41 1420.89 Z" fill="#000000" fill-rule="nonzero" fill-opacity="1" /><path clip-path="url(#clip770)" d="M2204.76 1393.35 Q2201.15 1393.35 2199.32 1396.91 Q2197.51 1400.45 2197.51 1407.58 Q2197.51 1414.69 2199.32 1418.25 Q2201.15 1421.8 2204.76 1421.8 Q2208.39 1421.8 2210.2 1418.25 Q2212.03 1414.69 2212.03 1407.58 Q2212.03 1400.45 2210.2 1396.91 Q2208.39 1393.35 2204.76 1393.35 M2204.76 1389.64 Q2210.57 1389.64 2213.63 1394.25 Q2216.7 1398.83 2216.7 1407.58 Q2216.7 1416.31 2213.63 1420.92 Q2210.57 1425.5 2204.76 1425.5 Q2198.95 1425.5 2195.87 1420.92 Q2192.81 1416.31 2192.81 1407.58 Q2192.81 1398.83 2195.87 1394.25 Q2198.95 1389.64 2204.76 1389.64 Z" fill="#000000" fill-rule="nonzero" fill-opacity="1" /><path clip-path="url(#clip770)" d="M2229.4 1382.28 Q2232.13 1382.86 2233.65 1384.7 Q2235.19 1386.55 2235.19 1389.26 Q2235.19 1393.41 2232.33 1395.69 Q2229.47 1397.96 2224.21 1397.96 Q2222.44 1397.96 2220.56 1397.61 Q2218.7 1397.27 2216.7 1396.57 L2216.7 1392.9 Q2218.28 1393.83 2220.16 1394.3 Q2222.05 1394.77 2224.1 1394.77 Q2227.67 1394.77 2229.53 1393.36 Q2231.41 1391.95 2231.41 1389.26 Q2231.41 1386.77 2229.66 1385.38 Q2227.93 1383.97 2224.83 1383.97 L2221.56 1383.97 L2221.56 1380.85 L2224.98 1380.85 Q2227.78 1380.85 2229.27 1379.74 Q2230.75 1378.61 2230.75 1376.5 Q2230.75 1374.34 2229.21 1373.19 Q2227.69 1372.03 2224.83 1372.03 Q2223.27 1372.03 2221.48 1372.37 Q2219.69 1372.7 2217.55 1373.42 L2217.55 1370.03 Q2219.71 1369.43 2221.59 1369.13 Q2223.49 1368.83 2225.17 1368.83 Q2229.49 1368.83 2232.01 1370.81 Q2234.53 1372.76 2234.53 1376.11 Q2234.53 1378.44 2233.2 1380.06 Q2231.86 1381.66 2229.4 1382.28 Z" fill="#000000" fill-rule="nonzero" fill-opacity="1" /><path clip-path="url(#clip770)" d="M1063.43 1466.23 Q1056.43 1466.23 1052.29 1471.45 Q1048.19 1476.67 1048.19 1485.67 Q1048.19 1494.65 1052.29 1499.87 Q1056.43 1505.09 1063.43 1505.09 Q1070.44 1505.09 1074.51 1499.87 Q1078.62 1494.65 1078.62 1485.67 Q1078.62 1476.67 1074.51 1471.45 Q1070.44 1466.23 1063.43 1466.23 M1063.43 1461.01 Q1073.43 1461.01 1079.41 1467.72 Q1085.39 1474.41 1085.39 1485.67 Q1085.39 1496.91 1079.41 1503.62 Q1073.43 1510.31 1063.43 1510.31 Q1053.41 1510.31 1047.39 1503.62 Q1041.41 1496.94 1041.41 1485.67 Q1041.41 1474.41 1047.39 1467.72 Q1053.41 1461.01 1063.43 1461.01 Z" fill="#000000" fill-rule="nonzero" fill-opacity="1" /><path clip-path="url(#clip770)" d="M1120.79 1491.59 Q1120.79 1485.13 1118.11 1481.47 Q1115.47 1477.78 1110.83 1477.78 Q1106.18 1477.78 1103.51 1481.47 Q1100.86 1485.13 1100.86 1491.59 Q1100.86 1498.05 1103.51 1501.75 Q1106.18 1505.41 1110.83 1505.41 Q1115.47 1505.41 1118.11 1501.75 Q1120.79 1498.05 1120.79 1491.59 M1100.86 1479.15 Q1102.71 1475.97 1105.51 1474.44 Q1108.34 1472.88 1112.26 1472.88 Q1118.75 1472.88 1122.79 1478.03 Q1126.87 1483.19 1126.87 1491.59 Q1126.87 1500 1122.79 1505.15 Q1118.75 1510.31 1112.26 1510.31 Q1108.34 1510.31 1105.51 1508.78 Q1102.71 1507.22 1100.86 1504.04 L1100.86 1509.39 L1094.98 1509.39 L1094.98 1459.86 L1100.86 1459.86 L1100.86 1479.15 Z" fill="#000000" fill-rule="nonzero" fill-opacity="1" /><path clip-path="url(#clip770)" d="M1159.3 1474.79 L1159.3 1480.33 Q1156.82 1479.05 1154.14 1478.42 Q1151.47 1477.78 1148.61 1477.78 Q1144.25 1477.78 1142.05 1479.12 Q1139.89 1480.45 1139.89 1483.13 Q1139.89 1485.16 1141.44 1486.34 Q1143 1487.49 1147.72 1488.54 L1149.72 1488.98 Q1155.96 1490.32 1158.57 1492.77 Q1161.21 1495.19 1161.21 1499.55 Q1161.21 1504.52 1157.26 1507.41 Q1153.35 1510.31 1146.47 1510.31 Q1143.61 1510.31 1140.49 1509.74 Q1137.4 1509.19 1133.97 1508.08 L1133.97 1502.03 Q1137.21 1503.72 1140.36 1504.58 Q1143.51 1505.41 1146.6 1505.41 Q1150.74 1505.41 1152.97 1504.01 Q1155.19 1502.57 1155.19 1500 Q1155.19 1497.61 1153.57 1496.34 Q1151.98 1495.06 1146.54 1493.88 L1144.5 1493.41 Q1139.06 1492.26 1136.64 1489.91 Q1134.22 1487.52 1134.22 1483.38 Q1134.22 1478.35 1137.78 1475.62 Q1141.35 1472.88 1147.91 1472.88 Q1151.15 1472.88 1154.02 1473.36 Q1156.88 1473.83 1159.3 1474.79 Z" fill="#000000" fill-rule="nonzero" fill-opacity="1" /><path clip-path="url(#clip770)" d="M1201.03 1490.1 L1201.03 1492.96 L1174.1 1492.96 Q1174.48 1499.01 1177.73 1502.19 Q1181.01 1505.34 1186.83 1505.34 Q1190.21 1505.34 1193.36 1504.52 Q1196.54 1503.69 1199.66 1502.03 L1199.66 1507.57 Q1196.51 1508.91 1193.2 1509.61 Q1189.89 1510.31 1186.48 1510.31 Q1177.95 1510.31 1172.96 1505.34 Q1167.99 1500.38 1167.99 1491.91 Q1167.99 1483.16 1172.7 1478.03 Q1177.44 1472.88 1185.46 1472.88 Q1192.66 1472.88 1196.83 1477.53 Q1201.03 1482.14 1201.03 1490.1 M1195.17 1488.38 Q1195.11 1483.57 1192.47 1480.71 Q1189.86 1477.84 1185.53 1477.84 Q1180.63 1477.84 1177.67 1480.61 Q1174.74 1483.38 1174.29 1488.41 L1195.17 1488.38 Z" fill="#000000" fill-rule="nonzero" fill-opacity="1" /><path clip-path="url(#clip770)" d="M1231.3 1479.21 Q1230.31 1478.64 1229.13 1478.38 Q1227.99 1478.1 1226.59 1478.1 Q1221.62 1478.1 1218.95 1481.34 Q1216.31 1484.56 1216.31 1490.61 L1216.31 1509.39 L1210.42 1509.39 L1210.42 1473.74 L1216.31 1473.74 L1216.31 1479.28 Q1218.15 1476.03 1221.11 1474.47 Q1224.07 1472.88 1228.3 1472.88 Q1228.91 1472.88 1229.64 1472.97 Q1230.37 1473.04 1231.27 1473.2 L1231.3 1479.21 Z" fill="#000000" fill-rule="nonzero" fill-opacity="1" /><path clip-path="url(#clip770)" d="M1233.24 1473.74 L1239.44 1473.74 L1250.58 1503.66 L1261.72 1473.74 L1267.93 1473.74 L1254.56 1509.39 L1246.61 1509.39 L1233.24 1473.74 Z" fill="#000000" fill-rule="nonzero" fill-opacity="1" /><path clip-path="url(#clip770)" d="M1292.22 1491.47 Q1285.12 1491.47 1282.38 1493.09 Q1279.64 1494.71 1279.64 1498.63 Q1279.64 1501.75 1281.68 1503.59 Q1283.75 1505.41 1287.28 1505.41 Q1292.15 1505.41 1295.08 1501.97 Q1298.04 1498.5 1298.04 1492.77 L1298.04 1491.47 L1292.22 1491.47 M1303.9 1489.05 L1303.9 1509.39 L1298.04 1509.39 L1298.04 1503.97 Q1296.04 1507.22 1293.04 1508.78 Q1290.05 1510.31 1285.72 1510.31 Q1280.25 1510.31 1277 1507.25 Q1273.79 1504.17 1273.79 1499.01 Q1273.79 1492.99 1277.8 1489.94 Q1281.84 1486.88 1289.83 1486.88 L1298.04 1486.88 L1298.04 1486.31 Q1298.04 1482.27 1295.37 1480.07 Q1292.73 1477.84 1287.92 1477.84 Q1284.86 1477.84 1281.97 1478.58 Q1279.07 1479.31 1276.4 1480.77 L1276.4 1475.36 Q1279.61 1474.12 1282.64 1473.51 Q1285.66 1472.88 1288.52 1472.88 Q1296.26 1472.88 1300.08 1476.89 Q1303.9 1480.9 1303.9 1489.05 Z" fill="#000000" fill-rule="nonzero" fill-opacity="1" /><path clip-path="url(#clip770)" d="M1321.75 1463.62 L1321.75 1473.74 L1333.82 1473.74 L1333.82 1478.29 L1321.75 1478.29 L1321.75 1497.64 Q1321.75 1502 1322.93 1503.24 Q1324.14 1504.48 1327.8 1504.48 L1333.82 1504.48 L1333.82 1509.39 L1327.8 1509.39 Q1321.02 1509.39 1318.44 1506.87 Q1315.87 1504.32 1315.87 1497.64 L1315.87 1478.29 L1311.57 1478.29 L1311.57 1473.74 L1315.87 1473.74 L1315.87 1463.62 L1321.75 1463.62 Z" fill="#000000" fill-rule="nonzero" fill-opacity="1" /><path clip-path="url(#clip770)" d="M1341.52 1473.74 L1347.38 1473.74 L1347.38 1509.39 L1341.52 1509.39 L1341.52 1473.74 M1341.52 1459.86 L1347.38 1459.86 L1347.38 1467.28 L1341.52 1467.28 L1341.52 1459.86 Z" fill="#000000" fill-rule="nonzero" fill-opacity="1" /><path clip-path="url(#clip770)" d="M1373.44 1477.84 Q1368.73 1477.84 1366 1481.54 Q1363.26 1485.2 1363.26 1491.59 Q1363.26 1497.99 1365.96 1501.68 Q1368.7 1505.34 1373.44 1505.34 Q1378.12 1505.34 1380.86 1501.65 Q1383.6 1497.96 1383.6 1491.59 Q1383.6 1485.26 1380.86 1481.57 Q1378.12 1477.84 1373.44 1477.84 M1373.44 1472.88 Q1381.08 1472.88 1385.44 1477.84 Q1389.8 1482.81 1389.8 1491.59 Q1389.8 1500.35 1385.44 1505.34 Q1381.08 1510.31 1373.44 1510.31 Q1365.77 1510.31 1361.41 1505.34 Q1357.08 1500.35 1357.08 1491.59 Q1357.08 1482.81 1361.41 1477.84 Q1365.77 1472.88 1373.44 1472.88 Z" fill="#000000" fill-rule="nonzero" fill-opacity="1" /><path clip-path="url(#clip770)" d="M1429.14 1487.87 L1429.14 1509.39 L1423.29 1509.39 L1423.29 1488.06 Q1423.29 1483 1421.31 1480.49 Q1419.34 1477.97 1415.39 1477.97 Q1410.65 1477.97 1407.91 1480.99 Q1405.18 1484.02 1405.18 1489.24 L1405.18 1509.39 L1399.29 1509.39 L1399.29 1473.74 L1405.18 1473.74 L1405.18 1479.28 Q1407.28 1476.06 1410.11 1474.47 Q1412.97 1472.88 1416.7 1472.88 Q1422.84 1472.88 1425.99 1476.7 Q1429.14 1480.49 1429.14 1487.87 Z" fill="#000000" fill-rule="nonzero" fill-opacity="1" /><path clip-path="url(#clip770)" d="M1463.55 1474.79 L1463.55 1480.33 Q1461.07 1479.05 1458.39 1478.42 Q1455.72 1477.78 1452.86 1477.78 Q1448.49 1477.78 1446.3 1479.12 Q1444.13 1480.45 1444.13 1483.13 Q1444.13 1485.16 1445.69 1486.34 Q1447.25 1487.49 1451.96 1488.54 L1453.97 1488.98 Q1460.21 1490.32 1462.82 1492.77 Q1465.46 1495.19 1465.46 1499.55 Q1465.46 1504.52 1461.51 1507.41 Q1457.6 1510.31 1450.72 1510.31 Q1447.86 1510.31 1444.74 1509.74 Q1441.65 1509.19 1438.21 1508.08 L1438.21 1502.03 Q1441.46 1503.72 1444.61 1504.58 Q1447.76 1505.41 1450.85 1505.41 Q1454.99 1505.41 1457.22 1504.01 Q1459.44 1502.57 1459.44 1500 Q1459.44 1497.61 1457.82 1496.34 Q1456.23 1495.06 1450.79 1493.88 L1448.75 1493.41 Q1443.31 1492.26 1440.89 1489.91 Q1438.47 1487.52 1438.47 1483.38 Q1438.47 1478.35 1442.03 1475.62 Q1445.6 1472.88 1452.16 1472.88 Q1455.4 1472.88 1458.27 1473.36 Q1461.13 1473.83 1463.55 1474.79 Z" fill="#000000" fill-rule="nonzero" fill-opacity="1" /><polyline clip-path="url(#clip772)" style="stroke:#000000; stroke-linecap:round; stroke-linejoin:round; stroke-width:2; stroke-opacity:0.1; fill:none" points="250.111,1021.13 2256.76,1021.13 "/>
<polyline clip-path="url(#clip772)" style="stroke:#000000; stroke-linecap:round; stroke-linejoin:round; stroke-width:2; stroke-opacity:0.1; fill:none" points="250.111,455.462 2256.76,455.462 "/>
<polyline clip-path="url(#clip770)" style="stroke:#000000; stroke-linecap:round; stroke-linejoin:round; stroke-width:4; stroke-opacity:1; fill:none" points="250.111,1347.54 250.111,47.2441 "/>
<polyline clip-path="url(#clip770)" style="stroke:#000000; stroke-linecap:round; stroke-linejoin:round; stroke-width:4; stroke-opacity:1; fill:none" points="250.111,1021.13 269.009,1021.13 "/>
<polyline clip-path="url(#clip770)" style="stroke:#000000; stroke-linecap:round; stroke-linejoin:round; stroke-width:4; stroke-opacity:1; fill:none" points="250.111,455.462 269.009,455.462 "/>
<path clip-path="url(#clip770)" d="M115.411 1040.92 L123.05 1040.92 L123.05 1014.55 L114.74 1016.22 L114.74 1011.96 L123.004 1010.29 L127.68 1010.29 L127.68 1040.92 L135.319 1040.92 L135.319 1044.85 L115.411 1044.85 L115.411 1040.92 Z" fill="#000000" fill-rule="nonzero" fill-opacity="1" /><path clip-path="url(#clip770)" d="M154.763 1013.37 Q151.152 1013.37 149.323 1016.94 Q147.518 1020.48 147.518 1027.61 Q147.518 1034.71 149.323 1038.28 Q151.152 1041.82 154.763 1041.82 Q158.397 1041.82 160.203 1038.28 Q162.032 1034.71 162.032 1027.61 Q162.032 1020.48 160.203 1016.94 Q158.397 1013.37 154.763 1013.37 M154.763 1009.67 Q160.573 1009.67 163.629 1014.27 Q166.707 1018.86 166.707 1027.61 Q166.707 1036.33 163.629 1040.94 Q160.573 1045.52 154.763 1045.52 Q148.953 1045.52 145.874 1040.94 Q142.819 1036.33 142.819 1027.61 Q142.819 1018.86 145.874 1014.27 Q148.953 1009.67 154.763 1009.67 Z" fill="#000000" fill-rule="nonzero" fill-opacity="1" /><path clip-path="url(#clip770)" d="M166.707 1003.77 L190.819 1003.77 L190.819 1006.97 L166.707 1006.97 L166.707 1003.77 Z" fill="#000000" fill-rule="nonzero" fill-opacity="1" /><path clip-path="url(#clip770)" d="M202.292 1014.25 L215.551 1014.25 L215.551 1017.44 L197.721 1017.44 L197.721 1014.25 Q199.884 1012.01 203.608 1008.25 Q207.351 1004.47 208.31 1003.37 Q210.135 1001.32 210.849 999.914 Q211.583 998.485 211.583 997.112 Q211.583 994.874 210.003 993.463 Q208.442 992.053 205.922 992.053 Q204.135 992.053 202.141 992.673 Q200.166 993.294 197.91 994.554 L197.91 990.717 Q200.204 989.796 202.198 989.325 Q204.191 988.855 205.846 988.855 Q210.21 988.855 212.805 991.037 Q215.401 993.219 215.401 996.867 Q215.401 998.598 214.743 1000.16 Q214.103 1001.7 212.392 1003.81 Q211.921 1004.35 209.401 1006.97 Q206.881 1009.56 202.292 1014.25 Z" fill="#000000" fill-rule="nonzero" fill-opacity="1" /><path clip-path="url(#clip770)" d="M144.846 475.254 L152.484 475.254 L152.484 448.889 L144.174 450.555 L144.174 446.296 L152.438 444.629 L157.114 444.629 L157.114 475.254 L164.753 475.254 L164.753 479.189 L144.846 479.189 L144.846 475.254 Z" fill="#000000" fill-rule="nonzero" fill-opacity="1" /><path clip-path="url(#clip770)" d="M184.197 447.708 Q180.586 447.708 178.757 451.273 Q176.952 454.814 176.952 461.944 Q176.952 469.051 178.757 472.615 Q180.586 476.157 184.197 476.157 Q187.831 476.157 189.637 472.615 Q191.466 469.051 191.466 461.944 Q191.466 454.814 189.637 451.273 Q187.831 447.708 184.197 447.708 M184.197 444.004 Q190.007 444.004 193.063 448.611 Q196.142 453.194 196.142 461.944 Q196.142 470.671 193.063 475.277 Q190.007 479.861 184.197 479.861 Q178.387 479.861 175.308 475.277 Q172.253 470.671 172.253 461.944 Q172.253 453.194 175.308 448.611 Q178.387 444.004 184.197 444.004 Z" fill="#000000" fill-rule="nonzero" fill-opacity="1" /><path clip-path="url(#clip770)" d="M205.846 426.2 Q202.912 426.2 201.427 429.097 Q199.96 431.974 199.96 437.767 Q199.96 443.541 201.427 446.438 Q202.912 449.315 205.846 449.315 Q208.799 449.315 210.266 446.438 Q211.752 443.541 211.752 437.767 Q211.752 431.974 210.266 429.097 Q208.799 426.2 205.846 426.2 M205.846 423.191 Q210.567 423.191 213.05 426.934 Q215.551 430.658 215.551 437.767 Q215.551 444.858 213.05 448.6 Q210.567 452.324 205.846 452.324 Q201.126 452.324 198.624 448.6 Q196.142 444.858 196.142 437.767 Q196.142 430.658 198.624 426.934 Q201.126 423.191 205.846 423.191 Z" fill="#000000" fill-rule="nonzero" fill-opacity="1" /><path clip-path="url(#clip770)" d="M18.4042 928.052 L18.4042 898.006 L23.815 898.006 L23.815 921.622 L37.8832 921.622 L37.8832 898.992 L43.2941 898.992 L43.2941 921.622 L60.5133 921.622 L60.5133 897.433 L65.9242 897.433 L65.9242 928.052 L18.4042 928.052 Z" fill="#000000" fill-rule="nonzero" fill-opacity="1" /><path clip-path="url(#clip770)" d="M19.9638 858.379 L26.234 858.379 Q24.4834 862.039 23.624 865.286 Q22.7647 868.532 22.7647 871.556 Q22.7647 876.808 24.8017 879.672 Q26.8387 882.505 30.5945 882.505 Q33.7455 882.505 35.3688 880.627 Q36.9602 878.718 37.9469 873.434 L38.7426 869.551 Q40.1112 862.358 43.5805 858.952 Q47.018 855.515 52.8108 855.515 Q59.7176 855.515 63.2824 860.161 Q66.8472 864.777 66.8472 873.72 Q66.8472 877.094 66.0833 880.914 Q65.3194 884.701 63.8235 888.775 L57.2031 888.775 Q59.3993 884.86 60.5133 881.105 Q61.6273 877.349 61.6273 873.72 Q61.6273 868.214 59.463 865.222 Q57.2986 862.23 53.2882 862.23 Q49.7871 862.23 47.8137 864.395 Q45.8404 866.527 44.8537 871.429 L44.0898 875.344 Q42.6575 882.537 39.602 885.752 Q36.5464 888.966 31.1037 888.966 Q24.8017 888.966 21.1732 884.542 Q17.5448 880.086 17.5448 872.288 Q17.5448 868.946 18.1495 865.477 Q18.7543 862.008 19.9638 858.379 Z" fill="#000000" fill-rule="nonzero" fill-opacity="1" /><path clip-path="url(#clip770)" d="M19.9638 817.002 L26.234 817.002 Q24.4834 820.662 23.624 823.909 Q22.7647 827.155 22.7647 830.179 Q22.7647 835.431 24.8017 838.295 Q26.8387 841.128 30.5945 841.128 Q33.7455 841.128 35.3688 839.25 Q36.9602 837.34 37.9469 832.057 L38.7426 828.174 Q40.1112 820.981 43.5805 817.575 Q47.018 814.137 52.8108 814.137 Q59.7176 814.137 63.2824 818.784 Q66.8472 823.4 66.8472 832.343 Q66.8472 835.717 66.0833 839.537 Q65.3194 843.324 63.8235 847.398 L57.2031 847.398 Q59.3993 843.483 60.5133 839.728 Q61.6273 835.972 61.6273 832.343 Q61.6273 826.837 59.463 823.845 Q57.2986 820.853 53.2882 820.853 Q49.7871 820.853 47.8137 823.018 Q45.8404 825.15 44.8537 830.052 L44.0898 833.967 Q42.6575 841.16 39.602 844.375 Q36.5464 847.589 31.1037 847.589 Q24.8017 847.589 21.1732 843.165 Q17.5448 838.709 17.5448 830.911 Q17.5448 827.569 18.1495 824.1 Q18.7543 820.63 19.9638 817.002 Z" fill="#000000" fill-rule="nonzero" fill-opacity="1" /><path clip-path="url(#clip770)" d="M60.577 777.98 L79.4831 777.98 L79.4831 783.868 L30.2762 783.868 L30.2762 777.98 L35.6871 777.98 Q32.5042 776.134 30.9764 773.333 Q29.4168 770.501 29.4168 766.586 Q29.4168 760.093 34.5731 756.05 Q39.7293 751.976 48.132 751.976 Q56.5347 751.976 61.691 756.05 Q66.8472 760.093 66.8472 766.586 Q66.8472 770.501 65.3194 773.333 Q63.7598 776.134 60.577 777.98 M48.132 758.056 Q41.6708 758.056 38.0105 760.729 Q34.3184 763.371 34.3184 768.018 Q34.3184 772.665 38.0105 775.338 Q41.6708 777.98 48.132 777.98 Q54.5932 777.98 58.2853 775.338 Q61.9456 772.665 61.9456 768.018 Q61.9456 763.371 58.2853 760.729 Q54.5932 758.056 48.132 758.056 Z" fill="#000000" fill-rule="nonzero" fill-opacity="1" /><path clip-path="url(#clip770)" d="M46.6361 711.777 L49.5006 711.777 L49.5006 738.704 Q55.5481 738.322 58.7309 735.075 Q61.8819 731.797 61.8819 725.972 Q61.8819 722.599 61.0544 719.448 Q60.2269 716.265 58.5718 713.145 L64.1099 713.145 Q65.4467 716.297 66.147 719.607 Q66.8472 722.917 66.8472 726.323 Q66.8472 734.853 61.8819 739.85 Q56.9167 744.815 48.4503 744.815 Q39.6974 744.815 34.5731 740.104 Q29.4168 735.362 29.4168 727.341 Q29.4168 720.148 34.0638 715.978 Q38.6789 711.777 46.6361 711.777 M44.9173 717.633 Q40.1112 717.697 37.2466 720.339 Q34.3821 722.949 34.3821 727.277 Q34.3821 732.179 37.1512 735.139 Q39.9202 738.067 44.9492 738.513 L44.9173 717.633 Z" fill="#000000" fill-rule="nonzero" fill-opacity="1" /><path clip-path="url(#clip770)" d="M35.7507 681.508 Q35.1778 682.495 34.9232 683.672 Q34.6367 684.818 34.6367 686.219 Q34.6367 691.184 37.8832 693.857 Q41.0979 696.499 47.1453 696.499 L65.9242 696.499 L65.9242 702.387 L30.2762 702.387 L30.2762 696.499 L35.8144 696.499 Q32.5679 694.653 31.0083 691.693 Q29.4168 688.733 29.4168 684.5 Q29.4168 683.895 29.5123 683.163 Q29.576 682.431 29.7351 681.54 L35.7507 681.508 Z" fill="#000000" fill-rule="nonzero" fill-opacity="1" /><path clip-path="url(#clip770)" d="M18.4042 654.39 L18.4042 624.344 L23.815 624.344 L23.815 647.961 L37.8832 647.961 L37.8832 625.331 L43.2941 625.331 L43.2941 647.961 L60.5133 647.961 L60.5133 623.771 L65.9242 623.771 L65.9242 654.39 L18.4042 654.39 Z" fill="#000000" fill-rule="nonzero" fill-opacity="1" /><path clip-path="url(#clip770)" d="M60.577 607.793 L79.4831 607.793 L79.4831 613.681 L30.2762 613.681 L30.2762 607.793 L35.6871 607.793 Q32.5042 605.947 30.9764 603.146 Q29.4168 600.313 29.4168 596.398 Q29.4168 589.905 34.5731 585.863 Q39.7293 581.789 48.132 581.789 Q56.5347 581.789 61.691 585.863 Q66.8472 589.905 66.8472 596.398 Q66.8472 600.313 65.3194 603.146 Q63.7598 605.947 60.577 607.793 M48.132 587.868 Q41.6708 587.868 38.0105 590.542 Q34.3184 593.184 34.3184 597.831 Q34.3184 602.478 38.0105 605.151 Q41.6708 607.793 48.132 607.793 Q54.5932 607.793 58.2853 605.151 Q61.9456 602.478 61.9456 597.831 Q61.9456 593.184 58.2853 590.542 Q54.5932 587.868 48.132 587.868 Z" fill="#000000" fill-rule="nonzero" fill-opacity="1" /><path clip-path="url(#clip770)" d="M34.3821 558.268 Q34.3821 562.978 38.0742 565.716 Q41.7345 568.453 48.132 568.453 Q54.5295 568.453 58.2217 565.748 Q61.8819 563.01 61.8819 558.268 Q61.8819 553.589 58.1898 550.852 Q54.4977 548.115 48.132 548.115 Q41.7981 548.115 38.106 550.852 Q34.3821 553.589 34.3821 558.268 M29.4168 558.268 Q29.4168 550.629 34.3821 546.268 Q39.3473 541.908 48.132 541.908 Q56.8849 541.908 61.8819 546.268 Q66.8472 550.629 66.8472 558.268 Q66.8472 565.939 61.8819 570.299 Q56.8849 574.628 48.132 574.628 Q39.3473 574.628 34.3821 570.299 Q29.4168 565.939 29.4168 558.268 Z" fill="#000000" fill-rule="nonzero" fill-opacity="1" /><path clip-path="url(#clip770)" d="M31.6448 506.546 L37.1193 506.546 Q35.7507 509.029 35.0823 511.544 Q34.3821 514.026 34.3821 516.572 Q34.3821 522.27 38.0105 525.421 Q41.6072 528.572 48.132 528.572 Q54.6569 528.572 58.2853 525.421 Q61.8819 522.27 61.8819 516.572 Q61.8819 514.026 61.2135 511.544 Q60.5133 509.029 59.1447 506.546 L64.5555 506.546 Q65.7014 508.997 66.2743 511.639 Q66.8472 514.249 66.8472 517.209 Q66.8472 525.262 61.7864 530.004 Q56.7257 534.747 48.132 534.747 Q39.411 534.747 34.4139 529.972 Q29.4168 525.166 29.4168 516.827 Q29.4168 514.122 29.9897 511.544 Q30.5308 508.965 31.6448 506.546 Z" fill="#000000" fill-rule="nonzero" fill-opacity="1" /><path clip-path="url(#clip770)" d="M44.4081 466.729 L65.9242 466.729 L65.9242 472.585 L44.599 472.585 Q39.5383 472.585 37.0238 474.559 Q34.5094 476.532 34.5094 480.479 Q34.5094 485.221 37.5331 487.959 Q40.5568 490.696 45.7767 490.696 L65.9242 490.696 L65.9242 496.584 L16.399 496.584 L16.399 490.696 L35.8144 490.696 Q32.5997 488.595 31.0083 485.762 Q29.4168 482.898 29.4168 479.174 Q29.4168 473.031 33.2363 469.88 Q37.0238 466.729 44.4081 466.729 Z" fill="#000000" fill-rule="nonzero" fill-opacity="1" /><polyline clip-path="url(#clip772)" style="stroke:#78c2ad; stroke-linecap:round; stroke-linejoin:round; stroke-width:4; stroke-opacity:1; fill:none" points="306.903,701.205 306.903,616.506 "/>
<polyline clip-path="url(#clip772)" style="stroke:#78c2ad; stroke-linecap:round; stroke-linejoin:round; stroke-width:4; stroke-opacity:1; fill:none" points="1253.43,1009.52 1253.43,924.797 "/>
<polyline clip-path="url(#clip772)" style="stroke:#78c2ad; stroke-linecap:round; stroke-linejoin:round; stroke-width:4; stroke-opacity:1; fill:none" points="2199.96,1310.74 2199.96,1225.4 "/>
<line clip-path="url(#clip772)" x1="326.903" y1="701.205" x2="286.903" y2="701.205" style="stroke:#78c2ad; stroke-width:4; stroke-opacity:0.6"/>
<line clip-path="url(#clip772)" x1="326.903" y1="616.506" x2="286.903" y2="616.506" style="stroke:#78c2ad; stroke-width:4; stroke-opacity:0.6"/>
<line clip-path="url(#clip772)" x1="1273.43" y1="1009.52" x2="1233.43" y2="1009.52" style="stroke:#78c2ad; stroke-width:4; stroke-opacity:0.6"/>
<line clip-path="url(#clip772)" x1="1273.43" y1="924.797" x2="1233.43" y2="924.797" style="stroke:#78c2ad; stroke-width:4; stroke-opacity:0.6"/>
<line clip-path="url(#clip772)" x1="2219.96" y1="1310.74" x2="2179.96" y2="1310.74" style="stroke:#78c2ad; stroke-width:4; stroke-opacity:0.6"/>
<line clip-path="url(#clip772)" x1="2219.96" y1="1225.4" x2="2179.96" y2="1225.4" style="stroke:#78c2ad; stroke-width:4; stroke-opacity:0.6"/>
<circle clip-path="url(#clip772)" cx="306.903" cy="651.695" r="18" fill="#78c2ad" fill-rule="evenodd" fill-opacity="0.6" stroke="none"/>
<circle clip-path="url(#clip772)" cx="1253.43" cy="959.996" r="18" fill="#78c2ad" fill-rule="evenodd" fill-opacity="0.6" stroke="none"/>
<circle clip-path="url(#clip772)" cx="2199.96" cy="1260.8" r="18" fill="#78c2ad" fill-rule="evenodd" fill-opacity="0.6" stroke="none"/>
<polyline clip-path="url(#clip772)" style="stroke:#78c2ad; stroke-linecap:round; stroke-linejoin:round; stroke-width:8; stroke-opacity:1; fill:none" points="306.903,652.944 326.025,659.096 345.147,665.249 364.269,671.402 383.39,677.554 402.512,683.707 421.634,689.86 440.756,696.012 459.878,702.165 479,708.317 498.121,714.47 517.243,720.623 536.365,726.775 555.487,732.928 574.609,739.08 593.731,745.233 612.852,751.386 631.974,757.538 651.096,763.691 670.218,769.844 689.34,775.996 708.461,782.149 727.583,788.301 746.705,794.454 765.827,800.607 784.949,806.759 804.071,812.912 823.192,819.065 842.314,825.217 861.436,831.37 880.558,837.522 899.68,843.675 918.802,849.828 937.923,855.98 957.045,862.133 976.167,868.285 995.289,874.438 1014.41,880.591 1033.53,886.743 1052.65,892.896 1071.78,899.049 1090.9,905.201 1110.02,911.354 1129.14,917.506 1148.26,923.659 1167.39,929.812 1186.51,935.964 1205.63,942.117 1224.75,948.27 1243.87,954.422 1262.99,960.575 1282.12,966.727 1301.24,972.88 1320.36,979.033 1339.48,985.185 1358.6,991.338 1377.73,997.49 1396.85,1003.64 1415.97,1009.8 1435.09,1015.95 1454.21,1022.1 1473.33,1028.25 1492.46,1034.41 1511.58,1040.56 1530.7,1046.71 1549.82,1052.86 1568.94,1059.02 1588.07,1065.17 1607.19,1071.32 1626.31,1077.47 1645.43,1083.63 1664.55,1089.78 1683.67,1095.93 1702.8,1102.09 1721.92,1108.24 1741.04,1114.39 1760.16,1120.54 1779.28,1126.7 1798.41,1132.85 1817.53,1139 1836.65,1145.15 1855.77,1151.31 1874.89,1157.46 1894.01,1163.61 1913.14,1169.76 1932.26,1175.92 1951.38,1182.07 1970.5,1188.22 1989.62,1194.37 2008.75,1200.53 2027.87,1206.68 2046.99,1212.83 2066.11,1218.98 2085.23,1225.14 2104.35,1231.29 2123.48,1237.44 2142.6,1243.6 2161.72,1249.75 2180.84,1255.9 2199.96,1262.05 "/>
<polyline clip-path="url(#clip772)" style="stroke:#e95420; stroke-linecap:round; stroke-linejoin:round; stroke-width:4; stroke-opacity:1; fill:none" points="306.903,632.994 306.903,548.097 "/>
<polyline clip-path="url(#clip772)" style="stroke:#e95420; stroke-linecap:round; stroke-linejoin:round; stroke-width:4; stroke-opacity:1; fill:none" points="1253.43,864.588 1253.43,779.67 "/>
<polyline clip-path="url(#clip772)" style="stroke:#e95420; stroke-linecap:round; stroke-linejoin:round; stroke-width:4; stroke-opacity:1; fill:none" points="2199.96,1015.46 2199.96,929.77 "/>
<line clip-path="url(#clip772)" x1="326.903" y1="632.994" x2="286.903" y2="632.994" style="stroke:#e95420; stroke-width:4; stroke-opacity:0.6"/>
<line clip-path="url(#clip772)" x1="326.903" y1="548.097" x2="286.903" y2="548.097" style="stroke:#e95420; stroke-width:4; stroke-opacity:0.6"/>
<line clip-path="url(#clip772)" x1="1273.43" y1="864.588" x2="1233.43" y2="864.588" style="stroke:#e95420; stroke-width:4; stroke-opacity:0.6"/>
<line clip-path="url(#clip772)" x1="1273.43" y1="779.67" x2="1233.43" y2="779.67" style="stroke:#e95420; stroke-width:4; stroke-opacity:0.6"/>
<line clip-path="url(#clip772)" x1="2219.96" y1="1015.46" x2="2179.96" y2="1015.46" style="stroke:#e95420; stroke-width:4; stroke-opacity:0.6"/>
<line clip-path="url(#clip772)" x1="2219.96" y1="929.77" x2="2179.96" y2="929.77" style="stroke:#e95420; stroke-width:4; stroke-opacity:0.6"/>
<circle clip-path="url(#clip772)" cx="306.903" cy="583.353" r="18" fill="#e95420" fill-rule="evenodd" fill-opacity="0.6" stroke="none"/>
<circle clip-path="url(#clip772)" cx="1253.43" cy="814.932" r="18" fill="#e95420" fill-rule="evenodd" fill-opacity="0.6" stroke="none"/>
<circle clip-path="url(#clip772)" cx="2199.96" cy="965.29" r="18" fill="#e95420" fill-rule="evenodd" fill-opacity="0.6" stroke="none"/>
<polyline clip-path="url(#clip772)" style="stroke:#e95420; stroke-linecap:round; stroke-linejoin:round; stroke-width:8; stroke-opacity:1; fill:none" points="306.903,596.89 326.025,600.748 345.147,604.606 364.269,608.463 383.39,612.321 402.512,616.179 421.634,620.037 440.756,623.895 459.878,627.753 479,631.611 498.121,635.469 517.243,639.327 536.365,643.185 555.487,647.043 574.609,650.901 593.731,654.759 612.852,658.617 631.974,662.475 651.096,666.333 670.218,670.191 689.34,674.049 708.461,677.907 727.583,681.765 746.705,685.623 765.827,689.481 784.949,693.339 804.071,697.196 823.192,701.054 842.314,704.912 861.436,708.77 880.558,712.628 899.68,716.486 918.802,720.344 937.923,724.202 957.045,728.06 976.167,731.918 995.289,735.776 1014.41,739.634 1033.53,743.492 1052.65,747.35 1071.78,751.208 1090.9,755.066 1110.02,758.924 1129.14,762.782 1148.26,766.64 1167.39,770.498 1186.51,774.356 1205.63,778.214 1224.75,782.072 1243.87,785.929 1262.99,789.787 1282.12,793.645 1301.24,797.503 1320.36,801.361 1339.48,805.219 1358.6,809.077 1377.73,812.935 1396.85,816.793 1415.97,820.651 1435.09,824.509 1454.21,828.367 1473.33,832.225 1492.46,836.083 1511.58,839.941 1530.7,843.799 1549.82,847.657 1568.94,851.515 1588.07,855.373 1607.19,859.231 1626.31,863.089 1645.43,866.947 1664.55,870.804 1683.67,874.662 1702.8,878.52 1721.92,882.378 1741.04,886.236 1760.16,890.094 1779.28,893.952 1798.41,897.81 1817.53,901.668 1836.65,905.526 1855.77,909.384 1874.89,913.242 1894.01,917.1 1913.14,920.958 1932.26,924.816 1951.38,928.674 1970.5,932.532 1989.62,936.39 2008.75,940.248 2027.87,944.106 2046.99,947.964 2066.11,951.822 2085.23,955.68 2104.35,959.537 2123.48,963.395 2142.6,967.253 2161.72,971.111 2180.84,974.969 2199.96,978.827 "/>
<polyline clip-path="url(#clip772)" style="stroke:#ff8c00; stroke-linecap:round; stroke-linejoin:round; stroke-width:4; stroke-opacity:1; fill:none" points="306.903,352.954 306.903,267.518 "/>
<polyline clip-path="url(#clip772)" style="stroke:#ff8c00; stroke-linecap:round; stroke-linejoin:round; stroke-width:4; stroke-opacity:1; fill:none" points="1253.43,298.83 1253.43,213.726 "/>
<polyline clip-path="url(#clip772)" style="stroke:#ff8c00; stroke-linecap:round; stroke-linejoin:round; stroke-width:4; stroke-opacity:1; fill:none" points="2199.96,169.07 2199.96,84.0448 "/>
<line clip-path="url(#clip772)" x1="326.903" y1="352.954" x2="286.903" y2="352.954" style="stroke:#ff8c00; stroke-width:4; stroke-opacity:0.6"/>
<line clip-path="url(#clip772)" x1="326.903" y1="267.518" x2="286.903" y2="267.518" style="stroke:#ff8c00; stroke-width:4; stroke-opacity:0.6"/>
<line clip-path="url(#clip772)" x1="1273.43" y1="298.83" x2="1233.43" y2="298.83" style="stroke:#ff8c00; stroke-width:4; stroke-opacity:0.6"/>
<line clip-path="url(#clip772)" x1="1273.43" y1="213.726" x2="1233.43" y2="213.726" style="stroke:#ff8c00; stroke-width:4; stroke-opacity:0.6"/>
<line clip-path="url(#clip772)" x1="2219.96" y1="169.07" x2="2179.96" y2="169.07" style="stroke:#ff8c00; stroke-width:4; stroke-opacity:0.6"/>
<line clip-path="url(#clip772)" x1="2219.96" y1="84.0448" x2="2179.96" y2="84.0448" style="stroke:#ff8c00; stroke-width:4; stroke-opacity:0.6"/>
<circle clip-path="url(#clip772)" cx="306.903" cy="302.953" r="18" fill="#ff8c00" fill-rule="evenodd" fill-opacity="0.6" stroke="none"/>
<circle clip-path="url(#clip772)" cx="1253.43" cy="249.051" r="18" fill="#ff8c00" fill-rule="evenodd" fill-opacity="0.6" stroke="none"/>
<circle clip-path="url(#clip772)" cx="2199.96" cy="119.343" r="18" fill="#ff8c00" fill-rule="evenodd" fill-opacity="0.6" stroke="none"/>
<polyline clip-path="url(#clip772)" style="stroke:#ff8c00; stroke-linecap:round; stroke-linejoin:round; stroke-width:8; stroke-opacity:1; fill:none" points="306.903,315.587 326.025,313.732 345.147,311.878 364.269,310.023 383.39,308.169 402.512,306.314 421.634,304.459 440.756,302.605 459.878,300.75 479,298.895 498.121,297.041 517.243,295.186 536.365,293.331 555.487,291.477 574.609,289.622 593.731,287.767 612.852,285.913 631.974,284.058 651.096,282.203 670.218,280.349 689.34,278.494 708.461,276.64 727.583,274.785 746.705,272.93 765.827,271.076 784.949,269.221 804.071,267.366 823.192,265.512 842.314,263.657 861.436,261.802 880.558,259.948 899.68,258.093 918.802,256.238 937.923,254.384 957.045,252.529 976.167,250.674 995.289,248.82 1014.41,246.965 1033.53,245.111 1052.65,243.256 1071.78,241.401 1090.9,239.547 1110.02,237.692 1129.14,235.837 1148.26,233.983 1167.39,232.128 1186.51,230.273 1205.63,228.419 1224.75,226.564 1243.87,224.709 1262.99,222.855 1282.12,221 1301.24,219.145 1320.36,217.291 1339.48,215.436 1358.6,213.582 1377.73,211.727 1396.85,209.872 1415.97,208.018 1435.09,206.163 1454.21,204.308 1473.33,202.454 1492.46,200.599 1511.58,198.744 1530.7,196.89 1549.82,195.035 1568.94,193.18 1588.07,191.326 1607.19,189.471 1626.31,187.616 1645.43,185.762 1664.55,183.907 1683.67,182.053 1702.8,180.198 1721.92,178.343 1741.04,176.489 1760.16,174.634 1779.28,172.779 1798.41,170.925 1817.53,169.07 1836.65,167.215 1855.77,165.361 1874.89,163.506 1894.01,161.651 1913.14,159.797 1932.26,157.942 1951.38,156.087 1970.5,154.233 1989.62,152.378 2008.75,150.524 2027.87,148.669 2046.99,146.814 2066.11,144.96 2085.23,143.105 2104.35,141.25 2123.48,139.396 2142.6,137.541 2161.72,135.686 2180.84,133.832 2199.96,131.977 "/>
<polyline clip-path="url(#clip772)" style="stroke:#0000ff; stroke-linecap:round; stroke-linejoin:round; stroke-width:4; stroke-opacity:1; fill:none" points="306.903,418.738 306.903,334.03 "/>
<polyline clip-path="url(#clip772)" style="stroke:#0000ff; stroke-linecap:round; stroke-linejoin:round; stroke-width:4; stroke-opacity:1; fill:none" points="1253.43,448.112 1253.43,363.417 "/>
<polyline clip-path="url(#clip772)" style="stroke:#0000ff; stroke-linecap:round; stroke-linejoin:round; stroke-width:4; stroke-opacity:1; fill:none" points="2199.96,474.059 2199.96,389.378 "/>
<line clip-path="url(#clip772)" x1="326.903" y1="418.738" x2="286.903" y2="418.738" style="stroke:#0000ff; stroke-width:4; stroke-opacity:0.6"/>
<line clip-path="url(#clip772)" x1="326.903" y1="334.03" x2="286.903" y2="334.03" style="stroke:#0000ff; stroke-width:4; stroke-opacity:0.6"/>
<line clip-path="url(#clip772)" x1="1273.43" y1="448.112" x2="1233.43" y2="448.112" style="stroke:#0000ff; stroke-width:4; stroke-opacity:0.6"/>
<line clip-path="url(#clip772)" x1="1273.43" y1="363.417" x2="1233.43" y2="363.417" style="stroke:#0000ff; stroke-width:4; stroke-opacity:0.6"/>
<line clip-path="url(#clip772)" x1="2219.96" y1="474.059" x2="2179.96" y2="474.059" style="stroke:#0000ff; stroke-width:4; stroke-opacity:0.6"/>
<line clip-path="url(#clip772)" x1="2219.96" y1="389.378" x2="2179.96" y2="389.378" style="stroke:#0000ff; stroke-width:4; stroke-opacity:0.6"/>
<circle clip-path="url(#clip772)" cx="306.903" cy="369.222" r="18" fill="#0000ff" fill-rule="evenodd" fill-opacity="0.6" stroke="none"/>
<circle clip-path="url(#clip772)" cx="1253.43" cy="398.605" r="18" fill="#0000ff" fill-rule="evenodd" fill-opacity="0.6" stroke="none"/>
<circle clip-path="url(#clip772)" cx="2199.96" cy="424.561" r="18" fill="#0000ff" fill-rule="evenodd" fill-opacity="0.6" stroke="none"/>
<polyline clip-path="url(#clip772)" style="stroke:#0000ff; stroke-linecap:round; stroke-linejoin:round; stroke-width:8; stroke-opacity:1; fill:none" points="306.903,369.793 326.025,370.352 345.147,370.911 364.269,371.47 383.39,372.029 402.512,372.588 421.634,373.147 440.756,373.706 459.878,374.265 479,374.824 498.121,375.383 517.243,375.942 536.365,376.501 555.487,377.06 574.609,377.619 593.731,378.178 612.852,378.737 631.974,379.296 651.096,379.855 670.218,380.414 689.34,380.973 708.461,381.532 727.583,382.091 746.705,382.65 765.827,383.209 784.949,383.768 804.071,384.327 823.192,384.886 842.314,385.445 861.436,386.004 880.558,386.563 899.68,387.122 918.802,387.681 937.923,388.24 957.045,388.798 976.167,389.357 995.289,389.916 1014.41,390.475 1033.53,391.034 1052.65,391.593 1071.78,392.152 1090.9,392.711 1110.02,393.27 1129.14,393.829 1148.26,394.388 1167.39,394.947 1186.51,395.506 1205.63,396.065 1224.75,396.624 1243.87,397.183 1262.99,397.742 1282.12,398.301 1301.24,398.86 1320.36,399.419 1339.48,399.978 1358.6,400.537 1377.73,401.096 1396.85,401.655 1415.97,402.214 1435.09,402.773 1454.21,403.332 1473.33,403.891 1492.46,404.45 1511.58,405.009 1530.7,405.568 1549.82,406.127 1568.94,406.686 1588.07,407.245 1607.19,407.804 1626.31,408.363 1645.43,408.922 1664.55,409.481 1683.67,410.04 1702.8,410.599 1721.92,411.158 1741.04,411.717 1760.16,412.276 1779.28,412.835 1798.41,413.394 1817.53,413.953 1836.65,414.512 1855.77,415.071 1874.89,415.63 1894.01,416.189 1913.14,416.748 1932.26,417.307 1951.38,417.866 1970.5,418.425 1989.62,418.984 2008.75,419.542 2027.87,420.101 2046.99,420.66 2066.11,421.219 2085.23,421.778 2104.35,422.337 2123.48,422.896 2142.6,423.455 2161.72,424.014 2180.84,424.573 2199.96,425.132 "/>
<polyline clip-path="url(#clip772)" style="stroke:#008000; stroke-linecap:round; stroke-linejoin:round; stroke-width:4; stroke-opacity:1; fill:none" points="306.903,242.403 306.903,157.636 "/>
<polyline clip-path="url(#clip772)" style="stroke:#008000; stroke-linecap:round; stroke-linejoin:round; stroke-width:4; stroke-opacity:1; fill:none" points="1253.43,250.599 1253.43,165.901 "/>
<polyline clip-path="url(#clip772)" style="stroke:#008000; stroke-linecap:round; stroke-linejoin:round; stroke-width:4; stroke-opacity:1; fill:none" points="2199.96,240.544 2199.96,155.862 "/>
<line clip-path="url(#clip772)" x1="326.903" y1="242.403" x2="286.903" y2="242.403" style="stroke:#008000; stroke-width:4; stroke-opacity:0.6"/>
<line clip-path="url(#clip772)" x1="326.903" y1="157.636" x2="286.903" y2="157.636" style="stroke:#008000; stroke-width:4; stroke-opacity:0.6"/>
<line clip-path="url(#clip772)" x1="1273.43" y1="250.599" x2="1233.43" y2="250.599" style="stroke:#008000; stroke-width:4; stroke-opacity:0.6"/>
<line clip-path="url(#clip772)" x1="1273.43" y1="165.901" x2="1233.43" y2="165.901" style="stroke:#008000; stroke-width:4; stroke-opacity:0.6"/>
<line clip-path="url(#clip772)" x1="2219.96" y1="240.544" x2="2179.96" y2="240.544" style="stroke:#008000; stroke-width:4; stroke-opacity:0.6"/>
<line clip-path="url(#clip772)" x1="2219.96" y1="155.862" x2="2179.96" y2="155.862" style="stroke:#008000; stroke-width:4; stroke-opacity:0.6"/>
<circle clip-path="url(#clip772)" cx="306.903" cy="192.848" r="18" fill="#008000" fill-rule="evenodd" fill-opacity="0.6" stroke="none"/>
<circle clip-path="url(#clip772)" cx="1253.43" cy="201.09" r="18" fill="#008000" fill-rule="evenodd" fill-opacity="0.6" stroke="none"/>
<circle clip-path="url(#clip772)" cx="2199.96" cy="191.045" r="18" fill="#008000" fill-rule="evenodd" fill-opacity="0.6" stroke="none"/>
<polyline clip-path="url(#clip772)" style="stroke:#008000; stroke-linecap:round; stroke-linejoin:round; stroke-width:8; stroke-opacity:1; fill:none" points="306.903,195.896 326.025,195.877 345.147,195.859 364.269,195.841 383.39,195.823 402.512,195.805 421.634,195.786 440.756,195.768 459.878,195.75 479,195.732 498.121,195.714 517.243,195.695 536.365,195.677 555.487,195.659 574.609,195.641 593.731,195.622 612.852,195.604 631.974,195.586 651.096,195.568 670.218,195.55 689.34,195.531 708.461,195.513 727.583,195.495 746.705,195.477 765.827,195.459 784.949,195.44 804.071,195.422 823.192,195.404 842.314,195.386 861.436,195.368 880.558,195.349 899.68,195.331 918.802,195.313 937.923,195.295 957.045,195.277 976.167,195.258 995.289,195.24 1014.41,195.222 1033.53,195.204 1052.65,195.186 1071.78,195.167 1090.9,195.149 1110.02,195.131 1129.14,195.113 1148.26,195.095 1167.39,195.076 1186.51,195.058 1205.63,195.04 1224.75,195.022 1243.87,195.003 1262.99,194.985 1282.12,194.967 1301.24,194.949 1320.36,194.931 1339.48,194.912 1358.6,194.894 1377.73,194.876 1396.85,194.858 1415.97,194.84 1435.09,194.821 1454.21,194.803 1473.33,194.785 1492.46,194.767 1511.58,194.749 1530.7,194.73 1549.82,194.712 1568.94,194.694 1588.07,194.676 1607.19,194.658 1626.31,194.639 1645.43,194.621 1664.55,194.603 1683.67,194.585 1702.8,194.567 1721.92,194.548 1741.04,194.53 1760.16,194.512 1779.28,194.494 1798.41,194.476 1817.53,194.457 1836.65,194.439 1855.77,194.421 1874.89,194.403 1894.01,194.384 1913.14,194.366 1932.26,194.348 1951.38,194.33 1970.5,194.312 1989.62,194.293 2008.75,194.275 2027.87,194.257 2046.99,194.239 2066.11,194.221 2085.23,194.202 2104.35,194.184 2123.48,194.166 2142.6,194.148 2161.72,194.13 2180.84,194.111 2199.96,194.093 "/>
<path clip-path="url(#clip770)" d="M316.999 1304.19 L944.05 1304.19 L944.05 993.154 L316.999 993.154  Z" fill="#ffffff" fill-rule="evenodd" fill-opacity="1"/>
<polyline clip-path="url(#clip770)" style="stroke:#000000; stroke-linecap:round; stroke-linejoin:round; stroke-width:4; stroke-opacity:1; fill:none" points="316.999,1304.19 944.05,1304.19 944.05,993.154 316.999,993.154 316.999,1304.19 "/>
<polyline clip-path="url(#clip770)" style="stroke:#78c2ad; stroke-linecap:round; stroke-linejoin:round; stroke-width:8; stroke-opacity:1; fill:none" points="339.295,1044.99 473.072,1044.99 "/>
<path clip-path="url(#clip770)" d="M495.9 1027.71 L523.053 1027.71 L523.053 1031.28 L501.201 1058.34 L523.585 1058.34 L523.585 1062.27 L495.368 1062.27 L495.368 1058.71 L517.22 1031.65 L495.9 1031.65 L495.9 1027.71 Z" fill="#000000" fill-rule="nonzero" fill-opacity="1" /><path clip-path="url(#clip770)" d="M528.377 1027.71 L555.53 1027.71 L555.53 1031.28 L533.678 1058.34 L556.062 1058.34 L556.062 1062.27 L527.844 1062.27 L527.844 1058.71 L549.696 1031.65 L528.377 1031.65 L528.377 1027.71 Z" fill="#000000" fill-rule="nonzero" fill-opacity="1" /><path clip-path="url(#clip770)" d="M587.96 1026.3 Q584.858 1031.63 583.353 1036.83 Q581.849 1042.04 581.849 1047.39 Q581.849 1052.74 583.353 1057.99 Q584.881 1063.22 587.96 1068.52 L584.256 1068.52 Q580.784 1063.08 579.048 1057.83 Q577.335 1052.57 577.335 1047.39 Q577.335 1042.23 579.048 1037 Q580.761 1031.76 584.256 1026.3 L587.96 1026.3 Z" fill="#000000" fill-rule="nonzero" fill-opacity="1" /><path clip-path="url(#clip770)" d="M619.974 1057.34 L619.974 1048.06 L612.335 1048.06 L612.335 1044.22 L624.603 1044.22 L624.603 1059.06 Q621.895 1060.98 618.631 1061.97 Q615.367 1062.94 611.663 1062.94 Q603.562 1062.94 598.978 1058.22 Q594.418 1053.48 594.418 1045.03 Q594.418 1036.56 598.978 1031.83 Q603.562 1027.09 611.663 1027.09 Q615.043 1027.09 618.075 1027.92 Q621.131 1028.76 623.7 1030.38 L623.7 1035.35 Q621.108 1033.15 618.191 1032.04 Q615.275 1030.93 612.057 1030.93 Q605.714 1030.93 602.52 1034.47 Q599.349 1038.01 599.349 1045.03 Q599.349 1052.02 602.52 1055.56 Q605.714 1059.1 612.057 1059.1 Q614.534 1059.1 616.478 1058.69 Q618.423 1058.25 619.974 1057.34 Z" fill="#000000" fill-rule="nonzero" fill-opacity="1" /><path clip-path="url(#clip770)" d="M632.96 1026.26 L637.219 1026.26 L637.219 1062.27 L632.96 1062.27 L632.96 1026.26 Z" fill="#000000" fill-rule="nonzero" fill-opacity="1" /><path clip-path="url(#clip770)" d="M656.177 1039.33 Q652.751 1039.33 650.761 1042.02 Q648.77 1044.68 648.77 1049.33 Q648.77 1053.99 650.737 1056.67 Q652.728 1059.33 656.177 1059.33 Q659.58 1059.33 661.571 1056.65 Q663.561 1053.96 663.561 1049.33 Q663.561 1044.73 661.571 1042.04 Q659.58 1039.33 656.177 1039.33 M656.177 1035.72 Q661.733 1035.72 664.904 1039.33 Q668.075 1042.94 668.075 1049.33 Q668.075 1055.7 664.904 1059.33 Q661.733 1062.94 656.177 1062.94 Q650.598 1062.94 647.427 1059.33 Q644.279 1055.7 644.279 1049.33 Q644.279 1042.94 647.427 1039.33 Q650.598 1035.72 656.177 1035.72 Z" fill="#000000" fill-rule="nonzero" fill-opacity="1" /><path clip-path="url(#clip770)" d="M693.746 1049.33 Q693.746 1044.63 691.802 1041.97 Q689.881 1039.29 686.501 1039.29 Q683.121 1039.29 681.177 1041.97 Q679.256 1044.63 679.256 1049.33 Q679.256 1054.03 681.177 1056.72 Q683.121 1059.38 686.501 1059.38 Q689.881 1059.38 691.802 1056.72 Q693.746 1054.03 693.746 1049.33 M679.256 1040.28 Q680.598 1037.97 682.635 1036.86 Q684.696 1035.72 687.543 1035.72 Q692.265 1035.72 695.205 1039.47 Q698.168 1043.22 698.168 1049.33 Q698.168 1055.44 695.205 1059.19 Q692.265 1062.94 687.543 1062.94 Q684.696 1062.94 682.635 1061.83 Q680.598 1060.7 679.256 1058.38 L679.256 1062.27 L674.973 1062.27 L674.973 1026.26 L679.256 1026.26 L679.256 1040.28 Z" fill="#000000" fill-rule="nonzero" fill-opacity="1" /><path clip-path="url(#clip770)" d="M717.01 1049.24 Q711.848 1049.24 709.857 1050.42 Q707.867 1051.6 707.867 1054.45 Q707.867 1056.72 709.348 1058.06 Q710.853 1059.38 713.422 1059.38 Q716.964 1059.38 719.093 1056.88 Q721.246 1054.36 721.246 1050.19 L721.246 1049.24 L717.01 1049.24 M725.505 1047.48 L725.505 1062.27 L721.246 1062.27 L721.246 1058.34 Q719.788 1060.7 717.612 1061.83 Q715.436 1062.94 712.288 1062.94 Q708.306 1062.94 705.945 1060.72 Q703.607 1058.48 703.607 1054.73 Q703.607 1050.35 706.524 1048.13 Q709.464 1045.91 715.274 1045.91 L721.246 1045.91 L721.246 1045.49 Q721.246 1042.55 719.302 1040.95 Q717.381 1039.33 713.885 1039.33 Q711.663 1039.33 709.556 1039.87 Q707.45 1040.4 705.506 1041.46 L705.506 1037.53 Q707.844 1036.63 710.043 1036.19 Q712.242 1035.72 714.325 1035.72 Q719.95 1035.72 722.728 1038.64 Q725.505 1041.56 725.505 1047.48 Z" fill="#000000" fill-rule="nonzero" fill-opacity="1" /><path clip-path="url(#clip770)" d="M734.279 1026.26 L738.538 1026.26 L738.538 1062.27 L734.279 1062.27 L734.279 1026.26 Z" fill="#000000" fill-rule="nonzero" fill-opacity="1" /><path clip-path="url(#clip770)" d="M781.13 1049.33 Q781.13 1044.63 779.186 1041.97 Q777.264 1039.29 773.885 1039.29 Q770.505 1039.29 768.561 1041.97 Q766.64 1044.63 766.64 1049.33 Q766.64 1054.03 768.561 1056.72 Q770.505 1059.38 773.885 1059.38 Q777.264 1059.38 779.186 1056.72 Q781.13 1054.03 781.13 1049.33 M766.64 1040.28 Q767.982 1037.97 770.019 1036.86 Q772.079 1035.72 774.927 1035.72 Q779.649 1035.72 782.589 1039.47 Q785.551 1043.22 785.551 1049.33 Q785.551 1055.44 782.589 1059.19 Q779.649 1062.94 774.927 1062.94 Q772.079 1062.94 770.019 1061.83 Q767.982 1060.7 766.64 1058.38 L766.64 1062.27 L762.357 1062.27 L762.357 1026.26 L766.64 1026.26 L766.64 1040.28 Z" fill="#000000" fill-rule="nonzero" fill-opacity="1" /><path clip-path="url(#clip770)" d="M802.658 1039.33 Q799.232 1039.33 797.241 1042.02 Q795.25 1044.68 795.25 1049.33 Q795.25 1053.99 797.218 1056.67 Q799.209 1059.33 802.658 1059.33 Q806.061 1059.33 808.051 1056.65 Q810.042 1053.96 810.042 1049.33 Q810.042 1044.73 808.051 1042.04 Q806.061 1039.33 802.658 1039.33 M802.658 1035.72 Q808.213 1035.72 811.385 1039.33 Q814.556 1042.94 814.556 1049.33 Q814.556 1055.7 811.385 1059.33 Q808.213 1062.94 802.658 1062.94 Q797.079 1062.94 793.908 1059.33 Q790.76 1055.7 790.76 1049.33 Q790.76 1042.94 793.908 1039.33 Q797.079 1035.72 802.658 1035.72 Z" fill="#000000" fill-rule="nonzero" fill-opacity="1" /><path clip-path="url(#clip770)" d="M821.176 1052.04 L821.176 1036.35 L825.435 1036.35 L825.435 1051.88 Q825.435 1055.56 826.871 1057.41 Q828.306 1059.24 831.176 1059.24 Q834.625 1059.24 836.616 1057.04 Q838.63 1054.84 838.63 1051.05 L838.63 1036.35 L842.889 1036.35 L842.889 1062.27 L838.63 1062.27 L838.63 1058.29 Q837.079 1060.65 835.019 1061.81 Q832.982 1062.94 830.273 1062.94 Q825.806 1062.94 823.491 1060.17 Q821.176 1057.39 821.176 1052.04 M831.894 1035.72 L831.894 1035.72 Z" fill="#000000" fill-rule="nonzero" fill-opacity="1" /><path clip-path="url(#clip770)" d="M873.213 1046.63 L873.213 1062.27 L868.954 1062.27 L868.954 1046.76 Q868.954 1043.08 867.519 1041.26 Q866.083 1039.43 863.213 1039.43 Q859.764 1039.43 857.773 1041.63 Q855.783 1043.82 855.783 1047.62 L855.783 1062.27 L851.5 1062.27 L851.5 1036.35 L855.783 1036.35 L855.783 1040.38 Q857.31 1038.04 859.37 1036.88 Q861.454 1035.72 864.162 1035.72 Q868.63 1035.72 870.921 1038.5 Q873.213 1041.26 873.213 1046.63 Z" fill="#000000" fill-rule="nonzero" fill-opacity="1" /><path clip-path="url(#clip770)" d="M898.768 1040.28 L898.768 1026.26 L903.028 1026.26 L903.028 1062.27 L898.768 1062.27 L898.768 1058.38 Q897.426 1060.7 895.366 1061.83 Q893.329 1062.94 890.458 1062.94 Q885.759 1062.94 882.796 1059.19 Q879.856 1055.44 879.856 1049.33 Q879.856 1043.22 882.796 1039.47 Q885.759 1035.72 890.458 1035.72 Q893.329 1035.72 895.366 1036.86 Q897.426 1037.97 898.768 1040.28 M884.255 1049.33 Q884.255 1054.03 886.176 1056.72 Q888.12 1059.38 891.5 1059.38 Q894.88 1059.38 896.824 1056.72 Q898.768 1054.03 898.768 1049.33 Q898.768 1044.63 896.824 1041.97 Q894.88 1039.29 891.5 1039.29 Q888.12 1039.29 886.176 1041.97 Q884.255 1044.63 884.255 1049.33 Z" fill="#000000" fill-rule="nonzero" fill-opacity="1" /><path clip-path="url(#clip770)" d="M911.129 1026.3 L914.833 1026.3 Q918.305 1031.76 920.018 1037 Q921.754 1042.23 921.754 1047.39 Q921.754 1052.57 920.018 1057.83 Q918.305 1063.08 914.833 1068.52 L911.129 1068.52 Q914.208 1063.22 915.713 1057.99 Q917.241 1052.74 917.241 1047.39 Q917.241 1042.04 915.713 1036.83 Q914.208 1031.63 911.129 1026.3 Z" fill="#000000" fill-rule="nonzero" fill-opacity="1" /><polyline clip-path="url(#clip770)" style="stroke:#e95420; stroke-linecap:round; stroke-linejoin:round; stroke-width:8; stroke-opacity:1; fill:none" points="339.295,1096.83 473.072,1096.83 "/>
<path clip-path="url(#clip770)" d="M495.9 1079.55 L523.053 1079.55 L523.053 1083.12 L501.201 1110.18 L523.585 1110.18 L523.585 1114.11 L495.368 1114.11 L495.368 1110.55 L517.22 1083.49 L495.9 1083.49 L495.9 1079.55 Z" fill="#000000" fill-rule="nonzero" fill-opacity="1" /><path clip-path="url(#clip770)" d="M528.377 1079.55 L555.53 1079.55 L555.53 1083.12 L533.678 1110.18 L556.062 1110.18 L556.062 1114.11 L527.844 1114.11 L527.844 1110.55 L549.696 1083.49 L528.377 1083.49 L528.377 1079.55 Z" fill="#000000" fill-rule="nonzero" fill-opacity="1" /><path clip-path="url(#clip770)" d="M587.96 1078.14 Q584.858 1083.47 583.353 1088.67 Q581.849 1093.88 581.849 1099.23 Q581.849 1104.58 583.353 1109.83 Q584.881 1115.06 587.96 1120.36 L584.256 1120.36 Q580.784 1114.92 579.048 1109.67 Q577.335 1104.41 577.335 1099.23 Q577.335 1094.07 579.048 1088.84 Q580.761 1083.6 584.256 1078.14 L587.96 1078.14 Z" fill="#000000" fill-rule="nonzero" fill-opacity="1" /><path clip-path="url(#clip770)" d="M607.96 1084.16 L601.617 1101.36 L614.326 1101.36 L607.96 1084.16 M605.321 1079.55 L610.622 1079.55 L623.793 1114.11 L618.932 1114.11 L615.784 1105.25 L600.205 1105.25 L597.057 1114.11 L592.127 1114.11 L605.321 1079.55 Z" fill="#000000" fill-rule="nonzero" fill-opacity="1" /><path clip-path="url(#clip770)" d="M640.089 1078.1 L640.089 1081.64 L636.015 1081.64 Q633.724 1081.64 632.821 1082.56 Q631.941 1083.49 631.941 1085.9 L631.941 1088.19 L638.955 1088.19 L638.955 1091.5 L631.941 1091.5 L631.941 1114.11 L627.659 1114.11 L627.659 1091.5 L623.585 1091.5 L623.585 1088.19 L627.659 1088.19 L627.659 1086.38 Q627.659 1082.05 629.673 1080.09 Q631.687 1078.1 636.062 1078.1 L640.089 1078.1 Z" fill="#000000" fill-rule="nonzero" fill-opacity="1" /><path clip-path="url(#clip770)" d="M656.779 1078.1 L656.779 1081.64 L652.705 1081.64 Q650.413 1081.64 649.511 1082.56 Q648.631 1083.49 648.631 1085.9 L648.631 1088.19 L655.645 1088.19 L655.645 1091.5 L648.631 1091.5 L648.631 1114.11 L644.349 1114.11 L644.349 1091.5 L640.274 1091.5 L640.274 1088.19 L644.349 1088.19 L644.349 1086.38 Q644.349 1082.05 646.362 1080.09 Q648.376 1078.1 652.751 1078.1 L656.779 1078.1 Z" fill="#000000" fill-rule="nonzero" fill-opacity="1" /><path clip-path="url(#clip770)" d="M660.344 1088.19 L664.603 1088.19 L664.603 1114.11 L660.344 1114.11 L660.344 1088.19 M660.344 1078.1 L664.603 1078.1 L664.603 1083.49 L660.344 1083.49 L660.344 1078.1 Z" fill="#000000" fill-rule="nonzero" fill-opacity="1" /><path clip-path="url(#clip770)" d="M695.066 1098.47 L695.066 1114.11 L690.807 1114.11 L690.807 1098.6 Q690.807 1094.92 689.371 1093.1 Q687.936 1091.27 685.066 1091.27 Q681.617 1091.27 679.626 1093.47 Q677.635 1095.66 677.635 1099.46 L677.635 1114.11 L673.353 1114.11 L673.353 1088.19 L677.635 1088.19 L677.635 1092.22 Q679.163 1089.88 681.223 1088.72 Q683.307 1087.56 686.015 1087.56 Q690.483 1087.56 692.774 1090.34 Q695.066 1093.1 695.066 1098.47 Z" fill="#000000" fill-rule="nonzero" fill-opacity="1" /><path clip-path="url(#clip770)" d="M725.737 1100.09 L725.737 1102.17 L706.154 1102.17 Q706.432 1106.57 708.793 1108.88 Q711.177 1111.17 715.413 1111.17 Q717.867 1111.17 720.158 1110.57 Q722.473 1109.97 724.742 1108.77 L724.742 1112.79 Q722.45 1113.77 720.043 1114.28 Q717.635 1114.78 715.158 1114.78 Q708.955 1114.78 705.32 1111.17 Q701.709 1107.56 701.709 1101.41 Q701.709 1095.04 705.135 1091.31 Q708.584 1087.56 714.418 1087.56 Q719.649 1087.56 722.681 1090.94 Q725.737 1094.3 725.737 1100.09 M721.478 1098.84 Q721.431 1095.34 719.51 1093.26 Q717.612 1091.17 714.464 1091.17 Q710.899 1091.17 708.746 1093.19 Q706.617 1095.2 706.293 1098.86 L721.478 1098.84 Z" fill="#000000" fill-rule="nonzero" fill-opacity="1" /><path clip-path="url(#clip770)" d="M766.408 1101.17 Q766.408 1096.47 764.464 1093.81 Q762.542 1091.13 759.163 1091.13 Q755.783 1091.13 753.839 1093.81 Q751.917 1096.47 751.917 1101.17 Q751.917 1105.87 753.839 1108.56 Q755.783 1111.22 759.163 1111.22 Q762.542 1111.22 764.464 1108.56 Q766.408 1105.87 766.408 1101.17 M751.917 1092.12 Q753.26 1089.81 755.297 1088.7 Q757.357 1087.56 760.204 1087.56 Q764.927 1087.56 767.866 1091.31 Q770.829 1095.06 770.829 1101.17 Q770.829 1107.28 767.866 1111.03 Q764.927 1114.78 760.204 1114.78 Q757.357 1114.78 755.297 1113.67 Q753.26 1112.54 751.917 1110.22 L751.917 1114.11 L747.635 1114.11 L747.635 1078.1 L751.917 1078.1 L751.917 1092.12 Z" fill="#000000" fill-rule="nonzero" fill-opacity="1" /><path clip-path="url(#clip770)" d="M787.936 1091.17 Q784.51 1091.17 782.519 1093.86 Q780.528 1096.52 780.528 1101.17 Q780.528 1105.83 782.496 1108.51 Q784.487 1111.17 787.936 1111.17 Q791.338 1111.17 793.329 1108.49 Q795.32 1105.8 795.32 1101.17 Q795.32 1096.57 793.329 1093.88 Q791.338 1091.17 787.936 1091.17 M787.936 1087.56 Q793.491 1087.56 796.663 1091.17 Q799.834 1094.78 799.834 1101.17 Q799.834 1107.54 796.663 1111.17 Q793.491 1114.78 787.936 1114.78 Q782.357 1114.78 779.186 1111.17 Q776.038 1107.54 776.038 1101.17 Q776.038 1094.78 779.186 1091.17 Q782.357 1087.56 787.936 1087.56 Z" fill="#000000" fill-rule="nonzero" fill-opacity="1" /><path clip-path="url(#clip770)" d="M806.454 1103.88 L806.454 1088.19 L810.713 1088.19 L810.713 1103.72 Q810.713 1107.4 812.149 1109.25 Q813.584 1111.08 816.454 1111.08 Q819.903 1111.08 821.894 1108.88 Q823.908 1106.68 823.908 1102.89 L823.908 1088.19 L828.167 1088.19 L828.167 1114.11 L823.908 1114.11 L823.908 1110.13 Q822.357 1112.49 820.297 1113.65 Q818.26 1114.78 815.551 1114.78 Q811.084 1114.78 808.769 1112.01 Q806.454 1109.23 806.454 1103.88 M817.172 1087.56 L817.172 1087.56 Z" fill="#000000" fill-rule="nonzero" fill-opacity="1" /><path clip-path="url(#clip770)" d="M858.491 1098.47 L858.491 1114.11 L854.232 1114.11 L854.232 1098.6 Q854.232 1094.92 852.796 1093.1 Q851.361 1091.27 848.491 1091.27 Q845.042 1091.27 843.051 1093.47 Q841.06 1095.66 841.06 1099.46 L841.06 1114.11 L836.778 1114.11 L836.778 1088.19 L841.06 1088.19 L841.06 1092.22 Q842.588 1089.88 844.648 1088.72 Q846.732 1087.56 849.44 1087.56 Q853.908 1087.56 856.199 1090.34 Q858.491 1093.1 858.491 1098.47 Z" fill="#000000" fill-rule="nonzero" fill-opacity="1" /><path clip-path="url(#clip770)" d="M884.046 1092.12 L884.046 1078.1 L888.306 1078.1 L888.306 1114.11 L884.046 1114.11 L884.046 1110.22 Q882.704 1112.54 880.644 1113.67 Q878.607 1114.78 875.736 1114.78 Q871.037 1114.78 868.074 1111.03 Q865.134 1107.28 865.134 1101.17 Q865.134 1095.06 868.074 1091.31 Q871.037 1087.56 875.736 1087.56 Q878.607 1087.56 880.644 1088.7 Q882.704 1089.81 884.046 1092.12 M869.532 1101.17 Q869.532 1105.87 871.454 1108.56 Q873.398 1111.22 876.778 1111.22 Q880.157 1111.22 882.102 1108.56 Q884.046 1105.87 884.046 1101.17 Q884.046 1096.47 882.102 1093.81 Q880.157 1091.13 876.778 1091.13 Q873.398 1091.13 871.454 1093.81 Q869.532 1096.47 869.532 1101.17 Z" fill="#000000" fill-rule="nonzero" fill-opacity="1" /><path clip-path="url(#clip770)" d="M896.407 1078.14 L900.111 1078.14 Q903.583 1083.6 905.296 1088.84 Q907.032 1094.07 907.032 1099.23 Q907.032 1104.41 905.296 1109.67 Q903.583 1114.92 900.111 1120.36 L896.407 1120.36 Q899.486 1115.06 900.991 1109.83 Q902.518 1104.58 902.518 1099.23 Q902.518 1093.88 900.991 1088.67 Q899.486 1083.47 896.407 1078.14 Z" fill="#000000" fill-rule="nonzero" fill-opacity="1" /><polyline clip-path="url(#clip770)" style="stroke:#ff8c00; stroke-linecap:round; stroke-linejoin:round; stroke-width:8; stroke-opacity:1; fill:none" points="339.295,1148.67 473.072,1148.67 "/>
<path clip-path="url(#clip770)" d="M495.9 1131.39 L523.053 1131.39 L523.053 1134.96 L501.201 1162.02 L523.585 1162.02 L523.585 1165.95 L495.368 1165.95 L495.368 1162.39 L517.22 1135.33 L495.9 1135.33 L495.9 1131.39 Z" fill="#000000" fill-rule="nonzero" fill-opacity="1" /><path clip-path="url(#clip770)" d="M528.377 1131.39 L555.53 1131.39 L555.53 1134.96 L533.678 1162.02 L556.062 1162.02 L556.062 1165.95 L527.844 1165.95 L527.844 1162.39 L549.696 1135.33 L528.377 1135.33 L528.377 1131.39 Z" fill="#000000" fill-rule="nonzero" fill-opacity="1" /><path clip-path="url(#clip770)" d="M559.673 1151.07 L572.15 1151.07 L572.15 1154.87 L559.673 1154.87 L559.673 1151.07 Z" fill="#000000" fill-rule="nonzero" fill-opacity="1" /><path clip-path="url(#clip770)" d="M604.997 1134.06 L604.997 1138.99 Q602.636 1136.79 599.951 1135.7 Q597.289 1134.61 594.279 1134.61 Q588.353 1134.61 585.205 1138.25 Q582.057 1141.86 582.057 1148.71 Q582.057 1155.54 585.205 1159.17 Q588.353 1162.78 594.279 1162.78 Q597.289 1162.78 599.951 1161.69 Q602.636 1160.61 604.997 1158.41 L604.997 1163.29 Q602.543 1164.96 599.789 1165.79 Q597.057 1166.62 594.002 1166.62 Q586.154 1166.62 581.641 1161.83 Q577.127 1157.02 577.127 1148.71 Q577.127 1140.37 581.641 1135.58 Q586.154 1130.77 594.002 1130.77 Q597.103 1130.77 599.835 1131.6 Q602.589 1132.41 604.997 1134.06 Z" fill="#000000" fill-rule="nonzero" fill-opacity="1" /><path clip-path="url(#clip770)" d="M621.131 1165.95 L607.937 1131.39 L612.821 1131.39 L623.77 1160.49 L634.742 1131.39 L639.603 1131.39 L626.432 1165.95 L621.131 1165.95 Z" fill="#000000" fill-rule="nonzero" fill-opacity="1" /><polyline clip-path="url(#clip770)" style="stroke:#0000ff; stroke-linecap:round; stroke-linejoin:round; stroke-width:8; stroke-opacity:1; fill:none" points="339.295,1200.51 473.072,1200.51 "/>
<path clip-path="url(#clip770)" d="M495.9 1183.23 L523.053 1183.23 L523.053 1186.8 L501.201 1213.86 L523.585 1213.86 L523.585 1217.79 L495.368 1217.79 L495.368 1214.23 L517.22 1187.17 L495.9 1187.17 L495.9 1183.23 Z" fill="#000000" fill-rule="nonzero" fill-opacity="1" /><path clip-path="url(#clip770)" d="M528.377 1183.23 L555.53 1183.23 L555.53 1186.8 L533.678 1213.86 L556.062 1213.86 L556.062 1217.79 L527.844 1217.79 L527.844 1214.23 L549.696 1187.17 L528.377 1187.17 L528.377 1183.23 Z" fill="#000000" fill-rule="nonzero" fill-opacity="1" /><path clip-path="url(#clip770)" d="M559.673 1202.91 L572.15 1202.91 L572.15 1206.71 L559.673 1206.71 L559.673 1202.91 Z" fill="#000000" fill-rule="nonzero" fill-opacity="1" /><path clip-path="url(#clip770)" d="M599.835 1184.37 L599.835 1188.93 Q597.173 1187.65 594.812 1187.03 Q592.451 1186.4 590.252 1186.4 Q586.432 1186.4 584.349 1187.89 Q582.289 1189.37 582.289 1192.1 Q582.289 1194.39 583.654 1195.57 Q585.043 1196.73 588.886 1197.45 L591.71 1198.03 Q596.941 1199.02 599.418 1201.54 Q601.918 1204.04 601.918 1208.26 Q601.918 1213.28 598.539 1215.87 Q595.182 1218.46 588.678 1218.46 Q586.224 1218.46 583.446 1217.91 Q580.691 1217.35 577.728 1216.27 L577.728 1211.45 Q580.576 1213.05 583.307 1213.86 Q586.039 1214.67 588.678 1214.67 Q592.682 1214.67 594.858 1213.09 Q597.034 1211.52 597.034 1208.6 Q597.034 1206.06 595.46 1204.62 Q593.909 1203.19 590.344 1202.47 L587.497 1201.91 Q582.266 1200.87 579.928 1198.65 Q577.59 1196.43 577.59 1192.47 Q577.59 1187.89 580.807 1185.25 Q584.048 1182.61 589.719 1182.61 Q592.15 1182.61 594.673 1183.05 Q597.196 1183.49 599.835 1184.37 Z" fill="#000000" fill-rule="nonzero" fill-opacity="1" /><path clip-path="url(#clip770)" d="M629.927 1184.37 L629.927 1188.93 Q627.265 1187.65 624.904 1187.03 Q622.543 1186.4 620.344 1186.4 Q616.525 1186.4 614.441 1187.89 Q612.381 1189.37 612.381 1192.1 Q612.381 1194.39 613.747 1195.57 Q615.136 1196.73 618.978 1197.45 L621.802 1198.03 Q627.034 1199.02 629.511 1201.54 Q632.011 1204.04 632.011 1208.26 Q632.011 1213.28 628.631 1215.87 Q625.275 1218.46 618.77 1218.46 Q616.316 1218.46 613.538 1217.91 Q610.784 1217.35 607.821 1216.27 L607.821 1211.45 Q610.668 1213.05 613.4 1213.86 Q616.131 1214.67 618.77 1214.67 Q622.775 1214.67 624.95 1213.09 Q627.126 1211.52 627.126 1208.6 Q627.126 1206.06 625.552 1204.62 Q624.001 1203.19 620.437 1202.47 L617.589 1201.91 Q612.358 1200.87 610.02 1198.65 Q607.682 1196.43 607.682 1192.47 Q607.682 1187.89 610.9 1185.25 Q614.14 1182.61 619.812 1182.61 Q622.242 1182.61 624.765 1183.05 Q627.288 1183.49 629.927 1184.37 Z" fill="#000000" fill-rule="nonzero" fill-opacity="1" /><polyline clip-path="url(#clip770)" style="stroke:#008000; stroke-linecap:round; stroke-linejoin:round; stroke-width:8; stroke-opacity:1; fill:none" points="339.295,1252.35 473.072,1252.35 "/>
<path clip-path="url(#clip770)" d="M495.9 1235.07 L523.053 1235.07 L523.053 1238.64 L501.201 1265.7 L523.585 1265.7 L523.585 1269.63 L495.368 1269.63 L495.368 1266.07 L517.22 1239.01 L495.9 1239.01 L495.9 1235.07 Z" fill="#000000" fill-rule="nonzero" fill-opacity="1" /><path clip-path="url(#clip770)" d="M528.377 1235.07 L555.53 1235.07 L555.53 1238.64 L533.678 1265.7 L556.062 1265.7 L556.062 1269.63 L527.844 1269.63 L527.844 1266.07 L549.696 1239.01 L528.377 1239.01 L528.377 1235.07 Z" fill="#000000" fill-rule="nonzero" fill-opacity="1" /><path clip-path="url(#clip770)" d="M559.673 1254.75 L572.15 1254.75 L572.15 1258.55 L559.673 1258.55 L559.673 1254.75 Z" fill="#000000" fill-rule="nonzero" fill-opacity="1" /><path clip-path="url(#clip770)" d="M579.117 1235.07 L583.793 1235.07 L583.793 1269.63 L579.117 1269.63 L579.117 1235.07 Z" fill="#000000" fill-rule="nonzero" fill-opacity="1" /><path clip-path="url(#clip770)" d="M613.816 1236.21 L613.816 1240.77 Q611.154 1239.49 608.793 1238.87 Q606.432 1238.24 604.233 1238.24 Q600.414 1238.24 598.33 1239.73 Q596.27 1241.21 596.27 1243.94 Q596.27 1246.23 597.636 1247.41 Q599.025 1248.57 602.867 1249.29 L605.691 1249.87 Q610.923 1250.86 613.4 1253.38 Q615.9 1255.88 615.9 1260.1 Q615.9 1265.12 612.52 1267.71 Q609.164 1270.3 602.659 1270.3 Q600.205 1270.3 597.427 1269.75 Q594.673 1269.19 591.71 1268.11 L591.71 1263.29 Q594.557 1264.89 597.289 1265.7 Q600.02 1266.51 602.659 1266.51 Q606.664 1266.51 608.839 1264.93 Q611.015 1263.36 611.015 1260.44 Q611.015 1257.9 609.441 1256.46 Q607.89 1255.03 604.326 1254.31 L601.478 1253.75 Q596.247 1252.71 593.909 1250.49 Q591.571 1248.27 591.571 1244.31 Q591.571 1239.73 594.789 1237.09 Q598.029 1234.45 603.701 1234.45 Q606.131 1234.45 608.654 1234.89 Q611.177 1235.33 613.816 1236.21 Z" fill="#000000" fill-rule="nonzero" fill-opacity="1" /></svg>
