<?xml version="1.0" encoding="utf-8"?>
<svg xmlns="http://www.w3.org/2000/svg" xmlns:xlink="http://www.w3.org/1999/xlink" width="576" height="384" viewBox="0 0 2304 1536">
<defs>
  <clipPath id="clip310">
    <rect x="0" y="0" width="2304" height="1536"/>
  </clipPath>
</defs>
<path clip-path="url(#clip310)" d="M0 1536 L2304 1536 L2304 8.52651e-14 L0 8.52651e-14  Z" fill="#ffffff" fill-rule="evenodd" fill-opacity="1"/>
<defs>
  <clipPath id="clip311">
    <rect x="460" y="0" width="1614" height="1536"/>
  </clipPath>
</defs>
<path clip-path="url(#clip310)" d="M251.804 1347.54 L2256.76 1347.54 L2256.76 47.2441 L251.804 47.2441  Z" fill="#ffffff" fill-rule="evenodd" fill-opacity="1"/>
<defs>
  <clipPath id="clip312">
    <rect x="251" y="47" width="2006" height="1301"/>
  </clipPath>
</defs>
<polyline clip-path="url(#clip312)" style="stroke:#000000; stroke-linecap:round; stroke-linejoin:round; stroke-width:2; stroke-opacity:0.1; fill:none" points="939.036,1347.54 939.036,47.2441 "/>
<polyline clip-path="url(#clip312)" style="stroke:#000000; stroke-linecap:round; stroke-linejoin:round; stroke-width:2; stroke-opacity:0.1; fill:none" points="2200.01,1347.54 2200.01,47.2441 "/>
<polyline clip-path="url(#clip310)" style="stroke:#000000; stroke-linecap:round; stroke-linejoin:round; stroke-width:4; stroke-opacity:1; fill:none" points="251.804,1347.54 2256.76,1347.54 "/>
<polyline clip-path="url(#clip310)" style="stroke:#000000; stroke-linecap:round; stroke-linejoin:round; stroke-width:4; stroke-opacity:1; fill:none" points="939.036,1347.54 939.036,1328.64 "/>
<polyline clip-path="url(#clip310)" style="stroke:#000000; stroke-linecap:round; stroke-linejoin:round; stroke-width:4; stroke-opacity:1; fill:none" points="2200.01,1347.54 2200.01,1328.64 "/>
<path clip-path="url(#clip310)" d="M904.809 1420.89 L912.448 1420.89 L912.448 1394.53 L904.137 1396.19 L904.137 1391.94 L912.401 1390.27 L917.077 1390.27 L917.077 1420.89 L924.716 1420.89 L924.716 1424.83 L904.809 1424.83 L904.809 1420.89 Z" fill="#000000" fill-rule="nonzero" fill-opacity="1" /><path clip-path="url(#clip310)" d="M944.16 1393.35 Q940.549 1393.35 938.721 1396.91 Q936.915 1400.45 936.915 1407.58 Q936.915 1414.69 938.721 1418.25 Q940.549 1421.8 944.16 1421.8 Q947.795 1421.8 949.6 1418.25 Q951.429 1414.69 951.429 1407.58 Q951.429 1400.45 949.6 1396.91 Q947.795 1393.35 944.16 1393.35 M944.16 1389.64 Q949.97 1389.64 953.026 1394.25 Q956.105 1398.83 956.105 1407.58 Q956.105 1416.31 953.026 1420.92 Q949.97 1425.5 944.16 1425.5 Q938.35 1425.5 935.271 1420.92 Q932.216 1416.31 932.216 1407.58 Q932.216 1398.83 935.271 1394.25 Q938.35 1389.64 944.16 1389.64 Z" fill="#000000" fill-rule="nonzero" fill-opacity="1" /><path clip-path="url(#clip310)" d="M960.675 1394.22 L973.934 1394.22 L973.934 1397.42 L956.105 1397.42 L956.105 1394.22 Q958.268 1391.98 961.992 1388.22 Q965.734 1384.44 966.693 1383.35 Q968.518 1381.3 969.233 1379.89 Q969.966 1378.46 969.966 1377.09 Q969.966 1374.85 968.386 1373.44 Q966.825 1372.03 964.305 1372.03 Q962.518 1372.03 960.525 1372.65 Q958.55 1373.27 956.293 1374.53 L956.293 1370.69 Q958.587 1369.77 960.581 1369.3 Q962.575 1368.83 964.23 1368.83 Q968.593 1368.83 971.189 1371.01 Q973.784 1373.19 973.784 1376.84 Q973.784 1378.57 973.126 1380.13 Q972.486 1381.68 970.775 1383.78 Q970.305 1384.33 967.784 1386.94 Q965.264 1389.54 960.675 1394.22 Z" fill="#000000" fill-rule="nonzero" fill-opacity="1" /><path clip-path="url(#clip310)" d="M2164.47 1420.89 L2172.11 1420.89 L2172.11 1394.53 L2163.8 1396.19 L2163.8 1391.94 L2172.06 1390.27 L2176.74 1390.27 L2176.74 1420.89 L2184.38 1420.89 L2184.38 1424.83 L2164.47 1424.83 L2164.47 1420.89 Z" fill="#000000" fill-rule="nonzero" fill-opacity="1" /><path clip-path="url(#clip310)" d="M2203.82 1393.35 Q2200.21 1393.35 2198.38 1396.91 Q2196.57 1400.45 2196.57 1407.58 Q2196.57 1414.69 2198.38 1418.25 Q2200.21 1421.8 2203.82 1421.8 Q2207.45 1421.8 2209.26 1418.25 Q2211.09 1414.69 2211.09 1407.58 Q2211.09 1400.45 2209.26 1396.91 Q2207.45 1393.35 2203.82 1393.35 M2203.82 1389.64 Q2209.63 1389.64 2212.69 1394.25 Q2215.76 1398.83 2215.76 1407.58 Q2215.76 1416.31 2212.69 1420.92 Q2209.63 1425.5 2203.82 1425.5 Q2198.01 1425.5 2194.93 1420.92 Q2191.88 1416.31 2191.88 1407.58 Q2191.88 1398.83 2194.93 1394.25 Q2198.01 1389.64 2203.82 1389.64 Z" fill="#000000" fill-rule="nonzero" fill-opacity="1" /><path clip-path="url(#clip310)" d="M2228.44 1372.65 L2218.85 1387.64 L2228.44 1387.64 L2228.44 1372.65 M2227.44 1369.34 L2232.22 1369.34 L2232.22 1387.64 L2236.23 1387.64 L2236.23 1390.8 L2232.22 1390.8 L2232.22 1397.42 L2228.44 1397.42 L2228.44 1390.8 L2215.76 1390.8 L2215.76 1387.13 L2227.44 1369.34 Z" fill="#000000" fill-rule="nonzero" fill-opacity="1" /><path clip-path="url(#clip310)" d="M1174.47 1490.1 L1174.47 1492.96 L1147.54 1492.96 Q1147.92 1499.01 1151.17 1502.19 Q1154.45 1505.34 1160.27 1505.34 Q1163.65 1505.34 1166.8 1504.52 Q1169.98 1503.69 1173.1 1502.03 L1173.1 1507.57 Q1169.95 1508.91 1166.64 1509.61 Q1163.33 1510.31 1159.92 1510.31 Q1151.39 1510.31 1146.4 1505.34 Q1141.43 1500.38 1141.43 1491.91 Q1141.43 1483.16 1146.14 1478.03 Q1150.88 1472.88 1158.91 1472.88 Q1166.1 1472.88 1170.27 1477.53 Q1174.47 1482.14 1174.47 1490.1 M1168.61 1488.38 Q1168.55 1483.57 1165.91 1480.71 Q1163.3 1477.84 1158.97 1477.84 Q1154.07 1477.84 1151.11 1480.61 Q1148.18 1483.38 1147.73 1488.41 L1168.61 1488.38 Z" fill="#000000" fill-rule="nonzero" fill-opacity="1" /><path clip-path="url(#clip310)" d="M1189.75 1504.04 L1189.75 1522.94 L1183.86 1522.94 L1183.86 1473.74 L1189.75 1473.74 L1189.75 1479.15 Q1191.59 1475.97 1194.39 1474.44 Q1197.23 1472.88 1201.14 1472.88 Q1207.64 1472.88 1211.68 1478.03 Q1215.75 1483.19 1215.75 1491.59 Q1215.75 1500 1211.68 1505.15 Q1207.64 1510.31 1201.14 1510.31 Q1197.23 1510.31 1194.39 1508.78 Q1191.59 1507.22 1189.75 1504.04 M1209.67 1491.59 Q1209.67 1485.13 1207 1481.47 Q1204.36 1477.78 1199.71 1477.78 Q1195.06 1477.78 1192.39 1481.47 Q1189.75 1485.13 1189.75 1491.59 Q1189.75 1498.05 1192.39 1501.75 Q1195.06 1505.41 1199.71 1505.41 Q1204.36 1505.41 1207 1501.75 Q1209.67 1498.05 1209.67 1491.59 Z" fill="#000000" fill-rule="nonzero" fill-opacity="1" /><path clip-path="url(#clip310)" d="M1239.27 1477.84 Q1234.56 1477.84 1231.82 1481.54 Q1229.09 1485.2 1229.09 1491.59 Q1229.09 1497.99 1231.79 1501.68 Q1234.53 1505.34 1239.27 1505.34 Q1243.95 1505.34 1246.69 1501.65 Q1249.43 1497.96 1249.43 1491.59 Q1249.43 1485.26 1246.69 1481.57 Q1243.95 1477.84 1239.27 1477.84 M1239.27 1472.88 Q1246.91 1472.88 1251.27 1477.84 Q1255.63 1482.81 1255.63 1491.59 Q1255.63 1500.35 1251.27 1505.34 Q1246.91 1510.31 1239.27 1510.31 Q1231.6 1510.31 1227.24 1505.34 Q1222.91 1500.35 1222.91 1491.59 Q1222.91 1482.81 1227.24 1477.84 Q1231.6 1472.88 1239.27 1472.88 Z" fill="#000000" fill-rule="nonzero" fill-opacity="1" /><path clip-path="url(#clip310)" d="M1290.99 1475.11 L1290.99 1480.58 Q1288.51 1479.21 1286 1478.54 Q1283.51 1477.84 1280.97 1477.84 Q1275.27 1477.84 1272.12 1481.47 Q1268.97 1485.07 1268.97 1491.59 Q1268.97 1498.12 1272.12 1501.75 Q1275.27 1505.34 1280.97 1505.34 Q1283.51 1505.34 1286 1504.67 Q1288.51 1503.97 1290.99 1502.61 L1290.99 1508.02 Q1288.54 1509.16 1285.9 1509.74 Q1283.29 1510.31 1280.33 1510.31 Q1272.28 1510.31 1267.54 1505.25 Q1262.79 1500.19 1262.79 1491.59 Q1262.79 1482.87 1267.57 1477.88 Q1272.37 1472.88 1280.71 1472.88 Q1283.42 1472.88 1286 1473.45 Q1288.58 1473.99 1290.99 1475.11 Z" fill="#000000" fill-rule="nonzero" fill-opacity="1" /><path clip-path="url(#clip310)" d="M1330.81 1487.87 L1330.81 1509.39 L1324.96 1509.39 L1324.96 1488.06 Q1324.96 1483 1322.98 1480.49 Q1321.01 1477.97 1317.06 1477.97 Q1312.32 1477.97 1309.58 1480.99 Q1306.84 1484.02 1306.84 1489.24 L1306.84 1509.39 L1300.96 1509.39 L1300.96 1459.86 L1306.84 1459.86 L1306.84 1479.28 Q1308.95 1476.06 1311.78 1474.47 Q1314.64 1472.88 1318.37 1472.88 Q1324.51 1472.88 1327.66 1476.7 Q1330.81 1480.49 1330.81 1487.87 Z" fill="#000000" fill-rule="nonzero" fill-opacity="1" /><path clip-path="url(#clip310)" d="M1365.22 1474.79 L1365.22 1480.33 Q1362.74 1479.05 1360.06 1478.42 Q1357.39 1477.78 1354.52 1477.78 Q1350.16 1477.78 1347.97 1479.12 Q1345.8 1480.45 1345.8 1483.13 Q1345.8 1485.16 1347.36 1486.34 Q1348.92 1487.49 1353.63 1488.54 L1355.64 1488.98 Q1361.88 1490.32 1364.49 1492.77 Q1367.13 1495.19 1367.13 1499.55 Q1367.13 1504.52 1363.18 1507.41 Q1359.27 1510.31 1352.39 1510.31 Q1349.53 1510.31 1346.41 1509.74 Q1343.32 1509.19 1339.88 1508.08 L1339.88 1502.03 Q1343.13 1503.72 1346.28 1504.58 Q1349.43 1505.41 1352.52 1505.41 Q1356.66 1505.41 1358.88 1504.01 Q1361.11 1502.57 1361.11 1500 Q1361.11 1497.61 1359.49 1496.34 Q1357.9 1495.06 1352.46 1493.88 L1350.42 1493.41 Q1344.98 1492.26 1342.56 1489.91 Q1340.14 1487.52 1340.14 1483.38 Q1340.14 1478.35 1343.7 1475.62 Q1347.27 1472.88 1353.82 1472.88 Q1357.07 1472.88 1359.93 1473.36 Q1362.8 1473.83 1365.22 1474.79 Z" fill="#000000" fill-rule="nonzero" fill-opacity="1" /><polyline clip-path="url(#clip312)" style="stroke:#000000; stroke-linecap:round; stroke-linejoin:round; stroke-width:2; stroke-opacity:0.1; fill:none" points="251.804,863.771 2256.76,863.771 "/>
<polyline clip-path="url(#clip312)" style="stroke:#000000; stroke-linecap:round; stroke-linejoin:round; stroke-width:2; stroke-opacity:0.1; fill:none" points="251.804,303.749 2256.76,303.749 "/>
<polyline clip-path="url(#clip310)" style="stroke:#000000; stroke-linecap:round; stroke-linejoin:round; stroke-width:4; stroke-opacity:1; fill:none" points="251.804,1347.54 251.804,47.2441 "/>
<polyline clip-path="url(#clip310)" style="stroke:#000000; stroke-linecap:round; stroke-linejoin:round; stroke-width:4; stroke-opacity:1; fill:none" points="251.804,863.771 270.702,863.771 "/>
<polyline clip-path="url(#clip310)" style="stroke:#000000; stroke-linecap:round; stroke-linejoin:round; stroke-width:4; stroke-opacity:1; fill:none" points="251.804,303.749 270.702,303.749 "/>
<path clip-path="url(#clip310)" d="M115.675 883.564 L123.314 883.564 L123.314 857.198 L115.003 858.865 L115.003 854.605 L123.267 852.939 L127.943 852.939 L127.943 883.564 L135.582 883.564 L135.582 887.499 L115.675 887.499 L115.675 883.564 Z" fill="#000000" fill-rule="nonzero" fill-opacity="1" /><path clip-path="url(#clip310)" d="M155.026 856.017 Q151.415 856.017 149.587 859.582 Q147.781 863.124 147.781 870.253 Q147.781 877.36 149.587 880.925 Q151.415 884.466 155.026 884.466 Q158.661 884.466 160.466 880.925 Q162.295 877.36 162.295 870.253 Q162.295 863.124 160.466 859.582 Q158.661 856.017 155.026 856.017 M155.026 852.314 Q160.837 852.314 163.892 856.92 Q166.971 861.504 166.971 870.253 Q166.971 878.98 163.892 883.587 Q160.837 888.17 155.026 888.17 Q149.216 888.17 146.138 883.587 Q143.082 878.98 143.082 870.253 Q143.082 861.504 146.138 856.92 Q149.216 852.314 155.026 852.314 Z" fill="#000000" fill-rule="nonzero" fill-opacity="1" /><path clip-path="url(#clip310)" d="M166.971 846.415 L191.082 846.415 L191.082 849.612 L166.971 849.612 L166.971 846.415 Z" fill="#000000" fill-rule="nonzero" fill-opacity="1" /><path clip-path="url(#clip310)" d="M207.878 844.534 Q205.32 844.534 203.815 846.283 Q202.329 848.033 202.329 851.079 Q202.329 854.107 203.815 855.875 Q205.32 857.625 207.878 857.625 Q210.436 857.625 211.921 855.875 Q213.426 854.107 213.426 851.079 Q213.426 848.033 211.921 846.283 Q210.436 844.534 207.878 844.534 M215.42 832.629 L215.42 836.09 Q213.99 835.413 212.523 835.055 Q211.075 834.698 209.646 834.698 Q205.884 834.698 203.89 837.237 Q201.916 839.776 201.633 844.911 Q202.743 843.274 204.417 842.409 Q206.091 841.525 208.103 841.525 Q212.335 841.525 214.78 844.102 Q217.244 846.66 217.244 851.079 Q217.244 855.405 214.686 858.02 Q212.128 860.634 207.878 860.634 Q203.006 860.634 200.43 856.91 Q197.853 853.167 197.853 846.077 Q197.853 839.419 201.013 835.469 Q204.173 831.501 209.495 831.501 Q210.925 831.501 212.373 831.783 Q213.84 832.065 215.42 832.629 Z" fill="#000000" fill-rule="nonzero" fill-opacity="1" /><path clip-path="url(#clip310)" d="M115.411 323.541 L123.05 323.541 L123.05 297.176 L114.74 298.843 L114.74 294.583 L123.004 292.917 L127.68 292.917 L127.68 323.541 L135.319 323.541 L135.319 327.477 L115.411 327.477 L115.411 323.541 Z" fill="#000000" fill-rule="nonzero" fill-opacity="1" /><path clip-path="url(#clip310)" d="M154.763 295.995 Q151.152 295.995 149.323 299.56 Q147.518 303.102 147.518 310.231 Q147.518 317.338 149.323 320.903 Q151.152 324.444 154.763 324.444 Q158.397 324.444 160.203 320.903 Q162.032 317.338 162.032 310.231 Q162.032 303.102 160.203 299.56 Q158.397 295.995 154.763 295.995 M154.763 292.292 Q160.573 292.292 163.629 296.898 Q166.707 301.481 166.707 310.231 Q166.707 318.958 163.629 323.565 Q160.573 328.148 154.763 328.148 Q148.953 328.148 145.874 323.565 Q142.819 318.958 142.819 310.231 Q142.819 301.481 145.874 296.898 Q148.953 292.292 154.763 292.292 Z" fill="#000000" fill-rule="nonzero" fill-opacity="1" /><path clip-path="url(#clip310)" d="M166.707 286.393 L190.819 286.393 L190.819 289.59 L166.707 289.59 L166.707 286.393 Z" fill="#000000" fill-rule="nonzero" fill-opacity="1" /><path clip-path="url(#clip310)" d="M209.458 275.296 L199.866 290.286 L209.458 290.286 L209.458 275.296 M208.461 271.986 L213.238 271.986 L213.238 290.286 L217.244 290.286 L217.244 293.446 L213.238 293.446 L213.238 300.066 L209.458 300.066 L209.458 293.446 L196.781 293.446 L196.781 289.778 L208.461 271.986 Z" fill="#000000" fill-rule="nonzero" fill-opacity="1" /><path clip-path="url(#clip310)" d="M18.4042 761.509 L18.4042 751.929 L50.7419 739.802 L18.4042 727.612 L18.4042 718.031 L65.9242 718.031 L65.9242 724.301 L24.197 724.301 L56.7894 736.555 L56.7894 743.017 L24.197 755.271 L65.9242 755.271 L65.9242 761.509 L18.4042 761.509 Z" fill="#000000" fill-rule="nonzero" fill-opacity="1" /><path clip-path="url(#clip310)" d="M19.9638 676.781 L26.234 676.781 Q24.4834 680.442 23.624 683.688 Q22.7647 686.935 22.7647 689.958 Q22.7647 695.21 24.8017 698.075 Q26.8387 700.907 30.5945 700.907 Q33.7455 700.907 35.3688 699.03 Q36.9602 697.12 37.9469 691.836 L38.7426 687.953 Q40.1112 680.76 43.5805 677.354 Q47.018 673.917 52.8108 673.917 Q59.7176 673.917 63.2824 678.564 Q66.8472 683.179 66.8472 692.123 Q66.8472 695.497 66.0833 699.316 Q65.3194 703.104 63.8235 707.178 L57.2031 707.178 Q59.3993 703.263 60.5133 699.507 Q61.6273 695.751 61.6273 692.123 Q61.6273 686.616 59.463 683.625 Q57.2986 680.633 53.2882 680.633 Q49.7871 680.633 47.8137 682.797 Q45.8404 684.929 44.8537 689.831 L44.0898 693.746 Q42.6575 700.939 39.602 704.154 Q36.5464 707.369 31.1037 707.369 Q24.8017 707.369 21.1732 702.944 Q17.5448 698.488 17.5448 690.69 Q17.5448 687.348 18.1495 683.879 Q18.7543 680.41 19.9638 676.781 Z" fill="#000000" fill-rule="nonzero" fill-opacity="1" /><path clip-path="url(#clip310)" d="M18.4042 663.891 L18.4042 633.845 L23.815 633.845 L23.815 657.461 L37.8832 657.461 L37.8832 634.831 L43.2941 634.831 L43.2941 657.461 L60.5133 657.461 L60.5133 633.272 L65.9242 633.272 L65.9242 663.891 L18.4042 663.891 Z" fill="#000000" fill-rule="nonzero" fill-opacity="1" /><circle clip-path="url(#clip312)" cx="308.548" cy="84.0448" r="18" fill="#78c2ad" fill-rule="evenodd" fill-opacity="0.6" stroke="#000000" stroke-opacity="0.6" stroke-width="3.072"/>
<circle clip-path="url(#clip312)" cx="939.036" cy="361.407" r="18" fill="#78c2ad" fill-rule="evenodd" fill-opacity="0.6" stroke="#000000" stroke-opacity="0.6" stroke-width="3.072"/>
<circle clip-path="url(#clip312)" cx="1569.52" cy="645.692" r="18" fill="#78c2ad" fill-rule="evenodd" fill-opacity="0.6" stroke="#000000" stroke-opacity="0.6" stroke-width="3.072"/>
<circle clip-path="url(#clip312)" cx="2200.01" cy="907.167" r="18" fill="#78c2ad" fill-rule="evenodd" fill-opacity="0.6" stroke="#000000" stroke-opacity="0.6" stroke-width="3.072"/>
<polyline clip-path="url(#clip312)" style="stroke:#78c2ad; stroke-linecap:round; stroke-linejoin:round; stroke-width:8; stroke-opacity:1; fill:none" points="308.548,86.53 327.654,94.8744 346.759,103.219 365.865,111.563 384.971,119.908 404.076,128.252 423.182,136.596 442.288,144.941 461.393,153.285 480.499,161.63 499.605,169.974 518.711,178.318 537.816,186.663 556.922,195.007 576.028,203.352 595.133,211.696 614.239,220.04 633.345,228.385 652.45,236.729 671.556,245.074 690.662,253.418 709.768,261.762 728.873,270.107 747.979,278.451 767.085,286.796 786.19,295.14 805.296,303.484 824.402,311.829 843.507,320.173 862.613,328.518 881.719,336.862 900.825,345.207 919.93,353.551 939.036,361.895 958.142,370.24 977.247,378.584 996.353,386.929 1015.46,395.273 1034.56,403.617 1053.67,411.962 1072.78,420.306 1091.88,428.651 1110.99,436.995 1130.09,445.339 1149.2,453.684 1168.3,462.028 1187.41,470.373 1206.52,478.717 1225.62,487.061 1244.73,495.406 1263.83,503.75 1282.94,512.095 1302.04,520.439 1321.15,528.783 1340.26,537.128 1359.36,545.472 1378.47,553.817 1397.57,562.161 1416.68,570.505 1435.78,578.85 1454.89,587.194 1474,595.539 1493.1,603.883 1512.21,612.227 1531.31,620.572 1550.42,628.916 1569.52,637.261 1588.63,645.605 1607.74,653.949 1626.84,662.294 1645.95,670.638 1665.05,678.983 1684.16,687.327 1703.26,695.671 1722.37,704.016 1741.48,712.36 1760.58,720.705 1779.69,729.049 1798.79,737.393 1817.9,745.738 1837,754.082 1856.11,762.427 1875.22,770.771 1894.32,779.115 1913.43,787.46 1932.53,795.804 1951.64,804.149 1970.74,812.493 1989.85,820.837 2008.96,829.182 2028.06,837.526 2047.17,845.871 2066.27,854.215 2085.38,862.559 2104.48,870.904 2123.59,879.248 2142.69,887.593 2161.8,895.937 2180.91,904.281 2200.01,912.626 "/>
<circle clip-path="url(#clip312)" cx="308.548" cy="578.905" r="18" fill="#e95420" fill-rule="evenodd" fill-opacity="0.6" stroke="#000000" stroke-opacity="0.6" stroke-width="3.072"/>
<circle clip-path="url(#clip312)" cx="939.036" cy="866.29" r="18" fill="#e95420" fill-rule="evenodd" fill-opacity="0.6" stroke="#000000" stroke-opacity="0.6" stroke-width="3.072"/>
<circle clip-path="url(#clip312)" cx="1569.52" cy="1096.71" r="18" fill="#e95420" fill-rule="evenodd" fill-opacity="0.6" stroke="#000000" stroke-opacity="0.6" stroke-width="3.072"/>
<circle clip-path="url(#clip312)" cx="2200.01" cy="1287.44" r="18" fill="#e95420" fill-rule="evenodd" fill-opacity="0.6" stroke="#000000" stroke-opacity="0.6" stroke-width="3.072"/>
<polyline clip-path="url(#clip312)" style="stroke:#e95420; stroke-linecap:round; stroke-linejoin:round; stroke-width:8; stroke-opacity:1; fill:none" points="308.548,603.933 327.654,611.072 346.759,618.212 365.865,625.351 384.971,632.49 404.076,639.63 423.182,646.769 442.288,653.909 461.393,661.048 480.499,668.188 499.605,675.327 518.711,682.466 537.816,689.606 556.922,696.745 576.028,703.885 595.133,711.024 614.239,718.164 633.345,725.303 652.45,732.442 671.556,739.582 690.662,746.721 709.768,753.861 728.873,761 747.979,768.14 767.085,775.279 786.19,782.418 805.296,789.558 824.402,796.697 843.507,803.837 862.613,810.976 881.719,818.116 900.825,825.255 919.93,832.394 939.036,839.534 958.142,846.673 977.247,853.813 996.353,860.952 1015.46,868.092 1034.56,875.231 1053.67,882.37 1072.78,889.51 1091.88,896.649 1110.99,903.789 1130.09,910.928 1149.2,918.068 1168.3,925.207 1187.41,932.346 1206.52,939.486 1225.62,946.625 1244.73,953.765 1263.83,960.904 1282.94,968.043 1302.04,975.183 1321.15,982.322 1340.26,989.462 1359.36,996.601 1378.47,1003.74 1397.57,1010.88 1416.68,1018.02 1435.78,1025.16 1454.89,1032.3 1474,1039.44 1493.1,1046.58 1512.21,1053.72 1531.31,1060.86 1550.42,1068 1569.52,1075.13 1588.63,1082.27 1607.74,1089.41 1626.84,1096.55 1645.95,1103.69 1665.05,1110.83 1684.16,1117.97 1703.26,1125.11 1722.37,1132.25 1741.48,1139.39 1760.58,1146.53 1779.69,1153.67 1798.79,1160.81 1817.9,1167.95 1837,1175.09 1856.11,1182.23 1875.22,1189.37 1894.32,1196.51 1913.43,1203.64 1932.53,1210.78 1951.64,1217.92 1970.74,1225.06 1989.85,1232.2 2008.96,1239.34 2028.06,1246.48 2047.17,1253.62 2066.27,1260.76 2085.38,1267.9 2104.48,1275.04 2123.59,1282.18 2142.69,1289.32 2161.8,1296.46 2180.91,1303.6 2200.01,1310.74 "/>
<path clip-path="url(#clip310)" d="M1845.19 246.107 L2189.92 246.107 L2189.92 90.5872 L1845.19 90.5872  Z" fill="#ffffff" fill-rule="evenodd" fill-opacity="1"/>
<polyline clip-path="url(#clip310)" style="stroke:#000000; stroke-linecap:round; stroke-linejoin:round; stroke-width:4; stroke-opacity:1; fill:none" points="1845.19,246.107 2189.92,246.107 2189.92,90.5872 1845.19,90.5872 1845.19,246.107 "/>
<polyline clip-path="url(#clip310)" style="stroke:#78c2ad; stroke-linecap:round; stroke-linejoin:round; stroke-width:8; stroke-opacity:1; fill:none" points="1867.47,142.427 2001.13,142.427 "/>
<path clip-path="url(#clip310)" d="M2023.94 125.147 L2051.1 125.147 L2051.1 128.712 L2029.24 155.772 L2051.63 155.772 L2051.63 159.707 L2023.41 159.707 L2023.41 156.142 L2045.26 129.082 L2023.94 129.082 L2023.94 125.147 Z" fill="#000000" fill-rule="nonzero" fill-opacity="1" /><path clip-path="url(#clip310)" d="M2056.42 125.147 L2083.57 125.147 L2083.57 128.712 L2061.72 155.772 L2084.11 155.772 L2084.11 159.707 L2055.89 159.707 L2055.89 156.142 L2077.74 129.082 L2056.42 129.082 L2056.42 125.147 Z" fill="#000000" fill-rule="nonzero" fill-opacity="1" /><polyline clip-path="url(#clip310)" style="stroke:#e95420; stroke-linecap:round; stroke-linejoin:round; stroke-width:8; stroke-opacity:1; fill:none" points="1867.47,194.267 2001.13,194.267 "/>
<path clip-path="url(#clip310)" d="M2023.94 176.987 L2051.1 176.987 L2051.1 180.552 L2029.24 207.612 L2051.63 207.612 L2051.63 211.547 L2023.41 211.547 L2023.41 207.982 L2045.26 180.922 L2023.94 180.922 L2023.94 176.987 Z" fill="#000000" fill-rule="nonzero" fill-opacity="1" /><path clip-path="url(#clip310)" d="M2056.42 176.987 L2083.57 176.987 L2083.57 180.552 L2061.72 207.612 L2084.11 207.612 L2084.11 211.547 L2055.89 211.547 L2055.89 207.982 L2077.74 180.922 L2056.42 180.922 L2056.42 176.987 Z" fill="#000000" fill-rule="nonzero" fill-opacity="1" /><path clip-path="url(#clip310)" d="M2087.72 196.663 L2100.19 196.663 L2100.19 200.459 L2087.72 200.459 L2087.72 196.663 Z" fill="#000000" fill-rule="nonzero" fill-opacity="1" /><path clip-path="url(#clip310)" d="M2133.04 179.649 L2133.04 184.58 Q2130.68 182.381 2127.99 181.293 Q2125.33 180.205 2122.32 180.205 Q2116.4 180.205 2113.25 183.839 Q2110.1 187.45 2110.1 194.302 Q2110.1 201.131 2113.25 204.765 Q2116.4 208.376 2122.32 208.376 Q2125.33 208.376 2127.99 207.288 Q2130.68 206.2 2133.04 204.001 L2133.04 208.885 Q2130.59 210.552 2127.83 211.385 Q2125.1 212.218 2122.05 212.218 Q2114.2 212.218 2109.68 207.427 Q2105.17 202.612 2105.17 194.302 Q2105.17 185.969 2109.68 181.177 Q2114.2 176.362 2122.05 176.362 Q2125.15 176.362 2127.88 177.196 Q2130.63 178.006 2133.04 179.649 Z" fill="#000000" fill-rule="nonzero" fill-opacity="1" /><path clip-path="url(#clip310)" d="M2149.17 211.547 L2135.98 176.987 L2140.86 176.987 L2151.81 206.084 L2162.79 176.987 L2167.65 176.987 L2154.48 211.547 L2149.17 211.547 Z" fill="#000000" fill-rule="nonzero" fill-opacity="1" /></svg>
