<?xml version="1.0" encoding="utf-8"?>
<svg xmlns="http://www.w3.org/2000/svg" xmlns:xlink="http://www.w3.org/1999/xlink" width="576" height="384" viewBox="0 0 2304 1536">
<defs>
  <clipPath id="clip470">
    <rect x="0" y="0" width="2304" height="1536"/>
  </clipPath>
</defs>
<path clip-path="url(#clip470)" d="M0 1536 L2304 1536 L2304 8.52651e-14 L0 8.52651e-14  Z" fill="#ffffff" fill-rule="evenodd" fill-opacity="1"/>
<defs>
  <clipPath id="clip471">
    <rect x="460" y="0" width="1614" height="1536"/>
  </clipPath>
</defs>
<path clip-path="url(#clip470)" d="M218.906 1359.82 L2256.76 1359.82 L2256.76 123.472 L218.906 123.472  Z" fill="#ffffff" fill-rule="evenodd" fill-opacity="1"/>
<defs>
  <clipPath id="clip472">
    <rect x="218" y="123" width="2039" height="1237"/>
  </clipPath>
</defs>
<polyline clip-path="url(#clip472)" style="stroke:#000000; stroke-linecap:round; stroke-linejoin:round; stroke-width:2; stroke-opacity:0.1; fill:none" points="459.169,1359.82 459.169,123.472 "/>
<polyline clip-path="url(#clip472)" style="stroke:#000000; stroke-linecap:round; stroke-linejoin:round; stroke-width:2; stroke-opacity:0.1; fill:none" points="810.851,1359.82 810.851,123.472 "/>
<polyline clip-path="url(#clip472)" style="stroke:#000000; stroke-linecap:round; stroke-linejoin:round; stroke-width:2; stroke-opacity:0.1; fill:none" points="1162.53,1359.82 1162.53,123.472 "/>
<polyline clip-path="url(#clip472)" style="stroke:#000000; stroke-linecap:round; stroke-linejoin:round; stroke-width:2; stroke-opacity:0.1; fill:none" points="1514.22,1359.82 1514.22,123.472 "/>
<polyline clip-path="url(#clip472)" style="stroke:#000000; stroke-linecap:round; stroke-linejoin:round; stroke-width:2; stroke-opacity:0.1; fill:none" points="1865.9,1359.82 1865.9,123.472 "/>
<polyline clip-path="url(#clip472)" style="stroke:#000000; stroke-linecap:round; stroke-linejoin:round; stroke-width:2; stroke-opacity:0.1; fill:none" points="2217.58,1359.82 2217.58,123.472 "/>
<polyline clip-path="url(#clip470)" style="stroke:#000000; stroke-linecap:round; stroke-linejoin:round; stroke-width:4; stroke-opacity:1; fill:none" points="218.906,1359.82 2256.76,1359.82 "/>
<polyline clip-path="url(#clip470)" style="stroke:#000000; stroke-linecap:round; stroke-linejoin:round; stroke-width:4; stroke-opacity:1; fill:none" points="459.169,1359.82 459.169,1340.92 "/>
<polyline clip-path="url(#clip470)" style="stroke:#000000; stroke-linecap:round; stroke-linejoin:round; stroke-width:4; stroke-opacity:1; fill:none" points="810.851,1359.82 810.851,1340.92 "/>
<polyline clip-path="url(#clip470)" style="stroke:#000000; stroke-linecap:round; stroke-linejoin:round; stroke-width:4; stroke-opacity:1; fill:none" points="1162.53,1359.82 1162.53,1340.92 "/>
<polyline clip-path="url(#clip470)" style="stroke:#000000; stroke-linecap:round; stroke-linejoin:round; stroke-width:4; stroke-opacity:1; fill:none" points="1514.22,1359.82 1514.22,1340.92 "/>
<polyline clip-path="url(#clip470)" style="stroke:#000000; stroke-linecap:round; stroke-linejoin:round; stroke-width:4; stroke-opacity:1; fill:none" points="1865.9,1359.82 1865.9,1340.92 "/>
<polyline clip-path="url(#clip470)" style="stroke:#000000; stroke-linecap:round; stroke-linejoin:round; stroke-width:4; stroke-opacity:1; fill:none" points="2217.58,1359.82 2217.58,1340.92 "/>
<path clip-path="url(#clip470)" d="M406.195 1404.62 L435.871 1404.62 L435.871 1408.56 L406.195 1408.56 L406.195 1404.62 Z" fill="#000000" fill-rule="nonzero" fill-opacity="1" /><path clip-path="url(#clip470)" d="M455.963 1389.97 Q452.352 1389.97 450.523 1393.54 Q448.718 1397.08 448.718 1404.21 Q448.718 1411.31 450.523 1414.88 Q452.352 1418.42 455.963 1418.42 Q459.597 1418.42 461.403 1414.88 Q463.232 1411.31 463.232 1404.21 Q463.232 1397.08 461.403 1393.54 Q459.597 1389.97 455.963 1389.97 M455.963 1386.27 Q461.773 1386.27 464.829 1390.87 Q467.907 1395.46 467.907 1404.21 Q467.907 1412.93 464.829 1417.54 Q461.773 1422.12 455.963 1422.12 Q450.153 1422.12 447.074 1417.54 Q444.019 1412.93 444.019 1404.21 Q444.019 1395.46 447.074 1390.87 Q450.153 1386.27 455.963 1386.27 Z" fill="#000000" fill-rule="nonzero" fill-opacity="1" /><path clip-path="url(#clip470)" d="M476.125 1415.57 L481.009 1415.57 L481.009 1421.45 L476.125 1421.45 L476.125 1415.57 Z" fill="#000000" fill-rule="nonzero" fill-opacity="1" /><path clip-path="url(#clip470)" d="M491.241 1386.89 L509.597 1386.89 L509.597 1390.83 L495.523 1390.83 L495.523 1399.3 Q496.542 1398.95 497.56 1398.79 Q498.579 1398.6 499.597 1398.6 Q505.384 1398.6 508.764 1401.78 Q512.143 1404.95 512.143 1410.36 Q512.143 1415.94 508.671 1419.04 Q505.199 1422.12 498.88 1422.12 Q496.704 1422.12 494.435 1421.75 Q492.19 1421.38 489.782 1420.64 L489.782 1415.94 Q491.866 1417.08 494.088 1417.63 Q496.31 1418.19 498.787 1418.19 Q502.792 1418.19 505.129 1416.08 Q507.467 1413.98 507.467 1410.36 Q507.467 1406.75 505.129 1404.65 Q502.792 1402.54 498.787 1402.54 Q496.912 1402.54 495.037 1402.96 Q493.185 1403.37 491.241 1404.25 L491.241 1386.89 Z" fill="#000000" fill-rule="nonzero" fill-opacity="1" /><path clip-path="url(#clip470)" d="M788.236 1389.97 Q784.625 1389.97 782.796 1393.54 Q780.991 1397.08 780.991 1404.21 Q780.991 1411.31 782.796 1414.88 Q784.625 1418.42 788.236 1418.42 Q791.87 1418.42 793.676 1414.88 Q795.504 1411.31 795.504 1404.21 Q795.504 1397.08 793.676 1393.54 Q791.87 1389.97 788.236 1389.97 M788.236 1386.27 Q794.046 1386.27 797.102 1390.87 Q800.18 1395.46 800.18 1404.21 Q800.18 1412.93 797.102 1417.54 Q794.046 1422.12 788.236 1422.12 Q782.426 1422.12 779.347 1417.54 Q776.291 1412.93 776.291 1404.21 Q776.291 1395.46 779.347 1390.87 Q782.426 1386.27 788.236 1386.27 Z" fill="#000000" fill-rule="nonzero" fill-opacity="1" /><path clip-path="url(#clip470)" d="M808.398 1415.57 L813.282 1415.57 L813.282 1421.45 L808.398 1421.45 L808.398 1415.57 Z" fill="#000000" fill-rule="nonzero" fill-opacity="1" /><path clip-path="url(#clip470)" d="M833.467 1389.97 Q829.856 1389.97 828.027 1393.54 Q826.222 1397.08 826.222 1404.21 Q826.222 1411.31 828.027 1414.88 Q829.856 1418.42 833.467 1418.42 Q837.101 1418.42 838.907 1414.88 Q840.736 1411.31 840.736 1404.21 Q840.736 1397.08 838.907 1393.54 Q837.101 1389.97 833.467 1389.97 M833.467 1386.27 Q839.277 1386.27 842.333 1390.87 Q845.411 1395.46 845.411 1404.21 Q845.411 1412.93 842.333 1417.54 Q839.277 1422.12 833.467 1422.12 Q827.657 1422.12 824.578 1417.54 Q821.523 1412.93 821.523 1404.21 Q821.523 1395.46 824.578 1390.87 Q827.657 1386.27 833.467 1386.27 Z" fill="#000000" fill-rule="nonzero" fill-opacity="1" /><path clip-path="url(#clip470)" d="M1140.42 1389.97 Q1136.8 1389.97 1134.98 1393.54 Q1133.17 1397.08 1133.17 1404.21 Q1133.17 1411.31 1134.98 1414.88 Q1136.8 1418.42 1140.42 1418.42 Q1144.05 1418.42 1145.86 1414.88 Q1147.68 1411.31 1147.68 1404.21 Q1147.68 1397.08 1145.86 1393.54 Q1144.05 1389.97 1140.42 1389.97 M1140.42 1386.27 Q1146.23 1386.27 1149.28 1390.87 Q1152.36 1395.46 1152.36 1404.21 Q1152.36 1412.93 1149.28 1417.54 Q1146.23 1422.12 1140.42 1422.12 Q1134.61 1422.12 1131.53 1417.54 Q1128.47 1412.93 1128.47 1404.21 Q1128.47 1395.46 1131.53 1390.87 Q1134.61 1386.27 1140.42 1386.27 Z" fill="#000000" fill-rule="nonzero" fill-opacity="1" /><path clip-path="url(#clip470)" d="M1160.58 1415.57 L1165.46 1415.57 L1165.46 1421.45 L1160.58 1421.45 L1160.58 1415.57 Z" fill="#000000" fill-rule="nonzero" fill-opacity="1" /><path clip-path="url(#clip470)" d="M1175.69 1386.89 L1194.05 1386.89 L1194.05 1390.83 L1179.98 1390.83 L1179.98 1399.3 Q1180.99 1398.95 1182.01 1398.79 Q1183.03 1398.6 1184.05 1398.6 Q1189.84 1398.6 1193.22 1401.78 Q1196.6 1404.95 1196.6 1410.36 Q1196.6 1415.94 1193.12 1419.04 Q1189.65 1422.12 1183.33 1422.12 Q1181.16 1422.12 1178.89 1421.75 Q1176.64 1421.38 1174.24 1420.64 L1174.24 1415.94 Q1176.32 1417.08 1178.54 1417.63 Q1180.76 1418.19 1183.24 1418.19 Q1187.24 1418.19 1189.58 1416.08 Q1191.92 1413.98 1191.92 1410.36 Q1191.92 1406.75 1189.58 1404.65 Q1187.24 1402.54 1183.24 1402.54 Q1181.36 1402.54 1179.49 1402.96 Q1177.64 1403.37 1175.69 1404.25 L1175.69 1386.89 Z" fill="#000000" fill-rule="nonzero" fill-opacity="1" /><path clip-path="url(#clip470)" d="M1481.37 1417.52 L1489.01 1417.52 L1489.01 1391.15 L1480.7 1392.82 L1480.7 1388.56 L1488.96 1386.89 L1493.64 1386.89 L1493.64 1417.52 L1501.28 1417.52 L1501.28 1421.45 L1481.37 1421.45 L1481.37 1417.52 Z" fill="#000000" fill-rule="nonzero" fill-opacity="1" /><path clip-path="url(#clip470)" d="M1510.72 1415.57 L1515.61 1415.57 L1515.61 1421.45 L1510.72 1421.45 L1510.72 1415.57 Z" fill="#000000" fill-rule="nonzero" fill-opacity="1" /><path clip-path="url(#clip470)" d="M1535.79 1389.97 Q1532.18 1389.97 1530.35 1393.54 Q1528.54 1397.08 1528.54 1404.21 Q1528.54 1411.31 1530.35 1414.88 Q1532.18 1418.42 1535.79 1418.42 Q1539.42 1418.42 1541.23 1414.88 Q1543.06 1411.31 1543.06 1404.21 Q1543.06 1397.08 1541.23 1393.54 Q1539.42 1389.97 1535.79 1389.97 M1535.79 1386.27 Q1541.6 1386.27 1544.66 1390.87 Q1547.73 1395.46 1547.73 1404.21 Q1547.73 1412.93 1544.66 1417.54 Q1541.6 1422.12 1535.79 1422.12 Q1529.98 1422.12 1526.9 1417.54 Q1523.85 1412.93 1523.85 1404.21 Q1523.85 1395.46 1526.9 1390.87 Q1529.98 1386.27 1535.79 1386.27 Z" fill="#000000" fill-rule="nonzero" fill-opacity="1" /><path clip-path="url(#clip470)" d="M1833.55 1417.52 L1841.19 1417.52 L1841.19 1391.15 L1832.88 1392.82 L1832.88 1388.56 L1841.14 1386.89 L1845.82 1386.89 L1845.82 1417.52 L1853.46 1417.52 L1853.46 1421.45 L1833.55 1421.45 L1833.55 1417.52 Z" fill="#000000" fill-rule="nonzero" fill-opacity="1" /><path clip-path="url(#clip470)" d="M1862.9 1415.57 L1867.79 1415.57 L1867.79 1421.45 L1862.9 1421.45 L1862.9 1415.57 Z" fill="#000000" fill-rule="nonzero" fill-opacity="1" /><path clip-path="url(#clip470)" d="M1878.02 1386.89 L1896.37 1386.89 L1896.37 1390.83 L1882.3 1390.83 L1882.3 1399.3 Q1883.32 1398.95 1884.34 1398.79 Q1885.35 1398.6 1886.37 1398.6 Q1892.16 1398.6 1895.54 1401.78 Q1898.92 1404.95 1898.92 1410.36 Q1898.92 1415.94 1895.45 1419.04 Q1891.97 1422.12 1885.66 1422.12 Q1883.48 1422.12 1881.21 1421.75 Q1878.97 1421.38 1876.56 1420.64 L1876.56 1415.94 Q1878.64 1417.08 1880.86 1417.63 Q1883.09 1418.19 1885.56 1418.19 Q1889.57 1418.19 1891.91 1416.08 Q1894.24 1413.98 1894.24 1410.36 Q1894.24 1406.75 1891.91 1404.65 Q1889.57 1402.54 1885.56 1402.54 Q1883.69 1402.54 1881.81 1402.96 Q1879.96 1403.37 1878.02 1404.25 L1878.02 1386.89 Z" fill="#000000" fill-rule="nonzero" fill-opacity="1" /><path clip-path="url(#clip470)" d="M2188.82 1417.52 L2205.14 1417.52 L2205.14 1421.45 L2183.19 1421.45 L2183.19 1417.52 Q2185.86 1414.76 2190.44 1410.13 Q2195.05 1405.48 2196.23 1404.14 Q2198.47 1401.61 2199.35 1399.88 Q2200.25 1398.12 2200.25 1396.43 Q2200.25 1393.67 2198.31 1391.94 Q2196.39 1390.2 2193.29 1390.2 Q2191.09 1390.2 2188.63 1390.97 Q2186.2 1391.73 2183.43 1393.28 L2183.43 1388.56 Q2186.25 1387.42 2188.7 1386.85 Q2191.16 1386.27 2193.19 1386.27 Q2198.57 1386.27 2201.76 1388.95 Q2204.95 1391.64 2204.95 1396.13 Q2204.95 1398.26 2204.14 1400.18 Q2203.36 1402.08 2201.25 1404.67 Q2200.67 1405.34 2197.57 1408.56 Q2194.47 1411.75 2188.82 1417.52 Z" fill="#000000" fill-rule="nonzero" fill-opacity="1" /><path clip-path="url(#clip470)" d="M2214.95 1415.57 L2219.84 1415.57 L2219.84 1421.45 L2214.95 1421.45 L2214.95 1415.57 Z" fill="#000000" fill-rule="nonzero" fill-opacity="1" /><path clip-path="url(#clip470)" d="M2240.02 1389.97 Q2236.41 1389.97 2234.58 1393.54 Q2232.78 1397.08 2232.78 1404.21 Q2232.78 1411.31 2234.58 1414.88 Q2236.41 1418.42 2240.02 1418.42 Q2243.66 1418.42 2245.46 1414.88 Q2247.29 1411.31 2247.29 1404.21 Q2247.29 1397.08 2245.46 1393.54 Q2243.66 1389.97 2240.02 1389.97 M2240.02 1386.27 Q2245.83 1386.27 2248.89 1390.87 Q2251.97 1395.46 2251.97 1404.21 Q2251.97 1412.93 2248.89 1417.54 Q2245.83 1422.12 2240.02 1422.12 Q2234.21 1422.12 2231.13 1417.54 Q2228.08 1412.93 2228.08 1404.21 Q2228.08 1395.46 2231.13 1390.87 Q2234.21 1386.27 2240.02 1386.27 Z" fill="#000000" fill-rule="nonzero" fill-opacity="1" /><path clip-path="url(#clip470)" d="M1238.05 1467.6 L1225.16 1484.94 L1238.72 1503.24 L1231.82 1503.24 L1221.44 1489.24 L1211.06 1503.24 L1204.16 1503.24 L1218 1484.59 L1205.33 1467.6 L1212.24 1467.6 L1221.69 1480.3 L1231.15 1467.6 L1238.05 1467.6 Z" fill="#000000" fill-rule="nonzero" fill-opacity="1" /><path clip-path="url(#clip470)" d="M1271.51 1463.55 L1260.08 1469.73 L1271.51 1475.93 L1269.66 1479.05 L1258.97 1472.59 L1258.97 1484.59 L1255.34 1484.59 L1255.34 1472.59 L1244.64 1479.05 L1242.8 1475.93 L1254.22 1469.73 L1242.8 1463.55 L1244.64 1460.4 L1255.34 1466.86 L1255.34 1454.86 L1258.97 1454.86 L1258.97 1466.86 L1269.66 1460.4 L1271.51 1463.55 Z" fill="#000000" fill-rule="nonzero" fill-opacity="1" /><polyline clip-path="url(#clip472)" style="stroke:#000000; stroke-linecap:round; stroke-linejoin:round; stroke-width:2; stroke-opacity:0.1; fill:none" points="218.906,1324.83 2256.76,1324.83 "/>
<polyline clip-path="url(#clip472)" style="stroke:#000000; stroke-linecap:round; stroke-linejoin:round; stroke-width:2; stroke-opacity:0.1; fill:none" points="218.906,1143.01 2256.76,1143.01 "/>
<polyline clip-path="url(#clip472)" style="stroke:#000000; stroke-linecap:round; stroke-linejoin:round; stroke-width:2; stroke-opacity:0.1; fill:none" points="218.906,961.193 2256.76,961.193 "/>
<polyline clip-path="url(#clip472)" style="stroke:#000000; stroke-linecap:round; stroke-linejoin:round; stroke-width:2; stroke-opacity:0.1; fill:none" points="218.906,779.374 2256.76,779.374 "/>
<polyline clip-path="url(#clip472)" style="stroke:#000000; stroke-linecap:round; stroke-linejoin:round; stroke-width:2; stroke-opacity:0.1; fill:none" points="218.906,597.556 2256.76,597.556 "/>
<polyline clip-path="url(#clip472)" style="stroke:#000000; stroke-linecap:round; stroke-linejoin:round; stroke-width:2; stroke-opacity:0.1; fill:none" points="218.906,415.738 2256.76,415.738 "/>
<polyline clip-path="url(#clip472)" style="stroke:#000000; stroke-linecap:round; stroke-linejoin:round; stroke-width:2; stroke-opacity:0.1; fill:none" points="218.906,233.92 2256.76,233.92 "/>
<polyline clip-path="url(#clip470)" style="stroke:#000000; stroke-linecap:round; stroke-linejoin:round; stroke-width:4; stroke-opacity:1; fill:none" points="218.906,1359.82 218.906,123.472 "/>
<polyline clip-path="url(#clip470)" style="stroke:#000000; stroke-linecap:round; stroke-linejoin:round; stroke-width:4; stroke-opacity:1; fill:none" points="218.906,1324.83 237.804,1324.83 "/>
<polyline clip-path="url(#clip470)" style="stroke:#000000; stroke-linecap:round; stroke-linejoin:round; stroke-width:4; stroke-opacity:1; fill:none" points="218.906,1143.01 237.804,1143.01 "/>
<polyline clip-path="url(#clip470)" style="stroke:#000000; stroke-linecap:round; stroke-linejoin:round; stroke-width:4; stroke-opacity:1; fill:none" points="218.906,961.193 237.804,961.193 "/>
<polyline clip-path="url(#clip470)" style="stroke:#000000; stroke-linecap:round; stroke-linejoin:round; stroke-width:4; stroke-opacity:1; fill:none" points="218.906,779.374 237.804,779.374 "/>
<polyline clip-path="url(#clip470)" style="stroke:#000000; stroke-linecap:round; stroke-linejoin:round; stroke-width:4; stroke-opacity:1; fill:none" points="218.906,597.556 237.804,597.556 "/>
<polyline clip-path="url(#clip470)" style="stroke:#000000; stroke-linecap:round; stroke-linejoin:round; stroke-width:4; stroke-opacity:1; fill:none" points="218.906,415.738 237.804,415.738 "/>
<polyline clip-path="url(#clip470)" style="stroke:#000000; stroke-linecap:round; stroke-linejoin:round; stroke-width:4; stroke-opacity:1; fill:none" points="218.906,233.92 237.804,233.92 "/>
<path clip-path="url(#clip470)" d="M127.171 1310.63 Q123.56 1310.63 121.731 1314.19 Q119.925 1317.73 119.925 1324.86 Q119.925 1331.97 121.731 1335.53 Q123.56 1339.08 127.171 1339.08 Q130.805 1339.08 132.61 1335.53 Q134.439 1331.97 134.439 1324.86 Q134.439 1317.73 132.61 1314.19 Q130.805 1310.63 127.171 1310.63 M127.171 1306.92 Q132.981 1306.92 136.036 1311.53 Q139.115 1316.11 139.115 1324.86 Q139.115 1333.59 136.036 1338.2 Q132.981 1342.78 127.171 1342.78 Q121.36 1342.78 118.282 1338.2 Q115.226 1333.59 115.226 1324.86 Q115.226 1316.11 118.282 1311.53 Q121.36 1306.92 127.171 1306.92 Z" fill="#000000" fill-rule="nonzero" fill-opacity="1" /><path clip-path="url(#clip470)" d="M147.333 1336.23 L152.217 1336.23 L152.217 1342.11 L147.333 1342.11 L147.333 1336.23 Z" fill="#000000" fill-rule="nonzero" fill-opacity="1" /><path clip-path="url(#clip470)" d="M172.402 1310.63 Q168.791 1310.63 166.962 1314.19 Q165.157 1317.73 165.157 1324.86 Q165.157 1331.97 166.962 1335.53 Q168.791 1339.08 172.402 1339.08 Q176.036 1339.08 177.842 1335.53 Q179.67 1331.97 179.67 1324.86 Q179.67 1317.73 177.842 1314.19 Q176.036 1310.63 172.402 1310.63 M172.402 1306.92 Q178.212 1306.92 181.268 1311.53 Q184.346 1316.11 184.346 1324.86 Q184.346 1333.59 181.268 1338.2 Q178.212 1342.78 172.402 1342.78 Q166.592 1342.78 163.513 1338.2 Q160.458 1333.59 160.458 1324.86 Q160.458 1316.11 163.513 1311.53 Q166.592 1306.92 172.402 1306.92 Z" fill="#000000" fill-rule="nonzero" fill-opacity="1" /><path clip-path="url(#clip470)" d="M128.768 1128.81 Q125.157 1128.81 123.328 1132.37 Q121.523 1135.92 121.523 1143.05 Q121.523 1150.15 123.328 1153.72 Q125.157 1157.26 128.768 1157.26 Q132.402 1157.26 134.208 1153.72 Q136.036 1150.15 136.036 1143.05 Q136.036 1135.92 134.208 1132.37 Q132.402 1128.81 128.768 1128.81 M128.768 1125.11 Q134.578 1125.11 137.634 1129.71 Q140.712 1134.3 140.712 1143.05 Q140.712 1151.77 137.634 1156.38 Q134.578 1160.96 128.768 1160.96 Q122.958 1160.96 119.879 1156.38 Q116.823 1151.77 116.823 1143.05 Q116.823 1134.3 119.879 1129.71 Q122.958 1125.11 128.768 1125.11 Z" fill="#000000" fill-rule="nonzero" fill-opacity="1" /><path clip-path="url(#clip470)" d="M148.93 1154.41 L153.814 1154.41 L153.814 1160.29 L148.93 1160.29 L148.93 1154.41 Z" fill="#000000" fill-rule="nonzero" fill-opacity="1" /><path clip-path="url(#clip470)" d="M168.027 1156.36 L184.346 1156.36 L184.346 1160.29 L162.402 1160.29 L162.402 1156.36 Q165.064 1153.6 169.647 1148.97 Q174.254 1144.32 175.434 1142.98 Q177.68 1140.45 178.559 1138.72 Q179.462 1136.96 179.462 1135.27 Q179.462 1132.51 177.518 1130.78 Q175.596 1129.04 172.494 1129.04 Q170.295 1129.04 167.842 1129.8 Q165.411 1130.57 162.633 1132.12 L162.633 1127.4 Q165.457 1126.26 167.911 1125.68 Q170.365 1125.11 172.402 1125.11 Q177.772 1125.11 180.967 1127.79 Q184.161 1130.48 184.161 1134.97 Q184.161 1137.1 183.351 1139.02 Q182.564 1140.92 180.457 1143.51 Q179.879 1144.18 176.777 1147.4 Q173.675 1150.59 168.027 1156.36 Z" fill="#000000" fill-rule="nonzero" fill-opacity="1" /><path clip-path="url(#clip470)" d="M126.685 946.991 Q123.073 946.991 121.245 950.556 Q119.439 954.098 119.439 961.227 Q119.439 968.334 121.245 971.899 Q123.073 975.44 126.685 975.44 Q130.319 975.44 132.124 971.899 Q133.953 968.334 133.953 961.227 Q133.953 954.098 132.124 950.556 Q130.319 946.991 126.685 946.991 M126.685 943.288 Q132.495 943.288 135.55 947.894 Q138.629 952.477 138.629 961.227 Q138.629 969.954 135.55 974.561 Q132.495 979.144 126.685 979.144 Q120.874 979.144 117.796 974.561 Q114.74 969.954 114.74 961.227 Q114.74 952.477 117.796 947.894 Q120.874 943.288 126.685 943.288 Z" fill="#000000" fill-rule="nonzero" fill-opacity="1" /><path clip-path="url(#clip470)" d="M146.846 972.593 L151.731 972.593 L151.731 978.473 L146.846 978.473 L146.846 972.593 Z" fill="#000000" fill-rule="nonzero" fill-opacity="1" /><path clip-path="url(#clip470)" d="M174.763 947.987 L162.957 966.436 L174.763 966.436 L174.763 947.987 M173.536 943.913 L179.416 943.913 L179.416 966.436 L184.346 966.436 L184.346 970.324 L179.416 970.324 L179.416 978.473 L174.763 978.473 L174.763 970.324 L159.161 970.324 L159.161 965.811 L173.536 943.913 Z" fill="#000000" fill-rule="nonzero" fill-opacity="1" /><path clip-path="url(#clip470)" d="M127.009 765.173 Q123.398 765.173 121.569 768.738 Q119.763 772.28 119.763 779.409 Q119.763 786.516 121.569 790.08 Q123.398 793.622 127.009 793.622 Q130.643 793.622 132.448 790.08 Q134.277 786.516 134.277 779.409 Q134.277 772.28 132.448 768.738 Q130.643 765.173 127.009 765.173 M127.009 761.469 Q132.819 761.469 135.874 766.076 Q138.953 770.659 138.953 779.409 Q138.953 788.136 135.874 792.742 Q132.819 797.326 127.009 797.326 Q121.198 797.326 118.12 792.742 Q115.064 788.136 115.064 779.409 Q115.064 770.659 118.12 766.076 Q121.198 761.469 127.009 761.469 Z" fill="#000000" fill-rule="nonzero" fill-opacity="1" /><path clip-path="url(#clip470)" d="M147.171 790.775 L152.055 790.775 L152.055 796.654 L147.171 796.654 L147.171 790.775 Z" fill="#000000" fill-rule="nonzero" fill-opacity="1" /><path clip-path="url(#clip470)" d="M172.819 777.511 Q169.67 777.511 167.819 779.664 Q165.99 781.817 165.99 785.566 Q165.99 789.293 167.819 791.469 Q169.67 793.622 172.819 793.622 Q175.967 793.622 177.795 791.469 Q179.647 789.293 179.647 785.566 Q179.647 781.817 177.795 779.664 Q175.967 777.511 172.819 777.511 M182.101 762.858 L182.101 767.118 Q180.342 766.284 178.536 765.844 Q176.754 765.405 174.994 765.405 Q170.365 765.405 167.911 768.53 Q165.481 771.655 165.133 777.974 Q166.499 775.96 168.559 774.895 Q170.619 773.807 173.096 773.807 Q178.305 773.807 181.314 776.979 Q184.346 780.127 184.346 785.566 Q184.346 790.891 181.198 794.108 Q178.05 797.326 172.819 797.326 Q166.823 797.326 163.652 792.742 Q160.481 788.136 160.481 779.409 Q160.481 771.215 164.37 766.354 Q168.258 761.469 174.809 761.469 Q176.569 761.469 178.351 761.817 Q180.156 762.164 182.101 762.858 Z" fill="#000000" fill-rule="nonzero" fill-opacity="1" /><path clip-path="url(#clip470)" d="M127.263 583.355 Q123.652 583.355 121.823 586.92 Q120.018 590.461 120.018 597.591 Q120.018 604.697 121.823 608.262 Q123.652 611.804 127.263 611.804 Q130.897 611.804 132.703 608.262 Q134.532 604.697 134.532 597.591 Q134.532 590.461 132.703 586.92 Q130.897 583.355 127.263 583.355 M127.263 579.651 Q133.073 579.651 136.129 584.258 Q139.208 588.841 139.208 597.591 Q139.208 606.318 136.129 610.924 Q133.073 615.508 127.263 615.508 Q121.453 615.508 118.374 610.924 Q115.319 606.318 115.319 597.591 Q115.319 588.841 118.374 584.258 Q121.453 579.651 127.263 579.651 Z" fill="#000000" fill-rule="nonzero" fill-opacity="1" /><path clip-path="url(#clip470)" d="M147.425 608.957 L152.309 608.957 L152.309 614.836 L147.425 614.836 L147.425 608.957 Z" fill="#000000" fill-rule="nonzero" fill-opacity="1" /><path clip-path="url(#clip470)" d="M172.494 598.424 Q169.161 598.424 167.24 600.207 Q165.342 601.989 165.342 605.114 Q165.342 608.239 167.24 610.021 Q169.161 611.804 172.494 611.804 Q175.828 611.804 177.749 610.021 Q179.67 608.216 179.67 605.114 Q179.67 601.989 177.749 600.207 Q175.851 598.424 172.494 598.424 M167.819 596.434 Q164.809 595.693 163.12 593.633 Q161.453 591.572 161.453 588.61 Q161.453 584.466 164.393 582.059 Q167.356 579.651 172.494 579.651 Q177.656 579.651 180.596 582.059 Q183.536 584.466 183.536 588.61 Q183.536 591.572 181.846 593.633 Q180.18 595.693 177.194 596.434 Q180.573 597.221 182.448 599.512 Q184.346 601.804 184.346 605.114 Q184.346 610.137 181.268 612.822 Q178.212 615.508 172.494 615.508 Q166.777 615.508 163.698 612.822 Q160.643 610.137 160.643 605.114 Q160.643 601.804 162.541 599.512 Q164.439 597.221 167.819 596.434 M166.106 589.049 Q166.106 591.734 167.772 593.239 Q169.462 594.744 172.494 594.744 Q175.504 594.744 177.194 593.239 Q178.906 591.734 178.906 589.049 Q178.906 586.364 177.194 584.86 Q175.504 583.355 172.494 583.355 Q169.462 583.355 167.772 584.86 Q166.106 586.364 166.106 589.049 Z" fill="#000000" fill-rule="nonzero" fill-opacity="1" /><path clip-path="url(#clip470)" d="M117.981 429.083 L125.62 429.083 L125.62 402.717 L117.31 404.384 L117.31 400.125 L125.573 398.458 L130.249 398.458 L130.249 429.083 L137.888 429.083 L137.888 433.018 L117.981 433.018 L117.981 429.083 Z" fill="#000000" fill-rule="nonzero" fill-opacity="1" /><path clip-path="url(#clip470)" d="M147.333 427.138 L152.217 427.138 L152.217 433.018 L147.333 433.018 L147.333 427.138 Z" fill="#000000" fill-rule="nonzero" fill-opacity="1" /><path clip-path="url(#clip470)" d="M172.402 401.537 Q168.791 401.537 166.962 405.102 Q165.157 408.643 165.157 415.773 Q165.157 422.879 166.962 426.444 Q168.791 429.986 172.402 429.986 Q176.036 429.986 177.842 426.444 Q179.67 422.879 179.67 415.773 Q179.67 408.643 177.842 405.102 Q176.036 401.537 172.402 401.537 M172.402 397.833 Q178.212 397.833 181.268 402.439 Q184.346 407.023 184.346 415.773 Q184.346 424.5 181.268 429.106 Q178.212 433.689 172.402 433.689 Q166.592 433.689 163.513 429.106 Q160.458 424.5 160.458 415.773 Q160.458 407.023 163.513 402.439 Q166.592 397.833 172.402 397.833 Z" fill="#000000" fill-rule="nonzero" fill-opacity="1" /><path clip-path="url(#clip470)" d="M119.578 247.265 L127.217 247.265 L127.217 220.899 L118.907 222.566 L118.907 218.307 L127.171 216.64 L131.847 216.64 L131.847 247.265 L139.485 247.265 L139.485 251.2 L119.578 251.2 L119.578 247.265 Z" fill="#000000" fill-rule="nonzero" fill-opacity="1" /><path clip-path="url(#clip470)" d="M148.93 245.32 L153.814 245.32 L153.814 251.2 L148.93 251.2 L148.93 245.32 Z" fill="#000000" fill-rule="nonzero" fill-opacity="1" /><path clip-path="url(#clip470)" d="M168.027 247.265 L184.346 247.265 L184.346 251.2 L162.402 251.2 L162.402 247.265 Q165.064 244.51 169.647 239.88 Q174.254 235.228 175.434 233.885 Q177.68 231.362 178.559 229.626 Q179.462 227.867 179.462 226.177 Q179.462 223.422 177.518 221.686 Q175.596 219.95 172.494 219.95 Q170.295 219.95 167.842 220.714 Q165.411 221.478 162.633 223.029 L162.633 218.307 Q165.457 217.172 167.911 216.594 Q170.365 216.015 172.402 216.015 Q177.772 216.015 180.967 218.7 Q184.161 221.385 184.161 225.876 Q184.161 228.006 183.351 229.927 Q182.564 231.825 180.457 234.418 Q179.879 235.089 176.777 238.306 Q173.675 241.501 168.027 247.265 Z" fill="#000000" fill-rule="nonzero" fill-opacity="1" /><path clip-path="url(#clip470)" d="M23.6877 854.956 L60.6406 854.956 L60.6406 847.189 Q60.6406 837.354 56.1846 832.803 Q51.7286 828.22 42.1164 828.22 Q32.5679 828.22 28.1437 832.803 Q23.6877 837.354 23.6877 847.189 L23.6877 854.956 M18.4042 861.385 L18.4042 848.176 Q18.4042 834.363 24.1651 827.901 Q29.8943 821.44 42.1164 821.44 Q54.4022 821.44 60.1632 827.933 Q65.9242 834.426 65.9242 848.176 L65.9242 861.385 L18.4042 861.385 Z" fill="#000000" fill-rule="nonzero" fill-opacity="1" /><path clip-path="url(#clip470)" d="M46.6361 780.954 L49.5006 780.954 L49.5006 807.881 Q55.5481 807.499 58.7309 804.253 Q61.8819 800.974 61.8819 795.15 Q61.8819 791.776 61.0544 788.625 Q60.2269 785.442 58.5718 782.323 L64.1099 782.323 Q65.4467 785.474 66.147 788.784 Q66.8472 792.094 66.8472 795.5 Q66.8472 804.03 61.8819 809.027 Q56.9167 813.992 48.4503 813.992 Q39.6974 813.992 34.5731 809.282 Q29.4168 804.539 29.4168 796.518 Q29.4168 789.325 34.0638 785.156 Q38.6789 780.954 46.6361 780.954 M44.9173 786.811 Q40.1112 786.874 37.2466 789.516 Q34.3821 792.126 34.3821 796.455 Q34.3821 801.356 37.1512 804.316 Q39.9202 807.245 44.9492 807.69 L44.9173 786.811 Z" fill="#000000" fill-rule="nonzero" fill-opacity="1" /><path clip-path="url(#clip470)" d="M44.4081 741.71 L65.9242 741.71 L65.9242 747.566 L44.599 747.566 Q39.5383 747.566 37.0238 749.539 Q34.5094 751.513 34.5094 755.46 Q34.5094 760.202 37.5331 762.939 Q40.5568 765.677 45.7767 765.677 L65.9242 765.677 L65.9242 771.565 L30.2762 771.565 L30.2762 765.677 L35.8144 765.677 Q32.5997 763.576 31.0083 760.743 Q29.4168 757.879 29.4168 754.155 Q29.4168 748.012 33.2363 744.861 Q37.0238 741.71 44.4081 741.71 Z" fill="#000000" fill-rule="nonzero" fill-opacity="1" /><path clip-path="url(#clip470)" d="M31.3265 707.303 L36.8647 707.303 Q35.5916 709.786 34.955 712.459 Q34.3184 715.133 34.3184 717.997 Q34.3184 722.358 35.6552 724.554 Q36.992 726.718 39.6656 726.718 Q41.7026 726.718 42.8803 725.159 Q44.0261 723.599 45.0765 718.889 L45.5221 716.883 Q46.8589 710.645 49.3097 708.035 Q51.7286 705.393 56.0891 705.393 Q61.0544 705.393 63.9508 709.34 Q66.8472 713.255 66.8472 720.13 Q66.8472 722.994 66.2743 726.114 Q65.7332 729.201 64.6192 732.639 L58.5718 732.639 Q60.2587 729.392 61.118 726.241 Q61.9456 723.09 61.9456 720.003 Q61.9456 715.865 60.5451 713.637 Q59.1129 711.409 56.5347 711.409 Q54.1476 711.409 52.8745 713.032 Q51.6013 714.624 50.4237 720.066 L49.9462 722.103 Q48.8004 727.546 46.4451 729.965 Q44.058 732.384 39.9202 732.384 Q34.8913 732.384 32.1541 728.819 Q29.4168 725.254 29.4168 718.698 Q29.4168 715.451 29.8943 712.587 Q30.3717 709.722 31.3265 707.303 Z" fill="#000000" fill-rule="nonzero" fill-opacity="1" /><path clip-path="url(#clip470)" d="M30.2762 696.068 L30.2762 690.211 L65.9242 690.211 L65.9242 696.068 L30.2762 696.068 M16.399 696.068 L16.399 690.211 L23.815 690.211 L23.815 696.068 L16.399 696.068 Z" fill="#000000" fill-rule="nonzero" fill-opacity="1" /><path clip-path="url(#clip470)" d="M20.1547 672.164 L30.2762 672.164 L30.2762 660.101 L34.8277 660.101 L34.8277 672.164 L54.1794 672.164 Q58.5399 672.164 59.7813 670.987 Q61.0226 669.777 61.0226 666.117 L61.0226 660.101 L65.9242 660.101 L65.9242 666.117 Q65.9242 672.896 63.4097 675.474 Q60.8634 678.053 54.1794 678.053 L34.8277 678.053 L34.8277 682.349 L30.2762 682.349 L30.2762 678.053 L20.1547 678.053 L20.1547 672.164 Z" fill="#000000" fill-rule="nonzero" fill-opacity="1" /><path clip-path="url(#clip470)" d="M69.2343 637.567 Q75.6 640.049 77.5416 642.405 Q79.4831 644.76 79.4831 648.707 L79.4831 653.385 L74.5815 653.385 L74.5815 649.948 Q74.5815 647.529 73.4357 646.192 Q72.2899 644.855 68.0248 643.232 L65.3512 642.182 L30.2762 656.6 L30.2762 650.394 L58.158 639.254 L30.2762 628.114 L30.2762 621.907 L69.2343 637.567 Z" fill="#000000" fill-rule="nonzero" fill-opacity="1" /><path clip-path="url(#clip470)" d="M815.099 18.8205 L815.099 41.5461 L825.388 41.5461 Q831.1 41.5461 834.219 38.5889 Q837.338 35.6318 837.338 30.163 Q837.338 24.7348 834.219 21.7777 Q831.1 18.8205 825.388 18.8205 L815.099 18.8205 M806.916 12.096 L825.388 12.096 Q835.556 12.096 840.741 16.714 Q845.967 21.2916 845.967 30.163 Q845.967 39.1155 840.741 43.6931 Q835.556 48.2706 825.388 48.2706 L815.099 48.2706 L815.099 72.576 L806.916 72.576 L806.916 12.096 Z" fill="#000000" fill-rule="nonzero" fill-opacity="1" /><path clip-path="url(#clip470)" d="M871.245 32.4315 Q865.249 32.4315 861.765 37.1306 Q858.282 41.7891 858.282 49.9314 Q858.282 58.0738 861.725 62.7728 Q865.209 67.4314 871.245 67.4314 Q877.199 67.4314 880.683 62.7323 Q884.167 58.0333 884.167 49.9314 Q884.167 41.8701 880.683 37.1711 Q877.199 32.4315 871.245 32.4315 M871.245 26.1121 Q880.967 26.1121 886.516 32.4315 Q892.066 38.7509 892.066 49.9314 Q892.066 61.0714 886.516 67.4314 Q880.967 73.7508 871.245 73.7508 Q861.482 73.7508 855.932 67.4314 Q850.423 61.0714 850.423 49.9314 Q850.423 38.7509 855.932 32.4315 Q861.482 26.1121 871.245 26.1121 Z" fill="#000000" fill-rule="nonzero" fill-opacity="1" /><path clip-path="url(#clip470)" d="M933.345 28.5427 L933.345 35.5912 Q930.185 33.9709 926.782 33.1607 Q923.38 32.3505 919.734 32.3505 Q914.184 32.3505 911.389 34.0519 Q908.634 35.7533 908.634 39.156 Q908.634 41.7486 910.619 43.2475 Q912.604 44.7058 918.6 46.0426 L921.152 46.6097 Q929.091 48.3111 932.413 51.4303 Q935.775 54.509 935.775 60.0587 Q935.775 66.3781 930.752 70.0644 Q925.77 73.7508 917.02 73.7508 Q913.374 73.7508 909.404 73.0216 Q905.475 72.3329 901.1 70.9151 L901.1 63.2184 Q905.232 65.3654 909.242 66.4591 Q913.252 67.5124 917.182 67.5124 Q922.448 67.5124 925.284 65.73 Q928.119 63.9071 928.119 60.6258 Q928.119 57.5877 926.053 55.9673 Q924.028 54.3469 917.101 52.8481 L914.508 52.2405 Q907.581 50.7821 904.502 47.7845 Q901.424 44.7463 901.424 39.4801 Q901.424 33.0797 905.961 29.5959 Q910.498 26.1121 918.843 26.1121 Q922.975 26.1121 926.62 26.7198 Q930.266 27.3274 933.345 28.5427 Z" fill="#000000" fill-rule="nonzero" fill-opacity="1" /><path clip-path="url(#clip470)" d="M955.017 14.324 L955.017 27.2059 L970.37 27.2059 L970.37 32.9987 L955.017 32.9987 L955.017 57.6282 Q955.017 63.1779 956.516 64.7578 Q958.055 66.3376 962.714 66.3376 L970.37 66.3376 L970.37 72.576 L962.714 72.576 Q954.085 72.576 950.804 69.3758 Q947.523 66.1351 947.523 57.6282 L947.523 32.9987 L942.054 32.9987 L942.054 27.2059 L947.523 27.2059 L947.523 14.324 L955.017 14.324 Z" fill="#000000" fill-rule="nonzero" fill-opacity="1" /><path clip-path="url(#clip470)" d="M1018.98 48.0275 L1018.98 51.6733 L984.71 51.6733 Q985.196 59.3701 989.328 63.421 Q993.501 67.4314 1000.91 67.4314 Q1005.21 67.4314 1009.22 66.3781 Q1013.27 65.3249 1017.24 63.2184 L1017.24 70.267 Q1013.23 71.9684 1009.02 72.8596 Q1004.8 73.7508 1000.47 73.7508 Q989.612 73.7508 983.252 67.4314 Q976.933 61.1119 976.933 50.3365 Q976.933 39.1965 982.928 32.6746 Q988.964 26.1121 999.172 26.1121 Q1008.33 26.1121 1013.63 32.0264 Q1018.98 37.9003 1018.98 48.0275 M1011.53 45.84 Q1011.45 39.7232 1008.08 36.0774 Q1004.76 32.4315 999.253 32.4315 Q993.015 32.4315 989.247 35.9558 Q985.521 39.4801 984.953 45.8805 L1011.53 45.84 Z" fill="#000000" fill-rule="nonzero" fill-opacity="1" /><path clip-path="url(#clip470)" d="M1057.51 34.1734 Q1056.25 33.4443 1054.75 33.1202 Q1053.29 32.7556 1051.51 32.7556 Q1045.19 32.7556 1041.79 36.8875 Q1038.43 40.9789 1038.43 48.6757 L1038.43 72.576 L1030.93 72.576 L1030.93 27.2059 L1038.43 27.2059 L1038.43 34.2544 Q1040.77 30.1225 1044.54 28.1376 Q1048.31 26.1121 1053.7 26.1121 Q1054.47 26.1121 1055.4 26.2337 Q1056.33 26.3147 1057.46 26.5172 L1057.51 34.1734 Z" fill="#000000" fill-rule="nonzero" fill-opacity="1" /><path clip-path="url(#clip470)" d="M1065.32 27.2059 L1072.78 27.2059 L1072.78 72.576 L1065.32 72.576 L1065.32 27.2059 M1065.32 9.54393 L1072.78 9.54393 L1072.78 18.9825 L1065.32 18.9825 L1065.32 9.54393 Z" fill="#000000" fill-rule="nonzero" fill-opacity="1" /><path clip-path="url(#clip470)" d="M1105.95 32.4315 Q1099.96 32.4315 1096.47 37.1306 Q1092.99 41.7891 1092.99 49.9314 Q1092.99 58.0738 1096.43 62.7728 Q1099.92 67.4314 1105.95 67.4314 Q1111.91 67.4314 1115.39 62.7323 Q1118.88 58.0333 1118.88 49.9314 Q1118.88 41.8701 1115.39 37.1711 Q1111.91 32.4315 1105.95 32.4315 M1105.95 26.1121 Q1115.68 26.1121 1121.23 32.4315 Q1126.78 38.7509 1126.78 49.9314 Q1126.78 61.0714 1121.23 67.4314 Q1115.68 73.7508 1105.95 73.7508 Q1096.19 73.7508 1090.64 67.4314 Q1085.13 61.0714 1085.13 49.9314 Q1085.13 38.7509 1090.64 32.4315 Q1096.19 26.1121 1105.95 26.1121 Z" fill="#000000" fill-rule="nonzero" fill-opacity="1" /><path clip-path="url(#clip470)" d="M1165.42 34.1734 Q1164.17 33.4443 1162.67 33.1202 Q1161.21 32.7556 1159.43 32.7556 Q1153.11 32.7556 1149.7 36.8875 Q1146.34 40.9789 1146.34 48.6757 L1146.34 72.576 L1138.85 72.576 L1138.85 27.2059 L1146.34 27.2059 L1146.34 34.2544 Q1148.69 30.1225 1152.46 28.1376 Q1156.23 26.1121 1161.61 26.1121 Q1162.38 26.1121 1163.31 26.2337 Q1164.25 26.3147 1165.38 26.5172 L1165.42 34.1734 Z" fill="#000000" fill-rule="nonzero" fill-opacity="1" /><path clip-path="url(#clip470)" d="M1208.12 18.8205 L1208.12 65.8515 L1218 65.8515 Q1230.52 65.8515 1236.31 60.1802 Q1242.15 54.509 1242.15 42.2752 Q1242.15 30.1225 1236.31 24.4918 Q1230.52 18.8205 1218 18.8205 L1208.12 18.8205 M1199.93 12.096 L1216.75 12.096 Q1234.33 12.096 1242.55 19.4281 Q1250.77 26.7198 1250.77 42.2752 Q1250.77 57.9117 1242.51 65.2439 Q1234.25 72.576 1216.75 72.576 L1199.93 72.576 L1199.93 12.096 Z" fill="#000000" fill-rule="nonzero" fill-opacity="1" /><path clip-path="url(#clip470)" d="M1263.49 27.2059 L1270.95 27.2059 L1270.95 72.576 L1263.49 72.576 L1263.49 27.2059 M1263.49 9.54393 L1270.95 9.54393 L1270.95 18.9825 L1263.49 18.9825 L1263.49 9.54393 Z" fill="#000000" fill-rule="nonzero" fill-opacity="1" /><path clip-path="url(#clip470)" d="M1315.47 28.5427 L1315.47 35.5912 Q1312.31 33.9709 1308.9 33.1607 Q1305.5 32.3505 1301.86 32.3505 Q1296.31 32.3505 1293.51 34.0519 Q1290.76 35.7533 1290.76 39.156 Q1290.76 41.7486 1292.74 43.2475 Q1294.73 44.7058 1300.72 46.0426 L1303.27 46.6097 Q1311.21 48.3111 1314.53 51.4303 Q1317.9 54.509 1317.9 60.0587 Q1317.9 66.3781 1312.87 70.0644 Q1307.89 73.7508 1299.14 73.7508 Q1295.5 73.7508 1291.53 73.0216 Q1287.6 72.3329 1283.22 70.9151 L1283.22 63.2184 Q1287.35 65.3654 1291.36 66.4591 Q1295.37 67.5124 1299.3 67.5124 Q1304.57 67.5124 1307.41 65.73 Q1310.24 63.9071 1310.24 60.6258 Q1310.24 57.5877 1308.18 55.9673 Q1306.15 54.3469 1299.22 52.8481 L1296.63 52.2405 Q1289.7 50.7821 1286.62 47.7845 Q1283.55 44.7463 1283.55 39.4801 Q1283.55 33.0797 1288.08 29.5959 Q1292.62 26.1121 1300.96 26.1121 Q1305.1 26.1121 1308.74 26.7198 Q1312.39 27.3274 1315.47 28.5427 Z" fill="#000000" fill-rule="nonzero" fill-opacity="1" /><path clip-path="url(#clip470)" d="M1337.14 14.324 L1337.14 27.2059 L1352.49 27.2059 L1352.49 32.9987 L1337.14 32.9987 L1337.14 57.6282 Q1337.14 63.1779 1338.64 64.7578 Q1340.18 66.3376 1344.84 66.3376 L1352.49 66.3376 L1352.49 72.576 L1344.84 72.576 Q1336.21 72.576 1332.93 69.3758 Q1329.64 66.1351 1329.64 57.6282 L1329.64 32.9987 L1324.18 32.9987 L1324.18 27.2059 L1329.64 27.2059 L1329.64 14.324 L1337.14 14.324 Z" fill="#000000" fill-rule="nonzero" fill-opacity="1" /><path clip-path="url(#clip470)" d="M1388.59 34.1734 Q1387.33 33.4443 1385.83 33.1202 Q1384.37 32.7556 1382.59 32.7556 Q1376.27 32.7556 1372.87 36.8875 Q1369.51 40.9789 1369.51 48.6757 L1369.51 72.576 L1362.01 72.576 L1362.01 27.2059 L1369.51 27.2059 L1369.51 34.2544 Q1371.86 30.1225 1375.62 28.1376 Q1379.39 26.1121 1384.78 26.1121 Q1385.55 26.1121 1386.48 26.2337 Q1387.41 26.3147 1388.54 26.5172 L1388.59 34.1734 Z" fill="#000000" fill-rule="nonzero" fill-opacity="1" /><path clip-path="url(#clip470)" d="M1396.4 27.2059 L1403.86 27.2059 L1403.86 72.576 L1396.4 72.576 L1396.4 27.2059 M1396.4 9.54393 L1403.86 9.54393 L1403.86 18.9825 L1396.4 18.9825 L1396.4 9.54393 Z" fill="#000000" fill-rule="nonzero" fill-opacity="1" /><path clip-path="url(#clip470)" d="M1452.02 49.9314 Q1452.02 41.7081 1448.62 37.0496 Q1445.26 32.3505 1439.34 32.3505 Q1433.43 32.3505 1430.03 37.0496 Q1426.66 41.7081 1426.66 49.9314 Q1426.66 58.1548 1430.03 62.8538 Q1433.43 67.5124 1439.34 67.5124 Q1445.26 67.5124 1448.62 62.8538 Q1452.02 58.1548 1452.02 49.9314 M1426.66 34.0924 Q1429.01 30.0415 1432.58 28.0971 Q1436.18 26.1121 1441.17 26.1121 Q1449.43 26.1121 1454.57 32.6746 Q1459.76 39.2371 1459.76 49.9314 Q1459.76 60.6258 1454.57 67.1883 Q1449.43 73.7508 1441.17 73.7508 Q1436.18 73.7508 1432.58 71.8063 Q1429.01 69.8214 1426.66 65.7705 L1426.66 72.576 L1419.17 72.576 L1419.17 9.54393 L1426.66 9.54393 L1426.66 34.0924 Z" fill="#000000" fill-rule="nonzero" fill-opacity="1" /><path clip-path="url(#clip470)" d="M1471.35 54.671 L1471.35 27.2059 L1478.8 27.2059 L1478.8 54.3874 Q1478.8 60.8284 1481.31 64.0691 Q1483.82 67.2693 1488.85 67.2693 Q1494.88 67.2693 1498.36 63.421 Q1501.89 59.5726 1501.89 52.9291 L1501.89 27.2059 L1509.34 27.2059 L1509.34 72.576 L1501.89 72.576 L1501.89 65.6084 Q1499.18 69.7404 1495.57 71.7658 Q1492.01 73.7508 1487.27 73.7508 Q1479.45 73.7508 1475.4 68.8897 Q1471.35 64.0286 1471.35 54.671 M1490.1 26.1121 L1490.1 26.1121 Z" fill="#000000" fill-rule="nonzero" fill-opacity="1" /><path clip-path="url(#clip470)" d="M1532.07 14.324 L1532.07 27.2059 L1547.42 27.2059 L1547.42 32.9987 L1532.07 32.9987 L1532.07 57.6282 Q1532.07 63.1779 1533.57 64.7578 Q1535.11 66.3376 1539.77 66.3376 L1547.42 66.3376 L1547.42 72.576 L1539.77 72.576 Q1531.14 72.576 1527.86 69.3758 Q1524.57 66.1351 1524.57 57.6282 L1524.57 32.9987 L1519.11 32.9987 L1519.11 27.2059 L1524.57 27.2059 L1524.57 14.324 L1532.07 14.324 Z" fill="#000000" fill-rule="nonzero" fill-opacity="1" /><path clip-path="url(#clip470)" d="M1557.22 27.2059 L1564.68 27.2059 L1564.68 72.576 L1557.22 72.576 L1557.22 27.2059 M1557.22 9.54393 L1564.68 9.54393 L1564.68 18.9825 L1557.22 18.9825 L1557.22 9.54393 Z" fill="#000000" fill-rule="nonzero" fill-opacity="1" /><path clip-path="url(#clip470)" d="M1597.86 32.4315 Q1591.86 32.4315 1588.38 37.1306 Q1584.89 41.7891 1584.89 49.9314 Q1584.89 58.0738 1588.34 62.7728 Q1591.82 67.4314 1597.86 67.4314 Q1603.81 67.4314 1607.29 62.7323 Q1610.78 58.0333 1610.78 49.9314 Q1610.78 41.8701 1607.29 37.1711 Q1603.81 32.4315 1597.86 32.4315 M1597.86 26.1121 Q1607.58 26.1121 1613.13 32.4315 Q1618.68 38.7509 1618.68 49.9314 Q1618.68 61.0714 1613.13 67.4314 Q1607.58 73.7508 1597.86 73.7508 Q1588.09 73.7508 1582.54 67.4314 Q1577.03 61.0714 1577.03 49.9314 Q1577.03 38.7509 1582.54 32.4315 Q1588.09 26.1121 1597.86 26.1121 Z" fill="#000000" fill-rule="nonzero" fill-opacity="1" /><path clip-path="url(#clip470)" d="M1668.75 45.1919 L1668.75 72.576 L1661.29 72.576 L1661.29 45.4349 Q1661.29 38.994 1658.78 35.7938 Q1656.27 32.5936 1651.25 32.5936 Q1645.21 32.5936 1641.73 36.4419 Q1638.24 40.2903 1638.24 46.9338 L1638.24 72.576 L1630.75 72.576 L1630.75 27.2059 L1638.24 27.2059 L1638.24 34.2544 Q1640.92 30.163 1644.52 28.1376 Q1648.17 26.1121 1652.91 26.1121 Q1660.73 26.1121 1664.74 30.9732 Q1668.75 35.7938 1668.75 45.1919 Z" fill="#000000" fill-rule="nonzero" fill-opacity="1" /><polyline clip-path="url(#clip472)" style="stroke:#80c4ac; stroke-linecap:round; stroke-linejoin:round; stroke-width:4; stroke-opacity:1; fill:none" points="276.581,1324.83 286.242,1324.83 295.903,1324.83 305.564,1324.82 315.224,1324.81 324.885,1324.78 334.546,1324.72 344.207,1324.65 353.868,1324.57 363.528,1324.5 373.189,1324.44 382.85,1324.35 392.511,1324.21 402.172,1323.99 411.832,1323.72 421.493,1323.48 431.154,1323.31 440.815,1323.21 450.476,1323.13 460.136,1323.05 469.797,1322.98 479.458,1322.97 489.119,1322.94 498.78,1322.79 508.441,1322.44 518.101,1321.87 527.762,1321.16 537.423,1320.36 547.084,1319.48 556.745,1318.46 566.405,1317.24 576.066,1315.71 585.727,1313.81 595.388,1311.56 605.049,1309.07 614.709,1306.42 624.37,1303.62 634.031,1300.57 643.692,1297.21 653.353,1293.54 663.013,1289.59 672.674,1285.36 682.335,1280.78 691.996,1275.77 701.657,1270.15 711.317,1263.78 720.978,1256.63 730.639,1248.74 740.3,1239.76 749.961,1227.65 759.621,1206.31 769.282,1163.35 778.943,1084.07 788.604,967.125 798.265,842.484 807.925,764.168 817.586,769.788 827.247,845.777 836.908,940.306 846.569,1007.85 856.229,1035.47 865.89,1034.25 875.551,1019.1 885.212,998.565 894.873,975.42 904.533,950.226 914.194,923.429 923.855,895.801 933.516,868.27 943.177,841.542 952.837,815.674 962.498,789.918 972.159,762.996 981.82,733.703 991.481,701.647 1001.14,667.891 1010.8,634.84 1020.46,605.012 1030.12,579.33 1039.78,556.241 1049.45,532.192 1059.11,503.084 1068.77,466.319 1078.43,422.934 1088.09,378.181 1097.75,338.949 1107.41,309.305 1117.07,288.106 1126.73,271.046 1136.39,254.918 1146.05,239.735 1155.71,226.909 1165.38,216.101 1175.04,204.772 1184.7,191.14 1194.36,176.731 1204.02,165.187 1213.68,159.062 1223.34,158.463 1233,161.981 1242.66,167.938 1252.32,175.317 1261.98,184.281 1271.64,195.542 1281.3,209.237 1290.97,224.928 1300.63,242.408 1310.29,261.73 1319.95,282.596 1329.61,304.346 1339.27,326.56 1348.93,349.398 1358.59,373.337 1368.25,398.714 1377.91,425.529 1387.57,453.666 1397.23,483.165 1406.9,514.002 1416.56,545.564 1426.22,576.765 1435.88,606.9 1445.54,636.095 1455.2,664.806 1464.86,693.377 1474.52,722.352 1484.18,752.686 1493.84,785.001 1503.5,818.568 1513.16,851.425 1522.82,881.753 1532.49,909.071 1542.15,934.09 1551.81,957.764 1561.47,980.795 1571.13,1003.76 1580.79,1027.11 1590.45,1050.75 1600.11,1073.91 1609.77,1095.52 1619.43,1114.83 1629.09,1131.81 1638.75,1147.18 1648.42,1161.78 1658.08,1175.83 1667.74,1188.87 1677.4,1200.42 1687.06,1210.44 1696.72,1219.32 1706.38,1227.57 1716.04,1235.68 1725.7,1243.94 1735.36,1252.33 1745.02,1260.47 1754.68,1267.95 1764.34,1274.63 1774.01,1280.63 1783.67,1286.05 1793.33,1290.8 1802.99,1294.82 1812.65,1298.2 1822.31,1301.2 1831.97,1303.99 1841.63,1306.59 1851.29,1309.02 1860.95,1311.34 1870.61,1313.58 1880.27,1315.63 1889.94,1317.32 1899.6,1318.55 1909.26,1319.42 1918.92,1320.09 1928.58,1320.64 1938.24,1321.08 1947.9,1321.41 1957.56,1321.7 1967.22,1322.03 1976.88,1322.44 1986.54,1322.88 1996.2,1323.27 2005.86,1323.55 2015.53,1323.7 2025.19,1323.73 2034.85,1323.71 2044.51,1323.7 2054.17,1323.74 2063.83,1323.85 2073.49,1324 2083.15,1324.14 2092.81,1324.25 2102.47,1324.32 2112.13,1324.4 2121.79,1324.49 2131.46,1324.6 2141.12,1324.7 2150.78,1324.77 2160.44,1324.81 2170.1,1324.82 2179.76,1324.83 2189.42,1324.83 2199.08,1324.83 "/>
<polyline clip-path="url(#clip472)" style="stroke:#ffc0cb; stroke-linecap:round; stroke-linejoin:round; stroke-width:8; stroke-opacity:1; fill:none" points="1514.22,2596.17 1514.22,-1112.88 "/>
<path clip-path="url(#clip470)" d="M1799.28 320.204 L2188.83 320.204 L2188.83 164.684 L1799.28 164.684  Z" fill="#ffffff" fill-rule="evenodd" fill-opacity="1"/>
<polyline clip-path="url(#clip470)" style="stroke:#000000; stroke-linecap:round; stroke-linejoin:round; stroke-width:4; stroke-opacity:1; fill:none" points="1799.28,320.204 2188.83,320.204 2188.83,164.684 1799.28,164.684 1799.28,320.204 "/>
<polyline clip-path="url(#clip470)" style="stroke:#80c4ac; stroke-linecap:round; stroke-linejoin:round; stroke-width:4; stroke-opacity:1; fill:none" points="1821.92,216.524 1957.78,216.524 "/>
<path clip-path="url(#clip470)" d="M1994.26 236.211 Q1992.46 240.841 1990.75 242.253 Q1989.03 243.665 1986.16 243.665 L1982.76 243.665 L1982.76 240.1 L1985.26 240.1 Q1987.02 240.1 1987.99 239.267 Q1988.96 238.433 1990.14 235.331 L1990.91 233.387 L1980.42 207.878 L1984.94 207.878 L1993.04 228.156 L2001.14 207.878 L2005.65 207.878 L1994.26 236.211 Z" fill="#000000" fill-rule="nonzero" fill-opacity="1" /><path clip-path="url(#clip470)" d="M2012.94 229.869 L2020.58 229.869 L2020.58 203.503 L2012.27 205.17 L2012.27 200.91 L2020.54 199.244 L2025.21 199.244 L2025.21 229.869 L2032.85 229.869 L2032.85 233.804 L2012.94 233.804 L2012.94 229.869 Z" fill="#000000" fill-rule="nonzero" fill-opacity="1" /><polyline clip-path="url(#clip470)" style="stroke:#ffc0cb; stroke-linecap:round; stroke-linejoin:round; stroke-width:8; stroke-opacity:1; fill:none" points="1821.92,268.364 1957.78,268.364 "/>
<path clip-path="url(#clip470)" d="M2005.07 259.718 L1995.7 272.334 L2005.56 285.644 L2000.54 285.644 L1992.99 275.459 L1985.45 285.644 L1980.42 285.644 L1990.49 272.079 L1981.28 259.718 L1986.3 259.718 L1993.18 268.954 L2000.05 259.718 L2005.07 259.718 Z" fill="#000000" fill-rule="nonzero" fill-opacity="1" /><path clip-path="url(#clip470)" d="M2029.24 251.084 L2041.81 263.977 L2037.16 263.977 L2026.97 254.834 L2016.79 263.977 L2012.13 263.977 L2024.7 251.084 L2029.24 251.084 Z" fill="#000000" fill-rule="nonzero" fill-opacity="1" /><path clip-path="url(#clip470)" d="M2069.13 256.778 L2060.82 261.269 L2069.13 265.783 L2067.78 268.051 L2060 263.352 L2060 272.079 L2057.37 272.079 L2057.37 263.352 L2049.59 268.051 L2048.25 265.783 L2056.56 261.269 L2048.25 256.778 L2049.59 254.486 L2057.37 259.186 L2057.37 250.459 L2060 250.459 L2060 259.186 L2067.78 254.486 L2069.13 256.778 Z" fill="#000000" fill-rule="nonzero" fill-opacity="1" /><path clip-path="url(#clip470)" d="M2090.63 264.116 L2120.31 264.116 L2120.31 268.005 L2090.63 268.005 L2090.63 264.116 M2090.63 273.56 L2120.31 273.56 L2120.31 277.496 L2090.63 277.496 L2090.63 273.56 Z" fill="#000000" fill-rule="nonzero" fill-opacity="1" /><path clip-path="url(#clip470)" d="M2146.28 281.709 L2153.92 281.709 L2153.92 255.343 L2145.61 257.01 L2145.61 252.75 L2153.87 251.084 L2158.55 251.084 L2158.55 281.709 L2166.18 281.709 L2166.18 285.644 L2146.28 285.644 L2146.28 281.709 Z" fill="#000000" fill-rule="nonzero" fill-opacity="1" /></svg>
