<?xml version="1.0" encoding="UTF-8" standalone="no"?>
<!-- Created with Inkscape (http://www.inkscape.org/) -->

<svg
   width="113.77mm"
   height="32.473mm"
   version="1.1"
   viewBox="0 0 113.77 32.473"
   xml:space="preserve"
   id="svg10"
   sodipodi:docname="Logo_sokendai.svg"
   inkscape:version="1.3.2 (091e20e, 2023-11-25)"
   xmlns:inkscape="http://www.inkscape.org/namespaces/inkscape"
   xmlns:sodipodi="http://sodipodi.sourceforge.net/DTD/sodipodi-0.dtd"
   xmlns="http://www.w3.org/2000/svg"
   xmlns:svg="http://www.w3.org/2000/svg"><defs
     id="defs10" /><sodipodi:namedview
     id="namedview10"
     pagecolor="#ffffff"
     bordercolor="#000000"
     borderopacity="0.25"
     inkscape:showpageshadow="2"
     inkscape:pageopacity="0.0"
     inkscape:pagecheckerboard="0"
     inkscape:deskcolor="#d1d1d1"
     inkscape:document-units="mm"
     inkscape:zoom="2.4535064"
     inkscape:cx="214.99842"
     inkscape:cy="61.544571"
     inkscape:window-width="1664"
     inkscape:window-height="1027"
     inkscape:window-x="53"
     inkscape:window-y="454"
     inkscape:window-maximized="0"
     inkscape:current-layer="svg10" /><g
     transform="translate(-67.247 -142.35)"
     id="g10"
     style="stroke:none;stroke-opacity:1;fill:#ffffff;fill-opacity:1"><g
       transform="matrix(.47406 0 0 .47406 67.242 141.99)"
       fill="#2b2200"
       id="g9"
       style="stroke:none;stroke-opacity:1;fill:#ffffff;fill-opacity:1"><path
         d="m39.09 21.21c-4.33 0-7.86 3.52-7.86 7.85s3.53 7.85 7.86 7.85 7.86-3.52 7.86-7.85-3.53-7.85-7.86-7.85zm0 12.56c-2.46 0-4.47-2.12-4.47-4.72s2.01-4.72 4.47-4.72 4.47 2.12 4.47 4.72-2 4.72-4.47 4.72z"
         id="path1"
         style="stroke:none;stroke-opacity:1;fill:#ffffff;fill-opacity:1" /><path
         d="m65.61 48.77v-15.7h3.15v6.28h2.01l4.45-6.28h3.85l-5.56 7.85 5.56 7.85h-3.86l-4.45-6.28h-2.01v6.28z"
         id="path2"
         style="stroke:none;stroke-opacity:1;fill:#ffffff;fill-opacity:1" /><path
         d="m111.01 46.62h-11.35v-15.7h11.35v3.14h-8.21v3.14h6.87v3.14h-6.87v3.14h8.21z"
         id="path3"
         style="stroke:none;stroke-opacity:1;fill:#ffffff;fill-opacity:1" /><path
         d="m140.61 32.05-6.34-9.79v9.79h-3.14v-15.7h3.14l6.34 9.81v-9.81h3.14v15.7z"
         id="path4"
         style="stroke:none;stroke-opacity:1;fill:#ffffff;fill-opacity:1" /><path
         d="m239.99 16.45h-6.6v-3.14h1.74v-9.42h-1.74v-3.14h6.6v3.14h-1.71v9.42h1.71z"
         id="path5"
         style="stroke:none;stroke-opacity:1;fill:#ffffff;fill-opacity:1" /><path
         d="m170.14 17.26h-5.59v15.7h5.59c5.2 0 8.07-3.8 8.07-7.85-0.01-4.55-3.4-7.85-8.07-7.85zm0.16 13.03-2.6-0.04v-10.27l2.59-0.04c2.92 0.25 4.66 2.19 4.66 5.18-0.01 2.98-1.75 4.92-4.65 5.17z"
         id="path6"
         style="stroke:none;stroke-opacity:1;fill:#ffffff;fill-opacity:1" /><path
         d="m204.59 0.75h-3.15l-6.43 15.7h3.47l1.33-3.54h6.4l1.33 3.54h3.47zm-3.6 9.02 1.8-4.83h0.47l1.8 4.83z"
         id="path7"
         style="stroke:none;stroke-opacity:1;fill:#ffffff;fill-opacity:1" /><path
         d="m5.7 27.56c0.54 0.18 2.66 0.89 3.56 1.32 1.2 0.58 2.2 1.77 2.2 3.37 0 2.3-1.51 4.66-5.72 4.66-2.11 0-3.33-0.49-4.28-1.45-0.75-0.75-1.38-2.03-1.38-3.21h3.14c0.16 1.74 1.42 2.08 2.51 2.08 1.66 0 2.54-0.97 2.54-1.73 0-0.81-0.33-1.36-2.54-2.06-1.08-0.38-2.66-0.9-3.52-1.31-1.2-0.57-2.2-1.77-2.2-3.36 0-2.3 1.51-4.66 5.72-4.66 2.11 0 3.33 0.49 4.28 1.45 0.75 0.75 1.38 2.03 1.38 3.21h-3.14c-0.16-1.75-1.42-2.08-2.51-2.08-1.66 0-2.54 0.97-2.54 1.73 0 0.99 0.6 1.41 2.5 2.04z"
         id="path8"
         style="stroke:none;stroke-opacity:1;fill:#ffffff;fill-opacity:1" /><path
         d="m72.12 69.25-0.02-0.01-33.03-11.49h-33.45v-3.14h34l32.93 11.46 32.59-2.06 31.99-13.9h0.02l34.01 0.85 31.52-16.05h34.1v3.14h-33.34l-31.56 16.07h-0.02l-34.11-0.86-31.86 13.84h-0.02z"
         id="path9"
         style="stroke:none;stroke-opacity:1;fill:#ffffff;fill-opacity:1" /></g></g></svg>
