<?xml version="1.0" encoding="utf-8"?>
<svg xmlns="http://www.w3.org/2000/svg" xmlns:xlink="http://www.w3.org/1999/xlink" width="600" height="400" viewBox="0 0 2400 1600">
<defs>
  <clipPath id="clip840">
    <rect x="0" y="0" width="2400" height="1600"/>
  </clipPath>
</defs>
<path clip-path="url(#clip840)" d="M0 1600 L2400 1600 L2400 8.88178e-14 L0 8.88178e-14  Z" fill="#ffffff" fill-rule="evenodd" fill-opacity="1"/>
<defs>
  <clipPath id="clip841">
    <rect x="480" y="0" width="1681" height="1600"/>
  </clipPath>
</defs>
<path clip-path="url(#clip840)" d="M257.204 1423.18 L2352.76 1423.18 L2352.76 123.472 L257.204 123.472  Z" fill="#ffffff" fill-rule="evenodd" fill-opacity="1"/>
<defs>
  <clipPath id="clip842">
    <rect x="257" y="123" width="2097" height="1301"/>
  </clipPath>
</defs>
<polyline clip-path="url(#clip842)" style="stroke:#000000; stroke-linecap:round; stroke-linejoin:round; stroke-width:2; stroke-opacity:0.1; fill:none" points="466.848,1423.18 466.848,123.472 "/>
<polyline clip-path="url(#clip842)" style="stroke:#000000; stroke-linecap:round; stroke-linejoin:round; stroke-width:2; stroke-opacity:0.1; fill:none" points="956.322,1423.18 956.322,123.472 "/>
<polyline clip-path="url(#clip842)" style="stroke:#000000; stroke-linecap:round; stroke-linejoin:round; stroke-width:2; stroke-opacity:0.1; fill:none" points="1445.8,1423.18 1445.8,123.472 "/>
<polyline clip-path="url(#clip842)" style="stroke:#000000; stroke-linecap:round; stroke-linejoin:round; stroke-width:2; stroke-opacity:0.1; fill:none" points="1935.27,1423.18 1935.27,123.472 "/>
<polyline clip-path="url(#clip842)" style="stroke:#000000; stroke-linecap:round; stroke-linejoin:round; stroke-width:2; stroke-opacity:0.1; fill:none" points="257.204,1303.67 2352.76,1303.67 "/>
<polyline clip-path="url(#clip842)" style="stroke:#000000; stroke-linecap:round; stroke-linejoin:round; stroke-width:2; stroke-opacity:0.1; fill:none" points="257.204,1095.34 2352.76,1095.34 "/>
<polyline clip-path="url(#clip842)" style="stroke:#000000; stroke-linecap:round; stroke-linejoin:round; stroke-width:2; stroke-opacity:0.1; fill:none" points="257.204,887.02 2352.76,887.02 "/>
<polyline clip-path="url(#clip842)" style="stroke:#000000; stroke-linecap:round; stroke-linejoin:round; stroke-width:2; stroke-opacity:0.1; fill:none" points="257.204,678.697 2352.76,678.697 "/>
<polyline clip-path="url(#clip842)" style="stroke:#000000; stroke-linecap:round; stroke-linejoin:round; stroke-width:2; stroke-opacity:0.1; fill:none" points="257.204,470.375 2352.76,470.375 "/>
<polyline clip-path="url(#clip842)" style="stroke:#000000; stroke-linecap:round; stroke-linejoin:round; stroke-width:2; stroke-opacity:0.1; fill:none" points="257.204,262.052 2352.76,262.052 "/>
<polyline clip-path="url(#clip840)" style="stroke:#000000; stroke-linecap:round; stroke-linejoin:round; stroke-width:4; stroke-opacity:1; fill:none" points="257.204,1423.18 2352.76,1423.18 "/>
<polyline clip-path="url(#clip840)" style="stroke:#000000; stroke-linecap:round; stroke-linejoin:round; stroke-width:4; stroke-opacity:1; fill:none" points="466.848,1423.18 466.848,1404.28 "/>
<polyline clip-path="url(#clip840)" style="stroke:#000000; stroke-linecap:round; stroke-linejoin:round; stroke-width:4; stroke-opacity:1; fill:none" points="956.322,1423.18 956.322,1404.28 "/>
<polyline clip-path="url(#clip840)" style="stroke:#000000; stroke-linecap:round; stroke-linejoin:round; stroke-width:4; stroke-opacity:1; fill:none" points="1445.8,1423.18 1445.8,1404.28 "/>
<polyline clip-path="url(#clip840)" style="stroke:#000000; stroke-linecap:round; stroke-linejoin:round; stroke-width:4; stroke-opacity:1; fill:none" points="1935.27,1423.18 1935.27,1404.28 "/>
<path clip-path="url(#clip840)" d="M436.79 1468.75 L466.466 1468.75 L466.466 1472.69 L436.79 1472.69 L436.79 1468.75 Z" fill="#000000" fill-rule="nonzero" fill-opacity="1" /><path clip-path="url(#clip840)" d="M480.586 1481.64 L496.906 1481.64 L496.906 1485.58 L474.961 1485.58 L474.961 1481.64 Q477.623 1478.89 482.207 1474.26 Q486.813 1469.61 487.994 1468.27 Q490.239 1465.74 491.119 1464.01 Q492.021 1462.25 492.021 1460.56 Q492.021 1457.8 490.077 1456.07 Q488.156 1454.33 485.054 1454.33 Q482.855 1454.33 480.401 1455.09 Q477.97 1455.86 475.193 1457.41 L475.193 1452.69 Q478.017 1451.55 480.47 1450.97 Q482.924 1450.39 484.961 1450.39 Q490.331 1450.39 493.526 1453.08 Q496.72 1455.77 496.72 1460.26 Q496.72 1462.39 495.91 1464.31 Q495.123 1466.2 493.017 1468.8 Q492.438 1469.47 489.336 1472.69 Q486.234 1475.88 480.586 1481.64 Z" fill="#000000" fill-rule="nonzero" fill-opacity="1" /><path clip-path="url(#clip840)" d="M926.08 1468.75 L955.755 1468.75 L955.755 1472.69 L926.08 1472.69 L926.08 1468.75 Z" fill="#000000" fill-rule="nonzero" fill-opacity="1" /><path clip-path="url(#clip840)" d="M966.658 1481.64 L974.297 1481.64 L974.297 1455.28 L965.987 1456.95 L965.987 1452.69 L974.251 1451.02 L978.926 1451.02 L978.926 1481.64 L986.565 1481.64 L986.565 1485.58 L966.658 1485.58 L966.658 1481.64 Z" fill="#000000" fill-rule="nonzero" fill-opacity="1" /><path clip-path="url(#clip840)" d="M1445.8 1454.1 Q1442.19 1454.1 1440.36 1457.66 Q1438.55 1461.2 1438.55 1468.33 Q1438.55 1475.44 1440.36 1479.01 Q1442.19 1482.55 1445.8 1482.55 Q1449.43 1482.55 1451.24 1479.01 Q1453.07 1475.44 1453.07 1468.33 Q1453.07 1461.2 1451.24 1457.66 Q1449.43 1454.1 1445.8 1454.1 M1445.8 1450.39 Q1451.61 1450.39 1454.66 1455 Q1457.74 1459.58 1457.74 1468.33 Q1457.74 1477.06 1454.66 1481.67 Q1451.61 1486.25 1445.8 1486.25 Q1439.99 1486.25 1436.91 1481.67 Q1433.85 1477.06 1433.85 1468.33 Q1433.85 1459.58 1436.91 1455 Q1439.99 1450.39 1445.8 1450.39 Z" fill="#000000" fill-rule="nonzero" fill-opacity="1" /><path clip-path="url(#clip840)" d="M1925.65 1481.64 L1933.29 1481.64 L1933.29 1455.28 L1924.98 1456.95 L1924.98 1452.69 L1933.25 1451.02 L1937.92 1451.02 L1937.92 1481.64 L1945.56 1481.64 L1945.56 1485.58 L1925.65 1485.58 L1925.65 1481.64 Z" fill="#000000" fill-rule="nonzero" fill-opacity="1" /><path clip-path="url(#clip840)" d="M1306.98 1519.67 Q1306.98 1521.47 1305.85 1522.5 Q1304.72 1523.5 1303.43 1523.5 Q1302.21 1523.5 1301.57 1522.79 Q1300.92 1522.08 1300.92 1521.18 Q1300.92 1519.96 1301.82 1518.89 Q1302.73 1517.83 1304.08 1517.6 Q1302.76 1516.77 1300.79 1516.77 Q1299.51 1516.77 1298.38 1517.44 Q1297.28 1518.12 1296.61 1518.99 Q1295.96 1519.86 1295.38 1521.11 Q1294.84 1522.34 1294.61 1523.08 Q1294.42 1523.79 1294.26 1524.56 L1292 1533.58 Q1290.91 1537.86 1290.91 1539.38 Q1290.91 1541.24 1291.81 1542.5 Q1292.71 1543.72 1294.51 1543.72 Q1295.22 1543.72 1296.03 1543.53 Q1296.83 1543.3 1297.86 1542.72 Q1298.93 1542.11 1299.86 1541.21 Q1300.83 1540.28 1301.76 1538.7 Q1302.69 1537.12 1303.31 1535.09 Q1303.5 1534.38 1304.14 1534.38 Q1304.95 1534.38 1304.95 1535.03 Q1304.95 1535.58 1304.5 1536.73 Q1304.08 1537.86 1303.14 1539.34 Q1302.24 1540.79 1301.05 1542.11 Q1299.86 1543.4 1298.09 1544.3 Q1296.32 1545.2 1294.38 1545.2 Q1291.62 1545.2 1289.78 1543.72 Q1287.94 1542.24 1287.27 1540.18 Q1287.11 1540.47 1286.88 1540.86 Q1286.66 1541.24 1285.98 1542.11 Q1285.34 1542.95 1284.59 1543.59 Q1283.85 1544.21 1282.69 1544.69 Q1281.57 1545.2 1280.34 1545.2 Q1278.8 1545.2 1277.41 1544.75 Q1276.06 1544.3 1275.09 1543.27 Q1274.13 1542.24 1274.13 1540.82 Q1274.13 1539.25 1275.19 1538.15 Q1276.29 1537.02 1277.77 1537.02 Q1278.7 1537.02 1279.44 1537.57 Q1280.21 1538.12 1280.21 1539.31 Q1280.21 1540.63 1279.31 1541.63 Q1278.41 1542.63 1277.12 1542.89 Q1278.44 1543.72 1280.41 1543.72 Q1282.53 1543.72 1284.21 1541.86 Q1285.88 1539.99 1286.69 1536.86 Q1288.68 1529.36 1289.46 1526.01 Q1290.23 1522.63 1290.23 1521.18 Q1290.23 1519.83 1289.88 1518.89 Q1289.52 1517.96 1288.91 1517.54 Q1288.33 1517.09 1287.78 1516.93 Q1287.27 1516.77 1286.69 1516.77 Q1285.72 1516.77 1284.63 1517.15 Q1283.56 1517.54 1282.28 1518.44 Q1281.02 1519.31 1279.83 1521.11 Q1278.64 1522.92 1277.83 1525.4 Q1277.67 1526.14 1276.96 1526.14 Q1276.19 1526.11 1276.19 1525.46 Q1276.19 1524.91 1276.61 1523.79 Q1277.06 1522.63 1277.96 1521.18 Q1278.89 1519.73 1280.09 1518.44 Q1281.31 1517.12 1283.08 1516.22 Q1284.88 1515.32 1286.82 1515.32 Q1287.69 1515.32 1288.52 1515.51 Q1289.39 1515.67 1290.42 1516.15 Q1291.49 1516.64 1292.42 1517.7 Q1293.35 1518.76 1293.93 1520.31 Q1294.32 1519.57 1294.84 1518.86 Q1295.38 1518.15 1296.22 1517.28 Q1297.09 1516.38 1298.28 1515.87 Q1299.51 1515.32 1300.86 1515.32 Q1302.18 1515.32 1303.47 1515.67 Q1304.76 1515.99 1305.85 1517.06 Q1306.98 1518.09 1306.98 1519.67 Z" fill="#000000" fill-rule="nonzero" fill-opacity="1" /><path clip-path="url(#clip840)" d="M1313.7 1537.12 L1313.7 1535.68 Q1319.24 1535.68 1322.11 1532.72 Q1322.9 1532.72 1323.03 1532.91 Q1323.17 1533.09 1323.17 1533.92 L1323.17 1559.82 Q1323.17 1561.2 1323.84 1561.63 Q1324.52 1562.05 1327.47 1562.05 L1328.94 1562.05 L1328.94 1563.47 Q1327.32 1563.34 1321.45 1563.34 Q1315.59 1563.34 1313.99 1563.47 L1313.99 1562.05 L1315.46 1562.05 Q1318.37 1562.05 1319.06 1561.65 Q1319.76 1561.22 1319.76 1559.82 L1319.76 1535.9 Q1317.35 1537.12 1313.7 1537.12 Z" fill="#000000" fill-rule="nonzero" fill-opacity="1" /><polyline clip-path="url(#clip840)" style="stroke:#000000; stroke-linecap:round; stroke-linejoin:round; stroke-width:4; stroke-opacity:1; fill:none" points="257.204,1423.18 257.204,123.472 "/>
<polyline clip-path="url(#clip840)" style="stroke:#000000; stroke-linecap:round; stroke-linejoin:round; stroke-width:4; stroke-opacity:1; fill:none" points="257.204,1303.67 276.102,1303.67 "/>
<polyline clip-path="url(#clip840)" style="stroke:#000000; stroke-linecap:round; stroke-linejoin:round; stroke-width:4; stroke-opacity:1; fill:none" points="257.204,1095.34 276.102,1095.34 "/>
<polyline clip-path="url(#clip840)" style="stroke:#000000; stroke-linecap:round; stroke-linejoin:round; stroke-width:4; stroke-opacity:1; fill:none" points="257.204,887.02 276.102,887.02 "/>
<polyline clip-path="url(#clip840)" style="stroke:#000000; stroke-linecap:round; stroke-linejoin:round; stroke-width:4; stroke-opacity:1; fill:none" points="257.204,678.697 276.102,678.697 "/>
<polyline clip-path="url(#clip840)" style="stroke:#000000; stroke-linecap:round; stroke-linejoin:round; stroke-width:4; stroke-opacity:1; fill:none" points="257.204,470.375 276.102,470.375 "/>
<polyline clip-path="url(#clip840)" style="stroke:#000000; stroke-linecap:round; stroke-linejoin:round; stroke-width:4; stroke-opacity:1; fill:none" points="257.204,262.052 276.102,262.052 "/>
<path clip-path="url(#clip840)" d="M114.26 1304.12 L143.936 1304.12 L143.936 1308.05 L114.26 1308.05 L114.26 1304.12 Z" fill="#000000" fill-rule="nonzero" fill-opacity="1" /><path clip-path="url(#clip840)" d="M154.839 1317.01 L162.477 1317.01 L162.477 1290.64 L154.167 1292.31 L154.167 1288.05 L162.431 1286.39 L167.107 1286.39 L167.107 1317.01 L174.746 1317.01 L174.746 1320.95 L154.839 1320.95 L154.839 1317.01 Z" fill="#000000" fill-rule="nonzero" fill-opacity="1" /><path clip-path="url(#clip840)" d="M184.19 1315.07 L189.075 1315.07 L189.075 1320.95 L184.19 1320.95 L184.19 1315.07 Z" fill="#000000" fill-rule="nonzero" fill-opacity="1" /><path clip-path="url(#clip840)" d="M209.26 1289.46 Q205.649 1289.46 203.82 1293.03 Q202.014 1296.57 202.014 1303.7 Q202.014 1310.81 203.82 1314.37 Q205.649 1317.91 209.26 1317.91 Q212.894 1317.91 214.699 1314.37 Q216.528 1310.81 216.528 1303.7 Q216.528 1296.57 214.699 1293.03 Q212.894 1289.46 209.26 1289.46 M209.26 1285.76 Q215.07 1285.76 218.125 1290.37 Q221.204 1294.95 221.204 1303.7 Q221.204 1312.43 218.125 1317.03 Q215.07 1321.62 209.26 1321.62 Q203.449 1321.62 200.371 1317.03 Q197.315 1312.43 197.315 1303.7 Q197.315 1294.95 200.371 1290.37 Q203.449 1285.76 209.26 1285.76 Z" fill="#000000" fill-rule="nonzero" fill-opacity="1" /><path clip-path="url(#clip840)" d="M115.256 1095.79 L144.931 1095.79 L144.931 1099.73 L115.256 1099.73 L115.256 1095.79 Z" fill="#000000" fill-rule="nonzero" fill-opacity="1" /><path clip-path="url(#clip840)" d="M165.024 1081.14 Q161.413 1081.14 159.584 1084.71 Q157.778 1088.25 157.778 1095.38 Q157.778 1102.48 159.584 1106.05 Q161.413 1109.59 165.024 1109.59 Q168.658 1109.59 170.464 1106.05 Q172.292 1102.48 172.292 1095.38 Q172.292 1088.25 170.464 1084.71 Q168.658 1081.14 165.024 1081.14 M165.024 1077.44 Q170.834 1077.44 173.889 1082.04 Q176.968 1086.63 176.968 1095.38 Q176.968 1104.1 173.889 1108.71 Q170.834 1113.29 165.024 1113.29 Q159.214 1113.29 156.135 1108.71 Q153.079 1104.1 153.079 1095.38 Q153.079 1086.63 156.135 1082.04 Q159.214 1077.44 165.024 1077.44 Z" fill="#000000" fill-rule="nonzero" fill-opacity="1" /><path clip-path="url(#clip840)" d="M185.186 1106.74 L190.07 1106.74 L190.07 1112.62 L185.186 1112.62 L185.186 1106.74 Z" fill="#000000" fill-rule="nonzero" fill-opacity="1" /><path clip-path="url(#clip840)" d="M200.301 1078.06 L218.658 1078.06 L218.658 1082 L204.584 1082 L204.584 1090.47 Q205.602 1090.12 206.621 1089.96 Q207.639 1089.78 208.658 1089.78 Q214.445 1089.78 217.824 1092.95 Q221.204 1096.12 221.204 1101.53 Q221.204 1107.11 217.732 1110.22 Q214.26 1113.29 207.94 1113.29 Q205.764 1113.29 203.496 1112.92 Q201.25 1112.55 198.843 1111.81 L198.843 1107.11 Q200.926 1108.25 203.149 1108.8 Q205.371 1109.36 207.848 1109.36 Q211.852 1109.36 214.19 1107.25 Q216.528 1105.15 216.528 1101.53 Q216.528 1097.92 214.19 1095.82 Q211.852 1093.71 207.848 1093.71 Q205.973 1093.71 204.098 1094.13 Q202.246 1094.54 200.301 1095.42 L200.301 1078.06 Z" fill="#000000" fill-rule="nonzero" fill-opacity="1" /><path clip-path="url(#clip840)" d="M164.028 872.819 Q160.417 872.819 158.589 876.383 Q156.783 879.925 156.783 887.055 Q156.783 894.161 158.589 897.726 Q160.417 901.267 164.028 901.267 Q167.663 901.267 169.468 897.726 Q171.297 894.161 171.297 887.055 Q171.297 879.925 169.468 876.383 Q167.663 872.819 164.028 872.819 M164.028 869.115 Q169.839 869.115 172.894 873.721 Q175.973 878.305 175.973 887.055 Q175.973 895.781 172.894 900.388 Q169.839 904.971 164.028 904.971 Q158.218 904.971 155.14 900.388 Q152.084 895.781 152.084 887.055 Q152.084 878.305 155.14 873.721 Q158.218 869.115 164.028 869.115 Z" fill="#000000" fill-rule="nonzero" fill-opacity="1" /><path clip-path="url(#clip840)" d="M184.19 898.42 L189.075 898.42 L189.075 904.3 L184.19 904.3 L184.19 898.42 Z" fill="#000000" fill-rule="nonzero" fill-opacity="1" /><path clip-path="url(#clip840)" d="M209.26 872.819 Q205.649 872.819 203.82 876.383 Q202.014 879.925 202.014 887.055 Q202.014 894.161 203.82 897.726 Q205.649 901.267 209.26 901.267 Q212.894 901.267 214.699 897.726 Q216.528 894.161 216.528 887.055 Q216.528 879.925 214.699 876.383 Q212.894 872.819 209.26 872.819 M209.26 869.115 Q215.07 869.115 218.125 873.721 Q221.204 878.305 221.204 887.055 Q221.204 895.781 218.125 900.388 Q215.07 904.971 209.26 904.971 Q203.449 904.971 200.371 900.388 Q197.315 895.781 197.315 887.055 Q197.315 878.305 200.371 873.721 Q203.449 869.115 209.26 869.115 Z" fill="#000000" fill-rule="nonzero" fill-opacity="1" /><path clip-path="url(#clip840)" d="M165.024 664.496 Q161.413 664.496 159.584 668.061 Q157.778 671.602 157.778 678.732 Q157.778 685.838 159.584 689.403 Q161.413 692.945 165.024 692.945 Q168.658 692.945 170.464 689.403 Q172.292 685.838 172.292 678.732 Q172.292 671.602 170.464 668.061 Q168.658 664.496 165.024 664.496 M165.024 660.792 Q170.834 660.792 173.889 665.399 Q176.968 669.982 176.968 678.732 Q176.968 687.459 173.889 692.065 Q170.834 696.649 165.024 696.649 Q159.214 696.649 156.135 692.065 Q153.079 687.459 153.079 678.732 Q153.079 669.982 156.135 665.399 Q159.214 660.792 165.024 660.792 Z" fill="#000000" fill-rule="nonzero" fill-opacity="1" /><path clip-path="url(#clip840)" d="M185.186 690.098 L190.07 690.098 L190.07 695.977 L185.186 695.977 L185.186 690.098 Z" fill="#000000" fill-rule="nonzero" fill-opacity="1" /><path clip-path="url(#clip840)" d="M200.301 661.417 L218.658 661.417 L218.658 665.352 L204.584 665.352 L204.584 673.825 Q205.602 673.477 206.621 673.315 Q207.639 673.13 208.658 673.13 Q214.445 673.13 217.824 676.301 Q221.204 679.473 221.204 684.889 Q221.204 690.468 217.732 693.57 Q214.26 696.649 207.94 696.649 Q205.764 696.649 203.496 696.278 Q201.25 695.908 198.843 695.167 L198.843 690.468 Q200.926 691.602 203.149 692.158 Q205.371 692.713 207.848 692.713 Q211.852 692.713 214.19 690.607 Q216.528 688.5 216.528 684.889 Q216.528 681.278 214.19 679.172 Q211.852 677.065 207.848 677.065 Q205.973 677.065 204.098 677.482 Q202.246 677.899 200.301 678.778 L200.301 661.417 Z" fill="#000000" fill-rule="nonzero" fill-opacity="1" /><path clip-path="url(#clip840)" d="M154.839 483.719 L162.477 483.719 L162.477 457.354 L154.167 459.02 L154.167 454.761 L162.431 453.095 L167.107 453.095 L167.107 483.719 L174.746 483.719 L174.746 487.655 L154.839 487.655 L154.839 483.719 Z" fill="#000000" fill-rule="nonzero" fill-opacity="1" /><path clip-path="url(#clip840)" d="M184.19 481.775 L189.075 481.775 L189.075 487.655 L184.19 487.655 L184.19 481.775 Z" fill="#000000" fill-rule="nonzero" fill-opacity="1" /><path clip-path="url(#clip840)" d="M209.26 456.173 Q205.649 456.173 203.82 459.738 Q202.014 463.28 202.014 470.409 Q202.014 477.516 203.82 481.081 Q205.649 484.622 209.26 484.622 Q212.894 484.622 214.699 481.081 Q216.528 477.516 216.528 470.409 Q216.528 463.28 214.699 459.738 Q212.894 456.173 209.26 456.173 M209.26 452.47 Q215.07 452.47 218.125 457.076 Q221.204 461.659 221.204 470.409 Q221.204 479.136 218.125 483.743 Q215.07 488.326 209.26 488.326 Q203.449 488.326 200.371 483.743 Q197.315 479.136 197.315 470.409 Q197.315 461.659 200.371 457.076 Q203.449 452.47 209.26 452.47 Z" fill="#000000" fill-rule="nonzero" fill-opacity="1" /><path clip-path="url(#clip840)" d="M155.834 275.397 L163.473 275.397 L163.473 249.031 L155.163 250.698 L155.163 246.439 L163.427 244.772 L168.102 244.772 L168.102 275.397 L175.741 275.397 L175.741 279.332 L155.834 279.332 L155.834 275.397 Z" fill="#000000" fill-rule="nonzero" fill-opacity="1" /><path clip-path="url(#clip840)" d="M185.186 273.452 L190.07 273.452 L190.07 279.332 L185.186 279.332 L185.186 273.452 Z" fill="#000000" fill-rule="nonzero" fill-opacity="1" /><path clip-path="url(#clip840)" d="M200.301 244.772 L218.658 244.772 L218.658 248.707 L204.584 248.707 L204.584 257.179 Q205.602 256.832 206.621 256.67 Q207.639 256.485 208.658 256.485 Q214.445 256.485 217.824 259.656 Q221.204 262.827 221.204 268.244 Q221.204 273.823 217.732 276.925 Q214.26 280.003 207.94 280.003 Q205.764 280.003 203.496 279.633 Q201.25 279.262 198.843 278.522 L198.843 273.823 Q200.926 274.957 203.149 275.512 Q205.371 276.068 207.848 276.068 Q211.852 276.068 214.19 273.962 Q216.528 271.855 216.528 268.244 Q216.528 264.633 214.19 262.526 Q211.852 260.42 207.848 260.42 Q205.973 260.42 204.098 260.837 Q202.246 261.253 200.301 262.133 L200.301 244.772 Z" fill="#000000" fill-rule="nonzero" fill-opacity="1" /><path clip-path="url(#clip840)" d="M29.8817 772.909 Q31.6852 772.909 32.7158 774.036 Q33.7142 775.163 33.7142 776.452 Q33.7142 777.675 33.0056 778.32 Q32.2971 778.964 31.3954 778.964 Q30.1715 778.964 29.1087 778.062 Q28.0459 777.16 27.8205 775.808 Q26.9831 777.128 26.9831 779.092 Q26.9831 780.381 27.6595 781.508 Q28.3358 782.603 29.2054 783.279 Q30.0749 783.923 31.3309 784.503 Q32.5548 785.051 33.2955 785.276 Q34.004 785.469 34.777 785.63 L43.7946 787.885 Q48.078 788.98 49.5917 788.98 Q51.4596 788.98 52.7156 788.078 Q53.9395 787.176 53.9395 785.373 Q53.9395 784.664 53.7462 783.859 Q53.5208 783.054 52.9411 782.023 Q52.3292 780.96 51.4274 780.026 Q50.4934 779.06 48.9153 778.126 Q47.3373 777.192 45.3083 776.58 Q44.5998 776.387 44.5998 775.743 Q44.5998 774.938 45.2439 774.938 Q45.7914 774.938 46.9508 775.389 Q48.078 775.808 49.5595 776.741 Q51.0087 777.643 52.3292 778.835 Q53.6174 780.026 54.5192 781.798 Q55.4209 783.569 55.4209 785.501 Q55.4209 788.271 53.9395 790.107 Q52.458 791.943 50.3968 792.619 Q50.6867 792.78 51.0731 793.005 Q51.4596 793.231 52.3292 793.907 Q53.1665 794.551 53.8106 795.292 Q54.4225 796.033 54.9056 797.192 Q55.4209 798.319 55.4209 799.543 Q55.4209 801.089 54.97 802.474 Q54.5192 803.827 53.4886 804.793 Q52.458 805.759 51.0409 805.759 Q49.4628 805.759 48.3678 804.696 Q47.2406 803.601 47.2406 802.12 Q47.2406 801.186 47.7881 800.445 Q48.3356 799.672 49.5273 799.672 Q50.8477 799.672 51.8461 800.574 Q52.8445 801.476 53.1021 802.764 Q53.9395 801.443 53.9395 799.479 Q53.9395 797.353 52.0715 795.679 Q50.2036 794.004 47.0796 793.199 Q39.5756 791.202 36.2262 790.429 Q32.8446 789.656 31.3954 789.656 Q30.0427 789.656 29.1087 790.01 Q28.1748 790.365 27.7561 790.976 Q27.3052 791.556 27.1442 792.104 Q26.9831 792.619 26.9831 793.199 Q26.9831 794.165 27.3696 795.26 Q27.7561 796.323 28.6579 797.611 Q29.5274 798.867 31.3309 800.059 Q33.1345 801.25 35.6143 802.055 Q36.3551 802.216 36.3551 802.925 Q36.3228 803.698 35.6787 803.698 Q35.1312 803.698 34.004 803.279 Q32.8446 802.828 31.3954 801.926 Q29.9461 800.992 28.6579 799.801 Q27.3374 798.577 26.4356 796.806 Q25.5339 795.002 25.5339 793.07 Q25.5339 792.2 25.7271 791.363 Q25.8881 790.493 26.3712 789.463 Q26.8543 788.4 27.9171 787.466 Q28.9799 786.532 30.5258 785.952 Q29.7851 785.566 29.0765 785.051 Q28.368 784.503 27.4984 783.666 Q26.5967 782.796 26.0814 781.605 Q25.5339 780.381 25.5339 779.028 Q25.5339 777.708 25.8881 776.419 Q26.2102 775.131 27.273 774.036 Q28.3036 772.909 29.8817 772.909 Z" fill="#000000" fill-rule="nonzero" fill-opacity="1" /><path clip-path="url(#clip840)" d="M73.6911 766.188 Q72.857 766.188 72.609 766.12 Q72.361 766.03 71.9778 765.669 L62.1035 756.809 Q56.6478 751.962 51.891 751.962 Q48.8024 751.962 46.5931 753.586 Q44.3838 755.186 44.3838 758.139 Q44.3838 760.168 45.6237 761.882 Q46.8636 763.595 49.073 764.384 Q49.0279 764.249 49.0279 763.775 Q49.0279 762.626 49.7493 761.994 Q50.4707 761.341 51.4401 761.341 Q52.68 761.341 53.2887 762.152 Q53.8749 762.941 53.8749 763.73 Q53.8749 764.046 53.8072 764.474 Q53.7396 764.88 53.1084 765.534 Q52.4546 766.188 51.3048 766.188 Q48.081 766.188 45.511 763.753 Q42.941 761.296 42.941 757.553 Q42.941 753.315 45.4659 750.542 Q47.9683 747.747 51.891 747.747 Q53.2662 747.747 54.5286 748.175 Q55.7686 748.581 56.738 749.144 Q57.7074 749.685 59.2629 751.173 Q60.8184 752.661 61.9231 753.856 Q63.0278 755.051 65.3724 757.734 L70.1292 762.626 L70.1292 754.307 Q70.1292 750.249 69.7685 749.933 Q69.1147 749.483 65.6654 748.919 L65.6654 747.747 L73.6911 749.054 L73.6911 766.188 Z" fill="#000000" fill-rule="nonzero" fill-opacity="1" /><path clip-path="url(#clip840)" d="M201.716 43.6931 L201.716 65.8515 L214.841 65.8515 Q221.444 65.8515 224.604 63.1374 Q227.804 60.3828 227.804 54.752 Q227.804 49.0808 224.604 46.4072 Q221.444 43.6931 214.841 43.6931 L201.716 43.6931 M201.716 18.8205 L201.716 37.0496 L213.828 37.0496 Q219.824 37.0496 222.74 34.8216 Q225.698 32.5531 225.698 27.935 Q225.698 23.3575 222.74 21.089 Q219.824 18.8205 213.828 18.8205 L201.716 18.8205 M193.533 12.096 L214.436 12.096 Q223.794 12.096 228.857 15.9849 Q233.921 19.8737 233.921 27.0438 Q233.921 32.5936 231.328 35.8748 Q228.736 39.156 223.713 39.9662 Q229.748 41.2625 233.07 45.3944 Q236.432 49.4858 236.432 55.6432 Q236.432 63.745 230.923 68.1605 Q225.414 72.576 215.246 72.576 L193.533 72.576 L193.533 12.096 Z" fill="#000000" fill-rule="nonzero" fill-opacity="1" /><path clip-path="url(#clip840)" d="M267.705 32.4315 Q261.71 32.4315 258.226 37.1306 Q254.743 41.7891 254.743 49.9314 Q254.743 58.0738 258.186 62.7728 Q261.67 67.4314 267.705 67.4314 Q273.66 67.4314 277.144 62.7323 Q280.628 58.0333 280.628 49.9314 Q280.628 41.8701 277.144 37.1711 Q273.66 32.4315 267.705 32.4315 M267.705 26.1121 Q277.428 26.1121 282.977 32.4315 Q288.527 38.7509 288.527 49.9314 Q288.527 61.0714 282.977 67.4314 Q277.428 73.7508 267.705 73.7508 Q257.943 73.7508 252.393 67.4314 Q246.884 61.0714 246.884 49.9314 Q246.884 38.7509 252.393 32.4315 Q257.943 26.1121 267.705 26.1121 Z" fill="#000000" fill-rule="nonzero" fill-opacity="1" /><path clip-path="url(#clip840)" d="M300.113 54.671 L300.113 27.2059 L307.566 27.2059 L307.566 54.3874 Q307.566 60.8284 310.078 64.0691 Q312.589 67.2693 317.613 67.2693 Q323.648 67.2693 327.132 63.421 Q330.656 59.5726 330.656 52.9291 L330.656 27.2059 L338.11 27.2059 L338.11 72.576 L330.656 72.576 L330.656 65.6084 Q327.942 69.7404 324.337 71.7658 Q320.772 73.7508 316.033 73.7508 Q308.214 73.7508 304.164 68.8897 Q300.113 64.0286 300.113 54.671 M318.868 26.1121 L318.868 26.1121 Z" fill="#000000" fill-rule="nonzero" fill-opacity="1" /><path clip-path="url(#clip840)" d="M391.177 45.1919 L391.177 72.576 L383.723 72.576 L383.723 45.4349 Q383.723 38.994 381.212 35.7938 Q378.7 32.5936 373.677 32.5936 Q367.641 32.5936 364.157 36.4419 Q360.674 40.2903 360.674 46.9338 L360.674 72.576 L353.18 72.576 L353.18 27.2059 L360.674 27.2059 L360.674 34.2544 Q363.347 30.163 366.953 28.1376 Q370.598 26.1121 375.338 26.1121 Q383.156 26.1121 387.167 30.9732 Q391.177 35.7938 391.177 45.1919 Z" fill="#000000" fill-rule="nonzero" fill-opacity="1" /><path clip-path="url(#clip840)" d="M438.694 28.9478 L438.694 35.9153 Q435.534 34.1734 432.334 33.3227 Q429.174 32.4315 425.934 32.4315 Q418.683 32.4315 414.672 37.0496 Q410.662 41.6271 410.662 49.9314 Q410.662 58.2358 414.672 62.8538 Q418.683 67.4314 425.934 67.4314 Q429.174 67.4314 432.334 66.5807 Q435.534 65.6895 438.694 63.9476 L438.694 70.8341 Q435.575 72.2924 432.213 73.0216 Q428.891 73.7508 425.124 73.7508 Q414.875 73.7508 408.839 67.3098 Q402.803 60.8689 402.803 49.9314 Q402.803 38.832 408.879 32.472 Q414.996 26.1121 425.61 26.1121 Q429.053 26.1121 432.334 26.8413 Q435.615 27.5299 438.694 28.9478 Z" fill="#000000" fill-rule="nonzero" fill-opacity="1" /><path clip-path="url(#clip840)" d="M470.534 76.7889 Q467.375 84.8907 464.377 87.3618 Q461.379 89.8329 456.356 89.8329 L450.401 89.8329 L450.401 83.5945 L454.776 83.5945 Q457.855 83.5945 459.556 82.1361 Q461.258 80.6778 463.324 75.2496 L464.66 71.8468 L446.31 27.2059 L454.209 27.2059 L468.387 62.6918 L482.565 27.2059 L490.465 27.2059 L470.534 76.7889 Z" fill="#000000" fill-rule="nonzero" fill-opacity="1" /><path clip-path="url(#clip840)" d="M535.632 18.8205 L535.632 41.5461 L545.922 41.5461 Q551.633 41.5461 554.753 38.5889 Q557.872 35.6318 557.872 30.163 Q557.872 24.7348 554.753 21.7777 Q551.633 18.8205 545.922 18.8205 L535.632 18.8205 M527.449 12.096 L545.922 12.096 Q556.089 12.096 561.274 16.714 Q566.5 21.2916 566.5 30.163 Q566.5 39.1155 561.274 43.6931 Q556.089 48.2706 545.922 48.2706 L535.632 48.2706 L535.632 72.576 L527.449 72.576 L527.449 12.096 Z" fill="#000000" fill-rule="nonzero" fill-opacity="1" /><path clip-path="url(#clip840)" d="M594.046 49.7694 Q585.013 49.7694 581.529 51.8354 Q578.045 53.9013 578.045 58.8839 Q578.045 62.8538 580.638 65.2034 Q583.271 67.5124 587.767 67.5124 Q593.965 67.5124 597.692 63.1374 Q601.459 58.7219 601.459 51.4303 L601.459 49.7694 L594.046 49.7694 M608.913 46.6907 L608.913 72.576 L601.459 72.576 L601.459 65.6895 Q598.907 69.8214 595.1 71.8063 Q591.292 73.7508 585.782 73.7508 Q578.815 73.7508 574.683 69.8619 Q570.592 65.9325 570.592 59.3701 Q570.592 51.7138 575.696 47.825 Q580.84 43.9361 591.008 43.9361 L601.459 43.9361 L601.459 43.2069 Q601.459 38.0623 598.057 35.2672 Q594.694 32.4315 588.578 32.4315 Q584.689 32.4315 581.002 33.3632 Q577.316 34.295 573.913 36.1584 L573.913 29.2718 Q578.005 27.692 581.853 26.9223 Q585.701 26.1121 589.347 26.1121 Q599.191 26.1121 604.052 31.2163 Q608.913 36.3204 608.913 46.6907 Z" fill="#000000" fill-rule="nonzero" fill-opacity="1" /><path clip-path="url(#clip840)" d="M650.556 34.1734 Q649.301 33.4443 647.802 33.1202 Q646.343 32.7556 644.561 32.7556 Q638.242 32.7556 634.839 36.8875 Q631.477 40.9789 631.477 48.6757 L631.477 72.576 L623.982 72.576 L623.982 27.2059 L631.477 27.2059 L631.477 34.2544 Q633.826 30.1225 637.593 28.1376 Q641.361 26.1121 646.749 26.1121 Q647.518 26.1121 648.45 26.2337 Q649.382 26.3147 650.516 26.5172 L650.556 34.1734 Z" fill="#000000" fill-rule="nonzero" fill-opacity="1" /><path clip-path="url(#clip840)" d="M665.747 14.324 L665.747 27.2059 L681.1 27.2059 L681.1 32.9987 L665.747 32.9987 L665.747 57.6282 Q665.747 63.1779 667.246 64.7578 Q668.785 66.3376 673.444 66.3376 L681.1 66.3376 L681.1 72.576 L673.444 72.576 Q664.816 72.576 661.534 69.3758 Q658.253 66.1351 658.253 57.6282 L658.253 32.9987 L652.784 32.9987 L652.784 27.2059 L658.253 27.2059 L658.253 14.324 L665.747 14.324 Z" fill="#000000" fill-rule="nonzero" fill-opacity="1" /><path clip-path="url(#clip840)" d="M690.903 27.2059 L698.357 27.2059 L698.357 72.576 L690.903 72.576 L690.903 27.2059 M690.903 9.54393 L698.357 9.54393 L698.357 18.9825 L690.903 18.9825 L690.903 9.54393 Z" fill="#000000" fill-rule="nonzero" fill-opacity="1" /><path clip-path="url(#clip840)" d="M746.603 28.9478 L746.603 35.9153 Q743.444 34.1734 740.243 33.3227 Q737.084 32.4315 733.843 32.4315 Q726.592 32.4315 722.581 37.0496 Q718.571 41.6271 718.571 49.9314 Q718.571 58.2358 722.581 62.8538 Q726.592 67.4314 733.843 67.4314 Q737.084 67.4314 740.243 66.5807 Q743.444 65.6895 746.603 63.9476 L746.603 70.8341 Q743.484 72.2924 740.122 73.0216 Q736.8 73.7508 733.033 73.7508 Q722.784 73.7508 716.748 67.3098 Q710.712 60.8689 710.712 49.9314 Q710.712 38.832 716.789 32.472 Q722.906 26.1121 733.519 26.1121 Q736.962 26.1121 740.243 26.8413 Q743.525 27.5299 746.603 28.9478 Z" fill="#000000" fill-rule="nonzero" fill-opacity="1" /><path clip-path="url(#clip840)" d="M759.566 9.54393 L767.02 9.54393 L767.02 72.576 L759.566 72.576 L759.566 9.54393 Z" fill="#000000" fill-rule="nonzero" fill-opacity="1" /><path clip-path="url(#clip840)" d="M821.424 48.0275 L821.424 51.6733 L787.153 51.6733 Q787.639 59.3701 791.771 63.421 Q795.943 67.4314 803.356 67.4314 Q807.65 67.4314 811.661 66.3781 Q815.712 65.3249 819.682 63.2184 L819.682 70.267 Q815.671 71.9684 811.458 72.8596 Q807.245 73.7508 802.911 73.7508 Q792.054 73.7508 785.695 67.4314 Q779.375 61.1119 779.375 50.3365 Q779.375 39.1965 785.37 32.6746 Q791.406 26.1121 801.615 26.1121 Q810.77 26.1121 816.076 32.0264 Q821.424 37.9003 821.424 48.0275 M813.97 45.84 Q813.889 39.7232 810.527 36.0774 Q807.205 32.4315 801.696 32.4315 Q795.457 32.4315 791.69 35.9558 Q787.963 39.4801 787.396 45.8805 L813.97 45.84 Z" fill="#000000" fill-rule="nonzero" fill-opacity="1" /><path clip-path="url(#clip840)" d="M896.608 14.0809 L896.608 22.0612 Q891.95 19.8332 887.818 18.7395 Q883.686 17.6457 879.838 17.6457 Q873.154 17.6457 869.508 20.2383 Q865.902 22.8309 865.902 27.611 Q865.902 31.6214 868.292 33.6873 Q870.723 35.7128 877.448 36.9686 L882.39 37.9813 Q891.545 39.7232 895.879 44.1387 Q900.254 48.5136 900.254 55.8863 Q900.254 64.6767 894.34 69.2137 Q888.466 73.7508 877.083 73.7508 Q872.789 73.7508 867.928 72.7785 Q863.107 71.8063 857.922 69.9024 L857.922 61.4765 Q862.905 64.2716 867.685 65.6895 Q872.465 67.1073 877.083 67.1073 Q884.091 67.1073 887.899 64.3527 Q891.707 61.598 891.707 56.4939 Q891.707 52.0379 888.952 49.5264 Q886.238 47.0148 880 45.759 L875.017 44.7868 Q865.862 42.9639 861.771 39.075 Q857.679 35.1862 857.679 28.2591 Q857.679 20.2383 863.31 15.6203 Q868.981 11.0023 878.906 11.0023 Q883.159 11.0023 887.575 11.7719 Q891.99 12.5416 896.608 14.0809 Z" fill="#000000" fill-rule="nonzero" fill-opacity="1" /><path clip-path="url(#clip840)" d="M933.31 49.7694 Q924.276 49.7694 920.792 51.8354 Q917.308 53.9013 917.308 58.8839 Q917.308 62.8538 919.901 65.2034 Q922.534 67.5124 927.031 67.5124 Q933.228 67.5124 936.955 63.1374 Q940.723 58.7219 940.723 51.4303 L940.723 49.7694 L933.31 49.7694 M948.176 46.6907 L948.176 72.576 L940.723 72.576 L940.723 65.6895 Q938.171 69.8214 934.363 71.8063 Q930.555 73.7508 925.046 73.7508 Q918.078 73.7508 913.946 69.8619 Q909.855 65.9325 909.855 59.3701 Q909.855 51.7138 914.959 47.825 Q920.104 43.9361 930.271 43.9361 L940.723 43.9361 L940.723 43.2069 Q940.723 38.0623 937.32 35.2672 Q933.958 32.4315 927.841 32.4315 Q923.952 32.4315 920.266 33.3632 Q916.579 34.295 913.177 36.1584 L913.177 29.2718 Q917.268 27.692 921.116 26.9223 Q924.965 26.1121 928.61 26.1121 Q938.454 26.1121 943.315 31.2163 Q948.176 36.3204 948.176 46.6907 Z" fill="#000000" fill-rule="nonzero" fill-opacity="1" /><path clip-path="url(#clip840)" d="M998.853 35.9153 Q1001.65 30.8922 1005.54 28.5022 Q1009.43 26.1121 1014.69 26.1121 Q1021.78 26.1121 1025.63 31.0947 Q1029.48 36.0368 1029.48 45.1919 L1029.48 72.576 L1021.98 72.576 L1021.98 45.4349 Q1021.98 38.913 1019.67 35.7533 Q1017.37 32.5936 1012.63 32.5936 Q1006.83 32.5936 1003.47 36.4419 Q1000.11 40.2903 1000.11 46.9338 L1000.11 72.576 L992.615 72.576 L992.615 45.4349 Q992.615 38.8725 990.306 35.7533 Q987.997 32.5936 983.176 32.5936 Q977.464 32.5936 974.102 36.4824 Q970.74 40.3308 970.74 46.9338 L970.74 72.576 L963.246 72.576 L963.246 27.2059 L970.74 27.2059 L970.74 34.2544 Q973.292 30.082 976.857 28.0971 Q980.422 26.1121 985.323 26.1121 Q990.265 26.1121 993.708 28.6237 Q997.192 31.1352 998.853 35.9153 Z" fill="#000000" fill-rule="nonzero" fill-opacity="1" /><path clip-path="url(#clip840)" d="M1051.56 65.7705 L1051.56 89.8329 L1044.06 89.8329 L1044.06 27.2059 L1051.56 27.2059 L1051.56 34.0924 Q1053.9 30.0415 1057.47 28.0971 Q1061.08 26.1121 1066.06 26.1121 Q1074.32 26.1121 1079.47 32.6746 Q1084.65 39.2371 1084.65 49.9314 Q1084.65 60.6258 1079.47 67.1883 Q1074.32 73.7508 1066.06 73.7508 Q1061.08 73.7508 1057.47 71.8063 Q1053.9 69.8214 1051.56 65.7705 M1076.91 49.9314 Q1076.91 41.7081 1073.51 37.0496 Q1070.15 32.3505 1064.23 32.3505 Q1058.32 32.3505 1054.92 37.0496 Q1051.56 41.7081 1051.56 49.9314 Q1051.56 58.1548 1054.92 62.8538 Q1058.32 67.5124 1064.23 67.5124 Q1070.15 67.5124 1073.51 62.8538 Q1076.91 58.1548 1076.91 49.9314 Z" fill="#000000" fill-rule="nonzero" fill-opacity="1" /><path clip-path="url(#clip840)" d="M1097.01 9.54393 L1104.46 9.54393 L1104.46 72.576 L1097.01 72.576 L1097.01 9.54393 Z" fill="#000000" fill-rule="nonzero" fill-opacity="1" /><path clip-path="url(#clip840)" d="M1158.86 48.0275 L1158.86 51.6733 L1124.59 51.6733 Q1125.08 59.3701 1129.21 63.421 Q1133.38 67.4314 1140.8 67.4314 Q1145.09 67.4314 1149.1 66.3781 Q1153.15 65.3249 1157.12 63.2184 L1157.12 70.267 Q1153.11 71.9684 1148.9 72.8596 Q1144.69 73.7508 1140.35 73.7508 Q1129.49 73.7508 1123.13 67.4314 Q1116.82 61.1119 1116.82 50.3365 Q1116.82 39.1965 1122.81 32.6746 Q1128.85 26.1121 1139.05 26.1121 Q1148.21 26.1121 1153.52 32.0264 Q1158.86 37.9003 1158.86 48.0275 M1151.41 45.84 Q1151.33 39.7232 1147.97 36.0774 Q1144.65 32.4315 1139.14 32.4315 Q1132.9 32.4315 1129.13 35.9558 Q1125.4 39.4801 1124.84 45.8805 L1151.41 45.84 Z" fill="#000000" fill-rule="nonzero" fill-opacity="1" /><path clip-path="url(#clip840)" d="M1197.39 34.1734 Q1196.13 33.4443 1194.63 33.1202 Q1193.18 32.7556 1191.39 32.7556 Q1185.07 32.7556 1181.67 36.8875 Q1178.31 40.9789 1178.31 48.6757 L1178.31 72.576 L1170.81 72.576 L1170.81 27.2059 L1178.31 27.2059 L1178.31 34.2544 Q1180.66 30.1225 1184.43 28.1376 Q1188.19 26.1121 1193.58 26.1121 Q1194.35 26.1121 1195.28 26.2337 Q1196.21 26.3147 1197.35 26.5172 L1197.39 34.1734 Z" fill="#000000" fill-rule="nonzero" fill-opacity="1" /><path clip-path="url(#clip840)" d="M1227.24 27.2059 L1234.7 27.2059 L1244.01 62.6108 L1253.29 27.2059 L1262.08 27.2059 L1271.4 62.6108 L1280.67 27.2059 L1288.13 27.2059 L1276.26 72.576 L1267.47 72.576 L1257.71 35.3887 L1247.9 72.576 L1239.11 72.576 L1227.24 27.2059 Z" fill="#000000" fill-rule="nonzero" fill-opacity="1" /><path clip-path="url(#clip840)" d="M1299.43 27.2059 L1306.88 27.2059 L1306.88 72.576 L1299.43 72.576 L1299.43 27.2059 M1299.43 9.54393 L1306.88 9.54393 L1306.88 18.9825 L1299.43 18.9825 L1299.43 9.54393 Z" fill="#000000" fill-rule="nonzero" fill-opacity="1" /><path clip-path="url(#clip840)" d="M1329.85 14.324 L1329.85 27.2059 L1345.21 27.2059 L1345.21 32.9987 L1329.85 32.9987 L1329.85 57.6282 Q1329.85 63.1779 1331.35 64.7578 Q1332.89 66.3376 1337.55 66.3376 L1345.21 66.3376 L1345.21 72.576 L1337.55 72.576 Q1328.92 72.576 1325.64 69.3758 Q1322.36 66.1351 1322.36 57.6282 L1322.36 32.9987 L1316.89 32.9987 L1316.89 27.2059 L1322.36 27.2059 L1322.36 14.324 L1329.85 14.324 Z" fill="#000000" fill-rule="nonzero" fill-opacity="1" /><path clip-path="url(#clip840)" d="M1392.72 45.1919 L1392.72 72.576 L1385.27 72.576 L1385.27 45.4349 Q1385.27 38.994 1382.76 35.7938 Q1380.25 32.5936 1375.22 32.5936 Q1369.19 32.5936 1365.7 36.4419 Q1362.22 40.2903 1362.22 46.9338 L1362.22 72.576 L1354.73 72.576 L1354.73 9.54393 L1362.22 9.54393 L1362.22 34.2544 Q1364.89 30.163 1368.5 28.1376 Q1372.14 26.1121 1376.88 26.1121 Q1384.7 26.1121 1388.71 30.9732 Q1392.72 35.7938 1392.72 45.1919 Z" fill="#000000" fill-rule="nonzero" fill-opacity="1" /><path clip-path="url(#clip840)" d="M1433.35 12.096 L1441.58 12.096 L1441.58 48.8377 Q1441.58 58.5599 1445.1 62.8538 Q1448.63 67.1073 1456.52 67.1073 Q1464.38 67.1073 1467.91 62.8538 Q1471.43 58.5599 1471.43 48.8377 L1471.43 12.096 L1479.65 12.096 L1479.65 49.8504 Q1479.65 61.6791 1473.78 67.7149 Q1467.95 73.7508 1456.52 73.7508 Q1445.06 73.7508 1439.19 67.7149 Q1433.35 61.6791 1433.35 49.8504 L1433.35 12.096 Z" fill="#000000" fill-rule="nonzero" fill-opacity="1" /><path clip-path="url(#clip840)" d="M1532.4 45.1919 L1532.4 72.576 L1524.94 72.576 L1524.94 45.4349 Q1524.94 38.994 1522.43 35.7938 Q1519.92 32.5936 1514.9 32.5936 Q1508.86 32.5936 1505.38 36.4419 Q1501.89 40.2903 1501.89 46.9338 L1501.89 72.576 L1494.4 72.576 L1494.4 27.2059 L1501.89 27.2059 L1501.89 34.2544 Q1504.57 30.163 1508.17 28.1376 Q1511.82 26.1121 1516.56 26.1121 Q1524.38 26.1121 1528.39 30.9732 Q1532.4 35.7938 1532.4 45.1919 Z" fill="#000000" fill-rule="nonzero" fill-opacity="1" /><path clip-path="url(#clip840)" d="M1584.98 45.1919 L1584.98 72.576 L1577.52 72.576 L1577.52 45.4349 Q1577.52 38.994 1575.01 35.7938 Q1572.5 32.5936 1567.48 32.5936 Q1561.44 32.5936 1557.96 36.4419 Q1554.48 40.2903 1554.48 46.9338 L1554.48 72.576 L1546.98 72.576 L1546.98 27.2059 L1554.48 27.2059 L1554.48 34.2544 Q1557.15 30.163 1560.75 28.1376 Q1564.4 26.1121 1569.14 26.1121 Q1576.96 26.1121 1580.97 30.9732 Q1584.98 35.7938 1584.98 45.1919 Z" fill="#000000" fill-rule="nonzero" fill-opacity="1" /><path clip-path="url(#clip840)" d="M1617.43 32.4315 Q1611.43 32.4315 1607.95 37.1306 Q1604.46 41.7891 1604.46 49.9314 Q1604.46 58.0738 1607.91 62.7728 Q1611.39 67.4314 1617.43 67.4314 Q1623.38 67.4314 1626.86 62.7323 Q1630.35 58.0333 1630.35 49.9314 Q1630.35 41.8701 1626.86 37.1711 Q1623.38 32.4315 1617.43 32.4315 M1617.43 26.1121 Q1627.15 26.1121 1632.7 32.4315 Q1638.25 38.7509 1638.25 49.9314 Q1638.25 61.0714 1632.7 67.4314 Q1627.15 73.7508 1617.43 73.7508 Q1607.66 73.7508 1602.11 67.4314 Q1596.6 61.0714 1596.6 49.9314 Q1596.6 38.7509 1602.11 32.4315 Q1607.66 26.1121 1617.43 26.1121 Z" fill="#000000" fill-rule="nonzero" fill-opacity="1" /><path clip-path="url(#clip840)" d="M1676.89 34.1734 Q1675.64 33.4443 1674.14 33.1202 Q1672.68 32.7556 1670.9 32.7556 Q1664.58 32.7556 1661.18 36.8875 Q1657.81 40.9789 1657.81 48.6757 L1657.81 72.576 L1650.32 72.576 L1650.32 27.2059 L1657.81 27.2059 L1657.81 34.2544 Q1660.16 30.1225 1663.93 28.1376 Q1667.7 26.1121 1673.09 26.1121 Q1673.86 26.1121 1674.79 26.2337 Q1675.72 26.3147 1676.85 26.5172 L1676.89 34.1734 Z" fill="#000000" fill-rule="nonzero" fill-opacity="1" /><path clip-path="url(#clip840)" d="M1718.58 35.9153 Q1721.37 30.8922 1725.26 28.5022 Q1729.15 26.1121 1734.42 26.1121 Q1741.51 26.1121 1745.35 31.0947 Q1749.2 36.0368 1749.2 45.1919 L1749.2 72.576 L1741.71 72.576 L1741.71 45.4349 Q1741.71 38.913 1739.4 35.7533 Q1737.09 32.5936 1732.35 32.5936 Q1726.56 32.5936 1723.2 36.4419 Q1719.83 40.2903 1719.83 46.9338 L1719.83 72.576 L1712.34 72.576 L1712.34 45.4349 Q1712.34 38.8725 1710.03 35.7533 Q1707.72 32.5936 1702.9 32.5936 Q1697.19 32.5936 1693.83 36.4824 Q1690.46 40.3308 1690.46 46.9338 L1690.46 72.576 L1682.97 72.576 L1682.97 27.2059 L1690.46 27.2059 L1690.46 34.2544 Q1693.02 30.082 1696.58 28.0971 Q1700.15 26.1121 1705.05 26.1121 Q1709.99 26.1121 1713.43 28.6237 Q1716.92 31.1352 1718.58 35.9153 Z" fill="#000000" fill-rule="nonzero" fill-opacity="1" /><path clip-path="url(#clip840)" d="M1784.69 49.7694 Q1775.65 49.7694 1772.17 51.8354 Q1768.69 53.9013 1768.69 58.8839 Q1768.69 62.8538 1771.28 65.2034 Q1773.91 67.5124 1778.41 67.5124 Q1784.61 67.5124 1788.33 63.1374 Q1792.1 58.7219 1792.1 51.4303 L1792.1 49.7694 L1784.69 49.7694 M1799.55 46.6907 L1799.55 72.576 L1792.1 72.576 L1792.1 65.6895 Q1789.55 69.8214 1785.74 71.8063 Q1781.93 73.7508 1776.42 73.7508 Q1769.46 73.7508 1765.32 69.8619 Q1761.23 65.9325 1761.23 59.3701 Q1761.23 51.7138 1766.34 47.825 Q1771.48 43.9361 1781.65 43.9361 L1792.1 43.9361 L1792.1 43.2069 Q1792.1 38.0623 1788.7 35.2672 Q1785.34 32.4315 1779.22 32.4315 Q1775.33 32.4315 1771.64 33.3632 Q1767.96 34.295 1764.56 36.1584 L1764.56 29.2718 Q1768.65 27.692 1772.49 26.9223 Q1776.34 26.1121 1779.99 26.1121 Q1789.83 26.1121 1794.69 31.2163 Q1799.55 36.3204 1799.55 46.6907 Z" fill="#000000" fill-rule="nonzero" fill-opacity="1" /><path clip-path="url(#clip840)" d="M1814.91 9.54393 L1822.36 9.54393 L1822.36 72.576 L1814.91 72.576 L1814.91 9.54393 Z" fill="#000000" fill-rule="nonzero" fill-opacity="1" /><path clip-path="url(#clip840)" d="M1837.96 27.2059 L1845.41 27.2059 L1845.41 72.576 L1837.96 72.576 L1837.96 27.2059 M1837.96 9.54393 L1845.41 9.54393 L1845.41 18.9825 L1837.96 18.9825 L1837.96 9.54393 Z" fill="#000000" fill-rule="nonzero" fill-opacity="1" /><path clip-path="url(#clip840)" d="M1857.77 27.2059 L1893.17 27.2059 L1893.17 34.0114 L1865.14 66.6212 L1893.17 66.6212 L1893.17 72.576 L1856.75 72.576 L1856.75 65.7705 L1884.79 33.1607 L1857.77 33.1607 L1857.77 27.2059 Z" fill="#000000" fill-rule="nonzero" fill-opacity="1" /><path clip-path="url(#clip840)" d="M1943.36 48.0275 L1943.36 51.6733 L1909.09 51.6733 Q1909.58 59.3701 1913.71 63.421 Q1917.88 67.4314 1925.29 67.4314 Q1929.59 67.4314 1933.6 66.3781 Q1937.65 65.3249 1941.62 63.2184 L1941.62 70.267 Q1937.61 71.9684 1933.4 72.8596 Q1929.18 73.7508 1924.85 73.7508 Q1913.99 73.7508 1907.63 67.4314 Q1901.31 61.1119 1901.31 50.3365 Q1901.31 39.1965 1907.31 32.6746 Q1913.34 26.1121 1923.55 26.1121 Q1932.71 26.1121 1938.01 32.0264 Q1943.36 37.9003 1943.36 48.0275 M1935.91 45.84 Q1935.83 39.7232 1932.47 36.0774 Q1929.14 32.4315 1923.63 32.4315 Q1917.4 32.4315 1913.63 35.9558 Q1909.9 39.4801 1909.33 45.8805 L1935.91 45.84 Z" fill="#000000" fill-rule="nonzero" fill-opacity="1" /><path clip-path="url(#clip840)" d="M1985.45 34.0924 L1985.45 9.54393 L1992.9 9.54393 L1992.9 72.576 L1985.45 72.576 L1985.45 65.7705 Q1983.1 69.8214 1979.5 71.8063 Q1975.93 73.7508 1970.91 73.7508 Q1962.68 73.7508 1957.5 67.1883 Q1952.35 60.6258 1952.35 49.9314 Q1952.35 39.2371 1957.5 32.6746 Q1962.68 26.1121 1970.91 26.1121 Q1975.93 26.1121 1979.5 28.0971 Q1983.1 30.0415 1985.45 34.0924 M1960.05 49.9314 Q1960.05 58.1548 1963.41 62.8538 Q1966.82 67.5124 1972.73 67.5124 Q1978.65 67.5124 1982.05 62.8538 Q1985.45 58.1548 1985.45 49.9314 Q1985.45 41.7081 1982.05 37.0496 Q1978.65 32.3505 1972.73 32.3505 Q1966.82 32.3505 1963.41 37.0496 Q1960.05 41.7081 1960.05 49.9314 Z" fill="#000000" fill-rule="nonzero" fill-opacity="1" /><path clip-path="url(#clip840)" d="M2050.55 72.576 L2027.46 12.096 L2036.01 12.096 L2055.17 63.0159 L2074.37 12.096 L2082.88 12.096 L2059.83 72.576 L2050.55 72.576 Z" fill="#000000" fill-rule="nonzero" fill-opacity="1" /><path clip-path="url(#clip840)" d="M2123.75 48.0275 L2123.75 51.6733 L2089.48 51.6733 Q2089.96 59.3701 2094.1 63.421 Q2098.27 67.4314 2105.68 67.4314 Q2109.98 67.4314 2113.99 66.3781 Q2118.04 65.3249 2122.01 63.2184 L2122.01 70.267 Q2118 71.9684 2113.78 72.8596 Q2109.57 73.7508 2105.24 73.7508 Q2094.38 73.7508 2088.02 67.4314 Q2081.7 61.1119 2081.7 50.3365 Q2081.7 39.1965 2087.7 32.6746 Q2093.73 26.1121 2103.94 26.1121 Q2113.09 26.1121 2118.4 32.0264 Q2123.75 37.9003 2123.75 48.0275 M2116.3 45.84 Q2116.21 39.7232 2112.85 36.0774 Q2109.53 32.4315 2104.02 32.4315 Q2097.78 32.4315 2094.02 35.9558 Q2090.29 39.4801 2089.72 45.8805 L2116.3 45.84 Z" fill="#000000" fill-rule="nonzero" fill-opacity="1" /><path clip-path="url(#clip840)" d="M2135.98 9.54393 L2143.44 9.54393 L2143.44 72.576 L2135.98 72.576 L2135.98 9.54393 Z" fill="#000000" fill-rule="nonzero" fill-opacity="1" /><path clip-path="url(#clip840)" d="M2176.61 32.4315 Q2170.62 32.4315 2167.13 37.1306 Q2163.65 41.7891 2163.65 49.9314 Q2163.65 58.0738 2167.09 62.7728 Q2170.58 67.4314 2176.61 67.4314 Q2182.57 67.4314 2186.05 62.7323 Q2189.54 58.0333 2189.54 49.9314 Q2189.54 41.8701 2186.05 37.1711 Q2182.57 32.4315 2176.61 32.4315 M2176.61 26.1121 Q2186.34 26.1121 2191.88 32.4315 Q2197.43 38.7509 2197.43 49.9314 Q2197.43 61.0714 2191.88 67.4314 Q2186.34 73.7508 2176.61 73.7508 Q2166.85 73.7508 2161.3 67.4314 Q2155.79 61.0714 2155.79 49.9314 Q2155.79 38.7509 2161.3 32.4315 Q2166.85 26.1121 2176.61 26.1121 Z" fill="#000000" fill-rule="nonzero" fill-opacity="1" /><path clip-path="url(#clip840)" d="M2242.44 28.9478 L2242.44 35.9153 Q2239.28 34.1734 2236.08 33.3227 Q2232.92 32.4315 2229.68 32.4315 Q2222.43 32.4315 2218.42 37.0496 Q2214.41 41.6271 2214.41 49.9314 Q2214.41 58.2358 2218.42 62.8538 Q2222.43 67.4314 2229.68 67.4314 Q2232.92 67.4314 2236.08 66.5807 Q2239.28 65.6895 2242.44 63.9476 L2242.44 70.8341 Q2239.32 72.2924 2235.96 73.0216 Q2232.64 73.7508 2228.87 73.7508 Q2218.62 73.7508 2212.59 67.3098 Q2206.55 60.8689 2206.55 49.9314 Q2206.55 38.832 2212.63 32.472 Q2218.74 26.1121 2229.36 26.1121 Q2232.8 26.1121 2236.08 26.8413 Q2239.36 27.5299 2242.44 28.9478 Z" fill="#000000" fill-rule="nonzero" fill-opacity="1" /><path clip-path="url(#clip840)" d="M2255.4 27.2059 L2262.86 27.2059 L2262.86 72.576 L2255.4 72.576 L2255.4 27.2059 M2255.4 9.54393 L2262.86 9.54393 L2262.86 18.9825 L2255.4 18.9825 L2255.4 9.54393 Z" fill="#000000" fill-rule="nonzero" fill-opacity="1" /><path clip-path="url(#clip840)" d="M2285.83 14.324 L2285.83 27.2059 L2301.18 27.2059 L2301.18 32.9987 L2285.83 32.9987 L2285.83 57.6282 Q2285.83 63.1779 2287.32 64.7578 Q2288.86 66.3376 2293.52 66.3376 L2301.18 66.3376 L2301.18 72.576 L2293.52 72.576 Q2284.89 72.576 2281.61 69.3758 Q2278.33 66.1351 2278.33 57.6282 L2278.33 32.9987 L2272.86 32.9987 L2272.86 27.2059 L2278.33 27.2059 L2278.33 14.324 L2285.83 14.324 Z" fill="#000000" fill-rule="nonzero" fill-opacity="1" /><path clip-path="url(#clip840)" d="M2310.98 27.2059 L2318.44 27.2059 L2318.44 72.576 L2310.98 72.576 L2310.98 27.2059 M2310.98 9.54393 L2318.44 9.54393 L2318.44 18.9825 L2310.98 18.9825 L2310.98 9.54393 Z" fill="#000000" fill-rule="nonzero" fill-opacity="1" /><path clip-path="url(#clip840)" d="M2372.84 48.0275 L2372.84 51.6733 L2338.57 51.6733 Q2339.05 59.3701 2343.19 63.421 Q2347.36 67.4314 2354.77 67.4314 Q2359.07 67.4314 2363.08 66.3781 Q2367.13 65.3249 2371.1 63.2184 L2371.1 70.267 Q2367.09 71.9684 2362.87 72.8596 Q2358.66 73.7508 2354.33 73.7508 Q2343.47 73.7508 2337.11 67.4314 Q2330.79 61.1119 2330.79 50.3365 Q2330.79 39.1965 2336.79 32.6746 Q2342.82 26.1121 2353.03 26.1121 Q2362.18 26.1121 2367.49 32.0264 Q2372.84 37.9003 2372.84 48.0275 M2365.39 45.84 Q2365.3 39.7232 2361.94 36.0774 Q2358.62 32.4315 2353.11 32.4315 Q2346.87 32.4315 2343.11 35.9558 Q2339.38 39.4801 2338.81 45.8805 L2365.39 45.84 Z" fill="#000000" fill-rule="nonzero" fill-opacity="1" /><path clip-path="url(#clip840)" d="M2414 28.5427 L2414 35.5912 Q2410.84 33.9709 2407.43 33.1607 Q2404.03 32.3505 2400.38 32.3505 Q2394.84 32.3505 2392.04 34.0519 Q2389.29 35.7533 2389.29 39.156 Q2389.29 41.7486 2391.27 43.2475 Q2393.26 44.7058 2399.25 46.0426 L2401.8 46.6097 Q2409.74 48.3111 2413.06 51.4303 Q2416.43 54.509 2416.43 60.0587 Q2416.43 66.3781 2411.4 70.0644 Q2406.42 73.7508 2397.67 73.7508 Q2394.03 73.7508 2390.06 73.0216 Q2386.13 72.3329 2381.75 70.9151 L2381.75 63.2184 Q2385.88 65.3654 2389.89 66.4591 Q2393.9 67.5124 2397.83 67.5124 Q2403.1 67.5124 2405.93 65.73 Q2408.77 63.9071 2408.77 60.6258 Q2408.77 57.5877 2406.7 55.9673 Q2404.68 54.3469 2397.75 52.8481 L2395.16 52.2405 Q2388.23 50.7821 2385.15 47.7845 Q2382.07 44.7463 2382.07 39.4801 Q2382.07 33.0797 2386.61 29.5959 Q2391.15 26.1121 2399.49 26.1121 Q2403.63 26.1121 2407.27 26.7198 Q2410.92 27.3274 2414 28.5427 Z" fill="#000000" fill-rule="nonzero" fill-opacity="1" /><polyline clip-path="url(#clip842)" style="stroke:#78c2ad; stroke-linecap:round; stroke-linejoin:round; stroke-width:8; stroke-opacity:1; fill:none" points="938.415,1235.85 933.69,1236.81 956.006,1206.6 988.557,1165.15 1015.44,1132.28 1038.37,1105.03 1054.77,1085.97 1075.57,1062.05 1104.15,1030.1 1146.8,983.379 1158.89,970.712 1190.2,973.043 1242.35,976.287 1295.74,979.392 1347.08,981.776 1388.92,983.593 1425.36,984.858 1466.81,986.238 1527.91,987.657 1597.19,988.785 1663.07,989.01 1715.49,988.836 1779.89,987.989 1827.32,986.789 1872.72,985.392 1921.92,983.225 1958.74,981.263 1996.35,978.885 2035.6,975.916 2082.27,971.692 2119.64,967.351 2152.79,962.988 2182.71,958.031 2203.58,954.038 2222.33,949.835 2242.63,944.47 2259.07,938.736 2265.68,935.836 2270.46,933.633 2281.64,927.36 2293.45,913.43 2280.76,897.716 2265.94,889.355 2256.54,884.943 2238.86,877.772 2206.68,867.91 2175.51,860.236 2140.95,852.663 2092.58,843.767 2050.28,837.088 2019.39,832.626 1972.15,826.275 1894.53,817.373 1820.84,810.396 1739.43,803.588 1643.88,797.318 1576.14,793.714 1516.05,790.969 1455,788.76 1389.64,786.884 1322.51,785.672 1265.95,785.119 1231.48,785.064 1219.26,785.071 1165.42,785.187 1110.66,786.168 1071.2,786.989 1020.46,788.647 967.365,790.842 891.112,795.211 843.205,799.278 825.689,800.873 778.476,805.582 715.44,814.502 688.07,820.068 667.439,824.423 638.743,832.726 617.175,841.894 608.304,848.798 601.364,856.397 602.743,866.408 611.269,876.704 629.607,886.822 657.989,898.519 702.497,910.667 739.365,919.002 777.56,926.441 798.936,930.098 809.318,931.864 786.981,914.269 770.754,897.76 763.774,890.565 743.475,866.783 734.67,850.521 802.377,880.268 863.481,903.458 917.263,922.298 956.466,934.887 988.662,944.999 1025.56,955.887 1056.26,964.682 1118.93,981.859 1217.93,1006.37 1306.42,1025.79 1375.58,1039.84 1428.03,1049.63 1461.88,1055.68 1482.44,1059.19 1518.08,1065.22 1587.73,1075.97 1637.67,1082.76 1671.64,1087.17 1709.88,1091.71 1760.59,1097.26 1835.29,1104 1904.47,1108.36 1990.51,1111.86 2057,1110.82 2095.01,1109.4 2123.97,1107.2 2141.81,1082.66 2172.71,1034.35 2205.1,975.717 2239.74,896.715 2261.89,820.439 2271.35,769.783 2274.97,739.488 2280.56,670.975 2267.17,570.881 2248.57,515.809 2241.39,498.12 2226.37,463.686 2178,385.799 2122.63,334.295 2105.27,319.991 2090.41,308.537 2067.09,292.112 2040.67,276.077 2019.21,264.412 1996.57,253.272 1960.18,237.452 1907.42,219.606 1837.15,202.541 1766.59,193.766 1698.01,189.848 1648.99,191.571 1629.83,192.524 1589.4,195.565 1547.72,201.075 1511.74,206.771 1437.84,221.735 1361.54,244.705 1306.87,263.853 1257.92,283.889 1184.28,317.04 1083.2,374.611 1019.91,418.665 970.857,455.294 911.438,506.193 862.3,554.137 814.644,606.09 759.027,676.592 698.938,771.336 655.802,867.399 652.653,877.478 653.924,940.087 669.533,1045.65 685.437,1115.81 668.944,1108.77 644.063,1097.61 597.17,1076.01 543.301,1047.95 498.78,1023.13 462.184,1000.4 426.195,976.764 373.112,937.169 338.83,905.669 317.252,884.164 316.512,883.304 335.785,913.645 361.38,947.775 395.002,981.645 460.259,1040.23 561.798,1100.74 636.114,1139.62 734.443,1182.37 834.753,1218.88 927.551,1247.59 1035.82,1276.62 1136.29,1298.04 1196.24,1309.29 1274.02,1322.38 1365.82,1334.48 1466.65,1345.02 1484.49,1346.15 1491.91,1358.21 1497.77,1365.99 1504.91,1374.86 1512.45,1380.96 1519.99,1385.76 1526.92,1386.4 1530.37,1385.96 1536.32,1386.19 1649.3,1381.43 1700.57,1377.23 1752.98,1372.02 1831.93,1360.69 1910.58,1345.04 1910.72,1344.58 1909.7,1351.9 1889.71,1335.69 1826.01,1283.83 1767.24,1235.46 1724.87,1200.51 1672.01,1156.62 1619.15,1112.55 1567.07,1068.88 1465.84,983.675 1303.91,845.403 1254.34,802.46 1244.57,803.345 1231.05,805.066 1217.11,807.787 1206.41,810.761 1232.7,801.82 1261.13,792.631 1298.62,782.15 1333.42,773.4 1394.79,759.915 1462.69,749.393 1512.9,743.47 1558.06,739.901 1586.55,738.589 1610.22,737.865 1642.57,737.777 1683.74,739.191 1718.06,742.435 1739.76,745.322 1758.15,748.482 1768.29,750.63 1779.42,753.098 1785.64,754.815 1785.51,746.896 1785,729.809 1783.33,698.351 1779.76,662.905 1774.97,628.043 1766.37,583.039 1756.96,547.999 1748.85,521.644 1733.47,480.139 1717.09,447.577 1698.83,415.051 1679.84,390.451 1671.21,380.034 1652.89,360.208 1622.2,335.206 1583.68,314.42 1548.46,305.123 1530.83,303.204 1494.42,300.793 1448.94,313.17 1425.23,322.458 1398.71,335.921 1364.82,358.254 1337.41,381.922 1310.57,407.823 1289.91,432.472 1274.71,451.319 1247.98,489.246 1225.25,527.693 1204.62,566.419 1189.81,599.232 1176.01,631.45 1175.72,632.251 1182.12,630.483 1207.07,625.272 1230.23,622.126 1263.39,618.947 1298.24,619.038 1320.19,619.789 1336.29,621.027 1338.46,621.214 1344.84,631.832 1363.97,664.21 1378.23,688.858 1388.06,705.938 1389.17,707.897 1385.84,707.715 1388.77,710.569 1394.34,716.386 1396.15,718.527 1384.42,716.637 1370.85,714.565 1329.49,708.913 1291.68,706.092 1271.96,704.899 1253.91,704.339 1215.74,703.64 1180.18,706.201 1180.19,706.192 1203.98,650.083 1230.45,592.962 1233.96,586.216 1235.66,577.931 1252.27,509.651 1272.99,434.308 1291.2,380.036 1301.59,350.572 1323.09,294.815 1346.42,245.051 1358.46,221.905 1381.61,179.829 1395.69,160.661 1381.77,160.256 1369.33,167.084 1314.26,202.689 1272.59,234.665 1237.4,263.496 1191.25,306.049 1149.16,349.712 1107.61,397.159 1055.41,464.113 998.275,550.363 945.863,645.106 918.756,705.058 905.641,735.403 880.523,799.163 859.084,867.508 845.633,917.355 830.313,985.771 820.093,1056.13 815.809,1102.76 812.795,1158.79 813.348,1180.96 821.083,1203.04 844.578,1233.98 864.93,1253.04 890.568,1271.02 924.219,1287.5 994.724,1310.94 1074.81,1315.02 1112.78,1315.19 1168.32,1311.79 1235.72,1302.54 1294.34,1290.25 1375.77,1269.66 1453.88,1241.74 1526.53,1213.44 1616.49,1169.81 1687.28,1130.48 1738.4,1098.27 1696.53,1071.01 1674.63,1056.71 1646.66,1038.36 1600.22,1007.76 1558.57,980.097 1518.35,953.316 1484.43,930.577 1446.33,905.016 1402.37,875.3 1386.66,864.662 1361.79,847.792 1314.56,815.627 1275.35,788.742 1247.75,769.764 1226.25,754.908 1199.37,736.31 1170.22,716.003 1146.56,699.471 1103.57,669.243 1068.6,644.287 1055.13,634.6 1051.4,664.365 1049.27,671.565 1044.3,696.072 1071.4,687.62 1113.82,676.938 1129.96,673.285 1117.91,685.134 1102.26,701.028 1087.26,718.159 1078.07,729.069 1062.59,748.637 1042.87,776.897 1025.83,805.456 1011.15,834.054 995.766,870.624 984.57,908.478 979.541,933.911 975.928,958.902 975.006,979.218 974.713,996.136 976.594,1025.06 981.11,1049.87 986.512,1071.53 995.112,1095.48 1006.62,1120.17 1024.15,1148.6 1042.47,1170.8 1068.34,1197.65 1102.54,1221.91 1136.1,1241.35 1167.37,1253.92 1183.95,1259.71 1206.79,1266.52 1253.05,1276.72 1308.14,1280.76 1341.27,1280.36 1367.45,1278.97 1396.26,1275.88 1430.62,1270.56 1482.43,1258.85 1516.9,1247.37 1577.21,1226.48 1653.11,1184.03 1688.4,1160.51 1718.76,1138.13 1751.9,1110.11 1784.44,1078.52 1803.74,1056.58 1826.53,1029.58 1865.81,971.503 1889.88,918.48 1901.97,884.084 1908.91,856.449 1913.55,831.835 1915.5,813.035 1916.05,805.524 1917.31,783.471 1915.29,754.009 1912.44,734.013 1907.09,709.001 1897.27,680.124 1889.64,663.903 1879.35,643.366 1863.69,621.2 1854.07,609.056 1829.29,581.396 1796.48,557.215 1792.91,554.954 1788.17,527.642 1778.36,486.496 1770.9,464.959 1770.74,464.474 1767.74,457.217 1764.37,449.834 1744.22,456.706 1709.49,476.936 1664.64,506.534 1599.27,560.784 1561.46,595.509 1530.78,624.571 1498.16,657.31 1481.38,674.652 1462.88,694.013 1428.74,730.875 1420.04,740.725 1423.33,732.891 1440.07,693.932 1457.83,654.275 1470.48,626.783 1490.66,583.972 1519.36,526.807 1534.17,499.558 1542.18,484.862 1553.28,465.482 1558.85,456.033 1562.52,449.902 1569.05,439.184 1576.44,427.552 1574.09,427.7 1536.44,437.106 1491.1,459.102 1465.89,476.609 1457.53,482.602 1440.29,495.877 1420.09,513.486 1407.53,525.445 1392.58,540.198 1365.69,569.547 1344.82,595.601 1336.34,606.687 1326.78,619.52 1311.7,640.89 1297.5,662.536 1276.48,696.261 1252.51,740.454 1235.82,774.451 1220.95,807.537 1204.88,847.132 1200.61,859.276 1217.81,882.923 1255.01,931.73 1282.11,964.689 1292.2,976.894 1308.54,996.182 1333.95,1025.49 1362.48,1056.85 1381.67,1077.31 "/>
</svg>
