<?xml version="1.0" encoding="utf-8"?>
<svg xmlns="http://www.w3.org/2000/svg" xmlns:xlink="http://www.w3.org/1999/xlink" width="600" height="400" viewBox="0 0 2400 1600">
<defs>
  <clipPath id="clip410">
    <rect x="0" y="0" width="2400" height="1600"/>
  </clipPath>
</defs>
<path clip-path="url(#clip410)" d="M0 1600 L2400 1600 L2400 8.88178e-14 L0 8.88178e-14  Z" fill="#f0f1eb" fill-rule="evenodd" fill-opacity="1"/>
<defs>
  <clipPath id="clip411">
    <rect x="480" y="0" width="1681" height="1600"/>
  </clipPath>
</defs>
<path clip-path="url(#clip410)" d="M257.204 1423.18 L2352.76 1423.18 L2352.76 123.472 L257.204 123.472  Z" fill="#f0f1eb" fill-rule="evenodd" fill-opacity="1"/>
<defs>
  <clipPath id="clip412">
    <rect x="257" y="123" width="2097" height="1301"/>
  </clipPath>
</defs>
<polyline clip-path="url(#clip412)" style="stroke:#000000; stroke-linecap:round; stroke-linejoin:round; stroke-width:2; stroke-opacity:0.1; fill:none" points="467.999,1423.18 467.999,123.472 "/>
<polyline clip-path="url(#clip412)" style="stroke:#000000; stroke-linecap:round; stroke-linejoin:round; stroke-width:2; stroke-opacity:0.1; fill:none" points="992.362,1423.18 992.362,123.472 "/>
<polyline clip-path="url(#clip412)" style="stroke:#000000; stroke-linecap:round; stroke-linejoin:round; stroke-width:2; stroke-opacity:0.1; fill:none" points="1516.73,1423.18 1516.73,123.472 "/>
<polyline clip-path="url(#clip412)" style="stroke:#000000; stroke-linecap:round; stroke-linejoin:round; stroke-width:2; stroke-opacity:0.1; fill:none" points="2041.09,1423.18 2041.09,123.472 "/>
<polyline clip-path="url(#clip412)" style="stroke:#000000; stroke-linecap:round; stroke-linejoin:round; stroke-width:2; stroke-opacity:0.1; fill:none" points="257.204,1244.5 2352.76,1244.5 "/>
<polyline clip-path="url(#clip412)" style="stroke:#000000; stroke-linecap:round; stroke-linejoin:round; stroke-width:2; stroke-opacity:0.1; fill:none" points="257.204,1054.6 2352.76,1054.6 "/>
<polyline clip-path="url(#clip412)" style="stroke:#000000; stroke-linecap:round; stroke-linejoin:round; stroke-width:2; stroke-opacity:0.1; fill:none" points="257.204,864.7 2352.76,864.7 "/>
<polyline clip-path="url(#clip412)" style="stroke:#000000; stroke-linecap:round; stroke-linejoin:round; stroke-width:2; stroke-opacity:0.1; fill:none" points="257.204,674.802 2352.76,674.802 "/>
<polyline clip-path="url(#clip412)" style="stroke:#000000; stroke-linecap:round; stroke-linejoin:round; stroke-width:2; stroke-opacity:0.1; fill:none" points="257.204,484.904 2352.76,484.904 "/>
<polyline clip-path="url(#clip412)" style="stroke:#000000; stroke-linecap:round; stroke-linejoin:round; stroke-width:2; stroke-opacity:0.1; fill:none" points="257.204,295.006 2352.76,295.006 "/>
<polyline clip-path="url(#clip410)" style="stroke:#000000; stroke-linecap:round; stroke-linejoin:round; stroke-width:4; stroke-opacity:1; fill:none" points="257.204,1423.18 2352.76,1423.18 "/>
<polyline clip-path="url(#clip410)" style="stroke:#000000; stroke-linecap:round; stroke-linejoin:round; stroke-width:4; stroke-opacity:1; fill:none" points="467.999,1423.18 467.999,1404.28 "/>
<polyline clip-path="url(#clip410)" style="stroke:#000000; stroke-linecap:round; stroke-linejoin:round; stroke-width:4; stroke-opacity:1; fill:none" points="992.362,1423.18 992.362,1404.28 "/>
<polyline clip-path="url(#clip410)" style="stroke:#000000; stroke-linecap:round; stroke-linejoin:round; stroke-width:4; stroke-opacity:1; fill:none" points="1516.73,1423.18 1516.73,1404.28 "/>
<polyline clip-path="url(#clip410)" style="stroke:#000000; stroke-linecap:round; stroke-linejoin:round; stroke-width:4; stroke-opacity:1; fill:none" points="2041.09,1423.18 2041.09,1404.28 "/>
<path clip-path="url(#clip410)" d="M437.941 1468.75 L467.617 1468.75 L467.617 1472.69 L437.941 1472.69 L437.941 1468.75 Z" fill="#000000" fill-rule="nonzero" fill-opacity="1" /><path clip-path="url(#clip410)" d="M481.738 1481.64 L498.057 1481.64 L498.057 1485.58 L476.113 1485.58 L476.113 1481.64 Q478.775 1478.89 483.358 1474.26 Q487.964 1469.61 489.145 1468.27 Q491.39 1465.74 492.27 1464.01 Q493.173 1462.25 493.173 1460.56 Q493.173 1457.8 491.228 1456.07 Q489.307 1454.33 486.205 1454.33 Q484.006 1454.33 481.552 1455.09 Q479.122 1455.86 476.344 1457.41 L476.344 1452.69 Q479.168 1451.55 481.622 1450.97 Q484.075 1450.39 486.113 1450.39 Q491.483 1450.39 494.677 1453.08 Q497.872 1455.77 497.872 1460.26 Q497.872 1462.39 497.062 1464.31 Q496.275 1466.2 494.168 1468.8 Q493.589 1469.47 490.488 1472.69 Q487.386 1475.88 481.738 1481.64 Z" fill="#000000" fill-rule="nonzero" fill-opacity="1" /><path clip-path="url(#clip410)" d="M962.119 1468.75 L991.795 1468.75 L991.795 1472.69 L962.119 1472.69 L962.119 1468.75 Z" fill="#000000" fill-rule="nonzero" fill-opacity="1" /><path clip-path="url(#clip410)" d="M1002.7 1481.64 L1010.34 1481.64 L1010.34 1455.28 L1002.03 1456.95 L1002.03 1452.69 L1010.29 1451.02 L1014.97 1451.02 L1014.97 1481.64 L1022.61 1481.64 L1022.61 1485.58 L1002.7 1485.58 L1002.7 1481.64 Z" fill="#000000" fill-rule="nonzero" fill-opacity="1" /><path clip-path="url(#clip410)" d="M1516.73 1454.1 Q1513.11 1454.1 1511.29 1457.66 Q1509.48 1461.2 1509.48 1468.33 Q1509.48 1475.44 1511.29 1479.01 Q1513.11 1482.55 1516.73 1482.55 Q1520.36 1482.55 1522.16 1479.01 Q1523.99 1475.44 1523.99 1468.33 Q1523.99 1461.2 1522.16 1457.66 Q1520.36 1454.1 1516.73 1454.1 M1516.73 1450.39 Q1522.54 1450.39 1525.59 1455 Q1528.67 1459.58 1528.67 1468.33 Q1528.67 1477.06 1525.59 1481.67 Q1522.54 1486.25 1516.73 1486.25 Q1510.92 1486.25 1507.84 1481.67 Q1504.78 1477.06 1504.78 1468.33 Q1504.78 1459.58 1507.84 1455 Q1510.92 1450.39 1516.73 1450.39 Z" fill="#000000" fill-rule="nonzero" fill-opacity="1" /><path clip-path="url(#clip410)" d="M2031.47 1481.64 L2039.11 1481.64 L2039.11 1455.28 L2030.8 1456.95 L2030.8 1452.69 L2039.06 1451.02 L2043.74 1451.02 L2043.74 1481.64 L2051.38 1481.64 L2051.38 1485.58 L2031.47 1485.58 L2031.47 1481.64 Z" fill="#000000" fill-rule="nonzero" fill-opacity="1" /><path clip-path="url(#clip410)" d="M1306.98 1519.67 Q1306.98 1521.47 1305.85 1522.5 Q1304.72 1523.5 1303.43 1523.5 Q1302.21 1523.5 1301.57 1522.79 Q1300.92 1522.08 1300.92 1521.18 Q1300.92 1519.96 1301.82 1518.89 Q1302.73 1517.83 1304.08 1517.6 Q1302.76 1516.77 1300.79 1516.77 Q1299.51 1516.77 1298.38 1517.44 Q1297.28 1518.12 1296.61 1518.99 Q1295.96 1519.86 1295.38 1521.11 Q1294.84 1522.34 1294.61 1523.08 Q1294.42 1523.79 1294.26 1524.56 L1292 1533.58 Q1290.91 1537.86 1290.91 1539.38 Q1290.91 1541.24 1291.81 1542.5 Q1292.71 1543.72 1294.51 1543.72 Q1295.22 1543.72 1296.03 1543.53 Q1296.83 1543.3 1297.86 1542.72 Q1298.93 1542.11 1299.86 1541.21 Q1300.83 1540.28 1301.76 1538.7 Q1302.69 1537.12 1303.31 1535.09 Q1303.5 1534.38 1304.14 1534.38 Q1304.95 1534.38 1304.95 1535.03 Q1304.95 1535.58 1304.5 1536.73 Q1304.08 1537.86 1303.14 1539.34 Q1302.24 1540.79 1301.05 1542.11 Q1299.86 1543.4 1298.09 1544.3 Q1296.32 1545.2 1294.38 1545.2 Q1291.62 1545.2 1289.78 1543.72 Q1287.94 1542.24 1287.27 1540.18 Q1287.11 1540.47 1286.88 1540.86 Q1286.66 1541.24 1285.98 1542.11 Q1285.34 1542.95 1284.59 1543.59 Q1283.85 1544.21 1282.69 1544.69 Q1281.57 1545.2 1280.34 1545.2 Q1278.8 1545.2 1277.41 1544.75 Q1276.06 1544.3 1275.09 1543.27 Q1274.13 1542.24 1274.13 1540.82 Q1274.13 1539.25 1275.19 1538.15 Q1276.29 1537.02 1277.77 1537.02 Q1278.7 1537.02 1279.44 1537.57 Q1280.21 1538.12 1280.21 1539.31 Q1280.21 1540.63 1279.31 1541.63 Q1278.41 1542.63 1277.12 1542.89 Q1278.44 1543.72 1280.41 1543.72 Q1282.53 1543.72 1284.21 1541.86 Q1285.88 1539.99 1286.69 1536.86 Q1288.68 1529.36 1289.46 1526.01 Q1290.23 1522.63 1290.23 1521.18 Q1290.23 1519.83 1289.88 1518.89 Q1289.52 1517.96 1288.91 1517.54 Q1288.33 1517.09 1287.78 1516.93 Q1287.27 1516.77 1286.69 1516.77 Q1285.72 1516.77 1284.63 1517.15 Q1283.56 1517.54 1282.28 1518.44 Q1281.02 1519.31 1279.83 1521.11 Q1278.64 1522.92 1277.83 1525.4 Q1277.67 1526.14 1276.96 1526.14 Q1276.19 1526.11 1276.19 1525.46 Q1276.19 1524.91 1276.61 1523.79 Q1277.06 1522.63 1277.96 1521.18 Q1278.89 1519.73 1280.09 1518.44 Q1281.31 1517.12 1283.08 1516.22 Q1284.88 1515.32 1286.82 1515.32 Q1287.69 1515.32 1288.52 1515.51 Q1289.39 1515.67 1290.42 1516.15 Q1291.49 1516.64 1292.42 1517.7 Q1293.35 1518.76 1293.93 1520.31 Q1294.32 1519.57 1294.84 1518.86 Q1295.38 1518.15 1296.22 1517.28 Q1297.09 1516.38 1298.28 1515.87 Q1299.51 1515.32 1300.86 1515.32 Q1302.18 1515.32 1303.47 1515.67 Q1304.76 1515.99 1305.85 1517.06 Q1306.98 1518.09 1306.98 1519.67 Z" fill="#000000" fill-rule="nonzero" fill-opacity="1" /><path clip-path="url(#clip410)" d="M1313.7 1537.12 L1313.7 1535.68 Q1319.24 1535.68 1322.11 1532.72 Q1322.9 1532.72 1323.03 1532.91 Q1323.17 1533.09 1323.17 1533.92 L1323.17 1559.82 Q1323.17 1561.2 1323.84 1561.63 Q1324.52 1562.05 1327.47 1562.05 L1328.94 1562.05 L1328.94 1563.47 Q1327.32 1563.34 1321.45 1563.34 Q1315.59 1563.34 1313.99 1563.47 L1313.99 1562.05 L1315.46 1562.05 Q1318.37 1562.05 1319.06 1561.65 Q1319.76 1561.22 1319.76 1559.82 L1319.76 1535.9 Q1317.35 1537.12 1313.7 1537.12 Z" fill="#000000" fill-rule="nonzero" fill-opacity="1" /><polyline clip-path="url(#clip410)" style="stroke:#000000; stroke-linecap:round; stroke-linejoin:round; stroke-width:4; stroke-opacity:1; fill:none" points="257.204,1423.18 257.204,123.472 "/>
<polyline clip-path="url(#clip410)" style="stroke:#000000; stroke-linecap:round; stroke-linejoin:round; stroke-width:4; stroke-opacity:1; fill:none" points="257.204,1244.5 276.102,1244.5 "/>
<polyline clip-path="url(#clip410)" style="stroke:#000000; stroke-linecap:round; stroke-linejoin:round; stroke-width:4; stroke-opacity:1; fill:none" points="257.204,1054.6 276.102,1054.6 "/>
<polyline clip-path="url(#clip410)" style="stroke:#000000; stroke-linecap:round; stroke-linejoin:round; stroke-width:4; stroke-opacity:1; fill:none" points="257.204,864.7 276.102,864.7 "/>
<polyline clip-path="url(#clip410)" style="stroke:#000000; stroke-linecap:round; stroke-linejoin:round; stroke-width:4; stroke-opacity:1; fill:none" points="257.204,674.802 276.102,674.802 "/>
<polyline clip-path="url(#clip410)" style="stroke:#000000; stroke-linecap:round; stroke-linejoin:round; stroke-width:4; stroke-opacity:1; fill:none" points="257.204,484.904 276.102,484.904 "/>
<polyline clip-path="url(#clip410)" style="stroke:#000000; stroke-linecap:round; stroke-linejoin:round; stroke-width:4; stroke-opacity:1; fill:none" points="257.204,295.006 276.102,295.006 "/>
<path clip-path="url(#clip410)" d="M115.256 1244.95 L144.931 1244.95 L144.931 1248.88 L115.256 1248.88 L115.256 1244.95 Z" fill="#000000" fill-rule="nonzero" fill-opacity="1" /><path clip-path="url(#clip410)" d="M155.834 1257.84 L163.473 1257.84 L163.473 1231.48 L155.163 1233.14 L155.163 1228.88 L163.427 1227.22 L168.102 1227.22 L168.102 1257.84 L175.741 1257.84 L175.741 1261.78 L155.834 1261.78 L155.834 1257.84 Z" fill="#000000" fill-rule="nonzero" fill-opacity="1" /><path clip-path="url(#clip410)" d="M185.186 1255.9 L190.07 1255.9 L190.07 1261.78 L185.186 1261.78 L185.186 1255.9 Z" fill="#000000" fill-rule="nonzero" fill-opacity="1" /><path clip-path="url(#clip410)" d="M200.301 1227.22 L218.658 1227.22 L218.658 1231.15 L204.584 1231.15 L204.584 1239.62 Q205.602 1239.28 206.621 1239.11 Q207.639 1238.93 208.658 1238.93 Q214.445 1238.93 217.824 1242.1 Q221.204 1245.27 221.204 1250.69 Q221.204 1256.27 217.732 1259.37 Q214.26 1262.45 207.94 1262.45 Q205.764 1262.45 203.496 1262.08 Q201.25 1261.71 198.843 1260.97 L198.843 1256.27 Q200.926 1257.4 203.149 1257.96 Q205.371 1258.51 207.848 1258.51 Q211.852 1258.51 214.19 1256.41 Q216.528 1254.3 216.528 1250.69 Q216.528 1247.08 214.19 1244.97 Q211.852 1242.86 207.848 1242.86 Q205.973 1242.86 204.098 1243.28 Q202.246 1243.7 200.301 1244.58 L200.301 1227.22 Z" fill="#000000" fill-rule="nonzero" fill-opacity="1" /><path clip-path="url(#clip410)" d="M114.26 1055.05 L143.936 1055.05 L143.936 1058.98 L114.26 1058.98 L114.26 1055.05 Z" fill="#000000" fill-rule="nonzero" fill-opacity="1" /><path clip-path="url(#clip410)" d="M154.839 1067.94 L162.477 1067.94 L162.477 1041.58 L154.167 1043.24 L154.167 1038.99 L162.431 1037.32 L167.107 1037.32 L167.107 1067.94 L174.746 1067.94 L174.746 1071.88 L154.839 1071.88 L154.839 1067.94 Z" fill="#000000" fill-rule="nonzero" fill-opacity="1" /><path clip-path="url(#clip410)" d="M184.19 1066 L189.075 1066 L189.075 1071.88 L184.19 1071.88 L184.19 1066 Z" fill="#000000" fill-rule="nonzero" fill-opacity="1" /><path clip-path="url(#clip410)" d="M209.26 1040.4 Q205.649 1040.4 203.82 1043.96 Q202.014 1047.5 202.014 1054.63 Q202.014 1061.74 203.82 1065.3 Q205.649 1068.85 209.26 1068.85 Q212.894 1068.85 214.699 1065.3 Q216.528 1061.74 216.528 1054.63 Q216.528 1047.5 214.699 1043.96 Q212.894 1040.4 209.26 1040.4 M209.26 1036.69 Q215.07 1036.69 218.125 1041.3 Q221.204 1045.88 221.204 1054.63 Q221.204 1063.36 218.125 1067.97 Q215.07 1072.55 209.26 1072.55 Q203.449 1072.55 200.371 1067.97 Q197.315 1063.36 197.315 1054.63 Q197.315 1045.88 200.371 1041.3 Q203.449 1036.69 209.26 1036.69 Z" fill="#000000" fill-rule="nonzero" fill-opacity="1" /><path clip-path="url(#clip410)" d="M115.256 865.152 L144.931 865.152 L144.931 869.087 L115.256 869.087 L115.256 865.152 Z" fill="#000000" fill-rule="nonzero" fill-opacity="1" /><path clip-path="url(#clip410)" d="M165.024 850.499 Q161.413 850.499 159.584 854.064 Q157.778 857.605 157.778 864.735 Q157.778 871.841 159.584 875.406 Q161.413 878.948 165.024 878.948 Q168.658 878.948 170.464 875.406 Q172.292 871.841 172.292 864.735 Q172.292 857.605 170.464 854.064 Q168.658 850.499 165.024 850.499 M165.024 846.795 Q170.834 846.795 173.889 851.402 Q176.968 855.985 176.968 864.735 Q176.968 873.462 173.889 878.068 Q170.834 882.651 165.024 882.651 Q159.214 882.651 156.135 878.068 Q153.079 873.462 153.079 864.735 Q153.079 855.985 156.135 851.402 Q159.214 846.795 165.024 846.795 Z" fill="#000000" fill-rule="nonzero" fill-opacity="1" /><path clip-path="url(#clip410)" d="M185.186 876.101 L190.07 876.101 L190.07 881.98 L185.186 881.98 L185.186 876.101 Z" fill="#000000" fill-rule="nonzero" fill-opacity="1" /><path clip-path="url(#clip410)" d="M200.301 847.42 L218.658 847.42 L218.658 851.355 L204.584 851.355 L204.584 859.828 Q205.602 859.48 206.621 859.318 Q207.639 859.133 208.658 859.133 Q214.445 859.133 217.824 862.304 Q221.204 865.476 221.204 870.892 Q221.204 876.471 217.732 879.573 Q214.26 882.651 207.94 882.651 Q205.764 882.651 203.496 882.281 Q201.25 881.911 198.843 881.17 L198.843 876.471 Q200.926 877.605 203.149 878.161 Q205.371 878.716 207.848 878.716 Q211.852 878.716 214.19 876.61 Q216.528 874.503 216.528 870.892 Q216.528 867.281 214.19 865.175 Q211.852 863.068 207.848 863.068 Q205.973 863.068 204.098 863.485 Q202.246 863.902 200.301 864.781 L200.301 847.42 Z" fill="#000000" fill-rule="nonzero" fill-opacity="1" /><path clip-path="url(#clip410)" d="M164.028 660.601 Q160.417 660.601 158.589 664.165 Q156.783 667.707 156.783 674.837 Q156.783 681.943 158.589 685.508 Q160.417 689.05 164.028 689.05 Q167.663 689.05 169.468 685.508 Q171.297 681.943 171.297 674.837 Q171.297 667.707 169.468 664.165 Q167.663 660.601 164.028 660.601 M164.028 656.897 Q169.839 656.897 172.894 661.503 Q175.973 666.087 175.973 674.837 Q175.973 683.564 172.894 688.17 Q169.839 692.753 164.028 692.753 Q158.218 692.753 155.14 688.17 Q152.084 683.564 152.084 674.837 Q152.084 666.087 155.14 661.503 Q158.218 656.897 164.028 656.897 Z" fill="#000000" fill-rule="nonzero" fill-opacity="1" /><path clip-path="url(#clip410)" d="M184.19 686.202 L189.075 686.202 L189.075 692.082 L184.19 692.082 L184.19 686.202 Z" fill="#000000" fill-rule="nonzero" fill-opacity="1" /><path clip-path="url(#clip410)" d="M209.26 660.601 Q205.649 660.601 203.82 664.165 Q202.014 667.707 202.014 674.837 Q202.014 681.943 203.82 685.508 Q205.649 689.05 209.26 689.05 Q212.894 689.05 214.699 685.508 Q216.528 681.943 216.528 674.837 Q216.528 667.707 214.699 664.165 Q212.894 660.601 209.26 660.601 M209.26 656.897 Q215.07 656.897 218.125 661.503 Q221.204 666.087 221.204 674.837 Q221.204 683.564 218.125 688.17 Q215.07 692.753 209.26 692.753 Q203.449 692.753 200.371 688.17 Q197.315 683.564 197.315 674.837 Q197.315 666.087 200.371 661.503 Q203.449 656.897 209.26 656.897 Z" fill="#000000" fill-rule="nonzero" fill-opacity="1" /><path clip-path="url(#clip410)" d="M165.024 470.702 Q161.413 470.702 159.584 474.267 Q157.778 477.809 157.778 484.938 Q157.778 492.045 159.584 495.61 Q161.413 499.151 165.024 499.151 Q168.658 499.151 170.464 495.61 Q172.292 492.045 172.292 484.938 Q172.292 477.809 170.464 474.267 Q168.658 470.702 165.024 470.702 M165.024 466.999 Q170.834 466.999 173.889 471.605 Q176.968 476.189 176.968 484.938 Q176.968 493.665 173.889 498.272 Q170.834 502.855 165.024 502.855 Q159.214 502.855 156.135 498.272 Q153.079 493.665 153.079 484.938 Q153.079 476.189 156.135 471.605 Q159.214 466.999 165.024 466.999 Z" fill="#000000" fill-rule="nonzero" fill-opacity="1" /><path clip-path="url(#clip410)" d="M185.186 496.304 L190.07 496.304 L190.07 502.184 L185.186 502.184 L185.186 496.304 Z" fill="#000000" fill-rule="nonzero" fill-opacity="1" /><path clip-path="url(#clip410)" d="M200.301 467.624 L218.658 467.624 L218.658 471.559 L204.584 471.559 L204.584 480.031 Q205.602 479.684 206.621 479.522 Q207.639 479.337 208.658 479.337 Q214.445 479.337 217.824 482.508 Q221.204 485.679 221.204 491.096 Q221.204 496.675 217.732 499.776 Q214.26 502.855 207.94 502.855 Q205.764 502.855 203.496 502.485 Q201.25 502.114 198.843 501.374 L198.843 496.675 Q200.926 497.809 203.149 498.364 Q205.371 498.92 207.848 498.92 Q211.852 498.92 214.19 496.813 Q216.528 494.707 216.528 491.096 Q216.528 487.485 214.19 485.378 Q211.852 483.272 207.848 483.272 Q205.973 483.272 204.098 483.688 Q202.246 484.105 200.301 484.985 L200.301 467.624 Z" fill="#000000" fill-rule="nonzero" fill-opacity="1" /><path clip-path="url(#clip410)" d="M154.839 308.35 L162.477 308.35 L162.477 281.985 L154.167 283.651 L154.167 279.392 L162.431 277.726 L167.107 277.726 L167.107 308.35 L174.746 308.35 L174.746 312.286 L154.839 312.286 L154.839 308.35 Z" fill="#000000" fill-rule="nonzero" fill-opacity="1" /><path clip-path="url(#clip410)" d="M184.19 306.406 L189.075 306.406 L189.075 312.286 L184.19 312.286 L184.19 306.406 Z" fill="#000000" fill-rule="nonzero" fill-opacity="1" /><path clip-path="url(#clip410)" d="M209.26 280.804 Q205.649 280.804 203.82 284.369 Q202.014 287.911 202.014 295.04 Q202.014 302.147 203.82 305.712 Q205.649 309.253 209.26 309.253 Q212.894 309.253 214.699 305.712 Q216.528 302.147 216.528 295.04 Q216.528 287.911 214.699 284.369 Q212.894 280.804 209.26 280.804 M209.26 277.101 Q215.07 277.101 218.125 281.707 Q221.204 286.29 221.204 295.04 Q221.204 303.767 218.125 308.374 Q215.07 312.957 209.26 312.957 Q203.449 312.957 200.371 308.374 Q197.315 303.767 197.315 295.04 Q197.315 286.29 200.371 281.707 Q203.449 277.101 209.26 277.101 Z" fill="#000000" fill-rule="nonzero" fill-opacity="1" /><path clip-path="url(#clip410)" d="M29.8817 772.909 Q31.6852 772.909 32.7158 774.036 Q33.7142 775.163 33.7142 776.452 Q33.7142 777.675 33.0056 778.32 Q32.2971 778.964 31.3954 778.964 Q30.1715 778.964 29.1087 778.062 Q28.0459 777.16 27.8205 775.808 Q26.9831 777.128 26.9831 779.092 Q26.9831 780.381 27.6595 781.508 Q28.3358 782.603 29.2054 783.279 Q30.0749 783.923 31.3309 784.503 Q32.5548 785.051 33.2955 785.276 Q34.004 785.469 34.777 785.63 L43.7946 787.885 Q48.078 788.98 49.5917 788.98 Q51.4596 788.98 52.7156 788.078 Q53.9395 787.176 53.9395 785.373 Q53.9395 784.664 53.7462 783.859 Q53.5208 783.054 52.9411 782.023 Q52.3292 780.96 51.4274 780.026 Q50.4934 779.06 48.9153 778.126 Q47.3373 777.192 45.3083 776.58 Q44.5998 776.387 44.5998 775.743 Q44.5998 774.938 45.2439 774.938 Q45.7914 774.938 46.9508 775.389 Q48.078 775.808 49.5595 776.741 Q51.0087 777.643 52.3292 778.835 Q53.6174 780.026 54.5192 781.798 Q55.4209 783.569 55.4209 785.501 Q55.4209 788.271 53.9395 790.107 Q52.458 791.943 50.3968 792.619 Q50.6867 792.78 51.0731 793.005 Q51.4596 793.231 52.3292 793.907 Q53.1665 794.551 53.8106 795.292 Q54.4225 796.033 54.9056 797.192 Q55.4209 798.319 55.4209 799.543 Q55.4209 801.089 54.97 802.474 Q54.5192 803.827 53.4886 804.793 Q52.458 805.759 51.0409 805.759 Q49.4628 805.759 48.3678 804.696 Q47.2406 803.601 47.2406 802.12 Q47.2406 801.186 47.7881 800.445 Q48.3356 799.672 49.5273 799.672 Q50.8477 799.672 51.8461 800.574 Q52.8445 801.476 53.1021 802.764 Q53.9395 801.443 53.9395 799.479 Q53.9395 797.353 52.0715 795.679 Q50.2036 794.004 47.0796 793.199 Q39.5756 791.202 36.2262 790.429 Q32.8446 789.656 31.3954 789.656 Q30.0427 789.656 29.1087 790.01 Q28.1748 790.365 27.7561 790.976 Q27.3052 791.556 27.1442 792.104 Q26.9831 792.619 26.9831 793.199 Q26.9831 794.165 27.3696 795.26 Q27.7561 796.323 28.6579 797.611 Q29.5274 798.867 31.3309 800.059 Q33.1345 801.25 35.6143 802.055 Q36.3551 802.216 36.3551 802.925 Q36.3228 803.698 35.6787 803.698 Q35.1312 803.698 34.004 803.279 Q32.8446 802.828 31.3954 801.926 Q29.9461 800.992 28.6579 799.801 Q27.3374 798.577 26.4356 796.806 Q25.5339 795.002 25.5339 793.07 Q25.5339 792.2 25.7271 791.363 Q25.8881 790.493 26.3712 789.463 Q26.8543 788.4 27.9171 787.466 Q28.9799 786.532 30.5258 785.952 Q29.7851 785.566 29.0765 785.051 Q28.368 784.503 27.4984 783.666 Q26.5967 782.796 26.0814 781.605 Q25.5339 780.381 25.5339 779.028 Q25.5339 777.708 25.8881 776.419 Q26.2102 775.131 27.273 774.036 Q28.3036 772.909 29.8817 772.909 Z" fill="#000000" fill-rule="nonzero" fill-opacity="1" /><path clip-path="url(#clip410)" d="M73.6911 766.188 Q72.857 766.188 72.609 766.12 Q72.361 766.03 71.9778 765.669 L62.1035 756.809 Q56.6478 751.962 51.891 751.962 Q48.8024 751.962 46.5931 753.586 Q44.3838 755.186 44.3838 758.139 Q44.3838 760.168 45.6237 761.882 Q46.8636 763.595 49.073 764.384 Q49.0279 764.249 49.0279 763.775 Q49.0279 762.626 49.7493 761.994 Q50.4707 761.341 51.4401 761.341 Q52.68 761.341 53.2887 762.152 Q53.8749 762.941 53.8749 763.73 Q53.8749 764.046 53.8072 764.474 Q53.7396 764.88 53.1084 765.534 Q52.4546 766.188 51.3048 766.188 Q48.081 766.188 45.511 763.753 Q42.941 761.296 42.941 757.553 Q42.941 753.315 45.4659 750.542 Q47.9683 747.747 51.891 747.747 Q53.2662 747.747 54.5286 748.175 Q55.7686 748.581 56.738 749.144 Q57.7074 749.685 59.2629 751.173 Q60.8184 752.661 61.9231 753.856 Q63.0278 755.051 65.3724 757.734 L70.1292 762.626 L70.1292 754.307 Q70.1292 750.249 69.7685 749.933 Q69.1147 749.483 65.6654 748.919 L65.6654 747.747 L73.6911 749.054 L73.6911 766.188 Z" fill="#000000" fill-rule="nonzero" fill-opacity="1" /><path clip-path="url(#clip410)" d="M634.712 16.726 L634.712 24.7063 Q630.054 22.4783 625.922 21.3845 Q621.79 20.2908 617.941 20.2908 Q611.257 20.2908 607.612 22.8834 Q604.006 25.476 604.006 30.256 Q604.006 34.2664 606.396 36.3324 Q608.827 38.3578 615.551 39.6136 L620.493 40.6263 Q629.648 42.3682 633.983 46.7837 Q638.358 51.1587 638.358 58.5313 Q638.358 67.3218 632.444 71.8588 Q626.57 76.3958 615.187 76.3958 Q610.893 76.3958 606.032 75.4236 Q601.211 74.4514 596.026 72.5475 L596.026 64.1216 Q601.009 66.9167 605.789 68.3345 Q610.569 69.7523 615.187 69.7523 Q622.195 69.7523 626.003 66.9977 Q629.811 64.2431 629.811 59.139 Q629.811 54.683 627.056 52.1714 Q624.342 49.6599 618.103 48.4041 L613.121 47.4319 Q603.966 45.609 599.874 41.7201 Q595.783 37.8312 595.783 30.9042 Q595.783 22.8834 601.414 18.2653 Q607.085 13.6473 617.01 13.6473 Q621.263 13.6473 625.679 14.417 Q630.094 15.1867 634.712 16.726 Z" fill="#000000" fill-rule="nonzero" fill-opacity="1" /><path clip-path="url(#clip410)" d="M658.167 16.9691 L658.167 29.8509 L673.52 29.8509 L673.52 35.6437 L658.167 35.6437 L658.167 60.2732 Q658.167 65.823 659.666 67.4028 Q661.205 68.9827 665.864 68.9827 L673.52 68.9827 L673.52 75.2211 L665.864 75.2211 Q657.235 75.2211 653.954 72.0208 Q650.673 68.7801 650.673 60.2732 L650.673 35.6437 L645.204 35.6437 L645.204 29.8509 L650.673 29.8509 L650.673 16.9691 L658.167 16.9691 Z" fill="#000000" fill-rule="nonzero" fill-opacity="1" /><path clip-path="url(#clip410)" d="M683.323 29.8509 L690.777 29.8509 L690.777 75.2211 L683.323 75.2211 L683.323 29.8509 M683.323 12.189 L690.777 12.189 L690.777 21.6276 L683.323 21.6276 L683.323 12.189 Z" fill="#000000" fill-rule="nonzero" fill-opacity="1" /><path clip-path="url(#clip410)" d="M739.023 31.5928 L739.023 38.5604 Q735.863 36.8185 732.663 35.9678 Q729.503 35.0766 726.263 35.0766 Q719.011 35.0766 715.001 39.6946 Q710.991 44.2722 710.991 52.5765 Q710.991 60.8809 715.001 65.4989 Q719.011 70.0764 726.263 70.0764 Q729.503 70.0764 732.663 69.2257 Q735.863 68.3345 739.023 66.5926 L739.023 73.4792 Q735.904 74.9375 732.541 75.6667 Q729.22 76.3958 725.452 76.3958 Q715.204 76.3958 709.168 69.9549 Q703.132 63.5139 703.132 52.5765 Q703.132 41.477 709.208 35.1171 Q715.325 28.7572 725.938 28.7572 Q729.382 28.7572 732.663 29.4864 Q735.944 30.175 739.023 31.5928 Z" fill="#000000" fill-rule="nonzero" fill-opacity="1" /><path clip-path="url(#clip410)" d="M751.702 12.189 L759.196 12.189 L759.196 49.4168 L781.436 29.8509 L790.955 29.8509 L766.893 51.0777 L791.968 75.2211 L782.246 75.2211 L759.196 53.0626 L759.196 75.2211 L751.702 75.2211 L751.702 12.189 Z" fill="#000000" fill-rule="nonzero" fill-opacity="1" /><path clip-path="url(#clip410)" d="M815.95 79.434 Q812.79 87.5358 809.792 90.0069 Q806.795 92.4779 801.771 92.4779 L795.817 92.4779 L795.817 86.2395 L800.192 86.2395 Q803.27 86.2395 804.972 84.7812 Q806.673 83.3229 808.739 77.8947 L810.076 74.4919 L791.725 29.8509 L799.624 29.8509 L813.803 65.3369 L827.981 29.8509 L835.88 29.8509 L815.95 79.434 Z" fill="#000000" fill-rule="nonzero" fill-opacity="1" /><path clip-path="url(#clip410)" d="M869.381 14.7411 L916.898 14.7411 L916.898 20.9795 L878.658 68.3345 L917.83 68.3345 L917.83 75.2211 L868.449 75.2211 L868.449 68.9827 L906.69 21.6276 L869.381 21.6276 L869.381 14.7411 Z" fill="#000000" fill-rule="nonzero" fill-opacity="1" /><path clip-path="url(#clip410)" d="M929.375 29.8509 L936.829 29.8509 L936.829 75.2211 L929.375 75.2211 L929.375 29.8509 M929.375 12.189 L936.829 12.189 L936.829 21.6276 L929.375 21.6276 L929.375 12.189 Z" fill="#000000" fill-rule="nonzero" fill-opacity="1" /><path clip-path="url(#clip410)" d="M982.28 52.0094 Q982.28 43.9076 978.917 39.4516 Q975.596 34.9956 969.56 34.9956 Q963.565 34.9956 960.202 39.4516 Q956.881 43.9076 956.881 52.0094 Q956.881 60.0707 960.202 64.5267 Q963.565 68.9827 969.56 68.9827 Q975.596 68.9827 978.917 64.5267 Q982.28 60.0707 982.28 52.0094 M989.733 69.5903 Q989.733 81.1759 984.589 86.8066 Q979.444 92.4779 968.831 92.4779 Q964.901 92.4779 961.418 91.8703 Q957.934 91.3032 954.653 90.0879 L954.653 82.8368 Q957.934 84.6192 961.134 85.4699 Q964.334 86.3205 967.656 86.3205 Q974.988 86.3205 978.634 82.4722 Q982.28 78.6643 982.28 70.9271 L982.28 67.2408 Q979.971 71.2512 976.365 73.2361 Q972.76 75.2211 967.737 75.2211 Q959.392 75.2211 954.288 68.8611 Q949.184 62.5012 949.184 52.0094 Q949.184 41.477 954.288 35.1171 Q959.392 28.7572 967.737 28.7572 Q972.76 28.7572 976.365 30.7421 Q979.971 32.7271 982.28 36.7375 L982.28 29.8509 L989.733 29.8509 L989.733 69.5903 Z" fill="#000000" fill-rule="nonzero" fill-opacity="1" /><path clip-path="url(#clip410)" d="M1001.32 49.1737 L1023.15 49.1737 L1023.15 55.8172 L1001.32 55.8172 L1001.32 49.1737 Z" fill="#000000" fill-rule="nonzero" fill-opacity="1" /><path clip-path="url(#clip410)" d="M1031.86 14.7411 L1079.38 14.7411 L1079.38 20.9795 L1041.14 68.3345 L1080.31 68.3345 L1080.31 75.2211 L1030.93 75.2211 L1030.93 68.9827 L1069.17 21.6276 L1031.86 21.6276 L1031.86 14.7411 Z" fill="#000000" fill-rule="nonzero" fill-opacity="1" /><path clip-path="url(#clip410)" d="M1112.48 52.4145 Q1103.44 52.4145 1099.96 54.4804 Q1096.47 56.5464 1096.47 61.529 Q1096.47 65.4989 1099.07 67.8484 Q1101.7 70.1574 1106.2 70.1574 Q1112.39 70.1574 1116.12 65.7825 Q1119.89 61.367 1119.89 54.0753 L1119.89 52.4145 L1112.48 52.4145 M1127.34 49.3358 L1127.34 75.2211 L1119.89 75.2211 L1119.89 68.3345 Q1117.34 72.4664 1113.53 74.4514 Q1109.72 76.3958 1104.21 76.3958 Q1097.24 76.3958 1093.11 72.507 Q1089.02 68.5776 1089.02 62.0151 Q1089.02 54.3589 1094.13 50.47 Q1099.27 46.5812 1109.44 46.5812 L1119.89 46.5812 L1119.89 45.852 Q1119.89 40.7074 1116.49 37.9122 Q1113.12 35.0766 1107.01 35.0766 Q1103.12 35.0766 1099.43 36.0083 Q1095.75 36.94 1092.34 38.8034 L1092.34 31.9169 Q1096.43 30.337 1100.28 29.5674 Q1104.13 28.7572 1107.78 28.7572 Q1117.62 28.7572 1122.48 33.8613 Q1127.34 38.9655 1127.34 49.3358 Z" fill="#000000" fill-rule="nonzero" fill-opacity="1" /><path clip-path="url(#clip410)" d="M1172.55 52.0094 Q1172.55 43.9076 1169.19 39.4516 Q1165.87 34.9956 1159.83 34.9956 Q1153.84 34.9956 1150.47 39.4516 Q1147.15 43.9076 1147.15 52.0094 Q1147.15 60.0707 1150.47 64.5267 Q1153.84 68.9827 1159.83 68.9827 Q1165.87 68.9827 1169.19 64.5267 Q1172.55 60.0707 1172.55 52.0094 M1180 69.5903 Q1180 81.1759 1174.86 86.8066 Q1169.72 92.4779 1159.1 92.4779 Q1155.17 92.4779 1151.69 91.8703 Q1148.2 91.3032 1144.92 90.0879 L1144.92 82.8368 Q1148.2 84.6192 1151.4 85.4699 Q1154.61 86.3205 1157.93 86.3205 Q1165.26 86.3205 1168.9 82.4722 Q1172.55 78.6643 1172.55 70.9271 L1172.55 67.2408 Q1170.24 71.2512 1166.64 73.2361 Q1163.03 75.2211 1158.01 75.2211 Q1149.66 75.2211 1144.56 68.8611 Q1139.45 62.5012 1139.45 52.0094 Q1139.45 41.477 1144.56 35.1171 Q1149.66 28.7572 1158.01 28.7572 Q1163.03 28.7572 1166.64 30.7421 Q1170.24 32.7271 1172.55 36.7375 L1172.55 29.8509 L1180 29.8509 L1180 69.5903 Z" fill="#000000" fill-rule="nonzero" fill-opacity="1" /><path clip-path="url(#clip410)" d="M1258.31 16.726 L1258.31 24.7063 Q1253.65 22.4783 1249.52 21.3845 Q1245.39 20.2908 1241.54 20.2908 Q1234.85 20.2908 1231.21 22.8834 Q1227.6 25.476 1227.6 30.256 Q1227.6 34.2664 1229.99 36.3324 Q1232.42 38.3578 1239.15 39.6136 L1244.09 40.6263 Q1253.24 42.3682 1257.58 46.7837 Q1261.95 51.1587 1261.95 58.5313 Q1261.95 67.3218 1256.04 71.8588 Q1250.17 76.3958 1238.78 76.3958 Q1234.49 76.3958 1229.63 75.4236 Q1224.81 74.4514 1219.62 72.5475 L1219.62 64.1216 Q1224.6 66.9167 1229.38 68.3345 Q1234.16 69.7523 1238.78 69.7523 Q1245.79 69.7523 1249.6 66.9977 Q1253.41 64.2431 1253.41 59.139 Q1253.41 54.683 1250.65 52.1714 Q1247.94 49.6599 1241.7 48.4041 L1236.72 47.4319 Q1227.56 45.609 1223.47 41.7201 Q1219.38 37.8312 1219.38 30.9042 Q1219.38 22.8834 1225.01 18.2653 Q1230.68 13.6473 1240.61 13.6473 Q1244.86 13.6473 1249.27 14.417 Q1253.69 15.1867 1258.31 16.726 Z" fill="#000000" fill-rule="nonzero" fill-opacity="1" /><path clip-path="url(#clip410)" d="M1295.01 52.4145 Q1285.98 52.4145 1282.49 54.4804 Q1279.01 56.5464 1279.01 61.529 Q1279.01 65.4989 1281.6 67.8484 Q1284.23 70.1574 1288.73 70.1574 Q1294.93 70.1574 1298.66 65.7825 Q1302.42 61.367 1302.42 54.0753 L1302.42 52.4145 L1295.01 52.4145 M1309.88 49.3358 L1309.88 75.2211 L1302.42 75.2211 L1302.42 68.3345 Q1299.87 72.4664 1296.06 74.4514 Q1292.25 76.3958 1286.75 76.3958 Q1279.78 76.3958 1275.65 72.507 Q1271.55 68.5776 1271.55 62.0151 Q1271.55 54.3589 1276.66 50.47 Q1281.8 46.5812 1291.97 46.5812 L1302.42 46.5812 L1302.42 45.852 Q1302.42 40.7074 1299.02 37.9122 Q1295.66 35.0766 1289.54 35.0766 Q1285.65 35.0766 1281.97 36.0083 Q1278.28 36.94 1274.88 38.8034 L1274.88 31.9169 Q1278.97 30.337 1282.82 29.5674 Q1286.66 28.7572 1290.31 28.7572 Q1300.15 28.7572 1305.02 33.8613 Q1309.88 38.9655 1309.88 49.3358 Z" fill="#000000" fill-rule="nonzero" fill-opacity="1" /><path clip-path="url(#clip410)" d="M1360.55 38.5604 Q1363.35 33.5373 1367.24 31.1472 Q1371.13 28.7572 1376.39 28.7572 Q1383.48 28.7572 1387.33 33.7398 Q1391.18 38.6819 1391.18 47.8369 L1391.18 75.2211 L1383.68 75.2211 L1383.68 48.08 Q1383.68 41.558 1381.37 38.3983 Q1379.07 35.2386 1374.33 35.2386 Q1368.53 35.2386 1365.17 39.087 Q1361.81 42.9354 1361.81 49.5788 L1361.81 75.2211 L1354.31 75.2211 L1354.31 48.08 Q1354.31 41.5175 1352.01 38.3983 Q1349.7 35.2386 1344.88 35.2386 Q1339.16 35.2386 1335.8 39.1275 Q1332.44 42.9759 1332.44 49.5788 L1332.44 75.2211 L1324.95 75.2211 L1324.95 29.8509 L1332.44 29.8509 L1332.44 36.8995 Q1334.99 32.7271 1338.56 30.7421 Q1342.12 28.7572 1347.02 28.7572 Q1351.97 28.7572 1355.41 31.2688 Q1358.89 33.7803 1360.55 38.5604 Z" fill="#000000" fill-rule="nonzero" fill-opacity="1" /><path clip-path="url(#clip410)" d="M1413.26 68.4155 L1413.26 92.4779 L1405.76 92.4779 L1405.76 29.8509 L1413.26 29.8509 L1413.26 36.7375 Q1415.6 32.6866 1419.17 30.7421 Q1422.78 28.7572 1427.76 28.7572 Q1436.02 28.7572 1441.17 35.3197 Q1446.35 41.8821 1446.35 52.5765 Q1446.35 63.2709 1441.17 69.8334 Q1436.02 76.3958 1427.76 76.3958 Q1422.78 76.3958 1419.17 74.4514 Q1415.6 72.4664 1413.26 68.4155 M1438.61 52.5765 Q1438.61 44.3532 1435.21 39.6946 Q1431.85 34.9956 1425.93 34.9956 Q1420.02 34.9956 1416.62 39.6946 Q1413.26 44.3532 1413.26 52.5765 Q1413.26 60.7998 1416.62 65.4989 Q1420.02 70.1574 1425.93 70.1574 Q1431.85 70.1574 1435.21 65.4989 Q1438.61 60.7998 1438.61 52.5765 Z" fill="#000000" fill-rule="nonzero" fill-opacity="1" /><path clip-path="url(#clip410)" d="M1458.71 12.189 L1466.16 12.189 L1466.16 75.2211 L1458.71 75.2211 L1458.71 12.189 Z" fill="#000000" fill-rule="nonzero" fill-opacity="1" /><path clip-path="url(#clip410)" d="M1520.56 50.6726 L1520.56 54.3184 L1486.29 54.3184 Q1486.78 62.0151 1490.91 66.066 Q1495.08 70.0764 1502.5 70.0764 Q1506.79 70.0764 1510.8 69.0232 Q1514.85 67.9699 1518.82 65.8635 L1518.82 72.912 Q1514.81 74.6134 1510.6 75.5046 Q1506.39 76.3958 1502.05 76.3958 Q1491.19 76.3958 1484.83 70.0764 Q1478.52 63.757 1478.52 52.9816 Q1478.52 41.8416 1484.51 35.3197 Q1490.55 28.7572 1500.75 28.7572 Q1509.91 28.7572 1515.22 34.6715 Q1520.56 40.5453 1520.56 50.6726 M1513.11 48.4851 Q1513.03 42.3682 1509.67 38.7224 Q1506.35 35.0766 1500.84 35.0766 Q1494.6 35.0766 1490.83 38.6009 Q1487.1 42.1252 1486.54 48.5256 L1513.11 48.4851 Z" fill="#000000" fill-rule="nonzero" fill-opacity="1" /><path clip-path="url(#clip410)" d="M1559.09 36.8185 Q1557.83 36.0893 1556.33 35.7653 Q1554.88 35.4007 1553.09 35.4007 Q1546.77 35.4007 1543.37 39.5326 Q1540.01 43.624 1540.01 51.3207 L1540.01 75.2211 L1532.51 75.2211 L1532.51 29.8509 L1540.01 29.8509 L1540.01 36.8995 Q1542.36 32.7676 1546.13 30.7826 Q1549.89 28.7572 1555.28 28.7572 Q1556.05 28.7572 1556.98 28.8787 Q1557.91 28.9597 1559.05 29.1623 L1559.09 36.8185 Z" fill="#000000" fill-rule="nonzero" fill-opacity="1" /><path clip-path="url(#clip410)" d="M1626.65 63.2112 Q1625.63 68.2529 1623.54 71.778 Q1620.96 76.1638 1617.02 76.1638 Q1613.7 76.1638 1611.49 73.8684 Q1609.27 71.532 1609.27 67.843 Q1609.27 66.7363 1609.72 64.8918 Q1609.89 64.072 1609.89 63.0472 Q1609.89 56.407 1595.5 55.9151 Q1594.31 60.6289 1593.49 63.826 Q1592.71 66.9822 1592.47 67.925 Q1592.22 68.8677 1592.02 69.6465 Q1591.85 70.4253 1591.57 71.45 Q1591.16 73.1306 1590.87 73.9504 Q1590.58 74.7702 1589.8 75.467 Q1589.07 76.1638 1587.88 76.1638 Q1586.85 76.1638 1586.16 75.549 Q1585.46 74.9341 1585.46 73.8684 Q1585.46 73.1306 1585.79 71.9419 L1593.49 41.159 Q1593.7 40.2982 1594.11 39.6834 Q1594.52 39.0685 1594.89 38.7816 Q1595.3 38.4947 1595.79 38.3307 Q1596.28 38.1668 1596.49 38.1668 Q1596.69 38.1258 1596.85 38.1258 Q1597.96 38.1258 1598.62 38.7406 Q1599.31 39.3145 1599.31 40.3802 Q1599.31 40.5441 1599.03 41.6918 Q1598.78 42.7985 1598.37 44.4791 Q1597.96 46.1597 1597.8 46.9385 L1596.12 53.4967 Q1598.45 52.7179 1600.54 51.3243 Q1602.67 49.9307 1606.86 46.3236 Q1608.78 44.725 1609.93 43.8233 Q1611.12 42.8805 1613.09 41.6099 Q1615.05 40.2982 1616.94 39.6834 Q1618.82 39.0275 1620.63 39.0275 Q1622.02 39.0275 1622.84 39.6834 Q1623.66 40.2982 1623.83 40.872 Q1623.99 41.4049 1623.99 41.9788 Q1623.99 43.6593 1622.68 45.0939 Q1621.37 46.5286 1619.44 46.5286 Q1617.72 46.5286 1616.98 45.5858 Q1616.24 44.6431 1616.24 43.5773 Q1616.24 42.7576 1616.65 41.7328 Q1614.36 42.7166 1612.39 44.1512 Q1610.42 45.5448 1607.02 48.4551 Q1602.18 52.595 1599.31 54.1526 Q1600.95 54.1936 1602.18 54.3165 Q1603.45 54.3985 1605.59 54.6854 Q1607.72 54.9724 1609.27 55.5872 Q1610.83 56.161 1612.35 57.0628 Q1613.91 57.9646 1614.73 59.4402 Q1615.59 60.9158 1615.59 62.8013 Q1615.59 63.7031 1615.18 65.5476 Q1614.48 68.5808 1614.48 70.2614 Q1614.48 72.3928 1615.14 73.3356 Q1615.83 74.2783 1617.19 74.2783 Q1619.77 74.2783 1621.41 71.614 Q1623.09 68.9087 1624.48 63.908 Q1624.69 62.9653 1624.89 62.6783 Q1625.1 62.3914 1625.67 62.3914 Q1626.65 62.3914 1626.65 63.2112 Z" fill="#000000" fill-rule="nonzero" fill-opacity="1" /><path clip-path="url(#clip410)" d="M1656.61 62.4734 Q1656.69 61.4487 1658.29 61.4487 L1709.73 61.4487 Q1712.15 61.4487 1712.19 62.3914 Q1712.19 63.4162 1709.9 63.3752 L1658.87 63.3752 Q1656.61 63.4162 1656.61 62.4734 M1656.61 46.0777 Q1656.61 45.053 1658.38 45.0939 L1709.65 45.0939 Q1712.15 45.0939 1712.19 46.0777 Q1712.19 47.0204 1710.06 47.0204 L1658.29 47.0204 Q1656.61 47.0204 1656.61 46.0777 Z" fill="#000000" fill-rule="nonzero" fill-opacity="1" /><path clip-path="url(#clip410)" d="M1744.57 96.2076 L1744.57 12.2615 L1757.24 12.2615 L1757.24 14.188 L1750.19 14.188 L1750.19 94.2811 L1757.24 94.2811 L1757.24 96.2076 L1744.57 96.2076 Z" fill="#000000" fill-rule="nonzero" fill-opacity="1" /><path clip-path="url(#clip410)" d="M1760.62 48.3731 Q1760.62 36.0353 1763.73 29.3131 Q1768.08 19.3117 1778.32 19.3117 Q1780.5 19.3117 1782.75 19.9265 Q1785.05 20.5004 1787.91 22.7548 Q1790.82 25.0092 1792.59 28.6982 Q1795.95 35.8304 1795.95 48.3731 Q1795.95 60.6289 1792.83 67.3101 Q1788.28 77.0656 1778.24 77.0656 Q1774.47 77.0656 1770.62 75.1391 Q1766.8 73.2126 1764.39 68.5808 Q1760.62 61.6536 1760.62 48.3731 M1767.58 47.3484 Q1767.58 60.014 1768.49 65.0557 Q1769.51 70.5073 1772.3 72.8847 Q1775.13 75.2211 1778.24 75.2211 Q1781.6 75.2211 1784.39 72.7207 Q1787.22 70.1794 1788.08 64.7278 Q1789.02 59.3582 1788.98 47.3484 Q1788.98 35.6664 1788.16 30.9936 Q1787.05 25.5421 1784.1 23.3696 Q1781.19 21.1562 1778.24 21.1562 Q1777.13 21.1562 1775.95 21.4841 Q1774.8 21.812 1773.12 22.7548 Q1771.44 23.6975 1770.13 26.0339 Q1768.85 28.3703 1768.24 31.8954 Q1767.58 36.4452 1767.58 47.3484 Z" fill="#000000" fill-rule="nonzero" fill-opacity="1" /><path clip-path="url(#clip410)" d="M1803.46 73.8684 Q1802.19 72.5158 1802.19 70.7532 Q1802.19 68.9907 1803.46 67.72 Q1804.73 66.4084 1806.65 66.4084 Q1808.5 66.4084 1809.73 67.638 Q1811 68.8267 1811 70.7942 Q1811 72.7207 1809.65 73.9914 Q1808.33 75.2211 1806.65 75.2211 Q1804.73 75.2211 1803.46 73.8684 Z" fill="#000000" fill-rule="nonzero" fill-opacity="1" /><path clip-path="url(#clip410)" d="M1816.79 27.3046 L1816.79 24.6813 Q1826.87 24.6813 1832.07 19.3117 Q1833.51 19.3117 1833.75 19.6396 Q1834 19.9675 1834 21.4841 L1834 68.5808 Q1834 71.0811 1835.23 71.8599 Q1836.46 72.6387 1841.83 72.6387 L1844.49 72.6387 L1844.49 75.2211 Q1841.54 74.9751 1830.89 74.9751 Q1820.23 74.9751 1817.32 75.2211 L1817.32 72.6387 L1819.98 72.6387 Q1825.27 72.6387 1826.54 71.9009 Q1827.81 71.1221 1827.81 68.5808 L1827.81 25.0912 Q1823.43 27.3046 1816.79 27.3046 Z" fill="#000000" fill-rule="nonzero" fill-opacity="1" /><path clip-path="url(#clip410)" d="M1859.54 73.8684 Q1858.36 72.5158 1858.36 70.7532 Q1858.36 68.9907 1859.5 67.679 Q1860.69 66.3264 1862.82 66.3264 Q1865.32 66.3264 1866.76 68.7448 Q1868.19 71.1221 1868.19 75.1391 Q1868.19 79.4839 1866.43 83.5009 Q1864.67 87.5588 1862.95 89.4853 Q1861.22 91.4118 1860.53 91.4118 Q1859.71 91.4118 1859.71 90.5101 Q1859.71 90.1821 1860.28 89.5673 Q1866.31 83.091 1866.35 75.1391 Q1866.35 73.8684 1866.18 73.8684 L1865.98 74.0324 Q1864.54 75.2211 1862.82 75.2211 Q1860.73 75.2211 1859.54 73.8684 Z" fill="#000000" fill-rule="nonzero" fill-opacity="1" /><path clip-path="url(#clip410)" d="M1894.68 27.3046 L1894.68 24.6813 Q1904.77 24.6813 1909.97 19.3117 Q1911.41 19.3117 1911.65 19.6396 Q1911.9 19.9675 1911.9 21.4841 L1911.9 68.5808 Q1911.9 71.0811 1913.13 71.8599 Q1914.36 72.6387 1919.73 72.6387 L1922.39 72.6387 L1922.39 75.2211 Q1919.44 74.9751 1908.78 74.9751 Q1898.13 74.9751 1895.21 75.2211 L1895.21 72.6387 L1897.88 72.6387 Q1903.17 72.6387 1904.44 71.9009 Q1905.71 71.1221 1905.71 68.5808 L1905.71 25.0912 Q1901.32 27.3046 1894.68 27.3046 Z" fill="#000000" fill-rule="nonzero" fill-opacity="1" /><path clip-path="url(#clip410)" d="M1929.02 73.8684 Q1927.75 72.5158 1927.75 70.7532 Q1927.75 68.9907 1929.02 67.72 Q1930.29 66.4084 1932.22 66.4084 Q1934.06 66.4084 1935.29 67.638 Q1936.57 68.8267 1936.57 70.7942 Q1936.57 72.7207 1935.21 73.9914 Q1933.9 75.2211 1932.22 75.2211 Q1930.29 75.2211 1929.02 73.8684 Z" fill="#000000" fill-rule="nonzero" fill-opacity="1" /><path clip-path="url(#clip410)" d="M1950.85 61.6946 Q1950.85 59.1943 1952.2 58.2515 Q1953.56 57.2678 1954.99 57.2678 Q1956.92 57.2678 1958.02 58.4974 Q1959.17 59.6861 1959.17 61.3667 Q1959.17 63.0472 1958.02 64.2769 Q1956.92 65.4656 1954.99 65.4656 Q1954.05 65.4656 1953.56 65.3017 Q1954.66 69.1546 1958.02 71.9419 Q1961.43 74.7292 1965.89 74.7292 Q1971.51 74.7292 1974.87 69.2776 Q1976.88 65.7525 1976.88 57.7596 Q1976.88 50.7095 1975.36 47.1844 Q1973.03 41.8148 1968.23 41.8148 Q1961.43 41.8148 1957.41 47.6763 Q1956.92 48.4141 1956.34 48.4551 Q1955.52 48.4551 1955.32 48.0042 Q1955.16 47.5123 1955.16 46.2416 L1955.16 21.4021 Q1955.16 19.3937 1955.98 19.3937 Q1956.3 19.3937 1957 19.6396 Q1962.29 21.976 1968.15 22.017 Q1974.17 22.017 1979.59 19.5576 Q1979.99 19.3117 1980.24 19.3117 Q1981.06 19.3117 1981.1 20.2544 Q1981.1 20.5824 1980.4 21.5661 Q1979.75 22.5089 1978.31 23.7795 Q1976.88 25.0092 1975.04 26.1979 Q1973.19 27.3866 1970.49 28.2064 Q1967.82 28.9852 1964.87 28.9852 Q1961.34 28.9852 1957.74 27.8784 L1957.74 44.2332 Q1962.08 39.9703 1968.39 39.9703 Q1975.12 39.9703 1979.75 45.3809 Q1984.38 50.7915 1984.38 58.3335 Q1984.38 66.2444 1978.89 71.655 Q1973.44 77.0656 1966.06 77.0656 Q1959.34 77.0656 1955.07 72.2698 Q1950.85 67.4741 1950.85 61.6946 Z" fill="#000000" fill-rule="nonzero" fill-opacity="1" /><path clip-path="url(#clip410)" d="M1991.08 94.2811 L1998.13 94.2811 L1998.13 14.188 L1991.08 14.188 L1991.08 12.2615 L2003.74 12.2615 L2003.74 96.2076 L1991.08 96.2076 L1991.08 94.2811 Z" fill="#000000" fill-rule="nonzero" fill-opacity="1" /><polyline clip-path="url(#clip412)" style="stroke:#78c2ad; stroke-linecap:round; stroke-linejoin:round; stroke-width:8; stroke-opacity:1; fill:none" points="1516.73,674.802 1671.96,787.239 1827.2,674.802 2293.45,674.802 1866.71,674.802 1516.73,421.304 1516.73,375.889 1507.56,369.248 1085.69,674.802 696.198,674.802 316.512,949.809 919.282,1386.4 2006.62,598.84 1516.73,244.012 1516.73,230.649 1516.73,220.908 1600.46,160.256 2162.5,567.336 2014.12,674.802 1516.73,674.802 "/>
</svg>
