<?xml version="1.0" encoding="utf-8"?>
<svg xmlns="http://www.w3.org/2000/svg" xmlns:xlink="http://www.w3.org/1999/xlink" width="600" height="400" viewBox="0 0 2400 1600">
<defs>
  <clipPath id="clip890">
    <rect x="0" y="0" width="2400" height="1600"/>
  </clipPath>
</defs>
<path clip-path="url(#clip890)" d="M0 1600 L2400 1600 L2400 8.88178e-14 L0 8.88178e-14  Z" fill="#f0f1eb" fill-rule="evenodd" fill-opacity="1"/>
<defs>
  <clipPath id="clip891">
    <rect x="220" y="1194" width="2134" height="229"/>
  </clipPath>
</defs>
<path clip-path="url(#clip890)" d="M220.19 1163.41 L2352.76 1163.41 L2352.76 123.472 L220.19 123.472  Z" fill="#f0f1eb" fill-rule="evenodd" fill-opacity="1"/>
<defs>
  <clipPath id="clip892">
    <rect x="220" y="123" width="2134" height="1041"/>
  </clipPath>
</defs>
<polyline clip-path="url(#clip892)" style="stroke:#000000; stroke-linecap:round; stroke-linejoin:round; stroke-width:2; stroke-opacity:0.1; fill:none" points="220.19,1067.72 2352.76,1067.72 "/>
<polyline clip-path="url(#clip892)" style="stroke:#000000; stroke-linecap:round; stroke-linejoin:round; stroke-width:2; stroke-opacity:0.1; fill:none" points="220.19,840.435 2352.76,840.435 "/>
<polyline clip-path="url(#clip892)" style="stroke:#000000; stroke-linecap:round; stroke-linejoin:round; stroke-width:2; stroke-opacity:0.1; fill:none" points="220.19,613.155 2352.76,613.155 "/>
<polyline clip-path="url(#clip892)" style="stroke:#000000; stroke-linecap:round; stroke-linejoin:round; stroke-width:2; stroke-opacity:0.1; fill:none" points="220.19,385.874 2352.76,385.874 "/>
<polyline clip-path="url(#clip892)" style="stroke:#000000; stroke-linecap:round; stroke-linejoin:round; stroke-width:2; stroke-opacity:0.1; fill:none" points="220.19,158.594 2352.76,158.594 "/>
<polyline clip-path="url(#clip890)" style="stroke:#000000; stroke-linecap:round; stroke-linejoin:round; stroke-width:4; stroke-opacity:1; fill:none" points="220.19,1163.41 2352.76,1163.41 "/>
<polyline clip-path="url(#clip890)" style="stroke:#000000; stroke-linecap:round; stroke-linejoin:round; stroke-width:4; stroke-opacity:1; fill:none" points="220.19,1163.41 220.19,123.472 "/>
<polyline clip-path="url(#clip890)" style="stroke:#000000; stroke-linecap:round; stroke-linejoin:round; stroke-width:4; stroke-opacity:1; fill:none" points="220.19,1067.72 239.088,1067.72 "/>
<polyline clip-path="url(#clip890)" style="stroke:#000000; stroke-linecap:round; stroke-linejoin:round; stroke-width:4; stroke-opacity:1; fill:none" points="220.19,840.435 239.088,840.435 "/>
<polyline clip-path="url(#clip890)" style="stroke:#000000; stroke-linecap:round; stroke-linejoin:round; stroke-width:4; stroke-opacity:1; fill:none" points="220.19,613.155 239.088,613.155 "/>
<polyline clip-path="url(#clip890)" style="stroke:#000000; stroke-linecap:round; stroke-linejoin:round; stroke-width:4; stroke-opacity:1; fill:none" points="220.19,385.874 239.088,385.874 "/>
<polyline clip-path="url(#clip890)" style="stroke:#000000; stroke-linecap:round; stroke-linejoin:round; stroke-width:4; stroke-opacity:1; fill:none" points="220.19,158.594 239.088,158.594 "/>
<path clip-path="url(#clip890)" d="M132.177 1066.36 Q135.533 1067.08 137.408 1069.35 Q139.306 1071.62 139.306 1074.95 Q139.306 1080.07 135.788 1082.87 Q132.269 1085.67 125.788 1085.67 Q123.612 1085.67 121.297 1085.23 Q119.006 1084.81 116.552 1083.95 L116.552 1079.44 Q118.496 1080.57 120.811 1081.15 Q123.126 1081.73 125.649 1081.73 Q130.047 1081.73 132.339 1080 Q134.654 1078.26 134.654 1074.95 Q134.654 1071.89 132.501 1070.18 Q130.371 1068.44 126.552 1068.44 L122.524 1068.44 L122.524 1064.6 L126.737 1064.6 Q130.186 1064.6 132.015 1063.24 Q133.843 1061.85 133.843 1059.25 Q133.843 1056.59 131.945 1055.18 Q130.07 1053.75 126.552 1053.75 Q124.63 1053.75 122.431 1054.16 Q120.232 1054.58 117.593 1055.46 L117.593 1051.29 Q120.255 1050.55 122.57 1050.18 Q124.908 1049.81 126.968 1049.81 Q132.292 1049.81 135.394 1052.24 Q138.496 1054.65 138.496 1058.77 Q138.496 1061.64 136.853 1063.63 Q135.209 1065.6 132.177 1066.36 Z" fill="#000000" fill-rule="nonzero" fill-opacity="1" /><path clip-path="url(#clip890)" d="M148.172 1079.12 L153.056 1079.12 L153.056 1085 L148.172 1085 L148.172 1079.12 Z" fill="#000000" fill-rule="nonzero" fill-opacity="1" /><path clip-path="url(#clip890)" d="M163.288 1050.44 L181.644 1050.44 L181.644 1054.37 L167.57 1054.37 L167.57 1062.84 Q168.589 1062.5 169.607 1062.33 Q170.626 1062.15 171.644 1062.15 Q177.431 1062.15 180.811 1065.32 Q184.19 1068.49 184.19 1073.91 Q184.19 1079.49 180.718 1082.59 Q177.246 1085.67 170.927 1085.67 Q168.751 1085.67 166.482 1085.3 Q164.237 1084.93 161.829 1084.19 L161.829 1079.49 Q163.913 1080.62 166.135 1081.18 Q168.357 1081.73 170.834 1081.73 Q174.839 1081.73 177.176 1079.63 Q179.514 1077.52 179.514 1073.91 Q179.514 1070.3 177.176 1068.19 Q174.839 1066.08 170.834 1066.08 Q168.959 1066.08 167.084 1066.5 Q165.232 1066.92 163.288 1067.8 L163.288 1050.44 Z" fill="#000000" fill-rule="nonzero" fill-opacity="1" /><path clip-path="url(#clip890)" d="M129.862 827.229 L118.056 845.678 L129.862 845.678 L129.862 827.229 M128.635 823.155 L134.515 823.155 L134.515 845.678 L139.445 845.678 L139.445 849.567 L134.515 849.567 L134.515 857.715 L129.862 857.715 L129.862 849.567 L114.26 849.567 L114.26 845.053 L128.635 823.155 Z" fill="#000000" fill-rule="nonzero" fill-opacity="1" /><path clip-path="url(#clip890)" d="M147.177 851.836 L152.061 851.836 L152.061 857.715 L147.177 857.715 L147.177 851.836 Z" fill="#000000" fill-rule="nonzero" fill-opacity="1" /><path clip-path="url(#clip890)" d="M172.246 826.234 Q168.635 826.234 166.806 829.799 Q165.001 833.34 165.001 840.47 Q165.001 847.576 166.806 851.141 Q168.635 854.683 172.246 854.683 Q175.88 854.683 177.686 851.141 Q179.514 847.576 179.514 840.47 Q179.514 833.34 177.686 829.799 Q175.88 826.234 172.246 826.234 M172.246 822.53 Q178.056 822.53 181.112 827.137 Q184.19 831.72 184.19 840.47 Q184.19 849.197 181.112 853.803 Q178.056 858.386 172.246 858.386 Q166.436 858.386 163.357 853.803 Q160.302 849.197 160.302 840.47 Q160.302 831.72 163.357 827.137 Q166.436 822.53 172.246 822.53 Z" fill="#000000" fill-rule="nonzero" fill-opacity="1" /><path clip-path="url(#clip890)" d="M130.857 599.949 L119.052 618.398 L130.857 618.398 L130.857 599.949 M129.63 595.875 L135.51 595.875 L135.51 618.398 L140.441 618.398 L140.441 622.287 L135.51 622.287 L135.51 630.435 L130.857 630.435 L130.857 622.287 L115.256 622.287 L115.256 617.773 L129.63 595.875 Z" fill="#000000" fill-rule="nonzero" fill-opacity="1" /><path clip-path="url(#clip890)" d="M148.172 624.555 L153.056 624.555 L153.056 630.435 L148.172 630.435 L148.172 624.555 Z" fill="#000000" fill-rule="nonzero" fill-opacity="1" /><path clip-path="url(#clip890)" d="M163.288 595.875 L181.644 595.875 L181.644 599.81 L167.57 599.81 L167.57 608.282 Q168.589 607.935 169.607 607.773 Q170.626 607.588 171.644 607.588 Q177.431 607.588 180.811 610.759 Q184.19 613.93 184.19 619.347 Q184.19 624.926 180.718 628.027 Q177.246 631.106 170.927 631.106 Q168.751 631.106 166.482 630.736 Q164.237 630.365 161.829 629.625 L161.829 624.926 Q163.913 626.06 166.135 626.615 Q168.357 627.171 170.834 627.171 Q174.839 627.171 177.176 625.064 Q179.514 622.958 179.514 619.347 Q179.514 615.736 177.176 613.629 Q174.839 611.523 170.834 611.523 Q168.959 611.523 167.084 611.939 Q165.232 612.356 163.288 613.236 L163.288 595.875 Z" fill="#000000" fill-rule="nonzero" fill-opacity="1" /><path clip-path="url(#clip890)" d="M117.061 368.594 L135.417 368.594 L135.417 372.53 L121.343 372.53 L121.343 381.002 Q122.362 380.654 123.38 380.492 Q124.399 380.307 125.418 380.307 Q131.205 380.307 134.584 383.479 Q137.964 386.65 137.964 392.066 Q137.964 397.645 134.492 400.747 Q131.019 403.826 124.7 403.826 Q122.524 403.826 120.255 403.455 Q118.01 403.085 115.603 402.344 L115.603 397.645 Q117.686 398.779 119.908 399.335 Q122.13 399.89 124.607 399.89 Q128.612 399.89 130.95 397.784 Q133.288 395.678 133.288 392.066 Q133.288 388.455 130.95 386.349 Q128.612 384.242 124.607 384.242 Q122.732 384.242 120.857 384.659 Q119.006 385.076 117.061 385.955 L117.061 368.594 Z" fill="#000000" fill-rule="nonzero" fill-opacity="1" /><path clip-path="url(#clip890)" d="M147.177 397.275 L152.061 397.275 L152.061 403.154 L147.177 403.154 L147.177 397.275 Z" fill="#000000" fill-rule="nonzero" fill-opacity="1" /><path clip-path="url(#clip890)" d="M172.246 371.673 Q168.635 371.673 166.806 375.238 Q165.001 378.779 165.001 385.909 Q165.001 393.016 166.806 396.58 Q168.635 400.122 172.246 400.122 Q175.88 400.122 177.686 396.58 Q179.514 393.016 179.514 385.909 Q179.514 378.779 177.686 375.238 Q175.88 371.673 172.246 371.673 M172.246 367.969 Q178.056 367.969 181.112 372.576 Q184.19 377.159 184.19 385.909 Q184.19 394.636 181.112 399.242 Q178.056 403.826 172.246 403.826 Q166.436 403.826 163.357 399.242 Q160.302 394.636 160.302 385.909 Q160.302 377.159 163.357 372.576 Q166.436 367.969 172.246 367.969 Z" fill="#000000" fill-rule="nonzero" fill-opacity="1" /><path clip-path="url(#clip890)" d="M118.056 141.314 L136.413 141.314 L136.413 145.249 L122.339 145.249 L122.339 153.721 Q123.357 153.374 124.376 153.212 Q125.394 153.027 126.413 153.027 Q132.2 153.027 135.579 156.198 Q138.959 159.369 138.959 164.786 Q138.959 170.365 135.487 173.467 Q132.015 176.545 125.695 176.545 Q123.519 176.545 121.251 176.175 Q119.006 175.804 116.598 175.064 L116.598 170.365 Q118.681 171.499 120.904 172.055 Q123.126 172.61 125.603 172.61 Q129.607 172.61 131.945 170.504 Q134.283 168.397 134.283 164.786 Q134.283 161.175 131.945 159.068 Q129.607 156.962 125.603 156.962 Q123.728 156.962 121.853 157.379 Q120.001 157.795 118.056 158.675 L118.056 141.314 Z" fill="#000000" fill-rule="nonzero" fill-opacity="1" /><path clip-path="url(#clip890)" d="M148.172 169.994 L153.056 169.994 L153.056 175.874 L148.172 175.874 L148.172 169.994 Z" fill="#000000" fill-rule="nonzero" fill-opacity="1" /><path clip-path="url(#clip890)" d="M163.288 141.314 L181.644 141.314 L181.644 145.249 L167.57 145.249 L167.57 153.721 Q168.589 153.374 169.607 153.212 Q170.626 153.027 171.644 153.027 Q177.431 153.027 180.811 156.198 Q184.19 159.369 184.19 164.786 Q184.19 170.365 180.718 173.467 Q177.246 176.545 170.927 176.545 Q168.751 176.545 166.482 176.175 Q164.237 175.804 161.829 175.064 L161.829 170.365 Q163.913 171.499 166.135 172.055 Q168.357 172.61 170.834 172.61 Q174.839 172.61 177.176 170.504 Q179.514 168.397 179.514 164.786 Q179.514 161.175 177.176 159.068 Q174.839 156.962 170.834 156.962 Q168.959 156.962 167.084 157.379 Q165.232 157.795 163.288 158.675 L163.288 141.314 Z" fill="#000000" fill-rule="nonzero" fill-opacity="1" /><path clip-path="url(#clip890)" d="M16.4842 782.466 L16.4842 752.42 L21.895 752.42 L21.895 776.037 L35.9632 776.037 L35.9632 753.406 L41.3741 753.406 L41.3741 776.037 L58.5933 776.037 L58.5933 751.847 L64.0042 751.847 L64.0042 782.466 L16.4842 782.466 Z" fill="#000000" fill-rule="nonzero" fill-opacity="1" /><path clip-path="url(#clip890)" d="M29.4065 718.809 L34.9447 718.809 Q33.6716 721.291 33.035 723.965 Q32.3984 726.639 32.3984 729.503 Q32.3984 733.864 33.7352 736.06 Q35.072 738.224 37.7456 738.224 Q39.7826 738.224 40.9603 736.665 Q42.1061 735.105 43.1565 730.394 L43.6021 728.389 Q44.9389 722.151 47.3897 719.541 Q49.8086 716.899 54.1691 716.899 Q59.1344 716.899 62.0308 720.846 Q64.9272 724.761 64.9272 731.636 Q64.9272 734.5 64.3543 737.62 Q63.8132 740.707 62.6992 744.144 L56.6518 744.144 Q58.3387 740.898 59.198 737.747 Q60.0256 734.596 60.0256 731.508 Q60.0256 727.371 58.6251 725.143 Q57.1929 722.915 54.6147 722.915 Q52.2276 722.915 50.9545 724.538 Q49.6813 726.129 48.5037 731.572 L48.0262 733.609 Q46.8804 739.052 44.5251 741.471 Q42.138 743.89 38.0002 743.89 Q32.9713 743.89 30.2341 740.325 Q27.4968 736.76 27.4968 730.203 Q27.4968 726.957 27.9743 724.092 Q28.4517 721.228 29.4065 718.809 Z" fill="#000000" fill-rule="nonzero" fill-opacity="1" /><path clip-path="url(#clip890)" d="M18.2347 701.781 L28.3562 701.781 L28.3562 689.718 L32.9077 689.718 L32.9077 701.781 L52.2594 701.781 Q56.6199 701.781 57.8613 700.603 Q59.1026 699.393 59.1026 695.733 L59.1026 689.718 L64.0042 689.718 L64.0042 695.733 Q64.0042 702.513 61.4897 705.091 Q58.9434 707.669 52.2594 707.669 L32.9077 707.669 L32.9077 711.966 L28.3562 711.966 L28.3562 707.669 L18.2347 707.669 L18.2347 701.781 Z" fill="#000000" fill-rule="nonzero" fill-opacity="1" /><path clip-path="url(#clip890)" d="M28.3562 682.015 L28.3562 676.159 L64.0042 676.159 L64.0042 682.015 L28.3562 682.015 M14.479 682.015 L14.479 676.159 L21.895 676.159 L21.895 682.015 L14.479 682.015 Z" fill="#000000" fill-rule="nonzero" fill-opacity="1" /><path clip-path="url(#clip890)" d="M35.1993 636.15 Q31.2526 633.954 29.3747 630.898 Q27.4968 627.843 27.4968 623.705 Q27.4968 618.135 31.4117 615.112 Q35.2948 612.088 42.4881 612.088 L64.0042 612.088 L64.0042 617.976 L42.679 617.976 Q37.5546 617.976 35.072 619.79 Q32.5894 621.605 32.5894 625.328 Q32.5894 629.88 35.6131 632.522 Q38.6368 635.163 43.8567 635.163 L64.0042 635.163 L64.0042 641.052 L42.679 641.052 Q37.5228 641.052 35.072 642.866 Q32.5894 644.68 32.5894 648.468 Q32.5894 652.956 35.6449 655.597 Q38.6686 658.239 43.8567 658.239 L64.0042 658.239 L64.0042 664.127 L28.3562 664.127 L28.3562 658.239 L33.8944 658.239 Q30.616 656.234 29.0564 653.433 Q27.4968 650.632 27.4968 646.781 Q27.4968 642.898 29.4702 640.192 Q31.4436 637.455 35.1993 636.15 Z" fill="#000000" fill-rule="nonzero" fill-opacity="1" /><path clip-path="url(#clip890)" d="M46.0847 584.206 Q46.0847 591.304 47.7079 594.041 Q49.3312 596.778 53.2461 596.778 Q56.3653 596.778 58.2114 594.741 Q60.0256 592.672 60.0256 589.139 Q60.0256 584.27 56.5881 581.341 Q53.1188 578.381 47.3897 578.381 L46.0847 578.381 L46.0847 584.206 M43.6657 572.525 L64.0042 572.525 L64.0042 578.381 L58.5933 578.381 Q61.8398 580.387 63.3994 583.378 Q64.9272 586.37 64.9272 590.699 Q64.9272 596.174 61.8716 599.42 Q58.7843 602.635 53.6281 602.635 Q47.6125 602.635 44.5569 598.624 Q41.5014 594.582 41.5014 586.593 L41.5014 578.381 L40.9285 578.381 Q36.8862 578.381 34.6901 581.055 Q32.4621 583.697 32.4621 588.503 Q32.4621 591.558 33.1941 594.455 Q33.9262 597.351 35.3903 600.025 L29.9795 600.025 Q28.7381 596.81 28.1334 593.786 Q27.4968 590.763 27.4968 587.898 Q27.4968 580.164 31.5072 576.344 Q35.5176 572.525 43.6657 572.525 Z" fill="#000000" fill-rule="nonzero" fill-opacity="1" /><path clip-path="url(#clip890)" d="M18.2347 554.669 L28.3562 554.669 L28.3562 542.606 L32.9077 542.606 L32.9077 554.669 L52.2594 554.669 Q56.6199 554.669 57.8613 553.491 Q59.1026 552.282 59.1026 548.622 L59.1026 542.606 L64.0042 542.606 L64.0042 548.622 Q64.0042 555.401 61.4897 557.979 Q58.9434 560.557 52.2594 560.557 L32.9077 560.557 L32.9077 564.854 L28.3562 564.854 L28.3562 560.557 L18.2347 560.557 L18.2347 554.669 Z" fill="#000000" fill-rule="nonzero" fill-opacity="1" /><path clip-path="url(#clip890)" d="M44.7161 504.412 L47.5806 504.412 L47.5806 531.339 Q53.6281 530.957 56.8109 527.71 Q59.9619 524.432 59.9619 518.607 Q59.9619 515.234 59.1344 512.083 Q58.3069 508.9 56.6518 505.78 L62.1899 505.78 Q63.5267 508.932 64.227 512.242 Q64.9272 515.552 64.9272 518.958 Q64.9272 527.488 59.9619 532.485 Q54.9967 537.45 46.5303 537.45 Q37.7774 537.45 32.6531 532.739 Q27.4968 527.997 27.4968 519.976 Q27.4968 512.783 32.1438 508.613 Q36.7589 504.412 44.7161 504.412 M42.9973 510.268 Q38.1912 510.332 35.3266 512.974 Q32.4621 515.584 32.4621 519.912 Q32.4621 524.814 35.2312 527.774 Q38.0002 530.702 43.0292 531.148 L42.9973 510.268 Z" fill="#000000" fill-rule="nonzero" fill-opacity="1" /><path clip-path="url(#clip890)" d="M738.852 20.1573 L727.752 50.2555 L749.992 50.2555 L738.852 20.1573 M734.234 12.096 L743.51 12.096 L766.56 72.576 L758.053 72.576 L752.544 57.061 L725.281 57.061 L719.772 72.576 L711.143 72.576 L734.234 12.096 Z" fill="#000000" fill-rule="nonzero" fill-opacity="1" /><path clip-path="url(#clip890)" d="M812.781 45.1919 L812.781 72.576 L805.327 72.576 L805.327 45.4349 Q805.327 38.994 802.815 35.7938 Q800.304 32.5936 795.281 32.5936 Q789.245 32.5936 785.761 36.4419 Q782.277 40.2903 782.277 46.9338 L782.277 72.576 L774.783 72.576 L774.783 27.2059 L782.277 27.2059 L782.277 34.2544 Q784.951 30.163 788.556 28.1376 Q792.202 26.1121 796.942 26.1121 Q804.76 26.1121 808.77 30.9732 Q812.781 35.7938 812.781 45.1919 Z" fill="#000000" fill-rule="nonzero" fill-opacity="1" /><path clip-path="url(#clip890)" d="M827.647 27.2059 L835.101 27.2059 L835.101 72.576 L827.647 72.576 L827.647 27.2059 M827.647 9.54393 L835.101 9.54393 L835.101 18.9825 L827.647 18.9825 L827.647 9.54393 Z" fill="#000000" fill-rule="nonzero" fill-opacity="1" /><path clip-path="url(#clip890)" d="M879.621 28.5427 L879.621 35.5912 Q876.461 33.9709 873.058 33.1607 Q869.655 32.3505 866.01 32.3505 Q860.46 32.3505 857.665 34.0519 Q854.91 35.7533 854.91 39.156 Q854.91 41.7486 856.895 43.2475 Q858.88 44.7058 864.875 46.0426 L867.427 46.6097 Q875.367 48.3111 878.689 51.4303 Q882.051 54.509 882.051 60.0587 Q882.051 66.3781 877.028 70.0644 Q872.045 73.7508 863.295 73.7508 Q859.65 73.7508 855.68 73.0216 Q851.75 72.3329 847.375 70.9151 L847.375 63.2184 Q851.507 65.3654 855.518 66.4591 Q859.528 67.5124 863.457 67.5124 Q868.724 67.5124 871.559 65.73 Q874.395 63.9071 874.395 60.6258 Q874.395 57.5877 872.329 55.9673 Q870.303 54.3469 863.376 52.8481 L860.784 52.2405 Q853.857 50.7821 850.778 47.7845 Q847.699 44.7463 847.699 39.4801 Q847.699 33.0797 852.236 29.5959 Q856.773 26.1121 865.118 26.1121 Q869.25 26.1121 872.896 26.7198 Q876.542 27.3274 879.621 28.5427 Z" fill="#000000" fill-rule="nonzero" fill-opacity="1" /><path clip-path="url(#clip890)" d="M911.501 32.4315 Q905.506 32.4315 902.022 37.1306 Q898.538 41.7891 898.538 49.9314 Q898.538 58.0738 901.982 62.7728 Q905.465 67.4314 911.501 67.4314 Q917.456 67.4314 920.94 62.7323 Q924.424 58.0333 924.424 49.9314 Q924.424 41.8701 920.94 37.1711 Q917.456 32.4315 911.501 32.4315 M911.501 26.1121 Q921.223 26.1121 926.773 32.4315 Q932.323 38.7509 932.323 49.9314 Q932.323 61.0714 926.773 67.4314 Q921.223 73.7508 911.501 73.7508 Q901.738 73.7508 896.189 67.4314 Q890.68 61.0714 890.68 49.9314 Q890.68 38.7509 896.189 32.4315 Q901.738 26.1121 911.501 26.1121 Z" fill="#000000" fill-rule="nonzero" fill-opacity="1" /><path clip-path="url(#clip890)" d="M952.051 14.324 L952.051 27.2059 L967.404 27.2059 L967.404 32.9987 L952.051 32.9987 L952.051 57.6282 Q952.051 63.1779 953.55 64.7578 Q955.089 66.3376 959.747 66.3376 L967.404 66.3376 L967.404 72.576 L959.747 72.576 Q951.119 72.576 947.838 69.3758 Q944.557 66.1351 944.557 57.6282 L944.557 32.9987 L939.088 32.9987 L939.088 27.2059 L944.557 27.2059 L944.557 14.324 L952.051 14.324 Z" fill="#000000" fill-rule="nonzero" fill-opacity="1" /><path clip-path="url(#clip890)" d="M1003.5 34.1734 Q1002.24 33.4443 1000.74 33.1202 Q999.284 32.7556 997.502 32.7556 Q991.182 32.7556 987.78 36.8875 Q984.417 40.9789 984.417 48.6757 L984.417 72.576 L976.923 72.576 L976.923 27.2059 L984.417 27.2059 L984.417 34.2544 Q986.767 30.1225 990.534 28.1376 Q994.302 26.1121 999.689 26.1121 Q1000.46 26.1121 1001.39 26.2337 Q1002.32 26.3147 1003.46 26.5172 L1003.5 34.1734 Z" fill="#000000" fill-rule="nonzero" fill-opacity="1" /><path clip-path="url(#clip890)" d="M1027.07 32.4315 Q1021.08 32.4315 1017.59 37.1306 Q1014.11 41.7891 1014.11 49.9314 Q1014.11 58.0738 1017.55 62.7728 Q1021.04 67.4314 1027.07 67.4314 Q1033.03 67.4314 1036.51 62.7323 Q1040 58.0333 1040 49.9314 Q1040 41.8701 1036.51 37.1711 Q1033.03 32.4315 1027.07 32.4315 M1027.07 26.1121 Q1036.8 26.1121 1042.35 32.4315 Q1047.9 38.7509 1047.9 49.9314 Q1047.9 61.0714 1042.35 67.4314 Q1036.8 73.7508 1027.07 73.7508 Q1017.31 73.7508 1011.76 67.4314 Q1006.25 61.0714 1006.25 49.9314 Q1006.25 38.7509 1011.76 32.4315 Q1017.31 26.1121 1027.07 26.1121 Z" fill="#000000" fill-rule="nonzero" fill-opacity="1" /><path clip-path="url(#clip890)" d="M1067.46 65.7705 L1067.46 89.8329 L1059.97 89.8329 L1059.97 27.2059 L1067.46 27.2059 L1067.46 34.0924 Q1069.81 30.0415 1073.38 28.0971 Q1076.98 26.1121 1081.96 26.1121 Q1090.23 26.1121 1095.37 32.6746 Q1100.56 39.2371 1100.56 49.9314 Q1100.56 60.6258 1095.37 67.1883 Q1090.23 73.7508 1081.96 73.7508 Q1076.98 73.7508 1073.38 71.8063 Q1069.81 69.8214 1067.46 65.7705 M1092.82 49.9314 Q1092.82 41.7081 1089.42 37.0496 Q1086.05 32.3505 1080.14 32.3505 Q1074.23 32.3505 1070.82 37.0496 Q1067.46 41.7081 1067.46 49.9314 Q1067.46 58.1548 1070.82 62.8538 Q1074.23 67.5124 1080.14 67.5124 Q1086.05 67.5124 1089.42 62.8538 Q1092.82 58.1548 1092.82 49.9314 Z" fill="#000000" fill-rule="nonzero" fill-opacity="1" /><path clip-path="url(#clip890)" d="M1112.91 27.2059 L1120.37 27.2059 L1120.37 72.576 L1112.91 72.576 L1112.91 27.2059 M1112.91 9.54393 L1120.37 9.54393 L1120.37 18.9825 L1112.91 18.9825 L1112.91 9.54393 Z" fill="#000000" fill-rule="nonzero" fill-opacity="1" /><path clip-path="url(#clip890)" d="M1168.61 28.9478 L1168.61 35.9153 Q1165.45 34.1734 1162.25 33.3227 Q1159.09 32.4315 1155.85 32.4315 Q1148.6 32.4315 1144.59 37.0496 Q1140.58 41.6271 1140.58 49.9314 Q1140.58 58.2358 1144.59 62.8538 Q1148.6 67.4314 1155.85 67.4314 Q1159.09 67.4314 1162.25 66.5807 Q1165.45 65.6895 1168.61 63.9476 L1168.61 70.8341 Q1165.49 72.2924 1162.13 73.0216 Q1158.81 73.7508 1155.04 73.7508 Q1144.79 73.7508 1138.76 67.3098 Q1132.72 60.8689 1132.72 49.9314 Q1132.72 38.832 1138.8 32.472 Q1144.91 26.1121 1155.53 26.1121 Q1158.97 26.1121 1162.25 26.8413 Q1165.53 27.5299 1168.61 28.9478 Z" fill="#000000" fill-rule="nonzero" fill-opacity="1" /><path clip-path="url(#clip890)" d="M1249.51 63.9476 L1249.51 47.7034 L1236.14 47.7034 L1236.14 40.9789 L1257.61 40.9789 L1257.61 66.9452 Q1252.87 70.3075 1247.16 72.0494 Q1241.45 73.7508 1234.97 73.7508 Q1220.79 73.7508 1212.77 65.4869 Q1204.79 57.1826 1204.79 42.3968 Q1204.79 27.5705 1212.77 19.3066 Q1220.79 11.0023 1234.97 11.0023 Q1240.88 11.0023 1246.19 12.4606 Q1251.53 13.9189 1256.03 16.7545 L1256.03 25.464 Q1251.49 21.6156 1246.39 19.6712 Q1241.29 17.7268 1235.65 17.7268 Q1224.56 17.7268 1218.96 23.9246 Q1213.42 30.1225 1213.42 42.3968 Q1213.42 54.6305 1218.96 60.8284 Q1224.56 67.0263 1235.65 67.0263 Q1239.99 67.0263 1243.39 66.2971 Q1246.79 65.5274 1249.51 63.9476 Z" fill="#000000" fill-rule="nonzero" fill-opacity="1" /><path clip-path="url(#clip890)" d="M1292.85 49.7694 Q1283.82 49.7694 1280.34 51.8354 Q1276.85 53.9013 1276.85 58.8839 Q1276.85 62.8538 1279.44 65.2034 Q1282.08 67.5124 1286.57 67.5124 Q1292.77 67.5124 1296.5 63.1374 Q1300.27 58.7219 1300.27 51.4303 L1300.27 49.7694 L1292.85 49.7694 M1307.72 46.6907 L1307.72 72.576 L1300.27 72.576 L1300.27 65.6895 Q1297.71 69.8214 1293.91 71.8063 Q1290.1 73.7508 1284.59 73.7508 Q1277.62 73.7508 1273.49 69.8619 Q1269.4 65.9325 1269.4 59.3701 Q1269.4 51.7138 1274.5 47.825 Q1279.65 43.9361 1289.82 43.9361 L1300.27 43.9361 L1300.27 43.2069 Q1300.27 38.0623 1296.86 35.2672 Q1293.5 32.4315 1287.38 32.4315 Q1283.5 32.4315 1279.81 33.3632 Q1276.12 34.295 1272.72 36.1584 L1272.72 29.2718 Q1276.81 27.692 1280.66 26.9223 Q1284.51 26.1121 1288.15 26.1121 Q1298 26.1121 1302.86 31.2163 Q1307.72 36.3204 1307.72 46.6907 Z" fill="#000000" fill-rule="nonzero" fill-opacity="1" /><path clip-path="url(#clip890)" d="M1322.3 54.671 L1322.3 27.2059 L1329.76 27.2059 L1329.76 54.3874 Q1329.76 60.8284 1332.27 64.0691 Q1334.78 67.2693 1339.8 67.2693 Q1345.84 67.2693 1349.32 63.421 Q1352.85 59.5726 1352.85 52.9291 L1352.85 27.2059 L1360.3 27.2059 L1360.3 72.576 L1352.85 72.576 L1352.85 65.6084 Q1350.13 69.7404 1346.53 71.7658 Q1342.96 73.7508 1338.22 73.7508 Q1330.41 73.7508 1326.35 68.8897 Q1322.3 64.0286 1322.3 54.671 M1341.06 26.1121 L1341.06 26.1121 Z" fill="#000000" fill-rule="nonzero" fill-opacity="1" /><path clip-path="url(#clip890)" d="M1404.58 28.5427 L1404.58 35.5912 Q1401.42 33.9709 1398.01 33.1607 Q1394.61 32.3505 1390.97 32.3505 Q1385.42 32.3505 1382.62 34.0519 Q1379.87 35.7533 1379.87 39.156 Q1379.87 41.7486 1381.85 43.2475 Q1383.84 44.7058 1389.83 46.0426 L1392.38 46.6097 Q1400.32 48.3111 1403.65 51.4303 Q1407.01 54.509 1407.01 60.0587 Q1407.01 66.3781 1401.98 70.0644 Q1397 73.7508 1388.25 73.7508 Q1384.61 73.7508 1380.64 73.0216 Q1376.71 72.3329 1372.33 70.9151 L1372.33 63.2184 Q1376.46 65.3654 1380.47 66.4591 Q1384.48 67.5124 1388.41 67.5124 Q1393.68 67.5124 1396.52 65.73 Q1399.35 63.9071 1399.35 60.6258 Q1399.35 57.5877 1397.29 55.9673 Q1395.26 54.3469 1388.33 52.8481 L1385.74 52.2405 Q1378.81 50.7821 1375.73 47.7845 Q1372.66 44.7463 1372.66 39.4801 Q1372.66 33.0797 1377.19 29.5959 Q1381.73 26.1121 1390.07 26.1121 Q1394.21 26.1121 1397.85 26.7198 Q1401.5 27.3274 1404.58 28.5427 Z" fill="#000000" fill-rule="nonzero" fill-opacity="1" /><path clip-path="url(#clip890)" d="M1447.8 28.5427 L1447.8 35.5912 Q1444.64 33.9709 1441.24 33.1607 Q1437.84 32.3505 1434.19 32.3505 Q1428.64 32.3505 1425.84 34.0519 Q1423.09 35.7533 1423.09 39.156 Q1423.09 41.7486 1425.07 43.2475 Q1427.06 44.7058 1433.06 46.0426 L1435.61 46.6097 Q1443.55 48.3111 1446.87 51.4303 Q1450.23 54.509 1450.23 60.0587 Q1450.23 66.3781 1445.21 70.0644 Q1440.23 73.7508 1431.48 73.7508 Q1427.83 73.7508 1423.86 73.0216 Q1419.93 72.3329 1415.56 70.9151 L1415.56 63.2184 Q1419.69 65.3654 1423.7 66.4591 Q1427.71 67.5124 1431.64 67.5124 Q1436.9 67.5124 1439.74 65.73 Q1442.57 63.9071 1442.57 60.6258 Q1442.57 57.5877 1440.51 55.9673 Q1438.48 54.3469 1431.56 52.8481 L1428.96 52.2405 Q1422.04 50.7821 1418.96 47.7845 Q1415.88 44.7463 1415.88 39.4801 Q1415.88 33.0797 1420.42 29.5959 Q1424.95 26.1121 1433.3 26.1121 Q1437.43 26.1121 1441.08 26.7198 Q1444.72 27.3274 1447.8 28.5427 Z" fill="#000000" fill-rule="nonzero" fill-opacity="1" /><path clip-path="url(#clip890)" d="M1462.1 27.2059 L1469.55 27.2059 L1469.55 72.576 L1462.1 72.576 L1462.1 27.2059 M1462.1 9.54393 L1469.55 9.54393 L1469.55 18.9825 L1462.1 18.9825 L1462.1 9.54393 Z" fill="#000000" fill-rule="nonzero" fill-opacity="1" /><path clip-path="url(#clip890)" d="M1505.77 49.7694 Q1496.74 49.7694 1493.25 51.8354 Q1489.77 53.9013 1489.77 58.8839 Q1489.77 62.8538 1492.36 65.2034 Q1494.99 67.5124 1499.49 67.5124 Q1505.69 67.5124 1509.41 63.1374 Q1513.18 58.7219 1513.18 51.4303 L1513.18 49.7694 L1505.77 49.7694 M1520.64 46.6907 L1520.64 72.576 L1513.18 72.576 L1513.18 65.6895 Q1510.63 69.8214 1506.82 71.8063 Q1503.01 73.7508 1497.5 73.7508 Q1490.54 73.7508 1486.41 69.8619 Q1482.31 65.9325 1482.31 59.3701 Q1482.31 51.7138 1487.42 47.825 Q1492.56 43.9361 1502.73 43.9361 L1513.18 43.9361 L1513.18 43.2069 Q1513.18 38.0623 1509.78 35.2672 Q1506.42 32.4315 1500.3 32.4315 Q1496.41 32.4315 1492.72 33.3632 Q1489.04 34.295 1485.64 36.1584 L1485.64 29.2718 Q1489.73 27.692 1493.58 26.9223 Q1497.42 26.1121 1501.07 26.1121 Q1510.91 26.1121 1515.77 31.2163 Q1520.64 36.3204 1520.64 46.6907 Z" fill="#000000" fill-rule="nonzero" fill-opacity="1" /><path clip-path="url(#clip890)" d="M1573.7 45.1919 L1573.7 72.576 L1566.25 72.576 L1566.25 45.4349 Q1566.25 38.994 1563.74 35.7938 Q1561.23 32.5936 1556.2 32.5936 Q1550.17 32.5936 1546.68 36.4419 Q1543.2 40.2903 1543.2 46.9338 L1543.2 72.576 L1535.71 72.576 L1535.71 27.2059 L1543.2 27.2059 L1543.2 34.2544 Q1545.87 30.163 1549.48 28.1376 Q1553.12 26.1121 1557.86 26.1121 Q1565.68 26.1121 1569.69 30.9732 Q1573.7 35.7938 1573.7 45.1919 Z" fill="#000000" fill-rule="nonzero" fill-opacity="1" /><path clip-path="url(#clip890)" d="M1606.88 12.096 L1658.04 12.096 L1658.04 18.9825 L1636.57 18.9825 L1636.57 72.576 L1628.35 72.576 L1628.35 18.9825 L1606.88 18.9825 L1606.88 12.096 Z" fill="#000000" fill-rule="nonzero" fill-opacity="1" /><path clip-path="url(#clip890)" d="M1672.5 49.7694 Q1663.47 49.7694 1659.99 51.8354 Q1656.5 53.9013 1656.5 58.8839 Q1656.5 62.8538 1659.1 65.2034 Q1661.73 67.5124 1666.23 67.5124 Q1672.42 67.5124 1676.15 63.1374 Q1679.92 58.7219 1679.92 51.4303 L1679.92 49.7694 L1672.5 49.7694 M1687.37 46.6907 L1687.37 72.576 L1679.92 72.576 L1679.92 65.6895 Q1677.37 69.8214 1673.56 71.8063 Q1669.75 73.7508 1664.24 73.7508 Q1657.27 73.7508 1653.14 69.8619 Q1649.05 65.9325 1649.05 59.3701 Q1649.05 51.7138 1654.15 47.825 Q1659.3 43.9361 1669.47 43.9361 L1679.92 43.9361 L1679.92 43.2069 Q1679.92 38.0623 1676.51 35.2672 Q1673.15 32.4315 1667.04 32.4315 Q1663.15 32.4315 1659.46 33.3632 Q1655.77 34.295 1652.37 36.1584 L1652.37 29.2718 Q1656.46 27.692 1660.31 26.9223 Q1664.16 26.1121 1667.8 26.1121 Q1677.65 26.1121 1682.51 31.2163 Q1687.37 36.3204 1687.37 46.6907 Z" fill="#000000" fill-rule="nonzero" fill-opacity="1" /><path clip-path="url(#clip890)" d="M1729.01 34.1734 Q1727.76 33.4443 1726.26 33.1202 Q1724.8 32.7556 1723.02 32.7556 Q1716.7 32.7556 1713.3 36.8875 Q1709.93 40.9789 1709.93 48.6757 L1709.93 72.576 L1702.44 72.576 L1702.44 27.2059 L1709.93 27.2059 L1709.93 34.2544 Q1712.28 30.1225 1716.05 28.1376 Q1719.82 26.1121 1725.21 26.1121 Q1725.98 26.1121 1726.91 26.2337 Q1727.84 26.3147 1728.97 26.5172 L1729.01 34.1734 Z" fill="#000000" fill-rule="nonzero" fill-opacity="1" /><path clip-path="url(#clip890)" d="M1765.23 49.3643 Q1765.23 41.2625 1761.87 36.8065 Q1758.55 32.3505 1752.51 32.3505 Q1746.51 32.3505 1743.15 36.8065 Q1739.83 41.2625 1739.83 49.3643 Q1739.83 57.4256 1743.15 61.8816 Q1746.51 66.3376 1752.51 66.3376 Q1758.55 66.3376 1761.87 61.8816 Q1765.23 57.4256 1765.23 49.3643 M1772.68 66.9452 Q1772.68 78.5308 1767.54 84.1616 Q1762.39 89.8329 1751.78 89.8329 Q1747.85 89.8329 1744.37 89.2252 Q1740.88 88.6581 1737.6 87.4428 L1737.6 80.1917 Q1740.88 81.9741 1744.08 82.8248 Q1747.28 83.6755 1750.61 83.6755 Q1757.94 83.6755 1761.58 79.8271 Q1765.23 76.0193 1765.23 68.282 L1765.23 64.5957 Q1762.92 68.6061 1759.31 70.5911 Q1755.71 72.576 1750.69 72.576 Q1742.34 72.576 1737.24 66.2161 Q1732.13 59.8562 1732.13 49.3643 Q1732.13 38.832 1737.24 32.472 Q1742.34 26.1121 1750.69 26.1121 Q1755.71 26.1121 1759.31 28.0971 Q1762.92 30.082 1765.23 34.0924 L1765.23 27.2059 L1772.68 27.2059 L1772.68 66.9452 Z" fill="#000000" fill-rule="nonzero" fill-opacity="1" /><path clip-path="url(#clip890)" d="M1826.84 48.0275 L1826.84 51.6733 L1792.57 51.6733 Q1793.06 59.3701 1797.19 63.421 Q1801.36 67.4314 1808.78 67.4314 Q1813.07 67.4314 1817.08 66.3781 Q1821.13 65.3249 1825.1 63.2184 L1825.1 70.267 Q1821.09 71.9684 1816.88 72.8596 Q1812.67 73.7508 1808.33 73.7508 Q1797.47 73.7508 1791.11 67.4314 Q1784.8 61.1119 1784.8 50.3365 Q1784.8 39.1965 1790.79 32.6746 Q1796.83 26.1121 1807.03 26.1121 Q1816.19 26.1121 1821.5 32.0264 Q1826.84 37.9003 1826.84 48.0275 M1819.39 45.84 Q1819.31 39.7232 1815.95 36.0774 Q1812.62 32.4315 1807.12 32.4315 Q1800.88 32.4315 1797.11 35.9558 Q1793.38 39.4801 1792.82 45.8805 L1819.39 45.84 Z" fill="#000000" fill-rule="nonzero" fill-opacity="1" /><path clip-path="url(#clip890)" d="M1846.45 14.324 L1846.45 27.2059 L1861.8 27.2059 L1861.8 32.9987 L1846.45 32.9987 L1846.45 57.6282 Q1846.45 63.1779 1847.95 64.7578 Q1849.49 66.3376 1854.15 66.3376 L1861.8 66.3376 L1861.8 72.576 L1854.15 72.576 Q1845.52 72.576 1842.24 69.3758 Q1838.96 66.1351 1838.96 57.6282 L1838.96 32.9987 L1833.49 32.9987 L1833.49 27.2059 L1838.96 27.2059 L1838.96 14.324 L1846.45 14.324 Z" fill="#000000" fill-rule="nonzero" fill-opacity="1" /><path clip-path="url(#clip892)" d="M343.416 972.336 L311.981 972.336 L374.852 972.336 L343.416 972.336 L343.416 949.912 L343.416 972.336  Z" fill="#d55e00" fill-rule="evenodd" fill-opacity="1"/>
<polyline clip-path="url(#clip892)" style="stroke:#d55e00; stroke-linecap:round; stroke-linejoin:round; stroke-width:6; stroke-opacity:1; fill:none" points="343.416,972.336 311.981,972.336 374.852,972.336 343.416,972.336 343.416,949.912 343.416,972.336 "/>
<path clip-path="url(#clip892)" d="M406.287 949.912 L406.287 937.614 L280.546 937.614 L280.546 949.912 L406.287 949.912 L406.287 937.614 L406.287 949.912  Z" fill="#d55e00" fill-rule="evenodd" fill-opacity="1"/>
<polyline clip-path="url(#clip892)" style="stroke:#d55e00; stroke-linecap:round; stroke-linejoin:round; stroke-width:6; stroke-opacity:1; fill:none" points="406.287,949.912 406.287,937.614 280.546,937.614 280.546,949.912 406.287,949.912 406.287,937.614 406.287,949.912 "/>
<path clip-path="url(#clip892)" d="M406.287 925.148 L280.546 925.148 L280.546 937.614 L406.287 937.614 L406.287 925.148 L343.416 925.148 L406.287 925.148  Z" fill="#d55e00" fill-rule="evenodd" fill-opacity="1"/>
<polyline clip-path="url(#clip892)" style="stroke:#d55e00; stroke-linecap:round; stroke-linejoin:round; stroke-width:6; stroke-opacity:1; fill:none" points="406.287,925.148 280.546,925.148 280.546,937.614 406.287,937.614 406.287,925.148 343.416,925.148 406.287,925.148 "/>
<path clip-path="url(#clip892)" d="M343.416 897.286 L311.981 897.286 L374.852 897.286 L343.416 897.286 L343.416 925.148 L343.416 897.286  Z" fill="#d55e00" fill-rule="evenodd" fill-opacity="1"/>
<polyline clip-path="url(#clip892)" style="stroke:#d55e00; stroke-linecap:round; stroke-linejoin:round; stroke-width:6; stroke-opacity:1; fill:none" points="343.416,897.286 311.981,897.286 374.852,897.286 343.416,897.286 343.416,925.148 343.416,897.286 "/>
<path clip-path="url(#clip892)" d="M692.697 885.271 L661.261 885.271 L724.132 885.271 L692.697 885.271 L692.697 867.828 L692.697 885.271  Z" fill="#d55e00" fill-rule="evenodd" fill-opacity="1"/>
<polyline clip-path="url(#clip892)" style="stroke:#d55e00; stroke-linecap:round; stroke-linejoin:round; stroke-width:6; stroke-opacity:1; fill:none" points="692.697,885.271 661.261,885.271 724.132,885.271 692.697,885.271 692.697,867.828 692.697,885.271 "/>
<path clip-path="url(#clip892)" d="M755.567 867.828 L755.567 861.609 L629.826 861.609 L629.826 867.828 L755.567 867.828 L755.567 861.609 L755.567 867.828  Z" fill="#d55e00" fill-rule="evenodd" fill-opacity="1"/>
<polyline clip-path="url(#clip892)" style="stroke:#d55e00; stroke-linecap:round; stroke-linejoin:round; stroke-width:6; stroke-opacity:1; fill:none" points="755.567,867.828 755.567,861.609 629.826,861.609 629.826,867.828 755.567,867.828 755.567,861.609 755.567,867.828 "/>
<path clip-path="url(#clip892)" d="M755.567 853.799 L629.826 853.799 L629.826 861.609 L755.567 861.609 L755.567 853.799 L692.697 853.799 L755.567 853.799  Z" fill="#d55e00" fill-rule="evenodd" fill-opacity="1"/>
<polyline clip-path="url(#clip892)" style="stroke:#d55e00; stroke-linecap:round; stroke-linejoin:round; stroke-width:6; stroke-opacity:1; fill:none" points="755.567,853.799 629.826,853.799 629.826,861.609 755.567,861.609 755.567,853.799 692.697,853.799 755.567,853.799 "/>
<path clip-path="url(#clip892)" d="M692.697 833.99 L661.261 833.99 L724.132 833.99 L692.697 833.99 L692.697 853.799 L692.697 833.99  Z" fill="#d55e00" fill-rule="evenodd" fill-opacity="1"/>
<polyline clip-path="url(#clip892)" style="stroke:#d55e00; stroke-linecap:round; stroke-linejoin:round; stroke-width:6; stroke-opacity:1; fill:none" points="692.697,833.99 661.261,833.99 724.132,833.99 692.697,833.99 692.697,853.799 692.697,833.99 "/>
<path clip-path="url(#clip892)" d="M1041.98 810.411 L1010.54 810.411 L1073.41 810.411 L1041.98 810.411 L1041.98 794.263 L1041.98 810.411  Z" fill="#d55e00" fill-rule="evenodd" fill-opacity="1"/>
<polyline clip-path="url(#clip892)" style="stroke:#d55e00; stroke-linecap:round; stroke-linejoin:round; stroke-width:6; stroke-opacity:1; fill:none" points="1041.98,810.411 1010.54,810.411 1073.41,810.411 1041.98,810.411 1041.98,794.263 1041.98,810.411 "/>
<path clip-path="url(#clip892)" d="M1104.85 794.263 L1104.85 789.083 L979.106 789.083 L979.106 794.263 L1104.85 794.263 L1104.85 789.083 L1104.85 794.263  Z" fill="#d55e00" fill-rule="evenodd" fill-opacity="1"/>
<polyline clip-path="url(#clip892)" style="stroke:#d55e00; stroke-linecap:round; stroke-linejoin:round; stroke-width:6; stroke-opacity:1; fill:none" points="1104.85,794.263 1104.85,789.083 979.106,789.083 979.106,794.263 1104.85,794.263 1104.85,789.083 1104.85,794.263 "/>
<path clip-path="url(#clip892)" d="M1104.85 781.422 L979.106 781.422 L979.106 789.083 L1104.85 789.083 L1104.85 781.422 L1041.98 781.422 L1104.85 781.422  Z" fill="#d55e00" fill-rule="evenodd" fill-opacity="1"/>
<polyline clip-path="url(#clip892)" style="stroke:#d55e00; stroke-linecap:round; stroke-linejoin:round; stroke-width:6; stroke-opacity:1; fill:none" points="1104.85,781.422 979.106,781.422 979.106,789.083 1104.85,789.083 1104.85,781.422 1041.98,781.422 1104.85,781.422 "/>
<path clip-path="url(#clip892)" d="M1041.98 768.595 L1010.54 768.595 L1073.41 768.595 L1041.98 768.595 L1041.98 781.422 L1041.98 768.595  Z" fill="#d55e00" fill-rule="evenodd" fill-opacity="1"/>
<polyline clip-path="url(#clip892)" style="stroke:#d55e00; stroke-linecap:round; stroke-linejoin:round; stroke-width:6; stroke-opacity:1; fill:none" points="1041.98,768.595 1010.54,768.595 1073.41,768.595 1041.98,768.595 1041.98,781.422 1041.98,768.595 "/>
<path clip-path="url(#clip892)" d="M1391.26 749.227 L1359.82 749.227 L1422.69 749.227 L1391.26 749.227 L1391.26 735.881 L1391.26 749.227  Z" fill="#d55e00" fill-rule="evenodd" fill-opacity="1"/>
<polyline clip-path="url(#clip892)" style="stroke:#d55e00; stroke-linecap:round; stroke-linejoin:round; stroke-width:6; stroke-opacity:1; fill:none" points="1391.26,749.227 1359.82,749.227 1422.69,749.227 1391.26,749.227 1391.26,735.881 1391.26,749.227 "/>
<path clip-path="url(#clip892)" d="M1454.13 735.881 L1454.13 730.752 L1328.39 730.752 L1328.39 735.881 L1454.13 735.881 L1454.13 730.752 L1454.13 735.881  Z" fill="#d55e00" fill-rule="evenodd" fill-opacity="1"/>
<polyline clip-path="url(#clip892)" style="stroke:#d55e00; stroke-linecap:round; stroke-linejoin:round; stroke-width:6; stroke-opacity:1; fill:none" points="1454.13,735.881 1454.13,730.752 1328.39,730.752 1328.39,735.881 1454.13,735.881 1454.13,730.752 1454.13,735.881 "/>
<path clip-path="url(#clip892)" d="M1454.13 724.867 L1328.39 724.867 L1328.39 730.752 L1454.13 730.752 L1454.13 724.867 L1391.26 724.867 L1454.13 724.867  Z" fill="#d55e00" fill-rule="evenodd" fill-opacity="1"/>
<polyline clip-path="url(#clip892)" style="stroke:#d55e00; stroke-linecap:round; stroke-linejoin:round; stroke-width:6; stroke-opacity:1; fill:none" points="1454.13,724.867 1328.39,724.867 1328.39,730.752 1454.13,730.752 1454.13,724.867 1391.26,724.867 1454.13,724.867 "/>
<path clip-path="url(#clip892)" d="M1391.26 710.203 L1359.82 710.203 L1422.69 710.203 L1391.26 710.203 L1391.26 724.867 L1391.26 710.203  Z" fill="#d55e00" fill-rule="evenodd" fill-opacity="1"/>
<polyline clip-path="url(#clip892)" style="stroke:#d55e00; stroke-linecap:round; stroke-linejoin:round; stroke-width:6; stroke-opacity:1; fill:none" points="1391.26,710.203 1359.82,710.203 1422.69,710.203 1391.26,710.203 1391.26,724.867 1391.26,710.203 "/>
<path clip-path="url(#clip892)" d="M1740.54 712.354 L1709.1 712.354 L1771.97 712.354 L1740.54 712.354 L1740.54 698.95 L1740.54 712.354  Z" fill="#d55e00" fill-rule="evenodd" fill-opacity="1"/>
<polyline clip-path="url(#clip892)" style="stroke:#d55e00; stroke-linecap:round; stroke-linejoin:round; stroke-width:6; stroke-opacity:1; fill:none" points="1740.54,712.354 1709.1,712.354 1771.97,712.354 1740.54,712.354 1740.54,698.95 1740.54,712.354 "/>
<path clip-path="url(#clip892)" d="M1803.41 698.95 L1803.41 694.011 L1677.67 694.011 L1677.67 698.95 L1803.41 698.95 L1803.41 694.011 L1803.41 698.95  Z" fill="#d55e00" fill-rule="evenodd" fill-opacity="1"/>
<polyline clip-path="url(#clip892)" style="stroke:#d55e00; stroke-linecap:round; stroke-linejoin:round; stroke-width:6; stroke-opacity:1; fill:none" points="1803.41,698.95 1803.41,694.011 1677.67,694.011 1677.67,698.95 1803.41,698.95 1803.41,694.011 1803.41,698.95 "/>
<path clip-path="url(#clip892)" d="M1803.41 688.165 L1677.67 688.165 L1677.67 694.011 L1803.41 694.011 L1803.41 688.165 L1740.54 688.165 L1803.41 688.165  Z" fill="#d55e00" fill-rule="evenodd" fill-opacity="1"/>
<polyline clip-path="url(#clip892)" style="stroke:#d55e00; stroke-linecap:round; stroke-linejoin:round; stroke-width:6; stroke-opacity:1; fill:none" points="1803.41,688.165 1677.67,688.165 1677.67,694.011 1803.41,694.011 1803.41,688.165 1740.54,688.165 1803.41,688.165 "/>
<path clip-path="url(#clip892)" d="M1740.54 676.267 L1709.1 676.267 L1771.97 676.267 L1740.54 676.267 L1740.54 688.165 L1740.54 676.267  Z" fill="#d55e00" fill-rule="evenodd" fill-opacity="1"/>
<polyline clip-path="url(#clip892)" style="stroke:#d55e00; stroke-linecap:round; stroke-linejoin:round; stroke-width:6; stroke-opacity:1; fill:none" points="1740.54,676.267 1709.1,676.267 1771.97,676.267 1740.54,676.267 1740.54,688.165 1740.54,676.267 "/>
<path clip-path="url(#clip892)" d="M2089.82 676.08 L2058.38 676.08 L2121.25 676.08 L2089.82 676.08 L2089.82 669.291 L2089.82 676.08  Z" fill="#d55e00" fill-rule="evenodd" fill-opacity="1"/>
<polyline clip-path="url(#clip892)" style="stroke:#d55e00; stroke-linecap:round; stroke-linejoin:round; stroke-width:6; stroke-opacity:1; fill:none" points="2089.82,676.08 2058.38,676.08 2121.25,676.08 2089.82,676.08 2089.82,669.291 2089.82,676.08 "/>
<path clip-path="url(#clip892)" d="M2152.69 669.291 L2152.69 665.008 L2026.95 665.008 L2026.95 669.291 L2152.69 669.291 L2152.69 665.008 L2152.69 669.291  Z" fill="#d55e00" fill-rule="evenodd" fill-opacity="1"/>
<polyline clip-path="url(#clip892)" style="stroke:#d55e00; stroke-linecap:round; stroke-linejoin:round; stroke-width:6; stroke-opacity:1; fill:none" points="2152.69,669.291 2152.69,665.008 2026.95,665.008 2026.95,669.291 2152.69,669.291 2152.69,665.008 2152.69,669.291 "/>
<path clip-path="url(#clip892)" d="M2152.69 662.099 L2026.95 662.099 L2026.95 665.008 L2152.69 665.008 L2152.69 662.099 L2089.82 662.099 L2152.69 662.099  Z" fill="#d55e00" fill-rule="evenodd" fill-opacity="1"/>
<polyline clip-path="url(#clip892)" style="stroke:#d55e00; stroke-linecap:round; stroke-linejoin:round; stroke-width:6; stroke-opacity:1; fill:none" points="2152.69,662.099 2026.95,662.099 2026.95,665.008 2152.69,665.008 2152.69,662.099 2089.82,662.099 2152.69,662.099 "/>
<path clip-path="url(#clip892)" d="M2089.82 654.159 L2058.38 654.159 L2121.25 654.159 L2089.82 654.159 L2089.82 662.099 L2089.82 654.159  Z" fill="#d55e00" fill-rule="evenodd" fill-opacity="1"/>
<polyline clip-path="url(#clip892)" style="stroke:#d55e00; stroke-linecap:round; stroke-linejoin:round; stroke-width:6; stroke-opacity:1; fill:none" points="2089.82,654.159 2058.38,654.159 2121.25,654.159 2089.82,654.159 2089.82,662.099 2089.82,654.159 "/>
<polyline clip-path="url(#clip892)" style="stroke:#d55e00; stroke-linecap:round; stroke-linejoin:round; stroke-width:0; stroke-opacity:1; fill:none" points="343.416,972.336 311.981,972.336 374.852,972.336 343.416,972.336 343.416,949.912 "/>
<polyline clip-path="url(#clip892)" style="stroke:#d55e00; stroke-linecap:round; stroke-linejoin:round; stroke-width:0; stroke-opacity:1; fill:none" points="406.287,949.912 406.287,937.614 280.546,937.614 280.546,949.912 406.287,949.912 406.287,937.614 "/>
<polyline clip-path="url(#clip892)" style="stroke:#d55e00; stroke-linecap:round; stroke-linejoin:round; stroke-width:0; stroke-opacity:1; fill:none" points="406.287,925.148 280.546,925.148 280.546,937.614 406.287,937.614 406.287,925.148 343.416,925.148 "/>
<polyline clip-path="url(#clip892)" style="stroke:#d55e00; stroke-linecap:round; stroke-linejoin:round; stroke-width:0; stroke-opacity:1; fill:none" points="343.416,897.286 311.981,897.286 374.852,897.286 343.416,897.286 343.416,925.148 "/>
<polyline clip-path="url(#clip892)" style="stroke:#d55e00; stroke-linecap:round; stroke-linejoin:round; stroke-width:0; stroke-opacity:1; fill:none" points="692.697,885.271 661.261,885.271 724.132,885.271 692.697,885.271 692.697,867.828 "/>
<polyline clip-path="url(#clip892)" style="stroke:#d55e00; stroke-linecap:round; stroke-linejoin:round; stroke-width:0; stroke-opacity:1; fill:none" points="755.567,867.828 755.567,861.609 629.826,861.609 629.826,867.828 755.567,867.828 755.567,861.609 "/>
<polyline clip-path="url(#clip892)" style="stroke:#d55e00; stroke-linecap:round; stroke-linejoin:round; stroke-width:0; stroke-opacity:1; fill:none" points="755.567,853.799 629.826,853.799 629.826,861.609 755.567,861.609 755.567,853.799 692.697,853.799 "/>
<polyline clip-path="url(#clip892)" style="stroke:#d55e00; stroke-linecap:round; stroke-linejoin:round; stroke-width:0; stroke-opacity:1; fill:none" points="692.697,833.99 661.261,833.99 724.132,833.99 692.697,833.99 692.697,853.799 "/>
<polyline clip-path="url(#clip892)" style="stroke:#d55e00; stroke-linecap:round; stroke-linejoin:round; stroke-width:0; stroke-opacity:1; fill:none" points="1041.98,810.411 1010.54,810.411 1073.41,810.411 1041.98,810.411 1041.98,794.263 "/>
<polyline clip-path="url(#clip892)" style="stroke:#d55e00; stroke-linecap:round; stroke-linejoin:round; stroke-width:0; stroke-opacity:1; fill:none" points="1104.85,794.263 1104.85,789.083 979.106,789.083 979.106,794.263 1104.85,794.263 1104.85,789.083 "/>
<polyline clip-path="url(#clip892)" style="stroke:#d55e00; stroke-linecap:round; stroke-linejoin:round; stroke-width:0; stroke-opacity:1; fill:none" points="1104.85,781.422 979.106,781.422 979.106,789.083 1104.85,789.083 1104.85,781.422 1041.98,781.422 "/>
<polyline clip-path="url(#clip892)" style="stroke:#d55e00; stroke-linecap:round; stroke-linejoin:round; stroke-width:0; stroke-opacity:1; fill:none" points="1041.98,768.595 1010.54,768.595 1073.41,768.595 1041.98,768.595 1041.98,781.422 "/>
<polyline clip-path="url(#clip892)" style="stroke:#d55e00; stroke-linecap:round; stroke-linejoin:round; stroke-width:0; stroke-opacity:1; fill:none" points="1391.26,749.227 1359.82,749.227 1422.69,749.227 1391.26,749.227 1391.26,735.881 "/>
<polyline clip-path="url(#clip892)" style="stroke:#d55e00; stroke-linecap:round; stroke-linejoin:round; stroke-width:0; stroke-opacity:1; fill:none" points="1454.13,735.881 1454.13,730.752 1328.39,730.752 1328.39,735.881 1454.13,735.881 1454.13,730.752 "/>
<polyline clip-path="url(#clip892)" style="stroke:#d55e00; stroke-linecap:round; stroke-linejoin:round; stroke-width:0; stroke-opacity:1; fill:none" points="1454.13,724.867 1328.39,724.867 1328.39,730.752 1454.13,730.752 1454.13,724.867 1391.26,724.867 "/>
<polyline clip-path="url(#clip892)" style="stroke:#d55e00; stroke-linecap:round; stroke-linejoin:round; stroke-width:0; stroke-opacity:1; fill:none" points="1391.26,710.203 1359.82,710.203 1422.69,710.203 1391.26,710.203 1391.26,724.867 "/>
<polyline clip-path="url(#clip892)" style="stroke:#d55e00; stroke-linecap:round; stroke-linejoin:round; stroke-width:0; stroke-opacity:1; fill:none" points="1740.54,712.354 1709.1,712.354 1771.97,712.354 1740.54,712.354 1740.54,698.95 "/>
<polyline clip-path="url(#clip892)" style="stroke:#d55e00; stroke-linecap:round; stroke-linejoin:round; stroke-width:0; stroke-opacity:1; fill:none" points="1803.41,698.95 1803.41,694.011 1677.67,694.011 1677.67,698.95 1803.41,698.95 1803.41,694.011 "/>
<polyline clip-path="url(#clip892)" style="stroke:#d55e00; stroke-linecap:round; stroke-linejoin:round; stroke-width:0; stroke-opacity:1; fill:none" points="1803.41,688.165 1677.67,688.165 1677.67,694.011 1803.41,694.011 1803.41,688.165 1740.54,688.165 "/>
<polyline clip-path="url(#clip892)" style="stroke:#d55e00; stroke-linecap:round; stroke-linejoin:round; stroke-width:0; stroke-opacity:1; fill:none" points="1740.54,676.267 1709.1,676.267 1771.97,676.267 1740.54,676.267 1740.54,688.165 "/>
<polyline clip-path="url(#clip892)" style="stroke:#d55e00; stroke-linecap:round; stroke-linejoin:round; stroke-width:0; stroke-opacity:1; fill:none" points="2089.82,676.08 2058.38,676.08 2121.25,676.08 2089.82,676.08 2089.82,669.291 "/>
<polyline clip-path="url(#clip892)" style="stroke:#d55e00; stroke-linecap:round; stroke-linejoin:round; stroke-width:0; stroke-opacity:1; fill:none" points="2152.69,669.291 2152.69,665.008 2026.95,665.008 2026.95,669.291 2152.69,669.291 2152.69,665.008 "/>
<polyline clip-path="url(#clip892)" style="stroke:#d55e00; stroke-linecap:round; stroke-linejoin:round; stroke-width:0; stroke-opacity:1; fill:none" points="2152.69,662.099 2026.95,662.099 2026.95,665.008 2152.69,665.008 2152.69,662.099 2089.82,662.099 "/>
<polyline clip-path="url(#clip892)" style="stroke:#d55e00; stroke-linecap:round; stroke-linejoin:round; stroke-width:0; stroke-opacity:1; fill:none" points="2089.82,654.159 2058.38,654.159 2121.25,654.159 2089.82,654.159 2089.82,662.099 "/>
<path clip-path="url(#clip892)" d="M483.129 1133.97 L451.693 1133.97 L514.564 1133.97 L483.129 1133.97 L483.129 816.731 L483.129 1133.97  Z" fill="#56b4e9" fill-rule="evenodd" fill-opacity="1"/>
<polyline clip-path="url(#clip892)" style="stroke:#56b4e9; stroke-linecap:round; stroke-linejoin:round; stroke-width:6; stroke-opacity:1; fill:none" points="483.129,1133.97 451.693,1133.97 514.564,1133.97 483.129,1133.97 483.129,816.731 483.129,1133.97 "/>
<path clip-path="url(#clip892)" d="M545.999 816.731 L545.999 695.696 L420.258 695.696 L420.258 816.731 L545.999 816.731 L545.999 695.696 L545.999 816.731  Z" fill="#56b4e9" fill-rule="evenodd" fill-opacity="1"/>
<polyline clip-path="url(#clip892)" style="stroke:#56b4e9; stroke-linecap:round; stroke-linejoin:round; stroke-width:6; stroke-opacity:1; fill:none" points="545.999,816.731 545.999,695.696 420.258,695.696 420.258,816.731 545.999,816.731 545.999,695.696 545.999,816.731 "/>
<path clip-path="url(#clip892)" d="M545.999 589.474 L420.258 589.474 L420.258 695.696 L545.999 695.696 L545.999 589.474 L483.129 589.474 L545.999 589.474  Z" fill="#56b4e9" fill-rule="evenodd" fill-opacity="1"/>
<polyline clip-path="url(#clip892)" style="stroke:#56b4e9; stroke-linecap:round; stroke-linejoin:round; stroke-width:6; stroke-opacity:1; fill:none" points="545.999,589.474 420.258,589.474 420.258,695.696 545.999,695.696 545.999,589.474 483.129,589.474 545.999,589.474 "/>
<path clip-path="url(#clip892)" d="M483.129 346.012 L451.693 346.012 L514.564 346.012 L483.129 346.012 L483.129 589.474 L483.129 346.012  Z" fill="#56b4e9" fill-rule="evenodd" fill-opacity="1"/>
<polyline clip-path="url(#clip892)" style="stroke:#56b4e9; stroke-linecap:round; stroke-linejoin:round; stroke-width:6; stroke-opacity:1; fill:none" points="483.129,346.012 451.693,346.012 514.564,346.012 483.129,346.012 483.129,589.474 483.129,346.012 "/>
<path clip-path="url(#clip892)" d="M832.409 1017.57 L800.974 1017.57 L863.844 1017.57 L832.409 1017.57 L832.409 733.963 L832.409 1017.57  Z" fill="#56b4e9" fill-rule="evenodd" fill-opacity="1"/>
<polyline clip-path="url(#clip892)" style="stroke:#56b4e9; stroke-linecap:round; stroke-linejoin:round; stroke-width:6; stroke-opacity:1; fill:none" points="832.409,1017.57 800.974,1017.57 863.844,1017.57 832.409,1017.57 832.409,733.963 832.409,1017.57 "/>
<path clip-path="url(#clip892)" d="M895.279 733.963 L895.279 637.843 L769.538 637.843 L769.538 733.963 L895.279 733.963 L895.279 637.843 L895.279 733.963  Z" fill="#56b4e9" fill-rule="evenodd" fill-opacity="1"/>
<polyline clip-path="url(#clip892)" style="stroke:#56b4e9; stroke-linecap:round; stroke-linejoin:round; stroke-width:6; stroke-opacity:1; fill:none" points="895.279,733.963 895.279,637.843 769.538,637.843 769.538,733.963 895.279,733.963 895.279,637.843 895.279,733.963 "/>
<path clip-path="url(#clip892)" d="M895.279 522.75 L769.538 522.75 L769.538 637.843 L895.279 637.843 L895.279 522.75 L832.409 522.75 L895.279 522.75  Z" fill="#56b4e9" fill-rule="evenodd" fill-opacity="1"/>
<polyline clip-path="url(#clip892)" style="stroke:#56b4e9; stroke-linecap:round; stroke-linejoin:round; stroke-width:6; stroke-opacity:1; fill:none" points="895.279,522.75 769.538,522.75 769.538,637.843 895.279,637.843 895.279,522.75 832.409,522.75 895.279,522.75 "/>
<path clip-path="url(#clip892)" d="M832.409 232.218 L800.974 232.218 L863.844 232.218 L832.409 232.218 L832.409 522.75 L832.409 232.218  Z" fill="#56b4e9" fill-rule="evenodd" fill-opacity="1"/>
<polyline clip-path="url(#clip892)" style="stroke:#56b4e9; stroke-linecap:round; stroke-linejoin:round; stroke-width:6; stroke-opacity:1; fill:none" points="832.409,232.218 800.974,232.218 863.844,232.218 832.409,232.218 832.409,522.75 832.409,232.218 "/>
<path clip-path="url(#clip892)" d="M1181.69 905.764 L1150.25 905.764 L1213.12 905.764 L1181.69 905.764 L1181.69 661.979 L1181.69 905.764  Z" fill="#56b4e9" fill-rule="evenodd" fill-opacity="1"/>
<polyline clip-path="url(#clip892)" style="stroke:#56b4e9; stroke-linecap:round; stroke-linejoin:round; stroke-width:6; stroke-opacity:1; fill:none" points="1181.69,905.764 1150.25,905.764 1213.12,905.764 1181.69,905.764 1181.69,661.979 1181.69,905.764 "/>
<path clip-path="url(#clip892)" d="M1244.56 661.979 L1244.56 557.24 L1118.82 557.24 L1118.82 661.979 L1244.56 661.979 L1244.56 557.24 L1244.56 661.979  Z" fill="#56b4e9" fill-rule="evenodd" fill-opacity="1"/>
<polyline clip-path="url(#clip892)" style="stroke:#56b4e9; stroke-linecap:round; stroke-linejoin:round; stroke-width:6; stroke-opacity:1; fill:none" points="1244.56,661.979 1244.56,557.24 1118.82,557.24 1118.82,661.979 1244.56,661.979 1244.56,557.24 1244.56,661.979 "/>
<path clip-path="url(#clip892)" d="M1244.56 441.097 L1118.82 441.097 L1118.82 557.24 L1244.56 557.24 L1244.56 441.097 L1181.69 441.097 L1244.56 441.097  Z" fill="#56b4e9" fill-rule="evenodd" fill-opacity="1"/>
<polyline clip-path="url(#clip892)" style="stroke:#56b4e9; stroke-linecap:round; stroke-linejoin:round; stroke-width:6; stroke-opacity:1; fill:none" points="1244.56,441.097 1118.82,441.097 1118.82,557.24 1244.56,557.24 1244.56,441.097 1181.69,441.097 1244.56,441.097 "/>
<path clip-path="url(#clip892)" d="M1181.69 177.907 L1150.25 177.907 L1213.12 177.907 L1181.69 177.907 L1181.69 441.097 L1181.69 177.907  Z" fill="#56b4e9" fill-rule="evenodd" fill-opacity="1"/>
<polyline clip-path="url(#clip892)" style="stroke:#56b4e9; stroke-linecap:round; stroke-linejoin:round; stroke-width:6; stroke-opacity:1; fill:none" points="1181.69,177.907 1150.25,177.907 1213.12,177.907 1181.69,177.907 1181.69,441.097 1181.69,177.907 "/>
<path clip-path="url(#clip892)" d="M1530.97 887.922 L1499.53 887.922 L1562.4 887.922 L1530.97 887.922 L1530.97 661.566 L1530.97 887.922  Z" fill="#56b4e9" fill-rule="evenodd" fill-opacity="1"/>
<polyline clip-path="url(#clip892)" style="stroke:#56b4e9; stroke-linecap:round; stroke-linejoin:round; stroke-width:6; stroke-opacity:1; fill:none" points="1530.97,887.922 1499.53,887.922 1562.4,887.922 1530.97,887.922 1530.97,661.566 1530.97,887.922 "/>
<path clip-path="url(#clip892)" d="M1593.84 661.566 L1593.84 575.011 L1468.1 575.011 L1468.1 661.566 L1593.84 661.566 L1593.84 575.011 L1593.84 661.566  Z" fill="#56b4e9" fill-rule="evenodd" fill-opacity="1"/>
<polyline clip-path="url(#clip892)" style="stroke:#56b4e9; stroke-linecap:round; stroke-linejoin:round; stroke-width:6; stroke-opacity:1; fill:none" points="1593.84,661.566 1593.84,575.011 1468.1,575.011 1468.1,661.566 1593.84,661.566 1593.84,575.011 1593.84,661.566 "/>
<path clip-path="url(#clip892)" d="M1593.84 429.469 L1468.1 429.469 L1468.1 575.011 L1593.84 575.011 L1593.84 429.469 L1530.97 429.469 L1593.84 429.469  Z" fill="#56b4e9" fill-rule="evenodd" fill-opacity="1"/>
<polyline clip-path="url(#clip892)" style="stroke:#56b4e9; stroke-linecap:round; stroke-linejoin:round; stroke-width:6; stroke-opacity:1; fill:none" points="1593.84,429.469 1468.1,429.469 1468.1,575.011 1593.84,575.011 1593.84,429.469 1530.97,429.469 1593.84,429.469 "/>
<path clip-path="url(#clip892)" d="M1530.97 152.904 L1499.53 152.904 L1562.4 152.904 L1530.97 152.904 L1530.97 429.469 L1530.97 152.904  Z" fill="#56b4e9" fill-rule="evenodd" fill-opacity="1"/>
<polyline clip-path="url(#clip892)" style="stroke:#56b4e9; stroke-linecap:round; stroke-linejoin:round; stroke-width:6; stroke-opacity:1; fill:none" points="1530.97,152.904 1499.53,152.904 1562.4,152.904 1530.97,152.904 1530.97,429.469 1530.97,152.904 "/>
<path clip-path="url(#clip892)" d="M1880.25 914.605 L1848.81 914.605 L1911.68 914.605 L1880.25 914.605 L1880.25 645.281 L1880.25 914.605  Z" fill="#56b4e9" fill-rule="evenodd" fill-opacity="1"/>
<polyline clip-path="url(#clip892)" style="stroke:#56b4e9; stroke-linecap:round; stroke-linejoin:round; stroke-width:6; stroke-opacity:1; fill:none" points="1880.25,914.605 1848.81,914.605 1911.68,914.605 1880.25,914.605 1880.25,645.281 1880.25,914.605 "/>
<path clip-path="url(#clip892)" d="M1943.12 645.281 L1943.12 547.459 L1817.38 547.459 L1817.38 645.281 L1943.12 645.281 L1943.12 547.459 L1943.12 645.281  Z" fill="#56b4e9" fill-rule="evenodd" fill-opacity="1"/>
<polyline clip-path="url(#clip892)" style="stroke:#56b4e9; stroke-linecap:round; stroke-linejoin:round; stroke-width:6; stroke-opacity:1; fill:none" points="1943.12,645.281 1943.12,547.459 1817.38,547.459 1817.38,645.281 1943.12,645.281 1943.12,547.459 1943.12,645.281 "/>
<path clip-path="url(#clip892)" d="M1943.12 448.606 L1817.38 448.606 L1817.38 547.459 L1943.12 547.459 L1943.12 448.606 L1880.25 448.606 L1943.12 448.606  Z" fill="#56b4e9" fill-rule="evenodd" fill-opacity="1"/>
<polyline clip-path="url(#clip892)" style="stroke:#56b4e9; stroke-linecap:round; stroke-linejoin:round; stroke-width:6; stroke-opacity:1; fill:none" points="1943.12,448.606 1817.38,448.606 1817.38,547.459 1943.12,547.459 1943.12,448.606 1880.25,448.606 1943.12,448.606 "/>
<path clip-path="url(#clip892)" d="M1880.25 180.152 L1848.81 180.152 L1911.68 180.152 L1880.25 180.152 L1880.25 448.606 L1880.25 180.152  Z" fill="#56b4e9" fill-rule="evenodd" fill-opacity="1"/>
<polyline clip-path="url(#clip892)" style="stroke:#56b4e9; stroke-linecap:round; stroke-linejoin:round; stroke-width:6; stroke-opacity:1; fill:none" points="1880.25,180.152 1848.81,180.152 1911.68,180.152 1880.25,180.152 1880.25,448.606 1880.25,180.152 "/>
<path clip-path="url(#clip892)" d="M2229.53 935.244 L2198.09 935.244 L2260.97 935.244 L2229.53 935.244 L2229.53 681.59 L2229.53 935.244  Z" fill="#56b4e9" fill-rule="evenodd" fill-opacity="1"/>
<polyline clip-path="url(#clip892)" style="stroke:#56b4e9; stroke-linecap:round; stroke-linejoin:round; stroke-width:6; stroke-opacity:1; fill:none" points="2229.53,935.244 2198.09,935.244 2260.97,935.244 2229.53,935.244 2229.53,681.59 2229.53,935.244 "/>
<path clip-path="url(#clip892)" d="M2292.4 681.59 L2292.4 570.26 L2166.66 570.26 L2166.66 681.59 L2292.4 681.59 L2292.4 570.26 L2292.4 681.59  Z" fill="#56b4e9" fill-rule="evenodd" fill-opacity="1"/>
<polyline clip-path="url(#clip892)" style="stroke:#56b4e9; stroke-linecap:round; stroke-linejoin:round; stroke-width:6; stroke-opacity:1; fill:none" points="2292.4,681.59 2292.4,570.26 2166.66,570.26 2166.66,681.59 2292.4,681.59 2292.4,570.26 2292.4,681.59 "/>
<path clip-path="url(#clip892)" d="M2292.4 471.766 L2166.66 471.766 L2166.66 570.26 L2292.4 570.26 L2292.4 471.766 L2229.53 471.766 L2292.4 471.766  Z" fill="#56b4e9" fill-rule="evenodd" fill-opacity="1"/>
<polyline clip-path="url(#clip892)" style="stroke:#56b4e9; stroke-linecap:round; stroke-linejoin:round; stroke-width:6; stroke-opacity:1; fill:none" points="2292.4,471.766 2166.66,471.766 2166.66,570.26 2292.4,570.26 2292.4,471.766 2229.53,471.766 2292.4,471.766 "/>
<path clip-path="url(#clip892)" d="M2229.53 168.742 L2198.09 168.742 L2260.97 168.742 L2229.53 168.742 L2229.53 471.766 L2229.53 168.742  Z" fill="#56b4e9" fill-rule="evenodd" fill-opacity="1"/>
<polyline clip-path="url(#clip892)" style="stroke:#56b4e9; stroke-linecap:round; stroke-linejoin:round; stroke-width:6; stroke-opacity:1; fill:none" points="2229.53,168.742 2198.09,168.742 2260.97,168.742 2229.53,168.742 2229.53,471.766 2229.53,168.742 "/>
<polyline clip-path="url(#clip892)" style="stroke:#56b4e9; stroke-linecap:round; stroke-linejoin:round; stroke-width:0; stroke-opacity:1; fill:none" points="483.129,1133.97 451.693,1133.97 514.564,1133.97 483.129,1133.97 483.129,816.731 "/>
<polyline clip-path="url(#clip892)" style="stroke:#56b4e9; stroke-linecap:round; stroke-linejoin:round; stroke-width:0; stroke-opacity:1; fill:none" points="545.999,816.731 545.999,695.696 420.258,695.696 420.258,816.731 545.999,816.731 545.999,695.696 "/>
<polyline clip-path="url(#clip892)" style="stroke:#56b4e9; stroke-linecap:round; stroke-linejoin:round; stroke-width:0; stroke-opacity:1; fill:none" points="545.999,589.474 420.258,589.474 420.258,695.696 545.999,695.696 545.999,589.474 483.129,589.474 "/>
<polyline clip-path="url(#clip892)" style="stroke:#56b4e9; stroke-linecap:round; stroke-linejoin:round; stroke-width:0; stroke-opacity:1; fill:none" points="483.129,346.012 451.693,346.012 514.564,346.012 483.129,346.012 483.129,589.474 "/>
<polyline clip-path="url(#clip892)" style="stroke:#56b4e9; stroke-linecap:round; stroke-linejoin:round; stroke-width:0; stroke-opacity:1; fill:none" points="832.409,1017.57 800.974,1017.57 863.844,1017.57 832.409,1017.57 832.409,733.963 "/>
<polyline clip-path="url(#clip892)" style="stroke:#56b4e9; stroke-linecap:round; stroke-linejoin:round; stroke-width:0; stroke-opacity:1; fill:none" points="895.279,733.963 895.279,637.843 769.538,637.843 769.538,733.963 895.279,733.963 895.279,637.843 "/>
<polyline clip-path="url(#clip892)" style="stroke:#56b4e9; stroke-linecap:round; stroke-linejoin:round; stroke-width:0; stroke-opacity:1; fill:none" points="895.279,522.75 769.538,522.75 769.538,637.843 895.279,637.843 895.279,522.75 832.409,522.75 "/>
<polyline clip-path="url(#clip892)" style="stroke:#56b4e9; stroke-linecap:round; stroke-linejoin:round; stroke-width:0; stroke-opacity:1; fill:none" points="832.409,232.218 800.974,232.218 863.844,232.218 832.409,232.218 832.409,522.75 "/>
<polyline clip-path="url(#clip892)" style="stroke:#56b4e9; stroke-linecap:round; stroke-linejoin:round; stroke-width:0; stroke-opacity:1; fill:none" points="1181.69,905.764 1150.25,905.764 1213.12,905.764 1181.69,905.764 1181.69,661.979 "/>
<polyline clip-path="url(#clip892)" style="stroke:#56b4e9; stroke-linecap:round; stroke-linejoin:round; stroke-width:0; stroke-opacity:1; fill:none" points="1244.56,661.979 1244.56,557.24 1118.82,557.24 1118.82,661.979 1244.56,661.979 1244.56,557.24 "/>
<polyline clip-path="url(#clip892)" style="stroke:#56b4e9; stroke-linecap:round; stroke-linejoin:round; stroke-width:0; stroke-opacity:1; fill:none" points="1244.56,441.097 1118.82,441.097 1118.82,557.24 1244.56,557.24 1244.56,441.097 1181.69,441.097 "/>
<polyline clip-path="url(#clip892)" style="stroke:#56b4e9; stroke-linecap:round; stroke-linejoin:round; stroke-width:0; stroke-opacity:1; fill:none" points="1181.69,177.907 1150.25,177.907 1213.12,177.907 1181.69,177.907 1181.69,441.097 "/>
<polyline clip-path="url(#clip892)" style="stroke:#56b4e9; stroke-linecap:round; stroke-linejoin:round; stroke-width:0; stroke-opacity:1; fill:none" points="1530.97,887.922 1499.53,887.922 1562.4,887.922 1530.97,887.922 1530.97,661.566 "/>
<polyline clip-path="url(#clip892)" style="stroke:#56b4e9; stroke-linecap:round; stroke-linejoin:round; stroke-width:0; stroke-opacity:1; fill:none" points="1593.84,661.566 1593.84,575.011 1468.1,575.011 1468.1,661.566 1593.84,661.566 1593.84,575.011 "/>
<polyline clip-path="url(#clip892)" style="stroke:#56b4e9; stroke-linecap:round; stroke-linejoin:round; stroke-width:0; stroke-opacity:1; fill:none" points="1593.84,429.469 1468.1,429.469 1468.1,575.011 1593.84,575.011 1593.84,429.469 1530.97,429.469 "/>
<polyline clip-path="url(#clip892)" style="stroke:#56b4e9; stroke-linecap:round; stroke-linejoin:round; stroke-width:0; stroke-opacity:1; fill:none" points="1530.97,152.904 1499.53,152.904 1562.4,152.904 1530.97,152.904 1530.97,429.469 "/>
<polyline clip-path="url(#clip892)" style="stroke:#56b4e9; stroke-linecap:round; stroke-linejoin:round; stroke-width:0; stroke-opacity:1; fill:none" points="1880.25,914.605 1848.81,914.605 1911.68,914.605 1880.25,914.605 1880.25,645.281 "/>
<polyline clip-path="url(#clip892)" style="stroke:#56b4e9; stroke-linecap:round; stroke-linejoin:round; stroke-width:0; stroke-opacity:1; fill:none" points="1943.12,645.281 1943.12,547.459 1817.38,547.459 1817.38,645.281 1943.12,645.281 1943.12,547.459 "/>
<polyline clip-path="url(#clip892)" style="stroke:#56b4e9; stroke-linecap:round; stroke-linejoin:round; stroke-width:0; stroke-opacity:1; fill:none" points="1943.12,448.606 1817.38,448.606 1817.38,547.459 1943.12,547.459 1943.12,448.606 1880.25,448.606 "/>
<polyline clip-path="url(#clip892)" style="stroke:#56b4e9; stroke-linecap:round; stroke-linejoin:round; stroke-width:0; stroke-opacity:1; fill:none" points="1880.25,180.152 1848.81,180.152 1911.68,180.152 1880.25,180.152 1880.25,448.606 "/>
<polyline clip-path="url(#clip892)" style="stroke:#56b4e9; stroke-linecap:round; stroke-linejoin:round; stroke-width:0; stroke-opacity:1; fill:none" points="2229.53,935.244 2198.09,935.244 2260.97,935.244 2229.53,935.244 2229.53,681.59 "/>
<polyline clip-path="url(#clip892)" style="stroke:#56b4e9; stroke-linecap:round; stroke-linejoin:round; stroke-width:0; stroke-opacity:1; fill:none" points="2292.4,681.59 2292.4,570.26 2166.66,570.26 2166.66,681.59 2292.4,681.59 2292.4,570.26 "/>
<polyline clip-path="url(#clip892)" style="stroke:#56b4e9; stroke-linecap:round; stroke-linejoin:round; stroke-width:0; stroke-opacity:1; fill:none" points="2292.4,471.766 2166.66,471.766 2166.66,570.26 2292.4,570.26 2292.4,471.766 2229.53,471.766 "/>
<polyline clip-path="url(#clip892)" style="stroke:#56b4e9; stroke-linecap:round; stroke-linejoin:round; stroke-width:0; stroke-opacity:1; fill:none" points="2229.53,168.742 2198.09,168.742 2260.97,168.742 2229.53,168.742 2229.53,471.766 "/>
<polyline clip-path="url(#clip892)" style="stroke:#000000; stroke-linecap:round; stroke-linejoin:round; stroke-width:8; stroke-opacity:1; fill:none" points="-1912.38,535.571 4485.32,535.571 "/>
<path clip-path="url(#clip890)" d="M1575.59 1128.74 L2281.67 1128.74 L2281.67 973.221 L1575.59 973.221  Z" fill="#f0f1eb" fill-rule="evenodd" fill-opacity="1"/>
<polyline clip-path="url(#clip890)" style="stroke:#000000; stroke-linecap:round; stroke-linejoin:round; stroke-width:4; stroke-opacity:1; fill:none" points="1575.59,1128.74 2281.67,1128.74 2281.67,973.221 1575.59,973.221 1575.59,1128.74 "/>
<path clip-path="url(#clip890)" d="M1599.29 1082.09 L1741.46 1082.09 L1741.46 1019.88 L1599.29 1019.88 L1599.29 1082.09  Z" fill="#d55e00" fill-rule="evenodd" fill-opacity="1"/>
<polyline clip-path="url(#clip890)" style="stroke:#d55e00; stroke-linecap:round; stroke-linejoin:round; stroke-width:9; stroke-opacity:1; fill:none" points="1599.29,1082.09 1741.46,1082.09 1741.46,1019.88 1599.29,1019.88 1599.29,1082.09 "/>
<path clip-path="url(#clip890)" d="M1789.91 1022.87 L1789.91 1028.19 L1783.8 1028.19 Q1780.36 1028.19 1779.01 1029.58 Q1777.69 1030.96 1777.69 1034.58 L1777.69 1038.01 L1788.21 1038.01 L1788.21 1042.98 L1777.69 1042.98 L1777.69 1076.9 L1771.26 1076.9 L1771.26 1042.98 L1765.15 1042.98 L1765.15 1038.01 L1771.26 1038.01 L1771.26 1035.3 Q1771.26 1028.81 1774.28 1025.86 Q1777.3 1022.87 1783.87 1022.87 L1789.91 1022.87 Z" fill="#000000" fill-rule="nonzero" fill-opacity="1" /><path clip-path="url(#clip890)" d="M1812.93 1057.35 Q1805.19 1057.35 1802.2 1059.12 Q1799.21 1060.89 1799.21 1065.17 Q1799.21 1068.57 1801.44 1070.58 Q1803.69 1072.56 1807.55 1072.56 Q1812.86 1072.56 1816.05 1068.81 Q1819.28 1065.03 1819.28 1058.78 L1819.28 1057.35 L1812.93 1057.35 M1825.67 1054.71 L1825.67 1076.9 L1819.28 1076.9 L1819.28 1071 Q1817.1 1074.54 1813.83 1076.24 Q1810.57 1077.91 1805.85 1077.91 Q1799.87 1077.91 1796.33 1074.57 Q1792.83 1071.21 1792.83 1065.58 Q1792.83 1059.02 1797.2 1055.69 Q1801.61 1052.35 1810.32 1052.35 L1819.28 1052.35 L1819.28 1051.73 Q1819.28 1047.32 1816.37 1044.92 Q1813.48 1042.49 1808.24 1042.49 Q1804.91 1042.49 1801.75 1043.29 Q1798.59 1044.09 1795.67 1045.69 L1795.67 1039.78 Q1799.18 1038.43 1802.48 1037.77 Q1805.78 1037.08 1808.9 1037.08 Q1817.34 1037.08 1821.51 1041.45 Q1825.67 1045.83 1825.67 1054.71 Z" fill="#000000" fill-rule="nonzero" fill-opacity="1" /><path clip-path="url(#clip890)" d="M1863.62 1039.16 L1863.62 1045.2 Q1860.91 1043.81 1858 1043.12 Q1855.08 1042.42 1851.96 1042.42 Q1847.2 1042.42 1844.8 1043.88 Q1842.44 1045.34 1842.44 1048.26 Q1842.44 1050.48 1844.14 1051.76 Q1845.85 1053.01 1850.98 1054.16 L1853.17 1054.64 Q1859.98 1056.1 1862.82 1058.78 Q1865.71 1061.42 1865.71 1066.17 Q1865.71 1071.59 1861.4 1074.75 Q1857.13 1077.91 1849.63 1077.91 Q1846.51 1077.91 1843.1 1077.28 Q1839.73 1076.69 1835.98 1075.48 L1835.98 1068.88 Q1839.53 1070.72 1842.96 1071.66 Q1846.4 1072.56 1849.77 1072.56 Q1854.28 1072.56 1856.71 1071.03 Q1859.14 1069.47 1859.14 1066.66 Q1859.14 1064.05 1857.37 1062.67 Q1855.64 1061.28 1849.7 1059.99 L1847.48 1059.47 Q1841.54 1058.22 1838.9 1055.65 Q1836.26 1053.05 1836.26 1048.53 Q1836.26 1043.05 1840.15 1040.06 Q1844.04 1037.08 1851.19 1037.08 Q1854.73 1037.08 1857.86 1037.6 Q1860.98 1038.12 1863.62 1039.16 Z" fill="#000000" fill-rule="nonzero" fill-opacity="1" /><path clip-path="url(#clip890)" d="M1882.2 1026.97 L1882.2 1038.01 L1895.36 1038.01 L1895.36 1042.98 L1882.2 1042.98 L1882.2 1064.09 Q1882.2 1068.85 1883.48 1070.2 Q1884.8 1071.55 1888.8 1071.55 L1895.36 1071.55 L1895.36 1076.9 L1888.8 1076.9 Q1881.4 1076.9 1878.59 1074.16 Q1875.78 1071.38 1875.78 1064.09 L1875.78 1042.98 L1871.09 1042.98 L1871.09 1038.01 L1875.78 1038.01 L1875.78 1026.97 L1882.2 1026.97 Z" fill="#000000" fill-rule="nonzero" fill-opacity="1" /><path clip-path="url(#clip890)" d="M1940.48 1082.09 L2082.65 1082.09 L2082.65 1019.88 L1940.48 1019.88 L1940.48 1082.09  Z" fill="#56b4e9" fill-rule="evenodd" fill-opacity="1"/>
<polyline clip-path="url(#clip890)" style="stroke:#56b4e9; stroke-linecap:round; stroke-linejoin:round; stroke-width:9; stroke-opacity:1; fill:none" points="1940.48,1082.09 2082.65,1082.09 2082.65,1019.88 1940.48,1019.88 1940.48,1082.09 "/>
<path clip-path="url(#clip890)" d="M2133.98 1039.16 L2133.98 1045.2 Q2131.27 1043.81 2128.36 1043.12 Q2125.44 1042.42 2122.32 1042.42 Q2117.56 1042.42 2115.16 1043.88 Q2112.8 1045.34 2112.8 1048.26 Q2112.8 1050.48 2114.5 1051.76 Q2116.21 1053.01 2121.34 1054.16 L2123.53 1054.64 Q2130.34 1056.1 2133.18 1058.78 Q2136.07 1061.42 2136.07 1066.17 Q2136.07 1071.59 2131.76 1074.75 Q2127.49 1077.91 2119.99 1077.91 Q2116.86 1077.91 2113.46 1077.28 Q2110.09 1076.69 2106.34 1075.48 L2106.34 1068.88 Q2109.89 1070.72 2113.32 1071.66 Q2116.76 1072.56 2120.13 1072.56 Q2124.64 1072.56 2127.07 1071.03 Q2129.5 1069.47 2129.5 1066.66 Q2129.5 1064.05 2127.73 1062.67 Q2126 1061.28 2120.06 1059.99 L2117.84 1059.47 Q2111.9 1058.22 2109.26 1055.65 Q2106.62 1053.05 2106.62 1048.53 Q2106.62 1043.05 2110.51 1040.06 Q2114.4 1037.08 2121.55 1037.08 Q2125.09 1037.08 2128.22 1037.6 Q2131.34 1038.12 2133.98 1039.16 Z" fill="#000000" fill-rule="nonzero" fill-opacity="1" /><path clip-path="url(#clip890)" d="M2146.24 1022.87 L2152.63 1022.87 L2152.63 1076.9 L2146.24 1076.9 L2146.24 1022.87 Z" fill="#000000" fill-rule="nonzero" fill-opacity="1" /><path clip-path="url(#clip890)" d="M2181.07 1042.49 Q2175.93 1042.49 2172.94 1046.52 Q2169.95 1050.51 2169.95 1057.49 Q2169.95 1064.47 2172.91 1068.5 Q2175.89 1072.49 2181.07 1072.49 Q2186.17 1072.49 2189.16 1068.46 Q2192.14 1064.44 2192.14 1057.49 Q2192.14 1050.58 2189.16 1046.55 Q2186.17 1042.49 2181.07 1042.49 M2181.07 1037.08 Q2189.4 1037.08 2194.16 1042.49 Q2198.91 1047.91 2198.91 1057.49 Q2198.91 1067.04 2194.16 1072.49 Q2189.4 1077.91 2181.07 1077.91 Q2172.7 1077.91 2167.94 1072.49 Q2163.22 1067.04 2163.22 1057.49 Q2163.22 1047.91 2167.94 1042.49 Q2172.7 1037.08 2181.07 1037.08 Z" fill="#000000" fill-rule="nonzero" fill-opacity="1" /><path clip-path="url(#clip890)" d="M2205.79 1038.01 L2212.18 1038.01 L2220.16 1068.36 L2228.11 1038.01 L2235.65 1038.01 L2243.64 1068.36 L2251.59 1038.01 L2257.98 1038.01 L2247.8 1076.9 L2240.27 1076.9 L2231.9 1045.03 L2223.5 1076.9 L2215.96 1076.9 L2205.79 1038.01 Z" fill="#000000" fill-rule="nonzero" fill-opacity="1" /><path clip-path="url(#clip890)" d="M220.19 1423.18 L2352.76 1423.18 L2352.76 1194.9 L220.19 1194.9  Z" fill="#f0f1eb" fill-rule="evenodd" fill-opacity="1"/>
<polyline clip-path="url(#clip891)" style="stroke:#000000; stroke-linecap:round; stroke-linejoin:round; stroke-width:2; stroke-opacity:0.1; fill:none" points="472.65,1423.18 472.65,1194.9 "/>
<polyline clip-path="url(#clip891)" style="stroke:#000000; stroke-linecap:round; stroke-linejoin:round; stroke-width:2; stroke-opacity:0.1; fill:none" points="821.93,1423.18 821.93,1194.9 "/>
<polyline clip-path="url(#clip891)" style="stroke:#000000; stroke-linecap:round; stroke-linejoin:round; stroke-width:2; stroke-opacity:0.1; fill:none" points="1171.21,1423.18 1171.21,1194.9 "/>
<polyline clip-path="url(#clip891)" style="stroke:#000000; stroke-linecap:round; stroke-linejoin:round; stroke-width:2; stroke-opacity:0.1; fill:none" points="1520.49,1423.18 1520.49,1194.9 "/>
<polyline clip-path="url(#clip891)" style="stroke:#000000; stroke-linecap:round; stroke-linejoin:round; stroke-width:2; stroke-opacity:0.1; fill:none" points="1869.77,1423.18 1869.77,1194.9 "/>
<polyline clip-path="url(#clip891)" style="stroke:#000000; stroke-linecap:round; stroke-linejoin:round; stroke-width:2; stroke-opacity:0.1; fill:none" points="2219.05,1423.18 2219.05,1194.9 "/>
<polyline clip-path="url(#clip891)" style="stroke:#000000; stroke-linecap:round; stroke-linejoin:round; stroke-width:2; stroke-opacity:0.1; fill:none" points="472.65,1423.18 472.65,1194.9 "/>
<polyline clip-path="url(#clip891)" style="stroke:#000000; stroke-linecap:round; stroke-linejoin:round; stroke-width:2; stroke-opacity:0.1; fill:none" points="821.93,1423.18 821.93,1194.9 "/>
<polyline clip-path="url(#clip891)" style="stroke:#000000; stroke-linecap:round; stroke-linejoin:round; stroke-width:2; stroke-opacity:0.1; fill:none" points="1171.21,1423.18 1171.21,1194.9 "/>
<polyline clip-path="url(#clip891)" style="stroke:#000000; stroke-linecap:round; stroke-linejoin:round; stroke-width:2; stroke-opacity:0.1; fill:none" points="1520.49,1423.18 1520.49,1194.9 "/>
<polyline clip-path="url(#clip891)" style="stroke:#000000; stroke-linecap:round; stroke-linejoin:round; stroke-width:2; stroke-opacity:0.1; fill:none" points="1869.77,1423.18 1869.77,1194.9 "/>
<polyline clip-path="url(#clip891)" style="stroke:#000000; stroke-linecap:round; stroke-linejoin:round; stroke-width:2; stroke-opacity:0.1; fill:none" points="2219.05,1423.18 2219.05,1194.9 "/>
<polyline clip-path="url(#clip891)" style="stroke:#000000; stroke-linecap:round; stroke-linejoin:round; stroke-width:2; stroke-opacity:0.1; fill:none" points="220.19,1423.18 2352.76,1423.18 "/>
<polyline clip-path="url(#clip891)" style="stroke:#000000; stroke-linecap:round; stroke-linejoin:round; stroke-width:2; stroke-opacity:0.1; fill:none" points="220.19,1423.18 2352.76,1423.18 "/>
<polyline clip-path="url(#clip890)" style="stroke:#000000; stroke-linecap:round; stroke-linejoin:round; stroke-width:4; stroke-opacity:1; fill:none" points="220.19,1423.18 2352.76,1423.18 "/>
<polyline clip-path="url(#clip890)" style="stroke:#000000; stroke-linecap:round; stroke-linejoin:round; stroke-width:4; stroke-opacity:1; fill:none" points="220.19,1194.9 2352.76,1194.9 "/>
<polyline clip-path="url(#clip890)" style="stroke:#000000; stroke-linecap:round; stroke-linejoin:round; stroke-width:4; stroke-opacity:1; fill:none" points="472.65,1423.18 472.65,1404.28 "/>
<polyline clip-path="url(#clip890)" style="stroke:#000000; stroke-linecap:round; stroke-linejoin:round; stroke-width:4; stroke-opacity:1; fill:none" points="821.93,1423.18 821.93,1404.28 "/>
<polyline clip-path="url(#clip890)" style="stroke:#000000; stroke-linecap:round; stroke-linejoin:round; stroke-width:4; stroke-opacity:1; fill:none" points="1171.21,1423.18 1171.21,1404.28 "/>
<polyline clip-path="url(#clip890)" style="stroke:#000000; stroke-linecap:round; stroke-linejoin:round; stroke-width:4; stroke-opacity:1; fill:none" points="1520.49,1423.18 1520.49,1404.28 "/>
<polyline clip-path="url(#clip890)" style="stroke:#000000; stroke-linecap:round; stroke-linejoin:round; stroke-width:4; stroke-opacity:1; fill:none" points="1869.77,1423.18 1869.77,1404.28 "/>
<polyline clip-path="url(#clip890)" style="stroke:#000000; stroke-linecap:round; stroke-linejoin:round; stroke-width:4; stroke-opacity:1; fill:none" points="2219.05,1423.18 2219.05,1404.28 "/>
<polyline clip-path="url(#clip890)" style="stroke:#000000; stroke-linecap:round; stroke-linejoin:round; stroke-width:4; stroke-opacity:1; fill:none" points="472.65,1194.9 472.65,1213.8 "/>
<polyline clip-path="url(#clip890)" style="stroke:#000000; stroke-linecap:round; stroke-linejoin:round; stroke-width:4; stroke-opacity:1; fill:none" points="821.93,1194.9 821.93,1213.8 "/>
<polyline clip-path="url(#clip890)" style="stroke:#000000; stroke-linecap:round; stroke-linejoin:round; stroke-width:4; stroke-opacity:1; fill:none" points="1171.21,1194.9 1171.21,1213.8 "/>
<polyline clip-path="url(#clip890)" style="stroke:#000000; stroke-linecap:round; stroke-linejoin:round; stroke-width:4; stroke-opacity:1; fill:none" points="1520.49,1194.9 1520.49,1213.8 "/>
<polyline clip-path="url(#clip890)" style="stroke:#000000; stroke-linecap:round; stroke-linejoin:round; stroke-width:4; stroke-opacity:1; fill:none" points="1869.77,1194.9 1869.77,1213.8 "/>
<polyline clip-path="url(#clip890)" style="stroke:#000000; stroke-linecap:round; stroke-linejoin:round; stroke-width:4; stroke-opacity:1; fill:none" points="2219.05,1194.9 2219.05,1213.8 "/>
<path clip-path="url(#clip890)" d="M447.338 1481.64 L454.977 1481.64 L454.977 1455.28 L446.666 1456.95 L446.666 1452.69 L454.93 1451.02 L459.606 1451.02 L459.606 1481.64 L467.245 1481.64 L467.245 1485.58 L447.338 1485.58 L447.338 1481.64 Z" fill="#000000" fill-rule="nonzero" fill-opacity="1" /><path clip-path="url(#clip890)" d="M486.689 1454.1 Q483.078 1454.1 481.25 1457.66 Q479.444 1461.2 479.444 1468.33 Q479.444 1475.44 481.25 1479.01 Q483.078 1482.55 486.689 1482.55 Q490.324 1482.55 492.129 1479.01 Q493.958 1475.44 493.958 1468.33 Q493.958 1461.2 492.129 1457.66 Q490.324 1454.1 486.689 1454.1 M486.689 1450.39 Q492.5 1450.39 495.555 1455 Q498.634 1459.58 498.634 1468.33 Q498.634 1477.06 495.555 1481.67 Q492.5 1486.25 486.689 1486.25 Q480.879 1486.25 477.801 1481.67 Q474.745 1477.06 474.745 1468.33 Q474.745 1459.58 477.801 1455 Q480.879 1450.39 486.689 1450.39 Z" fill="#000000" fill-rule="nonzero" fill-opacity="1" /><path clip-path="url(#clip890)" d="M800.704 1481.64 L817.023 1481.64 L817.023 1485.58 L795.079 1485.58 L795.079 1481.64 Q797.741 1478.89 802.324 1474.26 Q806.93 1469.61 808.111 1468.27 Q810.356 1465.74 811.236 1464.01 Q812.139 1462.25 812.139 1460.56 Q812.139 1457.8 810.194 1456.07 Q808.273 1454.33 805.171 1454.33 Q802.972 1454.33 800.518 1455.09 Q798.088 1455.86 795.31 1457.41 L795.31 1452.69 Q798.134 1451.55 800.588 1450.97 Q803.042 1450.39 805.079 1450.39 Q810.449 1450.39 813.643 1453.08 Q816.838 1455.77 816.838 1460.26 Q816.838 1462.39 816.028 1464.31 Q815.241 1466.2 813.134 1468.8 Q812.555 1469.47 809.454 1472.69 Q806.352 1475.88 800.704 1481.64 Z" fill="#000000" fill-rule="nonzero" fill-opacity="1" /><path clip-path="url(#clip890)" d="M836.838 1454.1 Q833.227 1454.1 831.398 1457.66 Q829.592 1461.2 829.592 1468.33 Q829.592 1475.44 831.398 1479.01 Q833.227 1482.55 836.838 1482.55 Q840.472 1482.55 842.277 1479.01 Q844.106 1475.44 844.106 1468.33 Q844.106 1461.2 842.277 1457.66 Q840.472 1454.1 836.838 1454.1 M836.838 1450.39 Q842.648 1450.39 845.703 1455 Q848.782 1459.58 848.782 1468.33 Q848.782 1477.06 845.703 1481.67 Q842.648 1486.25 836.838 1486.25 Q831.028 1486.25 827.949 1481.67 Q824.893 1477.06 824.893 1468.33 Q824.893 1459.58 827.949 1455 Q831.028 1450.39 836.838 1450.39 Z" fill="#000000" fill-rule="nonzero" fill-opacity="1" /><path clip-path="url(#clip890)" d="M1159.38 1455.09 L1147.58 1473.54 L1159.38 1473.54 L1159.38 1455.09 M1158.16 1451.02 L1164.03 1451.02 L1164.03 1473.54 L1168.97 1473.54 L1168.97 1477.43 L1164.03 1477.43 L1164.03 1485.58 L1159.38 1485.58 L1159.38 1477.43 L1143.78 1477.43 L1143.78 1472.92 L1158.16 1451.02 Z" fill="#000000" fill-rule="nonzero" fill-opacity="1" /><path clip-path="url(#clip890)" d="M1186.7 1454.1 Q1183.09 1454.1 1181.26 1457.66 Q1179.45 1461.2 1179.45 1468.33 Q1179.45 1475.44 1181.26 1479.01 Q1183.09 1482.55 1186.7 1482.55 Q1190.33 1482.55 1192.14 1479.01 Q1193.97 1475.44 1193.97 1468.33 Q1193.97 1461.2 1192.14 1457.66 Q1190.33 1454.1 1186.7 1454.1 M1186.7 1450.39 Q1192.51 1450.39 1195.56 1455 Q1198.64 1459.58 1198.64 1468.33 Q1198.64 1477.06 1195.56 1481.67 Q1192.51 1486.25 1186.7 1486.25 Q1180.89 1486.25 1177.81 1481.67 Q1174.75 1477.06 1174.75 1468.33 Q1174.75 1459.58 1177.81 1455 Q1180.89 1450.39 1186.7 1450.39 Z" fill="#000000" fill-rule="nonzero" fill-opacity="1" /><path clip-path="url(#clip890)" d="M1505.36 1469.17 Q1502.03 1469.17 1500.11 1470.95 Q1498.21 1472.73 1498.21 1475.86 Q1498.21 1478.98 1500.11 1480.77 Q1502.03 1482.55 1505.36 1482.55 Q1508.7 1482.55 1510.62 1480.77 Q1512.54 1478.96 1512.54 1475.86 Q1512.54 1472.73 1510.62 1470.95 Q1508.72 1469.17 1505.36 1469.17 M1500.69 1467.18 Q1497.68 1466.44 1495.99 1464.38 Q1494.32 1462.32 1494.32 1459.35 Q1494.32 1455.21 1497.26 1452.8 Q1500.22 1450.39 1505.36 1450.39 Q1510.53 1450.39 1513.47 1452.8 Q1516.41 1455.21 1516.41 1459.35 Q1516.41 1462.32 1514.72 1464.38 Q1513.05 1466.44 1510.06 1467.18 Q1513.44 1467.96 1515.32 1470.26 Q1517.22 1472.55 1517.22 1475.86 Q1517.22 1480.88 1514.14 1483.57 Q1511.08 1486.25 1505.36 1486.25 Q1499.65 1486.25 1496.57 1483.57 Q1493.51 1480.88 1493.51 1475.86 Q1493.51 1472.55 1495.41 1470.26 Q1497.31 1467.96 1500.69 1467.18 M1498.97 1459.79 Q1498.97 1462.48 1500.64 1463.98 Q1502.33 1465.49 1505.36 1465.49 Q1508.37 1465.49 1510.06 1463.98 Q1511.78 1462.48 1511.78 1459.79 Q1511.78 1457.11 1510.06 1455.6 Q1508.37 1454.1 1505.36 1454.1 Q1502.33 1454.1 1500.64 1455.6 Q1498.97 1457.11 1498.97 1459.79 Z" fill="#000000" fill-rule="nonzero" fill-opacity="1" /><path clip-path="url(#clip890)" d="M1535.53 1454.1 Q1531.91 1454.1 1530.09 1457.66 Q1528.28 1461.2 1528.28 1468.33 Q1528.28 1475.44 1530.09 1479.01 Q1531.91 1482.55 1535.53 1482.55 Q1539.16 1482.55 1540.97 1479.01 Q1542.79 1475.44 1542.79 1468.33 Q1542.79 1461.2 1540.97 1457.66 Q1539.16 1454.1 1535.53 1454.1 M1535.53 1450.39 Q1541.34 1450.39 1544.39 1455 Q1547.47 1459.58 1547.47 1468.33 Q1547.47 1477.06 1544.39 1481.67 Q1541.34 1486.25 1535.53 1486.25 Q1529.72 1486.25 1526.64 1481.67 Q1523.58 1477.06 1523.58 1468.33 Q1523.58 1459.58 1526.64 1455 Q1529.72 1450.39 1535.53 1450.39 Z" fill="#000000" fill-rule="nonzero" fill-opacity="1" /><path clip-path="url(#clip890)" d="M1829.38 1481.64 L1837.02 1481.64 L1837.02 1455.28 L1828.71 1456.95 L1828.71 1452.69 L1836.97 1451.02 L1841.65 1451.02 L1841.65 1481.64 L1849.29 1481.64 L1849.29 1485.58 L1829.38 1485.58 L1829.38 1481.64 Z" fill="#000000" fill-rule="nonzero" fill-opacity="1" /><path clip-path="url(#clip890)" d="M1869.31 1466.44 Q1866.16 1466.44 1864.31 1468.59 Q1862.48 1470.74 1862.48 1474.49 Q1862.48 1478.22 1864.31 1480.39 Q1866.16 1482.55 1869.31 1482.55 Q1872.46 1482.55 1874.29 1480.39 Q1876.14 1478.22 1876.14 1474.49 Q1876.14 1470.74 1874.29 1468.59 Q1872.46 1466.44 1869.31 1466.44 M1878.59 1451.78 L1878.59 1456.04 Q1876.83 1455.21 1875.03 1454.77 Q1873.24 1454.33 1871.48 1454.33 Q1866.85 1454.33 1864.4 1457.45 Q1861.97 1460.58 1861.62 1466.9 Q1862.99 1464.89 1865.05 1463.82 Q1867.11 1462.73 1869.59 1462.73 Q1874.79 1462.73 1877.8 1465.9 Q1880.84 1469.05 1880.84 1474.49 Q1880.84 1479.82 1877.69 1483.03 Q1874.54 1486.25 1869.31 1486.25 Q1863.31 1486.25 1860.14 1481.67 Q1856.97 1477.06 1856.97 1468.33 Q1856.97 1460.14 1860.86 1455.28 Q1864.75 1450.39 1871.3 1450.39 Q1873.06 1450.39 1874.84 1450.74 Q1876.65 1451.09 1878.59 1451.78 Z" fill="#000000" fill-rule="nonzero" fill-opacity="1" /><path clip-path="url(#clip890)" d="M1898.89 1454.1 Q1895.28 1454.1 1893.45 1457.66 Q1891.65 1461.2 1891.65 1468.33 Q1891.65 1475.44 1893.45 1479.01 Q1895.28 1482.55 1898.89 1482.55 Q1902.53 1482.55 1904.33 1479.01 Q1906.16 1475.44 1906.16 1468.33 Q1906.16 1461.2 1904.33 1457.66 Q1902.53 1454.1 1898.89 1454.1 M1898.89 1450.39 Q1904.7 1450.39 1907.76 1455 Q1910.84 1459.58 1910.84 1468.33 Q1910.84 1477.06 1907.76 1481.67 Q1904.7 1486.25 1898.89 1486.25 Q1893.08 1486.25 1890 1481.67 Q1886.95 1477.06 1886.95 1468.33 Q1886.95 1459.58 1890 1455 Q1893.08 1450.39 1898.89 1450.39 Z" fill="#000000" fill-rule="nonzero" fill-opacity="1" /><path clip-path="url(#clip890)" d="M2192.81 1466.95 Q2196.17 1467.66 2198.04 1469.93 Q2199.94 1472.2 2199.94 1475.53 Q2199.94 1480.65 2196.42 1483.45 Q2192.91 1486.25 2186.42 1486.25 Q2184.25 1486.25 2181.93 1485.81 Q2179.64 1485.39 2177.19 1484.54 L2177.19 1480.02 Q2179.13 1481.16 2181.45 1481.74 Q2183.76 1482.32 2186.29 1482.32 Q2190.68 1482.32 2192.98 1480.58 Q2195.29 1478.84 2195.29 1475.53 Q2195.29 1472.48 2193.14 1470.77 Q2191.01 1469.03 2187.19 1469.03 L2183.16 1469.03 L2183.16 1465.19 L2187.37 1465.19 Q2190.82 1465.19 2192.65 1463.82 Q2194.48 1462.43 2194.48 1459.84 Q2194.48 1457.18 2192.58 1455.77 Q2190.71 1454.33 2187.19 1454.33 Q2185.27 1454.33 2183.07 1454.75 Q2180.87 1455.16 2178.23 1456.04 L2178.23 1451.88 Q2180.89 1451.14 2183.21 1450.77 Q2185.54 1450.39 2187.6 1450.39 Q2192.93 1450.39 2196.03 1452.83 Q2199.13 1455.23 2199.13 1459.35 Q2199.13 1462.22 2197.49 1464.21 Q2195.85 1466.18 2192.81 1466.95 Z" fill="#000000" fill-rule="nonzero" fill-opacity="1" /><path clip-path="url(#clip890)" d="M2212.84 1481.64 L2229.16 1481.64 L2229.16 1485.58 L2207.21 1485.58 L2207.21 1481.64 Q2209.87 1478.89 2214.46 1474.26 Q2219.06 1469.61 2220.24 1468.27 Q2222.49 1465.74 2223.37 1464.01 Q2224.27 1462.25 2224.27 1460.56 Q2224.27 1457.8 2222.33 1456.07 Q2220.41 1454.33 2217.3 1454.33 Q2215.1 1454.33 2212.65 1455.09 Q2210.22 1455.86 2207.44 1457.41 L2207.44 1452.69 Q2210.27 1451.55 2212.72 1450.97 Q2215.17 1450.39 2217.21 1450.39 Q2222.58 1450.39 2225.78 1453.08 Q2228.97 1455.77 2228.97 1460.26 Q2228.97 1462.39 2228.16 1464.31 Q2227.37 1466.2 2225.27 1468.8 Q2224.69 1469.47 2221.59 1472.69 Q2218.48 1475.88 2212.84 1481.64 Z" fill="#000000" fill-rule="nonzero" fill-opacity="1" /><path clip-path="url(#clip890)" d="M2248.97 1454.1 Q2245.36 1454.1 2243.53 1457.66 Q2241.72 1461.2 2241.72 1468.33 Q2241.72 1475.44 2243.53 1479.01 Q2245.36 1482.55 2248.97 1482.55 Q2252.6 1482.55 2254.41 1479.01 Q2256.24 1475.44 2256.24 1468.33 Q2256.24 1461.2 2254.41 1457.66 Q2252.6 1454.1 2248.97 1454.1 M2248.97 1450.39 Q2254.78 1450.39 2257.84 1455 Q2260.91 1459.58 2260.91 1468.33 Q2260.91 1477.06 2257.84 1481.67 Q2254.78 1486.25 2248.97 1486.25 Q2243.16 1486.25 2240.08 1481.67 Q2237.03 1477.06 2237.03 1468.33 Q2237.03 1459.58 2240.08 1455 Q2243.16 1450.39 2248.97 1450.39 Z" fill="#000000" fill-rule="nonzero" fill-opacity="1" /><path clip-path="url(#clip890)" d="M1125.63 1525.81 L1125.63 1562.76 L1133.39 1562.76 Q1143.23 1562.76 1147.78 1558.3 Q1152.36 1553.85 1152.36 1544.24 Q1152.36 1534.69 1147.78 1530.26 Q1143.23 1525.81 1133.39 1525.81 L1125.63 1525.81 M1119.2 1520.52 L1132.41 1520.52 Q1146.22 1520.52 1152.68 1526.28 Q1159.14 1532.01 1159.14 1544.24 Q1159.14 1556.52 1152.65 1562.28 Q1146.16 1568.04 1132.41 1568.04 L1119.2 1568.04 L1119.2 1520.52 Z" fill="#000000" fill-rule="nonzero" fill-opacity="1" /><path clip-path="url(#clip890)" d="M1169.14 1532.4 L1174.99 1532.4 L1174.99 1568.04 L1169.14 1568.04 L1169.14 1532.4 M1169.14 1518.52 L1174.99 1518.52 L1174.99 1525.93 L1169.14 1525.93 L1169.14 1518.52 Z" fill="#000000" fill-rule="nonzero" fill-opacity="1" /><path clip-path="url(#clip890)" d="M1215 1539.24 Q1217.2 1535.29 1220.25 1533.41 Q1223.31 1531.54 1227.45 1531.54 Q1233.02 1531.54 1236.04 1535.45 Q1239.06 1539.33 1239.06 1546.53 L1239.06 1568.04 L1233.18 1568.04 L1233.18 1546.72 Q1233.18 1541.59 1231.36 1539.11 Q1229.55 1536.63 1225.82 1536.63 Q1221.27 1536.63 1218.63 1539.65 Q1215.99 1542.68 1215.99 1547.9 L1215.99 1568.04 L1210.1 1568.04 L1210.1 1546.72 Q1210.1 1541.56 1208.29 1539.11 Q1206.47 1536.63 1202.68 1536.63 Q1198.2 1536.63 1195.55 1539.68 Q1192.91 1542.71 1192.91 1547.9 L1192.91 1568.04 L1187.02 1568.04 L1187.02 1532.4 L1192.91 1532.4 L1192.91 1537.93 Q1194.92 1534.66 1197.72 1533.1 Q1200.52 1531.54 1204.37 1531.54 Q1208.25 1531.54 1210.96 1533.51 Q1213.7 1535.48 1215 1539.24 Z" fill="#000000" fill-rule="nonzero" fill-opacity="1" /><path clip-path="url(#clip890)" d="M1281.24 1548.76 L1281.24 1551.62 L1254.31 1551.62 Q1254.69 1557.67 1257.94 1560.85 Q1261.22 1564 1267.04 1564 Q1270.42 1564 1273.57 1563.17 Q1276.75 1562.35 1279.87 1560.69 L1279.87 1566.23 Q1276.72 1567.57 1273.41 1568.27 Q1270.1 1568.97 1266.69 1568.97 Q1258.16 1568.97 1253.16 1564 Q1248.2 1559.04 1248.2 1550.57 Q1248.2 1541.82 1252.91 1536.69 Q1257.65 1531.54 1265.67 1531.54 Q1272.87 1531.54 1277.04 1536.18 Q1281.24 1540.8 1281.24 1548.76 M1275.38 1547.04 Q1275.32 1542.23 1272.68 1539.37 Q1270.07 1536.5 1265.74 1536.5 Q1260.84 1536.5 1257.88 1539.27 Q1254.95 1542.04 1254.5 1547.07 L1275.38 1547.04 Z" fill="#000000" fill-rule="nonzero" fill-opacity="1" /><path clip-path="url(#clip890)" d="M1320.48 1546.53 L1320.48 1568.04 L1314.63 1568.04 L1314.63 1546.72 Q1314.63 1541.66 1312.65 1539.14 Q1310.68 1536.63 1306.73 1536.63 Q1301.99 1536.63 1299.25 1539.65 Q1296.52 1542.68 1296.52 1547.9 L1296.52 1568.04 L1290.63 1568.04 L1290.63 1532.4 L1296.52 1532.4 L1296.52 1537.93 Q1298.62 1534.72 1301.45 1533.13 Q1304.31 1531.54 1308.04 1531.54 Q1314.18 1531.54 1317.33 1535.36 Q1320.48 1539.14 1320.48 1546.53 Z" fill="#000000" fill-rule="nonzero" fill-opacity="1" /><path clip-path="url(#clip890)" d="M1354.89 1533.45 L1354.89 1538.98 Q1352.41 1537.71 1349.73 1537.07 Q1347.06 1536.44 1344.19 1536.44 Q1339.83 1536.44 1337.64 1537.77 Q1335.47 1539.11 1335.47 1541.79 Q1335.47 1543.82 1337.03 1545 Q1338.59 1546.15 1343.3 1547.2 L1345.31 1547.64 Q1351.55 1548.98 1354.16 1551.43 Q1356.8 1553.85 1356.8 1558.21 Q1356.8 1563.17 1352.85 1566.07 Q1348.94 1568.97 1342.06 1568.97 Q1339.2 1568.97 1336.08 1568.39 Q1332.99 1567.85 1329.55 1566.74 L1329.55 1560.69 Q1332.8 1562.38 1335.95 1563.24 Q1339.1 1564.07 1342.19 1564.07 Q1346.33 1564.07 1348.55 1562.66 Q1350.78 1561.23 1350.78 1558.65 Q1350.78 1556.27 1349.16 1554.99 Q1347.57 1553.72 1342.13 1552.54 L1340.09 1552.07 Q1334.65 1550.92 1332.23 1548.56 Q1329.81 1546.18 1329.81 1542.04 Q1329.81 1537.01 1333.37 1534.27 Q1336.94 1531.54 1343.49 1531.54 Q1346.74 1531.54 1349.61 1532.01 Q1352.47 1532.49 1354.89 1533.45 Z" fill="#000000" fill-rule="nonzero" fill-opacity="1" /><path clip-path="url(#clip890)" d="M1366.12 1532.4 L1371.98 1532.4 L1371.98 1568.04 L1366.12 1568.04 L1366.12 1532.4 M1366.12 1518.52 L1371.98 1518.52 L1371.98 1525.93 L1366.12 1525.93 L1366.12 1518.52 Z" fill="#000000" fill-rule="nonzero" fill-opacity="1" /><path clip-path="url(#clip890)" d="M1398.05 1536.5 Q1393.34 1536.5 1390.6 1540.19 Q1387.86 1543.85 1387.86 1550.25 Q1387.86 1556.65 1390.57 1560.34 Q1393.31 1564 1398.05 1564 Q1402.73 1564 1405.46 1560.31 Q1408.2 1556.62 1408.2 1550.25 Q1408.2 1543.92 1405.46 1540.23 Q1402.73 1536.5 1398.05 1536.5 M1398.05 1531.54 Q1405.69 1531.54 1410.05 1536.5 Q1414.41 1541.47 1414.41 1550.25 Q1414.41 1559 1410.05 1564 Q1405.69 1568.97 1398.05 1568.97 Q1390.38 1568.97 1386.02 1564 Q1381.69 1559 1381.69 1550.25 Q1381.69 1541.47 1386.02 1536.5 Q1390.38 1531.54 1398.05 1531.54 Z" fill="#000000" fill-rule="nonzero" fill-opacity="1" /><path clip-path="url(#clip890)" d="M1453.75 1546.53 L1453.75 1568.04 L1447.89 1568.04 L1447.89 1546.72 Q1447.89 1541.66 1445.92 1539.14 Q1443.94 1536.63 1440 1536.63 Q1435.26 1536.63 1432.52 1539.65 Q1429.78 1542.68 1429.78 1547.9 L1429.78 1568.04 L1423.89 1568.04 L1423.89 1532.4 L1429.78 1532.4 L1429.78 1537.93 Q1431.88 1534.72 1434.71 1533.13 Q1437.58 1531.54 1441.3 1531.54 Q1447.45 1531.54 1450.6 1535.36 Q1453.75 1539.14 1453.75 1546.53 Z" fill="#000000" fill-rule="nonzero" fill-opacity="1" /><polyline clip-path="url(#clip890)" style="stroke:#000000; stroke-linecap:round; stroke-linejoin:round; stroke-width:4; stroke-opacity:1; fill:none" points="220.19,1423.18 220.19,1194.9 "/>
<polyline clip-path="url(#clip890)" style="stroke:#000000; stroke-linecap:round; stroke-linejoin:round; stroke-width:4; stroke-opacity:1; fill:none" points="2352.76,1423.18 2352.76,1194.9 "/>
<polyline clip-path="url(#clip890)" style="stroke:#000000; stroke-linecap:round; stroke-linejoin:round; stroke-width:4; stroke-opacity:1; fill:none" points="220.19,1423.18 239.088,1423.18 "/>
<polyline clip-path="url(#clip890)" style="stroke:#000000; stroke-linecap:round; stroke-linejoin:round; stroke-width:4; stroke-opacity:1; fill:none" points="2352.76,1423.18 2333.86,1423.18 "/>
<path clip-path="url(#clip890)" d="M172.246 1408.98 Q168.635 1408.98 166.806 1412.54 Q165.001 1416.08 165.001 1423.21 Q165.001 1430.32 166.806 1433.89 Q168.635 1437.43 172.246 1437.43 Q175.88 1437.43 177.686 1433.89 Q179.514 1430.32 179.514 1423.21 Q179.514 1416.08 177.686 1412.54 Q175.88 1408.98 172.246 1408.98 M172.246 1405.27 Q178.056 1405.27 181.112 1409.88 Q184.19 1414.46 184.19 1423.21 Q184.19 1431.94 181.112 1436.55 Q178.056 1441.13 172.246 1441.13 Q166.436 1441.13 163.357 1436.55 Q160.302 1431.94 160.302 1423.21 Q160.302 1414.46 163.357 1409.88 Q166.436 1405.27 172.246 1405.27 Z" fill="#000000" fill-rule="nonzero" fill-opacity="1" /><path clip-path="url(#clip890)" d="M62.5256 1373.16 L62.5256 1363.58 L94.8634 1351.45 L62.5256 1339.26 L62.5256 1329.68 L110.046 1329.68 L110.046 1335.95 L68.3184 1335.95 L100.911 1348.21 L100.911 1354.67 L68.3184 1366.92 L110.046 1366.92 L110.046 1373.16 L62.5256 1373.16 Z" fill="#000000" fill-rule="nonzero" fill-opacity="1" /><path clip-path="url(#clip890)" d="M64.0852 1288.43 L70.3554 1288.43 Q68.6048 1292.09 67.7455 1295.34 Q66.8861 1298.59 66.8861 1301.61 Q66.8861 1306.86 68.9231 1309.73 Q70.9601 1312.56 74.7159 1312.56 Q77.8669 1312.56 79.4902 1310.68 Q81.0816 1308.77 82.0683 1303.49 L82.864 1299.6 Q84.2326 1292.41 87.7019 1289 Q91.1394 1285.57 96.9322 1285.57 Q103.839 1285.57 107.404 1290.21 Q110.969 1294.83 110.969 1303.77 Q110.969 1307.15 110.205 1310.97 Q109.441 1314.75 107.945 1318.83 L101.325 1318.83 Q103.521 1314.91 104.635 1311.16 Q105.749 1307.4 105.749 1303.77 Q105.749 1298.27 103.584 1295.27 Q101.42 1292.28 97.4096 1292.28 Q93.9085 1292.28 91.9351 1294.45 Q89.9618 1296.58 88.9751 1301.48 L88.2112 1305.4 Q86.7789 1312.59 83.7234 1315.8 Q80.6678 1319.02 75.2252 1319.02 Q68.9231 1319.02 65.2947 1314.59 Q61.6662 1310.14 61.6662 1302.34 Q61.6662 1299 62.2709 1295.53 Q62.8757 1292.06 64.0852 1288.43 Z" fill="#000000" fill-rule="nonzero" fill-opacity="1" /><path clip-path="url(#clip890)" d="M62.5256 1275.54 L62.5256 1245.5 L67.9364 1245.5 L67.9364 1269.11 L82.0046 1269.11 L82.0046 1246.48 L87.4155 1246.48 L87.4155 1269.11 L104.635 1269.11 L104.635 1244.92 L110.046 1244.92 L110.046 1275.54 L62.5256 1275.54 Z" fill="#000000" fill-rule="nonzero" fill-opacity="1" /><circle clip-path="url(#clip891)" cx="472.65" cy="1361.52" r="18" fill="#56b4e9" fill-rule="evenodd" fill-opacity="1" stroke="#000000" stroke-opacity="1" stroke-width="3.2"/>
<circle clip-path="url(#clip891)" cx="821.93" cy="1387.68" r="18" fill="#56b4e9" fill-rule="evenodd" fill-opacity="1" stroke="#000000" stroke-opacity="1" stroke-width="3.2"/>
<circle clip-path="url(#clip891)" cx="1171.21" cy="1396.96" r="18" fill="#56b4e9" fill-rule="evenodd" fill-opacity="1" stroke="#000000" stroke-opacity="1" stroke-width="3.2"/>
<circle clip-path="url(#clip891)" cx="1520.49" cy="1395.71" r="18" fill="#56b4e9" fill-rule="evenodd" fill-opacity="1" stroke="#000000" stroke-opacity="1" stroke-width="3.2"/>
<circle clip-path="url(#clip891)" cx="1869.77" cy="1401.7" r="18" fill="#56b4e9" fill-rule="evenodd" fill-opacity="1" stroke="#000000" stroke-opacity="1" stroke-width="3.2"/>
<circle clip-path="url(#clip891)" cx="2219.05" cy="1393.71" r="18" fill="#56b4e9" fill-rule="evenodd" fill-opacity="1" stroke="#000000" stroke-opacity="1" stroke-width="3.2"/>
<path clip-path="url(#clip891)" d="M472.65 1203.69 L466.07 1222.62 L446.022 1223.04 L462.01 1235.16 L456.186 1254.34 L472.65 1242.89 L489.114 1254.34 L483.29 1235.16 L499.278 1223.04 L479.23 1222.62 L472.65 1203.69 Z" fill="#d55e00" fill-rule="evenodd" fill-opacity="1" stroke="#000000" stroke-opacity="1" stroke-width="3.2"/>
<path clip-path="url(#clip891)" d="M821.93 1280.77 L815.35 1299.69 L795.302 1300.11 L811.29 1312.24 L805.466 1331.42 L821.93 1319.97 L838.394 1331.42 L832.57 1312.24 L848.558 1300.11 L828.51 1299.69 L821.93 1280.77 Z" fill="#d55e00" fill-rule="evenodd" fill-opacity="1" stroke="#000000" stroke-opacity="1" stroke-width="3.2"/>
<path clip-path="url(#clip891)" d="M1171.21 1331.53 L1164.63 1350.46 L1144.58 1350.88 L1160.57 1363.01 L1154.75 1382.19 L1171.21 1370.73 L1187.67 1382.19 L1181.85 1363.01 L1197.84 1350.88 L1177.79 1350.46 L1171.21 1331.53 Z" fill="#d55e00" fill-rule="evenodd" fill-opacity="1" stroke="#000000" stroke-opacity="1" stroke-width="3.2"/>
<path clip-path="url(#clip891)" d="M1520.49 1359.5 L1513.91 1378.43 L1493.86 1378.85 L1509.85 1390.97 L1504.03 1410.15 L1520.49 1398.7 L1536.95 1410.15 L1531.13 1390.97 L1547.12 1378.85 L1527.07 1378.43 L1520.49 1359.5 Z" fill="#d55e00" fill-rule="evenodd" fill-opacity="1" stroke="#000000" stroke-opacity="1" stroke-width="3.2"/>
<path clip-path="url(#clip891)" d="M1869.77 1372.52 L1863.19 1391.45 L1843.14 1391.87 L1859.13 1403.99 L1853.31 1423.17 L1869.77 1411.72 L1886.24 1423.17 L1880.41 1403.99 L1896.4 1391.87 L1876.35 1391.45 L1869.77 1372.52 Z" fill="#d55e00" fill-rule="evenodd" fill-opacity="1" stroke="#000000" stroke-opacity="1" stroke-width="3.2"/>
<path clip-path="url(#clip891)" d="M2219.05 1380.27 L2212.47 1399.19 L2192.42 1399.61 L2208.41 1411.74 L2202.59 1430.92 L2219.05 1419.47 L2235.52 1430.92 L2229.69 1411.74 L2245.68 1399.61 L2225.63 1399.19 L2219.05 1380.27 Z" fill="#d55e00" fill-rule="evenodd" fill-opacity="1" stroke="#000000" stroke-opacity="1" stroke-width="3.2"/>
<polyline clip-path="url(#clip891)" style="stroke:#56b4e9; stroke-linecap:round; stroke-linejoin:round; stroke-width:4; stroke-opacity:1; fill:none" points="472.65,1361.52 821.93,1387.68 1171.21,1396.96 1520.49,1395.71 1869.77,1401.7 2219.05,1393.71 "/>
<polyline clip-path="url(#clip891)" style="stroke:#d55e00; stroke-linecap:round; stroke-linejoin:round; stroke-width:4; stroke-opacity:1; fill:none" points="472.65,1231.69 821.93,1308.77 1171.21,1359.53 1520.49,1387.5 1869.77,1400.52 2219.05,1408.27 "/>
</svg>
