<?xml version="1.0" encoding="utf-8"?>
<svg xmlns="http://www.w3.org/2000/svg" xmlns:xlink="http://www.w3.org/1999/xlink" width="1100" height="300" viewBox="0 0 4400 1200">
<defs>
  <clipPath id="clip680">
    <rect x="0" y="0" width="4400" height="1200"/>
  </clipPath>
</defs>
<path clip-path="url(#clip680)" d="M0 1200 L4400 1200 L4400 8.88178e-14 L0 8.88178e-14  Z" fill="#f0f1eb" fill-rule="evenodd" fill-opacity="1"/>
<defs>
  <clipPath id="clip681">
    <rect x="308" y="87" width="4045" height="991"/>
  </clipPath>
</defs>
<path clip-path="url(#clip680)" d="M308.369 1077.45 L4352.76 1077.45 L4352.76 87.7339 L308.369 87.7339  Z" fill="#f0f1eb" fill-rule="evenodd" fill-opacity="1"/>
<polyline clip-path="url(#clip681)" style="stroke:#000000; stroke-linecap:round; stroke-linejoin:round; stroke-width:2; stroke-opacity:0.1; fill:none" points="4238.29,1077.45 4238.29,87.7339 "/>
<polyline clip-path="url(#clip681)" style="stroke:#000000; stroke-linecap:round; stroke-linejoin:round; stroke-width:2; stroke-opacity:0.1; fill:none" points="422.832,1077.45 422.832,87.7339 "/>
<polyline clip-path="url(#clip681)" style="stroke:#000000; stroke-linecap:round; stroke-linejoin:round; stroke-width:2; stroke-opacity:0.1; fill:none" points="877.942,1077.45 877.942,87.7339 "/>
<polyline clip-path="url(#clip681)" style="stroke:#000000; stroke-linecap:round; stroke-linejoin:round; stroke-width:2; stroke-opacity:0.1; fill:none" points="1228.94,1077.45 1228.94,87.7339 "/>
<polyline clip-path="url(#clip681)" style="stroke:#000000; stroke-linecap:round; stroke-linejoin:round; stroke-width:2; stroke-opacity:0.1; fill:none" points="3284.43,1077.45 3284.43,87.7339 "/>
<polyline clip-path="url(#clip681)" style="stroke:#000000; stroke-linecap:round; stroke-linejoin:round; stroke-width:2; stroke-opacity:0.1; fill:none" points="1376.7,1077.45 1376.7,87.7339 "/>
<polyline clip-path="url(#clip681)" style="stroke:#000000; stroke-linecap:round; stroke-linejoin:round; stroke-width:2; stroke-opacity:0.1; fill:none" points="3739.54,1077.45 3739.54,87.7339 "/>
<polyline clip-path="url(#clip681)" style="stroke:#000000; stroke-linecap:round; stroke-linejoin:round; stroke-width:2; stroke-opacity:0.1; fill:none" points="2330.56,1077.45 2330.56,87.7339 "/>
<polyline clip-path="url(#clip681)" style="stroke:#000000; stroke-linecap:round; stroke-linejoin:round; stroke-width:2; stroke-opacity:0.1; fill:none" points="308.369,1049.44 4352.76,1049.44 "/>
<polyline clip-path="url(#clip681)" style="stroke:#000000; stroke-linecap:round; stroke-linejoin:round; stroke-width:2; stroke-opacity:0.1; fill:none" points="308.369,992.157 4352.76,992.157 "/>
<polyline clip-path="url(#clip681)" style="stroke:#000000; stroke-linecap:round; stroke-linejoin:round; stroke-width:2; stroke-opacity:0.1; fill:none" points="308.369,591.091 4352.76,591.091 "/>
<polyline clip-path="url(#clip681)" style="stroke:#000000; stroke-linecap:round; stroke-linejoin:round; stroke-width:2; stroke-opacity:0.1; fill:none" points="308.369,332.714 4352.76,332.714 "/>
<polyline clip-path="url(#clip681)" style="stroke:#000000; stroke-linecap:round; stroke-linejoin:round; stroke-width:2; stroke-opacity:0.1; fill:none" points="308.369,257.31 4352.76,257.31 "/>
<polyline clip-path="url(#clip681)" style="stroke:#000000; stroke-linecap:round; stroke-linejoin:round; stroke-width:2; stroke-opacity:0.1; fill:none" points="308.369,254.359 4352.76,254.359 "/>
<polyline clip-path="url(#clip681)" style="stroke:#000000; stroke-linecap:round; stroke-linejoin:round; stroke-width:2; stroke-opacity:0.1; fill:none" points="308.369,206.175 4352.76,206.175 "/>
<polyline clip-path="url(#clip681)" style="stroke:#000000; stroke-linecap:round; stroke-linejoin:round; stroke-width:2; stroke-opacity:0.1; fill:none" points="308.369,178.354 4352.76,178.354 "/>
<polyline clip-path="url(#clip680)" style="stroke:#000000; stroke-linecap:round; stroke-linejoin:round; stroke-width:4; stroke-opacity:1; fill:none" points="308.369,1077.45 4352.76,1077.45 "/>
<polyline clip-path="url(#clip680)" style="stroke:#000000; stroke-linecap:round; stroke-linejoin:round; stroke-width:4; stroke-opacity:1; fill:none" points="4238.29,1077.45 4238.29,1058.55 "/>
<polyline clip-path="url(#clip680)" style="stroke:#000000; stroke-linecap:round; stroke-linejoin:round; stroke-width:4; stroke-opacity:1; fill:none" points="422.832,1077.45 422.832,1058.55 "/>
<polyline clip-path="url(#clip680)" style="stroke:#000000; stroke-linecap:round; stroke-linejoin:round; stroke-width:4; stroke-opacity:1; fill:none" points="877.942,1077.45 877.942,1058.55 "/>
<polyline clip-path="url(#clip680)" style="stroke:#000000; stroke-linecap:round; stroke-linejoin:round; stroke-width:4; stroke-opacity:1; fill:none" points="1228.94,1077.45 1228.94,1058.55 "/>
<polyline clip-path="url(#clip680)" style="stroke:#000000; stroke-linecap:round; stroke-linejoin:round; stroke-width:4; stroke-opacity:1; fill:none" points="3284.43,1077.45 3284.43,1058.55 "/>
<polyline clip-path="url(#clip680)" style="stroke:#000000; stroke-linecap:round; stroke-linejoin:round; stroke-width:4; stroke-opacity:1; fill:none" points="1376.7,1077.45 1376.7,1058.55 "/>
<polyline clip-path="url(#clip680)" style="stroke:#000000; stroke-linecap:round; stroke-linejoin:round; stroke-width:4; stroke-opacity:1; fill:none" points="3739.54,1077.45 3739.54,1058.55 "/>
<polyline clip-path="url(#clip680)" style="stroke:#000000; stroke-linecap:round; stroke-linejoin:round; stroke-width:4; stroke-opacity:1; fill:none" points="2330.56,1077.45 2330.56,1058.55 "/>
<path clip-path="url(#clip680)" d="M4169.96 1147.01 L4176.65 1147.01 L4176.65 1123.94 L4169.38 1125.39 L4169.38 1121.67 L4176.61 1120.21 L4180.7 1120.21 L4180.7 1147.01 L4187.38 1147.01 L4187.38 1150.45 L4169.96 1150.45 L4169.96 1147.01 Z" fill="#000000" fill-rule="nonzero" fill-opacity="1" /><path clip-path="url(#clip680)" d="M4204.4 1122.9 Q4201.24 1122.9 4199.64 1126.02 Q4198.06 1129.12 4198.06 1135.36 Q4198.06 1141.58 4199.64 1144.7 Q4201.24 1147.8 4204.4 1147.8 Q4207.58 1147.8 4209.16 1144.7 Q4210.76 1141.58 4210.76 1135.36 Q4210.76 1129.12 4209.16 1126.02 Q4207.58 1122.9 4204.4 1122.9 M4204.4 1119.66 Q4209.48 1119.66 4212.15 1123.69 Q4214.85 1127.7 4214.85 1135.36 Q4214.85 1143 4212.15 1147.03 Q4209.48 1151.04 4204.4 1151.04 Q4199.31 1151.04 4196.62 1147.03 Q4193.94 1143 4193.94 1135.36 Q4193.94 1127.7 4196.62 1123.69 Q4199.31 1119.66 4204.4 1119.66 Z" fill="#000000" fill-rule="nonzero" fill-opacity="1" /><path clip-path="url(#clip680)" d="M4230.79 1122.9 Q4227.63 1122.9 4226.03 1126.02 Q4224.45 1129.12 4224.45 1135.36 Q4224.45 1141.58 4226.03 1144.7 Q4227.63 1147.8 4230.79 1147.8 Q4233.97 1147.8 4235.55 1144.7 Q4237.15 1141.58 4237.15 1135.36 Q4237.15 1129.12 4235.55 1126.02 Q4233.97 1122.9 4230.79 1122.9 M4230.79 1119.66 Q4235.87 1119.66 4238.55 1123.69 Q4241.24 1127.7 4241.24 1135.36 Q4241.24 1143 4238.55 1147.03 Q4235.87 1151.04 4230.79 1151.04 Q4225.7 1151.04 4223.01 1147.03 Q4220.34 1143 4220.34 1135.36 Q4220.34 1127.7 4223.01 1123.69 Q4225.7 1119.66 4230.79 1119.66 Z" fill="#000000" fill-rule="nonzero" fill-opacity="1" /><path clip-path="url(#clip680)" d="M4257.18 1122.9 Q4254.02 1122.9 4252.42 1126.02 Q4250.84 1129.12 4250.84 1135.36 Q4250.84 1141.58 4252.42 1144.7 Q4254.02 1147.8 4257.18 1147.8 Q4260.36 1147.8 4261.94 1144.7 Q4263.54 1141.58 4263.54 1135.36 Q4263.54 1129.12 4261.94 1126.02 Q4260.36 1122.9 4257.18 1122.9 M4257.18 1119.66 Q4262.26 1119.66 4264.94 1123.69 Q4267.63 1127.7 4267.63 1135.36 Q4267.63 1143 4264.94 1147.03 Q4262.26 1151.04 4257.18 1151.04 Q4252.1 1151.04 4249.4 1147.03 Q4246.73 1143 4246.73 1135.36 Q4246.73 1127.7 4249.4 1123.69 Q4252.1 1119.66 4257.18 1119.66 Z" fill="#000000" fill-rule="nonzero" fill-opacity="1" /><path clip-path="url(#clip680)" d="M4274.82 1145.3 L4279.09 1145.3 L4279.09 1150.45 L4274.82 1150.45 L4274.82 1145.3 Z" fill="#000000" fill-rule="nonzero" fill-opacity="1" /><path clip-path="url(#clip680)" d="M4296.76 1122.9 Q4293.6 1122.9 4292 1126.02 Q4290.42 1129.12 4290.42 1135.36 Q4290.42 1141.58 4292 1144.7 Q4293.6 1147.8 4296.76 1147.8 Q4299.94 1147.8 4301.52 1144.7 Q4303.12 1141.58 4303.12 1135.36 Q4303.12 1129.12 4301.52 1126.02 Q4299.94 1122.9 4296.76 1122.9 M4296.76 1119.66 Q4301.84 1119.66 4304.51 1123.69 Q4307.21 1127.7 4307.21 1135.36 Q4307.21 1143 4304.51 1147.03 Q4301.84 1151.04 4296.76 1151.04 Q4291.67 1151.04 4288.98 1147.03 Q4286.31 1143 4286.31 1135.36 Q4286.31 1127.7 4288.98 1123.69 Q4291.67 1119.66 4296.76 1119.66 Z" fill="#000000" fill-rule="nonzero" fill-opacity="1" /><path clip-path="url(#clip680)" d="M403.58 1122.9 Q400.421 1122.9 398.821 1126.02 Q397.241 1129.12 397.241 1135.36 Q397.241 1141.58 398.821 1144.7 Q400.421 1147.8 403.58 1147.8 Q406.76 1147.8 408.34 1144.7 Q409.94 1141.58 409.94 1135.36 Q409.94 1129.12 408.34 1126.02 Q406.76 1122.9 403.58 1122.9 M403.58 1119.66 Q408.664 1119.66 411.338 1123.69 Q414.032 1127.7 414.032 1135.36 Q414.032 1143 411.338 1147.03 Q408.664 1151.04 403.58 1151.04 Q398.496 1151.04 395.803 1147.03 Q393.129 1143 393.129 1135.36 Q393.129 1127.7 395.803 1123.69 Q398.496 1119.66 403.58 1119.66 Z" fill="#000000" fill-rule="nonzero" fill-opacity="1" /><path clip-path="url(#clip680)" d="M421.222 1145.3 L425.496 1145.3 L425.496 1150.45 L421.222 1150.45 L421.222 1145.3 Z" fill="#000000" fill-rule="nonzero" fill-opacity="1" /><path clip-path="url(#clip680)" d="M435.117 1147.01 L441.801 1147.01 L441.801 1123.94 L434.529 1125.39 L434.529 1121.67 L441.76 1120.21 L445.852 1120.21 L445.852 1147.01 L452.536 1147.01 L452.536 1150.45 L435.117 1150.45 L435.117 1147.01 Z" fill="#000000" fill-rule="nonzero" fill-opacity="1" /><path clip-path="url(#clip680)" d="M858.436 1122.9 Q855.277 1122.9 853.677 1126.02 Q852.097 1129.12 852.097 1135.36 Q852.097 1141.58 853.677 1144.7 Q855.277 1147.8 858.436 1147.8 Q861.616 1147.8 863.196 1144.7 Q864.796 1141.58 864.796 1135.36 Q864.796 1129.12 863.196 1126.02 Q861.616 1122.9 858.436 1122.9 M858.436 1119.66 Q863.52 1119.66 866.194 1123.69 Q868.888 1127.7 868.888 1135.36 Q868.888 1143 866.194 1147.03 Q863.52 1151.04 858.436 1151.04 Q853.353 1151.04 850.659 1147.03 Q847.985 1143 847.985 1135.36 Q847.985 1127.7 850.659 1123.69 Q853.353 1119.66 858.436 1119.66 Z" fill="#000000" fill-rule="nonzero" fill-opacity="1" /><path clip-path="url(#clip680)" d="M876.078 1145.3 L880.352 1145.3 L880.352 1150.45 L876.078 1150.45 L876.078 1145.3 Z" fill="#000000" fill-rule="nonzero" fill-opacity="1" /><path clip-path="url(#clip680)" d="M901.66 1134.14 Q904.596 1134.77 906.237 1136.76 Q907.898 1138.74 907.898 1141.66 Q907.898 1146.13 904.819 1148.59 Q901.741 1151.04 896.069 1151.04 Q894.165 1151.04 892.14 1150.65 Q890.135 1150.29 887.988 1149.54 L887.988 1145.59 Q889.689 1146.58 891.715 1147.09 Q893.74 1147.59 895.948 1147.59 Q899.796 1147.59 901.801 1146.07 Q903.827 1144.55 903.827 1141.66 Q903.827 1138.98 901.943 1137.49 Q900.08 1135.97 896.738 1135.97 L893.213 1135.97 L893.213 1132.6 L896.9 1132.6 Q899.918 1132.6 901.518 1131.41 Q903.118 1130.19 903.118 1127.93 Q903.118 1125.6 901.457 1124.36 Q899.816 1123.11 896.738 1123.11 Q895.057 1123.11 893.132 1123.47 Q891.208 1123.83 888.899 1124.6 L888.899 1120.96 Q891.229 1120.31 893.254 1119.99 Q895.3 1119.66 897.102 1119.66 Q901.761 1119.66 904.475 1121.79 Q907.189 1123.9 907.189 1127.5 Q907.189 1130.01 905.751 1131.75 Q904.313 1133.48 901.66 1134.14 Z" fill="#000000" fill-rule="nonzero" fill-opacity="1" /><path clip-path="url(#clip680)" d="M1209.55 1122.9 Q1206.39 1122.9 1204.79 1126.02 Q1203.21 1129.12 1203.21 1135.36 Q1203.21 1141.58 1204.79 1144.7 Q1206.39 1147.8 1209.55 1147.8 Q1212.73 1147.8 1214.31 1144.7 Q1215.91 1141.58 1215.91 1135.36 Q1215.91 1129.12 1214.31 1126.02 Q1212.73 1122.9 1209.55 1122.9 M1209.55 1119.66 Q1214.63 1119.66 1217.31 1123.69 Q1220 1127.7 1220 1135.36 Q1220 1143 1217.31 1147.03 Q1214.63 1151.04 1209.55 1151.04 Q1204.46 1151.04 1201.77 1147.03 Q1199.1 1143 1199.1 1135.36 Q1199.1 1127.7 1201.77 1123.69 Q1204.46 1119.66 1209.55 1119.66 Z" fill="#000000" fill-rule="nonzero" fill-opacity="1" /><path clip-path="url(#clip680)" d="M1227.19 1145.3 L1231.46 1145.3 L1231.46 1150.45 L1227.19 1150.45 L1227.19 1145.3 Z" fill="#000000" fill-rule="nonzero" fill-opacity="1" /><path clip-path="url(#clip680)" d="M1239.34 1120.21 L1258.79 1120.21 L1258.79 1121.95 L1247.81 1150.45 L1243.54 1150.45 L1253.86 1123.65 L1239.34 1123.65 L1239.34 1120.21 Z" fill="#000000" fill-rule="nonzero" fill-opacity="1" /><path clip-path="url(#clip680)" d="M3229.29 1147.01 L3235.98 1147.01 L3235.98 1123.94 L3228.71 1125.39 L3228.71 1121.67 L3235.94 1120.21 L3240.03 1120.21 L3240.03 1147.01 L3246.71 1147.01 L3246.71 1150.45 L3229.29 1150.45 L3229.29 1147.01 Z" fill="#000000" fill-rule="nonzero" fill-opacity="1" /><path clip-path="url(#clip680)" d="M3263.73 1122.9 Q3260.57 1122.9 3258.97 1126.02 Q3257.39 1129.12 3257.39 1135.36 Q3257.39 1141.58 3258.97 1144.7 Q3260.57 1147.8 3263.73 1147.8 Q3266.91 1147.8 3268.49 1144.7 Q3270.09 1141.58 3270.09 1135.36 Q3270.09 1129.12 3268.49 1126.02 Q3266.91 1122.9 3263.73 1122.9 M3263.73 1119.66 Q3268.81 1119.66 3271.48 1123.69 Q3274.18 1127.7 3274.18 1135.36 Q3274.18 1143 3271.48 1147.03 Q3268.81 1151.04 3263.73 1151.04 Q3258.64 1151.04 3255.95 1147.03 Q3253.28 1143 3253.28 1135.36 Q3253.28 1127.7 3255.95 1123.69 Q3258.64 1119.66 3263.73 1119.66 Z" fill="#000000" fill-rule="nonzero" fill-opacity="1" /><path clip-path="url(#clip680)" d="M3290.12 1122.9 Q3286.96 1122.9 3285.36 1126.02 Q3283.78 1129.12 3283.78 1135.36 Q3283.78 1141.58 3285.36 1144.7 Q3286.96 1147.8 3290.12 1147.8 Q3293.3 1147.8 3294.88 1144.7 Q3296.48 1141.58 3296.48 1135.36 Q3296.48 1129.12 3294.88 1126.02 Q3293.3 1122.9 3290.12 1122.9 M3290.12 1119.66 Q3295.2 1119.66 3297.88 1123.69 Q3300.57 1127.7 3300.57 1135.36 Q3300.57 1143 3297.88 1147.03 Q3295.2 1151.04 3290.12 1151.04 Q3285.03 1151.04 3282.34 1147.03 Q3279.67 1143 3279.67 1135.36 Q3279.67 1127.7 3282.34 1123.69 Q3285.03 1119.66 3290.12 1119.66 Z" fill="#000000" fill-rule="nonzero" fill-opacity="1" /><path clip-path="url(#clip680)" d="M3307.76 1145.3 L3312.03 1145.3 L3312.03 1150.45 L3307.76 1150.45 L3307.76 1145.3 Z" fill="#000000" fill-rule="nonzero" fill-opacity="1" /><path clip-path="url(#clip680)" d="M3329.7 1122.9 Q3326.54 1122.9 3324.94 1126.02 Q3323.36 1129.12 3323.36 1135.36 Q3323.36 1141.58 3324.94 1144.7 Q3326.54 1147.8 3329.7 1147.8 Q3332.88 1147.8 3334.46 1144.7 Q3336.06 1141.58 3336.06 1135.36 Q3336.06 1129.12 3334.46 1126.02 Q3332.88 1122.9 3329.7 1122.9 M3329.7 1119.66 Q3334.78 1119.66 3337.45 1123.69 Q3340.15 1127.7 3340.15 1135.36 Q3340.15 1143 3337.45 1147.03 Q3334.78 1151.04 3329.7 1151.04 Q3324.61 1151.04 3321.92 1147.03 Q3319.24 1143 3319.24 1135.36 Q3319.24 1127.7 3321.92 1123.69 Q3324.61 1119.66 3329.7 1119.66 Z" fill="#000000" fill-rule="nonzero" fill-opacity="1" /><path clip-path="url(#clip680)" d="M1347.96 1147.01 L1354.64 1147.01 L1354.64 1123.94 L1347.37 1125.39 L1347.37 1121.67 L1354.6 1120.21 L1358.69 1120.21 L1358.69 1147.01 L1365.37 1147.01 L1365.37 1150.45 L1347.96 1150.45 L1347.96 1147.01 Z" fill="#000000" fill-rule="nonzero" fill-opacity="1" /><path clip-path="url(#clip680)" d="M1373.64 1145.3 L1377.91 1145.3 L1377.91 1150.45 L1373.64 1150.45 L1373.64 1145.3 Z" fill="#000000" fill-rule="nonzero" fill-opacity="1" /><path clip-path="url(#clip680)" d="M1395.57 1122.9 Q1392.41 1122.9 1390.81 1126.02 Q1389.23 1129.12 1389.23 1135.36 Q1389.23 1141.58 1390.81 1144.7 Q1392.41 1147.8 1395.57 1147.8 Q1398.75 1147.8 1400.33 1144.7 Q1401.93 1141.58 1401.93 1135.36 Q1401.93 1129.12 1400.33 1126.02 Q1398.75 1122.9 1395.57 1122.9 M1395.57 1119.66 Q1400.66 1119.66 1403.33 1123.69 Q1406.03 1127.7 1406.03 1135.36 Q1406.03 1143 1403.33 1147.03 Q1400.66 1151.04 1395.57 1151.04 Q1390.49 1151.04 1387.8 1147.03 Q1385.12 1143 1385.12 1135.36 Q1385.12 1127.7 1387.8 1123.69 Q1390.49 1119.66 1395.57 1119.66 Z" fill="#000000" fill-rule="nonzero" fill-opacity="1" /><path clip-path="url(#clip680)" d="M3696.79 1134.14 Q3699.73 1134.77 3701.37 1136.76 Q3703.03 1138.74 3703.03 1141.66 Q3703.03 1146.13 3699.95 1148.59 Q3696.87 1151.04 3691.2 1151.04 Q3689.3 1151.04 3687.27 1150.65 Q3685.26 1150.29 3683.12 1149.54 L3683.12 1145.59 Q3684.82 1146.58 3686.84 1147.09 Q3688.87 1147.59 3691.08 1147.59 Q3694.93 1147.59 3696.93 1146.07 Q3698.96 1144.55 3698.96 1141.66 Q3698.96 1138.98 3697.07 1137.49 Q3695.21 1135.97 3691.87 1135.97 L3688.34 1135.97 L3688.34 1132.6 L3692.03 1132.6 Q3695.05 1132.6 3696.65 1131.41 Q3698.25 1130.19 3698.25 1127.93 Q3698.25 1125.6 3696.59 1124.36 Q3694.95 1123.11 3691.87 1123.11 Q3690.19 1123.11 3688.26 1123.47 Q3686.34 1123.83 3684.03 1124.6 L3684.03 1120.96 Q3686.36 1120.31 3688.38 1119.99 Q3690.43 1119.66 3692.23 1119.66 Q3696.89 1119.66 3699.6 1121.79 Q3702.32 1123.9 3702.32 1127.5 Q3702.32 1130.01 3700.88 1131.75 Q3699.44 1133.48 3696.79 1134.14 Z" fill="#000000" fill-rule="nonzero" fill-opacity="1" /><path clip-path="url(#clip680)" d="M3719.54 1122.9 Q3716.38 1122.9 3714.78 1126.02 Q3713.2 1129.12 3713.2 1135.36 Q3713.2 1141.58 3714.78 1144.7 Q3716.38 1147.8 3719.54 1147.8 Q3722.72 1147.8 3724.29 1144.7 Q3725.89 1141.58 3725.89 1135.36 Q3725.89 1129.12 3724.29 1126.02 Q3722.72 1122.9 3719.54 1122.9 M3719.54 1119.66 Q3724.62 1119.66 3727.29 1123.69 Q3729.99 1127.7 3729.99 1135.36 Q3729.99 1143 3727.29 1147.03 Q3724.62 1151.04 3719.54 1151.04 Q3714.45 1151.04 3711.76 1147.03 Q3709.08 1143 3709.08 1135.36 Q3709.08 1127.7 3711.76 1123.69 Q3714.45 1119.66 3719.54 1119.66 Z" fill="#000000" fill-rule="nonzero" fill-opacity="1" /><path clip-path="url(#clip680)" d="M3745.93 1122.9 Q3742.77 1122.9 3741.17 1126.02 Q3739.59 1129.12 3739.59 1135.36 Q3739.59 1141.58 3741.17 1144.7 Q3742.77 1147.8 3745.93 1147.8 Q3749.11 1147.8 3750.69 1144.7 Q3752.29 1141.58 3752.29 1135.36 Q3752.29 1129.12 3750.69 1126.02 Q3749.11 1122.9 3745.93 1122.9 M3745.93 1119.66 Q3751.01 1119.66 3753.68 1123.69 Q3756.38 1127.7 3756.38 1135.36 Q3756.38 1143 3753.68 1147.03 Q3751.01 1151.04 3745.93 1151.04 Q3740.84 1151.04 3738.15 1147.03 Q3735.48 1143 3735.48 1135.36 Q3735.48 1127.7 3738.15 1123.69 Q3740.84 1119.66 3745.93 1119.66 Z" fill="#000000" fill-rule="nonzero" fill-opacity="1" /><path clip-path="url(#clip680)" d="M3763.57 1145.3 L3767.84 1145.3 L3767.84 1150.45 L3763.57 1150.45 L3763.57 1145.3 Z" fill="#000000" fill-rule="nonzero" fill-opacity="1" /><path clip-path="url(#clip680)" d="M3785.5 1122.9 Q3782.34 1122.9 3780.74 1126.02 Q3779.16 1129.12 3779.16 1135.36 Q3779.16 1141.58 3780.74 1144.7 Q3782.34 1147.8 3785.5 1147.8 Q3788.68 1147.8 3790.26 1144.7 Q3791.86 1141.58 3791.86 1135.36 Q3791.86 1129.12 3790.26 1126.02 Q3788.68 1122.9 3785.5 1122.9 M3785.5 1119.66 Q3790.59 1119.66 3793.26 1123.69 Q3795.96 1127.7 3795.96 1135.36 Q3795.96 1143 3793.26 1147.03 Q3790.59 1151.04 3785.5 1151.04 Q3780.42 1151.04 3777.73 1147.03 Q3775.05 1143 3775.05 1135.36 Q3775.05 1127.7 3777.73 1123.69 Q3780.42 1119.66 3785.5 1119.66 Z" fill="#000000" fill-rule="nonzero" fill-opacity="1" /><path clip-path="url(#clip680)" d="M2288.63 1147.01 L2295.31 1147.01 L2295.31 1123.94 L2288.04 1125.39 L2288.04 1121.67 L2295.27 1120.21 L2299.36 1120.21 L2299.36 1147.01 L2306.04 1147.01 L2306.04 1150.45 L2288.63 1150.45 L2288.63 1147.01 Z" fill="#000000" fill-rule="nonzero" fill-opacity="1" /><path clip-path="url(#clip680)" d="M2323.06 1122.9 Q2319.9 1122.9 2318.3 1126.02 Q2316.72 1129.12 2316.72 1135.36 Q2316.72 1141.58 2318.3 1144.7 Q2319.9 1147.8 2323.06 1147.8 Q2326.24 1147.8 2327.82 1144.7 Q2329.42 1141.58 2329.42 1135.36 Q2329.42 1129.12 2327.82 1126.02 Q2326.24 1122.9 2323.06 1122.9 M2323.06 1119.66 Q2328.14 1119.66 2330.82 1123.69 Q2333.51 1127.7 2333.51 1135.36 Q2333.51 1143 2330.82 1147.03 Q2328.14 1151.04 2323.06 1151.04 Q2317.97 1151.04 2315.28 1147.03 Q2312.61 1143 2312.61 1135.36 Q2312.61 1127.7 2315.28 1123.69 Q2317.97 1119.66 2323.06 1119.66 Z" fill="#000000" fill-rule="nonzero" fill-opacity="1" /><path clip-path="url(#clip680)" d="M2340.7 1145.3 L2344.97 1145.3 L2344.97 1150.45 L2340.7 1150.45 L2340.7 1145.3 Z" fill="#000000" fill-rule="nonzero" fill-opacity="1" /><path clip-path="url(#clip680)" d="M2362.64 1122.9 Q2359.48 1122.9 2357.88 1126.02 Q2356.3 1129.12 2356.3 1135.36 Q2356.3 1141.58 2357.88 1144.7 Q2359.48 1147.8 2362.64 1147.8 Q2365.82 1147.8 2367.4 1144.7 Q2369 1141.58 2369 1135.36 Q2369 1129.12 2367.4 1126.02 Q2365.82 1122.9 2362.64 1122.9 M2362.64 1119.66 Q2367.72 1119.66 2370.39 1123.69 Q2373.09 1127.7 2373.09 1135.36 Q2373.09 1143 2370.39 1147.03 Q2367.72 1151.04 2362.64 1151.04 Q2357.55 1151.04 2354.86 1147.03 Q2352.18 1143 2352.18 1135.36 Q2352.18 1127.7 2354.86 1123.69 Q2357.55 1119.66 2362.64 1119.66 Z" fill="#000000" fill-rule="nonzero" fill-opacity="1" /><path clip-path="url(#clip680)" d="M2170.97 1223.14 L2170.97 1240.55 L2181.29 1240.55 Q2186.47 1240.55 2188.96 1238.42 Q2191.47 1236.25 2191.47 1231.83 Q2191.47 1227.37 2188.96 1225.27 Q2186.47 1223.14 2181.29 1223.14 L2170.97 1223.14 M2170.97 1203.6 L2170.97 1217.92 L2180.49 1217.92 Q2185.2 1217.92 2187.49 1216.17 Q2189.82 1214.39 2189.82 1210.76 Q2189.82 1207.16 2187.49 1205.38 Q2185.2 1203.6 2180.49 1203.6 L2170.97 1203.6 M2164.54 1198.31 L2180.97 1198.31 Q2188.32 1198.31 2192.3 1201.37 Q2196.28 1204.42 2196.28 1210.06 Q2196.28 1214.42 2194.24 1217 Q2192.2 1219.57 2188.26 1220.21 Q2193 1221.23 2195.61 1224.48 Q2198.25 1227.69 2198.25 1232.53 Q2198.25 1238.89 2193.92 1242.36 Q2189.59 1245.83 2181.6 1245.83 L2164.54 1245.83 L2164.54 1198.31 Z" fill="#000000" fill-rule="nonzero" fill-opacity="1" /><path clip-path="url(#clip680)" d="M2225.21 1227.91 Q2218.11 1227.91 2215.37 1229.54 Q2212.64 1231.16 2212.64 1235.07 Q2212.64 1238.19 2214.67 1240.04 Q2216.74 1241.85 2220.28 1241.85 Q2225.15 1241.85 2228.07 1238.42 Q2231.03 1234.95 2231.03 1229.22 L2231.03 1227.91 L2225.21 1227.91 M2236.89 1225.49 L2236.89 1245.83 L2231.03 1245.83 L2231.03 1240.42 Q2229.03 1243.67 2226.04 1245.23 Q2223.05 1246.76 2218.72 1246.76 Q2213.24 1246.76 2210 1243.7 Q2206.78 1240.61 2206.78 1235.46 Q2206.78 1229.44 2210.79 1226.39 Q2214.83 1223.33 2222.82 1223.33 L2231.03 1223.33 L2231.03 1222.76 Q2231.03 1218.72 2228.36 1216.52 Q2225.72 1214.29 2220.91 1214.29 Q2217.86 1214.29 2214.96 1215.02 Q2212.06 1215.75 2209.39 1217.22 L2209.39 1211.81 Q2212.61 1210.57 2215.63 1209.96 Q2218.65 1209.33 2221.52 1209.33 Q2229.25 1209.33 2233.07 1213.34 Q2236.89 1217.35 2236.89 1225.49 Z" fill="#000000" fill-rule="nonzero" fill-opacity="1" /><path clip-path="url(#clip680)" d="M2254.75 1200.06 L2254.75 1210.18 L2266.81 1210.18 L2266.81 1214.74 L2254.75 1214.74 L2254.75 1234.09 Q2254.75 1238.45 2255.92 1239.69 Q2257.13 1240.93 2260.79 1240.93 L2266.81 1240.93 L2266.81 1245.83 L2260.79 1245.83 Q2254.01 1245.83 2251.44 1243.32 Q2248.86 1240.77 2248.86 1234.09 L2248.86 1214.74 L2244.56 1214.74 L2244.56 1210.18 L2248.86 1210.18 L2248.86 1200.06 L2254.75 1200.06 Z" fill="#000000" fill-rule="nonzero" fill-opacity="1" /><path clip-path="url(#clip680)" d="M2300.17 1211.55 L2300.17 1217.03 Q2297.68 1215.66 2295.17 1214.99 Q2292.69 1214.29 2290.14 1214.29 Q2284.44 1214.29 2281.29 1217.92 Q2278.14 1221.52 2278.14 1228.04 Q2278.14 1234.57 2281.29 1238.19 Q2284.44 1241.79 2290.14 1241.79 Q2292.69 1241.79 2295.17 1241.12 Q2297.68 1240.42 2300.17 1239.05 L2300.17 1244.46 Q2297.72 1245.61 2295.07 1246.18 Q2292.46 1246.76 2289.5 1246.76 Q2281.45 1246.76 2276.71 1241.7 Q2271.97 1236.63 2271.97 1228.04 Q2271.97 1219.32 2276.74 1214.32 Q2281.55 1209.33 2289.89 1209.33 Q2292.59 1209.33 2295.17 1209.9 Q2297.75 1210.44 2300.17 1211.55 Z" fill="#000000" fill-rule="nonzero" fill-opacity="1" /><path clip-path="url(#clip680)" d="M2339.98 1224.32 L2339.98 1245.83 L2334.13 1245.83 L2334.13 1224.51 Q2334.13 1219.45 2332.15 1216.93 Q2330.18 1214.42 2326.23 1214.42 Q2321.49 1214.42 2318.75 1217.44 Q2316.02 1220.47 2316.02 1225.69 L2316.02 1245.83 L2310.13 1245.83 L2310.13 1196.31 L2316.02 1196.31 L2316.02 1215.72 Q2318.12 1212.51 2320.95 1210.92 Q2323.81 1209.33 2327.54 1209.33 Q2333.68 1209.33 2336.83 1213.15 Q2339.98 1216.93 2339.98 1224.32 Z" fill="#000000" fill-rule="nonzero" fill-opacity="1" /><path clip-path="url(#clip680)" d="M2401.13 1199.87 L2401.13 1206.14 Q2397.47 1204.39 2394.22 1203.53 Q2390.97 1202.67 2387.95 1202.67 Q2382.7 1202.67 2379.83 1204.71 Q2377 1206.75 2377 1210.5 Q2377 1213.65 2378.88 1215.28 Q2380.79 1216.87 2386.07 1217.86 L2389.95 1218.65 Q2397.15 1220.02 2400.55 1223.49 Q2403.99 1226.93 2403.99 1232.72 Q2403.99 1239.63 2399.34 1243.19 Q2394.73 1246.76 2385.78 1246.76 Q2382.41 1246.76 2378.59 1245.99 Q2374.8 1245.23 2370.73 1243.73 L2370.73 1237.11 Q2374.64 1239.31 2378.4 1240.42 Q2382.16 1241.54 2385.78 1241.54 Q2391.29 1241.54 2394.28 1239.37 Q2397.27 1237.21 2397.27 1233.2 Q2397.27 1229.7 2395.11 1227.72 Q2392.98 1225.75 2388.08 1224.76 L2384.16 1224 Q2376.97 1222.57 2373.75 1219.51 Q2370.54 1216.46 2370.54 1211.01 Q2370.54 1204.71 2374.96 1201.08 Q2379.42 1197.45 2387.22 1197.45 Q2390.56 1197.45 2394.03 1198.06 Q2397.5 1198.66 2401.13 1199.87 Z" fill="#000000" fill-rule="nonzero" fill-opacity="1" /><path clip-path="url(#clip680)" d="M2413.76 1210.18 L2419.62 1210.18 L2419.62 1245.83 L2413.76 1245.83 L2413.76 1210.18 M2413.76 1196.31 L2419.62 1196.31 L2419.62 1203.72 L2413.76 1203.72 L2413.76 1196.31 Z" fill="#000000" fill-rule="nonzero" fill-opacity="1" /><path clip-path="url(#clip680)" d="M2429.33 1210.18 L2457.14 1210.18 L2457.14 1215.53 L2435.12 1241.15 L2457.14 1241.15 L2457.14 1245.83 L2428.53 1245.83 L2428.53 1240.49 L2450.56 1214.86 L2429.33 1214.86 L2429.33 1210.18 Z" fill="#000000" fill-rule="nonzero" fill-opacity="1" /><path clip-path="url(#clip680)" d="M2496.58 1226.54 L2496.58 1229.41 L2469.65 1229.41 Q2470.03 1235.46 2473.28 1238.64 Q2476.56 1241.79 2482.38 1241.79 Q2485.76 1241.79 2488.91 1240.96 Q2492.09 1240.14 2495.21 1238.48 L2495.21 1244.02 Q2492.06 1245.36 2488.75 1246.06 Q2485.44 1246.76 2482.03 1246.76 Q2473.5 1246.76 2468.51 1241.79 Q2463.54 1236.83 2463.54 1228.36 Q2463.54 1219.61 2468.25 1214.48 Q2472.99 1209.33 2481.02 1209.33 Q2488.21 1209.33 2492.38 1213.97 Q2496.58 1218.59 2496.58 1226.54 M2490.72 1224.83 Q2490.66 1220.02 2488.02 1217.16 Q2485.41 1214.29 2481.08 1214.29 Q2476.18 1214.29 2473.22 1217.06 Q2470.29 1219.83 2469.84 1224.86 L2490.72 1224.83 Z" fill="#000000" fill-rule="nonzero" fill-opacity="1" /><polyline clip-path="url(#clip680)" style="stroke:#000000; stroke-linecap:round; stroke-linejoin:round; stroke-width:4; stroke-opacity:1; fill:none" points="308.369,1077.45 308.369,87.7339 "/>
<polyline clip-path="url(#clip680)" style="stroke:#000000; stroke-linecap:round; stroke-linejoin:round; stroke-width:4; stroke-opacity:1; fill:none" points="308.369,1049.44 327.266,1049.44 "/>
<polyline clip-path="url(#clip680)" style="stroke:#000000; stroke-linecap:round; stroke-linejoin:round; stroke-width:4; stroke-opacity:1; fill:none" points="308.369,992.157 327.266,992.157 "/>
<polyline clip-path="url(#clip680)" style="stroke:#000000; stroke-linecap:round; stroke-linejoin:round; stroke-width:4; stroke-opacity:1; fill:none" points="308.369,591.091 327.266,591.091 "/>
<polyline clip-path="url(#clip680)" style="stroke:#000000; stroke-linecap:round; stroke-linejoin:round; stroke-width:4; stroke-opacity:1; fill:none" points="308.369,332.714 327.266,332.714 "/>
<polyline clip-path="url(#clip680)" style="stroke:#000000; stroke-linecap:round; stroke-linejoin:round; stroke-width:4; stroke-opacity:1; fill:none" points="308.369,257.31 327.266,257.31 "/>
<polyline clip-path="url(#clip680)" style="stroke:#000000; stroke-linecap:round; stroke-linejoin:round; stroke-width:4; stroke-opacity:1; fill:none" points="308.369,254.359 327.266,254.359 "/>
<polyline clip-path="url(#clip680)" style="stroke:#000000; stroke-linecap:round; stroke-linejoin:round; stroke-width:4; stroke-opacity:1; fill:none" points="308.369,206.175 327.266,206.175 "/>
<polyline clip-path="url(#clip680)" style="stroke:#000000; stroke-linecap:round; stroke-linejoin:round; stroke-width:4; stroke-opacity:1; fill:none" points="308.369,178.354 327.266,178.354 "/>
<path clip-path="url(#clip680)" d="M86.6315 1037.01 Q83.4718 1037.01 81.8717 1040.13 Q80.2918 1043.23 80.2918 1049.47 Q80.2918 1055.69 81.8717 1058.81 Q83.4718 1061.9 86.6315 1061.9 Q89.8115 1061.9 91.3913 1058.81 Q92.9914 1055.69 92.9914 1049.47 Q92.9914 1043.23 91.3913 1040.13 Q89.8115 1037.01 86.6315 1037.01 M86.6315 1033.77 Q91.7154 1033.77 94.389 1037.8 Q97.0828 1041.81 97.0828 1049.47 Q97.0828 1057.1 94.389 1061.14 Q91.7154 1065.15 86.6315 1065.15 Q81.5476 1065.15 78.8538 1061.14 Q76.1802 1057.1 76.1802 1049.47 Q76.1802 1041.81 78.8538 1037.8 Q81.5476 1033.77 86.6315 1033.77 Z" fill="#000000" fill-rule="nonzero" fill-opacity="1" /><path clip-path="url(#clip680)" d="M104.273 1059.41 L108.547 1059.41 L108.547 1064.56 L104.273 1064.56 L104.273 1059.41 Z" fill="#000000" fill-rule="nonzero" fill-opacity="1" /><path clip-path="url(#clip680)" d="M126.209 1037.01 Q123.049 1037.01 121.449 1040.13 Q119.869 1043.23 119.869 1049.47 Q119.869 1055.69 121.449 1058.81 Q123.049 1061.9 126.209 1061.9 Q129.389 1061.9 130.969 1058.81 Q132.569 1055.69 132.569 1049.47 Q132.569 1043.23 130.969 1040.13 Q129.389 1037.01 126.209 1037.01 M126.209 1033.77 Q131.293 1033.77 133.966 1037.8 Q136.66 1041.81 136.66 1049.47 Q136.66 1057.1 133.966 1061.14 Q131.293 1065.15 126.209 1065.15 Q121.125 1065.15 118.431 1061.14 Q115.757 1057.1 115.757 1049.47 Q115.757 1041.81 118.431 1037.8 Q121.125 1033.77 126.209 1033.77 Z" fill="#000000" fill-rule="nonzero" fill-opacity="1" /><path clip-path="url(#clip680)" d="M142.818 1034.32 L162.262 1034.32 L162.262 1036.06 L151.284 1064.56 L147.01 1064.56 L157.34 1037.76 L142.818 1037.76 L142.818 1034.32 Z" fill="#000000" fill-rule="nonzero" fill-opacity="1" /><path clip-path="url(#clip680)" d="M170.364 1063.93 L170.364 1060.2 Q171.903 1060.93 173.483 1061.32 Q175.063 1061.7 176.582 1061.7 Q180.633 1061.7 182.759 1058.99 Q184.906 1056.25 185.21 1050.7 Q184.035 1052.45 182.233 1053.38 Q180.43 1054.31 178.243 1054.31 Q173.706 1054.31 171.052 1051.57 Q168.419 1048.82 168.419 1044.06 Q168.419 1039.4 171.174 1036.59 Q173.928 1033.77 178.506 1033.77 Q183.752 1033.77 186.507 1037.8 Q189.281 1041.81 189.281 1049.47 Q189.281 1056.62 185.879 1060.89 Q182.496 1065.15 176.764 1065.15 Q175.225 1065.15 173.645 1064.84 Q172.065 1064.54 170.364 1063.93 M178.506 1051.11 Q181.261 1051.11 182.861 1049.23 Q184.481 1047.34 184.481 1044.06 Q184.481 1040.8 182.861 1038.92 Q181.261 1037.01 178.506 1037.01 Q175.751 1037.01 174.131 1038.92 Q172.531 1040.8 172.531 1044.06 Q172.531 1047.34 174.131 1049.23 Q175.751 1051.11 178.506 1051.11 Z" fill="#000000" fill-rule="nonzero" fill-opacity="1" /><path clip-path="url(#clip680)" d="M196.755 1063.93 L196.755 1060.2 Q198.295 1060.93 199.875 1061.32 Q201.454 1061.7 202.973 1061.7 Q207.024 1061.7 209.151 1058.99 Q211.298 1056.25 211.602 1050.7 Q210.427 1052.45 208.624 1053.38 Q206.822 1054.31 204.634 1054.31 Q200.097 1054.31 197.444 1051.57 Q194.811 1048.82 194.811 1044.06 Q194.811 1039.4 197.566 1036.59 Q200.32 1033.77 204.898 1033.77 Q210.144 1033.77 212.898 1037.8 Q215.673 1041.81 215.673 1049.47 Q215.673 1056.62 212.27 1060.89 Q208.888 1065.15 203.156 1065.15 Q201.616 1065.15 200.037 1064.84 Q198.457 1064.54 196.755 1063.93 M204.898 1051.11 Q207.652 1051.11 209.252 1049.23 Q210.873 1047.34 210.873 1044.06 Q210.873 1040.8 209.252 1038.92 Q207.652 1037.01 204.898 1037.01 Q202.143 1037.01 200.523 1038.92 Q198.923 1040.8 198.923 1044.06 Q198.923 1047.34 200.523 1049.23 Q202.143 1051.11 204.898 1051.11 Z" fill="#000000" fill-rule="nonzero" fill-opacity="1" /><path clip-path="url(#clip680)" d="M232.282 1047.81 Q229.527 1047.81 227.907 1049.69 Q226.307 1051.57 226.307 1054.86 Q226.307 1058.12 227.907 1060.02 Q229.527 1061.9 232.282 1061.9 Q235.036 1061.9 236.636 1060.02 Q238.257 1058.12 238.257 1054.86 Q238.257 1051.57 236.636 1049.69 Q235.036 1047.81 232.282 1047.81 M240.404 1034.99 L240.404 1038.71 Q238.864 1037.98 237.285 1037.6 Q235.725 1037.21 234.186 1037.21 Q230.135 1037.21 227.988 1039.95 Q225.861 1042.68 225.557 1048.21 Q226.752 1046.45 228.555 1045.52 Q230.358 1044.57 232.525 1044.57 Q237.082 1044.57 239.715 1047.34 Q242.369 1050.1 242.369 1054.86 Q242.369 1059.51 239.614 1062.33 Q236.859 1065.15 232.282 1065.15 Q227.036 1065.15 224.261 1061.14 Q221.486 1057.1 221.486 1049.47 Q221.486 1042.3 224.889 1038.04 Q228.292 1033.77 234.024 1033.77 Q235.563 1033.77 237.123 1034.08 Q238.702 1034.38 240.404 1034.99 Z" fill="#000000" fill-rule="nonzero" fill-opacity="1" /><path clip-path="url(#clip680)" d="M87.3404 979.731 Q84.1807 979.731 82.5806 982.85 Q81.0007 985.949 81.0007 992.187 Q81.0007 998.405 82.5806 1001.52 Q84.1807 1004.62 87.3404 1004.62 Q90.5204 1004.62 92.1002 1001.52 Q93.7003 998.405 93.7003 992.187 Q93.7003 985.949 92.1002 982.85 Q90.5204 979.731 87.3404 979.731 M87.3404 976.49 Q92.4243 976.49 95.0979 980.521 Q97.7917 984.531 97.7917 992.187 Q97.7917 999.823 95.0979 1003.85 Q92.4243 1007.86 87.3404 1007.86 Q82.2565 1007.86 79.5627 1003.85 Q76.8891 999.823 76.8891 992.187 Q76.8891 984.531 79.5627 980.521 Q82.2565 976.49 87.3404 976.49 Z" fill="#000000" fill-rule="nonzero" fill-opacity="1" /><path clip-path="url(#clip680)" d="M104.982 1002.13 L109.256 1002.13 L109.256 1007.28 L104.982 1007.28 L104.982 1002.13 Z" fill="#000000" fill-rule="nonzero" fill-opacity="1" /><path clip-path="url(#clip680)" d="M126.918 979.731 Q123.758 979.731 122.158 982.85 Q120.578 985.949 120.578 992.187 Q120.578 998.405 122.158 1001.52 Q123.758 1004.62 126.918 1004.62 Q130.098 1004.62 131.678 1001.52 Q133.278 998.405 133.278 992.187 Q133.278 985.949 131.678 982.85 Q130.098 979.731 126.918 979.731 M126.918 976.49 Q132.002 976.49 134.675 980.521 Q137.369 984.531 137.369 992.187 Q137.369 999.823 134.675 1003.85 Q132.002 1007.86 126.918 1007.86 Q121.834 1007.86 119.14 1003.85 Q116.466 999.823 116.466 992.187 Q116.466 984.531 119.14 980.521 Q121.834 976.49 126.918 976.49 Z" fill="#000000" fill-rule="nonzero" fill-opacity="1" /><path clip-path="url(#clip680)" d="M144.681 1006.65 L144.681 1002.92 Q146.22 1003.65 147.8 1004.04 Q149.38 1004.42 150.899 1004.42 Q154.95 1004.42 157.077 1001.71 Q159.224 998.972 159.528 993.423 Q158.353 995.165 156.55 996.096 Q154.747 997.028 152.56 997.028 Q148.023 997.028 145.37 994.294 Q142.737 991.539 142.737 986.779 Q142.737 982.121 145.491 979.305 Q148.246 976.49 152.823 976.49 Q158.069 976.49 160.824 980.521 Q163.599 984.531 163.599 992.187 Q163.599 999.337 160.196 1003.61 Q156.813 1007.86 151.081 1007.86 Q149.542 1007.86 147.962 1007.56 Q146.382 1007.26 144.681 1006.65 M152.823 993.828 Q155.578 993.828 157.178 991.944 Q158.798 990.06 158.798 986.779 Q158.798 983.518 157.178 981.635 Q155.578 979.731 152.823 979.731 Q150.069 979.731 148.448 981.635 Q146.848 983.518 146.848 986.779 Q146.848 990.06 148.448 991.944 Q150.069 993.828 152.823 993.828 Z" fill="#000000" fill-rule="nonzero" fill-opacity="1" /><path clip-path="url(#clip680)" d="M174.475 1003.83 L188.755 1003.83 L188.755 1007.28 L169.553 1007.28 L169.553 1003.83 Q171.883 1001.42 175.893 997.372 Q179.924 993.301 180.957 992.126 Q182.921 989.919 183.691 988.4 Q184.481 986.86 184.481 985.382 Q184.481 982.971 182.78 981.452 Q181.099 979.933 178.384 979.933 Q176.46 979.933 174.313 980.602 Q172.187 981.27 169.756 982.627 L169.756 978.495 Q172.227 977.503 174.374 976.996 Q176.521 976.49 178.303 976.49 Q183.003 976.49 185.798 978.839 Q188.593 981.189 188.593 985.118 Q188.593 986.982 187.884 988.663 Q187.195 990.324 185.352 992.592 Q184.846 993.18 182.132 995.995 Q179.417 998.79 174.475 1003.83 Z" fill="#000000" fill-rule="nonzero" fill-opacity="1" /><path clip-path="url(#clip680)" d="M200.867 1003.83 L215.146 1003.83 L215.146 1007.28 L195.945 1007.28 L195.945 1003.83 Q198.274 1001.42 202.285 997.372 Q206.315 993.301 207.348 992.126 Q209.313 989.919 210.083 988.4 Q210.873 986.86 210.873 985.382 Q210.873 982.971 209.171 981.452 Q207.49 979.933 204.776 979.933 Q202.852 979.933 200.705 980.602 Q198.578 981.27 196.148 982.627 L196.148 978.495 Q198.619 977.503 200.766 976.996 Q202.913 976.49 204.695 976.49 Q209.394 976.49 212.189 978.839 Q214.984 981.189 214.984 985.118 Q214.984 986.982 214.275 988.663 Q213.587 990.324 211.744 992.592 Q211.237 993.18 208.523 995.995 Q205.809 998.79 200.867 1003.83 Z" fill="#000000" fill-rule="nonzero" fill-opacity="1" /><path clip-path="url(#clip680)" d="M236.13 990.972 Q239.067 991.6 240.708 993.585 Q242.369 995.57 242.369 998.486 Q242.369 1002.96 239.29 1005.41 Q236.211 1007.86 230.54 1007.86 Q228.636 1007.86 226.61 1007.48 Q224.605 1007.11 222.458 1006.37 L222.458 1002.42 Q224.16 1003.41 226.185 1003.91 Q228.211 1004.42 230.418 1004.42 Q234.267 1004.42 236.272 1002.9 Q238.297 1001.38 238.297 998.486 Q238.297 995.813 236.414 994.314 Q234.55 992.795 231.208 992.795 L227.684 992.795 L227.684 989.433 L231.37 989.433 Q234.388 989.433 235.988 988.237 Q237.588 987.022 237.588 984.754 Q237.588 982.424 235.928 981.189 Q234.287 979.933 231.208 979.933 Q229.527 979.933 227.603 980.298 Q225.679 980.662 223.37 981.432 L223.37 977.786 Q225.699 977.138 227.724 976.814 Q229.77 976.49 231.573 976.49 Q236.231 976.49 238.945 978.617 Q241.66 980.723 241.66 984.328 Q241.66 986.84 240.222 988.582 Q238.783 990.303 236.13 990.972 Z" fill="#000000" fill-rule="nonzero" fill-opacity="1" /><path clip-path="url(#clip680)" d="M114.036 578.665 Q110.876 578.665 109.276 581.784 Q107.696 584.883 107.696 591.122 Q107.696 597.34 109.276 600.459 Q110.876 603.558 114.036 603.558 Q117.216 603.558 118.796 600.459 Q120.396 597.34 120.396 591.122 Q120.396 584.883 118.796 581.784 Q117.216 578.665 114.036 578.665 M114.036 575.425 Q119.12 575.425 121.793 579.455 Q124.487 583.466 124.487 591.122 Q124.487 598.758 121.793 602.788 Q119.12 606.799 114.036 606.799 Q108.952 606.799 106.258 602.788 Q103.585 598.758 103.585 591.122 Q103.585 583.466 106.258 579.455 Q108.952 575.425 114.036 575.425 Z" fill="#000000" fill-rule="nonzero" fill-opacity="1" /><path clip-path="url(#clip680)" d="M131.678 601.067 L135.951 601.067 L135.951 606.211 L131.678 606.211 L131.678 601.067 Z" fill="#000000" fill-rule="nonzero" fill-opacity="1" /><path clip-path="url(#clip680)" d="M148.388 602.768 L162.667 602.768 L162.667 606.211 L143.466 606.211 L143.466 602.768 Q145.795 600.358 149.805 596.307 Q153.836 592.236 154.869 591.061 Q156.834 588.853 157.603 587.334 Q158.393 585.795 158.393 584.316 Q158.393 581.906 156.692 580.387 Q155.011 578.868 152.297 578.868 Q150.372 578.868 148.225 579.536 Q146.099 580.205 143.668 581.562 L143.668 577.43 Q146.139 576.437 148.286 575.931 Q150.433 575.425 152.216 575.425 Q156.915 575.425 159.71 577.774 Q162.505 580.124 162.505 584.053 Q162.505 585.916 161.796 587.597 Q161.107 589.258 159.264 591.527 Q158.758 592.114 156.044 594.93 Q153.33 597.725 148.388 602.768 Z" fill="#000000" fill-rule="nonzero" fill-opacity="1" /><path clip-path="url(#clip680)" d="M171.295 575.971 L187.357 575.971 L187.357 579.415 L175.042 579.415 L175.042 586.828 Q175.934 586.524 176.825 586.382 Q177.716 586.22 178.607 586.22 Q183.671 586.22 186.628 588.995 Q189.585 591.77 189.585 596.509 Q189.585 601.391 186.547 604.105 Q183.509 606.799 177.979 606.799 Q176.075 606.799 174.091 606.475 Q172.126 606.151 170.019 605.502 L170.019 601.391 Q171.842 602.383 173.787 602.869 Q175.731 603.356 177.898 603.356 Q181.402 603.356 183.448 601.512 Q185.494 599.669 185.494 596.509 Q185.494 593.35 183.448 591.507 Q181.402 589.663 177.898 589.663 Q176.258 589.663 174.617 590.028 Q172.997 590.393 171.295 591.162 L171.295 575.971 Z" fill="#000000" fill-rule="nonzero" fill-opacity="1" /><path clip-path="url(#clip680)" d="M206.396 578.665 Q203.237 578.665 201.637 581.784 Q200.057 584.883 200.057 591.122 Q200.057 597.34 201.637 600.459 Q203.237 603.558 206.396 603.558 Q209.576 603.558 211.156 600.459 Q212.756 597.34 212.756 591.122 Q212.756 584.883 211.156 581.784 Q209.576 578.665 206.396 578.665 M206.396 575.425 Q211.48 575.425 214.154 579.455 Q216.848 583.466 216.848 591.122 Q216.848 598.758 214.154 602.788 Q211.48 606.799 206.396 606.799 Q201.313 606.799 198.619 602.788 Q195.945 598.758 195.945 591.122 Q195.945 583.466 198.619 579.455 Q201.313 575.425 206.396 575.425 Z" fill="#000000" fill-rule="nonzero" fill-opacity="1" /><path clip-path="url(#clip680)" d="M224.079 575.971 L240.141 575.971 L240.141 579.415 L227.826 579.415 L227.826 586.828 Q228.717 586.524 229.608 586.382 Q230.499 586.22 231.391 586.22 Q236.454 586.22 239.411 588.995 Q242.369 591.77 242.369 596.509 Q242.369 601.391 239.33 604.105 Q236.292 606.799 230.763 606.799 Q228.859 606.799 226.874 606.475 Q224.909 606.151 222.803 605.502 L222.803 601.391 Q224.626 602.383 226.57 602.869 Q228.514 603.356 230.682 603.356 Q234.186 603.356 236.231 601.512 Q238.277 599.669 238.277 596.509 Q238.277 593.35 236.231 591.507 Q234.186 589.663 230.682 589.663 Q229.041 589.663 227.4 590.028 Q225.78 590.393 224.079 591.162 L224.079 575.971 Z" fill="#000000" fill-rule="nonzero" fill-opacity="1" /><path clip-path="url(#clip680)" d="M113.327 320.288 Q110.167 320.288 108.567 323.407 Q106.987 326.506 106.987 332.745 Q106.987 338.963 108.567 342.082 Q110.167 345.181 113.327 345.181 Q116.507 345.181 118.087 342.082 Q119.687 338.963 119.687 332.745 Q119.687 326.506 118.087 323.407 Q116.507 320.288 113.327 320.288 M113.327 317.047 Q118.411 317.047 121.084 321.078 Q123.778 325.089 123.778 332.745 Q123.778 340.381 121.084 344.411 Q118.411 348.422 113.327 348.422 Q108.243 348.422 105.549 344.411 Q102.876 340.381 102.876 332.745 Q102.876 325.089 105.549 321.078 Q108.243 317.047 113.327 317.047 Z" fill="#000000" fill-rule="nonzero" fill-opacity="1" /><path clip-path="url(#clip680)" d="M130.969 342.69 L135.242 342.69 L135.242 347.834 L130.969 347.834 L130.969 342.69 Z" fill="#000000" fill-rule="nonzero" fill-opacity="1" /><path clip-path="url(#clip680)" d="M155.396 321.159 L145.066 337.302 L155.396 337.302 L155.396 321.159 M154.322 317.594 L159.467 317.594 L159.467 337.302 L163.781 337.302 L163.781 340.705 L159.467 340.705 L159.467 347.834 L155.396 347.834 L155.396 340.705 L141.744 340.705 L141.744 336.755 L154.322 317.594 Z" fill="#000000" fill-rule="nonzero" fill-opacity="1" /><path clip-path="url(#clip680)" d="M169.513 317.594 L188.957 317.594 L188.957 319.336 L177.979 347.834 L173.706 347.834 L184.035 321.038 L169.513 321.038 L169.513 317.594 Z" fill="#000000" fill-rule="nonzero" fill-opacity="1" /><path clip-path="url(#clip680)" d="M206.194 331.084 Q203.439 331.084 201.819 332.968 Q200.219 334.851 200.219 338.132 Q200.219 341.393 201.819 343.297 Q203.439 345.181 206.194 345.181 Q208.949 345.181 210.549 343.297 Q212.169 341.393 212.169 338.132 Q212.169 334.851 210.549 332.968 Q208.949 331.084 206.194 331.084 M214.316 318.263 L214.316 321.99 Q212.777 321.26 211.197 320.876 Q209.637 320.491 208.098 320.491 Q204.047 320.491 201.9 323.225 Q199.773 325.959 199.469 331.489 Q200.664 329.727 202.467 328.795 Q204.27 327.843 206.437 327.843 Q210.994 327.843 213.627 330.618 Q216.281 333.373 216.281 338.132 Q216.281 342.791 213.526 345.606 Q210.771 348.422 206.194 348.422 Q200.948 348.422 198.173 344.411 Q195.398 340.381 195.398 332.745 Q195.398 325.575 198.801 321.321 Q202.204 317.047 207.936 317.047 Q209.475 317.047 211.035 317.351 Q212.615 317.655 214.316 318.263 Z" fill="#000000" fill-rule="nonzero" fill-opacity="1" /><path clip-path="url(#clip680)" d="M223.451 347.206 L223.451 343.48 Q224.99 344.209 226.57 344.594 Q228.15 344.978 229.669 344.978 Q233.72 344.978 235.847 342.264 Q237.994 339.53 238.297 333.98 Q237.123 335.722 235.32 336.654 Q233.517 337.586 231.33 337.586 Q226.793 337.586 224.139 334.851 Q221.506 332.097 221.506 327.337 Q221.506 322.678 224.261 319.863 Q227.016 317.047 231.593 317.047 Q236.839 317.047 239.594 321.078 Q242.369 325.089 242.369 332.745 Q242.369 339.895 238.966 344.168 Q235.583 348.422 229.851 348.422 Q228.312 348.422 226.732 348.118 Q225.152 347.814 223.451 347.206 M231.593 334.385 Q234.348 334.385 235.948 332.502 Q237.568 330.618 237.568 327.337 Q237.568 324.076 235.948 322.192 Q234.348 320.288 231.593 320.288 Q228.838 320.288 227.218 322.192 Q225.618 324.076 225.618 327.337 Q225.618 330.618 227.218 332.502 Q228.838 334.385 231.593 334.385 Z" fill="#000000" fill-rule="nonzero" fill-opacity="1" /><path clip-path="url(#clip680)" d="M112.74 244.883 Q109.58 244.883 107.98 248.003 Q106.4 251.102 106.4 257.34 Q106.4 263.558 107.98 266.677 Q109.58 269.776 112.74 269.776 Q115.92 269.776 117.499 266.677 Q119.099 263.558 119.099 257.34 Q119.099 251.102 117.499 248.003 Q115.92 244.883 112.74 244.883 M112.74 241.643 Q117.823 241.643 120.497 245.673 Q123.191 249.684 123.191 257.34 Q123.191 264.976 120.497 269.007 Q117.823 273.017 112.74 273.017 Q107.656 273.017 104.962 269.007 Q102.288 264.976 102.288 257.34 Q102.288 249.684 104.962 245.673 Q107.656 241.643 112.74 241.643 Z" fill="#000000" fill-rule="nonzero" fill-opacity="1" /><path clip-path="url(#clip680)" d="M130.381 267.285 L134.655 267.285 L134.655 272.43 L130.381 272.43 L130.381 267.285 Z" fill="#000000" fill-rule="nonzero" fill-opacity="1" /><path clip-path="url(#clip680)" d="M143.607 242.19 L159.669 242.19 L159.669 245.633 L147.355 245.633 L147.355 253.046 Q148.246 252.742 149.137 252.6 Q150.028 252.438 150.919 252.438 Q155.983 252.438 158.94 255.213 Q161.897 257.988 161.897 262.728 Q161.897 267.609 158.859 270.323 Q155.821 273.017 150.291 273.017 Q148.388 273.017 146.403 272.693 Q144.438 272.369 142.331 271.721 L142.331 267.609 Q144.154 268.601 146.099 269.088 Q148.043 269.574 150.21 269.574 Q153.714 269.574 155.76 267.73 Q157.806 265.887 157.806 262.728 Q157.806 259.568 155.76 257.725 Q153.714 255.882 150.21 255.882 Q148.57 255.882 146.929 256.246 Q145.309 256.611 143.607 257.38 L143.607 242.19 Z" fill="#000000" fill-rule="nonzero" fill-opacity="1" /><path clip-path="url(#clip680)" d="M168.926 242.19 L188.37 242.19 L188.37 243.931 L177.392 272.43 L173.118 272.43 L183.448 245.633 L168.926 245.633 L168.926 242.19 Z" fill="#000000" fill-rule="nonzero" fill-opacity="1" /><path clip-path="url(#clip680)" d="M196.391 242.19 L212.453 242.19 L212.453 245.633 L200.138 245.633 L200.138 253.046 Q201.029 252.742 201.92 252.6 Q202.811 252.438 203.703 252.438 Q208.766 252.438 211.723 255.213 Q214.681 257.988 214.681 262.728 Q214.681 267.609 211.642 270.323 Q208.604 273.017 203.075 273.017 Q201.171 273.017 199.186 272.693 Q197.221 272.369 195.115 271.721 L195.115 267.609 Q196.938 268.601 198.882 269.088 Q200.826 269.574 202.994 269.574 Q206.498 269.574 208.543 267.73 Q210.589 265.887 210.589 262.728 Q210.589 259.568 208.543 257.725 Q206.498 255.882 202.994 255.882 Q201.353 255.882 199.712 256.246 Q198.092 256.611 196.391 257.38 L196.391 242.19 Z" fill="#000000" fill-rule="nonzero" fill-opacity="1" /><path clip-path="url(#clip680)" d="M233.983 245.754 L223.653 261.897 L233.983 261.897 L233.983 245.754 M232.91 242.19 L238.054 242.19 L238.054 261.897 L242.369 261.897 L242.369 265.3 L238.054 265.3 L238.054 272.43 L233.983 272.43 L233.983 265.3 L220.332 265.3 L220.332 261.35 L232.91 242.19 Z" fill="#000000" fill-rule="nonzero" fill-opacity="1" /><path clip-path="url(#clip680)" d="M113.955 241.933 Q110.795 241.933 109.195 245.052 Q107.615 248.151 107.615 254.39 Q107.615 260.608 109.195 263.727 Q110.795 266.826 113.955 266.826 Q117.135 266.826 118.715 263.727 Q120.315 260.608 120.315 254.39 Q120.315 248.151 118.715 245.052 Q117.135 241.933 113.955 241.933 M113.955 238.692 Q119.039 238.692 121.712 242.723 Q124.406 246.733 124.406 254.39 Q124.406 262.026 121.712 266.056 Q119.039 270.067 113.955 270.067 Q108.871 270.067 106.177 266.056 Q103.504 262.026 103.504 254.39 Q103.504 246.733 106.177 242.723 Q108.871 238.692 113.955 238.692 Z" fill="#000000" fill-rule="nonzero" fill-opacity="1" /><path clip-path="url(#clip680)" d="M131.597 264.335 L135.87 264.335 L135.87 269.479 L131.597 269.479 L131.597 264.335 Z" fill="#000000" fill-rule="nonzero" fill-opacity="1" /><path clip-path="url(#clip680)" d="M144.823 239.239 L160.885 239.239 L160.885 242.683 L148.57 242.683 L148.57 250.096 Q149.461 249.792 150.352 249.65 Q151.243 249.488 152.135 249.488 Q157.198 249.488 160.155 252.263 Q163.113 255.038 163.113 259.777 Q163.113 264.659 160.074 267.373 Q157.036 270.067 151.507 270.067 Q149.603 270.067 147.618 269.743 Q145.653 269.419 143.547 268.77 L143.547 264.659 Q145.37 265.651 147.314 266.137 Q149.258 266.623 151.426 266.623 Q154.93 266.623 156.975 264.78 Q159.021 262.937 159.021 259.777 Q159.021 256.618 156.975 254.775 Q154.93 252.931 151.426 252.931 Q149.785 252.931 148.144 253.296 Q146.524 253.661 144.823 254.43 L144.823 239.239 Z" fill="#000000" fill-rule="nonzero" fill-opacity="1" /><path clip-path="url(#clip680)" d="M170.141 239.239 L189.585 239.239 L189.585 240.981 L178.607 269.479 L174.334 269.479 L184.663 242.683 L170.141 242.683 L170.141 239.239 Z" fill="#000000" fill-rule="nonzero" fill-opacity="1" /><path clip-path="url(#clip680)" d="M197.687 268.851 L197.687 265.125 Q199.226 265.854 200.806 266.239 Q202.386 266.623 203.905 266.623 Q207.956 266.623 210.083 263.909 Q212.23 261.175 212.534 255.625 Q211.359 257.367 209.556 258.299 Q207.754 259.23 205.566 259.23 Q201.029 259.23 198.376 256.496 Q195.743 253.742 195.743 248.982 Q195.743 244.323 198.497 241.508 Q201.252 238.692 205.829 238.692 Q211.075 238.692 213.83 242.723 Q216.605 246.733 216.605 254.39 Q216.605 261.54 213.202 265.813 Q209.819 270.067 204.087 270.067 Q202.548 270.067 200.968 269.763 Q199.388 269.459 197.687 268.851 M205.829 256.03 Q208.584 256.03 210.184 254.147 Q211.804 252.263 211.804 248.982 Q211.804 245.721 210.184 243.837 Q208.584 241.933 205.829 241.933 Q203.075 241.933 201.454 243.837 Q199.854 245.721 199.854 248.982 Q199.854 252.263 201.454 254.147 Q203.075 256.03 205.829 256.03 Z" fill="#000000" fill-rule="nonzero" fill-opacity="1" /><path clip-path="url(#clip680)" d="M222.924 239.239 L242.369 239.239 L242.369 240.981 L231.391 269.479 L227.117 269.479 L237.447 242.683 L222.924 242.683 L222.924 239.239 Z" fill="#000000" fill-rule="nonzero" fill-opacity="1" /><path clip-path="url(#clip680)" d="M113.023 193.749 Q109.863 193.749 108.263 196.868 Q106.683 199.967 106.683 206.206 Q106.683 212.424 108.263 215.543 Q109.863 218.642 113.023 218.642 Q116.203 218.642 117.783 215.543 Q119.383 212.424 119.383 206.206 Q119.383 199.967 117.783 196.868 Q116.203 193.749 113.023 193.749 M113.023 190.508 Q118.107 190.508 120.781 194.539 Q123.474 198.549 123.474 206.206 Q123.474 213.841 120.781 217.872 Q118.107 221.883 113.023 221.883 Q107.939 221.883 105.245 217.872 Q102.572 213.841 102.572 206.206 Q102.572 198.549 105.245 194.539 Q107.939 190.508 113.023 190.508 Z" fill="#000000" fill-rule="nonzero" fill-opacity="1" /><path clip-path="url(#clip680)" d="M130.665 216.15 L134.939 216.15 L134.939 221.295 L130.665 221.295 L130.665 216.15 Z" fill="#000000" fill-rule="nonzero" fill-opacity="1" /><path clip-path="url(#clip680)" d="M153.107 204.545 Q150.352 204.545 148.732 206.428 Q147.132 208.312 147.132 211.593 Q147.132 214.854 148.732 216.758 Q150.352 218.642 153.107 218.642 Q155.861 218.642 157.462 216.758 Q159.082 214.854 159.082 211.593 Q159.082 208.312 157.462 206.428 Q155.861 204.545 153.107 204.545 M161.229 191.724 L161.229 195.45 Q159.69 194.721 158.11 194.336 Q156.55 193.952 155.011 193.952 Q150.96 193.952 148.813 196.686 Q146.686 199.42 146.382 204.95 Q147.577 203.188 149.38 202.256 Q151.183 201.304 153.35 201.304 Q157.907 201.304 160.54 204.079 Q163.194 206.833 163.194 211.593 Q163.194 216.252 160.439 219.067 Q157.684 221.883 153.107 221.883 Q147.861 221.883 145.086 217.872 Q142.311 213.841 142.311 206.206 Q142.311 199.035 145.714 194.782 Q149.117 190.508 154.849 190.508 Q156.388 190.508 157.948 190.812 Q159.528 191.116 161.229 191.724 Z" fill="#000000" fill-rule="nonzero" fill-opacity="1" /><path clip-path="url(#clip680)" d="M170.283 191.055 L186.344 191.055 L186.344 194.498 L174.03 194.498 L174.03 201.912 Q174.921 201.608 175.812 201.466 Q176.703 201.304 177.595 201.304 Q182.658 201.304 185.615 204.079 Q188.572 206.854 188.572 211.593 Q188.572 216.475 185.534 219.189 Q182.496 221.883 176.967 221.883 Q175.063 221.883 173.078 221.558 Q171.113 221.234 169.007 220.586 L169.007 216.475 Q170.83 217.467 172.774 217.953 Q174.718 218.439 176.886 218.439 Q180.39 218.439 182.435 216.596 Q184.481 214.753 184.481 211.593 Q184.481 208.434 182.435 206.59 Q180.39 204.747 176.886 204.747 Q175.245 204.747 173.604 205.112 Q171.984 205.476 170.283 206.246 L170.283 191.055 Z" fill="#000000" fill-rule="nonzero" fill-opacity="1" /><path clip-path="url(#clip680)" d="M209.03 204.99 Q211.966 205.618 213.607 207.603 Q215.268 209.588 215.268 212.505 Q215.268 216.981 212.189 219.432 Q209.111 221.883 203.439 221.883 Q201.535 221.883 199.51 221.498 Q197.505 221.133 195.358 220.384 L195.358 216.434 Q197.059 217.427 199.085 217.933 Q201.11 218.439 203.318 218.439 Q207.166 218.439 209.171 216.92 Q211.197 215.401 211.197 212.505 Q211.197 209.831 209.313 208.332 Q207.45 206.813 204.108 206.813 L200.583 206.813 L200.583 203.451 L204.27 203.451 Q207.288 203.451 208.888 202.256 Q210.488 201.041 210.488 198.772 Q210.488 196.443 208.827 195.207 Q207.186 193.952 204.108 193.952 Q202.427 193.952 200.502 194.316 Q198.578 194.681 196.269 195.45 L196.269 191.805 Q198.598 191.156 200.624 190.832 Q202.67 190.508 204.472 190.508 Q209.131 190.508 211.845 192.635 Q214.559 194.741 214.559 198.347 Q214.559 200.858 213.121 202.6 Q211.683 204.322 209.03 204.99 Z" fill="#000000" fill-rule="nonzero" fill-opacity="1" /><path clip-path="url(#clip680)" d="M232.282 204.545 Q229.527 204.545 227.907 206.428 Q226.307 208.312 226.307 211.593 Q226.307 214.854 227.907 216.758 Q229.527 218.642 232.282 218.642 Q235.036 218.642 236.636 216.758 Q238.257 214.854 238.257 211.593 Q238.257 208.312 236.636 206.428 Q235.036 204.545 232.282 204.545 M240.404 191.724 L240.404 195.45 Q238.864 194.721 237.285 194.336 Q235.725 193.952 234.186 193.952 Q230.135 193.952 227.988 196.686 Q225.861 199.42 225.557 204.95 Q226.752 203.188 228.555 202.256 Q230.358 201.304 232.525 201.304 Q237.082 201.304 239.715 204.079 Q242.369 206.833 242.369 211.593 Q242.369 216.252 239.614 219.067 Q236.859 221.883 232.282 221.883 Q227.036 221.883 224.261 217.872 Q221.486 213.841 221.486 206.206 Q221.486 199.035 224.889 194.782 Q228.292 190.508 234.024 190.508 Q235.563 190.508 237.123 190.812 Q238.702 191.116 240.404 191.724 Z" fill="#000000" fill-rule="nonzero" fill-opacity="1" /><path clip-path="url(#clip680)" d="M114.036 165.928 Q110.876 165.928 109.276 169.047 Q107.696 172.146 107.696 178.384 Q107.696 184.603 109.276 187.722 Q110.876 190.821 114.036 190.821 Q117.216 190.821 118.796 187.722 Q120.396 184.603 120.396 178.384 Q120.396 172.146 118.796 169.047 Q117.216 165.928 114.036 165.928 M114.036 162.687 Q119.12 162.687 121.793 166.718 Q124.487 170.728 124.487 178.384 Q124.487 186.02 121.793 190.051 Q119.12 194.061 114.036 194.061 Q108.952 194.061 106.258 190.051 Q103.585 186.02 103.585 178.384 Q103.585 170.728 106.258 166.718 Q108.952 162.687 114.036 162.687 Z" fill="#000000" fill-rule="nonzero" fill-opacity="1" /><path clip-path="url(#clip680)" d="M131.678 188.329 L135.951 188.329 L135.951 193.474 L131.678 193.474 L131.678 188.329 Z" fill="#000000" fill-rule="nonzero" fill-opacity="1" /><path clip-path="url(#clip680)" d="M143.83 163.234 L163.275 163.234 L163.275 164.976 L152.297 193.474 L148.023 193.474 L158.353 166.677 L143.83 166.677 L143.83 163.234 Z" fill="#000000" fill-rule="nonzero" fill-opacity="1" /><path clip-path="url(#clip680)" d="M180.005 165.928 Q176.845 165.928 175.245 169.047 Q173.665 172.146 173.665 178.384 Q173.665 184.603 175.245 187.722 Q176.845 190.821 180.005 190.821 Q183.185 190.821 184.765 187.722 Q186.365 184.603 186.365 178.384 Q186.365 172.146 184.765 169.047 Q183.185 165.928 180.005 165.928 M180.005 162.687 Q185.089 162.687 187.762 166.718 Q190.456 170.728 190.456 178.384 Q190.456 186.02 187.762 190.051 Q185.089 194.061 180.005 194.061 Q174.921 194.061 172.227 190.051 Q169.553 186.02 169.553 178.384 Q169.553 170.728 172.227 166.718 Q174.921 162.687 180.005 162.687 Z" fill="#000000" fill-rule="nonzero" fill-opacity="1" /><path clip-path="url(#clip680)" d="M206.396 165.928 Q203.237 165.928 201.637 169.047 Q200.057 172.146 200.057 178.384 Q200.057 184.603 201.637 187.722 Q203.237 190.821 206.396 190.821 Q209.576 190.821 211.156 187.722 Q212.756 184.603 212.756 178.384 Q212.756 172.146 211.156 169.047 Q209.576 165.928 206.396 165.928 M206.396 162.687 Q211.48 162.687 214.154 166.718 Q216.848 170.728 216.848 178.384 Q216.848 186.02 214.154 190.051 Q211.48 194.061 206.396 194.061 Q201.313 194.061 198.619 190.051 Q195.945 186.02 195.945 178.384 Q195.945 170.728 198.619 166.718 Q201.313 162.687 206.396 162.687 Z" fill="#000000" fill-rule="nonzero" fill-opacity="1" /><path clip-path="url(#clip680)" d="M224.079 163.234 L240.141 163.234 L240.141 166.677 L227.826 166.677 L227.826 174.09 Q228.717 173.787 229.608 173.645 Q230.499 173.483 231.391 173.483 Q236.454 173.483 239.411 176.258 Q242.369 179.033 242.369 183.772 Q242.369 188.653 239.33 191.368 Q236.292 194.061 230.763 194.061 Q228.859 194.061 226.874 193.737 Q224.909 193.413 222.803 192.765 L222.803 188.653 Q224.626 189.646 226.57 190.132 Q228.514 190.618 230.682 190.618 Q234.186 190.618 236.231 188.775 Q238.277 186.932 238.277 183.772 Q238.277 180.612 236.231 178.769 Q234.186 176.926 230.682 176.926 Q229.041 176.926 227.4 177.291 Q225.78 177.655 224.079 178.425 L224.079 163.234 Z" fill="#000000" fill-rule="nonzero" fill-opacity="1" /><path clip-path="url(#clip680)" d="M-26.3558 917.237 Q-25.6556 915.168 -23.3639 913.226 Q-21.0723 911.253 -17.0619 909.28 L-4.07584 902.755 L-4.07584 909.661 L-16.2662 915.741 Q-21.0405 918.096 -22.6 920.324 Q-24.1596 922.52 -24.1596 926.34 L-24.1596 933.342 L-4.07584 933.342 L-4.07584 939.771 L-51.5958 939.771 L-51.5958 925.257 Q-51.5958 917.109 -48.1902 913.099 Q-44.7845 909.089 -37.9096 909.089 Q-33.4218 909.089 -30.4617 911.189 Q-27.5016 913.258 -26.3558 917.237 M-46.3123 933.342 L-29.4432 933.342 L-29.4432 925.257 Q-29.4432 920.61 -31.5757 918.255 Q-33.74 915.868 -37.9096 915.868 Q-42.0791 915.868 -44.1798 918.255 Q-46.3123 920.61 -46.3123 925.257 L-46.3123 933.342 Z" fill="#000000" fill-rule="nonzero" fill-opacity="1" /><path clip-path="url(#clip680)" d="M-23.3639 867.17 L-20.4994 867.17 L-20.4994 894.097 Q-14.4519 893.715 -11.2691 890.469 Q-8.11807 887.191 -8.11807 881.366 Q-8.11807 877.992 -8.94561 874.841 Q-9.77315 871.658 -11.4282 868.539 L-5.89007 868.539 Q-4.55327 871.69 -3.85304 875 Q-3.15282 878.31 -3.15282 881.716 Q-3.15282 890.246 -8.11807 895.243 Q-13.0833 900.208 -21.5497 900.208 Q-30.3026 900.208 -35.4269 895.498 Q-40.5832 890.755 -40.5832 882.735 Q-40.5832 875.541 -35.9362 871.372 Q-31.3211 867.17 -23.3639 867.17 M-25.0827 873.027 Q-29.8888 873.09 -32.7534 875.732 Q-35.6179 878.342 -35.6179 882.671 Q-35.6179 887.572 -32.8488 890.532 Q-30.0798 893.461 -25.0508 893.906 L-25.0827 873.027 Z" fill="#000000" fill-rule="nonzero" fill-opacity="1" /><path clip-path="url(#clip680)" d="M-21.9953 841.357 Q-21.9953 848.455 -20.3721 851.192 Q-18.7488 853.93 -14.8339 853.93 Q-11.7147 853.93 -9.86864 851.893 Q-8.05441 849.824 -8.05441 846.291 Q-8.05441 841.421 -11.4919 838.493 Q-14.9612 835.533 -20.6903 835.533 L-21.9953 835.533 L-21.9953 841.357 M-24.4143 829.676 L-4.07584 829.676 L-4.07584 835.533 L-9.48669 835.533 Q-6.24018 837.538 -4.68058 840.53 Q-3.15282 843.522 -3.15282 847.85 Q-3.15282 853.325 -6.20835 856.571 Q-9.29572 859.786 -14.4519 859.786 Q-20.4675 859.786 -23.5231 855.776 Q-26.5786 851.734 -26.5786 843.745 L-26.5786 835.533 L-27.1515 835.533 Q-31.1938 835.533 -33.3899 838.206 Q-35.6179 840.848 -35.6179 845.654 Q-35.6179 848.71 -34.8859 851.606 Q-34.1538 854.503 -32.6897 857.176 L-38.1005 857.176 Q-39.3419 853.962 -39.9466 850.938 Q-40.5832 847.914 -40.5832 845.05 Q-40.5832 837.315 -36.5728 833.496 Q-32.5624 829.676 -24.4143 829.676 Z" fill="#000000" fill-rule="nonzero" fill-opacity="1" /><path clip-path="url(#clip680)" d="M-53.601 817.613 L-53.601 811.757 L-4.07584 811.757 L-4.07584 817.613 L-53.601 817.613 Z" fill="#000000" fill-rule="nonzero" fill-opacity="1" /><path clip-path="url(#clip680)" d="M-39.7238 799.503 L-39.7238 793.646 L-4.07584 793.646 L-4.07584 799.503 L-39.7238 799.503 M-53.601 799.503 L-53.601 793.646 L-46.185 793.646 L-46.185 799.503 L-53.601 799.503 Z" fill="#000000" fill-rule="nonzero" fill-opacity="1" /><path clip-path="url(#clip680)" d="M-39.7238 783.939 L-39.7238 756.121 L-34.3766 756.121 L-8.75464 778.146 L-8.75464 756.121 L-4.07584 756.121 L-4.07584 784.734 L-9.42304 784.734 L-35.045 762.709 L-35.045 783.939 L-39.7238 783.939 Z" fill="#000000" fill-rule="nonzero" fill-opacity="1" /><path clip-path="url(#clip680)" d="M-23.3639 716.685 L-20.4994 716.685 L-20.4994 743.612 Q-14.4519 743.23 -11.2691 739.984 Q-8.11807 736.705 -8.11807 730.881 Q-8.11807 727.507 -8.94561 724.356 Q-9.77315 721.173 -11.4282 718.054 L-5.89007 718.054 Q-4.55327 721.205 -3.85304 724.515 Q-3.15282 727.825 -3.15282 731.231 Q-3.15282 739.761 -8.11807 744.758 Q-13.0833 749.723 -21.5497 749.723 Q-30.3026 749.723 -35.4269 745.012 Q-40.5832 740.27 -40.5832 732.249 Q-40.5832 725.056 -35.9362 720.886 Q-31.3211 716.685 -23.3639 716.685 M-25.0827 722.541 Q-29.8888 722.605 -32.7534 725.247 Q-35.6179 727.857 -35.6179 732.186 Q-35.6179 737.087 -32.8488 740.047 Q-30.0798 742.975 -25.0508 743.421 L-25.0827 722.541 Z" fill="#000000" fill-rule="nonzero" fill-opacity="1" /><path clip-path="url(#clip680)" d="M-34.3129 683.615 L-53.601 683.615 L-53.601 677.759 L-4.07584 677.759 L-4.07584 683.615 L-9.42304 683.615 Q-6.24018 685.461 -4.68058 688.294 Q-3.15282 691.095 -3.15282 695.042 Q-3.15282 701.503 -8.30904 705.577 Q-13.4653 709.619 -21.868 709.619 Q-30.2707 709.619 -35.4269 705.577 Q-40.5832 701.503 -40.5832 695.042 Q-40.5832 691.095 -39.0236 688.294 Q-37.4958 685.461 -34.3129 683.615 M-21.868 703.572 Q-15.4068 703.572 -11.7147 700.93 Q-8.05441 698.256 -8.05441 693.609 Q-8.05441 688.962 -11.7147 686.289 Q-15.4068 683.615 -21.868 683.615 Q-28.3292 683.615 -31.9895 686.289 Q-35.6816 688.962 -35.6816 693.609 Q-35.6816 698.256 -31.9895 700.93 Q-28.3292 703.572 -21.868 703.572 Z" fill="#000000" fill-rule="nonzero" fill-opacity="1" /><path clip-path="url(#clip680)" d="M-4.07584 632.467 L-51.5958 650.609 L-51.5958 643.893 L-11.5874 628.838 L-51.5958 613.752 L-51.5958 607.068 L-4.07584 625.178 L-4.07584 632.467 Z" fill="#000000" fill-rule="nonzero" fill-opacity="1" /><path clip-path="url(#clip680)" d="M-35.6179 591.631 Q-35.6179 596.341 -31.9258 599.079 Q-28.2655 601.816 -21.868 601.816 Q-15.4705 601.816 -11.7783 599.11 Q-8.11807 596.373 -8.11807 591.631 Q-8.11807 586.952 -11.8102 584.215 Q-15.5023 581.477 -21.868 581.477 Q-28.2019 581.477 -31.894 584.215 Q-35.6179 586.952 -35.6179 591.631 M-40.5832 591.631 Q-40.5832 583.992 -35.6179 579.631 Q-30.6527 575.271 -21.868 575.271 Q-13.1151 575.271 -8.11807 579.631 Q-3.15282 583.992 -3.15282 591.631 Q-3.15282 599.301 -8.11807 603.662 Q-13.1151 607.991 -21.868 607.991 Q-30.6527 607.991 -35.6179 603.662 Q-40.5832 599.301 -40.5832 591.631 Z" fill="#000000" fill-rule="nonzero" fill-opacity="1" /><path clip-path="url(#clip680)" d="M-53.601 565.563 L-53.601 559.707 L-4.07584 559.707 L-4.07584 565.563 L-53.601 565.563 Z" fill="#000000" fill-rule="nonzero" fill-opacity="1" /><path clip-path="url(#clip680)" d="M-21.9953 531.252 Q-21.9953 538.35 -20.3721 541.087 Q-18.7488 543.824 -14.8339 543.824 Q-11.7147 543.824 -9.86864 541.787 Q-8.05441 539.718 -8.05441 536.185 Q-8.05441 531.316 -11.4919 528.387 Q-14.9612 525.427 -20.6903 525.427 L-21.9953 525.427 L-21.9953 531.252 M-24.4143 519.571 L-4.07584 519.571 L-4.07584 525.427 L-9.48669 525.427 Q-6.24018 527.433 -4.68058 530.424 Q-3.15282 533.416 -3.15282 537.745 Q-3.15282 543.22 -6.20835 546.466 Q-9.29572 549.681 -14.4519 549.681 Q-20.4675 549.681 -23.5231 545.67 Q-26.5786 541.628 -26.5786 533.639 L-26.5786 525.427 L-27.1515 525.427 Q-31.1938 525.427 -33.3899 528.101 Q-35.6179 530.743 -35.6179 535.549 Q-35.6179 538.604 -34.8859 541.501 Q-34.1538 544.397 -32.6897 547.071 L-38.1005 547.071 Q-39.3419 543.856 -39.9466 540.832 Q-40.5832 537.809 -40.5832 534.944 Q-40.5832 527.21 -36.5728 523.39 Q-32.5624 519.571 -24.4143 519.571 Z" fill="#000000" fill-rule="nonzero" fill-opacity="1" /><path clip-path="url(#clip680)" d="M-49.8453 501.715 L-39.7238 501.715 L-39.7238 489.652 L-35.1723 489.652 L-35.1723 501.715 L-15.8206 501.715 Q-11.4601 501.715 -10.2187 500.537 Q-8.97744 499.328 -8.97744 495.668 L-8.97744 489.652 L-4.07584 489.652 L-4.07584 495.668 Q-4.07584 502.447 -6.5903 505.025 Q-9.13658 507.603 -15.8206 507.603 L-35.1723 507.603 L-35.1723 511.9 L-39.7238 511.9 L-39.7238 507.603 L-49.8453 507.603 L-49.8453 501.715 Z" fill="#000000" fill-rule="nonzero" fill-opacity="1" /><path clip-path="url(#clip680)" d="M-39.7238 481.95 L-39.7238 476.093 L-4.07584 476.093 L-4.07584 481.95 L-39.7238 481.95 M-53.601 481.95 L-53.601 476.093 L-46.185 476.093 L-46.185 481.95 L-53.601 481.95 Z" fill="#000000" fill-rule="nonzero" fill-opacity="1" /><path clip-path="url(#clip680)" d="M-53.601 463.839 L-53.601 457.983 L-4.07584 457.983 L-4.07584 463.839 L-53.601 463.839 Z" fill="#000000" fill-rule="nonzero" fill-opacity="1" /><path clip-path="url(#clip680)" d="M-39.7238 445.729 L-39.7238 439.872 L-4.07584 439.872 L-4.07584 445.729 L-39.7238 445.729 M-53.601 445.729 L-53.601 439.872 L-46.185 439.872 L-46.185 445.729 L-53.601 445.729 Z" fill="#000000" fill-rule="nonzero" fill-opacity="1" /><path clip-path="url(#clip680)" d="M-49.8453 421.826 L-39.7238 421.826 L-39.7238 409.763 L-35.1723 409.763 L-35.1723 421.826 L-15.8206 421.826 Q-11.4601 421.826 -10.2187 420.648 Q-8.97744 419.438 -8.97744 415.778 L-8.97744 409.763 L-4.07584 409.763 L-4.07584 415.778 Q-4.07584 422.558 -6.5903 425.136 Q-9.13658 427.714 -15.8206 427.714 L-35.1723 427.714 L-35.1723 432.011 L-39.7238 432.011 L-39.7238 427.714 L-49.8453 427.714 L-49.8453 421.826 Z" fill="#000000" fill-rule="nonzero" fill-opacity="1" /><path clip-path="url(#clip680)" d="M-0.765675 387.228 Q5.60003 389.711 7.54157 392.066 Q9.48311 394.421 9.48311 398.368 L9.48311 403.047 L4.58152 403.047 L4.58152 399.609 Q4.58152 397.19 3.43569 395.853 Q2.28986 394.517 -1.97516 392.893 L-4.64876 391.843 L-39.7238 406.261 L-39.7238 400.055 L-11.842 388.915 L-39.7238 377.775 L-39.7238 371.568 L-0.765675 387.228 Z" fill="#000000" fill-rule="nonzero" fill-opacity="1" /><path clip-path="url(#clip680)" d="M-35.6179 328.95 Q-35.6179 333.66 -31.9258 336.398 Q-28.2655 339.135 -21.868 339.135 Q-15.4705 339.135 -11.7783 336.43 Q-8.11807 333.692 -8.11807 328.95 Q-8.11807 324.271 -11.8102 321.534 Q-15.5023 318.797 -21.868 318.797 Q-28.2019 318.797 -31.894 321.534 Q-35.6179 324.271 -35.6179 328.95 M-40.5832 328.95 Q-40.5832 321.311 -35.6179 316.951 Q-30.6527 312.59 -21.868 312.59 Q-13.1151 312.59 -8.11807 316.951 Q-3.15282 321.311 -3.15282 328.95 Q-3.15282 336.621 -8.11807 340.981 Q-13.1151 345.31 -21.868 345.31 Q-30.6527 345.31 -35.6179 340.981 Q-40.5832 336.621 -40.5832 328.95 Z" fill="#000000" fill-rule="nonzero" fill-opacity="1" /><path clip-path="url(#clip680)" d="M-53.601 284.836 L-48.7313 284.836 L-48.7313 290.437 Q-48.7313 293.588 -47.4581 294.83 Q-46.185 296.039 -42.8748 296.039 L-39.7238 296.039 L-39.7238 286.395 L-35.1723 286.395 L-35.1723 296.039 L-4.07584 296.039 L-4.07584 301.927 L-35.1723 301.927 L-35.1723 307.529 L-39.7238 307.529 L-39.7238 301.927 L-42.2064 301.927 Q-48.1584 301.927 -50.8638 299.158 Q-53.601 296.389 -53.601 290.374 L-53.601 284.836 Z" fill="#000000" fill-rule="nonzero" fill-opacity="1" /><path clip-path="url(#clip680)" d="M-51.5958 265.484 L-51.5958 258.577 L-32.0531 245.4 L-51.5958 232.318 L-51.5958 225.412 L-26.7059 242.217 L-4.07584 242.217 L-4.07584 248.678 L-26.7059 248.678 L-51.5958 265.484 Z" fill="#000000" fill-rule="nonzero" fill-opacity="1" /><path clip-path="url(#clip680)" d="M1839.49 14.0809 L1839.49 22.0612 Q1834.83 19.8332 1830.7 18.7395 Q1826.57 17.6457 1822.72 17.6457 Q1816.04 17.6457 1812.39 20.2383 Q1808.79 22.8309 1808.79 27.611 Q1808.79 31.6214 1811.18 33.6873 Q1813.61 35.7128 1820.33 36.9686 L1825.27 37.9813 Q1834.43 39.7232 1838.76 44.1387 Q1843.14 48.5136 1843.14 55.8863 Q1843.14 64.6767 1837.22 69.2137 Q1831.35 73.7508 1819.97 73.7508 Q1815.67 73.7508 1810.81 72.7785 Q1805.99 71.8063 1800.81 69.9024 L1800.81 61.4765 Q1805.79 64.2716 1810.57 65.6895 Q1815.35 67.1073 1819.97 67.1073 Q1826.97 67.1073 1830.78 64.3527 Q1834.59 61.598 1834.59 56.4939 Q1834.59 52.0379 1831.84 49.5264 Q1829.12 47.0148 1822.88 45.759 L1817.9 44.7868 Q1808.74 42.9639 1804.65 39.075 Q1800.56 35.1862 1800.56 28.2591 Q1800.56 20.2383 1806.19 15.6203 Q1811.86 11.0023 1821.79 11.0023 Q1826.04 11.0023 1830.46 11.7719 Q1834.87 12.5416 1839.49 14.0809 Z" fill="#000000" fill-rule="nonzero" fill-opacity="1" /><path clip-path="url(#clip680)" d="M1862.95 14.324 L1862.95 27.2059 L1878.3 27.2059 L1878.3 32.9987 L1862.95 32.9987 L1862.95 57.6282 Q1862.95 63.1779 1864.44 64.7578 Q1865.98 66.3376 1870.64 66.3376 L1878.3 66.3376 L1878.3 72.576 L1870.64 72.576 Q1862.01 72.576 1858.73 69.3758 Q1855.45 66.1351 1855.45 57.6282 L1855.45 32.9987 L1849.98 32.9987 L1849.98 27.2059 L1855.45 27.2059 L1855.45 14.324 L1862.95 14.324 Z" fill="#000000" fill-rule="nonzero" fill-opacity="1" /><path clip-path="url(#clip680)" d="M1908.72 49.7694 Q1899.69 49.7694 1896.2 51.8354 Q1892.72 53.9013 1892.72 58.8839 Q1892.72 62.8538 1895.31 65.2034 Q1897.95 67.5124 1902.44 67.5124 Q1908.64 67.5124 1912.37 63.1374 Q1916.13 58.7219 1916.13 51.4303 L1916.13 49.7694 L1908.72 49.7694 M1923.59 46.6907 L1923.59 72.576 L1916.13 72.576 L1916.13 65.6895 Q1913.58 69.8214 1909.77 71.8063 Q1905.97 73.7508 1900.46 73.7508 Q1893.49 73.7508 1889.36 69.8619 Q1885.27 65.9325 1885.27 59.3701 Q1885.27 51.7138 1890.37 47.825 Q1895.52 43.9361 1905.68 43.9361 L1916.13 43.9361 L1916.13 43.2069 Q1916.13 38.0623 1912.73 35.2672 Q1909.37 32.4315 1903.25 32.4315 Q1899.36 32.4315 1895.68 33.3632 Q1891.99 34.295 1888.59 36.1584 L1888.59 29.2718 Q1892.68 27.692 1896.53 26.9223 Q1900.38 26.1121 1904.02 26.1121 Q1913.87 26.1121 1918.73 31.2163 Q1923.59 36.3204 1923.59 46.6907 Z" fill="#000000" fill-rule="nonzero" fill-opacity="1" /><path clip-path="url(#clip680)" d="M1976.65 45.1919 L1976.65 72.576 L1969.2 72.576 L1969.2 45.4349 Q1969.2 38.994 1966.69 35.7938 Q1964.18 32.5936 1959.16 32.5936 Q1953.12 32.5936 1949.64 36.4419 Q1946.15 40.2903 1946.15 46.9338 L1946.15 72.576 L1938.66 72.576 L1938.66 27.2059 L1946.15 27.2059 L1946.15 34.2544 Q1948.83 30.163 1952.43 28.1376 Q1956.08 26.1121 1960.82 26.1121 Q1968.63 26.1121 1972.64 30.9732 Q1976.65 35.7938 1976.65 45.1919 Z" fill="#000000" fill-rule="nonzero" fill-opacity="1" /><path clip-path="url(#clip680)" d="M2021.38 34.0924 L2021.38 9.54393 L2028.83 9.54393 L2028.83 72.576 L2021.38 72.576 L2021.38 65.7705 Q2019.03 69.8214 2015.42 71.8063 Q2011.86 73.7508 2006.83 73.7508 Q1998.61 73.7508 1993.43 67.1883 Q1988.28 60.6258 1988.28 49.9314 Q1988.28 39.2371 1993.43 32.6746 Q1998.61 26.1121 2006.83 26.1121 Q2011.86 26.1121 2015.42 28.0971 Q2019.03 30.0415 2021.38 34.0924 M1995.98 49.9314 Q1995.98 58.1548 1999.34 62.8538 Q2002.74 67.5124 2008.66 67.5124 Q2014.57 67.5124 2017.97 62.8538 Q2021.38 58.1548 2021.38 49.9314 Q2021.38 41.7081 2017.97 37.0496 Q2014.57 32.3505 2008.66 32.3505 Q2002.74 32.3505 1999.34 37.0496 Q1995.98 41.7081 1995.98 49.9314 Z" fill="#000000" fill-rule="nonzero" fill-opacity="1" /><path clip-path="url(#clip680)" d="M2064.8 49.7694 Q2055.77 49.7694 2052.29 51.8354 Q2048.8 53.9013 2048.8 58.8839 Q2048.8 62.8538 2051.39 65.2034 Q2054.03 67.5124 2058.52 67.5124 Q2064.72 67.5124 2068.45 63.1374 Q2072.22 58.7219 2072.22 51.4303 L2072.22 49.7694 L2064.8 49.7694 M2079.67 46.6907 L2079.67 72.576 L2072.22 72.576 L2072.22 65.6895 Q2069.66 69.8214 2065.86 71.8063 Q2062.05 73.7508 2056.54 73.7508 Q2049.57 73.7508 2045.44 69.8619 Q2041.35 65.9325 2041.35 59.3701 Q2041.35 51.7138 2046.45 47.825 Q2051.6 43.9361 2061.76 43.9361 L2072.22 43.9361 L2072.22 43.2069 Q2072.22 38.0623 2068.81 35.2672 Q2065.45 32.4315 2059.33 32.4315 Q2055.45 32.4315 2051.76 33.3632 Q2048.07 34.295 2044.67 36.1584 L2044.67 29.2718 Q2048.76 27.692 2052.61 26.9223 Q2056.46 26.1121 2060.1 26.1121 Q2069.95 26.1121 2074.81 31.2163 Q2079.67 36.3204 2079.67 46.6907 Z" fill="#000000" fill-rule="nonzero" fill-opacity="1" /><path clip-path="url(#clip680)" d="M2121.31 34.1734 Q2120.06 33.4443 2118.56 33.1202 Q2117.1 32.7556 2115.32 32.7556 Q2109 32.7556 2105.6 36.8875 Q2102.23 40.9789 2102.23 48.6757 L2102.23 72.576 L2094.74 72.576 L2094.74 27.2059 L2102.23 27.2059 L2102.23 34.2544 Q2104.58 30.1225 2108.35 28.1376 Q2112.12 26.1121 2117.5 26.1121 Q2118.27 26.1121 2119.21 26.2337 Q2120.14 26.3147 2121.27 26.5172 L2121.31 34.1734 Z" fill="#000000" fill-rule="nonzero" fill-opacity="1" /><path clip-path="url(#clip680)" d="M2157.53 34.0924 L2157.53 9.54393 L2164.98 9.54393 L2164.98 72.576 L2157.53 72.576 L2157.53 65.7705 Q2155.18 69.8214 2151.57 71.8063 Q2148.01 73.7508 2142.99 73.7508 Q2134.76 73.7508 2129.58 67.1883 Q2124.43 60.6258 2124.43 49.9314 Q2124.43 39.2371 2129.58 32.6746 Q2134.76 26.1121 2142.99 26.1121 Q2148.01 26.1121 2151.57 28.0971 Q2155.18 30.0415 2157.53 34.0924 M2132.13 49.9314 Q2132.13 58.1548 2135.49 62.8538 Q2138.89 67.5124 2144.81 67.5124 Q2150.72 67.5124 2154.13 62.8538 Q2157.53 58.1548 2157.53 49.9314 Q2157.53 41.7081 2154.13 37.0496 Q2150.72 32.3505 2144.81 32.3505 Q2138.89 32.3505 2135.49 37.0496 Q2132.13 41.7081 2132.13 49.9314 Z" fill="#000000" fill-rule="nonzero" fill-opacity="1" /><path clip-path="url(#clip680)" d="M2248.27 63.9476 L2248.27 47.7034 L2234.9 47.7034 L2234.9 40.9789 L2256.37 40.9789 L2256.37 66.9452 Q2251.63 70.3075 2245.92 72.0494 Q2240.21 73.7508 2233.73 73.7508 Q2219.55 73.7508 2211.53 65.4869 Q2203.55 57.1826 2203.55 42.3968 Q2203.55 27.5705 2211.53 19.3066 Q2219.55 11.0023 2233.73 11.0023 Q2239.64 11.0023 2244.95 12.4606 Q2250.29 13.9189 2254.79 16.7545 L2254.79 25.464 Q2250.25 21.6156 2245.15 19.6712 Q2240.04 17.7268 2234.41 17.7268 Q2223.31 17.7268 2217.72 23.9246 Q2212.17 30.1225 2212.17 42.3968 Q2212.17 54.6305 2217.72 60.8284 Q2223.31 67.0263 2234.41 67.0263 Q2238.75 67.0263 2242.15 66.2971 Q2245.55 65.5274 2248.27 63.9476 Z" fill="#000000" fill-rule="nonzero" fill-opacity="1" /><path clip-path="url(#clip680)" d="M2291.61 49.7694 Q2282.58 49.7694 2279.1 51.8354 Q2275.61 53.9013 2275.61 58.8839 Q2275.61 62.8538 2278.2 65.2034 Q2280.84 67.5124 2285.33 67.5124 Q2291.53 67.5124 2295.26 63.1374 Q2299.03 58.7219 2299.03 51.4303 L2299.03 49.7694 L2291.61 49.7694 M2306.48 46.6907 L2306.48 72.576 L2299.03 72.576 L2299.03 65.6895 Q2296.47 69.8214 2292.67 71.8063 Q2288.86 73.7508 2283.35 73.7508 Q2276.38 73.7508 2272.25 69.8619 Q2268.16 65.9325 2268.16 59.3701 Q2268.16 51.7138 2273.26 47.825 Q2278.41 43.9361 2288.57 43.9361 L2299.03 43.9361 L2299.03 43.2069 Q2299.03 38.0623 2295.62 35.2672 Q2292.26 32.4315 2286.14 32.4315 Q2282.26 32.4315 2278.57 33.3632 Q2274.88 34.295 2271.48 36.1584 L2271.48 29.2718 Q2275.57 27.692 2279.42 26.9223 Q2283.27 26.1121 2286.91 26.1121 Q2296.76 26.1121 2301.62 31.2163 Q2306.48 36.3204 2306.48 46.6907 Z" fill="#000000" fill-rule="nonzero" fill-opacity="1" /><path clip-path="url(#clip680)" d="M2321.06 54.671 L2321.06 27.2059 L2328.52 27.2059 L2328.52 54.3874 Q2328.52 60.8284 2331.03 64.0691 Q2333.54 67.2693 2338.56 67.2693 Q2344.6 67.2693 2348.08 63.421 Q2351.61 59.5726 2351.61 52.9291 L2351.61 27.2059 L2359.06 27.2059 L2359.06 72.576 L2351.61 72.576 L2351.61 65.6084 Q2348.89 69.7404 2345.29 71.7658 Q2341.72 73.7508 2336.98 73.7508 Q2329.16 73.7508 2325.11 68.8897 Q2321.06 64.0286 2321.06 54.671 M2339.82 26.1121 L2339.82 26.1121 Z" fill="#000000" fill-rule="nonzero" fill-opacity="1" /><path clip-path="url(#clip680)" d="M2403.34 28.5427 L2403.34 35.5912 Q2400.18 33.9709 2396.77 33.1607 Q2393.37 32.3505 2389.73 32.3505 Q2384.18 32.3505 2381.38 34.0519 Q2378.63 35.7533 2378.63 39.156 Q2378.63 41.7486 2380.61 43.2475 Q2382.6 44.7058 2388.59 46.0426 L2391.14 46.6097 Q2399.08 48.3111 2402.4 51.4303 Q2405.77 54.509 2405.77 60.0587 Q2405.77 66.3781 2400.74 70.0644 Q2395.76 73.7508 2387.01 73.7508 Q2383.37 73.7508 2379.4 73.0216 Q2375.47 72.3329 2371.09 70.9151 L2371.09 63.2184 Q2375.22 65.3654 2379.23 66.4591 Q2383.24 67.5124 2387.17 67.5124 Q2392.44 67.5124 2395.28 65.73 Q2398.11 63.9071 2398.11 60.6258 Q2398.11 57.5877 2396.05 55.9673 Q2394.02 54.3469 2387.09 52.8481 L2384.5 52.2405 Q2377.57 50.7821 2374.49 47.7845 Q2371.42 44.7463 2371.42 39.4801 Q2371.42 33.0797 2375.95 29.5959 Q2380.49 26.1121 2388.83 26.1121 Q2392.97 26.1121 2396.61 26.7198 Q2400.26 27.3274 2403.34 28.5427 Z" fill="#000000" fill-rule="nonzero" fill-opacity="1" /><path clip-path="url(#clip680)" d="M2446.56 28.5427 L2446.56 35.5912 Q2443.4 33.9709 2440 33.1607 Q2436.59 32.3505 2432.95 32.3505 Q2427.4 32.3505 2424.6 34.0519 Q2421.85 35.7533 2421.85 39.156 Q2421.85 41.7486 2423.83 43.2475 Q2425.82 44.7058 2431.81 46.0426 L2434.37 46.6097 Q2442.31 48.3111 2445.63 51.4303 Q2448.99 54.509 2448.99 60.0587 Q2448.99 66.3781 2443.97 70.0644 Q2438.98 73.7508 2430.23 73.7508 Q2426.59 73.7508 2422.62 73.0216 Q2418.69 72.3329 2414.31 70.9151 L2414.31 63.2184 Q2418.45 65.3654 2422.46 66.4591 Q2426.47 67.5124 2430.4 67.5124 Q2435.66 67.5124 2438.5 65.73 Q2441.33 63.9071 2441.33 60.6258 Q2441.33 57.5877 2439.27 55.9673 Q2437.24 54.3469 2430.32 52.8481 L2427.72 52.2405 Q2420.8 50.7821 2417.72 47.7845 Q2414.64 44.7463 2414.64 39.4801 Q2414.64 33.0797 2419.18 29.5959 Q2423.71 26.1121 2432.06 26.1121 Q2436.19 26.1121 2439.84 26.7198 Q2443.48 27.3274 2446.56 28.5427 Z" fill="#000000" fill-rule="nonzero" fill-opacity="1" /><path clip-path="url(#clip680)" d="M2460.86 27.2059 L2468.31 27.2059 L2468.31 72.576 L2460.86 72.576 L2460.86 27.2059 M2460.86 9.54393 L2468.31 9.54393 L2468.31 18.9825 L2460.86 18.9825 L2460.86 9.54393 Z" fill="#000000" fill-rule="nonzero" fill-opacity="1" /><path clip-path="url(#clip680)" d="M2504.53 49.7694 Q2495.49 49.7694 2492.01 51.8354 Q2488.53 53.9013 2488.53 58.8839 Q2488.53 62.8538 2491.12 65.2034 Q2493.75 67.5124 2498.25 67.5124 Q2504.45 67.5124 2508.17 63.1374 Q2511.94 58.7219 2511.94 51.4303 L2511.94 49.7694 L2504.53 49.7694 M2519.4 46.6907 L2519.4 72.576 L2511.94 72.576 L2511.94 65.6895 Q2509.39 69.8214 2505.58 71.8063 Q2501.77 73.7508 2496.26 73.7508 Q2489.3 73.7508 2485.16 69.8619 Q2481.07 65.9325 2481.07 59.3701 Q2481.07 51.7138 2486.18 47.825 Q2491.32 43.9361 2501.49 43.9361 L2511.94 43.9361 L2511.94 43.2069 Q2511.94 38.0623 2508.54 35.2672 Q2505.18 32.4315 2499.06 32.4315 Q2495.17 32.4315 2491.48 33.3632 Q2487.8 34.295 2484.4 36.1584 L2484.4 29.2718 Q2488.49 27.692 2492.34 26.9223 Q2496.18 26.1121 2499.83 26.1121 Q2509.67 26.1121 2514.53 31.2163 Q2519.4 36.3204 2519.4 46.6907 Z" fill="#000000" fill-rule="nonzero" fill-opacity="1" /><path clip-path="url(#clip680)" d="M2572.46 45.1919 L2572.46 72.576 L2565.01 72.576 L2565.01 45.4349 Q2565.01 38.994 2562.5 35.7938 Q2559.99 32.5936 2554.96 32.5936 Q2548.93 32.5936 2545.44 36.4419 Q2541.96 40.2903 2541.96 46.9338 L2541.96 72.576 L2534.46 72.576 L2534.46 27.2059 L2541.96 27.2059 L2541.96 34.2544 Q2544.63 30.163 2548.24 28.1376 Q2551.88 26.1121 2556.62 26.1121 Q2564.44 26.1121 2568.45 30.9732 Q2572.46 35.7938 2572.46 45.1919 Z" fill="#000000" fill-rule="nonzero" fill-opacity="1" /><path clip-path="url(#clip680)" d="M2605.64 12.096 L2656.8 12.096 L2656.8 18.9825 L2635.33 18.9825 L2635.33 72.576 L2627.11 72.576 L2627.11 18.9825 L2605.64 18.9825 L2605.64 12.096 Z" fill="#000000" fill-rule="nonzero" fill-opacity="1" /><path clip-path="url(#clip680)" d="M2671.26 49.7694 Q2662.23 49.7694 2658.75 51.8354 Q2655.26 53.9013 2655.26 58.8839 Q2655.26 62.8538 2657.86 65.2034 Q2660.49 67.5124 2664.98 67.5124 Q2671.18 67.5124 2674.91 63.1374 Q2678.68 58.7219 2678.68 51.4303 L2678.68 49.7694 L2671.26 49.7694 M2686.13 46.6907 L2686.13 72.576 L2678.68 72.576 L2678.68 65.6895 Q2676.12 69.8214 2672.32 71.8063 Q2668.51 73.7508 2663 73.7508 Q2656.03 73.7508 2651.9 69.8619 Q2647.81 65.9325 2647.81 59.3701 Q2647.81 51.7138 2652.91 47.825 Q2658.06 43.9361 2668.23 43.9361 L2678.68 43.9361 L2678.68 43.2069 Q2678.68 38.0623 2675.27 35.2672 Q2671.91 32.4315 2665.79 32.4315 Q2661.91 32.4315 2658.22 33.3632 Q2654.53 34.295 2651.13 36.1584 L2651.13 29.2718 Q2655.22 27.692 2659.07 26.9223 Q2662.92 26.1121 2666.56 26.1121 Q2676.41 26.1121 2681.27 31.2163 Q2686.13 36.3204 2686.13 46.6907 Z" fill="#000000" fill-rule="nonzero" fill-opacity="1" /><path clip-path="url(#clip680)" d="M2727.77 34.1734 Q2726.52 33.4443 2725.02 33.1202 Q2723.56 32.7556 2721.78 32.7556 Q2715.46 32.7556 2712.06 36.8875 Q2708.69 40.9789 2708.69 48.6757 L2708.69 72.576 L2701.2 72.576 L2701.2 27.2059 L2708.69 27.2059 L2708.69 34.2544 Q2711.04 30.1225 2714.81 28.1376 Q2718.58 26.1121 2723.97 26.1121 Q2724.74 26.1121 2725.67 26.2337 Q2726.6 26.3147 2727.73 26.5172 L2727.77 34.1734 Z" fill="#000000" fill-rule="nonzero" fill-opacity="1" /><path clip-path="url(#clip680)" d="M2763.99 49.3643 Q2763.99 41.2625 2760.63 36.8065 Q2757.3 32.3505 2751.27 32.3505 Q2745.27 32.3505 2741.91 36.8065 Q2738.59 41.2625 2738.59 49.3643 Q2738.59 57.4256 2741.91 61.8816 Q2745.27 66.3376 2751.27 66.3376 Q2757.3 66.3376 2760.63 61.8816 Q2763.99 57.4256 2763.99 49.3643 M2771.44 66.9452 Q2771.44 78.5308 2766.3 84.1616 Q2761.15 89.8329 2750.54 89.8329 Q2746.61 89.8329 2743.13 89.2252 Q2739.64 88.6581 2736.36 87.4428 L2736.36 80.1917 Q2739.64 81.9741 2742.84 82.8248 Q2746.04 83.6755 2749.36 83.6755 Q2756.7 83.6755 2760.34 79.8271 Q2763.99 76.0193 2763.99 68.282 L2763.99 64.5957 Q2761.68 68.6061 2758.07 70.5911 Q2754.47 72.576 2749.45 72.576 Q2741.1 72.576 2736 66.2161 Q2730.89 59.8562 2730.89 49.3643 Q2730.89 38.832 2736 32.472 Q2741.1 26.1121 2749.45 26.1121 Q2754.47 26.1121 2758.07 28.0971 Q2761.68 30.082 2763.99 34.0924 L2763.99 27.2059 L2771.44 27.2059 L2771.44 66.9452 Z" fill="#000000" fill-rule="nonzero" fill-opacity="1" /><path clip-path="url(#clip680)" d="M2825.6 48.0275 L2825.6 51.6733 L2791.33 51.6733 Q2791.82 59.3701 2795.95 63.421 Q2800.12 67.4314 2807.54 67.4314 Q2811.83 67.4314 2815.84 66.3781 Q2819.89 65.3249 2823.86 63.2184 L2823.86 70.267 Q2819.85 71.9684 2815.64 72.8596 Q2811.42 73.7508 2807.09 73.7508 Q2796.23 73.7508 2789.87 67.4314 Q2783.55 61.1119 2783.55 50.3365 Q2783.55 39.1965 2789.55 32.6746 Q2795.59 26.1121 2805.79 26.1121 Q2814.95 26.1121 2820.26 32.0264 Q2825.6 37.9003 2825.6 48.0275 M2818.15 45.84 Q2818.07 39.7232 2814.71 36.0774 Q2811.38 32.4315 2805.88 32.4315 Q2799.64 32.4315 2795.87 35.9558 Q2792.14 39.4801 2791.58 45.8805 L2818.15 45.84 Z" fill="#000000" fill-rule="nonzero" fill-opacity="1" /><path clip-path="url(#clip680)" d="M2845.21 14.324 L2845.21 27.2059 L2860.56 27.2059 L2860.56 32.9987 L2845.21 32.9987 L2845.21 57.6282 Q2845.21 63.1779 2846.71 64.7578 Q2848.25 66.3376 2852.91 66.3376 L2860.56 66.3376 L2860.56 72.576 L2852.91 72.576 Q2844.28 72.576 2841 69.3758 Q2837.72 66.1351 2837.72 57.6282 L2837.72 32.9987 L2832.25 32.9987 L2832.25 27.2059 L2837.72 27.2059 L2837.72 14.324 L2845.21 14.324 Z" fill="#000000" fill-rule="nonzero" fill-opacity="1" /><polyline clip-path="url(#clip681)" style="stroke:#000000; stroke-linecap:round; stroke-linejoin:round; stroke-width:8; stroke-opacity:1; fill:none" points="422.832,992.157 877.942,591.091 1228.94,332.714 1376.7,254.359 1663.84,171.521 1831.81,168.86 1950.98,156.678 2182.81,149.334 2330.56,178.354 2785.67,162.244 3284.43,257.31 3739.54,206.175 4238.29,1049.44 "/>
<circle clip-path="url(#clip681)" cx="422.832" cy="992.157" r="14.4" fill="#000000" fill-rule="evenodd" fill-opacity="1" stroke="none"/>
<circle clip-path="url(#clip681)" cx="877.942" cy="591.091" r="14.4" fill="#000000" fill-rule="evenodd" fill-opacity="1" stroke="none"/>
<circle clip-path="url(#clip681)" cx="1228.94" cy="332.714" r="14.4" fill="#000000" fill-rule="evenodd" fill-opacity="1" stroke="none"/>
<circle clip-path="url(#clip681)" cx="1376.7" cy="254.359" r="14.4" fill="#000000" fill-rule="evenodd" fill-opacity="1" stroke="none"/>
<circle clip-path="url(#clip681)" cx="1663.84" cy="171.521" r="14.4" fill="#000000" fill-rule="evenodd" fill-opacity="1" stroke="none"/>
<circle clip-path="url(#clip681)" cx="1831.81" cy="168.86" r="14.4" fill="#000000" fill-rule="evenodd" fill-opacity="1" stroke="none"/>
<circle clip-path="url(#clip681)" cx="1950.98" cy="156.678" r="14.4" fill="#000000" fill-rule="evenodd" fill-opacity="1" stroke="none"/>
<circle clip-path="url(#clip681)" cx="2182.81" cy="149.334" r="14.4" fill="#000000" fill-rule="evenodd" fill-opacity="1" stroke="none"/>
<circle clip-path="url(#clip681)" cx="2330.56" cy="178.354" r="14.4" fill="#000000" fill-rule="evenodd" fill-opacity="1" stroke="none"/>
<circle clip-path="url(#clip681)" cx="2785.67" cy="162.244" r="14.4" fill="#000000" fill-rule="evenodd" fill-opacity="1" stroke="none"/>
<circle clip-path="url(#clip681)" cx="3284.43" cy="257.31" r="14.4" fill="#000000" fill-rule="evenodd" fill-opacity="1" stroke="none"/>
<circle clip-path="url(#clip681)" cx="3739.54" cy="206.175" r="14.4" fill="#000000" fill-rule="evenodd" fill-opacity="1" stroke="none"/>
<circle clip-path="url(#clip681)" cx="4238.29" cy="1049.44" r="14.4" fill="#000000" fill-rule="evenodd" fill-opacity="1" stroke="none"/>
<polyline clip-path="url(#clip681)" style="stroke:#ff0000; stroke-linecap:round; stroke-linejoin:round; stroke-width:8; stroke-opacity:1; fill:none" points="-3736.02,115.745 8397.14,115.745 "/>
</svg>
