<?xml version="1.0" encoding="UTF-8"?>
<svg xmlns="http://www.w3.org/2000/svg" xmlns:xlink="http://www.w3.org/1999/xlink" width="120" height="34.36" viewBox="0 0 120 34.36"><!--latexit:AACrqXjavT1tcFxXdW+TEIwhkZPwkYQvmTjBDo5Zyd9JXdCHZSvWSvKuLMm2bLEf
b1dPevt2vftWsqxsu8PQUkw7E9qBlNLJEEMZpFJamE6n0I+ZDi0wTAtNAhQ6nSmF
H6UD0x/QmXb6Re8999733u6+c8/dDcUaS++9c8+5X+fee+45556bq7pO3U8mv564
7fY7Xnbny3cv7lu3a3Wn4l3cl63lVxz2NrfPr1QX91Vyq3ber99rJX75o8t7BqYz
5+xNuzAiEz2/6xVztUrFbyV+f8/eV77q4Ufeuv/Ao287+Nihtx994ufeOf7kufPp
S5evZu3iarnqNy7s8xqu++Jddw/seXDfwnTm0Jq9Wb/E/spM5vfl3Wy9vn3Pvfe9
+jWvfd39D7Rua93euqP1stadrZe3drVe0dq9/fo3vPFNbx7c+5aHWq9svap1d2ug
dU/rwdbrW29svak1uJjL1m3X8ewL+Ypbqc2VKwX7gu/4rr1YrdnZcs61r5SzJc8p
Ovmsz6o7V8j6NqtWLptfK9UqDa8wxhEv1SuNWt6es6/7D73jS7tPVT/2d7tfTA4N
DB8+cmE6kz4zujSdgYSZajZvz+zZnzyUPHzk+MmhkydPHD0+mDw0dHj42NHjyeSx
I+xlePjE0WNJ9u+4tSfRuuuFY8dPnLwkquply/aieLTrC5LorROPL05nZqBN9lgv
DJz6+XdcZI1U92uOV2rtmWUERkahL1INP8vqlAHIx0bGOJ54efH0wMSZs5PBOyvw
iM+ecg3frrfubT3Quq9yT+Z3rSWrYFWsvNWwypZteZbPnl0ra9XZz2X294hVZb+r
DFazrlhb7LnG0jiQyraa1m5GocHS2pAub62x3yX2dtnasFYYZZ6K4+Ws6wy6yuCr
LIVvbQJNHb746rF3XrK6ddAaZGVdZ3lX2Vv4nVPntHleFVY6QbPAYEWW1mN/Q9iW
lWF4BfbDyzXKvlRYOT2Gs2WdteaslDUFzycY7Ih11BqyDvdA7wz7YkOZu+klrTFG
cYT9xuu8BXXiLb/J/uZYykHrYbu6PHDz/sy/a7DK0KIr7H8FSlYXmOd/6envJ0uS
pkyT/PW5p5L18/+ZvJjMJFeSa+73swM/uVtDO8+ePPbbZnRFycehBVzgBJvVUOQ9
wr5U2d8sK7fNvmyxlKpcnIYL7TDD0mfgKQ+l2oTnMvz2tNzAKbiyrze1bci5c826
0ZZGfXPZ3xwrNy/7JktbhxJXgY8OyXLynm0wDM5xBdnbNaiJw548SFmVNatB/i6U
gPNGieEIKnn2xHMRHMZxylCOrLbsZfbdhZwEHk+7W5O+BCXj7c5H5HViPPmMg09A
G/KyVuGLDb0L/LJ+45kfZx5PP7z1SPJW8gfJbySfS347+YXkl5Pe+r/lf+e8nf6I
hrrqazFH8HnEl6PxpzsWcWqz0N4OK90o+9aA2aWdUpL9nLSOWRPsR0epwb440Dad
FGyGf5SVZphR0lB492eazz+TDvh8k7UTfx5iPJFknJC0jsunIfY7fNKVqQzffDli
OueWPCtTFvpRxy1V9rcI/FoB/tan9qENXBgbtqS9FPlahJKJfuejXaRSo6TJeCIH
OXGaVxjuFpRW9EOVpWvCt92M88TPUqS+Ofb7eletl2BuKcE3XhsH8mvAKGxa+6Et
eTseYCk5XxdiUjXbclxhpRb1ttvKFabwglq6UGNeGv59CriNtxQvVRFqz7mPtxae
w3CQA/9/GVpUX6ch4NqDUKsoXTF697Mxwet8lEG32lqwve2WYObjPLVfciFPfxho
N2XPYi3GYUvwe72tLo8BvqrPlQ7uUCnFrBjHH6K98/B0mI2Aowx+ndWtCqO3zp74
qBDfRF3U12H4KkZUiNeeZkim4Rz+MPwM5n64/NbfvArl5C2xAa1Vhr4VNV+C1asO
vDsEMxlvt3XoWd96iH1bYk/qvamhMxJDh48Y33oqoOOwdlmBL3pKox2UcoBZYhQV
LfWlRtBSvBylpmjoMadjMFWNlmLqRNOb6aIX1msppmYUxVFYCfPAsXFl3IopY5Og
mI6hGC3lVkwp9TSrUmryYku5v6uMB7TUZmOphaXZ31E+l6CXk224BpJKewmzMI55
SVUZwy8mNH861EY1JVQ9HUc97PNec/r/zEO0Te856EcC3jZPvYSyZqxrbG7NyjWh
m/blLtpXCHrnY+mFvHq5a3RdkasRRrPC5uYorYqcq9XaJ8arfoQ2OkZTAyC9Utno
6IENhluQ+xAXnsyorMRSWZEyl6KwWzvjVIHGsKRRlHwdzka8TFy6GZT04iHD5Mym
cjr8knOK+3qYyJ/vI+LrWYjkV4jURddqRZCixP4lyuvhd8Xt0ZQ4vQmEXjjauylH
x6hZLnytcmCnHc1DfVV0w1Q4pbFYSmFpO2lGyxrS14/VvJRPbZCpsm25iZXrClHb
ioaCmD0OELWc0VDQzW0H2iXL6V9p3nHzWaivWI/j83MYtaLk+yci+hEuCW0FUA7T
t90ElLQu96eddKJQXe3nWPoGQiOEUb3IcXjrbcDOO55aXCo93TrLPQ8tLeY6rM24
XsVn/8NWC/qkYd+8X5tHnu2gmzF6qi34rmu5Trwc+6Gx8qB1iMtvgsQcRzDHCcyi
tdiBKebFNfZtkcS9iOJeJHEvobiXJK5upJxF6nuWbKl+MYtdmGGJKdxcF67gCApv
BCnrCFlLPaaO6132VpDYLuiGc+w9S2BNRbCmOrCCEbfx3UyV2F/z0V+RdK5H5tNQ
U8ohB2EGKIMVYgW+8J4QM4fSDD0GWrMjcvcvKNqgnRV6C9UyYjbJQ15V0HpxjYgL
eps6+1aGFmtCrk2yFWqRkoZz0hMAE2tFXJ1UKqXNle1VefXWM5dnNTr1GWl3yUpd
Ks9PaHwLsfNsCGv2RLMGM3QcRQXpjV6BtYGQvEtSvxy/Loh0vVL3QQrqpia+N+W6
7YMUWZPzDKd7vadcqjKXKiFzOUhfOLIfdmvXkSzIzN3YCqKXeCvSctKJPS4hguf0
ElR86cckhKLAR1sVqUMIi+H95t8vvH/6e3b1clHbQuugMay1Sfbt+lKRJx91fBYQ
ctqS3EWEGs32VE2DHGttexnzPJdgr9Jf3mVIdx1yPmKY8yNt+fK3I33mXo/NP9RY
dZamLrXibs+lwjD15TsHYzSO0xSE4lbO1WsolSjUhJKDjL4Qpqj0MhPzPNaQuVjB
mtr1PY+US0F6K1Gd9bfQ1qsnPO8z0iLVmbP4rtcGxWNmSMws2EvjcBWkGc4673t5
c/B93ys9LWcdnQSaRtastNSTHSRl2EmkHyaN5uYzgc28uzUFRK8Zxvpi1qA3ZtH+
mDXokSn2pRSLrSCq9XRtX0dbv25AQVmYuneinkHbiz3nmKTQqXVbAgiNn5b4IV6a
bPd5pNUPMcghUh5wQDLHJK1sMPrx/Qjn52wshRCm7/tQohHPbmBD0e29OndPRfZe
JHdBaWQXlCYxhR9H/LwRQqkWnwlaewa8O0rQPrpVg6+corZj1lWQHj3YNWxq8eyg
TW3wfXJAG+iR3IDVMITpx5DSwjble7e+luIGG2wLPuix4+aDKDwyT3/oi3O7kisz
qfX/IDQ4MwgHzJAcsIBgLhhoJ6hcdbgZBDdDlPgCgneBrGm/mPFz0TyBlY7VhFAj
cjoWa5rUu/SHN4bIbVRuY7G5UXiXkPa/ROCdj83tPFnK/vDmkP6eI3t8hvXueCyu
glBaaEwDTfUin4mw/auCUWv9HMxz8SWokHvwcZhJ88guXMGonURBQ6UdTlEaJyiZ
lekCKlNfCGRq3bqB9YqC9LYD4TRWY+kpiH48ZGLHQ4aUxcZgjfUQiSyEtulAl3PL
Azetm8/6d978pnbtSlunmSR+uks/r+TcENokqMTJTuJ7ZEUF32ThKTrIOJtbYyrg
A7tbuyvj+9gqw60iK3hnCv2OBqNigq08Y+P5oGHAl1zWWkd0dZ7UQ0Z68uKDzrdm
Mtr2GUd1CQqiHydcQ5YLpCuhMa13eU+rsVOVnj7NQPOWk6lN8qm+hHyqRvmE+9Vs
4Auu1+fEjctzpKaginAiNVeXUPtOidzPYZgrPc9mp63rsgbqaUmrQcB1CNRublKe
IYjHzhnskQqojisKpTUZNWTU19rnKK4P1o63EWRdGQlWFXyH6UjbEKatFil4XcJU
ej6cQfhwhsS8gGBeIEdYXvptix5qSG/U0NIUWp/0c2kFfEGVfqICms84yxW1K3Uk
DZ+lqMCqwu1PvVLKQMoc0ioKRnu2xuEriF4GjJuJ5khtSbFLc6H4sUhqL2pts7/Q
gYeeeMrzhKZQRSiYcYIoA7cbmq4P7Ri9rkV8zotfwxVEX9pcwP3teepwqm04VQOc
SUTqc4y0h3MoL84Z8GI1OOmwRc5B19B16RopTWGYZXJd6FeDMRF41Mb5LCkYpdnN
wJqaR2UA24hKrsuDQoz5EXLu3kRWRAXRzxjYfmIk2EssaXxiMGnzrIG0OSp98rqx
FURfb0wjryD6np/v4hrV7/OSb9qkgPX3cN3f1V+YuUDYh88Gq1hni1TI3fICskte
MLCwYfY1auyUEGmqRLagg6yPCqKv6ybS9wqix15BcDu0tsufTt9p0Gc1tnuO31NT
K+ZpZOVoEnJKOKPaBhratUj6NYO2qQXa9HgfhVEjH4XRGEu9rpTzcqbr9nbHvKra
W035juv3PZ1nS+Jp6Eua6/Dvr4AHvDrjXIG1I/RkD7jp/P/YVW6r1fLSpDy9GrfH
8cjxmNXgZ40onEXmtbPkaihORsbPIxUy3ynUonKIPR8ipbBQcu8cSwKil6hcdF8Y
wvRrURZZBxVE3+Z8vcoh7a5glBSKyaC0jhXTrVKtlkVaLEvubbrP7bX746sTiUvS
f8WT3pHD0jvypaYV5ycGOzz9aUovPTVl8V6H+SPexqlgerlGWHvXEdkmhNLeHvFS
8aTBztULTpxjPh88BSVbVFF7dpVsSVeD7xpRyKPeiAqiH9NZOLkbP6YVTL9vqknd
ZbyM3A6n9MRCG+RETp537wSLBha1DGpTy5BSSx1pDwXRY2P7bNtgnz0pz7xdR1dW
BaX2whn2k0bGVoa0Cq8jLbAO5z4ojV8K3eOmyPVhvAtbrRDjJPZc4Bve2esbZJnH
0DLT1mkvkFvjJCyPxK9p8WsGnj/l2BMCulknxHENcSoAibN5DZGrRTbA9OU44OcI
soyXbAPvqmzAjZ3YNDf6geY6ikvZ9lKIbTBFylfziHQ1b6RHLWvWoShc37cNREZT
EBO7QVZjMwyhep1LHfzPPGQ+bIc3CWufnlZnCn0fTSI+lgqinymm0JliyqAezeDJ
DWISyX3XjVSasl0L2ab/00s83SiCPUqWvr+TcBcRvItkafvH5OnGEOwxA5kyi/gg
hzMWfcKjX++jYtdpxZDDJkjcSRR3ktTy9Od3lu/SDqmaniZ3ZtFzOHXYhXB4OFeL
EjwGVPBzOmY24Edlz9ZkLkLGEu9ca62+9UfPkVJAlJ5DeIrmSR7Vy/zVwB4p3lw4
fafmQBz7SSTXJ8n+4rEKp9u0SuLbchCRRdhyp8nyc3tQOyXxrXdK2RhK2T4oZaAm
eN1OgZxj7jsssL2IBUzQ8vqkVO6iVO6T0loXpbU+KTldlJw+Ka12UVrtmZLgIC9i
pa/22eKCg0JK2ZdAiZdiratMa31ScrooOX1SWu2i1HuLC52jF+wknIDHl2CWbKdD
rbpTyLw0Rc4B/WKOodYZl8xzGslzmpSLO/dCapXrRbrQe7C1U86DZptDC314DuQJ
LzazvMw82TYC6XQDqI+SZTuD9MIZctfsIP5ICtKbd9k4eSZYzxNjyB5pjIyIgelh
U4EWNvRFnYAIqyJaYo208cwiUvAsGeFkI9A9bchIAO3WfnUiC6PxaOw5pigdrlHc
Avy9bdTFWi8iV3V65jQ0Xn+Pyl4cCfQhduQEjlmuoxAhQa/r6c/jqRBoBAtg6RHx
GQaJ3ApB+duxfAKrHotVj3KSXZ3dR/JPDbjNQ3wHo1D6zFhBc2KsYHQ+r6Q5n1ci
IwZwT8dV1AdylfRpLyIjqUhKpSVEi1vqtNte/3z9vYT+IAuz8DVyLt9q065tMbmA
amEzqgVDevmuvaia1+dJf40U4q2RIk+5p5Ez7mly55xDbIwKosfOo9h5EnsWxlEO
4S4F01FYRFp6kVx57IhmtnPtUbAmwY1hLJd43tNZiyqx2A7DrBhYKexY7KKRTrrf
eFK5Lkwx/1N41JlJnDsq4CMTzx0Kpm9lJ0aDztuY/y+QLbXRYecNbc11iGvpwNld
E1/leUgXr6HKklaS+JhHHhERCd/H4DzdQDSHtB15DunlOYOYlxWD2XcjkMh90mui
YEiz0APNuiHNeg80q4Y0qz3QLGtolo2prGuorBtTGZORzzHfF8/Ad1v48buIRb0d
rj8rXEVP/V613kZYD1MdbRFGdcXiAOrn71lU0z1LtogTxFbpbg0F63X/58heVU+7
ezydpHr5dKC/Nceehb3eppQjom86O1hFRuiKt4WFUL0UEK4PB62nSP/vMqQXN09E
cZ/ogD3VRwyfKSnBib+6MTWLjKdZcv0ejx0BdDTIBZRbF0i725TG8obrvHSatpqR
bymO3d85/mvw04hE0QvflyKQYEfzrr9aHCLP8+bAWyiuPArSa9wlJ/BNDZ+DMn3g
a5dniRLZMopZnA9QrfPsXcl62sm8lojFloVTP1koqSvPKXXyoSMjhe213g7fQ2+/
o3BO9+0Ao0ezB1pcx7oR47PRDafPOK3K2yfC1TC60kdTDBqsh2nEfzZNes+OxXqw
RFdS28A7y0c9szoiXtlV/064yefjya8kf5z8HBErvIaUrBrcnqJbW8vB2hpGw4lo
BmZn+AkB+3M3Xrk8AOVQcRpFHMhopMbeVq1CsOqpJ72OwI2NPU7F/sR8vacMvL3T
KHbaADsn/T9x76wlAw/RMNK1g55QMzvhlumKd6u0QWcNZv31l1wTL9b/yyPngai1
ImN4flCcsnURvZ+CRUbc1RMdXI57GWI++LQHPiY1euQeTdwHVw50PXE3Eyy1pYrU
rXnt5q70R4jzPafhpHV8zTy5qwoj8n2v9DRJMY+2v0vut3W8dr1Td8nrt/6e+e+U
fjv/SWJ1HUdOAoyTa8ck4uEyKbWK4Xmqf2js5yWSrdNL7FpXxq51CXvPJGrxmSTl
qDI6LsrBqNBHr/Uj9oQKrMTXycg0KaT1FES/15hCzt4rSMfKyVu/x7bPgr7Uh1xX
Al+c6BfKnyb3M4x2m+vag4idxKyh509v9l91iqA3y68bsZG2U3QjNlJdn2M9TsWr
iWuZM6R2YjQ2v2nSilwJNP+8JU3iRbpSBuY6wXbvB/FtuS/doaBQb/NiiX7TU+3F
a02cZAjt+uKd793rWiup0tr7BrHkaf3/mLw3KF4eXydHwnlkX3yejK83huiR6Zk3
h8y7OdLCv47qr0OYfsYYjR0XoyTeQizeAinrFBBZp0DKOiZ3J+lKfCm2xJfIGUfs
eCsQlcpFpLxRozP72GkmE+yUJmJWyihi1qjWcjNqaLtROqY6qnsypbCGUlgjZa4J
ROaibWWLsVywSOKZyJ763VohEvn1YOwtGOI22aPgcduM3OWQhZVSpLoMM64jpYhT
LC8+Ik7CzZ9b1j4ZD0jsi+vsvWkQP2Oya3VU7XnGICbsOmIDCGF6vp5FeHrWKIJG
OXK3b3wkjTCFfhe8Bm3molGXO1NQkSRrcPPqitSLYDElO1NRM4iP2PVDmJ6PT8fy
/2kSrz/5KcV4KINEeghh1Mn6Uow21od5PwqlTlBWUSpRqF46OIdIB+fI/ZHbsTcy
21FVO7Cq5Crptvk6uqRULE7j1tHY9A2D86nFrtND4VxOnR8Kb2SMK0EUSumxNuQN
Y9ExojwFo9/1Z0XLiK6DGvE3OvJuz3U5cjMzbgGZQeLu0rGAPDQWkEfaXeIj5yyQ
eGcQnqHwRpGyUnjTyE6MwruAaBio1eUMsqacIcfUCJvbUl1jIhxToS5OHw9Z3Jq3
icZEDuH6FvCRG5YovAnE663ZsyXahlsvm9JaVYxqZm7u+sDXmlPeLkJrOIGsIhMG
a9e8VnabJ/tzCtH2K4g+d1ubu016W82wH+z+DgXTlz+F+C8qiH4FTyGrd4qUqDKo
djSE6c+UYfhPGmCPIL6XI6QmZhLt8UmDHs+g2BkD7CmWRwrp7xDWpue+tvdDs2t7
z49x/ebq3oX3Jz2DeNXYrXPpyJ1zOE9f1PL0RdK/KrSa8tthxc2ulEfWhtQPcYxh
A4x6W4Sd/cENsnpJxkwHuhWJKWKjWtDwjISIhJSF+XoQziD4YKPJg5ZMH7XbRePZ
uKQ+6yzrlyoaVU/B9OvQFLL+TPXsBaE8mnPSi8gcU3kz5zut0AsDBl4O0QhXyu+B
76xXA0gvZTkb2MbPBjfz4TNJHWl9BaHO4dTQczg1charo+eHQph+Bm2gcRYaBtFh
sRMWpw3OV2D3ONC3ONjIeLHJ0TKDaGJnDDSxNfSeJRoTx60ZRPL00UiePikZ1JBW
PhNEBNZLqD4qm/oGvO2hvO0ZeOx4yCmWEKYvvY7GmCGVEYRjRkiOmYUTjZgPfZ20
NgjvpniLg4JRMUg9LZ3OFDQ1nBvb4TQl3TmQzhTUnV7Cd4mfwSt13e/VGcGnux9d
kgdCaqcjuexvgxxksAM/ldwmQCcS3y4NctyINHkNfp7keBcZM2HpB62HedzfpEes
zimUX1IBpzBa8k1oSgchBrg4vTloPcL+K4/1moyo78D7IFCsktKVD/E5V9Bo9Qpq
wv06Wt1pKCtmFdn55wMYFRdI6JSx25qjcGhnftbvxo0P/kZyBeSfmrXGJeCVE2Q/
plGP77SBt/co3FiAe4xXDGIaj2iptMOpdueeECo1zu1YSpOa4lT7oZZGV7HOFJQ1
ZZPh4mXrTGHSjjRVLCUVnc5Hdsi05KFynNLIL+0pKAmMW5hwap0pmuR8hHkUR6F6
2aqISN4KQkUxsDU91g5vEvNrBb0JRJ0i5TO8eOM7re75PS/ndwd8SStgkVCz+27t
ulxFpPlqkO+YtK2W5P1Zg+xvEX6Le5MG2/b01FqCrSIrZH51edsK1zfsJu7yXUHv
8qXzEZ7f0dwOsq8Cdz/DOmCdsi7Dbaa8BQ7Kel9JeskMWxV2k57w6xpP+PVI6cS7
DXGtbJA67GjPkyvOBdC9FBHNvoIJScRyviVWNf709EPN3zr/4dmvkTlMyBjN8bdb
lBX15DeSP0z+d/I7yZXgyVu6g/A9r0i7oY3eqxzCRS6sBzJ/c/l/iTKPQ72LqK25
GLaK93zyfclzyVVxLxrZGufhVG1874Yw0bvqnfUuSTffd+RACs9cn5MBrhMydfis
5/Sa5tZ5etcuypbVxJ3MG6wV6Yg/SbfUVTXa+xc0u/8C6cuF7/fqRnu9FHiqYDqA
ArlWlkG+4Vip4Cbm7tm3OxXlC7uG2qOjUP2eELs1cyZyayauwbqGaLCuGZQeww5h
9K1k8afN84FeO9RsZ1irjsEY150SmQ006u3jzwNrqB3xUe7ldGtTeq70gpWGXaTY
AYfPuvaoIpylIJQW00f1mHTkbswKlSEx0whm2ig2Qz2iMe+2gkTjN9QNbog4h9gQ
zvVhQzgNtkPR8+KpF+xU4I2knugY9H7EZy/8VjG4lSoV6zOVIsdwv9FT8l2+dApz
luRTFywr3ffPqPsjon7Y4f0uchbwDl79hLQ49uIxnoMzLYrT+NtjPVtkHg38u0JK
/C1KSXduvPOUuV5aceD0hysj0YWtxXcna9YN9iUn4yGpSASnmFydBz/lmnUogB6Q
eJ701bwMMnkW6naqLZ+DcANjlpXnIFD0gl0SX+NPWcPAjSoyrAOncssAF6dpT1mH
rSSkucK+hmU5wN64vyjvS+4l+gS5l2uv/SzQ8aAXyj/ztjglb9qwfxat8uJddw9M
Tc8+l2q9+rmZ1mta989PZyYqnv/1zNyFgfmFxYvsPePcsBenM8UJN1uqs/fpbNl+
6J37Lfi3Z0/rta3XzacqXjZfeeHY8aUrksKtpcfZ6/K7lqYz407ed1iC2uatZf4x
l1/ec+90ZsT3a06u4duFDHvwSrcKj8d+f+idoyKvF0oDK87CdOaQ77ASjHzpB0e/
/NQ/PtJ6AyO55rJsx7O+fWvt8ReTQwPe4SMze96aPHRy+NjRI0MnTxwZGmQvh4cP
J4dOnjwBL8nh4aHhk8ePH7Fad714emDi2tnJ1ptbD7Tumy+cGkpeHWZU1zeW99w3
nUk1/GzOtcNqfGx9+XFrl3WP9SBryQOsR46D98R5Nu9yX/73WL9qPWM9a33S2rE+
ZX3a+gPrs9YfWn9k/bH1eesvrS9aX7a+Yv219VXrb60XrK9b37S+Zf2T9c/WD60f
Wf+VeEXi7sRg4m2JI4knEiOJ6cRmYivRTLw78WuJDyWeTTyX2El8KvGZxJ8k/izx
54kvJL6R+Hbiu4l/Sfwo8ZPbErfdftvLtpe3i9sr26vb7ra3Xd3e2G5tv3f76e1n
tj+6fWv749uf2P697c9uf277T7f/Yvur289vf3P7B9v/unP7zqt27tl5YOctO/t2
Duwkdw7vPL5T2CnulHcqO9d26js3dn5x54OiC25LiL9sFmr7t/Ph/wNExcBL-->
<defs>
<g>
<g id="glyph-0-0">
<path d="M 20.15625 -1.828125 L 19.40625 -2.46875 C 18.859375 -1.71875 17.5 -1 16.640625 -1 C 15.640625 -1 15.53125 -2.21875 15.78125 -3.375 L 19.609375 -23.125 C 19.765625 -23.8125 19.96875 -24.453125 20.296875 -25.09375 C 19.5 -24.921875 18.75 -24.84375 17.96875 -24.84375 C 16.890625 -24.84375 15.921875 -25.203125 14.8125 -25.203125 C 14.515625 -25.203125 14.203125 -25.171875 13.875 -25.09375 L 13.59375 -23.484375 C 14.0625 -23.734375 14.5625 -23.84375 15.03125 -23.84375 C 15.484375 -23.84375 15.8125 -23.5625 15.75 -23.125 L 14.625 -14.921875 C 13.734375 -16.3125 12.328125 -17.21875 10.46875 -17.21875 C 5.34375 -17.21875 1.6875 -13.703125 0.828125 -8.421875 C -0.078125 -3.15625 2.40625 0.359375 7.53125 0.359375 C 9.640625 0.359375 11.546875 -0.78125 12.9375 -2.515625 C 13.015625 -0.9375 13.84375 0.359375 15.34375 0.359375 C 17.28125 0.359375 18.71875 -0.28125 20.15625 -1.828125 Z M 13.234375 -5.125 C 12.1875 -2.796875 10.46875 -1 8.21875 -1 C 4.625 -1 3.484375 -5.0625 4.15625 -9.109375 C 4.734375 -12.546875 7.140625 -15.84375 10.25 -15.84375 C 12.484375 -15.84375 13.765625 -14.234375 14.203125 -12.046875 Z M 13.234375 -5.125 "/>
</g>
<g id="glyph-1-0">
<path d="M 23.78125 -10.578125 C 23.625 -11.296875 23.625 -12.015625 23.78125 -12.734375 C 20.515625 -12.484375 17.21875 -12.375 13.953125 -12.375 C 10.6875 -12.375 7.390625 -12.484375 4.125 -12.734375 C 4.234375 -12.015625 4.234375 -11.296875 4.125 -10.578125 C 7.390625 -10.828125 10.6875 -10.9375 13.953125 -10.9375 C 17.21875 -10.9375 20.515625 -10.828125 23.78125 -10.578125 Z M 23.78125 -5.203125 C 23.625 -5.921875 23.625 -6.640625 23.78125 -7.34375 C 20.515625 -7.09375 17.21875 -7 13.953125 -7 C 10.6875 -7 7.390625 -7.09375 4.125 -7.34375 C 4.234375 -6.640625 4.234375 -5.921875 4.125 -5.203125 C 7.390625 -5.453125 10.6875 -5.5625 13.953125 -5.5625 C 17.21875 -5.5625 20.515625 -5.453125 23.78125 -5.203125 Z M 23.78125 -5.203125 "/>
</g>
<g id="glyph-1-1">
<path d="M 14.984375 -1.609375 C 14.0625 -1.359375 13.09375 -1.25 12.125 -1.25 C 11.375 -1.25 10.6875 -1.65625 10.6875 -2.328125 L 11.21875 -25.09375 C 10.140625 -24.921875 9.078125 -24.921875 8 -25.09375 C 7.34375 -21.484375 5.421875 -18.21875 2.546875 -15.953125 L 3.375 -14.875 C 4.84375 -16.03125 6.203125 -17.25 7.5 -18.578125 L 7.953125 -2.328125 C 8 -1.65625 7.28125 -1.25 6.53125 -1.25 C 5.5625 -1.25 4.59375 -1.359375 3.65625 -1.609375 L 3.9375 0 C 4.546875 0.078125 5.203125 0.109375 5.8125 0.109375 C 7 0.109375 8.140625 -0.25 9.328125 -0.25 C 10.5 -0.25 11.65625 0.109375 12.84375 0.109375 C 13.453125 0.109375 14.09375 0.078125 14.703125 0 Z M 14.984375 -1.609375 "/>
</g>
<g id="glyph-1-2">
<path d="M 17.75 -12.546875 C 17.75 -19 15.03125 -25.453125 9.328125 -25.453125 C 3.625 -25.453125 0.890625 -19 0.890625 -12.546875 C 0.890625 -6.09375 3.625 0.359375 9.328125 0.359375 C 15.03125 0.359375 17.75 -6.09375 17.75 -12.546875 Z M 14.515625 -12.546875 C 14.515625 -7.09375 14.015625 -1 9.328125 -1 C 4.625 -1 4.125 -7.09375 4.125 -12.546875 C 4.125 -18 4.625 -24.09375 9.328125 -24.09375 C 14.015625 -24.09375 14.515625 -18 14.515625 -12.546875 Z M 14.515625 -12.546875 "/>
</g>
<g id="glyph-2-0">
<path d="M 12.421875 -3.515625 L 11.46875 -3.515625 C 11.46875 -2.03125 10.046875 -1.03125 8.46875 -1.03125 C 7.109375 -1.03125 5.75 -1.203125 4.375 -1.203125 C 3.6875 -1.203125 3.015625 -1.1875 2.328125 -1.109375 L 9.875 -7.90625 C 11 -8.9375 11.953125 -10.265625 11.953125 -11.796875 C 11.953125 -15.015625 9.640625 -17.828125 6.53125 -17.828125 C 3.421875 -17.828125 1.109375 -15.015625 1.109375 -11.796875 C 1.109375 -10.828125 1.4375 -9.875 2.0625 -9.09375 C 2.59375 -9.8125 3.21875 -10.46875 3.96875 -11 C 3.359375 -11.375 3.015625 -12.046875 3.015625 -12.75 C 3.015625 -14.9375 4.46875 -16.875 6.53125 -16.875 C 8.484375 -16.875 9.6875 -14.859375 9.6875 -12.75 C 9.6875 -11.5 9.4375 -10.21875 8.59375 -9.3125 L 0.625 -1.203125 L 1.109375 0 C 2.03125 -0.171875 2.96875 -0.25 3.890625 -0.25 C 5.578125 -0.25 7.25 0.125 8.9375 0.125 C 9.9375 0.125 10.953125 0.046875 11.953125 -0.125 C 11.953125 -1.28125 12.109375 -2.40625 12.421875 -3.515625 Z M 12.421875 -3.515625 "/>
</g>
</g>
<clipPath id="clip-0">
<path clip-rule="nonzero" d="M 107 0.179688 L 120 0.179688 L 120 19 L 107 19 Z M 107 0.179688 "/>
</clipPath>
</defs>
<g fill="rgb(3.529358%, 13.33313%, 22.744751%)" fill-opacity="1">
<use xlink:href="#glyph-0-0" x="-0.3704" y="33.5786"/>
</g>
<g fill="rgb(3.529358%, 13.33313%, 22.744751%)" fill-opacity="1">
<use xlink:href="#glyph-1-0" x="31.972" y="33.5786"/>
</g>
<g fill="rgb(3.529358%, 13.33313%, 22.744751%)" fill-opacity="1">
<use xlink:href="#glyph-1-1" x="69.838647" y="33.5786"/>
<use xlink:href="#glyph-1-2" x="88.488634" y="33.5786"/>
</g>
<g clip-path="url(#clip-0)">
<g fill="rgb(3.529358%, 13.33313%, 22.744751%)" fill-opacity="1">
<use xlink:href="#glyph-2-0" x="107.2372" y="18.7718"/>
</g>
</g>
</svg>
