<?xml version="1.0" encoding="UTF-8"?>
<svg xmlns="http://www.w3.org/2000/svg" xmlns:xlink="http://www.w3.org/1999/xlink" width="55" height="43.36" viewBox="0 0 55 43.36"><!--latexit:AACrr3javT1tkBxHdbO2MUJgn2zzYZuvE5aNZGSxd5IsyY4C9ymddXt32j3dnaST
jv2Y3Zu72dnRftzpdN7UFgUhiKTKJBWchJSDDaG4CyGBSqUC+ahKkQBFJRDbQCCV
HwR+QAoqqYJUJZUv0v26e2Z2d16/3jVBV7qbmdfv9dfr7tfvvX6d812nVk8mv5a4
5dbbXnb7y/cuHdiwqzWn4l08kK3mVx32Nn+gXvGXDlRya3a+XrvbSvziR1b2Dcxk
ztlbdmFEJnp+zyvmq5VKvZX4g337X/mqBx9668FDD7/t8CNH3n788Z975/gT586n
L12+mrWLa2W/3rhwwGu47ot33Dmw7/4DizOZI+v2Vu0S+yszWTiQd7O12s5dd9/z
6te89nX33te6pXVr67bWy1q3t17e2tN6RWvvzuvf8MY3vXlw/1seaL2y9arWna2B
1l2t+1uvb72x9abW4FIuW7Ndx7Mv5CtupTpfrhTsC3Wn7tpLftXOlnOufaWcLXlO
0cln66y684Vs3WbVymXz66VqpeEVxjjipVqlUc3b8/b1+gPv+OLe0/5H/37vi8mh
geGjxy7MZNJnRpdnMpAw42fz9uy+g8kjyaPHTpwaOnXq5PETg8kjQ0eHHz1+Ipl8
9Bh7GR4+efzRJPt3wtqXaN3xwqMnTp66JKrqZcv2kni0a4uS6HMnH1uaycxCm+yz
Xhg4/fPvuMgaqVavOl6ptW+OERgZhb5INepZVqcMQD46MsbxxMuLEwOTZ85OBe+s
wCN19pRr1O1a6+7Wfa17Kndlfs9atgpWxcpbDats2ZZn1dmza2WtGvu5zP4es3z2
22ewqnXF2mbPVZbGgVS21bT2MgoNltaGdHlrnf0usbfL1qa1yijzVBwvZ11n0DUG
X2Mp6tYW0NThi68ee+clq1mHrUFW1g2Wt8/ewu+cOqfN86qw0gmaBQYrsrQe+xvC
tq0MwyuwH16uUfalwsrpMZxt66w1b6WsaXg+yWDHrOPWkHW0B3pn2BcbytxNL2mN
MYoj7Dde522oE2/5LfY3x1IOWg/a/srAzXsz/67BKkOLrrL/FShZTWCef+9T30+W
JE2ZJvmr808ma+f/M3kxmUmuJtfd72cHfnKnhnaePXnst83oipKPQwu4wAk2q6HI
e4R98dnfLCu3zb5ss5SqXJyGC+0wy9Jn4CkPpdqC5zL89rTcwCm4sq+3tG3IuXPd
utGWRn1z2d8cKzcv+xZLW4MS+8BHR2Q5ec82GAbnuILs7SrUxGFPHqT0Zc2qkL8L
JeC8UWI4gkqePfFcBIdxnDKUI6ste5l9dyEngcfT7tWkL0HJeLvzEXmdGE91xsEn
oQ15WX34YkPvAr9s3Hj6x5nH0g9uP5R8LvmD5NeTzya/lfx88ktJb+Pf8r973k5/
WENd9bWYI/g8Upej8ac7FnFqc9DeDivdKPvWgNmlnVKS/ZyyHrUm2Y+OUoN9caBt
OinYDP84K80wo6Sh8O5PN59/Oh3w+RZrJ/48xHgiyTghaZ2QT0Psd/ikK1MZvtXl
iOmcW/KsTFnoRx23+OxvEfi1AvytT12HNnBhbNiS9nLkaxFKJvqdj3aRSo2SJuOJ
HOTEaV5huNtQWtEPPkvXhG97GeeJn+VIfXPs9/WuWi/D3FKCb7w2DuTXgFHYtA5C
W/J2PMRScr4uxKRqtuW4ykot6m23lStM4QW1dKHGvDT8+zRwG28pXqoi1J5zH28t
PIfhIAf+/zK0qL5OQ8C1h6FWUbpi9B5kY4LX+TiDbre1YHvbLcPMx3nqoORCnv4o
0G7KnsVajMOW4fdGW10eAXxVnysd3KFSilkxjj9Ee+fh6SgbAccZ/Dqrmw+jt8ae
+KgQ30Rd1Ndh+CpGVIjXnmZIpuEc/iD8DOZ+uPLW37gK5eQtsQmtVYa+FTVfhtWr
Brw7BDMZb7cN6Nm69QD7tsye1HtTQ2ckhg4fMXXryYCOw9plFb7oKY12UMoBZolR
VLTUlypBS/FylJqiocecicFUNVqOqRNNb7aLXliv5ZiaURRHYSXMA8fGlXE7poxN
gmI6hmK0lNsxpdTT9KXU5MWW8mBXGQ9pqc3FUgtLc7CjfC5BLyfbcB0klfYSZmEc
85KqMoZfTGj+dKiNakqoejqOetjnveb0/5mHaJvec9CPBLxtnnwJZc1Y19jcmpVr
Qjfty120rxD0zsfSC3n1ctfouiJXI4xmhc3NUVoVOVertU+MV/0IbXSMpgZAeqWy
2dEDmwy3IPchLjyZUVmNpbIqZS5FYa92xvGBxrCkUZR8Hc5GvExcuhmU9OIhw+TM
pnI6+pJzivt6lMif7yPi61mI5FeI1EXXakWQosT+Jcrr4XfF7dGUOL1JhF442rsp
R8eoWS58rXJgpx3NQ31VdMNUOKWxWEphaTtpRssa0teP1byUT22QqbJtuYmV6wpR
24qGgpg9DhG1nNVQ0M1th9oly5lfat528xmor1iP4/NzGLWi5PvHI/oRLgltB1AO
07fdJJS0JvennXSiUF3t51n6BkIjhFG9yHF4623CzjueWlwqPd0ayz0PLS3mOqzN
uF6lzv6HrRb0ScO+ea82jzzbQTdj9FTb8F3Xcp14OfZDY+VB6xCX3ySJOY5gjhOY
RWupA1PMi+vs2xKJexHFvUjiXkJxL0lc3Ug5i9T3LNlS/WIWuzDDElO4uS5cwREU
3ghS1hGylnpMHde77K0gsV3QDefYe5bAmo5gTXdgBSNu8zsZn9hf89FfkXSuR+bT
UFPKIYdhBiiDFWIVvvCeEDOH0gw9AlqzY3L3LyjaoJ0VegvVMmI2yUNePmi9uEbE
Bb1NjX0rQ4s1Idcm2QrVSEnDOelxgIm1Iq5OKpXS5sr2qrx6++nLcxqd+qy0u2Sl
LpXnJzS+hdh5NoQ1e6JZhRk6jqKC9EavwNpASN4lqV+OXxdEul6p10EK6qYmvjfl
ul0HKbIq5xlO93pPufgyF5+QuRykLxzZD3u160gWZOZubAXRS7wVaTnpxB6XEMFz
egkqvvRjEkJR4KPNR+oQwmJ4v/kPix+Y+a7tXy5qW2gDNIbVNsm+XV8q8uSjjs8C
Qk5blruIUKPZnqppkGO1bS9jnucy7FX6y7sM6a5DzscMc36oLV/+dqzP3Gux+Yca
q87S1KRW3O25VBimvnznYIzGcZqCUNzKuXodpRKFmlBykNEXwhSVXmZinsc6Mhcr
WFO7vueRcilIbyWqsf4W2nr1hOd9RlqkOnMW3/XaoHjMDImZBXtpHK6CNMNZ5/0v
bw6+/7ulp+Sso5NA08ialZZ6ssOkDDuF9MOU0dx8JrCZd7emgOg1w1hfzBn0xhza
H3MGPTLNvpRisRVEtZ6u7Wto69cMKCgLU/dO1DNoe7HnHJMUOrVuywCh8dMSP8RL
k+2+gLT6EQY5QsoDDkjmmKSVDUY/vh/h/JyNpRDC9H0fSjTi2Q1sKLq9V+fuqcje
i+QuKI3sgtIkpvDjiJ83QijV4rNBa8+Cd0cJ2ke3avCVU9R2zLoK0qMHu4YtLZ4d
tKkNvk8OaAM9khuwGoYw/RhSWtimfO/W11LcYINtoQ567Lj5IAqPzNMf+sL8nuTq
bGrjPwgNzizCAbMkBywimIsG2gkqVx1uBsHNECW+gOBdIGvaL2b8XLRAYKVjNSHU
iJyJxZoh9S794Y0hchuV21hsbhTeJaT9LxF452NzO0+Wsj+8eaS/58ken2W9Ox6L
qyCUFhrTQFO9yGcibP+qYNRaPw/zXHwJKuQefBxm0jyyC1cwaidR0FBph1OUxglK
ZmW6gMrUFwKZWrduYL2iIL3tQDiNtVh6CqIfD5nY8ZAhZbExWGM9RCILoW060JXc
ysBN6+Yz9dtvfkO7dqWtCSaJT3Tp55WcG0KbBJU42Ul8j6yo4JssPEUHGWdza0wF
fGD3andlfB/rM1wfWcE7U+h3NBgVE2zlGRvPBw0DvuSy1gaiq/OkHjLSkxfvd745
m9G2zziqS1AQ/TjhGrJcIF0JjWmty3tajR1fevo0A81bTqY2ycd/Cfn4RvmE+9Vs
4Auu1+fEjctzpKbARziRmqtLqH2nRO7nMMzVnmezCeu6rIF6WtZqEHAdArWbm5Jn
COKxcwZ7pAKq44pCaU1GFRn11fY5iuuDteNtBFlXRoJVBd9hOtI2hGmrRQpelzCV
ng9nET6cJTEvIJgXyBGWl37booca0hs1tDSF1if9XFoBX1Cln6iA5jPOckXtSh1J
o85SVGBV4fanXillIGUOaRUFoz1b4/AVRC8Dxs1E86S2pNiluVD8WCS1F9W22V/o
wENPPOV5QlPwEQpmnCDKwO2GputDO0avaxGf8+LXcAXRlzYXcH97njocvw3HN8CZ
QqQ+x0h7OI/y4rwBL/rBSYdtcg66hq5L10hpCsMsk+tCvxqMycCjNs5nScEozW4G
1tQ8KgPYRlRyXR4UYsyPkHP3FrIiKoh+xsD2EyPBXmJZ4xODSZtnDaTNUemT142t
IPp6Yxp5BdH3/EIX16h+X5B80yYFbLyH6/6u/sLsBcI+fDZYxTpbpELulheRXfKi
gYUNs69RY6eESFMlsgUdZH1UEH1dt5C+VxA99iqC26G1XflU+naDPquy3XP8nppa
MSeQlaNJyCnhjGobaGjXI+nXDdqmGmjT430URo18FEZjLPW6Ui7Ima7b2x3zqmpv
NeU7rt/3dJ4tiaehL2muw7+/Ah7w6oxzBdaO0JM94Kbz/2P73Far5aUpeXo1bo/j
keMxq8HPGlE4i8xrZ8nVUJyMjJ9HKmS+06hF5Qh7PkJKYaHk3jmWBEQvUbnovjCE
6deiLLIOKoi+zfl6lUPaXcEoKRSTQWkdK6ZbpVoti7RYltzbdJ/ba/fHVycSl6X/
iie9I4eld+RLTSvOTwx2ePrTlF56asrivQHzR7yNU8H0co2w9m4gsk0Ipb094qXi
KYOdqxecOMd8PngKSrbwUXu2T7akq8F3jSjkUW9EBdGP6Syc3I0f0wqm3zdVpe4y
XkZuh1N6YqENciInz7t3gkUDi1oGtallSKmlhrSHguixsX22bbDPnpJn3q6jK6uC
UnvhDPtJI2MrQ1qFN5AW2IBzH5TGL4XucVPk+jDeha1WiHESez7wDe/s9U2yzGNo
mWnrtBfIrXESlkfiV7X4VQPPn3LsCQHdrBPiuIY4FYDE2byGyNUiG2DW5Tjg5wiy
jJdsA++qbMCNndg0N9YDzXUUl7LtpRDbYIqUrxYQ6WrBSI9a1qxDUbi+bxuIjKYg
JnaDrMZmGEL1Opca+J95yHzYDm8S1j49rc4U+j6aQnwsFUQ/U0yjM8W0QT2awZMb
xCSS+64bqTRluxayTf+nl3i6UQR7lCx9fyfhLiJ4F8nS9o/J040h2GMGMmUW8UEO
Zyz6hEe/3kfFrtOKIYdNkrhTKO4UqeXpz+8s36UdUjWdIHdm0XM4NdiFcHg4V4sS
PAJU8HM6Zjbgh2XPVmUuQsYS71xrrb71R8+RUkCUnkN4iuZJHtXL/H5gjxRvLpy+
U3Mgjv0EkusTZH/xWIUzbVol8W0liMgibLkzZPm5PaidkvjWO6VsDKVsH5QyUBO8
bqdBzjH3HRbYXsQCJmh5fVIqd1Eq90lpvYvSep+UnC5KTp+U1roorfVMSXCQF7HS
+322uOCgkFL2JVDipVjvKtN6n5ScLkpOn5TWuij13uJC5+gFOwkn4PFlmCXb6VCr
7jQyL02Tc0C/mGOodcYl85xB8pwh5eLOvZBa5XqRLvQebO2U86DZ5tBCH54DecKL
zSwvM0+2zUA63QTqo2TZziC9cIbcNTuIP5KC9OZdNk6eCdbzxBiyRxojI2JgethU
oIUNfVEnIcKqiJZYJW08c4gUPEdGONkMdE+bMhJAu7VfncjCaDwce44pSodrFLcB
f38bdbHWi8hVnZ45DY3X38OyF0cCfYgdOYFjlusoREjQ63r683gqBBrBAlh6RHyG
QSK3QlD+dqw6gVWLxapFOcn25w6Q/FMFbvMQ38EolD4zVtCcGCsYnc8rac7nlciI
AdzTcQ31gVwjfdqLyEgqklJpCdHiljrtttc/V3sfoT/Iwix8jZzLt9u0a9tMLqBa
2IxqwZBevmsvqub1BdJfI4V4a6TIU+5p5Ix7mtw55xAbo4LosfModp7EnoNxlEO4
S8F0FJaQll4iVx47opntXHsUrElwYxjLJZ73dNaiSiy2wzArBlYKOxa7aKST7jee
VK4LU8z/FB51ZhLnjgr4yMRzh4LpW9mJ0aDzNub/C2RLbXbYeUNbcw3iWjpwdtfE
V3kB0sVrqLKklSQ+5pFHRETC9zE4TzcQzSFtR55HenneIOZlxWD23Qwk8jrpNVEw
pFnogWbNkGatB5q+IU2/B5plDc2yMZUNDZUNYypjMvI55vviGfhuCz9+F7Got8P1
Z4V99NTvVetthPUw1dEWYVRXLA6gfv6eQzXdc2SLOEFsle7WULBe93+O7FX1tLfH
00mqlycC/a059hzs9bakHBF909nBKjJCV7wtLITqpYBwfThsPUn6f5chvbh5Ior7
eAfsyT5i+ExLCU781Y2pOWQ8zZHr93jsCKCjQS6i3LpI2t2mNZY3XOel07RVjXxL
cez+zvFfg59GJIpe+L4cgQQ7mnf99dIQeZ43B95CceVRkF7jLjmBb2r4HJTpg1+9
PEeUyJZRzOJ8gKqdZ+9K1lNO5rVELLYsnPrJQkldeU6pkw8dGSlsv/V2+B56+x2H
c7pvBxg9mj3Q4jrWjRifjW44fcZpTd4+Ea6G0ZU+mmLQYD1MI/6zadJ7dizWgyW6
ktoG3ll11DOrI+KV7ddvh5t8Ppb8cvLHyc8SscKrSMn84PYU3dpaDtbWMBpORDMw
N8tPCNifvfHKlQEoh4rTKOJARiM19rZqFYJVTz3pdQRubOxxKvYn5us9beDtnUax
0wbYOen/iXtnLRt4iIaRrh30hJrZCbdMV7xbpQ06azDrb7zkmnix/l8eOQ9ErRUZ
w/OD4pSti+j9FCwy4q6e7OBy3MsQ88GnPfAxqdEj92jiPrhyoOuJu5lguS1VpG7N
azf3pD9MnO+ZgJPW8TXz5K4qjMj33dJTJMU82v4uud/W8dr1Tt0lr9/Gexa+Xfrt
/CeI1XUcOQkwTq4dU4iHy5TUKobnqf6xcZCXSLZOL7FrXRm71iXsPVOoxWeKlKPK
6LgoB6NCH722HrEnVGAlvk5Gpkkhracg+r3GNHL2XkE6Vk7e+j22fRb0pXXIdTXw
xYl+ofxpcj/DaLe5rj2I2EnMGXr+9Gb/VacIerP8uhEbaTtFN2Ij1fU51uNUvJq4
ljlDaidGY/ObIa3IlUDzz1vSJF6kK2VgrhNs934Q31b60h0KCrU2L5boNz3VXrzW
xEmG0K4v3vnevaa1kiqtfd0gljyt/x+T9wbFy+Mb5Eg4j+yLz5Px9cYQPTI98+aQ
eTdHWvg3UP11CNPPGKOx42KUxFuMxVskZZ0CIusUSFnH5O4kXYkvxZb4EjnjiB1v
BaJSuYiUN2p0Zh87zWSCndJEzEoZRcwa1VpuRg1tN0rHVEN1T6YU1lEK66TMNYnI
XLStbCmWC5ZIPBPZU79bK0Qivx6OvQVD3CZ7HDxum5G7HLKwUopUl2HGdaQUcZrl
xUfEKbj5c9s6IOMBiX1xjb03DeJnTHWtjqo9zxjEhN1AbAAhTM/XcwhPzxlF0ChH
7vaNj6QRptDvgtehzVw06nJnCiqSZBVuXl2VehEspmRnKmoGqSN2/RCm5+OJWP6f
IPH6k59SjIcySKSHEEadrC/FaGPrMO9HodQJSh+lEoXqpYNziHRwjtwfuR17I7Md
ld+B5ZOrpNvm6+iSUrE4jVtDY9M3DM6nFrtOD4VzOXV+KLyRMa4EUSilx9qUN4xF
x4jyFIx+158VLSO6DmrE3+jIuz3XlcjNzLgFZBaJu0vHAvLQWEAeaXeJj5yzSOKd
QXiGwhtFykrhzSA7MQrvAqJhoFaXM8iacoYcUyNsbkt1jYlwTIW6OH08ZHFr3hYa
EzmE61ugjtywROFNIl5vzZ4t0TbcetmU1qpiVDNzc88Hv9qc9vYQWsNJZBWZNFi7
FrSy2wLZn9OItl9B9Lnb2txt0ttqlv1g93comL78KcR/UUH0K3gKWb1TpESVQbWj
IUx/pgzDf8IAewTxvRwhNTFTaI9PGfR4BsXOGGBPszxSSH+HsDY997X9H5pb339+
jOs31/YvfiDpGcSrxm6dS0funMN5+qKWpy+S/lWh1ZTfDitudqU8sjalfohjDBtg
1Noi7BwMbpDVSzJmOtDtSEwRG9WChmckRCSkLMzXg3AGoQ42mjxoyfRRu100no1L
6rPOsn7x0ah6CqZfh6aR9We6Zy8I5dGck15E5pjKmznfaYVeHDDwcohGuFJ+D3xn
vRZAeinL2cA2fja4mQ+fSWpI6ysIdQ6nip7DqZKzWA09PxTC9DNoA42z0DCIDoud
sJgwOF+B3eNA3+JgI+PFJkfLLKKJnTXQxFbRe5ZoTBy3ahDJs45G8qyTkkEVaeUz
QURgvYRaR2XTugFveyhvewYeOx5yiiWE6UuvozFmSGUE4ZgRkmPm4EQj5kNfI60N
wrsp3uKgYFQMUk9LpzMFTQ3nxnY4TUl3DqQzBXWnl/Bd4mfwSl33e3VG8OnuR5fk
gZDaRCSXg22Qwwx26KeS2yToROLbpUGOG5Emr8HPkxzvImMmLP2g9SCP+5v0iNU5
hfJLKuAURku+CU3pIMQAF6c3B62H2H/lsV6VEfUdeB8Eij4pXdUhPucqGq1eQU24
X0erOw1lxfSRnX8+gFFxgYROGbutOQqHduZn/W7c+PVfS66C/FO11rkEvHqS7Mc0
6vGdNvD2HoUbC3CP8YpBTOMRLZV2ONXu3BNCpca5HUtpUlOcaj/U0ugq1pmCsqZs
MVy8bJ0pTNqRpoqlpKLT1ZEdMi15qBynNfJLewpKAuMWJpxaZ4omOR9hHsVRqF62
KiKSt4JQUQxsTY+1w5vE/FpBbwJRp0j5DC/e+E6re37Py/ndAV/SClgk1Oy+V7su
+4g07wf5jknbaknenzXI/hbht7g3abBtT0+tJdgqskrmV5O3rXB9w17iLt9V9C5f
Oh/h+R3N7TD7KnAPMqxD1mnrMtxmylvgsKz3laSXzLBVYS/pCb+h8YTfiJROvNsQ
18oGqcOO9jy54lwA3UsR0ewrmJBELOebYlXjT0890Pyt878591Uyh0kZozn+douy
op78evKHyf9Ofju5Gjx5y7cRvucVaTe00XuVQ7jIhfVA5m8v/y9R5nGodxG1NRfD
VvGeT74/eS65Ju5FI1vjPJyqje/dECZ6V72z3iXp5vuOHEjhmetzMsB1QqYOn/Wc
XtXcOk/v2kXZspq4k3mDtSId8Sfplrp8o71/QbP7L5C+XPh+r2a010uBpwqmAyiQ
a2UZ5BuOlQpuYu6efbtTUb6w66g9OgrV7wmxWzNnI7dm4hqsa4gG65pB6THsEEbf
ShZ/2jwf6LVDzXaGteoYjHHdKZG5QKPePv48sIbaER/lXk63NqXnSi9YadhFih1w
+KxrDx/hLAWhtJh1VI9JR+7GrFAZEjONYKaNYjPUIhrzbitINH5DzeCGiHOIDeFc
HzaECbAdip4XT71gpwJvJPVEx6CvR3z2wm8Vg1upUrE+UylyDPcbPSXf5UunMOdI
PnXBstJ9/4y6PyLqhx3e7yJnAe/w1Y9Li2MvHuM5ONOiOI2/PdKzRebhwL8rpMTf
opR058Y7T5nrpRUHTn+4MhJd2Fp8d7Ju3WBfcjIekopEcJrJ1XnwU65aRwLoIYnn
SV/NyyCTZ6Fup9vyOQw3MGZZeQ4DRS/YJfE1/rQ1DNyoIsM6cCq3DHBxmva0ddRK
Qpor7GtYlkPsjfuL8r7kXqKPk3u59trPAR0PeqH8M2+L0/KmDftn0Sov3nHnwPTM
3LOp1qufnW29pnXvwkxmsuLVv5aZvzCwsLh0kb1nnBv20kymOOlmSzX2PpMt2w+8
86AF//bta7229bqFVMXL5isvPHpi+Yqk8NzyY+x15V3LM5lxJ193WILq1nMr/GMu
v7Lv7pnMSL1edXKNul3IsAev9FzhsdjvD7xzVOT1Qmlg1VmcyRypO6wEI1/8wUhm
9Hv/2noDI7nusmzHs3X7ufXHXkwODXhHj83ue2vyyKnhR48fGzp18tjQIHs5Onw0
OXTq1El4SQ4PDw2fOnHimNW648WJgclrZ6dab27d17pnebmysb3UvLp98NihJqO9
sbmy756ZTKpRz+ZcO6zMRzdWHrP2WHdZ97P2PMT65QT4UJxnsy/36H+P9cvW09Yz
1iesXeuT1qesP7Q+Y/2R9cfWn1ifs/7K+oL1JevL1t9YX7H+znrB+pr1Deub1j9Z
37N+aP3I+q/EKxJ3JgYTb0scSzyeGEnMJLYS24lm4t2JX0l8KPFM4tnEbuKTiU8n
/jTx54m/SHw+8fXEtxLfSfxz4keJn9ySuOXWW162s7JT3FndWdtxd7wdf2dzp7Xz
vp2ndp7e+cjOczsf2/n4zu/vfGbnszt/tvOXO1/ZeX7nGzs/2PmX3Vt3X7V71+59
u2/ZPbB7aDe5e3T3sd3CbnG3vFvZvbZb223tvnf3w6IjbkmIv2wuavu3+zv/BwW6
w3E=-->
<defs>
<g>
<g id="glyph-0-0">
<path d="M 24.953125 -1.609375 C 24.34375 -1.359375 23.703125 -1.25 23.0625 -1.25 C 22.265625 -1.25 21.515625 -1.609375 21.375 -2.328125 C 20.546875 -6.5625 17.71875 -9.890625 15.28125 -13.296875 L 22.984375 -22.765625 C 23.421875 -23.3125 23.953125 -23.84375 24.5625 -23.84375 C 25.171875 -23.84375 25.78125 -23.734375 26.328125 -23.484375 L 26.03125 -25.09375 C 25.671875 -25.171875 25.359375 -25.203125 25 -25.203125 C 24.34375 -25.203125 23.671875 -24.84375 23.015625 -24.84375 C 22.296875 -24.84375 21.6875 -25.203125 21.015625 -25.203125 C 20.6875 -25.203125 20.328125 -25.171875 20.015625 -25.09375 L 19.71875 -23.484375 C 20.265625 -23.734375 20.875 -23.84375 21.4375 -23.84375 C 21.875 -23.84375 21.984375 -23.234375 21.59375 -22.765625 L 14.59375 -14.3125 C 12.40625 -17.46875 10.75 -20.796875 11.46875 -25.09375 C 10.828125 -25.09375 10.140625 -24.84375 9.5 -24.84375 C 8.28125 -24.84375 7.140625 -25.203125 5.921875 -25.203125 C 5.5625 -25.203125 5.15625 -25.171875 4.8125 -25.09375 L 4.515625 -23.484375 C 5.125 -23.734375 5.734375 -23.84375 6.34375 -23.84375 C 7.09375 -23.84375 7.421875 -23.125 7.5 -22.34375 C 7.78125 -18.328125 10.25 -15.234375 12.796875 -12.15625 L 4.65625 -2.328125 C 4.15625 -1.71875 3.515625 -1.25 2.796875 -1.25 C 1.96875 -1.25 1.1875 -1.359375 0.46875 -1.609375 L 0.75 0 C 1.21875 0.078125 1.71875 0.109375 2.21875 0.109375 C 3.046875 0.109375 3.90625 -0.25 4.765625 -0.25 C 5.671875 -0.25 6.453125 0.109375 7.34375 0.109375 C 7.8125 0.109375 8.3125 0.078125 8.78125 0 L 9.078125 -1.609375 C 8.3125 -1.359375 7.53125 -1.25 6.78125 -1.25 C 6.203125 -1.25 5.953125 -1.859375 6.3125 -2.328125 L 13.5625 -11.21875 C 15.75 -8.53125 17.828125 -5.765625 18.5 -2.328125 C 18.609375 -1.828125 18.6875 -1.25 18.25 -1.25 C 17.578125 -1.25 16.921875 -1.359375 16.359375 -1.609375 L 16.640625 0 C 17 0.078125 17.390625 0.109375 17.78125 0.109375 C 18.71875 0.109375 19.71875 -0.25 20.65625 -0.25 C 21.65625 -0.25 22.5625 0.109375 23.53125 0.109375 C 23.921875 0.109375 24.3125 0.078125 24.671875 0 Z M 24.953125 -1.609375 "/>
</g>
<g id="glyph-1-0">
<path d="M 7.109375 -17.625 C 6.453125 -18.078125 5.875 -18.65625 5.40625 -19.328125 C 3.34375 -15.59375 2.265625 -11.421875 2.265625 -7.15625 C 2.265625 -2.734375 3.734375 1.53125 6.453125 5.015625 L 6.953125 4.625 C 4.625 1.125 3.390625 -2.96875 3.390625 -7.15625 C 3.390625 -10.96875 4.703125 -14.65625 7.109375 -17.625 Z M 7.109375 -17.625 "/>
</g>
<g id="glyph-1-1">
<path d="M 12.421875 -5.296875 C 11.5 -5.53125 10.546875 -5.671875 9.59375 -5.71875 L 9.640625 -8.0625 C 8.90625 -7.9375 8.140625 -7.9375 7.40625 -8.0625 L 7.453125 -5.671875 C 5.84375 -5.53125 4.25 -5.171875 2.65625 -5.453125 C 5.84375 -8.859375 8.140625 -13.03125 9.296875 -17.578125 C 8.390625 -17.421875 7.484375 -17.421875 6.578125 -17.578125 C 6.171875 -12.9375 4.046875 -8.609375 0.625 -5.453125 L 1.109375 -4.5 C 3.21875 -4.125 5.34375 -4.671875 7.484375 -4.75 L 7.5625 -1.625 C 7.578125 -1.234375 7.28125 -0.875 6.875 -0.875 C 6.40625 -0.875 5.953125 -0.953125 5.5 -1.125 L 5.703125 0 C 5.96875 0.046875 6.25 0.078125 6.53125 0.078125 C 7.203125 0.078125 7.859375 -0.171875 8.515625 -0.171875 C 9.1875 -0.171875 9.84375 0.078125 10.5 0.078125 C 10.796875 0.078125 11.078125 0.046875 11.328125 0 L 11.53125 -1.125 C 11.09375 -0.953125 10.640625 -0.875 10.171875 -0.875 C 9.765625 -0.875 9.46875 -1.234375 9.46875 -1.625 L 9.5625 -4.59375 C 10.421875 -4.46875 11.25 -4.21875 12.046875 -3.859375 C 12.109375 -4.375 12.234375 -4.84375 12.421875 -5.296875 Z M 12.421875 -5.296875 "/>
</g>
<g id="glyph-1-2">
<path d="M 5.59375 -6.65625 C 5.59375 -11.078125 4.125 -15.34375 1.40625 -18.828125 L 0.90625 -18.4375 C 3.234375 -14.9375 4.46875 -10.84375 4.46875 -6.65625 C 4.46875 -2.84375 3.15625 0.859375 0.75 3.8125 C 1.40625 4.265625 1.984375 4.84375 2.453125 5.53125 C 4.515625 1.78125 5.59375 -2.390625 5.59375 -6.65625 Z M 5.59375 -6.65625 "/>
</g>
</g>
<clipPath id="clip-0">
<path clip-rule="nonzero" d="M 1 17 L 27 17 L 27 43.179688 L 1 43.179688 Z M 1 17 "/>
</clipPath>
<clipPath id="clip-1">
<path clip-rule="nonzero" d="M 30 1 L 54.585938 1 L 54.585938 26 L 30 26 Z M 30 1 "/>
</clipPath>
</defs>
<path fill="none" stroke-width="0.398" stroke-linecap="butt" stroke-linejoin="miter" stroke="rgb(3.529358%, 13.33313%, 22.744751%)" stroke-opacity="1" stroke-miterlimit="10" d="M -0.000192708 0.000279514 L 7.590953 0.000279514 " transform="matrix(3.6, 0, 0, -3.6, 0.6296, 12.9346)"/>
<g clip-path="url(#clip-0)">
<g fill="rgb(3.529358%, 13.33313%, 22.744751%)" fill-opacity="1">
<use xlink:href="#glyph-0-0" x="0.6296" y="43.0632"/>
</g>
</g>
<g clip-path="url(#clip-1)">
<g fill="rgb(3.529358%, 13.33313%, 22.744751%)" fill-opacity="1">
<use xlink:href="#glyph-1-0" x="27.9572" y="20.4768"/>
<use xlink:href="#glyph-1-1" x="35.815278" y="20.4768"/>
<use xlink:href="#glyph-1-2" x="48.870231" y="20.4768"/>
</g>
</g>
</svg>
