<?xml version="1.0" encoding="UTF-8"?>
<svg xmlns="http://www.w3.org/2000/svg" xmlns:xlink="http://www.w3.org/1999/xlink" width="55" height="43.36" viewBox="0 0 55 43.36"><!--latexit:AACrr3javT1tkBxHdbO2MUZgn2zzYRsIZywbychi7yRZH44C9ymddXt32j3dnaST
jv2Y3du72dnR7uydTudNbVEQgkiqTFLBSUg52HwUdyEkUKlUIB9VKRKgqARim89U
fhD4EVJQ+QFJJZUv0v26e2Z2d16/3hVBV7qbmdfv9dfr7tfvvX6d85xy3U8mv5a4
5dbbXnb7y/cs7duwa/Vy1b2wL1vLr5bZ2/w+v+ot7avm1uy8X7/HSvzSh1f2Dsxk
ztpbdmFEJnrhjlfM16pVv5X4g70PvvJVDz/ylv0HHn3rwccOve3oEz//jvEnz55L
X7x0JWsX1yqe3zi/z204zkt33jWw94F9izOZQ+v2Vv0i+yszWdiXd7L1+s7d99z7
6te89nX33d+6pXVr67bWy1q3t17euqP1itaende/4Y0/96bBB9/8UOuVrVe17moN
tO5uPdB6feuNrZ9rDS7lsnXbKbv2+XzVqdbmK9WCfd4v+4695NXsbCXn2Jcr2ZJb
LpbzWZ9Vd76Q9W1WrVw2v16qVRtuYYwjXqxXG7W8PW9f8x96+xf3nPI+8s09LyWH
BoYPHzk/k0mfHl2eyUDCjJfN27N79ycPJQ8fOXZi6MSJ40ePDSYPDR0efvzosWTy
8SPsZXj4+NHHk+zfMWtvonXni48fO37ioqiqm63YS+LRri9Kos8fP7k0k5mFNtlr
vThw6hfefoE1Ut2vld1Sa+8cIzAyCn2RavhZVqcMQD4yMsbxxMtLEwOTp89MBe+s
wCM+e8o1fLveuqd1f+ve6t2Z37OWrYJVtfJWw6pYtuVaPnt2rKxVZz+X2N8jlsd+
ewxWsy5b2+y5xtKUIZVtNa09jEKDpbUhXd5aZ79L7O2StWmtMso8FcfLWdcYdI3B
11gK39oCmjp88dVl77xkdeugNcjKusHy9thb+J1T57R5XlVWOkGzwGBFltZlf0PY
tpVheAX2w8s1yr5UWTldhrNtnbHmrZQ1Dc/HGeyIddQasg73QO80+2JDmbvpJa0x
RnGE/cbrvA114i2/xf7mWMpB62HbWxm4cV/m3zVYFWjRVfa/CiWrC8xz73n6+8mS
pCnTJH9t/qlk/dx/Ji8kM8nV5Lrz/ezAT+7S0M6zJ5f9thldUfJxaAEHOMFmNRR5
j7AvHvubZeW22ZdtllKVi9NwoB1mWfoMPOWhVFvwXIHfrpYbOAVH9vWWtg05d65b
19vSqG8O+5tj5eZl32Jp61BiD/jokCwn79kGw+AcV5C9XYOalNmTCyk9WbMa5O9A
CThvlBiOoJJnTzwXwWEcpwLlyGrLXmHfHchJ4PG0ezTpS1Ay3u58RF4jxpPPOPg4
tCEvqwdfbOhd4JeN68/8OHMy/fD2I8nnkz9Ifj35XPLbyc8nv5R0N/41/7FzdvpD
Guqqr8UcwecRX47Gn+5YxKnNQXuXWelG2bcGzC7tlJLs54T1uDXJfnSUGuxLGdqm
k4LN8I+y0gwzShoK7/p084Vn0gGfb7F24s9DjCeSjBOS1jH5NMR+h0+6MlXgmy9H
TOfckmdlykI/6rjFY3+LwK9V4G99ah/awIGxYUvay5GvRSiZ6Hc+2kUqNUqajCdy
kBOneZnhbkNpRT94LF0Tvu1hnCd+liP1zbHf17pqvQxzSwm+8dqUIb8GjMKmtR/a
krfjAZaS83UhJlWzLcdVVmpRb7utXGEKN6ilAzXmpeHfp4HbeEvxUhWh9pz7eGvh
OQwHOfD/l6BF9XUaAq49CLWK0hWjdz8bE7zORxl0u60F29tuGWY+zlP7JRfy9IeB
dlP2LNZiHLYMvzfa6vIY4Kv6XO7gDpVSzIpx/CHaOw9Ph9kIOMrg11jdPBi9dfbE
R4X4Juqivg7DVzGiQrz2NEMyDefwh+FnMPfDlbf85hUoJ2+JTWitCvStqPkyrF51
4N0hmMl4u21Az/rWQ+zbMntS700NnZEYOnzE+NZTAZ0ya5dV+KKnNNpBKQeYJUZR
0VJfagQtxctRaoqGHnMmBlPVaDmmTjS92S56Yb2WY2pGURyFlTAPHBtXxu2YMjYJ
iukYitFSbseUUk/Tk1KTG1vK/V1lPKClNhdLLSzN/o7yOQS9nGzDdZBU2kuYhXHM
S6rKGH4xofnToTaqKaHq6TjqYZ/3mtP/Zx6ibXrPQT8S8LZ56ibKmrGusrk1K9eE
btqXumhfJuidi6UX8uqlrtF1Wa5GGM0qm5ujtKpyrlZrnxiv+hHa6BhNDYD0SmWz
owc2GW5B7kMceDKjshpLZVXKXIrCHu2M4wGNYUmjKPk6nI14mbh0MyjpxUOGyZlN
5XT4pnOK+3qYyJ/vI+LrWYjkV4jURddqRZCixP4lyuvhd8Xt0ZQ4vUmEXjjauylH
x6hZLnytKsNOO5qH+qrohqlwSmOxlMLSdtKMljWkrx+reSmf2iBTZdtyEyvXZaK2
VQ0FMXscIGo5q6Ggm9sOtEuWM7/cvO3Gs1BfsR7H51dm1IqS75+I6Ee4JLQdQDlM
33aTUNK63J920olCdbWfZ+kbCI0QRvUix+Gttwk773hqcan0dOss9zy0tJjrsDbj
ehWf/Q9bLeiThn3jPm0eebaDbsboqbbhu67lOvFy7IfGyoPWIS6/SRJzHMEcJzCL
1lIHppgX19m3JRL3Aop7gcS9iOJelLi6kXIGqe8ZsqX6xSx2YYYlpnBzXbiCIyi8
EaSsI2Qt9Zg6rnfYW0FiO6AbzrH3LIE1HcGa7sAKRtzmdzMesb/mo78q6VyLzKeh
ppRDDsIMUAErxCp84T0hZg6lGXoMtGZH5O5fULRBOyv0FqplxGySh7w80HpxjYgD
eps6+1aBFmtCrk2yFWqRkoZz0hMAE2tFXJ1UKqXNle1VffX2M5fmNDr1WWl3yUpd
Ks9PaHwLsfNsCGv2RLMGM3QcRQXpjV6BtYGQvEtSvxy/Loh0vVL3QQrqpia+N+W6
7YMUWZPzDKd7radcPJmLR8hcZaQvyrIf9mjXkSzIzN3YCqKXeKvSctKJPS4hguf0
ElR86cckhKLAR5uH1CGExfB+8+8X3z/zPdu7VNS20AZoDGttkn27vlTkyUcdnwWE
nLYsdxGhRrM9VdMgx1rbXsY8z2XYq/SXdwXSXYOcjxjm/EhbvvztSJ+512PzDzVW
naWpS62403OpMEx9+c7CGI3jNAWhuJVz9TpKJQo1oVRGRl8IU1R6mYl5HuvIXKxg
Te36nkfKpSC9lajO+lto69UTnvdpaZHqzFl812uD4jEzJGYW7KVxuArSDGed9728
Ofi+75WelrOOTgJNI2tWWurJDpIy7BTSD1NGc/PpwGbe3ZoCotcMY30xZ9Abc2h/
zBn0yDT7UorFVhDVerq2r6OtXzegoCxM3TtR16DtxZ5zTFLo1LotA4TGT0v8EC9N
tvsC0uqHGOQQKQ+UQTLHJK1sMPrx/Qjn52wshRCm7/tQohHPTmBD0e29OndPRfZe
JHdBaWQXlCYxhR9H/LwRQqkWnw1aexa8O0rQPrpVg6+corZj1hWQHl3YNWxp8eyg
TW3wfSqDNtAluQGrYQjTjyGlhW3K9259LcUNNtgWfNBjx80HUXhknv7gF+bvSK7O
pjb+g9DgzCIcMEtywCKCuWignaBy1eFmENwMUeLzCN55sqb9YsbPRQsEVjpWE0KN
yJlYrBlS79If3hgit1G5jcXmRuFdRNr/IoF3Lja3c2Qp+8ObR/p7nuzxWda747G4
CkJpoTENNNWLfCbC9q8KRq318zDPxZegSu7Bx2EmzSO7cAWjdhIFDZV2OEVpnKBk
VqbzqEx9PpCpdesG1isK0tsOhNNYi6WnIPrxkIkdDxlSFhuDNdZFJLIQ2qYDXcmt
DNywbjzr337jG9q1K21NMEl8oks/r+TcENokqMTJTuJ7ZEUF32ThKTrIOJtbY6rg
A7tHuyvj+1iP4XrICt6ZQr+jwaiYYCvP2Hg+aBjwJZe1NhBdnSv1kJGevPBA+Vuz
GW37jKO6BAXRjxOuIcsF0pXQmNa7vKfV2PGkp08z0LzlZGqTfLybyMczyifcr2YD
X3C9PiduXJ4lNQUewonUXF1C7Tslcj+HYa72PJtNWNdkDdTTslaDgOsQqN3clDxD
EI+dM9gjFVAdVxRKazJqyKivtc9RXB+sHW8jyLoyEqwq+A6zLG1DmLZapOB1CVPp
+XAW4cNZEvM8gnmeHGF56bcteqghvVFDS1NofdLPpVXwBVX6iSpoPuMsV9SutCxp
+CxFFVYVbn/qlVIGUuaQVlEw2rM1Dl9B9DJg3Ew0T2pLil2aC8WPRVJ7UWub/YUO
PPTEU54nNAUPoWDGCaIM3G5ouj60Y/S6FvE5L34NVxB9aXMB97fnqcPx2nA8A5wp
ROorG2kP51FenDfgRS846bBNzkFX0XXpKilNYZgVcl3oV4MxGXjUxvksKRil2c3A
mppHZQDbiEquy4NCjPkRcu7eQlZEBdHPGNh+YiTYSyxrfGIwafOMgbQ5Kn3yurEV
RF9vTCOvIPqeX+jiGtXvC5Jv2qSAjXdz3d+VX5w9T9iHzwSrWGeLVMnd8iKyS140
sLBh9jVq7JQQaapEtmAZWR8VRF/XLaTvFUSPvYrgdmhtVz6Vvt2gz2ps9xy/p6ZW
zAlk5WgScko4o9oGGtr1SPp1g7apBdr0eB+FUSMfhdEYS72ulAtypuv2dse8qtpb
TfmO6/c9nWdL4mnoS5rr8O+vgge8OuNchbUj9GQPuOnc/9get9VqeWlKnl6N2+O4
5HjMavCzRhTOIPPaGXI1FCcj4+eRKpnvNGpROcSeD5FSWCi5d44lAdFLVA66Lwxh
+rUoi6yDCqJvc75e5ZB2VzBKCsVkUFrHiulWqVbLIi2WJfc23ef22v3x1YnEZem/
4krvyGHpHXmzacX5icEOT3+a0s2npizeGzB/xNs4FUwv1whr7wYi24RQ2tsjXiqe
Mti5usGJc8zng6egZAsPtWd7ZEs6GnzHiEIe9UZUEP2YzsLJ3fgxrWD6fVNN6i7j
ZeR2OKUnFtqgcuTkefdOsGhgUcugNrUMKbXUkfZQED02ts+2DfbZU/LM2zV0ZVVQ
ai+cYT9pZGxlSKvwBtICG3Dug9L4pdA9bopcH8a7sNUKMU5izwe+4Z29vkmWeQwt
M22ddgO5NU7Cckn8mha/ZuD5U4k9IaCbdUIcxxCnCpA4m9cQuVpkA0xfjgN+jiDL
eMk28K7KBtzYiU1zox9orqO4lG0vhdgGU6R8tYBIVwtGetSKZh2KwvV920BkNAUx
sRtkNTbDEKrXudTB/8xF5sN2eJOw9ulpdabQ99EU4mOpIPqZYhqdKaYN6tEMnpwg
JpHcd11PpSnbtZBt+j+9xNONItijZOn7Owl3AcG7QJa2f0yebgzBHjOQKbOID3I4
Y9EnPPr1Pip2nVYMOWySxJ1CcadILU9/fmf5Lu2QqukEuTOLnsOpwy6Ew8O5WpTg
MaCCn9MxswE/Knu2JnMRMpZ451pr9a0/emUpBUTplQlP0TzJo3qZ3wvskeLNgdN3
ag7EsZ9Ecn2S7C8eq3CmTaskvq0EEVmELXeGLD+3B7VTEt96p5SNoZTtg1IGaoLX
7RTIOea+wwLbjVjABC23T0qVLkqVPimtd1Fa75NSuYtSuU9Ka12U1nqmJDjIjVjp
vT5bXHBQSCl7E5R4Kda7yrTeJ6VyF6Vyn5TWuij13uJC5+gGO4lywOPLMEu206FW
3WlkXpom54B+McdQ64xD5jmD5DlDysWdeyG1yvUiXeg92Nop50GzzaGFPjwH8oQX
m1leZp5sm4F0ugnUR8mynUZ64TS5ay4j/kgK0pt32Th5JljPE2PIHmmMjIiB6WFT
gRY29EWdhAirIlpijbTxzCFS8BwZ4WQz0D1tykgA7dZ+dSILo/Fo7DmmKB2uUdwG
/AfbqIu1XkSu6vTMaWi8/h6VvTgS6EPsyAkcs1xHIUKCXtfTn8dTIdAIFsDSI+Iz
DBK5FYLyt2P5BFY9Fqse5STbm9tH8k8NuM1FfAejUPrMWEFzYqxgdD6vpDmfVyIj
BnBPxzXUB3KN9GkvIiOpSEqlJUSLW+q02177XP29hP4gC7PwVXIu327Trm0zuYBq
YTOqBUN6+a69qJrXF0h/jRTirZEiT7mnkTPuaXLnnENsjAqix86j2HkSew7GUQ7h
LgXTUVhCWnqJXHnsiGa2c+1RsCbBjWEsl3je01mLqrHYZYZZNbBS2LHYRSOddL/x
pHJdmGL+p/CoM5M4d1TBRyaeOxRM38rlGA06b2P+v0C21GaHnTe0NdchrmUZzu6a
+CovQLp4DVWWtJLExzxyiYhI+D4G5+kGojmk7cjzSC/PG8S8rBrMvpuBRO6TXhMF
Q5qFHmjWDWnWe6DpGdL0eqBZ0dCsGFPZ0FDZMKYyJiOfY74vroHvtvDjdxCLejtc
f1bYQ0/9XrHeSlgPUx1tEUZ1xeIA6ufvOVTTPUe2SDmIrdLdGgrW6/6vLHtVPe3p
8XSS6uWJQH9rjj0He70tKUdE33R2sKqM0BVvCwuheikgXB8OWk+R/t8VSC9unoji
PtEBe6qPGD7TUoITf3Vjag4ZT3Pk+j0eOwLoaJCLKLcukna3aY3lDdd56TRtNSPf
Uhy7v3P8V+GnEYmiF74vRyDBjuadf700RJ7nzYG3UFx5FKTXuEvlwDc1fA7K9IGv
XpojSmTLKGZxPkC1zrN3Jevpcua1RCy2LJz6yUJJHXlOqZMPyzJS2IPW2+B76O13
FM7pvg1g9Gh2QYtbtq7H+Gx0w+kzTmvy9olwNYyu9NEUgwbrYRrxn02T3rNjsR4s
0ZXUNvDO8lHPrI6IV7bn3w43+Xw0+eXkj5OfJWKF15CSecHtKbq1tRKsrWE0nIhm
YG6WnxCwP3v9lSsDUA4Vp1HEgYxGauxt1SoEq5560usInNjY41TsT8zXe9rA2zuN
YqcNsHPS/xP3zlo28BANI12X0RNqZifcMl3xbpU26IzBrL9x0zVxY/2/XHIeiFor
MobnB8UpWwfR+ylYZMRdOd7B5biXIeaDT3vgY1KjS+7RxH1wlUDXE3czwXJbqkjd
mldv3JH+EHG+ZwJOWsfXzJW7qjAi3/dKT5MU82j7O+R+W8dr1zp1l7x+G+9e+E7p
d/KfIFbXceQkwDi5dkwhHi5TUqsYnqf6h8Z+XiLZOr3ErnVk7FqHsPdMoRafKVKO
qqDjohKMCn30Wj9iT6jCSnyNjEyTQlpPQfR7jWnk7L2CdKycvPV7bPss6Et9yHU1
8MWJfqH8aXI/w2i3ua49iNhJzBl6/vRm/1WnCHqz/DoRG2k7RSdiI9X1OdbjVLya
uJY5TWonRmPzmyGtyNVA889b0iRepCNlYK4TbPd+EN9W+tIdCgr1Ni+W6Dc91V68
1sRJhtCuL9753r2utZIqrb1vEEue1v+PyXuD4uXxDXIknEP2xefI+HpjiB6Znnlz
yLybIy38G6j+OoTpZ4zR2HExSuItxuItkrJOAZF1CqSsY3J3kq7EF2NLfJGcccSO
twpRqRxEyhs1OrOPnWYywU5pImaljCJmjWotN6OGthulY6qjuidTCusohXVS5ppE
ZC7aVrYUywVLJJ6J7KnfrRUikV8Pxt6CIW6TPQoet83IXQ5ZWClFqksw45alFHGK
5cVHxAm4+XPb2ifjAYl9cZ29Nw3iZ0x1rY6qPU8bxITdQGwAIUzP13MIT88ZRdCo
RO72jY+kEabQ74LXoc0cNOpyZwoqkmQNbl5dlXoRLKZkZypqBvERu34I0/PxRCz/
T5B4/clPKcZDGSTSQwijTtaXYrSxPsz7USh1gtJDqUSheungLCIdnCX3R07H3shs
R+V1YHnkKum0+To6pFQsTuPW0dj0DYPzqcWu00PhXE6dHwpvZIwrQRRK6bE25Q1j
0TGiPAWj3/VnRSuIroMa8dc78m7PdSVyMzNuAZlF4u7SsYBcNBaQS9pd4iPnLJJ4
pxGeofBGkbJSeDPITozCO49oGKjV5TSyppwmx9QIm9tSXWMiHFOhLk4fD1ncmreF
xkQO4foW8JEblii8ScTrrdmzJdqGWy+b0lpVjGpmbtzxga82p907CK3hJLKKTBqs
XQta2W2B7M9pRNuvIPrcbW3uNultNct+sPs7FExf/hTiv6gg+hU8hazeKVKiyqDa
0RCmP1OG4T9pgD2C+F6OkJqYKbTHpwx6PINiZwywp1keKaS/Q1ibnvvqgx+cW3/w
3BjXb649uPj+pGsQrxq7dS4duXMO5+kLWp6+QPpXhVZTfjusuNmV8sjalPohjjFs
gFFvi7CzP7hBVi/JmOlAtyMxRWxUCxqekRCRkLIwXw/CGQQfbDR50JLpo3Y7aDwb
h9RnnWH94qFR9RRMvw5NI+vPdM9eEMqjOSe9iMwxlTdzvtMKvThg4OUQjXCl/B74
znotgPRSljOBbfxMcDMfPpPUkdZXEOocTg09h1MjZ7E6en4ohOln0AYaZ6FhEB0W
O2ExYXC+ArvHgb7FwUbGi02OlllEEztroImtofcs0Zg4bs0gkqePRvL0ScmghrTy
6SAisF5C9VHZ1DfgbRflbdfAY8dFTrGEMH3pdTTGDKmMIBwzQnLMHJxoxHzo66S1
QXg3xVscFIyKQepq6XSmoKnh3NgOpynpzoF0pqDu9BK+S/wMXqnrfq/OCD7d/eiQ
PBBSm4jksr8NcpDBDvxUcpsEnUh8uzTIcSPS5DX4eZLjHWTMhKUftB7mcX+TLrE6
p1B+SQWcwmjJN6EpHYQY4OL05qD1CPuvPNZrMqJ+Gd4HgaJHSlc+xOdcRaPVK6gJ
9+todaehrJgesvPPBzAqLpDQKWO3NUfh0M78rN/167/x68lVkH9q1jqXgFePk/2Y
Rj2+0wbe3qNwYwHuMV41iGk8oqXSDqfanXtCqNQ4t2MpTWqKU+2HWhpdxTpTUNaU
LYaLl60zhUk70lSxlFR0Oh/ZIdOSh8pxWiO/tKegJDBuYcKpdaZokvMR5lEchepl
qyIieSsIFcXA1vRYO7xJzK9V9CYQdYqUz/Dije+0uuf3vJzfy+BLWgWLhJrd92jX
ZQ+R5r0g3zFpWy3J+7MG2d8i/Bb3Jg227emptQRbRVbJ/OrythWub9hD3OW7it7l
S+cjPL+juR1kXwXufoZ1wDplXYLbTHkLHJT1vpx0kxm2KuwhPeE3NJ7wG5HSiXcb
4lrZIHXY0Z4nV5zzoHspIpp9BROSiFX+lljV+NPTDzV/+9xvzX2VzGFSxmiOv92i
oqgnv578YfK/k99JrgZP7vJthO95VdoNbfRe5RAucmE9kPnbS/9LlHkc6l1Ebc3F
sFXcF5LvS55Nrol70cjWOAenauN7N4SJ3lXvrHdJuvm+IwdSeOb6nAxwnZCpw2c9
p9c0t87Tu3ZRtqwm7mTeYK1IR/xJuqUuz2jvX9Ds/gukLxe+36sb7fVS4KmC6QAK
5FpZAfmGY6WCm5i7Z9/uVJQv7Dpqj45C9XtC7NbM2citmbgG6yqiwbpqUHoMO4TR
t5LFnzbPB3rtULOdYa06BmNcd0pkLtCot48/F6yhdsRHuZfTrU3pudILVhp2kWIH
HD7r2sNDOEtBKC2mj+ox6cjdmBUqQ2KmEcy0UWyGekRj3m0FicZvqBvcEHEWsSGc
7cOGMAG2Q9Hz4qkX7FTgjaSe6Bj0fsRnL/xWNbiVKhXrM5Uix3C/0VPyXb50CnOO
5FMHLCvd98+o+yOiftjh/S5yFnAPXvm4tDj24jGegzMtitP422M9W2QeDfy7Qkr8
LUpJd26885S5Xlopw+kPR0aiC1uL707WrevsS07GQ1KRCE4xuToPfso161AAPSDx
XOmreQlk8izU7VRbPgfhBsYsK89BoOgGuyS+xp+yhoEbVWTYMpzKrQBcnKY9ZR22
kpDmMvsaluUAe+P+orwvuZfoE+Rerr32c0DHhV6o/Mzb4pS8acP+WbTKS3feNTA9
M/dcqvXq52Zbr2ndtzCTmay6/tcy8+cHFhaXLrD3TPm6vTSTKU462VKdvc9kK/ZD
79hvwb+9e1uvbb1uIVV1s/nqi48fW74sKTy/fJK9rrxzeSYzXs77ZZagtvX8Cv+Y
y6/svWcmM+L7tXKu4duFDHtwS88XTsZ+f+gdoyKvF0sDq+XFmcwhv8xKMPLFH4ws
fvPfPtZ6AyO57rBsx7O+/fz6yZeSQwPu4SOze9+SPHRi+PGjR4ZOHD8yNMheDg8f
Tg6dOHEcXpLDw0PDJ44dO2K17nxpYmDy6pmp1pta97fuXV6ubmwvNa9s7z96oMlo
b2yu7L13JpNq+NmcY4eV+cjGyknrDutu6wHWngdYvxwDH4pzbPblHv3vtn7FesZ6
1vqEtWt90vqU9YfWZ6w/sv7Y+hPrc9ZfWV+wvmR92fob6yvW31kvWl+zvmF9y/pH
65+sH1o/sv4r8YrEXYnBxFsTRxJPJEYSM4mtxHaimXhX4lcTH0w8m3gusZv4ZOLT
iT9N/HniLxKfT3w98e3EdxP/nPhR4ie3JG659ZaX7azsFHdWd9Z2nB13x9vZ3Gnt
vHfn6Z1ndj688/zOR3c+vvP7O5/Z+ezOn+385c5Xdl7Y+cbOD3b+ZffW3Vft3r17
/+6bd/ftHthN7h7ePblb2C3uVnaru1d367ut3ffsfkh0xC0J8ZfNRW3/dn/3/wCY
xsPP-->
<defs>
<g>
<g id="glyph-0-0">
<path d="M 24.953125 -1.609375 C 24.34375 -1.359375 23.703125 -1.25 23.0625 -1.25 C 22.265625 -1.25 21.515625 -1.609375 21.375 -2.328125 C 20.546875 -6.5625 17.71875 -9.890625 15.28125 -13.296875 L 22.984375 -22.765625 C 23.421875 -23.3125 23.953125 -23.84375 24.5625 -23.84375 C 25.171875 -23.84375 25.78125 -23.734375 26.328125 -23.484375 L 26.03125 -25.09375 C 25.671875 -25.171875 25.359375 -25.203125 25 -25.203125 C 24.34375 -25.203125 23.671875 -24.84375 23.015625 -24.84375 C 22.296875 -24.84375 21.6875 -25.203125 21.015625 -25.203125 C 20.6875 -25.203125 20.328125 -25.171875 20.015625 -25.09375 L 19.71875 -23.484375 C 20.265625 -23.734375 20.875 -23.84375 21.4375 -23.84375 C 21.875 -23.84375 21.984375 -23.234375 21.59375 -22.765625 L 14.59375 -14.3125 C 12.40625 -17.46875 10.75 -20.796875 11.46875 -25.09375 C 10.828125 -25.09375 10.140625 -24.84375 9.5 -24.84375 C 8.28125 -24.84375 7.140625 -25.203125 5.921875 -25.203125 C 5.5625 -25.203125 5.15625 -25.171875 4.8125 -25.09375 L 4.515625 -23.484375 C 5.125 -23.734375 5.734375 -23.84375 6.34375 -23.84375 C 7.09375 -23.84375 7.421875 -23.125 7.5 -22.34375 C 7.78125 -18.328125 10.25 -15.234375 12.796875 -12.15625 L 4.65625 -2.328125 C 4.15625 -1.71875 3.515625 -1.25 2.796875 -1.25 C 1.96875 -1.25 1.1875 -1.359375 0.46875 -1.609375 L 0.75 0 C 1.21875 0.078125 1.71875 0.109375 2.21875 0.109375 C 3.046875 0.109375 3.90625 -0.25 4.765625 -0.25 C 5.671875 -0.25 6.453125 0.109375 7.34375 0.109375 C 7.8125 0.109375 8.3125 0.078125 8.78125 0 L 9.078125 -1.609375 C 8.3125 -1.359375 7.53125 -1.25 6.78125 -1.25 C 6.203125 -1.25 5.953125 -1.859375 6.3125 -2.328125 L 13.5625 -11.21875 C 15.75 -8.53125 17.828125 -5.765625 18.5 -2.328125 C 18.609375 -1.828125 18.6875 -1.25 18.25 -1.25 C 17.578125 -1.25 16.921875 -1.359375 16.359375 -1.609375 L 16.640625 0 C 17 0.078125 17.390625 0.109375 17.78125 0.109375 C 18.71875 0.109375 19.71875 -0.25 20.65625 -0.25 C 21.65625 -0.25 22.5625 0.109375 23.53125 0.109375 C 23.921875 0.109375 24.3125 0.078125 24.671875 0 Z M 24.953125 -1.609375 "/>
</g>
<g id="glyph-1-0">
<path d="M 7.109375 -17.625 C 6.453125 -18.078125 5.875 -18.65625 5.40625 -19.328125 C 3.34375 -15.59375 2.265625 -11.421875 2.265625 -7.15625 C 2.265625 -2.734375 3.734375 1.53125 6.453125 5.015625 L 6.953125 4.625 C 4.625 1.125 3.390625 -2.96875 3.390625 -7.15625 C 3.390625 -10.96875 4.703125 -14.65625 7.109375 -17.625 Z M 7.109375 -17.625 "/>
</g>
<g id="glyph-1-1">
<path d="M 12.421875 -5.71875 C 12.421875 -8.9375 9.96875 -11.671875 6.796875 -11.671875 C 5.578125 -11.671875 4.375 -11.28125 3.390625 -10.546875 L 3.890625 -16.375 C 5.140625 -16.203125 6.421875 -16.125 7.6875 -16.125 C 9.046875 -16.125 10.375 -15.6875 11.46875 -14.921875 C 11.46875 -15.6875 11.546875 -16.453125 11.71875 -17.203125 C 10.875 -17.53125 10 -17.703125 9.09375 -17.703125 C 7.328125 -17.703125 5.625 -17.328125 3.890625 -17.328125 C 2.96875 -17.328125 2.03125 -17.40625 1.125 -17.578125 C 1.375 -14.640625 1.3125 -11.671875 0.875 -8.734375 C 1.40625 -8.65625 1.90625 -8.515625 2.390625 -8.265625 C 2.390625 -9.96875 4.375 -10.71875 6.328125 -10.71875 C 8.6875 -10.71875 10.171875 -8.28125 10.171875 -5.71875 C 10.171875 -3.1875 9.046875 -0.703125 6.796875 -0.703125 C 4.75 -0.703125 2.640625 -2.5625 2.640625 -4.546875 C 2.03125 -4.09375 1.359375 -3.734375 0.625 -3.515625 C 1.8125 -1.203125 4.1875 0.25 6.796875 0.25 C 9.96875 0.25 12.421875 -2.484375 12.421875 -5.71875 Z M 12.421875 -5.71875 "/>
</g>
<g id="glyph-1-2">
<path d="M 5.59375 -6.65625 C 5.59375 -11.078125 4.125 -15.34375 1.40625 -18.828125 L 0.90625 -18.4375 C 3.234375 -14.9375 4.46875 -10.84375 4.46875 -6.65625 C 4.46875 -2.84375 3.15625 0.859375 0.75 3.8125 C 1.40625 4.265625 1.984375 4.84375 2.453125 5.53125 C 4.515625 1.78125 5.59375 -2.390625 5.59375 -6.65625 Z M 5.59375 -6.65625 "/>
</g>
</g>
<clipPath id="clip-0">
<path clip-rule="nonzero" d="M 1 17 L 27 17 L 27 43.179688 L 1 43.179688 Z M 1 17 "/>
</clipPath>
<clipPath id="clip-1">
<path clip-rule="nonzero" d="M 30 1 L 54.585938 1 L 54.585938 26 L 30 26 Z M 30 1 "/>
</clipPath>
</defs>
<path fill="none" stroke-width="0.398" stroke-linecap="butt" stroke-linejoin="miter" stroke="rgb(3.529358%, 13.33313%, 22.744751%)" stroke-opacity="1" stroke-miterlimit="10" d="M -0.000192708 0.000279514 L 7.590953 0.000279514 " transform="matrix(3.6, 0, 0, -3.6, 0.6296, 12.9346)"/>
<g clip-path="url(#clip-0)">
<g fill="rgb(3.529358%, 13.33313%, 22.744751%)" fill-opacity="1">
<use xlink:href="#glyph-0-0" x="0.6296" y="43.0632"/>
</g>
</g>
<g clip-path="url(#clip-1)">
<g fill="rgb(3.529358%, 13.33313%, 22.744751%)" fill-opacity="1">
<use xlink:href="#glyph-1-0" x="27.9572" y="20.4768"/>
<use xlink:href="#glyph-1-1" x="35.815278" y="20.4768"/>
<use xlink:href="#glyph-1-2" x="48.870231" y="20.4768"/>
</g>
</g>
</svg>
