<?xml version="1.0" encoding="UTF-8"?>
<svg xmlns="http://www.w3.org/2000/svg" xmlns:xlink="http://www.w3.org/1999/xlink" width="55" height="43.36" viewBox="0 0 55 43.36"><!--latexit:AACrr3javT1tkBxHdbO2MUZgn2zzYZuvM5aNZGSxd5KsD0eB+5TOur077Z7uTtJJ
x37M7s3d7OxoP+50Om9qi4IQRFJlQgUnIeVgQyjuQkggqVQgH1UpEqCoBGIbCKTy
g8CPkILKD0hVUvki3a+7Z2Z35/XrXRF0pbuZef1ef73ufv3e69c533Vq9WTy64lb
br3tZbe/fM/Svg27WnMq3oV92Wp+1WFv8/vqFX9pXyW3ZufrtXusxC9+dGXvwEzm
rL1lF0ZkohfueMV8tVKptxK/v/fBV77q4Ufeuv/Ao287+Nihtx994ufeOf7k2XPp
i5euZO3iWtmvN87v8xqu+9Kddw3sfWDf4kzm0Lq9VbvI/spMFvbl3WyttnP3Pfe+
+jWvfd1997duad3auq31stbtrZe37mi9orVn5/VveOOb3jz44Fsear2y9arWXa2B
1t2tB1qvb72x9abW4FIuW7Ndx7PP5ytupTpfrhTs83Wn7tpLftXOlnOufbmcLXlO
0cln66y684Vs3WbVymXz66VqpeEVxjjixVqlUc3b8/a1+kPv+NKeU/7H/n7PS8mh
geHDR87PZNKnR5dnMpAw42fz9uze/clDycNHjp0YOnHi+NFjg8lDQ4eHHz96LJl8
/Ah7GR4+fvTxJPt3zNqbaN354uPHjp+4KKrqZcv2kni0a4uS6PPHTy7NZGahTfZa
Lw6c+vl3XGCNVKtXHa/U2jvHCIyMQl+kGvUsq1MGIB8bGeN44uWliYHJ02emgndW
4JE6e8o16natdU/r/ta9lbszv2stWwWrYuWthlW2bMuz6uzZtbJWjf1cYn+PWD77
7TNY1bpsbbPnKkvjQCrbalp7GIUGS2tDury1zn6X2Nsla9NaZZR5Ko6Xs64x6BqD
r7EUdWsLaOrwxVePvfOS1ayD1iAr6wbL22dv4XdOndPmeVVY6QTNAoMVWVqP/Q1h
21aG4RXYDy/XKPtSYeX0GM62dcaat1LWNDwfZ7Aj1lFryDrcA73T7IsNZe6ml7TG
GMUR9huv8zbUibf8FvubYykHrYdtf2Xgxn2Zf9dglaFFV9n/CpSsJjDPvffp7ydL
kqZMk/zV+aeStXP/mbyQzCRXk+vu97MDP7lLQzvPnjz222Z0RcnHoQVc4ASb1VDk
PcK++OxvlpXbZl+2WUpVLk7DhXaYZekz8JSHUm3Bcxl+e1pu4BRc2ddb2jbk3Llu
XW9Lo7657G+OlZuXfYulrUGJfeCjQ7KcvGcbDINzXEH2dhVq4rAnD1L6smZVyN+F
EnDeKDEcQSXPnngugsM4ThnKkdWWvcy+u5CTwONp92jSl6BkvN35iLxGjKc64+Dj
0Ia8rD58saF3gV82rj/z48zJ9MPbjySfT/4g+Y3kc8lvJ7+Q/HLS2/i3/O+cs9Mf
0VBXfS3mCD6P1OVo/OmORZzaHLS3w0o3yr41YHZpp5RkPyesx61J9qOj1GBfHGib
Tgo2wz/KSjPMKGkovPszzReeSQd8vsXaiT8PMZ5IMk5IWsfk0xD7HT7pylSGb3U5
YjrnljwrUxb6UcctPvtbBH6tAH/rU9ehDVwYG7akvRz5WoSSiX7no12kUqOkyXgi
BzlxmpcZ7jaUVvSDz9I14dsexnniZzlS3xz7fa2r1sswt5TgG6+NA/k1YBQ2rf3Q
lrwdD7CUnK8LMamabTmuslKLettt5QpTeEEtXagxLw3/Pg3cxluKl6oItefcx1sL
z2E4yIH/vwQtqq/TEHDtQahVlK4YvfvZmOB1Psqg220t2N52yzDzcZ7aL7mQpz8M
tJuyZ7EW47Bl+L3RVpfHAF/V53IHd6iUYlaM4w/R3nl4OsxGwFEGv8bq5sPorbEn
PirEN1EX9XUYvooRFeK1pxmSaTiHPww/g7kfrrz1169AOXlLbEJrlaFvRc2XYfWq
Ae8OwUzG220DerZuPcS+LbMn9d7U0BmJocNHTN16KqDjsHZZhS96SqMdlHKAWWIU
FS31pUrQUrwcpaZo6DFnYjBVjZZj6kTTm+2iF9ZrOaZmFMVRWAnzwLFxZdyOKWOT
oJiOoRgt5XZMKfU0fSk1ebGl3N9VxgNaanOx1MLS7O8on0vQy8k2XAdJpb2EWRjH
vKSqjOEXE5o/HWqjmhKqno6jHvZ5rzn9f+Yh2qb3HPQjAW+bp26irBnrKptbs3JN
6KZ9qYv2ZYLeuVh6Ia9e6hpdl+VqhNGssLk5Sqsi52q19onxqh+hjY7R1ABIr1Q2
O3pgk+EW5D7EhSczKquxVFalzKUo7NHOOD7QGJY0ipKvw9mIl4lLN4OSXjxkmJzZ
VE6HbzqnuK+Hifz5PiK+noVIfoVIXXStVgQpSuxforweflfcHk2J05tE6IWjvZty
dIya5cLXKgd22tE81FdFN0yFUxqLpRSWtpNmtKwhff1YzUv51AaZKtuWm1i5LhO1
rWgoiNnjAFHLWQ0F3dx2oF2ynPml5m03noX6ivU4Pj+HUStKvn8ioh/hktB2AOUw
fdtNQklrcn/aSScK1dV+nqVvIDRCGNWLHIe33ibsvOOpxaXS062x3PPQ0mKuw9qM
61Xq7H/YakGfNOwb92nzyLMddDNGT7UN33Ut14mXYz80Vh60DnH5TZKY4wjmOIFZ
tJY6MMW8uM6+LZG4F1DcCyTuRRT3osTVjZQzSH3PkC3VL2axCzMsMYWb68IVHEHh
jSBlHSFrqcfUcb3L3goS2wXdcI69Zwms6QjWdAdWMOI2v5vxif01H/0VSedaZD4N
NaUcchBmgDJYIVbhC+8JMXMozdBjoDU7Inf/gqIN2lmht1AtI2aTPOTlg9aLa0Rc
0NvU2LcytFgTcm2SrVCNlDSck54AmFgr4uqkUiltrmyvyqu3n7k0p9Gpz0q7S1bq
Unl+QuNbiJ1nQ1izJ5pVmKHjKCpIb/QKrA2E5F2S+uX4dUGk65V6HaSgbmrie1Ou
23WQIqtynuF0r/WUiy9z8QmZy0H6wpH9sEe7jmRBZu7GVhC9xFuRlpNO7HEJETyn
l6DiSz8mIRQFPtp8pA4hLIb3m/+w+IGZ79n+paK2hTZAY1htk+zb9aUiTz7q+Cwg
5LRluYsINZrtqZoGOVbb9jLmeS7DXqW/vMuQ7hrkfMQw50fa8uVvR/rMvRabf6ix
6ixNTWrF3Z5LhWHqy3cWxmgcpykIxa2cq9dRKlGoCSUHGX0hTFHpZSbmeawjc7GC
NbXrex4pl4L0VqIa62+hrVdPeN6npUWqM2fxXa8NisfMkJhZsJfG4SpIM5x13v/y
5uD7v1d6Ws46Ogk0jaxZaaknO0jKsFNIP0wZzc2nA5t5d2sKiF4zjPXFnEFvzKH9
MWfQI9PsSykWW0FU6+navoa2fs2AgrIwde9EPYO2F3vOMUmhU+u2DBAaPy3xQ7w0
2e4LSKsfYpBDpDzggGSOSVrZYPTj+xHOz9lYCiFM3/ehRCOe3cCGott7de6eiuy9
SO6C0sguKE1iCj+O+HkjhFItPhu09ix4d5SgfXSrBl85RW3HrCsgPXqwa9jS4tlB
m9rg++SANtAjuQGrYQjTjyGlhW3K9259LcUNNtgW6qDHjpsPovDIPP3hL87fkVyd
TW38B6HBmUU4YJbkgEUEc9FAO0HlqsPNILgZosTnEbzzZE37xYyfixYIrHSsJoQa
kTOxWDOk3qU/vDFEbqNyG4vNjcK7iLT/RQLvXGxu58hS9oc3j/T3PNnjs6x3x2Nx
FYTSQmMaaKoX+UyE7V8VjFrr52Geiy9BhdyDj8NMmkd24QpG7SQKGirtcIrSOEHJ
rEznUZn6fCBT69YNrFcUpLcdCKexFktPQfTjIRM7HjKkLDYGa6yHSGQhtE0HupJb
Gbhh3Xi2fvuNb2rXrrQ1wSTxiS79vJJzQ2iToBInO4nvkRUVfJOFp+gg42xujamA
D+we7a6M72N9husjK3hnCv2OBqNigq08Y+P5oGHAl1zW2kB0dZ7UQ0Z68sIDzrdm
M9r2GUd1CQqiHydcQ5YLpCuhMa11eU+rseNLT59moHnLydQm+fg3kY9vlE+4X80G
vuB6fU7cuDxLagp8hBOpubqE2ndK5H4Ow1zteTabsK7JGqinZa0GAdchULu5KXmG
IB47Z7BHKqA6riiU1mRUkVFfbZ+juD5YO95GkHVlJFhV8B2mI21DmLZapOB1CVPp
+XAW4cNZEvM8gnmeHGF56bcteqghvVFDS1NofdLPpRXwBVX6iQpoPuMsV9Su1JE0
6ixFBVYVbn/qlVIGUuaQVlEw2rM1Dl9B9DJg3Ew0T2pLil2aC8WPRVJ7UW2b/YUO
PPTEU54nNAUfoWDGCaIM3G5ouj60Y/S6FvE5L34NVxB9aXMB97fnqcPx23B8A5wp
ROpzjLSH8ygvzhvwoh+cdNgm56Cr6Lp0lZSmMMwyuS70q8GYDDxq43yWFIzS7GZg
Tc2jMoBtRCXX5UEhxvwIOXdvISuiguhnDGw/MRLsJZY1PjGYtHnGQNoclT553dgK
oq83ppFXEH3PL3Rxjer3Bck3bVLAxnu47u/KL8yeJ+zDZ4JVrLNFKuRueRHZJS8a
WNgw+xo1dkqINFUiW9BB1kcF0dd1C+l7BdFjryK4HVrblU+nbzfosyrbPcfvqakV
cwJZOZqEnBLOqLaBhnY9kn7doG2qgTY93kdh1MhHYTTGUq8r5YKc6bq93TGvqvZW
U77j+n1P59mSeBr6kuY6/Psr4AGvzjhXYO0IPdkDbjr3P7bPbbVaXpqSp1fj9jge
OR6zGvysEYUzyLx2hlwNxcnI+HmkQuY7jVpUDrHnQ6QUFkrunWNJQPQSlYvuC0OY
fi3KIuuggujbnK9XOaTdFYySQjEZlNaxYrpVqtWySItlyb1N97m9dn98dSJxWfqv
eNI7clh6R95sWnF+YrDD05+mdPOpKYv3Bswf8TZOBdPLNcLau4HINiGU9vaIl4qn
DHauXnDiHPP54Cko2cJH7dk+2ZKuBt81opBHvREVRD+ms3ByN35MK5h+31SVust4
GbkdTumJhTbIiZw8794JFg0sahnUppYhpZYa0h4KosfG9tm2wT57Sp55u4aurApK
7YUz7CeNjK0MaRXeQFpgA859UBq/FLrHTZHrw3gXtlohxkns+cA3vLPXN8kyj6Fl
pq3TXiC3xklYHolf1eJXDTx/yrEnBHSzTojjGuJUABJn8xoiV4tsgFmX44CfI8gy
XrINvKuyATd2YtPcWA8011FcyraXQmyDKVK+WkCkqwUjPWpZsw5F4fq+bSAymoKY
2A2yGpthCNXrXGrgf+Yh82E7vElY+/S0OlPo+2gK8bFUEP1MMY3OFNMG9WgGT24Q
k0juu66n0pTtWsg2/Z9e4ulGEexRsvT9nYS7gOBdIEvbPyZPN4ZgjxnIlFnEBzmc
segTHv16HxW7TiuGHDZJ4k6huFOklqc/v7N8l3ZI1XSC3JlFz+HUYBfC4eFcLUrw
GFDBz+mY2YAflT1blbkIGUu8c621+tYfPUdKAVF6DuEpmid5VC/z+4E9Ury5cPpO
zYE49pNIrk+S/cVjFc60aZXEt5UgIouw5c6Q5ef2oHZK4lvvlLIxlLJ9UMpATfC6
nQI5x9x3WGB7EQuYoOX1SancRancJ6X1LkrrfVJyuig5fVJa66K01jMlwUFexErv
99nigoNCStmboMRLsd5VpvU+KTldlJw+Ka11Ueq9xYXO0Qt2Ek7A48swS7bToVbd
aWRemibngH4xx1DrjEvmOYPkOUPKxZ17IbXK9SJd6D3Y2innQbPNoYU+PAfyhBeb
WV5mnmybgXS6CdRHybKdRnrhNLlrdhB/JAXpzbtsnDwTrOeJMWSPNEZGxMD0sKlA
Cxv6ok5ChFURLbFK2njmECl4joxwshnonjZlJIB2a786kYXReDT2HFOUDtcobgP+
g23UxVovIld1euY0NF5/j8peHAn0IXbkBI5ZrqMQIUGv6+nP46kQaAQLYOkR8RkG
idwKQfnbseoEVi0WqxblJNuf20fyTxW4zUN8B6NQ+sxYQXNirGB0Pq+kOZ9XIiMG
cE/HNdQHco30aS8iI6lISqUlRItb6rTbXvt87X2E/iALs/BVci7fbtOubTO5gGph
M6oFQ3r5rr2omtcXSH+NFOKtkSJPuaeRM+5pcuecQ2yMCqLHzqPYeRJ7DsZRDuEu
BdNRWEJaeolceeyIZrZz7VGwJsGNYSyXeN7TWYsqsdgOw6wYWCnsWOyikU6633hS
uS5MMf9TeNSZSZw7KuAjE88dCqZvZSdGg87bmP8vkC212WHnDW3NNYhr6cDZXRNf
5QVIF6+hypJWkviYRx4REQnfx+A83UA0h7QdeR7p5XmDmJcVg9l3M5DI66TXRMGQ
ZqEHmjVDmrUeaPqGNP0eaJY1NMvGVDY0VDaMqYzJyOeY74tn4Lst/PhdxKLeDtef
FfbRU79XrLcR1sNUR1uEUV2xOID6+XsO1XTPkS3iBLFVultDwXrd/zmyV9XTnh5P
J6lengj0t+bYc7DX25JyRPRNZweryAhd8bawEKqXAsL14aD1FOn/XYb04uaJKO4T
HbCn+ojhMy0lOPFXN6bmkPE0R67f47EjgI4GuYhy6yJpd5vWWN5wnZdO01Y18i3F
sfs7x38VfhqRKHrh+3IEEuxo3vXXS0Pked4ceAvFlUdBeo275AS+qeFzUKYPfu3S
HFEiW0Yxi/MBqnaevStZTzuZ1xKx2LJw6icLJXXlOaVOPnRkpLAHrbfD99Db7yic
0307wOjR7IEW17Gux/hsdMPpM05r8vaJcDWMrvTRFIMG62Ea8Z9Nk96zY7EeLNGV
1DbwzqqjnlkdEa9sv3473OTz8eRXkj9Ofo6IFV5FSuYHt6fo1tZysLaG0XAimoG5
WX5CwP7c9VeuDEA5VJxGEQcyGqmxt1WrEKx66kmvI3BjY49TsT8xX+9pA2/vNIqd
NsDOSf9P3Dtr2cBDNIx07aAn1MxOuGW64t0qbdAZg1l/46Zr4sX6f3nkPBC1VmQM
zw+KU7YuovdTsMiIu3K8g8txL0PMB5/2wMekRo/co4n74MqBrifuZoLltlSRujWv
3rgj/RHifM8EnLSOr5knd1VhRL7vlZ4mKebR9nfJ/baO16516i55/Tbes/Cd0m/l
P0msruPISYBxcu2YQjxcpqRWMTxP9Y+N/bxEsnV6iV3ryti1LmHvmUItPlOkHFVG
x0U5GBX66LX1iD2hAivxNTIyTQppPQXR7zWmkbP3CtKxcvLW77Hts6AvrUOuq4Ev
TvQL5U+T+xlGu8117UHETmLO0POnN/uvOkXQm+XXjdhI2ym6ERuprs+xHqfi1cS1
zGlSOzEam98MaUWuBJp/3pIm8SJdKQNznWC794P4ttKX7lBQqLV5sUS/6an24rUm
TjKEdn3xzvfuNa2VVGnt6wax5Gn9/5i8NyheHt8gR8I5ZF98joyvN4bokemZN4fM
uznSwr+B6q9DmH7GGI0dF6Mk3mIs3iIp6xQQWadAyjomdyfpSnwxtsQXyRlH7Hgr
EJXKRaS8UaMz+9hpJhPslCZiVsooYtao1nIzami7UTqmGqp7MqWwjlJYJ2WuSUTm
om1lS7FcsETimcie+t1aIRL59WDsLRjiNtmj4HHbjNzlkIWVUqS6BDOuI6WIUywv
PiJOwM2f29Y+GQ9I7Itr7L1pED9jqmt1VO152iAm7AZiAwhher6eQ3h6ziiCRjly
t298JI0whX4XvA5t5qJRlztTUJEkq3Dz6qrUi2AxJTtTUTNIHbHrhzA9H0/E8v8E
idef/JRiPJRBIj2EMOpkfSlGG1uHeT8KpU5Q+iiVKFQvHZxFpIOz5P7I7dgbme2o
/A4sn1wl3TZfR5eUisVp3Boam75hcD612HV6KJzLqfND4Y2McSWIQik91qa8YSw6
RpSnYPS7/qxoGdF1UCP+ekfe7bmuRG5mxi0gs0jcXToWkIfGAvJIu0t85JxFEu80
wjMU3ihSVgpvBtmJUXjnEQ0DtbqcRtaU0+SYGmFzW6prTIRjKtTF6eMhi1vzttCY
yCFc3wJ15IYlCm8S8Xpr9myJtuHWy6a0VhWjmpkbd3zwa81p7w5CaziJrCKTBmvX
glZ2WyD7cxrR9iuIPndbm7tNelvNsh/s/g4F05c/hfgvKoh+BU8hq3eKlKgyqHY0
hOnPlGH4TxpgjyC+lyOkJmYK7fEpgx7PoNgZA+xplkcK6e8Q1qbnvvrgh+fWHzw3
xvWbaw8ufiDpGcSrxm6dS0funMN5+oKWpy+Q/lWh1ZTfDitudqU8sjalfohjDBtg
1Noi7OwPbpDVSzJmOtDtSEwRG9WChmckRCSkLMzXg3AGoQ42mjxoyfRRu100no1L
6rPOsH7x0ah6CqZfh6aR9We6Zy8I5dGck15E5pjKmznfaYVeHDDwcohGuFJ+D3xn
vRZAeinLmcA2fia4mQ+fSWpI6ysIdQ6nip7DqZKzWA09PxTC9DNoA42z0DCIDoud
sJgwOF+B3eNA3+JgI+PFJkfLLKKJnTXQxFbRe5ZoTBy3ahDJs45G8qyTkkEVaeXT
QURgvYRaR2XTugFveyhvewYeOx5yiiWE6UuvozFmSGUE4ZgRkmPm4EQj5kNfI60N
wrsp3uKgYFQMUk9LpzMFTQ3nxnY4TUl3DqQzBXWnl/Bd4mfwSl33e3VG8OnuR5fk
gZDaRCSX/W2Qgwx24KeS2yToROLbpUGOG5Emr8HPkxzvImMmLP2g9TCP+5v0iNU5
hfJLKuAURku+CU3pIMQAF6c3B61H2H/lsV6VEfUdeB8Eij4pXdUhPucqGq1eQU24
X0erOw1lxfSRnX8+gFFxgYROGbutOQqHduZn/a5f/7UPJVdB/qla61wCXj1O9mMa
9fhOG3h7j8KNBbjHeMUgpvGIlko7nGp37gmhUuPcjqU0qSlOtR9qaXQV60xBWVO2
GC5ets4UJu1IU8VSUtHp6sgOmZY8VI7TGvmlPQUlgXELE06tM0WTnI8wj+IoVC9b
FRHJW0GoKAa2psfa4U1ifq2gN4GoU6R8hhdvfKfVPb/n5fzugC9pBSwSanbfo12X
fUSa94N8x6RttSTvzxpkf4vwW9ybNNi2p6fWEmwVWSXzq8nbVri+YQ9xl+8qepcv
nY/w/I7mdpB9Fbj7GdYB65R1CW4z5S1wUNb7ctJLZtiqsIf0hN/QeMJvREon3m2I
a2WD1GFHe55ccc6D7qWIaPYVTEgilvMtsarxp6cfav7mud+Y+xqZw6SM0Rx/u0VZ
UU9+I/nD5H8nv5NcDZ685dsI3/OKtBva6L3KIVzkwnog87eX/pco8zjUu4jamoth
q3gvJN+fPJtcE/eika1xDk7VxvduCBO9q95Z75J0831HDqTwzPU5GeA6IVOHz3pO
r2punad37aJsWU3cybzBWpGO+JN0S12+0d6/oNn9F0hfLny/VzPa66XAUwXTARTI
tbIM8g3HSgU3MXfPvt2pKF/YddQeHYXq94TYrZmzkVszcQ3WVUSDddWg9Bh2CKNv
JYs/bZ4P9NqhZjvDWnUMxrjulMhcoFFvH38eWEPtiI9yL6dbm9JzpResNOwixQ44
fNa1h49wloJQWsw6qsekI3djVqgMiZlGMNNGsRlqEY15txUkGr+hZnBDxFnEhnC2
DxvCBNgORc+Lp16wU4E3knqiY9DXIz574beKwa1UqVifqRQ5hvuNnpLv8qVTmHMk
n7pgWem+f0bdHxH1ww7vd5GzgHfwyiekxbEXj/EcnGlRnMbfHuvZIvNo4N8VUuJv
UUq6c+Odp8z10ooDpz9cGYkubC2+O1m3rrMvORkPSUUiOMXk6jz4KVetQwH0gMTz
pK/mJZDJs1C3U235HIQbGLOsPAeBohfskvgaf8oaBm5UkWEdOJVbBrg4TXvKOmwl
Ic1l9jUsywH2xv1FeV9yL9EnyL1ce+3ngI4HvVD+mbfFKXnThv2zaJWX7rxrYHpm
7rlU69XPzbZe07pvYSYzWfHqX8/Mnx9YWFy6wN4zznV7aSZTnHSzpRp7n8mW7Yfe
ud+Cf3v3tl7bet1CquJl85UXHz+2fFlSeH75JHtdedfyTGbcydcdlqC69fwK/5jL
r+y9ZyYzUq9XnVyjbhcy7MErPV84Gfv9oXeOirxeLA2sOoszmUN1h5Vg5Es/GDn7
h9aHWm9gJNddlu14tm4/v37ypeTQgHf4yOzetyYPnRh+/OiRoRPHjwwNspfDw4eT
QydOHIeX5PDw0PCJY8eOWK07X5oYmLx6Zqr15tb9rXuXlysb20vNK9v7hw80Ge2N
zZW9985kUo16NufaYWU+trFy0rrDutt6gLXnAdYvx8CH4hybfblH/3usX7aesZ61
PmntWp+yPm39gfVZ64+sP7b+xPq89VfWF60vW1+x/sb6qvV31ovW161vWt+y/sn6
Z+uH1o+s/0q8InFXYjDxtsSRxBOJkcRMYiuxnWgm3p34lcSHE88mnkvsJj6V+Ezi
TxN/nviLxBcS30h8O/HdxL8kfpT4yS2JW2695WU7KzvFndWdtR13x9vxdzZ3Wjvv
23l655mdj+48v/PxnU/s/N7OZ3c+t/NnO3+589WdF3a+ufODnX/dvXX3Vbt3796/
+5bdfbsHdpO7h3dP7hZ2i7vl3cru1d3abmv3vbsfER1xS0L8ZXNR27/d3/4/sC/C
lQ==-->
<defs>
<g>
<g id="glyph-0-0">
<path d="M 24.953125 -1.609375 C 24.34375 -1.359375 23.703125 -1.25 23.0625 -1.25 C 22.265625 -1.25 21.515625 -1.609375 21.375 -2.328125 C 20.546875 -6.5625 17.71875 -9.890625 15.28125 -13.296875 L 22.984375 -22.765625 C 23.421875 -23.3125 23.953125 -23.84375 24.5625 -23.84375 C 25.171875 -23.84375 25.78125 -23.734375 26.328125 -23.484375 L 26.03125 -25.09375 C 25.671875 -25.171875 25.359375 -25.203125 25 -25.203125 C 24.34375 -25.203125 23.671875 -24.84375 23.015625 -24.84375 C 22.296875 -24.84375 21.6875 -25.203125 21.015625 -25.203125 C 20.6875 -25.203125 20.328125 -25.171875 20.015625 -25.09375 L 19.71875 -23.484375 C 20.265625 -23.734375 20.875 -23.84375 21.4375 -23.84375 C 21.875 -23.84375 21.984375 -23.234375 21.59375 -22.765625 L 14.59375 -14.3125 C 12.40625 -17.46875 10.75 -20.796875 11.46875 -25.09375 C 10.828125 -25.09375 10.140625 -24.84375 9.5 -24.84375 C 8.28125 -24.84375 7.140625 -25.203125 5.921875 -25.203125 C 5.5625 -25.203125 5.15625 -25.171875 4.8125 -25.09375 L 4.515625 -23.484375 C 5.125 -23.734375 5.734375 -23.84375 6.34375 -23.84375 C 7.09375 -23.84375 7.421875 -23.125 7.5 -22.34375 C 7.78125 -18.328125 10.25 -15.234375 12.796875 -12.15625 L 4.65625 -2.328125 C 4.15625 -1.71875 3.515625 -1.25 2.796875 -1.25 C 1.96875 -1.25 1.1875 -1.359375 0.46875 -1.609375 L 0.75 0 C 1.21875 0.078125 1.71875 0.109375 2.21875 0.109375 C 3.046875 0.109375 3.90625 -0.25 4.765625 -0.25 C 5.671875 -0.25 6.453125 0.109375 7.34375 0.109375 C 7.8125 0.109375 8.3125 0.078125 8.78125 0 L 9.078125 -1.609375 C 8.3125 -1.359375 7.53125 -1.25 6.78125 -1.25 C 6.203125 -1.25 5.953125 -1.859375 6.3125 -2.328125 L 13.5625 -11.21875 C 15.75 -8.53125 17.828125 -5.765625 18.5 -2.328125 C 18.609375 -1.828125 18.6875 -1.25 18.25 -1.25 C 17.578125 -1.25 16.921875 -1.359375 16.359375 -1.609375 L 16.640625 0 C 17 0.078125 17.390625 0.109375 17.78125 0.109375 C 18.71875 0.109375 19.71875 -0.25 20.65625 -0.25 C 21.65625 -0.25 22.5625 0.109375 23.53125 0.109375 C 23.921875 0.109375 24.3125 0.078125 24.671875 0 Z M 24.953125 -1.609375 "/>
</g>
<g id="glyph-1-0">
<path d="M 7.109375 -17.625 C 6.453125 -18.078125 5.875 -18.65625 5.40625 -19.328125 C 3.34375 -15.59375 2.265625 -11.421875 2.265625 -7.15625 C 2.265625 -2.734375 3.734375 1.53125 6.453125 5.015625 L 6.953125 4.625 C 4.625 1.125 3.390625 -2.96875 3.390625 -7.15625 C 3.390625 -10.96875 4.703125 -14.65625 7.109375 -17.625 Z M 7.109375 -17.625 "/>
</g>
<g id="glyph-1-1">
<path d="M 12.421875 -3.515625 L 11.46875 -3.515625 C 11.46875 -2.03125 10.046875 -1.03125 8.46875 -1.03125 C 7.109375 -1.03125 5.75 -1.203125 4.375 -1.203125 C 3.6875 -1.203125 3.015625 -1.1875 2.328125 -1.109375 L 9.875 -7.90625 C 11 -8.9375 11.953125 -10.265625 11.953125 -11.796875 C 11.953125 -15.015625 9.640625 -17.828125 6.53125 -17.828125 C 3.421875 -17.828125 1.109375 -15.015625 1.109375 -11.796875 C 1.109375 -10.828125 1.4375 -9.875 2.0625 -9.09375 C 2.59375 -9.8125 3.21875 -10.46875 3.96875 -11 C 3.359375 -11.375 3.015625 -12.046875 3.015625 -12.75 C 3.015625 -14.9375 4.46875 -16.875 6.53125 -16.875 C 8.484375 -16.875 9.6875 -14.859375 9.6875 -12.75 C 9.6875 -11.5 9.4375 -10.21875 8.59375 -9.3125 L 0.625 -1.203125 L 1.109375 0 C 2.03125 -0.171875 2.96875 -0.25 3.890625 -0.25 C 5.578125 -0.25 7.25 0.125 8.9375 0.125 C 9.9375 0.125 10.953125 0.046875 11.953125 -0.125 C 11.953125 -1.28125 12.109375 -2.40625 12.421875 -3.515625 Z M 12.421875 -3.515625 "/>
</g>
<g id="glyph-1-2">
<path d="M 5.59375 -6.65625 C 5.59375 -11.078125 4.125 -15.34375 1.40625 -18.828125 L 0.90625 -18.4375 C 3.234375 -14.9375 4.46875 -10.84375 4.46875 -6.65625 C 4.46875 -2.84375 3.15625 0.859375 0.75 3.8125 C 1.40625 4.265625 1.984375 4.84375 2.453125 5.53125 C 4.515625 1.78125 5.59375 -2.390625 5.59375 -6.65625 Z M 5.59375 -6.65625 "/>
</g>
</g>
<clipPath id="clip-0">
<path clip-rule="nonzero" d="M 1 17 L 27 17 L 27 43.179688 L 1 43.179688 Z M 1 17 "/>
</clipPath>
<clipPath id="clip-1">
<path clip-rule="nonzero" d="M 30 1 L 54.585938 1 L 54.585938 26 L 30 26 Z M 30 1 "/>
</clipPath>
</defs>
<path fill="none" stroke-width="0.398" stroke-linecap="butt" stroke-linejoin="miter" stroke="rgb(3.529358%, 13.33313%, 22.744751%)" stroke-opacity="1" stroke-miterlimit="10" d="M -0.000192708 0.000279514 L 7.590953 0.000279514 " transform="matrix(3.6, 0, 0, -3.6, 0.6296, 12.9346)"/>
<g clip-path="url(#clip-0)">
<g fill="rgb(3.529358%, 13.33313%, 22.744751%)" fill-opacity="1">
<use xlink:href="#glyph-0-0" x="0.6296" y="43.0632"/>
</g>
</g>
<g clip-path="url(#clip-1)">
<g fill="rgb(3.529358%, 13.33313%, 22.744751%)" fill-opacity="1">
<use xlink:href="#glyph-1-0" x="27.9572" y="20.4768"/>
<use xlink:href="#glyph-1-1" x="35.815278" y="20.4768"/>
<use xlink:href="#glyph-1-2" x="48.870231" y="20.4768"/>
</g>
</g>
</svg>
