<?xml version="1.0" encoding="UTF-8"?>
<svg xmlns="http://www.w3.org/2000/svg" xmlns:xlink="http://www.w3.org/1999/xlink" width="900" height="100" viewBox="0 0 900 100">
<defs>
<clipPath id="clip-0-41b35138">
<path clip-rule="nonzero" d="M 16 16 L 884 16 L 884 84 L 16 84 Z M 16 16 "/>
</clipPath>
</defs>
<g clip-path="url(#clip-0-41b35138)">
<path fill="none" stroke-width="3" stroke-linecap="butt" stroke-linejoin="miter" stroke="rgb(2.352941%, 18.039216%, 29.411766%)" stroke-opacity="1" stroke-miterlimit="2" d="M 16 84 L 89.78125 84 L 91.949219 83.996094 L 109.308594 83.996094 L 111.480469 83.992188 L 117.988281 83.992188 L 120.160156 83.988281 L 124.5 83.988281 L 126.671875 83.984375 L 131.011719 83.984375 L 133.179688 83.980469 L 135.351562 83.976562 L 137.519531 83.976562 L 139.691406 83.972656 L 141.859375 83.96875 L 144.03125 83.964844 L 146.199219 83.960938 L 148.371094 83.957031 L 150.539062 83.953125 L 152.710938 83.949219 L 154.878906 83.941406 L 157.050781 83.9375 L 159.21875 83.929688 L 161.390625 83.921875 L 163.558594 83.914062 L 165.730469 83.90625 L 167.898438 83.894531 L 170.070312 83.886719 L 172.238281 83.875 L 174.410156 83.859375 L 176.578125 83.847656 L 180.921875 83.816406 L 183.089844 83.796875 L 185.261719 83.777344 L 187.429688 83.757812 L 189.601562 83.734375 L 191.769531 83.707031 L 193.941406 83.679688 L 196.109375 83.652344 L 198.28125 83.617188 L 200.449219 83.582031 L 202.621094 83.546875 L 204.789062 83.503906 L 206.960938 83.460938 L 209.128906 83.414062 L 211.300781 83.363281 L 213.46875 83.308594 L 215.640625 83.25 L 217.808594 83.183594 L 219.980469 83.117188 L 222.148438 83.042969 L 224.320312 82.964844 L 226.488281 82.878906 L 228.660156 82.789062 L 230.828125 82.695312 L 233 82.589844 L 235.171875 82.480469 L 237.339844 82.363281 L 239.511719 82.238281 L 241.679688 82.105469 L 243.851562 81.960938 L 246.019531 81.8125 L 248.191406 81.652344 L 250.359375 81.480469 L 252.53125 81.300781 L 254.699219 81.109375 L 256.871094 80.90625 L 259.039062 80.691406 L 261.210938 80.46875 L 263.378906 80.226562 L 265.550781 79.976562 L 267.71875 79.710938 L 269.890625 79.429688 L 272.058594 79.136719 L 274.230469 78.828125 L 276.398438 78.503906 L 278.570312 78.164062 L 280.738281 77.804688 L 282.910156 77.429688 L 285.078125 77.039062 L 287.25 76.632812 L 289.421875 76.203125 L 291.589844 75.757812 L 293.761719 75.292969 L 295.929688 74.808594 L 298.101562 74.308594 L 300.269531 73.785156 L 302.441406 73.242188 L 304.609375 72.675781 L 306.78125 72.09375 L 308.949219 71.488281 L 311.121094 70.863281 L 313.289062 70.21875 L 315.460938 69.550781 L 317.628906 68.863281 L 319.800781 68.152344 L 321.96875 67.425781 L 324.140625 66.675781 L 326.308594 65.90625 L 328.480469 65.113281 L 330.648438 64.304688 L 332.820312 63.476562 L 334.988281 62.628906 L 337.160156 61.761719 L 339.328125 60.878906 L 341.5 59.980469 L 343.671875 59.0625 L 345.839844 58.132812 L 348.011719 57.1875 L 350.179688 56.226562 L 352.351562 55.253906 L 354.519531 54.269531 L 356.691406 53.277344 L 358.859375 52.273438 L 361.03125 51.261719 L 363.199219 50.242188 L 365.371094 49.21875 L 367.539062 48.191406 L 369.710938 47.160156 L 371.878906 46.128906 L 374.050781 45.101562 L 376.21875 44.070312 L 378.390625 43.046875 L 380.558594 42.027344 L 382.730469 41.015625 L 384.898438 40.011719 L 387.070312 39.019531 L 389.238281 38.042969 L 391.410156 37.074219 L 393.578125 36.125 L 395.75 35.191406 L 397.921875 34.28125 L 400.089844 33.390625 L 402.261719 32.519531 L 404.429688 31.675781 L 406.601562 30.859375 L 408.769531 30.070312 L 410.941406 29.308594 L 413.109375 28.582031 L 415.28125 27.886719 L 417.449219 27.222656 L 419.621094 26.597656 L 421.789062 26.007812 L 423.960938 25.457031 L 426.128906 24.945312 L 428.300781 24.476562 L 430.46875 24.046875 L 432.640625 23.660156 L 434.808594 23.316406 L 436.980469 23.019531 L 439.148438 22.761719 L 441.320312 22.554688 L 443.488281 22.390625 L 445.660156 22.273438 L 447.828125 22.207031 L 450 22.183594 L 452.171875 22.207031 L 454.339844 22.273438 L 456.511719 22.390625 L 458.679688 22.554688 L 460.851562 22.761719 L 463.019531 23.019531 L 465.191406 23.316406 L 467.359375 23.660156 L 469.53125 24.046875 L 471.699219 24.476562 L 473.871094 24.945312 L 476.039062 25.457031 L 478.210938 26.007812 L 480.378906 26.597656 L 482.550781 27.222656 L 484.71875 27.886719 L 486.890625 28.582031 L 489.058594 29.308594 L 491.230469 30.070312 L 493.398438 30.859375 L 495.570312 31.675781 L 497.738281 32.519531 L 499.910156 33.390625 L 502.078125 34.28125 L 504.25 35.191406 L 506.421875 36.125 L 508.589844 37.074219 L 510.761719 38.042969 L 512.929688 39.019531 L 515.101562 40.011719 L 517.269531 41.015625 L 519.441406 42.027344 L 521.609375 43.046875 L 523.78125 44.070312 L 525.949219 45.101562 L 528.121094 46.128906 L 530.289062 47.160156 L 532.460938 48.191406 L 534.628906 49.21875 L 536.800781 50.242188 L 538.96875 51.261719 L 541.140625 52.273438 L 543.308594 53.277344 L 545.480469 54.269531 L 547.648438 55.253906 L 549.820312 56.226562 L 551.988281 57.1875 L 554.160156 58.132812 L 556.328125 59.0625 L 558.5 59.980469 L 560.671875 60.878906 L 562.839844 61.761719 L 565.011719 62.628906 L 567.179688 63.476562 L 569.351562 64.304688 L 571.519531 65.113281 L 573.691406 65.90625 L 575.859375 66.675781 L 578.03125 67.425781 L 580.199219 68.152344 L 582.371094 68.863281 L 584.539062 69.550781 L 586.710938 70.21875 L 588.878906 70.863281 L 591.050781 71.488281 L 593.21875 72.09375 L 595.390625 72.675781 L 597.558594 73.242188 L 599.730469 73.785156 L 601.898438 74.308594 L 604.070312 74.808594 L 606.238281 75.292969 L 608.410156 75.757812 L 610.578125 76.203125 L 612.75 76.632812 L 614.921875 77.039062 L 617.089844 77.429688 L 619.261719 77.804688 L 621.429688 78.164062 L 623.601562 78.503906 L 625.769531 78.828125 L 627.941406 79.136719 L 630.109375 79.429688 L 632.28125 79.710938 L 634.449219 79.976562 L 636.621094 80.226562 L 638.789062 80.46875 L 640.960938 80.691406 L 643.128906 80.90625 L 645.300781 81.109375 L 647.46875 81.300781 L 649.640625 81.480469 L 651.808594 81.652344 L 653.980469 81.8125 L 656.148438 81.960938 L 658.320312 82.105469 L 660.488281 82.238281 L 662.660156 82.363281 L 664.828125 82.480469 L 667 82.589844 L 669.171875 82.695312 L 671.339844 82.789062 L 673.511719 82.878906 L 675.679688 82.964844 L 677.851562 83.042969 L 680.019531 83.117188 L 682.191406 83.183594 L 684.359375 83.25 L 686.53125 83.308594 L 688.699219 83.363281 L 690.871094 83.414062 L 693.039062 83.460938 L 695.210938 83.503906 L 697.378906 83.546875 L 699.550781 83.582031 L 701.71875 83.617188 L 703.890625 83.652344 L 706.058594 83.679688 L 708.230469 83.707031 L 710.398438 83.734375 L 712.570312 83.757812 L 714.738281 83.777344 L 716.910156 83.796875 L 719.078125 83.816406 L 723.421875 83.847656 L 725.589844 83.859375 L 727.761719 83.875 L 729.929688 83.886719 L 732.101562 83.894531 L 734.269531 83.90625 L 736.441406 83.914062 L 738.609375 83.921875 L 740.78125 83.929688 L 742.949219 83.9375 L 745.121094 83.941406 L 747.289062 83.949219 L 749.460938 83.953125 L 751.628906 83.957031 L 753.800781 83.960938 L 755.96875 83.964844 L 758.140625 83.96875 L 760.308594 83.972656 L 762.480469 83.976562 L 764.648438 83.976562 L 766.820312 83.980469 L 768.988281 83.984375 L 773.328125 83.984375 L 775.5 83.988281 L 779.839844 83.988281 L 782.011719 83.992188 L 788.519531 83.992188 L 790.691406 83.996094 L 808.050781 83.996094 L 810.21875 84 L 884 84 "/>
</g>
</svg>
