<?xml version="1.0" encoding="UTF-8"?>
<svg xmlns="http://www.w3.org/2000/svg" xmlns:xlink="http://www.w3.org/1999/xlink" width="900" height="100" viewBox="0 0 900 100">
<defs>
<clipPath id="clip-0-d68df8c8">
<path clip-rule="nonzero" d="M 16 16 L 884 16 L 884 84 L 16 84 Z M 16 16 "/>
</clipPath>
</defs>
<g clip-path="url(#clip-0-d68df8c8)">
<path fill="none" stroke-width="3" stroke-linecap="butt" stroke-linejoin="miter" stroke="rgb(2.352941%, 18.039216%, 29.411766%)" stroke-opacity="1" stroke-miterlimit="2" d="M 16 83.992188 L 20.339844 83.992188 L 22.511719 83.988281 L 26.851562 83.988281 L 29.019531 83.984375 L 31.191406 83.980469 L 33.359375 83.980469 L 35.53125 83.976562 L 37.699219 83.972656 L 39.871094 83.96875 L 42.039062 83.964844 L 44.210938 83.957031 L 46.378906 83.953125 L 48.550781 83.945312 L 50.71875 83.9375 L 52.890625 83.929688 L 55.058594 83.917969 L 57.230469 83.90625 L 59.398438 83.894531 L 61.570312 83.878906 L 63.738281 83.863281 L 65.910156 83.847656 L 68.078125 83.828125 L 72.421875 83.78125 L 74.589844 83.75 L 76.761719 83.71875 L 78.929688 83.6875 L 81.101562 83.648438 L 83.269531 83.605469 L 85.441406 83.558594 L 87.609375 83.503906 L 89.78125 83.445312 L 91.949219 83.382812 L 94.121094 83.3125 L 96.289062 83.234375 L 98.460938 83.152344 L 100.628906 83.058594 L 102.800781 82.957031 L 104.96875 82.84375 L 107.140625 82.722656 L 109.308594 82.589844 L 111.480469 82.445312 L 113.648438 82.289062 L 115.820312 82.117188 L 117.988281 81.933594 L 120.160156 81.734375 L 122.328125 81.515625 L 124.5 81.285156 L 126.671875 81.03125 L 128.839844 80.761719 L 131.011719 80.46875 L 133.179688 80.15625 L 135.351562 79.824219 L 137.519531 79.464844 L 139.691406 79.082031 L 141.859375 78.671875 L 144.03125 78.238281 L 146.199219 77.777344 L 148.371094 77.285156 L 150.539062 76.765625 L 152.710938 76.214844 L 154.878906 75.632812 L 157.050781 75.019531 L 159.21875 74.375 L 161.390625 73.695312 L 163.558594 72.980469 L 165.730469 72.230469 L 167.898438 71.449219 L 170.070312 70.632812 L 172.238281 69.777344 L 174.410156 68.890625 L 176.578125 67.964844 L 178.75 67.007812 L 180.921875 66.015625 L 183.089844 64.988281 L 185.261719 63.929688 L 187.429688 62.839844 L 189.601562 61.71875 L 191.769531 60.566406 L 193.941406 59.386719 L 196.109375 58.179688 L 198.28125 56.949219 L 200.449219 55.699219 L 202.621094 54.425781 L 204.789062 53.132812 L 206.960938 51.828125 L 209.128906 50.507812 L 211.300781 49.179688 L 213.46875 47.84375 L 215.640625 46.503906 L 217.808594 45.167969 L 219.980469 43.832031 L 222.148438 42.503906 L 224.320312 41.1875 L 226.488281 39.882812 L 228.660156 38.597656 L 230.828125 37.335938 L 233 36.101562 L 235.171875 34.894531 L 237.339844 33.722656 L 239.511719 32.585938 L 241.679688 31.492188 L 243.851562 30.445312 L 246.019531 29.445312 L 248.191406 28.5 L 250.359375 27.605469 L 252.53125 26.773438 L 254.699219 26 L 256.871094 25.292969 L 259.039062 24.652344 L 261.210938 24.082031 L 263.378906 23.585938 L 265.550781 23.160156 L 267.71875 22.808594 L 269.890625 22.535156 L 272.058594 22.339844 L 274.230469 22.222656 L 276.398438 22.183594 L 278.570312 22.222656 L 280.738281 22.339844 L 282.910156 22.535156 L 285.078125 22.808594 L 287.25 23.160156 L 289.421875 23.585938 L 291.589844 24.082031 L 293.761719 24.652344 L 295.929688 25.292969 L 298.101562 26 L 300.269531 26.773438 L 302.441406 27.605469 L 304.609375 28.5 L 306.78125 29.445312 L 308.949219 30.445312 L 311.121094 31.492188 L 313.289062 32.585938 L 315.460938 33.722656 L 317.628906 34.894531 L 319.800781 36.101562 L 321.96875 37.335938 L 324.140625 38.597656 L 326.308594 39.882812 L 328.480469 41.1875 L 330.648438 42.503906 L 332.820312 43.832031 L 334.988281 45.167969 L 337.160156 46.503906 L 339.328125 47.84375 L 341.5 49.179688 L 343.671875 50.507812 L 345.839844 51.824219 L 348.011719 53.132812 L 350.179688 54.421875 L 352.351562 55.695312 L 354.519531 56.945312 L 356.691406 58.175781 L 358.859375 59.382812 L 361.03125 60.5625 L 363.199219 61.710938 L 365.371094 62.832031 L 367.539062 63.921875 L 369.710938 64.980469 L 371.878906 66.003906 L 374.050781 66.996094 L 376.21875 67.949219 L 378.390625 68.871094 L 380.558594 69.757812 L 382.730469 70.605469 L 384.898438 71.421875 L 387.070312 72.199219 L 389.238281 72.945312 L 391.410156 73.652344 L 393.578125 74.324219 L 395.75 74.964844 L 397.921875 75.570312 L 400.089844 76.144531 L 402.261719 76.683594 L 404.429688 77.195312 L 406.601562 77.671875 L 408.769531 78.121094 L 410.941406 78.539062 L 413.109375 78.929688 L 415.28125 79.292969 L 417.449219 79.628906 L 419.621094 79.9375 L 421.789062 80.222656 L 423.960938 80.480469 L 426.128906 80.71875 L 428.300781 80.929688 L 430.46875 81.121094 L 432.640625 81.292969 L 434.808594 81.4375 L 436.980469 81.566406 L 439.148438 81.671875 L 441.320312 81.757812 L 443.488281 81.828125 L 445.660156 81.875 L 447.828125 81.902344 L 450 81.914062 L 452.171875 81.902344 L 454.339844 81.875 L 456.511719 81.828125 L 458.679688 81.757812 L 460.851562 81.671875 L 463.019531 81.566406 L 465.191406 81.4375 L 467.359375 81.292969 L 469.53125 81.121094 L 471.699219 80.929688 L 473.871094 80.71875 L 476.039062 80.480469 L 478.210938 80.222656 L 480.378906 79.9375 L 482.550781 79.628906 L 484.71875 79.292969 L 486.890625 78.929688 L 489.058594 78.539062 L 491.230469 78.121094 L 493.398438 77.671875 L 495.570312 77.195312 L 497.738281 76.683594 L 499.910156 76.144531 L 502.078125 75.570312 L 504.25 74.964844 L 506.421875 74.324219 L 508.589844 73.652344 L 510.761719 72.945312 L 512.929688 72.199219 L 515.101562 71.421875 L 517.269531 70.605469 L 519.441406 69.757812 L 521.609375 68.871094 L 523.78125 67.949219 L 525.949219 66.996094 L 528.121094 66.003906 L 530.289062 64.980469 L 532.460938 63.921875 L 534.628906 62.832031 L 536.800781 61.710938 L 538.96875 60.5625 L 541.140625 59.382812 L 543.308594 58.175781 L 545.480469 56.945312 L 547.648438 55.695312 L 549.820312 54.421875 L 551.988281 53.132812 L 554.160156 51.824219 L 556.328125 50.507812 L 558.5 49.179688 L 560.671875 47.84375 L 562.839844 46.503906 L 565.011719 45.167969 L 567.179688 43.832031 L 569.351562 42.503906 L 571.519531 41.1875 L 573.691406 39.882812 L 575.859375 38.597656 L 578.03125 37.335938 L 580.199219 36.101562 L 582.371094 34.894531 L 584.539062 33.722656 L 586.710938 32.585938 L 588.878906 31.492188 L 591.050781 30.445312 L 593.21875 29.445312 L 595.390625 28.5 L 597.558594 27.605469 L 599.730469 26.773438 L 601.898438 26 L 604.070312 25.292969 L 606.238281 24.652344 L 608.410156 24.082031 L 610.578125 23.585938 L 612.75 23.160156 L 614.921875 22.808594 L 617.089844 22.535156 L 619.261719 22.339844 L 621.429688 22.222656 L 623.601562 22.183594 L 625.769531 22.222656 L 627.941406 22.339844 L 630.109375 22.535156 L 632.28125 22.808594 L 634.449219 23.160156 L 636.621094 23.585938 L 638.789062 24.082031 L 640.960938 24.652344 L 643.128906 25.292969 L 645.300781 26 L 647.46875 26.773438 L 649.640625 27.605469 L 651.808594 28.5 L 653.980469 29.445312 L 656.148438 30.445312 L 658.320312 31.492188 L 660.488281 32.585938 L 662.660156 33.722656 L 664.828125 34.894531 L 667 36.101562 L 669.171875 37.335938 L 671.339844 38.597656 L 673.511719 39.882812 L 675.679688 41.1875 L 677.851562 42.503906 L 680.019531 43.832031 L 682.191406 45.167969 L 684.359375 46.503906 L 686.53125 47.84375 L 688.699219 49.179688 L 690.871094 50.507812 L 693.039062 51.828125 L 695.210938 53.132812 L 697.378906 54.425781 L 699.550781 55.699219 L 701.71875 56.949219 L 703.890625 58.179688 L 706.058594 59.386719 L 708.230469 60.566406 L 710.398438 61.71875 L 712.570312 62.839844 L 714.738281 63.929688 L 716.910156 64.988281 L 719.078125 66.015625 L 721.25 67.007812 L 723.421875 67.964844 L 725.589844 68.890625 L 727.761719 69.777344 L 729.929688 70.632812 L 732.101562 71.449219 L 734.269531 72.230469 L 736.441406 72.980469 L 738.609375 73.695312 L 740.78125 74.375 L 742.949219 75.019531 L 745.121094 75.632812 L 747.289062 76.214844 L 749.460938 76.765625 L 751.628906 77.285156 L 753.800781 77.777344 L 755.96875 78.238281 L 758.140625 78.671875 L 760.308594 79.082031 L 762.480469 79.464844 L 764.648438 79.824219 L 766.820312 80.15625 L 768.988281 80.46875 L 771.160156 80.761719 L 773.328125 81.03125 L 775.5 81.285156 L 777.671875 81.515625 L 779.839844 81.734375 L 782.011719 81.933594 L 784.179688 82.117188 L 786.351562 82.289062 L 788.519531 82.445312 L 790.691406 82.589844 L 792.859375 82.722656 L 795.03125 82.84375 L 797.199219 82.957031 L 799.371094 83.058594 L 801.539062 83.152344 L 803.710938 83.234375 L 805.878906 83.3125 L 808.050781 83.382812 L 810.21875 83.445312 L 812.390625 83.503906 L 814.558594 83.558594 L 816.730469 83.605469 L 818.898438 83.648438 L 821.070312 83.6875 L 823.238281 83.71875 L 825.410156 83.75 L 827.578125 83.78125 L 831.921875 83.828125 L 834.089844 83.847656 L 836.261719 83.863281 L 838.429688 83.878906 L 840.601562 83.894531 L 842.769531 83.90625 L 844.941406 83.917969 L 847.109375 83.929688 L 849.28125 83.9375 L 851.449219 83.945312 L 853.621094 83.953125 L 855.789062 83.957031 L 857.960938 83.964844 L 860.128906 83.96875 L 862.300781 83.972656 L 864.46875 83.976562 L 866.640625 83.980469 L 868.808594 83.980469 L 870.980469 83.984375 L 873.148438 83.988281 L 877.488281 83.988281 L 879.660156 83.992188 L 884 83.992188 "/>
</g>
</svg>
