<?xml version="1.0" encoding="utf-8"?>
<svg xmlns="http://www.w3.org/2000/svg" xmlns:xlink="http://www.w3.org/1999/xlink" width="576" height="384" viewBox="0 0 2304 1536">
<defs>
  <clipPath id="clip920">
    <rect x="0" y="0" width="2304" height="1536"/>
  </clipPath>
</defs>
<path clip-path="url(#clip920)" d="M0 1536 L2304 1536 L2304 8.52651e-14 L0 8.52651e-14  Z" fill="#ffffff" fill-rule="evenodd" fill-opacity="1"/>
<defs>
  <clipPath id="clip921">
    <rect x="460" y="0" width="1614" height="1536"/>
  </clipPath>
</defs>
<path clip-path="url(#clip920)" d="M192.976 1423.09 L2256.76 1423.09 L2256.76 47.2441 L192.976 47.2441  Z" fill="#ffffff" fill-rule="evenodd" fill-opacity="1"/>
<defs>
  <clipPath id="clip922">
    <rect x="192" y="47" width="2065" height="1377"/>
  </clipPath>
</defs>
<polyline clip-path="url(#clip922)" style="stroke:#000000; stroke-linecap:round; stroke-linejoin:round; stroke-width:2; stroke-opacity:0.1; fill:none" points="251.355,1423.09 251.355,47.2441 "/>
<polyline clip-path="url(#clip922)" style="stroke:#000000; stroke-linecap:round; stroke-linejoin:round; stroke-width:2; stroke-opacity:0.1; fill:none" points="738.11,1423.09 738.11,47.2441 "/>
<polyline clip-path="url(#clip922)" style="stroke:#000000; stroke-linecap:round; stroke-linejoin:round; stroke-width:2; stroke-opacity:0.1; fill:none" points="1224.87,1423.09 1224.87,47.2441 "/>
<polyline clip-path="url(#clip922)" style="stroke:#000000; stroke-linecap:round; stroke-linejoin:round; stroke-width:2; stroke-opacity:0.1; fill:none" points="1711.62,1423.09 1711.62,47.2441 "/>
<polyline clip-path="url(#clip922)" style="stroke:#000000; stroke-linecap:round; stroke-linejoin:round; stroke-width:2; stroke-opacity:0.1; fill:none" points="2198.38,1423.09 2198.38,47.2441 "/>
<polyline clip-path="url(#clip920)" style="stroke:#000000; stroke-linecap:round; stroke-linejoin:round; stroke-width:4; stroke-opacity:1; fill:none" points="192.976,1423.09 2256.76,1423.09 "/>
<polyline clip-path="url(#clip920)" style="stroke:#000000; stroke-linecap:round; stroke-linejoin:round; stroke-width:4; stroke-opacity:1; fill:none" points="251.355,1423.09 251.355,1404.19 "/>
<polyline clip-path="url(#clip920)" style="stroke:#000000; stroke-linecap:round; stroke-linejoin:round; stroke-width:4; stroke-opacity:1; fill:none" points="738.11,1423.09 738.11,1404.19 "/>
<polyline clip-path="url(#clip920)" style="stroke:#000000; stroke-linecap:round; stroke-linejoin:round; stroke-width:4; stroke-opacity:1; fill:none" points="1224.87,1423.09 1224.87,1404.19 "/>
<polyline clip-path="url(#clip920)" style="stroke:#000000; stroke-linecap:round; stroke-linejoin:round; stroke-width:4; stroke-opacity:1; fill:none" points="1711.62,1423.09 1711.62,1404.19 "/>
<polyline clip-path="url(#clip920)" style="stroke:#000000; stroke-linecap:round; stroke-linejoin:round; stroke-width:4; stroke-opacity:1; fill:none" points="2198.38,1423.09 2198.38,1404.19 "/>
<path clip-path="url(#clip920)" d="M197.883 1467.89 L227.558 1467.89 L227.558 1471.83 L197.883 1471.83 L197.883 1467.89 Z" fill="#000000" fill-rule="nonzero" fill-opacity="1" /><path clip-path="url(#clip920)" d="M238.461 1480.78 L246.1 1480.78 L246.1 1454.42 L237.79 1456.09 L237.79 1451.83 L246.054 1450.16 L250.73 1450.16 L250.73 1480.78 L258.368 1480.78 L258.368 1484.72 L238.461 1484.72 L238.461 1480.78 Z" fill="#000000" fill-rule="nonzero" fill-opacity="1" /><path clip-path="url(#clip920)" d="M267.813 1478.84 L272.697 1478.84 L272.697 1484.72 L267.813 1484.72 L267.813 1478.84 Z" fill="#000000" fill-rule="nonzero" fill-opacity="1" /><path clip-path="url(#clip920)" d="M292.882 1453.24 Q289.271 1453.24 287.442 1456.8 Q285.637 1460.35 285.637 1467.47 Q285.637 1474.58 287.442 1478.15 Q289.271 1481.69 292.882 1481.69 Q296.516 1481.69 298.322 1478.15 Q300.151 1474.58 300.151 1467.47 Q300.151 1460.35 298.322 1456.8 Q296.516 1453.24 292.882 1453.24 M292.882 1449.53 Q298.692 1449.53 301.748 1454.14 Q304.826 1458.72 304.826 1467.47 Q304.826 1476.2 301.748 1480.81 Q298.692 1485.39 292.882 1485.39 Q287.072 1485.39 283.993 1480.81 Q280.938 1476.2 280.938 1467.47 Q280.938 1458.72 283.993 1454.14 Q287.072 1449.53 292.882 1449.53 Z" fill="#000000" fill-rule="nonzero" fill-opacity="1" /><path clip-path="url(#clip920)" d="M685.136 1467.89 L714.812 1467.89 L714.812 1471.83 L685.136 1471.83 L685.136 1467.89 Z" fill="#000000" fill-rule="nonzero" fill-opacity="1" /><path clip-path="url(#clip920)" d="M734.904 1453.24 Q731.293 1453.24 729.464 1456.8 Q727.659 1460.35 727.659 1467.47 Q727.659 1474.58 729.464 1478.15 Q731.293 1481.69 734.904 1481.69 Q738.538 1481.69 740.344 1478.15 Q742.173 1474.58 742.173 1467.47 Q742.173 1460.35 740.344 1456.8 Q738.538 1453.24 734.904 1453.24 M734.904 1449.53 Q740.714 1449.53 743.77 1454.14 Q746.849 1458.72 746.849 1467.47 Q746.849 1476.2 743.77 1480.81 Q740.714 1485.39 734.904 1485.39 Q729.094 1485.39 726.015 1480.81 Q722.96 1476.2 722.96 1467.47 Q722.96 1458.72 726.015 1454.14 Q729.094 1449.53 734.904 1449.53 Z" fill="#000000" fill-rule="nonzero" fill-opacity="1" /><path clip-path="url(#clip920)" d="M755.066 1478.84 L759.95 1478.84 L759.95 1484.72 L755.066 1484.72 L755.066 1478.84 Z" fill="#000000" fill-rule="nonzero" fill-opacity="1" /><path clip-path="url(#clip920)" d="M770.182 1450.16 L788.538 1450.16 L788.538 1454.1 L774.464 1454.1 L774.464 1462.57 Q775.483 1462.22 776.501 1462.06 Q777.52 1461.87 778.538 1461.87 Q784.325 1461.87 787.705 1465.04 Q791.084 1468.22 791.084 1473.63 Q791.084 1479.21 787.612 1482.31 Q784.14 1485.39 777.821 1485.39 Q775.645 1485.39 773.376 1485.02 Q771.131 1484.65 768.724 1483.91 L768.724 1479.21 Q770.807 1480.34 773.029 1480.9 Q775.251 1481.46 777.728 1481.46 Q781.733 1481.46 784.071 1479.35 Q786.409 1477.24 786.409 1473.63 Q786.409 1470.02 784.071 1467.91 Q781.733 1465.81 777.728 1465.81 Q775.853 1465.81 773.978 1466.22 Q772.126 1466.64 770.182 1467.52 L770.182 1450.16 Z" fill="#000000" fill-rule="nonzero" fill-opacity="1" /><path clip-path="url(#clip920)" d="M1202.25 1453.24 Q1198.64 1453.24 1196.81 1456.8 Q1195.01 1460.35 1195.01 1467.47 Q1195.01 1474.58 1196.81 1478.15 Q1198.64 1481.69 1202.25 1481.69 Q1205.88 1481.69 1207.69 1478.15 Q1209.52 1474.58 1209.52 1467.47 Q1209.52 1460.35 1207.69 1456.8 Q1205.88 1453.24 1202.25 1453.24 M1202.25 1449.53 Q1208.06 1449.53 1211.12 1454.14 Q1214.19 1458.72 1214.19 1467.47 Q1214.19 1476.2 1211.12 1480.81 Q1208.06 1485.39 1202.25 1485.39 Q1196.44 1485.39 1193.36 1480.81 Q1190.31 1476.2 1190.31 1467.47 Q1190.31 1458.72 1193.36 1454.14 Q1196.44 1449.53 1202.25 1449.53 Z" fill="#000000" fill-rule="nonzero" fill-opacity="1" /><path clip-path="url(#clip920)" d="M1222.41 1478.84 L1227.3 1478.84 L1227.3 1484.72 L1222.41 1484.72 L1222.41 1478.84 Z" fill="#000000" fill-rule="nonzero" fill-opacity="1" /><path clip-path="url(#clip920)" d="M1247.48 1453.24 Q1243.87 1453.24 1242.04 1456.8 Q1240.24 1460.35 1240.24 1467.47 Q1240.24 1474.58 1242.04 1478.15 Q1243.87 1481.69 1247.48 1481.69 Q1251.12 1481.69 1252.92 1478.15 Q1254.75 1474.58 1254.75 1467.47 Q1254.75 1460.35 1252.92 1456.8 Q1251.12 1453.24 1247.48 1453.24 M1247.48 1449.53 Q1253.29 1449.53 1256.35 1454.14 Q1259.43 1458.72 1259.43 1467.47 Q1259.43 1476.2 1256.35 1480.81 Q1253.29 1485.39 1247.48 1485.39 Q1241.67 1485.39 1238.59 1480.81 Q1235.54 1476.2 1235.54 1467.47 Q1235.54 1458.72 1238.59 1454.14 Q1241.67 1449.53 1247.48 1449.53 Z" fill="#000000" fill-rule="nonzero" fill-opacity="1" /><path clip-path="url(#clip920)" d="M1689.5 1453.24 Q1685.89 1453.24 1684.06 1456.8 Q1682.26 1460.35 1682.26 1467.47 Q1682.26 1474.58 1684.06 1478.15 Q1685.89 1481.69 1689.5 1481.69 Q1693.14 1481.69 1694.94 1478.15 Q1696.77 1474.58 1696.77 1467.47 Q1696.77 1460.35 1694.94 1456.8 Q1693.14 1453.24 1689.5 1453.24 M1689.5 1449.53 Q1695.31 1449.53 1698.37 1454.14 Q1701.45 1458.72 1701.45 1467.47 Q1701.45 1476.2 1698.37 1480.81 Q1695.31 1485.39 1689.5 1485.39 Q1683.69 1485.39 1680.61 1480.81 Q1677.56 1476.2 1677.56 1467.47 Q1677.56 1458.72 1680.61 1454.14 Q1683.69 1449.53 1689.5 1449.53 Z" fill="#000000" fill-rule="nonzero" fill-opacity="1" /><path clip-path="url(#clip920)" d="M1709.67 1478.84 L1714.55 1478.84 L1714.55 1484.72 L1709.67 1484.72 L1709.67 1478.84 Z" fill="#000000" fill-rule="nonzero" fill-opacity="1" /><path clip-path="url(#clip920)" d="M1724.78 1450.16 L1743.14 1450.16 L1743.14 1454.1 L1729.06 1454.1 L1729.06 1462.57 Q1730.08 1462.22 1731.1 1462.06 Q1732.12 1461.87 1733.14 1461.87 Q1738.92 1461.87 1742.3 1465.04 Q1745.68 1468.22 1745.68 1473.63 Q1745.68 1479.21 1742.21 1482.31 Q1738.74 1485.39 1732.42 1485.39 Q1730.24 1485.39 1727.98 1485.02 Q1725.73 1484.65 1723.32 1483.91 L1723.32 1479.21 Q1725.41 1480.34 1727.63 1480.9 Q1729.85 1481.46 1732.33 1481.46 Q1736.33 1481.46 1738.67 1479.35 Q1741.01 1477.24 1741.01 1473.63 Q1741.01 1470.02 1738.67 1467.91 Q1736.33 1465.81 1732.33 1465.81 Q1730.45 1465.81 1728.58 1466.22 Q1726.73 1466.64 1724.78 1467.52 L1724.78 1450.16 Z" fill="#000000" fill-rule="nonzero" fill-opacity="1" /><path clip-path="url(#clip920)" d="M2165.53 1480.78 L2173.17 1480.78 L2173.17 1454.42 L2164.86 1456.09 L2164.86 1451.83 L2173.12 1450.16 L2177.8 1450.16 L2177.8 1480.78 L2185.44 1480.78 L2185.44 1484.72 L2165.53 1484.72 L2165.53 1480.78 Z" fill="#000000" fill-rule="nonzero" fill-opacity="1" /><path clip-path="url(#clip920)" d="M2194.88 1478.84 L2199.77 1478.84 L2199.77 1484.72 L2194.88 1484.72 L2194.88 1478.84 Z" fill="#000000" fill-rule="nonzero" fill-opacity="1" /><path clip-path="url(#clip920)" d="M2219.95 1453.24 Q2216.34 1453.24 2214.51 1456.8 Q2212.71 1460.35 2212.71 1467.47 Q2212.71 1474.58 2214.51 1478.15 Q2216.34 1481.69 2219.95 1481.69 Q2223.59 1481.69 2225.39 1478.15 Q2227.22 1474.58 2227.22 1467.47 Q2227.22 1460.35 2225.39 1456.8 Q2223.59 1453.24 2219.95 1453.24 M2219.95 1449.53 Q2225.76 1449.53 2228.82 1454.14 Q2231.9 1458.72 2231.9 1467.47 Q2231.9 1476.2 2228.82 1480.81 Q2225.76 1485.39 2219.95 1485.39 Q2214.14 1485.39 2211.06 1480.81 Q2208.01 1476.2 2208.01 1467.47 Q2208.01 1458.72 2211.06 1454.14 Q2214.14 1449.53 2219.95 1449.53 Z" fill="#000000" fill-rule="nonzero" fill-opacity="1" /><polyline clip-path="url(#clip922)" style="stroke:#000000; stroke-linecap:round; stroke-linejoin:round; stroke-width:2; stroke-opacity:0.1; fill:none" points="192.976,1384.17 2256.76,1384.17 "/>
<polyline clip-path="url(#clip922)" style="stroke:#000000; stroke-linecap:round; stroke-linejoin:round; stroke-width:2; stroke-opacity:0.1; fill:none" points="192.976,1059.67 2256.76,1059.67 "/>
<polyline clip-path="url(#clip922)" style="stroke:#000000; stroke-linecap:round; stroke-linejoin:round; stroke-width:2; stroke-opacity:0.1; fill:none" points="192.976,735.166 2256.76,735.166 "/>
<polyline clip-path="url(#clip922)" style="stroke:#000000; stroke-linecap:round; stroke-linejoin:round; stroke-width:2; stroke-opacity:0.1; fill:none" points="192.976,410.664 2256.76,410.664 "/>
<polyline clip-path="url(#clip922)" style="stroke:#000000; stroke-linecap:round; stroke-linejoin:round; stroke-width:2; stroke-opacity:0.1; fill:none" points="192.976,86.1629 2256.76,86.1629 "/>
<polyline clip-path="url(#clip920)" style="stroke:#000000; stroke-linecap:round; stroke-linejoin:round; stroke-width:4; stroke-opacity:1; fill:none" points="192.976,1423.09 192.976,47.2441 "/>
<polyline clip-path="url(#clip920)" style="stroke:#000000; stroke-linecap:round; stroke-linejoin:round; stroke-width:4; stroke-opacity:1; fill:none" points="192.976,1384.17 211.874,1384.17 "/>
<polyline clip-path="url(#clip920)" style="stroke:#000000; stroke-linecap:round; stroke-linejoin:round; stroke-width:4; stroke-opacity:1; fill:none" points="192.976,1059.67 211.874,1059.67 "/>
<polyline clip-path="url(#clip920)" style="stroke:#000000; stroke-linecap:round; stroke-linejoin:round; stroke-width:4; stroke-opacity:1; fill:none" points="192.976,735.166 211.874,735.166 "/>
<polyline clip-path="url(#clip920)" style="stroke:#000000; stroke-linecap:round; stroke-linejoin:round; stroke-width:4; stroke-opacity:1; fill:none" points="192.976,410.664 211.874,410.664 "/>
<polyline clip-path="url(#clip920)" style="stroke:#000000; stroke-linecap:round; stroke-linejoin:round; stroke-width:4; stroke-opacity:1; fill:none" points="192.976,86.1629 211.874,86.1629 "/>
<path clip-path="url(#clip920)" d="M51.4721 1384.62 L81.1479 1384.62 L81.1479 1388.56 L51.4721 1388.56 L51.4721 1384.62 Z" fill="#000000" fill-rule="nonzero" fill-opacity="1" /><path clip-path="url(#clip920)" d="M92.0506 1397.51 L99.6895 1397.51 L99.6895 1371.15 L91.3793 1372.82 L91.3793 1368.56 L99.6432 1366.89 L104.319 1366.89 L104.319 1397.51 L111.958 1397.51 L111.958 1401.45 L92.0506 1401.45 L92.0506 1397.51 Z" fill="#000000" fill-rule="nonzero" fill-opacity="1" /><path clip-path="url(#clip920)" d="M121.402 1395.57 L126.287 1395.57 L126.287 1401.45 L121.402 1401.45 L121.402 1395.57 Z" fill="#000000" fill-rule="nonzero" fill-opacity="1" /><path clip-path="url(#clip920)" d="M146.472 1369.97 Q142.861 1369.97 141.032 1373.53 Q139.226 1377.07 139.226 1384.2 Q139.226 1391.31 141.032 1394.88 Q142.861 1398.42 146.472 1398.42 Q150.106 1398.42 151.911 1394.88 Q153.74 1391.31 153.74 1384.2 Q153.74 1377.07 151.911 1373.53 Q150.106 1369.97 146.472 1369.97 M146.472 1366.26 Q152.282 1366.26 155.337 1370.87 Q158.416 1375.45 158.416 1384.2 Q158.416 1392.93 155.337 1397.54 Q152.282 1402.12 146.472 1402.12 Q140.661 1402.12 137.583 1397.54 Q134.527 1392.93 134.527 1384.2 Q134.527 1375.45 137.583 1370.87 Q140.661 1366.26 146.472 1366.26 Z" fill="#000000" fill-rule="nonzero" fill-opacity="1" /><path clip-path="url(#clip920)" d="M52.4675 1060.12 L82.1433 1060.12 L82.1433 1064.05 L52.4675 1064.05 L52.4675 1060.12 Z" fill="#000000" fill-rule="nonzero" fill-opacity="1" /><path clip-path="url(#clip920)" d="M102.236 1045.47 Q98.6247 1045.47 96.796 1049.03 Q94.9904 1052.57 94.9904 1059.7 Q94.9904 1066.81 96.796 1070.37 Q98.6247 1073.92 102.236 1073.92 Q105.87 1073.92 107.676 1070.37 Q109.504 1066.81 109.504 1059.7 Q109.504 1052.57 107.676 1049.03 Q105.87 1045.47 102.236 1045.47 M102.236 1041.76 Q108.046 1041.76 111.101 1046.37 Q114.18 1050.95 114.18 1059.7 Q114.18 1068.43 111.101 1073.04 Q108.046 1077.62 102.236 1077.62 Q96.4256 1077.62 93.3469 1073.04 Q90.2914 1068.43 90.2914 1059.7 Q90.2914 1050.95 93.3469 1046.37 Q96.4256 1041.76 102.236 1041.76 Z" fill="#000000" fill-rule="nonzero" fill-opacity="1" /><path clip-path="url(#clip920)" d="M122.398 1071.07 L127.282 1071.07 L127.282 1076.95 L122.398 1076.95 L122.398 1071.07 Z" fill="#000000" fill-rule="nonzero" fill-opacity="1" /><path clip-path="url(#clip920)" d="M137.513 1042.39 L155.87 1042.39 L155.87 1046.32 L141.796 1046.32 L141.796 1054.79 Q142.814 1054.45 143.833 1054.29 Q144.851 1054.1 145.87 1054.1 Q151.657 1054.1 155.036 1057.27 Q158.416 1060.44 158.416 1065.86 Q158.416 1071.44 154.944 1074.54 Q151.472 1077.62 145.152 1077.62 Q142.976 1077.62 140.708 1077.25 Q138.462 1076.88 136.055 1076.14 L136.055 1071.44 Q138.138 1072.57 140.361 1073.13 Q142.583 1073.68 145.06 1073.68 Q149.064 1073.68 151.402 1071.58 Q153.74 1069.47 153.74 1065.86 Q153.74 1062.25 151.402 1060.14 Q149.064 1058.04 145.06 1058.04 Q143.185 1058.04 141.31 1058.45 Q139.458 1058.87 137.513 1059.75 L137.513 1042.39 Z" fill="#000000" fill-rule="nonzero" fill-opacity="1" /><path clip-path="url(#clip920)" d="M101.24 720.965 Q97.6293 720.965 95.8006 724.529 Q93.995 728.071 93.995 735.201 Q93.995 742.307 95.8006 745.872 Q97.6293 749.414 101.24 749.414 Q104.875 749.414 106.68 745.872 Q108.509 742.307 108.509 735.201 Q108.509 728.071 106.68 724.529 Q104.875 720.965 101.24 720.965 M101.24 717.261 Q107.051 717.261 110.106 721.867 Q113.185 726.451 113.185 735.201 Q113.185 743.928 110.106 748.534 Q107.051 753.117 101.24 753.117 Q95.4302 753.117 92.3515 748.534 Q89.296 743.928 89.296 735.201 Q89.296 726.451 92.3515 721.867 Q95.4302 717.261 101.24 717.261 Z" fill="#000000" fill-rule="nonzero" fill-opacity="1" /><path clip-path="url(#clip920)" d="M121.402 746.566 L126.287 746.566 L126.287 752.446 L121.402 752.446 L121.402 746.566 Z" fill="#000000" fill-rule="nonzero" fill-opacity="1" /><path clip-path="url(#clip920)" d="M146.472 720.965 Q142.861 720.965 141.032 724.529 Q139.226 728.071 139.226 735.201 Q139.226 742.307 141.032 745.872 Q142.861 749.414 146.472 749.414 Q150.106 749.414 151.911 745.872 Q153.74 742.307 153.74 735.201 Q153.74 728.071 151.911 724.529 Q150.106 720.965 146.472 720.965 M146.472 717.261 Q152.282 717.261 155.337 721.867 Q158.416 726.451 158.416 735.201 Q158.416 743.928 155.337 748.534 Q152.282 753.117 146.472 753.117 Q140.661 753.117 137.583 748.534 Q134.527 743.928 134.527 735.201 Q134.527 726.451 137.583 721.867 Q140.661 717.261 146.472 717.261 Z" fill="#000000" fill-rule="nonzero" fill-opacity="1" /><path clip-path="url(#clip920)" d="M102.236 396.463 Q98.6247 396.463 96.796 400.028 Q94.9904 403.57 94.9904 410.699 Q94.9904 417.806 96.796 421.37 Q98.6247 424.912 102.236 424.912 Q105.87 424.912 107.676 421.37 Q109.504 417.806 109.504 410.699 Q109.504 403.57 107.676 400.028 Q105.87 396.463 102.236 396.463 M102.236 392.759 Q108.046 392.759 111.101 397.366 Q114.18 401.949 114.18 410.699 Q114.18 419.426 111.101 424.032 Q108.046 428.616 102.236 428.616 Q96.4256 428.616 93.3469 424.032 Q90.2914 419.426 90.2914 410.699 Q90.2914 401.949 93.3469 397.366 Q96.4256 392.759 102.236 392.759 Z" fill="#000000" fill-rule="nonzero" fill-opacity="1" /><path clip-path="url(#clip920)" d="M122.398 422.065 L127.282 422.065 L127.282 427.944 L122.398 427.944 L122.398 422.065 Z" fill="#000000" fill-rule="nonzero" fill-opacity="1" /><path clip-path="url(#clip920)" d="M137.513 393.384 L155.87 393.384 L155.87 397.32 L141.796 397.32 L141.796 405.792 Q142.814 405.445 143.833 405.283 Q144.851 405.097 145.87 405.097 Q151.657 405.097 155.036 408.269 Q158.416 411.44 158.416 416.857 Q158.416 422.435 154.944 425.537 Q151.472 428.616 145.152 428.616 Q142.976 428.616 140.708 428.245 Q138.462 427.875 136.055 427.134 L136.055 422.435 Q138.138 423.569 140.361 424.125 Q142.583 424.681 145.06 424.681 Q149.064 424.681 151.402 422.574 Q153.74 420.468 153.74 416.857 Q153.74 413.245 151.402 411.139 Q149.064 409.032 145.06 409.032 Q143.185 409.032 141.31 409.449 Q139.458 409.866 137.513 410.745 L137.513 393.384 Z" fill="#000000" fill-rule="nonzero" fill-opacity="1" /><path clip-path="url(#clip920)" d="M92.0506 99.5077 L99.6895 99.5077 L99.6895 73.1421 L91.3793 74.8087 L91.3793 70.5495 L99.6432 68.8829 L104.319 68.8829 L104.319 99.5077 L111.958 99.5077 L111.958 103.443 L92.0506 103.443 L92.0506 99.5077 Z" fill="#000000" fill-rule="nonzero" fill-opacity="1" /><path clip-path="url(#clip920)" d="M121.402 97.5633 L126.287 97.5633 L126.287 103.443 L121.402 103.443 L121.402 97.5633 Z" fill="#000000" fill-rule="nonzero" fill-opacity="1" /><path clip-path="url(#clip920)" d="M146.472 71.9615 Q142.861 71.9615 141.032 75.5263 Q139.226 79.068 139.226 86.1976 Q139.226 93.304 141.032 96.8688 Q142.861 100.41 146.472 100.41 Q150.106 100.41 151.911 96.8688 Q153.74 93.304 153.74 86.1976 Q153.74 79.068 151.911 75.5263 Q150.106 71.9615 146.472 71.9615 M146.472 68.2579 Q152.282 68.2579 155.337 72.8643 Q158.416 77.4476 158.416 86.1976 Q158.416 94.9244 155.337 99.5308 Q152.282 104.114 146.472 104.114 Q140.661 104.114 137.583 99.5308 Q134.527 94.9244 134.527 86.1976 Q134.527 77.4476 137.583 72.8643 Q140.661 68.2579 146.472 68.2579 Z" fill="#000000" fill-rule="nonzero" fill-opacity="1" /><path clip-path="url(#clip922)" d="M1224.87 735.166 L1255.6 694.21 L1286.3 653.418 L1316.94 612.951 L1347.49 572.972 L1377.92 533.639 L1408.19 495.109 L1438.28 457.537 L1468.16 421.071 L1497.79 385.857 L1527.16 352.036 L1556.22 319.742 L1584.95 289.103 L1613.33 260.243 L1641.31 233.277 L1668.88 208.311 L1696.01 185.445 L1722.67 164.77 L1748.83 146.369 L1774.47 130.316 L1799.57 116.673 L1824.08 105.496 L1848.01 96.8291 L1871.31 90.7067 L1893.96 87.1533 L1915.95 86.1831 L1937.25 87.7999 L1957.85 91.9973 L1977.71 98.7585 L1996.81 108.057 L2015.15 119.855 L2032.71 134.105 L2049.45 150.752 L2065.38 169.729 L2080.47 190.959 L2094.7 214.359 L2108.07 239.835 L2120.55 267.285 L2132.15 296.601 L2142.84 327.665 L2152.61 360.353 L2161.46 394.535 L2169.38 430.075 L2176.35 466.832 L2182.38 504.658 L2187.45 543.403 L2191.56 582.912 L2194.71 623.028 L2196.89 663.592 L2198.1 704.44 L2198.35 745.411 L2197.62 786.342 L2195.92 827.068 L2193.26 867.428 L2189.63 907.26 L2185.03 946.407 L2179.48 984.711 L2172.98 1022.02 L2165.54 1058.19 L2157.15 1093.07 L2147.84 1126.52 L2137.61 1158.41 L2126.46 1188.61 L2114.42 1217.01 L2101.49 1243.49 L2087.69 1267.94 L2073.03 1290.26 L2057.52 1310.38 L2041.18 1328.2 L2024.03 1343.66 L2006.08 1356.69 L1987.35 1367.24 L1967.87 1375.27 L1947.64 1380.76 L1926.69 1383.66 L1905.04 1383.99 L1882.72 1381.72 L1859.74 1376.88 L1836.12 1369.49 L1811.9 1359.56 L1787.09 1347.14 L1761.72 1332.29 L1735.82 1315.05 L1709.4 1295.5 L1682.5 1273.72 L1655.15 1249.79 L1627.37 1223.82 L1599.19 1195.89 L1570.63 1166.12 L1541.73 1134.64 L1512.51 1101.57 L1483.01 1067.03 L1453.25 1031.18 L1423.26 994.138 L1393.07 956.068 L1362.72 917.117 L1332.23 877.441 L1301.63 837.198 L1270.95 796.549 L1240.23 755.654 L1209.5 714.678 L1178.78 673.783 L1148.1 633.134 L1117.5 592.89 L1087.01 553.215 L1056.66 514.264 L1026.47 476.194 L996.484 439.156 L966.723 403.298 L937.219 368.764 L908.002 335.689 L879.101 304.208 L850.545 274.444 L822.362 246.517 L794.58 220.537 L767.227 196.609 L740.33 174.828 L713.916 155.281 L688.012 138.045 L662.643 123.189 L637.834 110.773 L613.61 100.846 L589.995 93.4481 L567.014 88.6078 L544.688 86.3448 L523.04 86.6682 L502.092 89.5768 L481.864 95.0588 L462.377 103.093 L443.65 113.646 L425.702 126.677 L408.55 142.133 L392.212 159.954 L376.704 180.067 L362.042 202.394 L348.239 226.844 L335.311 253.32 L323.269 281.717 L312.126 311.922 L301.893 343.814 L292.579 377.266 L284.195 412.144 L276.749 448.311 L270.248 485.62 L264.699 523.925 L260.106 563.072 L256.475 602.904 L253.81 643.264 L252.113 683.99 L251.385 724.921 L251.627 765.892 L252.84 806.74 L255.022 847.304 L258.17 887.42 L262.282 926.929 L267.354 965.674 L273.38 1003.5 L280.355 1040.26 L288.271 1075.8 L297.12 1109.98 L306.895 1142.67 L317.584 1173.73 L329.178 1203.05 L341.665 1230.5 L355.032 1255.97 L369.266 1279.37 L384.353 1300.6 L400.278 1319.58 L417.025 1336.23 L434.577 1350.48 L452.917 1362.28 L472.027 1371.57 L491.887 1378.33 L512.477 1382.53 L533.778 1384.15 L555.768 1383.18 L578.424 1379.63 L601.725 1373.5 L625.647 1364.84 L650.166 1353.66 L675.259 1340.02 L700.899 1323.96 L727.061 1305.56 L753.72 1284.89 L780.848 1262.02 L808.419 1237.06 L836.405 1210.09 L864.778 1181.23 L893.511 1150.59 L922.573 1118.3 L951.937 1084.47 L981.573 1049.26 L1011.45 1012.8 L1041.54 975.223 L1071.82 936.693 L1102.24 897.36 L1132.79 857.381 L1163.43 816.914 L1194.13 776.122 L1224.87 735.166 L1224.87 735.166 L1194.13 735.166 L1163.43 735.166 L1132.79 735.166 L1102.24 735.166 L1071.82 735.166 L1041.54 735.166 L1011.45 735.166 L981.573 735.166 L951.937 735.166 L922.573 735.166 L893.511 735.166 L864.778 735.166 L836.405 735.166 L808.419 735.166 L780.848 735.166 L753.72 735.166 L727.061 735.166 L700.899 735.166 L675.259 735.166 L650.166 735.166 L625.647 735.166 L601.725 735.166 L578.424 735.166 L555.768 735.166 L533.778 735.166 L512.477 735.166 L491.887 735.166 L472.027 735.166 L452.917 735.166 L434.577 735.166 L417.025 735.166 L400.278 735.166 L384.353 735.166 L369.266 735.166 L355.032 735.166 L341.665 735.166 L329.178 735.166 L317.584 735.166 L306.895 735.166 L297.12 735.166 L288.271 735.166 L280.355 735.166 L273.38 735.166 L267.354 735.166 L262.282 735.166 L258.17 735.166 L255.022 735.166 L252.84 735.166 L251.627 735.166 L251.385 735.166 L252.113 735.166 L253.81 735.166 L256.475 735.166 L260.106 735.166 L264.699 735.166 L270.248 735.166 L276.749 735.166 L284.195 735.166 L292.579 735.166 L301.893 735.166 L312.126 735.166 L323.269 735.166 L335.311 735.166 L348.239 735.166 L362.042 735.166 L376.704 735.166 L392.212 735.166 L408.55 735.166 L425.702 735.166 L443.65 735.166 L462.377 735.166 L481.864 735.166 L502.092 735.166 L523.04 735.166 L544.688 735.166 L567.014 735.166 L589.995 735.166 L613.61 735.166 L637.834 735.166 L662.643 735.166 L688.012 735.166 L713.916 735.166 L740.33 735.166 L767.227 735.166 L794.58 735.166 L822.362 735.166 L850.545 735.166 L879.101 735.166 L908.002 735.166 L937.219 735.166 L966.723 735.166 L996.484 735.166 L1026.47 735.166 L1056.66 735.166 L1087.01 735.166 L1117.5 735.166 L1148.1 735.166 L1178.78 735.166 L1209.5 735.166 L1240.23 735.166 L1270.95 735.166 L1301.63 735.166 L1332.23 735.166 L1362.72 735.166 L1393.07 735.166 L1423.26 735.166 L1453.25 735.166 L1483.01 735.166 L1512.51 735.166 L1541.73 735.166 L1570.63 735.166 L1599.19 735.166 L1627.37 735.166 L1655.15 735.166 L1682.5 735.166 L1709.4 735.166 L1735.82 735.166 L1761.72 735.166 L1787.09 735.166 L1811.9 735.166 L1836.12 735.166 L1859.74 735.166 L1882.72 735.166 L1905.04 735.166 L1926.69 735.166 L1947.64 735.166 L1967.87 735.166 L1987.35 735.166 L2006.08 735.166 L2024.03 735.166 L2041.18 735.166 L2057.52 735.166 L2073.03 735.166 L2087.69 735.166 L2101.49 735.166 L2114.42 735.166 L2126.46 735.166 L2137.61 735.166 L2147.84 735.166 L2157.15 735.166 L2165.54 735.166 L2172.98 735.166 L2179.48 735.166 L2185.03 735.166 L2189.63 735.166 L2193.26 735.166 L2195.92 735.166 L2197.62 735.166 L2198.35 735.166 L2198.1 735.166 L2196.89 735.166 L2194.71 735.166 L2191.56 735.166 L2187.45 735.166 L2182.38 735.166 L2176.35 735.166 L2169.38 735.166 L2161.46 735.166 L2152.61 735.166 L2142.84 735.166 L2132.15 735.166 L2120.55 735.166 L2108.07 735.166 L2094.7 735.166 L2080.47 735.166 L2065.38 735.166 L2049.45 735.166 L2032.71 735.166 L2015.15 735.166 L1996.81 735.166 L1977.71 735.166 L1957.85 735.166 L1937.25 735.166 L1915.95 735.166 L1893.96 735.166 L1871.31 735.166 L1848.01 735.166 L1824.08 735.166 L1799.57 735.166 L1774.47 735.166 L1748.83 735.166 L1722.67 735.166 L1696.01 735.166 L1668.88 735.166 L1641.31 735.166 L1613.33 735.166 L1584.95 735.166 L1556.22 735.166 L1527.16 735.166 L1497.79 735.166 L1468.16 735.166 L1438.28 735.166 L1408.19 735.166 L1377.92 735.166 L1347.49 735.166 L1316.94 735.166 L1286.3 735.166 L1255.6 735.166 L1224.87 735.166  Z" fill="#e6e6fa" fill-rule="evenodd" fill-opacity="1"/>
<polyline clip-path="url(#clip922)" style="stroke:#009af9; stroke-linecap:round; stroke-linejoin:round; stroke-width:4; stroke-opacity:1; fill:none" points="1224.87,735.166 1255.6,694.21 1286.3,653.418 1316.94,612.951 1347.49,572.972 1377.92,533.639 1408.19,495.109 1438.28,457.537 1468.16,421.071 1497.79,385.857 1527.16,352.036 1556.22,319.742 1584.95,289.103 1613.33,260.243 1641.31,233.277 1668.88,208.311 1696.01,185.445 1722.67,164.77 1748.83,146.369 1774.47,130.316 1799.57,116.673 1824.08,105.496 1848.01,96.8291 1871.31,90.7067 1893.96,87.1533 1915.95,86.1831 1937.25,87.7999 1957.85,91.9973 1977.71,98.7585 1996.81,108.057 2015.15,119.855 2032.71,134.105 2049.45,150.752 2065.38,169.729 2080.47,190.959 2094.7,214.359 2108.07,239.835 2120.55,267.285 2132.15,296.601 2142.84,327.665 2152.61,360.353 2161.46,394.535 2169.38,430.075 2176.35,466.832 2182.38,504.658 2187.45,543.403 2191.56,582.912 2194.71,623.028 2196.89,663.592 2198.1,704.44 2198.35,745.411 2197.62,786.342 2195.92,827.068 2193.26,867.428 2189.63,907.26 2185.03,946.407 2179.48,984.711 2172.98,1022.02 2165.54,1058.19 2157.15,1093.07 2147.84,1126.52 2137.61,1158.41 2126.46,1188.61 2114.42,1217.01 2101.49,1243.49 2087.69,1267.94 2073.03,1290.26 2057.52,1310.38 2041.18,1328.2 2024.03,1343.66 2006.08,1356.69 1987.35,1367.24 1967.87,1375.27 1947.64,1380.76 1926.69,1383.66 1905.04,1383.99 1882.72,1381.72 1859.74,1376.88 1836.12,1369.49 1811.9,1359.56 1787.09,1347.14 1761.72,1332.29 1735.82,1315.05 1709.4,1295.5 1682.5,1273.72 1655.15,1249.79 1627.37,1223.82 1599.19,1195.89 1570.63,1166.12 1541.73,1134.64 1512.51,1101.57 1483.01,1067.03 1453.25,1031.18 1423.26,994.138 1393.07,956.068 1362.72,917.117 1332.23,877.441 1301.63,837.198 1270.95,796.549 1240.23,755.654 1209.5,714.678 1178.78,673.783 1148.1,633.134 1117.5,592.89 1087.01,553.215 1056.66,514.264 1026.47,476.194 996.484,439.156 966.723,403.298 937.219,368.764 908.002,335.689 879.101,304.208 850.545,274.444 822.362,246.517 794.58,220.537 767.227,196.609 740.33,174.828 713.916,155.281 688.012,138.045 662.643,123.189 637.834,110.773 613.61,100.846 589.995,93.4481 567.014,88.6078 544.688,86.3448 523.04,86.6682 502.092,89.5768 481.864,95.0588 462.377,103.093 443.65,113.646 425.702,126.677 408.55,142.133 392.212,159.954 376.704,180.067 362.042,202.394 348.239,226.844 335.311,253.32 323.269,281.717 312.126,311.922 301.893,343.814 292.579,377.266 284.195,412.144 276.749,448.311 270.248,485.62 264.699,523.925 260.106,563.072 256.475,602.904 253.81,643.264 252.113,683.99 251.385,724.921 251.627,765.892 252.84,806.74 255.022,847.304 258.17,887.42 262.282,926.929 267.354,965.674 273.38,1003.5 280.355,1040.26 288.271,1075.8 297.12,1109.98 306.895,1142.67 317.584,1173.73 329.178,1203.05 341.665,1230.5 355.032,1255.97 369.266,1279.37 384.353,1300.6 400.278,1319.58 417.025,1336.23 434.577,1350.48 452.917,1362.28 472.027,1371.57 491.887,1378.33 512.477,1382.53 533.778,1384.15 555.768,1383.18 578.424,1379.63 601.725,1373.5 625.647,1364.84 650.166,1353.66 675.259,1340.02 700.899,1323.96 727.061,1305.56 753.72,1284.89 780.848,1262.02 808.419,1237.06 836.405,1210.09 864.778,1181.23 893.511,1150.59 922.573,1118.3 951.937,1084.47 981.573,1049.26 1011.45,1012.8 1041.54,975.223 1071.82,936.693 1102.24,897.36 1132.79,857.381 1163.43,816.914 1194.13,776.122 1224.87,735.166 "/>
</svg>
