<?xml version="1.0" encoding="utf-8"?>
<svg xmlns="http://www.w3.org/2000/svg" xmlns:xlink="http://www.w3.org/1999/xlink" width="1000" height="250" viewBox="0 0 4000 1000">
<defs>
  <clipPath id="clip090">
    <rect x="0" y="0" width="4000" height="1000"/>
  </clipPath>
</defs>
<path clip-path="url(#clip090)" d="M0 1000 L4000 1000 L4000 0 L0 0  Z" fill="#ffffff" fill-rule="evenodd" fill-opacity="1"/>
<defs>
  <clipPath id="clip091">
    <rect x="800" y="0" width="2801" height="1000"/>
  </clipPath>
</defs>
<path clip-path="url(#clip090)" d="M197.046 880.48 L1948.2 880.48 L1948.2 85.6721 L197.046 85.6721  Z" fill="#ffffff" fill-rule="evenodd" fill-opacity="1"/>
<defs>
  <clipPath id="clip092">
    <rect x="197" y="85" width="1752" height="796"/>
  </clipPath>
</defs>
<polyline clip-path="url(#clip092)" style="stroke:#000000; stroke-linecap:round; stroke-linejoin:round; stroke-width:2; stroke-opacity:0.1; fill:none" points="246.607,880.48 246.607,85.6721 "/>
<polyline clip-path="url(#clip092)" style="stroke:#000000; stroke-linecap:round; stroke-linejoin:round; stroke-width:2; stroke-opacity:0.1; fill:none" points="659.614,880.48 659.614,85.6721 "/>
<polyline clip-path="url(#clip092)" style="stroke:#000000; stroke-linecap:round; stroke-linejoin:round; stroke-width:2; stroke-opacity:0.1; fill:none" points="1072.62,880.48 1072.62,85.6721 "/>
<polyline clip-path="url(#clip092)" style="stroke:#000000; stroke-linecap:round; stroke-linejoin:round; stroke-width:2; stroke-opacity:0.1; fill:none" points="1485.63,880.48 1485.63,85.6721 "/>
<polyline clip-path="url(#clip092)" style="stroke:#000000; stroke-linecap:round; stroke-linejoin:round; stroke-width:2; stroke-opacity:0.1; fill:none" points="1898.63,880.48 1898.63,85.6721 "/>
<polyline clip-path="url(#clip090)" style="stroke:#000000; stroke-linecap:round; stroke-linejoin:round; stroke-width:4; stroke-opacity:1; fill:none" points="197.046,880.48 1948.2,880.48 "/>
<polyline clip-path="url(#clip090)" style="stroke:#000000; stroke-linecap:round; stroke-linejoin:round; stroke-width:4; stroke-opacity:1; fill:none" points="246.607,880.48 246.607,861.582 "/>
<polyline clip-path="url(#clip090)" style="stroke:#000000; stroke-linecap:round; stroke-linejoin:round; stroke-width:4; stroke-opacity:1; fill:none" points="659.614,880.48 659.614,861.582 "/>
<polyline clip-path="url(#clip090)" style="stroke:#000000; stroke-linecap:round; stroke-linejoin:round; stroke-width:4; stroke-opacity:1; fill:none" points="1072.62,880.48 1072.62,861.582 "/>
<polyline clip-path="url(#clip090)" style="stroke:#000000; stroke-linecap:round; stroke-linejoin:round; stroke-width:4; stroke-opacity:1; fill:none" points="1485.63,880.48 1485.63,861.582 "/>
<polyline clip-path="url(#clip090)" style="stroke:#000000; stroke-linecap:round; stroke-linejoin:round; stroke-width:4; stroke-opacity:1; fill:none" points="1898.63,880.48 1898.63,861.582 "/>
<path clip-path="url(#clip090)" d="M210.299 951.745 L226.618 951.745 L226.618 955.68 L204.674 955.68 L204.674 951.745 Q207.336 948.99 211.919 944.36 Q216.526 939.708 217.706 938.365 Q219.952 935.842 220.831 934.106 Q221.734 932.347 221.734 930.657 Q221.734 927.902 219.79 926.166 Q217.869 924.43 214.767 924.43 Q212.568 924.43 210.114 925.194 Q207.683 925.958 204.906 927.509 L204.906 922.787 Q207.73 921.652 210.183 921.074 Q212.637 920.495 214.674 920.495 Q220.044 920.495 223.239 923.18 Q226.433 925.865 226.433 930.356 Q226.433 932.486 225.623 934.407 Q224.836 936.305 222.73 938.898 Q222.151 939.569 219.049 942.786 Q215.947 945.981 210.299 951.745 Z" fill="#000000" fill-rule="nonzero" fill-opacity="1" /><path clip-path="url(#clip090)" d="M246.433 924.199 Q242.822 924.199 240.993 927.763 Q239.188 931.305 239.188 938.435 Q239.188 945.541 240.993 949.106 Q242.822 952.647 246.433 952.647 Q250.067 952.647 251.873 949.106 Q253.702 945.541 253.702 938.435 Q253.702 931.305 251.873 927.763 Q250.067 924.199 246.433 924.199 M246.433 920.495 Q252.243 920.495 255.299 925.101 Q258.378 929.685 258.378 938.435 Q258.378 947.161 255.299 951.768 Q252.243 956.351 246.433 956.351 Q240.623 956.351 237.544 951.768 Q234.489 947.161 234.489 938.435 Q234.489 929.685 237.544 925.101 Q240.623 920.495 246.433 920.495 Z" fill="#000000" fill-rule="nonzero" fill-opacity="1" /><path clip-path="url(#clip090)" d="M276.595 924.199 Q272.984 924.199 271.155 927.763 Q269.35 931.305 269.35 938.435 Q269.35 945.541 271.155 949.106 Q272.984 952.647 276.595 952.647 Q280.229 952.647 282.035 949.106 Q283.864 945.541 283.864 938.435 Q283.864 931.305 282.035 927.763 Q280.229 924.199 276.595 924.199 M276.595 920.495 Q282.405 920.495 285.461 925.101 Q288.539 929.685 288.539 938.435 Q288.539 947.161 285.461 951.768 Q282.405 956.351 276.595 956.351 Q270.785 956.351 267.706 951.768 Q264.651 947.161 264.651 938.435 Q264.651 929.685 267.706 925.101 Q270.785 920.495 276.595 920.495 Z" fill="#000000" fill-rule="nonzero" fill-opacity="1" /><path clip-path="url(#clip090)" d="M632.704 925.194 L620.899 943.643 L632.704 943.643 L632.704 925.194 M631.477 921.12 L637.357 921.12 L637.357 943.643 L642.288 943.643 L642.288 947.532 L637.357 947.532 L637.357 955.68 L632.704 955.68 L632.704 947.532 L617.102 947.532 L617.102 943.018 L631.477 921.12 Z" fill="#000000" fill-rule="nonzero" fill-opacity="1" /><path clip-path="url(#clip090)" d="M660.019 924.199 Q656.408 924.199 654.579 927.763 Q652.774 931.305 652.774 938.435 Q652.774 945.541 654.579 949.106 Q656.408 952.647 660.019 952.647 Q663.653 952.647 665.459 949.106 Q667.287 945.541 667.287 938.435 Q667.287 931.305 665.459 927.763 Q663.653 924.199 660.019 924.199 M660.019 920.495 Q665.829 920.495 668.885 925.101 Q671.963 929.685 671.963 938.435 Q671.963 947.161 668.885 951.768 Q665.829 956.351 660.019 956.351 Q654.209 956.351 651.13 951.768 Q648.075 947.161 648.075 938.435 Q648.075 929.685 651.13 925.101 Q654.209 920.495 660.019 920.495 Z" fill="#000000" fill-rule="nonzero" fill-opacity="1" /><path clip-path="url(#clip090)" d="M690.181 924.199 Q686.57 924.199 684.741 927.763 Q682.935 931.305 682.935 938.435 Q682.935 945.541 684.741 949.106 Q686.57 952.647 690.181 952.647 Q693.815 952.647 695.621 949.106 Q697.449 945.541 697.449 938.435 Q697.449 931.305 695.621 927.763 Q693.815 924.199 690.181 924.199 M690.181 920.495 Q695.991 920.495 699.046 925.101 Q702.125 929.685 702.125 938.435 Q702.125 947.161 699.046 951.768 Q695.991 956.351 690.181 956.351 Q684.371 956.351 681.292 951.768 Q678.236 947.161 678.236 938.435 Q678.236 929.685 681.292 925.101 Q684.371 920.495 690.181 920.495 Z" fill="#000000" fill-rule="nonzero" fill-opacity="1" /><path clip-path="url(#clip090)" d="M1042.95 936.536 Q1039.8 936.536 1037.95 938.689 Q1036.12 940.842 1036.12 944.592 Q1036.12 948.319 1037.95 950.495 Q1039.8 952.647 1042.95 952.647 Q1046.09 952.647 1047.92 950.495 Q1049.77 948.319 1049.77 944.592 Q1049.77 940.842 1047.92 938.689 Q1046.09 936.536 1042.95 936.536 M1052.23 921.884 L1052.23 926.143 Q1050.47 925.31 1048.66 924.87 Q1046.88 924.43 1045.12 924.43 Q1040.49 924.43 1038.04 927.555 Q1035.61 930.68 1035.26 936.999 Q1036.63 934.986 1038.69 933.921 Q1040.75 932.833 1043.22 932.833 Q1048.43 932.833 1051.44 936.004 Q1054.47 939.152 1054.47 944.592 Q1054.47 949.916 1051.32 953.134 Q1048.18 956.351 1042.95 956.351 Q1036.95 956.351 1033.78 951.768 Q1030.61 947.161 1030.61 938.435 Q1030.61 930.24 1034.5 925.379 Q1038.38 920.495 1044.94 920.495 Q1046.7 920.495 1048.48 920.842 Q1050.28 921.189 1052.23 921.884 Z" fill="#000000" fill-rule="nonzero" fill-opacity="1" /><path clip-path="url(#clip090)" d="M1072.53 924.199 Q1068.92 924.199 1067.09 927.763 Q1065.28 931.305 1065.28 938.435 Q1065.28 945.541 1067.09 949.106 Q1068.92 952.647 1072.53 952.647 Q1076.16 952.647 1077.97 949.106 Q1079.8 945.541 1079.8 938.435 Q1079.8 931.305 1077.97 927.763 Q1076.16 924.199 1072.53 924.199 M1072.53 920.495 Q1078.34 920.495 1081.39 925.101 Q1084.47 929.685 1084.47 938.435 Q1084.47 947.161 1081.39 951.768 Q1078.34 956.351 1072.53 956.351 Q1066.72 956.351 1063.64 951.768 Q1060.58 947.161 1060.58 938.435 Q1060.58 929.685 1063.64 925.101 Q1066.72 920.495 1072.53 920.495 Z" fill="#000000" fill-rule="nonzero" fill-opacity="1" /><path clip-path="url(#clip090)" d="M1102.69 924.199 Q1099.08 924.199 1097.25 927.763 Q1095.44 931.305 1095.44 938.435 Q1095.44 945.541 1097.25 949.106 Q1099.08 952.647 1102.69 952.647 Q1106.32 952.647 1108.13 949.106 Q1109.96 945.541 1109.96 938.435 Q1109.96 931.305 1108.13 927.763 Q1106.32 924.199 1102.69 924.199 M1102.69 920.495 Q1108.5 920.495 1111.56 925.101 Q1114.63 929.685 1114.63 938.435 Q1114.63 947.161 1111.56 951.768 Q1108.5 956.351 1102.69 956.351 Q1096.88 956.351 1093.8 951.768 Q1090.75 947.161 1090.75 938.435 Q1090.75 929.685 1093.8 925.101 Q1096.88 920.495 1102.69 920.495 Z" fill="#000000" fill-rule="nonzero" fill-opacity="1" /><path clip-path="url(#clip090)" d="M1455.42 939.268 Q1452.09 939.268 1450.17 941.05 Q1448.27 942.833 1448.27 945.958 Q1448.27 949.083 1450.17 950.865 Q1452.09 952.647 1455.42 952.647 Q1458.75 952.647 1460.67 950.865 Q1462.6 949.06 1462.6 945.958 Q1462.6 942.833 1460.67 941.05 Q1458.78 939.268 1455.42 939.268 M1450.74 937.277 Q1447.73 936.536 1446.04 934.476 Q1444.38 932.416 1444.38 929.453 Q1444.38 925.31 1447.32 922.902 Q1450.28 920.495 1455.42 920.495 Q1460.58 920.495 1463.52 922.902 Q1466.46 925.31 1466.46 929.453 Q1466.46 932.416 1464.77 934.476 Q1463.1 936.536 1460.12 937.277 Q1463.5 938.064 1465.37 940.356 Q1467.27 942.648 1467.27 945.958 Q1467.27 950.981 1464.19 953.666 Q1461.14 956.351 1455.42 956.351 Q1449.7 956.351 1446.62 953.666 Q1443.57 950.981 1443.57 945.958 Q1443.57 942.648 1445.47 940.356 Q1447.36 938.064 1450.74 937.277 M1449.03 929.893 Q1449.03 932.578 1450.7 934.083 Q1452.39 935.587 1455.42 935.587 Q1458.43 935.587 1460.12 934.083 Q1461.83 932.578 1461.83 929.893 Q1461.83 927.208 1460.12 925.703 Q1458.43 924.199 1455.42 924.199 Q1452.39 924.199 1450.7 925.703 Q1449.03 927.208 1449.03 929.893 Z" fill="#000000" fill-rule="nonzero" fill-opacity="1" /><path clip-path="url(#clip090)" d="M1485.58 924.199 Q1481.97 924.199 1480.14 927.763 Q1478.34 931.305 1478.34 938.435 Q1478.34 945.541 1480.14 949.106 Q1481.97 952.647 1485.58 952.647 Q1489.22 952.647 1491.02 949.106 Q1492.85 945.541 1492.85 938.435 Q1492.85 931.305 1491.02 927.763 Q1489.22 924.199 1485.58 924.199 M1485.58 920.495 Q1491.39 920.495 1494.45 925.101 Q1497.53 929.685 1497.53 938.435 Q1497.53 947.161 1494.45 951.768 Q1491.39 956.351 1485.58 956.351 Q1479.77 956.351 1476.69 951.768 Q1473.64 947.161 1473.64 938.435 Q1473.64 929.685 1476.69 925.101 Q1479.77 920.495 1485.58 920.495 Z" fill="#000000" fill-rule="nonzero" fill-opacity="1" /><path clip-path="url(#clip090)" d="M1515.74 924.199 Q1512.13 924.199 1510.3 927.763 Q1508.5 931.305 1508.5 938.435 Q1508.5 945.541 1510.3 949.106 Q1512.13 952.647 1515.74 952.647 Q1519.38 952.647 1521.18 949.106 Q1523.01 945.541 1523.01 938.435 Q1523.01 931.305 1521.18 927.763 Q1519.38 924.199 1515.74 924.199 M1515.74 920.495 Q1521.55 920.495 1524.61 925.101 Q1527.69 929.685 1527.69 938.435 Q1527.69 947.161 1524.61 951.768 Q1521.55 956.351 1515.74 956.351 Q1509.93 956.351 1506.85 951.768 Q1503.8 947.161 1503.8 938.435 Q1503.8 929.685 1506.85 925.101 Q1509.93 920.495 1515.74 920.495 Z" fill="#000000" fill-rule="nonzero" fill-opacity="1" /><path clip-path="url(#clip090)" d="M1843.16 951.745 L1850.8 951.745 L1850.8 925.379 L1842.49 927.046 L1842.49 922.787 L1850.75 921.12 L1855.43 921.12 L1855.43 951.745 L1863.07 951.745 L1863.07 955.68 L1843.16 955.68 L1843.16 951.745 Z" fill="#000000" fill-rule="nonzero" fill-opacity="1" /><path clip-path="url(#clip090)" d="M1882.51 924.199 Q1878.9 924.199 1877.07 927.763 Q1875.27 931.305 1875.27 938.435 Q1875.27 945.541 1877.07 949.106 Q1878.9 952.647 1882.51 952.647 Q1886.15 952.647 1887.95 949.106 Q1889.78 945.541 1889.78 938.435 Q1889.78 931.305 1887.95 927.763 Q1886.15 924.199 1882.51 924.199 M1882.51 920.495 Q1888.32 920.495 1891.38 925.101 Q1894.46 929.685 1894.46 938.435 Q1894.46 947.161 1891.38 951.768 Q1888.32 956.351 1882.51 956.351 Q1876.7 956.351 1873.62 951.768 Q1870.57 947.161 1870.57 938.435 Q1870.57 929.685 1873.62 925.101 Q1876.7 920.495 1882.51 920.495 Z" fill="#000000" fill-rule="nonzero" fill-opacity="1" /><path clip-path="url(#clip090)" d="M1912.67 924.199 Q1909.06 924.199 1907.23 927.763 Q1905.43 931.305 1905.43 938.435 Q1905.43 945.541 1907.23 949.106 Q1909.06 952.647 1912.67 952.647 Q1916.31 952.647 1918.11 949.106 Q1919.94 945.541 1919.94 938.435 Q1919.94 931.305 1918.11 927.763 Q1916.31 924.199 1912.67 924.199 M1912.67 920.495 Q1918.48 920.495 1921.54 925.101 Q1924.62 929.685 1924.62 938.435 Q1924.62 947.161 1921.54 951.768 Q1918.48 956.351 1912.67 956.351 Q1906.86 956.351 1903.79 951.768 Q1900.73 947.161 1900.73 938.435 Q1900.73 929.685 1903.79 925.101 Q1906.86 920.495 1912.67 920.495 Z" fill="#000000" fill-rule="nonzero" fill-opacity="1" /><path clip-path="url(#clip090)" d="M1942.84 924.199 Q1939.22 924.199 1937.4 927.763 Q1935.59 931.305 1935.59 938.435 Q1935.59 945.541 1937.4 949.106 Q1939.22 952.647 1942.84 952.647 Q1946.47 952.647 1948.28 949.106 Q1950.1 945.541 1950.1 938.435 Q1950.1 931.305 1948.28 927.763 Q1946.47 924.199 1942.84 924.199 M1942.84 920.495 Q1948.65 920.495 1951.7 925.101 Q1954.78 929.685 1954.78 938.435 Q1954.78 947.161 1951.7 951.768 Q1948.65 956.351 1942.84 956.351 Q1937.03 956.351 1933.95 951.768 Q1930.89 947.161 1930.89 938.435 Q1930.89 929.685 1933.95 925.101 Q1937.03 920.495 1942.84 920.495 Z" fill="#000000" fill-rule="nonzero" fill-opacity="1" /><path clip-path="url(#clip090)" d="M940.341 1001.82 L946.771 1001.82 L946.771 1049.34 L940.341 1049.34 L940.341 1001.82 Z" fill="#000000" fill-rule="nonzero" fill-opacity="1" /><path clip-path="url(#clip090)" d="M965.104 1003.57 L965.104 1013.7 L977.167 1013.7 L977.167 1018.25 L965.104 1018.25 L965.104 1037.6 Q965.104 1041.96 966.282 1043.2 Q967.491 1044.44 971.151 1044.44 L977.167 1044.44 L977.167 1049.34 L971.151 1049.34 Q964.372 1049.34 961.794 1046.83 Q959.216 1044.28 959.216 1037.6 L959.216 1018.25 L954.919 1018.25 L954.919 1013.7 L959.216 1013.7 L959.216 1003.57 L965.104 1003.57 Z" fill="#000000" fill-rule="nonzero" fill-opacity="1" /><path clip-path="url(#clip090)" d="M1015.36 1030.06 L1015.36 1032.92 L988.434 1032.92 Q988.816 1038.97 992.063 1042.15 Q995.341 1045.3 1001.17 1045.3 Q1004.54 1045.3 1007.69 1044.47 Q1010.87 1043.65 1013.99 1041.99 L1013.99 1047.53 Q1010.84 1048.87 1007.53 1049.57 Q1004.22 1050.27 1000.82 1050.27 Q992.286 1050.27 987.289 1045.3 Q982.323 1040.34 982.323 1031.87 Q982.323 1023.12 987.034 1017.99 Q991.776 1012.84 999.797 1012.84 Q1006.99 1012.84 1011.16 1017.48 Q1015.36 1022.1 1015.36 1030.06 M1009.5 1028.34 Q1009.44 1023.53 1006.8 1020.67 Q1004.19 1017.8 999.861 1017.8 Q994.959 1017.8 991.999 1020.57 Q989.071 1023.34 988.625 1028.37 L1009.5 1028.34 Z" fill="#000000" fill-rule="nonzero" fill-opacity="1" /><path clip-path="url(#clip090)" d="M1045.63 1019.17 Q1044.64 1018.6 1043.47 1018.34 Q1042.32 1018.06 1040.92 1018.06 Q1035.95 1018.06 1033.28 1021.3 Q1030.64 1024.52 1030.64 1030.57 L1030.64 1049.34 L1024.75 1049.34 L1024.75 1013.7 L1030.64 1013.7 L1030.64 1019.23 Q1032.49 1015.99 1035.45 1014.43 Q1038.41 1012.84 1042.64 1012.84 Q1043.24 1012.84 1043.98 1012.93 Q1044.71 1013 1045.6 1013.15 L1045.63 1019.17 Z" fill="#000000" fill-rule="nonzero" fill-opacity="1" /><path clip-path="url(#clip090)" d="M1067.97 1031.42 Q1060.88 1031.42 1058.14 1033.05 Q1055.4 1034.67 1055.4 1038.59 Q1055.4 1041.7 1057.44 1043.55 Q1059.51 1045.37 1063.04 1045.37 Q1067.91 1045.37 1070.84 1041.93 Q1073.8 1038.46 1073.8 1032.73 L1073.8 1031.42 L1067.97 1031.42 M1079.65 1029.01 L1079.65 1049.34 L1073.8 1049.34 L1073.8 1043.93 Q1071.79 1047.18 1068.8 1048.74 Q1065.81 1050.27 1061.48 1050.27 Q1056.01 1050.27 1052.76 1047.21 Q1049.55 1044.12 1049.55 1038.97 Q1049.55 1032.95 1053.56 1029.9 Q1057.6 1026.84 1065.59 1026.84 L1073.8 1026.84 L1073.8 1026.27 Q1073.8 1022.23 1071.12 1020.03 Q1068.48 1017.8 1063.68 1017.8 Q1060.62 1017.8 1057.73 1018.53 Q1054.83 1019.27 1052.16 1020.73 L1052.16 1015.32 Q1055.37 1014.08 1058.39 1013.47 Q1061.42 1012.84 1064.28 1012.84 Q1072.02 1012.84 1075.84 1016.85 Q1079.65 1020.86 1079.65 1029.01 Z" fill="#000000" fill-rule="nonzero" fill-opacity="1" /><path clip-path="url(#clip090)" d="M1097.51 1003.57 L1097.51 1013.7 L1109.57 1013.7 L1109.57 1018.25 L1097.51 1018.25 L1097.51 1037.6 Q1097.51 1041.96 1098.69 1043.2 Q1099.9 1044.44 1103.56 1044.44 L1109.57 1044.44 L1109.57 1049.34 L1103.56 1049.34 Q1096.78 1049.34 1094.2 1046.83 Q1091.62 1044.28 1091.62 1037.6 L1091.62 1018.25 L1087.33 1018.25 L1087.33 1013.7 L1091.62 1013.7 L1091.62 1003.57 L1097.51 1003.57 Z" fill="#000000" fill-rule="nonzero" fill-opacity="1" /><path clip-path="url(#clip090)" d="M1117.28 1013.7 L1123.13 1013.7 L1123.13 1049.34 L1117.28 1049.34 L1117.28 1013.7 M1117.28 999.819 L1123.13 999.819 L1123.13 1007.23 L1117.28 1007.23 L1117.28 999.819 Z" fill="#000000" fill-rule="nonzero" fill-opacity="1" /><path clip-path="url(#clip090)" d="M1149.2 1017.8 Q1144.49 1017.8 1141.75 1021.49 Q1139.02 1025.15 1139.02 1031.55 Q1139.02 1037.95 1141.72 1041.64 Q1144.46 1045.3 1149.2 1045.3 Q1153.88 1045.3 1156.62 1041.61 Q1159.35 1037.92 1159.35 1031.55 Q1159.35 1025.22 1156.62 1021.53 Q1153.88 1017.8 1149.2 1017.8 M1149.2 1012.84 Q1156.84 1012.84 1161.2 1017.8 Q1165.56 1022.77 1165.56 1031.55 Q1165.56 1040.3 1161.2 1045.3 Q1156.84 1050.27 1149.2 1050.27 Q1141.53 1050.27 1137.17 1045.3 Q1132.84 1040.3 1132.84 1031.55 Q1132.84 1022.77 1137.17 1017.8 Q1141.53 1012.84 1149.2 1012.84 Z" fill="#000000" fill-rule="nonzero" fill-opacity="1" /><path clip-path="url(#clip090)" d="M1204.9 1027.83 L1204.9 1049.34 L1199.04 1049.34 L1199.04 1028.02 Q1199.04 1022.96 1197.07 1020.44 Q1195.1 1017.93 1191.15 1017.93 Q1186.41 1017.93 1183.67 1020.95 Q1180.93 1023.98 1180.93 1029.2 L1180.93 1049.34 L1175.05 1049.34 L1175.05 1013.7 L1180.93 1013.7 L1180.93 1019.23 Q1183.03 1016.02 1185.87 1014.43 Q1188.73 1012.84 1192.46 1012.84 Q1198.6 1012.84 1201.75 1016.66 Q1204.9 1020.44 1204.9 1027.83 Z" fill="#000000" fill-rule="nonzero" fill-opacity="1" /><polyline clip-path="url(#clip092)" style="stroke:#000000; stroke-linecap:round; stroke-linejoin:round; stroke-width:2; stroke-opacity:0.1; fill:none" points="197.046,780.831 1948.2,780.831 "/>
<polyline clip-path="url(#clip092)" style="stroke:#000000; stroke-linecap:round; stroke-linejoin:round; stroke-width:2; stroke-opacity:0.1; fill:none" points="197.046,647.824 1948.2,647.824 "/>
<polyline clip-path="url(#clip092)" style="stroke:#000000; stroke-linecap:round; stroke-linejoin:round; stroke-width:2; stroke-opacity:0.1; fill:none" points="197.046,514.817 1948.2,514.817 "/>
<polyline clip-path="url(#clip092)" style="stroke:#000000; stroke-linecap:round; stroke-linejoin:round; stroke-width:2; stroke-opacity:0.1; fill:none" points="197.046,381.81 1948.2,381.81 "/>
<polyline clip-path="url(#clip092)" style="stroke:#000000; stroke-linecap:round; stroke-linejoin:round; stroke-width:2; stroke-opacity:0.1; fill:none" points="197.046,248.802 1948.2,248.802 "/>
<polyline clip-path="url(#clip092)" style="stroke:#000000; stroke-linecap:round; stroke-linejoin:round; stroke-width:2; stroke-opacity:0.1; fill:none" points="197.046,115.795 1948.2,115.795 "/>
<polyline clip-path="url(#clip090)" style="stroke:#000000; stroke-linecap:round; stroke-linejoin:round; stroke-width:4; stroke-opacity:1; fill:none" points="197.046,880.48 197.046,85.6721 "/>
<polyline clip-path="url(#clip090)" style="stroke:#000000; stroke-linecap:round; stroke-linejoin:round; stroke-width:4; stroke-opacity:1; fill:none" points="197.046,780.831 215.944,780.831 "/>
<polyline clip-path="url(#clip090)" style="stroke:#000000; stroke-linecap:round; stroke-linejoin:round; stroke-width:4; stroke-opacity:1; fill:none" points="197.046,647.824 215.944,647.824 "/>
<polyline clip-path="url(#clip090)" style="stroke:#000000; stroke-linecap:round; stroke-linejoin:round; stroke-width:4; stroke-opacity:1; fill:none" points="197.046,514.817 215.944,514.817 "/>
<polyline clip-path="url(#clip090)" style="stroke:#000000; stroke-linecap:round; stroke-linejoin:round; stroke-width:4; stroke-opacity:1; fill:none" points="197.046,381.81 215.944,381.81 "/>
<polyline clip-path="url(#clip090)" style="stroke:#000000; stroke-linecap:round; stroke-linejoin:round; stroke-width:4; stroke-opacity:1; fill:none" points="197.046,248.802 215.944,248.802 "/>
<polyline clip-path="url(#clip090)" style="stroke:#000000; stroke-linecap:round; stroke-linejoin:round; stroke-width:4; stroke-opacity:1; fill:none" points="197.046,115.795 215.944,115.795 "/>
<path clip-path="url(#clip090)" d="M76.9305 781.282 L106.606 781.282 L106.606 785.217 L76.9305 785.217 L76.9305 781.282 Z" fill="#000000" fill-rule="nonzero" fill-opacity="1" /><path clip-path="url(#clip090)" d="M120.727 794.176 L137.046 794.176 L137.046 798.111 L115.102 798.111 L115.102 794.176 Q117.764 791.421 122.347 786.791 Q126.953 782.139 128.134 780.796 Q130.379 778.273 131.259 776.537 Q132.162 774.778 132.162 773.088 Q132.162 770.333 130.217 768.597 Q128.296 766.861 125.194 766.861 Q122.995 766.861 120.541 767.625 Q118.111 768.389 115.333 769.94 L115.333 765.218 Q118.157 764.083 120.611 763.505 Q123.065 762.926 125.102 762.926 Q130.472 762.926 133.666 765.611 Q136.861 768.296 136.861 772.787 Q136.861 774.917 136.051 776.838 Q135.264 778.736 133.157 781.329 Q132.578 782 129.477 785.217 Q126.375 788.412 120.727 794.176 Z" fill="#000000" fill-rule="nonzero" fill-opacity="1" /><path clip-path="url(#clip090)" d="M76.5602 648.275 L106.236 648.275 L106.236 652.21 L76.5602 652.21 L76.5602 648.275 Z" fill="#000000" fill-rule="nonzero" fill-opacity="1" /><path clip-path="url(#clip090)" d="M117.139 661.169 L124.777 661.169 L124.777 634.803 L116.467 636.47 L116.467 632.21 L124.731 630.544 L129.407 630.544 L129.407 661.169 L137.046 661.169 L137.046 665.104 L117.139 665.104 L117.139 661.169 Z" fill="#000000" fill-rule="nonzero" fill-opacity="1" /><path clip-path="url(#clip090)" d="M125.102 500.615 Q121.49 500.615 119.662 504.18 Q117.856 507.722 117.856 514.851 Q117.856 521.958 119.662 525.523 Q121.49 529.064 125.102 529.064 Q128.736 529.064 130.541 525.523 Q132.37 521.958 132.37 514.851 Q132.37 507.722 130.541 504.18 Q128.736 500.615 125.102 500.615 M125.102 496.912 Q130.912 496.912 133.967 501.518 Q137.046 506.101 137.046 514.851 Q137.046 523.578 133.967 528.185 Q130.912 532.768 125.102 532.768 Q119.291 532.768 116.213 528.185 Q113.157 523.578 113.157 514.851 Q113.157 506.101 116.213 501.518 Q119.291 496.912 125.102 496.912 Z" fill="#000000" fill-rule="nonzero" fill-opacity="1" /><path clip-path="url(#clip090)" d="M117.139 395.154 L124.777 395.154 L124.777 368.789 L116.467 370.455 L116.467 366.196 L124.731 364.53 L129.407 364.53 L129.407 395.154 L137.046 395.154 L137.046 399.09 L117.139 399.09 L117.139 395.154 Z" fill="#000000" fill-rule="nonzero" fill-opacity="1" /><path clip-path="url(#clip090)" d="M120.727 262.147 L137.046 262.147 L137.046 266.082 L115.102 266.082 L115.102 262.147 Q117.764 259.393 122.347 254.763 Q126.953 250.11 128.134 248.768 Q130.379 246.245 131.259 244.508 Q132.162 242.749 132.162 241.059 Q132.162 238.305 130.217 236.569 Q128.296 234.833 125.194 234.833 Q122.995 234.833 120.541 235.596 Q118.111 236.36 115.333 237.911 L115.333 233.189 Q118.157 232.055 120.611 231.476 Q123.065 230.897 125.102 230.897 Q130.472 230.897 133.666 233.583 Q136.861 236.268 136.861 240.758 Q136.861 242.888 136.051 244.809 Q135.264 246.708 133.157 249.3 Q132.578 249.971 129.477 253.189 Q126.375 256.383 120.727 262.147 Z" fill="#000000" fill-rule="nonzero" fill-opacity="1" /><path clip-path="url(#clip090)" d="M129.916 114.441 Q133.273 115.159 135.148 117.427 Q137.046 119.696 137.046 123.029 Q137.046 128.145 133.527 130.946 Q130.009 133.747 123.527 133.747 Q121.352 133.747 119.037 133.307 Q116.745 132.89 114.291 132.034 L114.291 127.52 Q116.236 128.654 118.551 129.233 Q120.865 129.811 123.389 129.811 Q127.787 129.811 130.078 128.075 Q132.393 126.339 132.393 123.029 Q132.393 119.974 130.24 118.261 Q128.111 116.524 124.291 116.524 L120.264 116.524 L120.264 112.682 L124.477 112.682 Q127.926 112.682 129.754 111.316 Q131.583 109.927 131.583 107.335 Q131.583 104.673 129.685 103.261 Q127.81 101.825 124.291 101.825 Q122.37 101.825 120.171 102.242 Q117.972 102.659 115.333 103.538 L115.333 99.3718 Q117.995 98.6311 120.31 98.2607 Q122.648 97.8903 124.708 97.8903 Q130.032 97.8903 133.134 100.321 Q136.236 102.728 136.236 106.849 Q136.236 109.719 134.592 111.71 Q132.949 113.677 129.916 114.441 Z" fill="#000000" fill-rule="nonzero" fill-opacity="1" /><path clip-path="url(#clip090)" d="M-43.6562 670.196 L-37.386 670.196 Q-39.1366 673.856 -39.996 677.103 Q-40.8553 680.349 -40.8553 683.373 Q-40.8553 688.625 -38.8183 691.489 Q-36.7813 694.322 -33.0255 694.322 Q-29.8745 694.322 -28.2512 692.444 Q-26.6598 690.534 -25.6731 685.251 L-24.8774 681.368 Q-23.5088 674.174 -20.0395 670.769 Q-16.602 667.331 -10.8092 667.331 Q-3.90241 667.331 -0.337611 671.978 Q3.22718 676.593 3.22718 685.537 Q3.22718 688.911 2.4633 692.731 Q1.69942 696.518 0.203474 700.592 L-6.41686 700.592 Q-4.22069 696.677 -3.10669 692.922 Q-1.99269 689.166 -1.99269 685.537 Q-1.99269 680.031 -4.15703 677.039 Q-6.32138 674.047 -10.3318 674.047 Q-13.8329 674.047 -15.8063 676.212 Q-17.7796 678.344 -18.7663 683.246 L-19.5302 687.161 Q-20.9625 694.354 -24.018 697.568 Q-27.0736 700.783 -32.5163 700.783 Q-38.8183 700.783 -42.4468 696.359 Q-46.0752 691.903 -46.0752 684.105 Q-46.0752 680.763 -45.4705 677.294 Q-44.8657 673.824 -43.6562 670.196 Z" fill="#000000" fill-rule="nonzero" fill-opacity="1" /><path clip-path="url(#clip090)" d="M-15.6153 641.359 Q-15.6153 648.457 -13.9921 651.194 Q-12.3688 653.932 -8.45389 653.932 Q-5.33469 653.932 -3.48864 651.895 Q-1.67441 649.826 -1.67441 646.293 Q-1.67441 641.423 -5.11189 638.495 Q-8.5812 635.535 -14.3103 635.535 L-15.6153 635.535 L-15.6153 641.359 M-18.0343 629.678 L2.30416 629.678 L2.30416 635.535 L-3.10669 635.535 Q0.139817 637.54 1.69942 640.532 Q3.22718 643.524 3.22718 647.852 Q3.22718 653.327 0.171646 656.573 Q-2.91572 659.788 -8.07194 659.788 Q-14.0875 659.788 -17.1431 655.778 Q-20.1986 651.735 -20.1986 643.746 L-20.1986 635.535 L-20.7715 635.535 Q-24.8138 635.535 -27.0099 638.208 Q-29.2379 640.85 -29.2379 645.656 Q-29.2379 648.712 -28.5059 651.608 Q-27.7738 654.504 -26.3097 657.178 L-31.7205 657.178 Q-32.9619 653.963 -33.5666 650.94 Q-34.2032 647.916 -34.2032 645.051 Q-34.2032 637.317 -30.1928 633.498 Q-26.1824 629.678 -18.0343 629.678 Z" fill="#000000" fill-rule="nonzero" fill-opacity="1" /><path clip-path="url(#clip090)" d="M-26.5007 589.861 Q-30.4474 587.665 -32.3253 584.609 Q-34.2032 581.553 -34.2032 577.416 Q-34.2032 571.846 -30.2883 568.822 Q-26.4052 565.798 -19.2119 565.798 L2.30416 565.798 L2.30416 571.687 L-19.021 571.687 Q-24.1454 571.687 -26.628 573.501 Q-29.1106 575.315 -29.1106 579.039 Q-29.1106 583.59 -26.0869 586.232 Q-23.0632 588.874 -17.8433 588.874 L2.30416 588.874 L2.30416 594.762 L-19.021 594.762 Q-24.1772 594.762 -26.628 596.577 Q-29.1106 598.391 -29.1106 602.178 Q-29.1106 606.666 -26.0551 609.308 Q-23.0314 611.95 -17.8433 611.95 L2.30416 611.95 L2.30416 617.838 L-33.3438 617.838 L-33.3438 611.95 L-27.8056 611.95 Q-31.084 609.945 -32.6436 607.144 Q-34.2032 604.343 -34.2032 600.491 Q-34.2032 596.608 -32.2298 593.903 Q-30.2564 591.166 -26.5007 589.861 Z" fill="#000000" fill-rule="nonzero" fill-opacity="1" /><path clip-path="url(#clip090)" d="M-3.04304 548.452 L15.8631 548.452 L15.8631 554.34 L-33.3438 554.34 L-33.3438 548.452 L-27.9329 548.452 Q-31.1158 546.606 -32.6436 543.805 Q-34.2032 540.972 -34.2032 537.057 Q-34.2032 530.564 -29.0469 526.522 Q-23.8907 522.448 -15.488 522.448 Q-7.08526 522.448 -1.92904 526.522 Q3.22718 530.564 3.22718 537.057 Q3.22718 540.972 1.69942 543.805 Q0.139817 546.606 -3.04304 548.452 M-15.488 528.527 Q-21.9492 528.527 -25.6095 531.201 Q-29.3016 533.842 -29.3016 538.489 Q-29.3016 543.136 -25.6095 545.81 Q-21.9492 548.452 -15.488 548.452 Q-9.0268 548.452 -5.33469 545.81 Q-1.67441 543.136 -1.67441 538.489 Q-1.67441 533.842 -5.33469 531.201 Q-9.0268 528.527 -15.488 528.527 Z" fill="#000000" fill-rule="nonzero" fill-opacity="1" /><path clip-path="url(#clip090)" d="M-47.221 512.74 L-47.221 506.884 L2.30416 506.884 L2.30416 512.74 L-47.221 512.74 Z" fill="#000000" fill-rule="nonzero" fill-opacity="1" /><path clip-path="url(#clip090)" d="M-16.9839 464.138 L-14.1194 464.138 L-14.1194 491.065 Q-8.07194 490.683 -4.88909 487.436 Q-1.73807 484.158 -1.73807 478.334 Q-1.73807 474.96 -2.56561 471.809 Q-3.39315 468.626 -5.04823 465.507 L0.489931 465.507 Q1.82673 468.658 2.52696 471.968 Q3.22718 475.278 3.22718 478.684 Q3.22718 487.214 -1.73807 492.211 Q-6.70332 497.176 -15.1697 497.176 Q-23.9226 497.176 -29.0469 492.465 Q-34.2032 487.723 -34.2032 479.702 Q-34.2032 472.509 -29.5562 468.339 Q-24.9411 464.138 -16.9839 464.138 M-18.7027 469.994 Q-23.5088 470.058 -26.3734 472.7 Q-29.2379 475.31 -29.2379 479.639 Q-29.2379 484.54 -26.4688 487.5 Q-23.6998 490.428 -18.6708 490.874 L-18.7027 469.994 Z" fill="#000000" fill-rule="nonzero" fill-opacity="1" /><path clip-path="url(#clip090)" d="M-33.3438 438.007 L-33.3438 431.8 L-3.42498 420.66 L-33.3438 409.52 L-33.3438 403.314 L2.30416 416.682 L2.30416 424.639 L-33.3438 438.007 Z" fill="#000000" fill-rule="nonzero" fill-opacity="1" /><path clip-path="url(#clip090)" d="M-15.6153 379.029 Q-15.6153 386.126 -13.9921 388.864 Q-12.3688 391.601 -8.45389 391.601 Q-5.33469 391.601 -3.48864 389.564 Q-1.67441 387.495 -1.67441 383.962 Q-1.67441 379.092 -5.11189 376.164 Q-8.5812 373.204 -14.3103 373.204 L-15.6153 373.204 L-15.6153 379.029 M-18.0343 367.347 L2.30416 367.347 L2.30416 373.204 L-3.10669 373.204 Q0.139817 375.209 1.69942 378.201 Q3.22718 381.193 3.22718 385.522 Q3.22718 390.996 0.171646 394.243 Q-2.91572 397.457 -8.07194 397.457 Q-14.0875 397.457 -17.1431 393.447 Q-20.1986 389.405 -20.1986 381.416 L-20.1986 373.204 L-20.7715 373.204 Q-24.8138 373.204 -27.0099 375.877 Q-29.2379 378.519 -29.2379 383.325 Q-29.2379 386.381 -28.5059 389.277 Q-27.7738 392.174 -26.3097 394.847 L-31.7205 394.847 Q-32.9619 391.633 -33.5666 388.609 Q-34.2032 385.585 -34.2032 382.721 Q-34.2032 374.986 -30.1928 371.167 Q-26.1824 367.347 -18.0343 367.347 Z" fill="#000000" fill-rule="nonzero" fill-opacity="1" /><path clip-path="url(#clip090)" d="M-47.221 355.284 L-47.221 349.428 L2.30416 349.428 L2.30416 355.284 L-47.221 355.284 Z" fill="#000000" fill-rule="nonzero" fill-opacity="1" /><path clip-path="url(#clip090)" d="M-11.7641 337.779 L-33.3438 337.779 L-33.3438 331.922 L-11.9869 331.922 Q-6.92612 331.922 -4.37983 329.949 Q-1.86538 327.976 -1.86538 324.029 Q-1.86538 319.286 -4.88909 316.549 Q-7.9128 313.78 -13.1327 313.78 L-33.3438 313.78 L-33.3438 307.924 L2.30416 307.924 L2.30416 313.78 L-3.17035 313.78 Q0.0761602 315.913 1.66759 318.745 Q3.22718 321.546 3.22718 325.27 Q3.22718 331.413 -0.592239 334.596 Q-4.41166 337.779 -11.7641 337.779 M-34.2032 323.042 L-34.2032 323.042 Z" fill="#000000" fill-rule="nonzero" fill-opacity="1" /><path clip-path="url(#clip090)" d="M-16.9839 265.369 L-14.1194 265.369 L-14.1194 292.296 Q-8.07194 291.914 -4.88909 288.667 Q-1.73807 285.389 -1.73807 279.564 Q-1.73807 276.191 -2.56561 273.039 Q-3.39315 269.857 -5.04823 266.737 L0.489931 266.737 Q1.82673 269.888 2.52696 273.199 Q3.22718 276.509 3.22718 279.914 Q3.22718 288.445 -1.73807 293.442 Q-6.70332 298.407 -15.1697 298.407 Q-23.9226 298.407 -29.0469 293.696 Q-34.2032 288.954 -34.2032 280.933 Q-34.2032 273.74 -29.5562 269.57 Q-24.9411 265.369 -16.9839 265.369 M-18.7027 271.225 Q-23.5088 271.289 -26.3734 273.931 Q-29.2379 276.541 -29.2379 280.869 Q-29.2379 285.771 -26.4688 288.731 Q-23.6998 291.659 -18.6708 292.105 L-18.7027 271.225 Z" fill="#000000" fill-rule="nonzero" fill-opacity="1" /><path clip-path="url(#clip090)" d="M905.946 65.7705 L905.946 89.8329 L898.452 89.8329 L898.452 27.2059 L905.946 27.2059 L905.946 34.0924 Q908.296 30.0415 911.861 28.0971 Q915.466 26.1121 920.449 26.1121 Q928.712 26.1121 933.857 32.6746 Q939.042 39.2371 939.042 49.9314 Q939.042 60.6258 933.857 67.1883 Q928.712 73.7508 920.449 73.7508 Q915.466 73.7508 911.861 71.8063 Q908.296 69.8214 905.946 65.7705 M931.305 49.9314 Q931.305 41.7081 927.902 37.0496 Q924.54 32.3505 918.626 32.3505 Q912.711 32.3505 909.309 37.0496 Q905.946 41.7081 905.946 49.9314 Q905.946 58.1548 909.309 62.8538 Q912.711 67.5124 918.626 67.5124 Q924.54 67.5124 927.902 62.8538 Q931.305 58.1548 931.305 49.9314 Z" fill="#000000" fill-rule="nonzero" fill-opacity="1" /><path clip-path="url(#clip090)" d="M972.017 49.7694 Q962.983 49.7694 959.499 51.8354 Q956.016 53.9013 956.016 58.8839 Q956.016 62.8538 958.608 65.2034 Q961.241 67.5124 965.738 67.5124 Q971.936 67.5124 975.662 63.1374 Q979.43 58.7219 979.43 51.4303 L979.43 49.7694 L972.017 49.7694 M986.883 46.6907 L986.883 72.576 L979.43 72.576 L979.43 65.6895 Q976.878 69.8214 973.07 71.8063 Q969.262 73.7508 963.753 73.7508 Q956.785 73.7508 952.653 69.8619 Q948.562 65.9325 948.562 59.3701 Q948.562 51.7138 953.666 47.825 Q958.811 43.9361 968.978 43.9361 L979.43 43.9361 L979.43 43.2069 Q979.43 38.0623 976.027 35.2672 Q972.665 32.4315 966.548 32.4315 Q962.659 32.4315 958.973 33.3632 Q955.286 34.295 951.884 36.1584 L951.884 29.2718 Q955.975 27.692 959.823 26.9223 Q963.672 26.1121 967.318 26.1121 Q977.161 26.1121 982.022 31.2163 Q986.883 36.3204 986.883 46.6907 Z" fill="#000000" fill-rule="nonzero" fill-opacity="1" /><path clip-path="url(#clip090)" d="M1028.53 34.1734 Q1027.27 33.4443 1025.77 33.1202 Q1024.31 32.7556 1022.53 32.7556 Q1016.21 32.7556 1012.81 36.8875 Q1009.45 40.9789 1009.45 48.6757 L1009.45 72.576 L1001.95 72.576 L1001.95 27.2059 L1009.45 27.2059 L1009.45 34.2544 Q1011.8 30.1225 1015.56 28.1376 Q1019.33 26.1121 1024.72 26.1121 Q1025.49 26.1121 1026.42 26.2337 Q1027.35 26.3147 1028.49 26.5172 L1028.53 34.1734 Z" fill="#000000" fill-rule="nonzero" fill-opacity="1" /><path clip-path="url(#clip090)" d="M1056.96 49.7694 Q1047.93 49.7694 1044.45 51.8354 Q1040.96 53.9013 1040.96 58.8839 Q1040.96 62.8538 1043.56 65.2034 Q1046.19 67.5124 1050.69 67.5124 Q1056.88 67.5124 1060.61 63.1374 Q1064.38 58.7219 1064.38 51.4303 L1064.38 49.7694 L1056.96 49.7694 M1071.83 46.6907 L1071.83 72.576 L1064.38 72.576 L1064.38 65.6895 Q1061.83 69.8214 1058.02 71.8063 Q1054.21 73.7508 1048.7 73.7508 Q1041.73 73.7508 1037.6 69.8619 Q1033.51 65.9325 1033.51 59.3701 Q1033.51 51.7138 1038.61 47.825 Q1043.76 43.9361 1053.93 43.9361 L1064.38 43.9361 L1064.38 43.2069 Q1064.38 38.0623 1060.97 35.2672 Q1057.61 32.4315 1051.5 32.4315 Q1047.61 32.4315 1043.92 33.3632 Q1040.23 34.295 1036.83 36.1584 L1036.83 29.2718 Q1040.92 27.692 1044.77 26.9223 Q1048.62 26.1121 1052.27 26.1121 Q1062.11 26.1121 1066.97 31.2163 Q1071.83 36.3204 1071.83 46.6907 Z" fill="#000000" fill-rule="nonzero" fill-opacity="1" /><path clip-path="url(#clip090)" d="M1122.51 35.9153 Q1125.3 30.8922 1129.19 28.5022 Q1133.08 26.1121 1138.35 26.1121 Q1145.44 26.1121 1149.28 31.0947 Q1153.13 36.0368 1153.13 45.1919 L1153.13 72.576 L1145.64 72.576 L1145.64 45.4349 Q1145.64 38.913 1143.33 35.7533 Q1141.02 32.5936 1136.28 32.5936 Q1130.49 32.5936 1127.13 36.4419 Q1123.76 40.2903 1123.76 46.9338 L1123.76 72.576 L1116.27 72.576 L1116.27 45.4349 Q1116.27 38.8725 1113.96 35.7533 Q1111.65 32.5936 1106.83 32.5936 Q1101.12 32.5936 1097.76 36.4824 Q1094.39 40.3308 1094.39 46.9338 L1094.39 72.576 L1086.9 72.576 L1086.9 27.2059 L1094.39 27.2059 L1094.39 34.2544 Q1096.95 30.082 1100.51 28.0971 Q1104.08 26.1121 1108.98 26.1121 Q1113.92 26.1121 1117.36 28.6237 Q1120.85 31.1352 1122.51 35.9153 Z" fill="#000000" fill-rule="nonzero" fill-opacity="1" /><path clip-path="url(#clip090)" d="M1202.47 86.3491 L1202.47 92.1419 L1159.37 92.1419 L1159.37 86.3491 L1202.47 86.3491 Z" fill="#000000" fill-rule="nonzero" fill-opacity="1" /><path clip-path="url(#clip090)" d="M1211.95 65.6895 L1225.32 65.6895 L1225.32 19.5497 L1210.78 22.4663 L1210.78 15.0127 L1225.24 12.096 L1233.42 12.096 L1233.42 65.6895 L1246.79 65.6895 L1246.79 72.576 L1211.95 72.576 L1211.95 65.6895 Z" fill="#000000" fill-rule="nonzero" fill-opacity="1" /><polyline clip-path="url(#clip092)" style="stroke:#009af9; stroke-linecap:round; stroke-linejoin:round; stroke-width:4; stroke-opacity:1; fill:none" points="246.607,506.157 248.672,478.312 250.737,596.953 252.802,596.953 254.867,596.953 256.932,596.953 258.997,448.484 261.062,448.484 263.127,557.345 265.192,666.418 267.257,666.418 269.322,501.699 271.387,501.699 273.452,501.699 275.517,501.699 277.582,392.007 279.647,392.007 281.712,392.007 283.777,344.667 285.842,444.368 287.907,444.368 289.973,444.368 292.038,444.368 294.103,261.239 296.168,108.167 298.233,108.167 300.298,514.715 302.363,385.551 304.428,500.425 306.493,500.425 308.558,500.425 310.623,479.073 312.688,595.804 314.753,595.804 316.818,595.804 318.883,480.721 320.948,480.721 323.013,480.721 325.078,480.721 327.143,600.715 329.208,569.459 331.273,566.98 333.338,566.98 335.403,566.98 337.468,401.844 339.533,377.59 341.598,486.898 343.663,486.898 345.728,486.898 347.794,567.391 349.859,567.391 351.924,516.638 353.989,516.638 356.054,516.638 358.119,516.638 360.184,516.638 362.249,516.638 364.314,516.638 366.379,516.638 368.444,516.638 370.509,476.809 372.574,476.809 374.639,580.947 376.704,617.158 378.769,617.158 380.834,617.158 382.899,753.838 384.964,753.838 387.029,753.838 389.094,753.838 391.159,753.838 393.224,753.838 395.289,753.838 397.354,614.628 399.419,455.815 401.484,455.815 403.549,455.815 405.614,382.752 407.68,382.752 409.745,452.982 411.81,452.982 413.875,452.982 415.94,452.982 418.005,316.094 420.07,316.094 422.135,376.038 424.2,376.038 426.265,376.038 428.33,376.038 430.395,376.038 432.46,376.038 434.525,594.759 436.59,363.593 438.655,363.593 440.72,363.593 442.785,363.593 444.85,700.091 446.915,700.091 448.98,700.091 451.045,700.091 453.11,510.39 455.175,789.557 457.24,789.557 459.305,789.557 461.37,789.557 463.435,789.557 465.501,789.557 467.566,825.888 469.631,825.888 471.696,380.3 473.761,380.3 475.826,320.194 477.891,511.386 479.956,511.386 482.021,511.386 484.086,595.805 486.151,595.805 488.216,595.805 490.281,614.887 492.346,614.887 494.411,614.887 496.476,491.816 498.541,491.816 500.606,411.469 502.671,546.298 504.736,515.312 506.801,443.269 508.866,443.269 510.931,443.269 512.996,503.728 515.061,370.521 517.126,370.521 519.191,370.521 521.256,370.521 523.321,345.706 525.387,345.706 527.452,294.877 529.517,294.877 531.582,541.912 533.647,541.912 535.712,623.239 537.777,623.239 539.842,570.438 541.907,641.746 543.972,435.33 546.037,435.33 548.102,435.33 550.167,427.789 552.232,522.264 554.297,476.25 556.362,476.25 558.427,379.367 560.492,582.898 562.557,582.898 564.622,457.981 566.687,457.981 568.752,692.586 570.817,692.586 572.882,397.992 574.947,397.992 577.012,374.7 579.077,347.06 581.142,347.06 583.208,347.06 585.273,426.945 587.338,589.847 589.403,589.847 591.468,589.847 593.533,589.847 595.598,592.304 597.663,592.304 599.728,464.732 601.793,311.312 603.858,311.312 605.923,311.312 607.988,182.562 610.053,182.562 612.118,182.562 614.183,182.562 616.248,182.562 618.313,119.782 620.378,119.782 622.443,417.456 624.508,417.456 626.573,259.059 628.638,440.15 630.703,440.15 632.768,440.15 634.833,555.302 636.898,555.302 638.963,555.302 641.028,555.302 643.094,462.152 645.159,526.881 647.224,526.881 649.289,589.565 651.354,627.532 653.419,627.532 655.484,627.532 657.549,669.42 659.614,624.817 661.679,624.817 663.744,624.817 665.809,624.817 667.874,549.254 669.939,549.254 672.004,549.254 674.069,549.254 676.134,549.254 678.199,298.656 680.264,552.828 682.329,552.828 684.394,552.828 686.459,552.828 688.524,552.828 690.589,552.828 692.654,552.828 694.719,552.828 696.784,552.828 698.849,552.828 700.915,539.587 702.98,500.184 705.045,500.184 707.11,500.184 709.175,500.184 711.24,500.184 713.305,632.349 715.37,632.349 717.435,595.089 719.5,610.291 721.565,610.291 723.63,610.291 725.695,610.291 727.76,612.155 729.825,612.155 731.89,612.155 733.955,612.155 736.02,612.155 738.085,398.817 740.15,398.817 742.215,398.817 744.28,336.737 746.345,503.723 748.41,503.723 750.475,503.723 752.54,503.723 754.605,503.723 756.67,503.723 758.736,501.608 760.801,431.614 762.866,431.614 764.931,431.614 766.996,431.614 769.061,431.614 771.126,431.614 773.191,439.962 775.256,439.962 777.321,478.107 779.386,478.107 781.451,532.752 783.516,632.554 785.581,632.554 787.646,632.554 789.711,632.554 791.776,632.554 793.841,632.554 795.906,632.554 797.971,632.554 800.036,632.554 802.101,479.699 804.166,479.699 806.231,363.951 808.296,363.261 810.361,363.261 812.426,363.261 814.491,363.261 816.556,363.261 818.622,537.006 820.687,566.182 822.752,566.182 824.817,542.102 826.882,544.419 828.947,544.419 831.012,544.419 833.077,544.419 835.142,462.43 837.207,462.43 839.272,571.554 841.337,435.294 843.402,654.904 845.467,404.689 847.532,404.689 849.597,404.689 851.662,404.604 853.727,695.669 855.792,695.669 857.857,692.592 859.922,692.592 861.987,692.592 864.052,692.592 866.117,508.957 868.182,502.474 870.247,502.474 872.312,502.474 874.377,502.474 876.443,502.474 878.508,411.538 880.573,411.538 882.638,498.597 884.703,633.257 886.768,633.257 888.833,633.257 890.898,742.65 892.963,604.929 895.028,604.929 897.093,604.929 899.158,604.929 901.223,604.929 903.288,604.929 905.353,604.929 907.418,604.929 909.483,738.295 911.548,701.592 913.613,701.592 915.678,379.533 917.743,817.532 919.808,817.532 921.873,817.532 923.938,711.01 926.003,711.01 928.068,472.399 930.133,405.359 932.198,405.359 934.263,405.359 936.329,405.359 938.394,405.359 940.459,405.359 942.524,405.359 944.589,405.359 946.654,492.584 948.719,308.033 950.784,386.687 952.849,784.199 954.914,556.945 956.979,556.945 959.044,623.565 961.109,623.565 963.174,383.493 965.239,383.493 967.304,383.493 969.369,554.832 971.434,554.832 973.499,554.832 975.564,554.832 977.629,554.832 979.694,462.447 981.759,462.447 983.824,462.447 985.889,462.447 987.954,462.447 990.019,482.67 992.084,498.797 994.15,498.797 996.215,498.797 998.28,498.797 1000.34,525.881 1002.41,525.881 1004.47,525.881 1006.54,525.881 1008.6,525.881 1010.67,485.52 1012.73,485.52 1014.8,443.161 1016.86,443.161 1018.93,532.91 1020.99,532.91 1023.06,532.91 1025.13,772.336 1027.19,481.603 1029.26,481.603 1031.32,481.603 1033.39,540.154 1035.45,540.154 1037.52,540.154 1039.58,540.154 1041.65,540.154 1043.71,381.908 1045.78,381.908 1047.84,559.862 1049.91,559.862 1051.97,559.862 1054.04,559.862 1056.1,325.215 1058.17,325.215 1060.23,325.215 1062.3,173.38 1064.36,347.611 1066.43,347.611 1068.49,347.611 1070.56,489.448 1072.62,504.287 1074.69,631.321 1076.75,585.527 1078.82,585.527 1080.88,586.233 1082.95,572.612 1085.01,572.612 1087.08,572.612 1089.14,572.612 1091.21,572.612 1093.27,572.612 1095.34,572.612 1097.4,572.612 1099.47,572.612 1101.53,470.638 1103.6,470.638 1105.66,542.784 1107.73,542.784 1109.79,135.946 1111.86,135.946 1113.92,135.946 1115.99,291.213 1118.05,291.213 1120.12,294.894 1122.18,382.336 1124.25,366.986 1126.31,366.986 1128.38,366.986 1130.44,366.986 1132.51,366.986 1134.57,366.986 1136.64,366.986 1138.7,366.986 1140.77,366.986 1142.83,603.519 1144.9,627.164 1146.96,627.164 1149.03,627.164 1151.09,627.164 1153.16,627.164 1155.22,627.164 1157.29,627.164 1159.35,627.164 1161.42,627.164 1163.48,627.164 1165.55,627.164 1167.61,642.164 1169.68,642.164 1171.74,733.359 1173.81,733.359 1175.87,752.653 1177.94,752.653 1180,586.841 1182.07,586.841 1184.13,391.816 1186.2,635.394 1188.26,635.394 1190.33,635.394 1192.39,635.394 1194.46,635.394 1196.52,635.394 1198.59,552.843 1200.65,437.087 1202.72,437.087 1204.78,471.198 1206.85,471.198 1208.91,471.198 1210.98,471.198 1213.04,471.198 1215.11,471.198 1217.17,471.198 1219.24,471.198 1221.3,471.198 1223.37,471.198 1225.43,471.198 1227.5,471.198 1229.56,471.198 1231.63,638.879 1233.69,638.879 1235.76,676.904 1237.82,676.904 1239.89,676.904 1241.95,675.552 1244.02,675.552 1246.08,673.277 1248.15,673.277 1250.21,857.985 1252.28,857.985 1254.34,636.807 1256.41,636.807 1258.47,400.925 1260.54,454.467 1262.6,454.467 1264.67,454.467 1266.73,454.467 1268.8,454.467 1270.86,492.275 1272.93,763.897 1274.99,770.327 1277.06,770.327 1279.12,770.327 1281.19,520.818 1283.25,520.818 1285.32,520.818 1287.38,533.021 1289.45,533.021 1291.51,533.021 1293.58,533.021 1295.64,533.021 1297.71,243.692 1299.77,243.692 1301.84,328.993 1303.9,328.993 1305.97,328.993 1308.03,263.469 1310.1,263.469 1312.16,263.469 1314.23,263.469 1316.29,375.088 1318.36,375.088 1320.43,601.398 1322.49,497.227 1324.56,497.227 1326.62,497.227 1328.69,497.227 1330.75,497.227 1332.82,497.227 1334.88,497.227 1336.95,497.227 1339.01,440.536 1341.08,231.645 1343.14,231.645 1345.21,569.394 1347.27,569.394 1349.34,712.377 1351.4,712.377 1353.47,712.377 1355.53,161.129 1357.6,366.672 1359.66,619.127 1361.73,619.127 1363.79,615.442 1365.86,615.442 1367.92,429.031 1369.99,621.575 1372.05,621.575 1374.12,511.385 1376.18,511.385 1378.25,511.385 1380.31,511.385 1382.38,511.385 1384.44,514.901 1386.51,514.901 1388.57,514.901 1390.64,514.901 1392.7,514.901 1394.77,514.901 1396.83,514.901 1398.9,553.507 1400.96,282.453 1403.03,486.174 1405.09,486.174 1407.16,486.174 1409.22,506.414 1411.29,506.414 1413.35,504.759 1415.42,504.759 1417.48,490.923 1419.55,490.923 1421.61,490.923 1423.68,490.923 1425.74,490.923 1427.81,383.473 1429.87,383.473 1431.94,363.461 1434,363.461 1436.07,363.461 1438.13,363.461 1440.2,363.461 1442.26,363.461 1444.33,363.461 1446.39,363.461 1448.46,479.309 1450.52,479.309 1452.59,427.348 1454.65,427.348 1456.72,617.208 1458.78,502.53 1460.85,502.53 1462.91,502.53 1464.98,502.53 1467.04,502.53 1469.11,502.53 1471.17,502.53 1473.24,463.015 1475.3,463.015 1477.37,463.015 1479.43,463.015 1481.5,463.015 1483.56,463.015 1485.63,463.015 1487.69,406.49 1489.76,594.918 1491.82,588.842 1493.89,380.719 1495.95,380.719 1498.02,219.99 1500.08,219.99 1502.15,379.038 1504.21,379.038 1506.28,494.272 1508.34,494.272 1510.41,494.272 1512.47,362.916 1514.54,362.916 1516.6,362.916 1518.67,327.931 1520.73,350.658 1522.8,350.658 1524.86,465.726 1526.93,465.726 1528.99,465.726 1531.06,398.144 1533.12,398.144 1535.19,314.765 1537.25,314.765 1539.32,314.765 1541.38,314.765 1543.45,314.765 1545.51,353.129 1547.58,550.988 1549.64,550.988 1551.71,436.972 1553.77,521.792 1555.84,521.792 1557.9,724.46 1559.97,456.72 1562.03,456.72 1564.1,456.72 1566.16,541.69 1568.23,519.399 1570.29,578.372 1572.36,578.372 1574.42,503.34 1576.49,503.34 1578.55,503.34 1580.62,437.651 1582.68,292.742 1584.75,292.742 1586.81,292.742 1588.88,331.684 1590.94,379.071 1593.01,379.071 1595.07,407.097 1597.14,407.097 1599.2,407.097 1601.27,407.097 1603.33,414.222 1605.4,414.222 1607.46,751.652 1609.53,753.66 1611.6,753.66 1613.66,753.66 1615.73,753.66 1617.79,459.787 1619.86,459.787 1621.92,611.698 1623.99,611.698 1626.05,611.698 1628.12,402.095 1630.18,374.759 1632.25,374.759 1634.31,374.759 1636.38,374.759 1638.44,455.219 1640.51,455.219 1642.57,461.477 1644.64,461.477 1646.7,461.477 1648.77,461.477 1650.83,461.477 1652.9,602.756 1654.96,405.738 1657.03,405.738 1659.09,405.738 1661.16,405.738 1663.22,405.738 1665.29,709.179 1667.35,709.179 1669.42,709.179 1671.48,709.179 1673.55,830.532 1675.61,830.532 1677.68,830.532 1679.74,830.532 1681.81,818.688 1683.87,795.754 1685.94,233.858 1688,233.858 1690.07,233.858 1692.13,233.858 1694.2,233.858 1696.26,231.327 1698.33,231.327 1700.39,279.434 1702.46,279.434 1704.52,279.434 1706.59,279.434 1708.65,279.434 1710.72,450.301 1712.78,450.301 1714.85,450.301 1716.91,332.957 1718.98,332.957 1721.04,377.819 1723.11,610.438 1725.17,610.438 1727.24,631.576 1729.3,514.968 1731.37,597.529 1733.43,295.047 1735.5,295.047 1737.56,675.541 1739.63,675.541 1741.69,675.541 1743.76,623.195 1745.82,623.195 1747.89,623.195 1749.95,623.195 1752.02,534.954 1754.08,534.954 1756.15,496.548 1758.21,496.548 1760.28,487.838 1762.34,487.838 1764.41,487.838 1766.47,497.815 1768.54,497.815 1770.6,497.815 1772.67,572.489 1774.73,572.489 1776.8,572.489 1778.86,601.341 1780.93,601.341 1782.99,601.341 1785.06,601.341 1787.12,204.985 1789.19,334.598 1791.25,334.598 1793.32,630.191 1795.38,630.191 1797.45,630.191 1799.51,476.407 1801.58,476.407 1803.64,476.407 1805.71,629.578 1807.77,629.578 1809.84,629.578 1811.9,574.276 1813.97,490.07 1816.03,490.07 1818.1,490.07 1820.16,455.794 1822.23,455.794 1824.29,376.737 1826.36,247.346 1828.42,247.346 1830.49,382.684 1832.55,388.556 1834.62,388.556 1836.68,629.572 1838.75,629.572 1840.81,629.572 1842.88,629.572 1844.94,629.572 1847.01,629.572 1849.07,629.572 1851.14,710.966 1853.2,710.966 1855.27,706.17 1857.33,703.913 1859.4,703.913 1861.46,703.913 1863.53,703.913 1865.59,703.913 1867.66,703.913 1869.72,703.913 1871.79,703.913 1873.85,703.913 1875.92,513.654 1877.98,513.654 1880.05,513.654 1882.11,543.918 1884.18,543.918 1886.24,543.918 1888.31,543.918 1890.37,543.918 1892.44,543.918 1894.5,543.918 1896.57,675.896 1898.63,675.896 "/>
<path clip-path="url(#clip090)" d="M2201.61 880.48 L3952.76 880.48 L3952.76 85.6721 L2201.61 85.6721  Z" fill="#ffffff" fill-rule="evenodd" fill-opacity="1"/>
<defs>
  <clipPath id="clip093">
    <rect x="2201" y="85" width="1752" height="796"/>
  </clipPath>
</defs>
<polyline clip-path="url(#clip093)" style="stroke:#000000; stroke-linecap:round; stroke-linejoin:round; stroke-width:2; stroke-opacity:0.1; fill:none" points="2414.6,880.48 2414.6,85.6721 "/>
<polyline clip-path="url(#clip093)" style="stroke:#000000; stroke-linecap:round; stroke-linejoin:round; stroke-width:2; stroke-opacity:0.1; fill:none" points="2710.57,880.48 2710.57,85.6721 "/>
<polyline clip-path="url(#clip093)" style="stroke:#000000; stroke-linecap:round; stroke-linejoin:round; stroke-width:2; stroke-opacity:0.1; fill:none" points="3006.55,880.48 3006.55,85.6721 "/>
<polyline clip-path="url(#clip093)" style="stroke:#000000; stroke-linecap:round; stroke-linejoin:round; stroke-width:2; stroke-opacity:0.1; fill:none" points="3302.53,880.48 3302.53,85.6721 "/>
<polyline clip-path="url(#clip093)" style="stroke:#000000; stroke-linecap:round; stroke-linejoin:round; stroke-width:2; stroke-opacity:0.1; fill:none" points="3598.5,880.48 3598.5,85.6721 "/>
<polyline clip-path="url(#clip093)" style="stroke:#000000; stroke-linecap:round; stroke-linejoin:round; stroke-width:2; stroke-opacity:0.1; fill:none" points="3894.48,880.48 3894.48,85.6721 "/>
<polyline clip-path="url(#clip090)" style="stroke:#000000; stroke-linecap:round; stroke-linejoin:round; stroke-width:4; stroke-opacity:1; fill:none" points="2201.61,880.48 3952.76,880.48 "/>
<polyline clip-path="url(#clip090)" style="stroke:#000000; stroke-linecap:round; stroke-linejoin:round; stroke-width:4; stroke-opacity:1; fill:none" points="2414.6,880.48 2414.6,861.582 "/>
<polyline clip-path="url(#clip090)" style="stroke:#000000; stroke-linecap:round; stroke-linejoin:round; stroke-width:4; stroke-opacity:1; fill:none" points="2710.57,880.48 2710.57,861.582 "/>
<polyline clip-path="url(#clip090)" style="stroke:#000000; stroke-linecap:round; stroke-linejoin:round; stroke-width:4; stroke-opacity:1; fill:none" points="3006.55,880.48 3006.55,861.582 "/>
<polyline clip-path="url(#clip090)" style="stroke:#000000; stroke-linecap:round; stroke-linejoin:round; stroke-width:4; stroke-opacity:1; fill:none" points="3302.53,880.48 3302.53,861.582 "/>
<polyline clip-path="url(#clip090)" style="stroke:#000000; stroke-linecap:round; stroke-linejoin:round; stroke-width:4; stroke-opacity:1; fill:none" points="3598.5,880.48 3598.5,861.582 "/>
<polyline clip-path="url(#clip090)" style="stroke:#000000; stroke-linecap:round; stroke-linejoin:round; stroke-width:4; stroke-opacity:1; fill:none" points="3894.48,880.48 3894.48,861.582 "/>
<path clip-path="url(#clip090)" d="M2384.54 938.851 L2414.21 938.851 L2414.21 942.786 L2384.54 942.786 L2384.54 938.851 Z" fill="#000000" fill-rule="nonzero" fill-opacity="1" /><path clip-path="url(#clip090)" d="M2428.33 951.745 L2444.65 951.745 L2444.65 955.68 L2422.71 955.68 L2422.71 951.745 Q2425.37 948.99 2429.95 944.36 Q2434.56 939.708 2435.74 938.365 Q2437.99 935.842 2438.87 934.106 Q2439.77 932.347 2439.77 930.657 Q2439.77 927.902 2437.82 926.166 Q2435.9 924.43 2432.8 924.43 Q2430.6 924.43 2428.15 925.194 Q2425.72 925.958 2422.94 927.509 L2422.94 922.787 Q2425.76 921.652 2428.22 921.074 Q2430.67 920.495 2432.71 920.495 Q2438.08 920.495 2441.27 923.18 Q2444.47 925.865 2444.47 930.356 Q2444.47 932.486 2443.66 934.407 Q2442.87 936.305 2440.76 938.898 Q2440.19 939.569 2437.08 942.786 Q2433.98 945.981 2428.33 951.745 Z" fill="#000000" fill-rule="nonzero" fill-opacity="1" /><path clip-path="url(#clip090)" d="M2680.33 938.851 L2710.01 938.851 L2710.01 942.786 L2680.33 942.786 L2680.33 938.851 Z" fill="#000000" fill-rule="nonzero" fill-opacity="1" /><path clip-path="url(#clip090)" d="M2720.91 951.745 L2728.55 951.745 L2728.55 925.379 L2720.24 927.046 L2720.24 922.787 L2728.5 921.12 L2733.18 921.12 L2733.18 951.745 L2740.82 951.745 L2740.82 955.68 L2720.91 955.68 L2720.91 951.745 Z" fill="#000000" fill-rule="nonzero" fill-opacity="1" /><path clip-path="url(#clip090)" d="M3006.55 924.199 Q3002.94 924.199 3001.11 927.763 Q2999.3 931.305 2999.3 938.435 Q2999.3 945.541 3001.11 949.106 Q3002.94 952.647 3006.55 952.647 Q3010.18 952.647 3011.99 949.106 Q3013.82 945.541 3013.82 938.435 Q3013.82 931.305 3011.99 927.763 Q3010.18 924.199 3006.55 924.199 M3006.55 920.495 Q3012.36 920.495 3015.42 925.101 Q3018.49 929.685 3018.49 938.435 Q3018.49 947.161 3015.42 951.768 Q3012.36 956.351 3006.55 956.351 Q3000.74 956.351 2997.66 951.768 Q2994.61 947.161 2994.61 938.435 Q2994.61 929.685 2997.66 925.101 Q3000.74 920.495 3006.55 920.495 Z" fill="#000000" fill-rule="nonzero" fill-opacity="1" /><path clip-path="url(#clip090)" d="M3292.91 951.745 L3300.55 951.745 L3300.55 925.379 L3292.24 927.046 L3292.24 922.787 L3300.5 921.12 L3305.18 921.12 L3305.18 951.745 L3312.82 951.745 L3312.82 955.68 L3292.91 955.68 L3292.91 951.745 Z" fill="#000000" fill-rule="nonzero" fill-opacity="1" /><path clip-path="url(#clip090)" d="M3593.16 951.745 L3609.48 951.745 L3609.48 955.68 L3587.53 955.68 L3587.53 951.745 Q3590.19 948.99 3594.78 944.36 Q3599.38 939.708 3600.56 938.365 Q3602.81 935.842 3603.69 934.106 Q3604.59 932.347 3604.59 930.657 Q3604.59 927.902 3602.65 926.166 Q3600.73 924.43 3597.62 924.43 Q3595.42 924.43 3592.97 925.194 Q3590.54 925.958 3587.76 927.509 L3587.76 922.787 Q3590.59 921.652 3593.04 921.074 Q3595.49 920.495 3597.53 920.495 Q3602.9 920.495 3606.1 923.18 Q3609.29 925.865 3609.29 930.356 Q3609.29 932.486 3608.48 934.407 Q3607.69 936.305 3605.59 938.898 Q3605.01 939.569 3601.91 942.786 Q3598.8 945.981 3593.16 951.745 Z" fill="#000000" fill-rule="nonzero" fill-opacity="1" /><path clip-path="url(#clip090)" d="M3898.73 937.046 Q3902.08 937.763 3903.96 940.032 Q3905.86 942.3 3905.86 945.634 Q3905.86 950.749 3902.34 953.55 Q3898.82 956.351 3892.34 956.351 Q3890.16 956.351 3887.85 955.911 Q3885.56 955.495 3883.1 954.638 L3883.1 950.124 Q3885.05 951.259 3887.36 951.837 Q3889.68 952.416 3892.2 952.416 Q3896.6 952.416 3898.89 950.68 Q3901.21 948.944 3901.21 945.634 Q3901.21 942.578 3899.05 940.865 Q3896.92 939.129 3893.1 939.129 L3889.08 939.129 L3889.08 935.286 L3893.29 935.286 Q3896.74 935.286 3898.57 933.921 Q3900.4 932.532 3900.4 929.939 Q3900.4 927.277 3898.5 925.865 Q3896.62 924.43 3893.1 924.43 Q3891.18 924.43 3888.98 924.847 Q3886.78 925.263 3884.15 926.143 L3884.15 921.976 Q3886.81 921.236 3889.12 920.865 Q3891.46 920.495 3893.52 920.495 Q3898.84 920.495 3901.95 922.925 Q3905.05 925.333 3905.05 929.453 Q3905.05 932.323 3903.4 934.314 Q3901.76 936.282 3898.73 937.046 Z" fill="#000000" fill-rule="nonzero" fill-opacity="1" /><path clip-path="url(#clip090)" d="M2890.06 1003.38 L2890.06 1009.65 Q2886.4 1007.9 2883.15 1007.04 Q2879.91 1006.18 2876.88 1006.18 Q2871.63 1006.18 2868.77 1008.22 Q2865.94 1010.26 2865.94 1014.01 Q2865.94 1017.17 2867.81 1018.79 Q2869.72 1020.38 2875.01 1021.37 L2878.89 1022.16 Q2886.08 1023.53 2889.49 1027 Q2892.93 1030.44 2892.93 1036.23 Q2892.93 1043.14 2888.28 1046.7 Q2883.66 1050.27 2874.72 1050.27 Q2871.35 1050.27 2867.53 1049.5 Q2863.74 1048.74 2859.66 1047.24 L2859.66 1040.62 Q2863.58 1042.82 2867.34 1043.93 Q2871.09 1045.05 2874.72 1045.05 Q2880.23 1045.05 2883.22 1042.88 Q2886.21 1040.72 2886.21 1036.71 Q2886.21 1033.21 2884.05 1031.23 Q2881.91 1029.26 2877.01 1028.27 L2873.1 1027.51 Q2865.9 1026.08 2862.69 1023.02 Q2859.47 1019.97 2859.47 1014.52 Q2859.47 1008.22 2863.9 1004.59 Q2868.35 1000.96 2876.15 1000.96 Q2879.49 1000.96 2882.96 1001.57 Q2886.43 1002.17 2890.06 1003.38 Z" fill="#000000" fill-rule="nonzero" fill-opacity="1" /><path clip-path="url(#clip090)" d="M2918.9 1031.42 Q2911.8 1031.42 2909.06 1033.05 Q2906.33 1034.67 2906.33 1038.59 Q2906.33 1041.7 2908.36 1043.55 Q2910.43 1045.37 2913.96 1045.37 Q2918.83 1045.37 2921.76 1041.93 Q2924.72 1038.46 2924.72 1032.73 L2924.72 1031.42 L2918.9 1031.42 M2930.58 1029.01 L2930.58 1049.34 L2924.72 1049.34 L2924.72 1043.93 Q2922.72 1047.18 2919.73 1048.74 Q2916.73 1050.27 2912.4 1050.27 Q2906.93 1050.27 2903.68 1047.21 Q2900.47 1044.12 2900.47 1038.97 Q2900.47 1032.95 2904.48 1029.9 Q2908.52 1026.84 2916.51 1026.84 L2924.72 1026.84 L2924.72 1026.27 Q2924.72 1022.23 2922.05 1020.03 Q2919.41 1017.8 2914.6 1017.8 Q2911.55 1017.8 2908.65 1018.53 Q2905.75 1019.27 2903.08 1020.73 L2903.08 1015.32 Q2906.29 1014.08 2909.32 1013.47 Q2912.34 1012.84 2915.21 1012.84 Q2922.94 1012.84 2926.76 1016.85 Q2930.58 1020.86 2930.58 1029.01 Z" fill="#000000" fill-rule="nonzero" fill-opacity="1" /><path clip-path="url(#clip090)" d="M2970.4 1020.54 Q2972.59 1016.59 2975.65 1014.71 Q2978.7 1012.84 2982.84 1012.84 Q2988.41 1012.84 2991.43 1016.75 Q2994.46 1020.63 2994.46 1027.83 L2994.46 1049.34 L2988.57 1049.34 L2988.57 1028.02 Q2988.57 1022.89 2986.76 1020.41 Q2984.94 1017.93 2981.22 1017.93 Q2976.67 1017.93 2974.02 1020.95 Q2971.38 1023.98 2971.38 1029.2 L2971.38 1049.34 L2965.49 1049.34 L2965.49 1028.02 Q2965.49 1022.86 2963.68 1020.41 Q2961.87 1017.93 2958.08 1017.93 Q2953.59 1017.93 2950.95 1020.98 Q2948.31 1024.01 2948.31 1029.2 L2948.31 1049.34 L2942.42 1049.34 L2942.42 1013.7 L2948.31 1013.7 L2948.31 1019.23 Q2950.31 1015.96 2953.11 1014.4 Q2955.91 1012.84 2959.77 1012.84 Q2963.65 1012.84 2966.35 1014.81 Q2969.09 1016.78 2970.4 1020.54 Z" fill="#000000" fill-rule="nonzero" fill-opacity="1" /><path clip-path="url(#clip090)" d="M3011.81 1044 L3011.81 1062.9 L3005.92 1062.9 L3005.92 1013.7 L3011.81 1013.7 L3011.81 1019.11 Q3013.65 1015.92 3016.45 1014.4 Q3019.28 1012.84 3023.2 1012.84 Q3029.69 1012.84 3033.74 1017.99 Q3037.81 1023.15 3037.81 1031.55 Q3037.81 1039.95 3033.74 1045.11 Q3029.69 1050.27 3023.2 1050.27 Q3019.28 1050.27 3016.45 1048.74 Q3013.65 1047.18 3011.81 1044 M3031.73 1031.55 Q3031.73 1025.09 3029.06 1021.43 Q3026.41 1017.74 3021.77 1017.74 Q3017.12 1017.74 3014.45 1021.43 Q3011.81 1025.09 3011.81 1031.55 Q3011.81 1038.01 3014.45 1041.7 Q3017.12 1045.37 3021.77 1045.37 Q3026.41 1045.37 3029.06 1041.7 Q3031.73 1038.01 3031.73 1031.55 Z" fill="#000000" fill-rule="nonzero" fill-opacity="1" /><path clip-path="url(#clip090)" d="M3047.52 999.819 L3053.37 999.819 L3053.37 1049.34 L3047.52 1049.34 L3047.52 999.819 Z" fill="#000000" fill-rule="nonzero" fill-opacity="1" /><path clip-path="url(#clip090)" d="M3096.12 1030.06 L3096.12 1032.92 L3069.19 1032.92 Q3069.57 1038.97 3072.82 1042.15 Q3076.1 1045.3 3081.92 1045.3 Q3085.3 1045.3 3088.45 1044.47 Q3091.63 1043.65 3094.75 1041.99 L3094.75 1047.53 Q3091.6 1048.87 3088.29 1049.57 Q3084.98 1050.27 3081.57 1050.27 Q3073.04 1050.27 3068.05 1045.3 Q3063.08 1040.34 3063.08 1031.87 Q3063.08 1023.12 3067.79 1017.99 Q3072.53 1012.84 3080.55 1012.84 Q3087.75 1012.84 3091.92 1017.48 Q3096.12 1022.1 3096.12 1030.06 M3090.26 1028.34 Q3090.2 1023.53 3087.56 1020.67 Q3084.95 1017.8 3080.62 1017.8 Q3075.72 1017.8 3072.76 1020.57 Q3069.83 1023.34 3069.38 1028.37 L3090.26 1028.34 Z" fill="#000000" fill-rule="nonzero" fill-opacity="1" /><path clip-path="url(#clip090)" d="M3122.25 1013.7 L3128.46 1013.7 L3139.6 1043.61 L3150.74 1013.7 L3156.94 1013.7 L3143.58 1049.34 L3135.62 1049.34 L3122.25 1013.7 Z" fill="#000000" fill-rule="nonzero" fill-opacity="1" /><path clip-path="url(#clip090)" d="M3181.23 1031.42 Q3174.13 1031.42 3171.39 1033.05 Q3168.66 1034.67 3168.66 1038.59 Q3168.66 1041.7 3170.69 1043.55 Q3172.76 1045.37 3176.3 1045.37 Q3181.16 1045.37 3184.09 1041.93 Q3187.05 1038.46 3187.05 1032.73 L3187.05 1031.42 L3181.23 1031.42 M3192.91 1029.01 L3192.91 1049.34 L3187.05 1049.34 L3187.05 1043.93 Q3185.05 1047.18 3182.06 1048.74 Q3179.06 1050.27 3174.74 1050.27 Q3169.26 1050.27 3166.01 1047.21 Q3162.8 1044.12 3162.8 1038.97 Q3162.8 1032.95 3166.81 1029.9 Q3170.85 1026.84 3178.84 1026.84 L3187.05 1026.84 L3187.05 1026.27 Q3187.05 1022.23 3184.38 1020.03 Q3181.74 1017.8 3176.93 1017.8 Q3173.88 1017.8 3170.98 1018.53 Q3168.08 1019.27 3165.41 1020.73 L3165.41 1015.32 Q3168.62 1014.08 3171.65 1013.47 Q3174.67 1012.84 3177.54 1012.84 Q3185.27 1012.84 3189.09 1016.85 Q3192.91 1020.86 3192.91 1029.01 Z" fill="#000000" fill-rule="nonzero" fill-opacity="1" /><path clip-path="url(#clip090)" d="M3204.97 999.819 L3210.83 999.819 L3210.83 1049.34 L3204.97 1049.34 L3204.97 999.819 Z" fill="#000000" fill-rule="nonzero" fill-opacity="1" /><path clip-path="url(#clip090)" d="M3222.48 1035.28 L3222.48 1013.7 L3228.33 1013.7 L3228.33 1035.05 Q3228.33 1040.11 3230.31 1042.66 Q3232.28 1045.17 3236.23 1045.17 Q3240.97 1045.17 3243.71 1042.15 Q3246.48 1039.13 3246.48 1033.91 L3246.48 1013.7 L3252.33 1013.7 L3252.33 1049.34 L3246.48 1049.34 L3246.48 1043.87 Q3244.34 1047.12 3241.51 1048.71 Q3238.71 1050.27 3234.99 1050.27 Q3228.84 1050.27 3225.66 1046.45 Q3222.48 1042.63 3222.48 1035.28 M3237.21 1012.84 L3237.21 1012.84 Z" fill="#000000" fill-rule="nonzero" fill-opacity="1" /><path clip-path="url(#clip090)" d="M3294.89 1030.06 L3294.89 1032.92 L3267.96 1032.92 Q3268.34 1038.97 3271.59 1042.15 Q3274.87 1045.3 3280.69 1045.3 Q3284.07 1045.3 3287.22 1044.47 Q3290.4 1043.65 3293.52 1041.99 L3293.52 1047.53 Q3290.37 1048.87 3287.06 1049.57 Q3283.75 1050.27 3280.34 1050.27 Q3271.81 1050.27 3266.82 1045.3 Q3261.85 1040.34 3261.85 1031.87 Q3261.85 1023.12 3266.56 1017.99 Q3271.3 1012.84 3279.32 1012.84 Q3286.52 1012.84 3290.69 1017.48 Q3294.89 1022.1 3294.89 1030.06 M3289.03 1028.34 Q3288.97 1023.53 3286.33 1020.67 Q3283.72 1017.8 3279.39 1017.8 Q3274.49 1017.8 3271.53 1020.57 Q3268.6 1023.34 3268.15 1028.37 L3289.03 1028.34 Z" fill="#000000" fill-rule="nonzero" fill-opacity="1" /><polyline clip-path="url(#clip093)" style="stroke:#000000; stroke-linecap:round; stroke-linejoin:round; stroke-width:2; stroke-opacity:0.1; fill:none" points="2201.61,705.732 3952.76,705.732 "/>
<polyline clip-path="url(#clip093)" style="stroke:#000000; stroke-linecap:round; stroke-linejoin:round; stroke-width:2; stroke-opacity:0.1; fill:none" points="2201.61,527.192 3952.76,527.192 "/>
<polyline clip-path="url(#clip093)" style="stroke:#000000; stroke-linecap:round; stroke-linejoin:round; stroke-width:2; stroke-opacity:0.1; fill:none" points="2201.61,348.653 3952.76,348.653 "/>
<polyline clip-path="url(#clip093)" style="stroke:#000000; stroke-linecap:round; stroke-linejoin:round; stroke-width:2; stroke-opacity:0.1; fill:none" points="2201.61,170.113 3952.76,170.113 "/>
<polyline clip-path="url(#clip090)" style="stroke:#000000; stroke-linecap:round; stroke-linejoin:round; stroke-width:4; stroke-opacity:1; fill:none" points="2201.61,880.48 2201.61,85.6721 "/>
<polyline clip-path="url(#clip090)" style="stroke:#000000; stroke-linecap:round; stroke-linejoin:round; stroke-width:4; stroke-opacity:1; fill:none" points="2201.61,705.732 2220.5,705.732 "/>
<polyline clip-path="url(#clip090)" style="stroke:#000000; stroke-linecap:round; stroke-linejoin:round; stroke-width:4; stroke-opacity:1; fill:none" points="2201.61,527.192 2220.5,527.192 "/>
<polyline clip-path="url(#clip090)" style="stroke:#000000; stroke-linecap:round; stroke-linejoin:round; stroke-width:4; stroke-opacity:1; fill:none" points="2201.61,348.653 2220.5,348.653 "/>
<polyline clip-path="url(#clip090)" style="stroke:#000000; stroke-linecap:round; stroke-linejoin:round; stroke-width:4; stroke-opacity:1; fill:none" points="2201.61,170.113 2220.5,170.113 "/>
<path clip-path="url(#clip090)" d="M2085.66 691.531 Q2082.05 691.531 2080.22 695.096 Q2078.41 698.637 2078.41 705.767 Q2078.41 712.873 2080.22 716.438 Q2082.05 719.98 2085.66 719.98 Q2089.29 719.98 2091.1 716.438 Q2092.93 712.873 2092.93 705.767 Q2092.93 698.637 2091.1 695.096 Q2089.29 691.531 2085.66 691.531 M2085.66 687.827 Q2091.47 687.827 2094.52 692.434 Q2097.6 697.017 2097.6 705.767 Q2097.6 714.494 2094.52 719.1 Q2091.47 723.684 2085.66 723.684 Q2079.85 723.684 2076.77 719.1 Q2073.71 714.494 2073.71 705.767 Q2073.71 697.017 2076.77 692.434 Q2079.85 687.827 2085.66 687.827 Z" fill="#000000" fill-rule="nonzero" fill-opacity="1" /><path clip-path="url(#clip090)" d="M2105.82 717.133 L2110.7 717.133 L2110.7 723.012 L2105.82 723.012 L2105.82 717.133 Z" fill="#000000" fill-rule="nonzero" fill-opacity="1" /><path clip-path="url(#clip090)" d="M2121.7 719.077 L2129.34 719.077 L2129.34 692.712 L2121.03 694.378 L2121.03 690.119 L2129.29 688.452 L2133.97 688.452 L2133.97 719.077 L2141.61 719.077 L2141.61 723.012 L2121.7 723.012 L2121.7 719.077 Z" fill="#000000" fill-rule="nonzero" fill-opacity="1" /><path clip-path="url(#clip090)" d="M2086.03 512.991 Q2082.42 512.991 2080.59 516.556 Q2078.78 520.098 2078.78 527.227 Q2078.78 534.334 2080.59 537.898 Q2082.42 541.44 2086.03 541.44 Q2089.66 541.44 2091.47 537.898 Q2093.3 534.334 2093.3 527.227 Q2093.3 520.098 2091.47 516.556 Q2089.66 512.991 2086.03 512.991 M2086.03 509.287 Q2091.84 509.287 2094.89 513.894 Q2097.97 518.477 2097.97 527.227 Q2097.97 535.954 2094.89 540.56 Q2091.84 545.144 2086.03 545.144 Q2080.22 545.144 2077.14 540.56 Q2074.08 535.954 2074.08 527.227 Q2074.08 518.477 2077.14 513.894 Q2080.22 509.287 2086.03 509.287 Z" fill="#000000" fill-rule="nonzero" fill-opacity="1" /><path clip-path="url(#clip090)" d="M2106.19 538.593 L2111.07 538.593 L2111.07 544.472 L2106.19 544.472 L2106.19 538.593 Z" fill="#000000" fill-rule="nonzero" fill-opacity="1" /><path clip-path="url(#clip090)" d="M2125.29 540.537 L2141.61 540.537 L2141.61 544.472 L2119.66 544.472 L2119.66 540.537 Q2122.32 537.783 2126.91 533.153 Q2131.51 528.5 2132.69 527.158 Q2134.94 524.635 2135.82 522.899 Q2136.72 521.139 2136.72 519.449 Q2136.72 516.695 2134.78 514.959 Q2132.86 513.223 2129.75 513.223 Q2127.56 513.223 2125.1 513.987 Q2122.67 514.75 2119.89 516.301 L2119.89 511.579 Q2122.72 510.445 2125.17 509.866 Q2127.62 509.287 2129.66 509.287 Q2135.03 509.287 2138.23 511.973 Q2141.42 514.658 2141.42 519.149 Q2141.42 521.278 2140.61 523.199 Q2139.82 525.098 2137.72 527.69 Q2137.14 528.361 2134.04 531.579 Q2130.93 534.773 2125.29 540.537 Z" fill="#000000" fill-rule="nonzero" fill-opacity="1" /><path clip-path="url(#clip090)" d="M2085.08 334.451 Q2081.47 334.451 2079.64 338.016 Q2077.83 341.558 2077.83 348.687 Q2077.83 355.794 2079.64 359.359 Q2081.47 362.9 2085.08 362.9 Q2088.71 362.9 2090.52 359.359 Q2092.35 355.794 2092.35 348.687 Q2092.35 341.558 2090.52 338.016 Q2088.71 334.451 2085.08 334.451 M2085.08 330.748 Q2090.89 330.748 2093.94 335.354 Q2097.02 339.937 2097.02 348.687 Q2097.02 357.414 2093.94 362.021 Q2090.89 366.604 2085.08 366.604 Q2079.27 366.604 2076.19 362.021 Q2073.13 357.414 2073.13 348.687 Q2073.13 339.937 2076.19 335.354 Q2079.27 330.748 2085.08 330.748 Z" fill="#000000" fill-rule="nonzero" fill-opacity="1" /><path clip-path="url(#clip090)" d="M2105.24 360.053 L2110.12 360.053 L2110.12 365.933 L2105.24 365.933 L2105.24 360.053 Z" fill="#000000" fill-rule="nonzero" fill-opacity="1" /><path clip-path="url(#clip090)" d="M2134.48 347.298 Q2137.83 348.016 2139.71 350.285 Q2141.61 352.553 2141.61 355.886 Q2141.61 361.002 2138.09 363.803 Q2134.57 366.604 2128.09 366.604 Q2125.91 366.604 2123.6 366.164 Q2121.31 365.747 2118.85 364.891 L2118.85 360.377 Q2120.8 361.511 2123.11 362.09 Q2125.43 362.669 2127.95 362.669 Q2132.35 362.669 2134.64 360.933 Q2136.95 359.197 2136.95 355.886 Q2136.95 352.831 2134.8 351.118 Q2132.67 349.382 2128.85 349.382 L2124.82 349.382 L2124.82 345.539 L2129.04 345.539 Q2132.49 345.539 2134.31 344.173 Q2136.14 342.785 2136.14 340.192 Q2136.14 337.53 2134.25 336.118 Q2132.37 334.683 2128.85 334.683 Q2126.93 334.683 2124.73 335.099 Q2122.53 335.516 2119.89 336.396 L2119.89 332.229 Q2122.56 331.488 2124.87 331.118 Q2127.21 330.748 2129.27 330.748 Q2134.59 330.748 2137.69 333.178 Q2140.8 335.586 2140.8 339.706 Q2140.8 342.576 2139.15 344.567 Q2137.51 346.535 2134.48 347.298 Z" fill="#000000" fill-rule="nonzero" fill-opacity="1" /><path clip-path="url(#clip090)" d="M2083.94 155.911 Q2080.33 155.911 2078.5 159.476 Q2076.7 163.018 2076.7 170.148 Q2076.7 177.254 2078.5 180.819 Q2080.33 184.36 2083.94 184.36 Q2087.58 184.36 2089.38 180.819 Q2091.21 177.254 2091.21 170.148 Q2091.21 163.018 2089.38 159.476 Q2087.58 155.911 2083.94 155.911 M2083.94 152.208 Q2089.75 152.208 2092.81 156.814 Q2095.89 161.398 2095.89 170.148 Q2095.89 178.874 2092.81 183.481 Q2089.75 188.064 2083.94 188.064 Q2078.13 188.064 2075.06 183.481 Q2072 178.874 2072 170.148 Q2072 161.398 2075.06 156.814 Q2078.13 152.208 2083.94 152.208 Z" fill="#000000" fill-rule="nonzero" fill-opacity="1" /><path clip-path="url(#clip090)" d="M2104.11 181.513 L2108.99 181.513 L2108.99 187.393 L2104.11 187.393 L2104.11 181.513 Z" fill="#000000" fill-rule="nonzero" fill-opacity="1" /><path clip-path="url(#clip090)" d="M2132.02 156.907 L2120.22 175.356 L2132.02 175.356 L2132.02 156.907 M2130.8 152.833 L2136.68 152.833 L2136.68 175.356 L2141.61 175.356 L2141.61 179.245 L2136.68 179.245 L2136.68 187.393 L2132.02 187.393 L2132.02 179.245 L2116.42 179.245 L2116.42 174.731 L2130.8 152.833 Z" fill="#000000" fill-rule="nonzero" fill-opacity="1" /><path clip-path="url(#clip090)" d="M1955.51 596.386 L1992.46 596.386 L1992.46 588.619 Q1992.46 578.784 1988 574.233 Q1983.55 569.65 1973.94 569.65 Q1964.39 569.65 1959.96 574.233 Q1955.51 578.784 1955.51 588.619 L1955.51 596.386 M1950.22 602.815 L1950.22 589.606 Q1950.22 575.793 1955.98 569.331 Q1961.71 562.87 1973.94 562.87 Q1986.22 562.87 1991.98 569.363 Q1997.74 575.856 1997.74 589.606 L1997.74 602.815 L1950.22 602.815 Z" fill="#000000" fill-rule="nonzero" fill-opacity="1" /><path clip-path="url(#clip090)" d="M1978.46 522.384 L1981.32 522.384 L1981.32 549.311 Q1987.37 548.929 1990.55 545.683 Q1993.7 542.404 1993.7 536.58 Q1993.7 533.206 1992.87 530.055 Q1992.05 526.872 1990.39 523.753 L1995.93 523.753 Q1997.27 526.904 1997.97 530.214 Q1998.67 533.524 1998.67 536.93 Q1998.67 545.46 1993.7 550.457 Q1988.74 555.422 1980.27 555.422 Q1971.52 555.422 1966.39 550.712 Q1961.24 545.969 1961.24 537.948 Q1961.24 530.755 1965.88 526.586 Q1970.5 522.384 1978.46 522.384 M1976.74 528.241 Q1971.93 528.304 1969.07 530.946 Q1966.2 533.556 1966.2 537.885 Q1966.2 542.786 1968.97 545.746 Q1971.74 548.675 1976.77 549.12 L1976.74 528.241 Z" fill="#000000" fill-rule="nonzero" fill-opacity="1" /><path clip-path="url(#clip090)" d="M1976.23 483.14 L1997.74 483.14 L1997.74 488.996 L1976.42 488.996 Q1971.36 488.996 1968.84 490.969 Q1966.33 492.943 1966.33 496.89 Q1966.33 501.632 1969.35 504.369 Q1972.38 507.107 1977.6 507.107 L1997.74 507.107 L1997.74 512.995 L1962.1 512.995 L1962.1 507.107 L1967.63 507.107 Q1964.42 505.006 1962.83 502.173 Q1961.24 499.309 1961.24 495.585 Q1961.24 489.442 1965.06 486.291 Q1968.84 483.14 1976.23 483.14 Z" fill="#000000" fill-rule="nonzero" fill-opacity="1" /><path clip-path="url(#clip090)" d="M1963.15 448.733 L1968.68 448.733 Q1967.41 451.216 1966.77 453.889 Q1966.14 456.563 1966.14 459.427 Q1966.14 463.788 1967.48 465.984 Q1968.81 468.148 1971.49 468.148 Q1973.52 468.148 1974.7 466.589 Q1975.85 465.029 1976.9 460.319 L1977.34 458.313 Q1978.68 452.075 1981.13 449.465 Q1983.55 446.823 1987.91 446.823 Q1992.87 446.823 1995.77 450.77 Q1998.67 454.685 1998.67 461.56 Q1998.67 464.424 1998.09 467.544 Q1997.55 470.631 1996.44 474.069 L1990.39 474.069 Q1992.08 470.822 1992.94 467.671 Q1993.77 464.52 1993.77 461.433 Q1993.77 457.295 1992.36 455.067 Q1990.93 452.839 1988.35 452.839 Q1985.97 452.839 1984.69 454.462 Q1983.42 456.054 1982.24 461.496 L1981.77 463.533 Q1980.62 468.976 1978.26 471.395 Q1975.88 473.814 1971.74 473.814 Q1966.71 473.814 1963.97 470.249 Q1961.24 466.684 1961.24 460.128 Q1961.24 456.881 1961.71 454.017 Q1962.19 451.152 1963.15 448.733 Z" fill="#000000" fill-rule="nonzero" fill-opacity="1" /><path clip-path="url(#clip090)" d="M1962.1 437.498 L1962.1 431.641 L1997.74 431.641 L1997.74 437.498 L1962.1 437.498 M1948.22 437.498 L1948.22 431.641 L1955.63 431.641 L1955.63 437.498 L1948.22 437.498 Z" fill="#000000" fill-rule="nonzero" fill-opacity="1" /><path clip-path="url(#clip090)" d="M1951.97 413.594 L1962.1 413.594 L1962.1 401.531 L1966.65 401.531 L1966.65 413.594 L1986 413.594 Q1990.36 413.594 1991.6 412.417 Q1992.84 411.207 1992.84 407.547 L1992.84 401.531 L1997.74 401.531 L1997.74 407.547 Q1997.74 414.326 1995.23 416.904 Q1992.68 419.483 1986 419.483 L1966.65 419.483 L1966.65 423.779 L1962.1 423.779 L1962.1 419.483 L1951.97 419.483 L1951.97 413.594 Z" fill="#000000" fill-rule="nonzero" fill-opacity="1" /><path clip-path="url(#clip090)" d="M2001.05 378.997 Q2007.42 381.479 2009.36 383.835 Q2011.3 386.19 2011.3 390.137 L2011.3 394.815 L2006.4 394.815 L2006.4 391.378 Q2006.4 388.959 2005.26 387.622 Q2004.11 386.285 1999.84 384.662 L1997.17 383.612 L1962.1 398.03 L1962.1 391.824 L1989.98 380.684 L1962.1 369.544 L1962.1 363.337 L2001.05 378.997 Z" fill="#000000" fill-rule="nonzero" fill-opacity="1" /><path clip-path="url(#clip090)" d="M2910.51 65.7705 L2910.51 89.8329 L2903.01 89.8329 L2903.01 27.2059 L2910.51 27.2059 L2910.51 34.0924 Q2912.86 30.0415 2916.42 28.0971 Q2920.03 26.1121 2925.01 26.1121 Q2933.27 26.1121 2938.42 32.6746 Q2943.6 39.2371 2943.6 49.9314 Q2943.6 60.6258 2938.42 67.1883 Q2933.27 73.7508 2925.01 73.7508 Q2920.03 73.7508 2916.42 71.8063 Q2912.86 69.8214 2910.51 65.7705 M2935.87 49.9314 Q2935.87 41.7081 2932.46 37.0496 Q2929.1 32.3505 2923.19 32.3505 Q2917.27 32.3505 2913.87 37.0496 Q2910.51 41.7081 2910.51 49.9314 Q2910.51 58.1548 2913.87 62.8538 Q2917.27 67.5124 2923.19 67.5124 Q2929.1 67.5124 2932.46 62.8538 Q2935.87 58.1548 2935.87 49.9314 Z" fill="#000000" fill-rule="nonzero" fill-opacity="1" /><path clip-path="url(#clip090)" d="M2976.58 49.7694 Q2967.54 49.7694 2964.06 51.8354 Q2960.58 53.9013 2960.58 58.8839 Q2960.58 62.8538 2963.17 65.2034 Q2965.8 67.5124 2970.3 67.5124 Q2976.5 67.5124 2980.22 63.1374 Q2983.99 58.7219 2983.99 51.4303 L2983.99 49.7694 L2976.58 49.7694 M2991.44 46.6907 L2991.44 72.576 L2983.99 72.576 L2983.99 65.6895 Q2981.44 69.8214 2977.63 71.8063 Q2973.82 73.7508 2968.31 73.7508 Q2961.35 73.7508 2957.21 69.8619 Q2953.12 65.9325 2953.12 59.3701 Q2953.12 51.7138 2958.23 47.825 Q2963.37 43.9361 2973.54 43.9361 L2983.99 43.9361 L2983.99 43.2069 Q2983.99 38.0623 2980.59 35.2672 Q2977.22 32.4315 2971.11 32.4315 Q2967.22 32.4315 2963.53 33.3632 Q2959.85 34.295 2956.44 36.1584 L2956.44 29.2718 Q2960.54 27.692 2964.38 26.9223 Q2968.23 26.1121 2971.88 26.1121 Q2981.72 26.1121 2986.58 31.2163 Q2991.44 36.3204 2991.44 46.6907 Z" fill="#000000" fill-rule="nonzero" fill-opacity="1" /><path clip-path="url(#clip090)" d="M3033.09 34.1734 Q3031.83 33.4443 3030.33 33.1202 Q3028.87 32.7556 3027.09 32.7556 Q3020.77 32.7556 3017.37 36.8875 Q3014.01 40.9789 3014.01 48.6757 L3014.01 72.576 L3006.51 72.576 L3006.51 27.2059 L3014.01 27.2059 L3014.01 34.2544 Q3016.36 30.1225 3020.12 28.1376 Q3023.89 26.1121 3029.28 26.1121 Q3030.05 26.1121 3030.98 26.2337 Q3031.91 26.3147 3033.05 26.5172 L3033.09 34.1734 Z" fill="#000000" fill-rule="nonzero" fill-opacity="1" /><path clip-path="url(#clip090)" d="M3061.52 49.7694 Q3052.49 49.7694 3049.01 51.8354 Q3045.52 53.9013 3045.52 58.8839 Q3045.52 62.8538 3048.12 65.2034 Q3050.75 67.5124 3055.25 67.5124 Q3061.44 67.5124 3065.17 63.1374 Q3068.94 58.7219 3068.94 51.4303 L3068.94 49.7694 L3061.52 49.7694 M3076.39 46.6907 L3076.39 72.576 L3068.94 72.576 L3068.94 65.6895 Q3066.39 69.8214 3062.58 71.8063 Q3058.77 73.7508 3053.26 73.7508 Q3046.29 73.7508 3042.16 69.8619 Q3038.07 65.9325 3038.07 59.3701 Q3038.07 51.7138 3043.17 47.825 Q3048.32 43.9361 3058.49 43.9361 L3068.94 43.9361 L3068.94 43.2069 Q3068.94 38.0623 3065.53 35.2672 Q3062.17 32.4315 3056.06 32.4315 Q3052.17 32.4315 3048.48 33.3632 Q3044.79 34.295 3041.39 36.1584 L3041.39 29.2718 Q3045.48 27.692 3049.33 26.9223 Q3053.18 26.1121 3056.83 26.1121 Q3066.67 26.1121 3071.53 31.2163 Q3076.39 36.3204 3076.39 46.6907 Z" fill="#000000" fill-rule="nonzero" fill-opacity="1" /><path clip-path="url(#clip090)" d="M3127.07 35.9153 Q3129.86 30.8922 3133.75 28.5022 Q3137.64 26.1121 3142.91 26.1121 Q3150 26.1121 3153.84 31.0947 Q3157.69 36.0368 3157.69 45.1919 L3157.69 72.576 L3150.2 72.576 L3150.2 45.4349 Q3150.2 38.913 3147.89 35.7533 Q3145.58 32.5936 3140.84 32.5936 Q3135.05 32.5936 3131.69 36.4419 Q3128.32 40.2903 3128.32 46.9338 L3128.32 72.576 L3120.83 72.576 L3120.83 45.4349 Q3120.83 38.8725 3118.52 35.7533 Q3116.21 32.5936 3111.39 32.5936 Q3105.68 32.5936 3102.32 36.4824 Q3098.95 40.3308 3098.95 46.9338 L3098.95 72.576 L3091.46 72.576 L3091.46 27.2059 L3098.95 27.2059 L3098.95 34.2544 Q3101.51 30.082 3105.07 28.0971 Q3108.64 26.1121 3113.54 26.1121 Q3118.48 26.1121 3121.92 28.6237 Q3125.41 31.1352 3127.07 35.9153 Z" fill="#000000" fill-rule="nonzero" fill-opacity="1" /><path clip-path="url(#clip090)" d="M3207.03 86.3491 L3207.03 92.1419 L3163.93 92.1419 L3163.93 86.3491 L3207.03 86.3491 Z" fill="#000000" fill-rule="nonzero" fill-opacity="1" /><path clip-path="url(#clip090)" d="M3216.51 65.6895 L3229.88 65.6895 L3229.88 19.5497 L3215.34 22.4663 L3215.34 15.0127 L3229.8 12.096 L3237.98 12.096 L3237.98 65.6895 L3251.35 65.6895 L3251.35 72.576 L3216.51 72.576 L3216.51 65.6895 Z" fill="#000000" fill-rule="nonzero" fill-opacity="1" /><polyline clip-path="url(#clip093)" style="stroke:#009af9; stroke-linecap:round; stroke-linejoin:round; stroke-width:4; stroke-opacity:1; fill:none" points="2251.17,848.155 2262.41,843.147 2273.64,838.027 2284.88,832.866 2296.12,827.721 2307.36,822.629 2318.6,817.603 2329.83,812.633 2341.07,807.689 2352.31,802.729 2363.55,797.707 2374.79,792.582 2386.03,787.325 2397.26,781.923 2408.5,776.376 2419.74,770.692 2430.98,764.882 2442.22,758.946 2453.46,752.87 2464.69,746.626 2475.93,740.172 2487.17,733.468 2498.41,726.489 2509.65,719.238 2520.89,711.76 2532.12,704.138 2543.36,696.485 2554.6,688.913 2565.84,681.497 2577.08,674.235 2588.32,667.007 2599.55,659.549 2610.79,651.451 2622.03,642.184 2633.27,631.145 2644.51,617.744 2655.75,601.488 2666.98,582.081 2678.22,559.498 2689.46,534.035 2700.7,506.316 2711.94,477.259 2723.17,447.989 2734.41,419.726 2745.65,393.651 2756.89,370.769 2768.13,351.803 2779.37,337.116 2790.6,326.68 2801.84,320.099 2813.08,316.672 2824.32,315.482 2835.56,315.51 2846.8,315.736 2858.03,315.236 2869.27,313.242 2880.51,309.183 2891.75,302.694 2902.99,293.606 2914.23,281.929 2925.46,267.826 2936.7,251.594 2947.94,233.651 2959.18,214.532 2970.42,194.876 2981.66,175.422 2992.89,156.978 3004.13,140.395 3015.37,126.512 3026.61,116.105 3037.85,109.829 3049.09,108.167 3060.32,111.391 3071.56,119.543 3082.8,132.428 3094.04,149.627 3105.28,170.52 3116.52,194.323 3127.75,220.125 3138.99,246.935 3150.23,273.73 3161.47,299.51 3172.71,323.358 3183.94,344.496 3195.18,362.345 3206.42,376.57 3217.66,387.121 3228.9,394.238 3240.14,398.446 3251.37,400.511 3262.61,401.377 3273.85,402.086 3285.09,403.677 3296.33,407.092 3307.57,413.09 3318.8,422.18 3330.04,434.583 3341.28,450.226 3352.52,468.765 3363.76,489.642 3375,512.154 3386.23,535.535 3397.47,559.036 3408.71,581.988 3419.95,603.855 3431.19,624.254 3442.43,642.962 3453.66,659.899 3464.9,675.099 3476.14,688.677 3487.38,700.791 3498.62,711.619 3509.86,721.333 3521.09,730.088 3532.33,738.021 3543.57,745.255 3554.81,751.898 3566.05,758.058 3577.28,763.84 3588.52,769.347 3599.76,774.677 3611,779.914 3622.24,785.121 3633.48,790.331 3644.71,795.545 3655.95,800.735 3667.19,805.846 3678.43,810.806 3689.67,815.541 3700.91,819.982 3712.14,824.076 3723.38,827.791 3734.62,831.114 3745.86,834.054 3757.1,836.634 3768.34,838.888 3779.57,840.854 3790.81,842.578 3802.05,844.106 3813.29,845.489 3824.53,846.784 3835.77,848.048 3847,849.343 3858.24,850.729 3869.48,852.257 3880.72,853.966 3891.96,855.875 3903.2,857.985 "/>
</svg>
