<?xml version="1.0" encoding="utf-8"?>
<svg xmlns="http://www.w3.org/2000/svg" xmlns:xlink="http://www.w3.org/1999/xlink" width="576" height="384" viewBox="0 0 2304 1536">
<defs>
  <clipPath id="clip690">
    <rect x="0" y="0" width="2304" height="1536"/>
  </clipPath>
</defs>
<path clip-path="url(#clip690)" d="M0 1536 L2304 1536 L2304 8.52651e-14 L0 8.52651e-14  Z" fill="#f0f1eb" fill-rule="evenodd" fill-opacity="1"/>
<defs>
  <clipPath id="clip691">
    <rect x="460" y="0" width="1614" height="1536"/>
  </clipPath>
</defs>
<path clip-path="url(#clip690)" d="M251.804 1347.54 L2256.76 1347.54 L2256.76 47.2441 L251.804 47.2441  Z" fill="#f0f1eb" fill-rule="evenodd" fill-opacity="1"/>
<defs>
  <clipPath id="clip692">
    <rect x="251" y="47" width="2006" height="1301"/>
  </clipPath>
</defs>
<polyline clip-path="url(#clip692)" style="stroke:#000000; stroke-linecap:round; stroke-linejoin:round; stroke-width:2; stroke-opacity:0.1; fill:none" points="939.036,1347.54 939.036,47.2441 "/>
<polyline clip-path="url(#clip692)" style="stroke:#000000; stroke-linecap:round; stroke-linejoin:round; stroke-width:2; stroke-opacity:0.1; fill:none" points="2200.01,1347.54 2200.01,47.2441 "/>
<polyline clip-path="url(#clip690)" style="stroke:#000000; stroke-linecap:round; stroke-linejoin:round; stroke-width:4; stroke-opacity:1; fill:none" points="251.804,1347.54 2256.76,1347.54 "/>
<polyline clip-path="url(#clip690)" style="stroke:#000000; stroke-linecap:round; stroke-linejoin:round; stroke-width:4; stroke-opacity:1; fill:none" points="939.036,1347.54 939.036,1328.64 "/>
<polyline clip-path="url(#clip690)" style="stroke:#000000; stroke-linecap:round; stroke-linejoin:round; stroke-width:4; stroke-opacity:1; fill:none" points="2200.01,1347.54 2200.01,1328.64 "/>
<path clip-path="url(#clip690)" d="M904.809 1420.89 L912.448 1420.89 L912.448 1394.53 L904.137 1396.19 L904.137 1391.94 L912.401 1390.27 L917.077 1390.27 L917.077 1420.89 L924.716 1420.89 L924.716 1424.83 L904.809 1424.83 L904.809 1420.89 Z" fill="#000000" fill-rule="nonzero" fill-opacity="1" /><path clip-path="url(#clip690)" d="M944.16 1393.35 Q940.549 1393.35 938.721 1396.91 Q936.915 1400.45 936.915 1407.58 Q936.915 1414.69 938.721 1418.25 Q940.549 1421.8 944.16 1421.8 Q947.795 1421.8 949.6 1418.25 Q951.429 1414.69 951.429 1407.58 Q951.429 1400.45 949.6 1396.91 Q947.795 1393.35 944.16 1393.35 M944.16 1389.64 Q949.97 1389.64 953.026 1394.25 Q956.105 1398.83 956.105 1407.58 Q956.105 1416.31 953.026 1420.92 Q949.97 1425.5 944.16 1425.5 Q938.35 1425.5 935.271 1420.92 Q932.216 1416.31 932.216 1407.58 Q932.216 1398.83 935.271 1394.25 Q938.35 1389.64 944.16 1389.64 Z" fill="#000000" fill-rule="nonzero" fill-opacity="1" /><path clip-path="url(#clip690)" d="M960.675 1394.22 L973.934 1394.22 L973.934 1397.42 L956.105 1397.42 L956.105 1394.22 Q958.268 1391.98 961.992 1388.22 Q965.734 1384.44 966.693 1383.35 Q968.518 1381.3 969.233 1379.89 Q969.966 1378.46 969.966 1377.09 Q969.966 1374.85 968.386 1373.44 Q966.825 1372.03 964.305 1372.03 Q962.518 1372.03 960.525 1372.65 Q958.55 1373.27 956.293 1374.53 L956.293 1370.69 Q958.587 1369.77 960.581 1369.3 Q962.575 1368.83 964.23 1368.83 Q968.593 1368.83 971.189 1371.01 Q973.784 1373.19 973.784 1376.84 Q973.784 1378.57 973.126 1380.13 Q972.486 1381.68 970.775 1383.78 Q970.305 1384.33 967.784 1386.94 Q965.264 1389.54 960.675 1394.22 Z" fill="#000000" fill-rule="nonzero" fill-opacity="1" /><path clip-path="url(#clip690)" d="M2164.47 1420.89 L2172.11 1420.89 L2172.11 1394.53 L2163.8 1396.19 L2163.8 1391.94 L2172.06 1390.27 L2176.74 1390.27 L2176.74 1420.89 L2184.38 1420.89 L2184.38 1424.83 L2164.47 1424.83 L2164.47 1420.89 Z" fill="#000000" fill-rule="nonzero" fill-opacity="1" /><path clip-path="url(#clip690)" d="M2203.82 1393.35 Q2200.21 1393.35 2198.38 1396.91 Q2196.57 1400.45 2196.57 1407.58 Q2196.57 1414.69 2198.38 1418.25 Q2200.21 1421.8 2203.82 1421.8 Q2207.45 1421.8 2209.26 1418.25 Q2211.09 1414.69 2211.09 1407.58 Q2211.09 1400.45 2209.26 1396.91 Q2207.45 1393.35 2203.82 1393.35 M2203.82 1389.64 Q2209.63 1389.64 2212.69 1394.25 Q2215.76 1398.83 2215.76 1407.58 Q2215.76 1416.31 2212.69 1420.92 Q2209.63 1425.5 2203.82 1425.5 Q2198.01 1425.5 2194.93 1420.92 Q2191.88 1416.31 2191.88 1407.58 Q2191.88 1398.83 2194.93 1394.25 Q2198.01 1389.64 2203.82 1389.64 Z" fill="#000000" fill-rule="nonzero" fill-opacity="1" /><path clip-path="url(#clip690)" d="M2228.44 1372.65 L2218.85 1387.64 L2228.44 1387.64 L2228.44 1372.65 M2227.44 1369.34 L2232.22 1369.34 L2232.22 1387.64 L2236.23 1387.64 L2236.23 1390.8 L2232.22 1390.8 L2232.22 1397.42 L2228.44 1397.42 L2228.44 1390.8 L2215.76 1390.8 L2215.76 1387.13 L2227.44 1369.34 Z" fill="#000000" fill-rule="nonzero" fill-opacity="1" /><path clip-path="url(#clip690)" d="M1174.47 1490.1 L1174.47 1492.96 L1147.54 1492.96 Q1147.92 1499.01 1151.17 1502.19 Q1154.45 1505.34 1160.27 1505.34 Q1163.65 1505.34 1166.8 1504.52 Q1169.98 1503.69 1173.1 1502.03 L1173.1 1507.57 Q1169.95 1508.91 1166.64 1509.61 Q1163.33 1510.31 1159.92 1510.31 Q1151.39 1510.31 1146.4 1505.34 Q1141.43 1500.38 1141.43 1491.91 Q1141.43 1483.16 1146.14 1478.03 Q1150.88 1472.88 1158.91 1472.88 Q1166.1 1472.88 1170.27 1477.53 Q1174.47 1482.14 1174.47 1490.1 M1168.61 1488.38 Q1168.55 1483.57 1165.91 1480.71 Q1163.3 1477.84 1158.97 1477.84 Q1154.07 1477.84 1151.11 1480.61 Q1148.18 1483.38 1147.73 1488.41 L1168.61 1488.38 Z" fill="#000000" fill-rule="nonzero" fill-opacity="1" /><path clip-path="url(#clip690)" d="M1189.75 1504.04 L1189.75 1522.94 L1183.86 1522.94 L1183.86 1473.74 L1189.75 1473.74 L1189.75 1479.15 Q1191.59 1475.97 1194.39 1474.44 Q1197.23 1472.88 1201.14 1472.88 Q1207.64 1472.88 1211.68 1478.03 Q1215.75 1483.19 1215.75 1491.59 Q1215.75 1500 1211.68 1505.15 Q1207.64 1510.31 1201.14 1510.31 Q1197.23 1510.31 1194.39 1508.78 Q1191.59 1507.22 1189.75 1504.04 M1209.67 1491.59 Q1209.67 1485.13 1207 1481.47 Q1204.36 1477.78 1199.71 1477.78 Q1195.06 1477.78 1192.39 1481.47 Q1189.75 1485.13 1189.75 1491.59 Q1189.75 1498.05 1192.39 1501.75 Q1195.06 1505.41 1199.71 1505.41 Q1204.36 1505.41 1207 1501.75 Q1209.67 1498.05 1209.67 1491.59 Z" fill="#000000" fill-rule="nonzero" fill-opacity="1" /><path clip-path="url(#clip690)" d="M1239.27 1477.84 Q1234.56 1477.84 1231.82 1481.54 Q1229.09 1485.2 1229.09 1491.59 Q1229.09 1497.99 1231.79 1501.68 Q1234.53 1505.34 1239.27 1505.34 Q1243.95 1505.34 1246.69 1501.65 Q1249.43 1497.96 1249.43 1491.59 Q1249.43 1485.26 1246.69 1481.57 Q1243.95 1477.84 1239.27 1477.84 M1239.27 1472.88 Q1246.91 1472.88 1251.27 1477.84 Q1255.63 1482.81 1255.63 1491.59 Q1255.63 1500.35 1251.27 1505.34 Q1246.91 1510.31 1239.27 1510.31 Q1231.6 1510.31 1227.24 1505.34 Q1222.91 1500.35 1222.91 1491.59 Q1222.91 1482.81 1227.24 1477.84 Q1231.6 1472.88 1239.27 1472.88 Z" fill="#000000" fill-rule="nonzero" fill-opacity="1" /><path clip-path="url(#clip690)" d="M1290.99 1475.11 L1290.99 1480.58 Q1288.51 1479.21 1286 1478.54 Q1283.51 1477.84 1280.97 1477.84 Q1275.27 1477.84 1272.12 1481.47 Q1268.97 1485.07 1268.97 1491.59 Q1268.97 1498.12 1272.12 1501.75 Q1275.27 1505.34 1280.97 1505.34 Q1283.51 1505.34 1286 1504.67 Q1288.51 1503.97 1290.99 1502.61 L1290.99 1508.02 Q1288.54 1509.16 1285.9 1509.74 Q1283.29 1510.31 1280.33 1510.31 Q1272.28 1510.31 1267.54 1505.25 Q1262.79 1500.19 1262.79 1491.59 Q1262.79 1482.87 1267.57 1477.88 Q1272.37 1472.88 1280.71 1472.88 Q1283.42 1472.88 1286 1473.45 Q1288.58 1473.99 1290.99 1475.11 Z" fill="#000000" fill-rule="nonzero" fill-opacity="1" /><path clip-path="url(#clip690)" d="M1330.81 1487.87 L1330.81 1509.39 L1324.96 1509.39 L1324.96 1488.06 Q1324.96 1483 1322.98 1480.49 Q1321.01 1477.97 1317.06 1477.97 Q1312.32 1477.97 1309.58 1480.99 Q1306.84 1484.02 1306.84 1489.24 L1306.84 1509.39 L1300.96 1509.39 L1300.96 1459.86 L1306.84 1459.86 L1306.84 1479.28 Q1308.95 1476.06 1311.78 1474.47 Q1314.64 1472.88 1318.37 1472.88 Q1324.51 1472.88 1327.66 1476.7 Q1330.81 1480.49 1330.81 1487.87 Z" fill="#000000" fill-rule="nonzero" fill-opacity="1" /><path clip-path="url(#clip690)" d="M1365.22 1474.79 L1365.22 1480.33 Q1362.74 1479.05 1360.06 1478.42 Q1357.39 1477.78 1354.52 1477.78 Q1350.16 1477.78 1347.97 1479.12 Q1345.8 1480.45 1345.8 1483.13 Q1345.8 1485.16 1347.36 1486.34 Q1348.92 1487.49 1353.63 1488.54 L1355.64 1488.98 Q1361.88 1490.32 1364.49 1492.77 Q1367.13 1495.19 1367.13 1499.55 Q1367.13 1504.52 1363.18 1507.41 Q1359.27 1510.31 1352.39 1510.31 Q1349.53 1510.31 1346.41 1509.74 Q1343.32 1509.19 1339.88 1508.08 L1339.88 1502.03 Q1343.13 1503.72 1346.28 1504.58 Q1349.43 1505.41 1352.52 1505.41 Q1356.66 1505.41 1358.88 1504.01 Q1361.11 1502.57 1361.11 1500 Q1361.11 1497.61 1359.49 1496.34 Q1357.9 1495.06 1352.46 1493.88 L1350.42 1493.41 Q1344.98 1492.26 1342.56 1489.91 Q1340.14 1487.52 1340.14 1483.38 Q1340.14 1478.35 1343.7 1475.62 Q1347.27 1472.88 1353.82 1472.88 Q1357.07 1472.88 1359.93 1473.36 Q1362.8 1473.83 1365.22 1474.79 Z" fill="#000000" fill-rule="nonzero" fill-opacity="1" /><polyline clip-path="url(#clip692)" style="stroke:#000000; stroke-linecap:round; stroke-linejoin:round; stroke-width:2; stroke-opacity:0.1; fill:none" points="251.804,882.899 2256.76,882.899 "/>
<polyline clip-path="url(#clip692)" style="stroke:#000000; stroke-linecap:round; stroke-linejoin:round; stroke-width:2; stroke-opacity:0.1; fill:none" points="251.804,364.036 2256.76,364.036 "/>
<polyline clip-path="url(#clip690)" style="stroke:#000000; stroke-linecap:round; stroke-linejoin:round; stroke-width:4; stroke-opacity:1; fill:none" points="251.804,1347.54 251.804,47.2441 "/>
<polyline clip-path="url(#clip690)" style="stroke:#000000; stroke-linecap:round; stroke-linejoin:round; stroke-width:4; stroke-opacity:1; fill:none" points="251.804,882.899 270.702,882.899 "/>
<polyline clip-path="url(#clip690)" style="stroke:#000000; stroke-linecap:round; stroke-linejoin:round; stroke-width:4; stroke-opacity:1; fill:none" points="251.804,364.036 270.702,364.036 "/>
<path clip-path="url(#clip690)" d="M115.675 902.691 L123.314 902.691 L123.314 876.325 L115.003 877.992 L115.003 873.733 L123.267 872.066 L127.943 872.066 L127.943 902.691 L135.582 902.691 L135.582 906.626 L115.675 906.626 L115.675 902.691 Z" fill="#000000" fill-rule="nonzero" fill-opacity="1" /><path clip-path="url(#clip690)" d="M155.026 875.145 Q151.415 875.145 149.587 878.71 Q147.781 882.251 147.781 889.381 Q147.781 896.487 149.587 900.052 Q151.415 903.594 155.026 903.594 Q158.661 903.594 160.466 900.052 Q162.295 896.487 162.295 889.381 Q162.295 882.251 160.466 878.71 Q158.661 875.145 155.026 875.145 M155.026 871.441 Q160.837 871.441 163.892 876.048 Q166.971 880.631 166.971 889.381 Q166.971 898.108 163.892 902.714 Q160.837 907.298 155.026 907.298 Q149.216 907.298 146.138 902.714 Q143.082 898.108 143.082 889.381 Q143.082 880.631 146.138 876.048 Q149.216 871.441 155.026 871.441 Z" fill="#000000" fill-rule="nonzero" fill-opacity="1" /><path clip-path="url(#clip690)" d="M166.971 865.543 L191.082 865.543 L191.082 868.74 L166.971 868.74 L166.971 865.543 Z" fill="#000000" fill-rule="nonzero" fill-opacity="1" /><path clip-path="url(#clip690)" d="M207.878 863.662 Q205.32 863.662 203.815 865.411 Q202.329 867.16 202.329 870.207 Q202.329 873.235 203.815 875.003 Q205.32 876.752 207.878 876.752 Q210.436 876.752 211.921 875.003 Q213.426 873.235 213.426 870.207 Q213.426 867.16 211.921 865.411 Q210.436 863.662 207.878 863.662 M215.42 851.756 L215.42 855.217 Q213.99 854.54 212.523 854.183 Q211.075 853.825 209.646 853.825 Q205.884 853.825 203.89 856.364 Q201.916 858.903 201.633 864.038 Q202.743 862.402 204.417 861.537 Q206.091 860.653 208.103 860.653 Q212.335 860.653 214.78 863.229 Q217.244 865.787 217.244 870.207 Q217.244 874.533 214.686 877.147 Q212.128 879.761 207.878 879.761 Q203.006 879.761 200.43 876.037 Q197.853 872.295 197.853 865.204 Q197.853 858.546 201.013 854.596 Q204.173 850.628 209.495 850.628 Q210.925 850.628 212.373 850.91 Q213.84 851.192 215.42 851.756 Z" fill="#000000" fill-rule="nonzero" fill-opacity="1" /><path clip-path="url(#clip690)" d="M115.411 383.828 L123.05 383.828 L123.05 357.462 L114.74 359.129 L114.74 354.87 L123.004 353.203 L127.68 353.203 L127.68 383.828 L135.319 383.828 L135.319 387.763 L115.411 387.763 L115.411 383.828 Z" fill="#000000" fill-rule="nonzero" fill-opacity="1" /><path clip-path="url(#clip690)" d="M154.763 356.282 Q151.152 356.282 149.323 359.847 Q147.518 363.388 147.518 370.518 Q147.518 377.624 149.323 381.189 Q151.152 384.731 154.763 384.731 Q158.397 384.731 160.203 381.189 Q162.032 377.624 162.032 370.518 Q162.032 363.388 160.203 359.847 Q158.397 356.282 154.763 356.282 M154.763 352.578 Q160.573 352.578 163.629 357.185 Q166.707 361.768 166.707 370.518 Q166.707 379.245 163.629 383.851 Q160.573 388.434 154.763 388.434 Q148.953 388.434 145.874 383.851 Q142.819 379.245 142.819 370.518 Q142.819 361.768 145.874 357.185 Q148.953 352.578 154.763 352.578 Z" fill="#000000" fill-rule="nonzero" fill-opacity="1" /><path clip-path="url(#clip690)" d="M166.707 346.68 L190.819 346.68 L190.819 349.877 L166.707 349.877 L166.707 346.68 Z" fill="#000000" fill-rule="nonzero" fill-opacity="1" /><path clip-path="url(#clip690)" d="M209.458 335.583 L199.866 350.573 L209.458 350.573 L209.458 335.583 M208.461 332.273 L213.238 332.273 L213.238 350.573 L217.244 350.573 L217.244 353.732 L213.238 353.732 L213.238 360.353 L209.458 360.353 L209.458 353.732 L196.781 353.732 L196.781 350.065 L208.461 332.273 Z" fill="#000000" fill-rule="nonzero" fill-opacity="1" /><path clip-path="url(#clip690)" d="M18.4042 761.509 L18.4042 751.929 L50.7419 739.802 L18.4042 727.612 L18.4042 718.031 L65.9242 718.031 L65.9242 724.301 L24.197 724.301 L56.7894 736.555 L56.7894 743.017 L24.197 755.271 L65.9242 755.271 L65.9242 761.509 L18.4042 761.509 Z" fill="#000000" fill-rule="nonzero" fill-opacity="1" /><path clip-path="url(#clip690)" d="M19.9638 676.781 L26.234 676.781 Q24.4834 680.442 23.624 683.688 Q22.7647 686.935 22.7647 689.958 Q22.7647 695.21 24.8017 698.075 Q26.8387 700.907 30.5945 700.907 Q33.7455 700.907 35.3688 699.03 Q36.9602 697.12 37.9469 691.836 L38.7426 687.953 Q40.1112 680.76 43.5805 677.354 Q47.018 673.917 52.8108 673.917 Q59.7176 673.917 63.2824 678.564 Q66.8472 683.179 66.8472 692.123 Q66.8472 695.497 66.0833 699.316 Q65.3194 703.104 63.8235 707.178 L57.2031 707.178 Q59.3993 703.263 60.5133 699.507 Q61.6273 695.751 61.6273 692.123 Q61.6273 686.616 59.463 683.625 Q57.2986 680.633 53.2882 680.633 Q49.7871 680.633 47.8137 682.797 Q45.8404 684.929 44.8537 689.831 L44.0898 693.746 Q42.6575 700.939 39.602 704.154 Q36.5464 707.369 31.1037 707.369 Q24.8017 707.369 21.1732 702.944 Q17.5448 698.488 17.5448 690.69 Q17.5448 687.348 18.1495 683.879 Q18.7543 680.41 19.9638 676.781 Z" fill="#000000" fill-rule="nonzero" fill-opacity="1" /><path clip-path="url(#clip690)" d="M18.4042 663.891 L18.4042 633.845 L23.815 633.845 L23.815 657.461 L37.8832 657.461 L37.8832 634.831 L43.2941 634.831 L43.2941 657.461 L60.5133 657.461 L60.5133 633.272 L65.9242 633.272 L65.9242 663.891 L18.4042 663.891 Z" fill="#000000" fill-rule="nonzero" fill-opacity="1" /><circle clip-path="url(#clip692)" cx="308.548" cy="84.0448" r="18" fill="#78c2ad" fill-rule="evenodd" fill-opacity="0.6" stroke="#000000" stroke-opacity="0.6" stroke-width="3.072"/>
<circle clip-path="url(#clip692)" cx="939.036" cy="404.426" r="18" fill="#78c2ad" fill-rule="evenodd" fill-opacity="0.6" stroke="#000000" stroke-opacity="0.6" stroke-width="3.072"/>
<circle clip-path="url(#clip692)" cx="1569.52" cy="807.093" r="18" fill="#78c2ad" fill-rule="evenodd" fill-opacity="0.6" stroke="#000000" stroke-opacity="0.6" stroke-width="3.072"/>
<circle clip-path="url(#clip692)" cx="2200.01" cy="957.83" r="18" fill="#78c2ad" fill-rule="evenodd" fill-opacity="0.6" stroke="#000000" stroke-opacity="0.6" stroke-width="3.072"/>
<polyline clip-path="url(#clip692)" style="stroke:#78c2ad; stroke-linecap:round; stroke-linejoin:round; stroke-width:8; stroke-opacity:1; fill:none" points="308.548,109.745 327.654,118.909 346.759,128.072 365.865,137.236 384.971,146.4 404.076,155.563 423.182,164.727 442.288,173.891 461.393,183.055 480.499,192.218 499.605,201.382 518.711,210.546 537.816,219.709 556.922,228.873 576.028,238.037 595.133,247.2 614.239,256.364 633.345,265.528 652.45,274.692 671.556,283.855 690.662,293.019 709.768,302.183 728.873,311.346 747.979,320.51 767.085,329.674 786.19,338.838 805.296,348.001 824.402,357.165 843.507,366.329 862.613,375.492 881.719,384.656 900.825,393.82 919.93,402.983 939.036,412.147 958.142,421.311 977.247,430.475 996.353,439.638 1015.46,448.802 1034.56,457.966 1053.67,467.129 1072.78,476.293 1091.88,485.457 1110.99,494.62 1130.09,503.784 1149.2,512.948 1168.3,522.112 1187.41,531.275 1206.52,540.439 1225.62,549.603 1244.73,558.766 1263.83,567.93 1282.94,577.094 1302.04,586.258 1321.15,595.421 1340.26,604.585 1359.36,613.749 1378.47,622.912 1397.57,632.076 1416.68,641.24 1435.78,650.403 1454.89,659.567 1474,668.731 1493.1,677.895 1512.21,687.058 1531.31,696.222 1550.42,705.386 1569.52,714.549 1588.63,723.713 1607.74,732.877 1626.84,742.04 1645.95,751.204 1665.05,760.368 1684.16,769.532 1703.26,778.695 1722.37,787.859 1741.48,797.023 1760.58,806.186 1779.69,815.35 1798.79,824.514 1817.9,833.677 1837,842.841 1856.11,852.005 1875.22,861.169 1894.32,870.332 1913.43,879.496 1932.53,888.66 1951.64,897.823 1970.74,906.987 1989.85,916.151 2008.96,925.315 2028.06,934.478 2047.17,943.642 2066.27,952.806 2085.38,961.969 2104.48,971.133 2123.59,980.297 2142.69,989.46 2161.8,998.624 2180.91,1007.79 2200.01,1016.95 "/>
<circle clip-path="url(#clip692)" cx="308.548" cy="542.424" r="18" fill="#e95420" fill-rule="evenodd" fill-opacity="0.6" stroke="#000000" stroke-opacity="0.6" stroke-width="3.072"/>
<circle clip-path="url(#clip692)" cx="939.036" cy="836.775" r="18" fill="#e95420" fill-rule="evenodd" fill-opacity="0.6" stroke="#000000" stroke-opacity="0.6" stroke-width="3.072"/>
<circle clip-path="url(#clip692)" cx="1569.52" cy="1079.99" r="18" fill="#e95420" fill-rule="evenodd" fill-opacity="0.6" stroke="#000000" stroke-opacity="0.6" stroke-width="3.072"/>
<circle clip-path="url(#clip692)" cx="2200.01" cy="1290.78" r="18" fill="#e95420" fill-rule="evenodd" fill-opacity="0.6" stroke="#000000" stroke-opacity="0.6" stroke-width="3.072"/>
<polyline clip-path="url(#clip692)" style="stroke:#e95420; stroke-linecap:round; stroke-linejoin:round; stroke-width:8; stroke-opacity:1; fill:none" points="308.548,564.25 327.654,571.79 346.759,579.33 365.865,586.87 384.971,594.411 404.076,601.951 423.182,609.491 442.288,617.031 461.393,624.572 480.499,632.112 499.605,639.652 518.711,647.193 537.816,654.733 556.922,662.273 576.028,669.813 595.133,677.354 614.239,684.894 633.345,692.434 652.45,699.974 671.556,707.515 690.662,715.055 709.768,722.595 728.873,730.135 747.979,737.676 767.085,745.216 786.19,752.756 805.296,760.297 824.402,767.837 843.507,775.377 862.613,782.917 881.719,790.458 900.825,797.998 919.93,805.538 939.036,813.078 958.142,820.619 977.247,828.159 996.353,835.699 1015.46,843.239 1034.56,850.78 1053.67,858.32 1072.78,865.86 1091.88,873.401 1110.99,880.941 1130.09,888.481 1149.2,896.021 1168.3,903.562 1187.41,911.102 1206.52,918.642 1225.62,926.182 1244.73,933.723 1263.83,941.263 1282.94,948.803 1302.04,956.343 1321.15,963.884 1340.26,971.424 1359.36,978.964 1378.47,986.504 1397.57,994.045 1416.68,1001.59 1435.78,1009.13 1454.89,1016.67 1474,1024.21 1493.1,1031.75 1512.21,1039.29 1531.31,1046.83 1550.42,1054.37 1569.52,1061.91 1588.63,1069.45 1607.74,1076.99 1626.84,1084.53 1645.95,1092.07 1665.05,1099.61 1684.16,1107.15 1703.26,1114.69 1722.37,1122.23 1741.48,1129.77 1760.58,1137.31 1779.69,1144.85 1798.79,1152.39 1817.9,1159.93 1837,1167.47 1856.11,1175.01 1875.22,1182.55 1894.32,1190.09 1913.43,1197.63 1932.53,1205.17 1951.64,1212.71 1970.74,1220.25 1989.85,1227.79 2008.96,1235.33 2028.06,1242.87 2047.17,1250.41 2066.27,1257.95 2085.38,1265.49 2104.48,1273.03 2123.59,1280.57 2142.69,1288.12 2161.8,1295.66 2180.91,1303.2 2200.01,1310.74 "/>
<path clip-path="url(#clip690)" d="M1845.19 246.107 L2189.92 246.107 L2189.92 90.5872 L1845.19 90.5872  Z" fill="#f0f1eb" fill-rule="evenodd" fill-opacity="1"/>
<polyline clip-path="url(#clip690)" style="stroke:#000000; stroke-linecap:round; stroke-linejoin:round; stroke-width:4; stroke-opacity:1; fill:none" points="1845.19,246.107 2189.92,246.107 2189.92,90.5872 1845.19,90.5872 1845.19,246.107 "/>
<polyline clip-path="url(#clip690)" style="stroke:#78c2ad; stroke-linecap:round; stroke-linejoin:round; stroke-width:8; stroke-opacity:1; fill:none" points="1867.47,142.427 2001.13,142.427 "/>
<path clip-path="url(#clip690)" d="M2023.94 125.147 L2051.1 125.147 L2051.1 128.712 L2029.24 155.772 L2051.63 155.772 L2051.63 159.707 L2023.41 159.707 L2023.41 156.142 L2045.26 129.082 L2023.94 129.082 L2023.94 125.147 Z" fill="#000000" fill-rule="nonzero" fill-opacity="1" /><path clip-path="url(#clip690)" d="M2056.42 125.147 L2083.57 125.147 L2083.57 128.712 L2061.72 155.772 L2084.11 155.772 L2084.11 159.707 L2055.89 159.707 L2055.89 156.142 L2077.74 129.082 L2056.42 129.082 L2056.42 125.147 Z" fill="#000000" fill-rule="nonzero" fill-opacity="1" /><polyline clip-path="url(#clip690)" style="stroke:#e95420; stroke-linecap:round; stroke-linejoin:round; stroke-width:8; stroke-opacity:1; fill:none" points="1867.47,194.267 2001.13,194.267 "/>
<path clip-path="url(#clip690)" d="M2023.94 176.987 L2051.1 176.987 L2051.1 180.552 L2029.24 207.612 L2051.63 207.612 L2051.63 211.547 L2023.41 211.547 L2023.41 207.982 L2045.26 180.922 L2023.94 180.922 L2023.94 176.987 Z" fill="#000000" fill-rule="nonzero" fill-opacity="1" /><path clip-path="url(#clip690)" d="M2056.42 176.987 L2083.57 176.987 L2083.57 180.552 L2061.72 207.612 L2084.11 207.612 L2084.11 211.547 L2055.89 211.547 L2055.89 207.982 L2077.74 180.922 L2056.42 180.922 L2056.42 176.987 Z" fill="#000000" fill-rule="nonzero" fill-opacity="1" /><path clip-path="url(#clip690)" d="M2087.72 196.663 L2100.19 196.663 L2100.19 200.459 L2087.72 200.459 L2087.72 196.663 Z" fill="#000000" fill-rule="nonzero" fill-opacity="1" /><path clip-path="url(#clip690)" d="M2133.04 179.649 L2133.04 184.58 Q2130.68 182.381 2127.99 181.293 Q2125.33 180.205 2122.32 180.205 Q2116.4 180.205 2113.25 183.839 Q2110.1 187.45 2110.1 194.302 Q2110.1 201.131 2113.25 204.765 Q2116.4 208.376 2122.32 208.376 Q2125.33 208.376 2127.99 207.288 Q2130.68 206.2 2133.04 204.001 L2133.04 208.885 Q2130.59 210.552 2127.83 211.385 Q2125.1 212.218 2122.05 212.218 Q2114.2 212.218 2109.68 207.427 Q2105.17 202.612 2105.17 194.302 Q2105.17 185.969 2109.68 181.177 Q2114.2 176.362 2122.05 176.362 Q2125.15 176.362 2127.88 177.196 Q2130.63 178.006 2133.04 179.649 Z" fill="#000000" fill-rule="nonzero" fill-opacity="1" /><path clip-path="url(#clip690)" d="M2149.17 211.547 L2135.98 176.987 L2140.86 176.987 L2151.81 206.084 L2162.79 176.987 L2167.65 176.987 L2154.48 211.547 L2149.17 211.547 Z" fill="#000000" fill-rule="nonzero" fill-opacity="1" /></svg>
