<?xml version="1.0" encoding="utf-8"?>
<svg xmlns="http://www.w3.org/2000/svg" xmlns:xlink="http://www.w3.org/1999/xlink" width="576" height="384" viewBox="0 0 2304 1536">
<defs>
  <clipPath id="clip800">
    <rect x="0" y="0" width="2304" height="1536"/>
  </clipPath>
</defs>
<path clip-path="url(#clip800)" d="M0 1536 L2304 1536 L2304 8.52651e-14 L0 8.52651e-14  Z" fill="#ffffff" fill-rule="evenodd" fill-opacity="1"/>
<defs>
  <clipPath id="clip801">
    <rect x="460" y="0" width="1614" height="1536"/>
  </clipPath>
</defs>
<path clip-path="url(#clip800)" d="M209.786 1359.82 L2256.76 1359.82 L2256.76 123.472 L209.786 123.472  Z" fill="#ffffff" fill-rule="evenodd" fill-opacity="1"/>
<defs>
  <clipPath id="clip802">
    <rect x="209" y="123" width="2048" height="1237"/>
  </clipPath>
</defs>
<polyline clip-path="url(#clip802)" style="stroke:#000000; stroke-linecap:round; stroke-linejoin:round; stroke-width:2; stroke-opacity:0.1; fill:none" points="358.103,1359.82 358.103,123.472 "/>
<polyline clip-path="url(#clip802)" style="stroke:#000000; stroke-linecap:round; stroke-linejoin:round; stroke-width:2; stroke-opacity:0.1; fill:none" points="645.136,1359.82 645.136,123.472 "/>
<polyline clip-path="url(#clip802)" style="stroke:#000000; stroke-linecap:round; stroke-linejoin:round; stroke-width:2; stroke-opacity:0.1; fill:none" points="932.169,1359.82 932.169,123.472 "/>
<polyline clip-path="url(#clip802)" style="stroke:#000000; stroke-linecap:round; stroke-linejoin:round; stroke-width:2; stroke-opacity:0.1; fill:none" points="1219.2,1359.82 1219.2,123.472 "/>
<polyline clip-path="url(#clip802)" style="stroke:#000000; stroke-linecap:round; stroke-linejoin:round; stroke-width:2; stroke-opacity:0.1; fill:none" points="1506.23,1359.82 1506.23,123.472 "/>
<polyline clip-path="url(#clip802)" style="stroke:#000000; stroke-linecap:round; stroke-linejoin:round; stroke-width:2; stroke-opacity:0.1; fill:none" points="1793.27,1359.82 1793.27,123.472 "/>
<polyline clip-path="url(#clip802)" style="stroke:#000000; stroke-linecap:round; stroke-linejoin:round; stroke-width:2; stroke-opacity:0.1; fill:none" points="2080.3,1359.82 2080.3,123.472 "/>
<polyline clip-path="url(#clip800)" style="stroke:#000000; stroke-linecap:round; stroke-linejoin:round; stroke-width:4; stroke-opacity:1; fill:none" points="209.786,1359.82 2256.76,1359.82 "/>
<polyline clip-path="url(#clip800)" style="stroke:#000000; stroke-linecap:round; stroke-linejoin:round; stroke-width:4; stroke-opacity:1; fill:none" points="358.103,1359.82 358.103,1340.92 "/>
<polyline clip-path="url(#clip800)" style="stroke:#000000; stroke-linecap:round; stroke-linejoin:round; stroke-width:4; stroke-opacity:1; fill:none" points="645.136,1359.82 645.136,1340.92 "/>
<polyline clip-path="url(#clip800)" style="stroke:#000000; stroke-linecap:round; stroke-linejoin:round; stroke-width:4; stroke-opacity:1; fill:none" points="932.169,1359.82 932.169,1340.92 "/>
<polyline clip-path="url(#clip800)" style="stroke:#000000; stroke-linecap:round; stroke-linejoin:round; stroke-width:4; stroke-opacity:1; fill:none" points="1219.2,1359.82 1219.2,1340.92 "/>
<polyline clip-path="url(#clip800)" style="stroke:#000000; stroke-linecap:round; stroke-linejoin:round; stroke-width:4; stroke-opacity:1; fill:none" points="1506.23,1359.82 1506.23,1340.92 "/>
<polyline clip-path="url(#clip800)" style="stroke:#000000; stroke-linecap:round; stroke-linejoin:round; stroke-width:4; stroke-opacity:1; fill:none" points="1793.27,1359.82 1793.27,1340.92 "/>
<polyline clip-path="url(#clip800)" style="stroke:#000000; stroke-linecap:round; stroke-linejoin:round; stroke-width:4; stroke-opacity:1; fill:none" points="2080.3,1359.82 2080.3,1340.92 "/>
<path clip-path="url(#clip800)" d="M305.128 1404.62 L334.804 1404.62 L334.804 1408.56 L305.128 1408.56 L305.128 1404.62 Z" fill="#000000" fill-rule="nonzero" fill-opacity="1" /><path clip-path="url(#clip800)" d="M345.707 1417.52 L353.346 1417.52 L353.346 1391.15 L345.035 1392.82 L345.035 1388.56 L353.299 1386.89 L357.975 1386.89 L357.975 1417.52 L365.614 1417.52 L365.614 1421.45 L345.707 1421.45 L345.707 1417.52 Z" fill="#000000" fill-rule="nonzero" fill-opacity="1" /><path clip-path="url(#clip800)" d="M375.058 1415.57 L379.943 1415.57 L379.943 1421.45 L375.058 1421.45 L375.058 1415.57 Z" fill="#000000" fill-rule="nonzero" fill-opacity="1" /><path clip-path="url(#clip800)" d="M390.174 1386.89 L408.53 1386.89 L408.53 1390.83 L394.456 1390.83 L394.456 1399.3 Q395.475 1398.95 396.494 1398.79 Q397.512 1398.6 398.531 1398.6 Q404.318 1398.6 407.697 1401.78 Q411.077 1404.95 411.077 1410.36 Q411.077 1415.94 407.605 1419.04 Q404.132 1422.12 397.813 1422.12 Q395.637 1422.12 393.369 1421.75 Q391.123 1421.38 388.716 1420.64 L388.716 1415.94 Q390.799 1417.08 393.021 1417.63 Q395.244 1418.19 397.72 1418.19 Q401.725 1418.19 404.063 1416.08 Q406.401 1413.98 406.401 1410.36 Q406.401 1406.75 404.063 1404.65 Q401.725 1402.54 397.72 1402.54 Q395.845 1402.54 393.97 1402.96 Q392.119 1403.37 390.174 1404.25 L390.174 1386.89 Z" fill="#000000" fill-rule="nonzero" fill-opacity="1" /><path clip-path="url(#clip800)" d="M591.664 1404.62 L621.339 1404.62 L621.339 1408.56 L591.664 1408.56 L591.664 1404.62 Z" fill="#000000" fill-rule="nonzero" fill-opacity="1" /><path clip-path="url(#clip800)" d="M632.242 1417.52 L639.881 1417.52 L639.881 1391.15 L631.571 1392.82 L631.571 1388.56 L639.835 1386.89 L644.511 1386.89 L644.511 1417.52 L652.149 1417.52 L652.149 1421.45 L632.242 1421.45 L632.242 1417.52 Z" fill="#000000" fill-rule="nonzero" fill-opacity="1" /><path clip-path="url(#clip800)" d="M661.594 1415.57 L666.478 1415.57 L666.478 1421.45 L661.594 1421.45 L661.594 1415.57 Z" fill="#000000" fill-rule="nonzero" fill-opacity="1" /><path clip-path="url(#clip800)" d="M686.663 1389.97 Q683.052 1389.97 681.223 1393.54 Q679.418 1397.08 679.418 1404.21 Q679.418 1411.31 681.223 1414.88 Q683.052 1418.42 686.663 1418.42 Q690.297 1418.42 692.103 1414.88 Q693.932 1411.31 693.932 1404.21 Q693.932 1397.08 692.103 1393.54 Q690.297 1389.97 686.663 1389.97 M686.663 1386.27 Q692.473 1386.27 695.529 1390.87 Q698.607 1395.46 698.607 1404.21 Q698.607 1412.93 695.529 1417.54 Q692.473 1422.12 686.663 1422.12 Q680.853 1422.12 677.774 1417.54 Q674.719 1412.93 674.719 1404.21 Q674.719 1395.46 677.774 1390.87 Q680.853 1386.27 686.663 1386.27 Z" fill="#000000" fill-rule="nonzero" fill-opacity="1" /><path clip-path="url(#clip800)" d="M879.194 1404.62 L908.87 1404.62 L908.87 1408.56 L879.194 1408.56 L879.194 1404.62 Z" fill="#000000" fill-rule="nonzero" fill-opacity="1" /><path clip-path="url(#clip800)" d="M928.963 1389.97 Q925.351 1389.97 923.523 1393.54 Q921.717 1397.08 921.717 1404.21 Q921.717 1411.31 923.523 1414.88 Q925.351 1418.42 928.963 1418.42 Q932.597 1418.42 934.402 1414.88 Q936.231 1411.31 936.231 1404.21 Q936.231 1397.08 934.402 1393.54 Q932.597 1389.97 928.963 1389.97 M928.963 1386.27 Q934.773 1386.27 937.828 1390.87 Q940.907 1395.46 940.907 1404.21 Q940.907 1412.93 937.828 1417.54 Q934.773 1422.12 928.963 1422.12 Q923.152 1422.12 920.074 1417.54 Q917.018 1412.93 917.018 1404.21 Q917.018 1395.46 920.074 1390.87 Q923.152 1386.27 928.963 1386.27 Z" fill="#000000" fill-rule="nonzero" fill-opacity="1" /><path clip-path="url(#clip800)" d="M949.125 1415.57 L954.009 1415.57 L954.009 1421.45 L949.125 1421.45 L949.125 1415.57 Z" fill="#000000" fill-rule="nonzero" fill-opacity="1" /><path clip-path="url(#clip800)" d="M964.24 1386.89 L982.597 1386.89 L982.597 1390.83 L968.523 1390.83 L968.523 1399.3 Q969.541 1398.95 970.56 1398.79 Q971.578 1398.6 972.597 1398.6 Q978.384 1398.6 981.763 1401.78 Q985.143 1404.95 985.143 1410.36 Q985.143 1415.94 981.671 1419.04 Q978.198 1422.12 971.879 1422.12 Q969.703 1422.12 967.435 1421.75 Q965.189 1421.38 962.782 1420.64 L962.782 1415.94 Q964.865 1417.08 967.087 1417.63 Q969.31 1418.19 971.786 1418.19 Q975.791 1418.19 978.129 1416.08 Q980.467 1413.98 980.467 1410.36 Q980.467 1406.75 978.129 1404.65 Q975.791 1402.54 971.786 1402.54 Q969.911 1402.54 968.036 1402.96 Q966.185 1403.37 964.24 1404.25 L964.24 1386.89 Z" fill="#000000" fill-rule="nonzero" fill-opacity="1" /><path clip-path="url(#clip800)" d="M1196.59 1389.97 Q1192.97 1389.97 1191.15 1393.54 Q1189.34 1397.08 1189.34 1404.21 Q1189.34 1411.31 1191.15 1414.88 Q1192.97 1418.42 1196.59 1418.42 Q1200.22 1418.42 1202.03 1414.88 Q1203.85 1411.31 1203.85 1404.21 Q1203.85 1397.08 1202.03 1393.54 Q1200.22 1389.97 1196.59 1389.97 M1196.59 1386.27 Q1202.4 1386.27 1205.45 1390.87 Q1208.53 1395.46 1208.53 1404.21 Q1208.53 1412.93 1205.45 1417.54 Q1202.4 1422.12 1196.59 1422.12 Q1190.78 1422.12 1187.7 1417.54 Q1184.64 1412.93 1184.64 1404.21 Q1184.64 1395.46 1187.7 1390.87 Q1190.78 1386.27 1196.59 1386.27 Z" fill="#000000" fill-rule="nonzero" fill-opacity="1" /><path clip-path="url(#clip800)" d="M1216.75 1415.57 L1221.63 1415.57 L1221.63 1421.45 L1216.75 1421.45 L1216.75 1415.57 Z" fill="#000000" fill-rule="nonzero" fill-opacity="1" /><path clip-path="url(#clip800)" d="M1241.82 1389.97 Q1238.21 1389.97 1236.38 1393.54 Q1234.57 1397.08 1234.57 1404.21 Q1234.57 1411.31 1236.38 1414.88 Q1238.21 1418.42 1241.82 1418.42 Q1245.45 1418.42 1247.26 1414.88 Q1249.09 1411.31 1249.09 1404.21 Q1249.09 1397.08 1247.26 1393.54 Q1245.45 1389.97 1241.82 1389.97 M1241.82 1386.27 Q1247.63 1386.27 1250.68 1390.87 Q1253.76 1395.46 1253.76 1404.21 Q1253.76 1412.93 1250.68 1417.54 Q1247.63 1422.12 1241.82 1422.12 Q1236.01 1422.12 1232.93 1417.54 Q1229.87 1412.93 1229.87 1404.21 Q1229.87 1395.46 1232.93 1390.87 Q1236.01 1386.27 1241.82 1386.27 Z" fill="#000000" fill-rule="nonzero" fill-opacity="1" /><path clip-path="url(#clip800)" d="M1484.12 1389.97 Q1480.51 1389.97 1478.68 1393.54 Q1476.87 1397.08 1476.87 1404.21 Q1476.87 1411.31 1478.68 1414.88 Q1480.51 1418.42 1484.12 1418.42 Q1487.75 1418.42 1489.56 1414.88 Q1491.39 1411.31 1491.39 1404.21 Q1491.39 1397.08 1489.56 1393.54 Q1487.75 1389.97 1484.12 1389.97 M1484.12 1386.27 Q1489.93 1386.27 1492.98 1390.87 Q1496.06 1395.46 1496.06 1404.21 Q1496.06 1412.93 1492.98 1417.54 Q1489.93 1422.12 1484.12 1422.12 Q1478.31 1422.12 1475.23 1417.54 Q1472.17 1412.93 1472.17 1404.21 Q1472.17 1395.46 1475.23 1390.87 Q1478.31 1386.27 1484.12 1386.27 Z" fill="#000000" fill-rule="nonzero" fill-opacity="1" /><path clip-path="url(#clip800)" d="M1504.28 1415.57 L1509.16 1415.57 L1509.16 1421.45 L1504.28 1421.45 L1504.28 1415.57 Z" fill="#000000" fill-rule="nonzero" fill-opacity="1" /><path clip-path="url(#clip800)" d="M1519.39 1386.89 L1537.75 1386.89 L1537.75 1390.83 L1523.68 1390.83 L1523.68 1399.3 Q1524.7 1398.95 1525.71 1398.79 Q1526.73 1398.6 1527.75 1398.6 Q1533.54 1398.6 1536.92 1401.78 Q1540.3 1404.95 1540.3 1410.36 Q1540.3 1415.94 1536.82 1419.04 Q1533.35 1422.12 1527.03 1422.12 Q1524.86 1422.12 1522.59 1421.75 Q1520.34 1421.38 1517.94 1420.64 L1517.94 1415.94 Q1520.02 1417.08 1522.24 1417.63 Q1524.46 1418.19 1526.94 1418.19 Q1530.95 1418.19 1533.28 1416.08 Q1535.62 1413.98 1535.62 1410.36 Q1535.62 1406.75 1533.28 1404.65 Q1530.95 1402.54 1526.94 1402.54 Q1525.07 1402.54 1523.19 1402.96 Q1521.34 1403.37 1519.39 1404.25 L1519.39 1386.89 Z" fill="#000000" fill-rule="nonzero" fill-opacity="1" /><path clip-path="url(#clip800)" d="M1760.42 1417.52 L1768.06 1417.52 L1768.06 1391.15 L1759.75 1392.82 L1759.75 1388.56 L1768.01 1386.89 L1772.69 1386.89 L1772.69 1417.52 L1780.33 1417.52 L1780.33 1421.45 L1760.42 1421.45 L1760.42 1417.52 Z" fill="#000000" fill-rule="nonzero" fill-opacity="1" /><path clip-path="url(#clip800)" d="M1789.77 1415.57 L1794.66 1415.57 L1794.66 1421.45 L1789.77 1421.45 L1789.77 1415.57 Z" fill="#000000" fill-rule="nonzero" fill-opacity="1" /><path clip-path="url(#clip800)" d="M1814.84 1389.97 Q1811.23 1389.97 1809.4 1393.54 Q1807.6 1397.08 1807.6 1404.21 Q1807.6 1411.31 1809.4 1414.88 Q1811.23 1418.42 1814.84 1418.42 Q1818.48 1418.42 1820.28 1414.88 Q1822.11 1411.31 1822.11 1404.21 Q1822.11 1397.08 1820.28 1393.54 Q1818.48 1389.97 1814.84 1389.97 M1814.84 1386.27 Q1820.65 1386.27 1823.71 1390.87 Q1826.79 1395.46 1826.79 1404.21 Q1826.79 1412.93 1823.71 1417.54 Q1820.65 1422.12 1814.84 1422.12 Q1809.03 1422.12 1805.95 1417.54 Q1802.9 1412.93 1802.9 1404.21 Q1802.9 1395.46 1805.95 1390.87 Q1809.03 1386.27 1814.84 1386.27 Z" fill="#000000" fill-rule="nonzero" fill-opacity="1" /><path clip-path="url(#clip800)" d="M2047.95 1417.52 L2055.59 1417.52 L2055.59 1391.15 L2047.28 1392.82 L2047.28 1388.56 L2055.54 1386.89 L2060.22 1386.89 L2060.22 1417.52 L2067.86 1417.52 L2067.86 1421.45 L2047.95 1421.45 L2047.95 1417.52 Z" fill="#000000" fill-rule="nonzero" fill-opacity="1" /><path clip-path="url(#clip800)" d="M2077.3 1415.57 L2082.19 1415.57 L2082.19 1421.45 L2077.3 1421.45 L2077.3 1415.57 Z" fill="#000000" fill-rule="nonzero" fill-opacity="1" /><path clip-path="url(#clip800)" d="M2092.42 1386.89 L2110.78 1386.89 L2110.78 1390.83 L2096.7 1390.83 L2096.7 1399.3 Q2097.72 1398.95 2098.74 1398.79 Q2099.76 1398.6 2100.78 1398.6 Q2106.56 1398.6 2109.94 1401.78 Q2113.32 1404.95 2113.32 1410.36 Q2113.32 1415.94 2109.85 1419.04 Q2106.38 1422.12 2100.06 1422.12 Q2097.88 1422.12 2095.61 1421.75 Q2093.37 1421.38 2090.96 1420.64 L2090.96 1415.94 Q2093.04 1417.08 2095.27 1417.63 Q2097.49 1418.19 2099.96 1418.19 Q2103.97 1418.19 2106.31 1416.08 Q2108.65 1413.98 2108.65 1410.36 Q2108.65 1406.75 2106.31 1404.65 Q2103.97 1402.54 2099.96 1402.54 Q2098.09 1402.54 2096.21 1402.96 Q2094.36 1403.37 2092.42 1404.25 L2092.42 1386.89 Z" fill="#000000" fill-rule="nonzero" fill-opacity="1" /><path clip-path="url(#clip800)" d="M1215.1 1455.72 L1222 1455.72 L1233.81 1473.39 L1245.68 1455.72 L1252.59 1455.72 L1237.31 1478.54 L1253.61 1503.24 L1246.7 1503.24 L1233.33 1483.03 L1219.87 1503.24 L1212.93 1503.24 L1229.9 1477.88 L1215.1 1455.72 Z" fill="#000000" fill-rule="nonzero" fill-opacity="1" /><polyline clip-path="url(#clip802)" style="stroke:#000000; stroke-linecap:round; stroke-linejoin:round; stroke-width:2; stroke-opacity:0.1; fill:none" points="209.786,1282.54 2256.76,1282.54 "/>
<polyline clip-path="url(#clip802)" style="stroke:#000000; stroke-linecap:round; stroke-linejoin:round; stroke-width:2; stroke-opacity:0.1; fill:none" points="209.786,937.664 2256.76,937.664 "/>
<polyline clip-path="url(#clip802)" style="stroke:#000000; stroke-linecap:round; stroke-linejoin:round; stroke-width:2; stroke-opacity:0.1; fill:none" points="209.786,592.79 2256.76,592.79 "/>
<polyline clip-path="url(#clip802)" style="stroke:#000000; stroke-linecap:round; stroke-linejoin:round; stroke-width:2; stroke-opacity:0.1; fill:none" points="209.786,247.916 2256.76,247.916 "/>
<polyline clip-path="url(#clip800)" style="stroke:#000000; stroke-linecap:round; stroke-linejoin:round; stroke-width:4; stroke-opacity:1; fill:none" points="209.786,1359.82 209.786,123.472 "/>
<polyline clip-path="url(#clip800)" style="stroke:#000000; stroke-linecap:round; stroke-linejoin:round; stroke-width:4; stroke-opacity:1; fill:none" points="209.786,1282.54 228.684,1282.54 "/>
<polyline clip-path="url(#clip800)" style="stroke:#000000; stroke-linecap:round; stroke-linejoin:round; stroke-width:4; stroke-opacity:1; fill:none" points="209.786,937.664 228.684,937.664 "/>
<polyline clip-path="url(#clip800)" style="stroke:#000000; stroke-linecap:round; stroke-linejoin:round; stroke-width:4; stroke-opacity:1; fill:none" points="209.786,592.79 228.684,592.79 "/>
<polyline clip-path="url(#clip800)" style="stroke:#000000; stroke-linecap:round; stroke-linejoin:round; stroke-width:4; stroke-opacity:1; fill:none" points="209.786,247.916 228.684,247.916 "/>
<path clip-path="url(#clip800)" d="M114.74 1282.99 L144.416 1282.99 L144.416 1286.92 L114.74 1286.92 L114.74 1282.99 Z" fill="#000000" fill-rule="nonzero" fill-opacity="1" /><path clip-path="url(#clip800)" d="M155.319 1295.88 L162.957 1295.88 L162.957 1269.52 L154.647 1271.18 L154.647 1266.92 L162.911 1265.26 L167.587 1265.26 L167.587 1295.88 L175.226 1295.88 L175.226 1299.82 L155.319 1299.82 L155.319 1295.88 Z" fill="#000000" fill-rule="nonzero" fill-opacity="1" /><path clip-path="url(#clip800)" d="M163.282 923.463 Q159.67 923.463 157.842 927.027 Q156.036 930.569 156.036 937.699 Q156.036 944.805 157.842 948.37 Q159.67 951.912 163.282 951.912 Q166.916 951.912 168.721 948.37 Q170.55 944.805 170.55 937.699 Q170.55 930.569 168.721 927.027 Q166.916 923.463 163.282 923.463 M163.282 919.759 Q169.092 919.759 172.147 924.365 Q175.226 928.949 175.226 937.699 Q175.226 946.425 172.147 951.032 Q169.092 955.615 163.282 955.615 Q157.471 955.615 154.393 951.032 Q151.337 946.425 151.337 937.699 Q151.337 928.949 154.393 924.365 Q157.471 919.759 163.282 919.759 Z" fill="#000000" fill-rule="nonzero" fill-opacity="1" /><path clip-path="url(#clip800)" d="M155.319 606.135 L162.957 606.135 L162.957 579.769 L154.647 581.436 L154.647 577.177 L162.911 575.51 L167.587 575.51 L167.587 606.135 L175.226 606.135 L175.226 610.07 L155.319 610.07 L155.319 606.135 Z" fill="#000000" fill-rule="nonzero" fill-opacity="1" /><path clip-path="url(#clip800)" d="M158.907 261.261 L175.226 261.261 L175.226 265.196 L153.282 265.196 L153.282 261.261 Q155.944 258.506 160.527 253.877 Q165.133 249.224 166.314 247.881 Q168.559 245.358 169.439 243.622 Q170.342 241.863 170.342 240.173 Q170.342 237.419 168.397 235.682 Q166.476 233.946 163.374 233.946 Q161.175 233.946 158.721 234.71 Q156.291 235.474 153.513 237.025 L153.513 232.303 Q156.337 231.169 158.791 230.59 Q161.245 230.011 163.282 230.011 Q168.652 230.011 171.846 232.696 Q175.041 235.382 175.041 239.872 Q175.041 242.002 174.231 243.923 Q173.444 245.821 171.337 248.414 Q170.758 249.085 167.657 252.303 Q164.555 255.497 158.907 261.261 Z" fill="#000000" fill-rule="nonzero" fill-opacity="1" /><path clip-path="url(#clip800)" d="M18.4042 761.682 L18.4042 754.775 L37.9469 741.598 L18.4042 728.517 L18.4042 721.61 L43.2941 738.415 L65.9242 738.415 L65.9242 744.877 L43.2941 744.877 L18.4042 761.682 Z" fill="#000000" fill-rule="nonzero" fill-opacity="1" /><path clip-path="url(#clip800)" d="M354.934 65.6895 L383.492 65.6895 L383.492 72.576 L345.09 72.576 L345.09 65.6895 Q349.748 60.8689 357.769 52.7671 Q365.831 44.6248 367.897 42.2752 Q371.826 37.8598 373.365 34.8216 Q374.945 31.7429 374.945 28.7857 Q374.945 23.9651 371.542 20.927 Q368.18 17.8888 362.752 17.8888 Q358.904 17.8888 354.61 19.2256 Q350.356 20.5624 345.495 23.2765 L345.495 15.0127 Q350.437 13.0277 354.731 12.015 Q359.025 11.0023 362.59 11.0023 Q371.988 11.0023 377.578 15.7013 Q383.168 20.4004 383.168 28.2591 Q383.168 31.9859 381.751 35.3482 Q380.373 38.6699 376.687 43.2069 Q375.674 44.3817 370.246 50.0125 Q364.818 55.6027 354.934 65.6895 Z" fill="#000000" fill-rule="nonzero" fill-opacity="1" /><path clip-path="url(#clip800)" d="M408.122 18.8205 L408.122 65.8515 L418.006 65.8515 Q430.523 65.8515 436.316 60.1802 Q442.15 54.509 442.15 42.2752 Q442.15 30.1225 436.316 24.4918 Q430.523 18.8205 418.006 18.8205 L408.122 18.8205 M399.939 12.096 L416.75 12.096 Q434.331 12.096 442.555 19.4281 Q450.778 26.7198 450.778 42.2752 Q450.778 57.9117 442.514 65.2439 Q434.25 72.576 416.75 72.576 L399.939 72.576 L399.939 12.096 Z" fill="#000000" fill-rule="nonzero" fill-opacity="1" /><path clip-path="url(#clip800)" d="M486.71 12.096 L534.227 12.096 L534.227 18.3344 L495.986 65.6895 L535.158 65.6895 L535.158 72.576 L485.778 72.576 L485.778 66.3376 L524.018 18.9825 L486.71 18.9825 L486.71 12.096 Z" fill="#000000" fill-rule="nonzero" fill-opacity="1" /><path clip-path="url(#clip800)" d="M546.703 27.2059 L554.157 27.2059 L554.157 72.576 L546.703 72.576 L546.703 27.2059 M546.703 9.54393 L554.157 9.54393 L554.157 18.9825 L546.703 18.9825 L546.703 9.54393 Z" fill="#000000" fill-rule="nonzero" fill-opacity="1" /><path clip-path="url(#clip800)" d="M599.608 49.3643 Q599.608 41.2625 596.246 36.8065 Q592.924 32.3505 586.888 32.3505 Q580.893 32.3505 577.531 36.8065 Q574.209 41.2625 574.209 49.3643 Q574.209 57.4256 577.531 61.8816 Q580.893 66.3376 586.888 66.3376 Q592.924 66.3376 596.246 61.8816 Q599.608 57.4256 599.608 49.3643 M607.062 66.9452 Q607.062 78.5308 601.917 84.1616 Q596.773 89.8329 586.159 89.8329 Q582.23 89.8329 578.746 89.2252 Q575.262 88.6581 571.981 87.4428 L571.981 80.1917 Q575.262 81.9741 578.463 82.8248 Q581.663 83.6755 584.984 83.6755 Q592.317 83.6755 595.962 79.8271 Q599.608 76.0193 599.608 68.282 L599.608 64.5957 Q597.299 68.6061 593.694 70.5911 Q590.089 72.576 585.065 72.576 Q576.721 72.576 571.616 66.2161 Q566.512 59.8562 566.512 49.3643 Q566.512 38.832 571.616 32.472 Q576.721 26.1121 585.065 26.1121 Q590.089 26.1121 593.694 28.0971 Q597.299 30.082 599.608 34.0924 L599.608 27.2059 L607.062 27.2059 L607.062 66.9452 Z" fill="#000000" fill-rule="nonzero" fill-opacity="1" /><path clip-path="url(#clip800)" d="M619.255 12.096 L666.772 12.096 L666.772 18.3344 L628.532 65.6895 L667.704 65.6895 L667.704 72.576 L618.323 72.576 L618.323 66.3376 L656.564 18.9825 L619.255 18.9825 L619.255 12.096 Z" fill="#000000" fill-rule="nonzero" fill-opacity="1" /><path clip-path="url(#clip800)" d="M699.868 49.7694 Q690.835 49.7694 687.351 51.8354 Q683.867 53.9013 683.867 58.8839 Q683.867 62.8538 686.46 65.2034 Q689.093 67.5124 693.589 67.5124 Q699.787 67.5124 703.514 63.1374 Q707.281 58.7219 707.281 51.4303 L707.281 49.7694 L699.868 49.7694 M714.735 46.6907 L714.735 72.576 L707.281 72.576 L707.281 65.6895 Q704.729 69.8214 700.921 71.8063 Q697.113 73.7508 691.604 73.7508 Q684.637 73.7508 680.505 69.8619 Q676.413 65.9325 676.413 59.3701 Q676.413 51.7138 681.518 47.825 Q686.662 43.9361 696.83 43.9361 L707.281 43.9361 L707.281 43.2069 Q707.281 38.0623 703.879 35.2672 Q700.516 32.4315 694.399 32.4315 Q690.511 32.4315 686.824 33.3632 Q683.138 34.295 679.735 36.1584 L679.735 29.2718 Q683.827 27.692 687.675 26.9223 Q691.523 26.1121 695.169 26.1121 Q705.013 26.1121 709.874 31.2163 Q714.735 36.3204 714.735 46.6907 Z" fill="#000000" fill-rule="nonzero" fill-opacity="1" /><path clip-path="url(#clip800)" d="M759.943 49.3643 Q759.943 41.2625 756.581 36.8065 Q753.259 32.3505 747.223 32.3505 Q741.228 32.3505 737.866 36.8065 Q734.544 41.2625 734.544 49.3643 Q734.544 57.4256 737.866 61.8816 Q741.228 66.3376 747.223 66.3376 Q753.259 66.3376 756.581 61.8816 Q759.943 57.4256 759.943 49.3643 M767.397 66.9452 Q767.397 78.5308 762.252 84.1616 Q757.107 89.8329 746.494 89.8329 Q742.565 89.8329 739.081 89.2252 Q735.597 88.6581 732.316 87.4428 L732.316 80.1917 Q735.597 81.9741 738.797 82.8248 Q741.998 83.6755 745.319 83.6755 Q752.651 83.6755 756.297 79.8271 Q759.943 76.0193 759.943 68.282 L759.943 64.5957 Q757.634 68.6061 754.029 70.5911 Q750.423 72.576 745.4 72.576 Q737.055 72.576 731.951 66.2161 Q726.847 59.8562 726.847 49.3643 Q726.847 38.832 731.951 32.472 Q737.055 26.1121 745.4 26.1121 Q750.423 26.1121 754.029 28.0971 Q757.634 30.082 759.943 34.0924 L759.943 27.2059 L767.397 27.2059 L767.397 66.9452 Z" fill="#000000" fill-rule="nonzero" fill-opacity="1" /><path clip-path="url(#clip800)" d="M845.701 14.0809 L845.701 22.0612 Q841.042 19.8332 836.91 18.7395 Q832.778 17.6457 828.93 17.6457 Q822.246 17.6457 818.6 20.2383 Q814.995 22.8309 814.995 27.611 Q814.995 31.6214 817.385 33.6873 Q819.815 35.7128 826.54 36.9686 L831.482 37.9813 Q840.637 39.7232 844.972 44.1387 Q849.346 48.5136 849.346 55.8863 Q849.346 64.6767 843.432 69.2137 Q837.558 73.7508 826.175 73.7508 Q821.881 73.7508 817.02 72.7785 Q812.2 71.8063 807.015 69.9024 L807.015 61.4765 Q811.997 64.2716 816.777 65.6895 Q821.557 67.1073 826.175 67.1073 Q833.183 67.1073 836.991 64.3527 Q840.799 61.598 840.799 56.4939 Q840.799 52.0379 838.044 49.5264 Q835.33 47.0148 829.092 45.759 L824.109 44.7868 Q814.954 42.9639 810.863 39.075 Q806.771 35.1862 806.771 28.2591 Q806.771 20.2383 812.402 15.6203 Q818.073 11.0023 827.998 11.0023 Q832.252 11.0023 836.667 11.7719 Q841.083 12.5416 845.701 14.0809 Z" fill="#000000" fill-rule="nonzero" fill-opacity="1" /><path clip-path="url(#clip800)" d="M882.402 49.7694 Q873.368 49.7694 869.885 51.8354 Q866.401 53.9013 866.401 58.8839 Q866.401 62.8538 868.993 65.2034 Q871.626 67.5124 876.123 67.5124 Q882.321 67.5124 886.048 63.1374 Q889.815 58.7219 889.815 51.4303 L889.815 49.7694 L882.402 49.7694 M897.269 46.6907 L897.269 72.576 L889.815 72.576 L889.815 65.6895 Q887.263 69.8214 883.455 71.8063 Q879.647 73.7508 874.138 73.7508 Q867.17 73.7508 863.039 69.8619 Q858.947 65.9325 858.947 59.3701 Q858.947 51.7138 864.051 47.825 Q869.196 43.9361 879.364 43.9361 L889.815 43.9361 L889.815 43.2069 Q889.815 38.0623 886.412 35.2672 Q883.05 32.4315 876.933 32.4315 Q873.044 32.4315 869.358 33.3632 Q865.672 34.295 862.269 36.1584 L862.269 29.2718 Q866.36 27.692 870.209 26.9223 Q874.057 26.1121 877.703 26.1121 Q887.547 26.1121 892.408 31.2163 Q897.269 36.3204 897.269 46.6907 Z" fill="#000000" fill-rule="nonzero" fill-opacity="1" /><path clip-path="url(#clip800)" d="M947.945 35.9153 Q950.741 30.8922 954.629 28.5022 Q958.518 26.1121 963.785 26.1121 Q970.874 26.1121 974.722 31.0947 Q978.57 36.0368 978.57 45.1919 L978.57 72.576 L971.076 72.576 L971.076 45.4349 Q971.076 38.913 968.767 35.7533 Q966.458 32.5936 961.719 32.5936 Q955.926 32.5936 952.564 36.4419 Q949.201 40.2903 949.201 46.9338 L949.201 72.576 L941.707 72.576 L941.707 45.4349 Q941.707 38.8725 939.398 35.7533 Q937.089 32.5936 932.268 32.5936 Q926.557 32.5936 923.194 36.4824 Q919.832 40.3308 919.832 46.9338 L919.832 72.576 L912.338 72.576 L912.338 27.2059 L919.832 27.2059 L919.832 34.2544 Q922.384 30.082 925.949 28.0971 Q929.514 26.1121 934.415 26.1121 Q939.358 26.1121 942.801 28.6237 Q946.285 31.1352 947.945 35.9153 Z" fill="#000000" fill-rule="nonzero" fill-opacity="1" /><path clip-path="url(#clip800)" d="M1000.65 65.7705 L1000.65 89.8329 L993.154 89.8329 L993.154 27.2059 L1000.65 27.2059 L1000.65 34.0924 Q1003 30.0415 1006.56 28.0971 Q1010.17 26.1121 1015.15 26.1121 Q1023.41 26.1121 1028.56 32.6746 Q1033.74 39.2371 1033.74 49.9314 Q1033.74 60.6258 1028.56 67.1883 Q1023.41 73.7508 1015.15 73.7508 Q1010.17 73.7508 1006.56 71.8063 Q1003 69.8214 1000.65 65.7705 M1026.01 49.9314 Q1026.01 41.7081 1022.6 37.0496 Q1019.24 32.3505 1013.33 32.3505 Q1007.41 32.3505 1004.01 37.0496 Q1000.65 41.7081 1000.65 49.9314 Q1000.65 58.1548 1004.01 62.8538 Q1007.41 67.5124 1013.33 67.5124 Q1019.24 67.5124 1022.6 62.8538 Q1026.01 58.1548 1026.01 49.9314 Z" fill="#000000" fill-rule="nonzero" fill-opacity="1" /><path clip-path="url(#clip800)" d="M1046.1 9.54393 L1053.55 9.54393 L1053.55 72.576 L1046.1 72.576 L1046.1 9.54393 Z" fill="#000000" fill-rule="nonzero" fill-opacity="1" /><path clip-path="url(#clip800)" d="M1107.96 48.0275 L1107.96 51.6733 L1073.69 51.6733 Q1074.17 59.3701 1078.3 63.421 Q1082.48 67.4314 1089.89 67.4314 Q1094.18 67.4314 1098.19 66.3781 Q1102.24 65.3249 1106.21 63.2184 L1106.21 70.267 Q1102.2 71.9684 1097.99 72.8596 Q1093.78 73.7508 1089.44 73.7508 Q1078.59 73.7508 1072.23 67.4314 Q1065.91 61.1119 1065.91 50.3365 Q1065.91 39.1965 1071.9 32.6746 Q1077.94 26.1121 1088.15 26.1121 Q1097.3 26.1121 1102.61 32.0264 Q1107.96 37.9003 1107.96 48.0275 M1100.5 45.84 Q1100.42 39.7232 1097.06 36.0774 Q1093.74 32.4315 1088.23 32.4315 Q1081.99 32.4315 1078.22 35.9558 Q1074.5 39.4801 1073.93 45.8805 L1100.5 45.84 Z" fill="#000000" fill-rule="nonzero" fill-opacity="1" /><path clip-path="url(#clip800)" d="M1146.48 34.1734 Q1145.22 33.4443 1143.73 33.1202 Q1142.27 32.7556 1140.48 32.7556 Q1134.17 32.7556 1130.76 36.8875 Q1127.4 40.9789 1127.4 48.6757 L1127.4 72.576 L1119.91 72.576 L1119.91 27.2059 L1127.4 27.2059 L1127.4 34.2544 Q1129.75 30.1225 1133.52 28.1376 Q1137.28 26.1121 1142.67 26.1121 Q1143.44 26.1121 1144.37 26.2337 Q1145.31 26.3147 1146.44 26.5172 L1146.48 34.1734 Z" fill="#000000" fill-rule="nonzero" fill-opacity="1" /><path clip-path="url(#clip800)" d="M1198.57 9.62495 Q1193.15 18.942 1190.51 28.0566 Q1187.88 37.1711 1187.88 46.5287 Q1187.88 55.8863 1190.51 65.0818 Q1193.19 74.2369 1198.57 83.5134 L1192.09 83.5134 Q1186.02 73.9938 1182.98 64.7983 Q1179.98 55.6027 1179.98 46.5287 Q1179.98 37.4952 1182.98 28.3401 Q1185.98 19.1851 1192.09 9.62495 L1198.57 9.62495 Z" fill="#000000" fill-rule="nonzero" fill-opacity="1" /><path clip-path="url(#clip800)" d="M1254.6 63.9476 L1254.6 47.7034 L1241.23 47.7034 L1241.23 40.9789 L1262.7 40.9789 L1262.7 66.9452 Q1257.96 70.3075 1252.25 72.0494 Q1246.54 73.7508 1240.06 73.7508 Q1225.88 73.7508 1217.86 65.4869 Q1209.88 57.1826 1209.88 42.3968 Q1209.88 27.5705 1217.86 19.3066 Q1225.88 11.0023 1240.06 11.0023 Q1245.97 11.0023 1251.28 12.4606 Q1256.62 13.9189 1261.12 16.7545 L1261.12 25.464 Q1256.58 21.6156 1251.48 19.6712 Q1246.38 17.7268 1240.74 17.7268 Q1229.65 17.7268 1224.06 23.9246 Q1218.51 30.1225 1218.51 42.3968 Q1218.51 54.6305 1224.06 60.8284 Q1229.65 67.0263 1240.74 67.0263 Q1245.08 67.0263 1248.48 66.2971 Q1251.88 65.5274 1254.6 63.9476 Z" fill="#000000" fill-rule="nonzero" fill-opacity="1" /><path clip-path="url(#clip800)" d="M1297.94 49.7694 Q1288.91 49.7694 1285.43 51.8354 Q1281.94 53.9013 1281.94 58.8839 Q1281.94 62.8538 1284.54 65.2034 Q1287.17 67.5124 1291.66 67.5124 Q1297.86 67.5124 1301.59 63.1374 Q1305.36 58.7219 1305.36 51.4303 L1305.36 49.7694 L1297.94 49.7694 M1312.81 46.6907 L1312.81 72.576 L1305.36 72.576 L1305.36 65.6895 Q1302.8 69.8214 1299 71.8063 Q1295.19 73.7508 1289.68 73.7508 Q1282.71 73.7508 1278.58 69.8619 Q1274.49 65.9325 1274.49 59.3701 Q1274.49 51.7138 1279.59 47.825 Q1284.74 43.9361 1294.91 43.9361 L1305.36 43.9361 L1305.36 43.2069 Q1305.36 38.0623 1301.95 35.2672 Q1298.59 32.4315 1292.47 32.4315 Q1288.59 32.4315 1284.9 33.3632 Q1281.21 34.295 1277.81 36.1584 L1277.81 29.2718 Q1281.9 27.692 1285.75 26.9223 Q1289.6 26.1121 1293.24 26.1121 Q1303.09 26.1121 1307.95 31.2163 Q1312.81 36.3204 1312.81 46.6907 Z" fill="#000000" fill-rule="nonzero" fill-opacity="1" /><path clip-path="url(#clip800)" d="M1327.39 54.671 L1327.39 27.2059 L1334.85 27.2059 L1334.85 54.3874 Q1334.85 60.8284 1337.36 64.0691 Q1339.87 67.2693 1344.89 67.2693 Q1350.93 67.2693 1354.41 63.421 Q1357.94 59.5726 1357.94 52.9291 L1357.94 27.2059 L1365.39 27.2059 L1365.39 72.576 L1357.94 72.576 L1357.94 65.6084 Q1355.22 69.7404 1351.62 71.7658 Q1348.05 73.7508 1343.31 73.7508 Q1335.5 73.7508 1331.44 68.8897 Q1327.39 64.0286 1327.39 54.671 M1346.15 26.1121 L1346.15 26.1121 Z" fill="#000000" fill-rule="nonzero" fill-opacity="1" /><path clip-path="url(#clip800)" d="M1409.67 28.5427 L1409.67 35.5912 Q1406.51 33.9709 1403.11 33.1607 Q1399.7 32.3505 1396.06 32.3505 Q1390.51 32.3505 1387.71 34.0519 Q1384.96 35.7533 1384.96 39.156 Q1384.96 41.7486 1386.94 43.2475 Q1388.93 44.7058 1394.92 46.0426 L1397.47 46.6097 Q1405.41 48.3111 1408.74 51.4303 Q1412.1 54.509 1412.1 60.0587 Q1412.1 66.3781 1407.07 70.0644 Q1402.09 73.7508 1393.34 73.7508 Q1389.7 73.7508 1385.73 73.0216 Q1381.8 72.3329 1377.42 70.9151 L1377.42 63.2184 Q1381.55 65.3654 1385.56 66.4591 Q1389.58 67.5124 1393.5 67.5124 Q1398.77 67.5124 1401.61 65.73 Q1404.44 63.9071 1404.44 60.6258 Q1404.44 57.5877 1402.38 55.9673 Q1400.35 54.3469 1393.42 52.8481 L1390.83 52.2405 Q1383.9 50.7821 1380.83 47.7845 Q1377.75 44.7463 1377.75 39.4801 Q1377.75 33.0797 1382.28 29.5959 Q1386.82 26.1121 1395.17 26.1121 Q1399.3 26.1121 1402.94 26.7198 Q1406.59 27.3274 1409.67 28.5427 Z" fill="#000000" fill-rule="nonzero" fill-opacity="1" /><path clip-path="url(#clip800)" d="M1452.89 28.5427 L1452.89 35.5912 Q1449.73 33.9709 1446.33 33.1607 Q1442.93 32.3505 1439.28 32.3505 Q1433.73 32.3505 1430.93 34.0519 Q1428.18 35.7533 1428.18 39.156 Q1428.18 41.7486 1430.17 43.2475 Q1432.15 44.7058 1438.15 46.0426 L1440.7 46.6097 Q1448.64 48.3111 1451.96 51.4303 Q1455.32 54.509 1455.32 60.0587 Q1455.32 66.3781 1450.3 70.0644 Q1445.32 73.7508 1436.57 73.7508 Q1432.92 73.7508 1428.95 73.0216 Q1425.02 72.3329 1420.65 70.9151 L1420.65 63.2184 Q1424.78 65.3654 1428.79 66.4591 Q1432.8 67.5124 1436.73 67.5124 Q1441.99 67.5124 1444.83 65.73 Q1447.67 63.9071 1447.67 60.6258 Q1447.67 57.5877 1445.6 55.9673 Q1443.57 54.3469 1436.65 52.8481 L1434.05 52.2405 Q1427.13 50.7821 1424.05 47.7845 Q1420.97 44.7463 1420.97 39.4801 Q1420.97 33.0797 1425.51 29.5959 Q1430.04 26.1121 1438.39 26.1121 Q1442.52 26.1121 1446.17 26.7198 Q1449.81 27.3274 1452.89 28.5427 Z" fill="#000000" fill-rule="nonzero" fill-opacity="1" /><path clip-path="url(#clip800)" d="M1467.19 27.2059 L1474.64 27.2059 L1474.64 72.576 L1467.19 72.576 L1467.19 27.2059 M1467.19 9.54393 L1474.64 9.54393 L1474.64 18.9825 L1467.19 18.9825 L1467.19 9.54393 Z" fill="#000000" fill-rule="nonzero" fill-opacity="1" /><path clip-path="url(#clip800)" d="M1510.86 49.7694 Q1501.83 49.7694 1498.34 51.8354 Q1494.86 53.9013 1494.86 58.8839 Q1494.86 62.8538 1497.45 65.2034 Q1500.08 67.5124 1504.58 67.5124 Q1510.78 67.5124 1514.5 63.1374 Q1518.27 58.7219 1518.27 51.4303 L1518.27 49.7694 L1510.86 49.7694 M1525.73 46.6907 L1525.73 72.576 L1518.27 72.576 L1518.27 65.6895 Q1515.72 69.8214 1511.91 71.8063 Q1508.1 73.7508 1502.6 73.7508 Q1495.63 73.7508 1491.5 69.8619 Q1487.4 65.9325 1487.4 59.3701 Q1487.4 51.7138 1492.51 47.825 Q1497.65 43.9361 1507.82 43.9361 L1518.27 43.9361 L1518.27 43.2069 Q1518.27 38.0623 1514.87 35.2672 Q1511.51 32.4315 1505.39 32.4315 Q1501.5 32.4315 1497.82 33.3632 Q1494.13 34.295 1490.73 36.1584 L1490.73 29.2718 Q1494.82 27.692 1498.67 26.9223 Q1502.51 26.1121 1506.16 26.1121 Q1516 26.1121 1520.86 31.2163 Q1525.73 36.3204 1525.73 46.6907 Z" fill="#000000" fill-rule="nonzero" fill-opacity="1" /><path clip-path="url(#clip800)" d="M1578.79 45.1919 L1578.79 72.576 L1571.34 72.576 L1571.34 45.4349 Q1571.34 38.994 1568.83 35.7938 Q1566.32 32.5936 1561.29 32.5936 Q1555.26 32.5936 1551.77 36.4419 Q1548.29 40.2903 1548.29 46.9338 L1548.29 72.576 L1540.8 72.576 L1540.8 27.2059 L1548.29 27.2059 L1548.29 34.2544 Q1550.96 30.163 1554.57 28.1376 Q1558.21 26.1121 1562.95 26.1121 Q1570.77 26.1121 1574.78 30.9732 Q1578.79 35.7938 1578.79 45.1919 Z" fill="#000000" fill-rule="nonzero" fill-opacity="1" /><path clip-path="url(#clip800)" d="M1628.54 18.8205 L1628.54 65.8515 L1638.42 65.8515 Q1650.94 65.8515 1656.73 60.1802 Q1662.57 54.509 1662.57 42.2752 Q1662.57 30.1225 1656.73 24.4918 Q1650.94 18.8205 1638.42 18.8205 L1628.54 18.8205 M1620.36 12.096 L1637.17 12.096 Q1654.75 12.096 1662.97 19.4281 Q1671.19 26.7198 1671.19 42.2752 Q1671.19 57.9117 1662.93 65.2439 Q1654.67 72.576 1637.17 72.576 L1620.36 72.576 L1620.36 12.096 Z" fill="#000000" fill-rule="nonzero" fill-opacity="1" /><path clip-path="url(#clip800)" d="M1683.91 27.2059 L1691.37 27.2059 L1691.37 72.576 L1683.91 72.576 L1683.91 27.2059 M1683.91 9.54393 L1691.37 9.54393 L1691.37 18.9825 L1683.91 18.9825 L1683.91 9.54393 Z" fill="#000000" fill-rule="nonzero" fill-opacity="1" /><path clip-path="url(#clip800)" d="M1735.89 28.5427 L1735.89 35.5912 Q1732.73 33.9709 1729.32 33.1607 Q1725.92 32.3505 1722.28 32.3505 Q1716.73 32.3505 1713.93 34.0519 Q1711.18 35.7533 1711.18 39.156 Q1711.18 41.7486 1713.16 43.2475 Q1715.15 44.7058 1721.14 46.0426 L1723.69 46.6097 Q1731.63 48.3111 1734.96 51.4303 Q1738.32 54.509 1738.32 60.0587 Q1738.32 66.3781 1733.29 70.0644 Q1728.31 73.7508 1719.56 73.7508 Q1715.92 73.7508 1711.95 73.0216 Q1708.02 72.3329 1703.64 70.9151 L1703.64 63.2184 Q1707.77 65.3654 1711.78 66.4591 Q1715.79 67.5124 1719.72 67.5124 Q1724.99 67.5124 1727.83 65.73 Q1730.66 63.9071 1730.66 60.6258 Q1730.66 57.5877 1728.6 55.9673 Q1726.57 54.3469 1719.64 52.8481 L1717.05 52.2405 Q1710.12 50.7821 1707.04 47.7845 Q1703.97 44.7463 1703.97 39.4801 Q1703.97 33.0797 1708.5 29.5959 Q1713.04 26.1121 1721.38 26.1121 Q1725.52 26.1121 1729.16 26.7198 Q1732.81 27.3274 1735.89 28.5427 Z" fill="#000000" fill-rule="nonzero" fill-opacity="1" /><path clip-path="url(#clip800)" d="M1757.56 14.324 L1757.56 27.2059 L1772.91 27.2059 L1772.91 32.9987 L1757.56 32.9987 L1757.56 57.6282 Q1757.56 63.1779 1759.06 64.7578 Q1760.6 66.3376 1765.26 66.3376 L1772.91 66.3376 L1772.91 72.576 L1765.26 72.576 Q1756.63 72.576 1753.35 69.3758 Q1750.07 66.1351 1750.07 57.6282 L1750.07 32.9987 L1744.6 32.9987 L1744.6 27.2059 L1750.07 27.2059 L1750.07 14.324 L1757.56 14.324 Z" fill="#000000" fill-rule="nonzero" fill-opacity="1" /><path clip-path="url(#clip800)" d="M1809.01 34.1734 Q1807.75 33.4443 1806.25 33.1202 Q1804.79 32.7556 1803.01 32.7556 Q1796.69 32.7556 1793.29 36.8875 Q1789.93 40.9789 1789.93 48.6757 L1789.93 72.576 L1782.43 72.576 L1782.43 27.2059 L1789.93 27.2059 L1789.93 34.2544 Q1792.28 30.1225 1796.04 28.1376 Q1799.81 26.1121 1805.2 26.1121 Q1805.97 26.1121 1806.9 26.2337 Q1807.83 26.3147 1808.97 26.5172 L1809.01 34.1734 Z" fill="#000000" fill-rule="nonzero" fill-opacity="1" /><path clip-path="url(#clip800)" d="M1816.82 27.2059 L1824.28 27.2059 L1824.28 72.576 L1816.82 72.576 L1816.82 27.2059 M1816.82 9.54393 L1824.28 9.54393 L1824.28 18.9825 L1816.82 18.9825 L1816.82 9.54393 Z" fill="#000000" fill-rule="nonzero" fill-opacity="1" /><path clip-path="url(#clip800)" d="M1872.44 49.9314 Q1872.44 41.7081 1869.04 37.0496 Q1865.68 32.3505 1859.76 32.3505 Q1853.85 32.3505 1850.45 37.0496 Q1847.08 41.7081 1847.08 49.9314 Q1847.08 58.1548 1850.45 62.8538 Q1853.85 67.5124 1859.76 67.5124 Q1865.68 67.5124 1869.04 62.8538 Q1872.44 58.1548 1872.44 49.9314 M1847.08 34.0924 Q1849.43 30.0415 1853 28.0971 Q1856.6 26.1121 1861.59 26.1121 Q1869.85 26.1121 1874.99 32.6746 Q1880.18 39.2371 1880.18 49.9314 Q1880.18 60.6258 1874.99 67.1883 Q1869.85 73.7508 1861.59 73.7508 Q1856.6 73.7508 1853 71.8063 Q1849.43 69.8214 1847.08 65.7705 L1847.08 72.576 L1839.59 72.576 L1839.59 9.54393 L1847.08 9.54393 L1847.08 34.0924 Z" fill="#000000" fill-rule="nonzero" fill-opacity="1" /><path clip-path="url(#clip800)" d="M1891.77 54.671 L1891.77 27.2059 L1899.22 27.2059 L1899.22 54.3874 Q1899.22 60.8284 1901.73 64.0691 Q1904.24 67.2693 1909.27 67.2693 Q1915.3 67.2693 1918.79 63.421 Q1922.31 59.5726 1922.31 52.9291 L1922.31 27.2059 L1929.76 27.2059 L1929.76 72.576 L1922.31 72.576 L1922.31 65.6084 Q1919.6 69.7404 1915.99 71.7658 Q1912.43 73.7508 1907.69 73.7508 Q1899.87 73.7508 1895.82 68.8897 Q1891.77 64.0286 1891.77 54.671 M1910.52 26.1121 L1910.52 26.1121 Z" fill="#000000" fill-rule="nonzero" fill-opacity="1" /><path clip-path="url(#clip800)" d="M1952.49 14.324 L1952.49 27.2059 L1967.84 27.2059 L1967.84 32.9987 L1952.49 32.9987 L1952.49 57.6282 Q1952.49 63.1779 1953.99 64.7578 Q1955.53 66.3376 1960.19 66.3376 L1967.84 66.3376 L1967.84 72.576 L1960.19 72.576 Q1951.56 72.576 1948.28 69.3758 Q1944.99 66.1351 1944.99 57.6282 L1944.99 32.9987 L1939.53 32.9987 L1939.53 27.2059 L1944.99 27.2059 L1944.99 14.324 L1952.49 14.324 Z" fill="#000000" fill-rule="nonzero" fill-opacity="1" /><path clip-path="url(#clip800)" d="M1977.64 27.2059 L1985.1 27.2059 L1985.1 72.576 L1977.64 72.576 L1977.64 27.2059 M1977.64 9.54393 L1985.1 9.54393 L1985.1 18.9825 L1977.64 18.9825 L1977.64 9.54393 Z" fill="#000000" fill-rule="nonzero" fill-opacity="1" /><path clip-path="url(#clip800)" d="M2018.28 32.4315 Q2012.28 32.4315 2008.8 37.1306 Q2005.31 41.7891 2005.31 49.9314 Q2005.31 58.0738 2008.76 62.7728 Q2012.24 67.4314 2018.28 67.4314 Q2024.23 67.4314 2027.71 62.7323 Q2031.2 58.0333 2031.2 49.9314 Q2031.2 41.8701 2027.71 37.1711 Q2024.23 32.4315 2018.28 32.4315 M2018.28 26.1121 Q2028 26.1121 2033.55 32.4315 Q2039.1 38.7509 2039.1 49.9314 Q2039.1 61.0714 2033.55 67.4314 Q2028 73.7508 2018.28 73.7508 Q2008.51 73.7508 2002.96 67.4314 Q1997.45 61.0714 1997.45 49.9314 Q1997.45 38.7509 2002.96 32.4315 Q2008.51 26.1121 2018.28 26.1121 Z" fill="#000000" fill-rule="nonzero" fill-opacity="1" /><path clip-path="url(#clip800)" d="M2089.17 45.1919 L2089.17 72.576 L2081.71 72.576 L2081.71 45.4349 Q2081.71 38.994 2079.2 35.7938 Q2076.69 32.5936 2071.67 32.5936 Q2065.63 32.5936 2062.15 36.4419 Q2058.66 40.2903 2058.66 46.9338 L2058.66 72.576 L2051.17 72.576 L2051.17 27.2059 L2058.66 27.2059 L2058.66 34.2544 Q2061.34 30.163 2064.94 28.1376 Q2068.59 26.1121 2073.33 26.1121 Q2081.15 26.1121 2085.16 30.9732 Q2089.17 35.7938 2089.17 45.1919 Z" fill="#000000" fill-rule="nonzero" fill-opacity="1" /><path clip-path="url(#clip800)" d="M2102.86 9.62495 L2109.34 9.62495 Q2115.42 19.1851 2118.41 28.3401 Q2121.45 37.4952 2121.45 46.5287 Q2121.45 55.6027 2118.41 64.7983 Q2115.42 73.9938 2109.34 83.5134 L2102.86 83.5134 Q2108.25 74.2369 2110.88 65.0818 Q2113.55 55.8863 2113.55 46.5287 Q2113.55 37.1711 2110.88 28.0566 Q2108.25 18.942 2102.86 9.62495 Z" fill="#000000" fill-rule="nonzero" fill-opacity="1" /><polyline clip-path="url(#clip802)" style="stroke:#78c2ad; stroke-linecap:round; stroke-linejoin:round; stroke-width:8; stroke-opacity:1; fill:none" points="1243.63,955.398 1186.22,989.886 1128.82,1024.37 1071.41,1058.86 1014,1093.35 956.598,1127.84 899.192,1162.32 841.785,1131.72 784.379,1097.23 726.972,1062.75 669.565,1028.26 612.159,993.772 554.752,959.285 497.345,924.798 439.939,890.31 382.532,855.823 325.126,833.014 267.719,867.502 304.405,901.989 361.811,936.476 419.218,970.964 476.625,1005.45 534.031,1039.94 591.438,1074.43 648.844,1108.91 706.251,1143.4 763.658,1177.89 821.064,1212.38 878.471,1246.86 935.877,1281.35 993.284,1263.08 1050.69,1228.59 1108.1,1194.1 1165.5,1159.61 1222.91,1125.13 1280.32,1090.64 1337.72,1056.15 1395.13,1021.66 1452.54,987.177 1509.94,952.689 1567.35,918.202 1624.76,883.715 1682.16,849.227 1739.57,814.74 1796.98,780.252 1854.38,745.765 1911.79,711.278 1969.2,676.79 2026.6,642.303 2084.01,607.816 2141.42,573.328 2198.82,538.841 2170.16,504.353 2112.75,469.866 2055.34,435.379 1997.94,400.891 1940.53,366.404 1883.12,331.916 1825.72,297.429 1768.31,262.942 1710.9,288.613 1653.5,323.1 1596.09,357.587 1538.68,392.075 1481.28,426.562 1423.87,461.05 1366.46,495.537 1309.06,530.024 1251.65,564.512 1194.24,598.999 1136.84,633.487 1079.43,667.974 1119.64,702.461 1177.05,736.949 1234.45,771.436 1291.86,805.924 1349.27,840.411 1406.67,874.898 1464.08,909.386 1521.48,943.873 1578.89,978.36 1636.3,1012.85 1614.07,1047.34 1556.66,1081.82 1499.26,1116.31 1441.85,1150.8 1384.44,1185.28 1327.04,1154.55 1269.63,1120.06 1212.22,1085.58 1154.82,1051.09 1097.41,1016.6 1040,982.114 982.597,947.627 925.19,913.139 867.784,878.652 810.377,844.165 832.737,873.457 890.144,907.944 947.55,942.432 1004.96,976.919 1062.36,1011.41 1119.77,1045.89 1177.18,1080.38 1234.58,1114.87 1291.99,1149.36 1349.4,1156.54 1406.8,1122.05 1464.21,1087.56 1521.62,1053.07 1579.02,1018.59 1636.43,984.099 1693.84,949.611 1751.24,915.124 1808.65,880.636 1866.06,846.149 1923.46,811.662 1980.87,777.174 2038.28,742.687 2059.79,708.199 2002.38,673.712 1944.97,639.225 1887.57,604.737 1830.16,570.25 1772.75,535.762 1715.35,501.275 1657.94,466.788 1600.53,432.3 1543.13,397.813 1485.72,363.326 1428.31,328.838 1370.91,294.351 1313.5,259.863 1256.09,225.376 1198.69,190.889 1141.28,158.463 1083.87,192.95 1099.03,227.438 1156.44,261.925 1213.84,296.413 1271.25,330.9 1328.66,365.387 1386.06,399.875 1443.47,434.362 1500.88,468.85 1558.28,503.337 1615.69,537.824 1673.1,572.312 1730.5,606.799 1732.51,641.287 1675.11,675.774 1617.7,710.261 1560.29,744.749 1502.89,779.236 1445.48,813.723 1388.07,848.211 1330.67,882.698 1273.26,917.186 1215.85,951.673 1158.45,986.16 1101.04,1020.65 1113.31,1055.14 1170.72,1077.18 1228.12,1042.69 1285.53,1008.2 1342.94,973.715 1400.34,939.228 1457.75,904.741 1515.16,870.253 1572.56,835.766 1629.97,801.279 1625.51,766.791 1568.1,732.304 1510.69,724.78 1453.29,759.267 1395.88,793.754 1338.47,828.242 1281.07,862.729 1223.66,897.217 1166.25,931.704 1108.85,966.191 1051.44,1000.68 994.033,1035.17 936.626,1069.65 879.22,1104.14 821.813,1138.63 764.406,1173.12 707,1207.6 649.593,1242.09 616.724,1276.58 674.13,1311.07 731.537,1324.83 788.944,1290.34 846.35,1255.85 903.757,1221.37 961.163,1186.88 1018.57,1152.39 1075.98,1117.9 1133.38,1083.42 1190.79,1048.93 1248.2,1014.44 1305.6,979.955 1363.01,945.468 1420.42,910.98 1477.82,876.493 "/>
<circle clip-path="url(#clip802)" cx="1243.63" cy="955.398" r="7.2" fill="#78c2ad" fill-rule="evenodd" fill-opacity="0.6" stroke="#000000" stroke-opacity="0.6" stroke-width="3.072"/>
<circle clip-path="url(#clip802)" cx="1186.22" cy="989.886" r="7.2" fill="#78c2ad" fill-rule="evenodd" fill-opacity="0.6" stroke="#000000" stroke-opacity="0.6" stroke-width="3.072"/>
<circle clip-path="url(#clip802)" cx="1128.82" cy="1024.37" r="7.2" fill="#78c2ad" fill-rule="evenodd" fill-opacity="0.6" stroke="#000000" stroke-opacity="0.6" stroke-width="3.072"/>
<circle clip-path="url(#clip802)" cx="1071.41" cy="1058.86" r="7.2" fill="#78c2ad" fill-rule="evenodd" fill-opacity="0.6" stroke="#000000" stroke-opacity="0.6" stroke-width="3.072"/>
<circle clip-path="url(#clip802)" cx="1014" cy="1093.35" r="7.2" fill="#78c2ad" fill-rule="evenodd" fill-opacity="0.6" stroke="#000000" stroke-opacity="0.6" stroke-width="3.072"/>
<circle clip-path="url(#clip802)" cx="956.598" cy="1127.84" r="7.2" fill="#78c2ad" fill-rule="evenodd" fill-opacity="0.6" stroke="#000000" stroke-opacity="0.6" stroke-width="3.072"/>
<circle clip-path="url(#clip802)" cx="899.192" cy="1162.32" r="7.2" fill="#78c2ad" fill-rule="evenodd" fill-opacity="0.6" stroke="#000000" stroke-opacity="0.6" stroke-width="3.072"/>
<circle clip-path="url(#clip802)" cx="841.785" cy="1131.72" r="7.2" fill="#78c2ad" fill-rule="evenodd" fill-opacity="0.6" stroke="#000000" stroke-opacity="0.6" stroke-width="3.072"/>
<circle clip-path="url(#clip802)" cx="784.379" cy="1097.23" r="7.2" fill="#78c2ad" fill-rule="evenodd" fill-opacity="0.6" stroke="#000000" stroke-opacity="0.6" stroke-width="3.072"/>
<circle clip-path="url(#clip802)" cx="726.972" cy="1062.75" r="7.2" fill="#78c2ad" fill-rule="evenodd" fill-opacity="0.6" stroke="#000000" stroke-opacity="0.6" stroke-width="3.072"/>
<circle clip-path="url(#clip802)" cx="669.565" cy="1028.26" r="7.2" fill="#78c2ad" fill-rule="evenodd" fill-opacity="0.6" stroke="#000000" stroke-opacity="0.6" stroke-width="3.072"/>
<circle clip-path="url(#clip802)" cx="612.159" cy="993.772" r="7.2" fill="#78c2ad" fill-rule="evenodd" fill-opacity="0.6" stroke="#000000" stroke-opacity="0.6" stroke-width="3.072"/>
<circle clip-path="url(#clip802)" cx="554.752" cy="959.285" r="7.2" fill="#78c2ad" fill-rule="evenodd" fill-opacity="0.6" stroke="#000000" stroke-opacity="0.6" stroke-width="3.072"/>
<circle clip-path="url(#clip802)" cx="497.345" cy="924.798" r="7.2" fill="#78c2ad" fill-rule="evenodd" fill-opacity="0.6" stroke="#000000" stroke-opacity="0.6" stroke-width="3.072"/>
<circle clip-path="url(#clip802)" cx="439.939" cy="890.31" r="7.2" fill="#78c2ad" fill-rule="evenodd" fill-opacity="0.6" stroke="#000000" stroke-opacity="0.6" stroke-width="3.072"/>
<circle clip-path="url(#clip802)" cx="382.532" cy="855.823" r="7.2" fill="#78c2ad" fill-rule="evenodd" fill-opacity="0.6" stroke="#000000" stroke-opacity="0.6" stroke-width="3.072"/>
<circle clip-path="url(#clip802)" cx="325.126" cy="833.014" r="7.2" fill="#78c2ad" fill-rule="evenodd" fill-opacity="0.6" stroke="#000000" stroke-opacity="0.6" stroke-width="3.072"/>
<circle clip-path="url(#clip802)" cx="267.719" cy="867.502" r="7.2" fill="#78c2ad" fill-rule="evenodd" fill-opacity="0.6" stroke="#000000" stroke-opacity="0.6" stroke-width="3.072"/>
<circle clip-path="url(#clip802)" cx="304.405" cy="901.989" r="7.2" fill="#78c2ad" fill-rule="evenodd" fill-opacity="0.6" stroke="#000000" stroke-opacity="0.6" stroke-width="3.072"/>
<circle clip-path="url(#clip802)" cx="361.811" cy="936.476" r="7.2" fill="#78c2ad" fill-rule="evenodd" fill-opacity="0.6" stroke="#000000" stroke-opacity="0.6" stroke-width="3.072"/>
<circle clip-path="url(#clip802)" cx="419.218" cy="970.964" r="7.2" fill="#78c2ad" fill-rule="evenodd" fill-opacity="0.6" stroke="#000000" stroke-opacity="0.6" stroke-width="3.072"/>
<circle clip-path="url(#clip802)" cx="476.625" cy="1005.45" r="7.2" fill="#78c2ad" fill-rule="evenodd" fill-opacity="0.6" stroke="#000000" stroke-opacity="0.6" stroke-width="3.072"/>
<circle clip-path="url(#clip802)" cx="534.031" cy="1039.94" r="7.2" fill="#78c2ad" fill-rule="evenodd" fill-opacity="0.6" stroke="#000000" stroke-opacity="0.6" stroke-width="3.072"/>
<circle clip-path="url(#clip802)" cx="591.438" cy="1074.43" r="7.2" fill="#78c2ad" fill-rule="evenodd" fill-opacity="0.6" stroke="#000000" stroke-opacity="0.6" stroke-width="3.072"/>
<circle clip-path="url(#clip802)" cx="648.844" cy="1108.91" r="7.2" fill="#78c2ad" fill-rule="evenodd" fill-opacity="0.6" stroke="#000000" stroke-opacity="0.6" stroke-width="3.072"/>
<circle clip-path="url(#clip802)" cx="706.251" cy="1143.4" r="7.2" fill="#78c2ad" fill-rule="evenodd" fill-opacity="0.6" stroke="#000000" stroke-opacity="0.6" stroke-width="3.072"/>
<circle clip-path="url(#clip802)" cx="763.658" cy="1177.89" r="7.2" fill="#78c2ad" fill-rule="evenodd" fill-opacity="0.6" stroke="#000000" stroke-opacity="0.6" stroke-width="3.072"/>
<circle clip-path="url(#clip802)" cx="821.064" cy="1212.38" r="7.2" fill="#78c2ad" fill-rule="evenodd" fill-opacity="0.6" stroke="#000000" stroke-opacity="0.6" stroke-width="3.072"/>
<circle clip-path="url(#clip802)" cx="878.471" cy="1246.86" r="7.2" fill="#78c2ad" fill-rule="evenodd" fill-opacity="0.6" stroke="#000000" stroke-opacity="0.6" stroke-width="3.072"/>
<circle clip-path="url(#clip802)" cx="935.877" cy="1281.35" r="7.2" fill="#78c2ad" fill-rule="evenodd" fill-opacity="0.6" stroke="#000000" stroke-opacity="0.6" stroke-width="3.072"/>
<circle clip-path="url(#clip802)" cx="993.284" cy="1263.08" r="7.2" fill="#78c2ad" fill-rule="evenodd" fill-opacity="0.6" stroke="#000000" stroke-opacity="0.6" stroke-width="3.072"/>
<circle clip-path="url(#clip802)" cx="1050.69" cy="1228.59" r="7.2" fill="#78c2ad" fill-rule="evenodd" fill-opacity="0.6" stroke="#000000" stroke-opacity="0.6" stroke-width="3.072"/>
<circle clip-path="url(#clip802)" cx="1108.1" cy="1194.1" r="7.2" fill="#78c2ad" fill-rule="evenodd" fill-opacity="0.6" stroke="#000000" stroke-opacity="0.6" stroke-width="3.072"/>
<circle clip-path="url(#clip802)" cx="1165.5" cy="1159.61" r="7.2" fill="#78c2ad" fill-rule="evenodd" fill-opacity="0.6" stroke="#000000" stroke-opacity="0.6" stroke-width="3.072"/>
<circle clip-path="url(#clip802)" cx="1222.91" cy="1125.13" r="7.2" fill="#78c2ad" fill-rule="evenodd" fill-opacity="0.6" stroke="#000000" stroke-opacity="0.6" stroke-width="3.072"/>
<circle clip-path="url(#clip802)" cx="1280.32" cy="1090.64" r="7.2" fill="#78c2ad" fill-rule="evenodd" fill-opacity="0.6" stroke="#000000" stroke-opacity="0.6" stroke-width="3.072"/>
<circle clip-path="url(#clip802)" cx="1337.72" cy="1056.15" r="7.2" fill="#78c2ad" fill-rule="evenodd" fill-opacity="0.6" stroke="#000000" stroke-opacity="0.6" stroke-width="3.072"/>
<circle clip-path="url(#clip802)" cx="1395.13" cy="1021.66" r="7.2" fill="#78c2ad" fill-rule="evenodd" fill-opacity="0.6" stroke="#000000" stroke-opacity="0.6" stroke-width="3.072"/>
<circle clip-path="url(#clip802)" cx="1452.54" cy="987.177" r="7.2" fill="#78c2ad" fill-rule="evenodd" fill-opacity="0.6" stroke="#000000" stroke-opacity="0.6" stroke-width="3.072"/>
<circle clip-path="url(#clip802)" cx="1509.94" cy="952.689" r="7.2" fill="#78c2ad" fill-rule="evenodd" fill-opacity="0.6" stroke="#000000" stroke-opacity="0.6" stroke-width="3.072"/>
<circle clip-path="url(#clip802)" cx="1567.35" cy="918.202" r="7.2" fill="#78c2ad" fill-rule="evenodd" fill-opacity="0.6" stroke="#000000" stroke-opacity="0.6" stroke-width="3.072"/>
<circle clip-path="url(#clip802)" cx="1624.76" cy="883.715" r="7.2" fill="#78c2ad" fill-rule="evenodd" fill-opacity="0.6" stroke="#000000" stroke-opacity="0.6" stroke-width="3.072"/>
<circle clip-path="url(#clip802)" cx="1682.16" cy="849.227" r="7.2" fill="#78c2ad" fill-rule="evenodd" fill-opacity="0.6" stroke="#000000" stroke-opacity="0.6" stroke-width="3.072"/>
<circle clip-path="url(#clip802)" cx="1739.57" cy="814.74" r="7.2" fill="#78c2ad" fill-rule="evenodd" fill-opacity="0.6" stroke="#000000" stroke-opacity="0.6" stroke-width="3.072"/>
<circle clip-path="url(#clip802)" cx="1796.98" cy="780.252" r="7.2" fill="#78c2ad" fill-rule="evenodd" fill-opacity="0.6" stroke="#000000" stroke-opacity="0.6" stroke-width="3.072"/>
<circle clip-path="url(#clip802)" cx="1854.38" cy="745.765" r="7.2" fill="#78c2ad" fill-rule="evenodd" fill-opacity="0.6" stroke="#000000" stroke-opacity="0.6" stroke-width="3.072"/>
<circle clip-path="url(#clip802)" cx="1911.79" cy="711.278" r="7.2" fill="#78c2ad" fill-rule="evenodd" fill-opacity="0.6" stroke="#000000" stroke-opacity="0.6" stroke-width="3.072"/>
<circle clip-path="url(#clip802)" cx="1969.2" cy="676.79" r="7.2" fill="#78c2ad" fill-rule="evenodd" fill-opacity="0.6" stroke="#000000" stroke-opacity="0.6" stroke-width="3.072"/>
<circle clip-path="url(#clip802)" cx="2026.6" cy="642.303" r="7.2" fill="#78c2ad" fill-rule="evenodd" fill-opacity="0.6" stroke="#000000" stroke-opacity="0.6" stroke-width="3.072"/>
<circle clip-path="url(#clip802)" cx="2084.01" cy="607.816" r="7.2" fill="#78c2ad" fill-rule="evenodd" fill-opacity="0.6" stroke="#000000" stroke-opacity="0.6" stroke-width="3.072"/>
<circle clip-path="url(#clip802)" cx="2141.42" cy="573.328" r="7.2" fill="#78c2ad" fill-rule="evenodd" fill-opacity="0.6" stroke="#000000" stroke-opacity="0.6" stroke-width="3.072"/>
<circle clip-path="url(#clip802)" cx="2198.82" cy="538.841" r="7.2" fill="#78c2ad" fill-rule="evenodd" fill-opacity="0.6" stroke="#000000" stroke-opacity="0.6" stroke-width="3.072"/>
<circle clip-path="url(#clip802)" cx="2170.16" cy="504.353" r="7.2" fill="#78c2ad" fill-rule="evenodd" fill-opacity="0.6" stroke="#000000" stroke-opacity="0.6" stroke-width="3.072"/>
<circle clip-path="url(#clip802)" cx="2112.75" cy="469.866" r="7.2" fill="#78c2ad" fill-rule="evenodd" fill-opacity="0.6" stroke="#000000" stroke-opacity="0.6" stroke-width="3.072"/>
<circle clip-path="url(#clip802)" cx="2055.34" cy="435.379" r="7.2" fill="#78c2ad" fill-rule="evenodd" fill-opacity="0.6" stroke="#000000" stroke-opacity="0.6" stroke-width="3.072"/>
<circle clip-path="url(#clip802)" cx="1997.94" cy="400.891" r="7.2" fill="#78c2ad" fill-rule="evenodd" fill-opacity="0.6" stroke="#000000" stroke-opacity="0.6" stroke-width="3.072"/>
<circle clip-path="url(#clip802)" cx="1940.53" cy="366.404" r="7.2" fill="#78c2ad" fill-rule="evenodd" fill-opacity="0.6" stroke="#000000" stroke-opacity="0.6" stroke-width="3.072"/>
<circle clip-path="url(#clip802)" cx="1883.12" cy="331.916" r="7.2" fill="#78c2ad" fill-rule="evenodd" fill-opacity="0.6" stroke="#000000" stroke-opacity="0.6" stroke-width="3.072"/>
<circle clip-path="url(#clip802)" cx="1825.72" cy="297.429" r="7.2" fill="#78c2ad" fill-rule="evenodd" fill-opacity="0.6" stroke="#000000" stroke-opacity="0.6" stroke-width="3.072"/>
<circle clip-path="url(#clip802)" cx="1768.31" cy="262.942" r="7.2" fill="#78c2ad" fill-rule="evenodd" fill-opacity="0.6" stroke="#000000" stroke-opacity="0.6" stroke-width="3.072"/>
<circle clip-path="url(#clip802)" cx="1710.9" cy="288.613" r="7.2" fill="#78c2ad" fill-rule="evenodd" fill-opacity="0.6" stroke="#000000" stroke-opacity="0.6" stroke-width="3.072"/>
<circle clip-path="url(#clip802)" cx="1653.5" cy="323.1" r="7.2" fill="#78c2ad" fill-rule="evenodd" fill-opacity="0.6" stroke="#000000" stroke-opacity="0.6" stroke-width="3.072"/>
<circle clip-path="url(#clip802)" cx="1596.09" cy="357.587" r="7.2" fill="#78c2ad" fill-rule="evenodd" fill-opacity="0.6" stroke="#000000" stroke-opacity="0.6" stroke-width="3.072"/>
<circle clip-path="url(#clip802)" cx="1538.68" cy="392.075" r="7.2" fill="#78c2ad" fill-rule="evenodd" fill-opacity="0.6" stroke="#000000" stroke-opacity="0.6" stroke-width="3.072"/>
<circle clip-path="url(#clip802)" cx="1481.28" cy="426.562" r="7.2" fill="#78c2ad" fill-rule="evenodd" fill-opacity="0.6" stroke="#000000" stroke-opacity="0.6" stroke-width="3.072"/>
<circle clip-path="url(#clip802)" cx="1423.87" cy="461.05" r="7.2" fill="#78c2ad" fill-rule="evenodd" fill-opacity="0.6" stroke="#000000" stroke-opacity="0.6" stroke-width="3.072"/>
<circle clip-path="url(#clip802)" cx="1366.46" cy="495.537" r="7.2" fill="#78c2ad" fill-rule="evenodd" fill-opacity="0.6" stroke="#000000" stroke-opacity="0.6" stroke-width="3.072"/>
<circle clip-path="url(#clip802)" cx="1309.06" cy="530.024" r="7.2" fill="#78c2ad" fill-rule="evenodd" fill-opacity="0.6" stroke="#000000" stroke-opacity="0.6" stroke-width="3.072"/>
<circle clip-path="url(#clip802)" cx="1251.65" cy="564.512" r="7.2" fill="#78c2ad" fill-rule="evenodd" fill-opacity="0.6" stroke="#000000" stroke-opacity="0.6" stroke-width="3.072"/>
<circle clip-path="url(#clip802)" cx="1194.24" cy="598.999" r="7.2" fill="#78c2ad" fill-rule="evenodd" fill-opacity="0.6" stroke="#000000" stroke-opacity="0.6" stroke-width="3.072"/>
<circle clip-path="url(#clip802)" cx="1136.84" cy="633.487" r="7.2" fill="#78c2ad" fill-rule="evenodd" fill-opacity="0.6" stroke="#000000" stroke-opacity="0.6" stroke-width="3.072"/>
<circle clip-path="url(#clip802)" cx="1079.43" cy="667.974" r="7.2" fill="#78c2ad" fill-rule="evenodd" fill-opacity="0.6" stroke="#000000" stroke-opacity="0.6" stroke-width="3.072"/>
<circle clip-path="url(#clip802)" cx="1119.64" cy="702.461" r="7.2" fill="#78c2ad" fill-rule="evenodd" fill-opacity="0.6" stroke="#000000" stroke-opacity="0.6" stroke-width="3.072"/>
<circle clip-path="url(#clip802)" cx="1177.05" cy="736.949" r="7.2" fill="#78c2ad" fill-rule="evenodd" fill-opacity="0.6" stroke="#000000" stroke-opacity="0.6" stroke-width="3.072"/>
<circle clip-path="url(#clip802)" cx="1234.45" cy="771.436" r="7.2" fill="#78c2ad" fill-rule="evenodd" fill-opacity="0.6" stroke="#000000" stroke-opacity="0.6" stroke-width="3.072"/>
<circle clip-path="url(#clip802)" cx="1291.86" cy="805.924" r="7.2" fill="#78c2ad" fill-rule="evenodd" fill-opacity="0.6" stroke="#000000" stroke-opacity="0.6" stroke-width="3.072"/>
<circle clip-path="url(#clip802)" cx="1349.27" cy="840.411" r="7.2" fill="#78c2ad" fill-rule="evenodd" fill-opacity="0.6" stroke="#000000" stroke-opacity="0.6" stroke-width="3.072"/>
<circle clip-path="url(#clip802)" cx="1406.67" cy="874.898" r="7.2" fill="#78c2ad" fill-rule="evenodd" fill-opacity="0.6" stroke="#000000" stroke-opacity="0.6" stroke-width="3.072"/>
<circle clip-path="url(#clip802)" cx="1464.08" cy="909.386" r="7.2" fill="#78c2ad" fill-rule="evenodd" fill-opacity="0.6" stroke="#000000" stroke-opacity="0.6" stroke-width="3.072"/>
<circle clip-path="url(#clip802)" cx="1521.48" cy="943.873" r="7.2" fill="#78c2ad" fill-rule="evenodd" fill-opacity="0.6" stroke="#000000" stroke-opacity="0.6" stroke-width="3.072"/>
<circle clip-path="url(#clip802)" cx="1578.89" cy="978.36" r="7.2" fill="#78c2ad" fill-rule="evenodd" fill-opacity="0.6" stroke="#000000" stroke-opacity="0.6" stroke-width="3.072"/>
<circle clip-path="url(#clip802)" cx="1636.3" cy="1012.85" r="7.2" fill="#78c2ad" fill-rule="evenodd" fill-opacity="0.6" stroke="#000000" stroke-opacity="0.6" stroke-width="3.072"/>
<circle clip-path="url(#clip802)" cx="1614.07" cy="1047.34" r="7.2" fill="#78c2ad" fill-rule="evenodd" fill-opacity="0.6" stroke="#000000" stroke-opacity="0.6" stroke-width="3.072"/>
<circle clip-path="url(#clip802)" cx="1556.66" cy="1081.82" r="7.2" fill="#78c2ad" fill-rule="evenodd" fill-opacity="0.6" stroke="#000000" stroke-opacity="0.6" stroke-width="3.072"/>
<circle clip-path="url(#clip802)" cx="1499.26" cy="1116.31" r="7.2" fill="#78c2ad" fill-rule="evenodd" fill-opacity="0.6" stroke="#000000" stroke-opacity="0.6" stroke-width="3.072"/>
<circle clip-path="url(#clip802)" cx="1441.85" cy="1150.8" r="7.2" fill="#78c2ad" fill-rule="evenodd" fill-opacity="0.6" stroke="#000000" stroke-opacity="0.6" stroke-width="3.072"/>
<circle clip-path="url(#clip802)" cx="1384.44" cy="1185.28" r="7.2" fill="#78c2ad" fill-rule="evenodd" fill-opacity="0.6" stroke="#000000" stroke-opacity="0.6" stroke-width="3.072"/>
<circle clip-path="url(#clip802)" cx="1327.04" cy="1154.55" r="7.2" fill="#78c2ad" fill-rule="evenodd" fill-opacity="0.6" stroke="#000000" stroke-opacity="0.6" stroke-width="3.072"/>
<circle clip-path="url(#clip802)" cx="1269.63" cy="1120.06" r="7.2" fill="#78c2ad" fill-rule="evenodd" fill-opacity="0.6" stroke="#000000" stroke-opacity="0.6" stroke-width="3.072"/>
<circle clip-path="url(#clip802)" cx="1212.22" cy="1085.58" r="7.2" fill="#78c2ad" fill-rule="evenodd" fill-opacity="0.6" stroke="#000000" stroke-opacity="0.6" stroke-width="3.072"/>
<circle clip-path="url(#clip802)" cx="1154.82" cy="1051.09" r="7.2" fill="#78c2ad" fill-rule="evenodd" fill-opacity="0.6" stroke="#000000" stroke-opacity="0.6" stroke-width="3.072"/>
<circle clip-path="url(#clip802)" cx="1097.41" cy="1016.6" r="7.2" fill="#78c2ad" fill-rule="evenodd" fill-opacity="0.6" stroke="#000000" stroke-opacity="0.6" stroke-width="3.072"/>
<circle clip-path="url(#clip802)" cx="1040" cy="982.114" r="7.2" fill="#78c2ad" fill-rule="evenodd" fill-opacity="0.6" stroke="#000000" stroke-opacity="0.6" stroke-width="3.072"/>
<circle clip-path="url(#clip802)" cx="982.597" cy="947.627" r="7.2" fill="#78c2ad" fill-rule="evenodd" fill-opacity="0.6" stroke="#000000" stroke-opacity="0.6" stroke-width="3.072"/>
<circle clip-path="url(#clip802)" cx="925.19" cy="913.139" r="7.2" fill="#78c2ad" fill-rule="evenodd" fill-opacity="0.6" stroke="#000000" stroke-opacity="0.6" stroke-width="3.072"/>
<circle clip-path="url(#clip802)" cx="867.784" cy="878.652" r="7.2" fill="#78c2ad" fill-rule="evenodd" fill-opacity="0.6" stroke="#000000" stroke-opacity="0.6" stroke-width="3.072"/>
<circle clip-path="url(#clip802)" cx="810.377" cy="844.165" r="7.2" fill="#78c2ad" fill-rule="evenodd" fill-opacity="0.6" stroke="#000000" stroke-opacity="0.6" stroke-width="3.072"/>
<circle clip-path="url(#clip802)" cx="832.737" cy="873.457" r="7.2" fill="#78c2ad" fill-rule="evenodd" fill-opacity="0.6" stroke="#000000" stroke-opacity="0.6" stroke-width="3.072"/>
<circle clip-path="url(#clip802)" cx="890.144" cy="907.944" r="7.2" fill="#78c2ad" fill-rule="evenodd" fill-opacity="0.6" stroke="#000000" stroke-opacity="0.6" stroke-width="3.072"/>
<circle clip-path="url(#clip802)" cx="947.55" cy="942.432" r="7.2" fill="#78c2ad" fill-rule="evenodd" fill-opacity="0.6" stroke="#000000" stroke-opacity="0.6" stroke-width="3.072"/>
<circle clip-path="url(#clip802)" cx="1004.96" cy="976.919" r="7.2" fill="#78c2ad" fill-rule="evenodd" fill-opacity="0.6" stroke="#000000" stroke-opacity="0.6" stroke-width="3.072"/>
<circle clip-path="url(#clip802)" cx="1062.36" cy="1011.41" r="7.2" fill="#78c2ad" fill-rule="evenodd" fill-opacity="0.6" stroke="#000000" stroke-opacity="0.6" stroke-width="3.072"/>
<circle clip-path="url(#clip802)" cx="1119.77" cy="1045.89" r="7.2" fill="#78c2ad" fill-rule="evenodd" fill-opacity="0.6" stroke="#000000" stroke-opacity="0.6" stroke-width="3.072"/>
<circle clip-path="url(#clip802)" cx="1177.18" cy="1080.38" r="7.2" fill="#78c2ad" fill-rule="evenodd" fill-opacity="0.6" stroke="#000000" stroke-opacity="0.6" stroke-width="3.072"/>
<circle clip-path="url(#clip802)" cx="1234.58" cy="1114.87" r="7.2" fill="#78c2ad" fill-rule="evenodd" fill-opacity="0.6" stroke="#000000" stroke-opacity="0.6" stroke-width="3.072"/>
<circle clip-path="url(#clip802)" cx="1291.99" cy="1149.36" r="7.2" fill="#78c2ad" fill-rule="evenodd" fill-opacity="0.6" stroke="#000000" stroke-opacity="0.6" stroke-width="3.072"/>
<circle clip-path="url(#clip802)" cx="1349.4" cy="1156.54" r="7.2" fill="#78c2ad" fill-rule="evenodd" fill-opacity="0.6" stroke="#000000" stroke-opacity="0.6" stroke-width="3.072"/>
<circle clip-path="url(#clip802)" cx="1406.8" cy="1122.05" r="7.2" fill="#78c2ad" fill-rule="evenodd" fill-opacity="0.6" stroke="#000000" stroke-opacity="0.6" stroke-width="3.072"/>
<circle clip-path="url(#clip802)" cx="1464.21" cy="1087.56" r="7.2" fill="#78c2ad" fill-rule="evenodd" fill-opacity="0.6" stroke="#000000" stroke-opacity="0.6" stroke-width="3.072"/>
<circle clip-path="url(#clip802)" cx="1521.62" cy="1053.07" r="7.2" fill="#78c2ad" fill-rule="evenodd" fill-opacity="0.6" stroke="#000000" stroke-opacity="0.6" stroke-width="3.072"/>
<circle clip-path="url(#clip802)" cx="1579.02" cy="1018.59" r="7.2" fill="#78c2ad" fill-rule="evenodd" fill-opacity="0.6" stroke="#000000" stroke-opacity="0.6" stroke-width="3.072"/>
<circle clip-path="url(#clip802)" cx="1636.43" cy="984.099" r="7.2" fill="#78c2ad" fill-rule="evenodd" fill-opacity="0.6" stroke="#000000" stroke-opacity="0.6" stroke-width="3.072"/>
<circle clip-path="url(#clip802)" cx="1693.84" cy="949.611" r="7.2" fill="#78c2ad" fill-rule="evenodd" fill-opacity="0.6" stroke="#000000" stroke-opacity="0.6" stroke-width="3.072"/>
<circle clip-path="url(#clip802)" cx="1751.24" cy="915.124" r="7.2" fill="#78c2ad" fill-rule="evenodd" fill-opacity="0.6" stroke="#000000" stroke-opacity="0.6" stroke-width="3.072"/>
<circle clip-path="url(#clip802)" cx="1808.65" cy="880.636" r="7.2" fill="#78c2ad" fill-rule="evenodd" fill-opacity="0.6" stroke="#000000" stroke-opacity="0.6" stroke-width="3.072"/>
<circle clip-path="url(#clip802)" cx="1866.06" cy="846.149" r="7.2" fill="#78c2ad" fill-rule="evenodd" fill-opacity="0.6" stroke="#000000" stroke-opacity="0.6" stroke-width="3.072"/>
<circle clip-path="url(#clip802)" cx="1923.46" cy="811.662" r="7.2" fill="#78c2ad" fill-rule="evenodd" fill-opacity="0.6" stroke="#000000" stroke-opacity="0.6" stroke-width="3.072"/>
<circle clip-path="url(#clip802)" cx="1980.87" cy="777.174" r="7.2" fill="#78c2ad" fill-rule="evenodd" fill-opacity="0.6" stroke="#000000" stroke-opacity="0.6" stroke-width="3.072"/>
<circle clip-path="url(#clip802)" cx="2038.28" cy="742.687" r="7.2" fill="#78c2ad" fill-rule="evenodd" fill-opacity="0.6" stroke="#000000" stroke-opacity="0.6" stroke-width="3.072"/>
<circle clip-path="url(#clip802)" cx="2059.79" cy="708.199" r="7.2" fill="#78c2ad" fill-rule="evenodd" fill-opacity="0.6" stroke="#000000" stroke-opacity="0.6" stroke-width="3.072"/>
<circle clip-path="url(#clip802)" cx="2002.38" cy="673.712" r="7.2" fill="#78c2ad" fill-rule="evenodd" fill-opacity="0.6" stroke="#000000" stroke-opacity="0.6" stroke-width="3.072"/>
<circle clip-path="url(#clip802)" cx="1944.97" cy="639.225" r="7.2" fill="#78c2ad" fill-rule="evenodd" fill-opacity="0.6" stroke="#000000" stroke-opacity="0.6" stroke-width="3.072"/>
<circle clip-path="url(#clip802)" cx="1887.57" cy="604.737" r="7.2" fill="#78c2ad" fill-rule="evenodd" fill-opacity="0.6" stroke="#000000" stroke-opacity="0.6" stroke-width="3.072"/>
<circle clip-path="url(#clip802)" cx="1830.16" cy="570.25" r="7.2" fill="#78c2ad" fill-rule="evenodd" fill-opacity="0.6" stroke="#000000" stroke-opacity="0.6" stroke-width="3.072"/>
<circle clip-path="url(#clip802)" cx="1772.75" cy="535.762" r="7.2" fill="#78c2ad" fill-rule="evenodd" fill-opacity="0.6" stroke="#000000" stroke-opacity="0.6" stroke-width="3.072"/>
<circle clip-path="url(#clip802)" cx="1715.35" cy="501.275" r="7.2" fill="#78c2ad" fill-rule="evenodd" fill-opacity="0.6" stroke="#000000" stroke-opacity="0.6" stroke-width="3.072"/>
<circle clip-path="url(#clip802)" cx="1657.94" cy="466.788" r="7.2" fill="#78c2ad" fill-rule="evenodd" fill-opacity="0.6" stroke="#000000" stroke-opacity="0.6" stroke-width="3.072"/>
<circle clip-path="url(#clip802)" cx="1600.53" cy="432.3" r="7.2" fill="#78c2ad" fill-rule="evenodd" fill-opacity="0.6" stroke="#000000" stroke-opacity="0.6" stroke-width="3.072"/>
<circle clip-path="url(#clip802)" cx="1543.13" cy="397.813" r="7.2" fill="#78c2ad" fill-rule="evenodd" fill-opacity="0.6" stroke="#000000" stroke-opacity="0.6" stroke-width="3.072"/>
<circle clip-path="url(#clip802)" cx="1485.72" cy="363.326" r="7.2" fill="#78c2ad" fill-rule="evenodd" fill-opacity="0.6" stroke="#000000" stroke-opacity="0.6" stroke-width="3.072"/>
<circle clip-path="url(#clip802)" cx="1428.31" cy="328.838" r="7.2" fill="#78c2ad" fill-rule="evenodd" fill-opacity="0.6" stroke="#000000" stroke-opacity="0.6" stroke-width="3.072"/>
<circle clip-path="url(#clip802)" cx="1370.91" cy="294.351" r="7.2" fill="#78c2ad" fill-rule="evenodd" fill-opacity="0.6" stroke="#000000" stroke-opacity="0.6" stroke-width="3.072"/>
<circle clip-path="url(#clip802)" cx="1313.5" cy="259.863" r="7.2" fill="#78c2ad" fill-rule="evenodd" fill-opacity="0.6" stroke="#000000" stroke-opacity="0.6" stroke-width="3.072"/>
<circle clip-path="url(#clip802)" cx="1256.09" cy="225.376" r="7.2" fill="#78c2ad" fill-rule="evenodd" fill-opacity="0.6" stroke="#000000" stroke-opacity="0.6" stroke-width="3.072"/>
<circle clip-path="url(#clip802)" cx="1198.69" cy="190.889" r="7.2" fill="#78c2ad" fill-rule="evenodd" fill-opacity="0.6" stroke="#000000" stroke-opacity="0.6" stroke-width="3.072"/>
<circle clip-path="url(#clip802)" cx="1141.28" cy="158.463" r="7.2" fill="#78c2ad" fill-rule="evenodd" fill-opacity="0.6" stroke="#000000" stroke-opacity="0.6" stroke-width="3.072"/>
<circle clip-path="url(#clip802)" cx="1083.87" cy="192.95" r="7.2" fill="#78c2ad" fill-rule="evenodd" fill-opacity="0.6" stroke="#000000" stroke-opacity="0.6" stroke-width="3.072"/>
<circle clip-path="url(#clip802)" cx="1099.03" cy="227.438" r="7.2" fill="#78c2ad" fill-rule="evenodd" fill-opacity="0.6" stroke="#000000" stroke-opacity="0.6" stroke-width="3.072"/>
<circle clip-path="url(#clip802)" cx="1156.44" cy="261.925" r="7.2" fill="#78c2ad" fill-rule="evenodd" fill-opacity="0.6" stroke="#000000" stroke-opacity="0.6" stroke-width="3.072"/>
<circle clip-path="url(#clip802)" cx="1213.84" cy="296.413" r="7.2" fill="#78c2ad" fill-rule="evenodd" fill-opacity="0.6" stroke="#000000" stroke-opacity="0.6" stroke-width="3.072"/>
<circle clip-path="url(#clip802)" cx="1271.25" cy="330.9" r="7.2" fill="#78c2ad" fill-rule="evenodd" fill-opacity="0.6" stroke="#000000" stroke-opacity="0.6" stroke-width="3.072"/>
<circle clip-path="url(#clip802)" cx="1328.66" cy="365.387" r="7.2" fill="#78c2ad" fill-rule="evenodd" fill-opacity="0.6" stroke="#000000" stroke-opacity="0.6" stroke-width="3.072"/>
<circle clip-path="url(#clip802)" cx="1386.06" cy="399.875" r="7.2" fill="#78c2ad" fill-rule="evenodd" fill-opacity="0.6" stroke="#000000" stroke-opacity="0.6" stroke-width="3.072"/>
<circle clip-path="url(#clip802)" cx="1443.47" cy="434.362" r="7.2" fill="#78c2ad" fill-rule="evenodd" fill-opacity="0.6" stroke="#000000" stroke-opacity="0.6" stroke-width="3.072"/>
<circle clip-path="url(#clip802)" cx="1500.88" cy="468.85" r="7.2" fill="#78c2ad" fill-rule="evenodd" fill-opacity="0.6" stroke="#000000" stroke-opacity="0.6" stroke-width="3.072"/>
<circle clip-path="url(#clip802)" cx="1558.28" cy="503.337" r="7.2" fill="#78c2ad" fill-rule="evenodd" fill-opacity="0.6" stroke="#000000" stroke-opacity="0.6" stroke-width="3.072"/>
<circle clip-path="url(#clip802)" cx="1615.69" cy="537.824" r="7.2" fill="#78c2ad" fill-rule="evenodd" fill-opacity="0.6" stroke="#000000" stroke-opacity="0.6" stroke-width="3.072"/>
<circle clip-path="url(#clip802)" cx="1673.1" cy="572.312" r="7.2" fill="#78c2ad" fill-rule="evenodd" fill-opacity="0.6" stroke="#000000" stroke-opacity="0.6" stroke-width="3.072"/>
<circle clip-path="url(#clip802)" cx="1730.5" cy="606.799" r="7.2" fill="#78c2ad" fill-rule="evenodd" fill-opacity="0.6" stroke="#000000" stroke-opacity="0.6" stroke-width="3.072"/>
<circle clip-path="url(#clip802)" cx="1732.51" cy="641.287" r="7.2" fill="#78c2ad" fill-rule="evenodd" fill-opacity="0.6" stroke="#000000" stroke-opacity="0.6" stroke-width="3.072"/>
<circle clip-path="url(#clip802)" cx="1675.11" cy="675.774" r="7.2" fill="#78c2ad" fill-rule="evenodd" fill-opacity="0.6" stroke="#000000" stroke-opacity="0.6" stroke-width="3.072"/>
<circle clip-path="url(#clip802)" cx="1617.7" cy="710.261" r="7.2" fill="#78c2ad" fill-rule="evenodd" fill-opacity="0.6" stroke="#000000" stroke-opacity="0.6" stroke-width="3.072"/>
<circle clip-path="url(#clip802)" cx="1560.29" cy="744.749" r="7.2" fill="#78c2ad" fill-rule="evenodd" fill-opacity="0.6" stroke="#000000" stroke-opacity="0.6" stroke-width="3.072"/>
<circle clip-path="url(#clip802)" cx="1502.89" cy="779.236" r="7.2" fill="#78c2ad" fill-rule="evenodd" fill-opacity="0.6" stroke="#000000" stroke-opacity="0.6" stroke-width="3.072"/>
<circle clip-path="url(#clip802)" cx="1445.48" cy="813.723" r="7.2" fill="#78c2ad" fill-rule="evenodd" fill-opacity="0.6" stroke="#000000" stroke-opacity="0.6" stroke-width="3.072"/>
<circle clip-path="url(#clip802)" cx="1388.07" cy="848.211" r="7.2" fill="#78c2ad" fill-rule="evenodd" fill-opacity="0.6" stroke="#000000" stroke-opacity="0.6" stroke-width="3.072"/>
<circle clip-path="url(#clip802)" cx="1330.67" cy="882.698" r="7.2" fill="#78c2ad" fill-rule="evenodd" fill-opacity="0.6" stroke="#000000" stroke-opacity="0.6" stroke-width="3.072"/>
<circle clip-path="url(#clip802)" cx="1273.26" cy="917.186" r="7.2" fill="#78c2ad" fill-rule="evenodd" fill-opacity="0.6" stroke="#000000" stroke-opacity="0.6" stroke-width="3.072"/>
<circle clip-path="url(#clip802)" cx="1215.85" cy="951.673" r="7.2" fill="#78c2ad" fill-rule="evenodd" fill-opacity="0.6" stroke="#000000" stroke-opacity="0.6" stroke-width="3.072"/>
<circle clip-path="url(#clip802)" cx="1158.45" cy="986.16" r="7.2" fill="#78c2ad" fill-rule="evenodd" fill-opacity="0.6" stroke="#000000" stroke-opacity="0.6" stroke-width="3.072"/>
<circle clip-path="url(#clip802)" cx="1101.04" cy="1020.65" r="7.2" fill="#78c2ad" fill-rule="evenodd" fill-opacity="0.6" stroke="#000000" stroke-opacity="0.6" stroke-width="3.072"/>
<circle clip-path="url(#clip802)" cx="1113.31" cy="1055.14" r="7.2" fill="#78c2ad" fill-rule="evenodd" fill-opacity="0.6" stroke="#000000" stroke-opacity="0.6" stroke-width="3.072"/>
<circle clip-path="url(#clip802)" cx="1170.72" cy="1077.18" r="7.2" fill="#78c2ad" fill-rule="evenodd" fill-opacity="0.6" stroke="#000000" stroke-opacity="0.6" stroke-width="3.072"/>
<circle clip-path="url(#clip802)" cx="1228.12" cy="1042.69" r="7.2" fill="#78c2ad" fill-rule="evenodd" fill-opacity="0.6" stroke="#000000" stroke-opacity="0.6" stroke-width="3.072"/>
<circle clip-path="url(#clip802)" cx="1285.53" cy="1008.2" r="7.2" fill="#78c2ad" fill-rule="evenodd" fill-opacity="0.6" stroke="#000000" stroke-opacity="0.6" stroke-width="3.072"/>
<circle clip-path="url(#clip802)" cx="1342.94" cy="973.715" r="7.2" fill="#78c2ad" fill-rule="evenodd" fill-opacity="0.6" stroke="#000000" stroke-opacity="0.6" stroke-width="3.072"/>
<circle clip-path="url(#clip802)" cx="1400.34" cy="939.228" r="7.2" fill="#78c2ad" fill-rule="evenodd" fill-opacity="0.6" stroke="#000000" stroke-opacity="0.6" stroke-width="3.072"/>
<circle clip-path="url(#clip802)" cx="1457.75" cy="904.741" r="7.2" fill="#78c2ad" fill-rule="evenodd" fill-opacity="0.6" stroke="#000000" stroke-opacity="0.6" stroke-width="3.072"/>
<circle clip-path="url(#clip802)" cx="1515.16" cy="870.253" r="7.2" fill="#78c2ad" fill-rule="evenodd" fill-opacity="0.6" stroke="#000000" stroke-opacity="0.6" stroke-width="3.072"/>
<circle clip-path="url(#clip802)" cx="1572.56" cy="835.766" r="7.2" fill="#78c2ad" fill-rule="evenodd" fill-opacity="0.6" stroke="#000000" stroke-opacity="0.6" stroke-width="3.072"/>
<circle clip-path="url(#clip802)" cx="1629.97" cy="801.279" r="7.2" fill="#78c2ad" fill-rule="evenodd" fill-opacity="0.6" stroke="#000000" stroke-opacity="0.6" stroke-width="3.072"/>
<circle clip-path="url(#clip802)" cx="1625.51" cy="766.791" r="7.2" fill="#78c2ad" fill-rule="evenodd" fill-opacity="0.6" stroke="#000000" stroke-opacity="0.6" stroke-width="3.072"/>
<circle clip-path="url(#clip802)" cx="1568.1" cy="732.304" r="7.2" fill="#78c2ad" fill-rule="evenodd" fill-opacity="0.6" stroke="#000000" stroke-opacity="0.6" stroke-width="3.072"/>
<circle clip-path="url(#clip802)" cx="1510.69" cy="724.78" r="7.2" fill="#78c2ad" fill-rule="evenodd" fill-opacity="0.6" stroke="#000000" stroke-opacity="0.6" stroke-width="3.072"/>
<circle clip-path="url(#clip802)" cx="1453.29" cy="759.267" r="7.2" fill="#78c2ad" fill-rule="evenodd" fill-opacity="0.6" stroke="#000000" stroke-opacity="0.6" stroke-width="3.072"/>
<circle clip-path="url(#clip802)" cx="1395.88" cy="793.754" r="7.2" fill="#78c2ad" fill-rule="evenodd" fill-opacity="0.6" stroke="#000000" stroke-opacity="0.6" stroke-width="3.072"/>
<circle clip-path="url(#clip802)" cx="1338.47" cy="828.242" r="7.2" fill="#78c2ad" fill-rule="evenodd" fill-opacity="0.6" stroke="#000000" stroke-opacity="0.6" stroke-width="3.072"/>
<circle clip-path="url(#clip802)" cx="1281.07" cy="862.729" r="7.2" fill="#78c2ad" fill-rule="evenodd" fill-opacity="0.6" stroke="#000000" stroke-opacity="0.6" stroke-width="3.072"/>
<circle clip-path="url(#clip802)" cx="1223.66" cy="897.217" r="7.2" fill="#78c2ad" fill-rule="evenodd" fill-opacity="0.6" stroke="#000000" stroke-opacity="0.6" stroke-width="3.072"/>
<circle clip-path="url(#clip802)" cx="1166.25" cy="931.704" r="7.2" fill="#78c2ad" fill-rule="evenodd" fill-opacity="0.6" stroke="#000000" stroke-opacity="0.6" stroke-width="3.072"/>
<circle clip-path="url(#clip802)" cx="1108.85" cy="966.191" r="7.2" fill="#78c2ad" fill-rule="evenodd" fill-opacity="0.6" stroke="#000000" stroke-opacity="0.6" stroke-width="3.072"/>
<circle clip-path="url(#clip802)" cx="1051.44" cy="1000.68" r="7.2" fill="#78c2ad" fill-rule="evenodd" fill-opacity="0.6" stroke="#000000" stroke-opacity="0.6" stroke-width="3.072"/>
<circle clip-path="url(#clip802)" cx="994.033" cy="1035.17" r="7.2" fill="#78c2ad" fill-rule="evenodd" fill-opacity="0.6" stroke="#000000" stroke-opacity="0.6" stroke-width="3.072"/>
<circle clip-path="url(#clip802)" cx="936.626" cy="1069.65" r="7.2" fill="#78c2ad" fill-rule="evenodd" fill-opacity="0.6" stroke="#000000" stroke-opacity="0.6" stroke-width="3.072"/>
<circle clip-path="url(#clip802)" cx="879.22" cy="1104.14" r="7.2" fill="#78c2ad" fill-rule="evenodd" fill-opacity="0.6" stroke="#000000" stroke-opacity="0.6" stroke-width="3.072"/>
<circle clip-path="url(#clip802)" cx="821.813" cy="1138.63" r="7.2" fill="#78c2ad" fill-rule="evenodd" fill-opacity="0.6" stroke="#000000" stroke-opacity="0.6" stroke-width="3.072"/>
<circle clip-path="url(#clip802)" cx="764.406" cy="1173.12" r="7.2" fill="#78c2ad" fill-rule="evenodd" fill-opacity="0.6" stroke="#000000" stroke-opacity="0.6" stroke-width="3.072"/>
<circle clip-path="url(#clip802)" cx="707" cy="1207.6" r="7.2" fill="#78c2ad" fill-rule="evenodd" fill-opacity="0.6" stroke="#000000" stroke-opacity="0.6" stroke-width="3.072"/>
<circle clip-path="url(#clip802)" cx="649.593" cy="1242.09" r="7.2" fill="#78c2ad" fill-rule="evenodd" fill-opacity="0.6" stroke="#000000" stroke-opacity="0.6" stroke-width="3.072"/>
<circle clip-path="url(#clip802)" cx="616.724" cy="1276.58" r="7.2" fill="#78c2ad" fill-rule="evenodd" fill-opacity="0.6" stroke="#000000" stroke-opacity="0.6" stroke-width="3.072"/>
<circle clip-path="url(#clip802)" cx="674.13" cy="1311.07" r="7.2" fill="#78c2ad" fill-rule="evenodd" fill-opacity="0.6" stroke="#000000" stroke-opacity="0.6" stroke-width="3.072"/>
<circle clip-path="url(#clip802)" cx="731.537" cy="1324.83" r="7.2" fill="#78c2ad" fill-rule="evenodd" fill-opacity="0.6" stroke="#000000" stroke-opacity="0.6" stroke-width="3.072"/>
<circle clip-path="url(#clip802)" cx="788.944" cy="1290.34" r="7.2" fill="#78c2ad" fill-rule="evenodd" fill-opacity="0.6" stroke="#000000" stroke-opacity="0.6" stroke-width="3.072"/>
<circle clip-path="url(#clip802)" cx="846.35" cy="1255.85" r="7.2" fill="#78c2ad" fill-rule="evenodd" fill-opacity="0.6" stroke="#000000" stroke-opacity="0.6" stroke-width="3.072"/>
<circle clip-path="url(#clip802)" cx="903.757" cy="1221.37" r="7.2" fill="#78c2ad" fill-rule="evenodd" fill-opacity="0.6" stroke="#000000" stroke-opacity="0.6" stroke-width="3.072"/>
<circle clip-path="url(#clip802)" cx="961.163" cy="1186.88" r="7.2" fill="#78c2ad" fill-rule="evenodd" fill-opacity="0.6" stroke="#000000" stroke-opacity="0.6" stroke-width="3.072"/>
<circle clip-path="url(#clip802)" cx="1018.57" cy="1152.39" r="7.2" fill="#78c2ad" fill-rule="evenodd" fill-opacity="0.6" stroke="#000000" stroke-opacity="0.6" stroke-width="3.072"/>
<circle clip-path="url(#clip802)" cx="1075.98" cy="1117.9" r="7.2" fill="#78c2ad" fill-rule="evenodd" fill-opacity="0.6" stroke="#000000" stroke-opacity="0.6" stroke-width="3.072"/>
<circle clip-path="url(#clip802)" cx="1133.38" cy="1083.42" r="7.2" fill="#78c2ad" fill-rule="evenodd" fill-opacity="0.6" stroke="#000000" stroke-opacity="0.6" stroke-width="3.072"/>
<circle clip-path="url(#clip802)" cx="1190.79" cy="1048.93" r="7.2" fill="#78c2ad" fill-rule="evenodd" fill-opacity="0.6" stroke="#000000" stroke-opacity="0.6" stroke-width="3.072"/>
<circle clip-path="url(#clip802)" cx="1248.2" cy="1014.44" r="7.2" fill="#78c2ad" fill-rule="evenodd" fill-opacity="0.6" stroke="#000000" stroke-opacity="0.6" stroke-width="3.072"/>
<circle clip-path="url(#clip802)" cx="1305.6" cy="979.955" r="7.2" fill="#78c2ad" fill-rule="evenodd" fill-opacity="0.6" stroke="#000000" stroke-opacity="0.6" stroke-width="3.072"/>
<circle clip-path="url(#clip802)" cx="1363.01" cy="945.468" r="7.2" fill="#78c2ad" fill-rule="evenodd" fill-opacity="0.6" stroke="#000000" stroke-opacity="0.6" stroke-width="3.072"/>
<circle clip-path="url(#clip802)" cx="1420.42" cy="910.98" r="7.2" fill="#78c2ad" fill-rule="evenodd" fill-opacity="0.6" stroke="#000000" stroke-opacity="0.6" stroke-width="3.072"/>
<circle clip-path="url(#clip802)" cx="1477.82" cy="876.493" r="7.2" fill="#78c2ad" fill-rule="evenodd" fill-opacity="0.6" stroke="#000000" stroke-opacity="0.6" stroke-width="3.072"/>
<circle clip-path="url(#clip802)" cx="1243.63" cy="955.398" r="21.6" fill="#008000" fill-rule="evenodd" fill-opacity="1" stroke="#000000" stroke-opacity="1" stroke-width="3.072"/>
<circle clip-path="url(#clip802)" cx="1477.82" cy="876.493" r="21.6" fill="#ff0000" fill-rule="evenodd" fill-opacity="1" stroke="#000000" stroke-opacity="1" stroke-width="3.072"/>
<path clip-path="url(#clip800)" d="M278.018 372.044 L951.787 372.044 L951.787 164.684 L278.018 164.684  Z" fill="#ffffff" fill-rule="evenodd" fill-opacity="1"/>
<polyline clip-path="url(#clip800)" style="stroke:#000000; stroke-linecap:round; stroke-linejoin:round; stroke-width:4; stroke-opacity:1; fill:none" points="278.018,372.044 951.787,372.044 951.787,164.684 278.018,164.684 278.018,372.044 "/>
<polyline clip-path="url(#clip800)" style="stroke:#78c2ad; stroke-linecap:round; stroke-linejoin:round; stroke-width:8; stroke-opacity:1; fill:none" points="300.762,216.524 437.227,216.524 "/>
<circle clip-path="url(#clip800)" cx="368.995" cy="216.524" r="18.432" fill="#78c2ad" fill-rule="evenodd" fill-opacity="0.6" stroke="#000000" stroke-opacity="0.6" stroke-width="7.86432"/>
<path clip-path="url(#clip800)" d="M460.504 199.244 L487.656 199.244 L487.656 202.809 L465.804 229.869 L488.189 229.869 L488.189 233.804 L459.971 233.804 L459.971 230.239 L481.823 203.179 L460.504 203.179 L460.504 199.244 Z" fill="#000000" fill-rule="nonzero" fill-opacity="1" /><path clip-path="url(#clip800)" d="M494.786 207.878 L499.045 207.878 L499.045 233.804 L494.786 233.804 L494.786 207.878 M494.786 197.785 L499.045 197.785 L499.045 203.179 L494.786 203.179 L494.786 197.785 Z" fill="#000000" fill-rule="nonzero" fill-opacity="1" /><path clip-path="url(#clip800)" d="M525.017 220.54 Q525.017 215.91 523.096 213.364 Q521.198 210.818 517.749 210.818 Q514.323 210.818 512.401 213.364 Q510.503 215.91 510.503 220.54 Q510.503 225.146 512.401 227.693 Q514.323 230.239 517.749 230.239 Q521.198 230.239 523.096 227.693 Q525.017 225.146 525.017 220.54 M529.276 230.586 Q529.276 237.206 526.337 240.424 Q523.397 243.665 517.332 243.665 Q515.087 243.665 513.096 243.318 Q511.105 242.993 509.23 242.299 L509.23 238.156 Q511.105 239.174 512.934 239.66 Q514.763 240.146 516.661 240.146 Q520.85 240.146 522.934 237.947 Q525.017 235.771 525.017 231.35 L525.017 229.244 Q523.698 231.535 521.637 232.669 Q519.577 233.804 516.707 233.804 Q511.938 233.804 509.022 230.169 Q506.105 226.535 506.105 220.54 Q506.105 214.521 509.022 210.887 Q511.938 207.253 516.707 207.253 Q519.577 207.253 521.637 208.387 Q523.698 209.521 525.017 211.813 L525.017 207.878 L529.276 207.878 L529.276 230.586 Z" fill="#000000" fill-rule="nonzero" fill-opacity="1" /><path clip-path="url(#clip800)" d="M536.244 199.244 L563.397 199.244 L563.397 202.809 L541.545 229.869 L563.929 229.869 L563.929 233.804 L535.711 233.804 L535.711 230.239 L557.563 203.179 L536.244 203.179 L536.244 199.244 Z" fill="#000000" fill-rule="nonzero" fill-opacity="1" /><path clip-path="url(#clip800)" d="M582.308 220.771 Q577.146 220.771 575.156 221.952 Q573.165 223.132 573.165 225.98 Q573.165 228.248 574.646 229.591 Q576.151 230.91 578.721 230.91 Q582.262 230.91 584.392 228.41 Q586.545 225.887 586.545 221.72 L586.545 220.771 L582.308 220.771 M590.804 219.012 L590.804 233.804 L586.545 233.804 L586.545 229.869 Q585.086 232.23 582.91 233.364 Q580.734 234.475 577.586 234.475 Q573.605 234.475 571.244 232.253 Q568.906 230.007 568.906 226.257 Q568.906 221.882 571.822 219.66 Q574.762 217.438 580.572 217.438 L586.545 217.438 L586.545 217.021 Q586.545 214.082 584.6 212.484 Q582.679 210.864 579.183 210.864 Q576.961 210.864 574.855 211.396 Q572.748 211.929 570.804 212.994 L570.804 209.058 Q573.142 208.156 575.341 207.716 Q577.54 207.253 579.623 207.253 Q585.248 207.253 588.026 210.17 Q590.804 213.086 590.804 219.012 Z" fill="#000000" fill-rule="nonzero" fill-opacity="1" /><path clip-path="url(#clip800)" d="M616.637 220.54 Q616.637 215.91 614.716 213.364 Q612.818 210.818 609.369 210.818 Q605.943 210.818 604.021 213.364 Q602.123 215.91 602.123 220.54 Q602.123 225.146 604.021 227.693 Q605.943 230.239 609.369 230.239 Q612.818 230.239 614.716 227.693 Q616.637 225.146 616.637 220.54 M620.896 230.586 Q620.896 237.206 617.956 240.424 Q615.017 243.665 608.952 243.665 Q606.706 243.665 604.716 243.318 Q602.725 242.993 600.85 242.299 L600.85 238.156 Q602.725 239.174 604.554 239.66 Q606.382 240.146 608.281 240.146 Q612.47 240.146 614.554 237.947 Q616.637 235.771 616.637 231.35 L616.637 229.244 Q615.318 231.535 613.257 232.669 Q611.197 233.804 608.327 233.804 Q603.558 233.804 600.642 230.169 Q597.725 226.535 597.725 220.54 Q597.725 214.521 600.642 210.887 Q603.558 207.253 608.327 207.253 Q611.197 207.253 613.257 208.387 Q615.318 209.521 616.637 211.813 L616.637 207.878 L620.896 207.878 L620.896 230.586 Z" fill="#000000" fill-rule="nonzero" fill-opacity="1" /><path clip-path="url(#clip800)" d="M634.299 229.869 L650.618 229.869 L650.618 233.804 L628.674 233.804 L628.674 229.869 Q631.336 227.114 635.919 222.484 Q640.526 217.832 641.706 216.489 Q643.952 213.966 644.831 212.23 Q645.734 210.471 645.734 208.781 Q645.734 206.026 643.79 204.29 Q641.868 202.554 638.767 202.554 Q636.567 202.554 634.114 203.318 Q631.683 204.082 628.905 205.633 L628.905 200.91 Q631.73 199.776 634.183 199.197 Q636.637 198.619 638.674 198.619 Q644.044 198.619 647.239 201.304 Q650.433 203.989 650.433 208.48 Q650.433 210.609 649.623 212.531 Q648.836 214.429 646.729 217.021 Q646.151 217.693 643.049 220.91 Q639.947 224.105 634.299 229.869 Z" fill="#000000" fill-rule="nonzero" fill-opacity="1" /><path clip-path="url(#clip800)" d="M664.692 203.086 L664.692 229.961 L670.34 229.961 Q677.493 229.961 680.803 226.72 Q684.137 223.48 684.137 216.489 Q684.137 209.545 680.803 206.327 Q677.493 203.086 670.34 203.086 L664.692 203.086 M660.016 199.244 L669.623 199.244 Q679.669 199.244 684.368 203.434 Q689.067 207.6 689.067 216.489 Q689.067 225.424 684.345 229.614 Q679.623 233.804 669.623 233.804 L660.016 233.804 L660.016 199.244 Z" fill="#000000" fill-rule="nonzero" fill-opacity="1" /><path clip-path="url(#clip800)" d="M716.035 241.674 L716.035 244.984 L691.405 244.984 L691.405 241.674 L716.035 241.674 Z" fill="#000000" fill-rule="nonzero" fill-opacity="1" /><path clip-path="url(#clip800)" d="M743.789 228.873 L743.789 219.591 L736.15 219.591 L736.15 215.748 L748.419 215.748 L748.419 230.586 Q745.71 232.507 742.447 233.503 Q739.183 234.475 735.479 234.475 Q727.377 234.475 722.794 229.753 Q718.234 225.007 718.234 216.558 Q718.234 208.086 722.794 203.364 Q727.377 198.619 735.479 198.619 Q738.859 198.619 741.891 199.452 Q744.946 200.285 747.516 201.906 L747.516 206.883 Q744.923 204.684 742.007 203.572 Q739.09 202.461 735.872 202.461 Q729.53 202.461 726.335 206.003 Q723.164 209.545 723.164 216.558 Q723.164 223.549 726.335 227.091 Q729.53 230.632 735.872 230.632 Q738.349 230.632 740.294 230.216 Q742.238 229.776 743.789 228.873 Z" fill="#000000" fill-rule="nonzero" fill-opacity="1" /><path clip-path="url(#clip800)" d="M768.557 220.771 Q763.395 220.771 761.405 221.952 Q759.414 223.132 759.414 225.98 Q759.414 228.248 760.895 229.591 Q762.4 230.91 764.97 230.91 Q768.511 230.91 770.641 228.41 Q772.794 225.887 772.794 221.72 L772.794 220.771 L768.557 220.771 M777.053 219.012 L777.053 233.804 L772.794 233.804 L772.794 229.869 Q771.335 232.23 769.159 233.364 Q766.983 234.475 763.835 234.475 Q759.854 234.475 757.493 232.253 Q755.155 230.007 755.155 226.257 Q755.155 221.882 758.071 219.66 Q761.011 217.438 766.821 217.438 L772.794 217.438 L772.794 217.021 Q772.794 214.082 770.849 212.484 Q768.928 210.864 765.432 210.864 Q763.21 210.864 761.104 211.396 Q758.997 211.929 757.053 212.994 L757.053 209.058 Q759.391 208.156 761.59 207.716 Q763.789 207.253 765.872 207.253 Q771.497 207.253 774.275 210.17 Q777.053 213.086 777.053 219.012 Z" fill="#000000" fill-rule="nonzero" fill-opacity="1" /><path clip-path="url(#clip800)" d="M785.386 223.572 L785.386 207.878 L789.645 207.878 L789.645 223.41 Q789.645 227.091 791.08 228.943 Q792.516 230.771 795.386 230.771 Q798.835 230.771 800.826 228.572 Q802.84 226.373 802.84 222.577 L802.84 207.878 L807.099 207.878 L807.099 233.804 L802.84 233.804 L802.84 229.822 Q801.289 232.183 799.229 233.341 Q797.192 234.475 794.483 234.475 Q790.016 234.475 787.701 231.697 Q785.386 228.919 785.386 223.572 M796.104 207.253 L796.104 207.253 Z" fill="#000000" fill-rule="nonzero" fill-opacity="1" /><path clip-path="url(#clip800)" d="M832.4 208.642 L832.4 212.67 Q830.594 211.744 828.65 211.281 Q826.705 210.818 824.622 210.818 Q821.451 210.818 819.853 211.79 Q818.279 212.762 818.279 214.707 Q818.279 216.188 819.414 217.045 Q820.548 217.878 823.974 218.642 L825.432 218.966 Q829.969 219.938 831.867 221.72 Q833.789 223.48 833.789 226.651 Q833.789 230.262 830.918 232.369 Q828.071 234.475 823.071 234.475 Q820.988 234.475 818.719 234.058 Q816.474 233.665 813.974 232.855 L813.974 228.457 Q816.335 229.683 818.627 230.308 Q820.918 230.91 823.164 230.91 Q826.173 230.91 827.793 229.892 Q829.414 228.85 829.414 226.975 Q829.414 225.239 828.233 224.313 Q827.076 223.387 823.117 222.531 L821.636 222.183 Q817.678 221.35 815.918 219.637 Q814.159 217.901 814.159 214.892 Q814.159 211.234 816.752 209.244 Q819.344 207.253 824.113 207.253 Q826.474 207.253 828.557 207.6 Q830.64 207.947 832.4 208.642 Z" fill="#000000" fill-rule="nonzero" fill-opacity="1" /><path clip-path="url(#clip800)" d="M857.099 208.642 L857.099 212.67 Q855.293 211.744 853.349 211.281 Q851.404 210.818 849.321 210.818 Q846.15 210.818 844.552 211.79 Q842.978 212.762 842.978 214.707 Q842.978 216.188 844.113 217.045 Q845.247 217.878 848.673 218.642 L850.131 218.966 Q854.668 219.938 856.566 221.72 Q858.488 223.48 858.488 226.651 Q858.488 230.262 855.617 232.369 Q852.77 234.475 847.77 234.475 Q845.687 234.475 843.418 234.058 Q841.173 233.665 838.673 232.855 L838.673 228.457 Q841.034 229.683 843.326 230.308 Q845.617 230.91 847.863 230.91 Q850.872 230.91 852.492 229.892 Q854.113 228.85 854.113 226.975 Q854.113 225.239 852.932 224.313 Q851.775 223.387 847.816 222.531 L846.335 222.183 Q842.377 221.35 840.617 219.637 Q838.858 217.901 838.858 214.892 Q838.858 211.234 841.451 209.244 Q844.043 207.253 848.812 207.253 Q851.173 207.253 853.256 207.6 Q855.339 207.947 857.099 208.642 Z" fill="#000000" fill-rule="nonzero" fill-opacity="1" /><path clip-path="url(#clip800)" d="M865.27 207.878 L869.529 207.878 L869.529 233.804 L865.27 233.804 L865.27 207.878 M865.27 197.785 L869.529 197.785 L869.529 203.179 L865.27 203.179 L865.27 197.785 Z" fill="#000000" fill-rule="nonzero" fill-opacity="1" /><path clip-path="url(#clip800)" d="M890.223 220.771 Q885.061 220.771 883.071 221.952 Q881.08 223.132 881.08 225.98 Q881.08 228.248 882.561 229.591 Q884.066 230.91 886.636 230.91 Q890.177 230.91 892.307 228.41 Q894.46 225.887 894.46 221.72 L894.46 220.771 L890.223 220.771 M898.719 219.012 L898.719 233.804 L894.46 233.804 L894.46 229.869 Q893.001 232.23 890.825 233.364 Q888.649 234.475 885.501 234.475 Q881.52 234.475 879.159 232.253 Q876.821 230.007 876.821 226.257 Q876.821 221.882 879.737 219.66 Q882.677 217.438 888.487 217.438 L894.46 217.438 L894.46 217.021 Q894.46 214.082 892.515 212.484 Q890.594 210.864 887.099 210.864 Q884.876 210.864 882.77 211.396 Q880.663 211.929 878.719 212.994 L878.719 209.058 Q881.057 208.156 883.256 207.716 Q885.455 207.253 887.538 207.253 Q893.163 207.253 895.941 210.17 Q898.719 213.086 898.719 219.012 Z" fill="#000000" fill-rule="nonzero" fill-opacity="1" /><path clip-path="url(#clip800)" d="M929.043 218.156 L929.043 233.804 L924.783 233.804 L924.783 218.295 Q924.783 214.614 923.348 212.785 Q921.913 210.957 919.043 210.957 Q915.594 210.957 913.603 213.156 Q911.612 215.355 911.612 219.151 L911.612 233.804 L907.33 233.804 L907.33 207.878 L911.612 207.878 L911.612 211.906 Q913.14 209.568 915.2 208.41 Q917.284 207.253 919.992 207.253 Q924.459 207.253 926.751 210.031 Q929.043 212.785 929.043 218.156 Z" fill="#000000" fill-rule="nonzero" fill-opacity="1" /><circle clip-path="url(#clip800)" cx="368.995" cy="268.364" r="21.2677" fill="#008000" fill-rule="evenodd" fill-opacity="1" stroke="#000000" stroke-opacity="1" stroke-width="3.02474"/>
<path clip-path="url(#clip800)" d="M482.216 252.218 L482.216 256.778 Q479.554 255.505 477.193 254.88 Q474.832 254.255 472.633 254.255 Q468.814 254.255 466.73 255.736 Q464.67 257.218 464.67 259.949 Q464.67 262.241 466.036 263.422 Q467.425 264.579 471.267 265.297 L474.091 265.875 Q479.323 266.871 481.8 269.394 Q484.3 271.894 484.3 276.107 Q484.3 281.13 480.92 283.722 Q477.564 286.315 471.059 286.315 Q468.605 286.315 465.828 285.759 Q463.073 285.204 460.11 284.116 L460.11 279.301 Q462.957 280.898 465.689 281.709 Q468.42 282.519 471.059 282.519 Q475.064 282.519 477.24 280.945 Q479.416 279.371 479.416 276.454 Q479.416 273.908 477.841 272.472 Q476.291 271.037 472.726 270.32 L469.879 269.764 Q464.647 268.723 462.309 266.5 Q459.971 264.278 459.971 260.32 Q459.971 255.736 463.189 253.098 Q466.429 250.459 472.101 250.459 Q474.531 250.459 477.054 250.899 Q479.578 251.338 482.216 252.218 Z" fill="#000000" fill-rule="nonzero" fill-opacity="1" /><path clip-path="url(#clip800)" d="M495.619 252.357 L495.619 259.718 L504.392 259.718 L504.392 263.028 L495.619 263.028 L495.619 277.102 Q495.619 280.273 496.476 281.176 Q497.355 282.079 500.017 282.079 L504.392 282.079 L504.392 285.644 L500.017 285.644 Q495.087 285.644 493.212 283.815 Q491.337 281.963 491.337 277.102 L491.337 263.028 L488.212 263.028 L488.212 259.718 L491.337 259.718 L491.337 252.357 L495.619 252.357 Z" fill="#000000" fill-rule="nonzero" fill-opacity="1" /><path clip-path="url(#clip800)" d="M521.776 272.611 Q516.614 272.611 514.624 273.792 Q512.633 274.972 512.633 277.82 Q512.633 280.088 514.114 281.431 Q515.619 282.75 518.188 282.75 Q521.73 282.75 523.86 280.25 Q526.012 277.727 526.012 273.56 L526.012 272.611 L521.776 272.611 M530.272 270.852 L530.272 285.644 L526.012 285.644 L526.012 281.709 Q524.554 284.07 522.378 285.204 Q520.202 286.315 517.054 286.315 Q513.073 286.315 510.712 284.093 Q508.374 281.847 508.374 278.097 Q508.374 273.722 511.29 271.5 Q514.23 269.278 520.04 269.278 L526.012 269.278 L526.012 268.861 Q526.012 265.922 524.068 264.324 Q522.147 262.704 518.651 262.704 Q516.429 262.704 514.323 263.236 Q512.216 263.769 510.272 264.834 L510.272 260.898 Q512.61 259.996 514.809 259.556 Q517.008 259.093 519.091 259.093 Q524.716 259.093 527.494 262.01 Q530.272 264.926 530.272 270.852 Z" fill="#000000" fill-rule="nonzero" fill-opacity="1" /><path clip-path="url(#clip800)" d="M554.068 263.699 Q553.35 263.283 552.494 263.098 Q551.66 262.889 550.642 262.889 Q547.031 262.889 545.086 265.25 Q543.165 267.588 543.165 271.986 L543.165 285.644 L538.883 285.644 L538.883 259.718 L543.165 259.718 L543.165 263.746 Q544.508 261.385 546.661 260.25 Q548.813 259.093 551.892 259.093 Q552.332 259.093 552.864 259.162 Q553.397 259.209 554.045 259.324 L554.068 263.699 Z" fill="#000000" fill-rule="nonzero" fill-opacity="1" /><path clip-path="url(#clip800)" d="M562.748 252.357 L562.748 259.718 L571.521 259.718 L571.521 263.028 L562.748 263.028 L562.748 277.102 Q562.748 280.273 563.605 281.176 Q564.484 282.079 567.147 282.079 L571.521 282.079 L571.521 285.644 L567.147 285.644 Q562.216 285.644 560.341 283.815 Q558.466 281.963 558.466 277.102 L558.466 263.028 L555.341 263.028 L555.341 259.718 L558.466 259.718 L558.466 252.357 L562.748 252.357 Z" fill="#000000" fill-rule="nonzero" fill-opacity="1" /><circle clip-path="url(#clip800)" cx="368.995" cy="320.204" r="21.2677" fill="#ff0000" fill-rule="evenodd" fill-opacity="1" stroke="#000000" stroke-opacity="1" stroke-width="3.02474"/>
<path clip-path="url(#clip800)" d="M459.971 302.924 L481.823 302.924 L481.823 306.859 L464.647 306.859 L464.647 317.09 L481.105 317.09 L481.105 321.025 L464.647 321.025 L464.647 333.549 L482.24 333.549 L482.24 337.484 L459.971 337.484 L459.971 302.924 Z" fill="#000000" fill-rule="nonzero" fill-opacity="1" /><path clip-path="url(#clip800)" d="M511.29 321.836 L511.29 337.484 L507.031 337.484 L507.031 321.975 Q507.031 318.294 505.596 316.465 Q504.161 314.637 501.29 314.637 Q497.841 314.637 495.851 316.836 Q493.86 319.035 493.86 322.831 L493.86 337.484 L489.577 337.484 L489.577 311.558 L493.86 311.558 L493.86 315.586 Q495.388 313.248 497.448 312.09 Q499.531 310.933 502.239 310.933 Q506.707 310.933 508.999 313.711 Q511.29 316.465 511.29 321.836 Z" fill="#000000" fill-rule="nonzero" fill-opacity="1" /><path clip-path="url(#clip800)" d="M536.846 315.493 L536.846 301.465 L541.105 301.465 L541.105 337.484 L536.846 337.484 L536.846 333.595 Q535.503 335.91 533.443 337.044 Q531.406 338.155 528.536 338.155 Q523.837 338.155 520.874 334.405 Q517.934 330.655 517.934 324.544 Q517.934 318.433 520.874 314.683 Q523.837 310.933 528.536 310.933 Q531.406 310.933 533.443 312.067 Q535.503 313.178 536.846 315.493 M522.332 324.544 Q522.332 329.243 524.253 331.928 Q526.198 334.59 529.577 334.59 Q532.957 334.59 534.901 331.928 Q536.846 329.243 536.846 324.544 Q536.846 319.845 534.901 317.183 Q532.957 314.498 529.577 314.498 Q526.198 314.498 524.253 317.183 Q522.332 319.845 522.332 324.544 Z" fill="#000000" fill-rule="nonzero" fill-opacity="1" /></svg>
