<svg xmlns="http://www.w3.org/2000/svg" xmlns:xlink="http://www.w3.org/1999/xlink" width="600" height="400" viewBox="0 0 2400 1600">
<defs>
  <clipPath id="clip070">
    <rect x="0" y="0" width="2400" height="1600"></rect>
  </clipPath>
</defs>
<path clip-path="url(#clip070)" d="M0 1600 L2400 1600 L2400 8.88178e-14 L0 8.88178e-14  Z" fill="#ffffff" fill-rule="evenodd" fill-opacity="1"></path>
<defs>
  <clipPath id="clip071">
    <rect x="480" y="0" width="1681" height="1600"></rect>
  </clipPath>
</defs>
<path clip-path="url(#clip070)" d="M186.274 1486.45 L2352.76 1486.45 L2352.76 47.2441 L186.274 47.2441  Z" fill="#ffffff" fill-rule="evenodd" fill-opacity="1"></path>
<defs>
  <clipPath id="clip072">
    <rect x="186" y="47" width="2167" height="1440"></rect>
  </clipPath>
</defs>
<polyline clip-path="url(#clip072)" style="stroke:#000000; stroke-linecap:round; stroke-linejoin:round; stroke-width:2; stroke-opacity:0.1; fill:none" points="247.59,1486.45 247.59,47.2441 "></polyline>
<polyline clip-path="url(#clip072)" style="stroke:#000000; stroke-linecap:round; stroke-linejoin:round; stroke-width:2; stroke-opacity:0.1; fill:none" points="758.552,1486.45 758.552,47.2441 "></polyline>
<polyline clip-path="url(#clip072)" style="stroke:#000000; stroke-linecap:round; stroke-linejoin:round; stroke-width:2; stroke-opacity:0.1; fill:none" points="1269.51,1486.45 1269.51,47.2441 "></polyline>
<polyline clip-path="url(#clip072)" style="stroke:#000000; stroke-linecap:round; stroke-linejoin:round; stroke-width:2; stroke-opacity:0.1; fill:none" points="1780.48,1486.45 1780.48,47.2441 "></polyline>
<polyline clip-path="url(#clip072)" style="stroke:#000000; stroke-linecap:round; stroke-linejoin:round; stroke-width:2; stroke-opacity:0.1; fill:none" points="2291.44,1486.45 2291.44,47.2441 "></polyline>
<polyline clip-path="url(#clip072)" style="stroke:#000000; stroke-linecap:round; stroke-linejoin:round; stroke-width:2; stroke-opacity:0.1; fill:none" points="186.274,1236.77 2352.76,1236.77 "></polyline>
<polyline clip-path="url(#clip072)" style="stroke:#000000; stroke-linecap:round; stroke-linejoin:round; stroke-width:2; stroke-opacity:0.1; fill:none" points="186.274,950.019 2352.76,950.019 "></polyline>
<polyline clip-path="url(#clip072)" style="stroke:#000000; stroke-linecap:round; stroke-linejoin:round; stroke-width:2; stroke-opacity:0.1; fill:none" points="186.274,663.27 2352.76,663.27 "></polyline>
<polyline clip-path="url(#clip072)" style="stroke:#000000; stroke-linecap:round; stroke-linejoin:round; stroke-width:2; stroke-opacity:0.1; fill:none" points="186.274,376.522 2352.76,376.522 "></polyline>
<polyline clip-path="url(#clip072)" style="stroke:#000000; stroke-linecap:round; stroke-linejoin:round; stroke-width:2; stroke-opacity:0.1; fill:none" points="186.274,89.7736 2352.76,89.7736 "></polyline>
<polyline clip-path="url(#clip070)" style="stroke:#000000; stroke-linecap:round; stroke-linejoin:round; stroke-width:4; stroke-opacity:1; fill:none" points="186.274,1486.45 2352.76,1486.45 "></polyline>
<polyline clip-path="url(#clip070)" style="stroke:#000000; stroke-linecap:round; stroke-linejoin:round; stroke-width:4; stroke-opacity:1; fill:none" points="247.59,1486.45 247.59,1467.55 "></polyline>
<polyline clip-path="url(#clip070)" style="stroke:#000000; stroke-linecap:round; stroke-linejoin:round; stroke-width:4; stroke-opacity:1; fill:none" points="758.552,1486.45 758.552,1467.55 "></polyline>
<polyline clip-path="url(#clip070)" style="stroke:#000000; stroke-linecap:round; stroke-linejoin:round; stroke-width:4; stroke-opacity:1; fill:none" points="1269.51,1486.45 1269.51,1467.55 "></polyline>
<polyline clip-path="url(#clip070)" style="stroke:#000000; stroke-linecap:round; stroke-linejoin:round; stroke-width:4; stroke-opacity:1; fill:none" points="1780.48,1486.45 1780.48,1467.55 "></polyline>
<polyline clip-path="url(#clip070)" style="stroke:#000000; stroke-linecap:round; stroke-linejoin:round; stroke-width:4; stroke-opacity:1; fill:none" points="2291.44,1486.45 2291.44,1467.55 "></polyline>
<path clip-path="url(#clip070)" d="M224.974 1517.37 Q221.363 1517.37 219.534 1520.93 Q217.729 1524.47 217.729 1531.6 Q217.729 1538.71 219.534 1542.27 Q221.363 1545.82 224.974 1545.82 Q228.608 1545.82 230.414 1542.27 Q232.242 1538.71 232.242 1531.6 Q232.242 1524.47 230.414 1520.93 Q228.608 1517.37 224.974 1517.37 M224.974 1513.66 Q230.784 1513.66 233.84 1518.27 Q236.918 1522.85 236.918 1531.6 Q236.918 1540.33 233.84 1544.94 Q230.784 1549.52 224.974 1549.52 Q219.164 1549.52 216.085 1544.94 Q213.03 1540.33 213.03 1531.6 Q213.03 1522.85 216.085 1518.27 Q219.164 1513.66 224.974 1513.66 Z" fill="#000000" fill-rule="nonzero" fill-opacity="1"></path><path clip-path="url(#clip070)" d="M245.136 1542.97 L250.02 1542.97 L250.02 1548.85 L245.136 1548.85 L245.136 1542.97 Z" fill="#000000" fill-rule="nonzero" fill-opacity="1"></path><path clip-path="url(#clip070)" d="M270.205 1517.37 Q266.594 1517.37 264.765 1520.93 Q262.96 1524.47 262.96 1531.6 Q262.96 1538.71 264.765 1542.27 Q266.594 1545.82 270.205 1545.82 Q273.839 1545.82 275.645 1542.27 Q277.474 1538.71 277.474 1531.6 Q277.474 1524.47 275.645 1520.93 Q273.839 1517.37 270.205 1517.37 M270.205 1513.66 Q276.015 1513.66 279.071 1518.27 Q282.15 1522.85 282.15 1531.6 Q282.15 1540.33 279.071 1544.94 Q276.015 1549.52 270.205 1549.52 Q264.395 1549.52 261.316 1544.94 Q258.261 1540.33 258.261 1531.6 Q258.261 1522.85 261.316 1518.27 Q264.395 1513.66 270.205 1513.66 Z" fill="#000000" fill-rule="nonzero" fill-opacity="1"></path><path clip-path="url(#clip070)" d="M730.289 1544.91 L746.608 1544.91 L746.608 1548.85 L724.664 1548.85 L724.664 1544.91 Q727.326 1542.16 731.909 1537.53 Q736.515 1532.88 737.696 1531.53 Q739.941 1529.01 740.821 1527.27 Q741.724 1525.51 741.724 1523.82 Q741.724 1521.07 739.779 1519.33 Q737.858 1517.6 734.756 1517.6 Q732.557 1517.6 730.103 1518.36 Q727.673 1519.13 724.895 1520.68 L724.895 1515.95 Q727.719 1514.82 730.173 1514.24 Q732.626 1513.66 734.663 1513.66 Q740.034 1513.66 743.228 1516.35 Q746.423 1519.03 746.423 1523.52 Q746.423 1525.65 745.612 1527.57 Q744.825 1529.47 742.719 1532.07 Q742.14 1532.74 739.038 1535.95 Q735.937 1539.15 730.289 1544.91 Z" fill="#000000" fill-rule="nonzero" fill-opacity="1"></path><path clip-path="url(#clip070)" d="M756.423 1542.97 L761.307 1542.97 L761.307 1548.85 L756.423 1548.85 L756.423 1542.97 Z" fill="#000000" fill-rule="nonzero" fill-opacity="1"></path><path clip-path="url(#clip070)" d="M771.538 1514.29 L789.895 1514.29 L789.895 1518.22 L775.821 1518.22 L775.821 1526.7 Q776.839 1526.35 777.858 1526.19 Q778.876 1526 779.895 1526 Q785.682 1526 789.061 1529.17 Q792.441 1532.34 792.441 1537.76 Q792.441 1543.34 788.969 1546.44 Q785.497 1549.52 779.177 1549.52 Q777.001 1549.52 774.733 1549.15 Q772.487 1548.78 770.08 1548.04 L770.08 1543.34 Q772.163 1544.47 774.385 1545.03 Q776.608 1545.58 779.085 1545.58 Q783.089 1545.58 785.427 1543.48 Q787.765 1541.37 787.765 1537.76 Q787.765 1534.15 785.427 1532.04 Q783.089 1529.94 779.085 1529.94 Q777.21 1529.94 775.335 1530.35 Q773.483 1530.77 771.538 1531.65 L771.538 1514.29 Z" fill="#000000" fill-rule="nonzero" fill-opacity="1"></path><path clip-path="url(#clip070)" d="M1236.68 1514.29 L1255.04 1514.29 L1255.04 1518.22 L1240.96 1518.22 L1240.96 1526.7 Q1241.98 1526.35 1243 1526.19 Q1244.02 1526 1245.04 1526 Q1250.82 1526 1254.2 1529.17 Q1257.58 1532.34 1257.58 1537.76 Q1257.58 1543.34 1254.11 1546.44 Q1250.64 1549.52 1244.32 1549.52 Q1242.14 1549.52 1239.87 1549.15 Q1237.63 1548.78 1235.22 1548.04 L1235.22 1543.34 Q1237.3 1544.47 1239.53 1545.03 Q1241.75 1545.58 1244.23 1545.58 Q1248.23 1545.58 1250.57 1543.48 Q1252.91 1541.37 1252.91 1537.76 Q1252.91 1534.15 1250.57 1532.04 Q1248.23 1529.94 1244.23 1529.94 Q1242.35 1529.94 1240.48 1530.35 Q1238.62 1530.77 1236.68 1531.65 L1236.68 1514.29 Z" fill="#000000" fill-rule="nonzero" fill-opacity="1"></path><path clip-path="url(#clip070)" d="M1266.8 1542.97 L1271.68 1542.97 L1271.68 1548.85 L1266.8 1548.85 L1266.8 1542.97 Z" fill="#000000" fill-rule="nonzero" fill-opacity="1"></path><path clip-path="url(#clip070)" d="M1291.86 1517.37 Q1288.25 1517.37 1286.42 1520.93 Q1284.62 1524.47 1284.62 1531.6 Q1284.62 1538.71 1286.42 1542.27 Q1288.25 1545.82 1291.86 1545.82 Q1295.5 1545.82 1297.3 1542.27 Q1299.13 1538.71 1299.13 1531.6 Q1299.13 1524.47 1297.3 1520.93 Q1295.5 1517.37 1291.86 1517.37 M1291.86 1513.66 Q1297.67 1513.66 1300.73 1518.27 Q1303.81 1522.85 1303.81 1531.6 Q1303.81 1540.33 1300.73 1544.94 Q1297.67 1549.52 1291.86 1549.52 Q1286.05 1549.52 1282.98 1544.94 Q1279.92 1540.33 1279.92 1531.6 Q1279.92 1522.85 1282.98 1518.27 Q1286.05 1513.66 1291.86 1513.66 Z" fill="#000000" fill-rule="nonzero" fill-opacity="1"></path><path clip-path="url(#clip070)" d="M1746.8 1514.29 L1769.02 1514.29 L1769.02 1516.28 L1756.47 1548.85 L1751.59 1548.85 L1763.39 1518.22 L1746.8 1518.22 L1746.8 1514.29 Z" fill="#000000" fill-rule="nonzero" fill-opacity="1"></path><path clip-path="url(#clip070)" d="M1778.14 1542.97 L1783.02 1542.97 L1783.02 1548.85 L1778.14 1548.85 L1778.14 1542.97 Z" fill="#000000" fill-rule="nonzero" fill-opacity="1"></path><path clip-path="url(#clip070)" d="M1793.26 1514.29 L1811.61 1514.29 L1811.61 1518.22 L1797.54 1518.22 L1797.54 1526.7 Q1798.56 1526.35 1799.57 1526.19 Q1800.59 1526 1801.61 1526 Q1807.4 1526 1810.78 1529.17 Q1814.16 1532.34 1814.16 1537.76 Q1814.16 1543.34 1810.69 1546.44 Q1807.21 1549.52 1800.89 1549.52 Q1798.72 1549.52 1796.45 1549.15 Q1794.2 1548.78 1791.8 1548.04 L1791.8 1543.34 Q1793.88 1544.47 1796.1 1545.03 Q1798.32 1545.58 1800.8 1545.58 Q1804.81 1545.58 1807.14 1543.48 Q1809.48 1541.37 1809.48 1537.76 Q1809.48 1534.15 1807.14 1532.04 Q1804.81 1529.94 1800.8 1529.94 Q1798.93 1529.94 1797.05 1530.35 Q1795.2 1530.77 1793.26 1531.65 L1793.26 1514.29 Z" fill="#000000" fill-rule="nonzero" fill-opacity="1"></path><path clip-path="url(#clip070)" d="M2243.51 1544.91 L2251.15 1544.91 L2251.15 1518.55 L2242.84 1520.21 L2242.84 1515.95 L2251.1 1514.29 L2255.78 1514.29 L2255.78 1544.91 L2263.42 1544.91 L2263.42 1548.85 L2243.51 1548.85 L2243.51 1544.91 Z" fill="#000000" fill-rule="nonzero" fill-opacity="1"></path><path clip-path="url(#clip070)" d="M2282.86 1517.37 Q2279.25 1517.37 2277.42 1520.93 Q2275.62 1524.47 2275.62 1531.6 Q2275.62 1538.71 2277.42 1542.27 Q2279.25 1545.82 2282.86 1545.82 Q2286.5 1545.82 2288.3 1542.27 Q2290.13 1538.71 2290.13 1531.6 Q2290.13 1524.47 2288.3 1520.93 Q2286.5 1517.37 2282.86 1517.37 M2282.86 1513.66 Q2288.67 1513.66 2291.73 1518.27 Q2294.81 1522.85 2294.81 1531.6 Q2294.81 1540.33 2291.73 1544.94 Q2288.67 1549.52 2282.86 1549.52 Q2277.05 1549.52 2273.98 1544.94 Q2270.92 1540.33 2270.92 1531.6 Q2270.92 1522.85 2273.98 1518.27 Q2277.05 1513.66 2282.86 1513.66 Z" fill="#000000" fill-rule="nonzero" fill-opacity="1"></path><path clip-path="url(#clip070)" d="M2303.03 1542.97 L2307.91 1542.97 L2307.91 1548.85 L2303.03 1548.85 L2303.03 1542.97 Z" fill="#000000" fill-rule="nonzero" fill-opacity="1"></path><path clip-path="url(#clip070)" d="M2328.1 1517.37 Q2324.48 1517.37 2322.66 1520.93 Q2320.85 1524.47 2320.85 1531.6 Q2320.85 1538.71 2322.66 1542.27 Q2324.48 1545.82 2328.1 1545.82 Q2331.73 1545.82 2333.54 1542.27 Q2335.36 1538.71 2335.36 1531.6 Q2335.36 1524.47 2333.54 1520.93 Q2331.73 1517.37 2328.1 1517.37 M2328.1 1513.66 Q2333.91 1513.66 2336.96 1518.27 Q2340.04 1522.85 2340.04 1531.6 Q2340.04 1540.33 2336.96 1544.94 Q2333.91 1549.52 2328.1 1549.52 Q2322.29 1549.52 2319.21 1544.94 Q2316.15 1540.33 2316.15 1531.6 Q2316.15 1522.85 2319.21 1518.27 Q2322.29 1513.66 2328.1 1513.66 Z" fill="#000000" fill-rule="nonzero" fill-opacity="1"></path><polyline clip-path="url(#clip070)" style="stroke:#000000; stroke-linecap:round; stroke-linejoin:round; stroke-width:4; stroke-opacity:1; fill:none" points="186.274,1486.45 186.274,47.2441 "></polyline>
<polyline clip-path="url(#clip070)" style="stroke:#000000; stroke-linecap:round; stroke-linejoin:round; stroke-width:4; stroke-opacity:1; fill:none" points="186.274,1236.77 205.172,1236.77 "></polyline>
<polyline clip-path="url(#clip070)" style="stroke:#000000; stroke-linecap:round; stroke-linejoin:round; stroke-width:4; stroke-opacity:1; fill:none" points="186.274,950.019 205.172,950.019 "></polyline>
<polyline clip-path="url(#clip070)" style="stroke:#000000; stroke-linecap:round; stroke-linejoin:round; stroke-width:4; stroke-opacity:1; fill:none" points="186.274,663.27 205.172,663.27 "></polyline>
<polyline clip-path="url(#clip070)" style="stroke:#000000; stroke-linecap:round; stroke-linejoin:round; stroke-width:4; stroke-opacity:1; fill:none" points="186.274,376.522 205.172,376.522 "></polyline>
<polyline clip-path="url(#clip070)" style="stroke:#000000; stroke-linecap:round; stroke-linejoin:round; stroke-width:4; stroke-opacity:1; fill:none" points="186.274,89.7736 205.172,89.7736 "></polyline>
<path clip-path="url(#clip070)" d="M62.9365 1222.57 Q59.3254 1222.57 57.4967 1226.13 Q55.6912 1229.67 55.6912 1236.8 Q55.6912 1243.91 57.4967 1247.47 Q59.3254 1251.01 62.9365 1251.01 Q66.5707 1251.01 68.3763 1247.47 Q70.205 1243.91 70.205 1236.8 Q70.205 1229.67 68.3763 1226.13 Q66.5707 1222.57 62.9365 1222.57 M62.9365 1218.86 Q68.7467 1218.86 71.8022 1223.47 Q74.8809 1228.05 74.8809 1236.8 Q74.8809 1245.53 71.8022 1250.14 Q68.7467 1254.72 62.9365 1254.72 Q57.1264 1254.72 54.0477 1250.14 Q50.9921 1245.53 50.9921 1236.8 Q50.9921 1228.05 54.0477 1223.47 Q57.1264 1218.86 62.9365 1218.86 Z" fill="#000000" fill-rule="nonzero" fill-opacity="1"></path><path clip-path="url(#clip070)" d="M83.0984 1248.17 L87.9827 1248.17 L87.9827 1254.05 L83.0984 1254.05 L83.0984 1248.17 Z" fill="#000000" fill-rule="nonzero" fill-opacity="1"></path><path clip-path="url(#clip070)" d="M108.168 1222.57 Q104.557 1222.57 102.728 1226.13 Q100.922 1229.67 100.922 1236.8 Q100.922 1243.91 102.728 1247.47 Q104.557 1251.01 108.168 1251.01 Q111.802 1251.01 113.608 1247.47 Q115.436 1243.91 115.436 1236.8 Q115.436 1229.67 113.608 1226.13 Q111.802 1222.57 108.168 1222.57 M108.168 1218.86 Q113.978 1218.86 117.033 1223.47 Q120.112 1228.05 120.112 1236.8 Q120.112 1245.53 117.033 1250.14 Q113.978 1254.72 108.168 1254.72 Q102.358 1254.72 99.2789 1250.14 Q96.2234 1245.53 96.2234 1236.8 Q96.2234 1228.05 99.2789 1223.47 Q102.358 1218.86 108.168 1218.86 Z" fill="#000000" fill-rule="nonzero" fill-opacity="1"></path><path clip-path="url(#clip070)" d="M138.33 1222.57 Q134.719 1222.57 132.89 1226.13 Q131.084 1229.67 131.084 1236.8 Q131.084 1243.91 132.89 1247.47 Q134.719 1251.01 138.33 1251.01 Q141.964 1251.01 143.769 1247.47 Q145.598 1243.91 145.598 1236.8 Q145.598 1229.67 143.769 1226.13 Q141.964 1222.57 138.33 1222.57 M138.33 1218.86 Q144.14 1218.86 147.195 1223.47 Q150.274 1228.05 150.274 1236.8 Q150.274 1245.53 147.195 1250.14 Q144.14 1254.72 138.33 1254.72 Q132.519 1254.72 129.441 1250.14 Q126.385 1245.53 126.385 1236.8 Q126.385 1228.05 129.441 1223.47 Q132.519 1218.86 138.33 1218.86 Z" fill="#000000" fill-rule="nonzero" fill-opacity="1"></path><path clip-path="url(#clip070)" d="M63.9319 935.818 Q60.3208 935.818 58.4921 939.382 Q56.6865 942.924 56.6865 950.054 Q56.6865 957.16 58.4921 960.725 Q60.3208 964.266 63.9319 964.266 Q67.5661 964.266 69.3717 960.725 Q71.2004 957.16 71.2004 950.054 Q71.2004 942.924 69.3717 939.382 Q67.5661 935.818 63.9319 935.818 M63.9319 932.114 Q69.742 932.114 72.7976 936.72 Q75.8763 941.304 75.8763 950.054 Q75.8763 958.78 72.7976 963.387 Q69.742 967.97 63.9319 967.97 Q58.1217 967.97 55.043 963.387 Q51.9875 958.78 51.9875 950.054 Q51.9875 941.304 55.043 936.72 Q58.1217 932.114 63.9319 932.114 Z" fill="#000000" fill-rule="nonzero" fill-opacity="1"></path><path clip-path="url(#clip070)" d="M84.0938 961.419 L88.978 961.419 L88.978 967.299 L84.0938 967.299 L84.0938 961.419 Z" fill="#000000" fill-rule="nonzero" fill-opacity="1"></path><path clip-path="url(#clip070)" d="M103.191 963.364 L119.51 963.364 L119.51 967.299 L97.566 967.299 L97.566 963.364 Q100.228 960.609 104.811 955.979 Q109.418 951.327 110.598 949.984 Q112.844 947.461 113.723 945.725 Q114.626 943.966 114.626 942.276 Q114.626 939.521 112.682 937.785 Q110.76 936.049 107.658 936.049 Q105.459 936.049 103.006 936.813 Q100.575 937.577 97.7974 939.128 L97.7974 934.406 Q100.621 933.271 103.075 932.693 Q105.529 932.114 107.566 932.114 Q112.936 932.114 116.131 934.799 Q119.325 937.484 119.325 941.975 Q119.325 944.105 118.515 946.026 Q117.728 947.924 115.621 950.517 Q115.043 951.188 111.941 954.405 Q108.839 957.6 103.191 963.364 Z" fill="#000000" fill-rule="nonzero" fill-opacity="1"></path><path clip-path="url(#clip070)" d="M129.371 932.739 L147.728 932.739 L147.728 936.674 L133.654 936.674 L133.654 945.146 Q134.672 944.799 135.691 944.637 Q136.709 944.452 137.728 944.452 Q143.515 944.452 146.894 947.623 Q150.274 950.794 150.274 956.211 Q150.274 961.79 146.802 964.891 Q143.33 967.97 137.01 967.97 Q134.834 967.97 132.566 967.6 Q130.32 967.229 127.913 966.489 L127.913 961.79 Q129.996 962.924 132.219 963.479 Q134.441 964.035 136.918 964.035 Q140.922 964.035 143.26 961.929 Q145.598 959.822 145.598 956.211 Q145.598 952.6 143.26 950.493 Q140.922 948.387 136.918 948.387 Q135.043 948.387 133.168 948.804 Q131.316 949.22 129.371 950.1 L129.371 932.739 Z" fill="#000000" fill-rule="nonzero" fill-opacity="1"></path><path clip-path="url(#clip070)" d="M62.9365 649.069 Q59.3254 649.069 57.4967 652.634 Q55.6912 656.176 55.6912 663.305 Q55.6912 670.412 57.4967 673.976 Q59.3254 677.518 62.9365 677.518 Q66.5707 677.518 68.3763 673.976 Q70.205 670.412 70.205 663.305 Q70.205 656.176 68.3763 652.634 Q66.5707 649.069 62.9365 649.069 M62.9365 645.365 Q68.7467 645.365 71.8022 649.972 Q74.8809 654.555 74.8809 663.305 Q74.8809 672.032 71.8022 676.638 Q68.7467 681.222 62.9365 681.222 Q57.1264 681.222 54.0477 676.638 Q50.9921 672.032 50.9921 663.305 Q50.9921 654.555 54.0477 649.972 Q57.1264 645.365 62.9365 645.365 Z" fill="#000000" fill-rule="nonzero" fill-opacity="1"></path><path clip-path="url(#clip070)" d="M83.0984 674.671 L87.9827 674.671 L87.9827 680.55 L83.0984 680.55 L83.0984 674.671 Z" fill="#000000" fill-rule="nonzero" fill-opacity="1"></path><path clip-path="url(#clip070)" d="M98.2141 645.99 L116.57 645.99 L116.57 649.926 L102.496 649.926 L102.496 658.398 Q103.515 658.051 104.534 657.889 Q105.552 657.703 106.571 657.703 Q112.358 657.703 115.737 660.875 Q119.117 664.046 119.117 669.463 Q119.117 675.041 115.645 678.143 Q112.172 681.222 105.853 681.222 Q103.677 681.222 101.409 680.851 Q99.1632 680.481 96.7558 679.74 L96.7558 675.041 Q98.8391 676.175 101.061 676.731 Q103.284 677.287 105.76 677.287 Q109.765 677.287 112.103 675.18 Q114.441 673.074 114.441 669.463 Q114.441 665.851 112.103 663.745 Q109.765 661.639 105.76 661.639 Q103.885 661.639 102.01 662.055 Q100.159 662.472 98.2141 663.351 L98.2141 645.99 Z" fill="#000000" fill-rule="nonzero" fill-opacity="1"></path><path clip-path="url(#clip070)" d="M138.33 649.069 Q134.719 649.069 132.89 652.634 Q131.084 656.176 131.084 663.305 Q131.084 670.412 132.89 673.976 Q134.719 677.518 138.33 677.518 Q141.964 677.518 143.769 673.976 Q145.598 670.412 145.598 663.305 Q145.598 656.176 143.769 652.634 Q141.964 649.069 138.33 649.069 M138.33 645.365 Q144.14 645.365 147.195 649.972 Q150.274 654.555 150.274 663.305 Q150.274 672.032 147.195 676.638 Q144.14 681.222 138.33 681.222 Q132.519 681.222 129.441 676.638 Q126.385 672.032 126.385 663.305 Q126.385 654.555 129.441 649.972 Q132.519 645.365 138.33 645.365 Z" fill="#000000" fill-rule="nonzero" fill-opacity="1"></path><path clip-path="url(#clip070)" d="M63.9319 362.321 Q60.3208 362.321 58.4921 365.886 Q56.6865 369.427 56.6865 376.557 Q56.6865 383.663 58.4921 387.228 Q60.3208 390.77 63.9319 390.77 Q67.5661 390.77 69.3717 387.228 Q71.2004 383.663 71.2004 376.557 Q71.2004 369.427 69.3717 365.886 Q67.5661 362.321 63.9319 362.321 M63.9319 358.617 Q69.742 358.617 72.7976 363.224 Q75.8763 367.807 75.8763 376.557 Q75.8763 385.284 72.7976 389.89 Q69.742 394.473 63.9319 394.473 Q58.1217 394.473 55.043 389.89 Q51.9875 385.284 51.9875 376.557 Q51.9875 367.807 55.043 363.224 Q58.1217 358.617 63.9319 358.617 Z" fill="#000000" fill-rule="nonzero" fill-opacity="1"></path><path clip-path="url(#clip070)" d="M84.0938 387.922 L88.978 387.922 L88.978 393.802 L84.0938 393.802 L84.0938 387.922 Z" fill="#000000" fill-rule="nonzero" fill-opacity="1"></path><path clip-path="url(#clip070)" d="M97.9826 359.242 L120.205 359.242 L120.205 361.233 L107.658 393.802 L102.774 393.802 L114.58 363.177 L97.9826 363.177 L97.9826 359.242 Z" fill="#000000" fill-rule="nonzero" fill-opacity="1"></path><path clip-path="url(#clip070)" d="M129.371 359.242 L147.728 359.242 L147.728 363.177 L133.654 363.177 L133.654 371.649 Q134.672 371.302 135.691 371.14 Q136.709 370.955 137.728 370.955 Q143.515 370.955 146.894 374.126 Q150.274 377.298 150.274 382.714 Q150.274 388.293 146.802 391.395 Q143.33 394.473 137.01 394.473 Q134.834 394.473 132.566 394.103 Q130.32 393.733 127.913 392.992 L127.913 388.293 Q129.996 389.427 132.219 389.983 Q134.441 390.538 136.918 390.538 Q140.922 390.538 143.26 388.432 Q145.598 386.325 145.598 382.714 Q145.598 379.103 143.26 376.997 Q140.922 374.89 136.918 374.89 Q135.043 374.89 133.168 375.307 Q131.316 375.723 129.371 376.603 L129.371 359.242 Z" fill="#000000" fill-rule="nonzero" fill-opacity="1"></path><path clip-path="url(#clip070)" d="M53.7467 103.118 L61.3856 103.118 L61.3856 76.7529 L53.0754 78.4195 L53.0754 74.1603 L61.3393 72.4936 L66.0152 72.4936 L66.0152 103.118 L73.654 103.118 L73.654 107.054 L53.7467 107.054 L53.7467 103.118 Z" fill="#000000" fill-rule="nonzero" fill-opacity="1"></path><path clip-path="url(#clip070)" d="M83.0984 101.174 L87.9827 101.174 L87.9827 107.054 L83.0984 107.054 L83.0984 101.174 Z" fill="#000000" fill-rule="nonzero" fill-opacity="1"></path><path clip-path="url(#clip070)" d="M108.168 75.5723 Q104.557 75.5723 102.728 79.1371 Q100.922 82.6788 100.922 89.8084 Q100.922 96.9148 102.728 100.48 Q104.557 104.021 108.168 104.021 Q111.802 104.021 113.608 100.48 Q115.436 96.9148 115.436 89.8084 Q115.436 82.6788 113.608 79.1371 Q111.802 75.5723 108.168 75.5723 M108.168 71.8687 Q113.978 71.8687 117.033 76.4751 Q120.112 81.0584 120.112 89.8084 Q120.112 98.5352 117.033 103.142 Q113.978 107.725 108.168 107.725 Q102.358 107.725 99.2789 103.142 Q96.2234 98.5352 96.2234 89.8084 Q96.2234 81.0584 99.2789 76.4751 Q102.358 71.8687 108.168 71.8687 Z" fill="#000000" fill-rule="nonzero" fill-opacity="1"></path><path clip-path="url(#clip070)" d="M138.33 75.5723 Q134.719 75.5723 132.89 79.1371 Q131.084 82.6788 131.084 89.8084 Q131.084 96.9148 132.89 100.48 Q134.719 104.021 138.33 104.021 Q141.964 104.021 143.769 100.48 Q145.598 96.9148 145.598 89.8084 Q145.598 82.6788 143.769 79.1371 Q141.964 75.5723 138.33 75.5723 M138.33 71.8687 Q144.14 71.8687 147.195 76.4751 Q150.274 81.0584 150.274 89.8084 Q150.274 98.5352 147.195 103.142 Q144.14 107.725 138.33 107.725 Q132.519 107.725 129.441 103.142 Q126.385 98.5352 126.385 89.8084 Q126.385 81.0584 129.441 76.4751 Q132.519 71.8687 138.33 71.8687 Z" fill="#000000" fill-rule="nonzero" fill-opacity="1"></path><polyline clip-path="url(#clip072)" style="stroke:#009af9; stroke-linecap:round; stroke-linejoin:round; stroke-width:4; stroke-opacity:1; fill:none" points="247.59,87.9763 249.633,412.06 251.677,419.112 253.721,425.793 255.765,433.143 257.809,440.336 259.853,447.565 261.896,454.856 263.94,462.012 265.984,469.544 268.028,477.321 270.072,485.097 272.116,493.009 274.16,500.641 276.203,508.368 278.247,516.377 280.291,524.216 282.335,532.416 284.379,540.423 286.423,548.49 288.467,556.767 290.51,565.156 292.554,573.441 294.598,581.695 296.642,590.715 298.686,599.36 300.73,608.162 302.774,616.381 304.817,625.124 306.861,633.923 308.905,642.937 310.949,651.356 312.993,660.429 315.037,669.138 317.08,677.514 319.124,685.764 321.168,694.288 323.212,702.878 325.256,711.101 327.3,719.333 329.344,727.187 331.387,735.626 333.431,743.867 335.475,752.194 337.519,760.315 339.563,768.454 341.607,776.8 343.651,784.658 345.694,792.611 347.738,800.441 349.782,808.501 351.826,816.224 353.87,823.623 355.914,831.711 357.957,839.794 360.001,847.301 362.045,855.103 364.089,862.807 366.133,870.461 368.177,877.866 370.221,885.183 372.264,892.65 374.308,900.187 376.352,907.565 378.396,914.474 380.44,921.53 382.484,927.951 384.528,935.16 386.571,941.923 388.615,948.842 390.659,955.924 392.703,962.611 394.747,969.256 396.791,975.954 398.834,982.221 400.878,988.845 402.922,995.441 404.966,1001.92 407.01,1007.98 409.054,1014.2 411.098,1020.12 413.141,1026.02 415.185,1032.19 417.229,1037.83 419.273,1043.84 421.317,1049.7 423.361,1055.32 425.405,1061.28 427.448,1066.99 429.492,1072.37 431.536,1077.77 433.58,1083.29 435.624,1088.58 437.668,1093.91 439.712,1099.43 441.755,1104.45 443.799,1110.07 445.843,1115.45 447.887,1120.28 449.931,1125.47 451.975,1130.64 454.018,1135.35 456.062,1139.9 458.106,1144.83 460.15,1149.33 462.194,1153.77 464.238,1158.48 466.282,1163.03 468.325,1167.22 470.369,1171.07 472.413,1175.42 474.457,1179.84 476.501,1183.66 478.545,1187.47 480.589,1191 482.632,1194.63 484.676,1198.21 486.72,1201.68 488.764,1205.22 490.808,1208.82 492.852,1212.05 494.895,1215.06 496.939,1218.01 498.983,1221.37 501.027,1224.65 503.071,1227.84 505.115,1231.29 507.159,1234.44 509.202,1237.15 511.246,1239.64 513.29,1242.45 515.334,1245.2 517.378,1247.85 519.422,1250.73 521.466,1253.45 523.509,1255.91 525.553,1258.38 527.597,1260.54 529.641,1262.5 531.685,1264.66 533.729,1266.53 535.772,1268.61 537.816,1270.68 539.86,1272.71 541.904,1274.82 543.948,1276.53 545.992,1278.4 548.036,1280.22 550.079,1282.25 552.123,1283.8 554.167,1285.65 556.211,1287 558.255,1288.65 560.299,1289.85 562.343,1291.19 564.386,1292.79 566.43,1294.04 568.474,1295.03 570.518,1296.2 572.562,1297.11 574.606,1298.05 576.65,1299.16 578.693,1299.74 580.737,1300.64 582.781,1301.53 584.825,1302.21 586.869,1302.91 588.913,1303.54 590.956,1304.2 593,1304.9 595.044,1305.89 597.088,1306.59 599.132,1307.2 601.176,1307.36 603.22,1307.76 605.263,1308.21 607.307,1308.56 609.351,1308.6 611.395,1308.87 613.439,1309.33 615.483,1310.04 617.527,1310.31 619.57,1310.25 621.614,1310.16 623.658,1310.29 625.702,1310.48 627.746,1310.45 629.79,1310.15 631.833,1309.58 633.877,1309.59 635.921,1309.72 637.965,1309.86 640.009,1309.42 642.053,1309.23 644.097,1308.92 646.14,1308.67 648.184,1308.72 650.228,1308.1 652.272,1307.31 654.316,1306.93 656.36,1306.26 658.404,1305.23 660.447,1304.71 662.491,1304.26 664.535,1303.55 666.579,1302.86 668.623,1302.23 670.667,1301.74 672.711,1300.89 674.754,1299.88 676.798,1299.29 678.842,1298.45 680.886,1297.75 682.93,1296.8 684.974,1296.41 687.017,1295.65 689.061,1294.94 691.105,1294.11 693.149,1293.02 695.193,1292.28 697.237,1291.31 699.281,1290.64 701.324,1289.72 703.368,1288.78 705.412,1287.24 707.456,1286.22 709.5,1284.96 711.544,1284.43 713.588,1283.24 715.631,1282.2 717.675,1281.34 719.719,1280.6 721.763,1279.24 723.807,1278.32 725.851,1277.49 727.894,1276.62 729.938,1275.77 731.982,1274.8 734.026,1273.71 736.07,1272.28 738.114,1271.53 740.158,1270.62 742.201,1269.83 744.245,1268.77 746.289,1267.77 748.333,1266.68 750.377,1266.03 752.421,1265.54 754.465,1264.39 756.508,1263.57 758.552,1262.41 760.596,1262.05 762.64,1260.82 764.684,1259.6 766.728,1258.38 768.771,1257.6 770.815,1256.87 772.859,1256.05 774.903,1255.47 776.947,1254.61 778.991,1253.48 781.035,1252.69 783.078,1251.79 785.122,1250.73 787.166,1250.2 789.21,1249.11 791.254,1248.23 793.298,1247.24 795.342,1246.7 797.385,1245.79 799.429,1245.61 801.473,1244.43 803.517,1243.76 805.561,1242.75 807.605,1242.03 809.649,1241.19 811.692,1240.67 813.736,1240.4 815.78,1240.05 817.824,1239.62 819.868,1239.32 821.912,1238.51 823.955,1237.79 825.999,1237.03 828.043,1236.4 830.087,1235.57 832.131,1235.28 834.175,1234.77 836.219,1233.91 838.262,1233.26 840.306,1232.96 842.35,1231.98 844.394,1231.4 846.438,1230.44 848.482,1230.29 850.526,1230.02 852.569,1229.47 854.613,1228.73 856.657,1228.54 858.701,1227.96 860.745,1227.17 862.789,1226.83 864.832,1226.08 866.876,1225.12 868.92,1224.83 870.964,1224.62 873.008,1224.06 875.052,1223.78 877.096,1223.65 879.139,1223.11 881.183,1223.11 883.227,1223.45 885.271,1223.39 887.315,1222.78 889.359,1222.48 891.403,1222.11 893.446,1221.93 895.49,1221.46 897.534,1221.14 899.578,1221.06 901.622,1220.9 903.666,1220.93 905.71,1220.57 907.753,1219.92 909.797,1219.57 911.841,1219.22 913.885,1219.07 915.929,1219.2 917.973,1219.24 920.016,1218.95 922.06,1219.04 924.104,1218.99 926.148,1218.95 928.192,1218.78 930.236,1218.81 932.28,1218.66 934.323,1218.53 936.367,1218.4 938.411,1218.09 940.455,1217.68 942.499,1217.33 944.543,1217.16 946.587,1217.56 948.63,1217.97 950.674,1217.83 952.718,1217.83 954.762,1217.82 956.806,1217.45 958.85,1217.2 960.893,1217.52 962.937,1217.44 964.981,1217.11 967.025,1217.17 969.069,1217.28 971.113,1217.56 973.157,1217.64 975.2,1218.06 977.244,1217.78 979.288,1217.73 981.332,1217.93 983.376,1218.12 985.42,1217.99 987.464,1218.26 989.507,1218.56 991.551,1218.59 993.595,1218.53 995.639,1218.89 997.683,1219.01 999.727,1219.42 1001.77,1219.52 1003.81,1219.55 1005.86,1219.45 1007.9,1219.56 1009.95,1219.01 1011.99,1219.44 1014.03,1219.67 1016.08,1219.83 1018.12,1219.52 1020.17,1219.76 1022.21,1219.44 1024.25,1220.17 1026.3,1220.48 1028.34,1220.76 1030.38,1221.34 1032.43,1221.34 1034.47,1221.28 1036.52,1221.53 1038.56,1221.39 1040.6,1221.56 1042.65,1222.27 1044.69,1222.96 1046.74,1223.22 1048.78,1223.7 1050.82,1223.71 1052.87,1224.11 1054.91,1224.33 1056.95,1224.66 1059,1225.21 1061.04,1225.1 1063.09,1225.37 1065.13,1225.77 1067.17,1226.35 1069.22,1226.54 1071.26,1226.92 1073.31,1227.37 1075.35,1228.08 1077.39,1228.44 1079.44,1229 1081.48,1229.06 1083.52,1229.15 1085.57,1229.55 1087.61,1229.92 1089.66,1230.39 1091.7,1230.74 1093.74,1230.68 1095.79,1230.87 1097.83,1230.79 1099.88,1231.12 1101.92,1231.53 1103.96,1231.86 1106.01,1232.59 1108.05,1233.12 1110.09,1232.78 1112.14,1232.75 1114.18,1233.31 1116.23,1233.9 1118.27,1234.46 1120.31,1234.14 1122.36,1234.54 1124.4,1234.54 1126.45,1234.89 1128.49,1235 1130.53,1235.17 1132.58,1235.97 1134.62,1236.42 1136.66,1236.7 1138.71,1236.7 1140.75,1236.54 1142.8,1236.66 1144.84,1236.6 1146.88,1236.87 1148.93,1237.15 1150.97,1237.29 1153.02,1237.6 1155.06,1237.98 1157.1,1237.97 1159.15,1238.3 1161.19,1238.9 1163.23,1238.78 1165.28,1238.65 1167.32,1238.75 1169.37,1239.13 1171.41,1239.37 1173.45,1239.74 1175.5,1240.03 1177.54,1240.26 1179.59,1240.74 1181.63,1241.43 1183.67,1241.39 1185.72,1241.51 1187.76,1241.08 1189.8,1241.39 1191.85,1241.74 1193.89,1242.29 1195.94,1242.16 1197.98,1242.15 1200.02,1241.9 1202.07,1241.67 1204.11,1241.73 1206.16,1241.6 1208.2,1241.18 1210.24,1241.37 1212.29,1241.49 1214.33,1241.8 1216.37,1241.78 1218.42,1241.5 1220.46,1241.4 1222.51,1241.29 1224.55,1241.4 1226.59,1241.2 1228.64,1240.95 1230.68,1240.68 1232.73,1240.73 1234.77,1241.02 1236.81,1241.19 1238.86,1241.32 1240.9,1241.67 1242.94,1241.7 1244.99,1241.58 1247.03,1241.84 1249.08,1242.33 1251.12,1242.72 1253.16,1242.33 1255.21,1242.23 1257.25,1243.08 1259.3,1243 1261.34,1242.77 1263.38,1242.37 1265.43,1242.09 1267.47,1242.08 1269.51,1242.08 1271.56,1242.2 1273.6,1242.27 1275.65,1241.78 1277.69,1241.94 1279.73,1242.29 1281.78,1242.18 1283.82,1242.22 1285.87,1242.19 1287.91,1242.41 1289.95,1242.48 1292,1242.3 1294.04,1242.08 1296.09,1242.17 1298.13,1241.73 1300.17,1241.87 1302.22,1241.72 1304.26,1241.76 1306.3,1242.24 1308.35,1242.02 1310.39,1242 1312.44,1241.98 1314.48,1242 1316.52,1241.96 1318.57,1242.11 1320.61,1241.99 1322.66,1242 1324.7,1242.19 1326.74,1242.57 1328.79,1243.05 1330.83,1243.04 1332.87,1242.52 1334.92,1242.66 1336.96,1242.01 1339.01,1242.06 1341.05,1242.68 1343.09,1243 1345.14,1243.2 1347.18,1243.09 1349.23,1243.36 1351.27,1243.62 1353.31,1243.3 1355.36,1243.26 1357.4,1242.78 1359.44,1242.37 1361.49,1242.12 1363.53,1242.62 1365.58,1242.88 1367.62,1242.65 1369.66,1242.55 1371.71,1242.62 1373.75,1242.59 1375.8,1242.3 1377.84,1241.87 1379.88,1241.61 1381.93,1241.69 1383.97,1241.54 1386.01,1241.58 1388.06,1241.56 1390.1,1241.02 1392.15,1240.83 1394.19,1241.13 1396.23,1240.68 1398.28,1240.38 1400.32,1240.41 1402.37,1240.61 1404.41,1240.92 1406.45,1240.84 1408.5,1240.42 1410.54,1240.52 1412.58,1240.16 1414.63,1239.91 1416.67,1239.47 1418.72,1239.2 1420.76,1239.19 1422.8,1239.19 1424.85,1239.4 1426.89,1239.39 1428.94,1239.01 1430.98,1238.59 1433.02,1238.74 1435.07,1238.69 1437.11,1238.8 1439.15,1238.63 1441.2,1238.39 1443.24,1238.63 1445.29,1238.35 1447.33,1238.34 1449.37,1238.26 1451.42,1238.36 1453.46,1238.71 1455.51,1238.81 1457.55,1238.47 1459.59,1238.22 1461.64,1238.21 1463.68,1238.36 1465.72,1238.21 1467.77,1238.15 1469.81,1237.87 1471.86,1237.98 1473.9,1238.2 1475.94,1237.82 1477.99,1238.28 1480.03,1237.84 1482.08,1237.78 1484.12,1237.76 1486.16,1237.18 1488.21,1236.19 1490.25,1236.11 1492.29,1236.07 1494.34,1236.27 1496.38,1236.45 1498.43,1236.18 1500.47,1236.53 1502.51,1236.6 1504.56,1236.25 1506.6,1235.96 1508.65,1236.29 1510.69,1236.22 1512.73,1236.11 1514.78,1236.18 1516.82,1235.85 1518.86,1236.1 1520.91,1235.73 1522.95,1234.94 1525,1234.97 1527.04,1235.18 1529.08,1235.42 1531.13,1235.22 1533.17,1235.32 1535.22,1235.27 1537.26,1235 1539.3,1234.88 1541.35,1235.03 1543.39,1234.68 1545.43,1234.87 1547.48,1235.04 1549.52,1235.21 1551.57,1235.18 1553.61,1235 1555.65,1235.17 1557.7,1234.81 1559.74,1234.18 1561.79,1233.85 1563.83,1233.87 1565.87,1233.57 1567.92,1233.45 1569.96,1233.36 1572,1233.36 1574.05,1233.29 1576.09,1233.19 1578.14,1233.07 1580.18,1232.99 1582.22,1232.88 1584.27,1233.37 1586.31,1233.09 1588.36,1232.97 1590.4,1233.1 1592.44,1233.38 1594.49,1233.4 1596.53,1233.55 1598.57,1233.36 1600.62,1233.13 1602.66,1233.17 1604.71,1233.16 1606.75,1233.39 1608.79,1233.47 1610.84,1233.58 1612.88,1233.38 1614.93,1233.9 1616.97,1233.86 1619.01,1234.26 1621.06,1234.4 1623.1,1234.1 1625.15,1234.67 1627.19,1234.92 1629.23,1235.25 1631.28,1235.5 1633.32,1235.36 1635.36,1235 1637.41,1234.84 1639.45,1235.16 1641.5,1234.77 1643.54,1234.88 1645.58,1234.96 1647.63,1234.69 1649.67,1235.14 1651.72,1234.84 1653.76,1235.27 1655.8,1234.95 1657.85,1235.11 1659.89,1235.47 1661.93,1235.31 1663.98,1234.81 1666.02,1235.38 1668.07,1235.65 1670.11,1235.89 1672.15,1236.37 1674.2,1236.18 1676.24,1236.14 1678.29,1236.17 1680.33,1236.27 1682.37,1236.32 1684.42,1236.29 1686.46,1236.42 1688.5,1236.52 1690.55,1236.21 1692.59,1235.58 1694.64,1235.73 1696.68,1235.53 1698.72,1235.1 1700.77,1234.7 1702.81,1234.85 1704.86,1234.69 1706.9,1234.72 1708.94,1234.87 1710.99,1234.81 1713.03,1234.59 1715.07,1234.35 1717.12,1234.6 1719.16,1234.63 1721.21,1234.51 1723.25,1234.66 1725.29,1234.58 1727.34,1235.26 1729.38,1235.19 1731.43,1235.55 1733.47,1235.19 1735.51,1235.2 1737.56,1235.49 1739.6,1235.22 1741.64,1235.39 1743.69,1235.8 1745.73,1235.59 1747.78,1235.97 1749.82,1236.52 1751.86,1236.17 1753.91,1235.68 1755.95,1235.39 1758,1235.65 1760.04,1235.63 1762.08,1235.51 1764.13,1235.43 1766.17,1235.7 1768.21,1235.86 1770.26,1236.36 1772.3,1236.47 1774.35,1236.67 1776.39,1236.67 1778.43,1236.72 1780.48,1237.03 1782.52,1237.87 1784.57,1237.98 1786.61,1237.81 1788.65,1237.67 1790.7,1237.47 1792.74,1237.84 1794.78,1238.23 1796.83,1238.56 1798.87,1238.64 1800.92,1238.88 1802.96,1238.76 1805,1238.94 1807.05,1238.99 1809.09,1238.71 1811.14,1238.89 1813.18,1238.64 1815.22,1238.99 1817.27,1239.29 1819.31,1239.19 1821.35,1238.98 1823.4,1239.12 1825.44,1238.87 1827.49,1238.93 1829.53,1239.25 1831.57,1239.26 1833.62,1239.53 1835.66,1239.8 1837.71,1239.93 1839.75,1239.63 1841.79,1239.65 1843.84,1239.62 1845.88,1238.9 1847.92,1238.67 1849.97,1238.53 1852.01,1238.43 1854.06,1238.33 1856.1,1237.99 1858.14,1238.28 1860.19,1237.82 1862.23,1237.51 1864.28,1237.61 1866.32,1237.52 1868.36,1238.01 1870.41,1237.79 1872.45,1238.33 1874.49,1238.24 1876.54,1238.46 1878.58,1238.49 1880.63,1238.51 1882.67,1239.25 1884.71,1239.41 1886.76,1239.42 1888.8,1239.88 1890.85,1240.17 1892.89,1240.01 1894.93,1240.03 1896.98,1240.01 1899.02,1240.29 1901.06,1239.9 1903.11,1240.12 1905.15,1239.88 1907.2,1240.07 1909.24,1240.2 1911.28,1240.12 1913.33,1240.34 1915.37,1240.1 1917.42,1240.38 1919.46,1240.35 1921.5,1240.81 1923.55,1240.92 1925.59,1240.77 1927.63,1240.93 1929.68,1240.68 1931.72,1240.22 1933.77,1240.09 1935.81,1240.07 1937.85,1240.05 1939.9,1239.5 1941.94,1238.82 1943.99,1238.51 1946.03,1238.44 1948.07,1238.68 1950.12,1238.6 1952.16,1238.46 1954.2,1238.52 1956.25,1238.41 1958.29,1237.8 1960.34,1237.83 1962.38,1237.9 1964.42,1237.57 1966.47,1237.8 1968.51,1237.95 1970.56,1237.59 1972.6,1237.68 1974.64,1237.6 1976.69,1237.57 1978.73,1238.29 1980.78,1238.82 1982.82,1238.87 1984.86,1238.71 1986.91,1238.58 1988.95,1238.06 1990.99,1238.08 1993.04,1238.13 1995.08,1238.26 1997.13,1238.3 1999.17,1237.72 2001.21,1237.56 2003.26,1237.8 2005.3,1237.43 2007.35,1237.35 2009.39,1237.11 2011.43,1237.17 2013.48,1237.4 2015.52,1237.56 2017.56,1237.64 2019.61,1237.56 2021.65,1237.64 2023.7,1237.9 2025.74,1238.01 2027.78,1238.27 2029.83,1237.55 2031.87,1237.66 2033.92,1237.38 2035.96,1237.42 2038,1237.28 2040.05,1238.07 2042.09,1237.89 2044.13,1237.81 2046.18,1237.97 2048.22,1237.76 2050.27,1237.98 2052.31,1238.45 2054.35,1238.41 2056.4,1238.68 2058.44,1238.55 2060.49,1238.31 2062.53,1238.4 2064.57,1238.26 2066.62,1238.31 2068.66,1238.21 2070.7,1237.68 2072.75,1237.76 2074.79,1237.93 2076.84,1238.09 2078.88,1238.15 2080.92,1238.44 2082.97,1238.11 2085.01,1237.94 2087.06,1238.16 2089.1,1238.74 2091.14,1238.99 2093.19,1238.63 2095.23,1238.5 2097.27,1238.49 2099.32,1238.09 2101.36,1237.95 2103.41,1237.86 2105.45,1237.52 2107.49,1237.33 2109.54,1237.38 2111.58,1237.11 2113.63,1237.21 2115.67,1237.02 2117.71,1237.12 2119.76,1237.3 2121.8,1237.32 2123.84,1237.61 2125.89,1237.6 2127.93,1237.79 2129.98,1238.18 2132.02,1238.29 2134.06,1238.41 2136.11,1238.57 2138.15,1238.91 2140.2,1238.97 2142.24,1238.86 2144.28,1238.94 2146.33,1238.72 2148.37,1238.61 2150.41,1238.37 2152.46,1238.22 2154.5,1237.64 2156.55,1237.26 2158.59,1237.19 2160.63,1237.45 2162.68,1237.02 2164.72,1237.07 2166.77,1236.86 2168.81,1237.24 2170.85,1237.54 2172.9,1237.59 2174.94,1237.94 2176.98,1238.02 2179.03,1238.27 2181.07,1238.91 2183.12,1238.94 2185.16,1238.49 2187.2,1238.57 2189.25,1238.29 2191.29,1238.44 2193.34,1238.56 2195.38,1238.76 2197.42,1238.4 2199.47,1238.37 2201.51,1238.52 2203.55,1238.63 2205.6,1239.12 2207.64,1238.88 2209.69,1238.93 2211.73,1239.13 2213.77,1238.81 2215.82,1238.14 2217.86,1238.21 2219.91,1238.04 2221.95,1238.55 2223.99,1239.13 2226.04,1238.85 2228.08,1238.47 2230.12,1238.22 2232.17,1238.46 2234.21,1238.63 2236.26,1238.61 2238.3,1237.97 2240.34,1238.14 2242.39,1238.3 2244.43,1238.34 2246.48,1238.56 2248.52,1238.54 2250.56,1238.58 2252.61,1238.75 2254.65,1238.39 2256.69,1238.63 2258.74,1238.84 2260.78,1239.02 2262.83,1239.03 2264.87,1239.36 2266.91,1239.44 2268.96,1239.18 2271,1239.53 2273.05,1239.58 2275.09,1239.94 2277.13,1240.1 2279.18,1239.85 2281.22,1239.19 2283.26,1239.39 2285.31,1239.3 2287.35,1239.1 2289.4,1239 2291.44,1238.8 "></polyline>
<polyline clip-path="url(#clip072)" style="stroke:#e26f46; stroke-linecap:round; stroke-linejoin:round; stroke-width:4; stroke-opacity:1; fill:none" points="247.59,90.9433 249.633,451.715 251.677,459.664 253.721,467.304 255.765,475.334 257.809,483.337 259.853,490.853 261.896,498.511 263.94,506.506 265.984,514.347 268.028,522.498 270.072,530.479 272.116,538.755 274.16,547.18 276.203,555.543 278.247,563.946 280.291,572.667 282.335,581.232 284.379,590.072 286.423,598.924 288.467,607.619 290.51,616.186 292.554,625.307 294.598,633.828 296.642,642.873 298.686,652.053 300.73,661.346 302.774,670.579 304.817,679.682 306.861,688.817 308.905,697.538 310.949,706.376 312.993,715.482 315.037,725.115 317.08,733.738 319.124,742.713 321.168,751.973 323.212,760.894 325.256,769.852 327.3,779.072 329.344,788.032 331.387,797.132 333.431,805.751 335.475,814.832 337.519,823.188 339.563,832.088 341.607,840.759 343.651,849.499 345.694,858.06 347.738,866.655 349.782,875.642 351.826,884.768 353.87,893.142 355.914,901.318 357.957,909.556 360.001,918.22 362.045,926.762 364.089,934.839 366.133,943.845 368.177,952.302 370.221,960.819 372.264,968.795 374.308,976.931 376.352,985.451 378.396,993.583 380.44,1001.72 382.484,1009.8 384.528,1017.52 386.571,1025.17 388.615,1033.44 390.659,1040.94 392.703,1048.86 394.747,1056.84 396.791,1064.53 398.834,1072.02 400.878,1079.19 402.922,1086.5 404.966,1094.07 407.01,1101.27 409.054,1108.57 411.098,1115.37 413.141,1122.47 415.185,1129.15 417.229,1136.12 419.273,1142.82 421.317,1149.44 423.361,1155.83 425.405,1162.5 427.448,1168.95 429.492,1175.17 431.536,1181.74 433.58,1188.03 435.624,1194.25 437.668,1200.27 439.712,1206.32 441.755,1212.57 443.799,1218.15 445.843,1224.32 447.887,1230.21 449.931,1235.52 451.975,1241.16 454.018,1246.57 456.062,1252 458.106,1257.47 460.15,1262.95 462.194,1268.14 464.238,1273.32 466.282,1278.4 468.325,1283.92 470.369,1289.02 472.413,1293.97 474.457,1298.19 476.501,1302.8 478.545,1307.36 480.589,1311.9 482.632,1316.4 484.676,1320.6 486.72,1325.18 488.764,1329.31 490.808,1333.73 492.852,1337.76 494.895,1341.85 496.939,1345.79 498.983,1349.51 501.027,1353.2 503.071,1357.03 505.115,1360.84 507.159,1364.47 509.202,1367.54 511.246,1370.67 513.29,1374.32 515.334,1377.4 517.378,1380.6 519.422,1383.8 521.466,1386.6 523.509,1389.79 525.553,1392.68 527.597,1395.27 529.641,1398.49 531.685,1401.58 533.729,1403.87 535.772,1406.19 537.816,1408.67 539.86,1410.49 541.904,1412.97 543.948,1414.94 545.992,1417.03 548.036,1418.94 550.079,1420.78 552.123,1422.21 554.167,1423.96 556.211,1425.56 558.255,1427.37 560.299,1428.79 562.343,1429.84 564.386,1431.4 566.43,1433.01 568.474,1434.32 570.518,1435.75 572.562,1437.09 574.606,1437.81 576.65,1438.76 578.693,1439.53 580.737,1440.24 582.781,1441.11 584.825,1441.97 586.869,1442.76 588.913,1443.47 590.956,1444.1 593,1444.34 595.044,1444.92 597.088,1445.21 599.132,1445.29 601.176,1445.24 603.22,1445.46 605.263,1445.72 607.307,1445.57 609.351,1445.52 611.395,1445.02 613.439,1444.75 615.483,1444.72 617.527,1444.3 619.57,1444.05 621.614,1443.64 623.658,1443.28 625.702,1442.94 627.746,1442.19 629.79,1442.12 631.833,1441.52 633.877,1440.92 635.921,1440.09 637.965,1439.4 640.009,1439.03 642.053,1438.15 644.097,1437.69 646.14,1436.76 648.184,1436.12 650.228,1435.39 652.272,1434.19 654.316,1433.2 656.36,1432.57 658.404,1431.27 660.447,1430.23 662.491,1429.09 664.535,1428.05 666.579,1426.89 668.623,1425.44 670.667,1423.92 672.711,1422.49 674.754,1421.05 676.798,1419.54 678.842,1418.04 680.886,1416.51 682.93,1415.06 684.974,1413.6 687.017,1412.09 689.061,1410.28 691.105,1408.67 693.149,1406.87 695.193,1405.4 697.237,1403.91 699.281,1402.16 701.324,1400.55 703.368,1399.02 705.412,1397.47 707.456,1395.98 709.5,1394.12 711.544,1392.22 713.588,1390.44 715.631,1388.76 717.675,1386.95 719.719,1385.34 721.763,1383.53 723.807,1381.43 725.851,1379.46 727.894,1377.69 729.938,1375.71 731.982,1373.81 734.026,1371.77 736.07,1370.01 738.114,1368.29 740.158,1366.49 742.201,1364.67 744.245,1362.87 746.289,1361.1 748.333,1359.64 750.377,1357.73 752.421,1356.08 754.465,1354.31 756.508,1352.39 758.552,1350.49 760.596,1349.18 762.64,1347.53 764.684,1345.83 766.728,1343.74 768.771,1341.79 770.815,1339.95 772.859,1337.96 774.903,1335.91 776.947,1334.22 778.991,1332.34 781.035,1329.83 783.078,1327.69 785.122,1326.2 787.166,1324.01 789.21,1322.32 791.254,1320.84 793.298,1319.24 795.342,1317.49 797.385,1315.53 799.429,1314.11 801.473,1312.95 803.517,1311.2 805.561,1309.6 807.605,1307.71 809.649,1306.16 811.692,1304.71 813.736,1302.47 815.78,1300.56 817.824,1298.68 819.868,1296.62 821.912,1295.27 823.955,1294.03 825.999,1292.33 828.043,1291.08 830.087,1289.16 832.131,1287.55 834.175,1285.67 836.219,1284.32 838.262,1282.75 840.306,1280.64 842.35,1279.42 844.394,1277.69 846.438,1276.02 848.482,1274.78 850.526,1273.08 852.569,1271.23 854.613,1269.68 856.657,1268.29 858.701,1267.37 860.745,1265.84 862.789,1264.29 864.832,1262.81 866.876,1261.23 868.92,1259.45 870.964,1258.64 873.008,1256.99 875.052,1255.85 877.096,1254.49 879.139,1253.07 881.183,1252.29 883.227,1250.87 885.271,1249.41 887.315,1248.02 889.359,1247.04 891.403,1246.23 893.446,1245.3 895.49,1243.88 897.534,1242.85 899.578,1241.53 901.622,1240.52 903.666,1239.41 905.71,1238.06 907.753,1236.77 909.797,1235.72 911.841,1234.78 913.885,1234.05 915.929,1233.37 917.973,1232.36 920.016,1231.49 922.06,1230.3 924.104,1230.02 926.148,1229.43 928.192,1228.57 930.236,1227.53 932.28,1226.85 934.323,1226.01 936.367,1225.55 938.411,1224.8 940.455,1224.16 942.499,1223.04 944.543,1222.34 946.587,1221.32 948.63,1220.66 950.674,1219.87 952.718,1219.44 954.762,1218.83 956.806,1218.09 958.85,1218.05 960.893,1217.45 962.937,1216.9 964.981,1216.31 967.025,1214.99 969.069,1214.23 971.113,1214.03 973.157,1213.49 975.2,1213.05 977.244,1212.74 979.288,1212 981.332,1211.75 983.376,1210.97 985.42,1210.68 987.464,1210.66 989.507,1210.59 991.551,1210.44 993.595,1210.23 995.639,1209.87 997.683,1209.53 999.727,1208.83 1001.77,1208.47 1003.81,1208.34 1005.86,1208.13 1007.9,1207.82 1009.95,1207.56 1011.99,1207.31 1014.03,1207.45 1016.08,1207.54 1018.12,1207.47 1020.17,1207.41 1022.21,1206.89 1024.25,1207.41 1026.3,1207.84 1028.34,1207.9 1030.38,1207.59 1032.43,1207.42 1034.47,1207.29 1036.52,1207.04 1038.56,1207.07 1040.6,1206.67 1042.65,1206.6 1044.69,1205.77 1046.74,1206.02 1048.78,1206 1050.82,1205.86 1052.87,1206.15 1054.91,1205.99 1056.95,1206.18 1059,1206.41 1061.04,1206.53 1063.09,1207.23 1065.13,1207.41 1067.17,1207.23 1069.22,1207.07 1071.26,1207.42 1073.31,1207.25 1075.35,1207.45 1077.39,1207.37 1079.44,1207.47 1081.48,1207.24 1083.52,1207.85 1085.57,1207.44 1087.61,1207.46 1089.66,1207.65 1091.7,1208.1 1093.74,1208.29 1095.79,1208.6 1097.83,1208.22 1099.88,1208.53 1101.92,1208.99 1103.96,1209.43 1106.01,1209.68 1108.05,1210.22 1110.09,1210.37 1112.14,1210.41 1114.18,1210.49 1116.23,1210.42 1118.27,1210.62 1120.31,1210.97 1122.36,1210.45 1124.4,1210.44 1126.45,1210.99 1128.49,1211.84 1130.53,1212.15 1132.58,1212.74 1134.62,1212.63 1136.66,1212.19 1138.71,1212.08 1140.75,1212.22 1142.8,1212.71 1144.84,1212.82 1146.88,1212.73 1148.93,1212.36 1150.97,1212.85 1153.02,1213.3 1155.06,1213.41 1157.1,1213.24 1159.15,1213.69 1161.19,1214.14 1163.23,1214.24 1165.28,1214.43 1167.32,1214.68 1169.37,1214.98 1171.41,1215.28 1173.45,1215.18 1175.5,1215.45 1177.54,1216.02 1179.59,1216.65 1181.63,1216.9 1183.67,1217.11 1185.72,1217.55 1187.76,1218.1 1189.8,1218.28 1191.85,1218.29 1193.89,1218.61 1195.94,1219.45 1197.98,1219.61 1200.02,1220.44 1202.07,1220.23 1204.11,1220.04 1206.16,1220.15 1208.2,1220.18 1210.24,1220.99 1212.29,1221.11 1214.33,1221.35 1216.37,1221.74 1218.42,1222.34 1220.46,1222.95 1222.51,1222.89 1224.55,1223.27 1226.59,1223.75 1228.64,1223.88 1230.68,1224.1 1232.73,1224.32 1234.77,1224.32 1236.81,1224.49 1238.86,1224.57 1240.9,1225.5 1242.94,1225.76 1244.99,1225.97 1247.03,1226.58 1249.08,1226.81 1251.12,1227.01 1253.16,1227.06 1255.21,1227.32 1257.25,1227.52 1259.3,1227.96 1261.34,1227.96 1263.38,1227.71 1265.43,1227.95 1267.47,1227.96 1269.51,1228.7 1271.56,1228.73 1273.6,1228.81 1275.65,1229.12 1277.69,1229.42 1279.73,1230.07 1281.78,1230.28 1283.82,1230.47 1285.87,1230.2 1287.91,1230.32 1289.95,1230.11 1292,1230.08 1294.04,1230.29 1296.09,1230.69 1298.13,1230.59 1300.17,1231 1302.22,1231.89 1304.26,1232.12 1306.3,1232.8 1308.35,1233.34 1310.39,1233.66 1312.44,1233.98 1314.48,1234.57 1316.52,1235.3 1318.57,1235.53 1320.61,1235.58 1322.66,1236.21 1324.7,1236.4 1326.74,1237.15 1328.79,1237.39 1330.83,1237.69 1332.87,1237.79 1334.92,1238.08 1336.96,1238.16 1339.01,1238.4 1341.05,1238.79 1343.09,1239.06 1345.14,1239.25 1347.18,1239.12 1349.23,1239.34 1351.27,1239.88 1353.31,1239.84 1355.36,1239.57 1357.4,1239.79 1359.44,1239.7 1361.49,1239.96 1363.53,1240.22 1365.58,1239.97 1367.62,1240.18 1369.66,1239.86 1371.71,1240.42 1373.75,1240.79 1375.8,1240.67 1377.84,1240.4 1379.88,1240.55 1381.93,1240.71 1383.97,1240.93 1386.01,1241.08 1388.06,1241.33 1390.1,1241.65 1392.15,1241.6 1394.19,1241.51 1396.23,1241.63 1398.28,1241.67 1400.32,1241.6 1402.37,1241.34 1404.41,1241.02 1406.45,1241.37 1408.5,1241.39 1410.54,1241.57 1412.58,1241.4 1414.63,1241.3 1416.67,1241.51 1418.72,1241.22 1420.76,1241.74 1422.8,1241.45 1424.85,1241.68 1426.89,1241.71 1428.94,1241.32 1430.98,1241.16 1433.02,1241.25 1435.07,1240.72 1437.11,1240.88 1439.15,1241.03 1441.2,1241.05 1443.24,1240.93 1445.29,1240.68 1447.33,1240.46 1449.37,1240.58 1451.42,1240.23 1453.46,1240.53 1455.51,1240.5 1457.55,1240.54 1459.59,1240.33 1461.64,1240.27 1463.68,1239.97 1465.72,1239.9 1467.77,1239.69 1469.81,1239.83 1471.86,1239.81 1473.9,1239.8 1475.94,1239.2 1477.99,1239 1480.03,1239.16 1482.08,1239.53 1484.12,1239.49 1486.16,1240.24 1488.21,1240.16 1490.25,1239.8 1492.29,1239.65 1494.34,1240.15 1496.38,1240 1498.43,1239.46 1500.47,1239.91 1502.51,1239.97 1504.56,1239.89 1506.6,1239.42 1508.65,1239.26 1510.69,1239.44 1512.73,1239.46 1514.78,1239.19 1516.82,1238.71 1518.86,1238.72 1520.91,1238.9 1522.95,1239.04 1525,1239.07 1527.04,1239.44 1529.08,1239.39 1531.13,1239.46 1533.17,1239.29 1535.22,1239.22 1537.26,1239.44 1539.3,1239.65 1541.35,1239.68 1543.39,1239.41 1545.43,1239.36 1547.48,1239.42 1549.52,1238.92 1551.57,1238.97 1553.61,1239.23 1555.65,1239.52 1557.7,1239.23 1559.74,1239.37 1561.79,1239.27 1563.83,1239.33 1565.87,1239.35 1567.92,1239.33 1569.96,1239.21 1572,1239.63 1574.05,1239.67 1576.09,1240.05 1578.14,1240.08 1580.18,1239.86 1582.22,1240.27 1584.27,1240.13 1586.31,1240.21 1588.36,1240.02 1590.4,1239.97 1592.44,1239.87 1594.49,1239.63 1596.53,1239.65 1598.57,1239.72 1600.62,1239.71 1602.66,1239.83 1604.71,1239.27 1606.75,1239.38 1608.79,1239.99 1610.84,1239.83 1612.88,1239.88 1614.93,1239.78 1616.97,1239.47 1619.01,1239.48 1621.06,1239.2 1623.1,1239.45 1625.15,1239.4 1627.19,1239.15 1629.23,1238.93 1631.28,1238.82 1633.32,1238.7 1635.36,1238.84 1637.41,1238.96 1639.45,1238.69 1641.5,1238.53 1643.54,1237.71 1645.58,1238.05 1647.63,1237.84 1649.67,1238.02 1651.72,1238.3 1653.76,1238.57 1655.8,1238.58 1657.85,1238.43 1659.89,1238.39 1661.93,1238.27 1663.98,1238.58 1666.02,1238.11 1668.07,1237.87 1670.11,1238 1672.15,1237.83 1674.2,1237.85 1676.24,1237.15 1678.29,1237.02 1680.33,1237.27 1682.37,1237.72 1684.42,1237.5 1686.46,1237.73 1688.5,1237.87 1690.55,1237.56 1692.59,1237.37 1694.64,1237.65 1696.68,1237.55 1698.72,1237.41 1700.77,1237.52 1702.81,1237.34 1704.86,1237.15 1706.9,1237.01 1708.94,1237.19 1710.99,1236.82 1713.03,1236.69 1715.07,1236.97 1717.12,1236.79 1719.16,1236.53 1721.21,1236.55 1723.25,1236.56 1725.29,1236.37 1727.34,1236.54 1729.38,1236.91 1731.43,1236.53 1733.47,1236.91 1735.51,1237.04 1737.56,1236.67 1739.6,1236.65 1741.64,1236.74 1743.69,1236.81 1745.73,1236.76 1747.78,1237.13 1749.82,1237.15 1751.86,1236.96 1753.91,1237.49 1755.95,1237.9 1758,1237.85 1760.04,1237.64 1762.08,1237.78 1764.13,1237.74 1766.17,1237.58 1768.21,1237.35 1770.26,1237.47 1772.3,1237.31 1774.35,1237.18 1776.39,1237.37 1778.43,1237 1780.48,1236.88 1782.52,1237.07 1784.57,1237.12 1786.61,1237.23 1788.65,1237.68 1790.7,1237.43 1792.74,1237.53 1794.78,1237.2 1796.83,1237.23 1798.87,1236.92 1800.92,1236.99 1802.96,1236.79 1805,1236.32 1807.05,1236.33 1809.09,1235.81 1811.14,1236.4 1813.18,1236.05 1815.22,1236.09 1817.27,1236.27 1819.31,1236.07 1821.35,1236.51 1823.4,1236.44 1825.44,1236.58 1827.49,1236.86 1829.53,1237.11 1831.57,1237 1833.62,1236.96 1835.66,1236.88 1837.71,1236.65 1839.75,1236.46 1841.79,1236.06 1843.84,1235.95 1845.88,1236.39 1847.92,1236.52 1849.97,1237.16 1852.01,1237.63 1854.06,1237.37 1856.1,1237.22 1858.14,1237.45 1860.19,1237 1862.23,1237.24 1864.28,1236.8 1866.32,1236.46 1868.36,1236.98 1870.41,1236.71 1872.45,1236.51 1874.49,1236.97 1876.54,1236.71 1878.58,1237.14 1880.63,1237.04 1882.67,1236.86 1884.71,1237 1886.76,1236.94 1888.8,1236.91 1890.85,1236.81 1892.89,1236.52 1894.93,1236.78 1896.98,1236.55 1899.02,1236.68 1901.06,1236.37 1903.11,1236.79 1905.15,1236.63 1907.2,1236.75 1909.24,1236.5 1911.28,1236.54 1913.33,1236.52 1915.37,1236.62 1917.42,1236.86 1919.46,1236.56 1921.5,1236.53 1923.55,1236.5 1925.59,1236.53 1927.63,1236.37 1929.68,1236.99 1931.72,1236.63 1933.77,1236.6 1935.81,1237.05 1937.85,1237.28 1939.9,1237.31 1941.94,1237.32 1943.99,1237.66 1946.03,1238.12 1948.07,1238.59 1950.12,1238.31 1952.16,1238.19 1954.2,1238.51 1956.25,1238.66 1958.29,1238.83 1960.34,1238.53 1962.38,1238.38 1964.42,1238.74 1966.47,1238.3 1968.51,1237.24 1970.56,1237.54 1972.6,1238.1 1974.64,1237.83 1976.69,1238.03 1978.73,1238.53 1980.78,1238.19 1982.82,1237.84 1984.86,1237.79 1986.91,1237.55 1988.95,1237.55 1990.99,1237 1993.04,1236.78 1995.08,1236.98 1997.13,1237.32 1999.17,1237.43 2001.21,1237.02 2003.26,1237.04 2005.3,1236.63 2007.35,1236.67 2009.39,1236.85 2011.43,1236.66 2013.48,1236.51 2015.52,1236.15 2017.56,1236.25 2019.61,1236.36 2021.65,1235.78 2023.7,1235.94 2025.74,1235.91 2027.78,1235.82 2029.83,1235.74 2031.87,1236.2 2033.92,1236.35 2035.96,1235.91 2038,1236.1 2040.05,1236.13 2042.09,1236.05 2044.13,1236.3 2046.18,1236.26 2048.22,1236.67 2050.27,1236.71 2052.31,1236.58 2054.35,1236.6 2056.4,1236.42 2058.44,1235.94 2060.49,1236.51 2062.53,1236.52 2064.57,1236.94 2066.62,1236.82 2068.66,1236.7 2070.7,1236.59 2072.75,1236.68 2074.79,1236.74 2076.84,1236.9 2078.88,1236.77 2080.92,1237.22 2082.97,1237.14 2085.01,1237.09 2087.06,1236.91 2089.1,1237.08 2091.14,1237.05 2093.19,1237.02 2095.23,1236.65 2097.27,1236.74 2099.32,1236.46 2101.36,1236.46 2103.41,1236.14 2105.45,1235.89 2107.49,1236.22 2109.54,1236.08 2111.58,1236.26 2113.63,1235.84 2115.67,1236.15 2117.71,1236.46 2119.76,1236.16 2121.8,1236.28 2123.84,1236.23 2125.89,1236.07 2127.93,1235.95 2129.98,1235.69 2132.02,1235.69 2134.06,1236.11 2136.11,1236.18 2138.15,1236.43 2140.2,1236.23 2142.24,1236.36 2144.28,1236.3 2146.33,1236.28 2148.37,1236.54 2150.41,1236.66 2152.46,1236.78 2154.5,1236.66 2156.55,1236.55 2158.59,1236.47 2160.63,1236.55 2162.68,1236.08 2164.72,1236.09 2166.77,1236.7 2168.81,1236.72 2170.85,1236.28 2172.9,1236.51 2174.94,1236.18 2176.98,1236.03 2179.03,1236.19 2181.07,1236.09 2183.12,1236.08 2185.16,1236.57 2187.2,1236.62 2189.25,1236.54 2191.29,1236.71 2193.34,1236.68 2195.38,1236.69 2197.42,1236.67 2199.47,1236.88 2201.51,1236.84 2203.55,1237.09 2205.6,1237.12 2207.64,1236.83 2209.69,1237.29 2211.73,1237.58 2213.77,1237.44 2215.82,1237.5 2217.86,1237.37 2219.91,1237.08 2221.95,1236.86 2223.99,1236.83 2226.04,1236.86 2228.08,1236.97 2230.12,1237.06 2232.17,1237.16 2234.21,1237.29 2236.26,1237.26 2238.3,1237.31 2240.34,1237.44 2242.39,1237.23 2244.43,1237.15 2246.48,1237.06 2248.52,1236.87 2250.56,1236.98 2252.61,1236.32 2254.65,1236.54 2256.69,1237.09 2258.74,1236.7 2260.78,1236.77 2262.83,1236.82 2264.87,1237.01 2266.91,1236.81 2268.96,1236.96 2271,1237.05 2273.05,1236.7 2275.09,1236.24 2277.13,1236.27 2279.18,1236.76 2281.22,1236.74 2283.26,1236.68 2285.31,1236.31 2287.35,1236.79 2289.4,1236.87 2291.44,1237.06 "></polyline>
<path clip-path="url(#clip070)" d="M1906.79 250.738 L2280.54 250.738 L2280.54 95.2176 L1906.79 95.2176  Z" fill="#ffffff" fill-rule="evenodd" fill-opacity="1"></path>
<polyline clip-path="url(#clip070)" style="stroke:#000000; stroke-linecap:round; stroke-linejoin:round; stroke-width:4; stroke-opacity:1; fill:none" points="1906.79,250.738 2280.54,250.738 2280.54,95.2176 1906.79,95.2176 1906.79,250.738 "></polyline>
<polyline clip-path="url(#clip070)" style="stroke:#009af9; stroke-linecap:round; stroke-linejoin:round; stroke-width:4; stroke-opacity:1; fill:none" points="1930.86,147.058 2075.29,147.058 "></polyline>
<path clip-path="url(#clip070)" d="M2099.36 129.778 L2119.22 129.778 L2119.22 133.713 L2104.04 133.713 L2104.04 143.898 L2117.74 143.898 L2117.74 147.833 L2104.04 147.833 L2104.04 164.338 L2099.36 164.338 L2099.36 129.778 Z" fill="#000000" fill-rule="nonzero" fill-opacity="1"></path><path clip-path="url(#clip070)" d="M2126.63 129.778 L2148.48 129.778 L2148.48 133.713 L2131.31 133.713 L2131.31 143.944 L2147.76 143.944 L2147.76 147.879 L2131.31 147.879 L2131.31 160.402 L2148.9 160.402 L2148.9 164.338 L2126.63 164.338 L2126.63 129.778 Z" fill="#000000" fill-rule="nonzero" fill-opacity="1"></path><path clip-path="url(#clip070)" d="M2182.46 132.44 L2182.46 137.37 Q2180.1 135.171 2177.42 134.083 Q2174.76 132.995 2171.75 132.995 Q2165.82 132.995 2162.67 136.629 Q2159.52 140.24 2159.52 147.092 Q2159.52 153.921 2162.67 157.555 Q2165.82 161.166 2171.75 161.166 Q2174.76 161.166 2177.42 160.078 Q2180.1 158.99 2182.46 156.791 L2182.46 161.676 Q2180.01 163.342 2177.26 164.176 Q2174.52 165.009 2171.47 165.009 Q2163.62 165.009 2159.11 160.217 Q2154.59 155.402 2154.59 147.092 Q2154.59 138.759 2159.11 133.967 Q2163.62 129.153 2171.47 129.153 Q2174.57 129.153 2177.3 129.986 Q2180.06 130.796 2182.46 132.44 Z" fill="#000000" fill-rule="nonzero" fill-opacity="1"></path><path clip-path="url(#clip070)" d="M2189.69 129.778 L2196.65 129.778 L2205.47 153.296 L2214.34 129.778 L2221.31 129.778 L2221.31 164.338 L2216.75 164.338 L2216.75 133.99 L2207.83 157.694 L2203.13 157.694 L2194.22 133.99 L2194.22 164.338 L2189.69 164.338 L2189.69 129.778 Z" fill="#000000" fill-rule="nonzero" fill-opacity="1"></path><path clip-path="url(#clip070)" d="M2256.47 132.44 L2256.47 137.37 Q2254.11 135.171 2251.42 134.083 Q2248.76 132.995 2245.75 132.995 Q2239.82 132.995 2236.68 136.629 Q2233.53 140.24 2233.53 147.092 Q2233.53 153.921 2236.68 157.555 Q2239.82 161.166 2245.75 161.166 Q2248.76 161.166 2251.42 160.078 Q2254.11 158.99 2256.47 156.791 L2256.47 161.676 Q2254.01 163.342 2251.26 164.176 Q2248.53 165.009 2245.47 165.009 Q2237.63 165.009 2233.11 160.217 Q2228.6 155.402 2228.6 147.092 Q2228.6 138.759 2233.11 133.967 Q2237.63 129.153 2245.47 129.153 Q2248.57 129.153 2251.31 129.986 Q2254.06 130.796 2256.47 132.44 Z" fill="#000000" fill-rule="nonzero" fill-opacity="1"></path><polyline clip-path="url(#clip070)" style="stroke:#e26f46; stroke-linecap:round; stroke-linejoin:round; stroke-width:4; stroke-opacity:1; fill:none" points="1930.86,198.898 2075.29,198.898 "></polyline>
<path clip-path="url(#clip070)" d="M2104.04 199.673 L2104.04 212.335 L2111.54 212.335 Q2115.31 212.335 2117.12 210.784 Q2118.95 209.21 2118.95 205.992 Q2118.95 202.752 2117.12 201.224 Q2115.31 199.673 2111.54 199.673 L2104.04 199.673 M2104.04 185.46 L2104.04 195.877 L2110.96 195.877 Q2114.39 195.877 2116.05 194.604 Q2117.74 193.307 2117.74 190.668 Q2117.74 188.053 2116.05 186.756 Q2114.39 185.46 2110.96 185.46 L2104.04 185.46 M2099.36 181.618 L2111.31 181.618 Q2116.65 181.618 2119.55 183.84 Q2122.44 186.062 2122.44 190.159 Q2122.44 193.33 2120.96 195.205 Q2119.48 197.08 2116.61 197.543 Q2120.06 198.284 2121.95 200.645 Q2123.88 202.983 2123.88 206.502 Q2123.88 211.131 2120.73 213.654 Q2117.58 216.178 2111.77 216.178 L2099.36 216.178 L2099.36 181.618 Z" fill="#000000" fill-rule="nonzero" fill-opacity="1"></path><path clip-path="url(#clip070)" d="M2136.56 185.46 L2136.56 198.446 L2142.44 198.446 Q2145.7 198.446 2147.49 196.756 Q2149.27 195.067 2149.27 191.942 Q2149.27 188.84 2147.49 187.15 Q2145.7 185.46 2142.44 185.46 L2136.56 185.46 M2131.89 181.618 L2142.44 181.618 Q2148.25 181.618 2151.21 184.256 Q2154.2 186.872 2154.2 191.942 Q2154.2 197.057 2151.21 199.673 Q2148.25 202.289 2142.44 202.289 L2136.56 202.289 L2136.56 216.178 L2131.89 216.178 L2131.89 181.618 Z" fill="#000000" fill-rule="nonzero" fill-opacity="1"></path><path clip-path="url(#clip070)" d="M2181.19 182.752 L2181.19 187.312 Q2178.53 186.039 2176.17 185.414 Q2173.81 184.789 2171.61 184.789 Q2167.79 184.789 2165.7 186.27 Q2163.64 187.752 2163.64 190.483 Q2163.64 192.775 2165.01 193.955 Q2166.4 195.113 2170.24 195.83 L2173.07 196.409 Q2178.3 197.405 2180.77 199.928 Q2183.27 202.428 2183.27 206.641 Q2183.27 211.664 2179.89 214.256 Q2176.54 216.849 2170.03 216.849 Q2167.58 216.849 2164.8 216.293 Q2162.05 215.738 2159.08 214.65 L2159.08 209.835 Q2161.93 211.432 2164.66 212.242 Q2167.39 213.053 2170.03 213.053 Q2174.04 213.053 2176.21 211.479 Q2178.39 209.904 2178.39 206.988 Q2178.39 204.442 2176.82 203.006 Q2175.26 201.571 2171.7 200.854 L2168.85 200.298 Q2163.62 199.256 2161.28 197.034 Q2158.95 194.812 2158.95 190.854 Q2158.95 186.27 2162.16 183.631 Q2165.4 180.993 2171.07 180.993 Q2173.51 180.993 2176.03 181.432 Q2178.55 181.872 2181.19 182.752 Z" fill="#000000" fill-rule="nonzero" fill-opacity="1"></path></svg>