<?xml version="1.0" standalone="no"?>
<!DOCTYPE svg PUBLIC "-//W3C//DTD SVG 20010904//EN"
 "http://www.w3.org/TR/2001/REC-SVG-20010904/DTD/svg10.dtd">
<svg version="1.0" xmlns="http://www.w3.org/2000/svg"
 width="320.000000pt" height="320.000000pt" viewBox="0 0 320.000000 320.000000"
 preserveAspectRatio="xMidYMid meet">
<metadata>
Created by potrace 1.15, written by Peter Selinger 2001-2017
</metadata><g><rect x="0" y="0" width="320" height="320" fill="#f0f1eb" />
<g transform="translate(0.000000,320.000000) scale(0.050000,-0.050000)"
fill="#363d3d" stroke="none">
<path d="M560 5280 l0 -560 560 0 560 0 0 560 0 560 -560 0 -560 0 0 -560z
m960 0 l0 -400 -400 0 -400 0 0 400 0 400 400 0 400 0 0 -400z"/>
<path d="M880 5280 l0 -240 240 0 240 0 0 240 0 240 -240 0 -240 0 0 -240z"/>
<path d="M1840 5520 l0 -320 80 0 80 0 0 -80 0 -80 -80 0 -80 0 0 -160 0 -160
80 0 80 0 0 80 0 80 80 0 80 0 0 -240 0 -240 80 0 80 0 0 80 0 80 80 0 80 0 0
-80 0 -80 80 0 80 0 0 80 0 80 -80 0 -80 0 0 80 0 80 80 0 80 0 0 80 0 80 -80
0 -80 0 0 -80 0 -80 -80 0 -80 0 0 320 0 320 -80 0 -80 0 0 80 0 80 -80 0 -80
0 0 160 0 160 -80 0 -80 0 0 -320z"/>
<path d="M2640 5760 l0 -80 -160 0 -160 0 0 -80 0 -80 80 0 80 0 0 -240 0
-240 160 0 160 0 0 -160 0 -160 80 0 80 0 0 -80 0 -80 -80 0 -80 0 0 -160 0
-160 -80 0 -80 0 0 -80 0 -80 -80 0 -80 0 0 -80 0 -80 -80 0 -80 0 0 -80 0
-80 -80 0 -80 0 0 -80 0 -80 -160 0 -160 0 0 240 0 240 80 0 80 0 0 -80 0 -80
80 0 80 0 0 80 0 80 80 0 80 0 0 80 0 80 -160 0 -160 0 0 80 0 80 -80 0 -80 0
0 -80 0 -80 -160 0 -160 0 0 -80 0 -80 80 0 80 0 0 -80 0 -80 -80 0 -80 0 0
-80 0 -80 -160 0 -160 0 0 -80 0 -80 160 0 160 0 0 -80 0 -80 240 0 240 0 0
-160 0 -160 -80 0 -80 0 0 80 0 80 -160 0 -160 0 0 -80 0 -80 160 0 160 0 0
-80 0 -80 -320 0 -320 0 0 80 0 80 -80 0 -80 0 0 80 0 80 160 0 160 0 0 80 0
80 -160 0 -160 0 0 160 0 160 -80 0 -80 0 0 80 0 80 80 0 80 0 0 80 0 80 80 0
80 0 0 -80 0 -80 80 0 80 0 0 160 0 160 -80 0 -80 0 0 80 0 80 240 0 240 0 0
80 0 80 -240 0 -240 0 0 -80 0 -80 -80 0 -80 0 0 -80 0 -80 -160 0 -160 0 0
80 0 80 80 0 80 0 0 80 0 80 -160 0 -160 0 0 -320 0 -320 80 0 80 0 0 -160 0
-160 80 0 80 0 0 -80 0 -80 -80 0 -80 0 0 -160 0 -160 80 0 80 0 0 -80 0 -80
160 0 160 0 0 -160 0 -160 -240 0 -240 0 0 80 0 80 -80 0 -80 0 0 -240 0 -240
160 0 160 0 0 -80 0 -80 80 0 80 0 0 80 0 80 -80 0 -80 0 0 80 0 80 400 0 400
0 0 -80 0 -80 -240 0 -240 0 0 -240 0 -240 80 0 80 0 0 160 0 160 160 0 160 0
0 -80 0 -80 -80 0 -80 0 0 -80 0 -80 80 0 80 0 0 80 0 80 80 0 80 0 0 -160 0
-160 160 0 160 0 0 80 0 80 -80 0 -80 0 0 160 0 160 80 0 80 0 0 -80 0 -80
160 0 160 0 0 -80 0 -80 80 0 80 0 0 80 0 80 -80 0 -80 0 0 80 0 80 80 0 80 0
0 160 0 160 -80 0 -80 0 0 80 0 80 80 0 80 0 0 80 0 80 -80 0 -80 0 0 -80 0
-80 -160 0 -160 0 0 -80 0 -80 -80 0 -80 0 0 -160 0 -160 -160 0 -160 0 0 80
0 80 80 0 80 0 0 80 0 80 -80 0 -80 0 0 80 0 80 -80 0 -80 0 0 80 0 80 240 0
240 0 0 80 0 80 160 0 160 0 0 80 0 80 -80 0 -80 0 0 160 0 160 80 0 80 0 0
-80 0 -80 80 0 80 0 0 -80 0 -80 80 0 80 0 0 -80 0 -80 80 0 80 0 0 -80 0 -80
160 0 160 0 0 -240 0 -240 -80 0 -80 0 0 80 0 80 -80 0 -80 0 0 -240 0 -240
80 0 80 0 0 80 0 80 80 0 80 0 0 80 0 80 160 0 160 0 0 80 0 80 -80 0 -80 0 0
80 0 80 160 0 160 0 0 240 0 240 80 0 80 0 0 80 0 80 -160 0 -160 0 0 80 0 80
80 0 80 0 0 160 0 160 80 0 80 0 0 80 0 80 80 0 80 0 0 -160 0 -160 80 0 80 0
0 240 0 240 160 0 160 0 0 -80 0 -80 -80 0 -80 0 0 -240 0 -240 80 0 80 0 0
-80 0 -80 -80 0 -80 0 0 -80 0 -80 -80 0 -80 0 0 160 0 160 -80 0 -80 0 0
-160 0 -160 80 0 80 0 0 -160 0 -160 -80 0 -80 0 0 80 0 80 -80 0 -80 0 0
-240 0 -240 160 0 160 0 0 -80 0 -80 -160 0 -160 0 0 -80 0 -80 -80 0 -80 0 0
-80 0 -80 80 0 80 0 0 -80 0 -80 160 0 160 0 0 -160 0 -160 -80 0 -80 0 0 80
0 80 -80 0 -80 0 0 -80 0 -80 -160 0 -160 0 0 80 0 80 80 0 80 0 0 80 0 80
-80 0 -80 0 0 160 0 160 -80 0 -80 0 0 -160 0 -160 -240 0 -240 0 0 -160 0
-160 80 0 80 0 0 -80 0 -80 -160 0 -160 0 0 80 0 80 -80 0 -80 0 0 -80 0 -80
-80 0 -80 0 0 80 0 80 -80 0 -80 0 0 -80 0 -80 80 0 80 0 0 -80 0 -80 80 0 80
0 0 -80 0 -80 -160 0 -160 0 0 80 0 80 -80 0 -80 0 0 160 0 160 -80 0 -80 0 0
-160 0 -160 80 0 80 0 0 -160 0 -160 -80 0 -80 0 0 -160 0 -160 240 0 240 0 0
80 0 80 80 0 80 0 0 -80 0 -80 160 0 160 0 0 160 0 160 160 0 160 0 0 -80 0
-80 -80 0 -80 0 0 -80 0 -80 160 0 160 0 0 80 0 80 240 0 240 0 0 -80 0 -80
160 0 160 0 0 80 0 80 80 0 80 0 0 -80 0 -80 160 0 160 0 0 80 0 80 80 0 80 0
0 -80 0 -80 80 0 80 0 0 80 0 80 80 0 80 0 0 80 0 80 80 0 80 0 0 -160 0 -160
80 0 80 0 0 160 0 160 160 0 160 0 0 80 0 80 80 0 80 0 0 240 0 240 -80 0 -80
0 0 240 0 240 -80 0 -80 0 0 -80 0 -80 -80 0 -80 0 0 160 0 160 160 0 160 0 0
80 0 80 -160 0 -160 0 0 80 0 80 -80 0 -80 0 0 80 0 80 80 0 80 0 0 80 0 80
160 0 160 0 0 80 0 80 -160 0 -160 0 0 80 0 80 -80 0 -80 0 0 80 0 80 80 0 80
0 0 80 0 80 160 0 160 0 0 80 0 80 -480 0 -480 0 0 80 0 80 80 0 80 0 0 160 0
160 80 0 80 0 0 240 0 240 -80 0 -80 0 0 -240 0 -240 -80 0 -80 0 0 160 0 160
-80 0 -80 0 0 -80 0 -80 -80 0 -80 0 0 80 0 80 -80 0 -80 0 0 80 0 80 80 0 80
0 0 80 0 80 80 0 80 0 0 160 0 160 -80 0 -80 0 0 80 0 80 -160 0 -160 0 0
-240 0 -240 -80 0 -80 0 0 160 0 160 -160 0 -160 0 0 160 0 160 -80 0 -80 0 0
80 0 80 -80 0 -80 0 0 -80 0 -80 -80 0 -80 0 0 80 0 80 -160 0 -160 0 0 80 0
80 240 0 240 0 0 80 0 80 -320 0 -320 0 0 -80z m160 -320 l0 -80 -80 0 -80 0
0 80 0 80 80 0 80 0 0 -80z m320 -160 l0 -80 -80 0 -80 0 0 -80 0 -80 240 0
240 0 0 -160 0 -160 -80 0 -80 0 0 80 0 80 -80 0 -80 0 0 -80 0 -80 -80 0 -80
0 0 160 0 160 -80 0 -80 0 0 80 0 80 80 0 80 0 0 80 0 80 80 0 80 0 0 -80z
m320 0 l0 -80 -80 0 -80 0 0 80 0 80 80 0 80 0 0 -80z m960 -400 l0 -160 -80
0 -80 0 0 160 0 160 80 0 80 0 0 -160z m-640 -160 l0 -160 80 0 80 0 0 -80 0
-80 80 0 80 0 0 -160 0 -160 -80 0 -80 0 0 80 0 80 -80 0 -80 0 0 -160 0 -160
-80 0 -80 0 0 -80 0 -80 -80 0 -80 0 0 80 0 80 80 0 80 0 0 240 0 240 -80 0
-80 0 0 80 0 80 80 0 80 0 0 160 0 160 80 0 80 0 0 -160z m-640 -240 l0 -80
-80 0 -80 0 0 80 0 80 80 0 80 0 0 -80z m320 -320 l0 -80 -80 0 -80 0 0 -160
0 -160 -80 0 -80 0 0 240 0 240 160 0 160 0 0 -80z m-480 -240 l0 -160 -80 0
-80 0 0 -80 0 -80 80 0 80 0 0 -160 0 -160 160 0 160 0 0 -80 0 -80 -160 0
-160 0 0 -80 0 -80 -80 0 -80 0 0 80 0 80 -80 0 -80 0 0 80 0 80 -80 0 -80 0
0 80 0 80 80 0 80 0 0 160 0 160 -80 0 -80 0 0 -80 0 -80 -80 0 -80 0 0 80 0
80 80 0 80 0 0 80 0 80 80 0 80 0 0 80 0 80 160 0 160 0 0 -160z m1760 -80 l0
-80 -80 0 -80 0 0 80 0 80 80 0 80 0 0 -80z m-3040 -160 l0 -80 -80 0 -80 0 0
80 0 80 80 0 80 0 0 -80z m1760 -160 l0 -80 -160 0 -160 0 0 80 0 80 160 0
160 0 0 -80z m1280 0 l0 -80 80 0 80 0 0 -80 0 -80 -80 0 -80 0 0 -80 0 -80
240 0 240 0 0 -80 0 -80 80 0 80 0 0 -80 0 -80 -80 0 -80 0 0 80 0 80 -160 0
-160 0 0 -80 0 -80 80 0 80 0 0 -80 0 -80 -160 0 -160 0 0 -80 0 -80 240 0
240 0 0 -80 0 -80 80 0 80 0 0 -80 0 -80 -240 0 -240 0 0 -80 0 -80 -160 0
-160 0 0 80 0 80 -80 0 -80 0 0 -80 0 -80 -80 0 -80 0 0 -80 0 -80 80 0 80 0
0 -160 0 -160 -80 0 -80 0 0 160 0 160 -80 0 -80 0 0 80 0 80 80 0 80 0 0 80
0 80 80 0 80 0 0 160 0 160 80 0 80 0 0 80 0 80 -80 0 -80 0 0 80 0 80 160 0
160 0 0 80 0 80 -160 0 -160 0 0 80 0 80 80 0 80 0 0 80 0 80 80 0 80 0 0 80
0 80 -80 0 -80 0 0 80 0 80 80 0 80 0 0 -80z m-3680 -160 l0 -80 -80 0 -80 0
0 80 0 80 80 0 80 0 0 -80z m4160 0 l0 -80 -80 0 -80 0 0 80 0 80 80 0 80 0 0
-80z m-1760 -480 l0 -80 -160 0 -160 0 0 80 0 80 160 0 160 0 0 -80z m800
-320 l0 -80 -80 0 -80 0 0 80 0 80 80 0 80 0 0 -80z m-1760 -160 l0 -80 -80 0
-80 0 0 -80 0 -80 -80 0 -80 0 0 80 0 80 80 0 80 0 0 80 0 80 80 0 80 0 0 -80z
m2560 -800 l0 -240 -240 0 -240 0 0 240 0 240 240 0 240 0 0 -240z m320 160
l0 -80 80 0 80 0 0 -80 0 -80 80 0 80 0 0 -80 0 -80 -80 0 -80 0 0 -80 0 -80
-80 0 -80 0 0 160 0 160 -80 0 -80 0 0 160 0 160 80 0 80 0 0 -80z m-2080
-160 l0 -80 -80 0 -80 0 0 80 0 80 80 0 80 0 0 -80z m640 -160 l0 -80 -80 0
-80 0 0 80 0 80 80 0 80 0 0 -80z m-1280 -160 l0 -80 80 0 80 0 0 -80 0 -80
-80 0 -80 0 0 80 0 80 -80 0 -80 0 0 80 0 80 80 0 80 0 0 -80z m640 0 l0 -80
80 0 80 0 0 80 0 80 80 0 80 0 0 -80 0 -80 -80 0 -80 0 0 -160 0 -160 -80 0
-80 0 0 160 0 160 -160 0 -160 0 0 80 0 80 160 0 160 0 0 -80z m1120 0 l0 -80
160 0 160 0 0 -80 0 -80 -80 0 -80 0 0 -80 0 -80 -80 0 -80 0 0 80 0 80 -80 0
-80 0 0 -80 0 -80 -80 0 -80 0 0 80 0 80 -160 0 -160 0 0 -80 0 -80 -80 0 -80
0 0 80 0 80 80 0 80 0 0 80 0 80 160 0 160 0 0 80 0 80 160 0 160 0 0 -80z
m-2240 -480 l0 -80 -80 0 -80 0 0 80 0 80 80 0 80 0 0 -80z m480 0 l0 -80 -80
0 -80 0 0 80 0 80 80 0 80 0 0 -80z m2240 0 l0 -80 -80 0 -80 0 0 80 0 80 80
0 80 0 0 -80z"/>
<path d="M3600 4480 l0 -80 80 0 80 0 0 80 0 80 -80 0 -80 0 0 -80z"/>
<path d="M4560 2400 l0 -80 80 0 80 0 0 -80 0 -80 80 0 80 0 0 80 0 80 -80 0
-80 0 0 80 0 80 -80 0 -80 0 0 -80z"/>
<path d="M4720 1600 l0 -80 80 0 80 0 0 80 0 80 -80 0 -80 0 0 -80z"/>
<path d="M4080 1120 l0 -80 80 0 80 0 0 80 0 80 -80 0 -80 0 0 -80z"/>
<path d="M4080 5760 l0 -80 -80 0 -80 0 0 -160 0 -160 80 0 80 0 0 160 0 160
160 0 160 0 0 80 0 80 -160 0 -160 0 0 -80z"/>
<path d="M4720 5280 l0 -560 560 0 560 0 0 560 0 560 -560 0 -560 0 0 -560z
m960 0 l0 -400 -400 0 -400 0 0 400 0 400 400 0 400 0 0 -400z"/>
<path d="M5040 5280 l0 -240 240 0 240 0 0 240 0 240 -240 0 -240 0 0 -240z"/>
<path d="M3600 5600 l0 -80 80 0 80 0 0 80 0 80 -80 0 -80 0 0 -80z"/>
<path d="M4400 5440 l0 -80 80 0 80 0 0 80 0 80 -80 0 -80 0 0 -80z"/>
<path d="M5200 4480 l0 -80 80 0 80 0 0 -160 0 -160 -80 0 -80 0 0 -80 0 -80
-80 0 -80 0 0 -80 0 -80 160 0 160 0 0 160 0 160 160 0 160 0 0 80 0 80 -80 0
-80 0 0 80 0 80 160 0 160 0 0 80 0 80 -320 0 -320 0 0 -80z"/>
<path d="M5520 3840 l0 -80 160 0 160 0 0 80 0 80 -160 0 -160 0 0 -80z"/>
<path d="M5680 3200 l0 -80 80 0 80 0 0 80 0 80 -80 0 -80 0 0 -80z"/>
<path d="M5680 2560 l0 -80 80 0 80 0 0 80 0 80 -80 0 -80 0 0 -80z"/>
<path d="M560 1920 l0 -80 240 0 240 0 0 80 0 80 -240 0 -240 0 0 -80z"/>
<path d="M560 1120 l0 -560 560 0 560 0 0 560 0 560 -560 0 -560 0 0 -560z
m960 0 l0 -400 -400 0 -400 0 0 400 0 400 400 0 400 0 0 -400z"/>
<path d="M880 1120 l0 -240 240 0 240 0 0 240 0 240 -240 0 -240 0 0 -240z"/>
<path d="M5680 640 l0 -80 80 0 80 0 0 80 0 80 -80 0 -80 0 0 -80z"/>
</g>
</g></svg>
