<?xml version="1.0" encoding="utf-8"?>
<svg xmlns="http://www.w3.org/2000/svg" xmlns:xlink="http://www.w3.org/1999/xlink" width="600" height="400" viewBox="0 0 2400 1600">
<defs>
  <clipPath id="clip450">
    <rect x="0" y="0" width="2400" height="1600"/>
  </clipPath>
</defs>
<path clip-path="url(#clip450)" d="M0 1600 L2400 1600 L2400 8.88178e-14 L0 8.88178e-14  Z" fill="#ffffff" fill-rule="evenodd" fill-opacity="1"/>
<defs>
  <clipPath id="clip451">
    <rect x="480" y="0" width="1681" height="1600"/>
  </clipPath>
</defs>
<path clip-path="url(#clip450)" d="M219.866 1423.18 L2352.76 1423.18 L2352.76 123.472 L219.866 123.472  Z" fill="#ffffff" fill-rule="evenodd" fill-opacity="1"/>
<defs>
  <clipPath id="clip452">
    <rect x="219" y="123" width="2134" height="1301"/>
  </clipPath>
</defs>
<polyline clip-path="url(#clip452)" style="stroke:#000000; stroke-linecap:round; stroke-linejoin:round; stroke-width:2; stroke-opacity:0.1; fill:none" points="285.137,1423.18 285.137,123.472 "/>
<polyline clip-path="url(#clip452)" style="stroke:#000000; stroke-linecap:round; stroke-linejoin:round; stroke-width:2; stroke-opacity:0.1; fill:none" points="769.35,1423.18 769.35,123.472 "/>
<polyline clip-path="url(#clip452)" style="stroke:#000000; stroke-linecap:round; stroke-linejoin:round; stroke-width:2; stroke-opacity:0.1; fill:none" points="1253.56,1423.18 1253.56,123.472 "/>
<polyline clip-path="url(#clip452)" style="stroke:#000000; stroke-linecap:round; stroke-linejoin:round; stroke-width:2; stroke-opacity:0.1; fill:none" points="1737.78,1423.18 1737.78,123.472 "/>
<polyline clip-path="url(#clip452)" style="stroke:#000000; stroke-linecap:round; stroke-linejoin:round; stroke-width:2; stroke-opacity:0.1; fill:none" points="2221.99,1423.18 2221.99,123.472 "/>
<polyline clip-path="url(#clip452)" style="stroke:#000000; stroke-linecap:round; stroke-linejoin:round; stroke-width:2; stroke-opacity:0.1; fill:none" points="219.866,1423.18 2352.76,1423.18 "/>
<polyline clip-path="url(#clip452)" style="stroke:#000000; stroke-linecap:round; stroke-linejoin:round; stroke-width:2; stroke-opacity:0.1; fill:none" points="219.866,1122.32 2352.76,1122.32 "/>
<polyline clip-path="url(#clip452)" style="stroke:#000000; stroke-linecap:round; stroke-linejoin:round; stroke-width:2; stroke-opacity:0.1; fill:none" points="219.866,821.463 2352.76,821.463 "/>
<polyline clip-path="url(#clip452)" style="stroke:#000000; stroke-linecap:round; stroke-linejoin:round; stroke-width:2; stroke-opacity:0.1; fill:none" points="219.866,520.605 2352.76,520.605 "/>
<polyline clip-path="url(#clip452)" style="stroke:#000000; stroke-linecap:round; stroke-linejoin:round; stroke-width:2; stroke-opacity:0.1; fill:none" points="219.866,219.747 2352.76,219.747 "/>
<polyline clip-path="url(#clip450)" style="stroke:#000000; stroke-linecap:round; stroke-linejoin:round; stroke-width:4; stroke-opacity:1; fill:none" points="219.866,1423.18 2352.76,1423.18 "/>
<polyline clip-path="url(#clip450)" style="stroke:#000000; stroke-linecap:round; stroke-linejoin:round; stroke-width:4; stroke-opacity:1; fill:none" points="285.137,1423.18 285.137,1404.28 "/>
<polyline clip-path="url(#clip450)" style="stroke:#000000; stroke-linecap:round; stroke-linejoin:round; stroke-width:4; stroke-opacity:1; fill:none" points="769.35,1423.18 769.35,1404.28 "/>
<polyline clip-path="url(#clip450)" style="stroke:#000000; stroke-linecap:round; stroke-linejoin:round; stroke-width:4; stroke-opacity:1; fill:none" points="1253.56,1423.18 1253.56,1404.28 "/>
<polyline clip-path="url(#clip450)" style="stroke:#000000; stroke-linecap:round; stroke-linejoin:round; stroke-width:4; stroke-opacity:1; fill:none" points="1737.78,1423.18 1737.78,1404.28 "/>
<polyline clip-path="url(#clip450)" style="stroke:#000000; stroke-linecap:round; stroke-linejoin:round; stroke-width:4; stroke-opacity:1; fill:none" points="2221.99,1423.18 2221.99,1404.28 "/>
<path clip-path="url(#clip450)" d="M254.037 1468.75 L283.713 1468.75 L283.713 1472.69 L254.037 1472.69 L254.037 1468.75 Z" fill="#000000" fill-rule="nonzero" fill-opacity="1" /><path clip-path="url(#clip450)" d="M306.653 1455.09 L294.847 1473.54 L306.653 1473.54 L306.653 1455.09 M305.426 1451.02 L311.306 1451.02 L311.306 1473.54 L316.236 1473.54 L316.236 1477.43 L311.306 1477.43 L311.306 1485.58 L306.653 1485.58 L306.653 1477.43 L291.051 1477.43 L291.051 1472.92 L305.426 1451.02 Z" fill="#000000" fill-rule="nonzero" fill-opacity="1" /><path clip-path="url(#clip450)" d="M739.292 1468.75 L768.968 1468.75 L768.968 1472.69 L739.292 1472.69 L739.292 1468.75 Z" fill="#000000" fill-rule="nonzero" fill-opacity="1" /><path clip-path="url(#clip450)" d="M783.088 1481.64 L799.408 1481.64 L799.408 1485.58 L777.463 1485.58 L777.463 1481.64 Q780.125 1478.89 784.709 1474.26 Q789.315 1469.61 790.496 1468.27 Q792.741 1465.74 793.621 1464.01 Q794.523 1462.25 794.523 1460.56 Q794.523 1457.8 792.579 1456.07 Q790.658 1454.33 787.556 1454.33 Q785.357 1454.33 782.903 1455.09 Q780.473 1455.86 777.695 1457.41 L777.695 1452.69 Q780.519 1451.55 782.973 1450.97 Q785.426 1450.39 787.463 1450.39 Q792.834 1450.39 796.028 1453.08 Q799.223 1455.77 799.223 1460.26 Q799.223 1462.39 798.412 1464.31 Q797.625 1466.2 795.519 1468.8 Q794.94 1469.47 791.838 1472.69 Q788.736 1475.88 783.088 1481.64 Z" fill="#000000" fill-rule="nonzero" fill-opacity="1" /><path clip-path="url(#clip450)" d="M1253.56 1454.1 Q1249.95 1454.1 1248.12 1457.66 Q1246.32 1461.2 1246.32 1468.33 Q1246.32 1475.44 1248.12 1479.01 Q1249.95 1482.55 1253.56 1482.55 Q1257.2 1482.55 1259 1479.01 Q1260.83 1475.44 1260.83 1468.33 Q1260.83 1461.2 1259 1457.66 Q1257.2 1454.1 1253.56 1454.1 M1253.56 1450.39 Q1259.37 1450.39 1262.43 1455 Q1265.51 1459.58 1265.51 1468.33 Q1265.51 1477.06 1262.43 1481.67 Q1259.37 1486.25 1253.56 1486.25 Q1247.75 1486.25 1244.67 1481.67 Q1241.62 1477.06 1241.62 1468.33 Q1241.62 1459.58 1244.67 1455 Q1247.75 1450.39 1253.56 1450.39 Z" fill="#000000" fill-rule="nonzero" fill-opacity="1" /><path clip-path="url(#clip450)" d="M1732.43 1481.64 L1748.75 1481.64 L1748.75 1485.58 L1726.8 1485.58 L1726.8 1481.64 Q1729.47 1478.89 1734.05 1474.26 Q1738.66 1469.61 1739.84 1468.27 Q1742.08 1465.74 1742.96 1464.01 Q1743.86 1462.25 1743.86 1460.56 Q1743.86 1457.8 1741.92 1456.07 Q1740 1454.33 1736.9 1454.33 Q1734.7 1454.33 1732.24 1455.09 Q1729.81 1455.86 1727.04 1457.41 L1727.04 1452.69 Q1729.86 1451.55 1732.31 1450.97 Q1734.77 1450.39 1736.8 1450.39 Q1742.17 1450.39 1745.37 1453.08 Q1748.56 1455.77 1748.56 1460.26 Q1748.56 1462.39 1747.75 1464.31 Q1746.97 1466.2 1744.86 1468.8 Q1744.28 1469.47 1741.18 1472.69 Q1738.08 1475.88 1732.43 1481.64 Z" fill="#000000" fill-rule="nonzero" fill-opacity="1" /><path clip-path="url(#clip450)" d="M2225 1455.09 L2213.19 1473.54 L2225 1473.54 L2225 1455.09 M2223.77 1451.02 L2229.65 1451.02 L2229.65 1473.54 L2234.58 1473.54 L2234.58 1477.43 L2229.65 1477.43 L2229.65 1485.58 L2225 1485.58 L2225 1477.43 L2209.4 1477.43 L2209.4 1472.92 L2223.77 1451.02 Z" fill="#000000" fill-rule="nonzero" fill-opacity="1" /><path clip-path="url(#clip450)" d="M1267.83 1532.4 L1254.94 1549.74 L1268.5 1568.04 L1261.6 1568.04 L1251.22 1554.04 L1240.84 1568.04 L1233.94 1568.04 L1247.78 1549.39 L1235.11 1532.4 L1242.02 1532.4 L1251.47 1545.1 L1260.93 1532.4 L1267.83 1532.4 Z" fill="#000000" fill-rule="nonzero" fill-opacity="1" /><path clip-path="url(#clip450)" d="M1303.86 1578.87 L1303.86 1583.42 L1270 1583.42 L1270 1578.87 L1303.86 1578.87 Z" fill="#000000" fill-rule="nonzero" fill-opacity="1" /><path clip-path="url(#clip450)" d="M1311.31 1562.63 L1321.82 1562.63 L1321.82 1526.38 L1310.39 1528.67 L1310.39 1522.82 L1321.75 1520.52 L1328.18 1520.52 L1328.18 1562.63 L1338.68 1562.63 L1338.68 1568.04 L1311.31 1568.04 L1311.31 1562.63 Z" fill="#000000" fill-rule="nonzero" fill-opacity="1" /><polyline clip-path="url(#clip450)" style="stroke:#000000; stroke-linecap:round; stroke-linejoin:round; stroke-width:4; stroke-opacity:1; fill:none" points="219.866,1423.18 219.866,123.472 "/>
<polyline clip-path="url(#clip450)" style="stroke:#000000; stroke-linecap:round; stroke-linejoin:round; stroke-width:4; stroke-opacity:1; fill:none" points="219.866,1423.18 238.764,1423.18 "/>
<polyline clip-path="url(#clip450)" style="stroke:#000000; stroke-linecap:round; stroke-linejoin:round; stroke-width:4; stroke-opacity:1; fill:none" points="219.866,1122.32 238.764,1122.32 "/>
<polyline clip-path="url(#clip450)" style="stroke:#000000; stroke-linecap:round; stroke-linejoin:round; stroke-width:4; stroke-opacity:1; fill:none" points="219.866,821.463 238.764,821.463 "/>
<polyline clip-path="url(#clip450)" style="stroke:#000000; stroke-linecap:round; stroke-linejoin:round; stroke-width:4; stroke-opacity:1; fill:none" points="219.866,520.605 238.764,520.605 "/>
<polyline clip-path="url(#clip450)" style="stroke:#000000; stroke-linecap:round; stroke-linejoin:round; stroke-width:4; stroke-opacity:1; fill:none" points="219.866,219.747 238.764,219.747 "/>
<path clip-path="url(#clip450)" d="M126.691 1408.98 Q123.08 1408.98 121.251 1412.54 Q119.445 1416.08 119.445 1423.21 Q119.445 1430.32 121.251 1433.89 Q123.08 1437.43 126.691 1437.43 Q130.325 1437.43 132.13 1433.89 Q133.959 1430.32 133.959 1423.21 Q133.959 1416.08 132.13 1412.54 Q130.325 1408.98 126.691 1408.98 M126.691 1405.27 Q132.501 1405.27 135.556 1409.88 Q138.635 1414.46 138.635 1423.21 Q138.635 1431.94 135.556 1436.55 Q132.501 1441.13 126.691 1441.13 Q120.88 1441.13 117.802 1436.55 Q114.746 1431.94 114.746 1423.21 Q114.746 1414.46 117.802 1409.88 Q120.88 1405.27 126.691 1405.27 Z" fill="#000000" fill-rule="nonzero" fill-opacity="1" /><path clip-path="url(#clip450)" d="M146.853 1434.58 L151.737 1434.58 L151.737 1440.46 L146.853 1440.46 L146.853 1434.58 Z" fill="#000000" fill-rule="nonzero" fill-opacity="1" /><path clip-path="url(#clip450)" d="M171.922 1408.98 Q168.311 1408.98 166.482 1412.54 Q164.677 1416.08 164.677 1423.21 Q164.677 1430.32 166.482 1433.89 Q168.311 1437.43 171.922 1437.43 Q175.556 1437.43 177.362 1433.89 Q179.19 1430.32 179.19 1423.21 Q179.19 1416.08 177.362 1412.54 Q175.556 1408.98 171.922 1408.98 M171.922 1405.27 Q177.732 1405.27 180.788 1409.88 Q183.866 1414.46 183.866 1423.21 Q183.866 1431.94 180.788 1436.55 Q177.732 1441.13 171.922 1441.13 Q166.112 1441.13 163.033 1436.55 Q159.978 1431.94 159.978 1423.21 Q159.978 1414.46 163.033 1409.88 Q166.112 1405.27 171.922 1405.27 Z" fill="#000000" fill-rule="nonzero" fill-opacity="1" /><path clip-path="url(#clip450)" d="M127.917 1108.12 Q124.306 1108.12 122.478 1111.69 Q120.672 1115.23 120.672 1122.36 Q120.672 1129.46 122.478 1133.03 Q124.306 1136.57 127.917 1136.57 Q131.552 1136.57 133.357 1133.03 Q135.186 1129.46 135.186 1122.36 Q135.186 1115.23 133.357 1111.69 Q131.552 1108.12 127.917 1108.12 M127.917 1104.42 Q133.728 1104.42 136.783 1109.02 Q139.862 1113.61 139.862 1122.36 Q139.862 1131.08 136.783 1135.69 Q133.728 1140.27 127.917 1140.27 Q122.107 1140.27 119.029 1135.69 Q115.973 1131.08 115.973 1122.36 Q115.973 1113.61 119.029 1109.02 Q122.107 1104.42 127.917 1104.42 Z" fill="#000000" fill-rule="nonzero" fill-opacity="1" /><path clip-path="url(#clip450)" d="M148.079 1133.72 L152.964 1133.72 L152.964 1139.6 L148.079 1139.6 L148.079 1133.72 Z" fill="#000000" fill-rule="nonzero" fill-opacity="1" /><path clip-path="url(#clip450)" d="M163.959 1135.67 L171.598 1135.67 L171.598 1109.3 L163.288 1110.97 L163.288 1106.71 L171.552 1105.04 L176.227 1105.04 L176.227 1135.67 L183.866 1135.67 L183.866 1139.6 L163.959 1139.6 L163.959 1135.67 Z" fill="#000000" fill-rule="nonzero" fill-opacity="1" /><path clip-path="url(#clip450)" d="M128.288 807.262 Q124.677 807.262 122.848 810.827 Q121.043 814.368 121.043 821.498 Q121.043 828.604 122.848 832.169 Q124.677 835.711 128.288 835.711 Q131.922 835.711 133.728 832.169 Q135.556 828.604 135.556 821.498 Q135.556 814.368 133.728 810.827 Q131.922 807.262 128.288 807.262 M128.288 803.558 Q134.098 803.558 137.154 808.165 Q140.232 812.748 140.232 821.498 Q140.232 830.225 137.154 834.831 Q134.098 839.415 128.288 839.415 Q122.478 839.415 119.399 834.831 Q116.343 830.225 116.343 821.498 Q116.343 812.748 119.399 808.165 Q122.478 803.558 128.288 803.558 Z" fill="#000000" fill-rule="nonzero" fill-opacity="1" /><path clip-path="url(#clip450)" d="M148.45 832.864 L153.334 832.864 L153.334 838.743 L148.45 838.743 L148.45 832.864 Z" fill="#000000" fill-rule="nonzero" fill-opacity="1" /><path clip-path="url(#clip450)" d="M167.547 834.808 L183.866 834.808 L183.866 838.743 L161.922 838.743 L161.922 834.808 Q164.584 832.054 169.167 827.424 Q173.774 822.771 174.954 821.429 Q177.2 818.905 178.079 817.169 Q178.982 815.41 178.982 813.72 Q178.982 810.966 177.038 809.23 Q175.116 807.493 172.014 807.493 Q169.815 807.493 167.362 808.257 Q164.931 809.021 162.153 810.572 L162.153 805.85 Q164.977 804.716 167.431 804.137 Q169.885 803.558 171.922 803.558 Q177.292 803.558 180.487 806.243 Q183.681 808.929 183.681 813.419 Q183.681 815.549 182.871 817.47 Q182.084 819.368 179.977 821.961 Q179.399 822.632 176.297 825.85 Q173.195 829.044 167.547 834.808 Z" fill="#000000" fill-rule="nonzero" fill-opacity="1" /><path clip-path="url(#clip450)" d="M127.339 506.404 Q123.728 506.404 121.899 509.969 Q120.093 513.51 120.093 520.64 Q120.093 527.746 121.899 531.311 Q123.728 534.853 127.339 534.853 Q130.973 534.853 132.779 531.311 Q134.607 527.746 134.607 520.64 Q134.607 513.51 132.779 509.969 Q130.973 506.404 127.339 506.404 M127.339 502.7 Q133.149 502.7 136.204 507.306 Q139.283 511.89 139.283 520.64 Q139.283 529.367 136.204 533.973 Q133.149 538.556 127.339 538.556 Q121.529 538.556 118.45 533.973 Q115.394 529.367 115.394 520.64 Q115.394 511.89 118.45 507.306 Q121.529 502.7 127.339 502.7 Z" fill="#000000" fill-rule="nonzero" fill-opacity="1" /><path clip-path="url(#clip450)" d="M147.501 532.005 L152.385 532.005 L152.385 537.885 L147.501 537.885 L147.501 532.005 Z" fill="#000000" fill-rule="nonzero" fill-opacity="1" /><path clip-path="url(#clip450)" d="M176.737 519.251 Q180.093 519.968 181.968 522.237 Q183.866 524.505 183.866 527.839 Q183.866 532.955 180.348 535.755 Q176.829 538.556 170.348 538.556 Q168.172 538.556 165.857 538.117 Q163.565 537.7 161.112 536.843 L161.112 532.33 Q163.056 533.464 165.371 534.042 Q167.686 534.621 170.209 534.621 Q174.607 534.621 176.899 532.885 Q179.214 531.149 179.214 527.839 Q179.214 524.783 177.061 523.07 Q174.931 521.334 171.112 521.334 L167.084 521.334 L167.084 517.492 L171.297 517.492 Q174.746 517.492 176.575 516.126 Q178.403 514.737 178.403 512.144 Q178.403 509.482 176.505 508.07 Q174.63 506.635 171.112 506.635 Q169.19 506.635 166.991 507.052 Q164.792 507.469 162.153 508.348 L162.153 504.182 Q164.815 503.441 167.13 503.07 Q169.468 502.7 171.528 502.7 Q176.852 502.7 179.954 505.131 Q183.056 507.538 183.056 511.658 Q183.056 514.529 181.413 516.519 Q179.769 518.487 176.737 519.251 Z" fill="#000000" fill-rule="nonzero" fill-opacity="1" /><path clip-path="url(#clip450)" d="M126.205 205.545 Q122.593 205.545 120.765 209.11 Q118.959 212.652 118.959 219.781 Q118.959 226.888 120.765 230.453 Q122.593 233.994 126.205 233.994 Q129.839 233.994 131.644 230.453 Q133.473 226.888 133.473 219.781 Q133.473 212.652 131.644 209.11 Q129.839 205.545 126.205 205.545 M126.205 201.842 Q132.015 201.842 135.07 206.448 Q138.149 211.032 138.149 219.781 Q138.149 228.508 135.07 233.115 Q132.015 237.698 126.205 237.698 Q120.394 237.698 117.316 233.115 Q114.26 228.508 114.26 219.781 Q114.26 211.032 117.316 206.448 Q120.394 201.842 126.205 201.842 Z" fill="#000000" fill-rule="nonzero" fill-opacity="1" /><path clip-path="url(#clip450)" d="M146.366 231.147 L151.251 231.147 L151.251 237.027 L146.366 237.027 L146.366 231.147 Z" fill="#000000" fill-rule="nonzero" fill-opacity="1" /><path clip-path="url(#clip450)" d="M174.283 206.541 L162.477 224.99 L174.283 224.99 L174.283 206.541 M173.056 202.467 L178.936 202.467 L178.936 224.99 L183.866 224.99 L183.866 228.879 L178.936 228.879 L178.936 237.027 L174.283 237.027 L174.283 228.879 L158.681 228.879 L158.681 224.365 L173.056 202.467 Z" fill="#000000" fill-rule="nonzero" fill-opacity="1" /><path clip-path="url(#clip450)" d="M21.7677 886.636 L58.7206 886.636 L58.7206 878.869 Q58.7206 869.034 54.2646 864.483 Q49.8086 859.9 40.1964 859.9 Q30.6479 859.9 26.2237 864.483 Q21.7677 869.034 21.7677 878.869 L21.7677 886.636 M16.4842 893.065 L16.4842 879.856 Q16.4842 866.043 22.2451 859.581 Q27.9743 853.12 40.1964 853.12 Q52.4822 853.12 58.2432 859.613 Q64.0042 866.106 64.0042 879.856 L64.0042 893.065 L16.4842 893.065 Z" fill="#000000" fill-rule="nonzero" fill-opacity="1" /><path clip-path="url(#clip450)" d="M44.7161 812.634 L47.5806 812.634 L47.5806 839.561 Q53.6281 839.179 56.8109 835.933 Q59.9619 832.654 59.9619 826.83 Q59.9619 823.456 59.1344 820.305 Q58.3069 817.122 56.6518 814.003 L62.1899 814.003 Q63.5267 817.154 64.227 820.464 Q64.9272 823.774 64.9272 827.18 Q64.9272 835.71 59.9619 840.707 Q54.9967 845.672 46.5303 845.672 Q37.7774 845.672 32.6531 840.962 Q27.4968 836.219 27.4968 828.198 Q27.4968 821.005 32.1438 816.836 Q36.7589 812.634 44.7161 812.634 M42.9973 818.491 Q38.1912 818.554 35.3266 821.196 Q32.4621 823.806 32.4621 828.135 Q32.4621 833.036 35.2312 835.996 Q38.0002 838.925 43.0292 839.37 L42.9973 818.491 Z" fill="#000000" fill-rule="nonzero" fill-opacity="1" /><path clip-path="url(#clip450)" d="M42.4881 773.39 L64.0042 773.39 L64.0042 779.246 L42.679 779.246 Q37.6183 779.246 35.1038 781.219 Q32.5894 783.193 32.5894 787.14 Q32.5894 791.882 35.6131 794.619 Q38.6368 797.357 43.8567 797.357 L64.0042 797.357 L64.0042 803.245 L28.3562 803.245 L28.3562 797.357 L33.8944 797.357 Q30.6797 795.256 29.0883 792.423 Q27.4968 789.559 27.4968 785.835 Q27.4968 779.692 31.3163 776.541 Q35.1038 773.39 42.4881 773.39 Z" fill="#000000" fill-rule="nonzero" fill-opacity="1" /><path clip-path="url(#clip450)" d="M29.4065 738.983 L34.9447 738.983 Q33.6716 741.466 33.035 744.139 Q32.3984 746.813 32.3984 749.677 Q32.3984 754.038 33.7352 756.234 Q35.072 758.398 37.7456 758.398 Q39.7826 758.398 40.9603 756.839 Q42.1061 755.279 43.1565 750.569 L43.6021 748.563 Q44.9389 742.325 47.3897 739.715 Q49.8086 737.073 54.1691 737.073 Q59.1344 737.073 62.0308 741.02 Q64.9272 744.935 64.9272 751.81 Q64.9272 754.674 64.3543 757.794 Q63.8132 760.881 62.6992 764.319 L56.6518 764.319 Q58.3387 761.072 59.198 757.921 Q60.0256 754.77 60.0256 751.683 Q60.0256 747.545 58.6251 745.317 Q57.1929 743.089 54.6147 743.089 Q52.2276 743.089 50.9545 744.712 Q49.6813 746.304 48.5037 751.746 L48.0262 753.783 Q46.8804 759.226 44.5251 761.645 Q42.138 764.064 38.0002 764.064 Q32.9713 764.064 30.2341 760.499 Q27.4968 756.934 27.4968 750.378 Q27.4968 747.131 27.9743 744.267 Q28.4517 741.402 29.4065 738.983 Z" fill="#000000" fill-rule="nonzero" fill-opacity="1" /><path clip-path="url(#clip450)" d="M28.3562 727.748 L28.3562 721.891 L64.0042 721.891 L64.0042 727.748 L28.3562 727.748 M14.479 727.748 L14.479 721.891 L21.895 721.891 L21.895 727.748 L14.479 727.748 Z" fill="#000000" fill-rule="nonzero" fill-opacity="1" /><path clip-path="url(#clip450)" d="M18.2347 703.844 L28.3562 703.844 L28.3562 691.781 L32.9077 691.781 L32.9077 703.844 L52.2594 703.844 Q56.6199 703.844 57.8613 702.667 Q59.1026 701.457 59.1026 697.797 L59.1026 691.781 L64.0042 691.781 L64.0042 697.797 Q64.0042 704.576 61.4897 707.154 Q58.9434 709.733 52.2594 709.733 L32.9077 709.733 L32.9077 714.029 L28.3562 714.029 L28.3562 709.733 L18.2347 709.733 L18.2347 703.844 Z" fill="#000000" fill-rule="nonzero" fill-opacity="1" /><path clip-path="url(#clip450)" d="M67.3143 669.247 Q73.68 671.729 75.6216 674.085 Q77.5631 676.44 77.5631 680.387 L77.5631 685.065 L72.6615 685.065 L72.6615 681.628 Q72.6615 679.209 71.5157 677.872 Q70.3699 676.535 66.1048 674.912 L63.4312 673.862 L28.3562 688.28 L28.3562 682.074 L56.238 670.934 L28.3562 659.794 L28.3562 653.587 L67.3143 669.247 Z" fill="#000000" fill-rule="nonzero" fill-opacity="1" /><path clip-path="url(#clip450)" d="M551.396 12.096 L559.579 12.096 L559.579 36.8875 L589.313 36.8875 L589.313 12.096 L597.495 12.096 L597.495 72.576 L589.313 72.576 L589.313 43.7741 L559.579 43.7741 L559.579 72.576 L551.396 72.576 L551.396 12.096 Z" fill="#000000" fill-rule="nonzero" fill-opacity="1" /><path clip-path="url(#clip450)" d="M613.456 27.2059 L620.91 27.2059 L620.91 72.576 L613.456 72.576 L613.456 27.2059 M613.456 9.54393 L620.91 9.54393 L620.91 18.9825 L613.456 18.9825 L613.456 9.54393 Z" fill="#000000" fill-rule="nonzero" fill-opacity="1" /><path clip-path="url(#clip450)" d="M665.429 28.5427 L665.429 35.5912 Q662.269 33.9709 658.867 33.1607 Q655.464 32.3505 651.818 32.3505 Q646.268 32.3505 643.473 34.0519 Q640.718 35.7533 640.718 39.156 Q640.718 41.7486 642.703 43.2475 Q644.688 44.7058 650.684 46.0426 L653.236 46.6097 Q661.176 48.3111 664.497 51.4303 Q667.86 54.509 667.86 60.0587 Q667.86 66.3781 662.836 70.0644 Q657.854 73.7508 649.104 73.7508 Q645.458 73.7508 641.488 73.0216 Q637.559 72.3329 633.184 70.9151 L633.184 63.2184 Q637.316 65.3654 641.326 66.4591 Q645.337 67.5124 649.266 67.5124 Q654.532 67.5124 657.368 65.73 Q660.203 63.9071 660.203 60.6258 Q660.203 57.5877 658.137 55.9673 Q656.112 54.3469 649.185 52.8481 L646.592 52.2405 Q639.665 50.7821 636.587 47.7845 Q633.508 44.7463 633.508 39.4801 Q633.508 33.0797 638.045 29.5959 Q642.582 26.1121 650.927 26.1121 Q655.059 26.1121 658.704 26.7198 Q662.35 27.3274 665.429 28.5427 Z" fill="#000000" fill-rule="nonzero" fill-opacity="1" /><path clip-path="url(#clip450)" d="M687.101 14.324 L687.101 27.2059 L702.454 27.2059 L702.454 32.9987 L687.101 32.9987 L687.101 57.6282 Q687.101 63.1779 688.6 64.7578 Q690.14 66.3376 694.798 66.3376 L702.454 66.3376 L702.454 72.576 L694.798 72.576 Q686.17 72.576 682.888 69.3758 Q679.607 66.1351 679.607 57.6282 L679.607 32.9987 L674.138 32.9987 L674.138 27.2059 L679.607 27.2059 L679.607 14.324 L687.101 14.324 Z" fill="#000000" fill-rule="nonzero" fill-opacity="1" /><path clip-path="url(#clip450)" d="M729.838 32.4315 Q723.843 32.4315 720.359 37.1306 Q716.875 41.7891 716.875 49.9314 Q716.875 58.0738 720.319 62.7728 Q723.803 67.4314 729.838 67.4314 Q735.793 67.4314 739.277 62.7323 Q742.761 58.0333 742.761 49.9314 Q742.761 41.8701 739.277 37.1711 Q735.793 32.4315 729.838 32.4315 M729.838 26.1121 Q739.561 26.1121 745.11 32.4315 Q750.66 38.7509 750.66 49.9314 Q750.66 61.0714 745.11 67.4314 Q739.561 73.7508 729.838 73.7508 Q720.076 73.7508 714.526 67.4314 Q709.017 61.0714 709.017 49.9314 Q709.017 38.7509 714.526 32.4315 Q720.076 26.1121 729.838 26.1121 Z" fill="#000000" fill-rule="nonzero" fill-opacity="1" /><path clip-path="url(#clip450)" d="M792.87 49.3643 Q792.87 41.2625 789.508 36.8065 Q786.186 32.3505 780.151 32.3505 Q774.155 32.3505 770.793 36.8065 Q767.471 41.2625 767.471 49.3643 Q767.471 57.4256 770.793 61.8816 Q774.155 66.3376 780.151 66.3376 Q786.186 66.3376 789.508 61.8816 Q792.87 57.4256 792.87 49.3643 M800.324 66.9452 Q800.324 78.5308 795.179 84.1616 Q790.035 89.8329 779.421 89.8329 Q775.492 89.8329 772.008 89.2252 Q768.525 88.6581 765.243 87.4428 L765.243 80.1917 Q768.525 81.9741 771.725 82.8248 Q774.925 83.6755 778.247 83.6755 Q785.579 83.6755 789.225 79.8271 Q792.87 76.0193 792.87 68.282 L792.87 64.5957 Q790.561 68.6061 786.956 70.5911 Q783.351 72.576 778.328 72.576 Q769.983 72.576 764.879 66.2161 Q759.775 59.8562 759.775 49.3643 Q759.775 38.832 764.879 32.472 Q769.983 26.1121 778.328 26.1121 Q783.351 26.1121 786.956 28.0971 Q790.561 30.082 792.87 34.0924 L792.87 27.2059 L800.324 27.2059 L800.324 66.9452 Z" fill="#000000" fill-rule="nonzero" fill-opacity="1" /><path clip-path="url(#clip450)" d="M841.967 34.1734 Q840.712 33.4443 839.213 33.1202 Q837.754 32.7556 835.972 32.7556 Q829.653 32.7556 826.25 36.8875 Q822.888 40.9789 822.888 48.6757 L822.888 72.576 L815.393 72.576 L815.393 27.2059 L822.888 27.2059 L822.888 34.2544 Q825.237 30.1225 829.005 28.1376 Q832.772 26.1121 838.16 26.1121 Q838.929 26.1121 839.861 26.2337 Q840.793 26.3147 841.927 26.5172 L841.967 34.1734 Z" fill="#000000" fill-rule="nonzero" fill-opacity="1" /><path clip-path="url(#clip450)" d="M870.405 49.7694 Q861.371 49.7694 857.887 51.8354 Q854.404 53.9013 854.404 58.8839 Q854.404 62.8538 856.996 65.2034 Q859.629 67.5124 864.126 67.5124 Q870.324 67.5124 874.051 63.1374 Q877.818 58.7219 877.818 51.4303 L877.818 49.7694 L870.405 49.7694 M885.272 46.6907 L885.272 72.576 L877.818 72.576 L877.818 65.6895 Q875.266 69.8214 871.458 71.8063 Q867.65 73.7508 862.141 73.7508 Q855.173 73.7508 851.041 69.8619 Q846.95 65.9325 846.95 59.3701 Q846.95 51.7138 852.054 47.825 Q857.199 43.9361 867.367 43.9361 L877.818 43.9361 L877.818 43.2069 Q877.818 38.0623 874.415 35.2672 Q871.053 32.4315 864.936 32.4315 Q861.047 32.4315 857.361 33.3632 Q853.675 34.295 850.272 36.1584 L850.272 29.2718 Q854.363 27.692 858.212 26.9223 Q862.06 26.1121 865.706 26.1121 Q875.549 26.1121 880.41 31.2163 Q885.272 36.3204 885.272 46.6907 Z" fill="#000000" fill-rule="nonzero" fill-opacity="1" /><path clip-path="url(#clip450)" d="M935.948 35.9153 Q938.744 30.8922 942.632 28.5022 Q946.521 26.1121 951.787 26.1121 Q958.876 26.1121 962.725 31.0947 Q966.573 36.0368 966.573 45.1919 L966.573 72.576 L959.079 72.576 L959.079 45.4349 Q959.079 38.913 956.77 35.7533 Q954.461 32.5936 949.721 32.5936 Q943.929 32.5936 940.566 36.4419 Q937.204 40.2903 937.204 46.9338 L937.204 72.576 L929.71 72.576 L929.71 45.4349 Q929.71 38.8725 927.401 35.7533 Q925.092 32.5936 920.271 32.5936 Q914.56 32.5936 911.197 36.4824 Q907.835 40.3308 907.835 46.9338 L907.835 72.576 L900.341 72.576 L900.341 27.2059 L907.835 27.2059 L907.835 34.2544 Q910.387 30.082 913.952 28.0971 Q917.517 26.1121 922.418 26.1121 Q927.36 26.1121 930.804 28.6237 Q934.288 31.1352 935.948 35.9153 Z" fill="#000000" fill-rule="nonzero" fill-opacity="1" /><path clip-path="url(#clip450)" d="M1028.43 49.7694 Q1019.4 49.7694 1015.91 51.8354 Q1012.43 53.9013 1012.43 58.8839 Q1012.43 62.8538 1015.02 65.2034 Q1017.66 67.5124 1022.15 67.5124 Q1028.35 67.5124 1032.08 63.1374 Q1035.84 58.7219 1035.84 51.4303 L1035.84 49.7694 L1028.43 49.7694 M1043.3 46.6907 L1043.3 72.576 L1035.84 72.576 L1035.84 65.6895 Q1033.29 69.8214 1029.48 71.8063 Q1025.68 73.7508 1020.17 73.7508 Q1013.2 73.7508 1009.07 69.8619 Q1004.98 65.9325 1004.98 59.3701 Q1004.98 51.7138 1010.08 47.825 Q1015.22 43.9361 1025.39 43.9361 L1035.84 43.9361 L1035.84 43.2069 Q1035.84 38.0623 1032.44 35.2672 Q1029.08 32.4315 1022.96 32.4315 Q1019.07 32.4315 1015.39 33.3632 Q1011.7 34.295 1008.3 36.1584 L1008.3 29.2718 Q1012.39 27.692 1016.24 26.9223 Q1020.09 26.1121 1023.73 26.1121 Q1033.58 26.1121 1038.44 31.2163 Q1043.3 36.3204 1043.3 46.6907 Z" fill="#000000" fill-rule="nonzero" fill-opacity="1" /><path clip-path="url(#clip450)" d="M1096.36 45.1919 L1096.36 72.576 L1088.91 72.576 L1088.91 45.4349 Q1088.91 38.994 1086.4 35.7938 Q1083.89 32.5936 1078.86 32.5936 Q1072.83 32.5936 1069.34 36.4419 Q1065.86 40.2903 1065.86 46.9338 L1065.86 72.576 L1058.37 72.576 L1058.37 27.2059 L1065.86 27.2059 L1065.86 34.2544 Q1068.53 30.163 1072.14 28.1376 Q1075.79 26.1121 1080.53 26.1121 Q1088.34 26.1121 1092.35 30.9732 Q1096.36 35.7938 1096.36 45.1919 Z" fill="#000000" fill-rule="nonzero" fill-opacity="1" /><path clip-path="url(#clip450)" d="M1141.09 34.0924 L1141.09 9.54393 L1148.54 9.54393 L1148.54 72.576 L1141.09 72.576 L1141.09 65.7705 Q1138.74 69.8214 1135.13 71.8063 Q1131.57 73.7508 1126.54 73.7508 Q1118.32 73.7508 1113.13 67.1883 Q1107.99 60.6258 1107.99 49.9314 Q1107.99 39.2371 1113.13 32.6746 Q1118.32 26.1121 1126.54 26.1121 Q1131.57 26.1121 1135.13 28.0971 Q1138.74 30.0415 1141.09 34.0924 M1115.69 49.9314 Q1115.69 58.1548 1119.05 62.8538 Q1122.45 67.5124 1128.37 67.5124 Q1134.28 67.5124 1137.68 62.8538 Q1141.09 58.1548 1141.09 49.9314 Q1141.09 41.7081 1137.68 37.0496 Q1134.28 32.3505 1128.37 32.3505 Q1122.45 32.3505 1119.05 37.0496 Q1115.69 41.7081 1115.69 49.9314 Z" fill="#000000" fill-rule="nonzero" fill-opacity="1" /><path clip-path="url(#clip450)" d="M1190.59 12.096 L1198.77 12.096 L1198.77 37.6572 L1225.91 12.096 L1236.44 12.096 L1206.43 40.2903 L1238.59 72.576 L1227.82 72.576 L1198.77 43.45 L1198.77 72.576 L1190.59 72.576 L1190.59 12.096 Z" fill="#000000" fill-rule="nonzero" fill-opacity="1" /><path clip-path="url(#clip450)" d="M1253.17 18.8205 L1253.17 65.8515 L1263.06 65.8515 Q1275.58 65.8515 1281.37 60.1802 Q1287.2 54.509 1287.2 42.2752 Q1287.2 30.1225 1281.37 24.4918 Q1275.58 18.8205 1263.06 18.8205 L1253.17 18.8205 M1244.99 12.096 L1261.8 12.096 Q1279.38 12.096 1287.61 19.4281 Q1295.83 26.7198 1295.83 42.2752 Q1295.83 57.9117 1287.57 65.2439 Q1279.3 72.576 1261.8 72.576 L1244.99 72.576 L1244.99 12.096 Z" fill="#000000" fill-rule="nonzero" fill-opacity="1" /><path clip-path="url(#clip450)" d="M1308.87 12.096 L1347.12 12.096 L1347.12 18.9825 L1317.06 18.9825 L1317.06 36.8875 L1345.86 36.8875 L1345.86 43.7741 L1317.06 43.7741 L1317.06 65.6895 L1347.84 65.6895 L1347.84 72.576 L1308.87 72.576 L1308.87 12.096 Z" fill="#000000" fill-rule="nonzero" fill-opacity="1" /><path clip-path="url(#clip450)" d="M1410.31 9.54393 L1410.31 15.7418 L1403.18 15.7418 Q1399.17 15.7418 1397.59 17.3622 Q1396.05 18.9825 1396.05 23.1955 L1396.05 27.2059 L1408.32 27.2059 L1408.32 32.9987 L1396.05 32.9987 L1396.05 72.576 L1388.56 72.576 L1388.56 32.9987 L1381.43 32.9987 L1381.43 27.2059 L1388.56 27.2059 L1388.56 24.0462 Q1388.56 16.471 1392.08 13.0277 Q1395.6 9.54393 1403.26 9.54393 L1410.31 9.54393 Z" fill="#000000" fill-rule="nonzero" fill-opacity="1" /><path clip-path="url(#clip450)" d="M1434.13 32.4315 Q1428.13 32.4315 1424.65 37.1306 Q1421.17 41.7891 1421.17 49.9314 Q1421.17 58.0738 1424.61 62.7728 Q1428.09 67.4314 1434.13 67.4314 Q1440.08 67.4314 1443.57 62.7323 Q1447.05 58.0333 1447.05 49.9314 Q1447.05 41.8701 1443.57 37.1711 Q1440.08 32.4315 1434.13 32.4315 M1434.13 26.1121 Q1443.85 26.1121 1449.4 32.4315 Q1454.95 38.7509 1454.95 49.9314 Q1454.95 61.0714 1449.4 67.4314 Q1443.85 73.7508 1434.13 73.7508 Q1424.37 73.7508 1418.82 67.4314 Q1413.31 61.0714 1413.31 49.9314 Q1413.31 38.7509 1418.82 32.4315 Q1424.37 26.1121 1434.13 26.1121 Z" fill="#000000" fill-rule="nonzero" fill-opacity="1" /><path clip-path="url(#clip450)" d="M1493.6 34.1734 Q1492.34 33.4443 1490.84 33.1202 Q1489.38 32.7556 1487.6 32.7556 Q1481.28 32.7556 1477.88 36.8875 Q1474.52 40.9789 1474.52 48.6757 L1474.52 72.576 L1467.02 72.576 L1467.02 27.2059 L1474.52 27.2059 L1474.52 34.2544 Q1476.87 30.1225 1480.63 28.1376 Q1484.4 26.1121 1489.79 26.1121 Q1490.56 26.1121 1491.49 26.2337 Q1492.42 26.3147 1493.56 26.5172 L1493.6 34.1734 Z" fill="#000000" fill-rule="nonzero" fill-opacity="1" /><path clip-path="url(#clip450)" d="M1557.64 34.0924 L1557.64 9.54393 L1565.09 9.54393 L1565.09 72.576 L1557.64 72.576 L1557.64 65.7705 Q1555.29 69.8214 1551.69 71.8063 Q1548.12 73.7508 1543.1 73.7508 Q1534.87 73.7508 1529.69 67.1883 Q1524.54 60.6258 1524.54 49.9314 Q1524.54 39.2371 1529.69 32.6746 Q1534.87 26.1121 1543.1 26.1121 Q1548.12 26.1121 1551.69 28.0971 Q1555.29 30.0415 1557.64 34.0924 M1532.24 49.9314 Q1532.24 58.1548 1535.6 62.8538 Q1539.01 67.5124 1544.92 67.5124 Q1550.84 67.5124 1554.24 62.8538 Q1557.64 58.1548 1557.64 49.9314 Q1557.64 41.7081 1554.24 37.0496 Q1550.84 32.3505 1544.92 32.3505 Q1539.01 32.3505 1535.6 37.0496 Q1532.24 41.7081 1532.24 49.9314 Z" fill="#000000" fill-rule="nonzero" fill-opacity="1" /><path clip-path="url(#clip450)" d="M1580.45 27.2059 L1587.9 27.2059 L1587.9 72.576 L1580.45 72.576 L1580.45 27.2059 M1580.45 9.54393 L1587.9 9.54393 L1587.9 18.9825 L1580.45 18.9825 L1580.45 9.54393 Z" fill="#000000" fill-rule="nonzero" fill-opacity="1" /><path clip-path="url(#clip450)" d="M1638.82 35.9153 Q1641.62 30.8922 1645.5 28.5022 Q1649.39 26.1121 1654.66 26.1121 Q1661.75 26.1121 1665.6 31.0947 Q1669.45 36.0368 1669.45 45.1919 L1669.45 72.576 L1661.95 72.576 L1661.95 45.4349 Q1661.95 38.913 1659.64 35.7533 Q1657.33 32.5936 1652.59 32.5936 Q1646.8 32.5936 1643.44 36.4419 Q1640.08 40.2903 1640.08 46.9338 L1640.08 72.576 L1632.58 72.576 L1632.58 45.4349 Q1632.58 38.8725 1630.27 35.7533 Q1627.96 32.5936 1623.14 32.5936 Q1617.43 32.5936 1614.07 36.4824 Q1610.71 40.3308 1610.71 46.9338 L1610.71 72.576 L1603.21 72.576 L1603.21 27.2059 L1610.71 27.2059 L1610.71 34.2544 Q1613.26 30.082 1616.82 28.0971 Q1620.39 26.1121 1625.29 26.1121 Q1630.23 26.1121 1633.68 28.6237 Q1637.16 31.1352 1638.82 35.9153 Z" fill="#000000" fill-rule="nonzero" fill-opacity="1" /><path clip-path="url(#clip450)" d="M1723.12 48.0275 L1723.12 51.6733 L1688.85 51.6733 Q1689.34 59.3701 1693.47 63.421 Q1697.64 67.4314 1705.05 67.4314 Q1709.35 67.4314 1713.36 66.3781 Q1717.41 65.3249 1721.38 63.2184 L1721.38 70.267 Q1717.37 71.9684 1713.15 72.8596 Q1708.94 73.7508 1704.61 73.7508 Q1693.75 73.7508 1687.39 67.4314 Q1681.07 61.1119 1681.07 50.3365 Q1681.07 39.1965 1687.07 32.6746 Q1693.1 26.1121 1703.31 26.1121 Q1712.47 26.1121 1717.77 32.0264 Q1723.12 37.9003 1723.12 48.0275 M1715.67 45.84 Q1715.59 39.7232 1712.22 36.0774 Q1708.9 32.4315 1703.39 32.4315 Q1697.15 32.4315 1693.39 35.9558 Q1689.66 39.4801 1689.09 45.8805 L1715.67 45.84 Z" fill="#000000" fill-rule="nonzero" fill-opacity="1" /><path clip-path="url(#clip450)" d="M1773.07 45.1919 L1773.07 72.576 L1765.61 72.576 L1765.61 45.4349 Q1765.61 38.994 1763.1 35.7938 Q1760.59 32.5936 1755.57 32.5936 Q1749.53 32.5936 1746.05 36.4419 Q1742.56 40.2903 1742.56 46.9338 L1742.56 72.576 L1735.07 72.576 L1735.07 27.2059 L1742.56 27.2059 L1742.56 34.2544 Q1745.24 30.163 1748.84 28.1376 Q1752.49 26.1121 1757.23 26.1121 Q1765.05 26.1121 1769.06 30.9732 Q1773.07 35.7938 1773.07 45.1919 Z" fill="#000000" fill-rule="nonzero" fill-opacity="1" /><path clip-path="url(#clip450)" d="M1816.86 28.5427 L1816.86 35.5912 Q1813.7 33.9709 1810.3 33.1607 Q1806.89 32.3505 1803.25 32.3505 Q1797.7 32.3505 1794.9 34.0519 Q1792.15 35.7533 1792.15 39.156 Q1792.15 41.7486 1794.13 43.2475 Q1796.12 44.7058 1802.11 46.0426 L1804.66 46.6097 Q1812.6 48.3111 1815.93 51.4303 Q1819.29 54.509 1819.29 60.0587 Q1819.29 66.3781 1814.27 70.0644 Q1809.28 73.7508 1800.53 73.7508 Q1796.89 73.7508 1792.92 73.0216 Q1788.99 72.3329 1784.61 70.9151 L1784.61 63.2184 Q1788.74 65.3654 1792.76 66.4591 Q1796.77 67.5124 1800.69 67.5124 Q1805.96 67.5124 1808.8 65.73 Q1811.63 63.9071 1811.63 60.6258 Q1811.63 57.5877 1809.57 55.9673 Q1807.54 54.3469 1800.61 52.8481 L1798.02 52.2405 Q1791.09 50.7821 1788.02 47.7845 Q1784.94 44.7463 1784.94 39.4801 Q1784.94 33.0797 1789.47 29.5959 Q1794.01 26.1121 1802.36 26.1121 Q1806.49 26.1121 1810.13 26.7198 Q1813.78 27.3274 1816.86 28.5427 Z" fill="#000000" fill-rule="nonzero" fill-opacity="1" /><path clip-path="url(#clip450)" d="M1831.16 27.2059 L1838.61 27.2059 L1838.61 72.576 L1831.16 72.576 L1831.16 27.2059 M1831.16 9.54393 L1838.61 9.54393 L1838.61 18.9825 L1831.16 18.9825 L1831.16 9.54393 Z" fill="#000000" fill-rule="nonzero" fill-opacity="1" /><path clip-path="url(#clip450)" d="M1871.79 32.4315 Q1865.79 32.4315 1862.31 37.1306 Q1858.83 41.7891 1858.83 49.9314 Q1858.83 58.0738 1862.27 62.7728 Q1865.75 67.4314 1871.79 67.4314 Q1877.74 67.4314 1881.23 62.7323 Q1884.71 58.0333 1884.71 49.9314 Q1884.71 41.8701 1881.23 37.1711 Q1877.74 32.4315 1871.79 32.4315 M1871.79 26.1121 Q1881.51 26.1121 1887.06 32.4315 Q1892.61 38.7509 1892.61 49.9314 Q1892.61 61.0714 1887.06 67.4314 Q1881.51 73.7508 1871.79 73.7508 Q1862.03 73.7508 1856.48 67.4314 Q1850.97 61.0714 1850.97 49.9314 Q1850.97 38.7509 1856.48 32.4315 Q1862.03 26.1121 1871.79 26.1121 Z" fill="#000000" fill-rule="nonzero" fill-opacity="1" /><path clip-path="url(#clip450)" d="M1942.68 45.1919 L1942.68 72.576 L1935.23 72.576 L1935.23 45.4349 Q1935.23 38.994 1932.71 35.7938 Q1930.2 32.5936 1925.18 32.5936 Q1919.14 32.5936 1915.66 36.4419 Q1912.18 40.2903 1912.18 46.9338 L1912.18 72.576 L1904.68 72.576 L1904.68 27.2059 L1912.18 27.2059 L1912.18 34.2544 Q1914.85 30.163 1918.45 28.1376 Q1922.1 26.1121 1926.84 26.1121 Q1934.66 26.1121 1938.67 30.9732 Q1942.68 35.7938 1942.68 45.1919 Z" fill="#000000" fill-rule="nonzero" fill-opacity="1" /><path clip-path="url(#clip450)" d="M1986.39 65.6895 L1999.76 65.6895 L1999.76 19.5497 L1985.21 22.4663 L1985.21 15.0127 L1999.68 12.096 L2007.86 12.096 L2007.86 65.6895 L2021.23 65.6895 L2021.23 72.576 L1986.39 72.576 L1986.39 65.6895 Z" fill="#000000" fill-rule="nonzero" fill-opacity="1" /><path clip-path="url(#clip452)" d="M381.979 1420.17 L381.979 1423.18 L430.401 1423.18 L430.401 1420.17 L381.979 1420.17 L381.979 1420.17  Z" fill="#78c2ad" fill-rule="evenodd" fill-opacity="0.7"/>
<polyline clip-path="url(#clip452)" style="stroke:#000000; stroke-linecap:round; stroke-linejoin:round; stroke-width:4; stroke-opacity:0.7; fill:none" points="381.979,1420.17 381.979,1423.18 430.401,1423.18 430.401,1420.17 381.979,1420.17 "/>
<path clip-path="url(#clip452)" d="M430.401 1420.17 L430.401 1423.18 L478.822 1423.18 L478.822 1420.17 L430.401 1420.17 L430.401 1420.17  Z" fill="#78c2ad" fill-rule="evenodd" fill-opacity="0.7"/>
<polyline clip-path="url(#clip452)" style="stroke:#000000; stroke-linecap:round; stroke-linejoin:round; stroke-width:4; stroke-opacity:0.7; fill:none" points="430.401,1420.17 430.401,1423.18 478.822,1423.18 478.822,1420.17 430.401,1420.17 "/>
<path clip-path="url(#clip452)" d="M478.822 1402.12 L478.822 1423.18 L527.243 1423.18 L527.243 1402.12 L478.822 1402.12 L478.822 1402.12  Z" fill="#78c2ad" fill-rule="evenodd" fill-opacity="0.7"/>
<polyline clip-path="url(#clip452)" style="stroke:#000000; stroke-linecap:round; stroke-linejoin:round; stroke-width:4; stroke-opacity:0.7; fill:none" points="478.822,1402.12 478.822,1423.18 527.243,1423.18 527.243,1402.12 478.822,1402.12 "/>
<path clip-path="url(#clip452)" d="M527.243 1388.58 L527.243 1423.18 L575.665 1423.18 L575.665 1388.58 L527.243 1388.58 L527.243 1388.58  Z" fill="#78c2ad" fill-rule="evenodd" fill-opacity="0.7"/>
<polyline clip-path="url(#clip452)" style="stroke:#000000; stroke-linecap:round; stroke-linejoin:round; stroke-width:4; stroke-opacity:0.7; fill:none" points="527.243,1388.58 527.243,1423.18 575.665,1423.18 575.665,1388.58 527.243,1388.58 "/>
<path clip-path="url(#clip452)" d="M575.665 1379.56 L575.665 1423.18 L624.086 1423.18 L624.086 1379.56 L575.665 1379.56 L575.665 1379.56  Z" fill="#78c2ad" fill-rule="evenodd" fill-opacity="0.7"/>
<polyline clip-path="url(#clip452)" style="stroke:#000000; stroke-linecap:round; stroke-linejoin:round; stroke-width:4; stroke-opacity:0.7; fill:none" points="575.665,1379.56 575.665,1423.18 624.086,1423.18 624.086,1379.56 575.665,1379.56 "/>
<path clip-path="url(#clip452)" d="M624.086 1332.92 L624.086 1423.18 L672.507 1423.18 L672.507 1332.92 L624.086 1332.92 L624.086 1332.92  Z" fill="#78c2ad" fill-rule="evenodd" fill-opacity="0.7"/>
<polyline clip-path="url(#clip452)" style="stroke:#000000; stroke-linecap:round; stroke-linejoin:round; stroke-width:4; stroke-opacity:0.7; fill:none" points="624.086,1332.92 624.086,1423.18 672.507,1423.18 672.507,1332.92 624.086,1332.92 "/>
<path clip-path="url(#clip452)" d="M672.507 1317.88 L672.507 1423.18 L720.929 1423.18 L720.929 1317.88 L672.507 1317.88 L672.507 1317.88  Z" fill="#78c2ad" fill-rule="evenodd" fill-opacity="0.7"/>
<polyline clip-path="url(#clip452)" style="stroke:#000000; stroke-linecap:round; stroke-linejoin:round; stroke-width:4; stroke-opacity:0.7; fill:none" points="672.507,1317.88 672.507,1423.18 720.929,1423.18 720.929,1317.88 672.507,1317.88 "/>
<path clip-path="url(#clip452)" d="M720.929 1308.85 L720.929 1423.18 L769.35 1423.18 L769.35 1308.85 L720.929 1308.85 L720.929 1308.85  Z" fill="#78c2ad" fill-rule="evenodd" fill-opacity="0.7"/>
<polyline clip-path="url(#clip452)" style="stroke:#000000; stroke-linecap:round; stroke-linejoin:round; stroke-width:4; stroke-opacity:0.7; fill:none" points="720.929,1308.85 720.929,1423.18 769.35,1423.18 769.35,1308.85 720.929,1308.85 "/>
<path clip-path="url(#clip452)" d="M769.35 1253.19 L769.35 1423.18 L817.771 1423.18 L817.771 1253.19 L769.35 1253.19 L769.35 1253.19  Z" fill="#78c2ad" fill-rule="evenodd" fill-opacity="0.7"/>
<polyline clip-path="url(#clip452)" style="stroke:#000000; stroke-linecap:round; stroke-linejoin:round; stroke-width:4; stroke-opacity:0.7; fill:none" points="769.35,1253.19 769.35,1423.18 817.771,1423.18 817.771,1253.19 769.35,1253.19 "/>
<path clip-path="url(#clip452)" d="M817.771 1230.63 L817.771 1423.18 L866.193 1423.18 L866.193 1230.63 L817.771 1230.63 L817.771 1230.63  Z" fill="#78c2ad" fill-rule="evenodd" fill-opacity="0.7"/>
<polyline clip-path="url(#clip452)" style="stroke:#000000; stroke-linecap:round; stroke-linejoin:round; stroke-width:4; stroke-opacity:0.7; fill:none" points="817.771,1230.63 817.771,1423.18 866.193,1423.18 866.193,1230.63 817.771,1230.63 "/>
<path clip-path="url(#clip452)" d="M866.193 1126.83 L866.193 1423.18 L914.614 1423.18 L914.614 1126.83 L866.193 1126.83 L866.193 1126.83  Z" fill="#78c2ad" fill-rule="evenodd" fill-opacity="0.7"/>
<polyline clip-path="url(#clip452)" style="stroke:#000000; stroke-linecap:round; stroke-linejoin:round; stroke-width:4; stroke-opacity:0.7; fill:none" points="866.193,1126.83 866.193,1423.18 914.614,1423.18 914.614,1126.83 866.193,1126.83 "/>
<path clip-path="url(#clip452)" d="M914.614 955.345 L914.614 1423.18 L963.035 1423.18 L963.035 955.345 L914.614 955.345 L914.614 955.345  Z" fill="#78c2ad" fill-rule="evenodd" fill-opacity="0.7"/>
<polyline clip-path="url(#clip452)" style="stroke:#000000; stroke-linecap:round; stroke-linejoin:round; stroke-width:4; stroke-opacity:0.7; fill:none" points="914.614,955.345 914.614,1423.18 963.035,1423.18 963.035,955.345 914.614,955.345 "/>
<path clip-path="url(#clip452)" d="M963.035 746.249 L963.035 1423.18 L1011.46 1423.18 L1011.46 746.249 L963.035 746.249 L963.035 746.249  Z" fill="#78c2ad" fill-rule="evenodd" fill-opacity="0.7"/>
<polyline clip-path="url(#clip452)" style="stroke:#000000; stroke-linecap:round; stroke-linejoin:round; stroke-width:4; stroke-opacity:0.7; fill:none" points="963.035,746.249 963.035,1423.18 1011.46,1423.18 1011.46,746.249 963.035,746.249 "/>
<path clip-path="url(#clip452)" d="M1011.46 573.255 L1011.46 1423.18 L1059.88 1423.18 L1059.88 573.255 L1011.46 573.255 L1011.46 573.255  Z" fill="#78c2ad" fill-rule="evenodd" fill-opacity="0.7"/>
<polyline clip-path="url(#clip452)" style="stroke:#000000; stroke-linecap:round; stroke-linejoin:round; stroke-width:4; stroke-opacity:0.7; fill:none" points="1011.46,573.255 1011.46,1423.18 1059.88,1423.18 1059.88,573.255 1011.46,573.255 "/>
<path clip-path="url(#clip452)" d="M1059.88 446.895 L1059.88 1423.18 L1108.3 1423.18 L1108.3 446.895 L1059.88 446.895 L1059.88 446.895  Z" fill="#78c2ad" fill-rule="evenodd" fill-opacity="0.7"/>
<polyline clip-path="url(#clip452)" style="stroke:#000000; stroke-linecap:round; stroke-linejoin:round; stroke-width:4; stroke-opacity:0.7; fill:none" points="1059.88,446.895 1059.88,1423.18 1108.3,1423.18 1108.3,446.895 1059.88,446.895 "/>
<path clip-path="url(#clip452)" d="M1108.3 389.732 L1108.3 1423.18 L1156.72 1423.18 L1156.72 389.732 L1108.3 389.732 L1108.3 389.732  Z" fill="#78c2ad" fill-rule="evenodd" fill-opacity="0.7"/>
<polyline clip-path="url(#clip452)" style="stroke:#000000; stroke-linecap:round; stroke-linejoin:round; stroke-width:4; stroke-opacity:0.7; fill:none" points="1108.3,389.732 1108.3,1423.18 1156.72,1423.18 1156.72,389.732 1108.3,389.732 "/>
<path clip-path="url(#clip452)" d="M1156.72 227.268 L1156.72 1423.18 L1205.14 1423.18 L1205.14 227.268 L1156.72 227.268 L1156.72 227.268  Z" fill="#78c2ad" fill-rule="evenodd" fill-opacity="0.7"/>
<polyline clip-path="url(#clip452)" style="stroke:#000000; stroke-linecap:round; stroke-linejoin:round; stroke-width:4; stroke-opacity:0.7; fill:none" points="1156.72,227.268 1156.72,1423.18 1205.14,1423.18 1205.14,227.268 1156.72,227.268 "/>
<path clip-path="url(#clip452)" d="M1205.14 216.738 L1205.14 1423.18 L1253.56 1423.18 L1253.56 216.738 L1205.14 216.738 L1205.14 216.738  Z" fill="#78c2ad" fill-rule="evenodd" fill-opacity="0.7"/>
<polyline clip-path="url(#clip452)" style="stroke:#000000; stroke-linecap:round; stroke-linejoin:round; stroke-width:4; stroke-opacity:0.7; fill:none" points="1205.14,216.738 1205.14,1423.18 1253.56,1423.18 1253.56,216.738 1205.14,216.738 "/>
<path clip-path="url(#clip452)" d="M1253.56 123.472 L1253.56 1423.18 L1301.98 1423.18 L1301.98 123.472 L1253.56 123.472 L1253.56 123.472  Z" fill="#78c2ad" fill-rule="evenodd" fill-opacity="0.7"/>
<polyline clip-path="url(#clip452)" style="stroke:#000000; stroke-linecap:round; stroke-linejoin:round; stroke-width:4; stroke-opacity:0.7; fill:none" points="1253.56,123.472 1253.56,1423.18 1301.98,1423.18 1301.98,123.472 1253.56,123.472 "/>
<path clip-path="url(#clip452)" d="M1301.98 258.858 L1301.98 1423.18 L1350.41 1423.18 L1350.41 258.858 L1301.98 258.858 L1301.98 258.858  Z" fill="#78c2ad" fill-rule="evenodd" fill-opacity="0.7"/>
<polyline clip-path="url(#clip452)" style="stroke:#000000; stroke-linecap:round; stroke-linejoin:round; stroke-width:4; stroke-opacity:0.7; fill:none" points="1301.98,258.858 1301.98,1423.18 1350.41,1423.18 1350.41,258.858 1301.98,258.858 "/>
<path clip-path="url(#clip452)" d="M1350.41 313.013 L1350.41 1423.18 L1398.83 1423.18 L1398.83 313.013 L1350.41 313.013 L1350.41 313.013  Z" fill="#78c2ad" fill-rule="evenodd" fill-opacity="0.7"/>
<polyline clip-path="url(#clip452)" style="stroke:#000000; stroke-linecap:round; stroke-linejoin:round; stroke-width:4; stroke-opacity:0.7; fill:none" points="1350.41,313.013 1350.41,1423.18 1398.83,1423.18 1398.83,313.013 1350.41,313.013 "/>
<path clip-path="url(#clip452)" d="M1398.83 452.912 L1398.83 1423.18 L1447.25 1423.18 L1447.25 452.912 L1398.83 452.912 L1398.83 452.912  Z" fill="#78c2ad" fill-rule="evenodd" fill-opacity="0.7"/>
<polyline clip-path="url(#clip452)" style="stroke:#000000; stroke-linecap:round; stroke-linejoin:round; stroke-width:4; stroke-opacity:0.7; fill:none" points="1398.83,452.912 1398.83,1423.18 1447.25,1423.18 1447.25,452.912 1398.83,452.912 "/>
<path clip-path="url(#clip452)" d="M1447.25 625.905 L1447.25 1423.18 L1495.67 1423.18 L1495.67 625.905 L1447.25 625.905 L1447.25 625.905  Z" fill="#78c2ad" fill-rule="evenodd" fill-opacity="0.7"/>
<polyline clip-path="url(#clip452)" style="stroke:#000000; stroke-linecap:round; stroke-linejoin:round; stroke-width:4; stroke-opacity:0.7; fill:none" points="1447.25,625.905 1447.25,1423.18 1495.67,1423.18 1495.67,625.905 1447.25,625.905 "/>
<path clip-path="url(#clip452)" d="M1495.67 841.019 L1495.67 1423.18 L1544.09 1423.18 L1544.09 841.019 L1495.67 841.019 L1495.67 841.019  Z" fill="#78c2ad" fill-rule="evenodd" fill-opacity="0.7"/>
<polyline clip-path="url(#clip452)" style="stroke:#000000; stroke-linecap:round; stroke-linejoin:round; stroke-width:4; stroke-opacity:0.7; fill:none" points="1495.67,841.019 1495.67,1423.18 1544.09,1423.18 1544.09,841.019 1495.67,841.019 "/>
<path clip-path="url(#clip452)" d="M1544.09 941.807 L1544.09 1423.18 L1592.51 1423.18 L1592.51 941.807 L1544.09 941.807 L1544.09 941.807  Z" fill="#78c2ad" fill-rule="evenodd" fill-opacity="0.7"/>
<polyline clip-path="url(#clip452)" style="stroke:#000000; stroke-linecap:round; stroke-linejoin:round; stroke-width:4; stroke-opacity:0.7; fill:none" points="1544.09,941.807 1544.09,1423.18 1592.51,1423.18 1592.51,941.807 1544.09,941.807 "/>
<path clip-path="url(#clip452)" d="M1592.51 1086.22 L1592.51 1423.18 L1640.93 1423.18 L1640.93 1086.22 L1592.51 1086.22 L1592.51 1086.22  Z" fill="#78c2ad" fill-rule="evenodd" fill-opacity="0.7"/>
<polyline clip-path="url(#clip452)" style="stroke:#000000; stroke-linecap:round; stroke-linejoin:round; stroke-width:4; stroke-opacity:0.7; fill:none" points="1592.51,1086.22 1592.51,1423.18 1640.93,1423.18 1640.93,1086.22 1592.51,1086.22 "/>
<path clip-path="url(#clip452)" d="M1640.93 1197.54 L1640.93 1423.18 L1689.35 1423.18 L1689.35 1197.54 L1640.93 1197.54 L1640.93 1197.54  Z" fill="#78c2ad" fill-rule="evenodd" fill-opacity="0.7"/>
<polyline clip-path="url(#clip452)" style="stroke:#000000; stroke-linecap:round; stroke-linejoin:round; stroke-width:4; stroke-opacity:0.7; fill:none" points="1640.93,1197.54 1640.93,1423.18 1689.35,1423.18 1689.35,1197.54 1640.93,1197.54 "/>
<path clip-path="url(#clip452)" d="M1689.35 1238.15 L1689.35 1423.18 L1737.78 1423.18 L1737.78 1238.15 L1689.35 1238.15 L1689.35 1238.15  Z" fill="#78c2ad" fill-rule="evenodd" fill-opacity="0.7"/>
<polyline clip-path="url(#clip452)" style="stroke:#000000; stroke-linecap:round; stroke-linejoin:round; stroke-width:4; stroke-opacity:0.7; fill:none" points="1689.35,1238.15 1689.35,1423.18 1737.78,1423.18 1737.78,1238.15 1689.35,1238.15 "/>
<path clip-path="url(#clip452)" d="M1737.78 1314.87 L1737.78 1423.18 L1786.2 1423.18 L1786.2 1314.87 L1737.78 1314.87 L1737.78 1314.87  Z" fill="#78c2ad" fill-rule="evenodd" fill-opacity="0.7"/>
<polyline clip-path="url(#clip452)" style="stroke:#000000; stroke-linecap:round; stroke-linejoin:round; stroke-width:4; stroke-opacity:0.7; fill:none" points="1737.78,1314.87 1737.78,1423.18 1786.2,1423.18 1786.2,1314.87 1737.78,1314.87 "/>
<path clip-path="url(#clip452)" d="M1786.2 1305.85 L1786.2 1423.18 L1834.62 1423.18 L1834.62 1305.85 L1786.2 1305.85 L1786.2 1305.85  Z" fill="#78c2ad" fill-rule="evenodd" fill-opacity="0.7"/>
<polyline clip-path="url(#clip452)" style="stroke:#000000; stroke-linecap:round; stroke-linejoin:round; stroke-width:4; stroke-opacity:0.7; fill:none" points="1786.2,1305.85 1786.2,1423.18 1834.62,1423.18 1834.62,1305.85 1786.2,1305.85 "/>
<path clip-path="url(#clip452)" d="M1834.62 1355.49 L1834.62 1423.18 L1883.04 1423.18 L1883.04 1355.49 L1834.62 1355.49 L1834.62 1355.49  Z" fill="#78c2ad" fill-rule="evenodd" fill-opacity="0.7"/>
<polyline clip-path="url(#clip452)" style="stroke:#000000; stroke-linecap:round; stroke-linejoin:round; stroke-width:4; stroke-opacity:0.7; fill:none" points="1834.62,1355.49 1834.62,1423.18 1883.04,1423.18 1883.04,1355.49 1834.62,1355.49 "/>
<path clip-path="url(#clip452)" d="M1883.04 1370.53 L1883.04 1423.18 L1931.46 1423.18 L1931.46 1370.53 L1883.04 1370.53 L1883.04 1370.53  Z" fill="#78c2ad" fill-rule="evenodd" fill-opacity="0.7"/>
<polyline clip-path="url(#clip452)" style="stroke:#000000; stroke-linecap:round; stroke-linejoin:round; stroke-width:4; stroke-opacity:0.7; fill:none" points="1883.04,1370.53 1883.04,1423.18 1931.46,1423.18 1931.46,1370.53 1883.04,1370.53 "/>
<path clip-path="url(#clip452)" d="M1931.46 1393.09 L1931.46 1423.18 L1979.88 1423.18 L1979.88 1393.09 L1931.46 1393.09 L1931.46 1393.09  Z" fill="#78c2ad" fill-rule="evenodd" fill-opacity="0.7"/>
<polyline clip-path="url(#clip452)" style="stroke:#000000; stroke-linecap:round; stroke-linejoin:round; stroke-width:4; stroke-opacity:0.7; fill:none" points="1931.46,1393.09 1931.46,1423.18 1979.88,1423.18 1979.88,1393.09 1931.46,1393.09 "/>
<path clip-path="url(#clip452)" d="M1979.88 1414.15 L1979.88 1423.18 L2028.3 1423.18 L2028.3 1414.15 L1979.88 1414.15 L1979.88 1414.15  Z" fill="#78c2ad" fill-rule="evenodd" fill-opacity="0.7"/>
<polyline clip-path="url(#clip452)" style="stroke:#000000; stroke-linecap:round; stroke-linejoin:round; stroke-width:4; stroke-opacity:0.7; fill:none" points="1979.88,1414.15 1979.88,1423.18 2028.3,1423.18 2028.3,1414.15 1979.88,1414.15 "/>
<path clip-path="url(#clip452)" d="M2028.3 1415.66 L2028.3 1423.18 L2076.73 1423.18 L2076.73 1415.66 L2028.3 1415.66 L2028.3 1415.66  Z" fill="#78c2ad" fill-rule="evenodd" fill-opacity="0.7"/>
<polyline clip-path="url(#clip452)" style="stroke:#000000; stroke-linecap:round; stroke-linejoin:round; stroke-width:4; stroke-opacity:0.7; fill:none" points="2028.3,1415.66 2028.3,1423.18 2076.73,1423.18 2076.73,1415.66 2028.3,1415.66 "/>
<path clip-path="url(#clip452)" d="M2076.73 1408.14 L2076.73 1423.18 L2125.15 1423.18 L2125.15 1408.14 L2076.73 1408.14 L2076.73 1408.14  Z" fill="#78c2ad" fill-rule="evenodd" fill-opacity="0.7"/>
<polyline clip-path="url(#clip452)" style="stroke:#000000; stroke-linecap:round; stroke-linejoin:round; stroke-width:4; stroke-opacity:0.7; fill:none" points="2076.73,1408.14 2076.73,1423.18 2125.15,1423.18 2125.15,1408.14 2076.73,1408.14 "/>
<path clip-path="url(#clip452)" d="M2125.15 1421.68 L2125.15 1423.18 L2173.57 1423.18 L2173.57 1421.68 L2125.15 1421.68 L2125.15 1421.68  Z" fill="#78c2ad" fill-rule="evenodd" fill-opacity="0.7"/>
<polyline clip-path="url(#clip452)" style="stroke:#000000; stroke-linecap:round; stroke-linejoin:round; stroke-width:4; stroke-opacity:0.7; fill:none" points="2125.15,1421.68 2125.15,1423.18 2173.57,1423.18 2173.57,1421.68 2125.15,1421.68 "/>
<circle clip-path="url(#clip452)" style="fill:#78c2ad; stroke:none; fill-opacity:0" cx="406.19" cy="1420.17" r="2"/>
<circle clip-path="url(#clip452)" style="fill:#78c2ad; stroke:none; fill-opacity:0" cx="454.611" cy="1420.17" r="2"/>
<circle clip-path="url(#clip452)" style="fill:#78c2ad; stroke:none; fill-opacity:0" cx="503.033" cy="1402.12" r="2"/>
<circle clip-path="url(#clip452)" style="fill:#78c2ad; stroke:none; fill-opacity:0" cx="551.454" cy="1388.58" r="2"/>
<circle clip-path="url(#clip452)" style="fill:#78c2ad; stroke:none; fill-opacity:0" cx="599.875" cy="1379.56" r="2"/>
<circle clip-path="url(#clip452)" style="fill:#78c2ad; stroke:none; fill-opacity:0" cx="648.297" cy="1332.92" r="2"/>
<circle clip-path="url(#clip452)" style="fill:#78c2ad; stroke:none; fill-opacity:0" cx="696.718" cy="1317.88" r="2"/>
<circle clip-path="url(#clip452)" style="fill:#78c2ad; stroke:none; fill-opacity:0" cx="745.139" cy="1308.85" r="2"/>
<circle clip-path="url(#clip452)" style="fill:#78c2ad; stroke:none; fill-opacity:0" cx="793.561" cy="1253.19" r="2"/>
<circle clip-path="url(#clip452)" style="fill:#78c2ad; stroke:none; fill-opacity:0" cx="841.982" cy="1230.63" r="2"/>
<circle clip-path="url(#clip452)" style="fill:#78c2ad; stroke:none; fill-opacity:0" cx="890.403" cy="1126.83" r="2"/>
<circle clip-path="url(#clip452)" style="fill:#78c2ad; stroke:none; fill-opacity:0" cx="938.825" cy="955.345" r="2"/>
<circle clip-path="url(#clip452)" style="fill:#78c2ad; stroke:none; fill-opacity:0" cx="987.246" cy="746.249" r="2"/>
<circle clip-path="url(#clip452)" style="fill:#78c2ad; stroke:none; fill-opacity:0" cx="1035.67" cy="573.255" r="2"/>
<circle clip-path="url(#clip452)" style="fill:#78c2ad; stroke:none; fill-opacity:0" cx="1084.09" cy="446.895" r="2"/>
<circle clip-path="url(#clip452)" style="fill:#78c2ad; stroke:none; fill-opacity:0" cx="1132.51" cy="389.732" r="2"/>
<circle clip-path="url(#clip452)" style="fill:#78c2ad; stroke:none; fill-opacity:0" cx="1180.93" cy="227.268" r="2"/>
<circle clip-path="url(#clip452)" style="fill:#78c2ad; stroke:none; fill-opacity:0" cx="1229.35" cy="216.738" r="2"/>
<circle clip-path="url(#clip452)" style="fill:#78c2ad; stroke:none; fill-opacity:0" cx="1277.77" cy="123.472" r="2"/>
<circle clip-path="url(#clip452)" style="fill:#78c2ad; stroke:none; fill-opacity:0" cx="1326.2" cy="258.858" r="2"/>
<circle clip-path="url(#clip452)" style="fill:#78c2ad; stroke:none; fill-opacity:0" cx="1374.62" cy="313.013" r="2"/>
<circle clip-path="url(#clip452)" style="fill:#78c2ad; stroke:none; fill-opacity:0" cx="1423.04" cy="452.912" r="2"/>
<circle clip-path="url(#clip452)" style="fill:#78c2ad; stroke:none; fill-opacity:0" cx="1471.46" cy="625.905" r="2"/>
<circle clip-path="url(#clip452)" style="fill:#78c2ad; stroke:none; fill-opacity:0" cx="1519.88" cy="841.019" r="2"/>
<circle clip-path="url(#clip452)" style="fill:#78c2ad; stroke:none; fill-opacity:0" cx="1568.3" cy="941.807" r="2"/>
<circle clip-path="url(#clip452)" style="fill:#78c2ad; stroke:none; fill-opacity:0" cx="1616.72" cy="1086.22" r="2"/>
<circle clip-path="url(#clip452)" style="fill:#78c2ad; stroke:none; fill-opacity:0" cx="1665.14" cy="1197.54" r="2"/>
<circle clip-path="url(#clip452)" style="fill:#78c2ad; stroke:none; fill-opacity:0" cx="1713.57" cy="1238.15" r="2"/>
<circle clip-path="url(#clip452)" style="fill:#78c2ad; stroke:none; fill-opacity:0" cx="1761.99" cy="1314.87" r="2"/>
<circle clip-path="url(#clip452)" style="fill:#78c2ad; stroke:none; fill-opacity:0" cx="1810.41" cy="1305.85" r="2"/>
<circle clip-path="url(#clip452)" style="fill:#78c2ad; stroke:none; fill-opacity:0" cx="1858.83" cy="1355.49" r="2"/>
<circle clip-path="url(#clip452)" style="fill:#78c2ad; stroke:none; fill-opacity:0" cx="1907.25" cy="1370.53" r="2"/>
<circle clip-path="url(#clip452)" style="fill:#78c2ad; stroke:none; fill-opacity:0" cx="1955.67" cy="1393.09" r="2"/>
<circle clip-path="url(#clip452)" style="fill:#78c2ad; stroke:none; fill-opacity:0" cx="2004.09" cy="1414.15" r="2"/>
<circle clip-path="url(#clip452)" style="fill:#78c2ad; stroke:none; fill-opacity:0" cx="2052.51" cy="1415.66" r="2"/>
<circle clip-path="url(#clip452)" style="fill:#78c2ad; stroke:none; fill-opacity:0" cx="2100.94" cy="1408.14" r="2"/>
<circle clip-path="url(#clip452)" style="fill:#78c2ad; stroke:none; fill-opacity:0" cx="2149.36" cy="1421.68" r="2"/>
<polyline clip-path="url(#clip452)" style="stroke:#e95420; stroke-linecap:round; stroke-linejoin:round; stroke-width:8; stroke-opacity:1; fill:none" points="280.231,1423.18 290.342,1423.18 300.454,1423.18 310.565,1423.17 320.676,1423.15 330.788,1423.12 340.899,1423.06 351.011,1422.95 361.122,1422.77 371.233,1422.51 381.345,1422.16 391.456,1421.73 401.567,1421.23 411.679,1420.66 421.79,1419.97 431.901,1419.12 442.013,1417.99 452.124,1416.49 462.235,1414.56 472.347,1412.23 482.458,1409.56 492.57,1406.65 502.681,1403.61 512.792,1400.5 522.904,1397.34 533.015,1394.12 543.126,1390.88 553.238,1387.64 563.349,1384.39 573.46,1381.04 583.572,1377.4 593.683,1373.22 603.794,1368.31 613.906,1362.67 624.017,1356.51 634.129,1350.24 644.24,1344.28 654.351,1338.87 664.463,1334.05 674.574,1329.66 684.685,1325.5 694.797,1321.39 704.908,1317.27 715.019,1313.11 725.131,1308.84 735.242,1304.33 745.353,1299.39 755.465,1293.81 765.576,1287.42 775.688,1280.16 785.799,1272.01 795.91,1263.05 806.022,1253.29 816.133,1242.66 826.244,1230.92 836.356,1217.67 846.467,1202.49 856.578,1184.95 866.69,1164.71 876.801,1141.53 886.912,1115.3 897.024,1086.09 907.135,1054.21 917.247,1020.2 927.358,984.693 937.469,948.31 947.581,911.547 957.692,874.714 967.803,837.939 977.915,801.205 988.026,764.399 998.137,727.398 1008.25,690.188 1018.36,652.982 1028.47,616.304 1038.58,580.963 1048.69,547.9 1058.81,517.944 1068.92,491.547 1079.03,468.577 1089.14,448.275 1099.25,429.365 1109.36,410.337 1119.47,389.829 1129.59,367.038 1139.7,342.066 1149.81,316.042 1159.92,290.916 1170.03,268.896 1180.14,251.715 1190.25,240.01 1200.36,233.093 1210.48,229.2 1220.59,226.09 1230.7,221.752 1240.81,215.01 1250.92,205.876 1261.03,195.583 1271.14,186.251 1281.26,180.231 1291.37,179.351 1301.48,184.369 1311.59,194.89 1321.7,209.762 1331.81,227.678 1341.92,247.657 1352.03,269.188 1362.15,292.107 1372.26,316.399 1382.37,342.086 1392.48,369.21 1402.59,397.831 1412.7,427.996 1422.81,459.701 1432.93,492.877 1443.04,527.434 1453.15,563.304 1463.26,600.454 1473.37,638.818 1483.48,678.188 1493.59,718.096 1503.71,757.766 1513.82,796.205 1523.93,832.444 1534.04,865.845 1544.15,896.313 1554.26,924.286 1564.37,950.505 1574.48,975.691 1584.6,1000.32 1594.71,1024.6 1604.82,1048.55 1614.93,1072.14 1625.04,1095.35 1635.15,1118.08 1645.26,1140.07 1655.38,1160.9 1665.49,1180.1 1675.6,1197.36 1685.71,1212.67 1695.82,1226.39 1705.93,1239.02 1716.04,1251.01 1726.16,1262.52 1736.27,1273.39 1746.38,1283.29 1756.49,1291.87 1766.6,1298.99 1776.71,1304.78 1786.82,1309.66 1796.93,1314.13 1807.05,1318.71 1817.16,1323.73 1827.27,1329.28 1837.38,1335.22 1847.49,1341.28 1857.6,1347.16 1867.71,1352.69 1877.83,1357.83 1887.94,1362.67 1898.05,1367.36 1908.16,1372.03 1918.27,1376.74 1928.38,1381.49 1938.49,1386.21 1948.6,1390.81 1958.72,1395.21 1968.83,1399.31 1978.94,1402.99 1989.05,1406.17 1999.16,1408.76 2009.27,1410.74 2019.38,1412.11 2029.5,1412.94 2039.61,1413.3 2049.72,1413.33 2059.83,1413.16 2069.94,1412.98 2080.05,1412.95 2090.16,1413.18 2100.28,1413.76 2110.39,1414.64 2120.5,1415.75 2130.61,1416.98 2140.72,1418.2 2150.83,1419.33 2160.94,1420.31 2171.05,1421.12 2181.17,1421.76 2191.28,1422.25 2201.39,1422.6 2211.5,1422.84 2221.61,1422.99 2231.72,1423.08 2241.83,1423.13 2251.95,1423.16 2262.06,1423.17 2272.17,1423.18 2282.28,1423.18 2292.39,1423.18 "/>
<polyline clip-path="url(#clip452)" style="stroke:#ff0000; stroke-linecap:round; stroke-linejoin:round; stroke-width:8; stroke-opacity:1; fill:none" stroke-dasharray="32, 20" points="414.06,1420.24 422.826,1419.85 431.593,1419.41 440.359,1418.92 449.126,1418.37 457.892,1417.76 466.658,1417.08 475.425,1416.32 484.191,1415.48 492.957,1414.55 501.724,1413.51 510.49,1412.37 519.256,1411.11 528.023,1409.72 536.789,1408.18 545.555,1406.5 554.322,1404.65 563.088,1402.62 571.854,1400.4 580.621,1397.97 589.387,1395.31 598.153,1392.42 606.92,1389.28 615.686,1385.86 624.452,1382.15 633.219,1378.14 641.985,1373.79 650.751,1369.09 659.518,1364.03 668.284,1358.58 677.05,1352.71 685.817,1346.42 694.583,1339.67 703.349,1332.45 712.116,1324.73 720.882,1316.5 729.648,1307.73 738.415,1298.4 747.181,1288.49 755.947,1277.99 764.714,1266.88 773.48,1255.13 782.246,1242.74 791.013,1229.69 799.779,1215.96 808.545,1201.56 817.312,1186.46 826.078,1170.67 834.845,1154.17 843.611,1136.98 852.377,1119.08 861.144,1100.49 869.91,1081.21 878.676,1061.25 887.443,1040.63 896.209,1019.36 904.975,997.47 913.742,974.982 922.508,951.924 931.274,928.328 940.041,904.232 948.807,879.676 957.573,854.704 966.34,829.363 975.106,803.705 983.872,777.786 992.639,751.663 1001.41,725.398 1010.17,699.055 1018.94,672.703 1027.7,646.411 1036.47,620.251 1045.24,594.298 1054,568.626 1062.77,543.314 1071.54,518.44 1080.3,494.08 1089.07,470.315 1097.83,447.223 1106.6,424.881 1115.37,403.365 1124.13,382.75 1132.9,363.109 1141.67,344.513 1150.43,327.029 1159.2,310.72 1167.97,295.649 1176.73,281.87 1185.5,269.436 1194.26,258.396 1203.03,248.79 1211.8,240.656 1220.56,234.027 1229.33,228.926 1238.1,225.376 1246.86,223.389 1255.63,222.973 1264.4,224.13 1273.16,226.855 1281.93,231.138 1290.69,236.962 1299.46,244.304 1308.23,253.136 1316.99,263.423 1325.76,275.126 1334.53,288.199 1343.29,302.594 1352.06,318.256 1360.82,335.126 1369.59,353.143 1378.36,372.24 1387.12,392.349 1395.89,413.397 1404.66,435.312 1413.42,458.018 1422.19,481.437 1430.96,505.492 1439.72,530.103 1448.49,555.194 1457.25,580.685 1466.02,606.499 1474.79,632.559 1483.55,658.79 1492.32,685.12 1501.09,711.476 1509.85,737.79 1518.62,763.996 1527.39,790.031 1536.15,815.834 1544.92,841.349 1553.68,866.522 1562.45,891.304 1571.22,915.649 1579.98,939.513 1588.75,962.86 1597.52,985.653 1606.28,1007.86 1615.05,1029.46 1623.82,1050.43 1632.58,1070.74 1641.35,1090.38 1650.11,1109.34 1658.88,1127.6 1667.65,1145.17 1676.41,1162.04 1685.18,1178.2 1693.95,1193.66 1702.71,1208.43 1711.48,1222.52 1720.24,1235.92 1729.01,1248.66 1737.78,1260.75 1746.54,1272.19 1755.31,1283.02 1764.08,1293.23 1772.84,1302.86 1781.61,1311.93 1790.38,1320.44 1799.14,1328.43 1807.91,1335.91 1816.67,1342.91 1825.44,1349.44 1834.21,1355.53 1842.97,1361.2 1851.74,1366.46 1860.51,1371.35 1869.27,1375.88 1878.04,1380.07 1886.81,1383.94 1895.57,1387.51 1904.34,1390.79 1913.1,1393.82 1921.87,1396.59 1930.64,1399.14 1939.4,1401.47 1948.17,1403.6 1956.94,1405.54 1965.7,1407.31 1974.47,1408.92 1983.24,1410.39 1992,1411.72 2000.77,1412.92 2009.53,1414.02 2018.3,1415 2027.07,1415.89 2035.83,1416.69 2044.6,1417.41 2053.37,1418.06 2062.13,1418.64 2070.9,1419.16 2079.66,1419.62 2088.43,1420.04 2097.2,1420.41 2105.96,1420.74 2114.73,1421.03 2123.5,1421.29 2132.26,1421.52 2141.03,1421.73 2149.8,1421.91 2158.56,1422.07 "/>
<path clip-path="url(#clip450)" d="M1673.67 374.156 L2281.66 374.156 L2281.66 166.796 L1673.67 166.796  Z" fill="#ffffff" fill-rule="evenodd" fill-opacity="1"/>
<polyline clip-path="url(#clip450)" style="stroke:#000000; stroke-linecap:round; stroke-linejoin:round; stroke-width:4; stroke-opacity:1; fill:none" points="1673.67,374.156 2281.66,374.156 2281.66,166.796 1673.67,166.796 1673.67,374.156 "/>
<path clip-path="url(#clip450)" d="M1697.37 239.372 L1839.57 239.372 L1839.57 197.9 L1697.37 197.9 L1697.37 239.372  Z" fill="#78c2ad" fill-rule="evenodd" fill-opacity="0.7"/>
<polyline clip-path="url(#clip450)" style="stroke:#000000; stroke-linecap:round; stroke-linejoin:round; stroke-width:4; stroke-opacity:1; fill:none" points="1697.37,239.372 1839.57,239.372 1839.57,197.9 1697.37,197.9 1697.37,239.372 "/>
<path clip-path="url(#clip450)" d="M1863.26 201.356 L1867.94 201.356 L1867.94 215.522 L1884.93 215.522 L1884.93 201.356 L1889.61 201.356 L1889.61 235.916 L1884.93 235.916 L1884.93 219.457 L1867.94 219.457 L1867.94 235.916 L1863.26 235.916 L1863.26 201.356 Z" fill="#000000" fill-rule="nonzero" fill-opacity="1" /><path clip-path="url(#clip450)" d="M1898.73 209.99 L1902.99 209.99 L1902.99 235.916 L1898.73 235.916 L1898.73 209.99 M1898.73 199.897 L1902.99 199.897 L1902.99 205.291 L1898.73 205.291 L1898.73 199.897 Z" fill="#000000" fill-rule="nonzero" fill-opacity="1" /><path clip-path="url(#clip450)" d="M1928.43 210.754 L1928.43 214.782 Q1926.62 213.856 1924.68 213.393 Q1922.73 212.93 1920.65 212.93 Q1917.48 212.93 1915.88 213.902 Q1914.31 214.874 1914.31 216.819 Q1914.31 218.3 1915.44 219.157 Q1916.57 219.99 1920 220.754 L1921.46 221.078 Q1925.99 222.05 1927.89 223.832 Q1929.81 225.592 1929.81 228.763 Q1929.81 232.374 1926.94 234.481 Q1924.1 236.587 1919.1 236.587 Q1917.01 236.587 1914.75 236.17 Q1912.5 235.777 1910 234.967 L1910 230.569 Q1912.36 231.795 1914.65 232.42 Q1916.94 233.022 1919.19 233.022 Q1922.2 233.022 1923.82 232.004 Q1925.44 230.962 1925.44 229.087 Q1925.44 227.351 1924.26 226.425 Q1923.1 225.499 1919.14 224.643 L1917.66 224.295 Q1913.7 223.462 1911.94 221.749 Q1910.18 220.013 1910.18 217.004 Q1910.18 213.346 1912.78 211.356 Q1915.37 209.365 1920.14 209.365 Q1922.5 209.365 1924.58 209.712 Q1926.67 210.059 1928.43 210.754 Z" fill="#000000" fill-rule="nonzero" fill-opacity="1" /><path clip-path="url(#clip450)" d="M1940.81 202.629 L1940.81 209.99 L1949.58 209.99 L1949.58 213.3 L1940.81 213.3 L1940.81 227.374 Q1940.81 230.545 1941.67 231.448 Q1942.55 232.351 1945.21 232.351 L1949.58 232.351 L1949.58 235.916 L1945.21 235.916 Q1940.28 235.916 1938.4 234.087 Q1936.53 232.235 1936.53 227.374 L1936.53 213.3 L1933.4 213.3 L1933.4 209.99 L1936.53 209.99 L1936.53 202.629 L1940.81 202.629 Z" fill="#000000" fill-rule="nonzero" fill-opacity="1" /><path clip-path="url(#clip450)" d="M1965.23 212.976 Q1961.8 212.976 1959.81 215.661 Q1957.82 218.323 1957.82 222.976 Q1957.82 227.629 1959.79 230.314 Q1961.78 232.976 1965.23 232.976 Q1968.63 232.976 1970.62 230.291 Q1972.62 227.606 1972.62 222.976 Q1972.62 218.37 1970.62 215.684 Q1968.63 212.976 1965.23 212.976 M1965.23 209.365 Q1970.79 209.365 1973.96 212.976 Q1977.13 216.587 1977.13 222.976 Q1977.13 229.342 1973.96 232.976 Q1970.79 236.587 1965.23 236.587 Q1959.65 236.587 1956.48 232.976 Q1953.33 229.342 1953.33 222.976 Q1953.33 216.587 1956.48 212.976 Q1959.65 209.365 1965.23 209.365 Z" fill="#000000" fill-rule="nonzero" fill-opacity="1" /><path clip-path="url(#clip450)" d="M2001.25 222.652 Q2001.25 218.022 1999.33 215.476 Q1997.43 212.93 1993.98 212.93 Q1990.55 212.93 1988.63 215.476 Q1986.74 218.022 1986.74 222.652 Q1986.74 227.258 1988.63 229.805 Q1990.55 232.351 1993.98 232.351 Q1997.43 232.351 1999.33 229.805 Q2001.25 227.258 2001.25 222.652 M2005.51 232.698 Q2005.51 239.318 2002.57 242.536 Q1999.63 245.777 1993.56 245.777 Q1991.32 245.777 1989.33 245.43 Q1987.34 245.105 1985.46 244.411 L1985.46 240.268 Q1987.34 241.286 1989.17 241.772 Q1990.99 242.258 1992.89 242.258 Q1997.08 242.258 1999.17 240.059 Q2001.25 237.883 2001.25 233.462 L2001.25 231.356 Q1999.93 233.647 1997.87 234.781 Q1995.81 235.916 1992.94 235.916 Q1988.17 235.916 1985.25 232.281 Q1982.34 228.647 1982.34 222.652 Q1982.34 216.633 1985.25 212.999 Q1988.17 209.365 1992.94 209.365 Q1995.81 209.365 1997.87 210.499 Q1999.93 211.633 2001.25 213.925 L2001.25 209.99 L2005.51 209.99 L2005.51 232.698 Z" fill="#000000" fill-rule="nonzero" fill-opacity="1" /><path clip-path="url(#clip450)" d="M2029.3 213.971 Q2028.59 213.555 2027.73 213.37 Q2026.9 213.161 2025.88 213.161 Q2022.27 213.161 2020.32 215.522 Q2018.4 217.86 2018.4 222.258 L2018.4 235.916 L2014.12 235.916 L2014.12 209.99 L2018.4 209.99 L2018.4 214.018 Q2019.74 211.657 2021.9 210.522 Q2024.05 209.365 2027.13 209.365 Q2027.57 209.365 2028.1 209.434 Q2028.63 209.481 2029.28 209.596 L2029.3 213.971 Z" fill="#000000" fill-rule="nonzero" fill-opacity="1" /><path clip-path="url(#clip450)" d="M2045.55 222.883 Q2040.39 222.883 2038.4 224.064 Q2036.41 225.244 2036.41 228.092 Q2036.41 230.36 2037.89 231.703 Q2039.4 233.022 2041.97 233.022 Q2045.51 233.022 2047.64 230.522 Q2049.79 227.999 2049.79 223.832 L2049.79 222.883 L2045.55 222.883 M2054.05 221.124 L2054.05 235.916 L2049.79 235.916 L2049.79 231.981 Q2048.33 234.342 2046.16 235.476 Q2043.98 236.587 2040.83 236.587 Q2036.85 236.587 2034.49 234.365 Q2032.15 232.119 2032.15 228.369 Q2032.15 223.994 2035.07 221.772 Q2038.01 219.55 2043.82 219.55 L2049.79 219.55 L2049.79 219.133 Q2049.79 216.194 2047.85 214.596 Q2045.92 212.976 2042.43 212.976 Q2040.21 212.976 2038.1 213.508 Q2035.99 214.041 2034.05 215.106 L2034.05 211.17 Q2036.39 210.268 2038.59 209.828 Q2040.79 209.365 2042.87 209.365 Q2048.49 209.365 2051.27 212.282 Q2054.05 215.198 2054.05 221.124 Z" fill="#000000" fill-rule="nonzero" fill-opacity="1" /><path clip-path="url(#clip450)" d="M2083.01 214.967 Q2084.61 212.096 2086.83 210.731 Q2089.05 209.365 2092.06 209.365 Q2096.11 209.365 2098.31 212.212 Q2100.51 215.036 2100.51 220.268 L2100.51 235.916 L2096.23 235.916 L2096.23 220.407 Q2096.23 216.68 2094.91 214.874 Q2093.59 213.069 2090.88 213.069 Q2087.57 213.069 2085.65 215.268 Q2083.73 217.467 2083.73 221.263 L2083.73 235.916 L2079.44 235.916 L2079.44 220.407 Q2079.44 216.657 2078.12 214.874 Q2076.8 213.069 2074.05 213.069 Q2070.79 213.069 2068.86 215.291 Q2066.94 217.49 2066.94 221.263 L2066.94 235.916 L2062.66 235.916 L2062.66 209.99 L2066.94 209.99 L2066.94 214.018 Q2068.4 211.633 2070.44 210.499 Q2072.48 209.365 2075.28 209.365 Q2078.1 209.365 2080.07 210.8 Q2082.06 212.235 2083.01 214.967 Z" fill="#000000" fill-rule="nonzero" fill-opacity="1" /><polyline clip-path="url(#clip450)" style="stroke:#e95420; stroke-linecap:round; stroke-linejoin:round; stroke-width:8; stroke-opacity:1; fill:none" points="1697.37,270.476 1839.57,270.476 "/>
<path clip-path="url(#clip450)" d="M1863.26 253.196 L1867.94 253.196 L1867.94 267.802 L1883.45 253.196 L1889.47 253.196 L1872.31 269.307 L1890.69 287.756 L1884.54 287.756 L1867.94 271.112 L1867.94 287.756 L1863.26 287.756 L1863.26 253.196 Z" fill="#000000" fill-rule="nonzero" fill-opacity="1" /><path clip-path="url(#clip450)" d="M1899.03 257.038 L1899.03 283.913 L1904.68 283.913 Q1911.83 283.913 1915.14 280.672 Q1918.47 277.432 1918.47 270.441 Q1918.47 263.497 1915.14 260.279 Q1911.83 257.038 1904.68 257.038 L1899.03 257.038 M1894.35 253.196 L1903.96 253.196 Q1914 253.196 1918.7 257.386 Q1923.4 261.552 1923.4 270.441 Q1923.4 279.376 1918.68 283.566 Q1913.96 287.756 1903.96 287.756 L1894.35 287.756 L1894.35 253.196 Z" fill="#000000" fill-rule="nonzero" fill-opacity="1" /><path clip-path="url(#clip450)" d="M1930.86 253.196 L1952.71 253.196 L1952.71 257.131 L1935.53 257.131 L1935.53 267.362 L1951.99 267.362 L1951.99 271.297 L1935.53 271.297 L1935.53 283.821 L1953.12 283.821 L1953.12 287.756 L1930.86 287.756 L1930.86 253.196 Z" fill="#000000" fill-rule="nonzero" fill-opacity="1" /><polyline clip-path="url(#clip450)" style="stroke:#ff0000; stroke-linecap:round; stroke-linejoin:round; stroke-width:8; stroke-opacity:1; fill:none" stroke-dasharray="32, 20" points="1697.37,322.316 1839.57,322.316 "/>
<path clip-path="url(#clip450)" d="M1885.51 306.17 L1885.51 310.73 Q1882.85 309.457 1880.49 308.832 Q1878.12 308.207 1875.93 308.207 Q1872.11 308.207 1870.02 309.688 Q1867.96 311.17 1867.96 313.901 Q1867.96 316.193 1869.33 317.374 Q1870.72 318.531 1874.56 319.249 L1877.38 319.827 Q1882.62 320.823 1885.09 323.346 Q1887.59 325.846 1887.59 330.059 Q1887.59 335.082 1884.21 337.674 Q1880.86 340.267 1874.35 340.267 Q1871.9 340.267 1869.12 339.711 Q1866.37 339.156 1863.4 338.068 L1863.4 333.253 Q1866.25 334.85 1868.98 335.661 Q1871.71 336.471 1874.35 336.471 Q1878.36 336.471 1880.53 334.897 Q1882.71 333.323 1882.71 330.406 Q1882.71 327.86 1881.13 326.424 Q1879.58 324.989 1876.02 324.272 L1873.17 323.716 Q1867.94 322.675 1865.6 320.452 Q1863.26 318.23 1863.26 314.272 Q1863.26 309.688 1866.48 307.05 Q1869.72 304.411 1875.39 304.411 Q1877.82 304.411 1880.35 304.851 Q1882.87 305.29 1885.51 306.17 Z" fill="#000000" fill-rule="nonzero" fill-opacity="1" /><path clip-path="url(#clip450)" d="M1898.91 306.309 L1898.91 313.67 L1907.68 313.67 L1907.68 316.98 L1898.91 316.98 L1898.91 331.054 Q1898.91 334.225 1899.77 335.128 Q1900.65 336.031 1903.31 336.031 L1907.68 336.031 L1907.68 339.596 L1903.31 339.596 Q1898.38 339.596 1896.5 337.767 Q1894.63 335.915 1894.63 331.054 L1894.63 316.98 L1891.5 316.98 L1891.5 313.67 L1894.63 313.67 L1894.63 306.309 L1898.91 306.309 Z" fill="#000000" fill-rule="nonzero" fill-opacity="1" /><path clip-path="url(#clip450)" d="M1925.07 326.563 Q1919.91 326.563 1917.92 327.744 Q1915.93 328.924 1915.93 331.772 Q1915.93 334.04 1917.41 335.383 Q1918.91 336.702 1921.48 336.702 Q1925.02 336.702 1927.15 334.202 Q1929.31 331.679 1929.31 327.512 L1929.31 326.563 L1925.07 326.563 M1933.56 324.804 L1933.56 339.596 L1929.31 339.596 L1929.31 335.661 Q1927.85 338.022 1925.67 339.156 Q1923.5 340.267 1920.35 340.267 Q1916.37 340.267 1914 338.045 Q1911.67 335.799 1911.67 332.049 Q1911.67 327.674 1914.58 325.452 Q1917.52 323.23 1923.33 323.23 L1929.31 323.23 L1929.31 322.813 Q1929.31 319.874 1927.36 318.276 Q1925.44 316.656 1921.94 316.656 Q1919.72 316.656 1917.62 317.188 Q1915.51 317.721 1913.56 318.786 L1913.56 314.85 Q1915.9 313.948 1918.1 313.508 Q1920.3 313.045 1922.38 313.045 Q1928.01 313.045 1930.79 315.962 Q1933.56 318.878 1933.56 324.804 Z" fill="#000000" fill-rule="nonzero" fill-opacity="1" /><path clip-path="url(#clip450)" d="M1963.89 323.948 L1963.89 339.596 L1959.63 339.596 L1959.63 324.087 Q1959.63 320.406 1958.19 318.577 Q1956.76 316.749 1953.89 316.749 Q1950.44 316.749 1948.45 318.948 Q1946.46 321.147 1946.46 324.943 L1946.46 339.596 L1942.18 339.596 L1942.18 313.67 L1946.46 313.67 L1946.46 317.698 Q1947.99 315.36 1950.05 314.202 Q1952.13 313.045 1954.84 313.045 Q1959.31 313.045 1961.6 315.823 Q1963.89 318.577 1963.89 323.948 Z" fill="#000000" fill-rule="nonzero" fill-opacity="1" /><path clip-path="url(#clip450)" d="M1989.44 317.605 L1989.44 303.577 L1993.7 303.577 L1993.7 339.596 L1989.44 339.596 L1989.44 335.707 Q1988.1 338.022 1986.04 339.156 Q1984 340.267 1981.13 340.267 Q1976.43 340.267 1973.47 336.517 Q1970.53 332.767 1970.53 326.656 Q1970.53 320.545 1973.47 316.795 Q1976.43 313.045 1981.13 313.045 Q1984 313.045 1986.04 314.179 Q1988.1 315.29 1989.44 317.605 M1974.93 326.656 Q1974.93 331.355 1976.85 334.04 Q1978.8 336.702 1982.18 336.702 Q1985.55 336.702 1987.5 334.04 Q1989.44 331.355 1989.44 326.656 Q1989.44 321.957 1987.5 319.295 Q1985.55 316.61 1982.18 316.61 Q1978.8 316.61 1976.85 319.295 Q1974.93 321.957 1974.93 326.656 Z" fill="#000000" fill-rule="nonzero" fill-opacity="1" /><path clip-path="url(#clip450)" d="M2014.26 326.563 Q2009.1 326.563 2007.11 327.744 Q2005.11 328.924 2005.11 331.772 Q2005.11 334.04 2006.6 335.383 Q2008.1 336.702 2010.67 336.702 Q2014.21 336.702 2016.34 334.202 Q2018.49 331.679 2018.49 327.512 L2018.49 326.563 L2014.26 326.563 M2022.75 324.804 L2022.75 339.596 L2018.49 339.596 L2018.49 335.661 Q2017.04 338.022 2014.86 339.156 Q2012.68 340.267 2009.54 340.267 Q2005.55 340.267 2003.19 338.045 Q2000.86 335.799 2000.86 332.049 Q2000.86 327.674 2003.77 325.452 Q2006.71 323.23 2012.52 323.23 L2018.49 323.23 L2018.49 322.813 Q2018.49 319.874 2016.55 318.276 Q2014.63 316.656 2011.13 316.656 Q2008.91 316.656 2006.8 317.188 Q2004.7 317.721 2002.75 318.786 L2002.75 314.85 Q2005.09 313.948 2007.29 313.508 Q2009.49 313.045 2011.57 313.045 Q2017.2 313.045 2019.98 315.962 Q2022.75 318.878 2022.75 324.804 Z" fill="#000000" fill-rule="nonzero" fill-opacity="1" /><path clip-path="url(#clip450)" d="M2046.55 317.651 Q2045.83 317.235 2044.98 317.05 Q2044.14 316.841 2043.12 316.841 Q2039.51 316.841 2037.57 319.202 Q2035.65 321.54 2035.65 325.938 L2035.65 339.596 L2031.36 339.596 L2031.36 313.67 L2035.65 313.67 L2035.65 317.698 Q2036.99 315.337 2039.14 314.202 Q2041.3 313.045 2044.37 313.045 Q2044.81 313.045 2045.35 313.114 Q2045.88 313.161 2046.53 313.276 L2046.55 317.651 Z" fill="#000000" fill-rule="nonzero" fill-opacity="1" /><path clip-path="url(#clip450)" d="M2067.24 317.605 L2067.24 303.577 L2071.5 303.577 L2071.5 339.596 L2067.24 339.596 L2067.24 335.707 Q2065.9 338.022 2063.84 339.156 Q2061.8 340.267 2058.93 340.267 Q2054.24 340.267 2051.27 336.517 Q2048.33 332.767 2048.33 326.656 Q2048.33 320.545 2051.27 316.795 Q2054.24 313.045 2058.93 313.045 Q2061.8 313.045 2063.84 314.179 Q2065.9 315.29 2067.24 317.605 M2052.73 326.656 Q2052.73 331.355 2054.65 334.04 Q2056.6 336.702 2059.98 336.702 Q2063.36 336.702 2065.3 334.04 Q2067.24 331.355 2067.24 326.656 Q2067.24 321.957 2065.3 319.295 Q2063.36 316.61 2059.98 316.61 Q2056.6 316.61 2054.65 319.295 Q2052.73 321.957 2052.73 326.656 Z" fill="#000000" fill-rule="nonzero" fill-opacity="1" /><path clip-path="url(#clip450)" d="M2095.53 305.036 L2101.83 305.036 L2117.15 333.948 L2117.15 305.036 L2121.69 305.036 L2121.69 339.596 L2115.39 339.596 L2100.07 310.684 L2100.07 339.596 L2095.53 339.596 L2095.53 305.036 Z" fill="#000000" fill-rule="nonzero" fill-opacity="1" /><path clip-path="url(#clip450)" d="M2140.85 316.656 Q2137.43 316.656 2135.44 319.341 Q2133.45 322.003 2133.45 326.656 Q2133.45 331.309 2135.42 333.994 Q2137.41 336.656 2140.85 336.656 Q2144.26 336.656 2146.25 333.971 Q2148.24 331.286 2148.24 326.656 Q2148.24 322.05 2146.25 319.364 Q2144.26 316.656 2140.85 316.656 M2140.85 313.045 Q2146.41 313.045 2149.58 316.656 Q2152.75 320.267 2152.75 326.656 Q2152.75 333.022 2149.58 336.656 Q2146.41 340.267 2140.85 340.267 Q2135.28 340.267 2132.11 336.656 Q2128.96 333.022 2128.96 326.656 Q2128.96 320.267 2132.11 316.656 Q2135.28 313.045 2140.85 313.045 Z" fill="#000000" fill-rule="nonzero" fill-opacity="1" /><path clip-path="url(#clip450)" d="M2174.84 317.651 Q2174.12 317.235 2173.26 317.05 Q2172.43 316.841 2171.41 316.841 Q2167.8 316.841 2165.85 319.202 Q2163.93 321.54 2163.93 325.938 L2163.93 339.596 L2159.65 339.596 L2159.65 313.67 L2163.93 313.67 L2163.93 317.698 Q2165.28 315.337 2167.43 314.202 Q2169.58 313.045 2172.66 313.045 Q2173.1 313.045 2173.63 313.114 Q2174.16 313.161 2174.81 313.276 L2174.84 317.651 Z" fill="#000000" fill-rule="nonzero" fill-opacity="1" /><path clip-path="url(#clip450)" d="M2198.66 318.647 Q2200.25 315.776 2202.47 314.411 Q2204.7 313.045 2207.71 313.045 Q2211.76 313.045 2213.96 315.892 Q2216.16 318.716 2216.16 323.948 L2216.16 339.596 L2211.87 339.596 L2211.87 324.087 Q2211.87 320.36 2210.55 318.554 Q2209.23 316.749 2206.53 316.749 Q2203.22 316.749 2201.29 318.948 Q2199.37 321.147 2199.37 324.943 L2199.37 339.596 L2195.09 339.596 L2195.09 324.087 Q2195.09 320.337 2193.77 318.554 Q2192.45 316.749 2189.7 316.749 Q2186.43 316.749 2184.51 318.971 Q2182.59 321.17 2182.59 324.943 L2182.59 339.596 L2178.31 339.596 L2178.31 313.67 L2182.59 313.67 L2182.59 317.698 Q2184.05 315.313 2186.09 314.179 Q2188.12 313.045 2190.92 313.045 Q2193.75 313.045 2195.72 314.48 Q2197.71 315.915 2198.66 318.647 Z" fill="#000000" fill-rule="nonzero" fill-opacity="1" /><path clip-path="url(#clip450)" d="M2236.43 326.563 Q2231.27 326.563 2229.28 327.744 Q2227.29 328.924 2227.29 331.772 Q2227.29 334.04 2228.77 335.383 Q2230.28 336.702 2232.85 336.702 Q2236.39 336.702 2238.52 334.202 Q2240.67 331.679 2240.67 327.512 L2240.67 326.563 L2236.43 326.563 M2244.93 324.804 L2244.93 339.596 L2240.67 339.596 L2240.67 335.661 Q2239.21 338.022 2237.03 339.156 Q2234.86 340.267 2231.71 340.267 Q2227.73 340.267 2225.37 338.045 Q2223.03 335.799 2223.03 332.049 Q2223.03 327.674 2225.95 325.452 Q2228.89 323.23 2234.7 323.23 L2240.67 323.23 L2240.67 322.813 Q2240.67 319.874 2238.72 318.276 Q2236.8 316.656 2233.31 316.656 Q2231.09 316.656 2228.98 317.188 Q2226.87 317.721 2224.93 318.786 L2224.93 314.85 Q2227.27 313.948 2229.47 313.508 Q2231.66 313.045 2233.75 313.045 Q2239.37 313.045 2242.15 315.962 Q2244.93 318.878 2244.93 324.804 Z" fill="#000000" fill-rule="nonzero" fill-opacity="1" /><path clip-path="url(#clip450)" d="M2253.7 303.577 L2257.96 303.577 L2257.96 339.596 L2253.7 339.596 L2253.7 303.577 Z" fill="#000000" fill-rule="nonzero" fill-opacity="1" /></svg>
