<?xml version="1.0" encoding="utf-8"?>
<svg xmlns="http://www.w3.org/2000/svg" xmlns:xlink="http://www.w3.org/1999/xlink" width="600" height="400" viewBox="0 0 2400 1600">
<defs>
  <clipPath id="clip410">
    <rect x="0" y="0" width="2400" height="1600"/>
  </clipPath>
</defs>
<path clip-path="url(#clip410)" d="M0 1600 L2400 1600 L2400 8.88178e-14 L0 8.88178e-14  Z" fill="#ffffff" fill-rule="evenodd" fill-opacity="1"/>
<defs>
  <clipPath id="clip411">
    <rect x="480" y="0" width="1681" height="1600"/>
  </clipPath>
</defs>
<path clip-path="url(#clip410)" d="M219.866 1423.18 L2352.76 1423.18 L2352.76 123.472 L219.866 123.472  Z" fill="#ffffff" fill-rule="evenodd" fill-opacity="1"/>
<defs>
  <clipPath id="clip412">
    <rect x="219" y="123" width="2134" height="1301"/>
  </clipPath>
</defs>
<polyline clip-path="url(#clip412)" style="stroke:#000000; stroke-linecap:round; stroke-linejoin:round; stroke-width:2; stroke-opacity:0.1; fill:none" points="352.546,1423.18 352.546,123.472 "/>
<polyline clip-path="url(#clip412)" style="stroke:#000000; stroke-linecap:round; stroke-linejoin:round; stroke-width:2; stroke-opacity:0.1; fill:none" points="821.22,1423.18 821.22,123.472 "/>
<polyline clip-path="url(#clip412)" style="stroke:#000000; stroke-linecap:round; stroke-linejoin:round; stroke-width:2; stroke-opacity:0.1; fill:none" points="1289.89,1423.18 1289.89,123.472 "/>
<polyline clip-path="url(#clip412)" style="stroke:#000000; stroke-linecap:round; stroke-linejoin:round; stroke-width:2; stroke-opacity:0.1; fill:none" points="1758.57,1423.18 1758.57,123.472 "/>
<polyline clip-path="url(#clip412)" style="stroke:#000000; stroke-linecap:round; stroke-linejoin:round; stroke-width:2; stroke-opacity:0.1; fill:none" points="2227.24,1423.18 2227.24,123.472 "/>
<polyline clip-path="url(#clip412)" style="stroke:#000000; stroke-linecap:round; stroke-linejoin:round; stroke-width:2; stroke-opacity:0.1; fill:none" points="219.866,1423.18 2352.76,1423.18 "/>
<polyline clip-path="url(#clip412)" style="stroke:#000000; stroke-linecap:round; stroke-linejoin:round; stroke-width:2; stroke-opacity:0.1; fill:none" points="219.866,1099.06 2352.76,1099.06 "/>
<polyline clip-path="url(#clip412)" style="stroke:#000000; stroke-linecap:round; stroke-linejoin:round; stroke-width:2; stroke-opacity:0.1; fill:none" points="219.866,774.947 2352.76,774.947 "/>
<polyline clip-path="url(#clip412)" style="stroke:#000000; stroke-linecap:round; stroke-linejoin:round; stroke-width:2; stroke-opacity:0.1; fill:none" points="219.866,450.83 2352.76,450.83 "/>
<polyline clip-path="url(#clip412)" style="stroke:#000000; stroke-linecap:round; stroke-linejoin:round; stroke-width:2; stroke-opacity:0.1; fill:none" points="219.866,126.713 2352.76,126.713 "/>
<polyline clip-path="url(#clip410)" style="stroke:#000000; stroke-linecap:round; stroke-linejoin:round; stroke-width:4; stroke-opacity:1; fill:none" points="219.866,1423.18 2352.76,1423.18 "/>
<polyline clip-path="url(#clip410)" style="stroke:#000000; stroke-linecap:round; stroke-linejoin:round; stroke-width:4; stroke-opacity:1; fill:none" points="352.546,1423.18 352.546,1404.28 "/>
<polyline clip-path="url(#clip410)" style="stroke:#000000; stroke-linecap:round; stroke-linejoin:round; stroke-width:4; stroke-opacity:1; fill:none" points="821.22,1423.18 821.22,1404.28 "/>
<polyline clip-path="url(#clip410)" style="stroke:#000000; stroke-linecap:round; stroke-linejoin:round; stroke-width:4; stroke-opacity:1; fill:none" points="1289.89,1423.18 1289.89,1404.28 "/>
<polyline clip-path="url(#clip410)" style="stroke:#000000; stroke-linecap:round; stroke-linejoin:round; stroke-width:4; stroke-opacity:1; fill:none" points="1758.57,1423.18 1758.57,1404.28 "/>
<polyline clip-path="url(#clip410)" style="stroke:#000000; stroke-linecap:round; stroke-linejoin:round; stroke-width:4; stroke-opacity:1; fill:none" points="2227.24,1423.18 2227.24,1404.28 "/>
<path clip-path="url(#clip410)" d="M321.446 1468.75 L351.122 1468.75 L351.122 1472.69 L321.446 1472.69 L321.446 1468.75 Z" fill="#000000" fill-rule="nonzero" fill-opacity="1" /><path clip-path="url(#clip410)" d="M374.062 1455.09 L362.256 1473.54 L374.062 1473.54 L374.062 1455.09 M372.835 1451.02 L378.714 1451.02 L378.714 1473.54 L383.645 1473.54 L383.645 1477.43 L378.714 1477.43 L378.714 1485.58 L374.062 1485.58 L374.062 1477.43 L358.46 1477.43 L358.46 1472.92 L372.835 1451.02 Z" fill="#000000" fill-rule="nonzero" fill-opacity="1" /><path clip-path="url(#clip410)" d="M791.162 1468.75 L820.838 1468.75 L820.838 1472.69 L791.162 1472.69 L791.162 1468.75 Z" fill="#000000" fill-rule="nonzero" fill-opacity="1" /><path clip-path="url(#clip410)" d="M834.958 1481.64 L851.277 1481.64 L851.277 1485.58 L829.333 1485.58 L829.333 1481.64 Q831.995 1478.89 836.578 1474.26 Q841.185 1469.61 842.365 1468.27 Q844.611 1465.74 845.49 1464.01 Q846.393 1462.25 846.393 1460.56 Q846.393 1457.8 844.449 1456.07 Q842.527 1454.33 839.426 1454.33 Q837.226 1454.33 834.773 1455.09 Q832.342 1455.86 829.565 1457.41 L829.565 1452.69 Q832.389 1451.55 834.842 1450.97 Q837.296 1450.39 839.333 1450.39 Q844.703 1450.39 847.898 1453.08 Q851.092 1455.77 851.092 1460.26 Q851.092 1462.39 850.282 1464.31 Q849.495 1466.2 847.388 1468.8 Q846.81 1469.47 843.708 1472.69 Q840.606 1475.88 834.958 1481.64 Z" fill="#000000" fill-rule="nonzero" fill-opacity="1" /><path clip-path="url(#clip410)" d="M1289.89 1454.1 Q1286.28 1454.1 1284.45 1457.66 Q1282.65 1461.2 1282.65 1468.33 Q1282.65 1475.44 1284.45 1479.01 Q1286.28 1482.55 1289.89 1482.55 Q1293.53 1482.55 1295.33 1479.01 Q1297.16 1475.44 1297.16 1468.33 Q1297.16 1461.2 1295.33 1457.66 Q1293.53 1454.1 1289.89 1454.1 M1289.89 1450.39 Q1295.7 1450.39 1298.76 1455 Q1301.84 1459.58 1301.84 1468.33 Q1301.84 1477.06 1298.76 1481.67 Q1295.7 1486.25 1289.89 1486.25 Q1284.08 1486.25 1281 1481.67 Q1277.95 1477.06 1277.95 1468.33 Q1277.95 1459.58 1281 1455 Q1284.08 1450.39 1289.89 1450.39 Z" fill="#000000" fill-rule="nonzero" fill-opacity="1" /><path clip-path="url(#clip410)" d="M1753.22 1481.64 L1769.54 1481.64 L1769.54 1485.58 L1747.6 1485.58 L1747.6 1481.64 Q1750.26 1478.89 1754.84 1474.26 Q1759.45 1469.61 1760.63 1468.27 Q1762.87 1465.74 1763.75 1464.01 Q1764.66 1462.25 1764.66 1460.56 Q1764.66 1457.8 1762.71 1456.07 Q1760.79 1454.33 1757.69 1454.33 Q1755.49 1454.33 1753.04 1455.09 Q1750.6 1455.86 1747.83 1457.41 L1747.83 1452.69 Q1750.65 1451.55 1753.1 1450.97 Q1755.56 1450.39 1757.6 1450.39 Q1762.97 1450.39 1766.16 1453.08 Q1769.35 1455.77 1769.35 1460.26 Q1769.35 1462.39 1768.54 1464.31 Q1767.76 1466.2 1765.65 1468.8 Q1765.07 1469.47 1761.97 1472.69 Q1758.87 1475.88 1753.22 1481.64 Z" fill="#000000" fill-rule="nonzero" fill-opacity="1" /><path clip-path="url(#clip410)" d="M2230.25 1455.09 L2218.45 1473.54 L2230.25 1473.54 L2230.25 1455.09 M2229.02 1451.02 L2234.9 1451.02 L2234.9 1473.54 L2239.83 1473.54 L2239.83 1477.43 L2234.9 1477.43 L2234.9 1485.58 L2230.25 1485.58 L2230.25 1477.43 L2214.65 1477.43 L2214.65 1472.92 L2229.02 1451.02 Z" fill="#000000" fill-rule="nonzero" fill-opacity="1" /><path clip-path="url(#clip410)" d="M1267.83 1532.4 L1254.94 1549.74 L1268.5 1568.04 L1261.6 1568.04 L1251.22 1554.04 L1240.84 1568.04 L1233.94 1568.04 L1247.78 1549.39 L1235.11 1532.4 L1242.02 1532.4 L1251.47 1545.1 L1260.93 1532.4 L1267.83 1532.4 Z" fill="#000000" fill-rule="nonzero" fill-opacity="1" /><path clip-path="url(#clip410)" d="M1303.86 1578.87 L1303.86 1583.42 L1270 1583.42 L1270 1578.87 L1303.86 1578.87 Z" fill="#000000" fill-rule="nonzero" fill-opacity="1" /><path clip-path="url(#clip410)" d="M1311.31 1562.63 L1321.82 1562.63 L1321.82 1526.38 L1310.39 1528.67 L1310.39 1522.82 L1321.75 1520.52 L1328.18 1520.52 L1328.18 1562.63 L1338.68 1562.63 L1338.68 1568.04 L1311.31 1568.04 L1311.31 1562.63 Z" fill="#000000" fill-rule="nonzero" fill-opacity="1" /><polyline clip-path="url(#clip410)" style="stroke:#000000; stroke-linecap:round; stroke-linejoin:round; stroke-width:4; stroke-opacity:1; fill:none" points="219.866,1423.18 219.866,123.472 "/>
<polyline clip-path="url(#clip410)" style="stroke:#000000; stroke-linecap:round; stroke-linejoin:round; stroke-width:4; stroke-opacity:1; fill:none" points="219.866,1423.18 238.764,1423.18 "/>
<polyline clip-path="url(#clip410)" style="stroke:#000000; stroke-linecap:round; stroke-linejoin:round; stroke-width:4; stroke-opacity:1; fill:none" points="219.866,1099.06 238.764,1099.06 "/>
<polyline clip-path="url(#clip410)" style="stroke:#000000; stroke-linecap:round; stroke-linejoin:round; stroke-width:4; stroke-opacity:1; fill:none" points="219.866,774.947 238.764,774.947 "/>
<polyline clip-path="url(#clip410)" style="stroke:#000000; stroke-linecap:round; stroke-linejoin:round; stroke-width:4; stroke-opacity:1; fill:none" points="219.866,450.83 238.764,450.83 "/>
<polyline clip-path="url(#clip410)" style="stroke:#000000; stroke-linecap:round; stroke-linejoin:round; stroke-width:4; stroke-opacity:1; fill:none" points="219.866,126.713 238.764,126.713 "/>
<path clip-path="url(#clip410)" d="M126.691 1408.98 Q123.08 1408.98 121.251 1412.54 Q119.445 1416.08 119.445 1423.21 Q119.445 1430.32 121.251 1433.89 Q123.08 1437.43 126.691 1437.43 Q130.325 1437.43 132.13 1433.89 Q133.959 1430.32 133.959 1423.21 Q133.959 1416.08 132.13 1412.54 Q130.325 1408.98 126.691 1408.98 M126.691 1405.27 Q132.501 1405.27 135.556 1409.88 Q138.635 1414.46 138.635 1423.21 Q138.635 1431.94 135.556 1436.55 Q132.501 1441.13 126.691 1441.13 Q120.88 1441.13 117.802 1436.55 Q114.746 1431.94 114.746 1423.21 Q114.746 1414.46 117.802 1409.88 Q120.88 1405.27 126.691 1405.27 Z" fill="#000000" fill-rule="nonzero" fill-opacity="1" /><path clip-path="url(#clip410)" d="M146.853 1434.58 L151.737 1434.58 L151.737 1440.46 L146.853 1440.46 L146.853 1434.58 Z" fill="#000000" fill-rule="nonzero" fill-opacity="1" /><path clip-path="url(#clip410)" d="M171.922 1408.98 Q168.311 1408.98 166.482 1412.54 Q164.677 1416.08 164.677 1423.21 Q164.677 1430.32 166.482 1433.89 Q168.311 1437.43 171.922 1437.43 Q175.556 1437.43 177.362 1433.89 Q179.19 1430.32 179.19 1423.21 Q179.19 1416.08 177.362 1412.54 Q175.556 1408.98 171.922 1408.98 M171.922 1405.27 Q177.732 1405.27 180.788 1409.88 Q183.866 1414.46 183.866 1423.21 Q183.866 1431.94 180.788 1436.55 Q177.732 1441.13 171.922 1441.13 Q166.112 1441.13 163.033 1436.55 Q159.978 1431.94 159.978 1423.21 Q159.978 1414.46 163.033 1409.88 Q166.112 1405.27 171.922 1405.27 Z" fill="#000000" fill-rule="nonzero" fill-opacity="1" /><path clip-path="url(#clip410)" d="M127.917 1084.86 Q124.306 1084.86 122.478 1088.43 Q120.672 1091.97 120.672 1099.1 Q120.672 1106.2 122.478 1109.77 Q124.306 1113.31 127.917 1113.31 Q131.552 1113.31 133.357 1109.77 Q135.186 1106.2 135.186 1099.1 Q135.186 1091.97 133.357 1088.43 Q131.552 1084.86 127.917 1084.86 M127.917 1081.16 Q133.728 1081.16 136.783 1085.76 Q139.862 1090.35 139.862 1099.1 Q139.862 1107.82 136.783 1112.43 Q133.728 1117.01 127.917 1117.01 Q122.107 1117.01 119.029 1112.43 Q115.973 1107.82 115.973 1099.1 Q115.973 1090.35 119.029 1085.76 Q122.107 1081.16 127.917 1081.16 Z" fill="#000000" fill-rule="nonzero" fill-opacity="1" /><path clip-path="url(#clip410)" d="M148.079 1110.46 L152.964 1110.46 L152.964 1116.34 L148.079 1116.34 L148.079 1110.46 Z" fill="#000000" fill-rule="nonzero" fill-opacity="1" /><path clip-path="url(#clip410)" d="M163.959 1112.41 L171.598 1112.41 L171.598 1086.04 L163.288 1087.71 L163.288 1083.45 L171.552 1081.78 L176.227 1081.78 L176.227 1112.41 L183.866 1112.41 L183.866 1116.34 L163.959 1116.34 L163.959 1112.41 Z" fill="#000000" fill-rule="nonzero" fill-opacity="1" /><path clip-path="url(#clip410)" d="M128.288 760.745 Q124.677 760.745 122.848 764.31 Q121.043 767.852 121.043 774.981 Q121.043 782.088 122.848 785.653 Q124.677 789.194 128.288 789.194 Q131.922 789.194 133.728 785.653 Q135.556 782.088 135.556 774.981 Q135.556 767.852 133.728 764.31 Q131.922 760.745 128.288 760.745 M128.288 757.042 Q134.098 757.042 137.154 761.648 Q140.232 766.231 140.232 774.981 Q140.232 783.708 137.154 788.315 Q134.098 792.898 128.288 792.898 Q122.478 792.898 119.399 788.315 Q116.343 783.708 116.343 774.981 Q116.343 766.231 119.399 761.648 Q122.478 757.042 128.288 757.042 Z" fill="#000000" fill-rule="nonzero" fill-opacity="1" /><path clip-path="url(#clip410)" d="M148.45 786.347 L153.334 786.347 L153.334 792.227 L148.45 792.227 L148.45 786.347 Z" fill="#000000" fill-rule="nonzero" fill-opacity="1" /><path clip-path="url(#clip410)" d="M167.547 788.291 L183.866 788.291 L183.866 792.227 L161.922 792.227 L161.922 788.291 Q164.584 785.537 169.167 780.907 Q173.774 776.254 174.954 774.912 Q177.2 772.389 178.079 770.653 Q178.982 768.893 178.982 767.204 Q178.982 764.449 177.038 762.713 Q175.116 760.977 172.014 760.977 Q169.815 760.977 167.362 761.741 Q164.931 762.505 162.153 764.055 L162.153 759.333 Q164.977 758.199 167.431 757.62 Q169.885 757.042 171.922 757.042 Q177.292 757.042 180.487 759.727 Q183.681 762.412 183.681 766.903 Q183.681 769.032 182.871 770.954 Q182.084 772.852 179.977 775.444 Q179.399 776.116 176.297 779.333 Q173.195 782.528 167.547 788.291 Z" fill="#000000" fill-rule="nonzero" fill-opacity="1" /><path clip-path="url(#clip410)" d="M127.339 436.629 Q123.728 436.629 121.899 440.193 Q120.093 443.735 120.093 450.865 Q120.093 457.971 121.899 461.536 Q123.728 465.078 127.339 465.078 Q130.973 465.078 132.779 461.536 Q134.607 457.971 134.607 450.865 Q134.607 443.735 132.779 440.193 Q130.973 436.629 127.339 436.629 M127.339 432.925 Q133.149 432.925 136.204 437.531 Q139.283 442.115 139.283 450.865 Q139.283 459.591 136.204 464.198 Q133.149 468.781 127.339 468.781 Q121.529 468.781 118.45 464.198 Q115.394 459.591 115.394 450.865 Q115.394 442.115 118.45 437.531 Q121.529 432.925 127.339 432.925 Z" fill="#000000" fill-rule="nonzero" fill-opacity="1" /><path clip-path="url(#clip410)" d="M147.501 462.23 L152.385 462.23 L152.385 468.11 L147.501 468.11 L147.501 462.23 Z" fill="#000000" fill-rule="nonzero" fill-opacity="1" /><path clip-path="url(#clip410)" d="M176.737 449.476 Q180.093 450.193 181.968 452.462 Q183.866 454.73 183.866 458.064 Q183.866 463.179 180.348 465.98 Q176.829 468.781 170.348 468.781 Q168.172 468.781 165.857 468.341 Q163.565 467.925 161.112 467.068 L161.112 462.554 Q163.056 463.689 165.371 464.267 Q167.686 464.846 170.209 464.846 Q174.607 464.846 176.899 463.11 Q179.214 461.374 179.214 458.064 Q179.214 455.008 177.061 453.295 Q174.931 451.559 171.112 451.559 L167.084 451.559 L167.084 447.717 L171.297 447.717 Q174.746 447.717 176.575 446.351 Q178.403 444.962 178.403 442.369 Q178.403 439.707 176.505 438.295 Q174.63 436.86 171.112 436.86 Q169.19 436.86 166.991 437.277 Q164.792 437.693 162.153 438.573 L162.153 434.406 Q164.815 433.666 167.13 433.295 Q169.468 432.925 171.528 432.925 Q176.852 432.925 179.954 435.355 Q183.056 437.763 183.056 441.883 Q183.056 444.754 181.413 446.744 Q179.769 448.712 176.737 449.476 Z" fill="#000000" fill-rule="nonzero" fill-opacity="1" /><path clip-path="url(#clip410)" d="M126.205 112.512 Q122.593 112.512 120.765 116.077 Q118.959 119.618 118.959 126.748 Q118.959 133.854 120.765 137.419 Q122.593 140.961 126.205 140.961 Q129.839 140.961 131.644 137.419 Q133.473 133.854 133.473 126.748 Q133.473 119.618 131.644 116.077 Q129.839 112.512 126.205 112.512 M126.205 108.808 Q132.015 108.808 135.07 113.415 Q138.149 117.998 138.149 126.748 Q138.149 135.475 135.07 140.081 Q132.015 144.665 126.205 144.665 Q120.394 144.665 117.316 140.081 Q114.26 135.475 114.26 126.748 Q114.26 117.998 117.316 113.415 Q120.394 108.808 126.205 108.808 Z" fill="#000000" fill-rule="nonzero" fill-opacity="1" /><path clip-path="url(#clip410)" d="M146.366 138.114 L151.251 138.114 L151.251 143.993 L146.366 143.993 L146.366 138.114 Z" fill="#000000" fill-rule="nonzero" fill-opacity="1" /><path clip-path="url(#clip410)" d="M174.283 113.507 L162.477 131.956 L174.283 131.956 L174.283 113.507 M173.056 109.433 L178.936 109.433 L178.936 131.956 L183.866 131.956 L183.866 135.845 L178.936 135.845 L178.936 143.993 L174.283 143.993 L174.283 135.845 L158.681 135.845 L158.681 131.331 L173.056 109.433 Z" fill="#000000" fill-rule="nonzero" fill-opacity="1" /><path clip-path="url(#clip410)" d="M21.7677 886.636 L58.7206 886.636 L58.7206 878.869 Q58.7206 869.034 54.2646 864.483 Q49.8086 859.9 40.1964 859.9 Q30.6479 859.9 26.2237 864.483 Q21.7677 869.034 21.7677 878.869 L21.7677 886.636 M16.4842 893.065 L16.4842 879.856 Q16.4842 866.043 22.2451 859.581 Q27.9743 853.12 40.1964 853.12 Q52.4822 853.12 58.2432 859.613 Q64.0042 866.106 64.0042 879.856 L64.0042 893.065 L16.4842 893.065 Z" fill="#000000" fill-rule="nonzero" fill-opacity="1" /><path clip-path="url(#clip410)" d="M44.7161 812.634 L47.5806 812.634 L47.5806 839.561 Q53.6281 839.179 56.8109 835.933 Q59.9619 832.654 59.9619 826.83 Q59.9619 823.456 59.1344 820.305 Q58.3069 817.122 56.6518 814.003 L62.1899 814.003 Q63.5267 817.154 64.227 820.464 Q64.9272 823.774 64.9272 827.18 Q64.9272 835.71 59.9619 840.707 Q54.9967 845.672 46.5303 845.672 Q37.7774 845.672 32.6531 840.962 Q27.4968 836.219 27.4968 828.198 Q27.4968 821.005 32.1438 816.836 Q36.7589 812.634 44.7161 812.634 M42.9973 818.491 Q38.1912 818.554 35.3266 821.196 Q32.4621 823.806 32.4621 828.135 Q32.4621 833.036 35.2312 835.996 Q38.0002 838.925 43.0292 839.37 L42.9973 818.491 Z" fill="#000000" fill-rule="nonzero" fill-opacity="1" /><path clip-path="url(#clip410)" d="M42.4881 773.39 L64.0042 773.39 L64.0042 779.246 L42.679 779.246 Q37.6183 779.246 35.1038 781.219 Q32.5894 783.193 32.5894 787.14 Q32.5894 791.882 35.6131 794.619 Q38.6368 797.357 43.8567 797.357 L64.0042 797.357 L64.0042 803.245 L28.3562 803.245 L28.3562 797.357 L33.8944 797.357 Q30.6797 795.256 29.0883 792.423 Q27.4968 789.559 27.4968 785.835 Q27.4968 779.692 31.3163 776.541 Q35.1038 773.39 42.4881 773.39 Z" fill="#000000" fill-rule="nonzero" fill-opacity="1" /><path clip-path="url(#clip410)" d="M29.4065 738.983 L34.9447 738.983 Q33.6716 741.466 33.035 744.139 Q32.3984 746.813 32.3984 749.677 Q32.3984 754.038 33.7352 756.234 Q35.072 758.398 37.7456 758.398 Q39.7826 758.398 40.9603 756.839 Q42.1061 755.279 43.1565 750.569 L43.6021 748.563 Q44.9389 742.325 47.3897 739.715 Q49.8086 737.073 54.1691 737.073 Q59.1344 737.073 62.0308 741.02 Q64.9272 744.935 64.9272 751.81 Q64.9272 754.674 64.3543 757.794 Q63.8132 760.881 62.6992 764.319 L56.6518 764.319 Q58.3387 761.072 59.198 757.921 Q60.0256 754.77 60.0256 751.683 Q60.0256 747.545 58.6251 745.317 Q57.1929 743.089 54.6147 743.089 Q52.2276 743.089 50.9545 744.712 Q49.6813 746.304 48.5037 751.746 L48.0262 753.783 Q46.8804 759.226 44.5251 761.645 Q42.138 764.064 38.0002 764.064 Q32.9713 764.064 30.2341 760.499 Q27.4968 756.934 27.4968 750.378 Q27.4968 747.131 27.9743 744.267 Q28.4517 741.402 29.4065 738.983 Z" fill="#000000" fill-rule="nonzero" fill-opacity="1" /><path clip-path="url(#clip410)" d="M28.3562 727.748 L28.3562 721.891 L64.0042 721.891 L64.0042 727.748 L28.3562 727.748 M14.479 727.748 L14.479 721.891 L21.895 721.891 L21.895 727.748 L14.479 727.748 Z" fill="#000000" fill-rule="nonzero" fill-opacity="1" /><path clip-path="url(#clip410)" d="M18.2347 703.844 L28.3562 703.844 L28.3562 691.781 L32.9077 691.781 L32.9077 703.844 L52.2594 703.844 Q56.6199 703.844 57.8613 702.667 Q59.1026 701.457 59.1026 697.797 L59.1026 691.781 L64.0042 691.781 L64.0042 697.797 Q64.0042 704.576 61.4897 707.154 Q58.9434 709.733 52.2594 709.733 L32.9077 709.733 L32.9077 714.029 L28.3562 714.029 L28.3562 709.733 L18.2347 709.733 L18.2347 703.844 Z" fill="#000000" fill-rule="nonzero" fill-opacity="1" /><path clip-path="url(#clip410)" d="M67.3143 669.247 Q73.68 671.729 75.6216 674.085 Q77.5631 676.44 77.5631 680.387 L77.5631 685.065 L72.6615 685.065 L72.6615 681.628 Q72.6615 679.209 71.5157 677.872 Q70.3699 676.535 66.1048 674.912 L63.4312 673.862 L28.3562 688.28 L28.3562 682.074 L56.238 670.934 L28.3562 659.794 L28.3562 653.587 L67.3143 669.247 Z" fill="#000000" fill-rule="nonzero" fill-opacity="1" /><path clip-path="url(#clip410)" d="M551.396 12.096 L559.579 12.096 L559.579 36.8875 L589.313 36.8875 L589.313 12.096 L597.495 12.096 L597.495 72.576 L589.313 72.576 L589.313 43.7741 L559.579 43.7741 L559.579 72.576 L551.396 72.576 L551.396 12.096 Z" fill="#000000" fill-rule="nonzero" fill-opacity="1" /><path clip-path="url(#clip410)" d="M613.456 27.2059 L620.91 27.2059 L620.91 72.576 L613.456 72.576 L613.456 27.2059 M613.456 9.54393 L620.91 9.54393 L620.91 18.9825 L613.456 18.9825 L613.456 9.54393 Z" fill="#000000" fill-rule="nonzero" fill-opacity="1" /><path clip-path="url(#clip410)" d="M665.429 28.5427 L665.429 35.5912 Q662.269 33.9709 658.867 33.1607 Q655.464 32.3505 651.818 32.3505 Q646.268 32.3505 643.473 34.0519 Q640.718 35.7533 640.718 39.156 Q640.718 41.7486 642.703 43.2475 Q644.688 44.7058 650.684 46.0426 L653.236 46.6097 Q661.176 48.3111 664.497 51.4303 Q667.86 54.509 667.86 60.0587 Q667.86 66.3781 662.836 70.0644 Q657.854 73.7508 649.104 73.7508 Q645.458 73.7508 641.488 73.0216 Q637.559 72.3329 633.184 70.9151 L633.184 63.2184 Q637.316 65.3654 641.326 66.4591 Q645.337 67.5124 649.266 67.5124 Q654.532 67.5124 657.368 65.73 Q660.203 63.9071 660.203 60.6258 Q660.203 57.5877 658.137 55.9673 Q656.112 54.3469 649.185 52.8481 L646.592 52.2405 Q639.665 50.7821 636.587 47.7845 Q633.508 44.7463 633.508 39.4801 Q633.508 33.0797 638.045 29.5959 Q642.582 26.1121 650.927 26.1121 Q655.059 26.1121 658.704 26.7198 Q662.35 27.3274 665.429 28.5427 Z" fill="#000000" fill-rule="nonzero" fill-opacity="1" /><path clip-path="url(#clip410)" d="M687.101 14.324 L687.101 27.2059 L702.454 27.2059 L702.454 32.9987 L687.101 32.9987 L687.101 57.6282 Q687.101 63.1779 688.6 64.7578 Q690.14 66.3376 694.798 66.3376 L702.454 66.3376 L702.454 72.576 L694.798 72.576 Q686.17 72.576 682.888 69.3758 Q679.607 66.1351 679.607 57.6282 L679.607 32.9987 L674.138 32.9987 L674.138 27.2059 L679.607 27.2059 L679.607 14.324 L687.101 14.324 Z" fill="#000000" fill-rule="nonzero" fill-opacity="1" /><path clip-path="url(#clip410)" d="M729.838 32.4315 Q723.843 32.4315 720.359 37.1306 Q716.875 41.7891 716.875 49.9314 Q716.875 58.0738 720.319 62.7728 Q723.803 67.4314 729.838 67.4314 Q735.793 67.4314 739.277 62.7323 Q742.761 58.0333 742.761 49.9314 Q742.761 41.8701 739.277 37.1711 Q735.793 32.4315 729.838 32.4315 M729.838 26.1121 Q739.561 26.1121 745.11 32.4315 Q750.66 38.7509 750.66 49.9314 Q750.66 61.0714 745.11 67.4314 Q739.561 73.7508 729.838 73.7508 Q720.076 73.7508 714.526 67.4314 Q709.017 61.0714 709.017 49.9314 Q709.017 38.7509 714.526 32.4315 Q720.076 26.1121 729.838 26.1121 Z" fill="#000000" fill-rule="nonzero" fill-opacity="1" /><path clip-path="url(#clip410)" d="M792.87 49.3643 Q792.87 41.2625 789.508 36.8065 Q786.186 32.3505 780.151 32.3505 Q774.155 32.3505 770.793 36.8065 Q767.471 41.2625 767.471 49.3643 Q767.471 57.4256 770.793 61.8816 Q774.155 66.3376 780.151 66.3376 Q786.186 66.3376 789.508 61.8816 Q792.87 57.4256 792.87 49.3643 M800.324 66.9452 Q800.324 78.5308 795.179 84.1616 Q790.035 89.8329 779.421 89.8329 Q775.492 89.8329 772.008 89.2252 Q768.525 88.6581 765.243 87.4428 L765.243 80.1917 Q768.525 81.9741 771.725 82.8248 Q774.925 83.6755 778.247 83.6755 Q785.579 83.6755 789.225 79.8271 Q792.87 76.0193 792.87 68.282 L792.87 64.5957 Q790.561 68.6061 786.956 70.5911 Q783.351 72.576 778.328 72.576 Q769.983 72.576 764.879 66.2161 Q759.775 59.8562 759.775 49.3643 Q759.775 38.832 764.879 32.472 Q769.983 26.1121 778.328 26.1121 Q783.351 26.1121 786.956 28.0971 Q790.561 30.082 792.87 34.0924 L792.87 27.2059 L800.324 27.2059 L800.324 66.9452 Z" fill="#000000" fill-rule="nonzero" fill-opacity="1" /><path clip-path="url(#clip410)" d="M841.967 34.1734 Q840.712 33.4443 839.213 33.1202 Q837.754 32.7556 835.972 32.7556 Q829.653 32.7556 826.25 36.8875 Q822.888 40.9789 822.888 48.6757 L822.888 72.576 L815.393 72.576 L815.393 27.2059 L822.888 27.2059 L822.888 34.2544 Q825.237 30.1225 829.005 28.1376 Q832.772 26.1121 838.16 26.1121 Q838.929 26.1121 839.861 26.2337 Q840.793 26.3147 841.927 26.5172 L841.967 34.1734 Z" fill="#000000" fill-rule="nonzero" fill-opacity="1" /><path clip-path="url(#clip410)" d="M870.405 49.7694 Q861.371 49.7694 857.887 51.8354 Q854.404 53.9013 854.404 58.8839 Q854.404 62.8538 856.996 65.2034 Q859.629 67.5124 864.126 67.5124 Q870.324 67.5124 874.051 63.1374 Q877.818 58.7219 877.818 51.4303 L877.818 49.7694 L870.405 49.7694 M885.272 46.6907 L885.272 72.576 L877.818 72.576 L877.818 65.6895 Q875.266 69.8214 871.458 71.8063 Q867.65 73.7508 862.141 73.7508 Q855.173 73.7508 851.041 69.8619 Q846.95 65.9325 846.95 59.3701 Q846.95 51.7138 852.054 47.825 Q857.199 43.9361 867.367 43.9361 L877.818 43.9361 L877.818 43.2069 Q877.818 38.0623 874.415 35.2672 Q871.053 32.4315 864.936 32.4315 Q861.047 32.4315 857.361 33.3632 Q853.675 34.295 850.272 36.1584 L850.272 29.2718 Q854.363 27.692 858.212 26.9223 Q862.06 26.1121 865.706 26.1121 Q875.549 26.1121 880.41 31.2163 Q885.272 36.3204 885.272 46.6907 Z" fill="#000000" fill-rule="nonzero" fill-opacity="1" /><path clip-path="url(#clip410)" d="M935.948 35.9153 Q938.744 30.8922 942.632 28.5022 Q946.521 26.1121 951.787 26.1121 Q958.876 26.1121 962.725 31.0947 Q966.573 36.0368 966.573 45.1919 L966.573 72.576 L959.079 72.576 L959.079 45.4349 Q959.079 38.913 956.77 35.7533 Q954.461 32.5936 949.721 32.5936 Q943.929 32.5936 940.566 36.4419 Q937.204 40.2903 937.204 46.9338 L937.204 72.576 L929.71 72.576 L929.71 45.4349 Q929.71 38.8725 927.401 35.7533 Q925.092 32.5936 920.271 32.5936 Q914.56 32.5936 911.197 36.4824 Q907.835 40.3308 907.835 46.9338 L907.835 72.576 L900.341 72.576 L900.341 27.2059 L907.835 27.2059 L907.835 34.2544 Q910.387 30.082 913.952 28.0971 Q917.517 26.1121 922.418 26.1121 Q927.36 26.1121 930.804 28.6237 Q934.288 31.1352 935.948 35.9153 Z" fill="#000000" fill-rule="nonzero" fill-opacity="1" /><path clip-path="url(#clip410)" d="M1028.43 49.7694 Q1019.4 49.7694 1015.91 51.8354 Q1012.43 53.9013 1012.43 58.8839 Q1012.43 62.8538 1015.02 65.2034 Q1017.66 67.5124 1022.15 67.5124 Q1028.35 67.5124 1032.08 63.1374 Q1035.84 58.7219 1035.84 51.4303 L1035.84 49.7694 L1028.43 49.7694 M1043.3 46.6907 L1043.3 72.576 L1035.84 72.576 L1035.84 65.6895 Q1033.29 69.8214 1029.48 71.8063 Q1025.68 73.7508 1020.17 73.7508 Q1013.2 73.7508 1009.07 69.8619 Q1004.98 65.9325 1004.98 59.3701 Q1004.98 51.7138 1010.08 47.825 Q1015.22 43.9361 1025.39 43.9361 L1035.84 43.9361 L1035.84 43.2069 Q1035.84 38.0623 1032.44 35.2672 Q1029.08 32.4315 1022.96 32.4315 Q1019.07 32.4315 1015.39 33.3632 Q1011.7 34.295 1008.3 36.1584 L1008.3 29.2718 Q1012.39 27.692 1016.24 26.9223 Q1020.09 26.1121 1023.73 26.1121 Q1033.58 26.1121 1038.44 31.2163 Q1043.3 36.3204 1043.3 46.6907 Z" fill="#000000" fill-rule="nonzero" fill-opacity="1" /><path clip-path="url(#clip410)" d="M1096.36 45.1919 L1096.36 72.576 L1088.91 72.576 L1088.91 45.4349 Q1088.91 38.994 1086.4 35.7938 Q1083.89 32.5936 1078.86 32.5936 Q1072.83 32.5936 1069.34 36.4419 Q1065.86 40.2903 1065.86 46.9338 L1065.86 72.576 L1058.37 72.576 L1058.37 27.2059 L1065.86 27.2059 L1065.86 34.2544 Q1068.53 30.163 1072.14 28.1376 Q1075.79 26.1121 1080.53 26.1121 Q1088.34 26.1121 1092.35 30.9732 Q1096.36 35.7938 1096.36 45.1919 Z" fill="#000000" fill-rule="nonzero" fill-opacity="1" /><path clip-path="url(#clip410)" d="M1141.09 34.0924 L1141.09 9.54393 L1148.54 9.54393 L1148.54 72.576 L1141.09 72.576 L1141.09 65.7705 Q1138.74 69.8214 1135.13 71.8063 Q1131.57 73.7508 1126.54 73.7508 Q1118.32 73.7508 1113.13 67.1883 Q1107.99 60.6258 1107.99 49.9314 Q1107.99 39.2371 1113.13 32.6746 Q1118.32 26.1121 1126.54 26.1121 Q1131.57 26.1121 1135.13 28.0971 Q1138.74 30.0415 1141.09 34.0924 M1115.69 49.9314 Q1115.69 58.1548 1119.05 62.8538 Q1122.45 67.5124 1128.37 67.5124 Q1134.28 67.5124 1137.68 62.8538 Q1141.09 58.1548 1141.09 49.9314 Q1141.09 41.7081 1137.68 37.0496 Q1134.28 32.3505 1128.37 32.3505 Q1122.45 32.3505 1119.05 37.0496 Q1115.69 41.7081 1115.69 49.9314 Z" fill="#000000" fill-rule="nonzero" fill-opacity="1" /><path clip-path="url(#clip410)" d="M1190.59 12.096 L1198.77 12.096 L1198.77 37.6572 L1225.91 12.096 L1236.44 12.096 L1206.43 40.2903 L1238.59 72.576 L1227.82 72.576 L1198.77 43.45 L1198.77 72.576 L1190.59 72.576 L1190.59 12.096 Z" fill="#000000" fill-rule="nonzero" fill-opacity="1" /><path clip-path="url(#clip410)" d="M1253.17 18.8205 L1253.17 65.8515 L1263.06 65.8515 Q1275.58 65.8515 1281.37 60.1802 Q1287.2 54.509 1287.2 42.2752 Q1287.2 30.1225 1281.37 24.4918 Q1275.58 18.8205 1263.06 18.8205 L1253.17 18.8205 M1244.99 12.096 L1261.8 12.096 Q1279.38 12.096 1287.61 19.4281 Q1295.83 26.7198 1295.83 42.2752 Q1295.83 57.9117 1287.57 65.2439 Q1279.3 72.576 1261.8 72.576 L1244.99 72.576 L1244.99 12.096 Z" fill="#000000" fill-rule="nonzero" fill-opacity="1" /><path clip-path="url(#clip410)" d="M1308.87 12.096 L1347.12 12.096 L1347.12 18.9825 L1317.06 18.9825 L1317.06 36.8875 L1345.86 36.8875 L1345.86 43.7741 L1317.06 43.7741 L1317.06 65.6895 L1347.84 65.6895 L1347.84 72.576 L1308.87 72.576 L1308.87 12.096 Z" fill="#000000" fill-rule="nonzero" fill-opacity="1" /><path clip-path="url(#clip410)" d="M1410.31 9.54393 L1410.31 15.7418 L1403.18 15.7418 Q1399.17 15.7418 1397.59 17.3622 Q1396.05 18.9825 1396.05 23.1955 L1396.05 27.2059 L1408.32 27.2059 L1408.32 32.9987 L1396.05 32.9987 L1396.05 72.576 L1388.56 72.576 L1388.56 32.9987 L1381.43 32.9987 L1381.43 27.2059 L1388.56 27.2059 L1388.56 24.0462 Q1388.56 16.471 1392.08 13.0277 Q1395.6 9.54393 1403.26 9.54393 L1410.31 9.54393 Z" fill="#000000" fill-rule="nonzero" fill-opacity="1" /><path clip-path="url(#clip410)" d="M1434.13 32.4315 Q1428.13 32.4315 1424.65 37.1306 Q1421.17 41.7891 1421.17 49.9314 Q1421.17 58.0738 1424.61 62.7728 Q1428.09 67.4314 1434.13 67.4314 Q1440.08 67.4314 1443.57 62.7323 Q1447.05 58.0333 1447.05 49.9314 Q1447.05 41.8701 1443.57 37.1711 Q1440.08 32.4315 1434.13 32.4315 M1434.13 26.1121 Q1443.85 26.1121 1449.4 32.4315 Q1454.95 38.7509 1454.95 49.9314 Q1454.95 61.0714 1449.4 67.4314 Q1443.85 73.7508 1434.13 73.7508 Q1424.37 73.7508 1418.82 67.4314 Q1413.31 61.0714 1413.31 49.9314 Q1413.31 38.7509 1418.82 32.4315 Q1424.37 26.1121 1434.13 26.1121 Z" fill="#000000" fill-rule="nonzero" fill-opacity="1" /><path clip-path="url(#clip410)" d="M1493.6 34.1734 Q1492.34 33.4443 1490.84 33.1202 Q1489.38 32.7556 1487.6 32.7556 Q1481.28 32.7556 1477.88 36.8875 Q1474.52 40.9789 1474.52 48.6757 L1474.52 72.576 L1467.02 72.576 L1467.02 27.2059 L1474.52 27.2059 L1474.52 34.2544 Q1476.87 30.1225 1480.63 28.1376 Q1484.4 26.1121 1489.79 26.1121 Q1490.56 26.1121 1491.49 26.2337 Q1492.42 26.3147 1493.56 26.5172 L1493.6 34.1734 Z" fill="#000000" fill-rule="nonzero" fill-opacity="1" /><path clip-path="url(#clip410)" d="M1557.64 34.0924 L1557.64 9.54393 L1565.09 9.54393 L1565.09 72.576 L1557.64 72.576 L1557.64 65.7705 Q1555.29 69.8214 1551.69 71.8063 Q1548.12 73.7508 1543.1 73.7508 Q1534.87 73.7508 1529.69 67.1883 Q1524.54 60.6258 1524.54 49.9314 Q1524.54 39.2371 1529.69 32.6746 Q1534.87 26.1121 1543.1 26.1121 Q1548.12 26.1121 1551.69 28.0971 Q1555.29 30.0415 1557.64 34.0924 M1532.24 49.9314 Q1532.24 58.1548 1535.6 62.8538 Q1539.01 67.5124 1544.92 67.5124 Q1550.84 67.5124 1554.24 62.8538 Q1557.64 58.1548 1557.64 49.9314 Q1557.64 41.7081 1554.24 37.0496 Q1550.84 32.3505 1544.92 32.3505 Q1539.01 32.3505 1535.6 37.0496 Q1532.24 41.7081 1532.24 49.9314 Z" fill="#000000" fill-rule="nonzero" fill-opacity="1" /><path clip-path="url(#clip410)" d="M1580.45 27.2059 L1587.9 27.2059 L1587.9 72.576 L1580.45 72.576 L1580.45 27.2059 M1580.45 9.54393 L1587.9 9.54393 L1587.9 18.9825 L1580.45 18.9825 L1580.45 9.54393 Z" fill="#000000" fill-rule="nonzero" fill-opacity="1" /><path clip-path="url(#clip410)" d="M1638.82 35.9153 Q1641.62 30.8922 1645.5 28.5022 Q1649.39 26.1121 1654.66 26.1121 Q1661.75 26.1121 1665.6 31.0947 Q1669.45 36.0368 1669.45 45.1919 L1669.45 72.576 L1661.95 72.576 L1661.95 45.4349 Q1661.95 38.913 1659.64 35.7533 Q1657.33 32.5936 1652.59 32.5936 Q1646.8 32.5936 1643.44 36.4419 Q1640.08 40.2903 1640.08 46.9338 L1640.08 72.576 L1632.58 72.576 L1632.58 45.4349 Q1632.58 38.8725 1630.27 35.7533 Q1627.96 32.5936 1623.14 32.5936 Q1617.43 32.5936 1614.07 36.4824 Q1610.71 40.3308 1610.71 46.9338 L1610.71 72.576 L1603.21 72.576 L1603.21 27.2059 L1610.71 27.2059 L1610.71 34.2544 Q1613.26 30.082 1616.82 28.0971 Q1620.39 26.1121 1625.29 26.1121 Q1630.23 26.1121 1633.68 28.6237 Q1637.16 31.1352 1638.82 35.9153 Z" fill="#000000" fill-rule="nonzero" fill-opacity="1" /><path clip-path="url(#clip410)" d="M1723.12 48.0275 L1723.12 51.6733 L1688.85 51.6733 Q1689.34 59.3701 1693.47 63.421 Q1697.64 67.4314 1705.05 67.4314 Q1709.35 67.4314 1713.36 66.3781 Q1717.41 65.3249 1721.38 63.2184 L1721.38 70.267 Q1717.37 71.9684 1713.15 72.8596 Q1708.94 73.7508 1704.61 73.7508 Q1693.75 73.7508 1687.39 67.4314 Q1681.07 61.1119 1681.07 50.3365 Q1681.07 39.1965 1687.07 32.6746 Q1693.1 26.1121 1703.31 26.1121 Q1712.47 26.1121 1717.77 32.0264 Q1723.12 37.9003 1723.12 48.0275 M1715.67 45.84 Q1715.59 39.7232 1712.22 36.0774 Q1708.9 32.4315 1703.39 32.4315 Q1697.15 32.4315 1693.39 35.9558 Q1689.66 39.4801 1689.09 45.8805 L1715.67 45.84 Z" fill="#000000" fill-rule="nonzero" fill-opacity="1" /><path clip-path="url(#clip410)" d="M1773.07 45.1919 L1773.07 72.576 L1765.61 72.576 L1765.61 45.4349 Q1765.61 38.994 1763.1 35.7938 Q1760.59 32.5936 1755.57 32.5936 Q1749.53 32.5936 1746.05 36.4419 Q1742.56 40.2903 1742.56 46.9338 L1742.56 72.576 L1735.07 72.576 L1735.07 27.2059 L1742.56 27.2059 L1742.56 34.2544 Q1745.24 30.163 1748.84 28.1376 Q1752.49 26.1121 1757.23 26.1121 Q1765.05 26.1121 1769.06 30.9732 Q1773.07 35.7938 1773.07 45.1919 Z" fill="#000000" fill-rule="nonzero" fill-opacity="1" /><path clip-path="url(#clip410)" d="M1816.86 28.5427 L1816.86 35.5912 Q1813.7 33.9709 1810.3 33.1607 Q1806.89 32.3505 1803.25 32.3505 Q1797.7 32.3505 1794.9 34.0519 Q1792.15 35.7533 1792.15 39.156 Q1792.15 41.7486 1794.13 43.2475 Q1796.12 44.7058 1802.11 46.0426 L1804.66 46.6097 Q1812.6 48.3111 1815.93 51.4303 Q1819.29 54.509 1819.29 60.0587 Q1819.29 66.3781 1814.27 70.0644 Q1809.28 73.7508 1800.53 73.7508 Q1796.89 73.7508 1792.92 73.0216 Q1788.99 72.3329 1784.61 70.9151 L1784.61 63.2184 Q1788.74 65.3654 1792.76 66.4591 Q1796.77 67.5124 1800.69 67.5124 Q1805.96 67.5124 1808.8 65.73 Q1811.63 63.9071 1811.63 60.6258 Q1811.63 57.5877 1809.57 55.9673 Q1807.54 54.3469 1800.61 52.8481 L1798.02 52.2405 Q1791.09 50.7821 1788.02 47.7845 Q1784.94 44.7463 1784.94 39.4801 Q1784.94 33.0797 1789.47 29.5959 Q1794.01 26.1121 1802.36 26.1121 Q1806.49 26.1121 1810.13 26.7198 Q1813.78 27.3274 1816.86 28.5427 Z" fill="#000000" fill-rule="nonzero" fill-opacity="1" /><path clip-path="url(#clip410)" d="M1831.16 27.2059 L1838.61 27.2059 L1838.61 72.576 L1831.16 72.576 L1831.16 27.2059 M1831.16 9.54393 L1838.61 9.54393 L1838.61 18.9825 L1831.16 18.9825 L1831.16 9.54393 Z" fill="#000000" fill-rule="nonzero" fill-opacity="1" /><path clip-path="url(#clip410)" d="M1871.79 32.4315 Q1865.79 32.4315 1862.31 37.1306 Q1858.83 41.7891 1858.83 49.9314 Q1858.83 58.0738 1862.27 62.7728 Q1865.75 67.4314 1871.79 67.4314 Q1877.74 67.4314 1881.23 62.7323 Q1884.71 58.0333 1884.71 49.9314 Q1884.71 41.8701 1881.23 37.1711 Q1877.74 32.4315 1871.79 32.4315 M1871.79 26.1121 Q1881.51 26.1121 1887.06 32.4315 Q1892.61 38.7509 1892.61 49.9314 Q1892.61 61.0714 1887.06 67.4314 Q1881.51 73.7508 1871.79 73.7508 Q1862.03 73.7508 1856.48 67.4314 Q1850.97 61.0714 1850.97 49.9314 Q1850.97 38.7509 1856.48 32.4315 Q1862.03 26.1121 1871.79 26.1121 Z" fill="#000000" fill-rule="nonzero" fill-opacity="1" /><path clip-path="url(#clip410)" d="M1942.68 45.1919 L1942.68 72.576 L1935.23 72.576 L1935.23 45.4349 Q1935.23 38.994 1932.71 35.7938 Q1930.2 32.5936 1925.18 32.5936 Q1919.14 32.5936 1915.66 36.4419 Q1912.18 40.2903 1912.18 46.9338 L1912.18 72.576 L1904.68 72.576 L1904.68 27.2059 L1912.18 27.2059 L1912.18 34.2544 Q1914.85 30.163 1918.45 28.1376 Q1922.1 26.1121 1926.84 26.1121 Q1934.66 26.1121 1938.67 30.9732 Q1942.68 35.7938 1942.68 45.1919 Z" fill="#000000" fill-rule="nonzero" fill-opacity="1" /><path clip-path="url(#clip410)" d="M1986.39 65.6895 L1999.76 65.6895 L1999.76 19.5497 L1985.21 22.4663 L1985.21 15.0127 L1999.68 12.096 L2007.86 12.096 L2007.86 65.6895 L2021.23 65.6895 L2021.23 72.576 L1986.39 72.576 L1986.39 65.6895 Z" fill="#000000" fill-rule="nonzero" fill-opacity="1" /><path clip-path="url(#clip412)" d="M399.413 1418.32 L399.413 1423.18 L446.28 1423.18 L446.28 1418.32 L399.413 1418.32 L399.413 1418.32  Z" fill="#78c2ad" fill-rule="evenodd" fill-opacity="0.7"/>
<polyline clip-path="url(#clip412)" style="stroke:#000000; stroke-linecap:round; stroke-linejoin:round; stroke-width:4; stroke-opacity:0.7; fill:none" points="399.413,1418.32 399.413,1423.18 446.28,1423.18 446.28,1418.32 399.413,1418.32 "/>
<path clip-path="url(#clip412)" d="M446.28 1419.94 L446.28 1423.18 L493.148 1423.18 L493.148 1419.94 L446.28 1419.94 L446.28 1419.94  Z" fill="#78c2ad" fill-rule="evenodd" fill-opacity="0.7"/>
<polyline clip-path="url(#clip412)" style="stroke:#000000; stroke-linecap:round; stroke-linejoin:round; stroke-width:4; stroke-opacity:0.7; fill:none" points="446.28,1419.94 446.28,1423.18 493.148,1423.18 493.148,1419.94 446.28,1419.94 "/>
<path clip-path="url(#clip412)" d="M493.148 1416.7 L493.148 1423.18 L540.015 1423.18 L540.015 1416.7 L493.148 1416.7 L493.148 1416.7  Z" fill="#78c2ad" fill-rule="evenodd" fill-opacity="0.7"/>
<polyline clip-path="url(#clip412)" style="stroke:#000000; stroke-linecap:round; stroke-linejoin:round; stroke-width:4; stroke-opacity:0.7; fill:none" points="493.148,1416.7 493.148,1423.18 540.015,1423.18 540.015,1416.7 493.148,1416.7 "/>
<path clip-path="url(#clip412)" d="M540.015 1405.35 L540.015 1423.18 L586.883 1423.18 L586.883 1405.35 L540.015 1405.35 L540.015 1405.35  Z" fill="#78c2ad" fill-rule="evenodd" fill-opacity="0.7"/>
<polyline clip-path="url(#clip412)" style="stroke:#000000; stroke-linecap:round; stroke-linejoin:round; stroke-width:4; stroke-opacity:0.7; fill:none" points="540.015,1405.35 540.015,1423.18 586.883,1423.18 586.883,1405.35 540.015,1405.35 "/>
<path clip-path="url(#clip412)" d="M586.883 1389.15 L586.883 1423.18 L633.75 1423.18 L633.75 1389.15 L586.883 1389.15 L586.883 1389.15  Z" fill="#78c2ad" fill-rule="evenodd" fill-opacity="0.7"/>
<polyline clip-path="url(#clip412)" style="stroke:#000000; stroke-linecap:round; stroke-linejoin:round; stroke-width:4; stroke-opacity:0.7; fill:none" points="586.883,1389.15 586.883,1423.18 633.75,1423.18 633.75,1389.15 586.883,1389.15 "/>
<path clip-path="url(#clip412)" d="M633.75 1387.53 L633.75 1423.18 L680.617 1423.18 L680.617 1387.53 L633.75 1387.53 L633.75 1387.53  Z" fill="#78c2ad" fill-rule="evenodd" fill-opacity="0.7"/>
<polyline clip-path="url(#clip412)" style="stroke:#000000; stroke-linecap:round; stroke-linejoin:round; stroke-width:4; stroke-opacity:0.7; fill:none" points="633.75,1387.53 633.75,1423.18 680.617,1423.18 680.617,1387.53 633.75,1387.53 "/>
<path clip-path="url(#clip412)" d="M680.617 1329.19 L680.617 1423.18 L727.485 1423.18 L727.485 1329.19 L680.617 1329.19 L680.617 1329.19  Z" fill="#78c2ad" fill-rule="evenodd" fill-opacity="0.7"/>
<polyline clip-path="url(#clip412)" style="stroke:#000000; stroke-linecap:round; stroke-linejoin:round; stroke-width:4; stroke-opacity:0.7; fill:none" points="680.617,1329.19 680.617,1423.18 727.485,1423.18 727.485,1329.19 680.617,1329.19 "/>
<path clip-path="url(#clip412)" d="M727.485 1335.67 L727.485 1423.18 L774.352 1423.18 L774.352 1335.67 L727.485 1335.67 L727.485 1335.67  Z" fill="#78c2ad" fill-rule="evenodd" fill-opacity="0.7"/>
<polyline clip-path="url(#clip412)" style="stroke:#000000; stroke-linecap:round; stroke-linejoin:round; stroke-width:4; stroke-opacity:0.7; fill:none" points="727.485,1335.67 727.485,1423.18 774.352,1423.18 774.352,1335.67 727.485,1335.67 "/>
<path clip-path="url(#clip412)" d="M774.352 1267.6 L774.352 1423.18 L821.22 1423.18 L821.22 1267.6 L774.352 1267.6 L774.352 1267.6  Z" fill="#78c2ad" fill-rule="evenodd" fill-opacity="0.7"/>
<polyline clip-path="url(#clip412)" style="stroke:#000000; stroke-linecap:round; stroke-linejoin:round; stroke-width:4; stroke-opacity:0.7; fill:none" points="774.352,1267.6 774.352,1423.18 821.22,1423.18 821.22,1267.6 774.352,1267.6 "/>
<path clip-path="url(#clip412)" d="M821.22 1220.61 L821.22 1423.18 L868.087 1423.18 L868.087 1220.61 L821.22 1220.61 L821.22 1220.61  Z" fill="#78c2ad" fill-rule="evenodd" fill-opacity="0.7"/>
<polyline clip-path="url(#clip412)" style="stroke:#000000; stroke-linecap:round; stroke-linejoin:round; stroke-width:4; stroke-opacity:0.7; fill:none" points="821.22,1220.61 821.22,1423.18 868.087,1423.18 868.087,1220.61 821.22,1220.61 "/>
<path clip-path="url(#clip412)" d="M868.087 1052.07 L868.087 1423.18 L914.954 1423.18 L914.954 1052.07 L868.087 1052.07 L868.087 1052.07  Z" fill="#78c2ad" fill-rule="evenodd" fill-opacity="0.7"/>
<polyline clip-path="url(#clip412)" style="stroke:#000000; stroke-linecap:round; stroke-linejoin:round; stroke-width:4; stroke-opacity:0.7; fill:none" points="868.087,1052.07 868.087,1423.18 914.954,1423.18 914.954,1052.07 868.087,1052.07 "/>
<path clip-path="url(#clip412)" d="M914.954 987.243 L914.954 1423.18 L961.822 1423.18 L961.822 987.243 L914.954 987.243 L914.954 987.243  Z" fill="#78c2ad" fill-rule="evenodd" fill-opacity="0.7"/>
<polyline clip-path="url(#clip412)" style="stroke:#000000; stroke-linecap:round; stroke-linejoin:round; stroke-width:4; stroke-opacity:0.7; fill:none" points="914.954,987.243 914.954,1423.18 961.822,1423.18 961.822,987.243 914.954,987.243 "/>
<path clip-path="url(#clip412)" d="M961.822 825.185 L961.822 1423.18 L1008.69 1423.18 L1008.69 825.185 L961.822 825.185 L961.822 825.185  Z" fill="#78c2ad" fill-rule="evenodd" fill-opacity="0.7"/>
<polyline clip-path="url(#clip412)" style="stroke:#000000; stroke-linecap:round; stroke-linejoin:round; stroke-width:4; stroke-opacity:0.7; fill:none" points="961.822,825.185 961.822,1423.18 1008.69,1423.18 1008.69,825.185 961.822,825.185 "/>
<path clip-path="url(#clip412)" d="M1008.69 771.705 L1008.69 1423.18 L1055.56 1423.18 L1055.56 771.705 L1008.69 771.705 L1008.69 771.705  Z" fill="#78c2ad" fill-rule="evenodd" fill-opacity="0.7"/>
<polyline clip-path="url(#clip412)" style="stroke:#000000; stroke-linecap:round; stroke-linejoin:round; stroke-width:4; stroke-opacity:0.7; fill:none" points="1008.69,771.705 1008.69,1423.18 1055.56,1423.18 1055.56,771.705 1008.69,771.705 "/>
<path clip-path="url(#clip412)" d="M1055.56 588.58 L1055.56 1423.18 L1102.42 1423.18 L1102.42 588.58 L1055.56 588.58 L1055.56 588.58  Z" fill="#78c2ad" fill-rule="evenodd" fill-opacity="0.7"/>
<polyline clip-path="url(#clip412)" style="stroke:#000000; stroke-linecap:round; stroke-linejoin:round; stroke-width:4; stroke-opacity:0.7; fill:none" points="1055.56,588.58 1055.56,1423.18 1102.42,1423.18 1102.42,588.58 1055.56,588.58 "/>
<path clip-path="url(#clip412)" d="M1102.42 501.068 L1102.42 1423.18 L1149.29 1423.18 L1149.29 501.068 L1102.42 501.068 L1102.42 501.068  Z" fill="#78c2ad" fill-rule="evenodd" fill-opacity="0.7"/>
<polyline clip-path="url(#clip412)" style="stroke:#000000; stroke-linecap:round; stroke-linejoin:round; stroke-width:4; stroke-opacity:0.7; fill:none" points="1102.42,501.068 1102.42,1423.18 1149.29,1423.18 1149.29,501.068 1102.42,501.068 "/>
<path clip-path="url(#clip412)" d="M1149.29 335.769 L1149.29 1423.18 L1196.16 1423.18 L1196.16 335.769 L1149.29 335.769 L1149.29 335.769  Z" fill="#78c2ad" fill-rule="evenodd" fill-opacity="0.7"/>
<polyline clip-path="url(#clip412)" style="stroke:#000000; stroke-linecap:round; stroke-linejoin:round; stroke-width:4; stroke-opacity:0.7; fill:none" points="1149.29,335.769 1149.29,1423.18 1196.16,1423.18 1196.16,335.769 1149.29,335.769 "/>
<path clip-path="url(#clip412)" d="M1196.16 165.607 L1196.16 1423.18 L1243.03 1423.18 L1243.03 165.607 L1196.16 165.607 L1196.16 165.607  Z" fill="#78c2ad" fill-rule="evenodd" fill-opacity="0.7"/>
<polyline clip-path="url(#clip412)" style="stroke:#000000; stroke-linecap:round; stroke-linejoin:round; stroke-width:4; stroke-opacity:0.7; fill:none" points="1196.16,165.607 1196.16,1423.18 1243.03,1423.18 1243.03,165.607 1196.16,165.607 "/>
<path clip-path="url(#clip412)" d="M1243.03 123.472 L1243.03 1423.18 L1289.89 1423.18 L1289.89 123.472 L1243.03 123.472 L1243.03 123.472  Z" fill="#78c2ad" fill-rule="evenodd" fill-opacity="0.7"/>
<polyline clip-path="url(#clip412)" style="stroke:#000000; stroke-linecap:round; stroke-linejoin:round; stroke-width:4; stroke-opacity:0.7; fill:none" points="1243.03,123.472 1243.03,1423.18 1289.89,1423.18 1289.89,123.472 1243.03,123.472 "/>
<path clip-path="url(#clip412)" d="M1289.89 139.678 L1289.89 1423.18 L1336.76 1423.18 L1336.76 139.678 L1289.89 139.678 L1289.89 139.678  Z" fill="#78c2ad" fill-rule="evenodd" fill-opacity="0.7"/>
<polyline clip-path="url(#clip412)" style="stroke:#000000; stroke-linecap:round; stroke-linejoin:round; stroke-width:4; stroke-opacity:0.7; fill:none" points="1289.89,139.678 1289.89,1423.18 1336.76,1423.18 1336.76,139.678 1289.89,139.678 "/>
<path clip-path="url(#clip412)" d="M1336.76 186.675 L1336.76 1423.18 L1383.63 1423.18 L1383.63 186.675 L1336.76 186.675 L1336.76 186.675  Z" fill="#78c2ad" fill-rule="evenodd" fill-opacity="0.7"/>
<polyline clip-path="url(#clip412)" style="stroke:#000000; stroke-linecap:round; stroke-linejoin:round; stroke-width:4; stroke-opacity:0.7; fill:none" points="1336.76,186.675 1336.76,1423.18 1383.63,1423.18 1383.63,186.675 1336.76,186.675 "/>
<path clip-path="url(#clip412)" d="M1383.63 317.942 L1383.63 1423.18 L1430.5 1423.18 L1430.5 317.942 L1383.63 317.942 L1383.63 317.942  Z" fill="#78c2ad" fill-rule="evenodd" fill-opacity="0.7"/>
<polyline clip-path="url(#clip412)" style="stroke:#000000; stroke-linecap:round; stroke-linejoin:round; stroke-width:4; stroke-opacity:0.7; fill:none" points="1383.63,317.942 1383.63,1423.18 1430.5,1423.18 1430.5,317.942 1383.63,317.942 "/>
<path clip-path="url(#clip412)" d="M1430.5 483.242 L1430.5 1423.18 L1477.36 1423.18 L1477.36 483.242 L1430.5 483.242 L1430.5 483.242  Z" fill="#78c2ad" fill-rule="evenodd" fill-opacity="0.7"/>
<polyline clip-path="url(#clip412)" style="stroke:#000000; stroke-linecap:round; stroke-linejoin:round; stroke-width:4; stroke-opacity:0.7; fill:none" points="1430.5,483.242 1430.5,1423.18 1477.36,1423.18 1477.36,483.242 1430.5,483.242 "/>
<path clip-path="url(#clip412)" d="M1477.36 624.232 L1477.36 1423.18 L1524.23 1423.18 L1524.23 624.232 L1477.36 624.232 L1477.36 624.232  Z" fill="#78c2ad" fill-rule="evenodd" fill-opacity="0.7"/>
<polyline clip-path="url(#clip412)" style="stroke:#000000; stroke-linecap:round; stroke-linejoin:round; stroke-width:4; stroke-opacity:0.7; fill:none" points="1477.36,624.232 1477.36,1423.18 1524.23,1423.18 1524.23,624.232 1477.36,624.232 "/>
<path clip-path="url(#clip412)" d="M1524.23 727.95 L1524.23 1423.18 L1571.1 1423.18 L1571.1 727.95 L1524.23 727.95 L1524.23 727.95  Z" fill="#78c2ad" fill-rule="evenodd" fill-opacity="0.7"/>
<polyline clip-path="url(#clip412)" style="stroke:#000000; stroke-linecap:round; stroke-linejoin:round; stroke-width:4; stroke-opacity:0.7; fill:none" points="1524.23,727.95 1524.23,1423.18 1571.1,1423.18 1571.1,727.95 1524.23,727.95 "/>
<path clip-path="url(#clip412)" d="M1571.1 859.217 L1571.1 1423.18 L1617.97 1423.18 L1617.97 859.217 L1571.1 859.217 L1571.1 859.217  Z" fill="#78c2ad" fill-rule="evenodd" fill-opacity="0.7"/>
<polyline clip-path="url(#clip412)" style="stroke:#000000; stroke-linecap:round; stroke-linejoin:round; stroke-width:4; stroke-opacity:0.7; fill:none" points="1571.1,859.217 1571.1,1423.18 1617.97,1423.18 1617.97,859.217 1571.1,859.217 "/>
<path clip-path="url(#clip412)" d="M1617.97 959.693 L1617.97 1423.18 L1664.83 1423.18 L1664.83 959.693 L1617.97 959.693 L1617.97 959.693  Z" fill="#78c2ad" fill-rule="evenodd" fill-opacity="0.7"/>
<polyline clip-path="url(#clip412)" style="stroke:#000000; stroke-linecap:round; stroke-linejoin:round; stroke-width:4; stroke-opacity:0.7; fill:none" points="1617.97,959.693 1617.97,1423.18 1664.83,1423.18 1664.83,959.693 1617.97,959.693 "/>
<path clip-path="url(#clip412)" d="M1664.83 1055.31 L1664.83 1423.18 L1711.7 1423.18 L1711.7 1055.31 L1664.83 1055.31 L1664.83 1055.31  Z" fill="#78c2ad" fill-rule="evenodd" fill-opacity="0.7"/>
<polyline clip-path="url(#clip412)" style="stroke:#000000; stroke-linecap:round; stroke-linejoin:round; stroke-width:4; stroke-opacity:0.7; fill:none" points="1664.83,1055.31 1664.83,1423.18 1711.7,1423.18 1711.7,1055.31 1664.83,1055.31 "/>
<path clip-path="url(#clip412)" d="M1711.7 1209.26 L1711.7 1423.18 L1758.57 1423.18 L1758.57 1209.26 L1711.7 1209.26 L1711.7 1209.26  Z" fill="#78c2ad" fill-rule="evenodd" fill-opacity="0.7"/>
<polyline clip-path="url(#clip412)" style="stroke:#000000; stroke-linecap:round; stroke-linejoin:round; stroke-width:4; stroke-opacity:0.7; fill:none" points="1711.7,1209.26 1711.7,1423.18 1758.57,1423.18 1758.57,1209.26 1711.7,1209.26 "/>
<path clip-path="url(#clip412)" d="M1758.57 1267.6 L1758.57 1423.18 L1805.44 1423.18 L1805.44 1267.6 L1758.57 1267.6 L1758.57 1267.6  Z" fill="#78c2ad" fill-rule="evenodd" fill-opacity="0.7"/>
<polyline clip-path="url(#clip412)" style="stroke:#000000; stroke-linecap:round; stroke-linejoin:round; stroke-width:4; stroke-opacity:0.7; fill:none" points="1758.57,1267.6 1758.57,1423.18 1805.44,1423.18 1805.44,1267.6 1758.57,1267.6 "/>
<path clip-path="url(#clip412)" d="M1805.44 1317.84 L1805.44 1423.18 L1852.3 1423.18 L1852.3 1317.84 L1805.44 1317.84 L1805.44 1317.84  Z" fill="#78c2ad" fill-rule="evenodd" fill-opacity="0.7"/>
<polyline clip-path="url(#clip412)" style="stroke:#000000; stroke-linecap:round; stroke-linejoin:round; stroke-width:4; stroke-opacity:0.7; fill:none" points="1805.44,1317.84 1805.44,1423.18 1852.3,1423.18 1852.3,1317.84 1805.44,1317.84 "/>
<path clip-path="url(#clip412)" d="M1852.3 1356.74 L1852.3 1423.18 L1899.17 1423.18 L1899.17 1356.74 L1852.3 1356.74 L1852.3 1356.74  Z" fill="#78c2ad" fill-rule="evenodd" fill-opacity="0.7"/>
<polyline clip-path="url(#clip412)" style="stroke:#000000; stroke-linecap:round; stroke-linejoin:round; stroke-width:4; stroke-opacity:0.7; fill:none" points="1852.3,1356.74 1852.3,1423.18 1899.17,1423.18 1899.17,1356.74 1852.3,1356.74 "/>
<path clip-path="url(#clip412)" d="M1899.17 1384.29 L1899.17 1423.18 L1946.04 1423.18 L1946.04 1384.29 L1899.17 1384.29 L1899.17 1384.29  Z" fill="#78c2ad" fill-rule="evenodd" fill-opacity="0.7"/>
<polyline clip-path="url(#clip412)" style="stroke:#000000; stroke-linecap:round; stroke-linejoin:round; stroke-width:4; stroke-opacity:0.7; fill:none" points="1899.17,1384.29 1899.17,1423.18 1946.04,1423.18 1946.04,1384.29 1899.17,1384.29 "/>
<path clip-path="url(#clip412)" d="M1946.04 1390.77 L1946.04 1423.18 L1992.9 1423.18 L1992.9 1390.77 L1946.04 1390.77 L1946.04 1390.77  Z" fill="#78c2ad" fill-rule="evenodd" fill-opacity="0.7"/>
<polyline clip-path="url(#clip412)" style="stroke:#000000; stroke-linecap:round; stroke-linejoin:round; stroke-width:4; stroke-opacity:0.7; fill:none" points="1946.04,1390.77 1946.04,1423.18 1992.9,1423.18 1992.9,1390.77 1946.04,1390.77 "/>
<path clip-path="url(#clip412)" d="M1992.9 1405.35 L1992.9 1423.18 L2039.77 1423.18 L2039.77 1405.35 L1992.9 1405.35 L1992.9 1405.35  Z" fill="#78c2ad" fill-rule="evenodd" fill-opacity="0.7"/>
<polyline clip-path="url(#clip412)" style="stroke:#000000; stroke-linecap:round; stroke-linejoin:round; stroke-width:4; stroke-opacity:0.7; fill:none" points="1992.9,1405.35 1992.9,1423.18 2039.77,1423.18 2039.77,1405.35 1992.9,1405.35 "/>
<path clip-path="url(#clip412)" d="M2039.77 1408.59 L2039.77 1423.18 L2086.64 1423.18 L2086.64 1408.59 L2039.77 1408.59 L2039.77 1408.59  Z" fill="#78c2ad" fill-rule="evenodd" fill-opacity="0.7"/>
<polyline clip-path="url(#clip412)" style="stroke:#000000; stroke-linecap:round; stroke-linejoin:round; stroke-width:4; stroke-opacity:0.7; fill:none" points="2039.77,1408.59 2039.77,1423.18 2086.64,1423.18 2086.64,1408.59 2039.77,1408.59 "/>
<path clip-path="url(#clip412)" d="M2086.64 1418.32 L2086.64 1423.18 L2133.51 1423.18 L2133.51 1418.32 L2086.64 1418.32 L2086.64 1418.32  Z" fill="#78c2ad" fill-rule="evenodd" fill-opacity="0.7"/>
<polyline clip-path="url(#clip412)" style="stroke:#000000; stroke-linecap:round; stroke-linejoin:round; stroke-width:4; stroke-opacity:0.7; fill:none" points="2086.64,1418.32 2086.64,1423.18 2133.51,1423.18 2133.51,1418.32 2086.64,1418.32 "/>
<path clip-path="url(#clip412)" d="M2133.51 1421.56 L2133.51 1423.18 L2180.37 1423.18 L2180.37 1421.56 L2133.51 1421.56 L2133.51 1421.56  Z" fill="#78c2ad" fill-rule="evenodd" fill-opacity="0.7"/>
<polyline clip-path="url(#clip412)" style="stroke:#000000; stroke-linecap:round; stroke-linejoin:round; stroke-width:4; stroke-opacity:0.7; fill:none" points="2133.51,1421.56 2133.51,1423.18 2180.37,1423.18 2180.37,1421.56 2133.51,1421.56 "/>
<circle clip-path="url(#clip412)" style="fill:#78c2ad; stroke:none; fill-opacity:0" cx="422.847" cy="1418.32" r="2"/>
<circle clip-path="url(#clip412)" style="fill:#78c2ad; stroke:none; fill-opacity:0" cx="469.714" cy="1419.94" r="2"/>
<circle clip-path="url(#clip412)" style="fill:#78c2ad; stroke:none; fill-opacity:0" cx="516.582" cy="1416.7" r="2"/>
<circle clip-path="url(#clip412)" style="fill:#78c2ad; stroke:none; fill-opacity:0" cx="563.449" cy="1405.35" r="2"/>
<circle clip-path="url(#clip412)" style="fill:#78c2ad; stroke:none; fill-opacity:0" cx="610.316" cy="1389.15" r="2"/>
<circle clip-path="url(#clip412)" style="fill:#78c2ad; stroke:none; fill-opacity:0" cx="657.184" cy="1387.53" r="2"/>
<circle clip-path="url(#clip412)" style="fill:#78c2ad; stroke:none; fill-opacity:0" cx="704.051" cy="1329.19" r="2"/>
<circle clip-path="url(#clip412)" style="fill:#78c2ad; stroke:none; fill-opacity:0" cx="750.919" cy="1335.67" r="2"/>
<circle clip-path="url(#clip412)" style="fill:#78c2ad; stroke:none; fill-opacity:0" cx="797.786" cy="1267.6" r="2"/>
<circle clip-path="url(#clip412)" style="fill:#78c2ad; stroke:none; fill-opacity:0" cx="844.653" cy="1220.61" r="2"/>
<circle clip-path="url(#clip412)" style="fill:#78c2ad; stroke:none; fill-opacity:0" cx="891.521" cy="1052.07" r="2"/>
<circle clip-path="url(#clip412)" style="fill:#78c2ad; stroke:none; fill-opacity:0" cx="938.388" cy="987.243" r="2"/>
<circle clip-path="url(#clip412)" style="fill:#78c2ad; stroke:none; fill-opacity:0" cx="985.256" cy="825.185" r="2"/>
<circle clip-path="url(#clip412)" style="fill:#78c2ad; stroke:none; fill-opacity:0" cx="1032.12" cy="771.705" r="2"/>
<circle clip-path="url(#clip412)" style="fill:#78c2ad; stroke:none; fill-opacity:0" cx="1078.99" cy="588.58" r="2"/>
<circle clip-path="url(#clip412)" style="fill:#78c2ad; stroke:none; fill-opacity:0" cx="1125.86" cy="501.068" r="2"/>
<circle clip-path="url(#clip412)" style="fill:#78c2ad; stroke:none; fill-opacity:0" cx="1172.73" cy="335.769" r="2"/>
<circle clip-path="url(#clip412)" style="fill:#78c2ad; stroke:none; fill-opacity:0" cx="1219.59" cy="165.607" r="2"/>
<circle clip-path="url(#clip412)" style="fill:#78c2ad; stroke:none; fill-opacity:0" cx="1266.46" cy="123.472" r="2"/>
<circle clip-path="url(#clip412)" style="fill:#78c2ad; stroke:none; fill-opacity:0" cx="1313.33" cy="139.678" r="2"/>
<circle clip-path="url(#clip412)" style="fill:#78c2ad; stroke:none; fill-opacity:0" cx="1360.19" cy="186.675" r="2"/>
<circle clip-path="url(#clip412)" style="fill:#78c2ad; stroke:none; fill-opacity:0" cx="1407.06" cy="317.942" r="2"/>
<circle clip-path="url(#clip412)" style="fill:#78c2ad; stroke:none; fill-opacity:0" cx="1453.93" cy="483.242" r="2"/>
<circle clip-path="url(#clip412)" style="fill:#78c2ad; stroke:none; fill-opacity:0" cx="1500.8" cy="624.232" r="2"/>
<circle clip-path="url(#clip412)" style="fill:#78c2ad; stroke:none; fill-opacity:0" cx="1547.66" cy="727.95" r="2"/>
<circle clip-path="url(#clip412)" style="fill:#78c2ad; stroke:none; fill-opacity:0" cx="1594.53" cy="859.217" r="2"/>
<circle clip-path="url(#clip412)" style="fill:#78c2ad; stroke:none; fill-opacity:0" cx="1641.4" cy="959.693" r="2"/>
<circle clip-path="url(#clip412)" style="fill:#78c2ad; stroke:none; fill-opacity:0" cx="1688.27" cy="1055.31" r="2"/>
<circle clip-path="url(#clip412)" style="fill:#78c2ad; stroke:none; fill-opacity:0" cx="1735.13" cy="1209.26" r="2"/>
<circle clip-path="url(#clip412)" style="fill:#78c2ad; stroke:none; fill-opacity:0" cx="1782" cy="1267.6" r="2"/>
<circle clip-path="url(#clip412)" style="fill:#78c2ad; stroke:none; fill-opacity:0" cx="1828.87" cy="1317.84" r="2"/>
<circle clip-path="url(#clip412)" style="fill:#78c2ad; stroke:none; fill-opacity:0" cx="1875.74" cy="1356.74" r="2"/>
<circle clip-path="url(#clip412)" style="fill:#78c2ad; stroke:none; fill-opacity:0" cx="1922.6" cy="1384.29" r="2"/>
<circle clip-path="url(#clip412)" style="fill:#78c2ad; stroke:none; fill-opacity:0" cx="1969.47" cy="1390.77" r="2"/>
<circle clip-path="url(#clip412)" style="fill:#78c2ad; stroke:none; fill-opacity:0" cx="2016.34" cy="1405.35" r="2"/>
<circle clip-path="url(#clip412)" style="fill:#78c2ad; stroke:none; fill-opacity:0" cx="2063.21" cy="1408.59" r="2"/>
<circle clip-path="url(#clip412)" style="fill:#78c2ad; stroke:none; fill-opacity:0" cx="2110.07" cy="1418.32" r="2"/>
<circle clip-path="url(#clip412)" style="fill:#78c2ad; stroke:none; fill-opacity:0" cx="2156.94" cy="1421.56" r="2"/>
<polyline clip-path="url(#clip412)" style="stroke:#e95420; stroke-linecap:round; stroke-linejoin:round; stroke-width:8; stroke-opacity:1; fill:none" points="280.231,1423.18 290.342,1423.18 300.454,1423.18 310.565,1423.17 320.676,1423.15 330.788,1423.11 340.899,1423.04 351.011,1422.91 361.122,1422.69 371.233,1422.37 381.345,1421.92 391.456,1421.37 401.567,1420.76 411.679,1420.13 421.79,1419.57 431.901,1419.14 442.013,1418.85 452.124,1418.68 462.235,1418.55 472.347,1418.36 482.458,1418 492.57,1417.37 502.681,1416.42 512.792,1415.14 522.904,1413.55 533.015,1411.69 543.126,1409.58 553.238,1407.26 563.349,1404.77 573.46,1402.16 583.572,1399.48 593.683,1396.75 603.794,1393.97 613.906,1391.04 624.017,1387.78 634.129,1383.98 644.24,1379.48 654.351,1374.25 664.463,1368.45 674.574,1362.41 684.685,1356.48 694.797,1350.99 704.908,1346.02 715.019,1341.43 725.131,1336.81 735.242,1331.62 745.353,1325.31 755.465,1317.48 765.576,1307.95 775.688,1296.77 785.799,1284.23 795.91,1270.69 806.022,1256.43 816.133,1241.51 826.244,1225.69 836.356,1208.45 846.467,1189.2 856.578,1167.59 866.69,1143.74 876.801,1118.24 886.912,1091.97 897.024,1065.72 907.135,1039.96 917.247,1014.68 927.358,989.595 937.469,964.395 947.581,939.007 957.692,913.703 967.803,889.001 977.915,865.414 988.026,843.166 998.137,822.001 1008.25,801.172 1018.36,779.608 1028.47,756.215 1038.58,730.208 1048.69,701.387 1058.81,670.26 1068.92,637.969 1079.03,605.976 1089.14,575.585 1099.25,547.483 1109.36,521.465 1119.47,496.509 1129.59,471.143 1139.7,443.961 1149.81,414.074 1159.92,381.372 1170.03,346.555 1180.14,310.97 1190.25,276.317 1200.36,244.268 1210.48,216.083 1220.59,192.338 1230.7,172.892 1240.81,157.136 1250.92,144.424 1261.03,134.483 1271.14,127.583 1281.26,124.373 1291.37,125.467 1301.48,131.016 1311.59,140.503 1321.7,152.873 1331.81,166.963 1341.92,181.996 1352.03,197.895 1362.15,215.26 1372.26,235.021 1382.37,257.954 1392.48,284.328 1402.59,313.807 1412.7,345.619 1422.81,378.842 1432.93,412.635 1443.04,446.327 1453.15,479.378 1463.26,511.312 1473.37,541.714 1483.48,570.317 1493.59,597.135 1503.71,622.529 1513.82,647.138 1523.93,671.679 1534.04,696.707 1544.15,722.456 1554.26,748.828 1564.37,775.511 1574.48,802.116 1584.6,828.275 1594.71,853.658 1604.82,877.986 1614.93,901.08 1625.04,922.969 1635.15,943.988 1645.26,964.785 1655.38,986.206 1665.49,1009.07 1675.6,1033.88 1685.71,1060.68 1695.82,1088.91 1705.93,1117.57 1716.04,1145.46 1726.16,1171.44 1736.27,1194.72 1746.38,1214.93 1756.49,1232.17 1766.6,1246.87 1776.71,1259.68 1786.82,1271.26 1796.93,1282.17 1807.05,1292.74 1817.16,1303.1 1827.27,1313.2 1837.38,1322.91 1847.49,1332.11 1857.6,1340.72 1867.71,1348.69 1877.83,1355.97 1887.94,1362.51 1898.05,1368.27 1908.16,1373.25 1918.27,1377.49 1928.38,1381.09 1938.49,1384.22 1948.6,1387.04 1958.72,1389.67 1968.83,1392.18 1978.94,1394.6 1989.05,1396.91 1999.16,1399.07 2009.27,1401.06 2019.38,1402.89 2029.5,1404.61 2039.61,1406.32 2049.72,1408.07 2059.83,1409.89 2069.94,1411.75 2080.05,1413.56 2090.16,1415.22 2100.28,1416.65 2110.39,1417.83 2120.5,1418.78 2130.61,1419.54 2140.72,1420.18 2150.83,1420.73 2160.94,1421.23 2171.05,1421.69 2181.17,1422.09 2191.28,1422.43 2201.39,1422.69 2211.5,1422.88 2221.61,1423.01 2231.72,1423.09 2241.83,1423.14 2251.95,1423.16 2262.06,1423.17 2272.17,1423.18 2282.28,1423.18 2292.39,1423.18 "/>
<polyline clip-path="url(#clip412)" style="stroke:#ff0000; stroke-linecap:round; stroke-linejoin:round; stroke-width:8; stroke-opacity:1; fill:none" stroke-dasharray="32, 20" points="417.538,1421.91 426.269,1421.73 435.001,1421.51 443.732,1421.27 452.464,1421 461.195,1420.69 469.926,1420.34 478.658,1419.95 487.389,1419.51 496.121,1419.01 504.852,1418.45 513.583,1417.83 522.315,1417.13 531.046,1416.35 539.778,1415.48 548.509,1414.51 557.24,1413.43 565.972,1412.23 574.703,1410.91 583.434,1409.44 592.166,1407.81 600.897,1406.02 609.629,1404.05 618.36,1401.88 627.091,1399.5 635.823,1396.88 644.554,1394.02 653.286,1390.89 662.017,1387.48 670.748,1383.76 679.48,1379.71 688.211,1375.31 696.942,1370.54 705.674,1365.38 714.405,1359.79 723.137,1353.77 731.868,1347.28 740.599,1340.29 749.331,1332.79 758.062,1324.74 766.794,1316.13 775.525,1306.93 784.256,1297.11 792.988,1286.65 801.719,1275.53 810.45,1263.72 819.182,1251.21 827.913,1237.97 836.645,1224 845.376,1209.26 854.107,1193.75 862.839,1177.46 871.57,1160.38 880.302,1142.5 889.033,1123.82 897.764,1104.34 906.496,1084.06 915.227,1063 923.959,1041.15 932.69,1018.55 941.421,995.198 950.153,971.129 958.884,946.369 967.615,920.95 976.347,894.911 985.078,868.292 993.81,841.14 1002.54,813.507 1011.27,785.448 1020,757.024 1028.74,728.297 1037.47,699.338 1046.2,670.217 1054.93,641.012 1063.66,611.801 1072.39,582.667 1081.12,553.695 1089.85,524.972 1098.59,496.587 1107.32,468.632 1116.05,441.197 1124.78,414.375 1133.51,388.259 1142.24,362.939 1150.97,338.507 1159.71,315.051 1168.44,292.659 1177.17,271.414 1185.9,251.398 1194.63,232.688 1203.36,215.357 1212.09,199.474 1220.83,185.103 1229.56,172.3 1238.29,161.118 1247.02,151.603 1255.75,143.793 1264.48,137.722 1273.21,133.413 1281.95,130.885 1290.68,130.149 1299.41,131.207 1308.14,134.055 1316.87,138.682 1325.6,145.067 1334.33,153.185 1343.07,163.002 1351.8,174.479 1360.53,187.567 1369.26,202.214 1377.99,218.362 1386.72,235.945 1395.45,254.895 1404.18,275.137 1412.92,296.594 1421.65,319.183 1430.38,342.82 1439.11,367.418 1447.84,392.888 1456.57,419.137 1465.3,446.076 1474.04,473.611 1482.77,501.65 1491.5,530.102 1500.23,558.876 1508.96,587.884 1517.69,617.038 1526.42,646.254 1535.16,675.449 1543.89,704.546 1552.62,733.469 1561.35,762.147 1570.08,790.51 1578.81,818.497 1587.54,846.048 1596.28,873.107 1605.01,899.626 1613.74,925.557 1622.47,950.86 1631.2,975.498 1639.93,999.44 1648.66,1022.66 1657.4,1045.13 1666.13,1066.83 1674.86,1087.76 1683.59,1107.89 1692.32,1127.23 1701.05,1145.77 1709.78,1163.5 1718.51,1180.44 1727.25,1196.59 1735.98,1211.96 1744.71,1226.56 1753.44,1240.4 1762.17,1253.51 1770.9,1265.89 1779.63,1277.57 1788.37,1288.57 1797.1,1298.92 1805.83,1308.62 1814.56,1317.72 1823.29,1326.23 1832.02,1334.17 1840.75,1341.58 1849.49,1348.48 1858.22,1354.88 1866.95,1360.83 1875.68,1366.33 1884.41,1371.43 1893.14,1376.13 1901.87,1380.46 1910.61,1384.45 1919.34,1388.11 1928.07,1391.47 1936.8,1394.55 1945.53,1397.37 1954.26,1399.94 1962.99,1402.28 1971.72,1404.42 1980.46,1406.36 1989.19,1408.12 1997.92,1409.71 2006.65,1411.15 2015.38,1412.46 2024.11,1413.63 2032.84,1414.69 2041.58,1415.64 2050.31,1416.49 2059.04,1417.26 2067.77,1417.95 2076.5,1418.56 2085.23,1419.1 2093.96,1419.59 2102.7,1420.02 2111.43,1420.41 2120.16,1420.75 2128.89,1421.05 2137.62,1421.32 2146.35,1421.55 2155.08,1421.76 "/>
<path clip-path="url(#clip410)" d="M1673.67 374.156 L2281.66 374.156 L2281.66 166.796 L1673.67 166.796  Z" fill="#ffffff" fill-rule="evenodd" fill-opacity="1"/>
<polyline clip-path="url(#clip410)" style="stroke:#000000; stroke-linecap:round; stroke-linejoin:round; stroke-width:4; stroke-opacity:1; fill:none" points="1673.67,374.156 2281.66,374.156 2281.66,166.796 1673.67,166.796 1673.67,374.156 "/>
<path clip-path="url(#clip410)" d="M1697.37 239.372 L1839.57 239.372 L1839.57 197.9 L1697.37 197.9 L1697.37 239.372  Z" fill="#78c2ad" fill-rule="evenodd" fill-opacity="0.7"/>
<polyline clip-path="url(#clip410)" style="stroke:#000000; stroke-linecap:round; stroke-linejoin:round; stroke-width:4; stroke-opacity:1; fill:none" points="1697.37,239.372 1839.57,239.372 1839.57,197.9 1697.37,197.9 1697.37,239.372 "/>
<path clip-path="url(#clip410)" d="M1863.26 201.356 L1867.94 201.356 L1867.94 215.522 L1884.93 215.522 L1884.93 201.356 L1889.61 201.356 L1889.61 235.916 L1884.93 235.916 L1884.93 219.457 L1867.94 219.457 L1867.94 235.916 L1863.26 235.916 L1863.26 201.356 Z" fill="#000000" fill-rule="nonzero" fill-opacity="1" /><path clip-path="url(#clip410)" d="M1898.73 209.99 L1902.99 209.99 L1902.99 235.916 L1898.73 235.916 L1898.73 209.99 M1898.73 199.897 L1902.99 199.897 L1902.99 205.291 L1898.73 205.291 L1898.73 199.897 Z" fill="#000000" fill-rule="nonzero" fill-opacity="1" /><path clip-path="url(#clip410)" d="M1928.43 210.754 L1928.43 214.782 Q1926.62 213.856 1924.68 213.393 Q1922.73 212.93 1920.65 212.93 Q1917.48 212.93 1915.88 213.902 Q1914.31 214.874 1914.31 216.819 Q1914.31 218.3 1915.44 219.157 Q1916.57 219.99 1920 220.754 L1921.46 221.078 Q1925.99 222.05 1927.89 223.832 Q1929.81 225.592 1929.81 228.763 Q1929.81 232.374 1926.94 234.481 Q1924.1 236.587 1919.1 236.587 Q1917.01 236.587 1914.75 236.17 Q1912.5 235.777 1910 234.967 L1910 230.569 Q1912.36 231.795 1914.65 232.42 Q1916.94 233.022 1919.19 233.022 Q1922.2 233.022 1923.82 232.004 Q1925.44 230.962 1925.44 229.087 Q1925.44 227.351 1924.26 226.425 Q1923.1 225.499 1919.14 224.643 L1917.66 224.295 Q1913.7 223.462 1911.94 221.749 Q1910.18 220.013 1910.18 217.004 Q1910.18 213.346 1912.78 211.356 Q1915.37 209.365 1920.14 209.365 Q1922.5 209.365 1924.58 209.712 Q1926.67 210.059 1928.43 210.754 Z" fill="#000000" fill-rule="nonzero" fill-opacity="1" /><path clip-path="url(#clip410)" d="M1940.81 202.629 L1940.81 209.99 L1949.58 209.99 L1949.58 213.3 L1940.81 213.3 L1940.81 227.374 Q1940.81 230.545 1941.67 231.448 Q1942.55 232.351 1945.21 232.351 L1949.58 232.351 L1949.58 235.916 L1945.21 235.916 Q1940.28 235.916 1938.4 234.087 Q1936.53 232.235 1936.53 227.374 L1936.53 213.3 L1933.4 213.3 L1933.4 209.99 L1936.53 209.99 L1936.53 202.629 L1940.81 202.629 Z" fill="#000000" fill-rule="nonzero" fill-opacity="1" /><path clip-path="url(#clip410)" d="M1965.23 212.976 Q1961.8 212.976 1959.81 215.661 Q1957.82 218.323 1957.82 222.976 Q1957.82 227.629 1959.79 230.314 Q1961.78 232.976 1965.23 232.976 Q1968.63 232.976 1970.62 230.291 Q1972.62 227.606 1972.62 222.976 Q1972.62 218.37 1970.62 215.684 Q1968.63 212.976 1965.23 212.976 M1965.23 209.365 Q1970.79 209.365 1973.96 212.976 Q1977.13 216.587 1977.13 222.976 Q1977.13 229.342 1973.96 232.976 Q1970.79 236.587 1965.23 236.587 Q1959.65 236.587 1956.48 232.976 Q1953.33 229.342 1953.33 222.976 Q1953.33 216.587 1956.48 212.976 Q1959.65 209.365 1965.23 209.365 Z" fill="#000000" fill-rule="nonzero" fill-opacity="1" /><path clip-path="url(#clip410)" d="M2001.25 222.652 Q2001.25 218.022 1999.33 215.476 Q1997.43 212.93 1993.98 212.93 Q1990.55 212.93 1988.63 215.476 Q1986.74 218.022 1986.74 222.652 Q1986.74 227.258 1988.63 229.805 Q1990.55 232.351 1993.98 232.351 Q1997.43 232.351 1999.33 229.805 Q2001.25 227.258 2001.25 222.652 M2005.51 232.698 Q2005.51 239.318 2002.57 242.536 Q1999.63 245.777 1993.56 245.777 Q1991.32 245.777 1989.33 245.43 Q1987.34 245.105 1985.46 244.411 L1985.46 240.268 Q1987.34 241.286 1989.17 241.772 Q1990.99 242.258 1992.89 242.258 Q1997.08 242.258 1999.17 240.059 Q2001.25 237.883 2001.25 233.462 L2001.25 231.356 Q1999.93 233.647 1997.87 234.781 Q1995.81 235.916 1992.94 235.916 Q1988.17 235.916 1985.25 232.281 Q1982.34 228.647 1982.34 222.652 Q1982.34 216.633 1985.25 212.999 Q1988.17 209.365 1992.94 209.365 Q1995.81 209.365 1997.87 210.499 Q1999.93 211.633 2001.25 213.925 L2001.25 209.99 L2005.51 209.99 L2005.51 232.698 Z" fill="#000000" fill-rule="nonzero" fill-opacity="1" /><path clip-path="url(#clip410)" d="M2029.3 213.971 Q2028.59 213.555 2027.73 213.37 Q2026.9 213.161 2025.88 213.161 Q2022.27 213.161 2020.32 215.522 Q2018.4 217.86 2018.4 222.258 L2018.4 235.916 L2014.12 235.916 L2014.12 209.99 L2018.4 209.99 L2018.4 214.018 Q2019.74 211.657 2021.9 210.522 Q2024.05 209.365 2027.13 209.365 Q2027.57 209.365 2028.1 209.434 Q2028.63 209.481 2029.28 209.596 L2029.3 213.971 Z" fill="#000000" fill-rule="nonzero" fill-opacity="1" /><path clip-path="url(#clip410)" d="M2045.55 222.883 Q2040.39 222.883 2038.4 224.064 Q2036.41 225.244 2036.41 228.092 Q2036.41 230.36 2037.89 231.703 Q2039.4 233.022 2041.97 233.022 Q2045.51 233.022 2047.64 230.522 Q2049.79 227.999 2049.79 223.832 L2049.79 222.883 L2045.55 222.883 M2054.05 221.124 L2054.05 235.916 L2049.79 235.916 L2049.79 231.981 Q2048.33 234.342 2046.16 235.476 Q2043.98 236.587 2040.83 236.587 Q2036.85 236.587 2034.49 234.365 Q2032.15 232.119 2032.15 228.369 Q2032.15 223.994 2035.07 221.772 Q2038.01 219.55 2043.82 219.55 L2049.79 219.55 L2049.79 219.133 Q2049.79 216.194 2047.85 214.596 Q2045.92 212.976 2042.43 212.976 Q2040.21 212.976 2038.1 213.508 Q2035.99 214.041 2034.05 215.106 L2034.05 211.17 Q2036.39 210.268 2038.59 209.828 Q2040.79 209.365 2042.87 209.365 Q2048.49 209.365 2051.27 212.282 Q2054.05 215.198 2054.05 221.124 Z" fill="#000000" fill-rule="nonzero" fill-opacity="1" /><path clip-path="url(#clip410)" d="M2083.01 214.967 Q2084.61 212.096 2086.83 210.731 Q2089.05 209.365 2092.06 209.365 Q2096.11 209.365 2098.31 212.212 Q2100.51 215.036 2100.51 220.268 L2100.51 235.916 L2096.23 235.916 L2096.23 220.407 Q2096.23 216.68 2094.91 214.874 Q2093.59 213.069 2090.88 213.069 Q2087.57 213.069 2085.65 215.268 Q2083.73 217.467 2083.73 221.263 L2083.73 235.916 L2079.44 235.916 L2079.44 220.407 Q2079.44 216.657 2078.12 214.874 Q2076.8 213.069 2074.05 213.069 Q2070.79 213.069 2068.86 215.291 Q2066.94 217.49 2066.94 221.263 L2066.94 235.916 L2062.66 235.916 L2062.66 209.99 L2066.94 209.99 L2066.94 214.018 Q2068.4 211.633 2070.44 210.499 Q2072.48 209.365 2075.28 209.365 Q2078.1 209.365 2080.07 210.8 Q2082.06 212.235 2083.01 214.967 Z" fill="#000000" fill-rule="nonzero" fill-opacity="1" /><polyline clip-path="url(#clip410)" style="stroke:#e95420; stroke-linecap:round; stroke-linejoin:round; stroke-width:8; stroke-opacity:1; fill:none" points="1697.37,270.476 1839.57,270.476 "/>
<path clip-path="url(#clip410)" d="M1863.26 253.196 L1867.94 253.196 L1867.94 267.802 L1883.45 253.196 L1889.47 253.196 L1872.31 269.307 L1890.69 287.756 L1884.54 287.756 L1867.94 271.112 L1867.94 287.756 L1863.26 287.756 L1863.26 253.196 Z" fill="#000000" fill-rule="nonzero" fill-opacity="1" /><path clip-path="url(#clip410)" d="M1899.03 257.038 L1899.03 283.913 L1904.68 283.913 Q1911.83 283.913 1915.14 280.672 Q1918.47 277.432 1918.47 270.441 Q1918.47 263.497 1915.14 260.279 Q1911.83 257.038 1904.68 257.038 L1899.03 257.038 M1894.35 253.196 L1903.96 253.196 Q1914 253.196 1918.7 257.386 Q1923.4 261.552 1923.4 270.441 Q1923.4 279.376 1918.68 283.566 Q1913.96 287.756 1903.96 287.756 L1894.35 287.756 L1894.35 253.196 Z" fill="#000000" fill-rule="nonzero" fill-opacity="1" /><path clip-path="url(#clip410)" d="M1930.86 253.196 L1952.71 253.196 L1952.71 257.131 L1935.53 257.131 L1935.53 267.362 L1951.99 267.362 L1951.99 271.297 L1935.53 271.297 L1935.53 283.821 L1953.12 283.821 L1953.12 287.756 L1930.86 287.756 L1930.86 253.196 Z" fill="#000000" fill-rule="nonzero" fill-opacity="1" /><polyline clip-path="url(#clip410)" style="stroke:#ff0000; stroke-linecap:round; stroke-linejoin:round; stroke-width:8; stroke-opacity:1; fill:none" stroke-dasharray="32, 20" points="1697.37,322.316 1839.57,322.316 "/>
<path clip-path="url(#clip410)" d="M1885.51 306.17 L1885.51 310.73 Q1882.85 309.457 1880.49 308.832 Q1878.12 308.207 1875.93 308.207 Q1872.11 308.207 1870.02 309.688 Q1867.96 311.17 1867.96 313.901 Q1867.96 316.193 1869.33 317.374 Q1870.72 318.531 1874.56 319.249 L1877.38 319.827 Q1882.62 320.823 1885.09 323.346 Q1887.59 325.846 1887.59 330.059 Q1887.59 335.082 1884.21 337.674 Q1880.86 340.267 1874.35 340.267 Q1871.9 340.267 1869.12 339.711 Q1866.37 339.156 1863.4 338.068 L1863.4 333.253 Q1866.25 334.85 1868.98 335.661 Q1871.71 336.471 1874.35 336.471 Q1878.36 336.471 1880.53 334.897 Q1882.71 333.323 1882.71 330.406 Q1882.71 327.86 1881.13 326.424 Q1879.58 324.989 1876.02 324.272 L1873.17 323.716 Q1867.94 322.675 1865.6 320.452 Q1863.26 318.23 1863.26 314.272 Q1863.26 309.688 1866.48 307.05 Q1869.72 304.411 1875.39 304.411 Q1877.82 304.411 1880.35 304.851 Q1882.87 305.29 1885.51 306.17 Z" fill="#000000" fill-rule="nonzero" fill-opacity="1" /><path clip-path="url(#clip410)" d="M1898.91 306.309 L1898.91 313.67 L1907.68 313.67 L1907.68 316.98 L1898.91 316.98 L1898.91 331.054 Q1898.91 334.225 1899.77 335.128 Q1900.65 336.031 1903.31 336.031 L1907.68 336.031 L1907.68 339.596 L1903.31 339.596 Q1898.38 339.596 1896.5 337.767 Q1894.63 335.915 1894.63 331.054 L1894.63 316.98 L1891.5 316.98 L1891.5 313.67 L1894.63 313.67 L1894.63 306.309 L1898.91 306.309 Z" fill="#000000" fill-rule="nonzero" fill-opacity="1" /><path clip-path="url(#clip410)" d="M1925.07 326.563 Q1919.91 326.563 1917.92 327.744 Q1915.93 328.924 1915.93 331.772 Q1915.93 334.04 1917.41 335.383 Q1918.91 336.702 1921.48 336.702 Q1925.02 336.702 1927.15 334.202 Q1929.31 331.679 1929.31 327.512 L1929.31 326.563 L1925.07 326.563 M1933.56 324.804 L1933.56 339.596 L1929.31 339.596 L1929.31 335.661 Q1927.85 338.022 1925.67 339.156 Q1923.5 340.267 1920.35 340.267 Q1916.37 340.267 1914 338.045 Q1911.67 335.799 1911.67 332.049 Q1911.67 327.674 1914.58 325.452 Q1917.52 323.23 1923.33 323.23 L1929.31 323.23 L1929.31 322.813 Q1929.31 319.874 1927.36 318.276 Q1925.44 316.656 1921.94 316.656 Q1919.72 316.656 1917.62 317.188 Q1915.51 317.721 1913.56 318.786 L1913.56 314.85 Q1915.9 313.948 1918.1 313.508 Q1920.3 313.045 1922.38 313.045 Q1928.01 313.045 1930.79 315.962 Q1933.56 318.878 1933.56 324.804 Z" fill="#000000" fill-rule="nonzero" fill-opacity="1" /><path clip-path="url(#clip410)" d="M1963.89 323.948 L1963.89 339.596 L1959.63 339.596 L1959.63 324.087 Q1959.63 320.406 1958.19 318.577 Q1956.76 316.749 1953.89 316.749 Q1950.44 316.749 1948.45 318.948 Q1946.46 321.147 1946.46 324.943 L1946.46 339.596 L1942.18 339.596 L1942.18 313.67 L1946.46 313.67 L1946.46 317.698 Q1947.99 315.36 1950.05 314.202 Q1952.13 313.045 1954.84 313.045 Q1959.31 313.045 1961.6 315.823 Q1963.89 318.577 1963.89 323.948 Z" fill="#000000" fill-rule="nonzero" fill-opacity="1" /><path clip-path="url(#clip410)" d="M1989.44 317.605 L1989.44 303.577 L1993.7 303.577 L1993.7 339.596 L1989.44 339.596 L1989.44 335.707 Q1988.1 338.022 1986.04 339.156 Q1984 340.267 1981.13 340.267 Q1976.43 340.267 1973.47 336.517 Q1970.53 332.767 1970.53 326.656 Q1970.53 320.545 1973.47 316.795 Q1976.43 313.045 1981.13 313.045 Q1984 313.045 1986.04 314.179 Q1988.1 315.29 1989.44 317.605 M1974.93 326.656 Q1974.93 331.355 1976.85 334.04 Q1978.8 336.702 1982.18 336.702 Q1985.55 336.702 1987.5 334.04 Q1989.44 331.355 1989.44 326.656 Q1989.44 321.957 1987.5 319.295 Q1985.55 316.61 1982.18 316.61 Q1978.8 316.61 1976.85 319.295 Q1974.93 321.957 1974.93 326.656 Z" fill="#000000" fill-rule="nonzero" fill-opacity="1" /><path clip-path="url(#clip410)" d="M2014.26 326.563 Q2009.1 326.563 2007.11 327.744 Q2005.11 328.924 2005.11 331.772 Q2005.11 334.04 2006.6 335.383 Q2008.1 336.702 2010.67 336.702 Q2014.21 336.702 2016.34 334.202 Q2018.49 331.679 2018.49 327.512 L2018.49 326.563 L2014.26 326.563 M2022.75 324.804 L2022.75 339.596 L2018.49 339.596 L2018.49 335.661 Q2017.04 338.022 2014.86 339.156 Q2012.68 340.267 2009.54 340.267 Q2005.55 340.267 2003.19 338.045 Q2000.86 335.799 2000.86 332.049 Q2000.86 327.674 2003.77 325.452 Q2006.71 323.23 2012.52 323.23 L2018.49 323.23 L2018.49 322.813 Q2018.49 319.874 2016.55 318.276 Q2014.63 316.656 2011.13 316.656 Q2008.91 316.656 2006.8 317.188 Q2004.7 317.721 2002.75 318.786 L2002.75 314.85 Q2005.09 313.948 2007.29 313.508 Q2009.49 313.045 2011.57 313.045 Q2017.2 313.045 2019.98 315.962 Q2022.75 318.878 2022.75 324.804 Z" fill="#000000" fill-rule="nonzero" fill-opacity="1" /><path clip-path="url(#clip410)" d="M2046.55 317.651 Q2045.83 317.235 2044.98 317.05 Q2044.14 316.841 2043.12 316.841 Q2039.51 316.841 2037.57 319.202 Q2035.65 321.54 2035.65 325.938 L2035.65 339.596 L2031.36 339.596 L2031.36 313.67 L2035.65 313.67 L2035.65 317.698 Q2036.99 315.337 2039.14 314.202 Q2041.3 313.045 2044.37 313.045 Q2044.81 313.045 2045.35 313.114 Q2045.88 313.161 2046.53 313.276 L2046.55 317.651 Z" fill="#000000" fill-rule="nonzero" fill-opacity="1" /><path clip-path="url(#clip410)" d="M2067.24 317.605 L2067.24 303.577 L2071.5 303.577 L2071.5 339.596 L2067.24 339.596 L2067.24 335.707 Q2065.9 338.022 2063.84 339.156 Q2061.8 340.267 2058.93 340.267 Q2054.24 340.267 2051.27 336.517 Q2048.33 332.767 2048.33 326.656 Q2048.33 320.545 2051.27 316.795 Q2054.24 313.045 2058.93 313.045 Q2061.8 313.045 2063.84 314.179 Q2065.9 315.29 2067.24 317.605 M2052.73 326.656 Q2052.73 331.355 2054.65 334.04 Q2056.6 336.702 2059.98 336.702 Q2063.36 336.702 2065.3 334.04 Q2067.24 331.355 2067.24 326.656 Q2067.24 321.957 2065.3 319.295 Q2063.36 316.61 2059.98 316.61 Q2056.6 316.61 2054.65 319.295 Q2052.73 321.957 2052.73 326.656 Z" fill="#000000" fill-rule="nonzero" fill-opacity="1" /><path clip-path="url(#clip410)" d="M2095.53 305.036 L2101.83 305.036 L2117.15 333.948 L2117.15 305.036 L2121.69 305.036 L2121.69 339.596 L2115.39 339.596 L2100.07 310.684 L2100.07 339.596 L2095.53 339.596 L2095.53 305.036 Z" fill="#000000" fill-rule="nonzero" fill-opacity="1" /><path clip-path="url(#clip410)" d="M2140.85 316.656 Q2137.43 316.656 2135.44 319.341 Q2133.45 322.003 2133.45 326.656 Q2133.45 331.309 2135.42 333.994 Q2137.41 336.656 2140.85 336.656 Q2144.26 336.656 2146.25 333.971 Q2148.24 331.286 2148.24 326.656 Q2148.24 322.05 2146.25 319.364 Q2144.26 316.656 2140.85 316.656 M2140.85 313.045 Q2146.41 313.045 2149.58 316.656 Q2152.75 320.267 2152.75 326.656 Q2152.75 333.022 2149.58 336.656 Q2146.41 340.267 2140.85 340.267 Q2135.28 340.267 2132.11 336.656 Q2128.96 333.022 2128.96 326.656 Q2128.96 320.267 2132.11 316.656 Q2135.28 313.045 2140.85 313.045 Z" fill="#000000" fill-rule="nonzero" fill-opacity="1" /><path clip-path="url(#clip410)" d="M2174.84 317.651 Q2174.12 317.235 2173.26 317.05 Q2172.43 316.841 2171.41 316.841 Q2167.8 316.841 2165.85 319.202 Q2163.93 321.54 2163.93 325.938 L2163.93 339.596 L2159.65 339.596 L2159.65 313.67 L2163.93 313.67 L2163.93 317.698 Q2165.28 315.337 2167.43 314.202 Q2169.58 313.045 2172.66 313.045 Q2173.1 313.045 2173.63 313.114 Q2174.16 313.161 2174.81 313.276 L2174.84 317.651 Z" fill="#000000" fill-rule="nonzero" fill-opacity="1" /><path clip-path="url(#clip410)" d="M2198.66 318.647 Q2200.25 315.776 2202.47 314.411 Q2204.7 313.045 2207.71 313.045 Q2211.76 313.045 2213.96 315.892 Q2216.16 318.716 2216.16 323.948 L2216.16 339.596 L2211.87 339.596 L2211.87 324.087 Q2211.87 320.36 2210.55 318.554 Q2209.23 316.749 2206.53 316.749 Q2203.22 316.749 2201.29 318.948 Q2199.37 321.147 2199.37 324.943 L2199.37 339.596 L2195.09 339.596 L2195.09 324.087 Q2195.09 320.337 2193.77 318.554 Q2192.45 316.749 2189.7 316.749 Q2186.43 316.749 2184.51 318.971 Q2182.59 321.17 2182.59 324.943 L2182.59 339.596 L2178.31 339.596 L2178.31 313.67 L2182.59 313.67 L2182.59 317.698 Q2184.05 315.313 2186.09 314.179 Q2188.12 313.045 2190.92 313.045 Q2193.75 313.045 2195.72 314.48 Q2197.71 315.915 2198.66 318.647 Z" fill="#000000" fill-rule="nonzero" fill-opacity="1" /><path clip-path="url(#clip410)" d="M2236.43 326.563 Q2231.27 326.563 2229.28 327.744 Q2227.29 328.924 2227.29 331.772 Q2227.29 334.04 2228.77 335.383 Q2230.28 336.702 2232.85 336.702 Q2236.39 336.702 2238.52 334.202 Q2240.67 331.679 2240.67 327.512 L2240.67 326.563 L2236.43 326.563 M2244.93 324.804 L2244.93 339.596 L2240.67 339.596 L2240.67 335.661 Q2239.21 338.022 2237.03 339.156 Q2234.86 340.267 2231.71 340.267 Q2227.73 340.267 2225.37 338.045 Q2223.03 335.799 2223.03 332.049 Q2223.03 327.674 2225.95 325.452 Q2228.89 323.23 2234.7 323.23 L2240.67 323.23 L2240.67 322.813 Q2240.67 319.874 2238.72 318.276 Q2236.8 316.656 2233.31 316.656 Q2231.09 316.656 2228.98 317.188 Q2226.87 317.721 2224.93 318.786 L2224.93 314.85 Q2227.27 313.948 2229.47 313.508 Q2231.66 313.045 2233.75 313.045 Q2239.37 313.045 2242.15 315.962 Q2244.93 318.878 2244.93 324.804 Z" fill="#000000" fill-rule="nonzero" fill-opacity="1" /><path clip-path="url(#clip410)" d="M2253.7 303.577 L2257.96 303.577 L2257.96 339.596 L2253.7 339.596 L2253.7 303.577 Z" fill="#000000" fill-rule="nonzero" fill-opacity="1" /></svg>
