<?xml version="1.0" encoding="utf-8"?>
<svg xmlns="http://www.w3.org/2000/svg" xmlns:xlink="http://www.w3.org/1999/xlink" width="576" height="384" viewBox="0 0 2304 1536">
<defs>
  <clipPath id="clip810">
    <rect x="0" y="0" width="2304" height="1536"/>
  </clipPath>
</defs>
<path clip-path="url(#clip810)" d="M0 1536 L2304 1536 L2304 8.52651e-14 L0 8.52651e-14  Z" fill="#f0f1eb" fill-rule="evenodd" fill-opacity="1"/>
<defs>
  <clipPath id="clip811">
    <rect x="460" y="0" width="1614" height="1536"/>
  </clipPath>
</defs>
<path clip-path="url(#clip810)" d="M251.804 1347.54 L2256.76 1347.54 L2256.76 47.2441 L251.804 47.2441  Z" fill="#f0f1eb" fill-rule="evenodd" fill-opacity="1"/>
<defs>
  <clipPath id="clip812">
    <rect x="251" y="47" width="2006" height="1301"/>
  </clipPath>
</defs>
<polyline clip-path="url(#clip812)" style="stroke:#000000; stroke-linecap:round; stroke-linejoin:round; stroke-width:2; stroke-opacity:0.1; fill:none" points="939.036,1347.54 939.036,47.2441 "/>
<polyline clip-path="url(#clip812)" style="stroke:#000000; stroke-linecap:round; stroke-linejoin:round; stroke-width:2; stroke-opacity:0.1; fill:none" points="2200.01,1347.54 2200.01,47.2441 "/>
<polyline clip-path="url(#clip810)" style="stroke:#000000; stroke-linecap:round; stroke-linejoin:round; stroke-width:4; stroke-opacity:1; fill:none" points="251.804,1347.54 2256.76,1347.54 "/>
<polyline clip-path="url(#clip810)" style="stroke:#000000; stroke-linecap:round; stroke-linejoin:round; stroke-width:4; stroke-opacity:1; fill:none" points="939.036,1347.54 939.036,1328.64 "/>
<polyline clip-path="url(#clip810)" style="stroke:#000000; stroke-linecap:round; stroke-linejoin:round; stroke-width:4; stroke-opacity:1; fill:none" points="2200.01,1347.54 2200.01,1328.64 "/>
<path clip-path="url(#clip810)" d="M904.809 1420.89 L912.448 1420.89 L912.448 1394.53 L904.137 1396.19 L904.137 1391.94 L912.401 1390.27 L917.077 1390.27 L917.077 1420.89 L924.716 1420.89 L924.716 1424.83 L904.809 1424.83 L904.809 1420.89 Z" fill="#000000" fill-rule="nonzero" fill-opacity="1" /><path clip-path="url(#clip810)" d="M944.16 1393.35 Q940.549 1393.35 938.721 1396.91 Q936.915 1400.45 936.915 1407.58 Q936.915 1414.69 938.721 1418.25 Q940.549 1421.8 944.16 1421.8 Q947.795 1421.8 949.6 1418.25 Q951.429 1414.69 951.429 1407.58 Q951.429 1400.45 949.6 1396.91 Q947.795 1393.35 944.16 1393.35 M944.16 1389.64 Q949.97 1389.64 953.026 1394.25 Q956.105 1398.83 956.105 1407.58 Q956.105 1416.31 953.026 1420.92 Q949.97 1425.5 944.16 1425.5 Q938.35 1425.5 935.271 1420.92 Q932.216 1416.31 932.216 1407.58 Q932.216 1398.83 935.271 1394.25 Q938.35 1389.64 944.16 1389.64 Z" fill="#000000" fill-rule="nonzero" fill-opacity="1" /><path clip-path="url(#clip810)" d="M960.675 1394.22 L973.934 1394.22 L973.934 1397.42 L956.105 1397.42 L956.105 1394.22 Q958.268 1391.98 961.992 1388.22 Q965.734 1384.44 966.693 1383.35 Q968.518 1381.3 969.233 1379.89 Q969.966 1378.46 969.966 1377.09 Q969.966 1374.85 968.386 1373.44 Q966.825 1372.03 964.305 1372.03 Q962.518 1372.03 960.525 1372.65 Q958.55 1373.27 956.293 1374.53 L956.293 1370.69 Q958.587 1369.77 960.581 1369.3 Q962.575 1368.83 964.23 1368.83 Q968.593 1368.83 971.189 1371.01 Q973.784 1373.19 973.784 1376.84 Q973.784 1378.57 973.126 1380.13 Q972.486 1381.68 970.775 1383.78 Q970.305 1384.33 967.784 1386.94 Q965.264 1389.54 960.675 1394.22 Z" fill="#000000" fill-rule="nonzero" fill-opacity="1" /><path clip-path="url(#clip810)" d="M2164.47 1420.89 L2172.11 1420.89 L2172.11 1394.53 L2163.8 1396.19 L2163.8 1391.94 L2172.06 1390.27 L2176.74 1390.27 L2176.74 1420.89 L2184.38 1420.89 L2184.38 1424.83 L2164.47 1424.83 L2164.47 1420.89 Z" fill="#000000" fill-rule="nonzero" fill-opacity="1" /><path clip-path="url(#clip810)" d="M2203.82 1393.35 Q2200.21 1393.35 2198.38 1396.91 Q2196.57 1400.45 2196.57 1407.58 Q2196.57 1414.69 2198.38 1418.25 Q2200.21 1421.8 2203.82 1421.8 Q2207.45 1421.8 2209.26 1418.25 Q2211.09 1414.69 2211.09 1407.58 Q2211.09 1400.45 2209.26 1396.91 Q2207.45 1393.35 2203.82 1393.35 M2203.82 1389.64 Q2209.63 1389.64 2212.69 1394.25 Q2215.76 1398.83 2215.76 1407.58 Q2215.76 1416.31 2212.69 1420.92 Q2209.63 1425.5 2203.82 1425.5 Q2198.01 1425.5 2194.93 1420.92 Q2191.88 1416.31 2191.88 1407.58 Q2191.88 1398.83 2194.93 1394.25 Q2198.01 1389.64 2203.82 1389.64 Z" fill="#000000" fill-rule="nonzero" fill-opacity="1" /><path clip-path="url(#clip810)" d="M2228.44 1372.65 L2218.85 1387.64 L2228.44 1387.64 L2228.44 1372.65 M2227.44 1369.34 L2232.22 1369.34 L2232.22 1387.64 L2236.23 1387.64 L2236.23 1390.8 L2232.22 1390.8 L2232.22 1397.42 L2228.44 1397.42 L2228.44 1390.8 L2215.76 1390.8 L2215.76 1387.13 L2227.44 1369.34 Z" fill="#000000" fill-rule="nonzero" fill-opacity="1" /><path clip-path="url(#clip810)" d="M1174.47 1490.1 L1174.47 1492.96 L1147.54 1492.96 Q1147.92 1499.01 1151.17 1502.19 Q1154.45 1505.34 1160.27 1505.34 Q1163.65 1505.34 1166.8 1504.52 Q1169.98 1503.69 1173.1 1502.03 L1173.1 1507.57 Q1169.95 1508.91 1166.64 1509.61 Q1163.33 1510.31 1159.92 1510.31 Q1151.39 1510.31 1146.4 1505.34 Q1141.43 1500.38 1141.43 1491.91 Q1141.43 1483.16 1146.14 1478.03 Q1150.88 1472.88 1158.91 1472.88 Q1166.1 1472.88 1170.27 1477.53 Q1174.47 1482.14 1174.47 1490.1 M1168.61 1488.38 Q1168.55 1483.57 1165.91 1480.71 Q1163.3 1477.84 1158.97 1477.84 Q1154.07 1477.84 1151.11 1480.61 Q1148.18 1483.38 1147.73 1488.41 L1168.61 1488.38 Z" fill="#000000" fill-rule="nonzero" fill-opacity="1" /><path clip-path="url(#clip810)" d="M1189.75 1504.04 L1189.75 1522.94 L1183.86 1522.94 L1183.86 1473.74 L1189.75 1473.74 L1189.75 1479.15 Q1191.59 1475.97 1194.39 1474.44 Q1197.23 1472.88 1201.14 1472.88 Q1207.64 1472.88 1211.68 1478.03 Q1215.75 1483.19 1215.75 1491.59 Q1215.75 1500 1211.68 1505.15 Q1207.64 1510.31 1201.14 1510.31 Q1197.23 1510.31 1194.39 1508.78 Q1191.59 1507.22 1189.75 1504.04 M1209.67 1491.59 Q1209.67 1485.13 1207 1481.47 Q1204.36 1477.78 1199.71 1477.78 Q1195.06 1477.78 1192.39 1481.47 Q1189.75 1485.13 1189.75 1491.59 Q1189.75 1498.05 1192.39 1501.75 Q1195.06 1505.41 1199.71 1505.41 Q1204.36 1505.41 1207 1501.75 Q1209.67 1498.05 1209.67 1491.59 Z" fill="#000000" fill-rule="nonzero" fill-opacity="1" /><path clip-path="url(#clip810)" d="M1239.27 1477.84 Q1234.56 1477.84 1231.82 1481.54 Q1229.09 1485.2 1229.09 1491.59 Q1229.09 1497.99 1231.79 1501.68 Q1234.53 1505.34 1239.27 1505.34 Q1243.95 1505.34 1246.69 1501.65 Q1249.43 1497.96 1249.43 1491.59 Q1249.43 1485.26 1246.69 1481.57 Q1243.95 1477.84 1239.27 1477.84 M1239.27 1472.88 Q1246.91 1472.88 1251.27 1477.84 Q1255.63 1482.81 1255.63 1491.59 Q1255.63 1500.35 1251.27 1505.34 Q1246.91 1510.31 1239.27 1510.31 Q1231.6 1510.31 1227.24 1505.34 Q1222.91 1500.35 1222.91 1491.59 Q1222.91 1482.81 1227.24 1477.84 Q1231.6 1472.88 1239.27 1472.88 Z" fill="#000000" fill-rule="nonzero" fill-opacity="1" /><path clip-path="url(#clip810)" d="M1290.99 1475.11 L1290.99 1480.58 Q1288.51 1479.21 1286 1478.54 Q1283.51 1477.84 1280.97 1477.84 Q1275.27 1477.84 1272.12 1481.47 Q1268.97 1485.07 1268.97 1491.59 Q1268.97 1498.12 1272.12 1501.75 Q1275.27 1505.34 1280.97 1505.34 Q1283.51 1505.34 1286 1504.67 Q1288.51 1503.97 1290.99 1502.61 L1290.99 1508.02 Q1288.54 1509.16 1285.9 1509.74 Q1283.29 1510.31 1280.33 1510.31 Q1272.28 1510.31 1267.54 1505.25 Q1262.79 1500.19 1262.79 1491.59 Q1262.79 1482.87 1267.57 1477.88 Q1272.37 1472.88 1280.71 1472.88 Q1283.42 1472.88 1286 1473.45 Q1288.58 1473.99 1290.99 1475.11 Z" fill="#000000" fill-rule="nonzero" fill-opacity="1" /><path clip-path="url(#clip810)" d="M1330.81 1487.87 L1330.81 1509.39 L1324.96 1509.39 L1324.96 1488.06 Q1324.96 1483 1322.98 1480.49 Q1321.01 1477.97 1317.06 1477.97 Q1312.32 1477.97 1309.58 1480.99 Q1306.84 1484.02 1306.84 1489.24 L1306.84 1509.39 L1300.96 1509.39 L1300.96 1459.86 L1306.84 1459.86 L1306.84 1479.28 Q1308.95 1476.06 1311.78 1474.47 Q1314.64 1472.88 1318.37 1472.88 Q1324.51 1472.88 1327.66 1476.7 Q1330.81 1480.49 1330.81 1487.87 Z" fill="#000000" fill-rule="nonzero" fill-opacity="1" /><path clip-path="url(#clip810)" d="M1365.22 1474.79 L1365.22 1480.33 Q1362.74 1479.05 1360.06 1478.42 Q1357.39 1477.78 1354.52 1477.78 Q1350.16 1477.78 1347.97 1479.12 Q1345.8 1480.45 1345.8 1483.13 Q1345.8 1485.16 1347.36 1486.34 Q1348.92 1487.49 1353.63 1488.54 L1355.64 1488.98 Q1361.88 1490.32 1364.49 1492.77 Q1367.13 1495.19 1367.13 1499.55 Q1367.13 1504.52 1363.18 1507.41 Q1359.27 1510.31 1352.39 1510.31 Q1349.53 1510.31 1346.41 1509.74 Q1343.32 1509.19 1339.88 1508.08 L1339.88 1502.03 Q1343.13 1503.72 1346.28 1504.58 Q1349.43 1505.41 1352.52 1505.41 Q1356.66 1505.41 1358.88 1504.01 Q1361.11 1502.57 1361.11 1500 Q1361.11 1497.61 1359.49 1496.34 Q1357.9 1495.06 1352.46 1493.88 L1350.42 1493.41 Q1344.98 1492.26 1342.56 1489.91 Q1340.14 1487.52 1340.14 1483.38 Q1340.14 1478.35 1343.7 1475.62 Q1347.27 1472.88 1353.82 1472.88 Q1357.07 1472.88 1359.93 1473.36 Q1362.8 1473.83 1365.22 1474.79 Z" fill="#000000" fill-rule="nonzero" fill-opacity="1" /><polyline clip-path="url(#clip812)" style="stroke:#000000; stroke-linecap:round; stroke-linejoin:round; stroke-width:2; stroke-opacity:0.1; fill:none" points="251.804,1206.6 2256.76,1206.6 "/>
<polyline clip-path="url(#clip812)" style="stroke:#000000; stroke-linecap:round; stroke-linejoin:round; stroke-width:2; stroke-opacity:0.1; fill:none" points="251.804,861.878 2256.76,861.878 "/>
<polyline clip-path="url(#clip812)" style="stroke:#000000; stroke-linecap:round; stroke-linejoin:round; stroke-width:2; stroke-opacity:0.1; fill:none" points="251.804,517.157 2256.76,517.157 "/>
<polyline clip-path="url(#clip812)" style="stroke:#000000; stroke-linecap:round; stroke-linejoin:round; stroke-width:2; stroke-opacity:0.1; fill:none" points="251.804,172.435 2256.76,172.435 "/>
<polyline clip-path="url(#clip810)" style="stroke:#000000; stroke-linecap:round; stroke-linejoin:round; stroke-width:4; stroke-opacity:1; fill:none" points="251.804,1347.54 251.804,47.2441 "/>
<polyline clip-path="url(#clip810)" style="stroke:#000000; stroke-linecap:round; stroke-linejoin:round; stroke-width:4; stroke-opacity:1; fill:none" points="251.804,1206.6 270.702,1206.6 "/>
<polyline clip-path="url(#clip810)" style="stroke:#000000; stroke-linecap:round; stroke-linejoin:round; stroke-width:4; stroke-opacity:1; fill:none" points="251.804,861.878 270.702,861.878 "/>
<polyline clip-path="url(#clip810)" style="stroke:#000000; stroke-linecap:round; stroke-linejoin:round; stroke-width:4; stroke-opacity:1; fill:none" points="251.804,517.157 270.702,517.157 "/>
<polyline clip-path="url(#clip810)" style="stroke:#000000; stroke-linecap:round; stroke-linejoin:round; stroke-width:4; stroke-opacity:1; fill:none" points="251.804,172.435 270.702,172.435 "/>
<path clip-path="url(#clip810)" d="M115.675 1226.39 L123.314 1226.39 L123.314 1200.03 L115.003 1201.69 L115.003 1197.43 L123.267 1195.77 L127.943 1195.77 L127.943 1226.39 L135.582 1226.39 L135.582 1230.33 L115.675 1230.33 L115.675 1226.39 Z" fill="#000000" fill-rule="nonzero" fill-opacity="1" /><path clip-path="url(#clip810)" d="M155.026 1198.85 Q151.415 1198.85 149.587 1202.41 Q147.781 1205.95 147.781 1213.08 Q147.781 1220.19 149.587 1223.75 Q151.415 1227.29 155.026 1227.29 Q158.661 1227.29 160.466 1223.75 Q162.295 1220.19 162.295 1213.08 Q162.295 1205.95 160.466 1202.41 Q158.661 1198.85 155.026 1198.85 M155.026 1195.14 Q160.837 1195.14 163.892 1199.75 Q166.971 1204.33 166.971 1213.08 Q166.971 1221.81 163.892 1226.42 Q160.837 1231 155.026 1231 Q149.216 1231 146.138 1226.42 Q143.082 1221.81 143.082 1213.08 Q143.082 1204.33 146.138 1199.75 Q149.216 1195.14 155.026 1195.14 Z" fill="#000000" fill-rule="nonzero" fill-opacity="1" /><path clip-path="url(#clip810)" d="M166.971 1189.24 L191.082 1189.24 L191.082 1192.44 L166.971 1192.44 L166.971 1189.24 Z" fill="#000000" fill-rule="nonzero" fill-opacity="1" /><path clip-path="url(#clip810)" d="M207.878 1187.36 Q205.32 1187.36 203.815 1189.11 Q202.329 1190.86 202.329 1193.91 Q202.329 1196.94 203.815 1198.7 Q205.32 1200.45 207.878 1200.45 Q210.436 1200.45 211.921 1198.7 Q213.426 1196.94 213.426 1193.91 Q213.426 1190.86 211.921 1189.11 Q210.436 1187.36 207.878 1187.36 M215.42 1175.46 L215.42 1178.92 Q213.99 1178.24 212.523 1177.88 Q211.075 1177.53 209.646 1177.53 Q205.884 1177.53 203.89 1180.07 Q201.916 1182.6 201.633 1187.74 Q202.743 1186.1 204.417 1185.24 Q206.091 1184.35 208.103 1184.35 Q212.335 1184.35 214.78 1186.93 Q217.244 1189.49 217.244 1193.91 Q217.244 1198.23 214.686 1200.85 Q212.128 1203.46 207.878 1203.46 Q203.006 1203.46 200.43 1199.74 Q197.853 1196 197.853 1188.9 Q197.853 1182.25 201.013 1178.3 Q204.173 1174.33 209.495 1174.33 Q210.925 1174.33 212.373 1174.61 Q213.84 1174.89 215.42 1175.46 Z" fill="#000000" fill-rule="nonzero" fill-opacity="1" /><path clip-path="url(#clip810)" d="M116.615 881.671 L124.254 881.671 L124.254 855.305 L115.944 856.972 L115.944 852.712 L124.208 851.046 L128.884 851.046 L128.884 881.671 L136.522 881.671 L136.522 885.606 L116.615 885.606 L116.615 881.671 Z" fill="#000000" fill-rule="nonzero" fill-opacity="1" /><path clip-path="url(#clip810)" d="M155.967 854.124 Q152.356 854.124 150.527 857.689 Q148.721 861.231 148.721 868.36 Q148.721 875.467 150.527 879.032 Q152.356 882.573 155.967 882.573 Q159.601 882.573 161.407 879.032 Q163.235 875.467 163.235 868.36 Q163.235 861.231 161.407 857.689 Q159.601 854.124 155.967 854.124 M155.967 850.421 Q161.777 850.421 164.832 855.027 Q167.911 859.61 167.911 868.36 Q167.911 877.087 164.832 881.694 Q161.777 886.277 155.967 886.277 Q150.157 886.277 147.078 881.694 Q144.022 877.087 144.022 868.36 Q144.022 859.61 147.078 855.027 Q150.157 850.421 155.967 850.421 Z" fill="#000000" fill-rule="nonzero" fill-opacity="1" /><path clip-path="url(#clip810)" d="M167.911 844.522 L192.023 844.522 L192.023 847.719 L167.911 847.719 L167.911 844.522 Z" fill="#000000" fill-rule="nonzero" fill-opacity="1" /><path clip-path="url(#clip810)" d="M200.261 830.115 L215.175 830.115 L215.175 833.313 L203.74 833.313 L203.74 840.196 Q204.568 839.914 205.395 839.783 Q206.223 839.632 207.05 839.632 Q211.752 839.632 214.498 842.209 Q217.244 844.785 217.244 849.186 Q217.244 853.719 214.423 856.239 Q211.602 858.741 206.467 858.741 Q204.699 858.741 202.856 858.44 Q201.032 858.139 199.076 857.537 L199.076 853.719 Q200.768 854.641 202.574 855.092 Q204.379 855.543 206.392 855.543 Q209.646 855.543 211.545 853.832 Q213.445 852.12 213.445 849.186 Q213.445 846.252 211.545 844.541 Q209.646 842.829 206.392 842.829 Q204.868 842.829 203.345 843.168 Q201.84 843.506 200.261 844.221 L200.261 830.115 Z" fill="#000000" fill-rule="nonzero" fill-opacity="1" /><path clip-path="url(#clip810)" d="M115.411 536.949 L123.05 536.949 L123.05 510.584 L114.74 512.25 L114.74 507.991 L123.004 506.324 L127.68 506.324 L127.68 536.949 L135.319 536.949 L135.319 540.884 L115.411 540.884 L115.411 536.949 Z" fill="#000000" fill-rule="nonzero" fill-opacity="1" /><path clip-path="url(#clip810)" d="M154.763 509.403 Q151.152 509.403 149.323 512.968 Q147.518 516.509 147.518 523.639 Q147.518 530.745 149.323 534.31 Q151.152 537.852 154.763 537.852 Q158.397 537.852 160.203 534.31 Q162.032 530.745 162.032 523.639 Q162.032 516.509 160.203 512.968 Q158.397 509.403 154.763 509.403 M154.763 505.699 Q160.573 505.699 163.629 510.306 Q166.707 514.889 166.707 523.639 Q166.707 532.366 163.629 536.972 Q160.573 541.556 154.763 541.556 Q148.953 541.556 145.874 536.972 Q142.819 532.366 142.819 523.639 Q142.819 514.889 145.874 510.306 Q148.953 505.699 154.763 505.699 Z" fill="#000000" fill-rule="nonzero" fill-opacity="1" /><path clip-path="url(#clip810)" d="M166.707 499.801 L190.819 499.801 L190.819 502.998 L166.707 502.998 L166.707 499.801 Z" fill="#000000" fill-rule="nonzero" fill-opacity="1" /><path clip-path="url(#clip810)" d="M209.458 488.704 L199.866 503.694 L209.458 503.694 L209.458 488.704 M208.461 485.394 L213.238 485.394 L213.238 503.694 L217.244 503.694 L217.244 506.854 L213.238 506.854 L213.238 513.474 L209.458 513.474 L209.458 506.854 L196.781 506.854 L196.781 503.186 L208.461 485.394 Z" fill="#000000" fill-rule="nonzero" fill-opacity="1" /><path clip-path="url(#clip810)" d="M116.333 192.228 L123.972 192.228 L123.972 165.862 L115.662 167.529 L115.662 163.27 L123.926 161.603 L128.601 161.603 L128.601 192.228 L136.24 192.228 L136.24 196.163 L116.333 196.163 L116.333 192.228 Z" fill="#000000" fill-rule="nonzero" fill-opacity="1" /><path clip-path="url(#clip810)" d="M155.685 164.682 Q152.074 164.682 150.245 168.246 Q148.439 171.788 148.439 178.918 Q148.439 186.024 150.245 189.589 Q152.074 193.13 155.685 193.13 Q159.319 193.13 161.124 189.589 Q162.953 186.024 162.953 178.918 Q162.953 171.788 161.124 168.246 Q159.319 164.682 155.685 164.682 M155.685 160.978 Q161.495 160.978 164.55 165.584 Q167.629 170.168 167.629 178.918 Q167.629 187.644 164.55 192.251 Q161.495 196.834 155.685 196.834 Q149.875 196.834 146.796 192.251 Q143.74 187.644 143.74 178.918 Q143.74 170.168 146.796 165.584 Q149.875 160.978 155.685 160.978 Z" fill="#000000" fill-rule="nonzero" fill-opacity="1" /><path clip-path="url(#clip810)" d="M167.629 155.079 L191.741 155.079 L191.741 158.277 L167.629 158.277 L167.629 155.079 Z" fill="#000000" fill-rule="nonzero" fill-opacity="1" /><path clip-path="url(#clip810)" d="M211.451 153.612 Q214.178 154.195 215.702 156.038 Q217.244 157.882 217.244 160.59 Q217.244 164.746 214.385 167.022 Q211.526 169.298 206.26 169.298 Q204.492 169.298 202.612 168.941 Q200.75 168.602 198.756 167.906 L198.756 164.239 Q200.336 165.16 202.217 165.63 Q204.097 166.101 206.147 166.101 Q209.721 166.101 211.583 164.69 Q213.464 163.279 213.464 160.59 Q213.464 158.107 211.714 156.716 Q209.984 155.305 206.881 155.305 L203.608 155.305 L203.608 152.183 L207.031 152.183 Q209.834 152.183 211.32 151.073 Q212.805 149.945 212.805 147.838 Q212.805 145.675 211.263 144.528 Q209.74 143.362 206.881 143.362 Q205.32 143.362 203.533 143.701 Q201.746 144.039 199.602 144.754 L199.602 141.368 Q201.765 140.767 203.646 140.466 Q205.546 140.165 207.219 140.165 Q211.545 140.165 214.065 142.139 Q216.586 144.095 216.586 147.443 Q216.586 149.775 215.25 151.393 Q213.915 152.992 211.451 153.612 Z" fill="#000000" fill-rule="nonzero" fill-opacity="1" /><path clip-path="url(#clip810)" d="M18.4042 761.509 L18.4042 751.929 L50.7419 739.802 L18.4042 727.612 L18.4042 718.031 L65.9242 718.031 L65.9242 724.301 L24.197 724.301 L56.7894 736.555 L56.7894 743.017 L24.197 755.271 L65.9242 755.271 L65.9242 761.509 L18.4042 761.509 Z" fill="#000000" fill-rule="nonzero" fill-opacity="1" /><path clip-path="url(#clip810)" d="M19.9638 676.781 L26.234 676.781 Q24.4834 680.442 23.624 683.688 Q22.7647 686.935 22.7647 689.958 Q22.7647 695.21 24.8017 698.075 Q26.8387 700.907 30.5945 700.907 Q33.7455 700.907 35.3688 699.03 Q36.9602 697.12 37.9469 691.836 L38.7426 687.953 Q40.1112 680.76 43.5805 677.354 Q47.018 673.917 52.8108 673.917 Q59.7176 673.917 63.2824 678.564 Q66.8472 683.179 66.8472 692.123 Q66.8472 695.497 66.0833 699.316 Q65.3194 703.104 63.8235 707.178 L57.2031 707.178 Q59.3993 703.263 60.5133 699.507 Q61.6273 695.751 61.6273 692.123 Q61.6273 686.616 59.463 683.625 Q57.2986 680.633 53.2882 680.633 Q49.7871 680.633 47.8137 682.797 Q45.8404 684.929 44.8537 689.831 L44.0898 693.746 Q42.6575 700.939 39.602 704.154 Q36.5464 707.369 31.1037 707.369 Q24.8017 707.369 21.1732 702.944 Q17.5448 698.488 17.5448 690.69 Q17.5448 687.348 18.1495 683.879 Q18.7543 680.41 19.9638 676.781 Z" fill="#000000" fill-rule="nonzero" fill-opacity="1" /><path clip-path="url(#clip810)" d="M18.4042 663.891 L18.4042 633.845 L23.815 633.845 L23.815 657.461 L37.8832 657.461 L37.8832 634.831 L43.2941 634.831 L43.2941 657.461 L60.5133 657.461 L60.5133 633.272 L65.9242 633.272 L65.9242 663.891 L18.4042 663.891 Z" fill="#000000" fill-rule="nonzero" fill-opacity="1" /><circle clip-path="url(#clip812)" cx="308.548" cy="454.691" r="18" fill="#78c2ad" fill-rule="evenodd" fill-opacity="0.6" stroke="#000000" stroke-opacity="0.6" stroke-width="3.072"/>
<circle clip-path="url(#clip812)" cx="939.036" cy="699.917" r="18" fill="#78c2ad" fill-rule="evenodd" fill-opacity="0.6" stroke="#000000" stroke-opacity="0.6" stroke-width="3.072"/>
<circle clip-path="url(#clip812)" cx="1569.52" cy="1045.69" r="18" fill="#78c2ad" fill-rule="evenodd" fill-opacity="0.6" stroke="#000000" stroke-opacity="0.6" stroke-width="3.072"/>
<circle clip-path="url(#clip812)" cx="2200.01" cy="1304.87" r="18" fill="#78c2ad" fill-rule="evenodd" fill-opacity="0.6" stroke="#000000" stroke-opacity="0.6" stroke-width="3.072"/>
<polyline clip-path="url(#clip812)" style="stroke:#78c2ad; stroke-linecap:round; stroke-linejoin:round; stroke-width:8; stroke-opacity:1; fill:none" points="308.548,441.846 327.654,450.622 346.759,459.399 365.865,468.176 384.971,476.952 404.076,485.729 423.182,494.506 442.288,503.282 461.393,512.059 480.499,520.836 499.605,529.612 518.711,538.389 537.816,547.166 556.922,555.943 576.028,564.719 595.133,573.496 614.239,582.273 633.345,591.049 652.45,599.826 671.556,608.603 690.662,617.379 709.768,626.156 728.873,634.933 747.979,643.709 767.085,652.486 786.19,661.263 805.296,670.039 824.402,678.816 843.507,687.593 862.613,696.369 881.719,705.146 900.825,713.923 919.93,722.699 939.036,731.476 958.142,740.253 977.247,749.029 996.353,757.806 1015.46,766.583 1034.56,775.359 1053.67,784.136 1072.78,792.913 1091.88,801.689 1110.99,810.466 1130.09,819.243 1149.2,828.019 1168.3,836.796 1187.41,845.573 1206.52,854.349 1225.62,863.126 1244.73,871.903 1263.83,880.679 1282.94,889.456 1302.04,898.233 1321.15,907.009 1340.26,915.786 1359.36,924.563 1378.47,933.339 1397.57,942.116 1416.68,950.893 1435.78,959.669 1454.89,968.446 1474,977.223 1493.1,985.999 1512.21,994.776 1531.31,1003.55 1550.42,1012.33 1569.52,1021.11 1588.63,1029.88 1607.74,1038.66 1626.84,1047.44 1645.95,1056.21 1665.05,1064.99 1684.16,1073.77 1703.26,1082.54 1722.37,1091.32 1741.48,1100.1 1760.58,1108.87 1779.69,1117.65 1798.79,1126.43 1817.9,1135.2 1837,1143.98 1856.11,1152.76 1875.22,1161.53 1894.32,1170.31 1913.43,1179.09 1932.53,1187.86 1951.64,1196.64 1970.74,1205.42 1989.85,1214.19 2008.96,1222.97 2028.06,1231.75 2047.17,1240.52 2066.27,1249.3 2085.38,1258.08 2104.48,1266.85 2123.59,1275.63 2142.69,1284.41 2161.8,1293.18 2180.91,1301.96 2200.01,1310.74 "/>
<circle clip-path="url(#clip812)" cx="308.548" cy="122.998" r="18" fill="#e95420" fill-rule="evenodd" fill-opacity="0.6" stroke="#000000" stroke-opacity="0.6" stroke-width="3.072"/>
<circle clip-path="url(#clip812)" cx="939.036" cy="344.372" r="18" fill="#e95420" fill-rule="evenodd" fill-opacity="0.6" stroke="#000000" stroke-opacity="0.6" stroke-width="3.072"/>
<circle clip-path="url(#clip812)" cx="1569.52" cy="618.467" r="18" fill="#e95420" fill-rule="evenodd" fill-opacity="0.6" stroke="#000000" stroke-opacity="0.6" stroke-width="3.072"/>
<circle clip-path="url(#clip812)" cx="2200.01" cy="1008.25" r="18" fill="#e95420" fill-rule="evenodd" fill-opacity="0.6" stroke="#000000" stroke-opacity="0.6" stroke-width="3.072"/>
<polyline clip-path="url(#clip812)" style="stroke:#e95420; stroke-linecap:round; stroke-linejoin:round; stroke-width:8; stroke-opacity:1; fill:none" stroke-dasharray="32, 20" points="308.548,84.0448 327.654,92.9231 346.759,101.801 365.865,110.68 384.971,119.558 404.076,128.436 423.182,137.315 442.288,146.193 461.393,155.071 480.499,163.949 499.605,172.828 518.711,181.706 537.816,190.584 556.922,199.463 576.028,208.341 595.133,217.219 614.239,226.098 633.345,234.976 652.45,243.854 671.556,252.732 690.662,261.611 709.768,270.489 728.873,279.367 747.979,288.246 767.085,297.124 786.19,306.002 805.296,314.881 824.402,323.759 843.507,332.637 862.613,341.515 881.719,350.394 900.825,359.272 919.93,368.15 939.036,377.029 958.142,385.907 977.247,394.785 996.353,403.664 1015.46,412.542 1034.56,421.42 1053.67,430.298 1072.78,439.177 1091.88,448.055 1110.99,456.933 1130.09,465.812 1149.2,474.69 1168.3,483.568 1187.41,492.446 1206.52,501.325 1225.62,510.203 1244.73,519.081 1263.83,527.96 1282.94,536.838 1302.04,545.716 1321.15,554.595 1340.26,563.473 1359.36,572.351 1378.47,581.229 1397.57,590.108 1416.68,598.986 1435.78,607.864 1454.89,616.743 1474,625.621 1493.1,634.499 1512.21,643.378 1531.31,652.256 1550.42,661.134 1569.52,670.012 1588.63,678.891 1607.74,687.769 1626.84,696.647 1645.95,705.526 1665.05,714.404 1684.16,723.282 1703.26,732.16 1722.37,741.039 1741.48,749.917 1760.58,758.795 1779.69,767.674 1798.79,776.552 1817.9,785.43 1837,794.309 1856.11,803.187 1875.22,812.065 1894.32,820.943 1913.43,829.822 1932.53,838.7 1951.64,847.578 1970.74,856.457 1989.85,865.335 2008.96,874.213 2028.06,883.092 2047.17,891.97 2066.27,900.848 2085.38,909.726 2104.48,918.605 2123.59,927.483 2142.69,936.361 2161.8,945.24 2180.91,954.118 2200.01,962.996 "/>
<path clip-path="url(#clip810)" d="M1315.01 246.107 L2189.92 246.107 L2189.92 90.5872 L1315.01 90.5872  Z" fill="#f0f1eb" fill-rule="evenodd" fill-opacity="1"/>
<polyline clip-path="url(#clip810)" style="stroke:#000000; stroke-linecap:round; stroke-linejoin:round; stroke-width:4; stroke-opacity:1; fill:none" points="1315.01,246.107 2189.92,246.107 2189.92,90.5872 1315.01,90.5872 1315.01,246.107 "/>
<polyline clip-path="url(#clip810)" style="stroke:#78c2ad; stroke-linecap:round; stroke-linejoin:round; stroke-width:8; stroke-opacity:1; fill:none" points="1337.29,142.427 1470.95,142.427 "/>
<path clip-path="url(#clip810)" d="M1493.76 125.147 L1520.91 125.147 L1520.91 128.712 L1499.06 155.772 L1521.45 155.772 L1521.45 159.707 L1493.23 159.707 L1493.23 156.142 L1515.08 129.082 L1493.76 129.082 L1493.76 125.147 Z" fill="#000000" fill-rule="nonzero" fill-opacity="1" /><path clip-path="url(#clip810)" d="M1526.24 125.147 L1553.39 125.147 L1553.39 128.712 L1531.54 155.772 L1553.92 155.772 L1553.92 159.707 L1525.71 159.707 L1525.71 156.142 L1547.56 129.082 L1526.24 129.082 L1526.24 125.147 Z" fill="#000000" fill-rule="nonzero" fill-opacity="1" /><polyline clip-path="url(#clip810)" style="stroke:#e95420; stroke-linecap:round; stroke-linejoin:round; stroke-width:8; stroke-opacity:1; fill:none" stroke-dasharray="32, 20" points="1337.29,194.267 1470.95,194.267 "/>
<path clip-path="url(#clip810)" d="M1493.76 176.987 L1520.91 176.987 L1520.91 180.552 L1499.06 207.612 L1521.45 207.612 L1521.45 211.547 L1493.23 211.547 L1493.23 207.982 L1515.08 180.922 L1493.76 180.922 L1493.76 176.987 Z" fill="#000000" fill-rule="nonzero" fill-opacity="1" /><path clip-path="url(#clip810)" d="M1526.24 176.987 L1553.39 176.987 L1553.39 180.552 L1531.54 207.612 L1553.92 207.612 L1553.92 211.547 L1525.71 211.547 L1525.71 207.982 L1547.56 180.922 L1526.24 180.922 L1526.24 176.987 Z" fill="#000000" fill-rule="nonzero" fill-opacity="1" /><path clip-path="url(#clip810)" d="M1557.53 196.663 L1570.01 196.663 L1570.01 200.459 L1557.53 200.459 L1557.53 196.663 Z" fill="#000000" fill-rule="nonzero" fill-opacity="1" /><path clip-path="url(#clip810)" d="M1602.86 179.649 L1602.86 184.58 Q1600.5 182.381 1597.81 181.293 Q1595.15 180.205 1592.14 180.205 Q1586.21 180.205 1583.07 183.839 Q1579.92 187.45 1579.92 194.302 Q1579.92 201.131 1583.07 204.765 Q1586.21 208.376 1592.14 208.376 Q1595.15 208.376 1597.81 207.288 Q1600.5 206.2 1602.86 204.001 L1602.86 208.885 Q1600.4 210.552 1597.65 211.385 Q1594.92 212.218 1591.86 212.218 Q1584.02 212.218 1579.5 207.427 Q1574.99 202.612 1574.99 194.302 Q1574.99 185.969 1579.5 181.177 Q1584.02 176.362 1591.86 176.362 Q1594.96 176.362 1597.7 177.196 Q1600.45 178.006 1602.86 179.649 Z" fill="#000000" fill-rule="nonzero" fill-opacity="1" /><path clip-path="url(#clip810)" d="M1618.99 211.547 L1605.8 176.987 L1610.68 176.987 L1621.63 206.084 L1632.6 176.987 L1637.46 176.987 L1624.29 211.547 L1618.99 211.547 Z" fill="#000000" fill-rule="nonzero" fill-opacity="1" /><path clip-path="url(#clip810)" d="M1667.63 175.575 Q1664.52 180.899 1663.02 186.108 Q1661.52 191.316 1661.52 196.663 Q1661.52 202.01 1663.02 207.265 Q1664.55 212.496 1667.63 217.797 L1663.92 217.797 Q1660.45 212.357 1658.71 207.103 Q1657 201.848 1657 196.663 Q1657 191.501 1658.71 186.27 Q1660.43 181.038 1663.92 175.575 L1667.63 175.575 Z" fill="#000000" fill-rule="nonzero" fill-opacity="1" /><path clip-path="url(#clip810)" d="M1673.41 185.621 L1677.67 185.621 L1683 205.853 L1688.3 185.621 L1693.32 185.621 L1698.64 205.853 L1703.95 185.621 L1708.2 185.621 L1701.42 211.547 L1696.4 211.547 L1690.82 190.297 L1685.22 211.547 L1680.2 211.547 L1673.41 185.621 Z" fill="#000000" fill-rule="nonzero" fill-opacity="1" /><path clip-path="url(#clip810)" d="M1714.66 185.621 L1718.92 185.621 L1718.92 211.547 L1714.66 211.547 L1714.66 185.621 M1714.66 175.529 L1718.92 175.529 L1718.92 180.922 L1714.66 180.922 L1714.66 175.529 Z" fill="#000000" fill-rule="nonzero" fill-opacity="1" /><path clip-path="url(#clip810)" d="M1732.05 178.26 L1732.05 185.621 L1740.82 185.621 L1740.82 188.932 L1732.05 188.932 L1732.05 203.006 Q1732.05 206.177 1732.9 207.08 Q1733.78 207.982 1736.45 207.982 L1740.82 207.982 L1740.82 211.547 L1736.45 211.547 Q1731.52 211.547 1729.64 209.718 Q1727.77 207.867 1727.77 203.006 L1727.77 188.932 L1724.64 188.932 L1724.64 185.621 L1727.77 185.621 L1727.77 178.26 L1732.05 178.26 Z" fill="#000000" fill-rule="nonzero" fill-opacity="1" /><path clip-path="url(#clip810)" d="M1767.97 195.899 L1767.97 211.547 L1763.71 211.547 L1763.71 196.038 Q1763.71 192.357 1762.28 190.529 Q1760.84 188.7 1757.97 188.7 Q1754.52 188.7 1752.53 190.899 Q1750.54 193.098 1750.54 196.894 L1750.54 211.547 L1746.26 211.547 L1746.26 175.529 L1750.54 175.529 L1750.54 189.649 Q1752.07 187.311 1754.13 186.154 Q1756.21 184.996 1758.92 184.996 Q1763.39 184.996 1765.68 187.774 Q1767.97 190.529 1767.97 195.899 Z" fill="#000000" fill-rule="nonzero" fill-opacity="1" /><path clip-path="url(#clip810)" d="M1786.51 188.607 Q1783.09 188.607 1781.1 191.293 Q1779.11 193.955 1779.11 198.607 Q1779.11 203.26 1781.07 205.945 Q1783.07 208.607 1786.51 208.607 Q1789.92 208.607 1791.91 205.922 Q1793.9 203.237 1793.9 198.607 Q1793.9 194.001 1791.91 191.316 Q1789.92 188.607 1786.51 188.607 M1786.51 184.996 Q1792.07 184.996 1795.24 188.607 Q1798.41 192.219 1798.41 198.607 Q1798.41 204.973 1795.24 208.607 Q1792.07 212.218 1786.51 212.218 Q1780.94 212.218 1777.76 208.607 Q1774.62 204.973 1774.62 198.607 Q1774.62 192.219 1777.76 188.607 Q1780.94 184.996 1786.51 184.996 Z" fill="#000000" fill-rule="nonzero" fill-opacity="1" /><path clip-path="url(#clip810)" d="M1805.03 201.316 L1805.03 185.621 L1809.29 185.621 L1809.29 201.154 Q1809.29 204.834 1810.73 206.686 Q1812.16 208.515 1815.03 208.515 Q1818.48 208.515 1820.47 206.316 Q1822.49 204.117 1822.49 200.32 L1822.49 185.621 L1826.75 185.621 L1826.75 211.547 L1822.49 211.547 L1822.49 207.566 Q1820.94 209.927 1818.88 211.084 Q1816.84 212.218 1814.13 212.218 Q1809.66 212.218 1807.35 209.441 Q1805.03 206.663 1805.03 201.316 M1815.75 184.996 L1815.75 184.996 Z" fill="#000000" fill-rule="nonzero" fill-opacity="1" /><path clip-path="url(#clip810)" d="M1839.73 178.26 L1839.73 185.621 L1848.51 185.621 L1848.51 188.932 L1839.73 188.932 L1839.73 203.006 Q1839.73 206.177 1840.59 207.08 Q1841.47 207.982 1844.13 207.982 L1848.51 207.982 L1848.51 211.547 L1844.13 211.547 Q1839.2 211.547 1837.32 209.718 Q1835.45 207.867 1835.45 203.006 L1835.45 188.932 L1832.32 188.932 L1832.32 185.621 L1835.45 185.621 L1835.45 178.26 L1839.73 178.26 Z" fill="#000000" fill-rule="nonzero" fill-opacity="1" /><path clip-path="url(#clip810)" d="M1880.96 198.515 Q1875.8 198.515 1873.81 199.695 Q1871.82 200.876 1871.82 203.723 Q1871.82 205.992 1873.3 207.334 Q1874.8 208.654 1877.37 208.654 Q1880.91 208.654 1883.04 206.154 Q1885.19 203.631 1885.19 199.464 L1885.19 198.515 L1880.96 198.515 M1889.45 196.756 L1889.45 211.547 L1885.19 211.547 L1885.19 207.612 Q1883.74 209.973 1881.56 211.107 Q1879.38 212.218 1876.24 212.218 Q1872.25 212.218 1869.89 209.996 Q1867.56 207.751 1867.56 204.001 Q1867.56 199.626 1870.47 197.404 Q1873.41 195.182 1879.22 195.182 L1885.19 195.182 L1885.19 194.765 Q1885.19 191.825 1883.25 190.228 Q1881.33 188.607 1877.83 188.607 Q1875.61 188.607 1873.5 189.14 Q1871.4 189.672 1869.45 190.737 L1869.45 186.802 Q1871.79 185.899 1873.99 185.459 Q1876.19 184.996 1878.27 184.996 Q1883.9 184.996 1886.68 187.913 Q1889.45 190.83 1889.45 196.756 Z" fill="#000000" fill-rule="nonzero" fill-opacity="1" /><path clip-path="url(#clip810)" d="M1918.41 190.598 Q1920.01 187.728 1922.23 186.362 Q1924.45 184.996 1927.46 184.996 Q1931.51 184.996 1933.71 187.844 Q1935.91 190.668 1935.91 195.899 L1935.91 211.547 L1931.63 211.547 L1931.63 196.038 Q1931.63 192.311 1930.31 190.506 Q1928.99 188.7 1926.28 188.7 Q1922.97 188.7 1921.05 190.899 Q1919.13 193.098 1919.13 196.894 L1919.13 211.547 L1914.85 211.547 L1914.85 196.038 Q1914.85 192.288 1913.53 190.506 Q1912.21 188.7 1909.45 188.7 Q1906.19 188.7 1904.27 190.922 Q1902.35 193.121 1902.35 196.894 L1902.35 211.547 L1898.07 211.547 L1898.07 185.621 L1902.35 185.621 L1902.35 189.649 Q1903.81 187.265 1905.84 186.131 Q1907.88 184.996 1910.68 184.996 Q1913.5 184.996 1915.47 186.432 Q1917.46 187.867 1918.41 190.598 Z" fill="#000000" fill-rule="nonzero" fill-opacity="1" /><path clip-path="url(#clip810)" d="M1966.58 197.519 L1966.58 199.603 L1947 199.603 Q1947.28 204.001 1949.64 206.316 Q1952.02 208.607 1956.26 208.607 Q1958.71 208.607 1961 208.006 Q1963.32 207.404 1965.59 206.2 L1965.59 210.228 Q1963.3 211.2 1960.89 211.709 Q1958.48 212.218 1956 212.218 Q1949.8 212.218 1946.17 208.607 Q1942.56 204.996 1942.56 198.839 Q1942.56 192.473 1945.98 188.746 Q1949.43 184.996 1955.26 184.996 Q1960.5 184.996 1963.53 188.376 Q1966.58 191.732 1966.58 197.519 M1962.32 196.269 Q1962.28 192.774 1960.36 190.691 Q1958.46 188.607 1955.31 188.607 Q1951.75 188.607 1949.59 190.621 Q1947.46 192.635 1947.14 196.293 L1962.32 196.269 Z" fill="#000000" fill-rule="nonzero" fill-opacity="1" /><path clip-path="url(#clip810)" d="M1995.12 195.899 L1995.12 211.547 L1990.87 211.547 L1990.87 196.038 Q1990.87 192.357 1989.43 190.529 Q1988 188.7 1985.12 188.7 Q1981.68 188.7 1979.68 190.899 Q1977.69 193.098 1977.69 196.894 L1977.69 211.547 L1973.41 211.547 L1973.41 185.621 L1977.69 185.621 L1977.69 189.649 Q1979.22 187.311 1981.28 186.154 Q1983.37 184.996 1986.07 184.996 Q1990.54 184.996 1992.83 187.774 Q1995.12 190.529 1995.12 195.899 Z" fill="#000000" fill-rule="nonzero" fill-opacity="1" /><path clip-path="url(#clip810)" d="M2020.68 189.557 L2020.68 175.529 L2024.94 175.529 L2024.94 211.547 L2020.68 211.547 L2020.68 207.658 Q2019.34 209.973 2017.28 211.107 Q2015.24 212.218 2012.37 212.218 Q2007.67 212.218 2004.71 208.468 Q2001.77 204.719 2001.77 198.607 Q2001.77 192.496 2004.71 188.746 Q2007.67 184.996 2012.37 184.996 Q2015.24 184.996 2017.28 186.131 Q2019.34 187.242 2020.68 189.557 M2006.17 198.607 Q2006.17 203.306 2008.09 205.992 Q2010.03 208.654 2013.41 208.654 Q2016.79 208.654 2018.74 205.992 Q2020.68 203.306 2020.68 198.607 Q2020.68 193.908 2018.74 191.246 Q2016.79 188.561 2013.41 188.561 Q2010.03 188.561 2008.09 191.246 Q2006.17 193.908 2006.17 198.607 Z" fill="#000000" fill-rule="nonzero" fill-opacity="1" /><path clip-path="url(#clip810)" d="M2053.9 190.598 Q2055.49 187.728 2057.72 186.362 Q2059.94 184.996 2062.95 184.996 Q2067 184.996 2069.2 187.844 Q2071.4 190.668 2071.4 195.899 L2071.4 211.547 L2067.12 211.547 L2067.12 196.038 Q2067.12 192.311 2065.8 190.506 Q2064.48 188.7 2061.77 188.7 Q2058.46 188.7 2056.54 190.899 Q2054.62 193.098 2054.62 196.894 L2054.62 211.547 L2050.33 211.547 L2050.33 196.038 Q2050.33 192.288 2049.01 190.506 Q2047.69 188.7 2044.94 188.7 Q2041.68 188.7 2039.75 190.922 Q2037.83 193.121 2037.83 196.894 L2037.83 211.547 L2033.55 211.547 L2033.55 185.621 L2037.83 185.621 L2037.83 189.649 Q2039.29 187.265 2041.33 186.131 Q2043.37 184.996 2046.17 184.996 Q2048.99 184.996 2050.96 186.432 Q2052.95 187.867 2053.9 190.598 Z" fill="#000000" fill-rule="nonzero" fill-opacity="1" /><path clip-path="url(#clip810)" d="M2102.07 197.519 L2102.07 199.603 L2082.49 199.603 Q2082.76 204.001 2085.12 206.316 Q2087.51 208.607 2091.74 208.607 Q2094.2 208.607 2096.49 208.006 Q2098.8 207.404 2101.07 206.2 L2101.07 210.228 Q2098.78 211.2 2096.37 211.709 Q2093.97 212.218 2091.49 212.218 Q2085.29 212.218 2081.65 208.607 Q2078.04 204.996 2078.04 198.839 Q2078.04 192.473 2081.47 188.746 Q2084.92 184.996 2090.75 184.996 Q2095.98 184.996 2099.01 188.376 Q2102.07 191.732 2102.07 197.519 M2097.81 196.269 Q2097.76 192.774 2095.84 190.691 Q2093.94 188.607 2090.8 188.607 Q2087.23 188.607 2085.08 190.621 Q2082.95 192.635 2082.62 196.293 L2097.81 196.269 Z" fill="#000000" fill-rule="nonzero" fill-opacity="1" /><path clip-path="url(#clip810)" d="M2130.61 195.899 L2130.61 211.547 L2126.35 211.547 L2126.35 196.038 Q2126.35 192.357 2124.92 190.529 Q2123.48 188.7 2120.61 188.7 Q2117.16 188.7 2115.17 190.899 Q2113.18 193.098 2113.18 196.894 L2113.18 211.547 L2108.9 211.547 L2108.9 185.621 L2113.18 185.621 L2113.18 189.649 Q2114.71 187.311 2116.77 186.154 Q2118.85 184.996 2121.56 184.996 Q2126.03 184.996 2128.32 187.774 Q2130.61 190.529 2130.61 195.899 Z" fill="#000000" fill-rule="nonzero" fill-opacity="1" /><path clip-path="url(#clip810)" d="M2143.32 178.26 L2143.32 185.621 L2152.09 185.621 L2152.09 188.932 L2143.32 188.932 L2143.32 203.006 Q2143.32 206.177 2144.17 207.08 Q2145.05 207.982 2147.72 207.982 L2152.09 207.982 L2152.09 211.547 L2147.72 211.547 Q2142.79 211.547 2140.91 209.718 Q2139.04 207.867 2139.04 203.006 L2139.04 188.932 L2135.91 188.932 L2135.91 185.621 L2139.04 185.621 L2139.04 178.26 L2143.32 178.26 Z" fill="#000000" fill-rule="nonzero" fill-opacity="1" /><path clip-path="url(#clip810)" d="M2157.02 175.575 L2160.73 175.575 Q2164.2 181.038 2165.91 186.27 Q2167.65 191.501 2167.65 196.663 Q2167.65 201.848 2165.91 207.103 Q2164.2 212.357 2160.73 217.797 L2157.02 217.797 Q2160.1 212.496 2161.61 207.265 Q2163.13 202.01 2163.13 196.663 Q2163.13 191.316 2161.61 186.108 Q2160.1 180.899 2157.02 175.575 Z" fill="#000000" fill-rule="nonzero" fill-opacity="1" /></svg>
