<?xml version="1.0" encoding="utf-8"?>
<svg xmlns="http://www.w3.org/2000/svg" xmlns:xlink="http://www.w3.org/1999/xlink" width="576" height="384" viewBox="0 0 2304 1536">
<defs>
  <clipPath id="clip070">
    <rect x="0" y="0" width="2304" height="1536"/>
  </clipPath>
</defs>
<path clip-path="url(#clip070)" d="M0 1536 L2304 1536 L2304 8.52651e-14 L0 8.52651e-14  Z" fill="#f0f1eb" fill-rule="evenodd" fill-opacity="1"/>
<defs>
  <clipPath id="clip071">
    <rect x="460" y="0" width="1614" height="1536"/>
  </clipPath>
</defs>
<path clip-path="url(#clip070)" d="M251.541 1347.54 L2256.76 1347.54 L2256.76 47.2441 L251.541 47.2441  Z" fill="#f0f1eb" fill-rule="evenodd" fill-opacity="1"/>
<defs>
  <clipPath id="clip072">
    <rect x="251" y="47" width="2006" height="1301"/>
  </clipPath>
</defs>
<polyline clip-path="url(#clip072)" style="stroke:#000000; stroke-linecap:round; stroke-linejoin:round; stroke-width:2; stroke-opacity:0.1; fill:none" points="938.863,1347.54 938.863,47.2441 "/>
<polyline clip-path="url(#clip072)" style="stroke:#000000; stroke-linecap:round; stroke-linejoin:round; stroke-width:2; stroke-opacity:0.1; fill:none" points="2200,1347.54 2200,47.2441 "/>
<polyline clip-path="url(#clip070)" style="stroke:#000000; stroke-linecap:round; stroke-linejoin:round; stroke-width:4; stroke-opacity:1; fill:none" points="251.541,1347.54 2256.76,1347.54 "/>
<polyline clip-path="url(#clip070)" style="stroke:#000000; stroke-linecap:round; stroke-linejoin:round; stroke-width:4; stroke-opacity:1; fill:none" points="938.863,1347.54 938.863,1328.64 "/>
<polyline clip-path="url(#clip070)" style="stroke:#000000; stroke-linecap:round; stroke-linejoin:round; stroke-width:4; stroke-opacity:1; fill:none" points="2200,1347.54 2200,1328.64 "/>
<path clip-path="url(#clip070)" d="M904.636 1420.89 L912.274 1420.89 L912.274 1394.53 L903.964 1396.19 L903.964 1391.94 L912.228 1390.27 L916.904 1390.27 L916.904 1420.89 L924.543 1420.89 L924.543 1424.83 L904.636 1424.83 L904.636 1420.89 Z" fill="#000000" fill-rule="nonzero" fill-opacity="1" /><path clip-path="url(#clip070)" d="M943.987 1393.35 Q940.376 1393.35 938.547 1396.91 Q936.742 1400.45 936.742 1407.58 Q936.742 1414.69 938.547 1418.25 Q940.376 1421.8 943.987 1421.8 Q947.621 1421.8 949.427 1418.25 Q951.256 1414.69 951.256 1407.58 Q951.256 1400.45 949.427 1396.91 Q947.621 1393.35 943.987 1393.35 M943.987 1389.64 Q949.797 1389.64 952.853 1394.25 Q955.932 1398.83 955.932 1407.58 Q955.932 1416.31 952.853 1420.92 Q949.797 1425.5 943.987 1425.5 Q938.177 1425.5 935.098 1420.92 Q932.043 1416.31 932.043 1407.58 Q932.043 1398.83 935.098 1394.25 Q938.177 1389.64 943.987 1389.64 Z" fill="#000000" fill-rule="nonzero" fill-opacity="1" /><path clip-path="url(#clip070)" d="M960.502 1394.22 L973.761 1394.22 L973.761 1397.42 L955.932 1397.42 L955.932 1394.22 Q958.095 1391.98 961.818 1388.22 Q965.561 1384.44 966.52 1383.35 Q968.345 1381.3 969.059 1379.89 Q969.793 1378.46 969.793 1377.09 Q969.793 1374.85 968.213 1373.44 Q966.652 1372.03 964.132 1372.03 Q962.345 1372.03 960.351 1372.65 Q958.377 1373.27 956.12 1374.53 L956.12 1370.69 Q958.414 1369.77 960.408 1369.3 Q962.402 1368.83 964.057 1368.83 Q968.42 1368.83 971.015 1371.01 Q973.611 1373.19 973.611 1376.84 Q973.611 1378.57 972.953 1380.13 Q972.313 1381.68 970.602 1383.78 Q970.131 1384.33 967.611 1386.94 Q965.091 1389.54 960.502 1394.22 Z" fill="#000000" fill-rule="nonzero" fill-opacity="1" /><path clip-path="url(#clip070)" d="M2164.46 1420.89 L2172.1 1420.89 L2172.1 1394.53 L2163.79 1396.19 L2163.79 1391.94 L2172.05 1390.27 L2176.73 1390.27 L2176.73 1420.89 L2184.37 1420.89 L2184.37 1424.83 L2164.46 1424.83 L2164.46 1420.89 Z" fill="#000000" fill-rule="nonzero" fill-opacity="1" /><path clip-path="url(#clip070)" d="M2203.81 1393.35 Q2200.2 1393.35 2198.37 1396.91 Q2196.57 1400.45 2196.57 1407.58 Q2196.57 1414.69 2198.37 1418.25 Q2200.2 1421.8 2203.81 1421.8 Q2207.45 1421.8 2209.25 1418.25 Q2211.08 1414.69 2211.08 1407.58 Q2211.08 1400.45 2209.25 1396.91 Q2207.45 1393.35 2203.81 1393.35 M2203.81 1389.64 Q2209.62 1389.64 2212.68 1394.25 Q2215.76 1398.83 2215.76 1407.58 Q2215.76 1416.31 2212.68 1420.92 Q2209.62 1425.5 2203.81 1425.5 Q2198 1425.5 2194.92 1420.92 Q2191.87 1416.31 2191.87 1407.58 Q2191.87 1398.83 2194.92 1394.25 Q2198 1389.64 2203.81 1389.64 Z" fill="#000000" fill-rule="nonzero" fill-opacity="1" /><path clip-path="url(#clip070)" d="M2228.43 1372.65 L2218.84 1387.64 L2228.43 1387.64 L2228.43 1372.65 M2227.44 1369.34 L2232.21 1369.34 L2232.21 1387.64 L2236.22 1387.64 L2236.22 1390.8 L2232.21 1390.8 L2232.21 1397.42 L2228.43 1397.42 L2228.43 1390.8 L2215.76 1390.8 L2215.76 1387.13 L2227.44 1369.34 Z" fill="#000000" fill-rule="nonzero" fill-opacity="1" /><path clip-path="url(#clip070)" d="M1174.34 1490.1 L1174.34 1492.96 L1147.41 1492.96 Q1147.79 1499.01 1151.04 1502.19 Q1154.32 1505.34 1160.14 1505.34 Q1163.52 1505.34 1166.67 1504.52 Q1169.85 1503.69 1172.97 1502.03 L1172.97 1507.57 Q1169.82 1508.91 1166.51 1509.61 Q1163.2 1510.31 1159.79 1510.31 Q1151.26 1510.31 1146.27 1505.34 Q1141.3 1500.38 1141.3 1491.91 Q1141.3 1483.16 1146.01 1478.03 Q1150.75 1472.88 1158.77 1472.88 Q1165.97 1472.88 1170.14 1477.53 Q1174.34 1482.14 1174.34 1490.1 M1168.48 1488.38 Q1168.42 1483.57 1165.78 1480.71 Q1163.17 1477.84 1158.84 1477.84 Q1153.94 1477.84 1150.98 1480.61 Q1148.05 1483.38 1147.6 1488.41 L1168.48 1488.38 Z" fill="#000000" fill-rule="nonzero" fill-opacity="1" /><path clip-path="url(#clip070)" d="M1189.62 1504.04 L1189.62 1522.94 L1183.73 1522.94 L1183.73 1473.74 L1189.62 1473.74 L1189.62 1479.15 Q1191.46 1475.97 1194.26 1474.44 Q1197.1 1472.88 1201.01 1472.88 Q1207.5 1472.88 1211.55 1478.03 Q1215.62 1483.19 1215.62 1491.59 Q1215.62 1500 1211.55 1505.15 Q1207.5 1510.31 1201.01 1510.31 Q1197.1 1510.31 1194.26 1508.78 Q1191.46 1507.22 1189.62 1504.04 M1209.54 1491.59 Q1209.54 1485.13 1206.87 1481.47 Q1204.23 1477.78 1199.58 1477.78 Q1194.93 1477.78 1192.26 1481.47 Q1189.62 1485.13 1189.62 1491.59 Q1189.62 1498.05 1192.26 1501.75 Q1194.93 1505.41 1199.58 1505.41 Q1204.23 1505.41 1206.87 1501.75 Q1209.54 1498.05 1209.54 1491.59 Z" fill="#000000" fill-rule="nonzero" fill-opacity="1" /><path clip-path="url(#clip070)" d="M1239.14 1477.84 Q1234.43 1477.84 1231.69 1481.54 Q1228.96 1485.2 1228.96 1491.59 Q1228.96 1497.99 1231.66 1501.68 Q1234.4 1505.34 1239.14 1505.34 Q1243.82 1505.34 1246.56 1501.65 Q1249.29 1497.96 1249.29 1491.59 Q1249.29 1485.26 1246.56 1481.57 Q1243.82 1477.84 1239.14 1477.84 M1239.14 1472.88 Q1246.78 1472.88 1251.14 1477.84 Q1255.5 1482.81 1255.5 1491.59 Q1255.5 1500.35 1251.14 1505.34 Q1246.78 1510.31 1239.14 1510.31 Q1231.47 1510.31 1227.11 1505.34 Q1222.78 1500.35 1222.78 1491.59 Q1222.78 1482.81 1227.11 1477.84 Q1231.47 1472.88 1239.14 1472.88 Z" fill="#000000" fill-rule="nonzero" fill-opacity="1" /><path clip-path="url(#clip070)" d="M1290.86 1475.11 L1290.86 1480.58 Q1288.38 1479.21 1285.87 1478.54 Q1283.38 1477.84 1280.84 1477.84 Q1275.14 1477.84 1271.99 1481.47 Q1268.84 1485.07 1268.84 1491.59 Q1268.84 1498.12 1271.99 1501.75 Q1275.14 1505.34 1280.84 1505.34 Q1283.38 1505.34 1285.87 1504.67 Q1288.38 1503.97 1290.86 1502.61 L1290.86 1508.02 Q1288.41 1509.16 1285.77 1509.74 Q1283.16 1510.31 1280.2 1510.31 Q1272.15 1510.31 1267.4 1505.25 Q1262.66 1500.19 1262.66 1491.59 Q1262.66 1482.87 1267.44 1477.88 Q1272.24 1472.88 1280.58 1472.88 Q1283.29 1472.88 1285.87 1473.45 Q1288.44 1473.99 1290.86 1475.11 Z" fill="#000000" fill-rule="nonzero" fill-opacity="1" /><path clip-path="url(#clip070)" d="M1330.68 1487.87 L1330.68 1509.39 L1324.82 1509.39 L1324.82 1488.06 Q1324.82 1483 1322.85 1480.49 Q1320.88 1477.97 1316.93 1477.97 Q1312.19 1477.97 1309.45 1480.99 Q1306.71 1484.02 1306.71 1489.24 L1306.71 1509.39 L1300.82 1509.39 L1300.82 1459.86 L1306.71 1459.86 L1306.71 1479.28 Q1308.81 1476.06 1311.65 1474.47 Q1314.51 1472.88 1318.24 1472.88 Q1324.38 1472.88 1327.53 1476.7 Q1330.68 1480.49 1330.68 1487.87 Z" fill="#000000" fill-rule="nonzero" fill-opacity="1" /><path clip-path="url(#clip070)" d="M1365.09 1474.79 L1365.09 1480.33 Q1362.6 1479.05 1359.93 1478.42 Q1357.26 1477.78 1354.39 1477.78 Q1350.03 1477.78 1347.84 1479.12 Q1345.67 1480.45 1345.67 1483.13 Q1345.67 1485.16 1347.23 1486.34 Q1348.79 1487.49 1353.5 1488.54 L1355.51 1488.98 Q1361.74 1490.32 1364.35 1492.77 Q1367 1495.19 1367 1499.55 Q1367 1504.52 1363.05 1507.41 Q1359.13 1510.31 1352.26 1510.31 Q1349.4 1510.31 1346.28 1509.74 Q1343.19 1509.19 1339.75 1508.08 L1339.75 1502.03 Q1343 1503.72 1346.15 1504.58 Q1349.3 1505.41 1352.39 1505.41 Q1356.52 1505.41 1358.75 1504.01 Q1360.98 1502.57 1360.98 1500 Q1360.98 1497.61 1359.36 1496.34 Q1357.77 1495.06 1352.32 1493.88 L1350.29 1493.41 Q1344.84 1492.26 1342.42 1489.91 Q1340.01 1487.52 1340.01 1483.38 Q1340.01 1478.35 1343.57 1475.62 Q1347.14 1472.88 1353.69 1472.88 Q1356.94 1472.88 1359.8 1473.36 Q1362.67 1473.83 1365.09 1474.79 Z" fill="#000000" fill-rule="nonzero" fill-opacity="1" /><polyline clip-path="url(#clip072)" style="stroke:#000000; stroke-linecap:round; stroke-linejoin:round; stroke-width:2; stroke-opacity:0.1; fill:none" points="251.541,910.215 2256.76,910.215 "/>
<polyline clip-path="url(#clip072)" style="stroke:#000000; stroke-linecap:round; stroke-linejoin:round; stroke-width:2; stroke-opacity:0.1; fill:none" points="251.541,288.989 2256.76,288.989 "/>
<polyline clip-path="url(#clip070)" style="stroke:#000000; stroke-linecap:round; stroke-linejoin:round; stroke-width:4; stroke-opacity:1; fill:none" points="251.541,1347.54 251.541,47.2441 "/>
<polyline clip-path="url(#clip070)" style="stroke:#000000; stroke-linecap:round; stroke-linejoin:round; stroke-width:4; stroke-opacity:1; fill:none" points="251.541,910.215 270.438,910.215 "/>
<polyline clip-path="url(#clip070)" style="stroke:#000000; stroke-linecap:round; stroke-linejoin:round; stroke-width:4; stroke-opacity:1; fill:none" points="251.541,288.989 270.438,288.989 "/>
<path clip-path="url(#clip070)" d="M115.411 930.007 L123.05 930.007 L123.05 903.641 L114.74 905.308 L114.74 901.049 L123.004 899.382 L127.68 899.382 L127.68 930.007 L135.319 930.007 L135.319 933.942 L115.411 933.942 L115.411 930.007 Z" fill="#000000" fill-rule="nonzero" fill-opacity="1" /><path clip-path="url(#clip070)" d="M154.763 902.461 Q151.152 902.461 149.323 906.026 Q147.518 909.567 147.518 916.697 Q147.518 923.803 149.323 927.368 Q151.152 930.91 154.763 930.91 Q158.397 930.91 160.203 927.368 Q162.032 923.803 162.032 916.697 Q162.032 909.567 160.203 906.026 Q158.397 902.461 154.763 902.461 M154.763 898.757 Q160.573 898.757 163.629 903.364 Q166.707 907.947 166.707 916.697 Q166.707 925.424 163.629 930.03 Q160.573 934.614 154.763 934.614 Q148.953 934.614 145.874 930.03 Q142.819 925.424 142.819 916.697 Q142.819 907.947 145.874 903.364 Q148.953 898.757 154.763 898.757 Z" fill="#000000" fill-rule="nonzero" fill-opacity="1" /><path clip-path="url(#clip070)" d="M166.707 892.859 L190.819 892.859 L190.819 896.056 L166.707 896.056 L166.707 892.859 Z" fill="#000000" fill-rule="nonzero" fill-opacity="1" /><path clip-path="url(#clip070)" d="M207.614 890.978 Q205.057 890.978 203.552 892.727 Q202.066 894.476 202.066 897.523 Q202.066 900.551 203.552 902.319 Q205.057 904.068 207.614 904.068 Q210.172 904.068 211.658 902.319 Q213.163 900.551 213.163 897.523 Q213.163 894.476 211.658 892.727 Q210.172 890.978 207.614 890.978 M215.156 879.072 L215.156 882.533 Q213.727 881.856 212.26 881.499 Q210.812 881.141 209.382 881.141 Q205.621 881.141 203.627 883.68 Q201.652 886.219 201.37 891.354 Q202.48 889.718 204.154 888.853 Q205.828 887.969 207.84 887.969 Q212.072 887.969 214.517 890.545 Q216.981 893.103 216.981 897.523 Q216.981 901.849 214.423 904.463 Q211.865 907.077 207.614 907.077 Q202.743 907.077 200.166 903.353 Q197.59 899.611 197.59 892.52 Q197.59 885.862 200.75 881.912 Q203.909 877.944 209.232 877.944 Q210.661 877.944 212.109 878.226 Q213.576 878.508 215.156 879.072 Z" fill="#000000" fill-rule="nonzero" fill-opacity="1" /><path clip-path="url(#clip070)" d="M116.07 308.782 L123.709 308.782 L123.709 282.416 L115.398 284.083 L115.398 279.824 L123.662 278.157 L128.338 278.157 L128.338 308.782 L135.977 308.782 L135.977 312.717 L116.07 312.717 L116.07 308.782 Z" fill="#000000" fill-rule="nonzero" fill-opacity="1" /><path clip-path="url(#clip070)" d="M155.421 281.236 Q151.81 281.236 149.982 284.8 Q148.176 288.342 148.176 295.472 Q148.176 302.578 149.982 306.143 Q151.81 309.685 155.421 309.685 Q159.056 309.685 160.861 306.143 Q162.69 302.578 162.69 295.472 Q162.69 288.342 160.861 284.8 Q159.056 281.236 155.421 281.236 M155.421 277.532 Q161.232 277.532 164.287 282.138 Q167.366 286.722 167.366 295.472 Q167.366 304.198 164.287 308.805 Q161.232 313.388 155.421 313.388 Q149.611 313.388 146.533 308.805 Q143.477 304.198 143.477 295.472 Q143.477 286.722 146.533 282.138 Q149.611 277.532 155.421 277.532 Z" fill="#000000" fill-rule="nonzero" fill-opacity="1" /><path clip-path="url(#clip070)" d="M167.366 271.633 L191.477 271.633 L191.477 274.831 L167.366 274.831 L167.366 271.633 Z" fill="#000000" fill-rule="nonzero" fill-opacity="1" /><path clip-path="url(#clip070)" d="M211.188 270.166 Q213.915 270.749 215.438 272.593 Q216.981 274.436 216.981 277.144 Q216.981 281.301 214.122 283.576 Q211.263 285.852 205.997 285.852 Q204.229 285.852 202.348 285.495 Q200.486 285.156 198.493 284.46 L198.493 280.793 Q200.072 281.714 201.953 282.184 Q203.834 282.655 205.884 282.655 Q209.458 282.655 211.32 281.244 Q213.2 279.833 213.2 277.144 Q213.2 274.661 211.451 273.27 Q209.721 271.859 206.618 271.859 L203.345 271.859 L203.345 268.737 L206.768 268.737 Q209.57 268.737 211.056 267.627 Q212.542 266.499 212.542 264.392 Q212.542 262.229 211 261.082 Q209.476 259.916 206.618 259.916 Q205.057 259.916 203.27 260.255 Q201.483 260.593 199.339 261.308 L199.339 257.922 Q201.502 257.321 203.383 257.02 Q205.282 256.719 206.956 256.719 Q211.282 256.719 213.802 258.694 Q216.322 260.65 216.322 263.997 Q216.322 266.33 214.987 267.947 Q213.652 269.546 211.188 270.166 Z" fill="#000000" fill-rule="nonzero" fill-opacity="1" /><path clip-path="url(#clip070)" d="M18.4042 761.509 L18.4042 751.929 L50.7419 739.802 L18.4042 727.612 L18.4042 718.031 L65.9242 718.031 L65.9242 724.301 L24.197 724.301 L56.7894 736.555 L56.7894 743.017 L24.197 755.271 L65.9242 755.271 L65.9242 761.509 L18.4042 761.509 Z" fill="#000000" fill-rule="nonzero" fill-opacity="1" /><path clip-path="url(#clip070)" d="M19.9638 676.781 L26.234 676.781 Q24.4834 680.442 23.624 683.688 Q22.7647 686.935 22.7647 689.958 Q22.7647 695.21 24.8017 698.075 Q26.8387 700.907 30.5945 700.907 Q33.7455 700.907 35.3688 699.03 Q36.9602 697.12 37.9469 691.836 L38.7426 687.953 Q40.1112 680.76 43.5805 677.354 Q47.018 673.917 52.8108 673.917 Q59.7176 673.917 63.2824 678.564 Q66.8472 683.179 66.8472 692.123 Q66.8472 695.497 66.0833 699.316 Q65.3194 703.104 63.8235 707.178 L57.2031 707.178 Q59.3993 703.263 60.5133 699.507 Q61.6273 695.751 61.6273 692.123 Q61.6273 686.616 59.463 683.625 Q57.2986 680.633 53.2882 680.633 Q49.7871 680.633 47.8137 682.797 Q45.8404 684.929 44.8537 689.831 L44.0898 693.746 Q42.6575 700.939 39.602 704.154 Q36.5464 707.369 31.1037 707.369 Q24.8017 707.369 21.1732 702.944 Q17.5448 698.488 17.5448 690.69 Q17.5448 687.348 18.1495 683.879 Q18.7543 680.41 19.9638 676.781 Z" fill="#000000" fill-rule="nonzero" fill-opacity="1" /><path clip-path="url(#clip070)" d="M18.4042 663.891 L18.4042 633.845 L23.815 633.845 L23.815 657.461 L37.8832 657.461 L37.8832 634.831 L43.2941 634.831 L43.2941 657.461 L60.5133 657.461 L60.5133 633.272 L65.9242 633.272 L65.9242 663.891 L18.4042 663.891 Z" fill="#000000" fill-rule="nonzero" fill-opacity="1" /><circle clip-path="url(#clip072)" cx="308.292" cy="458.541" r="18" fill="#78c2ad" fill-rule="evenodd" fill-opacity="0.6" stroke="#000000" stroke-opacity="0.6" stroke-width="3.072"/>
<circle clip-path="url(#clip072)" cx="938.863" cy="605.849" r="18" fill="#78c2ad" fill-rule="evenodd" fill-opacity="0.6" stroke="#000000" stroke-opacity="0.6" stroke-width="3.072"/>
<circle clip-path="url(#clip072)" cx="1569.43" cy="813.554" r="18" fill="#78c2ad" fill-rule="evenodd" fill-opacity="0.6" stroke="#000000" stroke-opacity="0.6" stroke-width="3.072"/>
<circle clip-path="url(#clip072)" cx="2200" cy="969.245" r="18" fill="#78c2ad" fill-rule="evenodd" fill-opacity="0.6" stroke="#000000" stroke-opacity="0.6" stroke-width="3.072"/>
<polyline clip-path="url(#clip072)" style="stroke:#78c2ad; stroke-linecap:round; stroke-linejoin:round; stroke-width:8; stroke-opacity:1; fill:none" points="308.292,450.825 327.4,456.097 346.508,461.369 365.617,466.642 384.725,471.914 403.833,477.186 422.941,482.458 442.049,487.73 461.158,493.002 480.266,498.275 499.374,503.547 518.482,508.819 537.591,514.091 556.699,519.363 575.807,524.635 594.915,529.908 614.023,535.18 633.132,540.452 652.24,545.724 671.348,550.996 690.456,556.268 709.564,561.541 728.673,566.813 747.781,572.085 766.889,577.357 785.997,582.629 805.105,587.901 824.214,593.174 843.322,598.446 862.43,603.718 881.538,608.99 900.646,614.262 919.755,619.534 938.863,624.807 957.971,630.079 977.079,635.351 996.187,640.623 1015.3,645.895 1034.4,651.167 1053.51,656.44 1072.62,661.712 1091.73,666.984 1110.84,672.256 1129.94,677.528 1149.05,682.8 1168.16,688.073 1187.27,693.345 1206.38,698.617 1225.49,703.889 1244.59,709.161 1263.7,714.433 1282.81,719.706 1301.92,724.978 1321.03,730.25 1340.14,735.522 1359.24,740.794 1378.35,746.066 1397.46,751.339 1416.57,756.611 1435.68,761.883 1454.78,767.155 1473.89,772.427 1493,777.699 1512.11,782.972 1531.22,788.244 1550.33,793.516 1569.43,798.788 1588.54,804.06 1607.65,809.332 1626.76,814.605 1645.87,819.877 1664.97,825.149 1684.08,830.421 1703.19,835.693 1722.3,840.965 1741.41,846.238 1760.52,851.51 1779.62,856.782 1798.73,862.054 1817.84,867.326 1836.95,872.598 1856.06,877.871 1875.17,883.143 1894.27,888.415 1913.38,893.687 1932.49,898.959 1951.6,904.231 1970.71,909.504 1989.81,914.776 2008.92,920.048 2028.03,925.32 2047.14,930.592 2066.25,935.864 2085.36,941.137 2104.46,946.409 2123.57,951.681 2142.68,956.953 2161.79,962.225 2180.9,967.497 2200,972.77 "/>
<circle clip-path="url(#clip072)" cx="308.292" cy="676.32" r="18" fill="#e95420" fill-rule="evenodd" fill-opacity="0.6" stroke="#000000" stroke-opacity="0.6" stroke-width="3.072"/>
<circle clip-path="url(#clip072)" cx="938.863" cy="839.125" r="18" fill="#e95420" fill-rule="evenodd" fill-opacity="0.6" stroke="#000000" stroke-opacity="0.6" stroke-width="3.072"/>
<circle clip-path="url(#clip072)" cx="1569.43" cy="990.303" r="18" fill="#e95420" fill-rule="evenodd" fill-opacity="0.6" stroke="#000000" stroke-opacity="0.6" stroke-width="3.072"/>
<circle clip-path="url(#clip072)" cx="2200" cy="1310.74" r="18" fill="#e95420" fill-rule="evenodd" fill-opacity="0.6" stroke="#000000" stroke-opacity="0.6" stroke-width="3.072"/>
<polyline clip-path="url(#clip072)" style="stroke:#e95420; stroke-linecap:round; stroke-linejoin:round; stroke-width:8; stroke-opacity:1; fill:none" points="308.292,645.957 327.4,652.183 346.508,658.408 365.617,664.634 384.725,670.859 403.833,677.085 422.941,683.31 442.049,689.536 461.158,695.761 480.266,701.987 499.374,708.212 518.482,714.438 537.591,720.663 556.699,726.889 575.807,733.114 594.915,739.34 614.023,745.566 633.132,751.791 652.24,758.017 671.348,764.242 690.456,770.468 709.564,776.693 728.673,782.919 747.781,789.144 766.889,795.37 785.997,801.595 805.105,807.821 824.214,814.046 843.322,820.272 862.43,826.497 881.538,832.723 900.646,838.949 919.755,845.174 938.863,851.4 957.971,857.625 977.079,863.851 996.187,870.076 1015.3,876.302 1034.4,882.527 1053.51,888.753 1072.62,894.978 1091.73,901.204 1110.84,907.429 1129.94,913.655 1149.05,919.88 1168.16,926.106 1187.27,932.332 1206.38,938.557 1225.49,944.783 1244.59,951.008 1263.7,957.234 1282.81,963.459 1301.92,969.685 1321.03,975.91 1340.14,982.136 1359.24,988.361 1378.35,994.587 1397.46,1000.81 1416.57,1007.04 1435.68,1013.26 1454.78,1019.49 1473.89,1025.71 1493,1031.94 1512.11,1038.17 1531.22,1044.39 1550.33,1050.62 1569.43,1056.84 1588.54,1063.07 1607.65,1069.29 1626.76,1075.52 1645.87,1081.74 1664.97,1087.97 1684.08,1094.2 1703.19,1100.42 1722.3,1106.65 1741.41,1112.87 1760.52,1119.1 1779.62,1125.32 1798.73,1131.55 1817.84,1137.77 1836.95,1144 1856.06,1150.23 1875.17,1156.45 1894.27,1162.68 1913.38,1168.9 1932.49,1175.13 1951.6,1181.35 1970.71,1187.58 1989.81,1193.8 2008.92,1200.03 2028.03,1206.25 2047.14,1212.48 2066.25,1218.71 2085.36,1224.93 2104.46,1231.16 2123.57,1237.38 2142.68,1243.61 2161.79,1249.83 2180.9,1256.06 2200,1262.28 "/>
<circle clip-path="url(#clip072)" cx="308.292" cy="90.245" r="18" fill="#0000ff" fill-rule="evenodd" fill-opacity="0.6" stroke="#000000" stroke-opacity="0.6" stroke-width="3.072"/>
<circle clip-path="url(#clip072)" cx="938.863" cy="100.412" r="18" fill="#0000ff" fill-rule="evenodd" fill-opacity="0.6" stroke="#000000" stroke-opacity="0.6" stroke-width="3.072"/>
<circle clip-path="url(#clip072)" cx="1569.43" cy="221.556" r="18" fill="#0000ff" fill-rule="evenodd" fill-opacity="0.6" stroke="#000000" stroke-opacity="0.6" stroke-width="3.072"/>
<circle clip-path="url(#clip072)" cx="2200" cy="207.236" r="18" fill="#0000ff" fill-rule="evenodd" fill-opacity="0.6" stroke="#000000" stroke-opacity="0.6" stroke-width="3.072"/>
<polyline clip-path="url(#clip072)" style="stroke:#0000ff; stroke-linecap:round; stroke-linejoin:round; stroke-width:8; stroke-opacity:1; fill:none" points="308.292,84.0448 327.4,85.4755 346.508,86.9061 365.617,88.3368 384.725,89.7675 403.833,91.1981 422.941,92.6288 442.049,94.0594 461.158,95.4901 480.266,96.9207 499.374,98.3514 518.482,99.782 537.591,101.213 556.699,102.643 575.807,104.074 594.915,105.505 614.023,106.935 633.132,108.366 652.24,109.797 671.348,111.227 690.456,112.658 709.564,114.089 728.673,115.519 747.781,116.95 766.889,118.381 785.997,119.811 805.105,121.242 824.214,122.673 843.322,124.103 862.43,125.534 881.538,126.965 900.646,128.395 919.755,129.826 938.863,131.256 957.971,132.687 977.079,134.118 996.187,135.548 1015.3,136.979 1034.4,138.41 1053.51,139.84 1072.62,141.271 1091.73,142.702 1110.84,144.132 1129.94,145.563 1149.05,146.994 1168.16,148.424 1187.27,149.855 1206.38,151.286 1225.49,152.716 1244.59,154.147 1263.7,155.578 1282.81,157.008 1301.92,158.439 1321.03,159.87 1340.14,161.3 1359.24,162.731 1378.35,164.162 1397.46,165.592 1416.57,167.023 1435.68,168.454 1454.78,169.884 1473.89,171.315 1493,172.745 1512.11,174.176 1531.22,175.607 1550.33,177.037 1569.43,178.468 1588.54,179.899 1607.65,181.329 1626.76,182.76 1645.87,184.191 1664.97,185.621 1684.08,187.052 1703.19,188.483 1722.3,189.913 1741.41,191.344 1760.52,192.775 1779.62,194.205 1798.73,195.636 1817.84,197.067 1836.95,198.497 1856.06,199.928 1875.17,201.359 1894.27,202.789 1913.38,204.22 1932.49,205.651 1951.6,207.081 1970.71,208.512 1989.81,209.943 2008.92,211.373 2028.03,212.804 2047.14,214.235 2066.25,215.665 2085.36,217.096 2104.46,218.526 2123.57,219.957 2142.68,221.388 2161.79,222.818 2180.9,224.249 2200,225.68 "/>
<path clip-path="url(#clip070)" d="M1845.16 297.947 L2189.92 297.947 L2189.92 90.5872 L1845.16 90.5872  Z" fill="#f0f1eb" fill-rule="evenodd" fill-opacity="1"/>
<polyline clip-path="url(#clip070)" style="stroke:#000000; stroke-linecap:round; stroke-linejoin:round; stroke-width:4; stroke-opacity:1; fill:none" points="1845.16,297.947 2189.92,297.947 2189.92,90.5872 1845.16,90.5872 1845.16,297.947 "/>
<polyline clip-path="url(#clip070)" style="stroke:#78c2ad; stroke-linecap:round; stroke-linejoin:round; stroke-width:8; stroke-opacity:1; fill:none" points="1867.44,142.427 2001.12,142.427 "/>
<path clip-path="url(#clip070)" d="M2023.93 125.147 L2051.08 125.147 L2051.08 128.712 L2029.23 155.772 L2051.62 155.772 L2051.62 159.707 L2023.4 159.707 L2023.4 156.142 L2045.25 129.082 L2023.93 129.082 L2023.93 125.147 Z" fill="#000000" fill-rule="nonzero" fill-opacity="1" /><path clip-path="url(#clip070)" d="M2056.41 125.147 L2083.56 125.147 L2083.56 128.712 L2061.71 155.772 L2084.09 155.772 L2084.09 159.707 L2055.88 159.707 L2055.88 156.142 L2077.73 129.082 L2056.41 129.082 L2056.41 125.147 Z" fill="#000000" fill-rule="nonzero" fill-opacity="1" /><polyline clip-path="url(#clip070)" style="stroke:#e95420; stroke-linecap:round; stroke-linejoin:round; stroke-width:8; stroke-opacity:1; fill:none" points="1867.44,194.267 2001.12,194.267 "/>
<path clip-path="url(#clip070)" d="M2023.93 176.987 L2051.08 176.987 L2051.08 180.552 L2029.23 207.612 L2051.62 207.612 L2051.62 211.547 L2023.4 211.547 L2023.4 207.982 L2045.25 180.922 L2023.93 180.922 L2023.93 176.987 Z" fill="#000000" fill-rule="nonzero" fill-opacity="1" /><path clip-path="url(#clip070)" d="M2056.41 176.987 L2083.56 176.987 L2083.56 180.552 L2061.71 207.612 L2084.09 207.612 L2084.09 211.547 L2055.88 211.547 L2055.88 207.982 L2077.73 180.922 L2056.41 180.922 L2056.41 176.987 Z" fill="#000000" fill-rule="nonzero" fill-opacity="1" /><path clip-path="url(#clip070)" d="M2087.71 196.663 L2100.18 196.663 L2100.18 200.459 L2087.71 200.459 L2087.71 196.663 Z" fill="#000000" fill-rule="nonzero" fill-opacity="1" /><path clip-path="url(#clip070)" d="M2133.03 179.649 L2133.03 184.58 Q2130.67 182.381 2127.98 181.293 Q2125.32 180.205 2122.31 180.205 Q2116.39 180.205 2113.24 183.839 Q2110.09 187.45 2110.09 194.302 Q2110.09 201.131 2113.24 204.765 Q2116.39 208.376 2122.31 208.376 Q2125.32 208.376 2127.98 207.288 Q2130.67 206.2 2133.03 204.001 L2133.03 208.885 Q2130.58 210.552 2127.82 211.385 Q2125.09 212.218 2122.03 212.218 Q2114.19 212.218 2109.67 207.427 Q2105.16 202.612 2105.16 194.302 Q2105.16 185.969 2109.67 181.177 Q2114.19 176.362 2122.03 176.362 Q2125.14 176.362 2127.87 177.196 Q2130.62 178.006 2133.03 179.649 Z" fill="#000000" fill-rule="nonzero" fill-opacity="1" /><path clip-path="url(#clip070)" d="M2149.16 211.547 L2135.97 176.987 L2140.85 176.987 L2151.8 206.084 L2162.77 176.987 L2167.64 176.987 L2154.46 211.547 L2149.16 211.547 Z" fill="#000000" fill-rule="nonzero" fill-opacity="1" /><polyline clip-path="url(#clip070)" style="stroke:#0000ff; stroke-linecap:round; stroke-linejoin:round; stroke-width:8; stroke-opacity:1; fill:none" points="1867.44,246.107 2001.12,246.107 "/>
<path clip-path="url(#clip070)" d="M2023.4 228.827 L2030.37 228.827 L2039.19 252.346 L2048.05 228.827 L2055.02 228.827 L2055.02 263.387 L2050.46 263.387 L2050.46 233.04 L2041.55 256.744 L2036.85 256.744 L2027.94 233.04 L2027.94 263.387 L2023.4 263.387 L2023.4 228.827 Z" fill="#000000" fill-rule="nonzero" fill-opacity="1" /><path clip-path="url(#clip070)" d="M2075.85 233.434 L2069.51 250.633 L2082.22 250.633 L2075.85 233.434 M2073.21 228.827 L2078.52 228.827 L2091.69 263.387 L2086.83 263.387 L2083.68 254.521 L2068.1 254.521 L2064.95 263.387 L2060.02 263.387 L2073.21 228.827 Z" fill="#000000" fill-rule="nonzero" fill-opacity="1" /><path clip-path="url(#clip070)" d="M2096.73 228.827 L2101.41 228.827 L2101.41 259.452 L2118.24 259.452 L2118.24 263.387 L2096.73 263.387 L2096.73 228.827 Z" fill="#000000" fill-rule="nonzero" fill-opacity="1" /><path clip-path="url(#clip070)" d="M2135.78 233.434 L2129.44 250.633 L2142.15 250.633 L2135.78 233.434 M2133.14 228.827 L2138.45 228.827 L2151.62 263.387 L2146.76 263.387 L2143.61 254.521 L2128.03 254.521 L2124.88 263.387 L2119.95 263.387 L2133.14 228.827 Z" fill="#000000" fill-rule="nonzero" fill-opacity="1" /></svg>
