<?xml version="1.0" encoding="utf-8"?>
<svg xmlns="http://www.w3.org/2000/svg" xmlns:xlink="http://www.w3.org/1999/xlink" width="576" height="384" viewBox="0 0 2304 1536">
<defs>
  <clipPath id="clip940">
    <rect x="0" y="0" width="2304" height="1536"/>
  </clipPath>
</defs>
<path clip-path="url(#clip940)" d="M0 1536 L2304 1536 L2304 8.52651e-14 L0 8.52651e-14  Z" fill="#f0f1eb" fill-rule="evenodd" fill-opacity="1"/>
<defs>
  <clipPath id="clip941">
    <rect x="460" y="0" width="1614" height="1536"/>
  </clipPath>
</defs>
<path clip-path="url(#clip940)" d="M251.804 1347.54 L2256.76 1347.54 L2256.76 47.2441 L251.804 47.2441  Z" fill="#f0f1eb" fill-rule="evenodd" fill-opacity="1"/>
<defs>
  <clipPath id="clip942">
    <rect x="251" y="47" width="2006" height="1301"/>
  </clipPath>
</defs>
<polyline clip-path="url(#clip942)" style="stroke:#000000; stroke-linecap:round; stroke-linejoin:round; stroke-width:2; stroke-opacity:0.1; fill:none" points="939.036,1347.54 939.036,47.2441 "/>
<polyline clip-path="url(#clip942)" style="stroke:#000000; stroke-linecap:round; stroke-linejoin:round; stroke-width:2; stroke-opacity:0.1; fill:none" points="2200.01,1347.54 2200.01,47.2441 "/>
<polyline clip-path="url(#clip940)" style="stroke:#000000; stroke-linecap:round; stroke-linejoin:round; stroke-width:4; stroke-opacity:1; fill:none" points="251.804,1347.54 2256.76,1347.54 "/>
<polyline clip-path="url(#clip940)" style="stroke:#000000; stroke-linecap:round; stroke-linejoin:round; stroke-width:4; stroke-opacity:1; fill:none" points="939.036,1347.54 939.036,1328.64 "/>
<polyline clip-path="url(#clip940)" style="stroke:#000000; stroke-linecap:round; stroke-linejoin:round; stroke-width:4; stroke-opacity:1; fill:none" points="2200.01,1347.54 2200.01,1328.64 "/>
<path clip-path="url(#clip940)" d="M904.809 1420.89 L912.448 1420.89 L912.448 1394.53 L904.137 1396.19 L904.137 1391.94 L912.401 1390.27 L917.077 1390.27 L917.077 1420.89 L924.716 1420.89 L924.716 1424.83 L904.809 1424.83 L904.809 1420.89 Z" fill="#000000" fill-rule="nonzero" fill-opacity="1" /><path clip-path="url(#clip940)" d="M944.16 1393.35 Q940.549 1393.35 938.721 1396.91 Q936.915 1400.45 936.915 1407.58 Q936.915 1414.69 938.721 1418.25 Q940.549 1421.8 944.16 1421.8 Q947.795 1421.8 949.6 1418.25 Q951.429 1414.69 951.429 1407.58 Q951.429 1400.45 949.6 1396.91 Q947.795 1393.35 944.16 1393.35 M944.16 1389.64 Q949.97 1389.64 953.026 1394.25 Q956.105 1398.83 956.105 1407.58 Q956.105 1416.31 953.026 1420.92 Q949.97 1425.5 944.16 1425.5 Q938.35 1425.5 935.271 1420.92 Q932.216 1416.31 932.216 1407.58 Q932.216 1398.83 935.271 1394.25 Q938.35 1389.64 944.16 1389.64 Z" fill="#000000" fill-rule="nonzero" fill-opacity="1" /><path clip-path="url(#clip940)" d="M960.675 1394.22 L973.934 1394.22 L973.934 1397.42 L956.105 1397.42 L956.105 1394.22 Q958.268 1391.98 961.992 1388.22 Q965.734 1384.44 966.693 1383.35 Q968.518 1381.3 969.233 1379.89 Q969.966 1378.46 969.966 1377.09 Q969.966 1374.85 968.386 1373.44 Q966.825 1372.03 964.305 1372.03 Q962.518 1372.03 960.525 1372.65 Q958.55 1373.27 956.293 1374.53 L956.293 1370.69 Q958.587 1369.77 960.581 1369.3 Q962.575 1368.83 964.23 1368.83 Q968.593 1368.83 971.189 1371.01 Q973.784 1373.19 973.784 1376.84 Q973.784 1378.57 973.126 1380.13 Q972.486 1381.68 970.775 1383.78 Q970.305 1384.33 967.784 1386.94 Q965.264 1389.54 960.675 1394.22 Z" fill="#000000" fill-rule="nonzero" fill-opacity="1" /><path clip-path="url(#clip940)" d="M2164.47 1420.89 L2172.11 1420.89 L2172.11 1394.53 L2163.8 1396.19 L2163.8 1391.94 L2172.06 1390.27 L2176.74 1390.27 L2176.74 1420.89 L2184.38 1420.89 L2184.38 1424.83 L2164.47 1424.83 L2164.47 1420.89 Z" fill="#000000" fill-rule="nonzero" fill-opacity="1" /><path clip-path="url(#clip940)" d="M2203.82 1393.35 Q2200.21 1393.35 2198.38 1396.91 Q2196.57 1400.45 2196.57 1407.58 Q2196.57 1414.69 2198.38 1418.25 Q2200.21 1421.8 2203.82 1421.8 Q2207.45 1421.8 2209.26 1418.25 Q2211.09 1414.69 2211.09 1407.58 Q2211.09 1400.45 2209.26 1396.91 Q2207.45 1393.35 2203.82 1393.35 M2203.82 1389.64 Q2209.63 1389.64 2212.69 1394.25 Q2215.76 1398.83 2215.76 1407.58 Q2215.76 1416.31 2212.69 1420.92 Q2209.63 1425.5 2203.82 1425.5 Q2198.01 1425.5 2194.93 1420.92 Q2191.88 1416.31 2191.88 1407.58 Q2191.88 1398.83 2194.93 1394.25 Q2198.01 1389.64 2203.82 1389.64 Z" fill="#000000" fill-rule="nonzero" fill-opacity="1" /><path clip-path="url(#clip940)" d="M2228.44 1372.65 L2218.85 1387.64 L2228.44 1387.64 L2228.44 1372.65 M2227.44 1369.34 L2232.22 1369.34 L2232.22 1387.64 L2236.23 1387.64 L2236.23 1390.8 L2232.22 1390.8 L2232.22 1397.42 L2228.44 1397.42 L2228.44 1390.8 L2215.76 1390.8 L2215.76 1387.13 L2227.44 1369.34 Z" fill="#000000" fill-rule="nonzero" fill-opacity="1" /><path clip-path="url(#clip940)" d="M1174.47 1490.1 L1174.47 1492.96 L1147.54 1492.96 Q1147.92 1499.01 1151.17 1502.19 Q1154.45 1505.34 1160.27 1505.34 Q1163.65 1505.34 1166.8 1504.52 Q1169.98 1503.69 1173.1 1502.03 L1173.1 1507.57 Q1169.95 1508.91 1166.64 1509.61 Q1163.33 1510.31 1159.92 1510.31 Q1151.39 1510.31 1146.4 1505.34 Q1141.43 1500.38 1141.43 1491.91 Q1141.43 1483.16 1146.14 1478.03 Q1150.88 1472.88 1158.91 1472.88 Q1166.1 1472.88 1170.27 1477.53 Q1174.47 1482.14 1174.47 1490.1 M1168.61 1488.38 Q1168.55 1483.57 1165.91 1480.71 Q1163.3 1477.84 1158.97 1477.84 Q1154.07 1477.84 1151.11 1480.61 Q1148.18 1483.38 1147.73 1488.41 L1168.61 1488.38 Z" fill="#000000" fill-rule="nonzero" fill-opacity="1" /><path clip-path="url(#clip940)" d="M1189.75 1504.04 L1189.75 1522.94 L1183.86 1522.94 L1183.86 1473.74 L1189.75 1473.74 L1189.75 1479.15 Q1191.59 1475.97 1194.39 1474.44 Q1197.23 1472.88 1201.14 1472.88 Q1207.64 1472.88 1211.68 1478.03 Q1215.75 1483.19 1215.75 1491.59 Q1215.75 1500 1211.68 1505.15 Q1207.64 1510.31 1201.14 1510.31 Q1197.23 1510.31 1194.39 1508.78 Q1191.59 1507.22 1189.75 1504.04 M1209.67 1491.59 Q1209.67 1485.13 1207 1481.47 Q1204.36 1477.78 1199.71 1477.78 Q1195.06 1477.78 1192.39 1481.47 Q1189.75 1485.13 1189.75 1491.59 Q1189.75 1498.05 1192.39 1501.75 Q1195.06 1505.41 1199.71 1505.41 Q1204.36 1505.41 1207 1501.75 Q1209.67 1498.05 1209.67 1491.59 Z" fill="#000000" fill-rule="nonzero" fill-opacity="1" /><path clip-path="url(#clip940)" d="M1239.27 1477.84 Q1234.56 1477.84 1231.82 1481.54 Q1229.09 1485.2 1229.09 1491.59 Q1229.09 1497.99 1231.79 1501.68 Q1234.53 1505.34 1239.27 1505.34 Q1243.95 1505.34 1246.69 1501.65 Q1249.43 1497.96 1249.43 1491.59 Q1249.43 1485.26 1246.69 1481.57 Q1243.95 1477.84 1239.27 1477.84 M1239.27 1472.88 Q1246.91 1472.88 1251.27 1477.84 Q1255.63 1482.81 1255.63 1491.59 Q1255.63 1500.35 1251.27 1505.34 Q1246.91 1510.31 1239.27 1510.31 Q1231.6 1510.31 1227.24 1505.34 Q1222.91 1500.35 1222.91 1491.59 Q1222.91 1482.81 1227.24 1477.84 Q1231.6 1472.88 1239.27 1472.88 Z" fill="#000000" fill-rule="nonzero" fill-opacity="1" /><path clip-path="url(#clip940)" d="M1290.99 1475.11 L1290.99 1480.58 Q1288.51 1479.21 1286 1478.54 Q1283.51 1477.84 1280.97 1477.84 Q1275.27 1477.84 1272.12 1481.47 Q1268.97 1485.07 1268.97 1491.59 Q1268.97 1498.12 1272.12 1501.75 Q1275.27 1505.34 1280.97 1505.34 Q1283.51 1505.34 1286 1504.67 Q1288.51 1503.97 1290.99 1502.61 L1290.99 1508.02 Q1288.54 1509.16 1285.9 1509.74 Q1283.29 1510.31 1280.33 1510.31 Q1272.28 1510.31 1267.54 1505.25 Q1262.79 1500.19 1262.79 1491.59 Q1262.79 1482.87 1267.57 1477.88 Q1272.37 1472.88 1280.71 1472.88 Q1283.42 1472.88 1286 1473.45 Q1288.58 1473.99 1290.99 1475.11 Z" fill="#000000" fill-rule="nonzero" fill-opacity="1" /><path clip-path="url(#clip940)" d="M1330.81 1487.87 L1330.81 1509.39 L1324.96 1509.39 L1324.96 1488.06 Q1324.96 1483 1322.98 1480.49 Q1321.01 1477.97 1317.06 1477.97 Q1312.32 1477.97 1309.58 1480.99 Q1306.84 1484.02 1306.84 1489.24 L1306.84 1509.39 L1300.96 1509.39 L1300.96 1459.86 L1306.84 1459.86 L1306.84 1479.28 Q1308.95 1476.06 1311.78 1474.47 Q1314.64 1472.88 1318.37 1472.88 Q1324.51 1472.88 1327.66 1476.7 Q1330.81 1480.49 1330.81 1487.87 Z" fill="#000000" fill-rule="nonzero" fill-opacity="1" /><path clip-path="url(#clip940)" d="M1365.22 1474.79 L1365.22 1480.33 Q1362.74 1479.05 1360.06 1478.42 Q1357.39 1477.78 1354.52 1477.78 Q1350.16 1477.78 1347.97 1479.12 Q1345.8 1480.45 1345.8 1483.13 Q1345.8 1485.16 1347.36 1486.34 Q1348.92 1487.49 1353.63 1488.54 L1355.64 1488.98 Q1361.88 1490.32 1364.49 1492.77 Q1367.13 1495.19 1367.13 1499.55 Q1367.13 1504.52 1363.18 1507.41 Q1359.27 1510.31 1352.39 1510.31 Q1349.53 1510.31 1346.41 1509.74 Q1343.32 1509.19 1339.88 1508.08 L1339.88 1502.03 Q1343.13 1503.72 1346.28 1504.58 Q1349.43 1505.41 1352.52 1505.41 Q1356.66 1505.41 1358.88 1504.01 Q1361.11 1502.57 1361.11 1500 Q1361.11 1497.61 1359.49 1496.34 Q1357.9 1495.06 1352.46 1493.88 L1350.42 1493.41 Q1344.98 1492.26 1342.56 1489.91 Q1340.14 1487.52 1340.14 1483.38 Q1340.14 1478.35 1343.7 1475.62 Q1347.27 1472.88 1353.82 1472.88 Q1357.07 1472.88 1359.93 1473.36 Q1362.8 1473.83 1365.22 1474.79 Z" fill="#000000" fill-rule="nonzero" fill-opacity="1" /><polyline clip-path="url(#clip942)" style="stroke:#000000; stroke-linecap:round; stroke-linejoin:round; stroke-width:2; stroke-opacity:0.1; fill:none" points="251.804,1330.18 2256.76,1330.18 "/>
<polyline clip-path="url(#clip942)" style="stroke:#000000; stroke-linecap:round; stroke-linejoin:round; stroke-width:2; stroke-opacity:0.1; fill:none" points="251.804,1034.78 2256.76,1034.78 "/>
<polyline clip-path="url(#clip942)" style="stroke:#000000; stroke-linecap:round; stroke-linejoin:round; stroke-width:2; stroke-opacity:0.1; fill:none" points="251.804,739.379 2256.76,739.379 "/>
<polyline clip-path="url(#clip942)" style="stroke:#000000; stroke-linecap:round; stroke-linejoin:round; stroke-width:2; stroke-opacity:0.1; fill:none" points="251.804,443.98 2256.76,443.98 "/>
<polyline clip-path="url(#clip942)" style="stroke:#000000; stroke-linecap:round; stroke-linejoin:round; stroke-width:2; stroke-opacity:0.1; fill:none" points="251.804,148.58 2256.76,148.58 "/>
<polyline clip-path="url(#clip940)" style="stroke:#000000; stroke-linecap:round; stroke-linejoin:round; stroke-width:4; stroke-opacity:1; fill:none" points="251.804,1347.54 251.804,47.2441 "/>
<polyline clip-path="url(#clip940)" style="stroke:#000000; stroke-linecap:round; stroke-linejoin:round; stroke-width:4; stroke-opacity:1; fill:none" points="251.804,1330.18 270.702,1330.18 "/>
<polyline clip-path="url(#clip940)" style="stroke:#000000; stroke-linecap:round; stroke-linejoin:round; stroke-width:4; stroke-opacity:1; fill:none" points="251.804,1034.78 270.702,1034.78 "/>
<polyline clip-path="url(#clip940)" style="stroke:#000000; stroke-linecap:round; stroke-linejoin:round; stroke-width:4; stroke-opacity:1; fill:none" points="251.804,739.379 270.702,739.379 "/>
<polyline clip-path="url(#clip940)" style="stroke:#000000; stroke-linecap:round; stroke-linejoin:round; stroke-width:4; stroke-opacity:1; fill:none" points="251.804,443.98 270.702,443.98 "/>
<polyline clip-path="url(#clip940)" style="stroke:#000000; stroke-linecap:round; stroke-linejoin:round; stroke-width:4; stroke-opacity:1; fill:none" points="251.804,148.58 270.702,148.58 "/>
<path clip-path="url(#clip940)" d="M115.882 1349.97 L123.52 1349.97 L123.52 1323.6 L115.21 1325.27 L115.21 1321.01 L123.474 1319.35 L128.15 1319.35 L128.15 1349.97 L135.789 1349.97 L135.789 1353.91 L115.882 1353.91 L115.882 1349.97 Z" fill="#000000" fill-rule="nonzero" fill-opacity="1" /><path clip-path="url(#clip940)" d="M155.233 1322.42 Q151.622 1322.42 149.793 1325.99 Q147.988 1329.53 147.988 1336.66 Q147.988 1343.77 149.793 1347.33 Q151.622 1350.87 155.233 1350.87 Q158.868 1350.87 160.673 1347.33 Q162.502 1343.77 162.502 1336.66 Q162.502 1329.53 160.673 1325.99 Q158.868 1322.42 155.233 1322.42 M155.233 1318.72 Q161.043 1318.72 164.099 1323.33 Q167.178 1327.91 167.178 1336.66 Q167.178 1345.39 164.099 1349.99 Q161.043 1354.58 155.233 1354.58 Q149.423 1354.58 146.344 1349.99 Q143.289 1345.39 143.289 1336.66 Q143.289 1327.91 146.344 1323.33 Q149.423 1318.72 155.233 1318.72 Z" fill="#000000" fill-rule="nonzero" fill-opacity="1" /><path clip-path="url(#clip940)" d="M167.178 1312.82 L191.289 1312.82 L191.289 1316.02 L167.178 1316.02 L167.178 1312.82 Z" fill="#000000" fill-rule="nonzero" fill-opacity="1" /><path clip-path="url(#clip940)" d="M207.614 1313.16 Q204.906 1313.16 203.345 1314.61 Q201.803 1316.06 201.803 1318.6 Q201.803 1321.13 203.345 1322.58 Q204.906 1324.03 207.614 1324.03 Q210.323 1324.03 211.884 1322.58 Q213.445 1321.12 213.445 1318.6 Q213.445 1316.06 211.884 1314.61 Q210.341 1313.16 207.614 1313.16 M203.815 1311.54 Q201.37 1310.94 199.997 1309.27 Q198.643 1307.59 198.643 1305.19 Q198.643 1301.82 201.032 1299.86 Q203.439 1297.91 207.614 1297.91 Q211.809 1297.91 214.197 1299.86 Q216.586 1301.82 216.586 1305.19 Q216.586 1307.59 215.213 1309.27 Q213.859 1310.94 211.432 1311.54 Q214.178 1312.18 215.702 1314.04 Q217.244 1315.91 217.244 1318.6 Q217.244 1322.68 214.743 1324.86 Q212.26 1327.04 207.614 1327.04 Q202.969 1327.04 200.467 1324.86 Q197.985 1322.68 197.985 1318.6 Q197.985 1315.91 199.527 1314.04 Q201.069 1312.18 203.815 1311.54 M202.423 1305.54 Q202.423 1307.73 203.778 1308.95 Q205.151 1310.17 207.614 1310.17 Q210.059 1310.17 211.432 1308.95 Q212.824 1307.73 212.824 1305.54 Q212.824 1303.36 211.432 1302.14 Q210.059 1300.92 207.614 1300.92 Q205.151 1300.92 203.778 1302.14 Q202.423 1303.36 202.423 1305.54 Z" fill="#000000" fill-rule="nonzero" fill-opacity="1" /><path clip-path="url(#clip940)" d="M116.54 1054.57 L124.179 1054.57 L124.179 1028.21 L115.869 1029.87 L115.869 1025.61 L124.132 1023.95 L128.808 1023.95 L128.808 1054.57 L136.447 1054.57 L136.447 1058.51 L116.54 1058.51 L116.54 1054.57 Z" fill="#000000" fill-rule="nonzero" fill-opacity="1" /><path clip-path="url(#clip940)" d="M155.892 1027.02 Q152.28 1027.02 150.452 1030.59 Q148.646 1034.13 148.646 1041.26 Q148.646 1048.37 150.452 1051.93 Q152.28 1055.47 155.892 1055.47 Q159.526 1055.47 161.331 1051.93 Q163.16 1048.37 163.16 1041.26 Q163.16 1034.13 161.331 1030.59 Q159.526 1027.02 155.892 1027.02 M155.892 1023.32 Q161.702 1023.32 164.757 1027.93 Q167.836 1032.51 167.836 1041.26 Q167.836 1049.99 164.757 1054.59 Q161.702 1059.18 155.892 1059.18 Q150.081 1059.18 147.003 1054.59 Q143.947 1049.99 143.947 1041.26 Q143.947 1032.51 147.003 1027.93 Q150.081 1023.32 155.892 1023.32 Z" fill="#000000" fill-rule="nonzero" fill-opacity="1" /><path clip-path="url(#clip940)" d="M167.836 1017.42 L191.947 1017.42 L191.947 1020.62 L167.836 1020.62 L167.836 1017.42 Z" fill="#000000" fill-rule="nonzero" fill-opacity="1" /><path clip-path="url(#clip940)" d="M199.188 1003.02 L217.244 1003.02 L217.244 1004.63 L207.05 1031.1 L203.082 1031.1 L212.674 1006.21 L199.188 1006.21 L199.188 1003.02 Z" fill="#000000" fill-rule="nonzero" fill-opacity="1" /><path clip-path="url(#clip940)" d="M115.675 759.172 L123.314 759.172 L123.314 732.806 L115.003 734.473 L115.003 730.213 L123.267 728.547 L127.943 728.547 L127.943 759.172 L135.582 759.172 L135.582 763.107 L115.675 763.107 L115.675 759.172 Z" fill="#000000" fill-rule="nonzero" fill-opacity="1" /><path clip-path="url(#clip940)" d="M155.026 731.625 Q151.415 731.625 149.587 735.19 Q147.781 738.732 147.781 745.862 Q147.781 752.968 149.587 756.533 Q151.415 760.074 155.026 760.074 Q158.661 760.074 160.466 756.533 Q162.295 752.968 162.295 745.862 Q162.295 738.732 160.466 735.19 Q158.661 731.625 155.026 731.625 M155.026 727.922 Q160.837 727.922 163.892 732.528 Q166.971 737.112 166.971 745.862 Q166.971 754.588 163.892 759.195 Q160.837 763.778 155.026 763.778 Q149.216 763.778 146.138 759.195 Q143.082 754.588 143.082 745.862 Q143.082 737.112 146.138 732.528 Q149.216 727.922 155.026 727.922 Z" fill="#000000" fill-rule="nonzero" fill-opacity="1" /><path clip-path="url(#clip940)" d="M166.971 722.023 L191.082 722.023 L191.082 725.22 L166.971 725.22 L166.971 722.023 Z" fill="#000000" fill-rule="nonzero" fill-opacity="1" /><path clip-path="url(#clip940)" d="M207.878 720.142 Q205.32 720.142 203.815 721.891 Q202.329 723.641 202.329 726.687 Q202.329 729.716 203.815 731.483 Q205.32 733.233 207.878 733.233 Q210.436 733.233 211.921 731.483 Q213.426 729.716 213.426 726.687 Q213.426 723.641 211.921 721.891 Q210.436 720.142 207.878 720.142 M215.42 708.237 L215.42 711.698 Q213.99 711.021 212.523 710.663 Q211.075 710.306 209.646 710.306 Q205.884 710.306 203.89 712.845 Q201.916 715.384 201.633 720.519 Q202.743 718.882 204.417 718.017 Q206.091 717.133 208.103 717.133 Q212.335 717.133 214.78 719.71 Q217.244 722.268 217.244 726.687 Q217.244 731.013 214.686 733.628 Q212.128 736.242 207.878 736.242 Q203.006 736.242 200.43 732.518 Q197.853 728.775 197.853 721.685 Q197.853 715.027 201.013 711.077 Q204.173 707.109 209.495 707.109 Q210.925 707.109 212.373 707.391 Q213.84 707.673 215.42 708.237 Z" fill="#000000" fill-rule="nonzero" fill-opacity="1" /><path clip-path="url(#clip940)" d="M116.615 463.772 L124.254 463.772 L124.254 437.407 L115.944 439.073 L115.944 434.814 L124.208 433.147 L128.884 433.147 L128.884 463.772 L136.522 463.772 L136.522 467.707 L116.615 467.707 L116.615 463.772 Z" fill="#000000" fill-rule="nonzero" fill-opacity="1" /><path clip-path="url(#clip940)" d="M155.967 436.226 Q152.356 436.226 150.527 439.791 Q148.721 443.333 148.721 450.462 Q148.721 457.569 150.527 461.133 Q152.356 464.675 155.967 464.675 Q159.601 464.675 161.407 461.133 Q163.235 457.569 163.235 450.462 Q163.235 443.333 161.407 439.791 Q159.601 436.226 155.967 436.226 M155.967 432.522 Q161.777 432.522 164.832 437.129 Q167.911 441.712 167.911 450.462 Q167.911 459.189 164.832 463.795 Q161.777 468.379 155.967 468.379 Q150.157 468.379 147.078 463.795 Q144.022 459.189 144.022 450.462 Q144.022 441.712 147.078 437.129 Q150.157 432.522 155.967 432.522 Z" fill="#000000" fill-rule="nonzero" fill-opacity="1" /><path clip-path="url(#clip940)" d="M167.911 426.624 L192.023 426.624 L192.023 429.821 L167.911 429.821 L167.911 426.624 Z" fill="#000000" fill-rule="nonzero" fill-opacity="1" /><path clip-path="url(#clip940)" d="M200.261 412.217 L215.175 412.217 L215.175 415.414 L203.74 415.414 L203.74 422.298 Q204.568 422.016 205.395 421.884 Q206.223 421.734 207.05 421.734 Q211.752 421.734 214.498 424.31 Q217.244 426.887 217.244 431.288 Q217.244 435.821 214.423 438.341 Q211.602 440.842 206.467 440.842 Q204.699 440.842 202.856 440.541 Q201.032 440.241 199.076 439.639 L199.076 435.821 Q200.768 436.742 202.574 437.194 Q204.379 437.645 206.392 437.645 Q209.646 437.645 211.545 435.934 Q213.445 434.222 213.445 431.288 Q213.445 428.354 211.545 426.643 Q209.646 424.931 206.392 424.931 Q204.868 424.931 203.345 425.27 Q201.84 425.608 200.261 426.323 L200.261 412.217 Z" fill="#000000" fill-rule="nonzero" fill-opacity="1" /><path clip-path="url(#clip940)" d="M115.411 168.373 L123.05 168.373 L123.05 142.007 L114.74 143.674 L114.74 139.415 L123.004 137.748 L127.68 137.748 L127.68 168.373 L135.319 168.373 L135.319 172.308 L115.411 172.308 L115.411 168.373 Z" fill="#000000" fill-rule="nonzero" fill-opacity="1" /><path clip-path="url(#clip940)" d="M154.763 140.827 Q151.152 140.827 149.323 144.391 Q147.518 147.933 147.518 155.063 Q147.518 162.169 149.323 165.734 Q151.152 169.276 154.763 169.276 Q158.397 169.276 160.203 165.734 Q162.032 162.169 162.032 155.063 Q162.032 147.933 160.203 144.391 Q158.397 140.827 154.763 140.827 M154.763 137.123 Q160.573 137.123 163.629 141.729 Q166.707 146.313 166.707 155.063 Q166.707 163.79 163.629 168.396 Q160.573 172.979 154.763 172.979 Q148.953 172.979 145.874 168.396 Q142.819 163.79 142.819 155.063 Q142.819 146.313 145.874 141.729 Q148.953 137.123 154.763 137.123 Z" fill="#000000" fill-rule="nonzero" fill-opacity="1" /><path clip-path="url(#clip940)" d="M166.707 131.224 L190.819 131.224 L190.819 134.422 L166.707 134.422 L166.707 131.224 Z" fill="#000000" fill-rule="nonzero" fill-opacity="1" /><path clip-path="url(#clip940)" d="M209.458 120.128 L199.866 135.118 L209.458 135.118 L209.458 120.128 M208.461 116.818 L213.238 116.818 L213.238 135.118 L217.244 135.118 L217.244 138.277 L213.238 138.277 L213.238 144.898 L209.458 144.898 L209.458 138.277 L196.781 138.277 L196.781 134.61 L208.461 116.818 Z" fill="#000000" fill-rule="nonzero" fill-opacity="1" /><path clip-path="url(#clip940)" d="M18.4042 761.509 L18.4042 751.929 L50.7419 739.802 L18.4042 727.612 L18.4042 718.031 L65.9242 718.031 L65.9242 724.301 L24.197 724.301 L56.7894 736.555 L56.7894 743.017 L24.197 755.271 L65.9242 755.271 L65.9242 761.509 L18.4042 761.509 Z" fill="#000000" fill-rule="nonzero" fill-opacity="1" /><path clip-path="url(#clip940)" d="M19.9638 676.781 L26.234 676.781 Q24.4834 680.442 23.624 683.688 Q22.7647 686.935 22.7647 689.958 Q22.7647 695.21 24.8017 698.075 Q26.8387 700.907 30.5945 700.907 Q33.7455 700.907 35.3688 699.03 Q36.9602 697.12 37.9469 691.836 L38.7426 687.953 Q40.1112 680.76 43.5805 677.354 Q47.018 673.917 52.8108 673.917 Q59.7176 673.917 63.2824 678.564 Q66.8472 683.179 66.8472 692.123 Q66.8472 695.497 66.0833 699.316 Q65.3194 703.104 63.8235 707.178 L57.2031 707.178 Q59.3993 703.263 60.5133 699.507 Q61.6273 695.751 61.6273 692.123 Q61.6273 686.616 59.463 683.625 Q57.2986 680.633 53.2882 680.633 Q49.7871 680.633 47.8137 682.797 Q45.8404 684.929 44.8537 689.831 L44.0898 693.746 Q42.6575 700.939 39.602 704.154 Q36.5464 707.369 31.1037 707.369 Q24.8017 707.369 21.1732 702.944 Q17.5448 698.488 17.5448 690.69 Q17.5448 687.348 18.1495 683.879 Q18.7543 680.41 19.9638 676.781 Z" fill="#000000" fill-rule="nonzero" fill-opacity="1" /><path clip-path="url(#clip940)" d="M18.4042 663.891 L18.4042 633.845 L23.815 633.845 L23.815 657.461 L37.8832 657.461 L37.8832 634.831 L43.2941 634.831 L43.2941 657.461 L60.5133 657.461 L60.5133 633.272 L65.9242 633.272 L65.9242 663.891 L18.4042 663.891 Z" fill="#000000" fill-rule="nonzero" fill-opacity="1" /><circle clip-path="url(#clip942)" cx="308.548" cy="95.0524" r="18" fill="#78c2ad" fill-rule="evenodd" fill-opacity="0.6" stroke="#000000" stroke-opacity="0.6" stroke-width="3.072"/>
<circle clip-path="url(#clip942)" cx="939.036" cy="305.192" r="18" fill="#78c2ad" fill-rule="evenodd" fill-opacity="0.6" stroke="#000000" stroke-opacity="0.6" stroke-width="3.072"/>
<circle clip-path="url(#clip942)" cx="1569.52" cy="601.49" r="18" fill="#78c2ad" fill-rule="evenodd" fill-opacity="0.6" stroke="#000000" stroke-opacity="0.6" stroke-width="3.072"/>
<circle clip-path="url(#clip942)" cx="2200.01" cy="823.588" r="18" fill="#78c2ad" fill-rule="evenodd" fill-opacity="0.6" stroke="#000000" stroke-opacity="0.6" stroke-width="3.072"/>
<polyline clip-path="url(#clip942)" style="stroke:#78c2ad; stroke-linecap:round; stroke-linejoin:round; stroke-width:8; stroke-opacity:1; fill:none" points="308.548,84.0448 327.654,91.5657 346.759,99.0867 365.865,106.608 384.971,114.129 404.076,121.649 423.182,129.17 442.288,136.691 461.393,144.212 480.499,151.733 499.605,159.254 518.711,166.775 537.816,174.296 556.922,181.817 576.028,189.338 595.133,196.859 614.239,204.38 633.345,211.9 652.45,219.421 671.556,226.942 690.662,234.463 709.768,241.984 728.873,249.505 747.979,257.026 767.085,264.547 786.19,272.068 805.296,279.589 824.402,287.11 843.507,294.631 862.613,302.152 881.719,309.672 900.825,317.193 919.93,324.714 939.036,332.235 958.142,339.756 977.247,347.277 996.353,354.798 1015.46,362.319 1034.56,369.84 1053.67,377.361 1072.78,384.882 1091.88,392.403 1110.99,399.923 1130.09,407.444 1149.2,414.965 1168.3,422.486 1187.41,430.007 1206.52,437.528 1225.62,445.049 1244.73,452.57 1263.83,460.091 1282.94,467.612 1302.04,475.133 1321.15,482.654 1340.26,490.175 1359.36,497.695 1378.47,505.216 1397.57,512.737 1416.68,520.258 1435.78,527.779 1454.89,535.3 1474,542.821 1493.1,550.342 1512.21,557.863 1531.31,565.384 1550.42,572.905 1569.52,580.426 1588.63,587.946 1607.74,595.467 1626.84,602.988 1645.95,610.509 1665.05,618.03 1684.16,625.551 1703.26,633.072 1722.37,640.593 1741.48,648.114 1760.58,655.635 1779.69,663.156 1798.79,670.677 1817.9,678.198 1837,685.718 1856.11,693.239 1875.22,700.76 1894.32,708.281 1913.43,715.802 1932.53,723.323 1951.64,730.844 1970.74,738.365 1989.85,745.886 2008.96,753.407 2028.06,760.928 2047.17,768.449 2066.27,775.969 2085.38,783.49 2104.48,791.011 2123.59,798.532 2142.69,806.053 2161.8,813.574 2180.91,821.095 2200.01,828.616 "/>
<circle clip-path="url(#clip942)" cx="308.548" cy="405.721" r="18" fill="#e95420" fill-rule="evenodd" fill-opacity="0.6" stroke="#000000" stroke-opacity="0.6" stroke-width="3.072"/>
<circle clip-path="url(#clip942)" cx="939.036" cy="637.967" r="18" fill="#e95420" fill-rule="evenodd" fill-opacity="0.6" stroke="#000000" stroke-opacity="0.6" stroke-width="3.072"/>
<circle clip-path="url(#clip942)" cx="1569.52" cy="853.628" r="18" fill="#e95420" fill-rule="evenodd" fill-opacity="0.6" stroke="#000000" stroke-opacity="0.6" stroke-width="3.072"/>
<circle clip-path="url(#clip942)" cx="2200.01" cy="1310.74" r="18" fill="#e95420" fill-rule="evenodd" fill-opacity="0.6" stroke="#000000" stroke-opacity="0.6" stroke-width="3.072"/>
<polyline clip-path="url(#clip942)" style="stroke:#e95420; stroke-linecap:round; stroke-linejoin:round; stroke-width:8; stroke-opacity:1; fill:none" points="308.548,362.407 327.654,371.288 346.759,380.169 365.865,389.05 384.971,397.931 404.076,406.812 423.182,415.693 442.288,424.574 461.393,433.454 480.499,442.335 499.605,451.216 518.711,460.097 537.816,468.978 556.922,477.859 576.028,486.74 595.133,495.621 614.239,504.502 633.345,513.383 652.45,522.264 671.556,531.145 690.662,540.026 709.768,548.906 728.873,557.787 747.979,566.668 767.085,575.549 786.19,584.43 805.296,593.311 824.402,602.192 843.507,611.073 862.613,619.954 881.719,628.835 900.825,637.716 919.93,646.597 939.036,655.478 958.142,664.359 977.247,673.239 996.353,682.12 1015.46,691.001 1034.56,699.882 1053.67,708.763 1072.78,717.644 1091.88,726.525 1110.99,735.406 1130.09,744.287 1149.2,753.168 1168.3,762.049 1187.41,770.93 1206.52,779.811 1225.62,788.692 1244.73,797.572 1263.83,806.453 1282.94,815.334 1302.04,824.215 1321.15,833.096 1340.26,841.977 1359.36,850.858 1378.47,859.739 1397.57,868.62 1416.68,877.501 1435.78,886.382 1454.89,895.263 1474,904.144 1493.1,913.024 1512.21,921.905 1531.31,930.786 1550.42,939.667 1569.52,948.548 1588.63,957.429 1607.74,966.31 1626.84,975.191 1645.95,984.072 1665.05,992.953 1684.16,1001.83 1703.26,1010.71 1722.37,1019.6 1741.48,1028.48 1760.58,1037.36 1779.69,1046.24 1798.79,1055.12 1817.9,1064 1837,1072.88 1856.11,1081.76 1875.22,1090.64 1894.32,1099.52 1913.43,1108.4 1932.53,1117.29 1951.64,1126.17 1970.74,1135.05 1989.85,1143.93 2008.96,1152.81 2028.06,1161.69 2047.17,1170.57 2066.27,1179.45 2085.38,1188.33 2104.48,1197.21 2123.59,1206.1 2142.69,1214.98 2161.8,1223.86 2180.91,1232.74 2200.01,1241.62 "/>
<path clip-path="url(#clip940)" d="M1845.19 246.107 L2189.92 246.107 L2189.92 90.5872 L1845.19 90.5872  Z" fill="#f0f1eb" fill-rule="evenodd" fill-opacity="1"/>
<polyline clip-path="url(#clip940)" style="stroke:#000000; stroke-linecap:round; stroke-linejoin:round; stroke-width:4; stroke-opacity:1; fill:none" points="1845.19,246.107 2189.92,246.107 2189.92,90.5872 1845.19,90.5872 1845.19,246.107 "/>
<polyline clip-path="url(#clip940)" style="stroke:#78c2ad; stroke-linecap:round; stroke-linejoin:round; stroke-width:8; stroke-opacity:1; fill:none" points="1867.47,142.427 2001.13,142.427 "/>
<path clip-path="url(#clip940)" d="M2023.94 125.147 L2051.1 125.147 L2051.1 128.712 L2029.24 155.772 L2051.63 155.772 L2051.63 159.707 L2023.41 159.707 L2023.41 156.142 L2045.26 129.082 L2023.94 129.082 L2023.94 125.147 Z" fill="#000000" fill-rule="nonzero" fill-opacity="1" /><path clip-path="url(#clip940)" d="M2056.42 125.147 L2083.57 125.147 L2083.57 128.712 L2061.72 155.772 L2084.11 155.772 L2084.11 159.707 L2055.89 159.707 L2055.89 156.142 L2077.74 129.082 L2056.42 129.082 L2056.42 125.147 Z" fill="#000000" fill-rule="nonzero" fill-opacity="1" /><polyline clip-path="url(#clip940)" style="stroke:#e95420; stroke-linecap:round; stroke-linejoin:round; stroke-width:8; stroke-opacity:1; fill:none" points="1867.47,194.267 2001.13,194.267 "/>
<path clip-path="url(#clip940)" d="M2023.94 176.987 L2051.1 176.987 L2051.1 180.552 L2029.24 207.612 L2051.63 207.612 L2051.63 211.547 L2023.41 211.547 L2023.41 207.982 L2045.26 180.922 L2023.94 180.922 L2023.94 176.987 Z" fill="#000000" fill-rule="nonzero" fill-opacity="1" /><path clip-path="url(#clip940)" d="M2056.42 176.987 L2083.57 176.987 L2083.57 180.552 L2061.72 207.612 L2084.11 207.612 L2084.11 211.547 L2055.89 211.547 L2055.89 207.982 L2077.74 180.922 L2056.42 180.922 L2056.42 176.987 Z" fill="#000000" fill-rule="nonzero" fill-opacity="1" /><path clip-path="url(#clip940)" d="M2087.72 196.663 L2100.19 196.663 L2100.19 200.459 L2087.72 200.459 L2087.72 196.663 Z" fill="#000000" fill-rule="nonzero" fill-opacity="1" /><path clip-path="url(#clip940)" d="M2133.04 179.649 L2133.04 184.58 Q2130.68 182.381 2127.99 181.293 Q2125.33 180.205 2122.32 180.205 Q2116.4 180.205 2113.25 183.839 Q2110.1 187.45 2110.1 194.302 Q2110.1 201.131 2113.25 204.765 Q2116.4 208.376 2122.32 208.376 Q2125.33 208.376 2127.99 207.288 Q2130.68 206.2 2133.04 204.001 L2133.04 208.885 Q2130.59 210.552 2127.83 211.385 Q2125.1 212.218 2122.05 212.218 Q2114.2 212.218 2109.68 207.427 Q2105.17 202.612 2105.17 194.302 Q2105.17 185.969 2109.68 181.177 Q2114.2 176.362 2122.05 176.362 Q2125.15 176.362 2127.88 177.196 Q2130.63 178.006 2133.04 179.649 Z" fill="#000000" fill-rule="nonzero" fill-opacity="1" /><path clip-path="url(#clip940)" d="M2149.17 211.547 L2135.98 176.987 L2140.86 176.987 L2151.81 206.084 L2162.79 176.987 L2167.65 176.987 L2154.48 211.547 L2149.17 211.547 Z" fill="#000000" fill-rule="nonzero" fill-opacity="1" /></svg>
