<?xml version="1.0" standalone="no"?>
<!DOCTYPE svg PUBLIC "-//W3C//DTD SVG 20010904//EN"
 "http://www.w3.org/TR/2001/REC-SVG-20010904/DTD/svg10.dtd">
<svg version="1.0" xmlns="http://www.w3.org/2000/svg"
 width="320.000000pt" height="320.000000pt" viewBox="0 0 320.000000 320.000000"
 preserveAspectRatio="xMidYMid meet">
<metadata>
Created by potrace 1.15, written by Peter Selinger 2001-2017
</metadata><g><rect x="0" y="0" width="320" height="320" fill="#f0f1eb" fill-opacity="0" stroke-opacity="0" />
<g transform="translate(0.000000,320.000000) scale(0.050000,-0.050000)"
fill="#020304" stroke="none">
<path d="M560 5280 c0 -560 0 -560 560 -560 560 0 560 0 560 560 0 560 0 560
-560 560 -560 0 -560 0 -560 -560z m960 0 c0 -400 0 -400 -400 -400 -400 0
-400 0 -400 400 0 400 0 400 400 400 400 0 400 0 400 -400z"/>
<path d="M880 5280 c0 -240 0 -240 240 -240 240 0 240 0 240 240 0 240 0 240
-240 240 -240 0 -240 0 -240 -240z"/>
<path d="M2160 5680 c0 -160 0 -160 80 -160 80 0 80 0 80 160 0 160 0 160 -80
160 -80 0 -80 0 -80 -160z"/>
<path d="M2480 5760 c0 -80 0 -80 160 -80 160 0 160 0 160 -160 0 -160 0 -160
-80 -160 -80 0 -80 0 -80 80 0 80 0 80 -80 80 -80 0 -80 0 -80 -160 0 -160 0
-160 80 -160 80 0 80 0 80 -80 0 -80 0 -80 -160 -80 -160 0 -160 0 -160 -80 0
-80 0 -80 -80 -80 -80 0 -80 0 -80 160 0 160 0 160 80 160 80 0 80 0 80 80 0
80 0 80 -240 80 -240 0 -240 0 -240 -80 0 -80 0 -80 80 -80 80 0 80 0 80 -80
0 -80 0 -80 -80 -80 -80 0 -80 0 -80 -160 0 -160 0 -160 80 -160 80 0 80 0 80
-80 0 -80 0 -80 -240 -80 -240 0 -240 0 -240 -80 0 -80 0 -80 -80 -80 -80 0
-80 0 -80 80 0 80 0 80 -400 80 -400 0 -400 0 -400 -80 0 -80 0 -80 80 -80 80
0 80 0 80 -80 0 -80 0 -80 160 -80 160 0 160 0 160 -80 0 -80 0 -80 -80 -80
-80 0 -80 0 -80 -80 0 -80 0 -80 -80 -80 -80 0 -80 0 -80 -80 0 -80 0 -80 -80
-80 -80 0 -80 0 -80 -80 0 -80 0 -80 160 -80 160 0 160 0 160 160 0 160 0 160
80 160 80 0 80 0 80 80 0 80 0 80 80 80 80 0 80 0 80 -80 0 -80 0 -80 160 -80
160 0 160 0 160 -80 0 -80 0 -80 -80 -80 -80 0 -80 0 -80 -80 0 -80 0 -80 -80
-80 -80 0 -80 0 -80 80 0 80 0 80 -80 80 -80 0 -80 0 -80 -80 0 -80 0 -80 80
-80 80 0 80 0 80 -160 0 -160 0 -160 -80 -160 -80 0 -80 0 -80 80 0 80 0 80
-80 80 -80 0 -80 0 -80 -80 0 -80 0 -80 -160 -80 -160 0 -160 0 -160 -160 0
-160 0 -160 80 -160 80 0 80 0 80 -80 0 -80 0 -80 -80 -80 -80 0 -80 0 -80
-80 0 -80 0 -80 160 -80 160 0 160 0 160 80 0 80 0 80 80 80 80 0 80 0 80 -80
0 -80 0 -80 80 -80 80 0 80 0 80 80 0 80 0 80 80 80 80 0 80 0 80 80 0 80 0
80 80 80 80 0 80 0 80 -80 0 -80 0 -80 80 -80 80 0 80 0 80 80 0 80 0 80 -80
80 -80 0 -80 0 -80 80 0 80 0 80 80 80 80 0 80 0 80 80 0 80 0 80 160 80 160
0 160 0 160 -80 0 -80 0 -80 -80 -80 -80 0 -80 0 -80 -80 0 -80 0 -80 80 -80
80 0 80 0 80 -80 0 -80 0 -80 160 -80 160 0 160 0 160 160 0 160 0 160 80 160
80 0 80 0 80 -80 0 -80 0 -80 80 -80 80 0 80 0 80 -80 0 -80 0 -80 -80 -80
-80 0 -80 0 -80 -160 0 -160 0 -160 80 -160 80 0 80 0 80 80 0 80 0 80 80 80
80 0 80 0 80 -80 0 -80 0 -80 160 -80 160 0 160 0 160 -80 0 -80 0 -80 -80
-80 -80 0 -80 0 -80 -80 0 -80 0 -80 -80 -80 -80 0 -80 0 -80 -80 0 -80 0 -80
80 -80 80 0 80 0 80 -80 0 -80 0 -80 -240 -80 -240 0 -240 0 -240 160 0 160 0
160 80 160 80 0 80 0 80 80 0 80 0 80 -160 80 -160 0 -160 0 -160 160 0 160 0
160 -480 160 -480 0 -480 0 -480 -80 0 -80 0 -80 240 -80 240 0 240 0 240 -80
0 -80 0 -80 80 -80 80 0 80 0 80 -80 0 -80 0 -80 80 -80 80 0 80 0 80 -160 0
-160 0 -160 160 -160 160 0 160 0 160 -80 0 -80 0 -80 80 -80 80 0 80 0 80
-80 0 -80 0 -80 -80 -80 -80 0 -80 0 -80 -160 0 -160 0 -160 80 -160 80 0 80
0 80 80 0 80 0 80 80 80 80 0 80 0 80 -80 0 -80 0 -80 80 -80 80 0 80 0 80 80
0 80 0 80 80 80 80 0 80 0 80 80 0 80 0 80 80 80 80 0 80 0 80 240 0 240 0
240 -160 240 -160 0 -160 0 -160 80 0 80 0 80 240 80 240 0 240 0 240 80 0 80
0 80 240 80 240 0 240 0 240 -80 0 -80 0 -80 -80 -80 -80 0 -80 0 -80 -80 0
-80 0 -80 -80 -80 -80 0 -80 0 -80 -160 0 -160 0 -160 -80 -160 -80 0 -80 0
-80 -160 0 -160 0 -160 -80 -160 -80 0 -80 0 -80 -80 0 -80 0 -80 -80 -80 -80
0 -80 0 -80 -80 0 -80 0 -80 -80 -80 -80 0 -80 0 -80 -80 0 -80 0 -80 -80 -80
-80 0 -80 0 -80 -80 0 -80 0 -80 240 -80 240 0 240 0 240 -80 0 -80 0 -80 80
-80 80 0 80 0 80 80 0 80 0 80 -80 80 -80 0 -80 0 -80 80 0 80 0 80 80 80 80
0 80 0 80 80 0 80 0 80 80 80 80 0 80 0 80 80 0 80 0 80 -80 80 -80 0 -80 0
-80 80 0 80 0 80 160 80 160 0 160 0 160 -240 0 -240 0 -240 -80 -240 -80 0
-80 0 -80 -160 0 -160 0 -160 80 -160 80 0 80 0 80 80 0 80 0 80 160 80 160 0
160 0 160 80 0 80 0 80 80 80 80 0 80 0 80 160 0 160 0 160 -160 160 -160 0
-160 0 -160 80 0 80 0 80 80 80 80 0 80 0 80 80 0 80 0 80 -80 80 -80 0 -80 0
-80 80 0 80 0 80 160 80 160 0 160 0 160 -80 0 -80 0 -80 80 -80 80 0 80 0 80
-160 0 -160 0 -160 80 -160 80 0 80 0 80 -80 0 -80 0 -80 -80 -80 -80 0 -80 0
-80 -80 0 -80 0 -80 80 -80 80 0 80 0 80 -80 0 -80 0 -80 -160 -80 -160 0
-160 0 -160 -80 0 -80 0 -80 240 -80 240 0 240 0 240 160 0 160 0 160 80 160
80 0 80 0 80 -160 0 -160 0 -160 80 -160 80 0 80 0 80 80 0 80 0 80 80 80 80
0 80 0 80 -80 0 -80 0 -80 80 -80 80 0 80 0 80 80 0 80 0 80 80 80 80 0 80 0
80 -80 0 -80 0 -80 80 -80 80 0 80 0 80 80 0 80 0 80 -80 80 -80 0 -80 0 -80
80 0 80 0 80 -80 80 -80 0 -80 0 -80 -80 0 -80 0 -80 -80 -80 -80 0 -80 0 -80
80 0 80 0 80 -80 80 -80 0 -80 0 -80 80 0 80 0 80 400 80 400 0 400 0 400 160
0 160 0 160 -80 160 -80 0 -80 0 -80 160 0 160 0 160 80 160 80 0 80 0 80 160
0 160 0 160 -80 160 -80 0 -80 0 -80 -160 0 -160 0 -160 -80 -160 -80 0 -80 0
-80 80 0 80 0 80 -80 80 -80 0 -80 0 -80 80 0 80 0 80 80 80 80 0 80 0 80 80
0 80 0 80 80 80 80 0 80 0 80 80 0 80 0 80 80 80 80 0 80 0 80 80 0 80 0 80
-80 80 -80 0 -80 0 -80 80 0 80 0 80 -80 80 -80 0 -80 0 -80 80 0 80 0 80 80
80 80 0 80 0 80 80 0 80 0 80 80 80 80 0 80 0 80 80 0 80 0 80 -80 80 -80 0
-80 0 -80 80 0 80 0 80 -80 80 -80 0 -80 0 -80 80 0 80 0 80 80 80 80 0 80 0
80 80 0 80 0 80 80 80 80 0 80 0 80 80 0 80 0 80 -160 80 -160 0 -160 0 -160
-160 0 -160 0 -160 -80 -160 -80 0 -80 0 -80 -80 0 -80 0 -80 80 -80 80 0 80
0 80 -240 0 -240 0 -240 -80 -240 -80 0 -80 0 -80 160 0 160 0 160 -80 160
-80 0 -80 0 -80 160 0 160 0 160 -80 160 -80 0 -80 0 -80 160 0 160 0 160 160
160 160 0 160 0 160 80 0 80 0 80 80 80 80 0 80 0 80 80 0 80 0 80 80 80 80 0
80 0 80 80 0 80 0 80 80 80 80 0 80 0 80 80 0 80 0 80 -80 80 -80 0 -80 0 -80
80 0 80 0 80 -80 80 -80 0 -80 0 -80 -80 0 -80 0 -80 -80 -80 -80 0 -80 0 -80
80 0 80 0 80 -80 80 -80 0 -80 0 -80 -80 0 -80 0 -80 80 -80 80 0 80 0 80 -80
0 -80 0 -80 -240 -80 -240 0 -240 0 -240 80 0 80 0 80 80 80 80 0 80 0 80 80
0 80 0 80 -80 80 -80 0 -80 0 -80 -80 0 -80 0 -80 -80 -80 -80 0 -80 0 -80 80
0 80 0 80 -80 80 -80 0 -80 0 -80 240 0 240 0 240 -80 240 -80 0 -80 0 -80 80
0 80 0 80 80 80 80 0 80 0 80 80 0 80 0 80 -80 80 -80 0 -80 0 -80 80 0 80 0
80 -240 80 -240 0 -240 0 -240 80 0 80 0 80 240 80 240 0 240 0 240 80 0 80 0
80 -320 80 -320 0 -320 0 -320 -160 0 -160 0 -160 -80 -160 -80 0 -80 0 -80
80 0 80 0 80 -80 80 -80 0 -80 0 -80 80 0 80 0 80 -160 80 -160 0 -160 0 -160
-80 0 -80 0 -80 -160 -80 -160 0 -160 0 -160 80 0 80 0 80 -160 80 -160 0
-160 0 -160 -80z m800 -160 c0 -80 0 -80 80 -80 80 0 80 0 80 -80 0 -80 0 -80
80 -80 80 0 80 0 80 -80 0 -80 0 -80 -80 -80 -80 0 -80 0 -80 80 0 80 0 80
-80 80 -80 0 -80 0 -80 80 0 80 0 80 -80 80 -80 0 -80 0 -80 80 0 80 0 80 80
80 80 0 80 0 80 -80z m800 -320 c0 -80 0 -80 -80 -80 -80 0 -80 0 -80 -80 0
-80 0 -80 -80 -80 -80 0 -80 0 -80 -160 0 -160 0 -160 80 -160 80 0 80 0 80
80 0 80 0 80 80 80 80 0 80 0 80 -80 0 -80 0 -80 80 -80 80 0 80 0 80 160 0
160 0 160 80 160 80 0 80 0 80 -240 0 -240 0 -240 80 -240 80 0 80 0 80 -80 0
-80 0 -80 80 -80 80 0 80 0 80 -80 0 -80 0 -80 80 -80 80 0 80 0 80 -80 0 -80
0 -80 80 -80 80 0 80 0 80 -80 0 -80 0 -80 -80 -80 -80 0 -80 0 -80 -80 0 -80
0 -80 -80 -80 -80 0 -80 0 -80 -160 0 -160 0 -160 80 -160 80 0 80 0 80 -80 0
-80 0 -80 80 -80 80 0 80 0 80 -80 0 -80 0 -80 80 -80 80 0 80 0 80 -160 0
-160 0 -160 80 -160 80 0 80 0 80 -80 0 -80 0 -80 80 -80 80 0 80 0 80 -240 0
-240 0 -240 -80 -240 -80 0 -80 0 -80 -80 0 -80 0 -80 -160 -80 -160 0 -160 0
-160 80 0 80 0 80 -80 80 -80 0 -80 0 -80 -80 0 -80 0 -80 -240 -80 -240 0
-240 0 -240 80 0 80 0 80 -80 80 -80 0 -80 0 -80 -160 0 -160 0 -160 80 -160
80 0 80 0 80 -80 0 -80 0 -80 -80 -80 -80 0 -80 0 -80 80 0 80 0 80 -240 80
-240 0 -240 0 -240 80 0 80 0 80 160 80 160 0 160 0 160 160 0 160 0 160 160
160 160 0 160 0 160 80 0 80 0 80 160 80 160 0 160 0 160 80 0 80 0 80 -80 80
-80 0 -80 0 -80 80 0 80 0 80 -80 80 -80 0 -80 0 -80 -80 0 -80 0 -80 -80 -80
-80 0 -80 0 -80 -80 0 -80 0 -80 -240 -80 -240 0 -240 0 -240 80 0 80 0 80
-80 80 -80 0 -80 0 -80 -80 0 -80 0 -80 -80 -80 -80 0 -80 0 -80 -80 0 -80 0
-80 -80 -80 -80 0 -80 0 -80 80 0 80 0 80 -80 80 -80 0 -80 0 -80 80 0 80 0
80 -160 80 -160 0 -160 0 -160 80 0 80 0 80 240 80 240 0 240 0 240 160 0 160
0 160 -80 160 -80 0 -80 0 -80 -80 0 -80 0 -80 -80 -80 -80 0 -80 0 -80 80 0
80 0 80 -240 80 -240 0 -240 0 -240 160 0 160 0 160 80 160 80 0 80 0 80 80 0
80 0 80 -160 80 -160 0 -160 0 -160 -80 0 -80 0 -80 -80 -80 -80 0 -80 0 -80
160 0 160 0 160 80 160 80 0 80 0 80 80 0 80 0 80 -160 80 -160 0 -160 0 -160
240 0 240 0 240 80 240 80 0 80 0 80 80 0 80 0 80 80 80 80 0 80 0 80 -80 0
-80 0 -80 80 -80 80 0 80 0 80 160 0 160 0 160 -80 160 -80 0 -80 0 -80 80 0
80 0 80 80 80 80 0 80 0 80 -80 0 -80 0 -80 80 -80 80 0 80 0 80 160 0 160 0
160 80 160 80 0 80 0 80 80 0 80 0 80 160 80 160 0 160 0 160 -80 0 -80 0 -80
160 -80 160 0 160 0 160 -160 0 -160 0 -160 80 -160 80 0 80 0 80 160 0 160 0
160 80 160 80 0 80 0 80 160 0 160 0 160 160 160 160 0 160 0 160 -80z m-1920
-480 c0 -80 0 -80 -80 -80 -80 0 -80 0 -80 80 0 80 0 80 80 80 80 0 80 0 80
-80z m-800 -480 c0 -80 0 -80 80 -80 80 0 80 0 80 80 0 80 0 80 160 80 160 0
160 0 160 -80 0 -80 0 -80 -160 -80 -160 0 -160 0 -160 -80 0 -80 0 -80 80
-80 80 0 80 0 80 -80 0 -80 0 -80 80 -80 80 0 80 0 80 -80 0 -80 0 -80 80 -80
80 0 80 0 80 -160 0 -160 0 -160 -160 -160 -160 0 -160 0 -160 -80 0 -80 0
-80 -80 -80 -80 0 -80 0 -80 -80 0 -80 0 -80 -160 -80 -160 0 -160 0 -160 80
0 80 0 80 80 80 80 0 80 0 80 160 0 160 0 160 80 160 80 0 80 0 80 80 0 80 0
80 80 80 80 0 80 0 80 80 0 80 0 80 -80 80 -80 0 -80 0 -80 80 0 80 0 80 -80
80 -80 0 -80 0 -80 80 0 80 0 80 -160 80 -160 0 -160 0 -160 80 0 80 0 80 160
80 160 0 160 0 160 -80z m4160 -160 c0 -80 0 -80 -80 -80 -80 0 -80 0 -80 -80
0 -80 0 -80 -80 -80 -80 0 -80 0 -80 80 0 80 0 80 80 80 80 0 80 0 80 80 0 80
0 80 80 80 80 0 80 0 80 -80z m-4480 -960 c0 -80 0 -80 -80 -80 -80 0 -80 0
-80 80 0 80 0 80 80 80 80 0 80 0 80 -80z m1120 -800 c0 -80 0 -80 -80 -80
-80 0 -80 0 -80 80 0 80 0 80 80 80 80 0 80 0 80 -80z m2880 -800 c0 -240 0
-240 -240 -240 -240 0 -240 0 -240 240 0 240 0 240 240 240 240 0 240 0 240
-240z m320 160 c0 -80 0 -80 -80 -80 -80 0 -80 0 -80 80 0 80 0 80 80 80 80 0
80 0 80 -80z m-1600 -160 c0 -80 0 -80 80 -80 80 0 80 0 80 -80 0 -80 0 -80
-80 -80 -80 0 -80 0 -80 80 0 80 0 80 -80 80 -80 0 -80 0 -80 80 0 80 0 80 80
80 80 0 80 0 80 -80z m-800 -160 c0 -80 0 -80 -80 -80 -80 0 -80 0 -80 80 0
80 0 80 80 80 80 0 80 0 80 -80z m2400 0 c0 -80 0 -80 80 -80 80 0 80 0 80
-80 0 -80 0 -80 -80 -80 -80 0 -80 0 -80 80 0 80 0 80 -80 80 -80 0 -80 0 -80
80 0 80 0 80 80 80 80 0 80 0 80 -80z m-320 -320 c0 -80 0 -80 -160 -80 -160
0 -160 0 -160 80 0 80 0 80 160 80 160 0 160 0 160 -80z m-1760 -160 c0 -80 0
-80 -80 -80 -80 0 -80 0 -80 80 0 80 0 80 80 80 80 0 80 0 80 -80z"/>
<path d="M2800 4880 c0 -160 0 -160 80 -160 80 0 80 0 80 -80 0 -80 0 -80 80
-80 80 0 80 0 80 80 0 80 0 80 80 80 80 0 80 0 80 80 0 80 0 80 -80 80 -80 0
-80 0 -80 80 0 80 0 80 -160 80 -160 0 -160 0 -160 -160z m320 -80 c0 -80 0
-80 -80 -80 -80 0 -80 0 -80 80 0 80 0 80 80 80 80 0 80 0 80 -80z"/>
<path d="M3600 4640 c0 -80 0 -80 80 -80 80 0 80 0 80 -80 0 -80 0 -80 -160
-80 -160 0 -160 0 -160 80 0 80 0 80 -80 80 -80 0 -80 0 -80 -80 0 -80 0 -80
-80 -80 -80 0 -80 0 -80 -80 0 -80 0 -80 -160 -80 -160 0 -160 0 -160 80 0 80
0 80 -160 80 -160 0 -160 0 -160 -80 0 -80 0 -80 80 -80 80 0 80 0 80 -80 0
-80 0 -80 -80 -80 -80 0 -80 0 -80 -160 0 -160 0 -160 80 -160 80 0 80 0 80
80 0 80 0 80 80 80 80 0 80 0 80 -80 0 -80 0 -80 80 -80 80 0 80 0 80 80 0 80
0 80 -80 80 -80 0 -80 0 -80 80 0 80 0 80 160 80 160 0 160 0 160 -80 0 -80 0
-80 80 -80 80 0 80 0 80 80 0 80 0 80 80 80 80 0 80 0 80 80 0 80 0 80 160 80
160 0 160 0 160 -160 0 -160 0 -160 240 -160 240 0 240 0 240 -160 0 -160 0
-160 -80 -160 -80 0 -80 0 -80 -80 0 -80 0 -80 -160 -80 -160 0 -160 0 -160
-80 0 -80 0 -80 240 -80 240 0 240 0 240 -80 0 -80 0 -80 -400 -80 -400 0
-400 0 -400 80 0 80 0 80 80 80 80 0 80 0 80 160 0 160 0 160 160 160 160 0
160 0 160 80 0 80 0 80 -160 80 -160 0 -160 0 -160 -80 0 -80 0 -80 -80 -80
-80 0 -80 0 -80 80 0 80 0 80 -80 80 -80 0 -80 0 -80 -80 0 -80 0 -80 -160
-80 -160 0 -160 0 -160 -80 0 -80 0 -80 -80 -80 -80 0 -80 0 -80 -80 0 -80 0
-80 160 -80 160 0 160 0 160 80 0 80 0 80 160 80 160 0 160 0 160 -80 0 -80 0
-80 -80 -80 -80 0 -80 0 -80 -80 0 -80 0 -80 80 -80 80 0 80 0 80 -160 0 -160
0 -160 80 -160 80 0 80 0 80 80 0 80 0 80 80 80 80 0 80 0 80 -80 0 -80 0 -80
80 -80 80 0 80 0 80 -80 0 -80 0 -80 80 -80 80 0 80 0 80 80 0 80 0 80 -80 80
-80 0 -80 0 -80 80 0 80 0 80 240 80 240 0 240 0 240 80 0 80 0 80 80 80 80 0
80 0 80 -160 0 -160 0 -160 80 -160 80 0 80 0 80 80 0 80 0 80 80 80 80 0 80
0 80 -80 0 -80 0 -80 80 -80 80 0 80 0 80 160 0 160 0 160 -160 160 -160 0
-160 0 -160 160 0 160 0 160 -80 160 -80 0 -80 0 -80 -80 0 -80 0 -80 -80 -80
-80 0 -80 0 -80 80 0 80 0 80 -80 80 -80 0 -80 0 -80 80 0 80 0 80 160 80 160
0 160 0 160 80 0 80 0 80 80 80 80 0 80 0 80 80 0 80 0 80 80 80 80 0 80 0 80
80 0 80 0 80 -80 80 -80 0 -80 0 -80 80 0 80 0 80 -80 80 -80 0 -80 0 -80
-160 0 -160 0 -160 -80 -160 -80 0 -80 0 -80 80 0 80 0 80 -240 80 -240 0
-240 0 -240 80 0 80 0 80 240 80 240 0 240 0 240 80 0 80 0 80 -80 80 -80 0
-80 0 -80 80 0 80 0 80 -80 80 -80 0 -80 0 -80 80 0 80 0 80 -80 80 -80 0 -80
0 -80 -80 0 -80 0 -80 -80 -80 -80 0 -80 0 -80 80 0 80 0 80 -80 80 -80 0 -80
0 -80 -80z m480 -160 c0 -80 0 -80 -80 -80 -80 0 -80 0 -80 80 0 80 0 80 80
80 80 0 80 0 80 -80z m-640 -160 c0 -80 0 -80 -80 -80 -80 0 -80 0 -80 -80 0
-80 0 -80 -80 -80 -80 0 -80 0 -80 80 0 80 0 80 80 80 80 0 80 0 80 80 0 80 0
80 80 80 80 0 80 0 80 -80z"/>
<path d="M2160 4240 c0 -160 0 -160 80 -160 80 0 80 0 80 160 0 160 0 160 -80
160 -80 0 -80 0 -80 -160z"/>
<path d="M3280 2560 c0 -80 0 -80 80 -80 80 0 80 0 80 80 0 80 0 80 -80 80
-80 0 -80 0 -80 -80z"/>
<path d="M5040 2560 c0 -80 0 -80 -160 -80 -160 0 -160 0 -160 -160 0 -160 0
-160 80 -160 80 0 80 0 80 80 0 80 0 80 80 80 80 0 80 0 80 -80 0 -80 0 -80
160 -80 160 0 160 0 160 160 0 160 0 160 -80 160 -80 0 -80 0 -80 80 0 80 0
80 -80 80 -80 0 -80 0 -80 -80z m160 -160 c0 -80 0 -80 -80 -80 -80 0 -80 0
-80 80 0 80 0 80 80 80 80 0 80 0 80 -80z"/>
<path d="M4400 2240 c0 -80 0 -80 80 -80 80 0 80 0 80 80 0 80 0 80 -80 80
-80 0 -80 0 -80 -80z"/>
<path d="M1520 3520 c0 -80 0 -80 80 -80 80 0 80 0 80 80 0 80 0 80 -80 80
-80 0 -80 0 -80 -80z"/>
<path d="M4720 1600 c0 -80 0 -80 80 -80 80 0 80 0 80 80 0 80 0 80 -80 80
-80 0 -80 0 -80 -80z"/>
<path d="M4720 5280 c0 -560 0 -560 560 -560 560 0 560 0 560 560 0 560 0 560
-560 560 -560 0 -560 0 -560 -560z m960 0 c0 -400 0 -400 -400 -400 -400 0
-400 0 -400 400 0 400 0 400 400 400 400 0 400 0 400 -400z"/>
<path d="M5040 5280 c0 -240 0 -240 240 -240 240 0 240 0 240 240 0 240 0 240
-240 240 -240 0 -240 0 -240 -240z"/>
<path d="M1840 5600 c0 -80 0 -80 80 -80 80 0 80 0 80 80 0 80 0 80 -80 80
-80 0 -80 0 -80 -80z"/>
<path d="M560 2160 c0 -320 0 -320 80 -320 80 0 80 0 80 320 0 320 0 320 -80
320 -80 0 -80 0 -80 -320z"/>
<path d="M1040 2240 c0 -80 0 -80 -80 -80 -80 0 -80 0 -80 -160 0 -160 0 -160
80 -160 80 0 80 0 80 160 0 160 0 160 80 160 80 0 80 0 80 -80 0 -80 0 -80 80
-80 80 0 80 0 80 80 0 80 0 80 160 80 160 0 160 0 160 80 0 80 0 80 -320 80
-320 0 -320 0 -320 -80z"/>
<path d="M1520 1920 c0 -80 0 -80 80 -80 80 0 80 0 80 80 0 80 0 80 -80 80
-80 0 -80 0 -80 -80z"/>
<path d="M1840 1760 c0 -240 0 -240 80 -240 80 0 80 0 80 -80 0 -80 0 -80 -80
-80 -80 0 -80 0 -80 -400 0 -400 0 -400 160 -400 160 0 160 0 160 160 0 160 0
160 80 160 80 0 80 0 80 -160 0 -160 0 -160 80 -160 80 0 80 0 80 160 0 160 0
160 80 160 80 0 80 0 80 80 0 80 0 80 -160 80 -160 0 -160 0 -160 160 0 160 0
160 -80 160 -80 0 -80 0 -80 80 0 80 0 80 80 80 80 0 80 0 80 80 0 80 0 80
-160 80 -160 0 -160 0 -160 160 0 160 0 160 -80 160 -80 0 -80 0 -80 -240z
m320 -640 c0 -80 0 -80 -80 -80 -80 0 -80 0 -80 80 0 80 0 80 80 80 80 0 80 0
80 -80z"/>
<path d="M560 1120 c0 -560 0 -560 560 -560 560 0 560 0 560 560 0 560 0 560
-560 560 -560 0 -560 0 -560 -560z m960 0 c0 -400 0 -400 -400 -400 -400 0
-400 0 -400 400 0 400 0 400 400 400 400 0 400 0 400 -400z"/>
<path d="M880 1120 c0 -240 0 -240 240 -240 240 0 240 0 240 240 0 240 0 240
-240 240 -240 0 -240 0 -240 -240z"/>
</g>
</g></svg>
