<?xml version="1.0" encoding="utf-8"?>
<svg xmlns="http://www.w3.org/2000/svg" xmlns:xlink="http://www.w3.org/1999/xlink" width="1600" height="400" viewBox="0 0 6400 1600">
<defs>
  <clipPath id="clip240">
    <rect x="0" y="0" width="6400" height="1600"/>
  </clipPath>
</defs>
<path clip-path="url(#clip240)" d="M0 1600 L6400 1600 L6400 0 L0 0  Z" fill="#f0f1eb" fill-rule="evenodd" fill-opacity="1"/>
<defs>
  <clipPath id="clip241">
    <rect x="232" y="85" width="6121" height="1423"/>
  </clipPath>
</defs>
<path clip-path="url(#clip240)" d="M196.922 1508.05 L6352.76 1508.05 L6352.76 85.6721 L196.922 85.6721  Z" fill="#f0f1eb" fill-rule="evenodd" fill-opacity="1"/>
<defs>
  <clipPath id="clip242">
    <rect x="196" y="85" width="6157" height="1423"/>
  </clipPath>
</defs>
<polyline clip-path="url(#clip242)" style="stroke:#000000; stroke-linecap:round; stroke-linejoin:round; stroke-width:2; stroke-opacity:0.1; fill:none" points="371.144,1508.05 371.144,85.6721 "/>
<polyline clip-path="url(#clip242)" style="stroke:#000000; stroke-linecap:round; stroke-linejoin:round; stroke-width:2; stroke-opacity:0.1; fill:none" points="1822.99,1508.05 1822.99,85.6721 "/>
<polyline clip-path="url(#clip242)" style="stroke:#000000; stroke-linecap:round; stroke-linejoin:round; stroke-width:2; stroke-opacity:0.1; fill:none" points="3274.84,1508.05 3274.84,85.6721 "/>
<polyline clip-path="url(#clip242)" style="stroke:#000000; stroke-linecap:round; stroke-linejoin:round; stroke-width:2; stroke-opacity:0.1; fill:none" points="4726.69,1508.05 4726.69,85.6721 "/>
<polyline clip-path="url(#clip242)" style="stroke:#000000; stroke-linecap:round; stroke-linejoin:round; stroke-width:2; stroke-opacity:0.1; fill:none" points="6178.53,1508.05 6178.53,85.6721 "/>
<polyline clip-path="url(#clip242)" style="stroke:#000000; stroke-linecap:round; stroke-linejoin:round; stroke-width:2; stroke-opacity:0.1; fill:none" points="196.922,1393.6 6352.76,1393.6 "/>
<polyline clip-path="url(#clip242)" style="stroke:#000000; stroke-linecap:round; stroke-linejoin:round; stroke-width:2; stroke-opacity:0.1; fill:none" points="196.922,1141.02 6352.76,1141.02 "/>
<polyline clip-path="url(#clip242)" style="stroke:#000000; stroke-linecap:round; stroke-linejoin:round; stroke-width:2; stroke-opacity:0.1; fill:none" points="196.922,888.444 6352.76,888.444 "/>
<polyline clip-path="url(#clip242)" style="stroke:#000000; stroke-linecap:round; stroke-linejoin:round; stroke-width:2; stroke-opacity:0.1; fill:none" points="196.922,635.867 6352.76,635.867 "/>
<polyline clip-path="url(#clip242)" style="stroke:#000000; stroke-linecap:round; stroke-linejoin:round; stroke-width:2; stroke-opacity:0.1; fill:none" points="196.922,383.29 6352.76,383.29 "/>
<polyline clip-path="url(#clip242)" style="stroke:#000000; stroke-linecap:round; stroke-linejoin:round; stroke-width:2; stroke-opacity:0.1; fill:none" points="196.922,130.713 6352.76,130.713 "/>
<path clip-path="url(#clip240)" d="M2830.13 43.6931 L2830.13 65.8515 L2843.26 65.8515 Q2849.86 65.8515 2853.02 63.1374 Q2856.22 60.3828 2856.22 54.752 Q2856.22 49.0808 2853.02 46.4072 Q2849.86 43.6931 2843.26 43.6931 L2830.13 43.6931 M2830.13 18.8205 L2830.13 37.0496 L2842.24 37.0496 Q2848.24 37.0496 2851.16 34.8216 Q2854.11 32.5531 2854.11 27.935 Q2854.11 23.3575 2851.16 21.089 Q2848.24 18.8205 2842.24 18.8205 L2830.13 18.8205 M2821.95 12.096 L2842.85 12.096 Q2852.21 12.096 2857.27 15.9849 Q2862.34 19.8737 2862.34 27.0438 Q2862.34 32.5936 2859.74 35.8748 Q2857.15 39.156 2852.13 39.9662 Q2858.16 41.2625 2861.48 45.3944 Q2864.85 49.4858 2864.85 55.6432 Q2864.85 63.745 2859.34 68.1605 Q2853.83 72.576 2843.66 72.576 L2821.95 72.576 L2821.95 12.096 Z" fill="#000000" fill-rule="nonzero" fill-opacity="1" /><path clip-path="url(#clip240)" d="M2887.05 18.8205 L2887.05 41.5461 L2897.34 41.5461 Q2903.05 41.5461 2906.17 38.5889 Q2909.29 35.6318 2909.29 30.163 Q2909.29 24.7348 2906.17 21.7777 Q2903.05 18.8205 2897.34 18.8205 L2887.05 18.8205 M2878.86 12.096 L2897.34 12.096 Q2907.5 12.096 2912.69 16.714 Q2917.91 21.2916 2917.91 30.163 Q2917.91 39.1155 2912.69 43.6931 Q2907.5 48.2706 2897.34 48.2706 L2887.05 48.2706 L2887.05 72.576 L2878.86 72.576 L2878.86 12.096 Z" fill="#000000" fill-rule="nonzero" fill-opacity="1" /><path clip-path="url(#clip240)" d="M2965.15 14.0809 L2965.15 22.0612 Q2960.49 19.8332 2956.36 18.7395 Q2952.23 17.6457 2948.38 17.6457 Q2941.69 17.6457 2938.05 20.2383 Q2934.44 22.8309 2934.44 27.611 Q2934.44 31.6214 2936.83 33.6873 Q2939.26 35.7128 2945.99 36.9686 L2950.93 37.9813 Q2960.08 39.7232 2964.42 44.1387 Q2968.79 48.5136 2968.79 55.8863 Q2968.79 64.6767 2962.88 69.2137 Q2957.01 73.7508 2945.62 73.7508 Q2941.33 73.7508 2936.47 72.7785 Q2931.65 71.8063 2926.46 69.9024 L2926.46 61.4765 Q2931.44 64.2716 2936.22 65.6895 Q2941 67.1073 2945.62 67.1073 Q2952.63 67.1073 2956.44 64.3527 Q2960.25 61.598 2960.25 56.4939 Q2960.25 52.0379 2957.49 49.5264 Q2954.78 47.0148 2948.54 45.759 L2943.56 44.7868 Q2934.4 42.9639 2930.31 39.075 Q2926.22 35.1862 2926.22 28.2591 Q2926.22 20.2383 2931.85 15.6203 Q2937.52 11.0023 2947.45 11.0023 Q2951.7 11.0023 2956.11 11.7719 Q2960.53 12.5416 2965.15 14.0809 Z" fill="#000000" fill-rule="nonzero" fill-opacity="1" /><path clip-path="url(#clip240)" d="M3016.11 18.8205 L3016.11 41.5461 L3026.4 41.5461 Q3032.11 41.5461 3035.23 38.5889 Q3038.35 35.6318 3038.35 30.163 Q3038.35 24.7348 3035.23 21.7777 Q3032.11 18.8205 3026.4 18.8205 L3016.11 18.8205 M3007.93 12.096 L3026.4 12.096 Q3036.56 12.096 3041.75 16.714 Q3046.98 21.2916 3046.98 30.163 Q3046.98 39.1155 3041.75 43.6931 Q3036.56 48.2706 3026.4 48.2706 L3016.11 48.2706 L3016.11 72.576 L3007.93 72.576 L3007.93 12.096 Z" fill="#000000" fill-rule="nonzero" fill-opacity="1" /><path clip-path="url(#clip240)" d="M3072.25 32.4315 Q3066.26 32.4315 3062.77 37.1306 Q3059.29 41.7891 3059.29 49.9314 Q3059.29 58.0738 3062.73 62.7728 Q3066.22 67.4314 3072.25 67.4314 Q3078.21 67.4314 3081.69 62.7323 Q3085.18 58.0333 3085.18 49.9314 Q3085.18 41.8701 3081.69 37.1711 Q3078.21 32.4315 3072.25 32.4315 M3072.25 26.1121 Q3081.98 26.1121 3087.53 32.4315 Q3093.08 38.7509 3093.08 49.9314 Q3093.08 61.0714 3087.53 67.4314 Q3081.98 73.7508 3072.25 73.7508 Q3062.49 73.7508 3056.94 67.4314 Q3051.43 61.0714 3051.43 49.9314 Q3051.43 38.7509 3056.94 32.4315 Q3062.49 26.1121 3072.25 26.1121 Z" fill="#000000" fill-rule="nonzero" fill-opacity="1" /><path clip-path="url(#clip240)" d="M3112.8 14.324 L3112.8 27.2059 L3128.16 27.2059 L3128.16 32.9987 L3112.8 32.9987 L3112.8 57.6282 Q3112.8 63.1779 3114.3 64.7578 Q3115.84 66.3376 3120.5 66.3376 L3128.16 66.3376 L3128.16 72.576 L3120.5 72.576 Q3111.87 72.576 3108.59 69.3758 Q3105.31 66.1351 3105.31 57.6282 L3105.31 32.9987 L3099.84 32.9987 L3099.84 27.2059 L3105.31 27.2059 L3105.31 14.324 L3112.8 14.324 Z" fill="#000000" fill-rule="nonzero" fill-opacity="1" /><path clip-path="url(#clip240)" d="M3176.77 48.0275 L3176.77 51.6733 L3142.5 51.6733 Q3142.98 59.3701 3147.11 63.421 Q3151.29 67.4314 3158.7 67.4314 Q3162.99 67.4314 3167 66.3781 Q3171.05 65.3249 3175.02 63.2184 L3175.02 70.267 Q3171.01 71.9684 3166.8 72.8596 Q3162.59 73.7508 3158.25 73.7508 Q3147.4 73.7508 3141.04 67.4314 Q3134.72 61.1119 3134.72 50.3365 Q3134.72 39.1965 3140.71 32.6746 Q3146.75 26.1121 3156.96 26.1121 Q3166.11 26.1121 3171.42 32.0264 Q3176.77 37.9003 3176.77 48.0275 M3169.31 45.84 Q3169.23 39.7232 3165.87 36.0774 Q3162.55 32.4315 3157.04 32.4315 Q3150.8 32.4315 3147.03 35.9558 Q3143.31 39.4801 3142.74 45.8805 L3169.31 45.84 Z" fill="#000000" fill-rule="nonzero" fill-opacity="1" /><path clip-path="url(#clip240)" d="M3226.71 45.1919 L3226.71 72.576 L3219.26 72.576 L3219.26 45.4349 Q3219.26 38.994 3216.75 35.7938 Q3214.24 32.5936 3209.21 32.5936 Q3203.18 32.5936 3199.69 36.4419 Q3196.21 40.2903 3196.21 46.9338 L3196.21 72.576 L3188.72 72.576 L3188.72 27.2059 L3196.21 27.2059 L3196.21 34.2544 Q3198.88 30.163 3202.49 28.1376 Q3206.14 26.1121 3210.88 26.1121 Q3218.69 26.1121 3222.7 30.9732 Q3226.71 35.7938 3226.71 45.1919 Z" fill="#000000" fill-rule="nonzero" fill-opacity="1" /><path clip-path="url(#clip240)" d="M3248.95 14.324 L3248.95 27.2059 L3264.31 27.2059 L3264.31 32.9987 L3248.95 32.9987 L3248.95 57.6282 Q3248.95 63.1779 3250.45 64.7578 Q3251.99 66.3376 3256.65 66.3376 L3264.31 66.3376 L3264.31 72.576 L3256.65 72.576 Q3248.02 72.576 3244.74 69.3758 Q3241.46 66.1351 3241.46 57.6282 L3241.46 32.9987 L3235.99 32.9987 L3235.99 27.2059 L3241.46 27.2059 L3241.46 14.324 L3248.95 14.324 Z" fill="#000000" fill-rule="nonzero" fill-opacity="1" /><path clip-path="url(#clip240)" d="M3274.11 27.2059 L3281.56 27.2059 L3281.56 72.576 L3274.11 72.576 L3274.11 27.2059 M3274.11 9.54393 L3281.56 9.54393 L3281.56 18.9825 L3274.11 18.9825 L3274.11 9.54393 Z" fill="#000000" fill-rule="nonzero" fill-opacity="1" /><path clip-path="url(#clip240)" d="M3317.78 49.7694 Q3308.75 49.7694 3305.26 51.8354 Q3301.78 53.9013 3301.78 58.8839 Q3301.78 62.8538 3304.37 65.2034 Q3307 67.5124 3311.5 67.5124 Q3317.7 67.5124 3321.42 63.1374 Q3325.19 58.7219 3325.19 51.4303 L3325.19 49.7694 L3317.78 49.7694 M3332.65 46.6907 L3332.65 72.576 L3325.19 72.576 L3325.19 65.6895 Q3322.64 69.8214 3318.83 71.8063 Q3315.02 73.7508 3309.51 73.7508 Q3302.55 73.7508 3298.42 69.8619 Q3294.32 65.9325 3294.32 59.3701 Q3294.32 51.7138 3299.43 47.825 Q3304.57 43.9361 3314.74 43.9361 L3325.19 43.9361 L3325.19 43.2069 Q3325.19 38.0623 3321.79 35.2672 Q3318.43 32.4315 3312.31 32.4315 Q3308.42 32.4315 3304.73 33.3632 Q3301.05 34.295 3297.65 36.1584 L3297.65 29.2718 Q3301.74 27.692 3305.59 26.9223 Q3309.43 26.1121 3313.08 26.1121 Q3322.92 26.1121 3327.78 31.2163 Q3332.65 36.3204 3332.65 46.6907 Z" fill="#000000" fill-rule="nonzero" fill-opacity="1" /><path clip-path="url(#clip240)" d="M3348 9.54393 L3355.45 9.54393 L3355.45 72.576 L3348 72.576 L3348 9.54393 Z" fill="#000000" fill-rule="nonzero" fill-opacity="1" /><path clip-path="url(#clip240)" d="M3415.32 9.62495 Q3409.9 18.942 3407.26 28.0566 Q3404.63 37.1711 3404.63 46.5287 Q3404.63 55.8863 3407.26 65.0818 Q3409.94 74.2369 3415.32 83.5134 L3408.84 83.5134 Q3402.77 73.9938 3399.73 64.7983 Q3396.73 55.6027 3396.73 46.5287 Q3396.73 37.4952 3399.73 28.3401 Q3402.73 19.1851 3408.84 9.62495 L3415.32 9.62495 Z" fill="#000000" fill-rule="nonzero" fill-opacity="1" /><path clip-path="url(#clip240)" d="M3459.64 34.0924 L3459.64 9.54393 L3467.1 9.54393 L3467.1 72.576 L3459.64 72.576 L3459.64 65.7705 Q3457.29 69.8214 3453.69 71.8063 Q3450.12 73.7508 3445.1 73.7508 Q3436.88 73.7508 3431.69 67.1883 Q3426.55 60.6258 3426.55 49.9314 Q3426.55 39.2371 3431.69 32.6746 Q3436.88 26.1121 3445.1 26.1121 Q3450.12 26.1121 3453.69 28.0971 Q3457.29 30.0415 3459.64 34.0924 M3434.24 49.9314 Q3434.24 58.1548 3437.6 62.8538 Q3441.01 67.5124 3446.92 67.5124 Q3452.84 67.5124 3456.24 62.8538 Q3459.64 58.1548 3459.64 49.9314 Q3459.64 41.7081 3456.24 37.0496 Q3452.84 32.3505 3446.92 32.3505 Q3441.01 32.3505 3437.6 37.0496 Q3434.24 41.7081 3434.24 49.9314 Z" fill="#000000" fill-rule="nonzero" fill-opacity="1" /><path clip-path="url(#clip240)" d="M3483.42 34.9026 L3535.35 34.9026 L3535.35 41.7081 L3483.42 41.7081 L3483.42 34.9026 M3483.42 51.4303 L3535.35 51.4303 L3535.35 58.3168 L3483.42 58.3168 L3483.42 51.4303 Z" fill="#000000" fill-rule="nonzero" fill-opacity="1" /><path clip-path="url(#clip240)" d="M3554.43 65.6895 L3567.8 65.6895 L3567.8 19.5497 L3553.26 22.4663 L3553.26 15.0127 L3567.72 12.096 L3575.9 12.096 L3575.9 65.6895 L3589.27 65.6895 L3589.27 72.576 L3554.43 72.576 L3554.43 65.6895 Z" fill="#000000" fill-rule="nonzero" fill-opacity="1" /><path clip-path="url(#clip240)" d="M3623.3 17.4837 Q3616.98 17.4837 3613.78 23.7221 Q3610.62 29.92 3610.62 42.3968 Q3610.62 54.833 3613.78 61.0714 Q3616.98 67.2693 3623.3 67.2693 Q3629.66 67.2693 3632.82 61.0714 Q3636.02 54.833 3636.02 42.3968 Q3636.02 29.92 3632.82 23.7221 Q3629.66 17.4837 3623.3 17.4837 M3623.3 11.0023 Q3633.47 11.0023 3638.81 19.0636 Q3644.2 27.0843 3644.2 42.3968 Q3644.2 57.6687 3638.81 65.73 Q3633.47 73.7508 3623.3 73.7508 Q3613.13 73.7508 3607.74 65.73 Q3602.4 57.6687 3602.4 42.3968 Q3602.4 27.0843 3607.74 19.0636 Q3613.13 11.0023 3623.3 11.0023 Z" fill="#000000" fill-rule="nonzero" fill-opacity="1" /><path clip-path="url(#clip240)" d="M3676.08 17.4837 Q3669.76 17.4837 3666.56 23.7221 Q3663.4 29.92 3663.4 42.3968 Q3663.4 54.833 3666.56 61.0714 Q3669.76 67.2693 3676.08 67.2693 Q3682.44 67.2693 3685.6 61.0714 Q3688.8 54.833 3688.8 42.3968 Q3688.8 29.92 3685.6 23.7221 Q3682.44 17.4837 3676.08 17.4837 M3676.08 11.0023 Q3686.25 11.0023 3691.6 19.0636 Q3696.98 27.0843 3696.98 42.3968 Q3696.98 57.6687 3691.6 65.73 Q3686.25 73.7508 3676.08 73.7508 Q3665.91 73.7508 3660.53 65.73 Q3655.18 57.6687 3655.18 42.3968 Q3655.18 27.0843 3660.53 19.0636 Q3665.91 11.0023 3676.08 11.0023 Z" fill="#000000" fill-rule="nonzero" fill-opacity="1" /><path clip-path="url(#clip240)" d="M3709.14 9.62495 L3715.62 9.62495 Q3721.69 19.1851 3724.69 28.3401 Q3727.73 37.4952 3727.73 46.5287 Q3727.73 55.6027 3724.69 64.7983 Q3721.69 73.9938 3715.62 83.5134 L3709.14 83.5134 Q3714.52 74.2369 3717.16 65.0818 Q3719.83 55.8863 3719.83 46.5287 Q3719.83 37.1711 3717.16 28.0566 Q3714.52 18.942 3709.14 9.62495 Z" fill="#000000" fill-rule="nonzero" fill-opacity="1" /><polyline clip-path="url(#clip242)" style="stroke:#0096ff; stroke-linecap:round; stroke-linejoin:round; stroke-width:16; stroke-opacity:1; fill:none" points="371.144,360.342 411.7,260.229 430.243,312.118 480.168,311.307 526.97,314.256 615.862,252.613 718.949,302.182 721.358,304.656 756.484,261.801 761.476,257.109 832.674,244.551 846.496,245.286 861.476,232.727 934.122,230.886 969.93,144.02 994.138,206.95 1091.58,125.928 1119.31,163.051 1267.83,354.007 1326.39,357.608 1330.93,364.803 1404.67,563.033 1407.44,563.596 1446.96,513.037 1500.07,570.175 1533.72,573.233 1603.3,480.264 1610.91,456.671 1617.41,476.96 1682.45,446.235 1740.24,479.815 1755.85,462.714 1781.9,487.18 1898.5,682.162 1942,641.255 1962.01,625.313 2017.16,640.222 2046.5,794.636 2059.25,768.66 2062.23,775.175 2098.57,700.151 2098.73,700.578 2151.78,562.422 2276,614.872 2350.81,638.648 2415.85,627.501 2449.05,649.024 2516.94,565.863 2638.06,722.373 2708.85,684.277 2779.03,722.681 2851.86,598.797 2920.47,655.769 2945.29,597.237 2996.04,697.226 3046.61,858.923 3185.22,714.206 3258.75,862.651 3303.61,783.829 3307.86,791.193 3365.85,724.254 3383.92,701.23 3394.65,716.072 3449.16,564.896 3491.65,690.374 3594.15,759.6 3619.52,705.31 3654.7,775.41 3655.02,774.402 3705.36,894.224 3720.72,869.504 3744.37,904.627 3763.63,918.526 3828.15,1023.53 3876.24,1023.95 3934.96,1008.96 4018.45,993.106 4077.23,1026.03 4128.27,1005.91 4175.83,873.093 4189.47,918.102 4230.81,849.952 4238.25,849.479 4309.58,1255.51 4357.23,1119.09 4378.07,1187.11 4448.64,1114.87 4472.15,1049.42 4479.69,1028.68 4507.25,1096.21 4516.78,1074.67 4542.26,1126.19 4555.07,1081.7 4614,1245.68 4675.7,1100.07 4679.25,1095.48 4720.73,1125.64 4746.87,1154.18 4761.11,1074.35 4803.47,1293.93 4820.94,1375.79 4833.53,1352.85 4881.77,1415.01 4896.88,1382.25 4912.39,1415.76 4990.46,1261.56 5094.26,1426.57 5124.45,1420.11 5129.64,1415.31 5216.92,1388.53 5230.34,1377.6 5329.83,1249.72 5343,1283.68 5430.61,1179.98 5511.09,1283.84 5521.3,1316.69 5521.36,1316.76 5523.75,1304.68 5552.27,1312.33 5575.8,1279.66 5603.69,1257.32 5605.39,1256.63 5667.36,1196.88 5813.84,1101.25 5896.15,1234.1 5960.92,1239.73 5987.92,1252.66 5990.37,1254.86 5990.75,1254.97 6003.88,1225.77 6023.47,1267.47 6091.01,1416.39 6114.47,1467.79 6178.53,1461.93 "/>
</svg>
