<?xml version="1.0" encoding="utf-8"?>
<svg xmlns="http://www.w3.org/2000/svg" xmlns:xlink="http://www.w3.org/1999/xlink" width="1600" height="400" viewBox="0 0 6400 1600">
<defs>
  <clipPath id="clip290">
    <rect x="0" y="0" width="6400" height="1600"/>
  </clipPath>
</defs>
<path clip-path="url(#clip290)" d="M0 1600 L6400 1600 L6400 0 L0 0  Z" fill="#f0f1eb" fill-rule="evenodd" fill-opacity="1"/>
<defs>
  <clipPath id="clip291">
    <rect x="196" y="85" width="6157" height="1423"/>
  </clipPath>
</defs>
<path clip-path="url(#clip290)" d="M264.098 1508.05 L6352.76 1508.05 L6352.76 85.6721 L264.098 85.6721  Z" fill="#f0f1eb" fill-rule="evenodd" fill-opacity="1"/>
<defs>
  <clipPath id="clip292">
    <rect x="264" y="85" width="6090" height="1423"/>
  </clipPath>
</defs>
<polyline clip-path="url(#clip292)" style="stroke:#000000; stroke-linecap:round; stroke-linejoin:round; stroke-width:2; stroke-opacity:0.1; fill:none" points="436.418,1508.05 436.418,85.6721 "/>
<polyline clip-path="url(#clip292)" style="stroke:#000000; stroke-linecap:round; stroke-linejoin:round; stroke-width:2; stroke-opacity:0.1; fill:none" points="1872.42,1508.05 1872.42,85.6721 "/>
<polyline clip-path="url(#clip292)" style="stroke:#000000; stroke-linecap:round; stroke-linejoin:round; stroke-width:2; stroke-opacity:0.1; fill:none" points="3308.43,1508.05 3308.43,85.6721 "/>
<polyline clip-path="url(#clip292)" style="stroke:#000000; stroke-linecap:round; stroke-linejoin:round; stroke-width:2; stroke-opacity:0.1; fill:none" points="4744.43,1508.05 4744.43,85.6721 "/>
<polyline clip-path="url(#clip292)" style="stroke:#000000; stroke-linecap:round; stroke-linejoin:round; stroke-width:2; stroke-opacity:0.1; fill:none" points="6180.44,1508.05 6180.44,85.6721 "/>
<polyline clip-path="url(#clip292)" style="stroke:#000000; stroke-linecap:round; stroke-linejoin:round; stroke-width:2; stroke-opacity:0.1; fill:none" points="264.098,1446.5 6352.76,1446.5 "/>
<polyline clip-path="url(#clip292)" style="stroke:#000000; stroke-linecap:round; stroke-linejoin:round; stroke-width:2; stroke-opacity:0.1; fill:none" points="264.098,1162.66 6352.76,1162.66 "/>
<polyline clip-path="url(#clip292)" style="stroke:#000000; stroke-linecap:round; stroke-linejoin:round; stroke-width:2; stroke-opacity:0.1; fill:none" points="264.098,878.81 6352.76,878.81 "/>
<polyline clip-path="url(#clip292)" style="stroke:#000000; stroke-linecap:round; stroke-linejoin:round; stroke-width:2; stroke-opacity:0.1; fill:none" points="264.098,594.965 6352.76,594.965 "/>
<polyline clip-path="url(#clip292)" style="stroke:#000000; stroke-linecap:round; stroke-linejoin:round; stroke-width:2; stroke-opacity:0.1; fill:none" points="264.098,311.119 6352.76,311.119 "/>
<path clip-path="url(#clip290)" d="M2837.33 43.6931 L2837.33 65.8515 L2850.45 65.8515 Q2857.05 65.8515 2860.21 63.1374 Q2863.41 60.3828 2863.41 54.752 Q2863.41 49.0808 2860.21 46.4072 Q2857.05 43.6931 2850.45 43.6931 L2837.33 43.6931 M2837.33 18.8205 L2837.33 37.0496 L2849.44 37.0496 Q2855.43 37.0496 2858.35 34.8216 Q2861.31 32.5531 2861.31 27.935 Q2861.31 23.3575 2858.35 21.089 Q2855.43 18.8205 2849.44 18.8205 L2837.33 18.8205 M2829.14 12.096 L2850.05 12.096 Q2859.4 12.096 2864.47 15.9849 Q2869.53 19.8737 2869.53 27.0438 Q2869.53 32.5936 2866.94 35.8748 Q2864.35 39.156 2859.32 39.9662 Q2865.36 41.2625 2868.68 45.3944 Q2872.04 49.4858 2872.04 55.6432 Q2872.04 63.745 2866.53 68.1605 Q2861.02 72.576 2850.86 72.576 L2829.14 72.576 L2829.14 12.096 Z" fill="#000000" fill-rule="nonzero" fill-opacity="1" /><path clip-path="url(#clip290)" d="M2894.24 18.8205 L2894.24 41.5461 L2904.53 41.5461 Q2910.24 41.5461 2913.36 38.5889 Q2916.48 35.6318 2916.48 30.163 Q2916.48 24.7348 2913.36 21.7777 Q2910.24 18.8205 2904.53 18.8205 L2894.24 18.8205 M2886.06 12.096 L2904.53 12.096 Q2914.7 12.096 2919.88 16.714 Q2925.11 21.2916 2925.11 30.163 Q2925.11 39.1155 2919.88 43.6931 Q2914.7 48.2706 2904.53 48.2706 L2894.24 48.2706 L2894.24 72.576 L2886.06 72.576 L2886.06 12.096 Z" fill="#000000" fill-rule="nonzero" fill-opacity="1" /><path clip-path="url(#clip290)" d="M2972.34 14.0809 L2972.34 22.0612 Q2967.69 19.8332 2963.55 18.7395 Q2959.42 17.6457 2955.57 17.6457 Q2948.89 17.6457 2945.24 20.2383 Q2941.64 22.8309 2941.64 27.611 Q2941.64 31.6214 2944.03 33.6873 Q2946.46 35.7128 2953.18 36.9686 L2958.12 37.9813 Q2967.28 39.7232 2971.61 44.1387 Q2975.99 48.5136 2975.99 55.8863 Q2975.99 64.6767 2970.08 69.2137 Q2964.2 73.7508 2952.82 73.7508 Q2948.52 73.7508 2943.66 72.7785 Q2938.84 71.8063 2933.66 69.9024 L2933.66 61.4765 Q2938.64 64.2716 2943.42 65.6895 Q2948.2 67.1073 2952.82 67.1073 Q2959.83 67.1073 2963.63 64.3527 Q2967.44 61.598 2967.44 56.4939 Q2967.44 52.0379 2964.69 49.5264 Q2961.97 47.0148 2955.73 45.759 L2950.75 44.7868 Q2941.6 42.9639 2937.51 39.075 Q2933.41 35.1862 2933.41 28.2591 Q2933.41 20.2383 2939.05 15.6203 Q2944.72 11.0023 2954.64 11.0023 Q2958.89 11.0023 2963.31 11.7719 Q2967.73 12.5416 2972.34 14.0809 Z" fill="#000000" fill-rule="nonzero" fill-opacity="1" /><path clip-path="url(#clip290)" d="M3023.3 18.8205 L3023.3 41.5461 L3033.59 41.5461 Q3039.31 41.5461 3042.42 38.5889 Q3045.54 35.6318 3045.54 30.163 Q3045.54 24.7348 3042.42 21.7777 Q3039.31 18.8205 3033.59 18.8205 L3023.3 18.8205 M3015.12 12.096 L3033.59 12.096 Q3043.76 12.096 3048.95 16.714 Q3054.17 21.2916 3054.17 30.163 Q3054.17 39.1155 3048.95 43.6931 Q3043.76 48.2706 3033.59 48.2706 L3023.3 48.2706 L3023.3 72.576 L3015.12 72.576 L3015.12 12.096 Z" fill="#000000" fill-rule="nonzero" fill-opacity="1" /><path clip-path="url(#clip290)" d="M3079.45 32.4315 Q3073.45 32.4315 3069.97 37.1306 Q3066.49 41.7891 3066.49 49.9314 Q3066.49 58.0738 3069.93 62.7728 Q3073.41 67.4314 3079.45 67.4314 Q3085.4 67.4314 3088.89 62.7323 Q3092.37 58.0333 3092.37 49.9314 Q3092.37 41.8701 3088.89 37.1711 Q3085.4 32.4315 3079.45 32.4315 M3079.45 26.1121 Q3089.17 26.1121 3094.72 32.4315 Q3100.27 38.7509 3100.27 49.9314 Q3100.27 61.0714 3094.72 67.4314 Q3089.17 73.7508 3079.45 73.7508 Q3069.69 73.7508 3064.14 67.4314 Q3058.63 61.0714 3058.63 49.9314 Q3058.63 38.7509 3064.14 32.4315 Q3069.69 26.1121 3079.45 26.1121 Z" fill="#000000" fill-rule="nonzero" fill-opacity="1" /><path clip-path="url(#clip290)" d="M3120 14.324 L3120 27.2059 L3135.35 27.2059 L3135.35 32.9987 L3120 32.9987 L3120 57.6282 Q3120 63.1779 3121.5 64.7578 Q3123.04 66.3376 3127.7 66.3376 L3135.35 66.3376 L3135.35 72.576 L3127.7 72.576 Q3119.07 72.576 3115.79 69.3758 Q3112.5 66.1351 3112.5 57.6282 L3112.5 32.9987 L3107.04 32.9987 L3107.04 27.2059 L3112.5 27.2059 L3112.5 14.324 L3120 14.324 Z" fill="#000000" fill-rule="nonzero" fill-opacity="1" /><path clip-path="url(#clip290)" d="M3183.96 48.0275 L3183.96 51.6733 L3149.69 51.6733 Q3150.18 59.3701 3154.31 63.421 Q3158.48 67.4314 3165.9 67.4314 Q3170.19 67.4314 3174.2 66.3781 Q3178.25 65.3249 3182.22 63.2184 L3182.22 70.267 Q3178.21 71.9684 3174 72.8596 Q3169.78 73.7508 3165.45 73.7508 Q3154.59 73.7508 3148.23 67.4314 Q3141.91 61.1119 3141.91 50.3365 Q3141.91 39.1965 3147.91 32.6746 Q3153.95 26.1121 3164.15 26.1121 Q3173.31 26.1121 3178.62 32.0264 Q3183.96 37.9003 3183.96 48.0275 M3176.51 45.84 Q3176.43 39.7232 3173.07 36.0774 Q3169.74 32.4315 3164.23 32.4315 Q3158 32.4315 3154.23 35.9558 Q3150.5 39.4801 3149.94 45.8805 L3176.51 45.84 Z" fill="#000000" fill-rule="nonzero" fill-opacity="1" /><path clip-path="url(#clip290)" d="M3233.91 45.1919 L3233.91 72.576 L3226.46 72.576 L3226.46 45.4349 Q3226.46 38.994 3223.95 35.7938 Q3221.43 32.5936 3216.41 32.5936 Q3210.37 32.5936 3206.89 36.4419 Q3203.41 40.2903 3203.41 46.9338 L3203.41 72.576 L3195.91 72.576 L3195.91 27.2059 L3203.41 27.2059 L3203.41 34.2544 Q3206.08 30.163 3209.69 28.1376 Q3213.33 26.1121 3218.07 26.1121 Q3225.89 26.1121 3229.9 30.9732 Q3233.91 35.7938 3233.91 45.1919 Z" fill="#000000" fill-rule="nonzero" fill-opacity="1" /><path clip-path="url(#clip290)" d="M3256.15 14.324 L3256.15 27.2059 L3271.5 27.2059 L3271.5 32.9987 L3256.15 32.9987 L3256.15 57.6282 Q3256.15 63.1779 3257.65 64.7578 Q3259.19 66.3376 3263.85 66.3376 L3271.5 66.3376 L3271.5 72.576 L3263.85 72.576 Q3255.22 72.576 3251.94 69.3758 Q3248.66 66.1351 3248.66 57.6282 L3248.66 32.9987 L3243.19 32.9987 L3243.19 27.2059 L3248.66 27.2059 L3248.66 14.324 L3256.15 14.324 Z" fill="#000000" fill-rule="nonzero" fill-opacity="1" /><path clip-path="url(#clip290)" d="M3281.31 27.2059 L3288.76 27.2059 L3288.76 72.576 L3281.31 72.576 L3281.31 27.2059 M3281.31 9.54393 L3288.76 9.54393 L3288.76 18.9825 L3281.31 18.9825 L3281.31 9.54393 Z" fill="#000000" fill-rule="nonzero" fill-opacity="1" /><path clip-path="url(#clip290)" d="M3324.97 49.7694 Q3315.94 49.7694 3312.46 51.8354 Q3308.97 53.9013 3308.97 58.8839 Q3308.97 62.8538 3311.57 65.2034 Q3314.2 67.5124 3318.7 67.5124 Q3324.89 67.5124 3328.62 63.1374 Q3332.39 58.7219 3332.39 51.4303 L3332.39 49.7694 L3324.97 49.7694 M3339.84 46.6907 L3339.84 72.576 L3332.39 72.576 L3332.39 65.6895 Q3329.84 69.8214 3326.03 71.8063 Q3322.22 73.7508 3316.71 73.7508 Q3309.74 73.7508 3305.61 69.8619 Q3301.52 65.9325 3301.52 59.3701 Q3301.52 51.7138 3306.62 47.825 Q3311.77 43.9361 3321.94 43.9361 L3332.39 43.9361 L3332.39 43.2069 Q3332.39 38.0623 3328.99 35.2672 Q3325.62 32.4315 3319.51 32.4315 Q3315.62 32.4315 3311.93 33.3632 Q3308.24 34.295 3304.84 36.1584 L3304.84 29.2718 Q3308.93 27.692 3312.78 26.9223 Q3316.63 26.1121 3320.28 26.1121 Q3330.12 26.1121 3334.98 31.2163 Q3339.84 36.3204 3339.84 46.6907 Z" fill="#000000" fill-rule="nonzero" fill-opacity="1" /><path clip-path="url(#clip290)" d="M3355.19 9.54393 L3362.65 9.54393 L3362.65 72.576 L3355.19 72.576 L3355.19 9.54393 Z" fill="#000000" fill-rule="nonzero" fill-opacity="1" /><path clip-path="url(#clip290)" d="M3422.52 9.62495 Q3417.09 18.942 3414.46 28.0566 Q3411.83 37.1711 3411.83 46.5287 Q3411.83 55.8863 3414.46 65.0818 Q3417.13 74.2369 3422.52 83.5134 L3416.04 83.5134 Q3409.96 73.9938 3406.92 64.7983 Q3403.93 55.6027 3403.93 46.5287 Q3403.93 37.4952 3406.92 28.3401 Q3409.92 19.1851 3416.04 9.62495 L3422.52 9.62495 Z" fill="#000000" fill-rule="nonzero" fill-opacity="1" /><path clip-path="url(#clip290)" d="M3466.84 34.0924 L3466.84 9.54393 L3474.29 9.54393 L3474.29 72.576 L3466.84 72.576 L3466.84 65.7705 Q3464.49 69.8214 3460.88 71.8063 Q3457.32 73.7508 3452.29 73.7508 Q3444.07 73.7508 3438.89 67.1883 Q3433.74 60.6258 3433.74 49.9314 Q3433.74 39.2371 3438.89 32.6746 Q3444.07 26.1121 3452.29 26.1121 Q3457.32 26.1121 3460.88 28.0971 Q3464.49 30.0415 3466.84 34.0924 M3441.44 49.9314 Q3441.44 58.1548 3444.8 62.8538 Q3448.2 67.5124 3454.12 67.5124 Q3460.03 67.5124 3463.43 62.8538 Q3466.84 58.1548 3466.84 49.9314 Q3466.84 41.7081 3463.43 37.0496 Q3460.03 32.3505 3454.12 32.3505 Q3448.2 32.3505 3444.8 37.0496 Q3441.44 41.7081 3441.44 49.9314 Z" fill="#000000" fill-rule="nonzero" fill-opacity="1" /><path clip-path="url(#clip290)" d="M3490.62 34.9026 L3542.55 34.9026 L3542.55 41.7081 L3490.62 41.7081 L3490.62 34.9026 M3490.62 51.4303 L3542.55 51.4303 L3542.55 58.3168 L3490.62 58.3168 L3490.62 51.4303 Z" fill="#000000" fill-rule="nonzero" fill-opacity="1" /><path clip-path="url(#clip290)" d="M3561.63 65.6895 L3575 65.6895 L3575 19.5497 L3560.45 22.4663 L3560.45 15.0127 L3574.92 12.096 L3583.1 12.096 L3583.1 65.6895 L3596.47 65.6895 L3596.47 72.576 L3561.63 72.576 L3561.63 65.6895 Z" fill="#000000" fill-rule="nonzero" fill-opacity="1" /><path clip-path="url(#clip290)" d="M3630.49 17.4837 Q3624.17 17.4837 3620.97 23.7221 Q3617.81 29.92 3617.81 42.3968 Q3617.81 54.833 3620.97 61.0714 Q3624.17 67.2693 3630.49 67.2693 Q3636.85 67.2693 3640.01 61.0714 Q3643.21 54.833 3643.21 42.3968 Q3643.21 29.92 3640.01 23.7221 Q3636.85 17.4837 3630.49 17.4837 M3630.49 11.0023 Q3640.66 11.0023 3646.01 19.0636 Q3651.4 27.0843 3651.4 42.3968 Q3651.4 57.6687 3646.01 65.73 Q3640.66 73.7508 3630.49 73.7508 Q3620.33 73.7508 3614.94 65.73 Q3609.59 57.6687 3609.59 42.3968 Q3609.59 27.0843 3614.94 19.0636 Q3620.33 11.0023 3630.49 11.0023 Z" fill="#000000" fill-rule="nonzero" fill-opacity="1" /><path clip-path="url(#clip290)" d="M3683.28 17.4837 Q3676.96 17.4837 3673.76 23.7221 Q3670.6 29.92 3670.6 42.3968 Q3670.6 54.833 3673.76 61.0714 Q3676.96 67.2693 3683.28 67.2693 Q3689.64 67.2693 3692.8 61.0714 Q3696 54.833 3696 42.3968 Q3696 29.92 3692.8 23.7221 Q3689.64 17.4837 3683.28 17.4837 M3683.28 11.0023 Q3693.45 11.0023 3698.79 19.0636 Q3704.18 27.0843 3704.18 42.3968 Q3704.18 57.6687 3698.79 65.73 Q3693.45 73.7508 3683.28 73.7508 Q3673.11 73.7508 3667.72 65.73 Q3662.37 57.6687 3662.37 42.3968 Q3662.37 27.0843 3667.72 19.0636 Q3673.11 11.0023 3683.28 11.0023 Z" fill="#000000" fill-rule="nonzero" fill-opacity="1" /><path clip-path="url(#clip290)" d="M3736.06 17.4837 Q3729.74 17.4837 3726.54 23.7221 Q3723.38 29.92 3723.38 42.3968 Q3723.38 54.833 3726.54 61.0714 Q3729.74 67.2693 3736.06 67.2693 Q3742.42 67.2693 3745.58 61.0714 Q3748.78 54.833 3748.78 42.3968 Q3748.78 29.92 3745.58 23.7221 Q3742.42 17.4837 3736.06 17.4837 M3736.06 11.0023 Q3746.23 11.0023 3751.58 19.0636 Q3756.96 27.0843 3756.96 42.3968 Q3756.96 57.6687 3751.58 65.73 Q3746.23 73.7508 3736.06 73.7508 Q3725.89 73.7508 3720.51 65.73 Q3715.16 57.6687 3715.16 42.3968 Q3715.16 27.0843 3720.51 19.0636 Q3725.89 11.0023 3736.06 11.0023 Z" fill="#000000" fill-rule="nonzero" fill-opacity="1" /><path clip-path="url(#clip290)" d="M3769.12 9.62495 L3775.6 9.62495 Q3781.67 19.1851 3784.67 28.3401 Q3787.71 37.4952 3787.71 46.5287 Q3787.71 55.6027 3784.67 64.7983 Q3781.67 73.9938 3775.6 83.5134 L3769.12 83.5134 Q3774.5 74.2369 3777.14 65.0818 Q3779.81 55.8863 3779.81 46.5287 Q3779.81 37.1711 3777.14 28.0566 Q3774.5 18.942 3769.12 9.62495 Z" fill="#000000" fill-rule="nonzero" fill-opacity="1" /><polyline clip-path="url(#clip292)" style="stroke:#0096ff; stroke-linecap:round; stroke-linejoin:round; stroke-width:16; stroke-opacity:1; fill:none" points="436.418,1069.54 440.184,992.017 442.018,1033.63 451.1,1083 451.979,1091.54 458.11,907.403 464.25,1091.75 471.678,1040.46 472.193,1047.89 476.72,967.822 477.548,974.384 480.05,971.57 486.727,948.742 491.122,908.693 493.249,933.321 496.629,884.84 502.402,862.6 514.296,791.079 515.469,811.816 521.078,879.205 521.586,885.898 527.018,796.409 528.326,823.831 539.485,954.498 539.656,955.917 541.159,980.834 548.141,977.119 557.759,954.657 563.531,992.291 564.691,970.329 567.636,1020.34 569.229,998.658 576.616,906.571 580.825,872.902 582.526,854.48 588.327,891.438 589.346,881.059 592.269,904.764 594.066,870.028 594.083,870.373 599.633,830.633 603.933,739.965 611.263,870.348 615.947,771.213 618.787,837.02 624.782,864.899 626.478,856.21 628.441,842.627 634.392,857.972 638.801,854.006 639.355,853.626 652.295,705.658 655.925,783.932 656.961,784.69 659.246,827.621 661.702,818.36 668.591,777.376 670.584,753.828 672.238,773.972 674.425,767.38 674.704,768.997 675.064,758.891 678.074,834.779 680.528,830.448 682.116,834.747 683.825,828.001 689.038,829.254 702.448,916.121 705.718,898.336 708.04,911.521 713.832,845.867 721.854,917.326 727.114,948.468 730.577,852.782 730.902,851.113 731.593,843.849 738.264,746.333 743.735,833.45 745.852,811.966 746.432,816.468 750.591,849.015 751.177,846.947 756.262,837.375 758.028,847.079 759.85,832.861 765.938,852.119 766.912,846.165 776.243,787.029 780.572,838.026 786.471,875.474 790.035,846.056 790.121,844.824 791.839,824.517 795.434,859.683 798.657,784.21 799.309,788.522 802.038,734.913 802.944,711.043 803.098,715.244 808.535,799.815 814.789,802.826 817.876,758.638 818.081,762.219 818.724,756.084 819.15,752.877 825.758,625.81 840.719,777.496 841.539,781.802 849.863,891.764 850.554,901.992 851.478,890.4 862.339,804.813 863.642,828.631 868.75,756.58 871.734,738.313 875.569,758.241 875.579,758.372 876.743,776.542 879.777,803.523 882.329,817.692 884.738,785.661 885.117,791.546 887.145,713.45 903.484,604.744 911.786,732.587 915.689,657.935 922.218,764.142 922.253,764.143 924.005,752.432 924.176,753.917 929.906,779.679 932.11,823.444 937.979,749.588 940.783,794.22 944.762,678.81 945.314,696.888 952.779,621.425 957.115,577.059 957.911,588.266 958.005,589.3 958.286,586.171 963.089,616.117 965.89,576.955 973.352,518.802 977.157,513.688 977.811,502.251 985.522,577.739 986.566,560.273 987.256,572.088 991.691,554.129 995.824,523.403 1001.7,555.942 1009.58,492.286 1018.73,553.559 1021.91,561.284 1037.42,472.23 1039.29,476.756 1050.86,399.369 1052.92,434.49 1056.2,462.064 1063.82,470.437 1066.89,443.277 1072.12,477.295 1078.39,330.058 1089.73,533.724 1090.87,519.461 1095,551.165 1100.17,509.482 1102.29,533.601 1104.46,510.76 1107.64,506.512 1108.74,491.138 1121.7,505.093 1127.19,495.594 1128.99,462.213 1146.53,487.406 1150.53,449.849 1160.03,324.037 1165.05,415.013 1165.17,413.752 1165.22,414.461 1172.67,443.498 1176.03,443.655 1185.59,378.758 1191.43,442.03 1197.31,404.525 1197.42,405.89 1198.96,403.3 1202.16,402.899 1203.88,400.486 1207.46,381.658 1208,386.258 1214.39,245.206 1214.75,255.753 1214.91,259.739 1217.28,275.845 1228.54,339.331 1229.06,342.147 1233.75,308.491 1242.57,463.264 1242.98,457.576 1253.7,486.17 1261.46,490.443 1270.95,375.922 1273.07,418.462 1280.36,465.993 1287.84,469.89 1291.54,483.165 1292.52,497.023 1299.54,500.519 1300.33,503.613 1301.51,499.807 1301.63,500.347 1302.88,503.328 1309.5,482.35 1319.88,472.774 1323.14,501.01 1323.63,491.908 1328.88,575.911 1330.32,567.717 1331.63,564.09 1335.93,569.225 1336.96,558.125 1337.27,553.262 1340.54,537.385 1346.78,500.018 1351.99,498.568 1355.35,568.039 1358.81,586.054 1363.53,474.999 1364.12,491.638 1365.47,483.935 1367.79,497.656 1371.05,439.165 1384.76,528.889 1392.07,467.037 1400.52,528.053 1404.99,515.117 1405.11,516.179 1406.83,510.23 1412.84,404.23 1413.83,414.563 1414.1,421.464 1418.26,313.39 1423.24,438.238 1424.67,428.455 1426.28,434.288 1426.72,435.315 1430.58,418.078 1437.4,426.574 1439.59,434.883 1445,445.396 1445.78,441.195 1451.69,488.007 1454.1,472.84 1456.9,471.763 1457.85,474.043 1461.29,422.989 1464.3,469.136 1469.17,384.937 1474.17,373.073 1478.34,386.746 1481.41,380.298 1484.35,386.89 1487.37,386.98 1491.24,337.296 1497.97,300.351 1506.39,328.273 1507.49,347.041 1509.08,357.192 1511.95,377.453 1512.48,384.092 1514.04,373.155 1530.53,134.374 1541.81,190.771 1547.6,196.426 1550.72,129.165 1552,159.216 1554.4,194.265 1556.6,191.082 1559.25,135.253 1569.67,266.803 1570.23,270.999 1572.67,300.674 1574.89,280.375 1578.72,256.144 1578.79,256.859 1580.7,248.916 1584.21,307.897 1593.72,229.802 1609.78,247.169 1613.13,189.319 1615.77,236.994 1617.61,268.244 1617.95,260.946 1620.26,305.916 1625.67,249.474 1628.03,281.934 1634.13,226.636 1634.56,233.185 1637.13,171.078 1639.15,221.037 1647.94,174.78 1650.14,202.147 1653.97,138.933 1662.38,235.821 1662.62,238.177 1664.83,212.216 1671,258.062 1677.57,318.097 1678.66,308.51 1681.81,329.159 1682.5,336.573 1685.28,360.789 1690.04,358.635 1695.35,300.128 1705.34,359.401 1712.43,339.676 1723.14,327.32 1724.48,342.516 1725.33,331.744 1726.74,341.131 1728.46,338.294 1733.53,243.847 1737.68,252.268 1741.96,258.599 1747.73,240.72 1748.95,250.599 1749.44,262.59 1752.91,239.796 1756.07,284.066 1762.5,274.38 1764.46,286.854 1766.7,291.142 1773.63,334.96 1774.13,331.903 1777.34,294.444 1780.46,331.14 1785.2,384.104 1785.48,385.931 1786.18,375.552 1798.97,398.242 1802.31,346.705 1805.92,355.031 1813.95,305.838 1816,283.677 1817.71,264.584 1819.99,255.022 1823.22,265.226 1824.65,267.563 1825.3,271.993 1825.99,274.829 1826.83,289.625 1831.8,309.878 1832.51,308.056 1835.53,316.963 1837.2,314.523 1838.13,308.866 1845.9,302.444 1846.72,299.371 1847.54,302.432 1854.45,186.248 1857.11,125.928 1868.77,276.186 1873.15,317.203 1873.44,310.232 1877.22,387.38 1877.23,386.842 1880.74,471.187 1888.16,541.976 1893.9,613.702 1897.11,545.992 1907.15,483.318 1910.3,526.64 1910.66,518.977 1912.93,562.654 1920.61,614.716 1921.32,623.89 1922.53,640.221 1922.79,643.997 1924.21,608.918 1937.23,434.847 1944.83,581.265 1955.64,503.811 1959.7,499.781 1963.9,427.947 1970.68,524.804 1972.08,559.684 1973.3,592.579 1979.81,546.466 1980.38,560.023 1985.5,542.358 1986.96,540.136 1990.33,466.92 1991.8,501.686 1992.31,493.215 1993.36,492.023 1994.76,489.94 1999.41,442.016 2000.59,458.684 2005.19,350.471 2008.48,327.658 2008.67,329.607 2010.5,300.376 2016.37,368.38 2020.29,270.973 2021.84,228.089 2031.87,413.938 2043.02,364.872 2043.8,356.8 2051.14,380.42 2053.01,385.535 2058.28,461.639 2066.73,483.815 2071.32,343.707 2074.62,436.156 2080.66,387.883 2081.35,397.38 2081.51,397.569 2081.71,396.838 2090.14,351.103 2101.56,375.88 2108.63,393.996 2111.98,425.459 2112.59,429.197 2116.57,469.494 2118.29,471.052 2119.93,479.112 2121,473.646 2121.05,473.819 2123.91,451.014 2125.39,421.283 2127.28,458.498 2132.02,401.571 2139.78,411.271 2140.67,416.792 2143.27,335.572 2144.65,380.521 2144.8,381.697 2146.62,379.802 2147.27,375.634 2148.54,362.582 2158.65,369.327 2167.1,378.931 2175.78,366.939 2188.04,365.323 2200.28,600.368 2208.71,590.924 2209.11,585.517 2219.27,729.464 2222.02,725.365 2228.36,732.843 2234.32,710.67 2235.06,700.143 2243.25,750.732 2247.65,761.935 2254.46,726.714 2254.8,730.778 2255.21,721.06 2258.83,683.108 2260.72,691.413 2265.15,605.4 2270.95,644.207 2273.33,587.303 2279.35,707.219 2284.88,686.759 2287.62,743.753 2295.24,911.351 2302.78,931.547 2303.05,939.501 2307.03,858.564 2310.76,860.423 2312.03,858.797 2312.19,858.614 2312.88,848.227 2326.1,868.238 2328.54,893.223 2334.48,878.506 2341.07,863.417 2341.2,864.667 2342.07,855.613 2344.34,792.443 2347.79,884.097 2350.58,806.644 2353.4,759.121 2354.73,773.455 2360.42,784.53 2361.66,790.897 2362.87,777.919 2372.65,791.244 2377.35,752.373 2388.91,761.631 2395.93,790.722 2396.02,790.17 2397.34,802.394 2397.41,801.839 2398.51,809.891 2398.76,802.384 2399.74,841.266 2399.8,841.368 2404.53,795 2407.25,788.22 2412.7,785.643 2413.74,788.951 2414.6,790.582 2422.57,810.77 2427.22,771.345 2427.47,774.786 2429.93,810.758 2433.99,713.216 2448.3,897.37 2450.1,890.685 2459.86,914.375 2467.57,815.5 2468.61,836.455 2469.1,819.731 2471,881.8 2478.19,875.008 2478.72,879.354 2485.17,903.461 2492.83,798.351 2493.5,796.95 2493.88,794.133 2493.96,792.991 2497.98,787.291 2502.54,804.103 2504.06,751.112 2505.88,814.225 2513.9,904.544 2514.76,885.426 2518.09,862.872 2518.59,867.848 2520.69,827.193 2527.19,850.346 2532.58,837.698 2532.97,840.121 2533.11,837.369 2534.34,859.571 2534.43,858.818 2534.66,860.729 2535.59,855.716 2543.39,886.221 2547.43,886.995 2548.96,855.956 2560.34,964.846 2567.86,924.447 2569.43,946.242 2583.24,1061.26 2597.38,1080.66 2604.13,963.941 2610.3,1074.53 2613.33,1074.62 2616.51,1109.37 2620.03,1063.14 2623.11,1088.01 2628.28,1054.45 2632.42,957.443 2634.61,1013.38 2640.38,976.208 2646.02,1013.34 2648.44,1020.98 2656.73,1025.27 2669.14,946.423 2669.5,953.369 2670.69,939.65 2672.27,957.066 2677.98,876.603 2681.22,882.694 2686.5,870.476 2690.55,885.294 2694.49,924.686 2695.52,922.216 2706.07,847.737 2711.18,914.023 2716.01,930.707 2716.82,938.787 2720.11,895.26 2733.87,920.434 2743.34,861.361 2746.43,902.062 2750.9,859.663 2753.92,893.09 2755.34,885.066 2768.41,855.64 2776.12,917.965 2778.62,881.531 2779.84,874.062 2782.92,833.884 2786.85,881.451 2791.1,875.907 2797.28,870.952 2801.74,840.283 2802.59,831.744 2802.75,829.885 2806.45,874.183 2818.81,764.118 2819.1,770.439 2820.36,782.199 2822.27,772.848 2823.22,783.021 2824.67,749.754 2826.85,798.116 2831.98,796.74 2834.18,739.249 2837.53,822.98 2838.67,818.978 2848.56,724.772 2855.95,815.292 2865.11,885.263 2866.39,874.713 2869.78,894.769 2876.04,822.005 2882.86,782.424 2888.79,846.777 2891,856.147 2893.77,832.173 2901.75,856.056 2904.72,793.592 2912.86,919.011 2917,869.756 2926.38,927.786 2932.69,909.806 2932.94,912.156 2936.64,926.459 2936.75,926.276 2937.11,927.879 2937.21,926.57 2938.4,940.446 2940.27,944.322 2949.25,938.295 2956.41,918.834 2960.47,887.602 2983.87,901.401 2988.3,834.403 3003.1,891.337 3012.98,906.228 3014.31,916.594 3024.61,1008.41 3029.26,955.16 3029.35,956.671 3030.88,967.155 3040.51,732.179 3044.08,842.9 3045.12,841.989 3048.51,872.206 3049.51,868.478 3056.37,850.384 3058.79,868.482 3060.77,903.182 3063.47,838.983 3072.19,989.413 3074.75,933.862 3075.66,955.376 3079.42,957.571 3084.95,943.075 3088.65,867.058 3091.26,788.026 3094.43,882.392 3095.87,899.692 3095.95,898.631 3098.77,839.347 3100.1,869.344 3100.62,871.427 3102.37,859.575 3104.46,872.963 3109.72,866.803 3110.22,869.957 3112.03,871.48 3117.46,781.714 3119.19,817.358 3124.42,741.084 3136.54,874.372 3146.7,774.529 3148.13,772.169 3149.26,774.401 3150.48,748.371 3152.74,794.098 3154.54,787.006 3161.44,810.031 3162.13,811.898 3171.09,754.419 3174.97,749.267 3175.78,754.48 3180.7,726.255 3186.61,753.796 3189.08,736.188 3192.18,746.389 3196.18,764.356 3205.74,775.929 3208.37,792.565 3213.69,817.891 3214.17,812.969 3217.73,815.268 3235.12,542.318 3245.53,784.751 3248.82,806.225 3250.67,791.548 3252.24,766.024 3254.97,758.415 3256.04,740.978 3257.22,753.971 3258.11,756.611 3258.77,748.556 3262.83,698.521 3267.04,749.723 3272.3,725.118 3276.32,749.34 3278.65,751.587 3285.21,730.339 3288.72,684.77 3291.66,724.745 3299.07,728.322 3302.12,741.31 3306.63,715.229 3311.05,640.092 3311.71,654.14 3313.5,637.369 3314.18,633.447 3320.08,633.927 3325.96,633.556 3327.69,677.244 3331.14,733.249 3335.5,694.097 3349.26,676.835 3355.76,736.382 3359.99,758.066 3360.1,755.612 3360.56,765.418 3361.78,745.047 3363.05,766.2 3364.31,751.73 3369.4,675.157 3372.68,665.03 3373.61,657.093 3385.68,748.655 3387.34,751.201 3392.86,674.901 3393.45,686.341 3396.26,718.409 3396.93,706.469 3399.14,727.774 3399.95,712.806 3407.56,546.226 3412.99,677.842 3413.89,667.521 3417.44,698.082 3418.95,687.029 3419.83,694.073 3425.23,698.419 3433.37,686.033 3438.27,654.326 3441.06,678.816 3445.1,708.228 3447.27,700.922 3448.12,705.02 3453.32,780.273 3454.55,764.57 3456.89,791.629 3464.93,788.338 3468.76,807.453 3469.07,804.505 3471.18,820.266 3472.15,808.845 3473.4,823.189 3476.46,850.111 3486.64,658.96 3491.35,775.348 3496.95,766.747 3498.39,780.167 3499.33,779.694 3499.54,775.897 3505.2,702.882 3508.33,751.803 3514.34,749.183 3514.83,732.527 3521.26,912.749 3522.1,921.225 3524.25,942.849 3527.02,904.289 3534.01,939.718 3534.25,940.262 3555.56,823.468 3560.85,917.693 3569.58,871.21 3586.62,807.823 3587.65,807.28 3591.82,891.19 3596.45,851.118 3597.8,867.524 3602.81,770.179 3603.5,786.776 3604.02,788.27 3608.9,704.513 3620.17,819.532 3625.14,802.872 3626.65,773.221 3629.13,819.228 3632.92,861.045 3642.67,841.653 3645.86,870.773 3650.51,792.379 3652.81,836.941 3663.72,538.343 3664.76,577.957 3672.86,587.478 3672.9,587.682 3679.17,669.405 3683.49,667.274 3685.63,628.154 3702.74,661.871 3706.93,575.969 3710.04,643.483 3710.3,643.868 3714.08,636.7 3716.89,645.004 3720.65,623.002 3722.8,639.386 3724.97,605.971 3734.51,603.287 3741.93,647.385 3743.66,631.339 3745.18,630.099 3749.72,618.893 3755.42,608.529 3758.22,635.467 3761.01,637.093 3762.9,601.551 3770.02,677.954 3774.6,613.669 3786.9,683.005 3792.52,631.17 3795.44,666.733 3798.15,648.24 3798.88,628.812 3806.01,768.413 3811.53,757.328 3819.59,751.299 3825.86,726.121 3827.97,744.141 3834.63,750.435 3838.36,714.056 3842.83,748.702 3846.75,716.658 3848.66,726.736 3849.66,729.129 3853.97,753.222 3854.81,732.956 3857.93,714.602 3859.3,712.514 3860.88,676.545 3863,723.501 3876.9,808.138 3877.83,813.976 3886.32,805.502 3891.9,809.664 3899.59,814.186 3905.6,753.338 3905.87,757.71 3907.22,736.607 3907.36,736.158 3908.69,728.458 3913.77,804.861 3917.58,818.748 3921.8,754.75 3922.85,765.308 3935.97,790.406 3940.29,739.311 3944.38,682.761 3958.22,727.126 3967.73,741.373 3969.09,764.503 3970.04,775.131 3971.3,759.361 3981.84,784.656 3984.06,767.031 3986.51,785.896 3991.08,891.405 3992.98,851.769 3995.99,911.106 4001.93,876.779 4001.96,877.211 4011.84,724.334 4017.86,513.089 4019.34,572.595 4034.73,672.234 4037.49,692.285 4038.11,697.327 4043.56,644.581 4053.87,689.835 4054.39,686.858 4056.29,670.607 4057.94,624.466 4066.02,794.489 4069.75,794.353 4077.72,757.733 4080.57,772.052 4088.21,792.319 4090.87,785.908 4100.88,515.658 4104.14,627.593 4104.59,640.525 4108.64,649.84 4109.48,624.412 4110.37,651.695 4118.01,549.464 4129.71,654.351 4140.23,573.54 4148.97,599.347 4155.54,529.043 4163.73,602.234 4164.92,630.387 4167.51,613.865 4171.74,576.45 4173.97,601.009 4182.9,582.237 4188.15,614.291 4196,534.965 4197.74,564.212 4203.42,537.337 4206.16,543.319 4209.01,531.704 4209.04,532.074 4213.27,540.951 4214.03,542.226 4215.78,538.901 4218.54,509.02 4228.3,498.309 4233.09,529.474 4233.62,538.201 4238.53,552.086 4242.57,544.436 4246.17,532.659 4248.21,520.766 4258.47,527.561 4261.31,466.531 4262.01,469.797 4265.21,464.695 4265.65,458.376 4272.11,530.496 4276.17,496.388 4276.84,504.467 4278.35,479.866 4280.58,514.529 4283.4,502.687 4288.17,482.494 4292.67,502.867 4301.78,499.375 4304.41,518.939 4307.2,504.668 4314,413.833 4314.59,413.795 4318.86,443.408 4319.11,443.297 4320.85,418.48 4326.76,346.952 4330.15,418.29 4332.2,379.524 4339.11,473.764 4339.95,483.725 4355.6,396.855 4367.25,512.212 4372.79,480.105 4374.49,504.24 4375.91,514.548 4376,514.336 4377.69,492.267 4381.13,476.388 4384.55,492.252 4390.12,497.747 4393.37,470.602 4394.29,480.69 4395.32,467.948 4403.87,504.181 4414.31,438.527 4417.14,479.797 4427.26,387.847 4429.28,424.08 4436.25,388.55 4438.62,412.486 4439.03,413.34 4441.35,418.521 4443.57,388.873 4451.94,390.63 4455.69,417.111 4460.37,506.542 4462.25,497.873 4466.36,496.393 4468.89,485.431 4471.5,496.514 4475.18,489.945 4476.35,472.031 4478.81,433.484 4486,509.225 4488.5,491.884 4490.2,505.129 4491.84,524.867 4492.25,526.942 4498,489.228 4501,517.892 4503.6,563.778 4514.07,618.012 4519.22,679.066 4520.48,653.173 4527.55,752.81 4528.1,743.697 4537.22,809.016 4540.13,805.3 4540.14,805.387 4544.62,924.446 4551.37,826.475 4561.4,936.327 4568.43,817.669 4569.94,852.206 4571.72,849.869 4572,843.315 4587.41,940.835 4592.51,909.104 4594.04,922.4 4597.6,871.07 4601.67,927.508 4609.22,982.683 4611.43,979.398 4621.75,903.557 4625.17,954.353 4628.55,953.286 4630.03,931.43 4642.57,966.451 4642.72,964.057 4643.92,981.897 4646.88,954.68 4648.04,970.837 4649.86,958.208 4653.27,975.958 4654.6,964.946 4659.32,986.723 4660.71,971.336 4662.18,989.234 4664.84,979.588 4665.27,982.21 4665.52,983.854 4670,891.026 4677.24,997.827 4679.63,959.032 4679.8,962.196 4682.08,920.291 4685.09,895.914 4690.73,984.041 4698.11,983.471 4703.14,974.461 4708.12,991.597 4709.86,1002.51 4710.6,997.832 4712.71,1008 4712.74,1007.33 4719.64,1147.37 4719.84,1147.91 4721.36,1192.01 4726.03,1279.63 4727.38,1273.98 4731.59,1278.51 4735.72,1274.42 4738.93,1298.84 4740.83,1286.35 4748.1,1201.42 4761.43,1269.27 4761.44,1269.37 4762.62,1257.91 4769,1223.34 4774.97,1258.36 4775.53,1259.11 4776.57,1251.04 4781.52,1328.94 4782.16,1321.49 4783.43,1303.71 4786.94,1316.7 4787.57,1304.45 4796.26,1169.8 4798.06,1156.63 4808.49,1135.2 4809,1143.88 4812.88,1064.31 4813.18,1071.72 4817.55,1041.63 4833.11,650.915 4836.13,767.961 4840.15,756.406 4843.83,735.671 4853.73,724.374 4856.5,706.694 4865.67,586.453 4866.22,580.974 4867.37,592.668 4871.24,568.715 4873.42,586.201 4876.8,596.633 4877.98,546.603 4882.36,717.389 4887.24,629.254 4887.62,633.519 4892.56,588.988 4896.19,626.875 4897.93,609.294 4914.51,497.649 4914.93,507.691 4917.76,474.693 4921.16,455.695 4924.76,475.026 4931.13,403.845 4934.78,362.25 4940.38,414.302 4944.06,412.461 4949.74,402.875 4952.43,456.494 4952.7,450.605 4962.71,564.157 4965.71,553.4 4973.73,538.414 4980.82,551.974 4987.03,547.943 4992.62,567.615 5000.07,526.329 5003.5,493.581 5017.83,460.474 5022.77,522.332 5024.55,511.712 5028.08,429.144 5043.06,592.621 5046.82,551.233 5051.5,598.04 5052.35,577.099 5052.81,588.532 5057.26,630.409 5069.03,581.057 5082.79,626.558 5083.85,637.685 5091.12,587.407 5092.14,601.322 5092.6,595.512 5095.25,622.439 5096.84,632.429 5099.43,614.548 5105.52,633.355 5106.55,635.835 5111.3,569.341 5117.65,647.093 5122.02,658.87 5124.5,705.563 5128.96,690.334 5129.35,693.377 5135.14,796.313 5138.05,791.371 5142.06,793.403 5144.55,738.315 5147.96,810.101 5149.97,796.755 5152.08,759.625 5152.91,775.307 5162.17,753.1 5170.11,783.542 5182.42,515.123 5186.5,501.955 5189.47,467.23 5203.14,384.591 5214.74,480.863 5216.68,423.78 5222.38,305.261 5227.88,420.738 5229.16,414.392 5234.25,381.24 5244.23,393.093 5253.45,448.316 5258.52,498.605 5258.59,499.515 5263.65,511.236 5264.55,508.669 5265.11,498.442 5278.47,555.58 5293.48,464.275 5299.94,563.652 5305.12,583.777 5309.86,635.814 5311.19,561.406 5314.99,763.974 5315.8,766.437 5318.43,750.492 5319.4,748.591 5321.68,759.346 5325.09,750.341 5331.96,680.657 5333.5,705.251 5338.28,751.101 5338.5,749.128 5343.74,766.874 5348.77,811.749 5350.64,799.956 5359.87,784.265 5364.68,863.957 5367.14,837.832 5376.01,870.303 5376.07,870.447 5382.76,901.541 5387.78,902.916 5388.26,901.432 5393.5,890.528 5395.72,902.434 5396.01,899.82 5400.87,919.248 5403.17,896.132 5407.5,930.075 5408.96,920.404 5412.79,935.973 5416.92,858.653 5423.22,961.717 5427.53,849.65 5429.87,915.296 5429.9,915.177 5433.71,860.123 5450.05,873.602 5456.72,784.752 5459.48,833.343 5460.9,778.41 5468.21,1013.71 5477.48,1036.31 5483.2,1044.46 5485.98,1049.39 5488.4,1008.22 5494.16,1085.43 5495.77,1069.37 5497.42,1101.64 5500.51,1098.91 5504.58,1109.6 5508.92,1062.79 5516.51,1023.35 5521.64,1055.02 5522.28,1037.46 5525.51,1025.19 5531.58,787.234 5541.67,1138.81 5549.72,1160.26 5558.01,1060.74 5561.63,1063.82 5567.18,949.893 5581.64,1106.67 5592.83,1251.02 5594.86,1223.26 5595.51,1222.11 5595.57,1222.52 5596.31,1220.67 5599.46,1158.07 5610.93,1282.28 5612.97,1281.11 5620.7,1143.42 5622.39,1130.65 5626.66,1150.81 5627.96,1140.06 5629.96,1127.7 5635.75,1139.56 5636.22,1148.36 5639.64,1190.66 5645.09,1134.6 5650.28,1189.42 5661.28,1338.22 5663.74,1337.63 5664.67,1348.11 5666.73,1339.4 5670.88,1347.53 5674.61,1274.24 5679.61,1399.45 5684.97,1359.11 5685.19,1353.7 5686.14,1347.16 5693.89,1292.09 5704.45,1334.79 5706.03,1351.15 5706.62,1345.85 5722.23,1451.68 5723.32,1434.89 5737.8,1445.45 5752.17,1436.54 5754.44,1467.79 5763.5,1386.1 5772.69,1467.67 5777.87,1396.95 5783.03,1363.87 5790.62,1221.87 5795.27,1323.87 5799.57,1329.49 5800.39,1321.96 5804.62,1320.36 5807.12,1326.01 5808.51,1324.95 5810.89,1335.81 5816.65,1352.12 5820.7,1249.97 5820.82,1253.37 5825.44,1239.71 5833.47,1121.48 5849.25,1220.75 5851.96,1201.38 5853.97,1217.29 5854.43,1206.95 5856.95,1258.66 5865.7,1247.53 5872.9,1139.66 5873.45,1151.99 5878.58,1151.45 5881.72,1136.7 5881.87,1135.72 5885.57,1122.66 5886.39,1117.01 5890.7,1173.94 5893.83,1141.25 5896.05,1152.1 5900.07,1096.05 5901.52,1120.24 5911.09,960.637 5921.22,891.668 5923.62,928.157 5926.74,821.732 5927.82,807.969 5932.75,737.609 5936.08,770.088 5939.54,747.022 5942.25,767.331 5948.12,742.082 5952.33,759.604 5954.48,762.234 5954.75,759.502 5956.35,795.177 5957.03,793.1 5957.18,788.603 5957.52,798.834 5960.61,832.557 5960.65,832.201 5968.3,842.653 5976.79,823.388 5983.25,852.294 5984.47,848.465 5988.51,825.259 5990.59,764.188 5990.83,765.853 5992.58,735.422 6007.44,780.959 6022.9,723.367 6027,789.301 6031.83,819.58 6032.93,828.869 6034.05,806.764 6035.96,842.964 6038.93,906.135 6042.1,877.322 6050.83,903.881 6052.73,912.228 6055.25,875.411 6061.12,857.279 6068.38,868.659 6071.33,877.868 6081.57,832.285 6082.01,836.148 6087.39,818.65 6090.17,764.504 6097.36,870.117 6105.7,876.179 6108.71,932.351 6113.26,907.035 6118.17,985.02 6121.58,975.75 6129.98,952.963 6131.03,948.604 6132.75,944.628 6133.92,980.973 6134.33,983.098 6134.69,986.163 6139.09,986.31 6140.95,991.381 6142.86,1034.97 6144.92,1012.47 6145.83,1023.47 6145.83,1023.46 6146.53,1011.88 6148.01,979.734 6155.84,1095.75 6157.22,1083.03 6157.79,1078.88 6161.83,1092.86 6169.37,1052.11 6172.82,1061.26 6178.44,1094.99 6180.26,1065.91 6180.44,1068.94 "/>
</svg>
