<?xml version="1.0" encoding="utf-8"?>
<svg xmlns="http://www.w3.org/2000/svg" xmlns:xlink="http://www.w3.org/1999/xlink" width="600" height="400" viewBox="0 0 2400 1600">
<defs>
  <clipPath id="clip900">
    <rect x="0" y="0" width="2400" height="1600"/>
  </clipPath>
</defs>
<path clip-path="url(#clip900)" d="M0 1600 L2400 1600 L2400 8.88178e-14 L0 8.88178e-14  Z" fill="#f0f1eb" fill-rule="evenodd" fill-opacity="1"/>
<defs>
  <clipPath id="clip901">
    <rect x="338" y="47" width="2015" height="1321"/>
  </clipPath>
</defs>
<path clip-path="url(#clip900)" d="M338.857 1367.02 L2352.76 1367.02 L2352.76 47.2441 L338.857 47.2441  Z" fill="#f0f1eb" fill-rule="evenodd" fill-opacity="1"/>
<polyline clip-path="url(#clip901)" style="stroke:#000000; stroke-linecap:round; stroke-linejoin:round; stroke-width:2; stroke-opacity:0.1; fill:none" points="674.507,1367.02 674.507,47.2441 "/>
<polyline clip-path="url(#clip901)" style="stroke:#000000; stroke-linecap:round; stroke-linejoin:round; stroke-width:2; stroke-opacity:0.1; fill:none" points="1345.81,1367.02 1345.81,47.2441 "/>
<polyline clip-path="url(#clip901)" style="stroke:#000000; stroke-linecap:round; stroke-linejoin:round; stroke-width:2; stroke-opacity:0.1; fill:none" points="2017.11,1367.02 2017.11,47.2441 "/>
<polyline clip-path="url(#clip901)" style="stroke:#000000; stroke-linecap:round; stroke-linejoin:round; stroke-width:2; stroke-opacity:0.1; fill:none" points="674.507,1367.02 674.507,47.2441 "/>
<polyline clip-path="url(#clip901)" style="stroke:#000000; stroke-linecap:round; stroke-linejoin:round; stroke-width:2; stroke-opacity:0.1; fill:none" points="1345.81,1367.02 1345.81,47.2441 "/>
<polyline clip-path="url(#clip901)" style="stroke:#000000; stroke-linecap:round; stroke-linejoin:round; stroke-width:2; stroke-opacity:0.1; fill:none" points="2017.11,1367.02 2017.11,47.2441 "/>
<polyline clip-path="url(#clip901)" style="stroke:#000000; stroke-linecap:round; stroke-linejoin:round; stroke-width:2; stroke-opacity:0.1; fill:none" points="338.857,1240.97 2352.76,1240.97 "/>
<polyline clip-path="url(#clip901)" style="stroke:#000000; stroke-linecap:round; stroke-linejoin:round; stroke-width:2; stroke-opacity:0.1; fill:none" points="338.857,1063.76 2352.76,1063.76 "/>
<polyline clip-path="url(#clip901)" style="stroke:#000000; stroke-linecap:round; stroke-linejoin:round; stroke-width:2; stroke-opacity:0.1; fill:none" points="338.857,886.555 2352.76,886.555 "/>
<polyline clip-path="url(#clip901)" style="stroke:#000000; stroke-linecap:round; stroke-linejoin:round; stroke-width:2; stroke-opacity:0.1; fill:none" points="338.857,709.349 2352.76,709.349 "/>
<polyline clip-path="url(#clip901)" style="stroke:#000000; stroke-linecap:round; stroke-linejoin:round; stroke-width:2; stroke-opacity:0.1; fill:none" points="338.857,532.142 2352.76,532.142 "/>
<polyline clip-path="url(#clip901)" style="stroke:#000000; stroke-linecap:round; stroke-linejoin:round; stroke-width:2; stroke-opacity:0.1; fill:none" points="338.857,354.936 2352.76,354.936 "/>
<polyline clip-path="url(#clip901)" style="stroke:#000000; stroke-linecap:round; stroke-linejoin:round; stroke-width:2; stroke-opacity:0.1; fill:none" points="338.857,177.73 2352.76,177.73 "/>
<polyline clip-path="url(#clip901)" style="stroke:#000000; stroke-linecap:round; stroke-linejoin:round; stroke-width:2; stroke-opacity:0.1; fill:none" points="338.857,1240.97 2352.76,1240.97 "/>
<polyline clip-path="url(#clip901)" style="stroke:#000000; stroke-linecap:round; stroke-linejoin:round; stroke-width:2; stroke-opacity:0.1; fill:none" points="338.857,1063.76 2352.76,1063.76 "/>
<polyline clip-path="url(#clip901)" style="stroke:#000000; stroke-linecap:round; stroke-linejoin:round; stroke-width:2; stroke-opacity:0.1; fill:none" points="338.857,886.555 2352.76,886.555 "/>
<polyline clip-path="url(#clip901)" style="stroke:#000000; stroke-linecap:round; stroke-linejoin:round; stroke-width:2; stroke-opacity:0.1; fill:none" points="338.857,709.349 2352.76,709.349 "/>
<polyline clip-path="url(#clip901)" style="stroke:#000000; stroke-linecap:round; stroke-linejoin:round; stroke-width:2; stroke-opacity:0.1; fill:none" points="338.857,532.142 2352.76,532.142 "/>
<polyline clip-path="url(#clip901)" style="stroke:#000000; stroke-linecap:round; stroke-linejoin:round; stroke-width:2; stroke-opacity:0.1; fill:none" points="338.857,354.936 2352.76,354.936 "/>
<polyline clip-path="url(#clip901)" style="stroke:#000000; stroke-linecap:round; stroke-linejoin:round; stroke-width:2; stroke-opacity:0.1; fill:none" points="338.857,177.73 2352.76,177.73 "/>
<polyline clip-path="url(#clip900)" style="stroke:#000000; stroke-linecap:round; stroke-linejoin:round; stroke-width:4; stroke-opacity:1; fill:none" points="338.857,1367.02 2352.76,1367.02 "/>
<polyline clip-path="url(#clip900)" style="stroke:#000000; stroke-linecap:round; stroke-linejoin:round; stroke-width:4; stroke-opacity:1; fill:none" points="338.857,47.2441 2352.76,47.2441 "/>
<polyline clip-path="url(#clip900)" style="stroke:#000000; stroke-linecap:round; stroke-linejoin:round; stroke-width:4; stroke-opacity:1; fill:none" points="674.507,1367.02 674.507,1348.12 "/>
<polyline clip-path="url(#clip900)" style="stroke:#000000; stroke-linecap:round; stroke-linejoin:round; stroke-width:4; stroke-opacity:1; fill:none" points="1345.81,1367.02 1345.81,1348.12 "/>
<polyline clip-path="url(#clip900)" style="stroke:#000000; stroke-linecap:round; stroke-linejoin:round; stroke-width:4; stroke-opacity:1; fill:none" points="2017.11,1367.02 2017.11,1348.12 "/>
<polyline clip-path="url(#clip900)" style="stroke:#000000; stroke-linecap:round; stroke-linejoin:round; stroke-width:4; stroke-opacity:1; fill:none" points="674.507,47.2441 674.507,66.1417 "/>
<polyline clip-path="url(#clip900)" style="stroke:#000000; stroke-linecap:round; stroke-linejoin:round; stroke-width:4; stroke-opacity:1; fill:none" points="1345.81,47.2441 1345.81,66.1417 "/>
<polyline clip-path="url(#clip900)" style="stroke:#000000; stroke-linecap:round; stroke-linejoin:round; stroke-width:4; stroke-opacity:1; fill:none" points="2017.11,47.2441 2017.11,66.1417 "/>
<path clip-path="url(#clip900)" d="M585.295 1403.5 L639.6 1403.5 L639.6 1410.63 L595.896 1464.75 L640.665 1464.75 L640.665 1472.62 L584.23 1472.62 L584.23 1465.49 L627.933 1411.37 L585.295 1411.37 L585.295 1403.5 Z" fill="#000000" fill-rule="nonzero" fill-opacity="1" /><path clip-path="url(#clip900)" d="M650.248 1403.5 L704.553 1403.5 L704.553 1410.63 L660.85 1464.75 L705.618 1464.75 L705.618 1472.62 L649.183 1472.62 L649.183 1465.49 L692.887 1411.37 L650.248 1411.37 L650.248 1403.5 Z" fill="#000000" fill-rule="nonzero" fill-opacity="1" /><path clip-path="url(#clip900)" d="M760.618 1405.77 L760.618 1414.89 Q755.294 1412.34 750.572 1411.09 Q745.849 1409.84 741.451 1409.84 Q733.812 1409.84 729.646 1412.81 Q725.525 1415.77 725.525 1421.23 Q725.525 1425.81 728.257 1428.18 Q731.035 1430.49 738.72 1431.93 L744.368 1433.08 Q754.831 1435.07 759.784 1440.12 Q764.784 1445.12 764.784 1453.55 Q764.784 1463.59 758.025 1468.78 Q751.312 1473.96 738.303 1473.96 Q733.396 1473.96 727.84 1472.85 Q722.331 1471.74 716.405 1469.56 L716.405 1459.93 Q722.099 1463.13 727.562 1464.75 Q733.025 1466.37 738.303 1466.37 Q746.312 1466.37 750.664 1463.22 Q755.016 1460.07 755.016 1454.24 Q755.016 1449.15 751.868 1446.28 Q748.766 1443.41 741.636 1441.97 L735.942 1440.86 Q725.479 1438.78 720.803 1434.33 Q716.127 1429.89 716.127 1421.97 Q716.127 1412.81 722.562 1407.53 Q729.044 1402.25 740.386 1402.25 Q745.247 1402.25 750.294 1403.13 Q755.34 1404.01 760.618 1405.77 Z" fill="#000000" fill-rule="nonzero" fill-opacity="1" /><path clip-path="url(#clip900)" d="M1271.25 1439.61 L1271.25 1464.93 L1286.25 1464.93 Q1293.79 1464.93 1297.4 1461.83 Q1301.06 1458.68 1301.06 1452.25 Q1301.06 1445.77 1297.4 1442.71 Q1293.79 1439.61 1286.25 1439.61 L1271.25 1439.61 M1271.25 1411.18 L1271.25 1432.02 L1285.09 1432.02 Q1291.94 1432.02 1295.27 1429.47 Q1298.65 1426.88 1298.65 1421.6 Q1298.65 1416.37 1295.27 1413.78 Q1291.94 1411.18 1285.09 1411.18 L1271.25 1411.18 M1261.9 1403.5 L1285.78 1403.5 Q1296.48 1403.5 1302.27 1407.94 Q1308.05 1412.39 1308.05 1420.58 Q1308.05 1426.93 1305.09 1430.68 Q1302.13 1434.43 1296.39 1435.35 Q1303.28 1436.83 1307.08 1441.56 Q1310.92 1446.23 1310.92 1453.27 Q1310.92 1462.53 1304.63 1467.57 Q1298.33 1472.62 1286.71 1472.62 L1261.9 1472.62 L1261.9 1403.5 Z" fill="#000000" fill-rule="nonzero" fill-opacity="1" /><path clip-path="url(#clip900)" d="M1336.29 1411.18 L1336.29 1437.16 L1348.05 1437.16 Q1354.58 1437.16 1358.14 1433.78 Q1361.71 1430.4 1361.71 1424.15 Q1361.71 1417.94 1358.14 1414.56 Q1354.58 1411.18 1348.05 1411.18 L1336.29 1411.18 M1326.94 1403.5 L1348.05 1403.5 Q1359.67 1403.5 1365.6 1408.78 Q1371.57 1414.01 1371.57 1424.15 Q1371.57 1434.38 1365.6 1439.61 Q1359.67 1444.84 1348.05 1444.84 L1336.29 1444.84 L1336.29 1472.62 L1326.94 1472.62 L1326.94 1403.5 Z" fill="#000000" fill-rule="nonzero" fill-opacity="1" /><path clip-path="url(#clip900)" d="M1425.55 1405.77 L1425.55 1414.89 Q1420.23 1412.34 1415.51 1411.09 Q1410.78 1409.84 1406.39 1409.84 Q1398.75 1409.84 1394.58 1412.81 Q1390.46 1415.77 1390.46 1421.23 Q1390.46 1425.81 1393.19 1428.18 Q1395.97 1430.49 1403.65 1431.93 L1409.3 1433.08 Q1419.76 1435.07 1424.72 1440.12 Q1429.72 1445.12 1429.72 1453.55 Q1429.72 1463.59 1422.96 1468.78 Q1416.25 1473.96 1403.24 1473.96 Q1398.33 1473.96 1392.77 1472.85 Q1387.26 1471.74 1381.34 1469.56 L1381.34 1459.93 Q1387.03 1463.13 1392.5 1464.75 Q1397.96 1466.37 1403.24 1466.37 Q1411.25 1466.37 1415.6 1463.22 Q1419.95 1460.07 1419.95 1454.24 Q1419.95 1449.15 1416.8 1446.28 Q1413.7 1443.41 1406.57 1441.97 L1400.88 1440.86 Q1390.41 1438.78 1385.74 1434.33 Q1381.06 1429.89 1381.06 1421.97 Q1381.06 1412.81 1387.5 1407.53 Q1393.98 1402.25 1405.32 1402.25 Q1410.18 1402.25 1415.23 1403.13 Q1420.27 1404.01 1425.55 1405.77 Z" fill="#000000" fill-rule="nonzero" fill-opacity="1" /><path clip-path="url(#clip900)" d="M1860 1403.5 L1899.72 1403.5 L1899.72 1411.37 L1869.35 1411.37 L1869.35 1431.74 L1896.76 1431.74 L1896.76 1439.61 L1869.35 1439.61 L1869.35 1472.62 L1860 1472.62 L1860 1403.5 Z" fill="#000000" fill-rule="nonzero" fill-opacity="1" /><path clip-path="url(#clip900)" d="M1914.54 1403.5 L1958.24 1403.5 L1958.24 1411.37 L1923.89 1411.37 L1923.89 1431.83 L1956.81 1431.83 L1956.81 1439.7 L1923.89 1439.7 L1923.89 1464.75 L1959.07 1464.75 L1959.07 1472.62 L1914.54 1472.62 L1914.54 1403.5 Z" fill="#000000" fill-rule="nonzero" fill-opacity="1" /><path clip-path="url(#clip900)" d="M2026.2 1408.82 L2026.2 1418.68 Q2021.48 1414.29 2016.11 1412.11 Q2010.79 1409.93 2004.77 1409.93 Q1992.92 1409.93 1986.62 1417.2 Q1980.32 1424.43 1980.32 1438.13 Q1980.32 1451.79 1986.62 1459.06 Q1992.92 1466.28 2004.77 1466.28 Q2010.79 1466.28 2016.11 1464.1 Q2021.48 1461.93 2026.2 1457.53 L2026.2 1467.3 Q2021.3 1470.63 2015.79 1472.3 Q2010.32 1473.96 2004.21 1473.96 Q1988.52 1473.96 1979.49 1464.38 Q1970.46 1454.75 1970.46 1438.13 Q1970.46 1421.46 1979.49 1411.88 Q1988.52 1402.25 2004.21 1402.25 Q2010.42 1402.25 2015.88 1403.92 Q2021.39 1405.54 2026.2 1408.82 Z" fill="#000000" fill-rule="nonzero" fill-opacity="1" /><path clip-path="url(#clip900)" d="M2040.65 1403.5 L2054.58 1403.5 L2072.22 1450.54 L2089.95 1403.5 L2103.89 1403.5 L2103.89 1472.62 L2094.77 1472.62 L2094.77 1411.93 L2076.94 1459.33 L2067.55 1459.33 L2049.72 1411.93 L2049.72 1472.62 L2040.65 1472.62 L2040.65 1403.5 Z" fill="#000000" fill-rule="nonzero" fill-opacity="1" /><path clip-path="url(#clip900)" d="M2174.21 1408.82 L2174.21 1418.68 Q2169.49 1414.29 2164.12 1412.11 Q2158.8 1409.93 2152.78 1409.93 Q2140.92 1409.93 2134.63 1417.2 Q2128.33 1424.43 2128.33 1438.13 Q2128.33 1451.79 2134.63 1459.06 Q2140.92 1466.28 2152.78 1466.28 Q2158.8 1466.28 2164.12 1464.1 Q2169.49 1461.93 2174.21 1457.53 L2174.21 1467.3 Q2169.3 1470.63 2163.8 1472.3 Q2158.33 1473.96 2152.22 1473.96 Q2136.53 1473.96 2127.5 1464.38 Q2118.47 1454.75 2118.47 1438.13 Q2118.47 1421.46 2127.5 1411.88 Q2136.53 1402.25 2152.22 1402.25 Q2158.42 1402.25 2163.89 1403.92 Q2169.4 1405.54 2174.21 1408.82 Z" fill="#000000" fill-rule="nonzero" fill-opacity="1" /><path clip-path="url(#clip900)" d="M1196.18 1522.79 L1196.18 1531.91 Q1190.85 1529.37 1186.13 1528.12 Q1181.41 1526.87 1177.01 1526.87 Q1169.37 1526.87 1165.21 1529.83 Q1161.09 1532.79 1161.09 1538.26 Q1161.09 1542.84 1163.82 1545.2 Q1166.59 1547.51 1174.28 1548.95 L1179.93 1550.11 Q1190.39 1552.1 1195.34 1557.14 Q1200.34 1562.14 1200.34 1570.57 Q1200.34 1580.62 1193.59 1585.8 Q1186.87 1590.99 1173.86 1590.99 Q1168.96 1590.99 1163.4 1589.88 Q1157.89 1588.76 1151.97 1586.59 L1151.97 1576.96 Q1157.66 1580.15 1163.12 1581.77 Q1168.59 1583.39 1173.86 1583.39 Q1181.87 1583.39 1186.22 1580.25 Q1190.58 1577.1 1190.58 1571.26 Q1190.58 1566.17 1187.43 1563.3 Q1184.33 1560.43 1177.2 1559 L1171.5 1557.88 Q1161.04 1555.8 1156.36 1551.36 Q1151.69 1546.91 1151.69 1539 Q1151.69 1529.83 1158.12 1524.55 Q1164.6 1519.27 1175.95 1519.27 Q1180.81 1519.27 1185.85 1520.15 Q1190.9 1521.03 1196.18 1522.79 Z" fill="#000000" fill-rule="nonzero" fill-opacity="1" /><path clip-path="url(#clip900)" d="M1238.12 1563.58 Q1227.8 1563.58 1223.82 1565.94 Q1219.84 1568.3 1219.84 1574 Q1219.84 1578.53 1222.8 1581.22 Q1225.81 1583.86 1230.95 1583.86 Q1238.03 1583.86 1242.29 1578.86 Q1246.59 1573.81 1246.59 1565.48 L1246.59 1563.58 L1238.12 1563.58 M1255.11 1560.06 L1255.11 1589.64 L1246.59 1589.64 L1246.59 1581.77 Q1243.68 1586.5 1239.33 1588.76 Q1234.97 1590.99 1228.68 1590.99 Q1220.71 1590.99 1215.99 1586.54 Q1211.32 1582.05 1211.32 1574.55 Q1211.32 1565.8 1217.15 1561.36 Q1223.03 1556.91 1234.65 1556.91 L1246.59 1556.91 L1246.59 1556.08 Q1246.59 1550.2 1242.71 1547.01 Q1238.86 1543.76 1231.87 1543.76 Q1227.43 1543.76 1223.21 1544.83 Q1219 1545.89 1215.11 1548.02 L1215.11 1540.15 Q1219.79 1538.35 1224.19 1537.47 Q1228.59 1536.54 1232.75 1536.54 Q1244 1536.54 1249.56 1542.38 Q1255.11 1548.21 1255.11 1560.06 Z" fill="#000000" fill-rule="nonzero" fill-opacity="1" /><path clip-path="url(#clip900)" d="M1313.03 1547.75 Q1316.22 1542.01 1320.67 1539.27 Q1325.11 1536.54 1331.13 1536.54 Q1339.23 1536.54 1343.63 1542.24 Q1348.03 1547.88 1348.03 1558.35 L1348.03 1589.64 L1339.46 1589.64 L1339.46 1558.63 Q1339.46 1551.17 1336.83 1547.56 Q1334.19 1543.95 1328.77 1543.95 Q1322.15 1543.95 1318.31 1548.35 Q1314.46 1552.75 1314.46 1560.34 L1314.46 1589.64 L1305.9 1589.64 L1305.9 1558.63 Q1305.9 1551.13 1303.26 1547.56 Q1300.62 1543.95 1295.11 1543.95 Q1288.58 1543.95 1284.74 1548.39 Q1280.9 1552.79 1280.9 1560.34 L1280.9 1589.64 L1272.33 1589.64 L1272.33 1537.79 L1280.9 1537.79 L1280.9 1545.85 Q1283.82 1541.08 1287.89 1538.81 Q1291.96 1536.54 1297.57 1536.54 Q1303.21 1536.54 1307.15 1539.41 Q1311.13 1542.28 1313.03 1547.75 Z" fill="#000000" fill-rule="nonzero" fill-opacity="1" /><path clip-path="url(#clip900)" d="M1373.26 1581.87 L1373.26 1609.37 L1364.7 1609.37 L1364.7 1537.79 L1373.26 1537.79 L1373.26 1545.66 Q1375.95 1541.03 1380.02 1538.81 Q1384.14 1536.54 1389.83 1536.54 Q1399.28 1536.54 1405.16 1544.04 Q1411.08 1551.54 1411.08 1563.76 Q1411.08 1575.99 1405.16 1583.49 Q1399.28 1590.99 1389.83 1590.99 Q1384.14 1590.99 1380.02 1588.76 Q1375.95 1586.5 1373.26 1581.87 M1402.24 1563.76 Q1402.24 1554.37 1398.35 1549.04 Q1394.51 1543.67 1387.75 1543.67 Q1380.99 1543.67 1377.1 1549.04 Q1373.26 1554.37 1373.26 1563.76 Q1373.26 1573.16 1377.1 1578.53 Q1380.99 1583.86 1387.75 1583.86 Q1394.51 1583.86 1398.35 1578.53 Q1402.24 1573.16 1402.24 1563.76 Z" fill="#000000" fill-rule="nonzero" fill-opacity="1" /><path clip-path="url(#clip900)" d="M1425.2 1517.61 L1433.72 1517.61 L1433.72 1589.64 L1425.2 1589.64 L1425.2 1517.61 Z" fill="#000000" fill-rule="nonzero" fill-opacity="1" /><path clip-path="url(#clip900)" d="M1495.9 1561.59 L1495.9 1565.76 L1456.73 1565.76 Q1457.29 1574.55 1462.01 1579.18 Q1466.78 1583.76 1475.25 1583.76 Q1480.16 1583.76 1484.74 1582.56 Q1489.37 1581.36 1493.91 1578.95 L1493.91 1587 Q1489.32 1588.95 1484.51 1589.97 Q1479.69 1590.99 1474.74 1590.99 Q1462.33 1590.99 1455.07 1583.76 Q1447.84 1576.54 1447.84 1564.23 Q1447.84 1551.5 1454.69 1544.04 Q1461.59 1536.54 1473.26 1536.54 Q1483.72 1536.54 1489.79 1543.3 Q1495.9 1550.01 1495.9 1561.59 M1487.38 1559.09 Q1487.29 1552.1 1483.44 1547.93 Q1479.65 1543.76 1473.35 1543.76 Q1466.22 1543.76 1461.92 1547.79 Q1457.66 1551.82 1457.01 1559.13 L1487.38 1559.09 Z" fill="#000000" fill-rule="nonzero" fill-opacity="1" /><path clip-path="url(#clip900)" d="M1539.93 1545.76 Q1538.49 1544.92 1536.78 1544.55 Q1535.11 1544.13 1533.07 1544.13 Q1525.85 1544.13 1521.96 1548.86 Q1518.12 1553.53 1518.12 1562.33 L1518.12 1589.64 L1509.56 1589.64 L1509.56 1537.79 L1518.12 1537.79 L1518.12 1545.85 Q1520.81 1541.13 1525.11 1538.86 Q1529.42 1536.54 1535.57 1536.54 Q1536.45 1536.54 1537.52 1536.68 Q1538.58 1536.77 1539.88 1537.01 L1539.93 1545.76 Z" fill="#000000" fill-rule="nonzero" fill-opacity="1" /><polyline clip-path="url(#clip900)" style="stroke:#000000; stroke-linecap:round; stroke-linejoin:round; stroke-width:4; stroke-opacity:1; fill:none" points="338.857,1367.02 338.857,47.2441 "/>
<polyline clip-path="url(#clip900)" style="stroke:#000000; stroke-linecap:round; stroke-linejoin:round; stroke-width:4; stroke-opacity:1; fill:none" points="2352.76,1367.02 2352.76,47.2441 "/>
<polyline clip-path="url(#clip900)" style="stroke:#000000; stroke-linecap:round; stroke-linejoin:round; stroke-width:4; stroke-opacity:1; fill:none" points="338.857,1240.97 357.755,1240.97 "/>
<polyline clip-path="url(#clip900)" style="stroke:#000000; stroke-linecap:round; stroke-linejoin:round; stroke-width:4; stroke-opacity:1; fill:none" points="338.857,1063.76 357.755,1063.76 "/>
<polyline clip-path="url(#clip900)" style="stroke:#000000; stroke-linecap:round; stroke-linejoin:round; stroke-width:4; stroke-opacity:1; fill:none" points="338.857,886.555 357.755,886.555 "/>
<polyline clip-path="url(#clip900)" style="stroke:#000000; stroke-linecap:round; stroke-linejoin:round; stroke-width:4; stroke-opacity:1; fill:none" points="338.857,709.349 357.755,709.349 "/>
<polyline clip-path="url(#clip900)" style="stroke:#000000; stroke-linecap:round; stroke-linejoin:round; stroke-width:4; stroke-opacity:1; fill:none" points="338.857,532.142 357.755,532.142 "/>
<polyline clip-path="url(#clip900)" style="stroke:#000000; stroke-linecap:round; stroke-linejoin:round; stroke-width:4; stroke-opacity:1; fill:none" points="338.857,354.936 357.755,354.936 "/>
<polyline clip-path="url(#clip900)" style="stroke:#000000; stroke-linecap:round; stroke-linejoin:round; stroke-width:4; stroke-opacity:1; fill:none" points="338.857,177.73 357.755,177.73 "/>
<polyline clip-path="url(#clip900)" style="stroke:#000000; stroke-linecap:round; stroke-linejoin:round; stroke-width:4; stroke-opacity:1; fill:none" points="2352.76,1240.97 2333.86,1240.97 "/>
<polyline clip-path="url(#clip900)" style="stroke:#000000; stroke-linecap:round; stroke-linejoin:round; stroke-width:4; stroke-opacity:1; fill:none" points="2352.76,1063.76 2333.86,1063.76 "/>
<polyline clip-path="url(#clip900)" style="stroke:#000000; stroke-linecap:round; stroke-linejoin:round; stroke-width:4; stroke-opacity:1; fill:none" points="2352.76,886.555 2333.86,886.555 "/>
<polyline clip-path="url(#clip900)" style="stroke:#000000; stroke-linecap:round; stroke-linejoin:round; stroke-width:4; stroke-opacity:1; fill:none" points="2352.76,709.349 2333.86,709.349 "/>
<polyline clip-path="url(#clip900)" style="stroke:#000000; stroke-linecap:round; stroke-linejoin:round; stroke-width:4; stroke-opacity:1; fill:none" points="2352.76,532.142 2333.86,532.142 "/>
<polyline clip-path="url(#clip900)" style="stroke:#000000; stroke-linecap:round; stroke-linejoin:round; stroke-width:4; stroke-opacity:1; fill:none" points="2352.76,354.936 2333.86,354.936 "/>
<polyline clip-path="url(#clip900)" style="stroke:#000000; stroke-linecap:round; stroke-linejoin:round; stroke-width:4; stroke-opacity:1; fill:none" points="2352.76,177.73 2333.86,177.73 "/>
<path clip-path="url(#clip900)" d="M254.779 1254.31 L271.098 1254.31 L271.098 1258.25 L249.154 1258.25 L249.154 1254.31 Q251.816 1251.56 256.399 1246.93 Q261.006 1242.28 262.186 1240.93 Q264.432 1238.41 265.311 1236.67 Q266.214 1234.91 266.214 1233.22 Q266.214 1230.47 264.27 1228.73 Q262.348 1227 259.247 1227 Q257.047 1227 254.594 1227.76 Q252.163 1228.53 249.385 1230.08 L249.385 1225.35 Q252.21 1224.22 254.663 1223.64 Q257.117 1223.06 259.154 1223.06 Q264.524 1223.06 267.719 1225.75 Q270.913 1228.43 270.913 1232.92 Q270.913 1235.05 270.103 1236.97 Q269.316 1238.87 267.209 1241.47 Q266.631 1242.14 263.529 1245.35 Q260.427 1248.55 254.779 1254.31 Z" fill="#000000" fill-rule="nonzero" fill-opacity="1" /><path clip-path="url(#clip900)" d="M290.913 1226.77 Q287.302 1226.77 285.473 1230.33 Q283.668 1233.87 283.668 1241 Q283.668 1248.11 285.473 1251.67 Q287.302 1255.22 290.913 1255.22 Q294.547 1255.22 296.353 1251.67 Q298.181 1248.11 298.181 1241 Q298.181 1233.87 296.353 1230.33 Q294.547 1226.77 290.913 1226.77 M290.913 1223.06 Q296.723 1223.06 299.779 1227.67 Q302.857 1232.25 302.857 1241 Q302.857 1249.73 299.779 1254.34 Q296.723 1258.92 290.913 1258.92 Q285.103 1258.92 282.024 1254.34 Q278.969 1249.73 278.969 1241 Q278.969 1232.25 282.024 1227.67 Q285.103 1223.06 290.913 1223.06 Z" fill="#000000" fill-rule="nonzero" fill-opacity="1" /><path clip-path="url(#clip900)" d="M263.598 1050.56 L251.793 1069 L263.598 1069 L263.598 1050.56 M262.371 1046.48 L268.251 1046.48 L268.251 1069 L273.182 1069 L273.182 1072.89 L268.251 1072.89 L268.251 1081.04 L263.598 1081.04 L263.598 1072.89 L247.997 1072.89 L247.997 1068.38 L262.371 1046.48 Z" fill="#000000" fill-rule="nonzero" fill-opacity="1" /><path clip-path="url(#clip900)" d="M290.913 1049.56 Q287.302 1049.56 285.473 1053.12 Q283.668 1056.67 283.668 1063.8 Q283.668 1070.9 285.473 1074.47 Q287.302 1078.01 290.913 1078.01 Q294.547 1078.01 296.353 1074.47 Q298.181 1070.9 298.181 1063.8 Q298.181 1056.67 296.353 1053.12 Q294.547 1049.56 290.913 1049.56 M290.913 1045.86 Q296.723 1045.86 299.779 1050.46 Q302.857 1055.05 302.857 1063.8 Q302.857 1072.52 299.779 1077.13 Q296.723 1081.71 290.913 1081.71 Q285.103 1081.71 282.024 1077.13 Q278.969 1072.52 278.969 1063.8 Q278.969 1055.05 282.024 1050.46 Q285.103 1045.86 290.913 1045.86 Z" fill="#000000" fill-rule="nonzero" fill-opacity="1" /><path clip-path="url(#clip900)" d="M261.33 884.691 Q258.182 884.691 256.33 886.844 Q254.501 888.997 254.501 892.747 Q254.501 896.474 256.33 898.65 Q258.182 900.803 261.33 900.803 Q264.478 900.803 266.307 898.65 Q268.158 896.474 268.158 892.747 Q268.158 888.997 266.307 886.844 Q264.478 884.691 261.33 884.691 M270.612 870.039 L270.612 874.298 Q268.853 873.465 267.047 873.025 Q265.265 872.585 263.506 872.585 Q258.876 872.585 256.422 875.71 Q253.992 878.835 253.645 885.154 Q255.01 883.141 257.071 882.076 Q259.131 880.988 261.608 880.988 Q266.816 880.988 269.825 884.159 Q272.858 887.307 272.858 892.747 Q272.858 898.071 269.709 901.289 Q266.561 904.506 261.33 904.506 Q255.334 904.506 252.163 899.923 Q248.992 895.316 248.992 886.59 Q248.992 878.395 252.881 873.534 Q256.77 868.65 263.321 868.65 Q265.08 868.65 266.862 868.997 Q268.668 869.344 270.612 870.039 Z" fill="#000000" fill-rule="nonzero" fill-opacity="1" /><path clip-path="url(#clip900)" d="M290.913 872.354 Q287.302 872.354 285.473 875.918 Q283.668 879.46 283.668 886.59 Q283.668 893.696 285.473 897.261 Q287.302 900.803 290.913 900.803 Q294.547 900.803 296.353 897.261 Q298.181 893.696 298.181 886.59 Q298.181 879.46 296.353 875.918 Q294.547 872.354 290.913 872.354 M290.913 868.65 Q296.723 868.65 299.779 873.256 Q302.857 877.84 302.857 886.59 Q302.857 895.316 299.779 899.923 Q296.723 904.506 290.913 904.506 Q285.103 904.506 282.024 899.923 Q278.969 895.316 278.969 886.59 Q278.969 877.84 282.024 873.256 Q285.103 868.65 290.913 868.65 Z" fill="#000000" fill-rule="nonzero" fill-opacity="1" /><path clip-path="url(#clip900)" d="M260.751 710.217 Q257.418 710.217 255.497 711.999 Q253.598 713.781 253.598 716.906 Q253.598 720.031 255.497 721.814 Q257.418 723.596 260.751 723.596 Q264.084 723.596 266.006 721.814 Q267.927 720.008 267.927 716.906 Q267.927 713.781 266.006 711.999 Q264.108 710.217 260.751 710.217 M256.075 708.226 Q253.066 707.485 251.376 705.425 Q249.71 703.365 249.71 700.402 Q249.71 696.258 252.649 693.851 Q255.612 691.444 260.751 691.444 Q265.913 691.444 268.853 693.851 Q271.793 696.258 271.793 700.402 Q271.793 703.365 270.103 705.425 Q268.436 707.485 265.45 708.226 Q268.83 709.013 270.705 711.305 Q272.603 713.596 272.603 716.906 Q272.603 721.93 269.524 724.615 Q266.469 727.3 260.751 727.3 Q255.034 727.3 251.955 724.615 Q248.899 721.93 248.899 716.906 Q248.899 713.596 250.797 711.305 Q252.696 709.013 256.075 708.226 M254.362 700.842 Q254.362 703.527 256.029 705.032 Q257.719 706.536 260.751 706.536 Q263.76 706.536 265.45 705.032 Q267.163 703.527 267.163 700.842 Q267.163 698.157 265.45 696.652 Q263.76 695.147 260.751 695.147 Q257.719 695.147 256.029 696.652 Q254.362 698.157 254.362 700.842 Z" fill="#000000" fill-rule="nonzero" fill-opacity="1" /><path clip-path="url(#clip900)" d="M290.913 695.147 Q287.302 695.147 285.473 698.712 Q283.668 702.254 283.668 709.383 Q283.668 716.49 285.473 720.055 Q287.302 723.596 290.913 723.596 Q294.547 723.596 296.353 720.055 Q298.181 716.49 298.181 709.383 Q298.181 702.254 296.353 698.712 Q294.547 695.147 290.913 695.147 M290.913 691.444 Q296.723 691.444 299.779 696.05 Q302.857 700.633 302.857 709.383 Q302.857 718.11 299.779 722.717 Q296.723 727.3 290.913 727.3 Q285.103 727.3 282.024 722.717 Q278.969 718.11 278.969 709.383 Q278.969 700.633 282.024 696.05 Q285.103 691.444 290.913 691.444 Z" fill="#000000" fill-rule="nonzero" fill-opacity="1" /><path clip-path="url(#clip900)" d="M221.399 545.487 L229.038 545.487 L229.038 519.122 L220.728 520.788 L220.728 516.529 L228.992 514.862 L233.668 514.862 L233.668 545.487 L241.307 545.487 L241.307 549.422 L221.399 549.422 L221.399 545.487 Z" fill="#000000" fill-rule="nonzero" fill-opacity="1" /><path clip-path="url(#clip900)" d="M260.751 517.941 Q257.14 517.941 255.311 521.506 Q253.506 525.047 253.506 532.177 Q253.506 539.284 255.311 542.848 Q257.14 546.39 260.751 546.39 Q264.385 546.39 266.191 542.848 Q268.02 539.284 268.02 532.177 Q268.02 525.047 266.191 521.506 Q264.385 517.941 260.751 517.941 M260.751 514.237 Q266.561 514.237 269.617 518.844 Q272.696 523.427 272.696 532.177 Q272.696 540.904 269.617 545.51 Q266.561 550.094 260.751 550.094 Q254.941 550.094 251.862 545.51 Q248.807 540.904 248.807 532.177 Q248.807 523.427 251.862 518.844 Q254.941 514.237 260.751 514.237 Z" fill="#000000" fill-rule="nonzero" fill-opacity="1" /><path clip-path="url(#clip900)" d="M290.913 517.941 Q287.302 517.941 285.473 521.506 Q283.668 525.047 283.668 532.177 Q283.668 539.284 285.473 542.848 Q287.302 546.39 290.913 546.39 Q294.547 546.39 296.353 542.848 Q298.181 539.284 298.181 532.177 Q298.181 525.047 296.353 521.506 Q294.547 517.941 290.913 517.941 M290.913 514.237 Q296.723 514.237 299.779 518.844 Q302.857 523.427 302.857 532.177 Q302.857 540.904 299.779 545.51 Q296.723 550.094 290.913 550.094 Q285.103 550.094 282.024 545.51 Q278.969 540.904 278.969 532.177 Q278.969 523.427 282.024 518.844 Q285.103 514.237 290.913 514.237 Z" fill="#000000" fill-rule="nonzero" fill-opacity="1" /><path clip-path="url(#clip900)" d="M221.399 368.281 L229.038 368.281 L229.038 341.915 L220.728 343.582 L220.728 339.323 L228.992 337.656 L233.668 337.656 L233.668 368.281 L241.307 368.281 L241.307 372.216 L221.399 372.216 L221.399 368.281 Z" fill="#000000" fill-rule="nonzero" fill-opacity="1" /><path clip-path="url(#clip900)" d="M254.779 368.281 L271.098 368.281 L271.098 372.216 L249.154 372.216 L249.154 368.281 Q251.816 365.526 256.399 360.897 Q261.006 356.244 262.186 354.901 Q264.432 352.378 265.311 350.642 Q266.214 348.883 266.214 347.193 Q266.214 344.438 264.27 342.702 Q262.348 340.966 259.247 340.966 Q257.047 340.966 254.594 341.73 Q252.163 342.494 249.385 344.045 L249.385 339.323 Q252.21 338.188 254.663 337.61 Q257.117 337.031 259.154 337.031 Q264.524 337.031 267.719 339.716 Q270.913 342.401 270.913 346.892 Q270.913 349.022 270.103 350.943 Q269.316 352.841 267.209 355.434 Q266.631 356.105 263.529 359.323 Q260.427 362.517 254.779 368.281 Z" fill="#000000" fill-rule="nonzero" fill-opacity="1" /><path clip-path="url(#clip900)" d="M290.913 340.735 Q287.302 340.735 285.473 344.3 Q283.668 347.841 283.668 354.971 Q283.668 362.077 285.473 365.642 Q287.302 369.184 290.913 369.184 Q294.547 369.184 296.353 365.642 Q298.181 362.077 298.181 354.971 Q298.181 347.841 296.353 344.3 Q294.547 340.735 290.913 340.735 M290.913 337.031 Q296.723 337.031 299.779 341.638 Q302.857 346.221 302.857 354.971 Q302.857 363.698 299.779 368.304 Q296.723 372.887 290.913 372.887 Q285.103 372.887 282.024 368.304 Q278.969 363.698 278.969 354.971 Q278.969 346.221 282.024 341.638 Q285.103 337.031 290.913 337.031 Z" fill="#000000" fill-rule="nonzero" fill-opacity="1" /><path clip-path="url(#clip900)" d="M221.399 191.075 L229.038 191.075 L229.038 164.709 L220.728 166.376 L220.728 162.116 L228.992 160.45 L233.668 160.45 L233.668 191.075 L241.307 191.075 L241.307 195.01 L221.399 195.01 L221.399 191.075 Z" fill="#000000" fill-rule="nonzero" fill-opacity="1" /><path clip-path="url(#clip900)" d="M263.598 164.524 L251.793 182.973 L263.598 182.973 L263.598 164.524 M262.371 160.45 L268.251 160.45 L268.251 182.973 L273.182 182.973 L273.182 186.862 L268.251 186.862 L268.251 195.01 L263.598 195.01 L263.598 186.862 L247.997 186.862 L247.997 182.348 L262.371 160.45 Z" fill="#000000" fill-rule="nonzero" fill-opacity="1" /><path clip-path="url(#clip900)" d="M290.913 163.528 Q287.302 163.528 285.473 167.093 Q283.668 170.635 283.668 177.764 Q283.668 184.871 285.473 188.436 Q287.302 191.977 290.913 191.977 Q294.547 191.977 296.353 188.436 Q298.181 184.871 298.181 177.764 Q298.181 170.635 296.353 167.093 Q294.547 163.528 290.913 163.528 M290.913 159.825 Q296.723 159.825 299.779 164.431 Q302.857 169.015 302.857 177.764 Q302.857 186.491 299.779 191.098 Q296.723 195.681 290.913 195.681 Q285.103 195.681 282.024 191.098 Q278.969 186.491 278.969 177.764 Q278.969 169.015 282.024 164.431 Q285.103 159.825 290.913 159.825 Z" fill="#000000" fill-rule="nonzero" fill-opacity="1" /><path clip-path="url(#clip900)" d="M15.3842 1063.68 L15.3842 1019.98 L23.2545 1019.98 L23.2545 1054.33 L43.7174 1054.33 L43.7174 1021.41 L51.5877 1021.41 L51.5877 1054.33 L76.6339 1054.33 L76.6339 1019.14 L84.5042 1019.14 L84.5042 1063.68 L15.3842 1063.68 Z" fill="#000000" fill-rule="nonzero" fill-opacity="1" /><path clip-path="url(#clip900)" d="M17.6527 962.339 L26.773 962.339 Q24.2267 967.663 22.9767 972.385 Q21.7267 977.107 21.7267 981.505 Q21.7267 989.144 24.6897 993.311 Q27.6526 997.431 33.1156 997.431 Q37.6989 997.431 40.06 994.7 Q42.3748 991.922 43.81 984.237 L44.9674 978.589 Q46.9581 968.126 52.0044 963.172 Q57.0043 958.172 65.4302 958.172 Q75.4765 958.172 80.6616 964.932 Q85.8468 971.644 85.8468 984.654 Q85.8468 989.561 84.7357 995.117 Q83.6246 1000.63 81.4486 1006.55 L71.8191 1006.55 Q75.0135 1000.86 76.6339 995.394 Q78.2542 989.931 78.2542 984.654 Q78.2542 976.644 75.1061 972.293 Q71.958 967.941 66.1247 967.941 Q61.0321 967.941 58.1617 971.089 Q55.2914 974.191 53.8562 981.32 L52.7451 987.015 Q50.6618 997.478 46.2174 1002.15 Q41.7729 1006.83 33.8563 1006.83 Q24.6897 1006.83 19.4119 1000.39 Q14.1342 993.913 14.1342 982.57 Q14.1342 977.709 15.0138 972.663 Q15.8934 967.617 17.6527 962.339 Z" fill="#000000" fill-rule="nonzero" fill-opacity="1" /><path clip-path="url(#clip900)" d="M17.6527 902.154 L26.773 902.154 Q24.2267 907.478 22.9767 912.2 Q21.7267 916.923 21.7267 921.321 Q21.7267 928.959 24.6897 933.126 Q27.6526 937.246 33.1156 937.246 Q37.6989 937.246 40.06 934.515 Q42.3748 931.737 43.81 924.052 L44.9674 918.404 Q46.9581 907.941 52.0044 902.987 Q57.0043 897.987 65.4302 897.987 Q75.4765 897.987 80.6616 904.747 Q85.8468 911.46 85.8468 924.469 Q85.8468 929.376 84.7357 934.932 Q83.6246 940.441 81.4486 946.367 L71.8191 946.367 Q75.0135 940.672 76.6339 935.209 Q78.2542 929.747 78.2542 924.469 Q78.2542 916.46 75.1061 912.108 Q71.958 907.756 66.1247 907.756 Q61.0321 907.756 58.1617 910.904 Q55.2914 914.006 53.8562 921.135 L52.7451 926.83 Q50.6618 937.293 46.2174 941.969 Q41.7729 946.645 33.8563 946.645 Q24.6897 946.645 19.4119 940.209 Q14.1342 933.728 14.1342 922.385 Q14.1342 917.524 15.0138 912.478 Q15.8934 907.432 17.6527 902.154 Z" fill="#000000" fill-rule="nonzero" fill-opacity="1" /><path clip-path="url(#clip900)" d="M15.3842 838.497 L15.3842 830.627 L93.3004 854.701 L93.3004 862.571 L15.3842 838.497 Z" fill="#000000" fill-rule="nonzero" fill-opacity="1" /><path clip-path="url(#clip900)" d="M20.7082 739.423 L30.5693 739.423 Q26.1712 744.146 23.9953 749.516 Q21.8193 754.84 21.8193 760.859 Q21.8193 772.71 29.0878 779.007 Q36.31 785.303 50.0136 785.303 Q63.671 785.303 70.9394 779.007 Q78.1616 772.71 78.1616 760.859 Q78.1616 754.84 75.9857 749.516 Q73.8098 744.146 69.4117 739.423 L79.1801 739.423 Q82.5135 744.331 84.1801 749.84 Q85.8468 755.303 85.8468 761.414 Q85.8468 777.108 76.2635 786.136 Q66.6339 795.164 50.0136 795.164 Q33.3471 795.164 23.7638 786.136 Q14.1342 777.108 14.1342 761.414 Q14.1342 755.21 15.8009 749.747 Q17.4212 744.238 20.7082 739.423 Z" fill="#000000" fill-rule="nonzero" fill-opacity="1" /><path clip-path="url(#clip900)" d="M23.0693 715.627 L49.0414 715.627 L49.0414 703.868 Q49.0414 697.34 45.6618 693.776 Q42.2822 690.211 36.0322 690.211 Q29.8286 690.211 26.4489 693.776 Q23.0693 697.34 23.0693 703.868 L23.0693 715.627 M15.3842 724.979 L15.3842 703.868 Q15.3842 692.248 20.6619 686.322 Q25.8934 680.35 36.0322 680.35 Q46.2637 680.35 51.4951 686.322 Q56.7266 692.248 56.7266 703.868 L56.7266 715.627 L84.5042 715.627 L84.5042 724.979 L15.3842 724.979 Z" fill="#000000" fill-rule="nonzero" fill-opacity="1" /><path clip-path="url(#clip900)" d="M15.3842 668.868 L15.3842 659.47 L57.3747 659.47 Q68.4858 659.47 73.3931 655.442 Q78.2542 651.415 78.2542 642.387 Q78.2542 633.406 73.3931 629.378 Q68.4858 625.35 57.3747 625.35 L15.3842 625.35 L15.3842 615.952 L58.5321 615.952 Q72.0506 615.952 78.9487 622.665 Q85.8468 629.331 85.8468 642.387 Q85.8468 655.489 78.9487 662.202 Q72.0506 668.868 58.5321 668.868 L15.3842 668.868 Z" fill="#000000" fill-rule="nonzero" fill-opacity="1" /><path clip-path="url(#clip900)" d="M15.3842 577.85 L15.3842 519.378 L23.2545 519.378 L23.2545 543.915 L84.5042 543.915 L84.5042 553.313 L23.2545 553.313 L23.2545 577.85 L15.3842 577.85 Z" fill="#000000" fill-rule="nonzero" fill-opacity="1" /><path clip-path="url(#clip900)" d="M32.6526 513.638 L32.6526 505.119 L84.5042 505.119 L84.5042 513.638 L32.6526 513.638 M12.4675 513.638 L12.4675 505.119 L23.2545 505.119 L23.2545 513.638 L12.4675 513.638 Z" fill="#000000" fill-rule="nonzero" fill-opacity="1" /><path clip-path="url(#clip900)" d="M42.6063 446.925 Q36.8656 443.731 34.1341 439.286 Q31.4026 434.842 31.4026 428.823 Q31.4026 420.721 37.097 416.323 Q42.7452 411.925 53.2081 411.925 L84.5042 411.925 L84.5042 420.49 L53.4858 420.49 Q46.0322 420.49 42.4211 423.129 Q38.81 425.768 38.81 431.184 Q38.81 437.805 43.2081 441.647 Q47.6062 445.49 55.1988 445.49 L84.5042 445.49 L84.5042 454.055 L53.4858 454.055 Q45.9859 454.055 42.4211 456.693 Q38.81 459.332 38.81 464.842 Q38.81 471.369 43.2544 475.212 Q47.6525 479.054 55.1988 479.054 L84.5042 479.054 L84.5042 487.619 L32.6526 487.619 L32.6526 479.054 L40.7081 479.054 Q35.9396 476.138 33.6711 472.064 Q31.4026 467.99 31.4026 462.388 Q31.4026 456.74 34.273 452.805 Q37.1433 448.823 42.6063 446.925 Z" fill="#000000" fill-rule="nonzero" fill-opacity="1" /><path clip-path="url(#clip900)" d="M56.4488 350.583 L60.6154 350.583 L60.6154 389.749 Q69.4117 389.194 74.0413 384.472 Q78.6246 379.703 78.6246 371.231 Q78.6246 366.324 77.4209 361.74 Q76.2172 357.111 73.8098 352.574 L81.8653 352.574 Q83.8097 357.157 84.8283 361.972 Q85.8468 366.787 85.8468 371.74 Q85.8468 384.148 78.6246 391.416 Q71.4024 398.638 59.0877 398.638 Q46.3562 398.638 38.9026 391.786 Q31.4026 384.888 31.4026 373.222 Q31.4026 362.759 38.1618 356.694 Q44.8748 350.583 56.4488 350.583 M53.9488 359.101 Q46.9581 359.194 42.7914 363.037 Q38.6248 366.833 38.6248 373.129 Q38.6248 380.259 42.6526 384.564 Q46.6803 388.823 53.9951 389.472 L53.9488 359.101 Z" fill="#000000" fill-rule="nonzero" fill-opacity="1" /><path clip-path="url(#clip900)" d="M116.24 1180.72 Q126.888 1186.92 137.305 1189.93 Q147.721 1192.94 158.416 1192.94 Q169.11 1192.94 179.619 1189.93 Q190.082 1186.87 200.684 1180.72 L200.684 1188.12 Q189.805 1195.07 179.295 1198.54 Q168.786 1201.97 158.416 1201.97 Q148.092 1201.97 137.629 1198.54 Q127.166 1195.12 116.24 1188.12 L116.24 1180.72 Z" fill="#000000" fill-rule="nonzero" fill-opacity="1" /><path clip-path="url(#clip900)" d="M128.74 1129.51 L154.527 1129.51 L154.527 1103.73 L162.397 1103.73 L162.397 1129.51 L188.184 1129.51 L188.184 1137.29 L162.397 1137.29 L162.397 1163.08 L154.527 1163.08 L154.527 1137.29 L128.74 1137.29 L128.74 1129.51 Z" fill="#000000" fill-rule="nonzero" fill-opacity="1" /><path clip-path="url(#clip900)" d="M162.305 1017.38 Q152.907 1017.38 147.583 1021.27 Q142.212 1025.12 142.212 1031.88 Q142.212 1038.63 147.583 1042.52 Q152.907 1046.37 162.305 1046.37 Q171.703 1046.37 177.073 1042.52 Q182.397 1038.63 182.397 1031.88 Q182.397 1025.12 177.073 1021.27 Q171.703 1017.38 162.305 1017.38 M144.203 1046.37 Q139.573 1043.68 137.351 1039.61 Q135.083 1035.49 135.083 1029.79 Q135.083 1020.35 142.583 1014.47 Q150.083 1008.54 162.305 1008.54 Q174.527 1008.54 182.027 1014.47 Q189.527 1020.35 189.527 1029.79 Q189.527 1035.49 187.305 1039.61 Q185.036 1043.68 180.406 1046.37 L188.184 1046.37 L188.184 1054.93 L116.148 1054.93 L116.148 1046.37 L144.203 1046.37 Z" fill="#000000" fill-rule="nonzero" fill-opacity="1" /><path clip-path="url(#clip900)" d="M142.305 974.33 Q142.305 981.181 147.675 985.163 Q152.999 989.144 162.305 989.144 Q171.61 989.144 176.981 985.209 Q182.305 981.228 182.305 974.33 Q182.305 967.524 176.934 963.543 Q171.564 959.561 162.305 959.561 Q153.092 959.561 147.721 963.543 Q142.305 967.524 142.305 974.33 M135.083 974.33 Q135.083 963.219 142.305 956.876 Q149.527 950.533 162.305 950.533 Q175.036 950.533 182.305 956.876 Q189.527 963.219 189.527 974.33 Q189.527 985.487 182.305 991.83 Q175.036 998.126 162.305 998.126 Q149.527 998.126 142.305 991.83 Q135.083 985.487 135.083 974.33 Z" fill="#000000" fill-rule="nonzero" fill-opacity="1" /><path clip-path="url(#clip900)" d="M142.305 916.321 Q142.305 923.172 147.675 927.154 Q152.999 931.135 162.305 931.135 Q171.61 931.135 176.981 927.2 Q182.305 923.219 182.305 916.321 Q182.305 909.515 176.934 905.534 Q171.564 901.552 162.305 901.552 Q153.092 901.552 147.721 905.534 Q142.305 909.515 142.305 916.321 M135.083 916.321 Q135.083 905.21 142.305 898.867 Q149.527 892.524 162.305 892.524 Q175.036 892.524 182.305 898.867 Q189.527 905.21 189.527 916.321 Q189.527 927.478 182.305 933.821 Q175.036 940.117 162.305 940.117 Q149.527 940.117 142.305 933.821 Q135.083 927.478 135.083 916.321 Z" fill="#000000" fill-rule="nonzero" fill-opacity="1" /><path clip-path="url(#clip900)" d="M121.61 869.978 L136.333 869.978 L136.333 852.432 L142.953 852.432 L142.953 869.978 L171.101 869.978 Q177.444 869.978 179.249 868.265 Q181.055 866.506 181.055 861.182 L181.055 852.432 L188.184 852.432 L188.184 861.182 Q188.184 871.043 184.527 874.793 Q180.823 878.543 171.101 878.543 L142.953 878.543 L142.953 884.793 L136.333 884.793 L136.333 878.543 L121.61 878.543 L121.61 869.978 Z" fill="#000000" fill-rule="nonzero" fill-opacity="1" /><path clip-path="url(#clip900)" d="M137.86 808.173 L145.916 808.173 Q144.064 811.784 143.138 815.673 Q142.212 819.562 142.212 823.729 Q142.212 830.071 144.157 833.266 Q146.101 836.414 149.99 836.414 Q152.953 836.414 154.666 834.145 Q156.333 831.877 157.86 825.025 L158.508 822.108 Q160.453 813.034 164.018 809.238 Q167.536 805.395 173.879 805.395 Q181.101 805.395 185.314 811.136 Q189.527 816.83 189.527 826.83 Q189.527 830.997 188.693 835.534 Q187.906 840.025 186.286 845.025 L177.49 845.025 Q179.943 840.303 181.193 835.719 Q182.397 831.136 182.397 826.645 Q182.397 820.627 180.36 817.386 Q178.277 814.145 174.527 814.145 Q171.055 814.145 169.203 816.506 Q167.351 818.821 165.638 826.738 L164.944 829.701 Q163.277 837.617 159.851 841.136 Q156.379 844.654 150.36 844.654 Q143.046 844.654 139.064 839.469 Q135.083 834.284 135.083 824.747 Q135.083 820.025 135.777 815.858 Q136.472 811.692 137.86 808.173 Z" fill="#000000" fill-rule="nonzero" fill-opacity="1" /><path clip-path="url(#clip900)" d="M121.61 783.405 L136.333 783.405 L136.333 765.859 L142.953 765.859 L142.953 783.405 L171.101 783.405 Q177.444 783.405 179.249 781.692 Q181.055 779.933 181.055 774.608 L181.055 765.859 L188.184 765.859 L188.184 774.608 Q188.184 784.47 184.527 788.219 Q180.823 791.969 171.101 791.969 L142.953 791.969 L142.953 798.219 L136.333 798.219 L136.333 791.969 L121.61 791.969 L121.61 783.405 Z" fill="#000000" fill-rule="nonzero" fill-opacity="1" /><path clip-path="url(#clip900)" d="M144.296 724.609 Q143.462 726.044 143.092 727.757 Q142.675 729.424 142.675 731.461 Q142.675 738.683 147.397 742.572 Q152.073 746.414 160.87 746.414 L188.184 746.414 L188.184 754.979 L136.333 754.979 L136.333 746.414 L144.388 746.414 Q139.666 743.729 137.397 739.423 Q135.083 735.118 135.083 728.961 Q135.083 728.081 135.222 727.016 Q135.314 725.951 135.546 724.655 L144.296 724.609 Z" fill="#000000" fill-rule="nonzero" fill-opacity="1" /><path clip-path="url(#clip900)" d="M162.12 692.109 Q162.12 702.433 164.481 706.414 Q166.842 710.396 172.536 710.396 Q177.073 710.396 179.758 707.433 Q182.397 704.424 182.397 699.285 Q182.397 692.201 177.397 687.942 Q172.351 683.637 164.018 683.637 L162.12 683.637 L162.12 692.109 M158.601 675.118 L188.184 675.118 L188.184 683.637 L180.314 683.637 Q185.036 686.553 187.305 690.905 Q189.527 695.257 189.527 701.553 Q189.527 709.516 185.082 714.238 Q180.592 718.914 173.092 718.914 Q164.342 718.914 159.897 713.081 Q155.453 707.201 155.453 695.581 L155.453 683.637 L154.62 683.637 Q148.74 683.637 145.546 687.526 Q142.305 691.368 142.305 698.359 Q142.305 702.803 143.37 707.016 Q144.434 711.229 146.564 715.118 L138.694 715.118 Q136.888 710.442 136.009 706.044 Q135.083 701.646 135.083 697.479 Q135.083 686.229 140.916 680.674 Q146.749 675.118 158.601 675.118 Z" fill="#000000" fill-rule="nonzero" fill-opacity="1" /><path clip-path="url(#clip900)" d="M180.406 649.331 L207.906 649.331 L207.906 657.896 L136.333 657.896 L136.333 649.331 L144.203 649.331 Q139.573 646.646 137.351 642.572 Q135.083 638.452 135.083 632.757 Q135.083 623.313 142.583 617.433 Q150.083 611.507 162.305 611.507 Q174.527 611.507 182.027 617.433 Q189.527 623.313 189.527 632.757 Q189.527 638.452 187.305 642.572 Q185.036 646.646 180.406 649.331 M162.305 620.35 Q152.907 620.35 147.583 624.239 Q142.212 628.081 142.212 634.841 Q142.212 641.6 147.583 645.489 Q152.907 649.331 162.305 649.331 Q171.703 649.331 177.073 645.489 Q182.397 641.6 182.397 634.841 Q182.397 628.081 177.073 624.239 Q171.703 620.35 162.305 620.35 Z" fill="#000000" fill-rule="nonzero" fill-opacity="1" /><path clip-path="url(#clip900)" d="M186.749 565.767 L178.231 565.767 Q179.897 562.248 180.777 558.637 Q181.656 555.026 181.656 551.554 Q181.656 542.295 175.453 537.434 Q169.203 532.526 156.518 531.832 Q160.499 534.517 162.629 538.638 Q164.758 542.758 164.758 547.758 Q164.758 558.128 158.508 564.193 Q152.212 570.211 141.333 570.211 Q130.684 570.211 124.249 563.915 Q117.814 557.619 117.814 547.156 Q117.814 535.165 127.027 528.869 Q136.194 522.526 153.694 522.526 Q170.036 522.526 179.805 530.304 Q189.527 538.036 189.527 551.137 Q189.527 554.656 188.832 558.267 Q188.138 561.878 186.749 565.767 M157.444 547.156 Q157.444 540.86 153.138 537.202 Q148.833 533.499 141.333 533.499 Q133.879 533.499 129.573 537.202 Q125.222 540.86 125.222 547.156 Q125.222 553.452 129.573 557.156 Q133.879 560.813 141.333 560.813 Q148.833 560.813 153.138 557.156 Q157.444 553.452 157.444 547.156 Z" fill="#000000" fill-rule="nonzero" fill-opacity="1" /><path clip-path="url(#clip900)" d="M119.064 505.628 L119.064 468.916 L126.935 468.916 L126.935 497.064 L143.879 497.064 Q143.184 495.027 142.86 492.99 Q142.49 490.953 142.49 488.916 Q142.49 477.342 148.833 470.582 Q155.175 463.823 166.008 463.823 Q177.166 463.823 183.369 470.767 Q189.527 477.712 189.527 490.351 Q189.527 494.703 188.786 499.24 Q188.045 503.73 186.564 508.545 L177.166 508.545 Q179.434 504.378 180.545 499.934 Q181.656 495.49 181.656 490.536 Q181.656 482.527 177.444 477.851 Q173.231 473.175 166.008 473.175 Q158.786 473.175 154.573 477.851 Q150.36 482.527 150.36 490.536 Q150.36 494.286 151.194 498.036 Q152.027 501.74 153.786 505.628 L119.064 505.628 Z" fill="#000000" fill-rule="nonzero" fill-opacity="1" /><path clip-path="url(#clip900)" d="M157.768 386.601 Q157.768 390.629 161.194 392.944 Q164.62 395.212 170.731 395.212 Q176.749 395.212 180.221 392.944 Q183.647 390.629 183.647 386.601 Q183.647 382.666 180.221 380.398 Q176.749 378.083 170.731 378.083 Q164.666 378.083 161.24 380.398 Q157.768 382.666 157.768 386.601 M151.888 386.601 Q151.888 379.287 156.981 374.981 Q162.073 370.675 170.731 370.675 Q179.388 370.675 184.481 375.027 Q189.527 379.333 189.527 386.601 Q189.527 394.009 184.481 398.314 Q179.388 402.62 170.731 402.62 Q162.027 402.62 156.981 398.314 Q151.888 393.962 151.888 386.601 M123.694 434.379 Q123.694 438.36 127.166 440.675 Q130.592 442.944 136.61 442.944 Q142.721 442.944 146.147 440.675 Q149.573 438.407 149.573 434.379 Q149.573 430.351 146.147 428.083 Q142.721 425.768 136.61 425.768 Q130.638 425.768 127.166 428.083 Q123.694 430.397 123.694 434.379 M117.814 392.573 L117.814 385.166 L189.527 428.407 L189.527 435.814 L117.814 392.573 M117.814 434.379 Q117.814 427.064 122.907 422.712 Q127.953 418.36 136.61 418.36 Q145.36 418.36 150.407 422.712 Q155.453 427.018 155.453 434.379 Q155.453 441.74 150.407 446.045 Q145.314 450.305 136.61 450.305 Q127.999 450.305 122.907 445.999 Q117.814 441.694 117.814 434.379 Z" fill="#000000" fill-rule="nonzero" fill-opacity="1" /><path clip-path="url(#clip900)" d="M124.388 274.241 L134.249 274.241 Q129.851 278.963 127.675 284.333 Q125.499 289.657 125.499 295.676 Q125.499 307.528 132.768 313.824 Q139.99 320.12 153.694 320.12 Q167.351 320.12 174.619 313.824 Q181.842 307.528 181.842 295.676 Q181.842 289.657 179.666 284.333 Q177.49 278.963 173.092 274.241 L182.86 274.241 Q186.193 279.148 187.86 284.657 Q189.527 290.12 189.527 296.231 Q189.527 311.926 179.943 320.953 Q170.314 329.981 153.694 329.981 Q137.027 329.981 127.444 320.953 Q117.814 311.926 117.814 296.231 Q117.814 290.028 119.481 284.565 Q121.101 279.056 124.388 274.241 Z" fill="#000000" fill-rule="nonzero" fill-opacity="1" /><path clip-path="url(#clip900)" d="M119.064 259.796 L119.064 250.445 L188.184 250.445 L188.184 259.796 L119.064 259.796 Z" fill="#000000" fill-rule="nonzero" fill-opacity="1" /><path clip-path="url(#clip900)" d="M116.24 233.547 L116.24 226.139 Q127.166 219.195 137.629 215.769 Q148.092 212.297 158.416 212.297 Q168.786 212.297 179.295 215.769 Q189.805 219.195 200.684 226.139 L200.684 233.547 Q190.082 227.389 179.619 224.38 Q169.11 221.324 158.416 221.324 Q147.721 221.324 137.305 224.38 Q126.888 227.389 116.24 233.547 Z" fill="#000000" fill-rule="nonzero" fill-opacity="1" /><polyline clip-path="url(#clip901)" style="stroke:#78c2ad; stroke-linecap:round; stroke-linejoin:round; stroke-width:24; stroke-opacity:1; fill:none" points="674.507,823.383 674.507,918.01 "/>
<line clip-path="url(#clip901)" x1="722.507" y1="823.383" x2="626.507" y2="823.383" style="stroke:#78c2ad; stroke-width:24; stroke-opacity:1"/>
<line clip-path="url(#clip901)" x1="722.507" y1="918.01" x2="626.507" y2="918.01" style="stroke:#78c2ad; stroke-width:24; stroke-opacity:1"/>
<circle clip-path="url(#clip901)" cx="674.507" cy="869.603" r="43.2" fill="#78c2ad" fill-rule="evenodd" fill-opacity="1" stroke="none"/>
<polyline clip-path="url(#clip901)" style="stroke:#0096ff; stroke-linecap:round; stroke-linejoin:round; stroke-width:24; stroke-opacity:1; fill:none" points="1345.81,1312.9 1345.81,1329.67 "/>
<line clip-path="url(#clip901)" x1="1393.81" y1="1312.9" x2="1297.81" y2="1312.9" style="stroke:#0096ff; stroke-width:24; stroke-opacity:1"/>
<line clip-path="url(#clip901)" x1="1393.81" y1="1329.67" x2="1297.81" y2="1329.67" style="stroke:#0096ff; stroke-width:24; stroke-opacity:1"/>
<circle clip-path="url(#clip901)" cx="1345.81" cy="1321.27" r="43.2" fill="#0096ff" fill-rule="evenodd" fill-opacity="1" stroke="none"/>
<polyline clip-path="url(#clip901)" style="stroke:#e95420; stroke-linecap:round; stroke-linejoin:round; stroke-width:24; stroke-opacity:1; fill:none" points="2017.11,84.5962 2017.11,324.082 "/>
<line clip-path="url(#clip901)" x1="2065.11" y1="84.5962" x2="1969.11" y2="84.5962" style="stroke:#e95420; stroke-width:24; stroke-opacity:1"/>
<line clip-path="url(#clip901)" x1="2065.11" y1="324.082" x2="1969.11" y2="324.082" style="stroke:#e95420; stroke-width:24; stroke-opacity:1"/>
<circle clip-path="url(#clip901)" cx="2017.11" cy="201.818" r="43.2" fill="#e95420" fill-rule="evenodd" fill-opacity="1" stroke="none"/>
</svg>
