<?xml version="1.0" encoding="utf-8"?>
<svg xmlns="http://www.w3.org/2000/svg" xmlns:xlink="http://www.w3.org/1999/xlink" width="576" height="384" viewBox="0 0 2304 1536">
<defs>
  <clipPath id="clip950">
    <rect x="0" y="0" width="2304" height="1536"/>
  </clipPath>
</defs>
<path clip-path="url(#clip950)" d="M0 1536 L2304 1536 L2304 8.52651e-14 L0 8.52651e-14  Z" fill="#f0f1eb" fill-rule="evenodd" fill-opacity="1"/>
<defs>
  <clipPath id="clip951">
    <rect x="460" y="0" width="1614" height="1536"/>
  </clipPath>
</defs>
<path clip-path="url(#clip950)" d="M220.677 1347.54 L2256.76 1347.54 L2256.76 47.2441 L220.677 47.2441  Z" fill="#f0f1eb" fill-rule="evenodd" fill-opacity="1"/>
<defs>
  <clipPath id="clip952">
    <rect x="220" y="47" width="2037" height="1301"/>
  </clipPath>
</defs>
<polyline clip-path="url(#clip952)" style="stroke:#000000; stroke-linecap:round; stroke-linejoin:round; stroke-width:2; stroke-opacity:0.1; fill:none" points="278.302,1347.54 278.302,47.2441 "/>
<polyline clip-path="url(#clip952)" style="stroke:#000000; stroke-linecap:round; stroke-linejoin:round; stroke-width:2; stroke-opacity:0.1; fill:none" points="1238.72,1347.54 1238.72,47.2441 "/>
<polyline clip-path="url(#clip952)" style="stroke:#000000; stroke-linecap:round; stroke-linejoin:round; stroke-width:2; stroke-opacity:0.1; fill:none" points="2199.13,1347.54 2199.13,47.2441 "/>
<polyline clip-path="url(#clip950)" style="stroke:#000000; stroke-linecap:round; stroke-linejoin:round; stroke-width:4; stroke-opacity:1; fill:none" points="220.677,1347.54 2256.76,1347.54 "/>
<polyline clip-path="url(#clip950)" style="stroke:#000000; stroke-linecap:round; stroke-linejoin:round; stroke-width:4; stroke-opacity:1; fill:none" points="278.302,1347.54 278.302,1328.64 "/>
<polyline clip-path="url(#clip950)" style="stroke:#000000; stroke-linecap:round; stroke-linejoin:round; stroke-width:4; stroke-opacity:1; fill:none" points="1238.72,1347.54 1238.72,1328.64 "/>
<polyline clip-path="url(#clip950)" style="stroke:#000000; stroke-linecap:round; stroke-linejoin:round; stroke-width:4; stroke-opacity:1; fill:none" points="2199.13,1347.54 2199.13,1328.64 "/>
<path clip-path="url(#clip950)" d="M228.568 1420.89 L236.207 1420.89 L236.207 1394.53 L227.896 1396.19 L227.896 1391.94 L236.16 1390.27 L240.836 1390.27 L240.836 1420.89 L248.475 1420.89 L248.475 1424.83 L228.568 1424.83 L228.568 1420.89 Z" fill="#000000" fill-rule="nonzero" fill-opacity="1" /><path clip-path="url(#clip950)" d="M267.919 1393.35 Q264.308 1393.35 262.48 1396.91 Q260.674 1400.45 260.674 1407.58 Q260.674 1414.69 262.48 1418.25 Q264.308 1421.8 267.919 1421.8 Q271.554 1421.8 273.359 1418.25 Q275.188 1414.69 275.188 1407.58 Q275.188 1400.45 273.359 1396.91 Q271.554 1393.35 267.919 1393.35 M267.919 1389.64 Q273.73 1389.64 276.785 1394.25 Q279.864 1398.83 279.864 1407.58 Q279.864 1416.31 276.785 1420.92 Q273.73 1425.5 267.919 1425.5 Q262.109 1425.5 259.031 1420.92 Q255.975 1416.31 255.975 1407.58 Q255.975 1398.83 259.031 1394.25 Q262.109 1389.64 267.919 1389.64 Z" fill="#000000" fill-rule="nonzero" fill-opacity="1" /><path clip-path="url(#clip950)" d="M279.864 1383.74 L303.975 1383.74 L303.975 1386.94 L279.864 1386.94 L279.864 1383.74 Z" fill="#000000" fill-rule="nonzero" fill-opacity="1" /><path clip-path="url(#clip950)" d="M315.448 1394.22 L328.708 1394.22 L328.708 1397.42 L310.878 1397.42 L310.878 1394.22 Q313.041 1391.98 316.765 1388.22 Q320.507 1384.44 321.467 1383.35 Q323.291 1381.3 324.006 1379.89 Q324.739 1378.46 324.739 1377.09 Q324.739 1374.85 323.159 1373.44 Q321.598 1372.03 319.078 1372.03 Q317.291 1372.03 315.298 1372.65 Q313.323 1373.27 311.066 1374.53 L311.066 1370.69 Q313.36 1369.77 315.354 1369.3 Q317.348 1368.83 319.003 1368.83 Q323.366 1368.83 325.962 1371.01 Q328.557 1373.19 328.557 1376.84 Q328.557 1378.57 327.899 1380.13 Q327.259 1381.68 325.548 1383.78 Q325.078 1384.33 322.557 1386.94 Q320.037 1389.54 315.448 1394.22 Z" fill="#000000" fill-rule="nonzero" fill-opacity="1" /><path clip-path="url(#clip950)" d="M1188.83 1420.89 L1196.47 1420.89 L1196.47 1394.53 L1188.16 1396.19 L1188.16 1391.94 L1196.42 1390.27 L1201.1 1390.27 L1201.1 1420.89 L1208.74 1420.89 L1208.74 1424.83 L1188.83 1424.83 L1188.83 1420.89 Z" fill="#000000" fill-rule="nonzero" fill-opacity="1" /><path clip-path="url(#clip950)" d="M1228.18 1393.35 Q1224.57 1393.35 1222.74 1396.91 Q1220.94 1400.45 1220.94 1407.58 Q1220.94 1414.69 1222.74 1418.25 Q1224.57 1421.8 1228.18 1421.8 Q1231.82 1421.8 1233.62 1418.25 Q1235.45 1414.69 1235.45 1407.58 Q1235.45 1400.45 1233.62 1396.91 Q1231.82 1393.35 1228.18 1393.35 M1228.18 1389.64 Q1233.99 1389.64 1237.05 1394.25 Q1240.13 1398.83 1240.13 1407.58 Q1240.13 1416.31 1237.05 1420.92 Q1233.99 1425.5 1228.18 1425.5 Q1222.37 1425.5 1219.29 1420.92 Q1216.24 1416.31 1216.24 1407.58 Q1216.24 1398.83 1219.29 1394.25 Q1222.37 1389.64 1228.18 1389.64 Z" fill="#000000" fill-rule="nonzero" fill-opacity="1" /><path clip-path="url(#clip950)" d="M1240.13 1383.74 L1264.24 1383.74 L1264.24 1386.94 L1240.13 1386.94 L1240.13 1383.74 Z" fill="#000000" fill-rule="nonzero" fill-opacity="1" /><path clip-path="url(#clip950)" d="M1273.1 1394.22 L1279.3 1394.22 L1279.3 1372.8 L1272.55 1374.15 L1272.55 1370.69 L1279.27 1369.34 L1283.07 1369.34 L1283.07 1394.22 L1289.27 1394.22 L1289.27 1397.42 L1273.1 1397.42 L1273.1 1394.22 Z" fill="#000000" fill-rule="nonzero" fill-opacity="1" /><path clip-path="url(#clip950)" d="M2164.11 1420.89 L2171.75 1420.89 L2171.75 1394.53 L2163.44 1396.19 L2163.44 1391.94 L2171.71 1390.27 L2176.38 1390.27 L2176.38 1420.89 L2184.02 1420.89 L2184.02 1424.83 L2164.11 1424.83 L2164.11 1420.89 Z" fill="#000000" fill-rule="nonzero" fill-opacity="1" /><path clip-path="url(#clip950)" d="M2203.47 1393.35 Q2199.85 1393.35 2198.03 1396.91 Q2196.22 1400.45 2196.22 1407.58 Q2196.22 1414.69 2198.03 1418.25 Q2199.85 1421.8 2203.47 1421.8 Q2207.1 1421.8 2208.91 1418.25 Q2210.73 1414.69 2210.73 1407.58 Q2210.73 1400.45 2208.91 1396.91 Q2207.1 1393.35 2203.47 1393.35 M2203.47 1389.64 Q2209.28 1389.64 2212.33 1394.25 Q2215.41 1398.83 2215.41 1407.58 Q2215.41 1416.31 2212.33 1420.92 Q2209.28 1425.5 2203.47 1425.5 Q2197.66 1425.5 2194.58 1420.92 Q2191.52 1416.31 2191.52 1407.58 Q2191.52 1398.83 2194.58 1394.25 Q2197.66 1389.64 2203.47 1389.64 Z" fill="#000000" fill-rule="nonzero" fill-opacity="1" /><path clip-path="url(#clip950)" d="M2225.11 1371.84 Q2222.18 1371.84 2220.69 1374.74 Q2219.23 1377.61 2219.23 1383.41 Q2219.23 1389.18 2220.69 1392.08 Q2222.18 1394.95 2225.11 1394.95 Q2228.07 1394.95 2229.53 1392.08 Q2231.02 1389.18 2231.02 1383.41 Q2231.02 1377.61 2229.53 1374.74 Q2228.07 1371.84 2225.11 1371.84 M2225.11 1368.83 Q2229.84 1368.83 2232.32 1372.57 Q2234.82 1376.3 2234.82 1383.41 Q2234.82 1390.5 2232.32 1394.24 Q2229.84 1397.96 2225.11 1397.96 Q2220.39 1397.96 2217.89 1394.24 Q2215.41 1390.5 2215.41 1383.41 Q2215.41 1376.3 2217.89 1372.57 Q2220.39 1368.83 2225.11 1368.83 Z" fill="#000000" fill-rule="nonzero" fill-opacity="1" /><path clip-path="url(#clip950)" d="M1107.35 1448.98 L1107.35 1455.25 Q1103.69 1453.5 1100.44 1452.64 Q1097.19 1451.78 1094.17 1451.78 Q1088.92 1451.78 1086.05 1453.81 Q1083.22 1455.85 1083.22 1459.61 Q1083.22 1462.76 1085.1 1464.38 Q1087.01 1465.97 1092.29 1466.96 L1096.18 1467.75 Q1103.37 1469.12 1106.77 1472.59 Q1110.21 1476.03 1110.21 1481.82 Q1110.21 1488.73 1105.56 1492.29 Q1100.95 1495.86 1092.01 1495.86 Q1088.63 1495.86 1084.81 1495.1 Q1081.02 1494.33 1076.95 1492.84 L1076.95 1486.21 Q1080.87 1488.41 1084.62 1489.53 Q1088.38 1490.64 1092.01 1490.64 Q1097.51 1490.64 1100.5 1488.47 Q1103.5 1486.31 1103.5 1482.3 Q1103.5 1478.8 1101.33 1476.83 Q1099.2 1474.85 1094.3 1473.87 L1090.38 1473.1 Q1083.19 1471.67 1079.97 1468.61 Q1076.76 1465.56 1076.76 1460.12 Q1076.76 1453.81 1081.18 1450.19 Q1085.64 1446.56 1093.44 1446.56 Q1096.78 1446.56 1100.25 1447.16 Q1103.72 1447.77 1107.35 1448.98 Z" fill="#000000" fill-rule="nonzero" fill-opacity="1" /><path clip-path="url(#clip950)" d="M1125.65 1489.59 L1125.65 1508.49 L1119.76 1508.49 L1119.76 1459.29 L1125.65 1459.29 L1125.65 1464.7 Q1127.49 1461.52 1130.3 1459.99 Q1133.13 1458.43 1137.04 1458.43 Q1143.54 1458.43 1147.58 1463.58 Q1151.65 1468.74 1151.65 1477.14 Q1151.65 1485.55 1147.58 1490.7 Q1143.54 1495.86 1137.04 1495.86 Q1133.13 1495.86 1130.3 1494.33 Q1127.49 1492.77 1125.65 1489.59 M1145.57 1477.14 Q1145.57 1470.68 1142.9 1467.02 Q1140.26 1463.33 1135.61 1463.33 Q1130.96 1463.33 1128.29 1467.02 Q1125.65 1470.68 1125.65 1477.14 Q1125.65 1483.6 1128.29 1487.3 Q1130.96 1490.96 1135.61 1490.96 Q1140.26 1490.96 1142.9 1487.3 Q1145.57 1483.6 1145.57 1477.14 Z" fill="#000000" fill-rule="nonzero" fill-opacity="1" /><path clip-path="url(#clip950)" d="M1177.56 1477.02 Q1170.46 1477.02 1167.73 1478.64 Q1164.99 1480.26 1164.99 1484.18 Q1164.99 1487.3 1167.03 1489.14 Q1169.09 1490.96 1172.63 1490.96 Q1177.5 1490.96 1180.43 1487.52 Q1183.39 1484.05 1183.39 1478.32 L1183.39 1477.02 L1177.56 1477.02 M1189.24 1474.6 L1189.24 1494.94 L1183.39 1494.94 L1183.39 1489.53 Q1181.38 1492.77 1178.39 1494.33 Q1175.4 1495.86 1171.07 1495.86 Q1165.59 1495.86 1162.35 1492.8 Q1159.13 1489.72 1159.13 1484.56 Q1159.13 1478.54 1163.14 1475.49 Q1167.18 1472.43 1175.17 1472.43 L1183.39 1472.43 L1183.39 1471.86 Q1183.39 1467.82 1180.71 1465.62 Q1178.07 1463.39 1173.26 1463.39 Q1170.21 1463.39 1167.31 1464.13 Q1164.42 1464.86 1161.74 1466.32 L1161.74 1460.91 Q1164.96 1459.67 1167.98 1459.07 Q1171 1458.43 1173.87 1458.43 Q1181.6 1458.43 1185.42 1462.44 Q1189.24 1466.45 1189.24 1474.6 Z" fill="#000000" fill-rule="nonzero" fill-opacity="1" /><path clip-path="url(#clip950)" d="M1221.96 1464.76 Q1220.98 1464.19 1219.8 1463.93 Q1218.65 1463.65 1217.25 1463.65 Q1212.29 1463.65 1209.61 1466.9 Q1206.97 1470.11 1206.97 1476.16 L1206.97 1494.94 L1201.08 1494.94 L1201.08 1459.29 L1206.97 1459.29 L1206.97 1464.83 Q1208.82 1461.58 1211.78 1460.02 Q1214.74 1458.43 1218.97 1458.43 Q1219.57 1458.43 1220.31 1458.52 Q1221.04 1458.59 1221.93 1458.75 L1221.96 1464.76 Z" fill="#000000" fill-rule="nonzero" fill-opacity="1" /><path clip-path="url(#clip950)" d="M1250.83 1460.34 L1250.83 1465.88 Q1248.35 1464.6 1245.67 1463.97 Q1243 1463.33 1240.14 1463.33 Q1235.78 1463.33 1233.58 1464.67 Q1231.41 1466 1231.41 1468.68 Q1231.41 1470.71 1232.97 1471.89 Q1234.53 1473.04 1239.24 1474.09 L1241.25 1474.53 Q1247.49 1475.87 1250.1 1478.32 Q1252.74 1480.74 1252.74 1485.1 Q1252.74 1490.07 1248.79 1492.96 Q1244.88 1495.86 1238 1495.86 Q1235.14 1495.86 1232.02 1495.29 Q1228.93 1494.74 1225.49 1493.63 L1225.49 1487.58 Q1228.74 1489.27 1231.89 1490.13 Q1235.04 1490.96 1238.13 1490.96 Q1242.27 1490.96 1244.5 1489.56 Q1246.72 1488.12 1246.72 1485.55 Q1246.72 1483.16 1245.1 1481.89 Q1243.51 1480.61 1238.07 1479.44 L1236.03 1478.96 Q1230.59 1477.81 1228.17 1475.46 Q1225.75 1473.07 1225.75 1468.93 Q1225.75 1463.9 1229.31 1461.17 Q1232.88 1458.43 1239.44 1458.43 Q1242.68 1458.43 1245.55 1458.91 Q1248.41 1459.38 1250.83 1460.34 Z" fill="#000000" fill-rule="nonzero" fill-opacity="1" /><path clip-path="url(#clip950)" d="M1262.07 1459.29 L1267.92 1459.29 L1267.92 1494.94 L1262.07 1494.94 L1262.07 1459.29 M1262.07 1445.41 L1267.92 1445.41 L1267.92 1452.83 L1262.07 1452.83 L1262.07 1445.41 Z" fill="#000000" fill-rule="nonzero" fill-opacity="1" /><path clip-path="url(#clip950)" d="M1285.97 1449.17 L1285.97 1459.29 L1298.03 1459.29 L1298.03 1463.84 L1285.97 1463.84 L1285.97 1483.19 Q1285.97 1487.55 1287.15 1488.79 Q1288.36 1490.03 1292.02 1490.03 L1298.03 1490.03 L1298.03 1494.94 L1292.02 1494.94 Q1285.24 1494.94 1282.66 1492.42 Q1280.08 1489.88 1280.08 1483.19 L1280.08 1463.84 L1275.78 1463.84 L1275.78 1459.29 L1280.08 1459.29 L1280.08 1449.17 L1285.97 1449.17 Z" fill="#000000" fill-rule="nonzero" fill-opacity="1" /><path clip-path="url(#clip950)" d="M1320.57 1498.25 Q1318.08 1504.61 1315.73 1506.55 Q1313.37 1508.49 1309.43 1508.49 L1304.75 1508.49 L1304.75 1503.59 L1308.19 1503.59 Q1310.6 1503.59 1311.94 1502.45 Q1313.28 1501.3 1314.9 1497.04 L1315.95 1494.36 L1301.53 1459.29 L1307.74 1459.29 L1318.88 1487.17 L1330.02 1459.29 L1336.23 1459.29 L1320.57 1498.25 Z" fill="#000000" fill-rule="nonzero" fill-opacity="1" /><path clip-path="url(#clip950)" d="M1395.89 1469.69 Q1395.83 1470.01 1395.7 1470.59 Q1395.57 1471.14 1394.99 1472.87 Q1394.41 1474.61 1393.64 1476.39 Q1392.9 1478.12 1391.45 1480.57 Q1390.03 1482.99 1388.29 1485.18 Q1387.81 1485.76 1387.71 1486.11 Q1387.65 1486.43 1387.65 1487.5 Q1387.65 1494.2 1389.68 1494.2 Q1389.77 1494.2 1389.93 1494.2 Q1390.13 1494.16 1390.61 1494 Q1391.13 1493.81 1391.58 1493.52 Q1392.03 1493.2 1392.54 1492.55 Q1393.06 1491.88 1393.38 1490.97 Q1393.67 1490.33 1394.25 1490.33 Q1395.02 1490.33 1395.02 1490.97 Q1395.02 1492.13 1393.41 1493.91 Q1391.8 1495.68 1389.48 1495.68 Q1387.26 1495.68 1385.68 1494.23 Q1384.14 1492.75 1383.49 1490.11 Q1376.54 1495.68 1369.58 1495.68 Q1364.69 1495.68 1361.79 1492.49 Q1358.89 1489.27 1358.89 1484.5 Q1358.89 1479.93 1361.4 1475.58 Q1363.94 1471.23 1368.07 1468.53 Q1372.22 1465.79 1376.63 1465.79 Q1378.18 1465.79 1379.66 1466.21 Q1381.14 1466.59 1382.62 1467.59 Q1384.11 1468.59 1385.2 1470.11 Q1386.3 1471.62 1386.97 1474 Q1387.65 1476.39 1387.65 1479.38 L1387.65 1483.47 Q1391.9 1478.09 1394.12 1470.4 Q1394.44 1469.24 1394.64 1469.11 Q1394.77 1469.01 1395.09 1469.01 Q1395.41 1469.01 1395.6 1469.2 Q1395.83 1469.36 1395.86 1469.53 L1395.89 1469.69 M1383.24 1488.4 Q1383.11 1487.27 1383.11 1481.02 Q1383.11 1479.83 1383.11 1479.19 Q1383.11 1478.51 1383.04 1477.22 Q1382.98 1475.93 1382.85 1475.13 Q1382.75 1474.32 1382.53 1473.16 Q1382.3 1472.01 1381.98 1471.26 Q1381.66 1470.52 1381.14 1469.69 Q1380.66 1468.85 1380.02 1468.37 Q1379.4 1467.88 1378.5 1467.56 Q1377.63 1467.24 1376.57 1467.24 Q1375.25 1467.24 1373.86 1467.72 Q1372.51 1468.17 1370.77 1469.62 Q1369.03 1471.04 1367.58 1473.29 Q1366.07 1475.68 1364.91 1480.06 Q1363.78 1484.4 1363.78 1487.01 Q1363.78 1490.3 1365.3 1492.26 Q1366.81 1494.2 1369.71 1494.2 Q1376.63 1494.2 1383.24 1488.4 Z" fill="#000000" fill-rule="nonzero" fill-opacity="1" /><polyline clip-path="url(#clip952)" style="stroke:#000000; stroke-linecap:round; stroke-linejoin:round; stroke-width:2; stroke-opacity:0.1; fill:none" points="220.677,1296.23 2256.76,1296.23 "/>
<polyline clip-path="url(#clip952)" style="stroke:#000000; stroke-linecap:round; stroke-linejoin:round; stroke-width:2; stroke-opacity:0.1; fill:none" points="220.677,493.971 2256.76,493.971 "/>
<polyline clip-path="url(#clip950)" style="stroke:#000000; stroke-linecap:round; stroke-linejoin:round; stroke-width:4; stroke-opacity:1; fill:none" points="220.677,1347.54 220.677,47.2441 "/>
<polyline clip-path="url(#clip950)" style="stroke:#000000; stroke-linecap:round; stroke-linejoin:round; stroke-width:4; stroke-opacity:1; fill:none" points="220.677,1296.23 239.575,1296.23 "/>
<polyline clip-path="url(#clip950)" style="stroke:#000000; stroke-linecap:round; stroke-linejoin:round; stroke-width:4; stroke-opacity:1; fill:none" points="220.677,493.971 239.575,493.971 "/>
<path clip-path="url(#clip950)" d="M115.411 1316.03 L123.05 1316.03 L123.05 1289.66 L114.74 1291.33 L114.74 1287.07 L123.004 1285.4 L127.68 1285.4 L127.68 1316.03 L135.319 1316.03 L135.319 1319.96 L115.411 1319.96 L115.411 1316.03 Z" fill="#000000" fill-rule="nonzero" fill-opacity="1" /><path clip-path="url(#clip950)" d="M154.763 1288.48 Q151.152 1288.48 149.323 1292.05 Q147.518 1295.59 147.518 1302.72 Q147.518 1309.82 149.323 1313.39 Q151.152 1316.93 154.763 1316.93 Q158.397 1316.93 160.203 1313.39 Q162.032 1309.82 162.032 1302.72 Q162.032 1295.59 160.203 1292.05 Q158.397 1288.48 154.763 1288.48 M154.763 1284.78 Q160.573 1284.78 163.629 1289.38 Q166.707 1293.97 166.707 1302.72 Q166.707 1311.44 163.629 1316.05 Q160.573 1320.63 154.763 1320.63 Q148.953 1320.63 145.874 1316.05 Q142.819 1311.44 142.819 1302.72 Q142.819 1293.97 145.874 1289.38 Q148.953 1284.78 154.763 1284.78 Z" fill="#000000" fill-rule="nonzero" fill-opacity="1" /><path clip-path="url(#clip950)" d="M176.412 1266.97 Q173.478 1266.97 171.992 1269.87 Q170.525 1272.75 170.525 1278.54 Q170.525 1284.31 171.992 1287.21 Q173.478 1290.09 176.412 1290.09 Q179.365 1290.09 180.832 1287.21 Q182.318 1284.31 182.318 1278.54 Q182.318 1272.75 180.832 1269.87 Q179.365 1266.97 176.412 1266.97 M176.412 1263.96 Q181.133 1263.96 183.616 1267.71 Q186.117 1271.43 186.117 1278.54 Q186.117 1285.63 183.616 1289.37 Q181.133 1293.1 176.412 1293.1 Q171.692 1293.1 169.19 1289.37 Q166.707 1285.63 166.707 1278.54 Q166.707 1271.43 169.19 1267.71 Q171.692 1263.96 176.412 1263.96 Z" fill="#000000" fill-rule="nonzero" fill-opacity="1" /><path clip-path="url(#clip950)" d="M116.991 513.764 L124.63 513.764 L124.63 487.398 L116.32 489.065 L116.32 484.806 L124.584 483.139 L129.26 483.139 L129.26 513.764 L136.899 513.764 L136.899 517.699 L116.991 517.699 L116.991 513.764 Z" fill="#000000" fill-rule="nonzero" fill-opacity="1" /><path clip-path="url(#clip950)" d="M156.343 486.218 Q152.732 486.218 150.903 489.782 Q149.098 493.324 149.098 500.454 Q149.098 507.56 150.903 511.125 Q152.732 514.666 156.343 514.666 Q159.977 514.666 161.783 511.125 Q163.611 507.56 163.611 500.454 Q163.611 493.324 161.783 489.782 Q159.977 486.218 156.343 486.218 M156.343 482.514 Q162.153 482.514 165.209 487.12 Q168.287 491.704 168.287 500.454 Q168.287 509.18 165.209 513.787 Q162.153 518.37 156.343 518.37 Q150.533 518.37 147.454 513.787 Q144.399 509.18 144.399 500.454 Q144.399 491.704 147.454 487.12 Q150.533 482.514 156.343 482.514 Z" fill="#000000" fill-rule="nonzero" fill-opacity="1" /><path clip-path="url(#clip950)" d="M172.858 487.091 L186.117 487.091 L186.117 490.288 L168.287 490.288 L168.287 487.091 Q170.45 484.853 174.174 481.091 Q177.917 477.311 178.876 476.22 Q180.7 474.17 181.415 472.76 Q182.149 471.33 182.149 469.957 Q182.149 467.719 180.569 466.309 Q179.008 464.898 176.488 464.898 Q174.701 464.898 172.707 465.519 Q170.732 466.139 168.475 467.399 L168.475 463.563 Q170.77 462.641 172.764 462.171 Q174.757 461.701 176.412 461.701 Q180.776 461.701 183.371 463.882 Q185.967 466.064 185.967 469.713 Q185.967 471.443 185.308 473.004 Q184.669 474.546 182.957 476.653 Q182.487 477.198 179.967 479.813 Q177.447 482.408 172.858 487.091 Z" fill="#000000" fill-rule="nonzero" fill-opacity="1" /><path clip-path="url(#clip950)" d="M18.4042 928.052 L18.4042 898.006 L23.815 898.006 L23.815 921.622 L37.8832 921.622 L37.8832 898.992 L43.2941 898.992 L43.2941 921.622 L60.5133 921.622 L60.5133 897.433 L65.9242 897.433 L65.9242 928.052 L18.4042 928.052 Z" fill="#000000" fill-rule="nonzero" fill-opacity="1" /><path clip-path="url(#clip950)" d="M19.9638 858.379 L26.234 858.379 Q24.4834 862.039 23.624 865.286 Q22.7647 868.532 22.7647 871.556 Q22.7647 876.808 24.8017 879.672 Q26.8387 882.505 30.5945 882.505 Q33.7455 882.505 35.3688 880.627 Q36.9602 878.718 37.9469 873.434 L38.7426 869.551 Q40.1112 862.358 43.5805 858.952 Q47.018 855.515 52.8108 855.515 Q59.7176 855.515 63.2824 860.161 Q66.8472 864.777 66.8472 873.72 Q66.8472 877.094 66.0833 880.914 Q65.3194 884.701 63.8235 888.775 L57.2031 888.775 Q59.3993 884.86 60.5133 881.105 Q61.6273 877.349 61.6273 873.72 Q61.6273 868.214 59.463 865.222 Q57.2986 862.23 53.2882 862.23 Q49.7871 862.23 47.8137 864.395 Q45.8404 866.527 44.8537 871.429 L44.0898 875.344 Q42.6575 882.537 39.602 885.752 Q36.5464 888.966 31.1037 888.966 Q24.8017 888.966 21.1732 884.542 Q17.5448 880.086 17.5448 872.288 Q17.5448 868.946 18.1495 865.477 Q18.7543 862.008 19.9638 858.379 Z" fill="#000000" fill-rule="nonzero" fill-opacity="1" /><path clip-path="url(#clip950)" d="M19.9638 817.002 L26.234 817.002 Q24.4834 820.662 23.624 823.909 Q22.7647 827.155 22.7647 830.179 Q22.7647 835.431 24.8017 838.295 Q26.8387 841.128 30.5945 841.128 Q33.7455 841.128 35.3688 839.25 Q36.9602 837.34 37.9469 832.057 L38.7426 828.174 Q40.1112 820.981 43.5805 817.575 Q47.018 814.137 52.8108 814.137 Q59.7176 814.137 63.2824 818.784 Q66.8472 823.4 66.8472 832.343 Q66.8472 835.717 66.0833 839.537 Q65.3194 843.324 63.8235 847.398 L57.2031 847.398 Q59.3993 843.483 60.5133 839.728 Q61.6273 835.972 61.6273 832.343 Q61.6273 826.837 59.463 823.845 Q57.2986 820.853 53.2882 820.853 Q49.7871 820.853 47.8137 823.018 Q45.8404 825.15 44.8537 830.052 L44.0898 833.967 Q42.6575 841.16 39.602 844.375 Q36.5464 847.589 31.1037 847.589 Q24.8017 847.589 21.1732 843.165 Q17.5448 838.709 17.5448 830.911 Q17.5448 827.569 18.1495 824.1 Q18.7543 820.63 19.9638 817.002 Z" fill="#000000" fill-rule="nonzero" fill-opacity="1" /><path clip-path="url(#clip950)" d="M60.577 777.98 L79.4831 777.98 L79.4831 783.868 L30.2762 783.868 L30.2762 777.98 L35.6871 777.98 Q32.5042 776.134 30.9764 773.333 Q29.4168 770.501 29.4168 766.586 Q29.4168 760.093 34.5731 756.05 Q39.7293 751.976 48.132 751.976 Q56.5347 751.976 61.691 756.05 Q66.8472 760.093 66.8472 766.586 Q66.8472 770.501 65.3194 773.333 Q63.7598 776.134 60.577 777.98 M48.132 758.056 Q41.6708 758.056 38.0105 760.729 Q34.3184 763.371 34.3184 768.018 Q34.3184 772.665 38.0105 775.338 Q41.6708 777.98 48.132 777.98 Q54.5932 777.98 58.2853 775.338 Q61.9456 772.665 61.9456 768.018 Q61.9456 763.371 58.2853 760.729 Q54.5932 758.056 48.132 758.056 Z" fill="#000000" fill-rule="nonzero" fill-opacity="1" /><path clip-path="url(#clip950)" d="M46.6361 711.777 L49.5006 711.777 L49.5006 738.704 Q55.5481 738.322 58.7309 735.075 Q61.8819 731.797 61.8819 725.972 Q61.8819 722.599 61.0544 719.448 Q60.2269 716.265 58.5718 713.145 L64.1099 713.145 Q65.4467 716.297 66.147 719.607 Q66.8472 722.917 66.8472 726.323 Q66.8472 734.853 61.8819 739.85 Q56.9167 744.815 48.4503 744.815 Q39.6974 744.815 34.5731 740.104 Q29.4168 735.362 29.4168 727.341 Q29.4168 720.148 34.0638 715.978 Q38.6789 711.777 46.6361 711.777 M44.9173 717.633 Q40.1112 717.697 37.2466 720.339 Q34.3821 722.949 34.3821 727.277 Q34.3821 732.179 37.1512 735.139 Q39.9202 738.067 44.9492 738.513 L44.9173 717.633 Z" fill="#000000" fill-rule="nonzero" fill-opacity="1" /><path clip-path="url(#clip950)" d="M35.7507 681.508 Q35.1778 682.495 34.9232 683.672 Q34.6367 684.818 34.6367 686.219 Q34.6367 691.184 37.8832 693.857 Q41.0979 696.499 47.1453 696.499 L65.9242 696.499 L65.9242 702.387 L30.2762 702.387 L30.2762 696.499 L35.8144 696.499 Q32.5679 694.653 31.0083 691.693 Q29.4168 688.733 29.4168 684.5 Q29.4168 683.895 29.5123 683.163 Q29.576 682.431 29.7351 681.54 L35.7507 681.508 Z" fill="#000000" fill-rule="nonzero" fill-opacity="1" /><path clip-path="url(#clip950)" d="M18.4042 654.39 L18.4042 624.344 L23.815 624.344 L23.815 647.961 L37.8832 647.961 L37.8832 625.331 L43.2941 625.331 L43.2941 647.961 L60.5133 647.961 L60.5133 623.771 L65.9242 623.771 L65.9242 654.39 L18.4042 654.39 Z" fill="#000000" fill-rule="nonzero" fill-opacity="1" /><path clip-path="url(#clip950)" d="M60.577 607.793 L79.4831 607.793 L79.4831 613.681 L30.2762 613.681 L30.2762 607.793 L35.6871 607.793 Q32.5042 605.947 30.9764 603.146 Q29.4168 600.313 29.4168 596.398 Q29.4168 589.905 34.5731 585.863 Q39.7293 581.789 48.132 581.789 Q56.5347 581.789 61.691 585.863 Q66.8472 589.905 66.8472 596.398 Q66.8472 600.313 65.3194 603.146 Q63.7598 605.947 60.577 607.793 M48.132 587.868 Q41.6708 587.868 38.0105 590.542 Q34.3184 593.184 34.3184 597.831 Q34.3184 602.478 38.0105 605.151 Q41.6708 607.793 48.132 607.793 Q54.5932 607.793 58.2853 605.151 Q61.9456 602.478 61.9456 597.831 Q61.9456 593.184 58.2853 590.542 Q54.5932 587.868 48.132 587.868 Z" fill="#000000" fill-rule="nonzero" fill-opacity="1" /><path clip-path="url(#clip950)" d="M34.3821 558.268 Q34.3821 562.978 38.0742 565.716 Q41.7345 568.453 48.132 568.453 Q54.5295 568.453 58.2217 565.748 Q61.8819 563.01 61.8819 558.268 Q61.8819 553.589 58.1898 550.852 Q54.4977 548.115 48.132 548.115 Q41.7981 548.115 38.106 550.852 Q34.3821 553.589 34.3821 558.268 M29.4168 558.268 Q29.4168 550.629 34.3821 546.268 Q39.3473 541.908 48.132 541.908 Q56.8849 541.908 61.8819 546.268 Q66.8472 550.629 66.8472 558.268 Q66.8472 565.939 61.8819 570.299 Q56.8849 574.628 48.132 574.628 Q39.3473 574.628 34.3821 570.299 Q29.4168 565.939 29.4168 558.268 Z" fill="#000000" fill-rule="nonzero" fill-opacity="1" /><path clip-path="url(#clip950)" d="M31.6448 506.546 L37.1193 506.546 Q35.7507 509.029 35.0823 511.544 Q34.3821 514.026 34.3821 516.572 Q34.3821 522.27 38.0105 525.421 Q41.6072 528.572 48.132 528.572 Q54.6569 528.572 58.2853 525.421 Q61.8819 522.27 61.8819 516.572 Q61.8819 514.026 61.2135 511.544 Q60.5133 509.029 59.1447 506.546 L64.5555 506.546 Q65.7014 508.997 66.2743 511.639 Q66.8472 514.249 66.8472 517.209 Q66.8472 525.262 61.7864 530.004 Q56.7257 534.747 48.132 534.747 Q39.411 534.747 34.4139 529.972 Q29.4168 525.166 29.4168 516.827 Q29.4168 514.122 29.9897 511.544 Q30.5308 508.965 31.6448 506.546 Z" fill="#000000" fill-rule="nonzero" fill-opacity="1" /><path clip-path="url(#clip950)" d="M44.4081 466.729 L65.9242 466.729 L65.9242 472.585 L44.599 472.585 Q39.5383 472.585 37.0238 474.559 Q34.5094 476.532 34.5094 480.479 Q34.5094 485.221 37.5331 487.959 Q40.5568 490.696 45.7767 490.696 L65.9242 490.696 L65.9242 496.584 L16.399 496.584 L16.399 490.696 L35.8144 490.696 Q32.5997 488.595 31.0083 485.762 Q29.4168 482.898 29.4168 479.174 Q29.4168 473.031 33.2363 469.88 Q37.0238 466.729 44.4081 466.729 Z" fill="#000000" fill-rule="nonzero" fill-opacity="1" /><polyline clip-path="url(#clip952)" style="stroke:#0000ff; stroke-linecap:round; stroke-linejoin:round; stroke-width:4; stroke-opacity:1; fill:none" points="2199.13,1310.74 2199.13,1190.63 "/>
<polyline clip-path="url(#clip952)" style="stroke:#0000ff; stroke-linecap:round; stroke-linejoin:round; stroke-width:4; stroke-opacity:1; fill:none" points="1238.72,1281.32 1238.72,1161.21 "/>
<polyline clip-path="url(#clip952)" style="stroke:#0000ff; stroke-linecap:round; stroke-linejoin:round; stroke-width:4; stroke-opacity:1; fill:none" points="278.302,1123.47 278.302,1003.34 "/>
<line clip-path="url(#clip952)" x1="2219.13" y1="1310.74" x2="2179.13" y2="1310.74" style="stroke:#0000ff; stroke-width:4; stroke-opacity:0.6"/>
<line clip-path="url(#clip952)" x1="2219.13" y1="1190.63" x2="2179.13" y2="1190.63" style="stroke:#0000ff; stroke-width:4; stroke-opacity:0.6"/>
<line clip-path="url(#clip952)" x1="1258.72" y1="1281.32" x2="1218.72" y2="1281.32" style="stroke:#0000ff; stroke-width:4; stroke-opacity:0.6"/>
<line clip-path="url(#clip952)" x1="1258.72" y1="1161.21" x2="1218.72" y2="1161.21" style="stroke:#0000ff; stroke-width:4; stroke-opacity:0.6"/>
<line clip-path="url(#clip952)" x1="298.302" y1="1123.47" x2="258.302" y2="1123.47" style="stroke:#0000ff; stroke-width:4; stroke-opacity:0.6"/>
<line clip-path="url(#clip952)" x1="298.302" y1="1003.34" x2="258.302" y2="1003.34" style="stroke:#0000ff; stroke-width:4; stroke-opacity:0.6"/>
<circle clip-path="url(#clip952)" cx="2199.13" cy="1240.53" r="18" fill="#0000ff" fill-rule="evenodd" fill-opacity="0.6" stroke="none"/>
<circle clip-path="url(#clip952)" cx="1238.72" cy="1211.11" r="18" fill="#0000ff" fill-rule="evenodd" fill-opacity="0.6" stroke="none"/>
<circle clip-path="url(#clip952)" cx="278.302" cy="1053.25" r="18" fill="#0000ff" fill-rule="evenodd" fill-opacity="0.6" stroke="none"/>
<polyline clip-path="url(#clip952)" style="stroke:#0000ff; stroke-linecap:round; stroke-linejoin:round; stroke-width:8; stroke-opacity:1; fill:none" points="278.302,1074.65 297.704,1076.55 317.107,1078.44 336.509,1080.33 355.911,1082.22 375.314,1084.11 394.716,1086 414.118,1087.9 433.52,1089.79 452.923,1091.68 472.325,1093.57 491.727,1095.46 511.13,1097.36 530.532,1099.25 549.934,1101.14 569.337,1103.03 588.739,1104.92 608.141,1106.81 627.544,1108.71 646.946,1110.6 666.348,1112.49 685.751,1114.38 705.153,1116.27 724.555,1118.17 743.957,1120.06 763.36,1121.95 782.762,1123.84 802.164,1125.73 821.567,1127.62 840.969,1129.52 860.371,1131.41 879.774,1133.3 899.176,1135.19 918.578,1137.08 937.981,1138.97 957.383,1140.87 976.785,1142.76 996.188,1144.65 1015.59,1146.54 1034.99,1148.43 1054.39,1150.33 1073.8,1152.22 1093.2,1154.11 1112.6,1156 1132,1157.89 1151.41,1159.78 1170.81,1161.68 1190.21,1163.57 1209.61,1165.46 1229.02,1167.35 1248.42,1169.24 1267.82,1171.14 1287.22,1173.03 1306.62,1174.92 1326.03,1176.81 1345.43,1178.7 1364.83,1180.59 1384.23,1182.49 1403.64,1184.38 1423.04,1186.27 1442.44,1188.16 1461.84,1190.05 1481.25,1191.94 1500.65,1193.84 1520.05,1195.73 1539.45,1197.62 1558.85,1199.51 1578.26,1201.4 1597.66,1203.3 1617.06,1205.19 1636.46,1207.08 1655.87,1208.97 1675.27,1210.86 1694.67,1212.75 1714.07,1214.65 1733.48,1216.54 1752.88,1218.43 1772.28,1220.32 1791.68,1222.21 1811.08,1224.1 1830.49,1226 1849.89,1227.89 1869.29,1229.78 1888.69,1231.67 1908.1,1233.56 1927.5,1235.46 1946.9,1237.35 1966.3,1239.24 1985.71,1241.13 2005.11,1243.02 2024.51,1244.91 2043.91,1246.81 2063.31,1248.7 2082.72,1250.59 2102.12,1252.48 2121.52,1254.37 2140.92,1256.27 2160.33,1258.16 2179.73,1260.05 2199.13,1261.94 "/>
<polyline clip-path="url(#clip952)" style="stroke:#008000; stroke-linecap:round; stroke-linejoin:round; stroke-width:4; stroke-opacity:1; fill:none" points="2199.13,1085.33 2199.13,965.226 "/>
<polyline clip-path="url(#clip952)" style="stroke:#008000; stroke-linecap:round; stroke-linejoin:round; stroke-width:4; stroke-opacity:1; fill:none" points="1238.72,660.053 1238.72,539.945 "/>
<polyline clip-path="url(#clip952)" style="stroke:#008000; stroke-linecap:round; stroke-linejoin:round; stroke-width:4; stroke-opacity:1; fill:none" points="278.302,204.368 278.302,84.0448 "/>
<line clip-path="url(#clip952)" x1="2219.13" y1="1085.33" x2="2179.13" y2="1085.33" style="stroke:#008000; stroke-width:4; stroke-opacity:0.6"/>
<line clip-path="url(#clip952)" x1="2219.13" y1="965.226" x2="2179.13" y2="965.226" style="stroke:#008000; stroke-width:4; stroke-opacity:0.6"/>
<line clip-path="url(#clip952)" x1="1258.72" y1="660.053" x2="1218.72" y2="660.053" style="stroke:#008000; stroke-width:4; stroke-opacity:0.6"/>
<line clip-path="url(#clip952)" x1="1258.72" y1="539.945" x2="1218.72" y2="539.945" style="stroke:#008000; stroke-width:4; stroke-opacity:0.6"/>
<line clip-path="url(#clip952)" x1="298.302" y1="204.368" x2="258.302" y2="204.368" style="stroke:#008000; stroke-width:4; stroke-opacity:0.6"/>
<line clip-path="url(#clip952)" x1="298.302" y1="84.0448" x2="258.302" y2="84.0448" style="stroke:#008000; stroke-width:4; stroke-opacity:0.6"/>
<circle clip-path="url(#clip952)" cx="2199.13" cy="1015.13" r="18" fill="#008000" fill-rule="evenodd" fill-opacity="0.6" stroke="none"/>
<circle clip-path="url(#clip952)" cx="1238.72" cy="589.847" r="18" fill="#008000" fill-rule="evenodd" fill-opacity="0.6" stroke="none"/>
<circle clip-path="url(#clip952)" cx="278.302" cy="134.019" r="18" fill="#008000" fill-rule="evenodd" fill-opacity="0.6" stroke="none"/>
<polyline clip-path="url(#clip952)" style="stroke:#008000; stroke-linecap:round; stroke-linejoin:round; stroke-width:8; stroke-opacity:1; fill:none" points="278.302,139.11 297.704,148.01 317.107,156.91 336.509,165.81 355.911,174.71 375.314,183.611 394.716,192.511 414.118,201.411 433.52,210.311 452.923,219.211 472.325,228.111 491.727,237.011 511.13,245.911 530.532,254.811 549.934,263.711 569.337,272.611 588.739,281.511 608.141,290.411 627.544,299.311 646.946,308.211 666.348,317.111 685.751,326.012 705.153,334.912 724.555,343.812 743.957,352.712 763.36,361.612 782.762,370.512 802.164,379.412 821.567,388.312 840.969,397.212 860.371,406.112 879.774,415.012 899.176,423.912 918.578,432.812 937.981,441.712 957.383,450.612 976.785,459.513 996.188,468.413 1015.59,477.313 1034.99,486.213 1054.39,495.113 1073.8,504.013 1093.2,512.913 1112.6,521.813 1132,530.713 1151.41,539.613 1170.81,548.513 1190.21,557.413 1209.61,566.313 1229.02,575.213 1248.42,584.113 1267.82,593.014 1287.22,601.914 1306.62,610.814 1326.03,619.714 1345.43,628.614 1364.83,637.514 1384.23,646.414 1403.64,655.314 1423.04,664.214 1442.44,673.114 1461.84,682.014 1481.25,690.914 1500.65,699.814 1520.05,708.714 1539.45,717.614 1558.85,726.515 1578.26,735.415 1597.66,744.315 1617.06,753.215 1636.46,762.115 1655.87,771.015 1675.27,779.915 1694.67,788.815 1714.07,797.715 1733.48,806.615 1752.88,815.515 1772.28,824.415 1791.68,833.315 1811.08,842.215 1830.49,851.115 1849.89,860.016 1869.29,868.916 1888.69,877.816 1908.1,886.716 1927.5,895.616 1946.9,904.516 1966.3,913.416 1985.71,922.316 2005.11,931.216 2024.51,940.116 2043.91,949.016 2063.31,957.916 2082.72,966.816 2102.12,975.716 2121.52,984.616 2140.92,993.517 2160.33,1002.42 2179.73,1011.32 2199.13,1020.22 "/>
<polyline clip-path="url(#clip952)" style="stroke:#ff8c00; stroke-linecap:round; stroke-linejoin:round; stroke-width:4; stroke-opacity:1; fill:none" points="2199.13,869.486 2199.13,748.232 "/>
<polyline clip-path="url(#clip952)" style="stroke:#ff8c00; stroke-linecap:round; stroke-linejoin:round; stroke-width:4; stroke-opacity:1; fill:none" points="1238.72,1007.07 1238.72,886.697 "/>
<polyline clip-path="url(#clip952)" style="stroke:#ff8c00; stroke-linecap:round; stroke-linejoin:round; stroke-width:4; stroke-opacity:1; fill:none" points="278.302,967.572 278.302,846.212 "/>
<line clip-path="url(#clip952)" x1="2219.13" y1="869.486" x2="2179.13" y2="869.486" style="stroke:#ff8c00; stroke-width:4; stroke-opacity:0.6"/>
<line clip-path="url(#clip952)" x1="2219.13" y1="748.232" x2="2179.13" y2="748.232" style="stroke:#ff8c00; stroke-width:4; stroke-opacity:0.6"/>
<line clip-path="url(#clip952)" x1="1258.72" y1="1007.07" x2="1218.72" y2="1007.07" style="stroke:#ff8c00; stroke-width:4; stroke-opacity:0.6"/>
<line clip-path="url(#clip952)" x1="1258.72" y1="886.697" x2="1218.72" y2="886.697" style="stroke:#ff8c00; stroke-width:4; stroke-opacity:0.6"/>
<line clip-path="url(#clip952)" x1="298.302" y1="967.572" x2="258.302" y2="967.572" style="stroke:#ff8c00; stroke-width:4; stroke-opacity:0.6"/>
<line clip-path="url(#clip952)" x1="298.302" y1="846.212" x2="258.302" y2="846.212" style="stroke:#ff8c00; stroke-width:4; stroke-opacity:0.6"/>
<circle clip-path="url(#clip952)" cx="2199.13" cy="798.516" r="18" fill="#ff8c00" fill-rule="evenodd" fill-opacity="0.6" stroke="none"/>
<circle clip-path="url(#clip952)" cx="1238.72" cy="936.686" r="18" fill="#ff8c00" fill-rule="evenodd" fill-opacity="0.6" stroke="none"/>
<circle clip-path="url(#clip952)" cx="278.302" cy="896.531" r="18" fill="#ff8c00" fill-rule="evenodd" fill-opacity="0.6" stroke="none"/>
<polyline clip-path="url(#clip952)" style="stroke:#ff8c00; stroke-linecap:round; stroke-linejoin:round; stroke-width:8; stroke-opacity:1; fill:none" points="278.302,926.252 297.704,925.262 317.107,924.272 336.509,923.282 355.911,922.292 375.314,921.301 394.716,920.311 414.118,919.321 433.52,918.331 452.923,917.341 472.325,916.351 491.727,915.361 511.13,914.371 530.532,913.381 549.934,912.391 569.337,911.401 588.739,910.411 608.141,909.421 627.544,908.431 646.946,907.441 666.348,906.451 685.751,905.461 705.153,904.471 724.555,903.481 743.957,902.491 763.36,901.5 782.762,900.51 802.164,899.52 821.567,898.53 840.969,897.54 860.371,896.55 879.774,895.56 899.176,894.57 918.578,893.58 937.981,892.59 957.383,891.6 976.785,890.61 996.188,889.62 1015.59,888.63 1034.99,887.64 1054.39,886.65 1073.8,885.66 1093.2,884.67 1112.6,883.68 1132,882.69 1151.41,881.699 1170.81,880.709 1190.21,879.719 1209.61,878.729 1229.02,877.739 1248.42,876.749 1267.82,875.759 1287.22,874.769 1306.62,873.779 1326.03,872.789 1345.43,871.799 1364.83,870.809 1384.23,869.819 1403.64,868.829 1423.04,867.839 1442.44,866.849 1461.84,865.859 1481.25,864.869 1500.65,863.879 1520.05,862.889 1539.45,861.898 1558.85,860.908 1578.26,859.918 1597.66,858.928 1617.06,857.938 1636.46,856.948 1655.87,855.958 1675.27,854.968 1694.67,853.978 1714.07,852.988 1733.48,851.998 1752.88,851.008 1772.28,850.018 1791.68,849.028 1811.08,848.038 1830.49,847.048 1849.89,846.058 1869.29,845.068 1888.69,844.078 1908.1,843.088 1927.5,842.097 1946.9,841.107 1966.3,840.117 1985.71,839.127 2005.11,838.137 2024.51,837.147 2043.91,836.157 2063.31,835.167 2082.72,834.177 2102.12,833.187 2121.52,832.197 2140.92,831.207 2160.33,830.217 2179.73,829.227 2199.13,828.237 "/>
<path clip-path="url(#clip950)" d="M1841.04 297.947 L2188.89 297.947 L2188.89 90.5872 L1841.04 90.5872  Z" fill="#f0f1eb" fill-rule="evenodd" fill-opacity="1"/>
<polyline clip-path="url(#clip950)" style="stroke:#000000; stroke-linecap:round; stroke-linejoin:round; stroke-width:4; stroke-opacity:1; fill:none" points="1841.04,297.947 2188.89,297.947 2188.89,90.5872 1841.04,90.5872 1841.04,297.947 "/>
<polyline clip-path="url(#clip950)" style="stroke:#0000ff; stroke-linecap:round; stroke-linejoin:round; stroke-width:8; stroke-opacity:1; fill:none" points="1863.67,142.427 1999.41,142.427 "/>
<path clip-path="url(#clip950)" d="M2022.56 125.147 L2049.71 125.147 L2049.71 128.712 L2027.86 155.772 L2050.25 155.772 L2050.25 159.707 L2022.03 159.707 L2022.03 156.142 L2043.88 129.082 L2022.56 129.082 L2022.56 125.147 Z" fill="#000000" fill-rule="nonzero" fill-opacity="1" /><path clip-path="url(#clip950)" d="M2055.04 125.147 L2082.19 125.147 L2082.19 128.712 L2060.34 155.772 L2082.72 155.772 L2082.72 159.707 L2054.5 159.707 L2054.5 156.142 L2076.36 129.082 L2055.04 129.082 L2055.04 125.147 Z" fill="#000000" fill-rule="nonzero" fill-opacity="1" /><path clip-path="url(#clip950)" d="M2086.33 144.823 L2098.81 144.823 L2098.81 148.619 L2086.33 148.619 L2086.33 144.823 Z" fill="#000000" fill-rule="nonzero" fill-opacity="1" /><path clip-path="url(#clip950)" d="M2126.5 126.281 L2126.5 130.842 Q2123.83 129.568 2121.47 128.943 Q2119.11 128.318 2116.91 128.318 Q2113.09 128.318 2111.01 129.8 Q2108.95 131.281 2108.95 134.013 Q2108.95 136.305 2110.31 137.485 Q2111.7 138.642 2115.55 139.36 L2118.37 139.939 Q2123.6 140.934 2126.08 143.457 Q2128.58 145.957 2128.58 150.17 Q2128.58 155.193 2125.2 157.786 Q2121.84 160.378 2115.34 160.378 Q2112.88 160.378 2110.11 159.823 Q2107.35 159.267 2104.39 158.179 L2104.39 153.365 Q2107.24 154.962 2109.97 155.772 Q2112.7 156.582 2115.34 156.582 Q2119.34 156.582 2121.52 155.008 Q2123.69 153.434 2123.69 150.517 Q2123.69 147.971 2122.12 146.536 Q2120.57 145.101 2117 144.383 L2114.16 143.828 Q2108.93 142.786 2106.59 140.564 Q2104.25 138.342 2104.25 134.383 Q2104.25 129.8 2107.47 127.161 Q2110.71 124.522 2116.38 124.522 Q2118.81 124.522 2121.33 124.962 Q2123.86 125.402 2126.5 126.281 Z" fill="#000000" fill-rule="nonzero" fill-opacity="1" /><path clip-path="url(#clip950)" d="M2156.59 126.281 L2156.59 130.842 Q2153.93 129.568 2151.56 128.943 Q2149.2 128.318 2147 128.318 Q2143.18 128.318 2141.1 129.8 Q2139.04 131.281 2139.04 134.013 Q2139.04 136.305 2140.41 137.485 Q2141.8 138.642 2145.64 139.36 L2148.46 139.939 Q2153.69 140.934 2156.17 143.457 Q2158.67 145.957 2158.67 150.17 Q2158.67 155.193 2155.29 157.786 Q2151.93 160.378 2145.43 160.378 Q2142.98 160.378 2140.2 159.823 Q2137.44 159.267 2134.48 158.179 L2134.48 153.365 Q2137.33 154.962 2140.06 155.772 Q2142.79 156.582 2145.43 156.582 Q2149.43 156.582 2151.61 155.008 Q2153.79 153.434 2153.79 150.517 Q2153.79 147.971 2152.21 146.536 Q2150.66 145.101 2147.1 144.383 L2144.25 143.828 Q2139.02 142.786 2136.68 140.564 Q2134.34 138.342 2134.34 134.383 Q2134.34 129.8 2137.56 127.161 Q2140.8 124.522 2146.47 124.522 Q2148.9 124.522 2151.43 124.962 Q2153.95 125.402 2156.59 126.281 Z" fill="#000000" fill-rule="nonzero" fill-opacity="1" /><polyline clip-path="url(#clip950)" style="stroke:#008000; stroke-linecap:round; stroke-linejoin:round; stroke-width:8; stroke-opacity:1; fill:none" points="1863.67,194.267 1999.41,194.267 "/>
<path clip-path="url(#clip950)" d="M2022.56 176.987 L2049.71 176.987 L2049.71 180.552 L2027.86 207.612 L2050.25 207.612 L2050.25 211.547 L2022.03 211.547 L2022.03 207.982 L2043.88 180.922 L2022.56 180.922 L2022.56 176.987 Z" fill="#000000" fill-rule="nonzero" fill-opacity="1" /><path clip-path="url(#clip950)" d="M2055.04 176.987 L2082.19 176.987 L2082.19 180.552 L2060.34 207.612 L2082.72 207.612 L2082.72 211.547 L2054.5 211.547 L2054.5 207.982 L2076.36 180.922 L2055.04 180.922 L2055.04 176.987 Z" fill="#000000" fill-rule="nonzero" fill-opacity="1" /><path clip-path="url(#clip950)" d="M2086.33 196.663 L2098.81 196.663 L2098.81 200.459 L2086.33 200.459 L2086.33 196.663 Z" fill="#000000" fill-rule="nonzero" fill-opacity="1" /><path clip-path="url(#clip950)" d="M2105.78 176.987 L2110.45 176.987 L2110.45 211.547 L2105.78 211.547 L2105.78 176.987 Z" fill="#000000" fill-rule="nonzero" fill-opacity="1" /><path clip-path="url(#clip950)" d="M2140.48 178.121 L2140.48 182.682 Q2137.81 181.408 2135.45 180.783 Q2133.09 180.158 2130.89 180.158 Q2127.07 180.158 2124.99 181.64 Q2122.93 183.121 2122.93 185.853 Q2122.93 188.145 2124.3 189.325 Q2125.69 190.482 2129.53 191.2 L2132.35 191.779 Q2137.58 192.774 2140.06 195.297 Q2142.56 197.797 2142.56 202.01 Q2142.56 207.033 2139.18 209.626 Q2135.82 212.218 2129.32 212.218 Q2126.87 212.218 2124.09 211.663 Q2121.33 211.107 2118.37 210.019 L2118.37 205.205 Q2121.22 206.802 2123.95 207.612 Q2126.68 208.422 2129.32 208.422 Q2133.32 208.422 2135.5 206.848 Q2137.68 205.274 2137.68 202.357 Q2137.68 199.811 2136.1 198.376 Q2134.55 196.941 2130.99 196.223 L2128.14 195.668 Q2122.91 194.626 2120.57 192.404 Q2118.23 190.182 2118.23 186.223 Q2118.23 181.64 2121.45 179.001 Q2124.69 176.362 2130.36 176.362 Q2132.79 176.362 2135.31 176.802 Q2137.84 177.242 2140.48 178.121 Z" fill="#000000" fill-rule="nonzero" fill-opacity="1" /><polyline clip-path="url(#clip950)" style="stroke:#ff8c00; stroke-linecap:round; stroke-linejoin:round; stroke-width:8; stroke-opacity:1; fill:none" points="1863.67,246.107 1999.41,246.107 "/>
<path clip-path="url(#clip950)" d="M2022.56 228.827 L2049.71 228.827 L2049.71 232.392 L2027.86 259.452 L2050.25 259.452 L2050.25 263.387 L2022.03 263.387 L2022.03 259.822 L2043.88 232.762 L2022.56 232.762 L2022.56 228.827 Z" fill="#000000" fill-rule="nonzero" fill-opacity="1" /><path clip-path="url(#clip950)" d="M2055.04 228.827 L2082.19 228.827 L2082.19 232.392 L2060.34 259.452 L2082.72 259.452 L2082.72 263.387 L2054.5 263.387 L2054.5 259.822 L2076.36 232.762 L2055.04 232.762 L2055.04 228.827 Z" fill="#000000" fill-rule="nonzero" fill-opacity="1" /><path clip-path="url(#clip950)" d="M2086.33 248.503 L2098.81 248.503 L2098.81 252.299 L2086.33 252.299 L2086.33 248.503 Z" fill="#000000" fill-rule="nonzero" fill-opacity="1" /><path clip-path="url(#clip950)" d="M2131.66 231.489 L2131.66 236.42 Q2129.3 234.221 2126.61 233.133 Q2123.95 232.045 2120.94 232.045 Q2115.01 232.045 2111.87 235.679 Q2108.72 239.29 2108.72 246.142 Q2108.72 252.971 2111.87 256.605 Q2115.01 260.216 2120.94 260.216 Q2123.95 260.216 2126.61 259.128 Q2129.3 258.04 2131.66 255.841 L2131.66 260.725 Q2129.2 262.392 2126.45 263.225 Q2123.72 264.058 2120.66 264.058 Q2112.81 264.058 2108.3 259.267 Q2103.79 254.452 2103.79 246.142 Q2103.79 237.809 2108.3 233.017 Q2112.81 228.202 2120.66 228.202 Q2123.76 228.202 2126.5 229.036 Q2129.25 229.846 2131.66 231.489 Z" fill="#000000" fill-rule="nonzero" fill-opacity="1" /><path clip-path="url(#clip950)" d="M2147.79 263.387 L2134.6 228.827 L2139.48 228.827 L2150.43 257.924 L2161.4 228.827 L2166.26 228.827 L2153.09 263.387 L2147.79 263.387 Z" fill="#000000" fill-rule="nonzero" fill-opacity="1" /></svg>
