<?xml version="1.0" encoding="utf-8"?>
<svg xmlns="http://www.w3.org/2000/svg" xmlns:xlink="http://www.w3.org/1999/xlink" width="576" height="384" viewBox="0 0 2304 1536">
<defs>
  <clipPath id="clip000">
    <rect x="0" y="0" width="2304" height="1536"/>
  </clipPath>
</defs>
<path clip-path="url(#clip000)" d="M0 1536 L2304 1536 L2304 8.52651e-14 L0 8.52651e-14  Z" fill="#f0f1eb" fill-rule="evenodd" fill-opacity="1"/>
<defs>
  <clipPath id="clip001">
    <rect x="460" y="0" width="1614" height="1536"/>
  </clipPath>
</defs>
<path clip-path="url(#clip000)" d="M220.677 1347.54 L2256.76 1347.54 L2256.76 47.2441 L220.677 47.2441  Z" fill="#f0f1eb" fill-rule="evenodd" fill-opacity="1"/>
<defs>
  <clipPath id="clip002">
    <rect x="220" y="47" width="2037" height="1301"/>
  </clipPath>
</defs>
<polyline clip-path="url(#clip002)" style="stroke:#000000; stroke-linecap:round; stroke-linejoin:round; stroke-width:2; stroke-opacity:0.1; fill:none" points="278.302,1347.54 278.302,47.2441 "/>
<polyline clip-path="url(#clip002)" style="stroke:#000000; stroke-linecap:round; stroke-linejoin:round; stroke-width:2; stroke-opacity:0.1; fill:none" points="1238.72,1347.54 1238.72,47.2441 "/>
<polyline clip-path="url(#clip002)" style="stroke:#000000; stroke-linecap:round; stroke-linejoin:round; stroke-width:2; stroke-opacity:0.1; fill:none" points="2199.13,1347.54 2199.13,47.2441 "/>
<polyline clip-path="url(#clip000)" style="stroke:#000000; stroke-linecap:round; stroke-linejoin:round; stroke-width:4; stroke-opacity:1; fill:none" points="220.677,1347.54 2256.76,1347.54 "/>
<polyline clip-path="url(#clip000)" style="stroke:#000000; stroke-linecap:round; stroke-linejoin:round; stroke-width:4; stroke-opacity:1; fill:none" points="278.302,1347.54 278.302,1328.64 "/>
<polyline clip-path="url(#clip000)" style="stroke:#000000; stroke-linecap:round; stroke-linejoin:round; stroke-width:4; stroke-opacity:1; fill:none" points="1238.72,1347.54 1238.72,1328.64 "/>
<polyline clip-path="url(#clip000)" style="stroke:#000000; stroke-linecap:round; stroke-linejoin:round; stroke-width:4; stroke-opacity:1; fill:none" points="2199.13,1347.54 2199.13,1328.64 "/>
<path clip-path="url(#clip000)" d="M228.568 1420.89 L236.207 1420.89 L236.207 1394.53 L227.896 1396.19 L227.896 1391.94 L236.16 1390.27 L240.836 1390.27 L240.836 1420.89 L248.475 1420.89 L248.475 1424.83 L228.568 1424.83 L228.568 1420.89 Z" fill="#000000" fill-rule="nonzero" fill-opacity="1" /><path clip-path="url(#clip000)" d="M267.919 1393.35 Q264.308 1393.35 262.48 1396.91 Q260.674 1400.45 260.674 1407.58 Q260.674 1414.69 262.48 1418.25 Q264.308 1421.8 267.919 1421.8 Q271.554 1421.8 273.359 1418.25 Q275.188 1414.69 275.188 1407.58 Q275.188 1400.45 273.359 1396.91 Q271.554 1393.35 267.919 1393.35 M267.919 1389.64 Q273.73 1389.64 276.785 1394.25 Q279.864 1398.83 279.864 1407.58 Q279.864 1416.31 276.785 1420.92 Q273.73 1425.5 267.919 1425.5 Q262.109 1425.5 259.031 1420.92 Q255.975 1416.31 255.975 1407.58 Q255.975 1398.83 259.031 1394.25 Q262.109 1389.64 267.919 1389.64 Z" fill="#000000" fill-rule="nonzero" fill-opacity="1" /><path clip-path="url(#clip000)" d="M279.864 1383.74 L303.975 1383.74 L303.975 1386.94 L279.864 1386.94 L279.864 1383.74 Z" fill="#000000" fill-rule="nonzero" fill-opacity="1" /><path clip-path="url(#clip000)" d="M315.448 1394.22 L328.708 1394.22 L328.708 1397.42 L310.878 1397.42 L310.878 1394.22 Q313.041 1391.98 316.765 1388.22 Q320.507 1384.44 321.467 1383.35 Q323.291 1381.3 324.006 1379.89 Q324.739 1378.46 324.739 1377.09 Q324.739 1374.85 323.159 1373.44 Q321.598 1372.03 319.078 1372.03 Q317.291 1372.03 315.298 1372.65 Q313.323 1373.27 311.066 1374.53 L311.066 1370.69 Q313.36 1369.77 315.354 1369.3 Q317.348 1368.83 319.003 1368.83 Q323.366 1368.83 325.962 1371.01 Q328.557 1373.19 328.557 1376.84 Q328.557 1378.57 327.899 1380.13 Q327.259 1381.68 325.548 1383.78 Q325.078 1384.33 322.557 1386.94 Q320.037 1389.54 315.448 1394.22 Z" fill="#000000" fill-rule="nonzero" fill-opacity="1" /><path clip-path="url(#clip000)" d="M1188.83 1420.89 L1196.47 1420.89 L1196.47 1394.53 L1188.16 1396.19 L1188.16 1391.94 L1196.42 1390.27 L1201.1 1390.27 L1201.1 1420.89 L1208.74 1420.89 L1208.74 1424.83 L1188.83 1424.83 L1188.83 1420.89 Z" fill="#000000" fill-rule="nonzero" fill-opacity="1" /><path clip-path="url(#clip000)" d="M1228.18 1393.35 Q1224.57 1393.35 1222.74 1396.91 Q1220.94 1400.45 1220.94 1407.58 Q1220.94 1414.69 1222.74 1418.25 Q1224.57 1421.8 1228.18 1421.8 Q1231.82 1421.8 1233.62 1418.25 Q1235.45 1414.69 1235.45 1407.58 Q1235.45 1400.45 1233.62 1396.91 Q1231.82 1393.35 1228.18 1393.35 M1228.18 1389.64 Q1233.99 1389.64 1237.05 1394.25 Q1240.13 1398.83 1240.13 1407.58 Q1240.13 1416.31 1237.05 1420.92 Q1233.99 1425.5 1228.18 1425.5 Q1222.37 1425.5 1219.29 1420.92 Q1216.24 1416.31 1216.24 1407.58 Q1216.24 1398.83 1219.29 1394.25 Q1222.37 1389.64 1228.18 1389.64 Z" fill="#000000" fill-rule="nonzero" fill-opacity="1" /><path clip-path="url(#clip000)" d="M1240.13 1383.74 L1264.24 1383.74 L1264.24 1386.94 L1240.13 1386.94 L1240.13 1383.74 Z" fill="#000000" fill-rule="nonzero" fill-opacity="1" /><path clip-path="url(#clip000)" d="M1273.1 1394.22 L1279.3 1394.22 L1279.3 1372.8 L1272.55 1374.15 L1272.55 1370.69 L1279.27 1369.34 L1283.07 1369.34 L1283.07 1394.22 L1289.27 1394.22 L1289.27 1397.42 L1273.1 1397.42 L1273.1 1394.22 Z" fill="#000000" fill-rule="nonzero" fill-opacity="1" /><path clip-path="url(#clip000)" d="M2164.11 1420.89 L2171.75 1420.89 L2171.75 1394.53 L2163.44 1396.19 L2163.44 1391.94 L2171.71 1390.27 L2176.38 1390.27 L2176.38 1420.89 L2184.02 1420.89 L2184.02 1424.83 L2164.11 1424.83 L2164.11 1420.89 Z" fill="#000000" fill-rule="nonzero" fill-opacity="1" /><path clip-path="url(#clip000)" d="M2203.47 1393.35 Q2199.85 1393.35 2198.03 1396.91 Q2196.22 1400.45 2196.22 1407.58 Q2196.22 1414.69 2198.03 1418.25 Q2199.85 1421.8 2203.47 1421.8 Q2207.1 1421.8 2208.91 1418.25 Q2210.73 1414.69 2210.73 1407.58 Q2210.73 1400.45 2208.91 1396.91 Q2207.1 1393.35 2203.47 1393.35 M2203.47 1389.64 Q2209.28 1389.64 2212.33 1394.25 Q2215.41 1398.83 2215.41 1407.58 Q2215.41 1416.31 2212.33 1420.92 Q2209.28 1425.5 2203.47 1425.5 Q2197.66 1425.5 2194.58 1420.92 Q2191.52 1416.31 2191.52 1407.58 Q2191.52 1398.83 2194.58 1394.25 Q2197.66 1389.64 2203.47 1389.64 Z" fill="#000000" fill-rule="nonzero" fill-opacity="1" /><path clip-path="url(#clip000)" d="M2225.11 1371.84 Q2222.18 1371.84 2220.69 1374.74 Q2219.23 1377.61 2219.23 1383.41 Q2219.23 1389.18 2220.69 1392.08 Q2222.18 1394.95 2225.11 1394.95 Q2228.07 1394.95 2229.53 1392.08 Q2231.02 1389.18 2231.02 1383.41 Q2231.02 1377.61 2229.53 1374.74 Q2228.07 1371.84 2225.11 1371.84 M2225.11 1368.83 Q2229.84 1368.83 2232.32 1372.57 Q2234.82 1376.3 2234.82 1383.41 Q2234.82 1390.5 2232.32 1394.24 Q2229.84 1397.96 2225.11 1397.96 Q2220.39 1397.96 2217.89 1394.24 Q2215.41 1390.5 2215.41 1383.41 Q2215.41 1376.3 2217.89 1372.57 Q2220.39 1368.83 2225.11 1368.83 Z" fill="#000000" fill-rule="nonzero" fill-opacity="1" /><path clip-path="url(#clip000)" d="M1107.35 1448.98 L1107.35 1455.25 Q1103.69 1453.5 1100.44 1452.64 Q1097.19 1451.78 1094.17 1451.78 Q1088.92 1451.78 1086.05 1453.81 Q1083.22 1455.85 1083.22 1459.61 Q1083.22 1462.76 1085.1 1464.38 Q1087.01 1465.97 1092.29 1466.96 L1096.18 1467.75 Q1103.37 1469.12 1106.77 1472.59 Q1110.21 1476.03 1110.21 1481.82 Q1110.21 1488.73 1105.56 1492.29 Q1100.95 1495.86 1092.01 1495.86 Q1088.63 1495.86 1084.81 1495.1 Q1081.02 1494.33 1076.95 1492.84 L1076.95 1486.21 Q1080.87 1488.41 1084.62 1489.53 Q1088.38 1490.64 1092.01 1490.64 Q1097.51 1490.64 1100.5 1488.47 Q1103.5 1486.31 1103.5 1482.3 Q1103.5 1478.8 1101.33 1476.83 Q1099.2 1474.85 1094.3 1473.87 L1090.38 1473.1 Q1083.19 1471.67 1079.97 1468.61 Q1076.76 1465.56 1076.76 1460.12 Q1076.76 1453.81 1081.18 1450.19 Q1085.64 1446.56 1093.44 1446.56 Q1096.78 1446.56 1100.25 1447.16 Q1103.72 1447.77 1107.35 1448.98 Z" fill="#000000" fill-rule="nonzero" fill-opacity="1" /><path clip-path="url(#clip000)" d="M1125.65 1489.59 L1125.65 1508.49 L1119.76 1508.49 L1119.76 1459.29 L1125.65 1459.29 L1125.65 1464.7 Q1127.49 1461.52 1130.3 1459.99 Q1133.13 1458.43 1137.04 1458.43 Q1143.54 1458.43 1147.58 1463.58 Q1151.65 1468.74 1151.65 1477.14 Q1151.65 1485.55 1147.58 1490.7 Q1143.54 1495.86 1137.04 1495.86 Q1133.13 1495.86 1130.3 1494.33 Q1127.49 1492.77 1125.65 1489.59 M1145.57 1477.14 Q1145.57 1470.68 1142.9 1467.02 Q1140.26 1463.33 1135.61 1463.33 Q1130.96 1463.33 1128.29 1467.02 Q1125.65 1470.68 1125.65 1477.14 Q1125.65 1483.6 1128.29 1487.3 Q1130.96 1490.96 1135.61 1490.96 Q1140.26 1490.96 1142.9 1487.3 Q1145.57 1483.6 1145.57 1477.14 Z" fill="#000000" fill-rule="nonzero" fill-opacity="1" /><path clip-path="url(#clip000)" d="M1177.56 1477.02 Q1170.46 1477.02 1167.73 1478.64 Q1164.99 1480.26 1164.99 1484.18 Q1164.99 1487.3 1167.03 1489.14 Q1169.09 1490.96 1172.63 1490.96 Q1177.5 1490.96 1180.43 1487.52 Q1183.39 1484.05 1183.39 1478.32 L1183.39 1477.02 L1177.56 1477.02 M1189.24 1474.6 L1189.24 1494.94 L1183.39 1494.94 L1183.39 1489.53 Q1181.38 1492.77 1178.39 1494.33 Q1175.4 1495.86 1171.07 1495.86 Q1165.59 1495.86 1162.35 1492.8 Q1159.13 1489.72 1159.13 1484.56 Q1159.13 1478.54 1163.14 1475.49 Q1167.18 1472.43 1175.17 1472.43 L1183.39 1472.43 L1183.39 1471.86 Q1183.39 1467.82 1180.71 1465.62 Q1178.07 1463.39 1173.26 1463.39 Q1170.21 1463.39 1167.31 1464.13 Q1164.42 1464.86 1161.74 1466.32 L1161.74 1460.91 Q1164.96 1459.67 1167.98 1459.07 Q1171 1458.43 1173.87 1458.43 Q1181.6 1458.43 1185.42 1462.44 Q1189.24 1466.45 1189.24 1474.6 Z" fill="#000000" fill-rule="nonzero" fill-opacity="1" /><path clip-path="url(#clip000)" d="M1221.96 1464.76 Q1220.98 1464.19 1219.8 1463.93 Q1218.65 1463.65 1217.25 1463.65 Q1212.29 1463.65 1209.61 1466.9 Q1206.97 1470.11 1206.97 1476.16 L1206.97 1494.94 L1201.08 1494.94 L1201.08 1459.29 L1206.97 1459.29 L1206.97 1464.83 Q1208.82 1461.58 1211.78 1460.02 Q1214.74 1458.43 1218.97 1458.43 Q1219.57 1458.43 1220.31 1458.52 Q1221.04 1458.59 1221.93 1458.75 L1221.96 1464.76 Z" fill="#000000" fill-rule="nonzero" fill-opacity="1" /><path clip-path="url(#clip000)" d="M1250.83 1460.34 L1250.83 1465.88 Q1248.35 1464.6 1245.67 1463.97 Q1243 1463.33 1240.14 1463.33 Q1235.78 1463.33 1233.58 1464.67 Q1231.41 1466 1231.41 1468.68 Q1231.41 1470.71 1232.97 1471.89 Q1234.53 1473.04 1239.24 1474.09 L1241.25 1474.53 Q1247.49 1475.87 1250.1 1478.32 Q1252.74 1480.74 1252.74 1485.1 Q1252.74 1490.07 1248.79 1492.96 Q1244.88 1495.86 1238 1495.86 Q1235.14 1495.86 1232.02 1495.29 Q1228.93 1494.74 1225.49 1493.63 L1225.49 1487.58 Q1228.74 1489.27 1231.89 1490.13 Q1235.04 1490.96 1238.13 1490.96 Q1242.27 1490.96 1244.5 1489.56 Q1246.72 1488.12 1246.72 1485.55 Q1246.72 1483.16 1245.1 1481.89 Q1243.51 1480.61 1238.07 1479.44 L1236.03 1478.96 Q1230.59 1477.81 1228.17 1475.46 Q1225.75 1473.07 1225.75 1468.93 Q1225.75 1463.9 1229.31 1461.17 Q1232.88 1458.43 1239.44 1458.43 Q1242.68 1458.43 1245.55 1458.91 Q1248.41 1459.38 1250.83 1460.34 Z" fill="#000000" fill-rule="nonzero" fill-opacity="1" /><path clip-path="url(#clip000)" d="M1262.07 1459.29 L1267.92 1459.29 L1267.92 1494.94 L1262.07 1494.94 L1262.07 1459.29 M1262.07 1445.41 L1267.92 1445.41 L1267.92 1452.83 L1262.07 1452.83 L1262.07 1445.41 Z" fill="#000000" fill-rule="nonzero" fill-opacity="1" /><path clip-path="url(#clip000)" d="M1285.97 1449.17 L1285.97 1459.29 L1298.03 1459.29 L1298.03 1463.84 L1285.97 1463.84 L1285.97 1483.19 Q1285.97 1487.55 1287.15 1488.79 Q1288.36 1490.03 1292.02 1490.03 L1298.03 1490.03 L1298.03 1494.94 L1292.02 1494.94 Q1285.24 1494.94 1282.66 1492.42 Q1280.08 1489.88 1280.08 1483.19 L1280.08 1463.84 L1275.78 1463.84 L1275.78 1459.29 L1280.08 1459.29 L1280.08 1449.17 L1285.97 1449.17 Z" fill="#000000" fill-rule="nonzero" fill-opacity="1" /><path clip-path="url(#clip000)" d="M1320.57 1498.25 Q1318.08 1504.61 1315.73 1506.55 Q1313.37 1508.49 1309.43 1508.49 L1304.75 1508.49 L1304.75 1503.59 L1308.19 1503.59 Q1310.6 1503.59 1311.94 1502.45 Q1313.28 1501.3 1314.9 1497.04 L1315.95 1494.36 L1301.53 1459.29 L1307.74 1459.29 L1318.88 1487.17 L1330.02 1459.29 L1336.23 1459.29 L1320.57 1498.25 Z" fill="#000000" fill-rule="nonzero" fill-opacity="1" /><path clip-path="url(#clip000)" d="M1395.89 1469.69 Q1395.83 1470.01 1395.7 1470.59 Q1395.57 1471.14 1394.99 1472.87 Q1394.41 1474.61 1393.64 1476.39 Q1392.9 1478.12 1391.45 1480.57 Q1390.03 1482.99 1388.29 1485.18 Q1387.81 1485.76 1387.71 1486.11 Q1387.65 1486.43 1387.65 1487.5 Q1387.65 1494.2 1389.68 1494.2 Q1389.77 1494.2 1389.93 1494.2 Q1390.13 1494.16 1390.61 1494 Q1391.13 1493.81 1391.58 1493.52 Q1392.03 1493.2 1392.54 1492.55 Q1393.06 1491.88 1393.38 1490.97 Q1393.67 1490.33 1394.25 1490.33 Q1395.02 1490.33 1395.02 1490.97 Q1395.02 1492.13 1393.41 1493.91 Q1391.8 1495.68 1389.48 1495.68 Q1387.26 1495.68 1385.68 1494.23 Q1384.14 1492.75 1383.49 1490.11 Q1376.54 1495.68 1369.58 1495.68 Q1364.69 1495.68 1361.79 1492.49 Q1358.89 1489.27 1358.89 1484.5 Q1358.89 1479.93 1361.4 1475.58 Q1363.94 1471.23 1368.07 1468.53 Q1372.22 1465.79 1376.63 1465.79 Q1378.18 1465.79 1379.66 1466.21 Q1381.14 1466.59 1382.62 1467.59 Q1384.11 1468.59 1385.2 1470.11 Q1386.3 1471.62 1386.97 1474 Q1387.65 1476.39 1387.65 1479.38 L1387.65 1483.47 Q1391.9 1478.09 1394.12 1470.4 Q1394.44 1469.24 1394.64 1469.11 Q1394.77 1469.01 1395.09 1469.01 Q1395.41 1469.01 1395.6 1469.2 Q1395.83 1469.36 1395.86 1469.53 L1395.89 1469.69 M1383.24 1488.4 Q1383.11 1487.27 1383.11 1481.02 Q1383.11 1479.83 1383.11 1479.19 Q1383.11 1478.51 1383.04 1477.22 Q1382.98 1475.93 1382.85 1475.13 Q1382.75 1474.32 1382.53 1473.16 Q1382.3 1472.01 1381.98 1471.26 Q1381.66 1470.52 1381.14 1469.69 Q1380.66 1468.85 1380.02 1468.37 Q1379.4 1467.88 1378.5 1467.56 Q1377.63 1467.24 1376.57 1467.24 Q1375.25 1467.24 1373.86 1467.72 Q1372.51 1468.17 1370.77 1469.62 Q1369.03 1471.04 1367.58 1473.29 Q1366.07 1475.68 1364.91 1480.06 Q1363.78 1484.4 1363.78 1487.01 Q1363.78 1490.3 1365.3 1492.26 Q1366.81 1494.2 1369.71 1494.2 Q1376.63 1494.2 1383.24 1488.4 Z" fill="#000000" fill-rule="nonzero" fill-opacity="1" /><polyline clip-path="url(#clip002)" style="stroke:#000000; stroke-linecap:round; stroke-linejoin:round; stroke-width:2; stroke-opacity:0.1; fill:none" points="220.677,1296.39 2256.76,1296.39 "/>
<polyline clip-path="url(#clip002)" style="stroke:#000000; stroke-linecap:round; stroke-linejoin:round; stroke-width:2; stroke-opacity:0.1; fill:none" points="220.677,494.295 2256.76,494.295 "/>
<polyline clip-path="url(#clip000)" style="stroke:#000000; stroke-linecap:round; stroke-linejoin:round; stroke-width:4; stroke-opacity:1; fill:none" points="220.677,1347.54 220.677,47.2441 "/>
<polyline clip-path="url(#clip000)" style="stroke:#000000; stroke-linecap:round; stroke-linejoin:round; stroke-width:4; stroke-opacity:1; fill:none" points="220.677,1296.39 239.575,1296.39 "/>
<polyline clip-path="url(#clip000)" style="stroke:#000000; stroke-linecap:round; stroke-linejoin:round; stroke-width:4; stroke-opacity:1; fill:none" points="220.677,494.295 239.575,494.295 "/>
<path clip-path="url(#clip000)" d="M115.411 1316.18 L123.05 1316.18 L123.05 1289.81 L114.74 1291.48 L114.74 1287.22 L123.004 1285.56 L127.68 1285.56 L127.68 1316.18 L135.319 1316.18 L135.319 1320.12 L115.411 1320.12 L115.411 1316.18 Z" fill="#000000" fill-rule="nonzero" fill-opacity="1" /><path clip-path="url(#clip000)" d="M154.763 1288.63 Q151.152 1288.63 149.323 1292.2 Q147.518 1295.74 147.518 1302.87 Q147.518 1309.98 149.323 1313.54 Q151.152 1317.08 154.763 1317.08 Q158.397 1317.08 160.203 1313.54 Q162.032 1309.98 162.032 1302.87 Q162.032 1295.74 160.203 1292.2 Q158.397 1288.63 154.763 1288.63 M154.763 1284.93 Q160.573 1284.93 163.629 1289.54 Q166.707 1294.12 166.707 1302.87 Q166.707 1311.6 163.629 1316.2 Q160.573 1320.79 154.763 1320.79 Q148.953 1320.79 145.874 1316.2 Q142.819 1311.6 142.819 1302.87 Q142.819 1294.12 145.874 1289.54 Q148.953 1284.93 154.763 1284.93 Z" fill="#000000" fill-rule="nonzero" fill-opacity="1" /><path clip-path="url(#clip000)" d="M176.412 1267.13 Q173.478 1267.13 171.992 1270.02 Q170.525 1272.9 170.525 1278.69 Q170.525 1284.47 171.992 1287.36 Q173.478 1290.24 176.412 1290.24 Q179.365 1290.24 180.832 1287.36 Q182.318 1284.47 182.318 1278.69 Q182.318 1272.9 180.832 1270.02 Q179.365 1267.13 176.412 1267.13 M176.412 1264.12 Q181.133 1264.12 183.616 1267.86 Q186.117 1271.58 186.117 1278.69 Q186.117 1285.78 183.616 1289.53 Q181.133 1293.25 176.412 1293.25 Q171.692 1293.25 169.19 1289.53 Q166.707 1285.78 166.707 1278.69 Q166.707 1271.58 169.19 1267.86 Q171.692 1264.12 176.412 1264.12 Z" fill="#000000" fill-rule="nonzero" fill-opacity="1" /><path clip-path="url(#clip000)" d="M116.991 514.088 L124.63 514.088 L124.63 487.722 L116.32 489.389 L116.32 485.13 L124.584 483.463 L129.26 483.463 L129.26 514.088 L136.899 514.088 L136.899 518.023 L116.991 518.023 L116.991 514.088 Z" fill="#000000" fill-rule="nonzero" fill-opacity="1" /><path clip-path="url(#clip000)" d="M156.343 486.542 Q152.732 486.542 150.903 490.106 Q149.098 493.648 149.098 500.778 Q149.098 507.884 150.903 511.449 Q152.732 514.991 156.343 514.991 Q159.977 514.991 161.783 511.449 Q163.611 507.884 163.611 500.778 Q163.611 493.648 161.783 490.106 Q159.977 486.542 156.343 486.542 M156.343 482.838 Q162.153 482.838 165.209 487.444 Q168.287 492.028 168.287 500.778 Q168.287 509.504 165.209 514.111 Q162.153 518.694 156.343 518.694 Q150.533 518.694 147.454 514.111 Q144.399 509.504 144.399 500.778 Q144.399 492.028 147.454 487.444 Q150.533 482.838 156.343 482.838 Z" fill="#000000" fill-rule="nonzero" fill-opacity="1" /><path clip-path="url(#clip000)" d="M172.858 487.415 L186.117 487.415 L186.117 490.613 L168.287 490.613 L168.287 487.415 Q170.45 485.177 174.174 481.416 Q177.917 477.635 178.876 476.544 Q180.7 474.494 181.415 473.084 Q182.149 471.654 182.149 470.281 Q182.149 468.043 180.569 466.633 Q179.008 465.222 176.488 465.222 Q174.701 465.222 172.707 465.843 Q170.732 466.463 168.475 467.723 L168.475 463.887 Q170.77 462.965 172.764 462.495 Q174.757 462.025 176.412 462.025 Q180.776 462.025 183.371 464.206 Q185.967 466.388 185.967 470.037 Q185.967 471.767 185.308 473.328 Q184.669 474.87 182.957 476.977 Q182.487 477.522 179.967 480.137 Q177.447 482.732 172.858 487.415 Z" fill="#000000" fill-rule="nonzero" fill-opacity="1" /><path clip-path="url(#clip000)" d="M18.4042 928.052 L18.4042 898.006 L23.815 898.006 L23.815 921.622 L37.8832 921.622 L37.8832 898.992 L43.2941 898.992 L43.2941 921.622 L60.5133 921.622 L60.5133 897.433 L65.9242 897.433 L65.9242 928.052 L18.4042 928.052 Z" fill="#000000" fill-rule="nonzero" fill-opacity="1" /><path clip-path="url(#clip000)" d="M19.9638 858.379 L26.234 858.379 Q24.4834 862.039 23.624 865.286 Q22.7647 868.532 22.7647 871.556 Q22.7647 876.808 24.8017 879.672 Q26.8387 882.505 30.5945 882.505 Q33.7455 882.505 35.3688 880.627 Q36.9602 878.718 37.9469 873.434 L38.7426 869.551 Q40.1112 862.358 43.5805 858.952 Q47.018 855.515 52.8108 855.515 Q59.7176 855.515 63.2824 860.161 Q66.8472 864.777 66.8472 873.72 Q66.8472 877.094 66.0833 880.914 Q65.3194 884.701 63.8235 888.775 L57.2031 888.775 Q59.3993 884.86 60.5133 881.105 Q61.6273 877.349 61.6273 873.72 Q61.6273 868.214 59.463 865.222 Q57.2986 862.23 53.2882 862.23 Q49.7871 862.23 47.8137 864.395 Q45.8404 866.527 44.8537 871.429 L44.0898 875.344 Q42.6575 882.537 39.602 885.752 Q36.5464 888.966 31.1037 888.966 Q24.8017 888.966 21.1732 884.542 Q17.5448 880.086 17.5448 872.288 Q17.5448 868.946 18.1495 865.477 Q18.7543 862.008 19.9638 858.379 Z" fill="#000000" fill-rule="nonzero" fill-opacity="1" /><path clip-path="url(#clip000)" d="M19.9638 817.002 L26.234 817.002 Q24.4834 820.662 23.624 823.909 Q22.7647 827.155 22.7647 830.179 Q22.7647 835.431 24.8017 838.295 Q26.8387 841.128 30.5945 841.128 Q33.7455 841.128 35.3688 839.25 Q36.9602 837.34 37.9469 832.057 L38.7426 828.174 Q40.1112 820.981 43.5805 817.575 Q47.018 814.137 52.8108 814.137 Q59.7176 814.137 63.2824 818.784 Q66.8472 823.4 66.8472 832.343 Q66.8472 835.717 66.0833 839.537 Q65.3194 843.324 63.8235 847.398 L57.2031 847.398 Q59.3993 843.483 60.5133 839.728 Q61.6273 835.972 61.6273 832.343 Q61.6273 826.837 59.463 823.845 Q57.2986 820.853 53.2882 820.853 Q49.7871 820.853 47.8137 823.018 Q45.8404 825.15 44.8537 830.052 L44.0898 833.967 Q42.6575 841.16 39.602 844.375 Q36.5464 847.589 31.1037 847.589 Q24.8017 847.589 21.1732 843.165 Q17.5448 838.709 17.5448 830.911 Q17.5448 827.569 18.1495 824.1 Q18.7543 820.63 19.9638 817.002 Z" fill="#000000" fill-rule="nonzero" fill-opacity="1" /><path clip-path="url(#clip000)" d="M60.577 777.98 L79.4831 777.98 L79.4831 783.868 L30.2762 783.868 L30.2762 777.98 L35.6871 777.98 Q32.5042 776.134 30.9764 773.333 Q29.4168 770.501 29.4168 766.586 Q29.4168 760.093 34.5731 756.05 Q39.7293 751.976 48.132 751.976 Q56.5347 751.976 61.691 756.05 Q66.8472 760.093 66.8472 766.586 Q66.8472 770.501 65.3194 773.333 Q63.7598 776.134 60.577 777.98 M48.132 758.056 Q41.6708 758.056 38.0105 760.729 Q34.3184 763.371 34.3184 768.018 Q34.3184 772.665 38.0105 775.338 Q41.6708 777.98 48.132 777.98 Q54.5932 777.98 58.2853 775.338 Q61.9456 772.665 61.9456 768.018 Q61.9456 763.371 58.2853 760.729 Q54.5932 758.056 48.132 758.056 Z" fill="#000000" fill-rule="nonzero" fill-opacity="1" /><path clip-path="url(#clip000)" d="M46.6361 711.777 L49.5006 711.777 L49.5006 738.704 Q55.5481 738.322 58.7309 735.075 Q61.8819 731.797 61.8819 725.972 Q61.8819 722.599 61.0544 719.448 Q60.2269 716.265 58.5718 713.145 L64.1099 713.145 Q65.4467 716.297 66.147 719.607 Q66.8472 722.917 66.8472 726.323 Q66.8472 734.853 61.8819 739.85 Q56.9167 744.815 48.4503 744.815 Q39.6974 744.815 34.5731 740.104 Q29.4168 735.362 29.4168 727.341 Q29.4168 720.148 34.0638 715.978 Q38.6789 711.777 46.6361 711.777 M44.9173 717.633 Q40.1112 717.697 37.2466 720.339 Q34.3821 722.949 34.3821 727.277 Q34.3821 732.179 37.1512 735.139 Q39.9202 738.067 44.9492 738.513 L44.9173 717.633 Z" fill="#000000" fill-rule="nonzero" fill-opacity="1" /><path clip-path="url(#clip000)" d="M35.7507 681.508 Q35.1778 682.495 34.9232 683.672 Q34.6367 684.818 34.6367 686.219 Q34.6367 691.184 37.8832 693.857 Q41.0979 696.499 47.1453 696.499 L65.9242 696.499 L65.9242 702.387 L30.2762 702.387 L30.2762 696.499 L35.8144 696.499 Q32.5679 694.653 31.0083 691.693 Q29.4168 688.733 29.4168 684.5 Q29.4168 683.895 29.5123 683.163 Q29.576 682.431 29.7351 681.54 L35.7507 681.508 Z" fill="#000000" fill-rule="nonzero" fill-opacity="1" /><path clip-path="url(#clip000)" d="M18.4042 654.39 L18.4042 624.344 L23.815 624.344 L23.815 647.961 L37.8832 647.961 L37.8832 625.331 L43.2941 625.331 L43.2941 647.961 L60.5133 647.961 L60.5133 623.771 L65.9242 623.771 L65.9242 654.39 L18.4042 654.39 Z" fill="#000000" fill-rule="nonzero" fill-opacity="1" /><path clip-path="url(#clip000)" d="M60.577 607.793 L79.4831 607.793 L79.4831 613.681 L30.2762 613.681 L30.2762 607.793 L35.6871 607.793 Q32.5042 605.947 30.9764 603.146 Q29.4168 600.313 29.4168 596.398 Q29.4168 589.905 34.5731 585.863 Q39.7293 581.789 48.132 581.789 Q56.5347 581.789 61.691 585.863 Q66.8472 589.905 66.8472 596.398 Q66.8472 600.313 65.3194 603.146 Q63.7598 605.947 60.577 607.793 M48.132 587.868 Q41.6708 587.868 38.0105 590.542 Q34.3184 593.184 34.3184 597.831 Q34.3184 602.478 38.0105 605.151 Q41.6708 607.793 48.132 607.793 Q54.5932 607.793 58.2853 605.151 Q61.9456 602.478 61.9456 597.831 Q61.9456 593.184 58.2853 590.542 Q54.5932 587.868 48.132 587.868 Z" fill="#000000" fill-rule="nonzero" fill-opacity="1" /><path clip-path="url(#clip000)" d="M34.3821 558.268 Q34.3821 562.978 38.0742 565.716 Q41.7345 568.453 48.132 568.453 Q54.5295 568.453 58.2217 565.748 Q61.8819 563.01 61.8819 558.268 Q61.8819 553.589 58.1898 550.852 Q54.4977 548.115 48.132 548.115 Q41.7981 548.115 38.106 550.852 Q34.3821 553.589 34.3821 558.268 M29.4168 558.268 Q29.4168 550.629 34.3821 546.268 Q39.3473 541.908 48.132 541.908 Q56.8849 541.908 61.8819 546.268 Q66.8472 550.629 66.8472 558.268 Q66.8472 565.939 61.8819 570.299 Q56.8849 574.628 48.132 574.628 Q39.3473 574.628 34.3821 570.299 Q29.4168 565.939 29.4168 558.268 Z" fill="#000000" fill-rule="nonzero" fill-opacity="1" /><path clip-path="url(#clip000)" d="M31.6448 506.546 L37.1193 506.546 Q35.7507 509.029 35.0823 511.544 Q34.3821 514.026 34.3821 516.572 Q34.3821 522.27 38.0105 525.421 Q41.6072 528.572 48.132 528.572 Q54.6569 528.572 58.2853 525.421 Q61.8819 522.27 61.8819 516.572 Q61.8819 514.026 61.2135 511.544 Q60.5133 509.029 59.1447 506.546 L64.5555 506.546 Q65.7014 508.997 66.2743 511.639 Q66.8472 514.249 66.8472 517.209 Q66.8472 525.262 61.7864 530.004 Q56.7257 534.747 48.132 534.747 Q39.411 534.747 34.4139 529.972 Q29.4168 525.166 29.4168 516.827 Q29.4168 514.122 29.9897 511.544 Q30.5308 508.965 31.6448 506.546 Z" fill="#000000" fill-rule="nonzero" fill-opacity="1" /><path clip-path="url(#clip000)" d="M44.4081 466.729 L65.9242 466.729 L65.9242 472.585 L44.599 472.585 Q39.5383 472.585 37.0238 474.559 Q34.5094 476.532 34.5094 480.479 Q34.5094 485.221 37.5331 487.959 Q40.5568 490.696 45.7767 490.696 L65.9242 490.696 L65.9242 496.584 L16.399 496.584 L16.399 490.696 L35.8144 490.696 Q32.5997 488.595 31.0083 485.762 Q29.4168 482.898 29.4168 479.174 Q29.4168 473.031 33.2363 469.88 Q37.0238 466.729 44.4081 466.729 Z" fill="#000000" fill-rule="nonzero" fill-opacity="1" /><polyline clip-path="url(#clip002)" style="stroke:#78c2ad; stroke-linecap:round; stroke-linejoin:round; stroke-width:4; stroke-opacity:1; fill:none" points="2199.13,1310.74 2199.13,1190.66 "/>
<polyline clip-path="url(#clip002)" style="stroke:#78c2ad; stroke-linecap:round; stroke-linejoin:round; stroke-width:4; stroke-opacity:1; fill:none" points="1238.72,1281.72 1238.72,1161.64 "/>
<polyline clip-path="url(#clip002)" style="stroke:#78c2ad; stroke-linecap:round; stroke-linejoin:round; stroke-width:4; stroke-opacity:1; fill:none" points="278.302,1123.27 278.302,1003.18 "/>
<line clip-path="url(#clip002)" x1="2219.13" y1="1310.74" x2="2179.13" y2="1310.74" style="stroke:#78c2ad; stroke-width:4; stroke-opacity:0.6"/>
<line clip-path="url(#clip002)" x1="2219.13" y1="1190.66" x2="2179.13" y2="1190.66" style="stroke:#78c2ad; stroke-width:4; stroke-opacity:0.6"/>
<line clip-path="url(#clip002)" x1="1258.72" y1="1281.72" x2="1218.72" y2="1281.72" style="stroke:#78c2ad; stroke-width:4; stroke-opacity:0.6"/>
<line clip-path="url(#clip002)" x1="1258.72" y1="1161.64" x2="1218.72" y2="1161.64" style="stroke:#78c2ad; stroke-width:4; stroke-opacity:0.6"/>
<line clip-path="url(#clip002)" x1="298.302" y1="1123.27" x2="258.302" y2="1123.27" style="stroke:#78c2ad; stroke-width:4; stroke-opacity:0.6"/>
<line clip-path="url(#clip002)" x1="298.302" y1="1003.18" x2="258.302" y2="1003.18" style="stroke:#78c2ad; stroke-width:4; stroke-opacity:0.6"/>
<circle clip-path="url(#clip002)" cx="2199.13" cy="1240.55" r="18" fill="#78c2ad" fill-rule="evenodd" fill-opacity="0.6" stroke="none"/>
<circle clip-path="url(#clip002)" cx="1238.72" cy="1211.53" r="18" fill="#78c2ad" fill-rule="evenodd" fill-opacity="0.6" stroke="none"/>
<circle clip-path="url(#clip002)" cx="278.302" cy="1053.08" r="18" fill="#78c2ad" fill-rule="evenodd" fill-opacity="0.6" stroke="none"/>
<polyline clip-path="url(#clip002)" style="stroke:#78c2ad; stroke-linecap:round; stroke-linejoin:round; stroke-width:8; stroke-opacity:1; fill:none" points="278.302,1074.65 297.704,1076.54 317.107,1078.44 336.509,1080.33 355.911,1082.22 375.314,1084.12 394.716,1086.01 414.118,1087.9 433.52,1089.8 452.923,1091.69 472.325,1093.58 491.727,1095.48 511.13,1097.37 530.532,1099.27 549.934,1101.16 569.337,1103.05 588.739,1104.95 608.141,1106.84 627.544,1108.73 646.946,1110.63 666.348,1112.52 685.751,1114.41 705.153,1116.31 724.555,1118.2 743.957,1120.1 763.36,1121.99 782.762,1123.88 802.164,1125.78 821.567,1127.67 840.969,1129.56 860.371,1131.46 879.774,1133.35 899.176,1135.25 918.578,1137.14 937.981,1139.03 957.383,1140.93 976.785,1142.82 996.188,1144.71 1015.59,1146.61 1034.99,1148.5 1054.39,1150.39 1073.8,1152.29 1093.2,1154.18 1112.6,1156.08 1132,1157.97 1151.41,1159.86 1170.81,1161.76 1190.21,1163.65 1209.61,1165.54 1229.02,1167.44 1248.42,1169.33 1267.82,1171.22 1287.22,1173.12 1306.62,1175.01 1326.03,1176.91 1345.43,1178.8 1364.83,1180.69 1384.23,1182.59 1403.64,1184.48 1423.04,1186.37 1442.44,1188.27 1461.84,1190.16 1481.25,1192.06 1500.65,1193.95 1520.05,1195.84 1539.45,1197.74 1558.85,1199.63 1578.26,1201.52 1597.66,1203.42 1617.06,1205.31 1636.46,1207.2 1655.87,1209.1 1675.27,1210.99 1694.67,1212.89 1714.07,1214.78 1733.48,1216.67 1752.88,1218.57 1772.28,1220.46 1791.68,1222.35 1811.08,1224.25 1830.49,1226.14 1849.89,1228.03 1869.29,1229.93 1888.69,1231.82 1908.1,1233.72 1927.5,1235.61 1946.9,1237.5 1966.3,1239.4 1985.71,1241.29 2005.11,1243.18 2024.51,1245.08 2043.91,1246.97 2063.31,1248.87 2082.72,1250.76 2102.12,1252.65 2121.52,1254.55 2140.92,1256.44 2160.33,1258.33 2179.73,1260.23 2199.13,1262.12 "/>
<polyline clip-path="url(#clip002)" style="stroke:#e95420; stroke-linecap:round; stroke-linejoin:round; stroke-width:4; stroke-opacity:1; fill:none" points="2199.13,1085.77 2199.13,965.694 "/>
<polyline clip-path="url(#clip002)" style="stroke:#e95420; stroke-linecap:round; stroke-linejoin:round; stroke-width:4; stroke-opacity:1; fill:none" points="1238.72,660.675 1238.72,540.583 "/>
<polyline clip-path="url(#clip002)" style="stroke:#e95420; stroke-linecap:round; stroke-linejoin:round; stroke-width:4; stroke-opacity:1; fill:none" points="278.302,204.275 278.302,84.0448 "/>
<line clip-path="url(#clip002)" x1="2219.13" y1="1085.77" x2="2179.13" y2="1085.77" style="stroke:#e95420; stroke-width:4; stroke-opacity:0.6"/>
<line clip-path="url(#clip002)" x1="2219.13" y1="965.694" x2="2179.13" y2="965.694" style="stroke:#e95420; stroke-width:4; stroke-opacity:0.6"/>
<line clip-path="url(#clip002)" x1="1258.72" y1="660.675" x2="1218.72" y2="660.675" style="stroke:#e95420; stroke-width:4; stroke-opacity:0.6"/>
<line clip-path="url(#clip002)" x1="1258.72" y1="540.583" x2="1218.72" y2="540.583" style="stroke:#e95420; stroke-width:4; stroke-opacity:0.6"/>
<line clip-path="url(#clip002)" x1="298.302" y1="204.275" x2="258.302" y2="204.275" style="stroke:#e95420; stroke-width:4; stroke-opacity:0.6"/>
<line clip-path="url(#clip002)" x1="298.302" y1="84.0448" x2="258.302" y2="84.0448" style="stroke:#e95420; stroke-width:4; stroke-opacity:0.6"/>
<circle clip-path="url(#clip002)" cx="2199.13" cy="1015.58" r="18" fill="#e95420" fill-rule="evenodd" fill-opacity="0.6" stroke="none"/>
<circle clip-path="url(#clip002)" cx="1238.72" cy="590.477" r="18" fill="#e95420" fill-rule="evenodd" fill-opacity="0.6" stroke="none"/>
<circle clip-path="url(#clip002)" cx="278.302" cy="133.985" r="18" fill="#e95420" fill-rule="evenodd" fill-opacity="0.6" stroke="none"/>
<polyline clip-path="url(#clip002)" style="stroke:#e95420; stroke-linecap:round; stroke-linejoin:round; stroke-width:8; stroke-opacity:1; fill:none" points="278.302,139.216 297.704,148.121 317.107,157.026 336.509,165.931 355.911,174.836 375.314,183.741 394.716,192.646 414.118,201.551 433.52,210.456 452.923,219.362 472.325,228.267 491.727,237.172 511.13,246.077 530.532,254.982 549.934,263.887 569.337,272.792 588.739,281.697 608.141,290.602 627.544,299.507 646.946,308.412 666.348,317.317 685.751,326.222 705.153,335.127 724.555,344.032 743.957,352.937 763.36,361.842 782.762,370.747 802.164,379.652 821.567,388.557 840.969,397.462 860.371,406.367 879.774,415.272 899.176,424.177 918.578,433.082 937.981,441.987 957.383,450.892 976.785,459.797 996.188,468.702 1015.59,477.607 1034.99,486.512 1054.39,495.417 1073.8,504.322 1093.2,513.227 1112.6,522.132 1132,531.037 1151.41,539.942 1170.81,548.847 1190.21,557.752 1209.61,566.657 1229.02,575.562 1248.42,584.467 1267.82,593.372 1287.22,602.277 1306.62,611.182 1326.03,620.087 1345.43,628.992 1364.83,637.897 1384.23,646.803 1403.64,655.708 1423.04,664.613 1442.44,673.518 1461.84,682.423 1481.25,691.328 1500.65,700.233 1520.05,709.138 1539.45,718.043 1558.85,726.948 1578.26,735.853 1597.66,744.758 1617.06,753.663 1636.46,762.568 1655.87,771.473 1675.27,780.378 1694.67,789.283 1714.07,798.188 1733.48,807.093 1752.88,815.998 1772.28,824.903 1791.68,833.808 1811.08,842.713 1830.49,851.618 1849.89,860.523 1869.29,869.428 1888.69,878.333 1908.1,887.238 1927.5,896.143 1946.9,905.048 1966.3,913.953 1985.71,922.858 2005.11,931.763 2024.51,940.668 2043.91,949.573 2063.31,958.478 2082.72,967.383 2102.12,976.288 2121.52,985.193 2140.92,994.098 2160.33,1003 2179.73,1011.91 2199.13,1020.81 "/>
<path clip-path="url(#clip000)" d="M1848.64 246.107 L2188.89 246.107 L2188.89 90.5872 L1848.64 90.5872  Z" fill="#f0f1eb" fill-rule="evenodd" fill-opacity="1"/>
<polyline clip-path="url(#clip000)" style="stroke:#000000; stroke-linecap:round; stroke-linejoin:round; stroke-width:4; stroke-opacity:1; fill:none" points="1848.64,246.107 2188.89,246.107 2188.89,90.5872 1848.64,90.5872 1848.64,246.107 "/>
<polyline clip-path="url(#clip000)" style="stroke:#78c2ad; stroke-linecap:round; stroke-linejoin:round; stroke-width:8; stroke-opacity:1; fill:none" points="1871.26,142.427 2007,142.427 "/>
<path clip-path="url(#clip000)" d="M2030.15 125.147 L2057.31 125.147 L2057.31 128.712 L2035.45 155.772 L2057.84 155.772 L2057.84 159.707 L2029.62 159.707 L2029.62 156.142 L2051.47 129.082 L2030.15 129.082 L2030.15 125.147 Z" fill="#000000" fill-rule="nonzero" fill-opacity="1" /><path clip-path="url(#clip000)" d="M2062.63 125.147 L2089.78 125.147 L2089.78 128.712 L2067.93 155.772 L2090.31 155.772 L2090.31 159.707 L2062.1 159.707 L2062.1 156.142 L2083.95 129.082 L2062.63 129.082 L2062.63 125.147 Z" fill="#000000" fill-rule="nonzero" fill-opacity="1" /><path clip-path="url(#clip000)" d="M2093.93 144.823 L2106.4 144.823 L2106.4 148.619 L2093.93 148.619 L2093.93 144.823 Z" fill="#000000" fill-rule="nonzero" fill-opacity="1" /><path clip-path="url(#clip000)" d="M2134.09 126.281 L2134.09 130.842 Q2131.43 129.568 2129.06 128.943 Q2126.7 128.318 2124.5 128.318 Q2120.69 128.318 2118.6 129.8 Q2116.54 131.281 2116.54 134.013 Q2116.54 136.305 2117.91 137.485 Q2119.3 138.642 2123.14 139.36 L2125.96 139.939 Q2131.19 140.934 2133.67 143.457 Q2136.17 145.957 2136.17 150.17 Q2136.17 155.193 2132.79 157.786 Q2129.44 160.378 2122.93 160.378 Q2120.48 160.378 2117.7 159.823 Q2114.94 159.267 2111.98 158.179 L2111.98 153.365 Q2114.83 154.962 2117.56 155.772 Q2120.29 156.582 2122.93 156.582 Q2126.94 156.582 2129.11 155.008 Q2131.29 153.434 2131.29 150.517 Q2131.29 147.971 2129.71 146.536 Q2128.16 145.101 2124.6 144.383 L2121.75 143.828 Q2116.52 142.786 2114.18 140.564 Q2111.84 138.342 2111.84 134.383 Q2111.84 129.8 2115.06 127.161 Q2118.3 124.522 2123.97 124.522 Q2126.4 124.522 2128.93 124.962 Q2131.45 125.402 2134.09 126.281 Z" fill="#000000" fill-rule="nonzero" fill-opacity="1" /><path clip-path="url(#clip000)" d="M2164.18 126.281 L2164.18 130.842 Q2161.52 129.568 2159.16 128.943 Q2156.8 128.318 2154.6 128.318 Q2150.78 128.318 2148.69 129.8 Q2146.63 131.281 2146.63 134.013 Q2146.63 136.305 2148 137.485 Q2149.39 138.642 2153.23 139.36 L2156.06 139.939 Q2161.29 140.934 2163.76 143.457 Q2166.26 145.957 2166.26 150.17 Q2166.26 155.193 2162.88 157.786 Q2159.53 160.378 2153.02 160.378 Q2150.57 160.378 2147.79 159.823 Q2145.04 159.267 2142.07 158.179 L2142.07 153.365 Q2144.92 154.962 2147.65 155.772 Q2150.38 156.582 2153.02 156.582 Q2157.03 156.582 2159.2 155.008 Q2161.38 153.434 2161.38 150.517 Q2161.38 147.971 2159.81 146.536 Q2158.25 145.101 2154.69 144.383 L2151.84 143.828 Q2146.61 142.786 2144.27 140.564 Q2141.93 138.342 2141.93 134.383 Q2141.93 129.8 2145.15 127.161 Q2148.39 124.522 2154.06 124.522 Q2156.5 124.522 2159.02 124.962 Q2161.54 125.402 2164.18 126.281 Z" fill="#000000" fill-rule="nonzero" fill-opacity="1" /><polyline clip-path="url(#clip000)" style="stroke:#e95420; stroke-linecap:round; stroke-linejoin:round; stroke-width:8; stroke-opacity:1; fill:none" points="1871.26,194.267 2007,194.267 "/>
<path clip-path="url(#clip000)" d="M2030.15 176.987 L2057.31 176.987 L2057.31 180.552 L2035.45 207.612 L2057.84 207.612 L2057.84 211.547 L2029.62 211.547 L2029.62 207.982 L2051.47 180.922 L2030.15 180.922 L2030.15 176.987 Z" fill="#000000" fill-rule="nonzero" fill-opacity="1" /><path clip-path="url(#clip000)" d="M2062.63 176.987 L2089.78 176.987 L2089.78 180.552 L2067.93 207.612 L2090.31 207.612 L2090.31 211.547 L2062.1 211.547 L2062.1 207.982 L2083.95 180.922 L2062.63 180.922 L2062.63 176.987 Z" fill="#000000" fill-rule="nonzero" fill-opacity="1" /><path clip-path="url(#clip000)" d="M2093.93 196.663 L2106.4 196.663 L2106.4 200.459 L2093.93 200.459 L2093.93 196.663 Z" fill="#000000" fill-rule="nonzero" fill-opacity="1" /><path clip-path="url(#clip000)" d="M2113.37 176.987 L2118.05 176.987 L2118.05 211.547 L2113.37 211.547 L2113.37 176.987 Z" fill="#000000" fill-rule="nonzero" fill-opacity="1" /><path clip-path="url(#clip000)" d="M2148.07 178.121 L2148.07 182.682 Q2145.41 181.408 2143.05 180.783 Q2140.68 180.158 2138.49 180.158 Q2134.67 180.158 2132.58 181.64 Q2130.52 183.121 2130.52 185.853 Q2130.52 188.145 2131.89 189.325 Q2133.28 190.482 2137.12 191.2 L2139.94 191.779 Q2145.18 192.774 2147.65 195.297 Q2150.15 197.797 2150.15 202.01 Q2150.15 207.033 2146.77 209.626 Q2143.42 212.218 2136.91 212.218 Q2134.46 212.218 2131.68 211.663 Q2128.93 211.107 2125.96 210.019 L2125.96 205.205 Q2128.81 206.802 2131.54 207.612 Q2134.27 208.422 2136.91 208.422 Q2140.92 208.422 2143.09 206.848 Q2145.27 205.274 2145.27 202.357 Q2145.27 199.811 2143.69 198.376 Q2142.14 196.941 2138.58 196.223 L2135.73 195.668 Q2130.5 194.626 2128.16 192.404 Q2125.82 190.182 2125.82 186.223 Q2125.82 181.64 2129.04 179.001 Q2132.28 176.362 2137.95 176.362 Q2140.38 176.362 2142.91 176.802 Q2145.43 177.242 2148.07 178.121 Z" fill="#000000" fill-rule="nonzero" fill-opacity="1" /></svg>
