<?xml version="1.0" encoding="utf-8"?>
<svg xmlns="http://www.w3.org/2000/svg" xmlns:xlink="http://www.w3.org/1999/xlink" width="576" height="384" viewBox="0 0 2304 1536">
<defs>
  <clipPath id="clip180">
    <rect x="0" y="0" width="2304" height="1536"/>
  </clipPath>
</defs>
<path clip-path="url(#clip180)" d="M0 1536 L2304 1536 L2304 8.52651e-14 L0 8.52651e-14  Z" fill="#ffffff" fill-rule="evenodd" fill-opacity="1"/>
<defs>
  <clipPath id="clip181">
    <rect x="460" y="0" width="1614" height="1536"/>
  </clipPath>
</defs>
<path clip-path="url(#clip180)" d="M251.804 1347.54 L2256.76 1347.54 L2256.76 47.2441 L251.804 47.2441  Z" fill="#ffffff" fill-rule="evenodd" fill-opacity="1"/>
<defs>
  <clipPath id="clip182">
    <rect x="251" y="47" width="2006" height="1301"/>
  </clipPath>
</defs>
<polyline clip-path="url(#clip182)" style="stroke:#000000; stroke-linecap:round; stroke-linejoin:round; stroke-width:2; stroke-opacity:0.1; fill:none" points="939.036,1347.54 939.036,47.2441 "/>
<polyline clip-path="url(#clip182)" style="stroke:#000000; stroke-linecap:round; stroke-linejoin:round; stroke-width:2; stroke-opacity:0.1; fill:none" points="2200.01,1347.54 2200.01,47.2441 "/>
<polyline clip-path="url(#clip180)" style="stroke:#000000; stroke-linecap:round; stroke-linejoin:round; stroke-width:4; stroke-opacity:1; fill:none" points="251.804,1347.54 2256.76,1347.54 "/>
<polyline clip-path="url(#clip180)" style="stroke:#000000; stroke-linecap:round; stroke-linejoin:round; stroke-width:4; stroke-opacity:1; fill:none" points="939.036,1347.54 939.036,1328.64 "/>
<polyline clip-path="url(#clip180)" style="stroke:#000000; stroke-linecap:round; stroke-linejoin:round; stroke-width:4; stroke-opacity:1; fill:none" points="2200.01,1347.54 2200.01,1328.64 "/>
<path clip-path="url(#clip180)" d="M904.809 1420.89 L912.448 1420.89 L912.448 1394.53 L904.137 1396.19 L904.137 1391.94 L912.401 1390.27 L917.077 1390.27 L917.077 1420.89 L924.716 1420.89 L924.716 1424.83 L904.809 1424.83 L904.809 1420.89 Z" fill="#000000" fill-rule="nonzero" fill-opacity="1" /><path clip-path="url(#clip180)" d="M944.16 1393.35 Q940.549 1393.35 938.721 1396.91 Q936.915 1400.45 936.915 1407.58 Q936.915 1414.69 938.721 1418.25 Q940.549 1421.8 944.16 1421.8 Q947.795 1421.8 949.6 1418.25 Q951.429 1414.69 951.429 1407.58 Q951.429 1400.45 949.6 1396.91 Q947.795 1393.35 944.16 1393.35 M944.16 1389.64 Q949.97 1389.64 953.026 1394.25 Q956.105 1398.83 956.105 1407.58 Q956.105 1416.31 953.026 1420.92 Q949.97 1425.5 944.16 1425.5 Q938.35 1425.5 935.271 1420.92 Q932.216 1416.31 932.216 1407.58 Q932.216 1398.83 935.271 1394.25 Q938.35 1389.64 944.16 1389.64 Z" fill="#000000" fill-rule="nonzero" fill-opacity="1" /><path clip-path="url(#clip180)" d="M960.675 1394.22 L973.934 1394.22 L973.934 1397.42 L956.105 1397.42 L956.105 1394.22 Q958.268 1391.98 961.992 1388.22 Q965.734 1384.44 966.693 1383.35 Q968.518 1381.3 969.233 1379.89 Q969.966 1378.46 969.966 1377.09 Q969.966 1374.85 968.386 1373.44 Q966.825 1372.03 964.305 1372.03 Q962.518 1372.03 960.525 1372.65 Q958.55 1373.27 956.293 1374.53 L956.293 1370.69 Q958.587 1369.77 960.581 1369.3 Q962.575 1368.83 964.23 1368.83 Q968.593 1368.83 971.189 1371.01 Q973.784 1373.19 973.784 1376.84 Q973.784 1378.57 973.126 1380.13 Q972.486 1381.68 970.775 1383.78 Q970.305 1384.33 967.784 1386.94 Q965.264 1389.54 960.675 1394.22 Z" fill="#000000" fill-rule="nonzero" fill-opacity="1" /><path clip-path="url(#clip180)" d="M2164.47 1420.89 L2172.11 1420.89 L2172.11 1394.53 L2163.8 1396.19 L2163.8 1391.94 L2172.06 1390.27 L2176.74 1390.27 L2176.74 1420.89 L2184.38 1420.89 L2184.38 1424.83 L2164.47 1424.83 L2164.47 1420.89 Z" fill="#000000" fill-rule="nonzero" fill-opacity="1" /><path clip-path="url(#clip180)" d="M2203.82 1393.35 Q2200.21 1393.35 2198.38 1396.91 Q2196.57 1400.45 2196.57 1407.58 Q2196.57 1414.69 2198.38 1418.25 Q2200.21 1421.8 2203.82 1421.8 Q2207.45 1421.8 2209.26 1418.25 Q2211.09 1414.69 2211.09 1407.58 Q2211.09 1400.45 2209.26 1396.91 Q2207.45 1393.35 2203.82 1393.35 M2203.82 1389.64 Q2209.63 1389.64 2212.69 1394.25 Q2215.76 1398.83 2215.76 1407.58 Q2215.76 1416.31 2212.69 1420.92 Q2209.63 1425.5 2203.82 1425.5 Q2198.01 1425.5 2194.93 1420.92 Q2191.88 1416.31 2191.88 1407.58 Q2191.88 1398.83 2194.93 1394.25 Q2198.01 1389.64 2203.82 1389.64 Z" fill="#000000" fill-rule="nonzero" fill-opacity="1" /><path clip-path="url(#clip180)" d="M2228.44 1372.65 L2218.85 1387.64 L2228.44 1387.64 L2228.44 1372.65 M2227.44 1369.34 L2232.22 1369.34 L2232.22 1387.64 L2236.23 1387.64 L2236.23 1390.8 L2232.22 1390.8 L2232.22 1397.42 L2228.44 1397.42 L2228.44 1390.8 L2215.76 1390.8 L2215.76 1387.13 L2227.44 1369.34 Z" fill="#000000" fill-rule="nonzero" fill-opacity="1" /><path clip-path="url(#clip180)" d="M1174.47 1490.1 L1174.47 1492.96 L1147.54 1492.96 Q1147.92 1499.01 1151.17 1502.19 Q1154.45 1505.34 1160.27 1505.34 Q1163.65 1505.34 1166.8 1504.52 Q1169.98 1503.69 1173.1 1502.03 L1173.1 1507.57 Q1169.95 1508.91 1166.64 1509.61 Q1163.33 1510.31 1159.92 1510.31 Q1151.39 1510.31 1146.4 1505.34 Q1141.43 1500.38 1141.43 1491.91 Q1141.43 1483.16 1146.14 1478.03 Q1150.88 1472.88 1158.91 1472.88 Q1166.1 1472.88 1170.27 1477.53 Q1174.47 1482.14 1174.47 1490.1 M1168.61 1488.38 Q1168.55 1483.57 1165.91 1480.71 Q1163.3 1477.84 1158.97 1477.84 Q1154.07 1477.84 1151.11 1480.61 Q1148.18 1483.38 1147.73 1488.41 L1168.61 1488.38 Z" fill="#000000" fill-rule="nonzero" fill-opacity="1" /><path clip-path="url(#clip180)" d="M1189.75 1504.04 L1189.75 1522.94 L1183.86 1522.94 L1183.86 1473.74 L1189.75 1473.74 L1189.75 1479.15 Q1191.59 1475.97 1194.39 1474.44 Q1197.23 1472.88 1201.14 1472.88 Q1207.64 1472.88 1211.68 1478.03 Q1215.75 1483.19 1215.75 1491.59 Q1215.75 1500 1211.68 1505.15 Q1207.64 1510.31 1201.14 1510.31 Q1197.23 1510.31 1194.39 1508.78 Q1191.59 1507.22 1189.75 1504.04 M1209.67 1491.59 Q1209.67 1485.13 1207 1481.47 Q1204.36 1477.78 1199.71 1477.78 Q1195.06 1477.78 1192.39 1481.47 Q1189.75 1485.13 1189.75 1491.59 Q1189.75 1498.05 1192.39 1501.75 Q1195.06 1505.41 1199.71 1505.41 Q1204.36 1505.41 1207 1501.75 Q1209.67 1498.05 1209.67 1491.59 Z" fill="#000000" fill-rule="nonzero" fill-opacity="1" /><path clip-path="url(#clip180)" d="M1239.27 1477.84 Q1234.56 1477.84 1231.82 1481.54 Q1229.09 1485.2 1229.09 1491.59 Q1229.09 1497.99 1231.79 1501.68 Q1234.53 1505.34 1239.27 1505.34 Q1243.95 1505.34 1246.69 1501.65 Q1249.43 1497.96 1249.43 1491.59 Q1249.43 1485.26 1246.69 1481.57 Q1243.95 1477.84 1239.27 1477.84 M1239.27 1472.88 Q1246.91 1472.88 1251.27 1477.84 Q1255.63 1482.81 1255.63 1491.59 Q1255.63 1500.35 1251.27 1505.34 Q1246.91 1510.31 1239.27 1510.31 Q1231.6 1510.31 1227.24 1505.34 Q1222.91 1500.35 1222.91 1491.59 Q1222.91 1482.81 1227.24 1477.84 Q1231.6 1472.88 1239.27 1472.88 Z" fill="#000000" fill-rule="nonzero" fill-opacity="1" /><path clip-path="url(#clip180)" d="M1290.99 1475.11 L1290.99 1480.58 Q1288.51 1479.21 1286 1478.54 Q1283.51 1477.84 1280.97 1477.84 Q1275.27 1477.84 1272.12 1481.47 Q1268.97 1485.07 1268.97 1491.59 Q1268.97 1498.12 1272.12 1501.75 Q1275.27 1505.34 1280.97 1505.34 Q1283.51 1505.34 1286 1504.67 Q1288.51 1503.97 1290.99 1502.61 L1290.99 1508.02 Q1288.54 1509.16 1285.9 1509.74 Q1283.29 1510.31 1280.33 1510.31 Q1272.28 1510.31 1267.54 1505.25 Q1262.79 1500.19 1262.79 1491.59 Q1262.79 1482.87 1267.57 1477.88 Q1272.37 1472.88 1280.71 1472.88 Q1283.42 1472.88 1286 1473.45 Q1288.58 1473.99 1290.99 1475.11 Z" fill="#000000" fill-rule="nonzero" fill-opacity="1" /><path clip-path="url(#clip180)" d="M1330.81 1487.87 L1330.81 1509.39 L1324.96 1509.39 L1324.96 1488.06 Q1324.96 1483 1322.98 1480.49 Q1321.01 1477.97 1317.06 1477.97 Q1312.32 1477.97 1309.58 1480.99 Q1306.84 1484.02 1306.84 1489.24 L1306.84 1509.39 L1300.96 1509.39 L1300.96 1459.86 L1306.84 1459.86 L1306.84 1479.28 Q1308.95 1476.06 1311.78 1474.47 Q1314.64 1472.88 1318.37 1472.88 Q1324.51 1472.88 1327.66 1476.7 Q1330.81 1480.49 1330.81 1487.87 Z" fill="#000000" fill-rule="nonzero" fill-opacity="1" /><path clip-path="url(#clip180)" d="M1365.22 1474.79 L1365.22 1480.33 Q1362.74 1479.05 1360.06 1478.42 Q1357.39 1477.78 1354.52 1477.78 Q1350.16 1477.78 1347.97 1479.12 Q1345.8 1480.45 1345.8 1483.13 Q1345.8 1485.16 1347.36 1486.34 Q1348.92 1487.49 1353.63 1488.54 L1355.64 1488.98 Q1361.88 1490.32 1364.49 1492.77 Q1367.13 1495.19 1367.13 1499.55 Q1367.13 1504.52 1363.18 1507.41 Q1359.27 1510.31 1352.39 1510.31 Q1349.53 1510.31 1346.41 1509.74 Q1343.32 1509.19 1339.88 1508.08 L1339.88 1502.03 Q1343.13 1503.72 1346.28 1504.58 Q1349.43 1505.41 1352.52 1505.41 Q1356.66 1505.41 1358.88 1504.01 Q1361.11 1502.57 1361.11 1500 Q1361.11 1497.61 1359.49 1496.34 Q1357.9 1495.06 1352.46 1493.88 L1350.42 1493.41 Q1344.98 1492.26 1342.56 1489.91 Q1340.14 1487.52 1340.14 1483.38 Q1340.14 1478.35 1343.7 1475.62 Q1347.27 1472.88 1353.82 1472.88 Q1357.07 1472.88 1359.93 1473.36 Q1362.8 1473.83 1365.22 1474.79 Z" fill="#000000" fill-rule="nonzero" fill-opacity="1" /><polyline clip-path="url(#clip182)" style="stroke:#000000; stroke-linecap:round; stroke-linejoin:round; stroke-width:2; stroke-opacity:0.1; fill:none" points="251.804,1247.77 2256.76,1247.77 "/>
<polyline clip-path="url(#clip182)" style="stroke:#000000; stroke-linecap:round; stroke-linejoin:round; stroke-width:2; stroke-opacity:0.1; fill:none" points="251.804,886.874 2256.76,886.874 "/>
<polyline clip-path="url(#clip182)" style="stroke:#000000; stroke-linecap:round; stroke-linejoin:round; stroke-width:2; stroke-opacity:0.1; fill:none" points="251.804,525.979 2256.76,525.979 "/>
<polyline clip-path="url(#clip182)" style="stroke:#000000; stroke-linecap:round; stroke-linejoin:round; stroke-width:2; stroke-opacity:0.1; fill:none" points="251.804,165.084 2256.76,165.084 "/>
<polyline clip-path="url(#clip180)" style="stroke:#000000; stroke-linecap:round; stroke-linejoin:round; stroke-width:4; stroke-opacity:1; fill:none" points="251.804,1347.54 251.804,47.2441 "/>
<polyline clip-path="url(#clip180)" style="stroke:#000000; stroke-linecap:round; stroke-linejoin:round; stroke-width:4; stroke-opacity:1; fill:none" points="251.804,1247.77 270.702,1247.77 "/>
<polyline clip-path="url(#clip180)" style="stroke:#000000; stroke-linecap:round; stroke-linejoin:round; stroke-width:4; stroke-opacity:1; fill:none" points="251.804,886.874 270.702,886.874 "/>
<polyline clip-path="url(#clip180)" style="stroke:#000000; stroke-linecap:round; stroke-linejoin:round; stroke-width:4; stroke-opacity:1; fill:none" points="251.804,525.979 270.702,525.979 "/>
<polyline clip-path="url(#clip180)" style="stroke:#000000; stroke-linecap:round; stroke-linejoin:round; stroke-width:4; stroke-opacity:1; fill:none" points="251.804,165.084 270.702,165.084 "/>
<path clip-path="url(#clip180)" d="M115.675 1267.56 L123.314 1267.56 L123.314 1241.2 L115.003 1242.86 L115.003 1238.6 L123.267 1236.94 L127.943 1236.94 L127.943 1267.56 L135.582 1267.56 L135.582 1271.5 L115.675 1271.5 L115.675 1267.56 Z" fill="#000000" fill-rule="nonzero" fill-opacity="1" /><path clip-path="url(#clip180)" d="M155.026 1240.02 Q151.415 1240.02 149.587 1243.58 Q147.781 1247.12 147.781 1254.25 Q147.781 1261.36 149.587 1264.92 Q151.415 1268.46 155.026 1268.46 Q158.661 1268.46 160.466 1264.92 Q162.295 1261.36 162.295 1254.25 Q162.295 1247.12 160.466 1243.58 Q158.661 1240.02 155.026 1240.02 M155.026 1236.31 Q160.837 1236.31 163.892 1240.92 Q166.971 1245.5 166.971 1254.25 Q166.971 1262.98 163.892 1267.58 Q160.837 1272.17 155.026 1272.17 Q149.216 1272.17 146.138 1267.58 Q143.082 1262.98 143.082 1254.25 Q143.082 1245.5 146.138 1240.92 Q149.216 1236.31 155.026 1236.31 Z" fill="#000000" fill-rule="nonzero" fill-opacity="1" /><path clip-path="url(#clip180)" d="M166.971 1230.41 L191.082 1230.41 L191.082 1233.61 L166.971 1233.61 L166.971 1230.41 Z" fill="#000000" fill-rule="nonzero" fill-opacity="1" /><path clip-path="url(#clip180)" d="M207.878 1228.53 Q205.32 1228.53 203.815 1230.28 Q202.329 1232.03 202.329 1235.08 Q202.329 1238.11 203.815 1239.87 Q205.32 1241.62 207.878 1241.62 Q210.436 1241.62 211.921 1239.87 Q213.426 1238.11 213.426 1235.08 Q213.426 1232.03 211.921 1230.28 Q210.436 1228.53 207.878 1228.53 M215.42 1216.63 L215.42 1220.09 Q213.99 1219.41 212.523 1219.05 Q211.075 1218.7 209.646 1218.7 Q205.884 1218.7 203.89 1221.23 Q201.916 1223.77 201.633 1228.91 Q202.743 1227.27 204.417 1226.41 Q206.091 1225.52 208.103 1225.52 Q212.335 1225.52 214.78 1228.1 Q217.244 1230.66 217.244 1235.08 Q217.244 1239.4 214.686 1242.02 Q212.128 1244.63 207.878 1244.63 Q203.006 1244.63 200.43 1240.91 Q197.853 1237.16 197.853 1230.07 Q197.853 1223.42 201.013 1219.47 Q204.173 1215.5 209.495 1215.5 Q210.925 1215.5 212.373 1215.78 Q213.84 1216.06 215.42 1216.63 Z" fill="#000000" fill-rule="nonzero" fill-opacity="1" /><path clip-path="url(#clip180)" d="M116.615 906.666 L124.254 906.666 L124.254 880.301 L115.944 881.967 L115.944 877.708 L124.208 876.041 L128.884 876.041 L128.884 906.666 L136.522 906.666 L136.522 910.601 L116.615 910.601 L116.615 906.666 Z" fill="#000000" fill-rule="nonzero" fill-opacity="1" /><path clip-path="url(#clip180)" d="M155.967 879.12 Q152.356 879.12 150.527 882.685 Q148.721 886.227 148.721 893.356 Q148.721 900.463 150.527 904.027 Q152.356 907.569 155.967 907.569 Q159.601 907.569 161.407 904.027 Q163.235 900.463 163.235 893.356 Q163.235 886.227 161.407 882.685 Q159.601 879.12 155.967 879.12 M155.967 875.416 Q161.777 875.416 164.832 880.023 Q167.911 884.606 167.911 893.356 Q167.911 902.083 164.832 906.689 Q161.777 911.273 155.967 911.273 Q150.157 911.273 147.078 906.689 Q144.022 902.083 144.022 893.356 Q144.022 884.606 147.078 880.023 Q150.157 875.416 155.967 875.416 Z" fill="#000000" fill-rule="nonzero" fill-opacity="1" /><path clip-path="url(#clip180)" d="M167.911 869.518 L192.023 869.518 L192.023 872.715 L167.911 872.715 L167.911 869.518 Z" fill="#000000" fill-rule="nonzero" fill-opacity="1" /><path clip-path="url(#clip180)" d="M200.261 855.111 L215.175 855.111 L215.175 858.308 L203.74 858.308 L203.74 865.192 Q204.568 864.91 205.395 864.778 Q206.223 864.628 207.05 864.628 Q211.752 864.628 214.498 867.204 Q217.244 869.781 217.244 874.182 Q217.244 878.715 214.423 881.235 Q211.602 883.737 206.467 883.737 Q204.699 883.737 202.856 883.436 Q201.032 883.135 199.076 882.533 L199.076 878.715 Q200.768 879.636 202.574 880.088 Q204.379 880.539 206.392 880.539 Q209.646 880.539 211.545 878.828 Q213.445 877.116 213.445 874.182 Q213.445 871.248 211.545 869.537 Q209.646 867.825 206.392 867.825 Q204.868 867.825 203.345 868.164 Q201.84 868.502 200.261 869.217 L200.261 855.111 Z" fill="#000000" fill-rule="nonzero" fill-opacity="1" /><path clip-path="url(#clip180)" d="M115.411 545.771 L123.05 545.771 L123.05 519.406 L114.74 521.072 L114.74 516.813 L123.004 515.146 L127.68 515.146 L127.68 545.771 L135.319 545.771 L135.319 549.706 L115.411 549.706 L115.411 545.771 Z" fill="#000000" fill-rule="nonzero" fill-opacity="1" /><path clip-path="url(#clip180)" d="M154.763 518.225 Q151.152 518.225 149.323 521.79 Q147.518 525.332 147.518 532.461 Q147.518 539.568 149.323 543.132 Q151.152 546.674 154.763 546.674 Q158.397 546.674 160.203 543.132 Q162.032 539.568 162.032 532.461 Q162.032 525.332 160.203 521.79 Q158.397 518.225 154.763 518.225 M154.763 514.521 Q160.573 514.521 163.629 519.128 Q166.707 523.711 166.707 532.461 Q166.707 541.188 163.629 545.794 Q160.573 550.378 154.763 550.378 Q148.953 550.378 145.874 545.794 Q142.819 541.188 142.819 532.461 Q142.819 523.711 145.874 519.128 Q148.953 514.521 154.763 514.521 Z" fill="#000000" fill-rule="nonzero" fill-opacity="1" /><path clip-path="url(#clip180)" d="M166.707 508.623 L190.819 508.623 L190.819 511.82 L166.707 511.82 L166.707 508.623 Z" fill="#000000" fill-rule="nonzero" fill-opacity="1" /><path clip-path="url(#clip180)" d="M209.458 497.526 L199.866 512.516 L209.458 512.516 L209.458 497.526 M208.461 494.216 L213.238 494.216 L213.238 512.516 L217.244 512.516 L217.244 515.676 L213.238 515.676 L213.238 522.296 L209.458 522.296 L209.458 515.676 L196.781 515.676 L196.781 512.008 L208.461 494.216 Z" fill="#000000" fill-rule="nonzero" fill-opacity="1" /><path clip-path="url(#clip180)" d="M116.333 184.876 L123.972 184.876 L123.972 158.51 L115.662 160.177 L115.662 155.918 L123.926 154.251 L128.601 154.251 L128.601 184.876 L136.24 184.876 L136.24 188.811 L116.333 188.811 L116.333 184.876 Z" fill="#000000" fill-rule="nonzero" fill-opacity="1" /><path clip-path="url(#clip180)" d="M155.685 157.33 Q152.074 157.33 150.245 160.895 Q148.439 164.436 148.439 171.566 Q148.439 178.672 150.245 182.237 Q152.074 185.779 155.685 185.779 Q159.319 185.779 161.124 182.237 Q162.953 178.672 162.953 171.566 Q162.953 164.436 161.124 160.895 Q159.319 157.33 155.685 157.33 M155.685 153.626 Q161.495 153.626 164.55 158.233 Q167.629 162.816 167.629 171.566 Q167.629 180.293 164.55 184.899 Q161.495 189.483 155.685 189.483 Q149.875 189.483 146.796 184.899 Q143.74 180.293 143.74 171.566 Q143.74 162.816 146.796 158.233 Q149.875 153.626 155.685 153.626 Z" fill="#000000" fill-rule="nonzero" fill-opacity="1" /><path clip-path="url(#clip180)" d="M167.629 147.728 L191.741 147.728 L191.741 150.925 L167.629 150.925 L167.629 147.728 Z" fill="#000000" fill-rule="nonzero" fill-opacity="1" /><path clip-path="url(#clip180)" d="M211.451 146.261 Q214.178 146.844 215.702 148.687 Q217.244 150.53 217.244 153.238 Q217.244 157.395 214.385 159.671 Q211.526 161.946 206.26 161.946 Q204.492 161.946 202.612 161.589 Q200.75 161.25 198.756 160.554 L198.756 156.887 Q200.336 157.809 202.217 158.279 Q204.097 158.749 206.147 158.749 Q209.721 158.749 211.583 157.338 Q213.464 155.928 213.464 153.238 Q213.464 150.756 211.714 149.364 Q209.984 147.953 206.881 147.953 L203.608 147.953 L203.608 144.831 L207.031 144.831 Q209.834 144.831 211.32 143.722 Q212.805 142.593 212.805 140.487 Q212.805 138.324 211.263 137.176 Q209.74 136.01 206.881 136.01 Q205.32 136.01 203.533 136.349 Q201.746 136.687 199.602 137.402 L199.602 134.017 Q201.765 133.415 203.646 133.114 Q205.546 132.813 207.219 132.813 Q211.545 132.813 214.065 134.788 Q216.586 136.744 216.586 140.092 Q216.586 142.424 215.25 144.041 Q213.915 145.64 211.451 146.261 Z" fill="#000000" fill-rule="nonzero" fill-opacity="1" /><path clip-path="url(#clip180)" d="M18.4042 761.509 L18.4042 751.929 L50.7419 739.802 L18.4042 727.612 L18.4042 718.031 L65.9242 718.031 L65.9242 724.301 L24.197 724.301 L56.7894 736.555 L56.7894 743.017 L24.197 755.271 L65.9242 755.271 L65.9242 761.509 L18.4042 761.509 Z" fill="#000000" fill-rule="nonzero" fill-opacity="1" /><path clip-path="url(#clip180)" d="M19.9638 676.781 L26.234 676.781 Q24.4834 680.442 23.624 683.688 Q22.7647 686.935 22.7647 689.958 Q22.7647 695.21 24.8017 698.075 Q26.8387 700.907 30.5945 700.907 Q33.7455 700.907 35.3688 699.03 Q36.9602 697.12 37.9469 691.836 L38.7426 687.953 Q40.1112 680.76 43.5805 677.354 Q47.018 673.917 52.8108 673.917 Q59.7176 673.917 63.2824 678.564 Q66.8472 683.179 66.8472 692.123 Q66.8472 695.497 66.0833 699.316 Q65.3194 703.104 63.8235 707.178 L57.2031 707.178 Q59.3993 703.263 60.5133 699.507 Q61.6273 695.751 61.6273 692.123 Q61.6273 686.616 59.463 683.625 Q57.2986 680.633 53.2882 680.633 Q49.7871 680.633 47.8137 682.797 Q45.8404 684.929 44.8537 689.831 L44.0898 693.746 Q42.6575 700.939 39.602 704.154 Q36.5464 707.369 31.1037 707.369 Q24.8017 707.369 21.1732 702.944 Q17.5448 698.488 17.5448 690.69 Q17.5448 687.348 18.1495 683.879 Q18.7543 680.41 19.9638 676.781 Z" fill="#000000" fill-rule="nonzero" fill-opacity="1" /><path clip-path="url(#clip180)" d="M18.4042 663.891 L18.4042 633.845 L23.815 633.845 L23.815 657.461 L37.8832 657.461 L37.8832 634.831 L43.2941 634.831 L43.2941 657.461 L60.5133 657.461 L60.5133 633.272 L65.9242 633.272 L65.9242 663.891 L18.4042 663.891 Z" fill="#000000" fill-rule="nonzero" fill-opacity="1" /><circle clip-path="url(#clip182)" cx="308.548" cy="242.811" r="18" fill="#78c2ad" fill-rule="evenodd" fill-opacity="0.6" stroke="#000000" stroke-opacity="0.6" stroke-width="3.072"/>
<circle clip-path="url(#clip182)" cx="939.036" cy="600.292" r="18" fill="#78c2ad" fill-rule="evenodd" fill-opacity="0.6" stroke="#000000" stroke-opacity="0.6" stroke-width="3.072"/>
<circle clip-path="url(#clip182)" cx="1569.52" cy="966.696" r="18" fill="#78c2ad" fill-rule="evenodd" fill-opacity="0.6" stroke="#000000" stroke-opacity="0.6" stroke-width="3.072"/>
<circle clip-path="url(#clip182)" cx="2200.01" cy="1303.7" r="18" fill="#78c2ad" fill-rule="evenodd" fill-opacity="0.6" stroke="#000000" stroke-opacity="0.6" stroke-width="3.072"/>
<polyline clip-path="url(#clip182)" style="stroke:#78c2ad; stroke-linecap:round; stroke-linejoin:round; stroke-width:8; stroke-opacity:1; fill:none" points="308.548,246.014 327.654,256.769 346.759,267.523 365.865,278.278 384.971,289.033 404.076,299.788 423.182,310.542 442.288,321.297 461.393,332.052 480.499,342.807 499.605,353.562 518.711,364.316 537.816,375.071 556.922,385.826 576.028,396.581 595.133,407.335 614.239,418.09 633.345,428.845 652.45,439.6 671.556,450.354 690.662,461.109 709.768,471.864 728.873,482.619 747.979,493.374 767.085,504.128 786.19,514.883 805.296,525.638 824.402,536.393 843.507,547.147 862.613,557.902 881.719,568.657 900.825,579.412 919.93,590.166 939.036,600.921 958.142,611.676 977.247,622.431 996.353,633.186 1015.46,643.94 1034.56,654.695 1053.67,665.45 1072.78,676.205 1091.88,686.959 1110.99,697.714 1130.09,708.469 1149.2,719.224 1168.3,729.978 1187.41,740.733 1206.52,751.488 1225.62,762.243 1244.73,772.997 1263.83,783.752 1282.94,794.507 1302.04,805.262 1321.15,816.017 1340.26,826.771 1359.36,837.526 1378.47,848.281 1397.57,859.036 1416.68,869.79 1435.78,880.545 1454.89,891.3 1474,902.055 1493.1,912.809 1512.21,923.564 1531.31,934.319 1550.42,945.074 1569.52,955.829 1588.63,966.583 1607.74,977.338 1626.84,988.093 1645.95,998.848 1665.05,1009.6 1684.16,1020.36 1703.26,1031.11 1722.37,1041.87 1741.48,1052.62 1760.58,1063.38 1779.69,1074.13 1798.79,1084.89 1817.9,1095.64 1837,1106.4 1856.11,1117.15 1875.22,1127.9 1894.32,1138.66 1913.43,1149.41 1932.53,1160.17 1951.64,1170.92 1970.74,1181.68 1989.85,1192.43 2008.96,1203.19 2028.06,1213.94 2047.17,1224.7 2066.27,1235.45 2085.38,1246.21 2104.48,1256.96 2123.59,1267.72 2142.69,1278.47 2161.8,1289.23 2180.91,1299.98 2200.01,1310.74 "/>
<circle clip-path="url(#clip182)" cx="308.548" cy="92.7337" r="18" fill="#e95420" fill-rule="evenodd" fill-opacity="0.6" stroke="#000000" stroke-opacity="0.6" stroke-width="3.072"/>
<circle clip-path="url(#clip182)" cx="939.036" cy="408.699" r="18" fill="#e95420" fill-rule="evenodd" fill-opacity="0.6" stroke="#000000" stroke-opacity="0.6" stroke-width="3.072"/>
<circle clip-path="url(#clip182)" cx="1569.52" cy="770.806" r="18" fill="#e95420" fill-rule="evenodd" fill-opacity="0.6" stroke="#000000" stroke-opacity="0.6" stroke-width="3.072"/>
<circle clip-path="url(#clip182)" cx="2200.01" cy="1107.14" r="18" fill="#e95420" fill-rule="evenodd" fill-opacity="0.6" stroke="#000000" stroke-opacity="0.6" stroke-width="3.072"/>
<polyline clip-path="url(#clip182)" style="stroke:#e95420; stroke-linecap:round; stroke-linejoin:round; stroke-width:8; stroke-opacity:1; fill:none" stroke-dasharray="32, 20" points="308.548,84.0448 327.654,94.364 346.759,104.683 365.865,115.002 384.971,125.322 404.076,135.641 423.182,145.96 442.288,156.279 461.393,166.599 480.499,176.918 499.605,187.237 518.711,197.556 537.816,207.875 556.922,218.195 576.028,228.514 595.133,238.833 614.239,249.152 633.345,259.471 652.45,269.791 671.556,280.11 690.662,290.429 709.768,300.748 728.873,311.067 747.979,321.387 767.085,331.706 786.19,342.025 805.296,352.344 824.402,362.663 843.507,372.983 862.613,383.302 881.719,393.621 900.825,403.94 919.93,414.26 939.036,424.579 958.142,434.898 977.247,445.217 996.353,455.536 1015.46,465.856 1034.56,476.175 1053.67,486.494 1072.78,496.813 1091.88,507.132 1110.99,517.452 1130.09,527.771 1149.2,538.09 1168.3,548.409 1187.41,558.728 1206.52,569.048 1225.62,579.367 1244.73,589.686 1263.83,600.005 1282.94,610.325 1302.04,620.644 1321.15,630.963 1340.26,641.282 1359.36,651.601 1378.47,661.921 1397.57,672.24 1416.68,682.559 1435.78,692.878 1454.89,703.197 1474,713.517 1493.1,723.836 1512.21,734.155 1531.31,744.474 1550.42,754.793 1569.52,765.113 1588.63,775.432 1607.74,785.751 1626.84,796.07 1645.95,806.389 1665.05,816.709 1684.16,827.028 1703.26,837.347 1722.37,847.666 1741.48,857.986 1760.58,868.305 1779.69,878.624 1798.79,888.943 1817.9,899.262 1837,909.582 1856.11,919.901 1875.22,930.22 1894.32,940.539 1913.43,950.858 1932.53,961.178 1951.64,971.497 1970.74,981.816 1989.85,992.135 2008.96,1002.45 2028.06,1012.77 2047.17,1023.09 2066.27,1033.41 2085.38,1043.73 2104.48,1054.05 2123.59,1064.37 2142.69,1074.69 2161.8,1085.01 2180.91,1095.33 2200.01,1105.65 "/>
<path clip-path="url(#clip180)" d="M1315.01 246.107 L2189.92 246.107 L2189.92 90.5872 L1315.01 90.5872  Z" fill="#ffffff" fill-rule="evenodd" fill-opacity="1"/>
<polyline clip-path="url(#clip180)" style="stroke:#000000; stroke-linecap:round; stroke-linejoin:round; stroke-width:4; stroke-opacity:1; fill:none" points="1315.01,246.107 2189.92,246.107 2189.92,90.5872 1315.01,90.5872 1315.01,246.107 "/>
<polyline clip-path="url(#clip180)" style="stroke:#78c2ad; stroke-linecap:round; stroke-linejoin:round; stroke-width:8; stroke-opacity:1; fill:none" points="1337.29,142.427 1470.95,142.427 "/>
<path clip-path="url(#clip180)" d="M1493.76 125.147 L1520.91 125.147 L1520.91 128.712 L1499.06 155.772 L1521.45 155.772 L1521.45 159.707 L1493.23 159.707 L1493.23 156.142 L1515.08 129.082 L1493.76 129.082 L1493.76 125.147 Z" fill="#000000" fill-rule="nonzero" fill-opacity="1" /><path clip-path="url(#clip180)" d="M1526.24 125.147 L1553.39 125.147 L1553.39 128.712 L1531.54 155.772 L1553.92 155.772 L1553.92 159.707 L1525.71 159.707 L1525.71 156.142 L1547.56 129.082 L1526.24 129.082 L1526.24 125.147 Z" fill="#000000" fill-rule="nonzero" fill-opacity="1" /><polyline clip-path="url(#clip180)" style="stroke:#e95420; stroke-linecap:round; stroke-linejoin:round; stroke-width:8; stroke-opacity:1; fill:none" stroke-dasharray="32, 20" points="1337.29,194.267 1470.95,194.267 "/>
<path clip-path="url(#clip180)" d="M1493.76 176.987 L1520.91 176.987 L1520.91 180.552 L1499.06 207.612 L1521.45 207.612 L1521.45 211.547 L1493.23 211.547 L1493.23 207.982 L1515.08 180.922 L1493.76 180.922 L1493.76 176.987 Z" fill="#000000" fill-rule="nonzero" fill-opacity="1" /><path clip-path="url(#clip180)" d="M1526.24 176.987 L1553.39 176.987 L1553.39 180.552 L1531.54 207.612 L1553.92 207.612 L1553.92 211.547 L1525.71 211.547 L1525.71 207.982 L1547.56 180.922 L1526.24 180.922 L1526.24 176.987 Z" fill="#000000" fill-rule="nonzero" fill-opacity="1" /><path clip-path="url(#clip180)" d="M1557.53 196.663 L1570.01 196.663 L1570.01 200.459 L1557.53 200.459 L1557.53 196.663 Z" fill="#000000" fill-rule="nonzero" fill-opacity="1" /><path clip-path="url(#clip180)" d="M1602.86 179.649 L1602.86 184.58 Q1600.5 182.381 1597.81 181.293 Q1595.15 180.205 1592.14 180.205 Q1586.21 180.205 1583.07 183.839 Q1579.92 187.45 1579.92 194.302 Q1579.92 201.131 1583.07 204.765 Q1586.21 208.376 1592.14 208.376 Q1595.15 208.376 1597.81 207.288 Q1600.5 206.2 1602.86 204.001 L1602.86 208.885 Q1600.4 210.552 1597.65 211.385 Q1594.92 212.218 1591.86 212.218 Q1584.02 212.218 1579.5 207.427 Q1574.99 202.612 1574.99 194.302 Q1574.99 185.969 1579.5 181.177 Q1584.02 176.362 1591.86 176.362 Q1594.96 176.362 1597.7 177.196 Q1600.45 178.006 1602.86 179.649 Z" fill="#000000" fill-rule="nonzero" fill-opacity="1" /><path clip-path="url(#clip180)" d="M1618.99 211.547 L1605.8 176.987 L1610.68 176.987 L1621.63 206.084 L1632.6 176.987 L1637.46 176.987 L1624.29 211.547 L1618.99 211.547 Z" fill="#000000" fill-rule="nonzero" fill-opacity="1" /><path clip-path="url(#clip180)" d="M1667.63 175.575 Q1664.52 180.899 1663.02 186.108 Q1661.52 191.316 1661.52 196.663 Q1661.52 202.01 1663.02 207.265 Q1664.55 212.496 1667.63 217.797 L1663.92 217.797 Q1660.45 212.357 1658.71 207.103 Q1657 201.848 1657 196.663 Q1657 191.501 1658.71 186.27 Q1660.43 181.038 1663.92 175.575 L1667.63 175.575 Z" fill="#000000" fill-rule="nonzero" fill-opacity="1" /><path clip-path="url(#clip180)" d="M1673.41 185.621 L1677.67 185.621 L1683 205.853 L1688.3 185.621 L1693.32 185.621 L1698.64 205.853 L1703.95 185.621 L1708.2 185.621 L1701.42 211.547 L1696.4 211.547 L1690.82 190.297 L1685.22 211.547 L1680.2 211.547 L1673.41 185.621 Z" fill="#000000" fill-rule="nonzero" fill-opacity="1" /><path clip-path="url(#clip180)" d="M1714.66 185.621 L1718.92 185.621 L1718.92 211.547 L1714.66 211.547 L1714.66 185.621 M1714.66 175.529 L1718.92 175.529 L1718.92 180.922 L1714.66 180.922 L1714.66 175.529 Z" fill="#000000" fill-rule="nonzero" fill-opacity="1" /><path clip-path="url(#clip180)" d="M1732.05 178.26 L1732.05 185.621 L1740.82 185.621 L1740.82 188.932 L1732.05 188.932 L1732.05 203.006 Q1732.05 206.177 1732.9 207.08 Q1733.78 207.982 1736.45 207.982 L1740.82 207.982 L1740.82 211.547 L1736.45 211.547 Q1731.52 211.547 1729.64 209.718 Q1727.77 207.867 1727.77 203.006 L1727.77 188.932 L1724.64 188.932 L1724.64 185.621 L1727.77 185.621 L1727.77 178.26 L1732.05 178.26 Z" fill="#000000" fill-rule="nonzero" fill-opacity="1" /><path clip-path="url(#clip180)" d="M1767.97 195.899 L1767.97 211.547 L1763.71 211.547 L1763.71 196.038 Q1763.71 192.357 1762.28 190.529 Q1760.84 188.7 1757.97 188.7 Q1754.52 188.7 1752.53 190.899 Q1750.54 193.098 1750.54 196.894 L1750.54 211.547 L1746.26 211.547 L1746.26 175.529 L1750.54 175.529 L1750.54 189.649 Q1752.07 187.311 1754.13 186.154 Q1756.21 184.996 1758.92 184.996 Q1763.39 184.996 1765.68 187.774 Q1767.97 190.529 1767.97 195.899 Z" fill="#000000" fill-rule="nonzero" fill-opacity="1" /><path clip-path="url(#clip180)" d="M1786.51 188.607 Q1783.09 188.607 1781.1 191.293 Q1779.11 193.955 1779.11 198.607 Q1779.11 203.26 1781.07 205.945 Q1783.07 208.607 1786.51 208.607 Q1789.92 208.607 1791.91 205.922 Q1793.9 203.237 1793.9 198.607 Q1793.9 194.001 1791.91 191.316 Q1789.92 188.607 1786.51 188.607 M1786.51 184.996 Q1792.07 184.996 1795.24 188.607 Q1798.41 192.219 1798.41 198.607 Q1798.41 204.973 1795.24 208.607 Q1792.07 212.218 1786.51 212.218 Q1780.94 212.218 1777.76 208.607 Q1774.62 204.973 1774.62 198.607 Q1774.62 192.219 1777.76 188.607 Q1780.94 184.996 1786.51 184.996 Z" fill="#000000" fill-rule="nonzero" fill-opacity="1" /><path clip-path="url(#clip180)" d="M1805.03 201.316 L1805.03 185.621 L1809.29 185.621 L1809.29 201.154 Q1809.29 204.834 1810.73 206.686 Q1812.16 208.515 1815.03 208.515 Q1818.48 208.515 1820.47 206.316 Q1822.49 204.117 1822.49 200.32 L1822.49 185.621 L1826.75 185.621 L1826.75 211.547 L1822.49 211.547 L1822.49 207.566 Q1820.94 209.927 1818.88 211.084 Q1816.84 212.218 1814.13 212.218 Q1809.66 212.218 1807.35 209.441 Q1805.03 206.663 1805.03 201.316 M1815.75 184.996 L1815.75 184.996 Z" fill="#000000" fill-rule="nonzero" fill-opacity="1" /><path clip-path="url(#clip180)" d="M1839.73 178.26 L1839.73 185.621 L1848.51 185.621 L1848.51 188.932 L1839.73 188.932 L1839.73 203.006 Q1839.73 206.177 1840.59 207.08 Q1841.47 207.982 1844.13 207.982 L1848.51 207.982 L1848.51 211.547 L1844.13 211.547 Q1839.2 211.547 1837.32 209.718 Q1835.45 207.867 1835.45 203.006 L1835.45 188.932 L1832.32 188.932 L1832.32 185.621 L1835.45 185.621 L1835.45 178.26 L1839.73 178.26 Z" fill="#000000" fill-rule="nonzero" fill-opacity="1" /><path clip-path="url(#clip180)" d="M1880.96 198.515 Q1875.8 198.515 1873.81 199.695 Q1871.82 200.876 1871.82 203.723 Q1871.82 205.992 1873.3 207.334 Q1874.8 208.654 1877.37 208.654 Q1880.91 208.654 1883.04 206.154 Q1885.19 203.631 1885.19 199.464 L1885.19 198.515 L1880.96 198.515 M1889.45 196.756 L1889.45 211.547 L1885.19 211.547 L1885.19 207.612 Q1883.74 209.973 1881.56 211.107 Q1879.38 212.218 1876.24 212.218 Q1872.25 212.218 1869.89 209.996 Q1867.56 207.751 1867.56 204.001 Q1867.56 199.626 1870.47 197.404 Q1873.41 195.182 1879.22 195.182 L1885.19 195.182 L1885.19 194.765 Q1885.19 191.825 1883.25 190.228 Q1881.33 188.607 1877.83 188.607 Q1875.61 188.607 1873.5 189.14 Q1871.4 189.672 1869.45 190.737 L1869.45 186.802 Q1871.79 185.899 1873.99 185.459 Q1876.19 184.996 1878.27 184.996 Q1883.9 184.996 1886.68 187.913 Q1889.45 190.83 1889.45 196.756 Z" fill="#000000" fill-rule="nonzero" fill-opacity="1" /><path clip-path="url(#clip180)" d="M1918.41 190.598 Q1920.01 187.728 1922.23 186.362 Q1924.45 184.996 1927.46 184.996 Q1931.51 184.996 1933.71 187.844 Q1935.91 190.668 1935.91 195.899 L1935.91 211.547 L1931.63 211.547 L1931.63 196.038 Q1931.63 192.311 1930.31 190.506 Q1928.99 188.7 1926.28 188.7 Q1922.97 188.7 1921.05 190.899 Q1919.13 193.098 1919.13 196.894 L1919.13 211.547 L1914.85 211.547 L1914.85 196.038 Q1914.85 192.288 1913.53 190.506 Q1912.21 188.7 1909.45 188.7 Q1906.19 188.7 1904.27 190.922 Q1902.35 193.121 1902.35 196.894 L1902.35 211.547 L1898.07 211.547 L1898.07 185.621 L1902.35 185.621 L1902.35 189.649 Q1903.81 187.265 1905.84 186.131 Q1907.88 184.996 1910.68 184.996 Q1913.5 184.996 1915.47 186.432 Q1917.46 187.867 1918.41 190.598 Z" fill="#000000" fill-rule="nonzero" fill-opacity="1" /><path clip-path="url(#clip180)" d="M1966.58 197.519 L1966.58 199.603 L1947 199.603 Q1947.28 204.001 1949.64 206.316 Q1952.02 208.607 1956.26 208.607 Q1958.71 208.607 1961 208.006 Q1963.32 207.404 1965.59 206.2 L1965.59 210.228 Q1963.3 211.2 1960.89 211.709 Q1958.48 212.218 1956 212.218 Q1949.8 212.218 1946.17 208.607 Q1942.56 204.996 1942.56 198.839 Q1942.56 192.473 1945.98 188.746 Q1949.43 184.996 1955.26 184.996 Q1960.5 184.996 1963.53 188.376 Q1966.58 191.732 1966.58 197.519 M1962.32 196.269 Q1962.28 192.774 1960.36 190.691 Q1958.46 188.607 1955.31 188.607 Q1951.75 188.607 1949.59 190.621 Q1947.46 192.635 1947.14 196.293 L1962.32 196.269 Z" fill="#000000" fill-rule="nonzero" fill-opacity="1" /><path clip-path="url(#clip180)" d="M1995.12 195.899 L1995.12 211.547 L1990.87 211.547 L1990.87 196.038 Q1990.87 192.357 1989.43 190.529 Q1988 188.7 1985.12 188.7 Q1981.68 188.7 1979.68 190.899 Q1977.69 193.098 1977.69 196.894 L1977.69 211.547 L1973.41 211.547 L1973.41 185.621 L1977.69 185.621 L1977.69 189.649 Q1979.22 187.311 1981.28 186.154 Q1983.37 184.996 1986.07 184.996 Q1990.54 184.996 1992.83 187.774 Q1995.12 190.529 1995.12 195.899 Z" fill="#000000" fill-rule="nonzero" fill-opacity="1" /><path clip-path="url(#clip180)" d="M2020.68 189.557 L2020.68 175.529 L2024.94 175.529 L2024.94 211.547 L2020.68 211.547 L2020.68 207.658 Q2019.34 209.973 2017.28 211.107 Q2015.24 212.218 2012.37 212.218 Q2007.67 212.218 2004.71 208.468 Q2001.77 204.719 2001.77 198.607 Q2001.77 192.496 2004.71 188.746 Q2007.67 184.996 2012.37 184.996 Q2015.24 184.996 2017.28 186.131 Q2019.34 187.242 2020.68 189.557 M2006.17 198.607 Q2006.17 203.306 2008.09 205.992 Q2010.03 208.654 2013.41 208.654 Q2016.79 208.654 2018.74 205.992 Q2020.68 203.306 2020.68 198.607 Q2020.68 193.908 2018.74 191.246 Q2016.79 188.561 2013.41 188.561 Q2010.03 188.561 2008.09 191.246 Q2006.17 193.908 2006.17 198.607 Z" fill="#000000" fill-rule="nonzero" fill-opacity="1" /><path clip-path="url(#clip180)" d="M2053.9 190.598 Q2055.49 187.728 2057.72 186.362 Q2059.94 184.996 2062.95 184.996 Q2067 184.996 2069.2 187.844 Q2071.4 190.668 2071.4 195.899 L2071.4 211.547 L2067.12 211.547 L2067.12 196.038 Q2067.12 192.311 2065.8 190.506 Q2064.48 188.7 2061.77 188.7 Q2058.46 188.7 2056.54 190.899 Q2054.62 193.098 2054.62 196.894 L2054.62 211.547 L2050.33 211.547 L2050.33 196.038 Q2050.33 192.288 2049.01 190.506 Q2047.69 188.7 2044.94 188.7 Q2041.68 188.7 2039.75 190.922 Q2037.83 193.121 2037.83 196.894 L2037.83 211.547 L2033.55 211.547 L2033.55 185.621 L2037.83 185.621 L2037.83 189.649 Q2039.29 187.265 2041.33 186.131 Q2043.37 184.996 2046.17 184.996 Q2048.99 184.996 2050.96 186.432 Q2052.95 187.867 2053.9 190.598 Z" fill="#000000" fill-rule="nonzero" fill-opacity="1" /><path clip-path="url(#clip180)" d="M2102.07 197.519 L2102.07 199.603 L2082.49 199.603 Q2082.76 204.001 2085.12 206.316 Q2087.51 208.607 2091.74 208.607 Q2094.2 208.607 2096.49 208.006 Q2098.8 207.404 2101.07 206.2 L2101.07 210.228 Q2098.78 211.2 2096.37 211.709 Q2093.97 212.218 2091.49 212.218 Q2085.29 212.218 2081.65 208.607 Q2078.04 204.996 2078.04 198.839 Q2078.04 192.473 2081.47 188.746 Q2084.92 184.996 2090.75 184.996 Q2095.98 184.996 2099.01 188.376 Q2102.07 191.732 2102.07 197.519 M2097.81 196.269 Q2097.76 192.774 2095.84 190.691 Q2093.94 188.607 2090.8 188.607 Q2087.23 188.607 2085.08 190.621 Q2082.95 192.635 2082.62 196.293 L2097.81 196.269 Z" fill="#000000" fill-rule="nonzero" fill-opacity="1" /><path clip-path="url(#clip180)" d="M2130.61 195.899 L2130.61 211.547 L2126.35 211.547 L2126.35 196.038 Q2126.35 192.357 2124.92 190.529 Q2123.48 188.7 2120.61 188.7 Q2117.16 188.7 2115.17 190.899 Q2113.18 193.098 2113.18 196.894 L2113.18 211.547 L2108.9 211.547 L2108.9 185.621 L2113.18 185.621 L2113.18 189.649 Q2114.71 187.311 2116.77 186.154 Q2118.85 184.996 2121.56 184.996 Q2126.03 184.996 2128.32 187.774 Q2130.61 190.529 2130.61 195.899 Z" fill="#000000" fill-rule="nonzero" fill-opacity="1" /><path clip-path="url(#clip180)" d="M2143.32 178.26 L2143.32 185.621 L2152.09 185.621 L2152.09 188.932 L2143.32 188.932 L2143.32 203.006 Q2143.32 206.177 2144.17 207.08 Q2145.05 207.982 2147.72 207.982 L2152.09 207.982 L2152.09 211.547 L2147.72 211.547 Q2142.79 211.547 2140.91 209.718 Q2139.04 207.867 2139.04 203.006 L2139.04 188.932 L2135.91 188.932 L2135.91 185.621 L2139.04 185.621 L2139.04 178.26 L2143.32 178.26 Z" fill="#000000" fill-rule="nonzero" fill-opacity="1" /><path clip-path="url(#clip180)" d="M2157.02 175.575 L2160.73 175.575 Q2164.2 181.038 2165.91 186.27 Q2167.65 191.501 2167.65 196.663 Q2167.65 201.848 2165.91 207.103 Q2164.2 212.357 2160.73 217.797 L2157.02 217.797 Q2160.1 212.496 2161.61 207.265 Q2163.13 202.01 2163.13 196.663 Q2163.13 191.316 2161.61 186.108 Q2160.1 180.899 2157.02 175.575 Z" fill="#000000" fill-rule="nonzero" fill-opacity="1" /></svg>
