<?xml version="1.0" encoding="utf-8"?>
<svg xmlns="http://www.w3.org/2000/svg" xmlns:xlink="http://www.w3.org/1999/xlink" width="576" height="384" viewBox="0 0 2304 1536">
<defs>
  <clipPath id="clip440">
    <rect x="0" y="0" width="2304" height="1536"/>
  </clipPath>
</defs>
<path clip-path="url(#clip440)" d="M0 1536 L2304 1536 L2304 8.52651e-14 L0 8.52651e-14  Z" fill="#ffffff" fill-rule="evenodd" fill-opacity="1"/>
<defs>
  <clipPath id="clip441">
    <rect x="460" y="0" width="1614" height="1536"/>
  </clipPath>
</defs>
<path clip-path="url(#clip440)" d="M251.804 1347.54 L2256.76 1347.54 L2256.76 47.2441 L251.804 47.2441  Z" fill="#ffffff" fill-rule="evenodd" fill-opacity="1"/>
<defs>
  <clipPath id="clip442">
    <rect x="251" y="47" width="2006" height="1301"/>
  </clipPath>
</defs>
<polyline clip-path="url(#clip442)" style="stroke:#000000; stroke-linecap:round; stroke-linejoin:round; stroke-width:2; stroke-opacity:0.1; fill:none" points="939.036,1347.54 939.036,47.2441 "/>
<polyline clip-path="url(#clip442)" style="stroke:#000000; stroke-linecap:round; stroke-linejoin:round; stroke-width:2; stroke-opacity:0.1; fill:none" points="2200.01,1347.54 2200.01,47.2441 "/>
<polyline clip-path="url(#clip440)" style="stroke:#000000; stroke-linecap:round; stroke-linejoin:round; stroke-width:4; stroke-opacity:1; fill:none" points="251.804,1347.54 2256.76,1347.54 "/>
<polyline clip-path="url(#clip440)" style="stroke:#000000; stroke-linecap:round; stroke-linejoin:round; stroke-width:4; stroke-opacity:1; fill:none" points="939.036,1347.54 939.036,1328.64 "/>
<polyline clip-path="url(#clip440)" style="stroke:#000000; stroke-linecap:round; stroke-linejoin:round; stroke-width:4; stroke-opacity:1; fill:none" points="2200.01,1347.54 2200.01,1328.64 "/>
<path clip-path="url(#clip440)" d="M904.809 1420.89 L912.448 1420.89 L912.448 1394.53 L904.137 1396.19 L904.137 1391.94 L912.401 1390.27 L917.077 1390.27 L917.077 1420.89 L924.716 1420.89 L924.716 1424.83 L904.809 1424.83 L904.809 1420.89 Z" fill="#000000" fill-rule="nonzero" fill-opacity="1" /><path clip-path="url(#clip440)" d="M944.16 1393.35 Q940.549 1393.35 938.721 1396.91 Q936.915 1400.45 936.915 1407.58 Q936.915 1414.69 938.721 1418.25 Q940.549 1421.8 944.16 1421.8 Q947.795 1421.8 949.6 1418.25 Q951.429 1414.69 951.429 1407.58 Q951.429 1400.45 949.6 1396.91 Q947.795 1393.35 944.16 1393.35 M944.16 1389.64 Q949.97 1389.64 953.026 1394.25 Q956.105 1398.83 956.105 1407.58 Q956.105 1416.31 953.026 1420.92 Q949.97 1425.5 944.16 1425.5 Q938.35 1425.5 935.271 1420.92 Q932.216 1416.31 932.216 1407.58 Q932.216 1398.83 935.271 1394.25 Q938.35 1389.64 944.16 1389.64 Z" fill="#000000" fill-rule="nonzero" fill-opacity="1" /><path clip-path="url(#clip440)" d="M960.675 1394.22 L973.934 1394.22 L973.934 1397.42 L956.105 1397.42 L956.105 1394.22 Q958.268 1391.98 961.992 1388.22 Q965.734 1384.44 966.693 1383.35 Q968.518 1381.3 969.233 1379.89 Q969.966 1378.46 969.966 1377.09 Q969.966 1374.85 968.386 1373.44 Q966.825 1372.03 964.305 1372.03 Q962.518 1372.03 960.525 1372.65 Q958.55 1373.27 956.293 1374.53 L956.293 1370.69 Q958.587 1369.77 960.581 1369.3 Q962.575 1368.83 964.23 1368.83 Q968.593 1368.83 971.189 1371.01 Q973.784 1373.19 973.784 1376.84 Q973.784 1378.57 973.126 1380.13 Q972.486 1381.68 970.775 1383.78 Q970.305 1384.33 967.784 1386.94 Q965.264 1389.54 960.675 1394.22 Z" fill="#000000" fill-rule="nonzero" fill-opacity="1" /><path clip-path="url(#clip440)" d="M2164.47 1420.89 L2172.11 1420.89 L2172.11 1394.53 L2163.8 1396.19 L2163.8 1391.94 L2172.06 1390.27 L2176.74 1390.27 L2176.74 1420.89 L2184.38 1420.89 L2184.38 1424.83 L2164.47 1424.83 L2164.47 1420.89 Z" fill="#000000" fill-rule="nonzero" fill-opacity="1" /><path clip-path="url(#clip440)" d="M2203.82 1393.35 Q2200.21 1393.35 2198.38 1396.91 Q2196.57 1400.45 2196.57 1407.58 Q2196.57 1414.69 2198.38 1418.25 Q2200.21 1421.8 2203.82 1421.8 Q2207.45 1421.8 2209.26 1418.25 Q2211.09 1414.69 2211.09 1407.58 Q2211.09 1400.45 2209.26 1396.91 Q2207.45 1393.35 2203.82 1393.35 M2203.82 1389.64 Q2209.63 1389.64 2212.69 1394.25 Q2215.76 1398.83 2215.76 1407.58 Q2215.76 1416.31 2212.69 1420.92 Q2209.63 1425.5 2203.82 1425.5 Q2198.01 1425.5 2194.93 1420.92 Q2191.88 1416.31 2191.88 1407.58 Q2191.88 1398.83 2194.93 1394.25 Q2198.01 1389.64 2203.82 1389.64 Z" fill="#000000" fill-rule="nonzero" fill-opacity="1" /><path clip-path="url(#clip440)" d="M2228.44 1372.65 L2218.85 1387.64 L2228.44 1387.64 L2228.44 1372.65 M2227.44 1369.34 L2232.22 1369.34 L2232.22 1387.64 L2236.23 1387.64 L2236.23 1390.8 L2232.22 1390.8 L2232.22 1397.42 L2228.44 1397.42 L2228.44 1390.8 L2215.76 1390.8 L2215.76 1387.13 L2227.44 1369.34 Z" fill="#000000" fill-rule="nonzero" fill-opacity="1" /><path clip-path="url(#clip440)" d="M1174.47 1490.1 L1174.47 1492.96 L1147.54 1492.96 Q1147.92 1499.01 1151.17 1502.19 Q1154.45 1505.34 1160.27 1505.34 Q1163.65 1505.34 1166.8 1504.52 Q1169.98 1503.69 1173.1 1502.03 L1173.1 1507.57 Q1169.95 1508.91 1166.64 1509.61 Q1163.33 1510.31 1159.92 1510.31 Q1151.39 1510.31 1146.4 1505.34 Q1141.43 1500.38 1141.43 1491.91 Q1141.43 1483.16 1146.14 1478.03 Q1150.88 1472.88 1158.91 1472.88 Q1166.1 1472.88 1170.27 1477.53 Q1174.47 1482.14 1174.47 1490.1 M1168.61 1488.38 Q1168.55 1483.57 1165.91 1480.71 Q1163.3 1477.84 1158.97 1477.84 Q1154.07 1477.84 1151.11 1480.61 Q1148.18 1483.38 1147.73 1488.41 L1168.61 1488.38 Z" fill="#000000" fill-rule="nonzero" fill-opacity="1" /><path clip-path="url(#clip440)" d="M1189.75 1504.04 L1189.75 1522.94 L1183.86 1522.94 L1183.86 1473.74 L1189.75 1473.74 L1189.75 1479.15 Q1191.59 1475.97 1194.39 1474.44 Q1197.23 1472.88 1201.14 1472.88 Q1207.64 1472.88 1211.68 1478.03 Q1215.75 1483.19 1215.75 1491.59 Q1215.75 1500 1211.68 1505.15 Q1207.64 1510.31 1201.14 1510.31 Q1197.23 1510.31 1194.39 1508.78 Q1191.59 1507.22 1189.75 1504.04 M1209.67 1491.59 Q1209.67 1485.13 1207 1481.47 Q1204.36 1477.78 1199.71 1477.78 Q1195.06 1477.78 1192.39 1481.47 Q1189.75 1485.13 1189.75 1491.59 Q1189.75 1498.05 1192.39 1501.75 Q1195.06 1505.41 1199.71 1505.41 Q1204.36 1505.41 1207 1501.75 Q1209.67 1498.05 1209.67 1491.59 Z" fill="#000000" fill-rule="nonzero" fill-opacity="1" /><path clip-path="url(#clip440)" d="M1239.27 1477.84 Q1234.56 1477.84 1231.82 1481.54 Q1229.09 1485.2 1229.09 1491.59 Q1229.09 1497.99 1231.79 1501.68 Q1234.53 1505.34 1239.27 1505.34 Q1243.95 1505.34 1246.69 1501.65 Q1249.43 1497.96 1249.43 1491.59 Q1249.43 1485.26 1246.69 1481.57 Q1243.95 1477.84 1239.27 1477.84 M1239.27 1472.88 Q1246.91 1472.88 1251.27 1477.84 Q1255.63 1482.81 1255.63 1491.59 Q1255.63 1500.35 1251.27 1505.34 Q1246.91 1510.31 1239.27 1510.31 Q1231.6 1510.31 1227.24 1505.34 Q1222.91 1500.35 1222.91 1491.59 Q1222.91 1482.81 1227.24 1477.84 Q1231.6 1472.88 1239.27 1472.88 Z" fill="#000000" fill-rule="nonzero" fill-opacity="1" /><path clip-path="url(#clip440)" d="M1290.99 1475.11 L1290.99 1480.58 Q1288.51 1479.21 1286 1478.54 Q1283.51 1477.84 1280.97 1477.84 Q1275.27 1477.84 1272.12 1481.47 Q1268.97 1485.07 1268.97 1491.59 Q1268.97 1498.12 1272.12 1501.75 Q1275.27 1505.34 1280.97 1505.34 Q1283.51 1505.34 1286 1504.67 Q1288.51 1503.97 1290.99 1502.61 L1290.99 1508.02 Q1288.54 1509.16 1285.9 1509.74 Q1283.29 1510.31 1280.33 1510.31 Q1272.28 1510.31 1267.54 1505.25 Q1262.79 1500.19 1262.79 1491.59 Q1262.79 1482.87 1267.57 1477.88 Q1272.37 1472.88 1280.71 1472.88 Q1283.42 1472.88 1286 1473.45 Q1288.58 1473.99 1290.99 1475.11 Z" fill="#000000" fill-rule="nonzero" fill-opacity="1" /><path clip-path="url(#clip440)" d="M1330.81 1487.87 L1330.81 1509.39 L1324.96 1509.39 L1324.96 1488.06 Q1324.96 1483 1322.98 1480.49 Q1321.01 1477.97 1317.06 1477.97 Q1312.32 1477.97 1309.58 1480.99 Q1306.84 1484.02 1306.84 1489.24 L1306.84 1509.39 L1300.96 1509.39 L1300.96 1459.86 L1306.84 1459.86 L1306.84 1479.28 Q1308.95 1476.06 1311.78 1474.47 Q1314.64 1472.88 1318.37 1472.88 Q1324.51 1472.88 1327.66 1476.7 Q1330.81 1480.49 1330.81 1487.87 Z" fill="#000000" fill-rule="nonzero" fill-opacity="1" /><path clip-path="url(#clip440)" d="M1365.22 1474.79 L1365.22 1480.33 Q1362.74 1479.05 1360.06 1478.42 Q1357.39 1477.78 1354.52 1477.78 Q1350.16 1477.78 1347.97 1479.12 Q1345.8 1480.45 1345.8 1483.13 Q1345.8 1485.16 1347.36 1486.34 Q1348.92 1487.49 1353.63 1488.54 L1355.64 1488.98 Q1361.88 1490.32 1364.49 1492.77 Q1367.13 1495.19 1367.13 1499.55 Q1367.13 1504.52 1363.18 1507.41 Q1359.27 1510.31 1352.39 1510.31 Q1349.53 1510.31 1346.41 1509.74 Q1343.32 1509.19 1339.88 1508.08 L1339.88 1502.03 Q1343.13 1503.72 1346.28 1504.58 Q1349.43 1505.41 1352.52 1505.41 Q1356.66 1505.41 1358.88 1504.01 Q1361.11 1502.57 1361.11 1500 Q1361.11 1497.61 1359.49 1496.34 Q1357.9 1495.06 1352.46 1493.88 L1350.42 1493.41 Q1344.98 1492.26 1342.56 1489.91 Q1340.14 1487.52 1340.14 1483.38 Q1340.14 1478.35 1343.7 1475.62 Q1347.27 1472.88 1353.82 1472.88 Q1357.07 1472.88 1359.93 1473.36 Q1362.8 1473.83 1365.22 1474.79 Z" fill="#000000" fill-rule="nonzero" fill-opacity="1" /><polyline clip-path="url(#clip442)" style="stroke:#000000; stroke-linecap:round; stroke-linejoin:round; stroke-width:2; stroke-opacity:0.1; fill:none" points="251.804,927.245 2256.76,927.245 "/>
<polyline clip-path="url(#clip442)" style="stroke:#000000; stroke-linecap:round; stroke-linejoin:round; stroke-width:2; stroke-opacity:0.1; fill:none" points="251.804,446.751 2256.76,446.751 "/>
<polyline clip-path="url(#clip440)" style="stroke:#000000; stroke-linecap:round; stroke-linejoin:round; stroke-width:4; stroke-opacity:1; fill:none" points="251.804,1347.54 251.804,47.2441 "/>
<polyline clip-path="url(#clip440)" style="stroke:#000000; stroke-linecap:round; stroke-linejoin:round; stroke-width:4; stroke-opacity:1; fill:none" points="251.804,927.245 270.702,927.245 "/>
<polyline clip-path="url(#clip440)" style="stroke:#000000; stroke-linecap:round; stroke-linejoin:round; stroke-width:4; stroke-opacity:1; fill:none" points="251.804,446.751 270.702,446.751 "/>
<path clip-path="url(#clip440)" d="M115.675 947.037 L123.314 947.037 L123.314 920.671 L115.003 922.338 L115.003 918.079 L123.267 916.412 L127.943 916.412 L127.943 947.037 L135.582 947.037 L135.582 950.972 L115.675 950.972 L115.675 947.037 Z" fill="#000000" fill-rule="nonzero" fill-opacity="1" /><path clip-path="url(#clip440)" d="M155.026 919.491 Q151.415 919.491 149.587 923.056 Q147.781 926.597 147.781 933.727 Q147.781 940.833 149.587 944.398 Q151.415 947.94 155.026 947.94 Q158.661 947.94 160.466 944.398 Q162.295 940.833 162.295 933.727 Q162.295 926.597 160.466 923.056 Q158.661 919.491 155.026 919.491 M155.026 915.787 Q160.837 915.787 163.892 920.394 Q166.971 924.977 166.971 933.727 Q166.971 942.454 163.892 947.06 Q160.837 951.643 155.026 951.643 Q149.216 951.643 146.138 947.06 Q143.082 942.454 143.082 933.727 Q143.082 924.977 146.138 920.394 Q149.216 915.787 155.026 915.787 Z" fill="#000000" fill-rule="nonzero" fill-opacity="1" /><path clip-path="url(#clip440)" d="M166.971 909.889 L191.082 909.889 L191.082 913.086 L166.971 913.086 L166.971 909.889 Z" fill="#000000" fill-rule="nonzero" fill-opacity="1" /><path clip-path="url(#clip440)" d="M207.878 908.008 Q205.32 908.008 203.815 909.757 Q202.329 911.506 202.329 914.553 Q202.329 917.581 203.815 919.349 Q205.32 921.098 207.878 921.098 Q210.436 921.098 211.921 919.349 Q213.426 917.581 213.426 914.553 Q213.426 911.506 211.921 909.757 Q210.436 908.008 207.878 908.008 M215.42 896.102 L215.42 899.563 Q213.99 898.886 212.523 898.529 Q211.075 898.171 209.646 898.171 Q205.884 898.171 203.89 900.71 Q201.916 903.249 201.633 908.384 Q202.743 906.748 204.417 905.882 Q206.091 904.998 208.103 904.998 Q212.335 904.998 214.78 907.575 Q217.244 910.133 217.244 914.553 Q217.244 918.879 214.686 921.493 Q212.128 924.107 207.878 924.107 Q203.006 924.107 200.43 920.383 Q197.853 916.64 197.853 909.55 Q197.853 902.892 201.013 898.942 Q204.173 894.974 209.495 894.974 Q210.925 894.974 212.373 895.256 Q213.84 895.538 215.42 896.102 Z" fill="#000000" fill-rule="nonzero" fill-opacity="1" /><path clip-path="url(#clip440)" d="M115.411 466.543 L123.05 466.543 L123.05 440.178 L114.74 441.845 L114.74 437.585 L123.004 435.919 L127.68 435.919 L127.68 466.543 L135.319 466.543 L135.319 470.479 L115.411 470.479 L115.411 466.543 Z" fill="#000000" fill-rule="nonzero" fill-opacity="1" /><path clip-path="url(#clip440)" d="M154.763 438.997 Q151.152 438.997 149.323 442.562 Q147.518 446.104 147.518 453.233 Q147.518 460.34 149.323 463.905 Q151.152 467.446 154.763 467.446 Q158.397 467.446 160.203 463.905 Q162.032 460.34 162.032 453.233 Q162.032 446.104 160.203 442.562 Q158.397 438.997 154.763 438.997 M154.763 435.294 Q160.573 435.294 163.629 439.9 Q166.707 444.483 166.707 453.233 Q166.707 461.96 163.629 466.567 Q160.573 471.15 154.763 471.15 Q148.953 471.15 145.874 466.567 Q142.819 461.96 142.819 453.233 Q142.819 444.483 145.874 439.9 Q148.953 435.294 154.763 435.294 Z" fill="#000000" fill-rule="nonzero" fill-opacity="1" /><path clip-path="url(#clip440)" d="M166.707 429.395 L190.819 429.395 L190.819 432.592 L166.707 432.592 L166.707 429.395 Z" fill="#000000" fill-rule="nonzero" fill-opacity="1" /><path clip-path="url(#clip440)" d="M209.458 418.298 L199.866 433.288 L209.458 433.288 L209.458 418.298 M208.461 414.988 L213.238 414.988 L213.238 433.288 L217.244 433.288 L217.244 436.448 L213.238 436.448 L213.238 443.068 L209.458 443.068 L209.458 436.448 L196.781 436.448 L196.781 432.78 L208.461 414.988 Z" fill="#000000" fill-rule="nonzero" fill-opacity="1" /><path clip-path="url(#clip440)" d="M18.4042 761.509 L18.4042 751.929 L50.7419 739.802 L18.4042 727.612 L18.4042 718.031 L65.9242 718.031 L65.9242 724.301 L24.197 724.301 L56.7894 736.555 L56.7894 743.017 L24.197 755.271 L65.9242 755.271 L65.9242 761.509 L18.4042 761.509 Z" fill="#000000" fill-rule="nonzero" fill-opacity="1" /><path clip-path="url(#clip440)" d="M19.9638 676.781 L26.234 676.781 Q24.4834 680.442 23.624 683.688 Q22.7647 686.935 22.7647 689.958 Q22.7647 695.21 24.8017 698.075 Q26.8387 700.907 30.5945 700.907 Q33.7455 700.907 35.3688 699.03 Q36.9602 697.12 37.9469 691.836 L38.7426 687.953 Q40.1112 680.76 43.5805 677.354 Q47.018 673.917 52.8108 673.917 Q59.7176 673.917 63.2824 678.564 Q66.8472 683.179 66.8472 692.123 Q66.8472 695.497 66.0833 699.316 Q65.3194 703.104 63.8235 707.178 L57.2031 707.178 Q59.3993 703.263 60.5133 699.507 Q61.6273 695.751 61.6273 692.123 Q61.6273 686.616 59.463 683.625 Q57.2986 680.633 53.2882 680.633 Q49.7871 680.633 47.8137 682.797 Q45.8404 684.929 44.8537 689.831 L44.0898 693.746 Q42.6575 700.939 39.602 704.154 Q36.5464 707.369 31.1037 707.369 Q24.8017 707.369 21.1732 702.944 Q17.5448 698.488 17.5448 690.69 Q17.5448 687.348 18.1495 683.879 Q18.7543 680.41 19.9638 676.781 Z" fill="#000000" fill-rule="nonzero" fill-opacity="1" /><path clip-path="url(#clip440)" d="M18.4042 663.891 L18.4042 633.845 L23.815 633.845 L23.815 657.461 L37.8832 657.461 L37.8832 634.831 L43.2941 634.831 L43.2941 657.461 L60.5133 657.461 L60.5133 633.272 L65.9242 633.272 L65.9242 663.891 L18.4042 663.891 Z" fill="#000000" fill-rule="nonzero" fill-opacity="1" /><circle clip-path="url(#clip442)" cx="308.548" cy="258.247" r="18" fill="#78c2ad" fill-rule="evenodd" fill-opacity="0.6" stroke="#000000" stroke-opacity="0.6" stroke-width="3.072"/>
<circle clip-path="url(#clip442)" cx="939.036" cy="496.221" r="18" fill="#78c2ad" fill-rule="evenodd" fill-opacity="0.6" stroke="#000000" stroke-opacity="0.6" stroke-width="3.072"/>
<circle clip-path="url(#clip442)" cx="1569.52" cy="740.135" r="18" fill="#78c2ad" fill-rule="evenodd" fill-opacity="0.6" stroke="#000000" stroke-opacity="0.6" stroke-width="3.072"/>
<circle clip-path="url(#clip442)" cx="2200.01" cy="964.478" r="18" fill="#78c2ad" fill-rule="evenodd" fill-opacity="0.6" stroke="#000000" stroke-opacity="0.6" stroke-width="3.072"/>
<polyline clip-path="url(#clip442)" style="stroke:#78c2ad; stroke-linecap:round; stroke-linejoin:round; stroke-width:8; stroke-opacity:1; fill:none" points="308.548,260.379 327.654,267.539 346.759,274.698 365.865,281.858 384.971,289.017 404.076,296.176 423.182,303.336 442.288,310.495 461.393,317.655 480.499,324.814 499.605,331.973 518.711,339.133 537.816,346.292 556.922,353.452 576.028,360.611 595.133,367.771 614.239,374.93 633.345,382.089 652.45,389.249 671.556,396.408 690.662,403.568 709.768,410.727 728.873,417.886 747.979,425.046 767.085,432.205 786.19,439.365 805.296,446.524 824.402,453.683 843.507,460.843 862.613,468.002 881.719,475.162 900.825,482.321 919.93,489.481 939.036,496.64 958.142,503.799 977.247,510.959 996.353,518.118 1015.46,525.278 1034.56,532.437 1053.67,539.596 1072.78,546.756 1091.88,553.915 1110.99,561.075 1130.09,568.234 1149.2,575.394 1168.3,582.553 1187.41,589.712 1206.52,596.872 1225.62,604.031 1244.73,611.191 1263.83,618.35 1282.94,625.509 1302.04,632.669 1321.15,639.828 1340.26,646.988 1359.36,654.147 1378.47,661.307 1397.57,668.466 1416.68,675.625 1435.78,682.785 1454.89,689.944 1474,697.104 1493.1,704.263 1512.21,711.422 1531.31,718.582 1550.42,725.741 1569.52,732.901 1588.63,740.06 1607.74,747.22 1626.84,754.379 1645.95,761.538 1665.05,768.698 1684.16,775.857 1703.26,783.017 1722.37,790.176 1741.48,797.335 1760.58,804.495 1779.69,811.654 1798.79,818.814 1817.9,825.973 1837,833.133 1856.11,840.292 1875.22,847.451 1894.32,854.611 1913.43,861.77 1932.53,868.93 1951.64,876.089 1970.74,883.248 1989.85,890.408 2008.96,897.567 2028.06,904.727 2047.17,911.886 2066.27,919.046 2085.38,926.205 2104.48,933.364 2123.59,940.524 2142.69,947.683 2161.8,954.843 2180.91,962.002 2200.01,969.161 "/>
<circle clip-path="url(#clip442)" cx="308.548" cy="682.832" r="18" fill="#e95420" fill-rule="evenodd" fill-opacity="0.6" stroke="#000000" stroke-opacity="0.6" stroke-width="3.072"/>
<circle clip-path="url(#clip442)" cx="939.036" cy="929.405" r="18" fill="#e95420" fill-rule="evenodd" fill-opacity="0.6" stroke="#000000" stroke-opacity="0.6" stroke-width="3.072"/>
<circle clip-path="url(#clip442)" cx="1569.52" cy="1127.1" r="18" fill="#e95420" fill-rule="evenodd" fill-opacity="0.6" stroke="#000000" stroke-opacity="0.6" stroke-width="3.072"/>
<circle clip-path="url(#clip442)" cx="2200.01" cy="1290.75" r="18" fill="#e95420" fill-rule="evenodd" fill-opacity="0.6" stroke="#000000" stroke-opacity="0.6" stroke-width="3.072"/>
<polyline clip-path="url(#clip442)" style="stroke:#e95420; stroke-linecap:round; stroke-linejoin:round; stroke-width:8; stroke-opacity:1; fill:none" points="308.548,704.306 327.654,710.431 346.759,716.557 365.865,722.682 384.971,728.808 404.076,734.934 423.182,741.059 442.288,747.185 461.393,753.31 480.499,759.436 499.605,765.561 518.711,771.687 537.816,777.812 556.922,783.938 576.028,790.064 595.133,796.189 614.239,802.315 633.345,808.44 652.45,814.566 671.556,820.691 690.662,826.817 709.768,832.942 728.873,839.068 747.979,845.194 767.085,851.319 786.19,857.445 805.296,863.57 824.402,869.696 843.507,875.821 862.613,881.947 881.719,888.072 900.825,894.198 919.93,900.324 939.036,906.449 958.142,912.575 977.247,918.7 996.353,924.826 1015.46,930.951 1034.56,937.077 1053.67,943.202 1072.78,949.328 1091.88,955.454 1110.99,961.579 1130.09,967.705 1149.2,973.83 1168.3,979.956 1187.41,986.081 1206.52,992.207 1225.62,998.333 1244.73,1004.46 1263.83,1010.58 1282.94,1016.71 1302.04,1022.83 1321.15,1028.96 1340.26,1035.09 1359.36,1041.21 1378.47,1047.34 1397.57,1053.46 1416.68,1059.59 1435.78,1065.71 1454.89,1071.84 1474,1077.96 1493.1,1084.09 1512.21,1090.22 1531.31,1096.34 1550.42,1102.47 1569.52,1108.59 1588.63,1114.72 1607.74,1120.84 1626.84,1126.97 1645.95,1133.09 1665.05,1139.22 1684.16,1145.35 1703.26,1151.47 1722.37,1157.6 1741.48,1163.72 1760.58,1169.85 1779.69,1175.97 1798.79,1182.1 1817.9,1188.22 1837,1194.35 1856.11,1200.48 1875.22,1206.6 1894.32,1212.73 1913.43,1218.85 1932.53,1224.98 1951.64,1231.1 1970.74,1237.23 1989.85,1243.35 2008.96,1249.48 2028.06,1255.61 2047.17,1261.73 2066.27,1267.86 2085.38,1273.98 2104.48,1280.11 2123.59,1286.23 2142.69,1292.36 2161.8,1298.48 2180.91,1304.61 2200.01,1310.74 "/>
<circle clip-path="url(#clip442)" cx="308.548" cy="233.046" r="18" fill="#0000ff" fill-rule="evenodd" fill-opacity="0.6" stroke="#000000" stroke-opacity="0.6" stroke-width="3.072"/>
<circle clip-path="url(#clip442)" cx="939.036" cy="134.554" r="18" fill="#0000ff" fill-rule="evenodd" fill-opacity="0.6" stroke="#000000" stroke-opacity="0.6" stroke-width="3.072"/>
<circle clip-path="url(#clip442)" cx="1569.52" cy="173.087" r="18" fill="#0000ff" fill-rule="evenodd" fill-opacity="0.6" stroke="#000000" stroke-opacity="0.6" stroke-width="3.072"/>
<circle clip-path="url(#clip442)" cx="2200.01" cy="84.0448" r="18" fill="#0000ff" fill-rule="evenodd" fill-opacity="0.6" stroke="#000000" stroke-opacity="0.6" stroke-width="3.072"/>
<polyline clip-path="url(#clip442)" style="stroke:#0000ff; stroke-linecap:round; stroke-linejoin:round; stroke-width:8; stroke-opacity:1; fill:none" points="308.548,217.453 327.654,216.215 346.759,214.978 365.865,213.74 384.971,212.502 404.076,211.264 423.182,210.027 442.288,208.789 461.393,207.551 480.499,206.313 499.605,205.075 518.711,203.838 537.816,202.6 556.922,201.362 576.028,200.124 595.133,198.886 614.239,197.649 633.345,196.411 652.45,195.173 671.556,193.935 690.662,192.698 709.768,191.46 728.873,190.222 747.979,188.984 767.085,187.746 786.19,186.509 805.296,185.271 824.402,184.033 843.507,182.795 862.613,181.557 881.719,180.32 900.825,179.082 919.93,177.844 939.036,176.606 958.142,175.369 977.247,174.131 996.353,172.893 1015.46,171.655 1034.56,170.417 1053.67,169.18 1072.78,167.942 1091.88,166.704 1110.99,165.466 1130.09,164.228 1149.2,162.991 1168.3,161.753 1187.41,160.515 1206.52,159.277 1225.62,158.04 1244.73,156.802 1263.83,155.564 1282.94,154.326 1302.04,153.088 1321.15,151.851 1340.26,150.613 1359.36,149.375 1378.47,148.137 1397.57,146.899 1416.68,145.662 1435.78,144.424 1454.89,143.186 1474,141.948 1493.1,140.71 1512.21,139.473 1531.31,138.235 1550.42,136.997 1569.52,135.759 1588.63,134.522 1607.74,133.284 1626.84,132.046 1645.95,130.808 1665.05,129.57 1684.16,128.333 1703.26,127.095 1722.37,125.857 1741.48,124.619 1760.58,123.381 1779.69,122.144 1798.79,120.906 1817.9,119.668 1837,118.43 1856.11,117.193 1875.22,115.955 1894.32,114.717 1913.43,113.479 1932.53,112.241 1951.64,111.004 1970.74,109.766 1989.85,108.528 2008.96,107.29 2028.06,106.052 2047.17,104.815 2066.27,103.577 2085.38,102.339 2104.48,101.101 2123.59,99.8635 2142.69,98.6258 2161.8,97.388 2180.91,96.1502 2200.01,94.9124 "/>
<path clip-path="url(#clip440)" d="M1845.19 297.947 L2189.92 297.947 L2189.92 90.5872 L1845.19 90.5872  Z" fill="#ffffff" fill-rule="evenodd" fill-opacity="1"/>
<polyline clip-path="url(#clip440)" style="stroke:#000000; stroke-linecap:round; stroke-linejoin:round; stroke-width:4; stroke-opacity:1; fill:none" points="1845.19,297.947 2189.92,297.947 2189.92,90.5872 1845.19,90.5872 1845.19,297.947 "/>
<polyline clip-path="url(#clip440)" style="stroke:#78c2ad; stroke-linecap:round; stroke-linejoin:round; stroke-width:8; stroke-opacity:1; fill:none" points="1867.47,142.427 2001.13,142.427 "/>
<path clip-path="url(#clip440)" d="M2023.94 125.147 L2051.1 125.147 L2051.1 128.712 L2029.24 155.772 L2051.63 155.772 L2051.63 159.707 L2023.41 159.707 L2023.41 156.142 L2045.26 129.082 L2023.94 129.082 L2023.94 125.147 Z" fill="#000000" fill-rule="nonzero" fill-opacity="1" /><path clip-path="url(#clip440)" d="M2056.42 125.147 L2083.57 125.147 L2083.57 128.712 L2061.72 155.772 L2084.11 155.772 L2084.11 159.707 L2055.89 159.707 L2055.89 156.142 L2077.74 129.082 L2056.42 129.082 L2056.42 125.147 Z" fill="#000000" fill-rule="nonzero" fill-opacity="1" /><polyline clip-path="url(#clip440)" style="stroke:#e95420; stroke-linecap:round; stroke-linejoin:round; stroke-width:8; stroke-opacity:1; fill:none" points="1867.47,194.267 2001.13,194.267 "/>
<path clip-path="url(#clip440)" d="M2023.94 176.987 L2051.1 176.987 L2051.1 180.552 L2029.24 207.612 L2051.63 207.612 L2051.63 211.547 L2023.41 211.547 L2023.41 207.982 L2045.26 180.922 L2023.94 180.922 L2023.94 176.987 Z" fill="#000000" fill-rule="nonzero" fill-opacity="1" /><path clip-path="url(#clip440)" d="M2056.42 176.987 L2083.57 176.987 L2083.57 180.552 L2061.72 207.612 L2084.11 207.612 L2084.11 211.547 L2055.89 211.547 L2055.89 207.982 L2077.74 180.922 L2056.42 180.922 L2056.42 176.987 Z" fill="#000000" fill-rule="nonzero" fill-opacity="1" /><path clip-path="url(#clip440)" d="M2087.72 196.663 L2100.19 196.663 L2100.19 200.459 L2087.72 200.459 L2087.72 196.663 Z" fill="#000000" fill-rule="nonzero" fill-opacity="1" /><path clip-path="url(#clip440)" d="M2133.04 179.649 L2133.04 184.58 Q2130.68 182.381 2127.99 181.293 Q2125.33 180.205 2122.32 180.205 Q2116.4 180.205 2113.25 183.839 Q2110.1 187.45 2110.1 194.302 Q2110.1 201.131 2113.25 204.765 Q2116.4 208.376 2122.32 208.376 Q2125.33 208.376 2127.99 207.288 Q2130.68 206.2 2133.04 204.001 L2133.04 208.885 Q2130.59 210.552 2127.83 211.385 Q2125.1 212.218 2122.05 212.218 Q2114.2 212.218 2109.68 207.427 Q2105.17 202.612 2105.17 194.302 Q2105.17 185.969 2109.68 181.177 Q2114.2 176.362 2122.05 176.362 Q2125.15 176.362 2127.88 177.196 Q2130.63 178.006 2133.04 179.649 Z" fill="#000000" fill-rule="nonzero" fill-opacity="1" /><path clip-path="url(#clip440)" d="M2149.17 211.547 L2135.98 176.987 L2140.86 176.987 L2151.81 206.084 L2162.79 176.987 L2167.65 176.987 L2154.48 211.547 L2149.17 211.547 Z" fill="#000000" fill-rule="nonzero" fill-opacity="1" /><polyline clip-path="url(#clip440)" style="stroke:#0000ff; stroke-linecap:round; stroke-linejoin:round; stroke-width:8; stroke-opacity:1; fill:none" points="1867.47,246.107 2001.13,246.107 "/>
<path clip-path="url(#clip440)" d="M2023.41 228.827 L2030.38 228.827 L2039.2 252.346 L2048.06 228.827 L2055.03 228.827 L2055.03 263.387 L2050.47 263.387 L2050.47 233.04 L2041.56 256.744 L2036.86 256.744 L2027.95 233.04 L2027.95 263.387 L2023.41 263.387 L2023.41 228.827 Z" fill="#000000" fill-rule="nonzero" fill-opacity="1" /><path clip-path="url(#clip440)" d="M2075.87 233.434 L2069.52 250.633 L2082.23 250.633 L2075.87 233.434 M2073.23 228.827 L2078.53 228.827 L2091.7 263.387 L2086.84 263.387 L2083.69 254.521 L2068.11 254.521 L2064.96 263.387 L2060.03 263.387 L2073.23 228.827 Z" fill="#000000" fill-rule="nonzero" fill-opacity="1" /><path clip-path="url(#clip440)" d="M2096.74 228.827 L2101.42 228.827 L2101.42 259.452 L2118.25 259.452 L2118.25 263.387 L2096.74 263.387 L2096.74 228.827 Z" fill="#000000" fill-rule="nonzero" fill-opacity="1" /><path clip-path="url(#clip440)" d="M2135.8 233.434 L2129.45 250.633 L2142.16 250.633 L2135.8 233.434 M2133.16 228.827 L2138.46 228.827 L2151.63 263.387 L2146.77 263.387 L2143.62 254.521 L2128.04 254.521 L2124.89 263.387 L2119.96 263.387 L2133.16 228.827 Z" fill="#000000" fill-rule="nonzero" fill-opacity="1" /></svg>
