<?xml version="1.0" encoding="utf-8"?>
<svg xmlns="http://www.w3.org/2000/svg" xmlns:xlink="http://www.w3.org/1999/xlink" width="576" height="384" viewBox="0 0 2304 1536">
<defs>
  <clipPath id="clip720">
    <rect x="0" y="0" width="2304" height="1536"/>
  </clipPath>
</defs>
<path clip-path="url(#clip720)" d="M0 1536 L2304 1536 L2304 8.52651e-14 L0 8.52651e-14  Z" fill="#ffffff" fill-rule="evenodd" fill-opacity="1"/>
<defs>
  <clipPath id="clip721">
    <rect x="460" y="0" width="1614" height="1536"/>
  </clipPath>
</defs>
<path clip-path="url(#clip720)" d="M218.906 1359.82 L2256.76 1359.82 L2256.76 123.472 L218.906 123.472  Z" fill="#ffffff" fill-rule="evenodd" fill-opacity="1"/>
<defs>
  <clipPath id="clip722">
    <rect x="218" y="123" width="2039" height="1237"/>
  </clipPath>
</defs>
<polyline clip-path="url(#clip722)" style="stroke:#000000; stroke-linecap:round; stroke-linejoin:round; stroke-width:2; stroke-opacity:0.1; fill:none" points="449.17,1359.82 449.17,123.472 "/>
<polyline clip-path="url(#clip722)" style="stroke:#000000; stroke-linecap:round; stroke-linejoin:round; stroke-width:2; stroke-opacity:0.1; fill:none" points="775.53,1359.82 775.53,123.472 "/>
<polyline clip-path="url(#clip722)" style="stroke:#000000; stroke-linecap:round; stroke-linejoin:round; stroke-width:2; stroke-opacity:0.1; fill:none" points="1101.89,1359.82 1101.89,123.472 "/>
<polyline clip-path="url(#clip722)" style="stroke:#000000; stroke-linecap:round; stroke-linejoin:round; stroke-width:2; stroke-opacity:0.1; fill:none" points="1428.25,1359.82 1428.25,123.472 "/>
<polyline clip-path="url(#clip722)" style="stroke:#000000; stroke-linecap:round; stroke-linejoin:round; stroke-width:2; stroke-opacity:0.1; fill:none" points="1754.61,1359.82 1754.61,123.472 "/>
<polyline clip-path="url(#clip722)" style="stroke:#000000; stroke-linecap:round; stroke-linejoin:round; stroke-width:2; stroke-opacity:0.1; fill:none" points="2080.97,1359.82 2080.97,123.472 "/>
<polyline clip-path="url(#clip720)" style="stroke:#000000; stroke-linecap:round; stroke-linejoin:round; stroke-width:4; stroke-opacity:1; fill:none" points="218.906,1359.82 2256.76,1359.82 "/>
<polyline clip-path="url(#clip720)" style="stroke:#000000; stroke-linecap:round; stroke-linejoin:round; stroke-width:4; stroke-opacity:1; fill:none" points="449.17,1359.82 449.17,1340.92 "/>
<polyline clip-path="url(#clip720)" style="stroke:#000000; stroke-linecap:round; stroke-linejoin:round; stroke-width:4; stroke-opacity:1; fill:none" points="775.53,1359.82 775.53,1340.92 "/>
<polyline clip-path="url(#clip720)" style="stroke:#000000; stroke-linecap:round; stroke-linejoin:round; stroke-width:4; stroke-opacity:1; fill:none" points="1101.89,1359.82 1101.89,1340.92 "/>
<polyline clip-path="url(#clip720)" style="stroke:#000000; stroke-linecap:round; stroke-linejoin:round; stroke-width:4; stroke-opacity:1; fill:none" points="1428.25,1359.82 1428.25,1340.92 "/>
<polyline clip-path="url(#clip720)" style="stroke:#000000; stroke-linecap:round; stroke-linejoin:round; stroke-width:4; stroke-opacity:1; fill:none" points="1754.61,1359.82 1754.61,1340.92 "/>
<polyline clip-path="url(#clip720)" style="stroke:#000000; stroke-linecap:round; stroke-linejoin:round; stroke-width:4; stroke-opacity:1; fill:none" points="2080.97,1359.82 2080.97,1340.92 "/>
<path clip-path="url(#clip720)" d="M396.196 1404.62 L425.872 1404.62 L425.872 1408.56 L396.196 1408.56 L396.196 1404.62 Z" fill="#000000" fill-rule="nonzero" fill-opacity="1" /><path clip-path="url(#clip720)" d="M445.964 1389.97 Q442.353 1389.97 440.525 1393.54 Q438.719 1397.08 438.719 1404.21 Q438.719 1411.31 440.525 1414.88 Q442.353 1418.42 445.964 1418.42 Q449.599 1418.42 451.404 1414.88 Q453.233 1411.31 453.233 1404.21 Q453.233 1397.08 451.404 1393.54 Q449.599 1389.97 445.964 1389.97 M445.964 1386.27 Q451.774 1386.27 454.83 1390.87 Q457.909 1395.46 457.909 1404.21 Q457.909 1412.93 454.83 1417.54 Q451.774 1422.12 445.964 1422.12 Q440.154 1422.12 437.075 1417.54 Q434.02 1412.93 434.02 1404.21 Q434.02 1395.46 437.075 1390.87 Q440.154 1386.27 445.964 1386.27 Z" fill="#000000" fill-rule="nonzero" fill-opacity="1" /><path clip-path="url(#clip720)" d="M466.126 1415.57 L471.01 1415.57 L471.01 1421.45 L466.126 1421.45 L466.126 1415.57 Z" fill="#000000" fill-rule="nonzero" fill-opacity="1" /><path clip-path="url(#clip720)" d="M481.242 1386.89 L499.598 1386.89 L499.598 1390.83 L485.524 1390.83 L485.524 1399.3 Q486.543 1398.95 487.561 1398.79 Q488.58 1398.6 489.598 1398.6 Q495.385 1398.6 498.765 1401.78 Q502.145 1404.95 502.145 1410.36 Q502.145 1415.94 498.672 1419.04 Q495.2 1422.12 488.881 1422.12 Q486.705 1422.12 484.436 1421.75 Q482.191 1421.38 479.784 1420.64 L479.784 1415.94 Q481.867 1417.08 484.089 1417.63 Q486.311 1418.19 488.788 1418.19 Q492.793 1418.19 495.131 1416.08 Q497.469 1413.98 497.469 1410.36 Q497.469 1406.75 495.131 1404.65 Q492.793 1402.54 488.788 1402.54 Q486.913 1402.54 485.038 1402.96 Q483.186 1403.37 481.242 1404.25 L481.242 1386.89 Z" fill="#000000" fill-rule="nonzero" fill-opacity="1" /><path clip-path="url(#clip720)" d="M752.914 1389.97 Q749.303 1389.97 747.474 1393.54 Q745.669 1397.08 745.669 1404.21 Q745.669 1411.31 747.474 1414.88 Q749.303 1418.42 752.914 1418.42 Q756.548 1418.42 758.354 1414.88 Q760.183 1411.31 760.183 1404.21 Q760.183 1397.08 758.354 1393.54 Q756.548 1389.97 752.914 1389.97 M752.914 1386.27 Q758.724 1386.27 761.78 1390.87 Q764.859 1395.46 764.859 1404.21 Q764.859 1412.93 761.78 1417.54 Q758.724 1422.12 752.914 1422.12 Q747.104 1422.12 744.025 1417.54 Q740.97 1412.93 740.97 1404.21 Q740.97 1395.46 744.025 1390.87 Q747.104 1386.27 752.914 1386.27 Z" fill="#000000" fill-rule="nonzero" fill-opacity="1" /><path clip-path="url(#clip720)" d="M773.076 1415.57 L777.96 1415.57 L777.96 1421.45 L773.076 1421.45 L773.076 1415.57 Z" fill="#000000" fill-rule="nonzero" fill-opacity="1" /><path clip-path="url(#clip720)" d="M798.145 1389.97 Q794.534 1389.97 792.706 1393.54 Q790.9 1397.08 790.9 1404.21 Q790.9 1411.31 792.706 1414.88 Q794.534 1418.42 798.145 1418.42 Q801.78 1418.42 803.585 1414.88 Q805.414 1411.31 805.414 1404.21 Q805.414 1397.08 803.585 1393.54 Q801.78 1389.97 798.145 1389.97 M798.145 1386.27 Q803.956 1386.27 807.011 1390.87 Q810.09 1395.46 810.09 1404.21 Q810.09 1412.93 807.011 1417.54 Q803.956 1422.12 798.145 1422.12 Q792.335 1422.12 789.257 1417.54 Q786.201 1412.93 786.201 1404.21 Q786.201 1395.46 789.257 1390.87 Q792.335 1386.27 798.145 1386.27 Z" fill="#000000" fill-rule="nonzero" fill-opacity="1" /><path clip-path="url(#clip720)" d="M1079.77 1389.97 Q1076.16 1389.97 1074.33 1393.54 Q1072.53 1397.08 1072.53 1404.21 Q1072.53 1411.31 1074.33 1414.88 Q1076.16 1418.42 1079.77 1418.42 Q1083.41 1418.42 1085.21 1414.88 Q1087.04 1411.31 1087.04 1404.21 Q1087.04 1397.08 1085.21 1393.54 Q1083.41 1389.97 1079.77 1389.97 M1079.77 1386.27 Q1085.58 1386.27 1088.64 1390.87 Q1091.72 1395.46 1091.72 1404.21 Q1091.72 1412.93 1088.64 1417.54 Q1085.58 1422.12 1079.77 1422.12 Q1073.96 1422.12 1070.88 1417.54 Q1067.83 1412.93 1067.83 1404.21 Q1067.83 1395.46 1070.88 1390.87 Q1073.96 1386.27 1079.77 1386.27 Z" fill="#000000" fill-rule="nonzero" fill-opacity="1" /><path clip-path="url(#clip720)" d="M1099.93 1415.57 L1104.82 1415.57 L1104.82 1421.45 L1099.93 1421.45 L1099.93 1415.57 Z" fill="#000000" fill-rule="nonzero" fill-opacity="1" /><path clip-path="url(#clip720)" d="M1115.05 1386.89 L1133.41 1386.89 L1133.41 1390.83 L1119.33 1390.83 L1119.33 1399.3 Q1120.35 1398.95 1121.37 1398.79 Q1122.39 1398.6 1123.41 1398.6 Q1129.19 1398.6 1132.57 1401.78 Q1135.95 1404.95 1135.95 1410.36 Q1135.95 1415.94 1132.48 1419.04 Q1129.01 1422.12 1122.69 1422.12 Q1120.51 1422.12 1118.24 1421.75 Q1116 1421.38 1113.59 1420.64 L1113.59 1415.94 Q1115.67 1417.08 1117.9 1417.63 Q1120.12 1418.19 1122.6 1418.19 Q1126.6 1418.19 1128.94 1416.08 Q1131.28 1413.98 1131.28 1410.36 Q1131.28 1406.75 1128.94 1404.65 Q1126.6 1402.54 1122.6 1402.54 Q1120.72 1402.54 1118.85 1402.96 Q1116.99 1403.37 1115.05 1404.25 L1115.05 1386.89 Z" fill="#000000" fill-rule="nonzero" fill-opacity="1" /><path clip-path="url(#clip720)" d="M1395.4 1417.52 L1403.04 1417.52 L1403.04 1391.15 L1394.73 1392.82 L1394.73 1388.56 L1402.99 1386.89 L1407.67 1386.89 L1407.67 1417.52 L1415.31 1417.52 L1415.31 1421.45 L1395.4 1421.45 L1395.4 1417.52 Z" fill="#000000" fill-rule="nonzero" fill-opacity="1" /><path clip-path="url(#clip720)" d="M1424.75 1415.57 L1429.64 1415.57 L1429.64 1421.45 L1424.75 1421.45 L1424.75 1415.57 Z" fill="#000000" fill-rule="nonzero" fill-opacity="1" /><path clip-path="url(#clip720)" d="M1449.82 1389.97 Q1446.21 1389.97 1444.38 1393.54 Q1442.58 1397.08 1442.58 1404.21 Q1442.58 1411.31 1444.38 1414.88 Q1446.21 1418.42 1449.82 1418.42 Q1453.46 1418.42 1455.26 1414.88 Q1457.09 1411.31 1457.09 1404.21 Q1457.09 1397.08 1455.26 1393.54 Q1453.46 1389.97 1449.82 1389.97 M1449.82 1386.27 Q1455.63 1386.27 1458.69 1390.87 Q1461.77 1395.46 1461.77 1404.21 Q1461.77 1412.93 1458.69 1417.54 Q1455.63 1422.12 1449.82 1422.12 Q1444.01 1422.12 1440.93 1417.54 Q1437.88 1412.93 1437.88 1404.21 Q1437.88 1395.46 1440.93 1390.87 Q1444.01 1386.27 1449.82 1386.27 Z" fill="#000000" fill-rule="nonzero" fill-opacity="1" /><path clip-path="url(#clip720)" d="M1722.26 1417.52 L1729.9 1417.52 L1729.9 1391.15 L1721.59 1392.82 L1721.59 1388.56 L1729.85 1386.89 L1734.53 1386.89 L1734.53 1417.52 L1742.17 1417.52 L1742.17 1421.45 L1722.26 1421.45 L1722.26 1417.52 Z" fill="#000000" fill-rule="nonzero" fill-opacity="1" /><path clip-path="url(#clip720)" d="M1751.61 1415.57 L1756.49 1415.57 L1756.49 1421.45 L1751.61 1421.45 L1751.61 1415.57 Z" fill="#000000" fill-rule="nonzero" fill-opacity="1" /><path clip-path="url(#clip720)" d="M1766.73 1386.89 L1785.08 1386.89 L1785.08 1390.83 L1771.01 1390.83 L1771.01 1399.3 Q1772.03 1398.95 1773.05 1398.79 Q1774.06 1398.6 1775.08 1398.6 Q1780.87 1398.6 1784.25 1401.78 Q1787.63 1404.95 1787.63 1410.36 Q1787.63 1415.94 1784.16 1419.04 Q1780.68 1422.12 1774.37 1422.12 Q1772.19 1422.12 1769.92 1421.75 Q1767.68 1421.38 1765.27 1420.64 L1765.27 1415.94 Q1767.35 1417.08 1769.57 1417.63 Q1771.8 1418.19 1774.27 1418.19 Q1778.28 1418.19 1780.62 1416.08 Q1782.95 1413.98 1782.95 1410.36 Q1782.95 1406.75 1780.62 1404.65 Q1778.28 1402.54 1774.27 1402.54 Q1772.4 1402.54 1770.52 1402.96 Q1768.67 1403.37 1766.73 1404.25 L1766.73 1386.89 Z" fill="#000000" fill-rule="nonzero" fill-opacity="1" /><path clip-path="url(#clip720)" d="M2052.21 1417.52 L2068.53 1417.52 L2068.53 1421.45 L2046.58 1421.45 L2046.58 1417.52 Q2049.24 1414.76 2053.83 1410.13 Q2058.43 1405.48 2059.61 1404.14 Q2061.86 1401.61 2062.74 1399.88 Q2063.64 1398.12 2063.64 1396.43 Q2063.64 1393.67 2061.7 1391.94 Q2059.78 1390.2 2056.67 1390.2 Q2054.47 1390.2 2052.02 1390.97 Q2049.59 1391.73 2046.81 1393.28 L2046.81 1388.56 Q2049.64 1387.42 2052.09 1386.85 Q2054.54 1386.27 2056.58 1386.27 Q2061.95 1386.27 2065.15 1388.95 Q2068.34 1391.64 2068.34 1396.13 Q2068.34 1398.26 2067.53 1400.18 Q2066.74 1402.08 2064.64 1404.67 Q2064.06 1405.34 2060.96 1408.56 Q2057.85 1411.75 2052.21 1417.52 Z" fill="#000000" fill-rule="nonzero" fill-opacity="1" /><path clip-path="url(#clip720)" d="M2078.34 1415.57 L2083.22 1415.57 L2083.22 1421.45 L2078.34 1421.45 L2078.34 1415.57 Z" fill="#000000" fill-rule="nonzero" fill-opacity="1" /><path clip-path="url(#clip720)" d="M2103.41 1389.97 Q2099.8 1389.97 2097.97 1393.54 Q2096.16 1397.08 2096.16 1404.21 Q2096.16 1411.31 2097.97 1414.88 Q2099.8 1418.42 2103.41 1418.42 Q2107.04 1418.42 2108.85 1414.88 Q2110.68 1411.31 2110.68 1404.21 Q2110.68 1397.08 2108.85 1393.54 Q2107.04 1389.97 2103.41 1389.97 M2103.41 1386.27 Q2109.22 1386.27 2112.28 1390.87 Q2115.35 1395.46 2115.35 1404.21 Q2115.35 1412.93 2112.28 1417.54 Q2109.22 1422.12 2103.41 1422.12 Q2097.6 1422.12 2094.52 1417.54 Q2091.47 1412.93 2091.47 1404.21 Q2091.47 1395.46 2094.52 1390.87 Q2097.6 1386.27 2103.41 1386.27 Z" fill="#000000" fill-rule="nonzero" fill-opacity="1" /><path clip-path="url(#clip720)" d="M1238.05 1467.6 L1225.16 1484.94 L1238.72 1503.24 L1231.82 1503.24 L1221.44 1489.24 L1211.06 1503.24 L1204.16 1503.24 L1218 1484.59 L1205.33 1467.6 L1212.24 1467.6 L1221.69 1480.3 L1231.15 1467.6 L1238.05 1467.6 Z" fill="#000000" fill-rule="nonzero" fill-opacity="1" /><path clip-path="url(#clip720)" d="M1271.51 1463.55 L1260.08 1469.73 L1271.51 1475.93 L1269.66 1479.05 L1258.97 1472.59 L1258.97 1484.59 L1255.34 1484.59 L1255.34 1472.59 L1244.64 1479.05 L1242.8 1475.93 L1254.22 1469.73 L1242.8 1463.55 L1244.64 1460.4 L1255.34 1466.86 L1255.34 1454.86 L1258.97 1454.86 L1258.97 1466.86 L1269.66 1460.4 L1271.51 1463.55 Z" fill="#000000" fill-rule="nonzero" fill-opacity="1" /><polyline clip-path="url(#clip722)" style="stroke:#000000; stroke-linecap:round; stroke-linejoin:round; stroke-width:2; stroke-opacity:0.1; fill:none" points="218.906,1324.83 2256.76,1324.83 "/>
<polyline clip-path="url(#clip722)" style="stroke:#000000; stroke-linecap:round; stroke-linejoin:round; stroke-width:2; stroke-opacity:0.1; fill:none" points="218.906,1138.23 2256.76,1138.23 "/>
<polyline clip-path="url(#clip722)" style="stroke:#000000; stroke-linecap:round; stroke-linejoin:round; stroke-width:2; stroke-opacity:0.1; fill:none" points="218.906,951.629 2256.76,951.629 "/>
<polyline clip-path="url(#clip722)" style="stroke:#000000; stroke-linecap:round; stroke-linejoin:round; stroke-width:2; stroke-opacity:0.1; fill:none" points="218.906,765.029 2256.76,765.029 "/>
<polyline clip-path="url(#clip722)" style="stroke:#000000; stroke-linecap:round; stroke-linejoin:round; stroke-width:2; stroke-opacity:0.1; fill:none" points="218.906,578.429 2256.76,578.429 "/>
<polyline clip-path="url(#clip722)" style="stroke:#000000; stroke-linecap:round; stroke-linejoin:round; stroke-width:2; stroke-opacity:0.1; fill:none" points="218.906,391.828 2256.76,391.828 "/>
<polyline clip-path="url(#clip722)" style="stroke:#000000; stroke-linecap:round; stroke-linejoin:round; stroke-width:2; stroke-opacity:0.1; fill:none" points="218.906,205.228 2256.76,205.228 "/>
<polyline clip-path="url(#clip720)" style="stroke:#000000; stroke-linecap:round; stroke-linejoin:round; stroke-width:4; stroke-opacity:1; fill:none" points="218.906,1359.82 218.906,123.472 "/>
<polyline clip-path="url(#clip720)" style="stroke:#000000; stroke-linecap:round; stroke-linejoin:round; stroke-width:4; stroke-opacity:1; fill:none" points="218.906,1324.83 237.804,1324.83 "/>
<polyline clip-path="url(#clip720)" style="stroke:#000000; stroke-linecap:round; stroke-linejoin:round; stroke-width:4; stroke-opacity:1; fill:none" points="218.906,1138.23 237.804,1138.23 "/>
<polyline clip-path="url(#clip720)" style="stroke:#000000; stroke-linecap:round; stroke-linejoin:round; stroke-width:4; stroke-opacity:1; fill:none" points="218.906,951.629 237.804,951.629 "/>
<polyline clip-path="url(#clip720)" style="stroke:#000000; stroke-linecap:round; stroke-linejoin:round; stroke-width:4; stroke-opacity:1; fill:none" points="218.906,765.029 237.804,765.029 "/>
<polyline clip-path="url(#clip720)" style="stroke:#000000; stroke-linecap:round; stroke-linejoin:round; stroke-width:4; stroke-opacity:1; fill:none" points="218.906,578.429 237.804,578.429 "/>
<polyline clip-path="url(#clip720)" style="stroke:#000000; stroke-linecap:round; stroke-linejoin:round; stroke-width:4; stroke-opacity:1; fill:none" points="218.906,391.828 237.804,391.828 "/>
<polyline clip-path="url(#clip720)" style="stroke:#000000; stroke-linecap:round; stroke-linejoin:round; stroke-width:4; stroke-opacity:1; fill:none" points="218.906,205.228 237.804,205.228 "/>
<path clip-path="url(#clip720)" d="M127.171 1310.63 Q123.56 1310.63 121.731 1314.19 Q119.925 1317.73 119.925 1324.86 Q119.925 1331.97 121.731 1335.53 Q123.56 1339.08 127.171 1339.08 Q130.805 1339.08 132.61 1335.53 Q134.439 1331.97 134.439 1324.86 Q134.439 1317.73 132.61 1314.19 Q130.805 1310.63 127.171 1310.63 M127.171 1306.92 Q132.981 1306.92 136.036 1311.53 Q139.115 1316.11 139.115 1324.86 Q139.115 1333.59 136.036 1338.2 Q132.981 1342.78 127.171 1342.78 Q121.36 1342.78 118.282 1338.2 Q115.226 1333.59 115.226 1324.86 Q115.226 1316.11 118.282 1311.53 Q121.36 1306.92 127.171 1306.92 Z" fill="#000000" fill-rule="nonzero" fill-opacity="1" /><path clip-path="url(#clip720)" d="M147.333 1336.23 L152.217 1336.23 L152.217 1342.11 L147.333 1342.11 L147.333 1336.23 Z" fill="#000000" fill-rule="nonzero" fill-opacity="1" /><path clip-path="url(#clip720)" d="M172.402 1310.63 Q168.791 1310.63 166.962 1314.19 Q165.157 1317.73 165.157 1324.86 Q165.157 1331.97 166.962 1335.53 Q168.791 1339.08 172.402 1339.08 Q176.036 1339.08 177.842 1335.53 Q179.67 1331.97 179.67 1324.86 Q179.67 1317.73 177.842 1314.19 Q176.036 1310.63 172.402 1310.63 M172.402 1306.92 Q178.212 1306.92 181.268 1311.53 Q184.346 1316.11 184.346 1324.86 Q184.346 1333.59 181.268 1338.2 Q178.212 1342.78 172.402 1342.78 Q166.592 1342.78 163.513 1338.2 Q160.458 1333.59 160.458 1324.86 Q160.458 1316.11 163.513 1311.53 Q166.592 1306.92 172.402 1306.92 Z" fill="#000000" fill-rule="nonzero" fill-opacity="1" /><path clip-path="url(#clip720)" d="M128.768 1124.03 Q125.157 1124.03 123.328 1127.59 Q121.523 1131.13 121.523 1138.26 Q121.523 1145.37 123.328 1148.93 Q125.157 1152.48 128.768 1152.48 Q132.402 1152.48 134.208 1148.93 Q136.036 1145.37 136.036 1138.26 Q136.036 1131.13 134.208 1127.59 Q132.402 1124.03 128.768 1124.03 M128.768 1120.32 Q134.578 1120.32 137.634 1124.93 Q140.712 1129.51 140.712 1138.26 Q140.712 1146.99 137.634 1151.6 Q134.578 1156.18 128.768 1156.18 Q122.958 1156.18 119.879 1151.6 Q116.823 1146.99 116.823 1138.26 Q116.823 1129.51 119.879 1124.93 Q122.958 1120.32 128.768 1120.32 Z" fill="#000000" fill-rule="nonzero" fill-opacity="1" /><path clip-path="url(#clip720)" d="M148.93 1149.63 L153.814 1149.63 L153.814 1155.51 L148.93 1155.51 L148.93 1149.63 Z" fill="#000000" fill-rule="nonzero" fill-opacity="1" /><path clip-path="url(#clip720)" d="M168.027 1151.57 L184.346 1151.57 L184.346 1155.51 L162.402 1155.51 L162.402 1151.57 Q165.064 1148.82 169.647 1144.19 Q174.254 1139.54 175.434 1138.19 Q177.68 1135.67 178.559 1133.93 Q179.462 1132.18 179.462 1130.49 Q179.462 1127.73 177.518 1126 Q175.596 1124.26 172.494 1124.26 Q170.295 1124.26 167.842 1125.02 Q165.411 1125.79 162.633 1127.34 L162.633 1122.62 Q165.457 1121.48 167.911 1120.9 Q170.365 1120.32 172.402 1120.32 Q177.772 1120.32 180.967 1123.01 Q184.161 1125.69 184.161 1130.18 Q184.161 1132.31 183.351 1134.24 Q182.564 1136.13 180.457 1138.73 Q179.879 1139.4 176.777 1142.62 Q173.675 1145.81 168.027 1151.57 Z" fill="#000000" fill-rule="nonzero" fill-opacity="1" /><path clip-path="url(#clip720)" d="M126.685 937.427 Q123.073 937.427 121.245 940.992 Q119.439 944.534 119.439 951.663 Q119.439 958.77 121.245 962.335 Q123.073 965.876 126.685 965.876 Q130.319 965.876 132.124 962.335 Q133.953 958.77 133.953 951.663 Q133.953 944.534 132.124 940.992 Q130.319 937.427 126.685 937.427 M126.685 933.724 Q132.495 933.724 135.55 938.33 Q138.629 942.914 138.629 951.663 Q138.629 960.39 135.55 964.997 Q132.495 969.58 126.685 969.58 Q120.874 969.58 117.796 964.997 Q114.74 960.39 114.74 951.663 Q114.74 942.914 117.796 938.33 Q120.874 933.724 126.685 933.724 Z" fill="#000000" fill-rule="nonzero" fill-opacity="1" /><path clip-path="url(#clip720)" d="M146.846 963.029 L151.731 963.029 L151.731 968.909 L146.846 968.909 L146.846 963.029 Z" fill="#000000" fill-rule="nonzero" fill-opacity="1" /><path clip-path="url(#clip720)" d="M174.763 938.423 L162.957 956.872 L174.763 956.872 L174.763 938.423 M173.536 934.349 L179.416 934.349 L179.416 956.872 L184.346 956.872 L184.346 960.761 L179.416 960.761 L179.416 968.909 L174.763 968.909 L174.763 960.761 L159.161 960.761 L159.161 956.247 L173.536 934.349 Z" fill="#000000" fill-rule="nonzero" fill-opacity="1" /><path clip-path="url(#clip720)" d="M127.009 750.827 Q123.398 750.827 121.569 754.392 Q119.763 757.934 119.763 765.063 Q119.763 772.17 121.569 775.735 Q123.398 779.276 127.009 779.276 Q130.643 779.276 132.448 775.735 Q134.277 772.17 134.277 765.063 Q134.277 757.934 132.448 754.392 Q130.643 750.827 127.009 750.827 M127.009 747.124 Q132.819 747.124 135.874 751.73 Q138.953 756.313 138.953 765.063 Q138.953 773.79 135.874 778.397 Q132.819 782.98 127.009 782.98 Q121.198 782.98 118.12 778.397 Q115.064 773.79 115.064 765.063 Q115.064 756.313 118.12 751.73 Q121.198 747.124 127.009 747.124 Z" fill="#000000" fill-rule="nonzero" fill-opacity="1" /><path clip-path="url(#clip720)" d="M147.171 776.429 L152.055 776.429 L152.055 782.309 L147.171 782.309 L147.171 776.429 Z" fill="#000000" fill-rule="nonzero" fill-opacity="1" /><path clip-path="url(#clip720)" d="M172.819 763.165 Q169.67 763.165 167.819 765.318 Q165.99 767.471 165.99 771.221 Q165.99 774.948 167.819 777.123 Q169.67 779.276 172.819 779.276 Q175.967 779.276 177.795 777.123 Q179.647 774.948 179.647 771.221 Q179.647 767.471 177.795 765.318 Q175.967 763.165 172.819 763.165 M182.101 748.513 L182.101 752.772 Q180.342 751.938 178.536 751.499 Q176.754 751.059 174.994 751.059 Q170.365 751.059 167.911 754.184 Q165.481 757.309 165.133 763.628 Q166.499 761.614 168.559 760.549 Q170.619 759.462 173.096 759.462 Q178.305 759.462 181.314 762.633 Q184.346 765.781 184.346 771.221 Q184.346 776.545 181.198 779.762 Q178.05 782.98 172.819 782.98 Q166.823 782.98 163.652 778.397 Q160.481 773.79 160.481 765.063 Q160.481 756.869 164.37 752.008 Q168.258 747.124 174.809 747.124 Q176.569 747.124 178.351 747.471 Q180.156 747.818 182.101 748.513 Z" fill="#000000" fill-rule="nonzero" fill-opacity="1" /><path clip-path="url(#clip720)" d="M127.263 564.227 Q123.652 564.227 121.823 567.792 Q120.018 571.334 120.018 578.463 Q120.018 585.57 121.823 589.134 Q123.652 592.676 127.263 592.676 Q130.897 592.676 132.703 589.134 Q134.532 585.57 134.532 578.463 Q134.532 571.334 132.703 567.792 Q130.897 564.227 127.263 564.227 M127.263 560.524 Q133.073 560.524 136.129 565.13 Q139.208 569.713 139.208 578.463 Q139.208 587.19 136.129 591.797 Q133.073 596.38 127.263 596.38 Q121.453 596.38 118.374 591.797 Q115.319 587.19 115.319 578.463 Q115.319 569.713 118.374 565.13 Q121.453 560.524 127.263 560.524 Z" fill="#000000" fill-rule="nonzero" fill-opacity="1" /><path clip-path="url(#clip720)" d="M147.425 589.829 L152.309 589.829 L152.309 595.709 L147.425 595.709 L147.425 589.829 Z" fill="#000000" fill-rule="nonzero" fill-opacity="1" /><path clip-path="url(#clip720)" d="M172.494 579.297 Q169.161 579.297 167.24 581.079 Q165.342 582.861 165.342 585.986 Q165.342 589.111 167.24 590.894 Q169.161 592.676 172.494 592.676 Q175.828 592.676 177.749 590.894 Q179.67 589.088 179.67 585.986 Q179.67 582.861 177.749 581.079 Q175.851 579.297 172.494 579.297 M167.819 577.306 Q164.809 576.565 163.12 574.505 Q161.453 572.445 161.453 569.482 Q161.453 565.338 164.393 562.931 Q167.356 560.524 172.494 560.524 Q177.656 560.524 180.596 562.931 Q183.536 565.338 183.536 569.482 Q183.536 572.445 181.846 574.505 Q180.18 576.565 177.194 577.306 Q180.573 578.093 182.448 580.385 Q184.346 582.676 184.346 585.986 Q184.346 591.009 181.268 593.695 Q178.212 596.38 172.494 596.38 Q166.777 596.38 163.698 593.695 Q160.643 591.009 160.643 585.986 Q160.643 582.676 162.541 580.385 Q164.439 578.093 167.819 577.306 M166.106 569.922 Q166.106 572.607 167.772 574.111 Q169.462 575.616 172.494 575.616 Q175.504 575.616 177.194 574.111 Q178.906 572.607 178.906 569.922 Q178.906 567.236 177.194 565.732 Q175.504 564.227 172.494 564.227 Q169.462 564.227 167.772 565.732 Q166.106 567.236 166.106 569.922 Z" fill="#000000" fill-rule="nonzero" fill-opacity="1" /><path clip-path="url(#clip720)" d="M117.981 405.173 L125.62 405.173 L125.62 378.808 L117.31 380.474 L117.31 376.215 L125.573 374.548 L130.249 374.548 L130.249 405.173 L137.888 405.173 L137.888 409.108 L117.981 409.108 L117.981 405.173 Z" fill="#000000" fill-rule="nonzero" fill-opacity="1" /><path clip-path="url(#clip720)" d="M147.333 403.229 L152.217 403.229 L152.217 409.108 L147.333 409.108 L147.333 403.229 Z" fill="#000000" fill-rule="nonzero" fill-opacity="1" /><path clip-path="url(#clip720)" d="M172.402 377.627 Q168.791 377.627 166.962 381.192 Q165.157 384.734 165.157 391.863 Q165.157 398.97 166.962 402.534 Q168.791 406.076 172.402 406.076 Q176.036 406.076 177.842 402.534 Q179.67 398.97 179.67 391.863 Q179.67 384.734 177.842 381.192 Q176.036 377.627 172.402 377.627 M172.402 373.923 Q178.212 373.923 181.268 378.53 Q184.346 383.113 184.346 391.863 Q184.346 400.59 181.268 405.196 Q178.212 409.78 172.402 409.78 Q166.592 409.78 163.513 405.196 Q160.458 400.59 160.458 391.863 Q160.458 383.113 163.513 378.53 Q166.592 373.923 172.402 373.923 Z" fill="#000000" fill-rule="nonzero" fill-opacity="1" /><path clip-path="url(#clip720)" d="M119.578 218.573 L127.217 218.573 L127.217 192.208 L118.907 193.874 L118.907 189.615 L127.171 187.948 L131.847 187.948 L131.847 218.573 L139.485 218.573 L139.485 222.508 L119.578 222.508 L119.578 218.573 Z" fill="#000000" fill-rule="nonzero" fill-opacity="1" /><path clip-path="url(#clip720)" d="M148.93 216.629 L153.814 216.629 L153.814 222.508 L148.93 222.508 L148.93 216.629 Z" fill="#000000" fill-rule="nonzero" fill-opacity="1" /><path clip-path="url(#clip720)" d="M168.027 218.573 L184.346 218.573 L184.346 222.508 L162.402 222.508 L162.402 218.573 Q165.064 215.819 169.647 211.189 Q174.254 206.536 175.434 205.194 Q177.68 202.67 178.559 200.934 Q179.462 199.175 179.462 197.485 Q179.462 194.731 177.518 192.995 Q175.596 191.258 172.494 191.258 Q170.295 191.258 167.842 192.022 Q165.411 192.786 162.633 194.337 L162.633 189.615 Q165.457 188.481 167.911 187.902 Q170.365 187.323 172.402 187.323 Q177.772 187.323 180.967 190.008 Q184.161 192.694 184.161 197.184 Q184.161 199.314 183.351 201.235 Q182.564 203.133 180.457 205.726 Q179.879 206.397 176.777 209.615 Q173.675 212.809 168.027 218.573 Z" fill="#000000" fill-rule="nonzero" fill-opacity="1" /><path clip-path="url(#clip720)" d="M23.6877 854.956 L60.6406 854.956 L60.6406 847.189 Q60.6406 837.354 56.1846 832.803 Q51.7286 828.22 42.1164 828.22 Q32.5679 828.22 28.1437 832.803 Q23.6877 837.354 23.6877 847.189 L23.6877 854.956 M18.4042 861.385 L18.4042 848.176 Q18.4042 834.363 24.1651 827.901 Q29.8943 821.44 42.1164 821.44 Q54.4022 821.44 60.1632 827.933 Q65.9242 834.426 65.9242 848.176 L65.9242 861.385 L18.4042 861.385 Z" fill="#000000" fill-rule="nonzero" fill-opacity="1" /><path clip-path="url(#clip720)" d="M46.6361 780.954 L49.5006 780.954 L49.5006 807.881 Q55.5481 807.499 58.7309 804.253 Q61.8819 800.974 61.8819 795.15 Q61.8819 791.776 61.0544 788.625 Q60.2269 785.442 58.5718 782.323 L64.1099 782.323 Q65.4467 785.474 66.147 788.784 Q66.8472 792.094 66.8472 795.5 Q66.8472 804.03 61.8819 809.027 Q56.9167 813.992 48.4503 813.992 Q39.6974 813.992 34.5731 809.282 Q29.4168 804.539 29.4168 796.518 Q29.4168 789.325 34.0638 785.156 Q38.6789 780.954 46.6361 780.954 M44.9173 786.811 Q40.1112 786.874 37.2466 789.516 Q34.3821 792.126 34.3821 796.455 Q34.3821 801.356 37.1512 804.316 Q39.9202 807.245 44.9492 807.69 L44.9173 786.811 Z" fill="#000000" fill-rule="nonzero" fill-opacity="1" /><path clip-path="url(#clip720)" d="M44.4081 741.71 L65.9242 741.71 L65.9242 747.566 L44.599 747.566 Q39.5383 747.566 37.0238 749.539 Q34.5094 751.513 34.5094 755.46 Q34.5094 760.202 37.5331 762.939 Q40.5568 765.677 45.7767 765.677 L65.9242 765.677 L65.9242 771.565 L30.2762 771.565 L30.2762 765.677 L35.8144 765.677 Q32.5997 763.576 31.0083 760.743 Q29.4168 757.879 29.4168 754.155 Q29.4168 748.012 33.2363 744.861 Q37.0238 741.71 44.4081 741.71 Z" fill="#000000" fill-rule="nonzero" fill-opacity="1" /><path clip-path="url(#clip720)" d="M31.3265 707.303 L36.8647 707.303 Q35.5916 709.786 34.955 712.459 Q34.3184 715.133 34.3184 717.997 Q34.3184 722.358 35.6552 724.554 Q36.992 726.718 39.6656 726.718 Q41.7026 726.718 42.8803 725.159 Q44.0261 723.599 45.0765 718.889 L45.5221 716.883 Q46.8589 710.645 49.3097 708.035 Q51.7286 705.393 56.0891 705.393 Q61.0544 705.393 63.9508 709.34 Q66.8472 713.255 66.8472 720.13 Q66.8472 722.994 66.2743 726.114 Q65.7332 729.201 64.6192 732.639 L58.5718 732.639 Q60.2587 729.392 61.118 726.241 Q61.9456 723.09 61.9456 720.003 Q61.9456 715.865 60.5451 713.637 Q59.1129 711.409 56.5347 711.409 Q54.1476 711.409 52.8745 713.032 Q51.6013 714.624 50.4237 720.066 L49.9462 722.103 Q48.8004 727.546 46.4451 729.965 Q44.058 732.384 39.9202 732.384 Q34.8913 732.384 32.1541 728.819 Q29.4168 725.254 29.4168 718.698 Q29.4168 715.451 29.8943 712.587 Q30.3717 709.722 31.3265 707.303 Z" fill="#000000" fill-rule="nonzero" fill-opacity="1" /><path clip-path="url(#clip720)" d="M30.2762 696.068 L30.2762 690.211 L65.9242 690.211 L65.9242 696.068 L30.2762 696.068 M16.399 696.068 L16.399 690.211 L23.815 690.211 L23.815 696.068 L16.399 696.068 Z" fill="#000000" fill-rule="nonzero" fill-opacity="1" /><path clip-path="url(#clip720)" d="M20.1547 672.164 L30.2762 672.164 L30.2762 660.101 L34.8277 660.101 L34.8277 672.164 L54.1794 672.164 Q58.5399 672.164 59.7813 670.987 Q61.0226 669.777 61.0226 666.117 L61.0226 660.101 L65.9242 660.101 L65.9242 666.117 Q65.9242 672.896 63.4097 675.474 Q60.8634 678.053 54.1794 678.053 L34.8277 678.053 L34.8277 682.349 L30.2762 682.349 L30.2762 678.053 L20.1547 678.053 L20.1547 672.164 Z" fill="#000000" fill-rule="nonzero" fill-opacity="1" /><path clip-path="url(#clip720)" d="M69.2343 637.567 Q75.6 640.049 77.5416 642.405 Q79.4831 644.76 79.4831 648.707 L79.4831 653.385 L74.5815 653.385 L74.5815 649.948 Q74.5815 647.529 73.4357 646.192 Q72.2899 644.855 68.0248 643.232 L65.3512 642.182 L30.2762 656.6 L30.2762 650.394 L58.158 639.254 L30.2762 628.114 L30.2762 621.907 L69.2343 637.567 Z" fill="#000000" fill-rule="nonzero" fill-opacity="1" /><path clip-path="url(#clip720)" d="M815.099 18.8205 L815.099 41.5461 L825.388 41.5461 Q831.1 41.5461 834.219 38.5889 Q837.338 35.6318 837.338 30.163 Q837.338 24.7348 834.219 21.7777 Q831.1 18.8205 825.388 18.8205 L815.099 18.8205 M806.916 12.096 L825.388 12.096 Q835.556 12.096 840.741 16.714 Q845.967 21.2916 845.967 30.163 Q845.967 39.1155 840.741 43.6931 Q835.556 48.2706 825.388 48.2706 L815.099 48.2706 L815.099 72.576 L806.916 72.576 L806.916 12.096 Z" fill="#000000" fill-rule="nonzero" fill-opacity="1" /><path clip-path="url(#clip720)" d="M871.245 32.4315 Q865.249 32.4315 861.765 37.1306 Q858.282 41.7891 858.282 49.9314 Q858.282 58.0738 861.725 62.7728 Q865.209 67.4314 871.245 67.4314 Q877.199 67.4314 880.683 62.7323 Q884.167 58.0333 884.167 49.9314 Q884.167 41.8701 880.683 37.1711 Q877.199 32.4315 871.245 32.4315 M871.245 26.1121 Q880.967 26.1121 886.516 32.4315 Q892.066 38.7509 892.066 49.9314 Q892.066 61.0714 886.516 67.4314 Q880.967 73.7508 871.245 73.7508 Q861.482 73.7508 855.932 67.4314 Q850.423 61.0714 850.423 49.9314 Q850.423 38.7509 855.932 32.4315 Q861.482 26.1121 871.245 26.1121 Z" fill="#000000" fill-rule="nonzero" fill-opacity="1" /><path clip-path="url(#clip720)" d="M933.345 28.5427 L933.345 35.5912 Q930.185 33.9709 926.782 33.1607 Q923.38 32.3505 919.734 32.3505 Q914.184 32.3505 911.389 34.0519 Q908.634 35.7533 908.634 39.156 Q908.634 41.7486 910.619 43.2475 Q912.604 44.7058 918.6 46.0426 L921.152 46.6097 Q929.091 48.3111 932.413 51.4303 Q935.775 54.509 935.775 60.0587 Q935.775 66.3781 930.752 70.0644 Q925.77 73.7508 917.02 73.7508 Q913.374 73.7508 909.404 73.0216 Q905.475 72.3329 901.1 70.9151 L901.1 63.2184 Q905.232 65.3654 909.242 66.4591 Q913.252 67.5124 917.182 67.5124 Q922.448 67.5124 925.284 65.73 Q928.119 63.9071 928.119 60.6258 Q928.119 57.5877 926.053 55.9673 Q924.028 54.3469 917.101 52.8481 L914.508 52.2405 Q907.581 50.7821 904.502 47.7845 Q901.424 44.7463 901.424 39.4801 Q901.424 33.0797 905.961 29.5959 Q910.498 26.1121 918.843 26.1121 Q922.975 26.1121 926.62 26.7198 Q930.266 27.3274 933.345 28.5427 Z" fill="#000000" fill-rule="nonzero" fill-opacity="1" /><path clip-path="url(#clip720)" d="M955.017 14.324 L955.017 27.2059 L970.37 27.2059 L970.37 32.9987 L955.017 32.9987 L955.017 57.6282 Q955.017 63.1779 956.516 64.7578 Q958.055 66.3376 962.714 66.3376 L970.37 66.3376 L970.37 72.576 L962.714 72.576 Q954.085 72.576 950.804 69.3758 Q947.523 66.1351 947.523 57.6282 L947.523 32.9987 L942.054 32.9987 L942.054 27.2059 L947.523 27.2059 L947.523 14.324 L955.017 14.324 Z" fill="#000000" fill-rule="nonzero" fill-opacity="1" /><path clip-path="url(#clip720)" d="M1018.98 48.0275 L1018.98 51.6733 L984.71 51.6733 Q985.196 59.3701 989.328 63.421 Q993.501 67.4314 1000.91 67.4314 Q1005.21 67.4314 1009.22 66.3781 Q1013.27 65.3249 1017.24 63.2184 L1017.24 70.267 Q1013.23 71.9684 1009.02 72.8596 Q1004.8 73.7508 1000.47 73.7508 Q989.612 73.7508 983.252 67.4314 Q976.933 61.1119 976.933 50.3365 Q976.933 39.1965 982.928 32.6746 Q988.964 26.1121 999.172 26.1121 Q1008.33 26.1121 1013.63 32.0264 Q1018.98 37.9003 1018.98 48.0275 M1011.53 45.84 Q1011.45 39.7232 1008.08 36.0774 Q1004.76 32.4315 999.253 32.4315 Q993.015 32.4315 989.247 35.9558 Q985.521 39.4801 984.953 45.8805 L1011.53 45.84 Z" fill="#000000" fill-rule="nonzero" fill-opacity="1" /><path clip-path="url(#clip720)" d="M1057.51 34.1734 Q1056.25 33.4443 1054.75 33.1202 Q1053.29 32.7556 1051.51 32.7556 Q1045.19 32.7556 1041.79 36.8875 Q1038.43 40.9789 1038.43 48.6757 L1038.43 72.576 L1030.93 72.576 L1030.93 27.2059 L1038.43 27.2059 L1038.43 34.2544 Q1040.77 30.1225 1044.54 28.1376 Q1048.31 26.1121 1053.7 26.1121 Q1054.47 26.1121 1055.4 26.2337 Q1056.33 26.3147 1057.46 26.5172 L1057.51 34.1734 Z" fill="#000000" fill-rule="nonzero" fill-opacity="1" /><path clip-path="url(#clip720)" d="M1065.32 27.2059 L1072.78 27.2059 L1072.78 72.576 L1065.32 72.576 L1065.32 27.2059 M1065.32 9.54393 L1072.78 9.54393 L1072.78 18.9825 L1065.32 18.9825 L1065.32 9.54393 Z" fill="#000000" fill-rule="nonzero" fill-opacity="1" /><path clip-path="url(#clip720)" d="M1105.95 32.4315 Q1099.96 32.4315 1096.47 37.1306 Q1092.99 41.7891 1092.99 49.9314 Q1092.99 58.0738 1096.43 62.7728 Q1099.92 67.4314 1105.95 67.4314 Q1111.91 67.4314 1115.39 62.7323 Q1118.88 58.0333 1118.88 49.9314 Q1118.88 41.8701 1115.39 37.1711 Q1111.91 32.4315 1105.95 32.4315 M1105.95 26.1121 Q1115.68 26.1121 1121.23 32.4315 Q1126.78 38.7509 1126.78 49.9314 Q1126.78 61.0714 1121.23 67.4314 Q1115.68 73.7508 1105.95 73.7508 Q1096.19 73.7508 1090.64 67.4314 Q1085.13 61.0714 1085.13 49.9314 Q1085.13 38.7509 1090.64 32.4315 Q1096.19 26.1121 1105.95 26.1121 Z" fill="#000000" fill-rule="nonzero" fill-opacity="1" /><path clip-path="url(#clip720)" d="M1165.42 34.1734 Q1164.17 33.4443 1162.67 33.1202 Q1161.21 32.7556 1159.43 32.7556 Q1153.11 32.7556 1149.7 36.8875 Q1146.34 40.9789 1146.34 48.6757 L1146.34 72.576 L1138.85 72.576 L1138.85 27.2059 L1146.34 27.2059 L1146.34 34.2544 Q1148.69 30.1225 1152.46 28.1376 Q1156.23 26.1121 1161.61 26.1121 Q1162.38 26.1121 1163.31 26.2337 Q1164.25 26.3147 1165.38 26.5172 L1165.42 34.1734 Z" fill="#000000" fill-rule="nonzero" fill-opacity="1" /><path clip-path="url(#clip720)" d="M1208.12 18.8205 L1208.12 65.8515 L1218 65.8515 Q1230.52 65.8515 1236.31 60.1802 Q1242.15 54.509 1242.15 42.2752 Q1242.15 30.1225 1236.31 24.4918 Q1230.52 18.8205 1218 18.8205 L1208.12 18.8205 M1199.93 12.096 L1216.75 12.096 Q1234.33 12.096 1242.55 19.4281 Q1250.77 26.7198 1250.77 42.2752 Q1250.77 57.9117 1242.51 65.2439 Q1234.25 72.576 1216.75 72.576 L1199.93 72.576 L1199.93 12.096 Z" fill="#000000" fill-rule="nonzero" fill-opacity="1" /><path clip-path="url(#clip720)" d="M1263.49 27.2059 L1270.95 27.2059 L1270.95 72.576 L1263.49 72.576 L1263.49 27.2059 M1263.49 9.54393 L1270.95 9.54393 L1270.95 18.9825 L1263.49 18.9825 L1263.49 9.54393 Z" fill="#000000" fill-rule="nonzero" fill-opacity="1" /><path clip-path="url(#clip720)" d="M1315.47 28.5427 L1315.47 35.5912 Q1312.31 33.9709 1308.9 33.1607 Q1305.5 32.3505 1301.86 32.3505 Q1296.31 32.3505 1293.51 34.0519 Q1290.76 35.7533 1290.76 39.156 Q1290.76 41.7486 1292.74 43.2475 Q1294.73 44.7058 1300.72 46.0426 L1303.27 46.6097 Q1311.21 48.3111 1314.53 51.4303 Q1317.9 54.509 1317.9 60.0587 Q1317.9 66.3781 1312.87 70.0644 Q1307.89 73.7508 1299.14 73.7508 Q1295.5 73.7508 1291.53 73.0216 Q1287.6 72.3329 1283.22 70.9151 L1283.22 63.2184 Q1287.35 65.3654 1291.36 66.4591 Q1295.37 67.5124 1299.3 67.5124 Q1304.57 67.5124 1307.41 65.73 Q1310.24 63.9071 1310.24 60.6258 Q1310.24 57.5877 1308.18 55.9673 Q1306.15 54.3469 1299.22 52.8481 L1296.63 52.2405 Q1289.7 50.7821 1286.62 47.7845 Q1283.55 44.7463 1283.55 39.4801 Q1283.55 33.0797 1288.08 29.5959 Q1292.62 26.1121 1300.96 26.1121 Q1305.1 26.1121 1308.74 26.7198 Q1312.39 27.3274 1315.47 28.5427 Z" fill="#000000" fill-rule="nonzero" fill-opacity="1" /><path clip-path="url(#clip720)" d="M1337.14 14.324 L1337.14 27.2059 L1352.49 27.2059 L1352.49 32.9987 L1337.14 32.9987 L1337.14 57.6282 Q1337.14 63.1779 1338.64 64.7578 Q1340.18 66.3376 1344.84 66.3376 L1352.49 66.3376 L1352.49 72.576 L1344.84 72.576 Q1336.21 72.576 1332.93 69.3758 Q1329.64 66.1351 1329.64 57.6282 L1329.64 32.9987 L1324.18 32.9987 L1324.18 27.2059 L1329.64 27.2059 L1329.64 14.324 L1337.14 14.324 Z" fill="#000000" fill-rule="nonzero" fill-opacity="1" /><path clip-path="url(#clip720)" d="M1388.59 34.1734 Q1387.33 33.4443 1385.83 33.1202 Q1384.37 32.7556 1382.59 32.7556 Q1376.27 32.7556 1372.87 36.8875 Q1369.51 40.9789 1369.51 48.6757 L1369.51 72.576 L1362.01 72.576 L1362.01 27.2059 L1369.51 27.2059 L1369.51 34.2544 Q1371.86 30.1225 1375.62 28.1376 Q1379.39 26.1121 1384.78 26.1121 Q1385.55 26.1121 1386.48 26.2337 Q1387.41 26.3147 1388.54 26.5172 L1388.59 34.1734 Z" fill="#000000" fill-rule="nonzero" fill-opacity="1" /><path clip-path="url(#clip720)" d="M1396.4 27.2059 L1403.86 27.2059 L1403.86 72.576 L1396.4 72.576 L1396.4 27.2059 M1396.4 9.54393 L1403.86 9.54393 L1403.86 18.9825 L1396.4 18.9825 L1396.4 9.54393 Z" fill="#000000" fill-rule="nonzero" fill-opacity="1" /><path clip-path="url(#clip720)" d="M1452.02 49.9314 Q1452.02 41.7081 1448.62 37.0496 Q1445.26 32.3505 1439.34 32.3505 Q1433.43 32.3505 1430.03 37.0496 Q1426.66 41.7081 1426.66 49.9314 Q1426.66 58.1548 1430.03 62.8538 Q1433.43 67.5124 1439.34 67.5124 Q1445.26 67.5124 1448.62 62.8538 Q1452.02 58.1548 1452.02 49.9314 M1426.66 34.0924 Q1429.01 30.0415 1432.58 28.0971 Q1436.18 26.1121 1441.17 26.1121 Q1449.43 26.1121 1454.57 32.6746 Q1459.76 39.2371 1459.76 49.9314 Q1459.76 60.6258 1454.57 67.1883 Q1449.43 73.7508 1441.17 73.7508 Q1436.18 73.7508 1432.58 71.8063 Q1429.01 69.8214 1426.66 65.7705 L1426.66 72.576 L1419.17 72.576 L1419.17 9.54393 L1426.66 9.54393 L1426.66 34.0924 Z" fill="#000000" fill-rule="nonzero" fill-opacity="1" /><path clip-path="url(#clip720)" d="M1471.35 54.671 L1471.35 27.2059 L1478.8 27.2059 L1478.8 54.3874 Q1478.8 60.8284 1481.31 64.0691 Q1483.82 67.2693 1488.85 67.2693 Q1494.88 67.2693 1498.36 63.421 Q1501.89 59.5726 1501.89 52.9291 L1501.89 27.2059 L1509.34 27.2059 L1509.34 72.576 L1501.89 72.576 L1501.89 65.6084 Q1499.18 69.7404 1495.57 71.7658 Q1492.01 73.7508 1487.27 73.7508 Q1479.45 73.7508 1475.4 68.8897 Q1471.35 64.0286 1471.35 54.671 M1490.1 26.1121 L1490.1 26.1121 Z" fill="#000000" fill-rule="nonzero" fill-opacity="1" /><path clip-path="url(#clip720)" d="M1532.07 14.324 L1532.07 27.2059 L1547.42 27.2059 L1547.42 32.9987 L1532.07 32.9987 L1532.07 57.6282 Q1532.07 63.1779 1533.57 64.7578 Q1535.11 66.3376 1539.77 66.3376 L1547.42 66.3376 L1547.42 72.576 L1539.77 72.576 Q1531.14 72.576 1527.86 69.3758 Q1524.57 66.1351 1524.57 57.6282 L1524.57 32.9987 L1519.11 32.9987 L1519.11 27.2059 L1524.57 27.2059 L1524.57 14.324 L1532.07 14.324 Z" fill="#000000" fill-rule="nonzero" fill-opacity="1" /><path clip-path="url(#clip720)" d="M1557.22 27.2059 L1564.68 27.2059 L1564.68 72.576 L1557.22 72.576 L1557.22 27.2059 M1557.22 9.54393 L1564.68 9.54393 L1564.68 18.9825 L1557.22 18.9825 L1557.22 9.54393 Z" fill="#000000" fill-rule="nonzero" fill-opacity="1" /><path clip-path="url(#clip720)" d="M1597.86 32.4315 Q1591.86 32.4315 1588.38 37.1306 Q1584.89 41.7891 1584.89 49.9314 Q1584.89 58.0738 1588.34 62.7728 Q1591.82 67.4314 1597.86 67.4314 Q1603.81 67.4314 1607.29 62.7323 Q1610.78 58.0333 1610.78 49.9314 Q1610.78 41.8701 1607.29 37.1711 Q1603.81 32.4315 1597.86 32.4315 M1597.86 26.1121 Q1607.58 26.1121 1613.13 32.4315 Q1618.68 38.7509 1618.68 49.9314 Q1618.68 61.0714 1613.13 67.4314 Q1607.58 73.7508 1597.86 73.7508 Q1588.09 73.7508 1582.54 67.4314 Q1577.03 61.0714 1577.03 49.9314 Q1577.03 38.7509 1582.54 32.4315 Q1588.09 26.1121 1597.86 26.1121 Z" fill="#000000" fill-rule="nonzero" fill-opacity="1" /><path clip-path="url(#clip720)" d="M1668.75 45.1919 L1668.75 72.576 L1661.29 72.576 L1661.29 45.4349 Q1661.29 38.994 1658.78 35.7938 Q1656.27 32.5936 1651.25 32.5936 Q1645.21 32.5936 1641.73 36.4419 Q1638.24 40.2903 1638.24 46.9338 L1638.24 72.576 L1630.75 72.576 L1630.75 27.2059 L1638.24 27.2059 L1638.24 34.2544 Q1640.92 30.163 1644.52 28.1376 Q1648.17 26.1121 1652.91 26.1121 Q1660.73 26.1121 1664.74 30.9732 Q1668.75 35.7938 1668.75 45.1919 Z" fill="#000000" fill-rule="nonzero" fill-opacity="1" /><polyline clip-path="url(#clip722)" style="stroke:#78c2ad; stroke-linecap:round; stroke-linejoin:round; stroke-width:4; stroke-opacity:1; fill:none" points="276.581,1324.83 286.242,1324.83 295.903,1324.83 305.564,1324.82 315.224,1324.81 324.885,1324.78 334.546,1324.73 344.207,1324.67 353.868,1324.61 363.528,1324.53 373.189,1324.42 382.85,1324.28 392.511,1324.12 402.172,1323.96 411.832,1323.82 421.493,1323.74 431.154,1323.72 440.815,1323.68 450.476,1323.51 460.136,1323.09 469.797,1322.41 479.458,1321.6 489.119,1320.82 498.78,1320.17 508.441,1319.61 518.101,1319.08 527.762,1318.46 537.423,1317.68 547.084,1316.64 556.745,1315.27 566.405,1313.48 576.066,1311.28 585.727,1308.73 595.388,1305.97 605.049,1303.07 614.709,1300.04 624.37,1296.82 634.031,1293.28 643.692,1289.23 653.353,1284.49 663.013,1278.9 672.674,1272.36 682.335,1264.88 691.996,1256.56 701.657,1247.26 711.317,1236.1 720.978,1219.62 730.639,1188.14 740.3,1124.02 749.961,1012.16 759.621,866.515 769.282,744.81 778.943,713.084 788.604,782.578 798.265,897.19 807.925,989.473 817.586,1032.18 827.247,1035.58 836.908,1018.8 846.569,993.996 856.229,966.235 865.89,937.213 875.551,907.738 885.212,878.57 894.873,849.848 904.533,820.351 914.194,787.985 923.855,751.291 933.516,710.801 943.177,669.339 952.837,630.776 962.498,597.306 972.159,567.388 981.82,536.902 991.481,502.608 1001.14,464.46 1010.8,425.378 1020.46,389.272 1030.12,358.442 1039.78,332.359 1049.45,308.971 1059.11,286.522 1068.77,263.961 1078.43,241.032 1088.09,218.807 1097.75,199.392 1107.41,184.48 1117.07,174.191 1126.73,167.354 1136.39,162.712 1146.05,159.712 1155.71,158.463 1165.38,159.264 1175.04,162.112 1184.7,166.588 1194.36,172.237 1204.02,179.155 1213.68,188.427 1223.34,201.76 1233,219.857 1242.66,241.122 1252.32,262.821 1261.98,283.713 1271.64,305.111 1281.3,329.55 1290.97,358.643 1300.63,391.623 1310.29,425.737 1319.95,458.511 1329.61,489.806 1339.27,521.68 1348.93,556.389 1358.59,594.258 1368.25,633.275 1377.91,670.926 1387.57,706.224 1397.23,739.879 1406.9,773.134 1416.56,806.664 1426.22,839.986 1435.88,871.7 1445.54,900.856 1455.2,928.146 1464.86,955.106 1474.52,982.199 1484.18,1008.45 1493.84,1032.93 1503.5,1055.68 1513.16,1077.19 1522.82,1097.76 1532.49,1117.49 1542.15,1136.3 1551.81,1153.82 1561.47,1169.48 1571.13,1183.01 1580.79,1194.74 1590.45,1205.56 1600.11,1216.35 1609.77,1227.22 1619.43,1237.59 1629.09,1247.03 1638.75,1255.72 1648.42,1264.05 1658.08,1272.03 1667.74,1279.21 1677.4,1285.12 1687.06,1289.61 1696.72,1293.03 1706.38,1296.06 1716.04,1299.22 1725.7,1302.54 1735.36,1305.75 1745.02,1308.57 1754.68,1310.94 1764.34,1312.92 1774.01,1314.63 1783.67,1316.15 1793.33,1317.51 1802.99,1318.69 1812.65,1319.68 1822.31,1320.52 1831.97,1321.23 1841.63,1321.83 1851.29,1322.3 1860.95,1322.66 1870.61,1322.94 1880.27,1323.18 1889.94,1323.41 1899.6,1323.64 1909.26,1323.81 1918.92,1323.92 1928.58,1323.95 1938.24,1323.97 1947.9,1324.03 1957.56,1324.12 1967.22,1324.22 1976.88,1324.33 1986.54,1324.46 1996.2,1324.58 2005.86,1324.68 2015.53,1324.71 2025.19,1324.68 2034.85,1324.63 2044.51,1324.59 2054.17,1324.59 2063.83,1324.65 2073.49,1324.72 2083.15,1324.77 2092.81,1324.78 2102.47,1324.76 2112.13,1324.73 2121.79,1324.7 2131.46,1324.71 2141.12,1324.74 2150.78,1324.78 2160.44,1324.81 2170.1,1324.82 2179.76,1324.83 2189.42,1324.83 2199.08,1324.83 "/>
<polyline clip-path="url(#clip722)" style="stroke:#ffc0cb; stroke-linecap:round; stroke-linejoin:round; stroke-width:8; stroke-opacity:1; fill:none" points="1428.25,2596.17 1428.25,-1112.88 "/>
<path clip-path="url(#clip720)" d="M1799.28 320.204 L2188.83 320.204 L2188.83 164.684 L1799.28 164.684  Z" fill="#ffffff" fill-rule="evenodd" fill-opacity="1"/>
<polyline clip-path="url(#clip720)" style="stroke:#000000; stroke-linecap:round; stroke-linejoin:round; stroke-width:4; stroke-opacity:1; fill:none" points="1799.28,320.204 2188.83,320.204 2188.83,164.684 1799.28,164.684 1799.28,320.204 "/>
<polyline clip-path="url(#clip720)" style="stroke:#78c2ad; stroke-linecap:round; stroke-linejoin:round; stroke-width:4; stroke-opacity:1; fill:none" points="1821.92,216.524 1957.78,216.524 "/>
<path clip-path="url(#clip720)" d="M1994.26 236.211 Q1992.46 240.841 1990.75 242.253 Q1989.03 243.665 1986.16 243.665 L1982.76 243.665 L1982.76 240.1 L1985.26 240.1 Q1987.02 240.1 1987.99 239.267 Q1988.96 238.433 1990.14 235.331 L1990.91 233.387 L1980.42 207.878 L1984.94 207.878 L1993.04 228.156 L2001.14 207.878 L2005.65 207.878 L1994.26 236.211 Z" fill="#000000" fill-rule="nonzero" fill-opacity="1" /><path clip-path="url(#clip720)" d="M2012.94 229.869 L2020.58 229.869 L2020.58 203.503 L2012.27 205.17 L2012.27 200.91 L2020.54 199.244 L2025.21 199.244 L2025.21 229.869 L2032.85 229.869 L2032.85 233.804 L2012.94 233.804 L2012.94 229.869 Z" fill="#000000" fill-rule="nonzero" fill-opacity="1" /><polyline clip-path="url(#clip720)" style="stroke:#ffc0cb; stroke-linecap:round; stroke-linejoin:round; stroke-width:8; stroke-opacity:1; fill:none" points="1821.92,268.364 1957.78,268.364 "/>
<path clip-path="url(#clip720)" d="M2005.07 259.718 L1995.7 272.334 L2005.56 285.644 L2000.54 285.644 L1992.99 275.459 L1985.45 285.644 L1980.42 285.644 L1990.49 272.079 L1981.28 259.718 L1986.3 259.718 L1993.18 268.954 L2000.05 259.718 L2005.07 259.718 Z" fill="#000000" fill-rule="nonzero" fill-opacity="1" /><path clip-path="url(#clip720)" d="M2029.24 251.084 L2041.81 263.977 L2037.16 263.977 L2026.97 254.834 L2016.79 263.977 L2012.13 263.977 L2024.7 251.084 L2029.24 251.084 Z" fill="#000000" fill-rule="nonzero" fill-opacity="1" /><path clip-path="url(#clip720)" d="M2069.13 256.778 L2060.82 261.269 L2069.13 265.783 L2067.78 268.051 L2060 263.352 L2060 272.079 L2057.37 272.079 L2057.37 263.352 L2049.59 268.051 L2048.25 265.783 L2056.56 261.269 L2048.25 256.778 L2049.59 254.486 L2057.37 259.186 L2057.37 250.459 L2060 250.459 L2060 259.186 L2067.78 254.486 L2069.13 256.778 Z" fill="#000000" fill-rule="nonzero" fill-opacity="1" /><path clip-path="url(#clip720)" d="M2090.63 264.116 L2120.31 264.116 L2120.31 268.005 L2090.63 268.005 L2090.63 264.116 M2090.63 273.56 L2120.31 273.56 L2120.31 277.496 L2090.63 277.496 L2090.63 273.56 Z" fill="#000000" fill-rule="nonzero" fill-opacity="1" /><path clip-path="url(#clip720)" d="M2146.28 281.709 L2153.92 281.709 L2153.92 255.343 L2145.61 257.01 L2145.61 252.75 L2153.87 251.084 L2158.55 251.084 L2158.55 281.709 L2166.18 281.709 L2166.18 285.644 L2146.28 285.644 L2146.28 281.709 Z" fill="#000000" fill-rule="nonzero" fill-opacity="1" /></svg>
