<?xml version="1.0" encoding="utf-8"?>
<svg xmlns="http://www.w3.org/2000/svg" xmlns:xlink="http://www.w3.org/1999/xlink" width="576" height="384" viewBox="0 0 2304 1536">
<defs>
  <clipPath id="clip180">
    <rect x="0" y="0" width="2304" height="1536"/>
  </clipPath>
</defs>
<path clip-path="url(#clip180)" d="M0 1536 L2304 1536 L2304 8.52651e-14 L0 8.52651e-14  Z" fill="#ffffff" fill-rule="evenodd" fill-opacity="1"/>
<defs>
  <clipPath id="clip181">
    <rect x="460" y="0" width="1614" height="1536"/>
  </clipPath>
</defs>
<path clip-path="url(#clip180)" d="M218.906 1359.82 L2256.76 1359.82 L2256.76 123.472 L218.906 123.472  Z" fill="#ffffff" fill-rule="evenodd" fill-opacity="1"/>
<defs>
  <clipPath id="clip182">
    <rect x="218" y="123" width="2039" height="1237"/>
  </clipPath>
</defs>
<polyline clip-path="url(#clip182)" style="stroke:#000000; stroke-linecap:round; stroke-linejoin:round; stroke-width:2; stroke-opacity:0.1; fill:none" points="472.611,1359.82 472.611,123.472 "/>
<polyline clip-path="url(#clip182)" style="stroke:#000000; stroke-linecap:round; stroke-linejoin:round; stroke-width:2; stroke-opacity:0.1; fill:none" points="803.341,1359.82 803.341,123.472 "/>
<polyline clip-path="url(#clip182)" style="stroke:#000000; stroke-linecap:round; stroke-linejoin:round; stroke-width:2; stroke-opacity:0.1; fill:none" points="1134.07,1359.82 1134.07,123.472 "/>
<polyline clip-path="url(#clip182)" style="stroke:#000000; stroke-linecap:round; stroke-linejoin:round; stroke-width:2; stroke-opacity:0.1; fill:none" points="1464.8,1359.82 1464.8,123.472 "/>
<polyline clip-path="url(#clip182)" style="stroke:#000000; stroke-linecap:round; stroke-linejoin:round; stroke-width:2; stroke-opacity:0.1; fill:none" points="1795.53,1359.82 1795.53,123.472 "/>
<polyline clip-path="url(#clip182)" style="stroke:#000000; stroke-linecap:round; stroke-linejoin:round; stroke-width:2; stroke-opacity:0.1; fill:none" points="2126.26,1359.82 2126.26,123.472 "/>
<polyline clip-path="url(#clip180)" style="stroke:#000000; stroke-linecap:round; stroke-linejoin:round; stroke-width:4; stroke-opacity:1; fill:none" points="218.906,1359.82 2256.76,1359.82 "/>
<polyline clip-path="url(#clip180)" style="stroke:#000000; stroke-linecap:round; stroke-linejoin:round; stroke-width:4; stroke-opacity:1; fill:none" points="472.611,1359.82 472.611,1340.92 "/>
<polyline clip-path="url(#clip180)" style="stroke:#000000; stroke-linecap:round; stroke-linejoin:round; stroke-width:4; stroke-opacity:1; fill:none" points="803.341,1359.82 803.341,1340.92 "/>
<polyline clip-path="url(#clip180)" style="stroke:#000000; stroke-linecap:round; stroke-linejoin:round; stroke-width:4; stroke-opacity:1; fill:none" points="1134.07,1359.82 1134.07,1340.92 "/>
<polyline clip-path="url(#clip180)" style="stroke:#000000; stroke-linecap:round; stroke-linejoin:round; stroke-width:4; stroke-opacity:1; fill:none" points="1464.8,1359.82 1464.8,1340.92 "/>
<polyline clip-path="url(#clip180)" style="stroke:#000000; stroke-linecap:round; stroke-linejoin:round; stroke-width:4; stroke-opacity:1; fill:none" points="1795.53,1359.82 1795.53,1340.92 "/>
<polyline clip-path="url(#clip180)" style="stroke:#000000; stroke-linecap:round; stroke-linejoin:round; stroke-width:4; stroke-opacity:1; fill:none" points="2126.26,1359.82 2126.26,1340.92 "/>
<path clip-path="url(#clip180)" d="M419.637 1404.62 L449.313 1404.62 L449.313 1408.56 L419.637 1408.56 L419.637 1404.62 Z" fill="#000000" fill-rule="nonzero" fill-opacity="1" /><path clip-path="url(#clip180)" d="M469.405 1389.97 Q465.794 1389.97 463.965 1393.54 Q462.16 1397.08 462.16 1404.21 Q462.16 1411.31 463.965 1414.88 Q465.794 1418.42 469.405 1418.42 Q473.039 1418.42 474.845 1414.88 Q476.674 1411.31 476.674 1404.21 Q476.674 1397.08 474.845 1393.54 Q473.039 1389.97 469.405 1389.97 M469.405 1386.27 Q475.215 1386.27 478.271 1390.87 Q481.35 1395.46 481.35 1404.21 Q481.35 1412.93 478.271 1417.54 Q475.215 1422.12 469.405 1422.12 Q463.595 1422.12 460.516 1417.54 Q457.461 1412.93 457.461 1404.21 Q457.461 1395.46 460.516 1390.87 Q463.595 1386.27 469.405 1386.27 Z" fill="#000000" fill-rule="nonzero" fill-opacity="1" /><path clip-path="url(#clip180)" d="M489.567 1415.57 L494.451 1415.57 L494.451 1421.45 L489.567 1421.45 L489.567 1415.57 Z" fill="#000000" fill-rule="nonzero" fill-opacity="1" /><path clip-path="url(#clip180)" d="M504.683 1386.89 L523.039 1386.89 L523.039 1390.83 L508.965 1390.83 L508.965 1399.3 Q509.984 1398.95 511.002 1398.79 Q512.021 1398.6 513.039 1398.6 Q518.826 1398.6 522.206 1401.78 Q525.585 1404.95 525.585 1410.36 Q525.585 1415.94 522.113 1419.04 Q518.641 1422.12 512.322 1422.12 Q510.146 1422.12 507.877 1421.75 Q505.632 1421.38 503.224 1420.64 L503.224 1415.94 Q505.308 1417.08 507.53 1417.63 Q509.752 1418.19 512.229 1418.19 Q516.234 1418.19 518.572 1416.08 Q520.909 1413.98 520.909 1410.36 Q520.909 1406.75 518.572 1404.65 Q516.234 1402.54 512.229 1402.54 Q510.354 1402.54 508.479 1402.96 Q506.627 1403.37 504.683 1404.25 L504.683 1386.89 Z" fill="#000000" fill-rule="nonzero" fill-opacity="1" /><path clip-path="url(#clip180)" d="M780.725 1389.97 Q777.114 1389.97 775.285 1393.54 Q773.48 1397.08 773.48 1404.21 Q773.48 1411.31 775.285 1414.88 Q777.114 1418.42 780.725 1418.42 Q784.359 1418.42 786.165 1414.88 Q787.994 1411.31 787.994 1404.21 Q787.994 1397.08 786.165 1393.54 Q784.359 1389.97 780.725 1389.97 M780.725 1386.27 Q786.535 1386.27 789.591 1390.87 Q792.67 1395.46 792.67 1404.21 Q792.67 1412.93 789.591 1417.54 Q786.535 1422.12 780.725 1422.12 Q774.915 1422.12 771.836 1417.54 Q768.781 1412.93 768.781 1404.21 Q768.781 1395.46 771.836 1390.87 Q774.915 1386.27 780.725 1386.27 Z" fill="#000000" fill-rule="nonzero" fill-opacity="1" /><path clip-path="url(#clip180)" d="M800.887 1415.57 L805.771 1415.57 L805.771 1421.45 L800.887 1421.45 L800.887 1415.57 Z" fill="#000000" fill-rule="nonzero" fill-opacity="1" /><path clip-path="url(#clip180)" d="M825.956 1389.97 Q822.345 1389.97 820.517 1393.54 Q818.711 1397.08 818.711 1404.21 Q818.711 1411.31 820.517 1414.88 Q822.345 1418.42 825.956 1418.42 Q829.591 1418.42 831.396 1414.88 Q833.225 1411.31 833.225 1404.21 Q833.225 1397.08 831.396 1393.54 Q829.591 1389.97 825.956 1389.97 M825.956 1386.27 Q831.767 1386.27 834.822 1390.87 Q837.901 1395.46 837.901 1404.21 Q837.901 1412.93 834.822 1417.54 Q831.767 1422.12 825.956 1422.12 Q820.146 1422.12 817.068 1417.54 Q814.012 1412.93 814.012 1404.21 Q814.012 1395.46 817.068 1390.87 Q820.146 1386.27 825.956 1386.27 Z" fill="#000000" fill-rule="nonzero" fill-opacity="1" /><path clip-path="url(#clip180)" d="M1111.95 1389.97 Q1108.34 1389.97 1106.51 1393.54 Q1104.71 1397.08 1104.71 1404.21 Q1104.71 1411.31 1106.51 1414.88 Q1108.34 1418.42 1111.95 1418.42 Q1115.59 1418.42 1117.39 1414.88 Q1119.22 1411.31 1119.22 1404.21 Q1119.22 1397.08 1117.39 1393.54 Q1115.59 1389.97 1111.95 1389.97 M1111.95 1386.27 Q1117.76 1386.27 1120.82 1390.87 Q1123.9 1395.46 1123.9 1404.21 Q1123.9 1412.93 1120.82 1417.54 Q1117.76 1422.12 1111.95 1422.12 Q1106.14 1422.12 1103.06 1417.54 Q1100.01 1412.93 1100.01 1404.21 Q1100.01 1395.46 1103.06 1390.87 Q1106.14 1386.27 1111.95 1386.27 Z" fill="#000000" fill-rule="nonzero" fill-opacity="1" /><path clip-path="url(#clip180)" d="M1132.11 1415.57 L1137 1415.57 L1137 1421.45 L1132.11 1421.45 L1132.11 1415.57 Z" fill="#000000" fill-rule="nonzero" fill-opacity="1" /><path clip-path="url(#clip180)" d="M1147.23 1386.89 L1165.59 1386.89 L1165.59 1390.83 L1151.51 1390.83 L1151.51 1399.3 Q1152.53 1398.95 1153.55 1398.79 Q1154.57 1398.6 1155.59 1398.6 Q1161.37 1398.6 1164.75 1401.78 Q1168.13 1404.95 1168.13 1410.36 Q1168.13 1415.94 1164.66 1419.04 Q1161.19 1422.12 1154.87 1422.12 Q1152.69 1422.12 1150.42 1421.75 Q1148.18 1421.38 1145.77 1420.64 L1145.77 1415.94 Q1147.86 1417.08 1150.08 1417.63 Q1152.3 1418.19 1154.78 1418.19 Q1158.78 1418.19 1161.12 1416.08 Q1163.46 1413.98 1163.46 1410.36 Q1163.46 1406.75 1161.12 1404.65 Q1158.78 1402.54 1154.78 1402.54 Q1152.9 1402.54 1151.03 1402.96 Q1149.17 1403.37 1147.23 1404.25 L1147.23 1386.89 Z" fill="#000000" fill-rule="nonzero" fill-opacity="1" /><path clip-path="url(#clip180)" d="M1431.95 1417.52 L1439.59 1417.52 L1439.59 1391.15 L1431.28 1392.82 L1431.28 1388.56 L1439.55 1386.89 L1444.22 1386.89 L1444.22 1417.52 L1451.86 1417.52 L1451.86 1421.45 L1431.95 1421.45 L1431.95 1417.52 Z" fill="#000000" fill-rule="nonzero" fill-opacity="1" /><path clip-path="url(#clip180)" d="M1461.3 1415.57 L1466.19 1415.57 L1466.19 1421.45 L1461.3 1421.45 L1461.3 1415.57 Z" fill="#000000" fill-rule="nonzero" fill-opacity="1" /><path clip-path="url(#clip180)" d="M1486.37 1389.97 Q1482.76 1389.97 1480.93 1393.54 Q1479.13 1397.08 1479.13 1404.21 Q1479.13 1411.31 1480.93 1414.88 Q1482.76 1418.42 1486.37 1418.42 Q1490.01 1418.42 1491.81 1414.88 Q1493.64 1411.31 1493.64 1404.21 Q1493.64 1397.08 1491.81 1393.54 Q1490.01 1389.97 1486.37 1389.97 M1486.37 1386.27 Q1492.18 1386.27 1495.24 1390.87 Q1498.32 1395.46 1498.32 1404.21 Q1498.32 1412.93 1495.24 1417.54 Q1492.18 1422.12 1486.37 1422.12 Q1480.56 1422.12 1477.49 1417.54 Q1474.43 1412.93 1474.43 1404.21 Q1474.43 1395.46 1477.49 1390.87 Q1480.56 1386.27 1486.37 1386.27 Z" fill="#000000" fill-rule="nonzero" fill-opacity="1" /><path clip-path="url(#clip180)" d="M1763.18 1417.52 L1770.82 1417.52 L1770.82 1391.15 L1762.51 1392.82 L1762.51 1388.56 L1770.77 1386.89 L1775.45 1386.89 L1775.45 1417.52 L1783.09 1417.52 L1783.09 1421.45 L1763.18 1421.45 L1763.18 1417.52 Z" fill="#000000" fill-rule="nonzero" fill-opacity="1" /><path clip-path="url(#clip180)" d="M1792.53 1415.57 L1797.42 1415.57 L1797.42 1421.45 L1792.53 1421.45 L1792.53 1415.57 Z" fill="#000000" fill-rule="nonzero" fill-opacity="1" /><path clip-path="url(#clip180)" d="M1807.65 1386.89 L1826 1386.89 L1826 1390.83 L1811.93 1390.83 L1811.93 1399.3 Q1812.95 1398.95 1813.97 1398.79 Q1814.99 1398.6 1816 1398.6 Q1821.79 1398.6 1825.17 1401.78 Q1828.55 1404.95 1828.55 1410.36 Q1828.55 1415.94 1825.08 1419.04 Q1821.61 1422.12 1815.29 1422.12 Q1813.11 1422.12 1810.84 1421.75 Q1808.6 1421.38 1806.19 1420.64 L1806.19 1415.94 Q1808.27 1417.08 1810.49 1417.63 Q1812.72 1418.19 1815.19 1418.19 Q1819.2 1418.19 1821.54 1416.08 Q1823.87 1413.98 1823.87 1410.36 Q1823.87 1406.75 1821.54 1404.65 Q1819.2 1402.54 1815.19 1402.54 Q1813.32 1402.54 1811.44 1402.96 Q1809.59 1403.37 1807.65 1404.25 L1807.65 1386.89 Z" fill="#000000" fill-rule="nonzero" fill-opacity="1" /><path clip-path="url(#clip180)" d="M2097.5 1417.52 L2113.82 1417.52 L2113.82 1421.45 L2091.87 1421.45 L2091.87 1417.52 Q2094.53 1414.76 2099.12 1410.13 Q2103.72 1405.48 2104.91 1404.14 Q2107.15 1401.61 2108.03 1399.88 Q2108.93 1398.12 2108.93 1396.43 Q2108.93 1393.67 2106.99 1391.94 Q2105.07 1390.2 2101.97 1390.2 Q2099.77 1390.2 2097.31 1390.97 Q2094.88 1391.73 2092.1 1393.28 L2092.1 1388.56 Q2094.93 1387.42 2097.38 1386.85 Q2099.84 1386.27 2101.87 1386.27 Q2107.24 1386.27 2110.44 1388.95 Q2113.63 1391.64 2113.63 1396.13 Q2113.63 1398.26 2112.82 1400.18 Q2112.03 1402.08 2109.93 1404.67 Q2109.35 1405.34 2106.25 1408.56 Q2103.15 1411.75 2097.5 1417.52 Z" fill="#000000" fill-rule="nonzero" fill-opacity="1" /><path clip-path="url(#clip180)" d="M2123.63 1415.57 L2128.52 1415.57 L2128.52 1421.45 L2123.63 1421.45 L2123.63 1415.57 Z" fill="#000000" fill-rule="nonzero" fill-opacity="1" /><path clip-path="url(#clip180)" d="M2148.7 1389.97 Q2145.09 1389.97 2143.26 1393.54 Q2141.46 1397.08 2141.46 1404.21 Q2141.46 1411.31 2143.26 1414.88 Q2145.09 1418.42 2148.7 1418.42 Q2152.34 1418.42 2154.14 1414.88 Q2155.97 1411.31 2155.97 1404.21 Q2155.97 1397.08 2154.14 1393.54 Q2152.34 1389.97 2148.7 1389.97 M2148.7 1386.27 Q2154.51 1386.27 2157.57 1390.87 Q2160.65 1395.46 2160.65 1404.21 Q2160.65 1412.93 2157.57 1417.54 Q2154.51 1422.12 2148.7 1422.12 Q2142.89 1422.12 2139.81 1417.54 Q2136.76 1412.93 2136.76 1404.21 Q2136.76 1395.46 2139.81 1390.87 Q2142.89 1386.27 2148.7 1386.27 Z" fill="#000000" fill-rule="nonzero" fill-opacity="1" /><path clip-path="url(#clip180)" d="M1238.05 1467.6 L1225.16 1484.94 L1238.72 1503.24 L1231.82 1503.24 L1221.44 1489.24 L1211.06 1503.24 L1204.16 1503.24 L1218 1484.59 L1205.33 1467.6 L1212.24 1467.6 L1221.69 1480.3 L1231.15 1467.6 L1238.05 1467.6 Z" fill="#000000" fill-rule="nonzero" fill-opacity="1" /><path clip-path="url(#clip180)" d="M1271.51 1463.55 L1260.08 1469.73 L1271.51 1475.93 L1269.66 1479.05 L1258.97 1472.59 L1258.97 1484.59 L1255.34 1484.59 L1255.34 1472.59 L1244.64 1479.05 L1242.8 1475.93 L1254.22 1469.73 L1242.8 1463.55 L1244.64 1460.4 L1255.34 1466.86 L1255.34 1454.86 L1258.97 1454.86 L1258.97 1466.86 L1269.66 1460.4 L1271.51 1463.55 Z" fill="#000000" fill-rule="nonzero" fill-opacity="1" /><polyline clip-path="url(#clip182)" style="stroke:#000000; stroke-linecap:round; stroke-linejoin:round; stroke-width:2; stroke-opacity:0.1; fill:none" points="218.906,1324.83 2256.76,1324.83 "/>
<polyline clip-path="url(#clip182)" style="stroke:#000000; stroke-linecap:round; stroke-linejoin:round; stroke-width:2; stroke-opacity:0.1; fill:none" points="218.906,1145.14 2256.76,1145.14 "/>
<polyline clip-path="url(#clip182)" style="stroke:#000000; stroke-linecap:round; stroke-linejoin:round; stroke-width:2; stroke-opacity:0.1; fill:none" points="218.906,965.448 2256.76,965.448 "/>
<polyline clip-path="url(#clip182)" style="stroke:#000000; stroke-linecap:round; stroke-linejoin:round; stroke-width:2; stroke-opacity:0.1; fill:none" points="218.906,785.757 2256.76,785.757 "/>
<polyline clip-path="url(#clip182)" style="stroke:#000000; stroke-linecap:round; stroke-linejoin:round; stroke-width:2; stroke-opacity:0.1; fill:none" points="218.906,606.066 2256.76,606.066 "/>
<polyline clip-path="url(#clip182)" style="stroke:#000000; stroke-linecap:round; stroke-linejoin:round; stroke-width:2; stroke-opacity:0.1; fill:none" points="218.906,426.376 2256.76,426.376 "/>
<polyline clip-path="url(#clip182)" style="stroke:#000000; stroke-linecap:round; stroke-linejoin:round; stroke-width:2; stroke-opacity:0.1; fill:none" points="218.906,246.685 2256.76,246.685 "/>
<polyline clip-path="url(#clip180)" style="stroke:#000000; stroke-linecap:round; stroke-linejoin:round; stroke-width:4; stroke-opacity:1; fill:none" points="218.906,1359.82 218.906,123.472 "/>
<polyline clip-path="url(#clip180)" style="stroke:#000000; stroke-linecap:round; stroke-linejoin:round; stroke-width:4; stroke-opacity:1; fill:none" points="218.906,1324.83 237.804,1324.83 "/>
<polyline clip-path="url(#clip180)" style="stroke:#000000; stroke-linecap:round; stroke-linejoin:round; stroke-width:4; stroke-opacity:1; fill:none" points="218.906,1145.14 237.804,1145.14 "/>
<polyline clip-path="url(#clip180)" style="stroke:#000000; stroke-linecap:round; stroke-linejoin:round; stroke-width:4; stroke-opacity:1; fill:none" points="218.906,965.448 237.804,965.448 "/>
<polyline clip-path="url(#clip180)" style="stroke:#000000; stroke-linecap:round; stroke-linejoin:round; stroke-width:4; stroke-opacity:1; fill:none" points="218.906,785.757 237.804,785.757 "/>
<polyline clip-path="url(#clip180)" style="stroke:#000000; stroke-linecap:round; stroke-linejoin:round; stroke-width:4; stroke-opacity:1; fill:none" points="218.906,606.066 237.804,606.066 "/>
<polyline clip-path="url(#clip180)" style="stroke:#000000; stroke-linecap:round; stroke-linejoin:round; stroke-width:4; stroke-opacity:1; fill:none" points="218.906,426.376 237.804,426.376 "/>
<polyline clip-path="url(#clip180)" style="stroke:#000000; stroke-linecap:round; stroke-linejoin:round; stroke-width:4; stroke-opacity:1; fill:none" points="218.906,246.685 237.804,246.685 "/>
<path clip-path="url(#clip180)" d="M127.171 1310.63 Q123.56 1310.63 121.731 1314.19 Q119.925 1317.73 119.925 1324.86 Q119.925 1331.97 121.731 1335.53 Q123.56 1339.08 127.171 1339.08 Q130.805 1339.08 132.61 1335.53 Q134.439 1331.97 134.439 1324.86 Q134.439 1317.73 132.61 1314.19 Q130.805 1310.63 127.171 1310.63 M127.171 1306.92 Q132.981 1306.92 136.036 1311.53 Q139.115 1316.11 139.115 1324.86 Q139.115 1333.59 136.036 1338.2 Q132.981 1342.78 127.171 1342.78 Q121.36 1342.78 118.282 1338.2 Q115.226 1333.59 115.226 1324.86 Q115.226 1316.11 118.282 1311.53 Q121.36 1306.92 127.171 1306.92 Z" fill="#000000" fill-rule="nonzero" fill-opacity="1" /><path clip-path="url(#clip180)" d="M147.333 1336.23 L152.217 1336.23 L152.217 1342.11 L147.333 1342.11 L147.333 1336.23 Z" fill="#000000" fill-rule="nonzero" fill-opacity="1" /><path clip-path="url(#clip180)" d="M172.402 1310.63 Q168.791 1310.63 166.962 1314.19 Q165.157 1317.73 165.157 1324.86 Q165.157 1331.97 166.962 1335.53 Q168.791 1339.08 172.402 1339.08 Q176.036 1339.08 177.842 1335.53 Q179.67 1331.97 179.67 1324.86 Q179.67 1317.73 177.842 1314.19 Q176.036 1310.63 172.402 1310.63 M172.402 1306.92 Q178.212 1306.92 181.268 1311.53 Q184.346 1316.11 184.346 1324.86 Q184.346 1333.59 181.268 1338.2 Q178.212 1342.78 172.402 1342.78 Q166.592 1342.78 163.513 1338.2 Q160.458 1333.59 160.458 1324.86 Q160.458 1316.11 163.513 1311.53 Q166.592 1306.92 172.402 1306.92 Z" fill="#000000" fill-rule="nonzero" fill-opacity="1" /><path clip-path="url(#clip180)" d="M128.768 1130.94 Q125.157 1130.94 123.328 1134.5 Q121.523 1138.04 121.523 1145.17 Q121.523 1152.28 123.328 1155.84 Q125.157 1159.39 128.768 1159.39 Q132.402 1159.39 134.208 1155.84 Q136.036 1152.28 136.036 1145.17 Q136.036 1138.04 134.208 1134.5 Q132.402 1130.94 128.768 1130.94 M128.768 1127.23 Q134.578 1127.23 137.634 1131.84 Q140.712 1136.42 140.712 1145.17 Q140.712 1153.9 137.634 1158.51 Q134.578 1163.09 128.768 1163.09 Q122.958 1163.09 119.879 1158.51 Q116.823 1153.9 116.823 1145.17 Q116.823 1136.42 119.879 1131.84 Q122.958 1127.23 128.768 1127.23 Z" fill="#000000" fill-rule="nonzero" fill-opacity="1" /><path clip-path="url(#clip180)" d="M148.93 1156.54 L153.814 1156.54 L153.814 1162.42 L148.93 1162.42 L148.93 1156.54 Z" fill="#000000" fill-rule="nonzero" fill-opacity="1" /><path clip-path="url(#clip180)" d="M168.027 1158.48 L184.346 1158.48 L184.346 1162.42 L162.402 1162.42 L162.402 1158.48 Q165.064 1155.73 169.647 1151.1 Q174.254 1146.45 175.434 1145.1 Q177.68 1142.58 178.559 1140.84 Q179.462 1139.09 179.462 1137.4 Q179.462 1134.64 177.518 1132.9 Q175.596 1131.17 172.494 1131.17 Q170.295 1131.17 167.842 1131.93 Q165.411 1132.7 162.633 1134.25 L162.633 1129.52 Q165.457 1128.39 167.911 1127.81 Q170.365 1127.23 172.402 1127.23 Q177.772 1127.23 180.967 1129.92 Q184.161 1132.6 184.161 1137.09 Q184.161 1139.22 183.351 1141.15 Q182.564 1143.04 180.457 1145.64 Q179.879 1146.31 176.777 1149.52 Q173.675 1152.72 168.027 1158.48 Z" fill="#000000" fill-rule="nonzero" fill-opacity="1" /><path clip-path="url(#clip180)" d="M126.685 951.246 Q123.073 951.246 121.245 954.811 Q119.439 958.353 119.439 965.482 Q119.439 972.589 121.245 976.154 Q123.073 979.695 126.685 979.695 Q130.319 979.695 132.124 976.154 Q133.953 972.589 133.953 965.482 Q133.953 958.353 132.124 954.811 Q130.319 951.246 126.685 951.246 M126.685 947.543 Q132.495 947.543 135.55 952.149 Q138.629 956.732 138.629 965.482 Q138.629 974.209 135.55 978.816 Q132.495 983.399 126.685 983.399 Q120.874 983.399 117.796 978.816 Q114.74 974.209 114.74 965.482 Q114.74 956.732 117.796 952.149 Q120.874 947.543 126.685 947.543 Z" fill="#000000" fill-rule="nonzero" fill-opacity="1" /><path clip-path="url(#clip180)" d="M146.846 976.848 L151.731 976.848 L151.731 982.728 L146.846 982.728 L146.846 976.848 Z" fill="#000000" fill-rule="nonzero" fill-opacity="1" /><path clip-path="url(#clip180)" d="M174.763 952.242 L162.957 970.691 L174.763 970.691 L174.763 952.242 M173.536 948.168 L179.416 948.168 L179.416 970.691 L184.346 970.691 L184.346 974.579 L179.416 974.579 L179.416 982.728 L174.763 982.728 L174.763 974.579 L159.161 974.579 L159.161 970.066 L173.536 948.168 Z" fill="#000000" fill-rule="nonzero" fill-opacity="1" /><path clip-path="url(#clip180)" d="M127.009 771.556 Q123.398 771.556 121.569 775.12 Q119.763 778.662 119.763 785.792 Q119.763 792.898 121.569 796.463 Q123.398 800.005 127.009 800.005 Q130.643 800.005 132.448 796.463 Q134.277 792.898 134.277 785.792 Q134.277 778.662 132.448 775.12 Q130.643 771.556 127.009 771.556 M127.009 767.852 Q132.819 767.852 135.874 772.458 Q138.953 777.042 138.953 785.792 Q138.953 794.518 135.874 799.125 Q132.819 803.708 127.009 803.708 Q121.198 803.708 118.12 799.125 Q115.064 794.518 115.064 785.792 Q115.064 777.042 118.12 772.458 Q121.198 767.852 127.009 767.852 Z" fill="#000000" fill-rule="nonzero" fill-opacity="1" /><path clip-path="url(#clip180)" d="M147.171 797.157 L152.055 797.157 L152.055 803.037 L147.171 803.037 L147.171 797.157 Z" fill="#000000" fill-rule="nonzero" fill-opacity="1" /><path clip-path="url(#clip180)" d="M172.819 783.893 Q169.67 783.893 167.819 786.046 Q165.99 788.199 165.99 791.949 Q165.99 795.676 167.819 797.852 Q169.67 800.005 172.819 800.005 Q175.967 800.005 177.795 797.852 Q179.647 795.676 179.647 791.949 Q179.647 788.199 177.795 786.046 Q175.967 783.893 172.819 783.893 M182.101 769.241 L182.101 773.5 Q180.342 772.667 178.536 772.227 Q176.754 771.787 174.994 771.787 Q170.365 771.787 167.911 774.912 Q165.481 778.037 165.133 784.356 Q166.499 782.343 168.559 781.278 Q170.619 780.19 173.096 780.19 Q178.305 780.19 181.314 783.361 Q184.346 786.509 184.346 791.949 Q184.346 797.273 181.198 800.491 Q178.05 803.708 172.819 803.708 Q166.823 803.708 163.652 799.125 Q160.481 794.518 160.481 785.792 Q160.481 777.597 164.37 772.736 Q168.258 767.852 174.809 767.852 Q176.569 767.852 178.351 768.199 Q180.156 768.546 182.101 769.241 Z" fill="#000000" fill-rule="nonzero" fill-opacity="1" /><path clip-path="url(#clip180)" d="M127.263 591.865 Q123.652 591.865 121.823 595.43 Q120.018 598.971 120.018 606.101 Q120.018 613.207 121.823 616.772 Q123.652 620.314 127.263 620.314 Q130.897 620.314 132.703 616.772 Q134.532 613.207 134.532 606.101 Q134.532 598.971 132.703 595.43 Q130.897 591.865 127.263 591.865 M127.263 588.161 Q133.073 588.161 136.129 592.768 Q139.208 597.351 139.208 606.101 Q139.208 614.828 136.129 619.434 Q133.073 624.018 127.263 624.018 Q121.453 624.018 118.374 619.434 Q115.319 614.828 115.319 606.101 Q115.319 597.351 118.374 592.768 Q121.453 588.161 127.263 588.161 Z" fill="#000000" fill-rule="nonzero" fill-opacity="1" /><path clip-path="url(#clip180)" d="M147.425 617.467 L152.309 617.467 L152.309 623.346 L147.425 623.346 L147.425 617.467 Z" fill="#000000" fill-rule="nonzero" fill-opacity="1" /><path clip-path="url(#clip180)" d="M172.494 606.934 Q169.161 606.934 167.24 608.717 Q165.342 610.499 165.342 613.624 Q165.342 616.749 167.24 618.531 Q169.161 620.314 172.494 620.314 Q175.828 620.314 177.749 618.531 Q179.67 616.726 179.67 613.624 Q179.67 610.499 177.749 608.717 Q175.851 606.934 172.494 606.934 M167.819 604.944 Q164.809 604.203 163.12 602.143 Q161.453 600.082 161.453 597.12 Q161.453 592.976 164.393 590.569 Q167.356 588.161 172.494 588.161 Q177.656 588.161 180.596 590.569 Q183.536 592.976 183.536 597.12 Q183.536 600.082 181.846 602.143 Q180.18 604.203 177.194 604.944 Q180.573 605.731 182.448 608.022 Q184.346 610.314 184.346 613.624 Q184.346 618.647 181.268 621.332 Q178.212 624.018 172.494 624.018 Q166.777 624.018 163.698 621.332 Q160.643 618.647 160.643 613.624 Q160.643 610.314 162.541 608.022 Q164.439 605.731 167.819 604.944 M166.106 597.559 Q166.106 600.244 167.772 601.749 Q169.462 603.254 172.494 603.254 Q175.504 603.254 177.194 601.749 Q178.906 600.244 178.906 597.559 Q178.906 594.874 177.194 593.37 Q175.504 591.865 172.494 591.865 Q169.462 591.865 167.772 593.37 Q166.106 594.874 166.106 597.559 Z" fill="#000000" fill-rule="nonzero" fill-opacity="1" /><path clip-path="url(#clip180)" d="M117.981 439.72 L125.62 439.72 L125.62 413.355 L117.31 415.021 L117.31 410.762 L125.573 409.096 L130.249 409.096 L130.249 439.72 L137.888 439.72 L137.888 443.656 L117.981 443.656 L117.981 439.72 Z" fill="#000000" fill-rule="nonzero" fill-opacity="1" /><path clip-path="url(#clip180)" d="M147.333 437.776 L152.217 437.776 L152.217 443.656 L147.333 443.656 L147.333 437.776 Z" fill="#000000" fill-rule="nonzero" fill-opacity="1" /><path clip-path="url(#clip180)" d="M172.402 412.174 Q168.791 412.174 166.962 415.739 Q165.157 419.281 165.157 426.41 Q165.157 433.517 166.962 437.082 Q168.791 440.623 172.402 440.623 Q176.036 440.623 177.842 437.082 Q179.67 433.517 179.67 426.41 Q179.67 419.281 177.842 415.739 Q176.036 412.174 172.402 412.174 M172.402 408.471 Q178.212 408.471 181.268 413.077 Q184.346 417.66 184.346 426.41 Q184.346 435.137 181.268 439.744 Q178.212 444.327 172.402 444.327 Q166.592 444.327 163.513 439.744 Q160.458 435.137 160.458 426.41 Q160.458 417.66 163.513 413.077 Q166.592 408.471 172.402 408.471 Z" fill="#000000" fill-rule="nonzero" fill-opacity="1" /><path clip-path="url(#clip180)" d="M119.578 260.03 L127.217 260.03 L127.217 233.664 L118.907 235.331 L118.907 231.072 L127.171 229.405 L131.847 229.405 L131.847 260.03 L139.485 260.03 L139.485 263.965 L119.578 263.965 L119.578 260.03 Z" fill="#000000" fill-rule="nonzero" fill-opacity="1" /><path clip-path="url(#clip180)" d="M148.93 258.085 L153.814 258.085 L153.814 263.965 L148.93 263.965 L148.93 258.085 Z" fill="#000000" fill-rule="nonzero" fill-opacity="1" /><path clip-path="url(#clip180)" d="M168.027 260.03 L184.346 260.03 L184.346 263.965 L162.402 263.965 L162.402 260.03 Q165.064 257.275 169.647 252.645 Q174.254 247.993 175.434 246.65 Q177.68 244.127 178.559 242.391 Q179.462 240.632 179.462 238.942 Q179.462 236.187 177.518 234.451 Q175.596 232.715 172.494 232.715 Q170.295 232.715 167.842 233.479 Q165.411 234.243 162.633 235.794 L162.633 231.072 Q165.457 229.937 167.911 229.359 Q170.365 228.78 172.402 228.78 Q177.772 228.78 180.967 231.465 Q184.161 234.15 184.161 238.641 Q184.161 240.771 183.351 242.692 Q182.564 244.59 180.457 247.183 Q179.879 247.854 176.777 251.071 Q173.675 254.266 168.027 260.03 Z" fill="#000000" fill-rule="nonzero" fill-opacity="1" /><path clip-path="url(#clip180)" d="M23.6877 854.956 L60.6406 854.956 L60.6406 847.189 Q60.6406 837.354 56.1846 832.803 Q51.7286 828.22 42.1164 828.22 Q32.5679 828.22 28.1437 832.803 Q23.6877 837.354 23.6877 847.189 L23.6877 854.956 M18.4042 861.385 L18.4042 848.176 Q18.4042 834.363 24.1651 827.901 Q29.8943 821.44 42.1164 821.44 Q54.4022 821.44 60.1632 827.933 Q65.9242 834.426 65.9242 848.176 L65.9242 861.385 L18.4042 861.385 Z" fill="#000000" fill-rule="nonzero" fill-opacity="1" /><path clip-path="url(#clip180)" d="M46.6361 780.954 L49.5006 780.954 L49.5006 807.881 Q55.5481 807.499 58.7309 804.253 Q61.8819 800.974 61.8819 795.15 Q61.8819 791.776 61.0544 788.625 Q60.2269 785.442 58.5718 782.323 L64.1099 782.323 Q65.4467 785.474 66.147 788.784 Q66.8472 792.094 66.8472 795.5 Q66.8472 804.03 61.8819 809.027 Q56.9167 813.992 48.4503 813.992 Q39.6974 813.992 34.5731 809.282 Q29.4168 804.539 29.4168 796.518 Q29.4168 789.325 34.0638 785.156 Q38.6789 780.954 46.6361 780.954 M44.9173 786.811 Q40.1112 786.874 37.2466 789.516 Q34.3821 792.126 34.3821 796.455 Q34.3821 801.356 37.1512 804.316 Q39.9202 807.245 44.9492 807.69 L44.9173 786.811 Z" fill="#000000" fill-rule="nonzero" fill-opacity="1" /><path clip-path="url(#clip180)" d="M44.4081 741.71 L65.9242 741.71 L65.9242 747.566 L44.599 747.566 Q39.5383 747.566 37.0238 749.539 Q34.5094 751.513 34.5094 755.46 Q34.5094 760.202 37.5331 762.939 Q40.5568 765.677 45.7767 765.677 L65.9242 765.677 L65.9242 771.565 L30.2762 771.565 L30.2762 765.677 L35.8144 765.677 Q32.5997 763.576 31.0083 760.743 Q29.4168 757.879 29.4168 754.155 Q29.4168 748.012 33.2363 744.861 Q37.0238 741.71 44.4081 741.71 Z" fill="#000000" fill-rule="nonzero" fill-opacity="1" /><path clip-path="url(#clip180)" d="M31.3265 707.303 L36.8647 707.303 Q35.5916 709.786 34.955 712.459 Q34.3184 715.133 34.3184 717.997 Q34.3184 722.358 35.6552 724.554 Q36.992 726.718 39.6656 726.718 Q41.7026 726.718 42.8803 725.159 Q44.0261 723.599 45.0765 718.889 L45.5221 716.883 Q46.8589 710.645 49.3097 708.035 Q51.7286 705.393 56.0891 705.393 Q61.0544 705.393 63.9508 709.34 Q66.8472 713.255 66.8472 720.13 Q66.8472 722.994 66.2743 726.114 Q65.7332 729.201 64.6192 732.639 L58.5718 732.639 Q60.2587 729.392 61.118 726.241 Q61.9456 723.09 61.9456 720.003 Q61.9456 715.865 60.5451 713.637 Q59.1129 711.409 56.5347 711.409 Q54.1476 711.409 52.8745 713.032 Q51.6013 714.624 50.4237 720.066 L49.9462 722.103 Q48.8004 727.546 46.4451 729.965 Q44.058 732.384 39.9202 732.384 Q34.8913 732.384 32.1541 728.819 Q29.4168 725.254 29.4168 718.698 Q29.4168 715.451 29.8943 712.587 Q30.3717 709.722 31.3265 707.303 Z" fill="#000000" fill-rule="nonzero" fill-opacity="1" /><path clip-path="url(#clip180)" d="M30.2762 696.068 L30.2762 690.211 L65.9242 690.211 L65.9242 696.068 L30.2762 696.068 M16.399 696.068 L16.399 690.211 L23.815 690.211 L23.815 696.068 L16.399 696.068 Z" fill="#000000" fill-rule="nonzero" fill-opacity="1" /><path clip-path="url(#clip180)" d="M20.1547 672.164 L30.2762 672.164 L30.2762 660.101 L34.8277 660.101 L34.8277 672.164 L54.1794 672.164 Q58.5399 672.164 59.7813 670.987 Q61.0226 669.777 61.0226 666.117 L61.0226 660.101 L65.9242 660.101 L65.9242 666.117 Q65.9242 672.896 63.4097 675.474 Q60.8634 678.053 54.1794 678.053 L34.8277 678.053 L34.8277 682.349 L30.2762 682.349 L30.2762 678.053 L20.1547 678.053 L20.1547 672.164 Z" fill="#000000" fill-rule="nonzero" fill-opacity="1" /><path clip-path="url(#clip180)" d="M69.2343 637.567 Q75.6 640.049 77.5416 642.405 Q79.4831 644.76 79.4831 648.707 L79.4831 653.385 L74.5815 653.385 L74.5815 649.948 Q74.5815 647.529 73.4357 646.192 Q72.2899 644.855 68.0248 643.232 L65.3512 642.182 L30.2762 656.6 L30.2762 650.394 L58.158 639.254 L30.2762 628.114 L30.2762 621.907 L69.2343 637.567 Z" fill="#000000" fill-rule="nonzero" fill-opacity="1" /><path clip-path="url(#clip180)" d="M815.099 18.8205 L815.099 41.5461 L825.388 41.5461 Q831.1 41.5461 834.219 38.5889 Q837.338 35.6318 837.338 30.163 Q837.338 24.7348 834.219 21.7777 Q831.1 18.8205 825.388 18.8205 L815.099 18.8205 M806.916 12.096 L825.388 12.096 Q835.556 12.096 840.741 16.714 Q845.967 21.2916 845.967 30.163 Q845.967 39.1155 840.741 43.6931 Q835.556 48.2706 825.388 48.2706 L815.099 48.2706 L815.099 72.576 L806.916 72.576 L806.916 12.096 Z" fill="#000000" fill-rule="nonzero" fill-opacity="1" /><path clip-path="url(#clip180)" d="M871.245 32.4315 Q865.249 32.4315 861.765 37.1306 Q858.282 41.7891 858.282 49.9314 Q858.282 58.0738 861.725 62.7728 Q865.209 67.4314 871.245 67.4314 Q877.199 67.4314 880.683 62.7323 Q884.167 58.0333 884.167 49.9314 Q884.167 41.8701 880.683 37.1711 Q877.199 32.4315 871.245 32.4315 M871.245 26.1121 Q880.967 26.1121 886.516 32.4315 Q892.066 38.7509 892.066 49.9314 Q892.066 61.0714 886.516 67.4314 Q880.967 73.7508 871.245 73.7508 Q861.482 73.7508 855.932 67.4314 Q850.423 61.0714 850.423 49.9314 Q850.423 38.7509 855.932 32.4315 Q861.482 26.1121 871.245 26.1121 Z" fill="#000000" fill-rule="nonzero" fill-opacity="1" /><path clip-path="url(#clip180)" d="M933.345 28.5427 L933.345 35.5912 Q930.185 33.9709 926.782 33.1607 Q923.38 32.3505 919.734 32.3505 Q914.184 32.3505 911.389 34.0519 Q908.634 35.7533 908.634 39.156 Q908.634 41.7486 910.619 43.2475 Q912.604 44.7058 918.6 46.0426 L921.152 46.6097 Q929.091 48.3111 932.413 51.4303 Q935.775 54.509 935.775 60.0587 Q935.775 66.3781 930.752 70.0644 Q925.77 73.7508 917.02 73.7508 Q913.374 73.7508 909.404 73.0216 Q905.475 72.3329 901.1 70.9151 L901.1 63.2184 Q905.232 65.3654 909.242 66.4591 Q913.252 67.5124 917.182 67.5124 Q922.448 67.5124 925.284 65.73 Q928.119 63.9071 928.119 60.6258 Q928.119 57.5877 926.053 55.9673 Q924.028 54.3469 917.101 52.8481 L914.508 52.2405 Q907.581 50.7821 904.502 47.7845 Q901.424 44.7463 901.424 39.4801 Q901.424 33.0797 905.961 29.5959 Q910.498 26.1121 918.843 26.1121 Q922.975 26.1121 926.62 26.7198 Q930.266 27.3274 933.345 28.5427 Z" fill="#000000" fill-rule="nonzero" fill-opacity="1" /><path clip-path="url(#clip180)" d="M955.017 14.324 L955.017 27.2059 L970.37 27.2059 L970.37 32.9987 L955.017 32.9987 L955.017 57.6282 Q955.017 63.1779 956.516 64.7578 Q958.055 66.3376 962.714 66.3376 L970.37 66.3376 L970.37 72.576 L962.714 72.576 Q954.085 72.576 950.804 69.3758 Q947.523 66.1351 947.523 57.6282 L947.523 32.9987 L942.054 32.9987 L942.054 27.2059 L947.523 27.2059 L947.523 14.324 L955.017 14.324 Z" fill="#000000" fill-rule="nonzero" fill-opacity="1" /><path clip-path="url(#clip180)" d="M1018.98 48.0275 L1018.98 51.6733 L984.71 51.6733 Q985.196 59.3701 989.328 63.421 Q993.501 67.4314 1000.91 67.4314 Q1005.21 67.4314 1009.22 66.3781 Q1013.27 65.3249 1017.24 63.2184 L1017.24 70.267 Q1013.23 71.9684 1009.02 72.8596 Q1004.8 73.7508 1000.47 73.7508 Q989.612 73.7508 983.252 67.4314 Q976.933 61.1119 976.933 50.3365 Q976.933 39.1965 982.928 32.6746 Q988.964 26.1121 999.172 26.1121 Q1008.33 26.1121 1013.63 32.0264 Q1018.98 37.9003 1018.98 48.0275 M1011.53 45.84 Q1011.45 39.7232 1008.08 36.0774 Q1004.76 32.4315 999.253 32.4315 Q993.015 32.4315 989.247 35.9558 Q985.521 39.4801 984.953 45.8805 L1011.53 45.84 Z" fill="#000000" fill-rule="nonzero" fill-opacity="1" /><path clip-path="url(#clip180)" d="M1057.51 34.1734 Q1056.25 33.4443 1054.75 33.1202 Q1053.29 32.7556 1051.51 32.7556 Q1045.19 32.7556 1041.79 36.8875 Q1038.43 40.9789 1038.43 48.6757 L1038.43 72.576 L1030.93 72.576 L1030.93 27.2059 L1038.43 27.2059 L1038.43 34.2544 Q1040.77 30.1225 1044.54 28.1376 Q1048.31 26.1121 1053.7 26.1121 Q1054.47 26.1121 1055.4 26.2337 Q1056.33 26.3147 1057.46 26.5172 L1057.51 34.1734 Z" fill="#000000" fill-rule="nonzero" fill-opacity="1" /><path clip-path="url(#clip180)" d="M1065.32 27.2059 L1072.78 27.2059 L1072.78 72.576 L1065.32 72.576 L1065.32 27.2059 M1065.32 9.54393 L1072.78 9.54393 L1072.78 18.9825 L1065.32 18.9825 L1065.32 9.54393 Z" fill="#000000" fill-rule="nonzero" fill-opacity="1" /><path clip-path="url(#clip180)" d="M1105.95 32.4315 Q1099.96 32.4315 1096.47 37.1306 Q1092.99 41.7891 1092.99 49.9314 Q1092.99 58.0738 1096.43 62.7728 Q1099.92 67.4314 1105.95 67.4314 Q1111.91 67.4314 1115.39 62.7323 Q1118.88 58.0333 1118.88 49.9314 Q1118.88 41.8701 1115.39 37.1711 Q1111.91 32.4315 1105.95 32.4315 M1105.95 26.1121 Q1115.68 26.1121 1121.23 32.4315 Q1126.78 38.7509 1126.78 49.9314 Q1126.78 61.0714 1121.23 67.4314 Q1115.68 73.7508 1105.95 73.7508 Q1096.19 73.7508 1090.64 67.4314 Q1085.13 61.0714 1085.13 49.9314 Q1085.13 38.7509 1090.64 32.4315 Q1096.19 26.1121 1105.95 26.1121 Z" fill="#000000" fill-rule="nonzero" fill-opacity="1" /><path clip-path="url(#clip180)" d="M1165.42 34.1734 Q1164.17 33.4443 1162.67 33.1202 Q1161.21 32.7556 1159.43 32.7556 Q1153.11 32.7556 1149.7 36.8875 Q1146.34 40.9789 1146.34 48.6757 L1146.34 72.576 L1138.85 72.576 L1138.85 27.2059 L1146.34 27.2059 L1146.34 34.2544 Q1148.69 30.1225 1152.46 28.1376 Q1156.23 26.1121 1161.61 26.1121 Q1162.38 26.1121 1163.31 26.2337 Q1164.25 26.3147 1165.38 26.5172 L1165.42 34.1734 Z" fill="#000000" fill-rule="nonzero" fill-opacity="1" /><path clip-path="url(#clip180)" d="M1208.12 18.8205 L1208.12 65.8515 L1218 65.8515 Q1230.52 65.8515 1236.31 60.1802 Q1242.15 54.509 1242.15 42.2752 Q1242.15 30.1225 1236.31 24.4918 Q1230.52 18.8205 1218 18.8205 L1208.12 18.8205 M1199.93 12.096 L1216.75 12.096 Q1234.33 12.096 1242.55 19.4281 Q1250.77 26.7198 1250.77 42.2752 Q1250.77 57.9117 1242.51 65.2439 Q1234.25 72.576 1216.75 72.576 L1199.93 72.576 L1199.93 12.096 Z" fill="#000000" fill-rule="nonzero" fill-opacity="1" /><path clip-path="url(#clip180)" d="M1263.49 27.2059 L1270.95 27.2059 L1270.95 72.576 L1263.49 72.576 L1263.49 27.2059 M1263.49 9.54393 L1270.95 9.54393 L1270.95 18.9825 L1263.49 18.9825 L1263.49 9.54393 Z" fill="#000000" fill-rule="nonzero" fill-opacity="1" /><path clip-path="url(#clip180)" d="M1315.47 28.5427 L1315.47 35.5912 Q1312.31 33.9709 1308.9 33.1607 Q1305.5 32.3505 1301.86 32.3505 Q1296.31 32.3505 1293.51 34.0519 Q1290.76 35.7533 1290.76 39.156 Q1290.76 41.7486 1292.74 43.2475 Q1294.73 44.7058 1300.72 46.0426 L1303.27 46.6097 Q1311.21 48.3111 1314.53 51.4303 Q1317.9 54.509 1317.9 60.0587 Q1317.9 66.3781 1312.87 70.0644 Q1307.89 73.7508 1299.14 73.7508 Q1295.5 73.7508 1291.53 73.0216 Q1287.6 72.3329 1283.22 70.9151 L1283.22 63.2184 Q1287.35 65.3654 1291.36 66.4591 Q1295.37 67.5124 1299.3 67.5124 Q1304.57 67.5124 1307.41 65.73 Q1310.24 63.9071 1310.24 60.6258 Q1310.24 57.5877 1308.18 55.9673 Q1306.15 54.3469 1299.22 52.8481 L1296.63 52.2405 Q1289.7 50.7821 1286.62 47.7845 Q1283.55 44.7463 1283.55 39.4801 Q1283.55 33.0797 1288.08 29.5959 Q1292.62 26.1121 1300.96 26.1121 Q1305.1 26.1121 1308.74 26.7198 Q1312.39 27.3274 1315.47 28.5427 Z" fill="#000000" fill-rule="nonzero" fill-opacity="1" /><path clip-path="url(#clip180)" d="M1337.14 14.324 L1337.14 27.2059 L1352.49 27.2059 L1352.49 32.9987 L1337.14 32.9987 L1337.14 57.6282 Q1337.14 63.1779 1338.64 64.7578 Q1340.18 66.3376 1344.84 66.3376 L1352.49 66.3376 L1352.49 72.576 L1344.84 72.576 Q1336.21 72.576 1332.93 69.3758 Q1329.64 66.1351 1329.64 57.6282 L1329.64 32.9987 L1324.18 32.9987 L1324.18 27.2059 L1329.64 27.2059 L1329.64 14.324 L1337.14 14.324 Z" fill="#000000" fill-rule="nonzero" fill-opacity="1" /><path clip-path="url(#clip180)" d="M1388.59 34.1734 Q1387.33 33.4443 1385.83 33.1202 Q1384.37 32.7556 1382.59 32.7556 Q1376.27 32.7556 1372.87 36.8875 Q1369.51 40.9789 1369.51 48.6757 L1369.51 72.576 L1362.01 72.576 L1362.01 27.2059 L1369.51 27.2059 L1369.51 34.2544 Q1371.86 30.1225 1375.62 28.1376 Q1379.39 26.1121 1384.78 26.1121 Q1385.55 26.1121 1386.48 26.2337 Q1387.41 26.3147 1388.54 26.5172 L1388.59 34.1734 Z" fill="#000000" fill-rule="nonzero" fill-opacity="1" /><path clip-path="url(#clip180)" d="M1396.4 27.2059 L1403.86 27.2059 L1403.86 72.576 L1396.4 72.576 L1396.4 27.2059 M1396.4 9.54393 L1403.86 9.54393 L1403.86 18.9825 L1396.4 18.9825 L1396.4 9.54393 Z" fill="#000000" fill-rule="nonzero" fill-opacity="1" /><path clip-path="url(#clip180)" d="M1452.02 49.9314 Q1452.02 41.7081 1448.62 37.0496 Q1445.26 32.3505 1439.34 32.3505 Q1433.43 32.3505 1430.03 37.0496 Q1426.66 41.7081 1426.66 49.9314 Q1426.66 58.1548 1430.03 62.8538 Q1433.43 67.5124 1439.34 67.5124 Q1445.26 67.5124 1448.62 62.8538 Q1452.02 58.1548 1452.02 49.9314 M1426.66 34.0924 Q1429.01 30.0415 1432.58 28.0971 Q1436.18 26.1121 1441.17 26.1121 Q1449.43 26.1121 1454.57 32.6746 Q1459.76 39.2371 1459.76 49.9314 Q1459.76 60.6258 1454.57 67.1883 Q1449.43 73.7508 1441.17 73.7508 Q1436.18 73.7508 1432.58 71.8063 Q1429.01 69.8214 1426.66 65.7705 L1426.66 72.576 L1419.17 72.576 L1419.17 9.54393 L1426.66 9.54393 L1426.66 34.0924 Z" fill="#000000" fill-rule="nonzero" fill-opacity="1" /><path clip-path="url(#clip180)" d="M1471.35 54.671 L1471.35 27.2059 L1478.8 27.2059 L1478.8 54.3874 Q1478.8 60.8284 1481.31 64.0691 Q1483.82 67.2693 1488.85 67.2693 Q1494.88 67.2693 1498.36 63.421 Q1501.89 59.5726 1501.89 52.9291 L1501.89 27.2059 L1509.34 27.2059 L1509.34 72.576 L1501.89 72.576 L1501.89 65.6084 Q1499.18 69.7404 1495.57 71.7658 Q1492.01 73.7508 1487.27 73.7508 Q1479.45 73.7508 1475.4 68.8897 Q1471.35 64.0286 1471.35 54.671 M1490.1 26.1121 L1490.1 26.1121 Z" fill="#000000" fill-rule="nonzero" fill-opacity="1" /><path clip-path="url(#clip180)" d="M1532.07 14.324 L1532.07 27.2059 L1547.42 27.2059 L1547.42 32.9987 L1532.07 32.9987 L1532.07 57.6282 Q1532.07 63.1779 1533.57 64.7578 Q1535.11 66.3376 1539.77 66.3376 L1547.42 66.3376 L1547.42 72.576 L1539.77 72.576 Q1531.14 72.576 1527.86 69.3758 Q1524.57 66.1351 1524.57 57.6282 L1524.57 32.9987 L1519.11 32.9987 L1519.11 27.2059 L1524.57 27.2059 L1524.57 14.324 L1532.07 14.324 Z" fill="#000000" fill-rule="nonzero" fill-opacity="1" /><path clip-path="url(#clip180)" d="M1557.22 27.2059 L1564.68 27.2059 L1564.68 72.576 L1557.22 72.576 L1557.22 27.2059 M1557.22 9.54393 L1564.68 9.54393 L1564.68 18.9825 L1557.22 18.9825 L1557.22 9.54393 Z" fill="#000000" fill-rule="nonzero" fill-opacity="1" /><path clip-path="url(#clip180)" d="M1597.86 32.4315 Q1591.86 32.4315 1588.38 37.1306 Q1584.89 41.7891 1584.89 49.9314 Q1584.89 58.0738 1588.34 62.7728 Q1591.82 67.4314 1597.86 67.4314 Q1603.81 67.4314 1607.29 62.7323 Q1610.78 58.0333 1610.78 49.9314 Q1610.78 41.8701 1607.29 37.1711 Q1603.81 32.4315 1597.86 32.4315 M1597.86 26.1121 Q1607.58 26.1121 1613.13 32.4315 Q1618.68 38.7509 1618.68 49.9314 Q1618.68 61.0714 1613.13 67.4314 Q1607.58 73.7508 1597.86 73.7508 Q1588.09 73.7508 1582.54 67.4314 Q1577.03 61.0714 1577.03 49.9314 Q1577.03 38.7509 1582.54 32.4315 Q1588.09 26.1121 1597.86 26.1121 Z" fill="#000000" fill-rule="nonzero" fill-opacity="1" /><path clip-path="url(#clip180)" d="M1668.75 45.1919 L1668.75 72.576 L1661.29 72.576 L1661.29 45.4349 Q1661.29 38.994 1658.78 35.7938 Q1656.27 32.5936 1651.25 32.5936 Q1645.21 32.5936 1641.73 36.4419 Q1638.24 40.2903 1638.24 46.9338 L1638.24 72.576 L1630.75 72.576 L1630.75 27.2059 L1638.24 27.2059 L1638.24 34.2544 Q1640.92 30.163 1644.52 28.1376 Q1648.17 26.1121 1652.91 26.1121 Q1660.73 26.1121 1664.74 30.9732 Q1668.75 35.7938 1668.75 45.1919 Z" fill="#000000" fill-rule="nonzero" fill-opacity="1" /><polyline clip-path="url(#clip182)" style="stroke:#80c4ac; stroke-linecap:round; stroke-linejoin:round; stroke-width:4; stroke-opacity:1; fill:none" points="276.581,1324.83 286.242,1324.83 295.903,1324.83 305.564,1324.82 315.224,1324.81 324.885,1324.78 334.546,1324.74 344.207,1324.71 353.868,1324.71 363.528,1324.73 373.189,1324.77 382.85,1324.79 392.511,1324.8 402.172,1324.79 411.832,1324.75 421.493,1324.71 431.154,1324.68 440.815,1324.64 450.476,1324.58 460.136,1324.45 469.797,1324.27 479.458,1324.11 489.119,1324.01 498.78,1324.01 508.441,1324.05 518.101,1324.07 527.762,1324.03 537.423,1323.89 547.084,1323.6 556.745,1323.14 566.405,1322.59 576.066,1322.02 585.727,1321.51 595.388,1321.03 605.049,1320.45 614.709,1319.63 624.37,1318.48 634.031,1317.07 643.692,1315.56 653.353,1314.06 663.013,1312.53 672.674,1310.83 682.335,1308.89 691.996,1306.84 701.657,1304.78 711.317,1302.45 720.978,1299.37 730.639,1295.12 740.3,1289.31 749.961,1279.97 759.621,1260.92 769.282,1221.22 778.943,1153.02 788.604,1067.76 798.265,1001.78 807.925,991.448 817.586,1037.67 827.247,1104.58 836.908,1154.62 846.569,1175.56 856.229,1175.7 865.89,1166.56 875.551,1154.18 885.212,1139.99 894.873,1123.78 904.533,1105.45 914.194,1085.2 923.855,1063.14 933.516,1039.51 943.177,1015.12 952.837,991.027 962.498,967.296 972.159,942.629 981.82,915.444 991.481,885.141 1001.14,852.134 1010.8,817.152 1020.46,781.048 1030.12,745.23 1039.78,711.617 1049.45,681.503 1059.11,654.383 1068.77,628.118 1078.43,600.213 1088.09,568.996 1097.75,534.356 1107.41,497.994 1117.07,462.593 1126.73,430.282 1136.39,401.683 1146.05,375.827 1155.71,350.622 1165.38,324.007 1175.04,295.651 1184.7,267.746 1194.36,243.501 1204.02,224.503 1213.68,209.663 1223.34,196.587 1233,183.729 1242.66,171.66 1252.32,162.574 1261.98,158.463 1271.64,160.01 1281.3,167.031 1290.97,178.36 1300.63,190.791 1310.29,200.5 1319.95,207.109 1329.61,214.814 1339.27,228.13 1348.93,247.692 1358.59,270.94 1368.25,295.435 1377.91,320.402 1387.57,345.945 1397.23,372.198 1406.9,399.625 1416.56,429.308 1426.22,461.909 1435.88,496.701 1445.54,532.346 1455.2,568.095 1464.86,603.774 1474.52,639.295 1484.18,674.493 1493.84,708.863 1503.5,741.405 1513.16,771.374 1522.82,799.382 1532.49,827.455 1542.15,857.801 1551.81,891.138 1561.47,925.83 1571.13,958.677 1580.79,986.938 1590.45,1010.01 1600.11,1029.52 1609.77,1047.99 1619.43,1067.26 1629.09,1087.94 1638.75,1109.43 1648.42,1130.55 1658.08,1150.19 1667.74,1167.85 1677.4,1183.61 1687.06,1197.77 1696.72,1210.65 1706.38,1222.38 1716.04,1232.86 1725.7,1242.1 1735.36,1250.47 1745.02,1258.35 1754.68,1265.71 1764.34,1272.32 1774.01,1278.23 1783.67,1283.72 1793.33,1288.84 1802.99,1293.4 1812.65,1297.24 1822.31,1300.46 1831.97,1303.26 1841.63,1305.68 1851.29,1307.7 1860.95,1309.35 1870.61,1310.76 1880.27,1312.1 1889.94,1313.42 1899.6,1314.68 1909.26,1315.87 1918.92,1316.99 1928.58,1318.09 1938.24,1319.18 1947.9,1320.22 1957.56,1321.09 1967.22,1321.73 1976.88,1322.17 1986.54,1322.55 1996.2,1322.91 2005.86,1323.22 2015.53,1323.46 2025.19,1323.65 2034.85,1323.84 2044.51,1324.07 2054.17,1324.29 2063.83,1324.46 2073.49,1324.58 2083.15,1324.64 2092.81,1324.66 2102.47,1324.64 2112.13,1324.6 2121.79,1324.58 2131.46,1324.61 2141.12,1324.68 2150.78,1324.75 2160.44,1324.8 2170.1,1324.82 2179.76,1324.83 2189.42,1324.83 2199.08,1324.83 "/>
<polyline clip-path="url(#clip182)" style="stroke:#ffc0cb; stroke-linecap:round; stroke-linejoin:round; stroke-width:8; stroke-opacity:1; fill:none" points="1464.8,2596.17 1464.8,-1112.88 "/>
<path clip-path="url(#clip180)" d="M1799.28 320.204 L2188.83 320.204 L2188.83 164.684 L1799.28 164.684  Z" fill="#ffffff" fill-rule="evenodd" fill-opacity="1"/>
<polyline clip-path="url(#clip180)" style="stroke:#000000; stroke-linecap:round; stroke-linejoin:round; stroke-width:4; stroke-opacity:1; fill:none" points="1799.28,320.204 2188.83,320.204 2188.83,164.684 1799.28,164.684 1799.28,320.204 "/>
<polyline clip-path="url(#clip180)" style="stroke:#80c4ac; stroke-linecap:round; stroke-linejoin:round; stroke-width:4; stroke-opacity:1; fill:none" points="1821.92,216.524 1957.78,216.524 "/>
<path clip-path="url(#clip180)" d="M1994.26 236.211 Q1992.46 240.841 1990.75 242.253 Q1989.03 243.665 1986.16 243.665 L1982.76 243.665 L1982.76 240.1 L1985.26 240.1 Q1987.02 240.1 1987.99 239.267 Q1988.96 238.433 1990.14 235.331 L1990.91 233.387 L1980.42 207.878 L1984.94 207.878 L1993.04 228.156 L2001.14 207.878 L2005.65 207.878 L1994.26 236.211 Z" fill="#000000" fill-rule="nonzero" fill-opacity="1" /><path clip-path="url(#clip180)" d="M2012.94 229.869 L2020.58 229.869 L2020.58 203.503 L2012.27 205.17 L2012.27 200.91 L2020.54 199.244 L2025.21 199.244 L2025.21 229.869 L2032.85 229.869 L2032.85 233.804 L2012.94 233.804 L2012.94 229.869 Z" fill="#000000" fill-rule="nonzero" fill-opacity="1" /><polyline clip-path="url(#clip180)" style="stroke:#ffc0cb; stroke-linecap:round; stroke-linejoin:round; stroke-width:8; stroke-opacity:1; fill:none" points="1821.92,268.364 1957.78,268.364 "/>
<path clip-path="url(#clip180)" d="M2005.07 259.718 L1995.7 272.334 L2005.56 285.644 L2000.54 285.644 L1992.99 275.459 L1985.45 285.644 L1980.42 285.644 L1990.49 272.079 L1981.28 259.718 L1986.3 259.718 L1993.18 268.954 L2000.05 259.718 L2005.07 259.718 Z" fill="#000000" fill-rule="nonzero" fill-opacity="1" /><path clip-path="url(#clip180)" d="M2029.24 251.084 L2041.81 263.977 L2037.16 263.977 L2026.97 254.834 L2016.79 263.977 L2012.13 263.977 L2024.7 251.084 L2029.24 251.084 Z" fill="#000000" fill-rule="nonzero" fill-opacity="1" /><path clip-path="url(#clip180)" d="M2069.13 256.778 L2060.82 261.269 L2069.13 265.783 L2067.78 268.051 L2060 263.352 L2060 272.079 L2057.37 272.079 L2057.37 263.352 L2049.59 268.051 L2048.25 265.783 L2056.56 261.269 L2048.25 256.778 L2049.59 254.486 L2057.37 259.186 L2057.37 250.459 L2060 250.459 L2060 259.186 L2067.78 254.486 L2069.13 256.778 Z" fill="#000000" fill-rule="nonzero" fill-opacity="1" /><path clip-path="url(#clip180)" d="M2090.63 264.116 L2120.31 264.116 L2120.31 268.005 L2090.63 268.005 L2090.63 264.116 M2090.63 273.56 L2120.31 273.56 L2120.31 277.496 L2090.63 277.496 L2090.63 273.56 Z" fill="#000000" fill-rule="nonzero" fill-opacity="1" /><path clip-path="url(#clip180)" d="M2146.28 281.709 L2153.92 281.709 L2153.92 255.343 L2145.61 257.01 L2145.61 252.75 L2153.87 251.084 L2158.55 251.084 L2158.55 281.709 L2166.18 281.709 L2166.18 285.644 L2146.28 285.644 L2146.28 281.709 Z" fill="#000000" fill-rule="nonzero" fill-opacity="1" /></svg>
