<?xml version="1.0" encoding="utf-8"?>
<svg xmlns="http://www.w3.org/2000/svg" xmlns:xlink="http://www.w3.org/1999/xlink" width="576" height="384" viewBox="0 0 2304 1536">
<defs>
  <clipPath id="clip560">
    <rect x="0" y="0" width="2304" height="1536"/>
  </clipPath>
</defs>
<path clip-path="url(#clip560)" d="M0 1536 L2304 1536 L2304 8.52651e-14 L0 8.52651e-14  Z" fill="#f0f1eb" fill-rule="evenodd" fill-opacity="1"/>
<defs>
  <clipPath id="clip561">
    <rect x="460" y="0" width="1614" height="1536"/>
  </clipPath>
</defs>
<path clip-path="url(#clip560)" d="M251.804 1347.54 L2256.76 1347.54 L2256.76 47.2441 L251.804 47.2441  Z" fill="#f0f1eb" fill-rule="evenodd" fill-opacity="1"/>
<defs>
  <clipPath id="clip562">
    <rect x="251" y="47" width="2006" height="1301"/>
  </clipPath>
</defs>
<polyline clip-path="url(#clip562)" style="stroke:#000000; stroke-linecap:round; stroke-linejoin:round; stroke-width:2; stroke-opacity:0.1; fill:none" points="939.036,1347.54 939.036,47.2441 "/>
<polyline clip-path="url(#clip562)" style="stroke:#000000; stroke-linecap:round; stroke-linejoin:round; stroke-width:2; stroke-opacity:0.1; fill:none" points="2200.01,1347.54 2200.01,47.2441 "/>
<polyline clip-path="url(#clip560)" style="stroke:#000000; stroke-linecap:round; stroke-linejoin:round; stroke-width:4; stroke-opacity:1; fill:none" points="251.804,1347.54 2256.76,1347.54 "/>
<polyline clip-path="url(#clip560)" style="stroke:#000000; stroke-linecap:round; stroke-linejoin:round; stroke-width:4; stroke-opacity:1; fill:none" points="939.036,1347.54 939.036,1328.64 "/>
<polyline clip-path="url(#clip560)" style="stroke:#000000; stroke-linecap:round; stroke-linejoin:round; stroke-width:4; stroke-opacity:1; fill:none" points="2200.01,1347.54 2200.01,1328.64 "/>
<path clip-path="url(#clip560)" d="M904.809 1420.89 L912.448 1420.89 L912.448 1394.53 L904.137 1396.19 L904.137 1391.94 L912.401 1390.27 L917.077 1390.27 L917.077 1420.89 L924.716 1420.89 L924.716 1424.83 L904.809 1424.83 L904.809 1420.89 Z" fill="#000000" fill-rule="nonzero" fill-opacity="1" /><path clip-path="url(#clip560)" d="M944.16 1393.35 Q940.549 1393.35 938.721 1396.91 Q936.915 1400.45 936.915 1407.58 Q936.915 1414.69 938.721 1418.25 Q940.549 1421.8 944.16 1421.8 Q947.795 1421.8 949.6 1418.25 Q951.429 1414.69 951.429 1407.58 Q951.429 1400.45 949.6 1396.91 Q947.795 1393.35 944.16 1393.35 M944.16 1389.64 Q949.97 1389.64 953.026 1394.25 Q956.105 1398.83 956.105 1407.58 Q956.105 1416.31 953.026 1420.92 Q949.97 1425.5 944.16 1425.5 Q938.35 1425.5 935.271 1420.92 Q932.216 1416.31 932.216 1407.58 Q932.216 1398.83 935.271 1394.25 Q938.35 1389.64 944.16 1389.64 Z" fill="#000000" fill-rule="nonzero" fill-opacity="1" /><path clip-path="url(#clip560)" d="M960.675 1394.22 L973.934 1394.22 L973.934 1397.42 L956.105 1397.42 L956.105 1394.22 Q958.268 1391.98 961.992 1388.22 Q965.734 1384.44 966.693 1383.35 Q968.518 1381.3 969.233 1379.89 Q969.966 1378.46 969.966 1377.09 Q969.966 1374.85 968.386 1373.44 Q966.825 1372.03 964.305 1372.03 Q962.518 1372.03 960.525 1372.65 Q958.55 1373.27 956.293 1374.53 L956.293 1370.69 Q958.587 1369.77 960.581 1369.3 Q962.575 1368.83 964.23 1368.83 Q968.593 1368.83 971.189 1371.01 Q973.784 1373.19 973.784 1376.84 Q973.784 1378.57 973.126 1380.13 Q972.486 1381.68 970.775 1383.78 Q970.305 1384.33 967.784 1386.94 Q965.264 1389.54 960.675 1394.22 Z" fill="#000000" fill-rule="nonzero" fill-opacity="1" /><path clip-path="url(#clip560)" d="M2164.47 1420.89 L2172.11 1420.89 L2172.11 1394.53 L2163.8 1396.19 L2163.8 1391.94 L2172.06 1390.27 L2176.74 1390.27 L2176.74 1420.89 L2184.38 1420.89 L2184.38 1424.83 L2164.47 1424.83 L2164.47 1420.89 Z" fill="#000000" fill-rule="nonzero" fill-opacity="1" /><path clip-path="url(#clip560)" d="M2203.82 1393.35 Q2200.21 1393.35 2198.38 1396.91 Q2196.57 1400.45 2196.57 1407.58 Q2196.57 1414.69 2198.38 1418.25 Q2200.21 1421.8 2203.82 1421.8 Q2207.45 1421.8 2209.26 1418.25 Q2211.09 1414.69 2211.09 1407.58 Q2211.09 1400.45 2209.26 1396.91 Q2207.45 1393.35 2203.82 1393.35 M2203.82 1389.64 Q2209.63 1389.64 2212.69 1394.25 Q2215.76 1398.83 2215.76 1407.58 Q2215.76 1416.31 2212.69 1420.92 Q2209.63 1425.5 2203.82 1425.5 Q2198.01 1425.5 2194.93 1420.92 Q2191.88 1416.31 2191.88 1407.58 Q2191.88 1398.83 2194.93 1394.25 Q2198.01 1389.64 2203.82 1389.64 Z" fill="#000000" fill-rule="nonzero" fill-opacity="1" /><path clip-path="url(#clip560)" d="M2228.44 1372.65 L2218.85 1387.64 L2228.44 1387.64 L2228.44 1372.65 M2227.44 1369.34 L2232.22 1369.34 L2232.22 1387.64 L2236.23 1387.64 L2236.23 1390.8 L2232.22 1390.8 L2232.22 1397.42 L2228.44 1397.42 L2228.44 1390.8 L2215.76 1390.8 L2215.76 1387.13 L2227.44 1369.34 Z" fill="#000000" fill-rule="nonzero" fill-opacity="1" /><path clip-path="url(#clip560)" d="M1174.47 1490.1 L1174.47 1492.96 L1147.54 1492.96 Q1147.92 1499.01 1151.17 1502.19 Q1154.45 1505.34 1160.27 1505.34 Q1163.65 1505.34 1166.8 1504.52 Q1169.98 1503.69 1173.1 1502.03 L1173.1 1507.57 Q1169.95 1508.91 1166.64 1509.61 Q1163.33 1510.31 1159.92 1510.31 Q1151.39 1510.31 1146.4 1505.34 Q1141.43 1500.38 1141.43 1491.91 Q1141.43 1483.16 1146.14 1478.03 Q1150.88 1472.88 1158.91 1472.88 Q1166.1 1472.88 1170.27 1477.53 Q1174.47 1482.14 1174.47 1490.1 M1168.61 1488.38 Q1168.55 1483.57 1165.91 1480.71 Q1163.3 1477.84 1158.97 1477.84 Q1154.07 1477.84 1151.11 1480.61 Q1148.18 1483.38 1147.73 1488.41 L1168.61 1488.38 Z" fill="#000000" fill-rule="nonzero" fill-opacity="1" /><path clip-path="url(#clip560)" d="M1189.75 1504.04 L1189.75 1522.94 L1183.86 1522.94 L1183.86 1473.74 L1189.75 1473.74 L1189.75 1479.15 Q1191.59 1475.97 1194.39 1474.44 Q1197.23 1472.88 1201.14 1472.88 Q1207.64 1472.88 1211.68 1478.03 Q1215.75 1483.19 1215.75 1491.59 Q1215.75 1500 1211.68 1505.15 Q1207.64 1510.31 1201.14 1510.31 Q1197.23 1510.31 1194.39 1508.78 Q1191.59 1507.22 1189.75 1504.04 M1209.67 1491.59 Q1209.67 1485.13 1207 1481.47 Q1204.36 1477.78 1199.71 1477.78 Q1195.06 1477.78 1192.39 1481.47 Q1189.75 1485.13 1189.75 1491.59 Q1189.75 1498.05 1192.39 1501.75 Q1195.06 1505.41 1199.71 1505.41 Q1204.36 1505.41 1207 1501.75 Q1209.67 1498.05 1209.67 1491.59 Z" fill="#000000" fill-rule="nonzero" fill-opacity="1" /><path clip-path="url(#clip560)" d="M1239.27 1477.84 Q1234.56 1477.84 1231.82 1481.54 Q1229.09 1485.2 1229.09 1491.59 Q1229.09 1497.99 1231.79 1501.68 Q1234.53 1505.34 1239.27 1505.34 Q1243.95 1505.34 1246.69 1501.65 Q1249.43 1497.96 1249.43 1491.59 Q1249.43 1485.26 1246.69 1481.57 Q1243.95 1477.84 1239.27 1477.84 M1239.27 1472.88 Q1246.91 1472.88 1251.27 1477.84 Q1255.63 1482.81 1255.63 1491.59 Q1255.63 1500.35 1251.27 1505.34 Q1246.91 1510.31 1239.27 1510.31 Q1231.6 1510.31 1227.24 1505.34 Q1222.91 1500.35 1222.91 1491.59 Q1222.91 1482.81 1227.24 1477.84 Q1231.6 1472.88 1239.27 1472.88 Z" fill="#000000" fill-rule="nonzero" fill-opacity="1" /><path clip-path="url(#clip560)" d="M1290.99 1475.11 L1290.99 1480.58 Q1288.51 1479.21 1286 1478.54 Q1283.51 1477.84 1280.97 1477.84 Q1275.27 1477.84 1272.12 1481.47 Q1268.97 1485.07 1268.97 1491.59 Q1268.97 1498.12 1272.12 1501.75 Q1275.27 1505.34 1280.97 1505.34 Q1283.51 1505.34 1286 1504.67 Q1288.51 1503.97 1290.99 1502.61 L1290.99 1508.02 Q1288.54 1509.16 1285.9 1509.74 Q1283.29 1510.31 1280.33 1510.31 Q1272.28 1510.31 1267.54 1505.25 Q1262.79 1500.19 1262.79 1491.59 Q1262.79 1482.87 1267.57 1477.88 Q1272.37 1472.88 1280.71 1472.88 Q1283.42 1472.88 1286 1473.45 Q1288.58 1473.99 1290.99 1475.11 Z" fill="#000000" fill-rule="nonzero" fill-opacity="1" /><path clip-path="url(#clip560)" d="M1330.81 1487.87 L1330.81 1509.39 L1324.96 1509.39 L1324.96 1488.06 Q1324.96 1483 1322.98 1480.49 Q1321.01 1477.97 1317.06 1477.97 Q1312.32 1477.97 1309.58 1480.99 Q1306.84 1484.02 1306.84 1489.24 L1306.84 1509.39 L1300.96 1509.39 L1300.96 1459.86 L1306.84 1459.86 L1306.84 1479.28 Q1308.95 1476.06 1311.78 1474.47 Q1314.64 1472.88 1318.37 1472.88 Q1324.51 1472.88 1327.66 1476.7 Q1330.81 1480.49 1330.81 1487.87 Z" fill="#000000" fill-rule="nonzero" fill-opacity="1" /><path clip-path="url(#clip560)" d="M1365.22 1474.79 L1365.22 1480.33 Q1362.74 1479.05 1360.06 1478.42 Q1357.39 1477.78 1354.52 1477.78 Q1350.16 1477.78 1347.97 1479.12 Q1345.8 1480.45 1345.8 1483.13 Q1345.8 1485.16 1347.36 1486.34 Q1348.92 1487.49 1353.63 1488.54 L1355.64 1488.98 Q1361.88 1490.32 1364.49 1492.77 Q1367.13 1495.19 1367.13 1499.55 Q1367.13 1504.52 1363.18 1507.41 Q1359.27 1510.31 1352.39 1510.31 Q1349.53 1510.31 1346.41 1509.74 Q1343.32 1509.19 1339.88 1508.08 L1339.88 1502.03 Q1343.13 1503.72 1346.28 1504.58 Q1349.43 1505.41 1352.52 1505.41 Q1356.66 1505.41 1358.88 1504.01 Q1361.11 1502.57 1361.11 1500 Q1361.11 1497.61 1359.49 1496.34 Q1357.9 1495.06 1352.46 1493.88 L1350.42 1493.41 Q1344.98 1492.26 1342.56 1489.91 Q1340.14 1487.52 1340.14 1483.38 Q1340.14 1478.35 1343.7 1475.62 Q1347.27 1472.88 1353.82 1472.88 Q1357.07 1472.88 1359.93 1473.36 Q1362.8 1473.83 1365.22 1474.79 Z" fill="#000000" fill-rule="nonzero" fill-opacity="1" /><polyline clip-path="url(#clip562)" style="stroke:#000000; stroke-linecap:round; stroke-linejoin:round; stroke-width:2; stroke-opacity:0.1; fill:none" points="251.804,1151.72 2256.76,1151.72 "/>
<polyline clip-path="url(#clip562)" style="stroke:#000000; stroke-linecap:round; stroke-linejoin:round; stroke-width:2; stroke-opacity:0.1; fill:none" points="251.804,536.238 2256.76,536.238 "/>
<polyline clip-path="url(#clip560)" style="stroke:#000000; stroke-linecap:round; stroke-linejoin:round; stroke-width:4; stroke-opacity:1; fill:none" points="251.804,1347.54 251.804,47.2441 "/>
<polyline clip-path="url(#clip560)" style="stroke:#000000; stroke-linecap:round; stroke-linejoin:round; stroke-width:4; stroke-opacity:1; fill:none" points="251.804,1151.72 270.702,1151.72 "/>
<polyline clip-path="url(#clip560)" style="stroke:#000000; stroke-linecap:round; stroke-linejoin:round; stroke-width:4; stroke-opacity:1; fill:none" points="251.804,536.238 270.702,536.238 "/>
<path clip-path="url(#clip560)" d="M115.675 1171.51 L123.314 1171.51 L123.314 1145.15 L115.003 1146.81 L115.003 1142.55 L123.267 1140.89 L127.943 1140.89 L127.943 1171.51 L135.582 1171.51 L135.582 1175.45 L115.675 1175.45 L115.675 1171.51 Z" fill="#000000" fill-rule="nonzero" fill-opacity="1" /><path clip-path="url(#clip560)" d="M155.026 1143.97 Q151.415 1143.97 149.587 1147.53 Q147.781 1151.07 147.781 1158.2 Q147.781 1165.31 149.587 1168.87 Q151.415 1172.42 155.026 1172.42 Q158.661 1172.42 160.466 1168.87 Q162.295 1165.31 162.295 1158.2 Q162.295 1151.07 160.466 1147.53 Q158.661 1143.97 155.026 1143.97 M155.026 1140.26 Q160.837 1140.26 163.892 1144.87 Q166.971 1149.45 166.971 1158.2 Q166.971 1166.93 163.892 1171.54 Q160.837 1176.12 155.026 1176.12 Q149.216 1176.12 146.138 1171.54 Q143.082 1166.93 143.082 1158.2 Q143.082 1149.45 146.138 1144.87 Q149.216 1140.26 155.026 1140.26 Z" fill="#000000" fill-rule="nonzero" fill-opacity="1" /><path clip-path="url(#clip560)" d="M166.971 1134.36 L191.082 1134.36 L191.082 1137.56 L166.971 1137.56 L166.971 1134.36 Z" fill="#000000" fill-rule="nonzero" fill-opacity="1" /><path clip-path="url(#clip560)" d="M207.878 1132.48 Q205.32 1132.48 203.815 1134.23 Q202.329 1135.98 202.329 1139.03 Q202.329 1142.06 203.815 1143.82 Q205.32 1145.57 207.878 1145.57 Q210.436 1145.57 211.921 1143.82 Q213.426 1142.06 213.426 1139.03 Q213.426 1135.98 211.921 1134.23 Q210.436 1132.48 207.878 1132.48 M215.42 1120.58 L215.42 1124.04 Q213.99 1123.36 212.523 1123 Q211.075 1122.65 209.646 1122.65 Q205.884 1122.65 203.89 1125.19 Q201.916 1127.73 201.633 1132.86 Q202.743 1131.22 204.417 1130.36 Q206.091 1129.47 208.103 1129.47 Q212.335 1129.47 214.78 1132.05 Q217.244 1134.61 217.244 1139.03 Q217.244 1143.35 214.686 1145.97 Q212.128 1148.58 207.878 1148.58 Q203.006 1148.58 200.43 1144.86 Q197.853 1141.12 197.853 1134.03 Q197.853 1127.37 201.013 1123.42 Q204.173 1119.45 209.495 1119.45 Q210.925 1119.45 212.373 1119.73 Q213.84 1120.01 215.42 1120.58 Z" fill="#000000" fill-rule="nonzero" fill-opacity="1" /><path clip-path="url(#clip560)" d="M115.411 556.03 L123.05 556.03 L123.05 529.664 L114.74 531.331 L114.74 527.072 L123.004 525.405 L127.68 525.405 L127.68 556.03 L135.319 556.03 L135.319 559.965 L115.411 559.965 L115.411 556.03 Z" fill="#000000" fill-rule="nonzero" fill-opacity="1" /><path clip-path="url(#clip560)" d="M154.763 528.484 Q151.152 528.484 149.323 532.049 Q147.518 535.59 147.518 542.72 Q147.518 549.826 149.323 553.391 Q151.152 556.933 154.763 556.933 Q158.397 556.933 160.203 553.391 Q162.032 549.826 162.032 542.72 Q162.032 535.59 160.203 532.049 Q158.397 528.484 154.763 528.484 M154.763 524.78 Q160.573 524.78 163.629 529.387 Q166.707 533.97 166.707 542.72 Q166.707 551.447 163.629 556.053 Q160.573 560.636 154.763 560.636 Q148.953 560.636 145.874 556.053 Q142.819 551.447 142.819 542.72 Q142.819 533.97 145.874 529.387 Q148.953 524.78 154.763 524.78 Z" fill="#000000" fill-rule="nonzero" fill-opacity="1" /><path clip-path="url(#clip560)" d="M166.707 518.881 L190.819 518.881 L190.819 522.079 L166.707 522.079 L166.707 518.881 Z" fill="#000000" fill-rule="nonzero" fill-opacity="1" /><path clip-path="url(#clip560)" d="M209.458 507.785 L199.866 522.775 L209.458 522.775 L209.458 507.785 M208.461 504.475 L213.238 504.475 L213.238 522.775 L217.244 522.775 L217.244 525.934 L213.238 525.934 L213.238 532.555 L209.458 532.555 L209.458 525.934 L196.781 525.934 L196.781 522.267 L208.461 504.475 Z" fill="#000000" fill-rule="nonzero" fill-opacity="1" /><path clip-path="url(#clip560)" d="M18.4042 761.509 L18.4042 751.929 L50.7419 739.802 L18.4042 727.612 L18.4042 718.031 L65.9242 718.031 L65.9242 724.301 L24.197 724.301 L56.7894 736.555 L56.7894 743.017 L24.197 755.271 L65.9242 755.271 L65.9242 761.509 L18.4042 761.509 Z" fill="#000000" fill-rule="nonzero" fill-opacity="1" /><path clip-path="url(#clip560)" d="M19.9638 676.781 L26.234 676.781 Q24.4834 680.442 23.624 683.688 Q22.7647 686.935 22.7647 689.958 Q22.7647 695.21 24.8017 698.075 Q26.8387 700.907 30.5945 700.907 Q33.7455 700.907 35.3688 699.03 Q36.9602 697.12 37.9469 691.836 L38.7426 687.953 Q40.1112 680.76 43.5805 677.354 Q47.018 673.917 52.8108 673.917 Q59.7176 673.917 63.2824 678.564 Q66.8472 683.179 66.8472 692.123 Q66.8472 695.497 66.0833 699.316 Q65.3194 703.104 63.8235 707.178 L57.2031 707.178 Q59.3993 703.263 60.5133 699.507 Q61.6273 695.751 61.6273 692.123 Q61.6273 686.616 59.463 683.625 Q57.2986 680.633 53.2882 680.633 Q49.7871 680.633 47.8137 682.797 Q45.8404 684.929 44.8537 689.831 L44.0898 693.746 Q42.6575 700.939 39.602 704.154 Q36.5464 707.369 31.1037 707.369 Q24.8017 707.369 21.1732 702.944 Q17.5448 698.488 17.5448 690.69 Q17.5448 687.348 18.1495 683.879 Q18.7543 680.41 19.9638 676.781 Z" fill="#000000" fill-rule="nonzero" fill-opacity="1" /><path clip-path="url(#clip560)" d="M18.4042 663.891 L18.4042 633.845 L23.815 633.845 L23.815 657.461 L37.8832 657.461 L37.8832 634.831 L43.2941 634.831 L43.2941 657.461 L60.5133 657.461 L60.5133 633.272 L65.9242 633.272 L65.9242 663.891 L18.4042 663.891 Z" fill="#000000" fill-rule="nonzero" fill-opacity="1" /><circle clip-path="url(#clip562)" cx="308.548" cy="204.108" r="18" fill="#78c2ad" fill-rule="evenodd" fill-opacity="0.6" stroke="#000000" stroke-opacity="0.6" stroke-width="3.072"/>
<circle clip-path="url(#clip562)" cx="939.036" cy="584.149" r="18" fill="#78c2ad" fill-rule="evenodd" fill-opacity="0.6" stroke="#000000" stroke-opacity="0.6" stroke-width="3.072"/>
<circle clip-path="url(#clip562)" cx="1569.52" cy="1061.8" r="18" fill="#78c2ad" fill-rule="evenodd" fill-opacity="0.6" stroke="#000000" stroke-opacity="0.6" stroke-width="3.072"/>
<circle clip-path="url(#clip562)" cx="2200.01" cy="1240.6" r="18" fill="#78c2ad" fill-rule="evenodd" fill-opacity="0.6" stroke="#000000" stroke-opacity="0.6" stroke-width="3.072"/>
<polyline clip-path="url(#clip562)" style="stroke:#78c2ad; stroke-linecap:round; stroke-linejoin:round; stroke-width:8; stroke-opacity:1; fill:none" points="308.548,234.594 327.654,245.464 346.759,256.335 365.865,267.205 384.971,278.075 404.076,288.945 423.182,299.815 442.288,310.685 461.393,321.555 480.499,332.425 499.605,343.295 518.711,354.166 537.816,365.036 556.922,375.906 576.028,386.776 595.133,397.646 614.239,408.516 633.345,419.386 652.45,430.256 671.556,441.127 690.662,451.997 709.768,462.867 728.873,473.737 747.979,484.607 767.085,495.477 786.19,506.347 805.296,517.217 824.402,528.087 843.507,538.958 862.613,549.828 881.719,560.698 900.825,571.568 919.93,582.438 939.036,593.308 958.142,604.178 977.247,615.048 996.353,625.919 1015.46,636.789 1034.56,647.659 1053.67,658.529 1072.78,669.399 1091.88,680.269 1110.99,691.139 1130.09,702.009 1149.2,712.879 1168.3,723.75 1187.41,734.62 1206.52,745.49 1225.62,756.36 1244.73,767.23 1263.83,778.1 1282.94,788.97 1302.04,799.84 1321.15,810.711 1340.26,821.581 1359.36,832.451 1378.47,843.321 1397.57,854.191 1416.68,865.061 1435.78,875.931 1454.89,886.801 1474,897.671 1493.1,908.542 1512.21,919.412 1531.31,930.282 1550.42,941.152 1569.52,952.022 1588.63,962.892 1607.74,973.762 1626.84,984.632 1645.95,995.503 1665.05,1006.37 1684.16,1017.24 1703.26,1028.11 1722.37,1038.98 1741.48,1049.85 1760.58,1060.72 1779.69,1071.59 1798.79,1082.46 1817.9,1093.33 1837,1104.2 1856.11,1115.07 1875.22,1125.94 1894.32,1136.81 1913.43,1147.68 1932.53,1158.55 1951.64,1169.42 1970.74,1180.29 1989.85,1191.16 2008.96,1202.03 2028.06,1212.9 2047.17,1223.77 2066.27,1234.65 2085.38,1245.52 2104.48,1256.39 2123.59,1267.26 2142.69,1278.13 2161.8,1289 2180.91,1299.87 2200.01,1310.74 "/>
<circle clip-path="url(#clip562)" cx="308.548" cy="84.0448" r="18" fill="#e95420" fill-rule="evenodd" fill-opacity="0.6" stroke="#000000" stroke-opacity="0.6" stroke-width="3.072"/>
<circle clip-path="url(#clip562)" cx="939.036" cy="442.62" r="18" fill="#e95420" fill-rule="evenodd" fill-opacity="0.6" stroke="#000000" stroke-opacity="0.6" stroke-width="3.072"/>
<circle clip-path="url(#clip562)" cx="1569.52" cy="864.934" r="18" fill="#e95420" fill-rule="evenodd" fill-opacity="0.6" stroke="#000000" stroke-opacity="0.6" stroke-width="3.072"/>
<circle clip-path="url(#clip562)" cx="2200.01" cy="1112.43" r="18" fill="#e95420" fill-rule="evenodd" fill-opacity="0.6" stroke="#000000" stroke-opacity="0.6" stroke-width="3.072"/>
<polyline clip-path="url(#clip562)" style="stroke:#e95420; stroke-linecap:round; stroke-linejoin:round; stroke-width:8; stroke-opacity:1; fill:none" stroke-dasharray="32, 20" points="308.548,99.8863 327.654,110.515 346.759,121.144 365.865,131.772 384.971,142.401 404.076,153.03 423.182,163.659 442.288,174.287 461.393,184.916 480.499,195.545 499.605,206.173 518.711,216.802 537.816,227.431 556.922,238.06 576.028,248.688 595.133,259.317 614.239,269.946 633.345,280.574 652.45,291.203 671.556,301.832 690.662,312.461 709.768,323.089 728.873,333.718 747.979,344.347 767.085,354.975 786.19,365.604 805.296,376.233 824.402,386.861 843.507,397.49 862.613,408.119 881.719,418.748 900.825,429.376 919.93,440.005 939.036,450.634 958.142,461.262 977.247,471.891 996.353,482.52 1015.46,493.149 1034.56,503.777 1053.67,514.406 1072.78,525.035 1091.88,535.663 1110.99,546.292 1130.09,556.921 1149.2,567.55 1168.3,578.178 1187.41,588.807 1206.52,599.436 1225.62,610.064 1244.73,620.693 1263.83,631.322 1282.94,641.951 1302.04,652.579 1321.15,663.208 1340.26,673.837 1359.36,684.465 1378.47,695.094 1397.57,705.723 1416.68,716.352 1435.78,726.98 1454.89,737.609 1474,748.238 1493.1,758.866 1512.21,769.495 1531.31,780.124 1550.42,790.752 1569.52,801.381 1588.63,812.01 1607.74,822.639 1626.84,833.267 1645.95,843.896 1665.05,854.525 1684.16,865.153 1703.26,875.782 1722.37,886.411 1741.48,897.04 1760.58,907.668 1779.69,918.297 1798.79,928.926 1817.9,939.554 1837,950.183 1856.11,960.812 1875.22,971.441 1894.32,982.069 1913.43,992.698 1932.53,1003.33 1951.64,1013.96 1970.74,1024.58 1989.85,1035.21 2008.96,1045.84 2028.06,1056.47 2047.17,1067.1 2066.27,1077.73 2085.38,1088.36 2104.48,1098.99 2123.59,1109.61 2142.69,1120.24 2161.8,1130.87 2180.91,1141.5 2200.01,1152.13 "/>
<path clip-path="url(#clip560)" d="M1315.01 246.107 L2189.92 246.107 L2189.92 90.5872 L1315.01 90.5872  Z" fill="#f0f1eb" fill-rule="evenodd" fill-opacity="1"/>
<polyline clip-path="url(#clip560)" style="stroke:#000000; stroke-linecap:round; stroke-linejoin:round; stroke-width:4; stroke-opacity:1; fill:none" points="1315.01,246.107 2189.92,246.107 2189.92,90.5872 1315.01,90.5872 1315.01,246.107 "/>
<polyline clip-path="url(#clip560)" style="stroke:#78c2ad; stroke-linecap:round; stroke-linejoin:round; stroke-width:8; stroke-opacity:1; fill:none" points="1337.29,142.427 1470.95,142.427 "/>
<path clip-path="url(#clip560)" d="M1493.76 125.147 L1520.91 125.147 L1520.91 128.712 L1499.06 155.772 L1521.45 155.772 L1521.45 159.707 L1493.23 159.707 L1493.23 156.142 L1515.08 129.082 L1493.76 129.082 L1493.76 125.147 Z" fill="#000000" fill-rule="nonzero" fill-opacity="1" /><path clip-path="url(#clip560)" d="M1526.24 125.147 L1553.39 125.147 L1553.39 128.712 L1531.54 155.772 L1553.92 155.772 L1553.92 159.707 L1525.71 159.707 L1525.71 156.142 L1547.56 129.082 L1526.24 129.082 L1526.24 125.147 Z" fill="#000000" fill-rule="nonzero" fill-opacity="1" /><polyline clip-path="url(#clip560)" style="stroke:#e95420; stroke-linecap:round; stroke-linejoin:round; stroke-width:8; stroke-opacity:1; fill:none" stroke-dasharray="32, 20" points="1337.29,194.267 1470.95,194.267 "/>
<path clip-path="url(#clip560)" d="M1493.76 176.987 L1520.91 176.987 L1520.91 180.552 L1499.06 207.612 L1521.45 207.612 L1521.45 211.547 L1493.23 211.547 L1493.23 207.982 L1515.08 180.922 L1493.76 180.922 L1493.76 176.987 Z" fill="#000000" fill-rule="nonzero" fill-opacity="1" /><path clip-path="url(#clip560)" d="M1526.24 176.987 L1553.39 176.987 L1553.39 180.552 L1531.54 207.612 L1553.92 207.612 L1553.92 211.547 L1525.71 211.547 L1525.71 207.982 L1547.56 180.922 L1526.24 180.922 L1526.24 176.987 Z" fill="#000000" fill-rule="nonzero" fill-opacity="1" /><path clip-path="url(#clip560)" d="M1557.53 196.663 L1570.01 196.663 L1570.01 200.459 L1557.53 200.459 L1557.53 196.663 Z" fill="#000000" fill-rule="nonzero" fill-opacity="1" /><path clip-path="url(#clip560)" d="M1602.86 179.649 L1602.86 184.58 Q1600.5 182.381 1597.81 181.293 Q1595.15 180.205 1592.14 180.205 Q1586.21 180.205 1583.07 183.839 Q1579.92 187.45 1579.92 194.302 Q1579.92 201.131 1583.07 204.765 Q1586.21 208.376 1592.14 208.376 Q1595.15 208.376 1597.81 207.288 Q1600.5 206.2 1602.86 204.001 L1602.86 208.885 Q1600.4 210.552 1597.65 211.385 Q1594.92 212.218 1591.86 212.218 Q1584.02 212.218 1579.5 207.427 Q1574.99 202.612 1574.99 194.302 Q1574.99 185.969 1579.5 181.177 Q1584.02 176.362 1591.86 176.362 Q1594.96 176.362 1597.7 177.196 Q1600.45 178.006 1602.86 179.649 Z" fill="#000000" fill-rule="nonzero" fill-opacity="1" /><path clip-path="url(#clip560)" d="M1618.99 211.547 L1605.8 176.987 L1610.68 176.987 L1621.63 206.084 L1632.6 176.987 L1637.46 176.987 L1624.29 211.547 L1618.99 211.547 Z" fill="#000000" fill-rule="nonzero" fill-opacity="1" /><path clip-path="url(#clip560)" d="M1667.63 175.575 Q1664.52 180.899 1663.02 186.108 Q1661.52 191.316 1661.52 196.663 Q1661.52 202.01 1663.02 207.265 Q1664.55 212.496 1667.63 217.797 L1663.92 217.797 Q1660.45 212.357 1658.71 207.103 Q1657 201.848 1657 196.663 Q1657 191.501 1658.71 186.27 Q1660.43 181.038 1663.92 175.575 L1667.63 175.575 Z" fill="#000000" fill-rule="nonzero" fill-opacity="1" /><path clip-path="url(#clip560)" d="M1673.41 185.621 L1677.67 185.621 L1683 205.853 L1688.3 185.621 L1693.32 185.621 L1698.64 205.853 L1703.95 185.621 L1708.2 185.621 L1701.42 211.547 L1696.4 211.547 L1690.82 190.297 L1685.22 211.547 L1680.2 211.547 L1673.41 185.621 Z" fill="#000000" fill-rule="nonzero" fill-opacity="1" /><path clip-path="url(#clip560)" d="M1714.66 185.621 L1718.92 185.621 L1718.92 211.547 L1714.66 211.547 L1714.66 185.621 M1714.66 175.529 L1718.92 175.529 L1718.92 180.922 L1714.66 180.922 L1714.66 175.529 Z" fill="#000000" fill-rule="nonzero" fill-opacity="1" /><path clip-path="url(#clip560)" d="M1732.05 178.26 L1732.05 185.621 L1740.82 185.621 L1740.82 188.932 L1732.05 188.932 L1732.05 203.006 Q1732.05 206.177 1732.9 207.08 Q1733.78 207.982 1736.45 207.982 L1740.82 207.982 L1740.82 211.547 L1736.45 211.547 Q1731.52 211.547 1729.64 209.718 Q1727.77 207.867 1727.77 203.006 L1727.77 188.932 L1724.64 188.932 L1724.64 185.621 L1727.77 185.621 L1727.77 178.26 L1732.05 178.26 Z" fill="#000000" fill-rule="nonzero" fill-opacity="1" /><path clip-path="url(#clip560)" d="M1767.97 195.899 L1767.97 211.547 L1763.71 211.547 L1763.71 196.038 Q1763.71 192.357 1762.28 190.529 Q1760.84 188.7 1757.97 188.7 Q1754.52 188.7 1752.53 190.899 Q1750.54 193.098 1750.54 196.894 L1750.54 211.547 L1746.26 211.547 L1746.26 175.529 L1750.54 175.529 L1750.54 189.649 Q1752.07 187.311 1754.13 186.154 Q1756.21 184.996 1758.92 184.996 Q1763.39 184.996 1765.68 187.774 Q1767.97 190.529 1767.97 195.899 Z" fill="#000000" fill-rule="nonzero" fill-opacity="1" /><path clip-path="url(#clip560)" d="M1786.51 188.607 Q1783.09 188.607 1781.1 191.293 Q1779.11 193.955 1779.11 198.607 Q1779.11 203.26 1781.07 205.945 Q1783.07 208.607 1786.51 208.607 Q1789.92 208.607 1791.91 205.922 Q1793.9 203.237 1793.9 198.607 Q1793.9 194.001 1791.91 191.316 Q1789.92 188.607 1786.51 188.607 M1786.51 184.996 Q1792.07 184.996 1795.24 188.607 Q1798.41 192.219 1798.41 198.607 Q1798.41 204.973 1795.24 208.607 Q1792.07 212.218 1786.51 212.218 Q1780.94 212.218 1777.76 208.607 Q1774.62 204.973 1774.62 198.607 Q1774.62 192.219 1777.76 188.607 Q1780.94 184.996 1786.51 184.996 Z" fill="#000000" fill-rule="nonzero" fill-opacity="1" /><path clip-path="url(#clip560)" d="M1805.03 201.316 L1805.03 185.621 L1809.29 185.621 L1809.29 201.154 Q1809.29 204.834 1810.73 206.686 Q1812.16 208.515 1815.03 208.515 Q1818.48 208.515 1820.47 206.316 Q1822.49 204.117 1822.49 200.32 L1822.49 185.621 L1826.75 185.621 L1826.75 211.547 L1822.49 211.547 L1822.49 207.566 Q1820.94 209.927 1818.88 211.084 Q1816.84 212.218 1814.13 212.218 Q1809.66 212.218 1807.35 209.441 Q1805.03 206.663 1805.03 201.316 M1815.75 184.996 L1815.75 184.996 Z" fill="#000000" fill-rule="nonzero" fill-opacity="1" /><path clip-path="url(#clip560)" d="M1839.73 178.26 L1839.73 185.621 L1848.51 185.621 L1848.51 188.932 L1839.73 188.932 L1839.73 203.006 Q1839.73 206.177 1840.59 207.08 Q1841.47 207.982 1844.13 207.982 L1848.51 207.982 L1848.51 211.547 L1844.13 211.547 Q1839.2 211.547 1837.32 209.718 Q1835.45 207.867 1835.45 203.006 L1835.45 188.932 L1832.32 188.932 L1832.32 185.621 L1835.45 185.621 L1835.45 178.26 L1839.73 178.26 Z" fill="#000000" fill-rule="nonzero" fill-opacity="1" /><path clip-path="url(#clip560)" d="M1880.96 198.515 Q1875.8 198.515 1873.81 199.695 Q1871.82 200.876 1871.82 203.723 Q1871.82 205.992 1873.3 207.334 Q1874.8 208.654 1877.37 208.654 Q1880.91 208.654 1883.04 206.154 Q1885.19 203.631 1885.19 199.464 L1885.19 198.515 L1880.96 198.515 M1889.45 196.756 L1889.45 211.547 L1885.19 211.547 L1885.19 207.612 Q1883.74 209.973 1881.56 211.107 Q1879.38 212.218 1876.24 212.218 Q1872.25 212.218 1869.89 209.996 Q1867.56 207.751 1867.56 204.001 Q1867.56 199.626 1870.47 197.404 Q1873.41 195.182 1879.22 195.182 L1885.19 195.182 L1885.19 194.765 Q1885.19 191.825 1883.25 190.228 Q1881.33 188.607 1877.83 188.607 Q1875.61 188.607 1873.5 189.14 Q1871.4 189.672 1869.45 190.737 L1869.45 186.802 Q1871.79 185.899 1873.99 185.459 Q1876.19 184.996 1878.27 184.996 Q1883.9 184.996 1886.68 187.913 Q1889.45 190.83 1889.45 196.756 Z" fill="#000000" fill-rule="nonzero" fill-opacity="1" /><path clip-path="url(#clip560)" d="M1918.41 190.598 Q1920.01 187.728 1922.23 186.362 Q1924.45 184.996 1927.46 184.996 Q1931.51 184.996 1933.71 187.844 Q1935.91 190.668 1935.91 195.899 L1935.91 211.547 L1931.63 211.547 L1931.63 196.038 Q1931.63 192.311 1930.31 190.506 Q1928.99 188.7 1926.28 188.7 Q1922.97 188.7 1921.05 190.899 Q1919.13 193.098 1919.13 196.894 L1919.13 211.547 L1914.85 211.547 L1914.85 196.038 Q1914.85 192.288 1913.53 190.506 Q1912.21 188.7 1909.45 188.7 Q1906.19 188.7 1904.27 190.922 Q1902.35 193.121 1902.35 196.894 L1902.35 211.547 L1898.07 211.547 L1898.07 185.621 L1902.35 185.621 L1902.35 189.649 Q1903.81 187.265 1905.84 186.131 Q1907.88 184.996 1910.68 184.996 Q1913.5 184.996 1915.47 186.432 Q1917.46 187.867 1918.41 190.598 Z" fill="#000000" fill-rule="nonzero" fill-opacity="1" /><path clip-path="url(#clip560)" d="M1966.58 197.519 L1966.58 199.603 L1947 199.603 Q1947.28 204.001 1949.64 206.316 Q1952.02 208.607 1956.26 208.607 Q1958.71 208.607 1961 208.006 Q1963.32 207.404 1965.59 206.2 L1965.59 210.228 Q1963.3 211.2 1960.89 211.709 Q1958.48 212.218 1956 212.218 Q1949.8 212.218 1946.17 208.607 Q1942.56 204.996 1942.56 198.839 Q1942.56 192.473 1945.98 188.746 Q1949.43 184.996 1955.26 184.996 Q1960.5 184.996 1963.53 188.376 Q1966.58 191.732 1966.58 197.519 M1962.32 196.269 Q1962.28 192.774 1960.36 190.691 Q1958.46 188.607 1955.31 188.607 Q1951.75 188.607 1949.59 190.621 Q1947.46 192.635 1947.14 196.293 L1962.32 196.269 Z" fill="#000000" fill-rule="nonzero" fill-opacity="1" /><path clip-path="url(#clip560)" d="M1995.12 195.899 L1995.12 211.547 L1990.87 211.547 L1990.87 196.038 Q1990.87 192.357 1989.43 190.529 Q1988 188.7 1985.12 188.7 Q1981.68 188.7 1979.68 190.899 Q1977.69 193.098 1977.69 196.894 L1977.69 211.547 L1973.41 211.547 L1973.41 185.621 L1977.69 185.621 L1977.69 189.649 Q1979.22 187.311 1981.28 186.154 Q1983.37 184.996 1986.07 184.996 Q1990.54 184.996 1992.83 187.774 Q1995.12 190.529 1995.12 195.899 Z" fill="#000000" fill-rule="nonzero" fill-opacity="1" /><path clip-path="url(#clip560)" d="M2020.68 189.557 L2020.68 175.529 L2024.94 175.529 L2024.94 211.547 L2020.68 211.547 L2020.68 207.658 Q2019.34 209.973 2017.28 211.107 Q2015.24 212.218 2012.37 212.218 Q2007.67 212.218 2004.71 208.468 Q2001.77 204.719 2001.77 198.607 Q2001.77 192.496 2004.71 188.746 Q2007.67 184.996 2012.37 184.996 Q2015.24 184.996 2017.28 186.131 Q2019.34 187.242 2020.68 189.557 M2006.17 198.607 Q2006.17 203.306 2008.09 205.992 Q2010.03 208.654 2013.41 208.654 Q2016.79 208.654 2018.74 205.992 Q2020.68 203.306 2020.68 198.607 Q2020.68 193.908 2018.74 191.246 Q2016.79 188.561 2013.41 188.561 Q2010.03 188.561 2008.09 191.246 Q2006.17 193.908 2006.17 198.607 Z" fill="#000000" fill-rule="nonzero" fill-opacity="1" /><path clip-path="url(#clip560)" d="M2053.9 190.598 Q2055.49 187.728 2057.72 186.362 Q2059.94 184.996 2062.95 184.996 Q2067 184.996 2069.2 187.844 Q2071.4 190.668 2071.4 195.899 L2071.4 211.547 L2067.12 211.547 L2067.12 196.038 Q2067.12 192.311 2065.8 190.506 Q2064.48 188.7 2061.77 188.7 Q2058.46 188.7 2056.54 190.899 Q2054.62 193.098 2054.62 196.894 L2054.62 211.547 L2050.33 211.547 L2050.33 196.038 Q2050.33 192.288 2049.01 190.506 Q2047.69 188.7 2044.94 188.7 Q2041.68 188.7 2039.75 190.922 Q2037.83 193.121 2037.83 196.894 L2037.83 211.547 L2033.55 211.547 L2033.55 185.621 L2037.83 185.621 L2037.83 189.649 Q2039.29 187.265 2041.33 186.131 Q2043.37 184.996 2046.17 184.996 Q2048.99 184.996 2050.96 186.432 Q2052.95 187.867 2053.9 190.598 Z" fill="#000000" fill-rule="nonzero" fill-opacity="1" /><path clip-path="url(#clip560)" d="M2102.07 197.519 L2102.07 199.603 L2082.49 199.603 Q2082.76 204.001 2085.12 206.316 Q2087.51 208.607 2091.74 208.607 Q2094.2 208.607 2096.49 208.006 Q2098.8 207.404 2101.07 206.2 L2101.07 210.228 Q2098.78 211.2 2096.37 211.709 Q2093.97 212.218 2091.49 212.218 Q2085.29 212.218 2081.65 208.607 Q2078.04 204.996 2078.04 198.839 Q2078.04 192.473 2081.47 188.746 Q2084.92 184.996 2090.75 184.996 Q2095.98 184.996 2099.01 188.376 Q2102.07 191.732 2102.07 197.519 M2097.81 196.269 Q2097.76 192.774 2095.84 190.691 Q2093.94 188.607 2090.8 188.607 Q2087.23 188.607 2085.08 190.621 Q2082.95 192.635 2082.62 196.293 L2097.81 196.269 Z" fill="#000000" fill-rule="nonzero" fill-opacity="1" /><path clip-path="url(#clip560)" d="M2130.61 195.899 L2130.61 211.547 L2126.35 211.547 L2126.35 196.038 Q2126.35 192.357 2124.92 190.529 Q2123.48 188.7 2120.61 188.7 Q2117.16 188.7 2115.17 190.899 Q2113.18 193.098 2113.18 196.894 L2113.18 211.547 L2108.9 211.547 L2108.9 185.621 L2113.18 185.621 L2113.18 189.649 Q2114.71 187.311 2116.77 186.154 Q2118.85 184.996 2121.56 184.996 Q2126.03 184.996 2128.32 187.774 Q2130.61 190.529 2130.61 195.899 Z" fill="#000000" fill-rule="nonzero" fill-opacity="1" /><path clip-path="url(#clip560)" d="M2143.32 178.26 L2143.32 185.621 L2152.09 185.621 L2152.09 188.932 L2143.32 188.932 L2143.32 203.006 Q2143.32 206.177 2144.17 207.08 Q2145.05 207.982 2147.72 207.982 L2152.09 207.982 L2152.09 211.547 L2147.72 211.547 Q2142.79 211.547 2140.91 209.718 Q2139.04 207.867 2139.04 203.006 L2139.04 188.932 L2135.91 188.932 L2135.91 185.621 L2139.04 185.621 L2139.04 178.26 L2143.32 178.26 Z" fill="#000000" fill-rule="nonzero" fill-opacity="1" /><path clip-path="url(#clip560)" d="M2157.02 175.575 L2160.73 175.575 Q2164.2 181.038 2165.91 186.27 Q2167.65 191.501 2167.65 196.663 Q2167.65 201.848 2165.91 207.103 Q2164.2 212.357 2160.73 217.797 L2157.02 217.797 Q2160.1 212.496 2161.61 207.265 Q2163.13 202.01 2163.13 196.663 Q2163.13 191.316 2161.61 186.108 Q2160.1 180.899 2157.02 175.575 Z" fill="#000000" fill-rule="nonzero" fill-opacity="1" /></svg>
