<?xml version="1.0" encoding="utf-8"?>
<svg xmlns="http://www.w3.org/2000/svg" xmlns:xlink="http://www.w3.org/1999/xlink" width="576" height="384" viewBox="0 0 2304 1536">
<defs>
  <clipPath id="clip370">
    <rect x="0" y="0" width="2304" height="1536"/>
  </clipPath>
</defs>
<path clip-path="url(#clip370)" d="M0 1536 L2304 1536 L2304 8.52651e-14 L0 8.52651e-14  Z" fill="#ffffff" fill-rule="evenodd" fill-opacity="1"/>
<defs>
  <clipPath id="clip371">
    <rect x="460" y="0" width="1614" height="1536"/>
  </clipPath>
</defs>
<path clip-path="url(#clip370)" d="M251.804 1347.54 L2256.76 1347.54 L2256.76 47.2441 L251.804 47.2441  Z" fill="#ffffff" fill-rule="evenodd" fill-opacity="1"/>
<defs>
  <clipPath id="clip372">
    <rect x="251" y="47" width="2006" height="1301"/>
  </clipPath>
</defs>
<polyline clip-path="url(#clip372)" style="stroke:#000000; stroke-linecap:round; stroke-linejoin:round; stroke-width:2; stroke-opacity:0.1; fill:none" points="939.036,1347.54 939.036,47.2441 "/>
<polyline clip-path="url(#clip372)" style="stroke:#000000; stroke-linecap:round; stroke-linejoin:round; stroke-width:2; stroke-opacity:0.1; fill:none" points="2200.01,1347.54 2200.01,47.2441 "/>
<polyline clip-path="url(#clip370)" style="stroke:#000000; stroke-linecap:round; stroke-linejoin:round; stroke-width:4; stroke-opacity:1; fill:none" points="251.804,1347.54 2256.76,1347.54 "/>
<polyline clip-path="url(#clip370)" style="stroke:#000000; stroke-linecap:round; stroke-linejoin:round; stroke-width:4; stroke-opacity:1; fill:none" points="939.036,1347.54 939.036,1328.64 "/>
<polyline clip-path="url(#clip370)" style="stroke:#000000; stroke-linecap:round; stroke-linejoin:round; stroke-width:4; stroke-opacity:1; fill:none" points="2200.01,1347.54 2200.01,1328.64 "/>
<path clip-path="url(#clip370)" d="M904.809 1420.89 L912.448 1420.89 L912.448 1394.53 L904.137 1396.19 L904.137 1391.94 L912.401 1390.27 L917.077 1390.27 L917.077 1420.89 L924.716 1420.89 L924.716 1424.83 L904.809 1424.83 L904.809 1420.89 Z" fill="#000000" fill-rule="nonzero" fill-opacity="1" /><path clip-path="url(#clip370)" d="M944.16 1393.35 Q940.549 1393.35 938.721 1396.91 Q936.915 1400.45 936.915 1407.58 Q936.915 1414.69 938.721 1418.25 Q940.549 1421.8 944.16 1421.8 Q947.795 1421.8 949.6 1418.25 Q951.429 1414.69 951.429 1407.58 Q951.429 1400.45 949.6 1396.91 Q947.795 1393.35 944.16 1393.35 M944.16 1389.64 Q949.97 1389.64 953.026 1394.25 Q956.105 1398.83 956.105 1407.58 Q956.105 1416.31 953.026 1420.92 Q949.97 1425.5 944.16 1425.5 Q938.35 1425.5 935.271 1420.92 Q932.216 1416.31 932.216 1407.58 Q932.216 1398.83 935.271 1394.25 Q938.35 1389.64 944.16 1389.64 Z" fill="#000000" fill-rule="nonzero" fill-opacity="1" /><path clip-path="url(#clip370)" d="M960.675 1394.22 L973.934 1394.22 L973.934 1397.42 L956.105 1397.42 L956.105 1394.22 Q958.268 1391.98 961.992 1388.22 Q965.734 1384.44 966.693 1383.35 Q968.518 1381.3 969.233 1379.89 Q969.966 1378.46 969.966 1377.09 Q969.966 1374.85 968.386 1373.44 Q966.825 1372.03 964.305 1372.03 Q962.518 1372.03 960.525 1372.65 Q958.55 1373.27 956.293 1374.53 L956.293 1370.69 Q958.587 1369.77 960.581 1369.3 Q962.575 1368.83 964.23 1368.83 Q968.593 1368.83 971.189 1371.01 Q973.784 1373.19 973.784 1376.84 Q973.784 1378.57 973.126 1380.13 Q972.486 1381.68 970.775 1383.78 Q970.305 1384.33 967.784 1386.94 Q965.264 1389.54 960.675 1394.22 Z" fill="#000000" fill-rule="nonzero" fill-opacity="1" /><path clip-path="url(#clip370)" d="M2164.47 1420.89 L2172.11 1420.89 L2172.11 1394.53 L2163.8 1396.19 L2163.8 1391.94 L2172.06 1390.27 L2176.74 1390.27 L2176.74 1420.89 L2184.38 1420.89 L2184.38 1424.83 L2164.47 1424.83 L2164.47 1420.89 Z" fill="#000000" fill-rule="nonzero" fill-opacity="1" /><path clip-path="url(#clip370)" d="M2203.82 1393.35 Q2200.21 1393.35 2198.38 1396.91 Q2196.57 1400.45 2196.57 1407.58 Q2196.57 1414.69 2198.38 1418.25 Q2200.21 1421.8 2203.82 1421.8 Q2207.45 1421.8 2209.26 1418.25 Q2211.09 1414.69 2211.09 1407.58 Q2211.09 1400.45 2209.26 1396.91 Q2207.45 1393.35 2203.82 1393.35 M2203.82 1389.64 Q2209.63 1389.64 2212.69 1394.25 Q2215.76 1398.83 2215.76 1407.58 Q2215.76 1416.31 2212.69 1420.92 Q2209.63 1425.5 2203.82 1425.5 Q2198.01 1425.5 2194.93 1420.92 Q2191.88 1416.31 2191.88 1407.58 Q2191.88 1398.83 2194.93 1394.25 Q2198.01 1389.64 2203.82 1389.64 Z" fill="#000000" fill-rule="nonzero" fill-opacity="1" /><path clip-path="url(#clip370)" d="M2228.44 1372.65 L2218.85 1387.64 L2228.44 1387.64 L2228.44 1372.65 M2227.44 1369.34 L2232.22 1369.34 L2232.22 1387.64 L2236.23 1387.64 L2236.23 1390.8 L2232.22 1390.8 L2232.22 1397.42 L2228.44 1397.42 L2228.44 1390.8 L2215.76 1390.8 L2215.76 1387.13 L2227.44 1369.34 Z" fill="#000000" fill-rule="nonzero" fill-opacity="1" /><path clip-path="url(#clip370)" d="M1174.47 1490.1 L1174.47 1492.96 L1147.54 1492.96 Q1147.92 1499.01 1151.17 1502.19 Q1154.45 1505.34 1160.27 1505.34 Q1163.65 1505.34 1166.8 1504.52 Q1169.98 1503.69 1173.1 1502.03 L1173.1 1507.57 Q1169.95 1508.91 1166.64 1509.61 Q1163.33 1510.31 1159.92 1510.31 Q1151.39 1510.31 1146.4 1505.34 Q1141.43 1500.38 1141.43 1491.91 Q1141.43 1483.16 1146.14 1478.03 Q1150.88 1472.88 1158.91 1472.88 Q1166.1 1472.88 1170.27 1477.53 Q1174.47 1482.14 1174.47 1490.1 M1168.61 1488.38 Q1168.55 1483.57 1165.91 1480.71 Q1163.3 1477.84 1158.97 1477.84 Q1154.07 1477.84 1151.11 1480.61 Q1148.18 1483.38 1147.73 1488.41 L1168.61 1488.38 Z" fill="#000000" fill-rule="nonzero" fill-opacity="1" /><path clip-path="url(#clip370)" d="M1189.75 1504.04 L1189.75 1522.94 L1183.86 1522.94 L1183.86 1473.74 L1189.75 1473.74 L1189.75 1479.15 Q1191.59 1475.97 1194.39 1474.44 Q1197.23 1472.88 1201.14 1472.88 Q1207.64 1472.88 1211.68 1478.03 Q1215.75 1483.19 1215.75 1491.59 Q1215.75 1500 1211.68 1505.15 Q1207.64 1510.31 1201.14 1510.31 Q1197.23 1510.31 1194.39 1508.78 Q1191.59 1507.22 1189.75 1504.04 M1209.67 1491.59 Q1209.67 1485.13 1207 1481.47 Q1204.36 1477.78 1199.71 1477.78 Q1195.06 1477.78 1192.39 1481.47 Q1189.75 1485.13 1189.75 1491.59 Q1189.75 1498.05 1192.39 1501.75 Q1195.06 1505.41 1199.71 1505.41 Q1204.36 1505.41 1207 1501.75 Q1209.67 1498.05 1209.67 1491.59 Z" fill="#000000" fill-rule="nonzero" fill-opacity="1" /><path clip-path="url(#clip370)" d="M1239.27 1477.84 Q1234.56 1477.84 1231.82 1481.54 Q1229.09 1485.2 1229.09 1491.59 Q1229.09 1497.99 1231.79 1501.68 Q1234.53 1505.34 1239.27 1505.34 Q1243.95 1505.34 1246.69 1501.65 Q1249.43 1497.96 1249.43 1491.59 Q1249.43 1485.26 1246.69 1481.57 Q1243.95 1477.84 1239.27 1477.84 M1239.27 1472.88 Q1246.91 1472.88 1251.27 1477.84 Q1255.63 1482.81 1255.63 1491.59 Q1255.63 1500.35 1251.27 1505.34 Q1246.91 1510.31 1239.27 1510.31 Q1231.6 1510.31 1227.24 1505.34 Q1222.91 1500.35 1222.91 1491.59 Q1222.91 1482.81 1227.24 1477.84 Q1231.6 1472.88 1239.27 1472.88 Z" fill="#000000" fill-rule="nonzero" fill-opacity="1" /><path clip-path="url(#clip370)" d="M1290.99 1475.11 L1290.99 1480.58 Q1288.51 1479.21 1286 1478.54 Q1283.51 1477.84 1280.97 1477.84 Q1275.27 1477.84 1272.12 1481.47 Q1268.97 1485.07 1268.97 1491.59 Q1268.97 1498.12 1272.12 1501.75 Q1275.27 1505.34 1280.97 1505.34 Q1283.51 1505.34 1286 1504.67 Q1288.51 1503.97 1290.99 1502.61 L1290.99 1508.02 Q1288.54 1509.16 1285.9 1509.74 Q1283.29 1510.31 1280.33 1510.31 Q1272.28 1510.31 1267.54 1505.25 Q1262.79 1500.19 1262.79 1491.59 Q1262.79 1482.87 1267.57 1477.88 Q1272.37 1472.88 1280.71 1472.88 Q1283.42 1472.88 1286 1473.45 Q1288.58 1473.99 1290.99 1475.11 Z" fill="#000000" fill-rule="nonzero" fill-opacity="1" /><path clip-path="url(#clip370)" d="M1330.81 1487.87 L1330.81 1509.39 L1324.96 1509.39 L1324.96 1488.06 Q1324.96 1483 1322.98 1480.49 Q1321.01 1477.97 1317.06 1477.97 Q1312.32 1477.97 1309.58 1480.99 Q1306.84 1484.02 1306.84 1489.24 L1306.84 1509.39 L1300.96 1509.39 L1300.96 1459.86 L1306.84 1459.86 L1306.84 1479.28 Q1308.95 1476.06 1311.78 1474.47 Q1314.64 1472.88 1318.37 1472.88 Q1324.51 1472.88 1327.66 1476.7 Q1330.81 1480.49 1330.81 1487.87 Z" fill="#000000" fill-rule="nonzero" fill-opacity="1" /><path clip-path="url(#clip370)" d="M1365.22 1474.79 L1365.22 1480.33 Q1362.74 1479.05 1360.06 1478.42 Q1357.39 1477.78 1354.52 1477.78 Q1350.16 1477.78 1347.97 1479.12 Q1345.8 1480.45 1345.8 1483.13 Q1345.8 1485.16 1347.36 1486.34 Q1348.92 1487.49 1353.63 1488.54 L1355.64 1488.98 Q1361.88 1490.32 1364.49 1492.77 Q1367.13 1495.19 1367.13 1499.55 Q1367.13 1504.52 1363.18 1507.41 Q1359.27 1510.31 1352.39 1510.31 Q1349.53 1510.31 1346.41 1509.74 Q1343.32 1509.19 1339.88 1508.08 L1339.88 1502.03 Q1343.13 1503.72 1346.28 1504.58 Q1349.43 1505.41 1352.52 1505.41 Q1356.66 1505.41 1358.88 1504.01 Q1361.11 1502.57 1361.11 1500 Q1361.11 1497.61 1359.49 1496.34 Q1357.9 1495.06 1352.46 1493.88 L1350.42 1493.41 Q1344.98 1492.26 1342.56 1489.91 Q1340.14 1487.52 1340.14 1483.38 Q1340.14 1478.35 1343.7 1475.62 Q1347.27 1472.88 1353.82 1472.88 Q1357.07 1472.88 1359.93 1473.36 Q1362.8 1473.83 1365.22 1474.79 Z" fill="#000000" fill-rule="nonzero" fill-opacity="1" /><polyline clip-path="url(#clip372)" style="stroke:#000000; stroke-linecap:round; stroke-linejoin:round; stroke-width:2; stroke-opacity:0.1; fill:none" points="251.804,839.396 2256.76,839.396 "/>
<polyline clip-path="url(#clip372)" style="stroke:#000000; stroke-linecap:round; stroke-linejoin:round; stroke-width:2; stroke-opacity:0.1; fill:none" points="251.804,311.299 2256.76,311.299 "/>
<polyline clip-path="url(#clip370)" style="stroke:#000000; stroke-linecap:round; stroke-linejoin:round; stroke-width:4; stroke-opacity:1; fill:none" points="251.804,1347.54 251.804,47.2441 "/>
<polyline clip-path="url(#clip370)" style="stroke:#000000; stroke-linecap:round; stroke-linejoin:round; stroke-width:4; stroke-opacity:1; fill:none" points="251.804,839.396 270.702,839.396 "/>
<polyline clip-path="url(#clip370)" style="stroke:#000000; stroke-linecap:round; stroke-linejoin:round; stroke-width:4; stroke-opacity:1; fill:none" points="251.804,311.299 270.702,311.299 "/>
<path clip-path="url(#clip370)" d="M115.675 859.189 L123.314 859.189 L123.314 832.823 L115.003 834.49 L115.003 830.23 L123.267 828.564 L127.943 828.564 L127.943 859.189 L135.582 859.189 L135.582 863.124 L115.675 863.124 L115.675 859.189 Z" fill="#000000" fill-rule="nonzero" fill-opacity="1" /><path clip-path="url(#clip370)" d="M155.026 831.643 Q151.415 831.643 149.587 835.207 Q147.781 838.749 147.781 845.879 Q147.781 852.985 149.587 856.55 Q151.415 860.091 155.026 860.091 Q158.661 860.091 160.466 856.55 Q162.295 852.985 162.295 845.879 Q162.295 838.749 160.466 835.207 Q158.661 831.643 155.026 831.643 M155.026 827.939 Q160.837 827.939 163.892 832.545 Q166.971 837.129 166.971 845.879 Q166.971 854.605 163.892 859.212 Q160.837 863.795 155.026 863.795 Q149.216 863.795 146.138 859.212 Q143.082 854.605 143.082 845.879 Q143.082 837.129 146.138 832.545 Q149.216 827.939 155.026 827.939 Z" fill="#000000" fill-rule="nonzero" fill-opacity="1" /><path clip-path="url(#clip370)" d="M166.971 822.04 L191.082 822.04 L191.082 825.237 L166.971 825.237 L166.971 822.04 Z" fill="#000000" fill-rule="nonzero" fill-opacity="1" /><path clip-path="url(#clip370)" d="M207.878 820.159 Q205.32 820.159 203.815 821.909 Q202.329 823.658 202.329 826.705 Q202.329 829.733 203.815 831.5 Q205.32 833.25 207.878 833.25 Q210.436 833.25 211.921 831.5 Q213.426 829.733 213.426 826.705 Q213.426 823.658 211.921 821.909 Q210.436 820.159 207.878 820.159 M215.42 808.254 L215.42 811.715 Q213.99 811.038 212.523 810.68 Q211.075 810.323 209.646 810.323 Q205.884 810.323 203.89 812.862 Q201.916 815.401 201.633 820.536 Q202.743 818.899 204.417 818.034 Q206.091 817.15 208.103 817.15 Q212.335 817.15 214.78 819.727 Q217.244 822.285 217.244 826.705 Q217.244 831.03 214.686 833.645 Q212.128 836.259 207.878 836.259 Q203.006 836.259 200.43 832.535 Q197.853 828.792 197.853 821.702 Q197.853 815.044 201.013 811.094 Q204.173 807.126 209.495 807.126 Q210.925 807.126 212.373 807.408 Q213.84 807.69 215.42 808.254 Z" fill="#000000" fill-rule="nonzero" fill-opacity="1" /><path clip-path="url(#clip370)" d="M115.411 331.091 L123.05 331.091 L123.05 304.725 L114.74 306.392 L114.74 302.133 L123.004 300.466 L127.68 300.466 L127.68 331.091 L135.319 331.091 L135.319 335.026 L115.411 335.026 L115.411 331.091 Z" fill="#000000" fill-rule="nonzero" fill-opacity="1" /><path clip-path="url(#clip370)" d="M154.763 303.545 Q151.152 303.545 149.323 307.11 Q147.518 310.651 147.518 317.781 Q147.518 324.887 149.323 328.452 Q151.152 331.994 154.763 331.994 Q158.397 331.994 160.203 328.452 Q162.032 324.887 162.032 317.781 Q162.032 310.651 160.203 307.11 Q158.397 303.545 154.763 303.545 M154.763 299.841 Q160.573 299.841 163.629 304.448 Q166.707 309.031 166.707 317.781 Q166.707 326.508 163.629 331.114 Q160.573 335.697 154.763 335.697 Q148.953 335.697 145.874 331.114 Q142.819 326.508 142.819 317.781 Q142.819 309.031 145.874 304.448 Q148.953 299.841 154.763 299.841 Z" fill="#000000" fill-rule="nonzero" fill-opacity="1" /><path clip-path="url(#clip370)" d="M166.707 293.942 L190.819 293.942 L190.819 297.14 L166.707 297.14 L166.707 293.942 Z" fill="#000000" fill-rule="nonzero" fill-opacity="1" /><path clip-path="url(#clip370)" d="M209.458 282.846 L199.866 297.836 L209.458 297.836 L209.458 282.846 M208.461 279.536 L213.238 279.536 L213.238 297.836 L217.244 297.836 L217.244 300.995 L213.238 300.995 L213.238 307.616 L209.458 307.616 L209.458 300.995 L196.781 300.995 L196.781 297.328 L208.461 279.536 Z" fill="#000000" fill-rule="nonzero" fill-opacity="1" /><path clip-path="url(#clip370)" d="M18.4042 761.509 L18.4042 751.929 L50.7419 739.802 L18.4042 727.612 L18.4042 718.031 L65.9242 718.031 L65.9242 724.301 L24.197 724.301 L56.7894 736.555 L56.7894 743.017 L24.197 755.271 L65.9242 755.271 L65.9242 761.509 L18.4042 761.509 Z" fill="#000000" fill-rule="nonzero" fill-opacity="1" /><path clip-path="url(#clip370)" d="M19.9638 676.781 L26.234 676.781 Q24.4834 680.442 23.624 683.688 Q22.7647 686.935 22.7647 689.958 Q22.7647 695.21 24.8017 698.075 Q26.8387 700.907 30.5945 700.907 Q33.7455 700.907 35.3688 699.03 Q36.9602 697.12 37.9469 691.836 L38.7426 687.953 Q40.1112 680.76 43.5805 677.354 Q47.018 673.917 52.8108 673.917 Q59.7176 673.917 63.2824 678.564 Q66.8472 683.179 66.8472 692.123 Q66.8472 695.497 66.0833 699.316 Q65.3194 703.104 63.8235 707.178 L57.2031 707.178 Q59.3993 703.263 60.5133 699.507 Q61.6273 695.751 61.6273 692.123 Q61.6273 686.616 59.463 683.625 Q57.2986 680.633 53.2882 680.633 Q49.7871 680.633 47.8137 682.797 Q45.8404 684.929 44.8537 689.831 L44.0898 693.746 Q42.6575 700.939 39.602 704.154 Q36.5464 707.369 31.1037 707.369 Q24.8017 707.369 21.1732 702.944 Q17.5448 698.488 17.5448 690.69 Q17.5448 687.348 18.1495 683.879 Q18.7543 680.41 19.9638 676.781 Z" fill="#000000" fill-rule="nonzero" fill-opacity="1" /><path clip-path="url(#clip370)" d="M18.4042 663.891 L18.4042 633.845 L23.815 633.845 L23.815 657.461 L37.8832 657.461 L37.8832 634.831 L43.2941 634.831 L43.2941 657.461 L60.5133 657.461 L60.5133 633.272 L65.9242 633.272 L65.9242 663.891 L18.4042 663.891 Z" fill="#000000" fill-rule="nonzero" fill-opacity="1" /><circle clip-path="url(#clip372)" cx="308.548" cy="84.0448" r="18" fill="#78c2ad" fill-rule="evenodd" fill-opacity="0.6" stroke="#000000" stroke-opacity="0.6" stroke-width="3.072"/>
<circle clip-path="url(#clip372)" cx="939.036" cy="382.069" r="18" fill="#78c2ad" fill-rule="evenodd" fill-opacity="0.6" stroke="#000000" stroke-opacity="0.6" stroke-width="3.072"/>
<circle clip-path="url(#clip372)" cx="1569.52" cy="594.963" r="18" fill="#78c2ad" fill-rule="evenodd" fill-opacity="0.6" stroke="#000000" stroke-opacity="0.6" stroke-width="3.072"/>
<circle clip-path="url(#clip372)" cx="2200.01" cy="833.565" r="18" fill="#78c2ad" fill-rule="evenodd" fill-opacity="0.6" stroke="#000000" stroke-opacity="0.6" stroke-width="3.072"/>
<polyline clip-path="url(#clip372)" style="stroke:#78c2ad; stroke-linecap:round; stroke-linejoin:round; stroke-width:8; stroke-opacity:1; fill:none" points="308.548,104.442 327.654,111.901 346.759,119.36 365.865,126.819 384.971,134.278 404.076,141.737 423.182,149.196 442.288,156.655 461.393,164.114 480.499,171.573 499.605,179.032 518.711,186.491 537.816,193.95 556.922,201.409 576.028,208.868 595.133,216.327 614.239,223.786 633.345,231.245 652.45,238.704 671.556,246.163 690.662,253.621 709.768,261.08 728.873,268.539 747.979,275.998 767.085,283.457 786.19,290.916 805.296,298.375 824.402,305.834 843.507,313.293 862.613,320.752 881.719,328.211 900.825,335.67 919.93,343.129 939.036,350.588 958.142,358.047 977.247,365.506 996.353,372.965 1015.46,380.424 1034.56,387.883 1053.67,395.342 1072.78,402.801 1091.88,410.259 1110.99,417.718 1130.09,425.177 1149.2,432.636 1168.3,440.095 1187.41,447.554 1206.52,455.013 1225.62,462.472 1244.73,469.931 1263.83,477.39 1282.94,484.849 1302.04,492.308 1321.15,499.767 1340.26,507.226 1359.36,514.685 1378.47,522.144 1397.57,529.603 1416.68,537.062 1435.78,544.521 1454.89,551.98 1474,559.439 1493.1,566.897 1512.21,574.356 1531.31,581.815 1550.42,589.274 1569.52,596.733 1588.63,604.192 1607.74,611.651 1626.84,619.11 1645.95,626.569 1665.05,634.028 1684.16,641.487 1703.26,648.946 1722.37,656.405 1741.48,663.864 1760.58,671.323 1779.69,678.782 1798.79,686.241 1817.9,693.7 1837,701.159 1856.11,708.618 1875.22,716.077 1894.32,723.535 1913.43,730.994 1932.53,738.453 1951.64,745.912 1970.74,753.371 1989.85,760.83 2008.96,768.289 2028.06,775.748 2047.17,783.207 2066.27,790.666 2085.38,798.125 2104.48,805.584 2123.59,813.043 2142.69,820.502 2161.8,827.961 2180.91,835.42 2200.01,842.879 "/>
<circle clip-path="url(#clip372)" cx="308.548" cy="547.037" r="18" fill="#e95420" fill-rule="evenodd" fill-opacity="0.6" stroke="#000000" stroke-opacity="0.6" stroke-width="3.072"/>
<circle clip-path="url(#clip372)" cx="939.036" cy="815.541" r="18" fill="#e95420" fill-rule="evenodd" fill-opacity="0.6" stroke="#000000" stroke-opacity="0.6" stroke-width="3.072"/>
<circle clip-path="url(#clip372)" cx="1569.52" cy="1086.25" r="18" fill="#e95420" fill-rule="evenodd" fill-opacity="0.6" stroke="#000000" stroke-opacity="0.6" stroke-width="3.072"/>
<circle clip-path="url(#clip372)" cx="2200.01" cy="1291.56" r="18" fill="#e95420" fill-rule="evenodd" fill-opacity="0.6" stroke="#000000" stroke-opacity="0.6" stroke-width="3.072"/>
<polyline clip-path="url(#clip372)" style="stroke:#e95420; stroke-linecap:round; stroke-linejoin:round; stroke-width:8; stroke-opacity:1; fill:none" points="308.548,559.456 327.654,567.045 346.759,574.634 365.865,582.222 384.971,589.811 404.076,597.4 423.182,604.988 442.288,612.577 461.393,620.166 480.499,627.754 499.605,635.343 518.711,642.932 537.816,650.52 556.922,658.109 576.028,665.698 595.133,673.286 614.239,680.875 633.345,688.464 652.45,696.053 671.556,703.641 690.662,711.23 709.768,718.819 728.873,726.407 747.979,733.996 767.085,741.585 786.19,749.173 805.296,756.762 824.402,764.351 843.507,771.939 862.613,779.528 881.719,787.117 900.825,794.705 919.93,802.294 939.036,809.883 958.142,817.471 977.247,825.06 996.353,832.649 1015.46,840.238 1034.56,847.826 1053.67,855.415 1072.78,863.004 1091.88,870.592 1110.99,878.181 1130.09,885.77 1149.2,893.358 1168.3,900.947 1187.41,908.536 1206.52,916.124 1225.62,923.713 1244.73,931.302 1263.83,938.89 1282.94,946.479 1302.04,954.068 1321.15,961.656 1340.26,969.245 1359.36,976.834 1378.47,984.423 1397.57,992.011 1416.68,999.6 1435.78,1007.19 1454.89,1014.78 1474,1022.37 1493.1,1029.95 1512.21,1037.54 1531.31,1045.13 1550.42,1052.72 1569.52,1060.31 1588.63,1067.9 1607.74,1075.49 1626.84,1083.08 1645.95,1090.66 1665.05,1098.25 1684.16,1105.84 1703.26,1113.43 1722.37,1121.02 1741.48,1128.61 1760.58,1136.2 1779.69,1143.78 1798.79,1151.37 1817.9,1158.96 1837,1166.55 1856.11,1174.14 1875.22,1181.73 1894.32,1189.32 1913.43,1196.91 1932.53,1204.49 1951.64,1212.08 1970.74,1219.67 1989.85,1227.26 2008.96,1234.85 2028.06,1242.44 2047.17,1250.03 2066.27,1257.62 2085.38,1265.2 2104.48,1272.79 2123.59,1280.38 2142.69,1287.97 2161.8,1295.56 2180.91,1303.15 2200.01,1310.74 "/>
<path clip-path="url(#clip370)" d="M1845.19 246.107 L2189.92 246.107 L2189.92 90.5872 L1845.19 90.5872  Z" fill="#ffffff" fill-rule="evenodd" fill-opacity="1"/>
<polyline clip-path="url(#clip370)" style="stroke:#000000; stroke-linecap:round; stroke-linejoin:round; stroke-width:4; stroke-opacity:1; fill:none" points="1845.19,246.107 2189.92,246.107 2189.92,90.5872 1845.19,90.5872 1845.19,246.107 "/>
<polyline clip-path="url(#clip370)" style="stroke:#78c2ad; stroke-linecap:round; stroke-linejoin:round; stroke-width:8; stroke-opacity:1; fill:none" points="1867.47,142.427 2001.13,142.427 "/>
<path clip-path="url(#clip370)" d="M2023.94 125.147 L2051.1 125.147 L2051.1 128.712 L2029.24 155.772 L2051.63 155.772 L2051.63 159.707 L2023.41 159.707 L2023.41 156.142 L2045.26 129.082 L2023.94 129.082 L2023.94 125.147 Z" fill="#000000" fill-rule="nonzero" fill-opacity="1" /><path clip-path="url(#clip370)" d="M2056.42 125.147 L2083.57 125.147 L2083.57 128.712 L2061.72 155.772 L2084.11 155.772 L2084.11 159.707 L2055.89 159.707 L2055.89 156.142 L2077.74 129.082 L2056.42 129.082 L2056.42 125.147 Z" fill="#000000" fill-rule="nonzero" fill-opacity="1" /><polyline clip-path="url(#clip370)" style="stroke:#e95420; stroke-linecap:round; stroke-linejoin:round; stroke-width:8; stroke-opacity:1; fill:none" points="1867.47,194.267 2001.13,194.267 "/>
<path clip-path="url(#clip370)" d="M2023.94 176.987 L2051.1 176.987 L2051.1 180.552 L2029.24 207.612 L2051.63 207.612 L2051.63 211.547 L2023.41 211.547 L2023.41 207.982 L2045.26 180.922 L2023.94 180.922 L2023.94 176.987 Z" fill="#000000" fill-rule="nonzero" fill-opacity="1" /><path clip-path="url(#clip370)" d="M2056.42 176.987 L2083.57 176.987 L2083.57 180.552 L2061.72 207.612 L2084.11 207.612 L2084.11 211.547 L2055.89 211.547 L2055.89 207.982 L2077.74 180.922 L2056.42 180.922 L2056.42 176.987 Z" fill="#000000" fill-rule="nonzero" fill-opacity="1" /><path clip-path="url(#clip370)" d="M2087.72 196.663 L2100.19 196.663 L2100.19 200.459 L2087.72 200.459 L2087.72 196.663 Z" fill="#000000" fill-rule="nonzero" fill-opacity="1" /><path clip-path="url(#clip370)" d="M2133.04 179.649 L2133.04 184.58 Q2130.68 182.381 2127.99 181.293 Q2125.33 180.205 2122.32 180.205 Q2116.4 180.205 2113.25 183.839 Q2110.1 187.45 2110.1 194.302 Q2110.1 201.131 2113.25 204.765 Q2116.4 208.376 2122.32 208.376 Q2125.33 208.376 2127.99 207.288 Q2130.68 206.2 2133.04 204.001 L2133.04 208.885 Q2130.59 210.552 2127.83 211.385 Q2125.1 212.218 2122.05 212.218 Q2114.2 212.218 2109.68 207.427 Q2105.17 202.612 2105.17 194.302 Q2105.17 185.969 2109.68 181.177 Q2114.2 176.362 2122.05 176.362 Q2125.15 176.362 2127.88 177.196 Q2130.63 178.006 2133.04 179.649 Z" fill="#000000" fill-rule="nonzero" fill-opacity="1" /><path clip-path="url(#clip370)" d="M2149.17 211.547 L2135.98 176.987 L2140.86 176.987 L2151.81 206.084 L2162.79 176.987 L2167.65 176.987 L2154.48 211.547 L2149.17 211.547 Z" fill="#000000" fill-rule="nonzero" fill-opacity="1" /></svg>
