<?xml version="1.0" encoding="utf-8"?>
<svg xmlns="http://www.w3.org/2000/svg" xmlns:xlink="http://www.w3.org/1999/xlink" width="576" height="384" viewBox="0 0 2304 1536">
<defs>
  <clipPath id="clip460">
    <rect x="0" y="0" width="2304" height="1536"/>
  </clipPath>
</defs>
<path clip-path="url(#clip460)" d="M0 1536 L2304 1536 L2304 8.52651e-14 L0 8.52651e-14  Z" fill="#ffffff" fill-rule="evenodd" fill-opacity="1"/>
<defs>
  <clipPath id="clip461">
    <rect x="460" y="0" width="1614" height="1536"/>
  </clipPath>
</defs>
<path clip-path="url(#clip460)" d="M256.244 1359.82 L2256.76 1359.82 L2256.76 123.472 L256.244 123.472  Z" fill="#ffffff" fill-rule="evenodd" fill-opacity="1"/>
<defs>
  <clipPath id="clip462">
    <rect x="256" y="123" width="2002" height="1237"/>
  </clipPath>
</defs>
<polyline clip-path="url(#clip462)" style="stroke:#000000; stroke-linecap:round; stroke-linejoin:round; stroke-width:2; stroke-opacity:0.1; fill:none" points="577.444,1359.82 577.444,123.472 "/>
<polyline clip-path="url(#clip462)" style="stroke:#000000; stroke-linecap:round; stroke-linejoin:round; stroke-width:2; stroke-opacity:0.1; fill:none" points="1080.41,1359.82 1080.41,123.472 "/>
<polyline clip-path="url(#clip462)" style="stroke:#000000; stroke-linecap:round; stroke-linejoin:round; stroke-width:2; stroke-opacity:0.1; fill:none" points="1583.38,1359.82 1583.38,123.472 "/>
<polyline clip-path="url(#clip462)" style="stroke:#000000; stroke-linecap:round; stroke-linejoin:round; stroke-width:2; stroke-opacity:0.1; fill:none" points="2086.35,1359.82 2086.35,123.472 "/>
<polyline clip-path="url(#clip460)" style="stroke:#000000; stroke-linecap:round; stroke-linejoin:round; stroke-width:4; stroke-opacity:1; fill:none" points="256.244,1359.82 2256.76,1359.82 "/>
<polyline clip-path="url(#clip460)" style="stroke:#000000; stroke-linecap:round; stroke-linejoin:round; stroke-width:4; stroke-opacity:1; fill:none" points="577.444,1359.82 577.444,1340.92 "/>
<polyline clip-path="url(#clip460)" style="stroke:#000000; stroke-linecap:round; stroke-linejoin:round; stroke-width:4; stroke-opacity:1; fill:none" points="1080.41,1359.82 1080.41,1340.92 "/>
<polyline clip-path="url(#clip460)" style="stroke:#000000; stroke-linecap:round; stroke-linejoin:round; stroke-width:4; stroke-opacity:1; fill:none" points="1583.38,1359.82 1583.38,1340.92 "/>
<polyline clip-path="url(#clip460)" style="stroke:#000000; stroke-linecap:round; stroke-linejoin:round; stroke-width:4; stroke-opacity:1; fill:none" points="2086.35,1359.82 2086.35,1340.92 "/>
<path clip-path="url(#clip460)" d="M547.201 1404.62 L576.877 1404.62 L576.877 1408.56 L547.201 1408.56 L547.201 1404.62 Z" fill="#000000" fill-rule="nonzero" fill-opacity="1" /><path clip-path="url(#clip460)" d="M587.78 1417.52 L595.419 1417.52 L595.419 1391.15 L587.108 1392.82 L587.108 1388.56 L595.372 1386.89 L600.048 1386.89 L600.048 1417.52 L607.687 1417.52 L607.687 1421.45 L587.78 1421.45 L587.78 1417.52 Z" fill="#000000" fill-rule="nonzero" fill-opacity="1" /><path clip-path="url(#clip460)" d="M1080.41 1389.97 Q1076.8 1389.97 1074.97 1393.54 Q1073.17 1397.08 1073.17 1404.21 Q1073.17 1411.31 1074.97 1414.88 Q1076.8 1418.42 1080.41 1418.42 Q1084.05 1418.42 1085.85 1414.88 Q1087.68 1411.31 1087.68 1404.21 Q1087.68 1397.08 1085.85 1393.54 Q1084.05 1389.97 1080.41 1389.97 M1080.41 1386.27 Q1086.22 1386.27 1089.28 1390.87 Q1092.36 1395.46 1092.36 1404.21 Q1092.36 1412.93 1089.28 1417.54 Q1086.22 1422.12 1080.41 1422.12 Q1074.6 1422.12 1071.52 1417.54 Q1068.47 1412.93 1068.47 1404.21 Q1068.47 1395.46 1071.52 1390.87 Q1074.6 1386.27 1080.41 1386.27 Z" fill="#000000" fill-rule="nonzero" fill-opacity="1" /><path clip-path="url(#clip460)" d="M1573.76 1417.52 L1581.4 1417.52 L1581.4 1391.15 L1573.09 1392.82 L1573.09 1388.56 L1581.36 1386.89 L1586.03 1386.89 L1586.03 1417.52 L1593.67 1417.52 L1593.67 1421.45 L1573.76 1421.45 L1573.76 1417.52 Z" fill="#000000" fill-rule="nonzero" fill-opacity="1" /><path clip-path="url(#clip460)" d="M2081 1417.52 L2097.32 1417.52 L2097.32 1421.45 L2075.38 1421.45 L2075.38 1417.52 Q2078.04 1414.76 2082.62 1410.13 Q2087.23 1405.48 2088.41 1404.14 Q2090.66 1401.61 2091.54 1399.88 Q2092.44 1398.12 2092.44 1396.43 Q2092.44 1393.67 2090.49 1391.94 Q2088.57 1390.2 2085.47 1390.2 Q2083.27 1390.2 2080.82 1390.97 Q2078.39 1391.73 2075.61 1393.28 L2075.61 1388.56 Q2078.43 1387.42 2080.89 1386.85 Q2083.34 1386.27 2085.38 1386.27 Q2090.75 1386.27 2093.94 1388.95 Q2097.14 1391.64 2097.14 1396.13 Q2097.14 1398.26 2096.33 1400.18 Q2095.54 1402.08 2093.43 1404.67 Q2092.86 1405.34 2089.75 1408.56 Q2086.65 1411.75 2081 1417.52 Z" fill="#000000" fill-rule="nonzero" fill-opacity="1" /><path clip-path="url(#clip460)" d="M1238.33 1455.72 L1245.23 1455.72 L1257.04 1473.39 L1268.91 1455.72 L1275.82 1455.72 L1260.54 1478.54 L1276.84 1503.24 L1269.93 1503.24 L1256.56 1483.03 L1243.1 1503.24 L1236.16 1503.24 L1253.13 1477.88 L1238.33 1455.72 Z" fill="#000000" fill-rule="nonzero" fill-opacity="1" /><polyline clip-path="url(#clip462)" style="stroke:#000000; stroke-linecap:round; stroke-linejoin:round; stroke-width:2; stroke-opacity:0.1; fill:none" points="256.244,1252.88 2256.76,1252.88 "/>
<polyline clip-path="url(#clip462)" style="stroke:#000000; stroke-linecap:round; stroke-linejoin:round; stroke-width:2; stroke-opacity:0.1; fill:none" points="256.244,1090.47 2256.76,1090.47 "/>
<polyline clip-path="url(#clip462)" style="stroke:#000000; stroke-linecap:round; stroke-linejoin:round; stroke-width:2; stroke-opacity:0.1; fill:none" points="256.244,928.051 2256.76,928.051 "/>
<polyline clip-path="url(#clip462)" style="stroke:#000000; stroke-linecap:round; stroke-linejoin:round; stroke-width:2; stroke-opacity:0.1; fill:none" points="256.244,765.636 2256.76,765.636 "/>
<polyline clip-path="url(#clip462)" style="stroke:#000000; stroke-linecap:round; stroke-linejoin:round; stroke-width:2; stroke-opacity:0.1; fill:none" points="256.244,603.222 2256.76,603.222 "/>
<polyline clip-path="url(#clip462)" style="stroke:#000000; stroke-linecap:round; stroke-linejoin:round; stroke-width:2; stroke-opacity:0.1; fill:none" points="256.244,440.807 2256.76,440.807 "/>
<polyline clip-path="url(#clip462)" style="stroke:#000000; stroke-linecap:round; stroke-linejoin:round; stroke-width:2; stroke-opacity:0.1; fill:none" points="256.244,278.393 2256.76,278.393 "/>
<polyline clip-path="url(#clip460)" style="stroke:#000000; stroke-linecap:round; stroke-linejoin:round; stroke-width:4; stroke-opacity:1; fill:none" points="256.244,1359.82 256.244,123.472 "/>
<polyline clip-path="url(#clip460)" style="stroke:#000000; stroke-linecap:round; stroke-linejoin:round; stroke-width:4; stroke-opacity:1; fill:none" points="256.244,1252.88 275.142,1252.88 "/>
<polyline clip-path="url(#clip460)" style="stroke:#000000; stroke-linecap:round; stroke-linejoin:round; stroke-width:4; stroke-opacity:1; fill:none" points="256.244,1090.47 275.142,1090.47 "/>
<polyline clip-path="url(#clip460)" style="stroke:#000000; stroke-linecap:round; stroke-linejoin:round; stroke-width:4; stroke-opacity:1; fill:none" points="256.244,928.051 275.142,928.051 "/>
<polyline clip-path="url(#clip460)" style="stroke:#000000; stroke-linecap:round; stroke-linejoin:round; stroke-width:4; stroke-opacity:1; fill:none" points="256.244,765.636 275.142,765.636 "/>
<polyline clip-path="url(#clip460)" style="stroke:#000000; stroke-linecap:round; stroke-linejoin:round; stroke-width:4; stroke-opacity:1; fill:none" points="256.244,603.222 275.142,603.222 "/>
<polyline clip-path="url(#clip460)" style="stroke:#000000; stroke-linecap:round; stroke-linejoin:round; stroke-width:4; stroke-opacity:1; fill:none" points="256.244,440.807 275.142,440.807 "/>
<polyline clip-path="url(#clip460)" style="stroke:#000000; stroke-linecap:round; stroke-linejoin:round; stroke-width:4; stroke-opacity:1; fill:none" points="256.244,278.393 275.142,278.393 "/>
<path clip-path="url(#clip460)" d="M115.736 1253.33 L145.411 1253.33 L145.411 1257.27 L115.736 1257.27 L115.736 1253.33 Z" fill="#000000" fill-rule="nonzero" fill-opacity="1" /><path clip-path="url(#clip460)" d="M156.314 1266.22 L163.953 1266.22 L163.953 1239.86 L155.643 1241.53 L155.643 1237.27 L163.907 1235.6 L168.582 1235.6 L168.582 1266.22 L176.221 1266.22 L176.221 1270.16 L156.314 1270.16 L156.314 1266.22 Z" fill="#000000" fill-rule="nonzero" fill-opacity="1" /><path clip-path="url(#clip460)" d="M185.666 1264.28 L190.55 1264.28 L190.55 1270.16 L185.666 1270.16 L185.666 1264.28 Z" fill="#000000" fill-rule="nonzero" fill-opacity="1" /><path clip-path="url(#clip460)" d="M200.781 1235.6 L219.138 1235.6 L219.138 1239.54 L205.064 1239.54 L205.064 1248.01 Q206.082 1247.66 207.101 1247.5 Q208.119 1247.31 209.138 1247.31 Q214.925 1247.31 218.304 1250.48 Q221.684 1253.66 221.684 1259.07 Q221.684 1264.65 218.212 1267.75 Q214.74 1270.83 208.42 1270.83 Q206.244 1270.83 203.976 1270.46 Q201.73 1270.09 199.323 1269.35 L199.323 1264.65 Q201.406 1265.78 203.629 1266.34 Q205.851 1266.9 208.328 1266.9 Q212.332 1266.9 214.67 1264.79 Q217.008 1262.68 217.008 1259.07 Q217.008 1255.46 214.67 1253.35 Q212.332 1251.25 208.328 1251.25 Q206.453 1251.25 204.578 1251.66 Q202.726 1252.08 200.781 1252.96 L200.781 1235.6 Z" fill="#000000" fill-rule="nonzero" fill-opacity="1" /><path clip-path="url(#clip460)" d="M114.74 1090.92 L144.416 1090.92 L144.416 1094.85 L114.74 1094.85 L114.74 1090.92 Z" fill="#000000" fill-rule="nonzero" fill-opacity="1" /><path clip-path="url(#clip460)" d="M155.319 1103.81 L162.957 1103.81 L162.957 1077.44 L154.647 1079.11 L154.647 1074.85 L162.911 1073.19 L167.587 1073.19 L167.587 1103.81 L175.226 1103.81 L175.226 1107.75 L155.319 1107.75 L155.319 1103.81 Z" fill="#000000" fill-rule="nonzero" fill-opacity="1" /><path clip-path="url(#clip460)" d="M184.67 1101.87 L189.555 1101.87 L189.555 1107.75 L184.67 1107.75 L184.67 1101.87 Z" fill="#000000" fill-rule="nonzero" fill-opacity="1" /><path clip-path="url(#clip460)" d="M209.74 1076.26 Q206.129 1076.26 204.3 1079.83 Q202.494 1083.37 202.494 1090.5 Q202.494 1097.61 204.3 1101.17 Q206.129 1104.71 209.74 1104.71 Q213.374 1104.71 215.179 1101.17 Q217.008 1097.61 217.008 1090.5 Q217.008 1083.37 215.179 1079.83 Q213.374 1076.26 209.74 1076.26 M209.74 1072.56 Q215.55 1072.56 218.605 1077.17 Q221.684 1081.75 221.684 1090.5 Q221.684 1099.23 218.605 1103.83 Q215.55 1108.42 209.74 1108.42 Q203.929 1108.42 200.851 1103.83 Q197.795 1099.23 197.795 1090.5 Q197.795 1081.75 200.851 1077.17 Q203.929 1072.56 209.74 1072.56 Z" fill="#000000" fill-rule="nonzero" fill-opacity="1" /><path clip-path="url(#clip460)" d="M115.736 928.502 L145.411 928.502 L145.411 932.437 L115.736 932.437 L115.736 928.502 Z" fill="#000000" fill-rule="nonzero" fill-opacity="1" /><path clip-path="url(#clip460)" d="M165.504 913.85 Q161.893 913.85 160.064 917.414 Q158.258 920.956 158.258 928.086 Q158.258 935.192 160.064 938.757 Q161.893 942.298 165.504 942.298 Q169.138 942.298 170.944 938.757 Q172.772 935.192 172.772 928.086 Q172.772 920.956 170.944 917.414 Q169.138 913.85 165.504 913.85 M165.504 910.146 Q171.314 910.146 174.369 914.752 Q177.448 919.336 177.448 928.086 Q177.448 936.812 174.369 941.419 Q171.314 946.002 165.504 946.002 Q159.694 946.002 156.615 941.419 Q153.559 936.812 153.559 928.086 Q153.559 919.336 156.615 914.752 Q159.694 910.146 165.504 910.146 Z" fill="#000000" fill-rule="nonzero" fill-opacity="1" /><path clip-path="url(#clip460)" d="M185.666 939.451 L190.55 939.451 L190.55 945.331 L185.666 945.331 L185.666 939.451 Z" fill="#000000" fill-rule="nonzero" fill-opacity="1" /><path clip-path="url(#clip460)" d="M200.781 910.771 L219.138 910.771 L219.138 914.706 L205.064 914.706 L205.064 923.178 Q206.082 922.831 207.101 922.669 Q208.119 922.484 209.138 922.484 Q214.925 922.484 218.304 925.655 Q221.684 928.826 221.684 934.243 Q221.684 939.822 218.212 942.923 Q214.74 946.002 208.42 946.002 Q206.244 946.002 203.976 945.632 Q201.73 945.261 199.323 944.521 L199.323 939.822 Q201.406 940.956 203.629 941.511 Q205.851 942.067 208.328 942.067 Q212.332 942.067 214.67 939.961 Q217.008 937.854 217.008 934.243 Q217.008 930.632 214.67 928.525 Q212.332 926.419 208.328 926.419 Q206.453 926.419 204.578 926.836 Q202.726 927.252 200.781 928.132 L200.781 910.771 Z" fill="#000000" fill-rule="nonzero" fill-opacity="1" /><path clip-path="url(#clip460)" d="M164.508 751.435 Q160.897 751.435 159.069 755 Q157.263 758.541 157.263 765.671 Q157.263 772.778 159.069 776.342 Q160.897 779.884 164.508 779.884 Q168.143 779.884 169.948 776.342 Q171.777 772.778 171.777 765.671 Q171.777 758.541 169.948 755 Q168.143 751.435 164.508 751.435 M164.508 747.731 Q170.319 747.731 173.374 752.338 Q176.453 756.921 176.453 765.671 Q176.453 774.398 173.374 779.004 Q170.319 783.588 164.508 783.588 Q158.698 783.588 155.62 779.004 Q152.564 774.398 152.564 765.671 Q152.564 756.921 155.62 752.338 Q158.698 747.731 164.508 747.731 Z" fill="#000000" fill-rule="nonzero" fill-opacity="1" /><path clip-path="url(#clip460)" d="M184.67 777.037 L189.555 777.037 L189.555 782.916 L184.67 782.916 L184.67 777.037 Z" fill="#000000" fill-rule="nonzero" fill-opacity="1" /><path clip-path="url(#clip460)" d="M209.74 751.435 Q206.129 751.435 204.3 755 Q202.494 758.541 202.494 765.671 Q202.494 772.778 204.3 776.342 Q206.129 779.884 209.74 779.884 Q213.374 779.884 215.179 776.342 Q217.008 772.778 217.008 765.671 Q217.008 758.541 215.179 755 Q213.374 751.435 209.74 751.435 M209.74 747.731 Q215.55 747.731 218.605 752.338 Q221.684 756.921 221.684 765.671 Q221.684 774.398 218.605 779.004 Q215.55 783.588 209.74 783.588 Q203.929 783.588 200.851 779.004 Q197.795 774.398 197.795 765.671 Q197.795 756.921 200.851 752.338 Q203.929 747.731 209.74 747.731 Z" fill="#000000" fill-rule="nonzero" fill-opacity="1" /><path clip-path="url(#clip460)" d="M165.504 589.021 Q161.893 589.021 160.064 592.585 Q158.258 596.127 158.258 603.257 Q158.258 610.363 160.064 613.928 Q161.893 617.469 165.504 617.469 Q169.138 617.469 170.944 613.928 Q172.772 610.363 172.772 603.257 Q172.772 596.127 170.944 592.585 Q169.138 589.021 165.504 589.021 M165.504 585.317 Q171.314 585.317 174.369 589.923 Q177.448 594.507 177.448 603.257 Q177.448 611.983 174.369 616.59 Q171.314 621.173 165.504 621.173 Q159.694 621.173 156.615 616.59 Q153.559 611.983 153.559 603.257 Q153.559 594.507 156.615 589.923 Q159.694 585.317 165.504 585.317 Z" fill="#000000" fill-rule="nonzero" fill-opacity="1" /><path clip-path="url(#clip460)" d="M185.666 614.622 L190.55 614.622 L190.55 620.502 L185.666 620.502 L185.666 614.622 Z" fill="#000000" fill-rule="nonzero" fill-opacity="1" /><path clip-path="url(#clip460)" d="M200.781 585.942 L219.138 585.942 L219.138 589.877 L205.064 589.877 L205.064 598.349 Q206.082 598.002 207.101 597.84 Q208.119 597.655 209.138 597.655 Q214.925 597.655 218.304 600.826 Q221.684 603.997 221.684 609.414 Q221.684 614.993 218.212 618.094 Q214.74 621.173 208.42 621.173 Q206.244 621.173 203.976 620.803 Q201.73 620.432 199.323 619.692 L199.323 614.993 Q201.406 616.127 203.629 616.682 Q205.851 617.238 208.328 617.238 Q212.332 617.238 214.67 615.132 Q217.008 613.025 217.008 609.414 Q217.008 605.803 214.67 603.696 Q212.332 601.59 208.328 601.59 Q206.453 601.59 204.578 602.007 Q202.726 602.423 200.781 603.303 L200.781 585.942 Z" fill="#000000" fill-rule="nonzero" fill-opacity="1" /><path clip-path="url(#clip460)" d="M155.319 454.152 L162.957 454.152 L162.957 427.787 L154.647 429.453 L154.647 425.194 L162.911 423.527 L167.587 423.527 L167.587 454.152 L175.226 454.152 L175.226 458.087 L155.319 458.087 L155.319 454.152 Z" fill="#000000" fill-rule="nonzero" fill-opacity="1" /><path clip-path="url(#clip460)" d="M184.67 452.208 L189.555 452.208 L189.555 458.087 L184.67 458.087 L184.67 452.208 Z" fill="#000000" fill-rule="nonzero" fill-opacity="1" /><path clip-path="url(#clip460)" d="M209.74 426.606 Q206.129 426.606 204.3 430.171 Q202.494 433.712 202.494 440.842 Q202.494 447.949 204.3 451.513 Q206.129 455.055 209.74 455.055 Q213.374 455.055 215.179 451.513 Q217.008 447.949 217.008 440.842 Q217.008 433.712 215.179 430.171 Q213.374 426.606 209.74 426.606 M209.74 422.902 Q215.55 422.902 218.605 427.509 Q221.684 432.092 221.684 440.842 Q221.684 449.569 218.605 454.175 Q215.55 458.759 209.74 458.759 Q203.929 458.759 200.851 454.175 Q197.795 449.569 197.795 440.842 Q197.795 432.092 200.851 427.509 Q203.929 422.902 209.74 422.902 Z" fill="#000000" fill-rule="nonzero" fill-opacity="1" /><path clip-path="url(#clip460)" d="M156.314 291.738 L163.953 291.738 L163.953 265.372 L155.643 267.039 L155.643 262.779 L163.907 261.113 L168.582 261.113 L168.582 291.738 L176.221 291.738 L176.221 295.673 L156.314 295.673 L156.314 291.738 Z" fill="#000000" fill-rule="nonzero" fill-opacity="1" /><path clip-path="url(#clip460)" d="M185.666 289.793 L190.55 289.793 L190.55 295.673 L185.666 295.673 L185.666 289.793 Z" fill="#000000" fill-rule="nonzero" fill-opacity="1" /><path clip-path="url(#clip460)" d="M200.781 261.113 L219.138 261.113 L219.138 265.048 L205.064 265.048 L205.064 273.52 Q206.082 273.173 207.101 273.011 Q208.119 272.826 209.138 272.826 Q214.925 272.826 218.304 275.997 Q221.684 279.168 221.684 284.585 Q221.684 290.164 218.212 293.265 Q214.74 296.344 208.42 296.344 Q206.244 296.344 203.976 295.974 Q201.73 295.603 199.323 294.863 L199.323 290.164 Q201.406 291.298 203.629 291.853 Q205.851 292.409 208.328 292.409 Q212.332 292.409 214.67 290.302 Q217.008 288.196 217.008 284.585 Q217.008 280.974 214.67 278.867 Q212.332 276.761 208.328 276.761 Q206.453 276.761 204.578 277.178 Q202.726 277.594 200.781 278.474 L200.781 261.113 Z" fill="#000000" fill-rule="nonzero" fill-opacity="1" /><path clip-path="url(#clip460)" d="M18.4042 761.682 L18.4042 754.775 L37.9469 741.598 L18.4042 728.517 L18.4042 721.61 L43.2941 738.415 L65.9242 738.415 L65.9242 744.877 L43.2941 744.877 L18.4042 761.682 Z" fill="#000000" fill-rule="nonzero" fill-opacity="1" /><path clip-path="url(#clip460)" d="M378.163 65.6895 L406.722 65.6895 L406.722 72.576 L368.319 72.576 L368.319 65.6895 Q372.978 60.8689 380.998 52.7671 Q389.06 44.6248 391.126 42.2752 Q395.055 37.8598 396.594 34.8216 Q398.174 31.7429 398.174 28.7857 Q398.174 23.9651 394.771 20.927 Q391.409 17.8888 385.981 17.8888 Q382.133 17.8888 377.839 19.2256 Q373.585 20.5624 368.724 23.2765 L368.724 15.0127 Q373.666 13.0277 377.96 12.015 Q382.254 11.0023 385.819 11.0023 Q395.217 11.0023 400.807 15.7013 Q406.397 20.4004 406.397 28.2591 Q406.397 31.9859 404.98 35.3482 Q403.602 38.6699 399.916 43.2069 Q398.903 44.3817 393.475 50.0125 Q388.047 55.6027 378.163 65.6895 Z" fill="#000000" fill-rule="nonzero" fill-opacity="1" /><path clip-path="url(#clip460)" d="M431.351 18.8205 L431.351 65.8515 L441.235 65.8515 Q453.753 65.8515 459.545 60.1802 Q465.379 54.509 465.379 42.2752 Q465.379 30.1225 459.545 24.4918 Q453.753 18.8205 441.235 18.8205 L431.351 18.8205 M423.168 12.096 L439.979 12.096 Q457.56 12.096 465.784 19.4281 Q474.007 26.7198 474.007 42.2752 Q474.007 57.9117 465.743 65.2439 Q457.479 72.576 439.979 72.576 L423.168 72.576 L423.168 12.096 Z" fill="#000000" fill-rule="nonzero" fill-opacity="1" /><path clip-path="url(#clip460)" d="M509.939 12.096 L557.456 12.096 L557.456 18.3344 L519.215 65.6895 L558.387 65.6895 L558.387 72.576 L509.007 72.576 L509.007 66.3376 L547.247 18.9825 L509.939 18.9825 L509.939 12.096 Z" fill="#000000" fill-rule="nonzero" fill-opacity="1" /><path clip-path="url(#clip460)" d="M569.932 27.2059 L577.386 27.2059 L577.386 72.576 L569.932 72.576 L569.932 27.2059 M569.932 9.54393 L577.386 9.54393 L577.386 18.9825 L569.932 18.9825 L569.932 9.54393 Z" fill="#000000" fill-rule="nonzero" fill-opacity="1" /><path clip-path="url(#clip460)" d="M622.837 49.3643 Q622.837 41.2625 619.475 36.8065 Q616.153 32.3505 610.117 32.3505 Q604.122 32.3505 600.76 36.8065 Q597.438 41.2625 597.438 49.3643 Q597.438 57.4256 600.76 61.8816 Q604.122 66.3376 610.117 66.3376 Q616.153 66.3376 619.475 61.8816 Q622.837 57.4256 622.837 49.3643 M630.291 66.9452 Q630.291 78.5308 625.146 84.1616 Q620.002 89.8329 609.388 89.8329 Q605.459 89.8329 601.975 89.2252 Q598.491 88.6581 595.21 87.4428 L595.21 80.1917 Q598.491 81.9741 601.692 82.8248 Q604.892 83.6755 608.214 83.6755 Q615.546 83.6755 619.191 79.8271 Q622.837 76.0193 622.837 68.282 L622.837 64.5957 Q620.528 68.6061 616.923 70.5911 Q613.318 72.576 608.295 72.576 Q599.95 72.576 594.846 66.2161 Q589.741 59.8562 589.741 49.3643 Q589.741 38.832 594.846 32.472 Q599.95 26.1121 608.295 26.1121 Q613.318 26.1121 616.923 28.0971 Q620.528 30.082 622.837 34.0924 L622.837 27.2059 L630.291 27.2059 L630.291 66.9452 Z" fill="#000000" fill-rule="nonzero" fill-opacity="1" /><path clip-path="url(#clip460)" d="M642.484 12.096 L690.001 12.096 L690.001 18.3344 L651.761 65.6895 L690.933 65.6895 L690.933 72.576 L641.552 72.576 L641.552 66.3376 L679.793 18.9825 L642.484 18.9825 L642.484 12.096 Z" fill="#000000" fill-rule="nonzero" fill-opacity="1" /><path clip-path="url(#clip460)" d="M723.097 49.7694 Q714.064 49.7694 710.58 51.8354 Q707.096 53.9013 707.096 58.8839 Q707.096 62.8538 709.689 65.2034 Q712.322 67.5124 716.818 67.5124 Q723.016 67.5124 726.743 63.1374 Q730.51 58.7219 730.51 51.4303 L730.51 49.7694 L723.097 49.7694 M737.964 46.6907 L737.964 72.576 L730.51 72.576 L730.51 65.6895 Q727.958 69.8214 724.15 71.8063 Q720.343 73.7508 714.833 73.7508 Q707.866 73.7508 703.734 69.8619 Q699.642 65.9325 699.642 59.3701 Q699.642 51.7138 704.747 47.825 Q709.891 43.9361 720.059 43.9361 L730.51 43.9361 L730.51 43.2069 Q730.51 38.0623 727.108 35.2672 Q723.745 32.4315 717.628 32.4315 Q713.74 32.4315 710.053 33.3632 Q706.367 34.295 702.964 36.1584 L702.964 29.2718 Q707.056 27.692 710.904 26.9223 Q714.752 26.1121 718.398 26.1121 Q728.242 26.1121 733.103 31.2163 Q737.964 36.3204 737.964 46.6907 Z" fill="#000000" fill-rule="nonzero" fill-opacity="1" /><path clip-path="url(#clip460)" d="M783.172 49.3643 Q783.172 41.2625 779.81 36.8065 Q776.488 32.3505 770.452 32.3505 Q764.457 32.3505 761.095 36.8065 Q757.773 41.2625 757.773 49.3643 Q757.773 57.4256 761.095 61.8816 Q764.457 66.3376 770.452 66.3376 Q776.488 66.3376 779.81 61.8816 Q783.172 57.4256 783.172 49.3643 M790.626 66.9452 Q790.626 78.5308 785.481 84.1616 Q780.336 89.8329 769.723 89.8329 Q765.794 89.8329 762.31 89.2252 Q758.826 88.6581 755.545 87.4428 L755.545 80.1917 Q758.826 81.9741 762.026 82.8248 Q765.227 83.6755 768.548 83.6755 Q775.88 83.6755 779.526 79.8271 Q783.172 76.0193 783.172 68.282 L783.172 64.5957 Q780.863 68.6061 777.258 70.5911 Q773.652 72.576 768.629 72.576 Q760.284 72.576 755.18 66.2161 Q750.076 59.8562 750.076 49.3643 Q750.076 38.832 755.18 32.472 Q760.284 26.1121 768.629 26.1121 Q773.652 26.1121 777.258 28.0971 Q780.863 30.082 783.172 34.0924 L783.172 27.2059 L790.626 27.2059 L790.626 66.9452 Z" fill="#000000" fill-rule="nonzero" fill-opacity="1" /><path clip-path="url(#clip460)" d="M868.93 14.0809 L868.93 22.0612 Q864.271 19.8332 860.139 18.7395 Q856.007 17.6457 852.159 17.6457 Q845.475 17.6457 841.829 20.2383 Q838.224 22.8309 838.224 27.611 Q838.224 31.6214 840.614 33.6873 Q843.044 35.7128 849.769 36.9686 L854.711 37.9813 Q863.866 39.7232 868.201 44.1387 Q872.576 48.5136 872.576 55.8863 Q872.576 64.6767 866.661 69.2137 Q860.787 73.7508 849.404 73.7508 Q845.11 73.7508 840.249 72.7785 Q835.429 71.8063 830.244 69.9024 L830.244 61.4765 Q835.226 64.2716 840.006 65.6895 Q844.786 67.1073 849.404 67.1073 Q856.412 67.1073 860.22 64.3527 Q864.028 61.598 864.028 56.4939 Q864.028 52.0379 861.273 49.5264 Q858.559 47.0148 852.321 45.759 L847.338 44.7868 Q838.183 42.9639 834.092 39.075 Q830.001 35.1862 830.001 28.2591 Q830.001 20.2383 835.631 15.6203 Q841.303 11.0023 851.227 11.0023 Q855.481 11.0023 859.896 11.7719 Q864.312 12.5416 868.93 14.0809 Z" fill="#000000" fill-rule="nonzero" fill-opacity="1" /><path clip-path="url(#clip460)" d="M905.631 49.7694 Q896.597 49.7694 893.114 51.8354 Q889.63 53.9013 889.63 58.8839 Q889.63 62.8538 892.222 65.2034 Q894.855 67.5124 899.352 67.5124 Q905.55 67.5124 909.277 63.1374 Q913.044 58.7219 913.044 51.4303 L913.044 49.7694 L905.631 49.7694 M920.498 46.6907 L920.498 72.576 L913.044 72.576 L913.044 65.6895 Q910.492 69.8214 906.684 71.8063 Q902.876 73.7508 897.367 73.7508 Q890.399 73.7508 886.268 69.8619 Q882.176 65.9325 882.176 59.3701 Q882.176 51.7138 887.28 47.825 Q892.425 43.9361 902.593 43.9361 L913.044 43.9361 L913.044 43.2069 Q913.044 38.0623 909.641 35.2672 Q906.279 32.4315 900.162 32.4315 Q896.273 32.4315 892.587 33.3632 Q888.901 34.295 885.498 36.1584 L885.498 29.2718 Q889.589 27.692 893.438 26.9223 Q897.286 26.1121 900.932 26.1121 Q910.776 26.1121 915.637 31.2163 Q920.498 36.3204 920.498 46.6907 Z" fill="#000000" fill-rule="nonzero" fill-opacity="1" /><path clip-path="url(#clip460)" d="M971.175 35.9153 Q973.97 30.8922 977.859 28.5022 Q981.747 26.1121 987.014 26.1121 Q994.103 26.1121 997.951 31.0947 Q1001.8 36.0368 1001.8 45.1919 L1001.8 72.576 L994.305 72.576 L994.305 45.4349 Q994.305 38.913 991.996 35.7533 Q989.687 32.5936 984.948 32.5936 Q979.155 32.5936 975.793 36.4419 Q972.43 40.2903 972.43 46.9338 L972.43 72.576 L964.936 72.576 L964.936 45.4349 Q964.936 38.8725 962.627 35.7533 Q960.318 32.5936 955.498 32.5936 Q949.786 32.5936 946.424 36.4824 Q943.061 40.3308 943.061 46.9338 L943.061 72.576 L935.567 72.576 L935.567 27.2059 L943.061 27.2059 L943.061 34.2544 Q945.613 30.082 949.178 28.0971 Q952.743 26.1121 957.645 26.1121 Q962.587 26.1121 966.03 28.6237 Q969.514 31.1352 971.175 35.9153 Z" fill="#000000" fill-rule="nonzero" fill-opacity="1" /><path clip-path="url(#clip460)" d="M1023.88 65.7705 L1023.88 89.8329 L1016.38 89.8329 L1016.38 27.2059 L1023.88 27.2059 L1023.88 34.0924 Q1026.23 30.0415 1029.79 28.0971 Q1033.4 26.1121 1038.38 26.1121 Q1046.64 26.1121 1051.79 32.6746 Q1056.97 39.2371 1056.97 49.9314 Q1056.97 60.6258 1051.79 67.1883 Q1046.64 73.7508 1038.38 73.7508 Q1033.4 73.7508 1029.79 71.8063 Q1026.23 69.8214 1023.88 65.7705 M1049.24 49.9314 Q1049.24 41.7081 1045.83 37.0496 Q1042.47 32.3505 1036.56 32.3505 Q1030.64 32.3505 1027.24 37.0496 Q1023.88 41.7081 1023.88 49.9314 Q1023.88 58.1548 1027.24 62.8538 Q1030.64 67.5124 1036.56 67.5124 Q1042.47 67.5124 1045.83 62.8538 Q1049.24 58.1548 1049.24 49.9314 Z" fill="#000000" fill-rule="nonzero" fill-opacity="1" /><path clip-path="url(#clip460)" d="M1069.33 9.54393 L1076.78 9.54393 L1076.78 72.576 L1069.33 72.576 L1069.33 9.54393 Z" fill="#000000" fill-rule="nonzero" fill-opacity="1" /><path clip-path="url(#clip460)" d="M1131.19 48.0275 L1131.19 51.6733 L1096.91 51.6733 Q1097.4 59.3701 1101.53 63.421 Q1105.71 67.4314 1113.12 67.4314 Q1117.41 67.4314 1121.42 66.3781 Q1125.47 65.3249 1129.44 63.2184 L1129.44 70.267 Q1125.43 71.9684 1121.22 72.8596 Q1117.01 73.7508 1112.67 73.7508 Q1101.82 73.7508 1095.46 67.4314 Q1089.14 61.1119 1089.14 50.3365 Q1089.14 39.1965 1095.13 32.6746 Q1101.17 26.1121 1111.38 26.1121 Q1120.53 26.1121 1125.84 32.0264 Q1131.19 37.9003 1131.19 48.0275 M1123.73 45.84 Q1123.65 39.7232 1120.29 36.0774 Q1116.97 32.4315 1111.46 32.4315 Q1105.22 32.4315 1101.45 35.9558 Q1097.72 39.4801 1097.16 45.8805 L1123.73 45.84 Z" fill="#000000" fill-rule="nonzero" fill-opacity="1" /><path clip-path="url(#clip460)" d="M1169.71 34.1734 Q1168.45 33.4443 1166.95 33.1202 Q1165.5 32.7556 1163.71 32.7556 Q1157.39 32.7556 1153.99 36.8875 Q1150.63 40.9789 1150.63 48.6757 L1150.63 72.576 L1143.14 72.576 L1143.14 27.2059 L1150.63 27.2059 L1150.63 34.2544 Q1152.98 30.1225 1156.75 28.1376 Q1160.51 26.1121 1165.9 26.1121 Q1166.67 26.1121 1167.6 26.2337 Q1168.53 26.3147 1169.67 26.5172 L1169.71 34.1734 Z" fill="#000000" fill-rule="nonzero" fill-opacity="1" /><path clip-path="url(#clip460)" d="M1221.8 9.62495 Q1216.38 18.942 1213.74 28.0566 Q1211.11 37.1711 1211.11 46.5287 Q1211.11 55.8863 1213.74 65.0818 Q1216.42 74.2369 1221.8 83.5134 L1215.32 83.5134 Q1209.25 73.9938 1206.21 64.7983 Q1203.21 55.6027 1203.21 46.5287 Q1203.21 37.4952 1206.21 28.3401 Q1209.21 19.1851 1215.32 9.62495 L1221.8 9.62495 Z" fill="#000000" fill-rule="nonzero" fill-opacity="1" /><path clip-path="url(#clip460)" d="M1277.83 63.9476 L1277.83 47.7034 L1264.46 47.7034 L1264.46 40.9789 L1285.93 40.9789 L1285.93 66.9452 Q1281.19 70.3075 1275.48 72.0494 Q1269.77 73.7508 1263.29 73.7508 Q1249.11 73.7508 1241.09 65.4869 Q1233.11 57.1826 1233.11 42.3968 Q1233.11 27.5705 1241.09 19.3066 Q1249.11 11.0023 1263.29 11.0023 Q1269.2 11.0023 1274.51 12.4606 Q1279.85 13.9189 1284.35 16.7545 L1284.35 25.464 Q1279.81 21.6156 1274.71 19.6712 Q1269.6 17.7268 1263.97 17.7268 Q1252.87 17.7268 1247.28 23.9246 Q1241.73 30.1225 1241.73 42.3968 Q1241.73 54.6305 1247.28 60.8284 Q1252.87 67.0263 1263.97 67.0263 Q1268.31 67.0263 1271.71 66.2971 Q1275.11 65.5274 1277.83 63.9476 Z" fill="#000000" fill-rule="nonzero" fill-opacity="1" /><path clip-path="url(#clip460)" d="M1321.17 49.7694 Q1312.14 49.7694 1308.66 51.8354 Q1305.17 53.9013 1305.17 58.8839 Q1305.17 62.8538 1307.76 65.2034 Q1310.4 67.5124 1314.89 67.5124 Q1321.09 67.5124 1324.82 63.1374 Q1328.59 58.7219 1328.59 51.4303 L1328.59 49.7694 L1321.17 49.7694 M1336.04 46.6907 L1336.04 72.576 L1328.59 72.576 L1328.59 65.6895 Q1326.03 69.8214 1322.23 71.8063 Q1318.42 73.7508 1312.91 73.7508 Q1305.94 73.7508 1301.81 69.8619 Q1297.72 65.9325 1297.72 59.3701 Q1297.72 51.7138 1302.82 47.825 Q1307.97 43.9361 1318.13 43.9361 L1328.59 43.9361 L1328.59 43.2069 Q1328.59 38.0623 1325.18 35.2672 Q1321.82 32.4315 1315.7 32.4315 Q1311.82 32.4315 1308.13 33.3632 Q1304.44 34.295 1301.04 36.1584 L1301.04 29.2718 Q1305.13 27.692 1308.98 26.9223 Q1312.83 26.1121 1316.47 26.1121 Q1326.32 26.1121 1331.18 31.2163 Q1336.04 36.3204 1336.04 46.6907 Z" fill="#000000" fill-rule="nonzero" fill-opacity="1" /><path clip-path="url(#clip460)" d="M1350.62 54.671 L1350.62 27.2059 L1358.08 27.2059 L1358.08 54.3874 Q1358.08 60.8284 1360.59 64.0691 Q1363.1 67.2693 1368.12 67.2693 Q1374.16 67.2693 1377.64 63.421 Q1381.17 59.5726 1381.17 52.9291 L1381.17 27.2059 L1388.62 27.2059 L1388.62 72.576 L1381.17 72.576 L1381.17 65.6084 Q1378.45 69.7404 1374.85 71.7658 Q1371.28 73.7508 1366.54 73.7508 Q1358.72 73.7508 1354.67 68.8897 Q1350.62 64.0286 1350.62 54.671 M1369.38 26.1121 L1369.38 26.1121 Z" fill="#000000" fill-rule="nonzero" fill-opacity="1" /><path clip-path="url(#clip460)" d="M1432.9 28.5427 L1432.9 35.5912 Q1429.74 33.9709 1426.33 33.1607 Q1422.93 32.3505 1419.29 32.3505 Q1413.74 32.3505 1410.94 34.0519 Q1408.19 35.7533 1408.19 39.156 Q1408.19 41.7486 1410.17 43.2475 Q1412.16 44.7058 1418.15 46.0426 L1420.7 46.6097 Q1428.64 48.3111 1431.96 51.4303 Q1435.33 54.509 1435.33 60.0587 Q1435.33 66.3781 1430.3 70.0644 Q1425.32 73.7508 1416.57 73.7508 Q1412.93 73.7508 1408.96 73.0216 Q1405.03 72.3329 1400.65 70.9151 L1400.65 63.2184 Q1404.78 65.3654 1408.79 66.4591 Q1412.8 67.5124 1416.73 67.5124 Q1422 67.5124 1424.84 65.73 Q1427.67 63.9071 1427.67 60.6258 Q1427.67 57.5877 1425.6 55.9673 Q1423.58 54.3469 1416.65 52.8481 L1414.06 52.2405 Q1407.13 50.7821 1404.05 47.7845 Q1400.98 44.7463 1400.98 39.4801 Q1400.98 33.0797 1405.51 29.5959 Q1410.05 26.1121 1418.39 26.1121 Q1422.53 26.1121 1426.17 26.7198 Q1429.82 27.3274 1432.9 28.5427 Z" fill="#000000" fill-rule="nonzero" fill-opacity="1" /><path clip-path="url(#clip460)" d="M1476.12 28.5427 L1476.12 35.5912 Q1472.96 33.9709 1469.56 33.1607 Q1466.15 32.3505 1462.51 32.3505 Q1456.96 32.3505 1454.16 34.0519 Q1451.41 35.7533 1451.41 39.156 Q1451.41 41.7486 1453.39 43.2475 Q1455.38 44.7058 1461.37 46.0426 L1463.93 46.6097 Q1471.87 48.3111 1475.19 51.4303 Q1478.55 54.509 1478.55 60.0587 Q1478.55 66.3781 1473.53 70.0644 Q1468.54 73.7508 1459.79 73.7508 Q1456.15 73.7508 1452.18 73.0216 Q1448.25 72.3329 1443.87 70.9151 L1443.87 63.2184 Q1448.01 65.3654 1452.02 66.4591 Q1456.03 67.5124 1459.96 67.5124 Q1465.22 67.5124 1468.06 65.73 Q1470.89 63.9071 1470.89 60.6258 Q1470.89 57.5877 1468.83 55.9673 Q1466.8 54.3469 1459.88 52.8481 L1457.28 52.2405 Q1450.36 50.7821 1447.28 47.7845 Q1444.2 44.7463 1444.2 39.4801 Q1444.2 33.0797 1448.74 29.5959 Q1453.27 26.1121 1461.62 26.1121 Q1465.75 26.1121 1469.4 26.7198 Q1473.04 27.3274 1476.12 28.5427 Z" fill="#000000" fill-rule="nonzero" fill-opacity="1" /><path clip-path="url(#clip460)" d="M1490.42 27.2059 L1497.87 27.2059 L1497.87 72.576 L1490.42 72.576 L1490.42 27.2059 M1490.42 9.54393 L1497.87 9.54393 L1497.87 18.9825 L1490.42 18.9825 L1490.42 9.54393 Z" fill="#000000" fill-rule="nonzero" fill-opacity="1" /><path clip-path="url(#clip460)" d="M1534.09 49.7694 Q1525.05 49.7694 1521.57 51.8354 Q1518.09 53.9013 1518.09 58.8839 Q1518.09 62.8538 1520.68 65.2034 Q1523.31 67.5124 1527.81 67.5124 Q1534.01 67.5124 1537.73 63.1374 Q1541.5 58.7219 1541.5 51.4303 L1541.5 49.7694 L1534.09 49.7694 M1548.95 46.6907 L1548.95 72.576 L1541.5 72.576 L1541.5 65.6895 Q1538.95 69.8214 1535.14 71.8063 Q1531.33 73.7508 1525.82 73.7508 Q1518.86 73.7508 1514.72 69.8619 Q1510.63 65.9325 1510.63 59.3701 Q1510.63 51.7138 1515.74 47.825 Q1520.88 43.9361 1531.05 43.9361 L1541.5 43.9361 L1541.5 43.2069 Q1541.5 38.0623 1538.1 35.2672 Q1534.74 32.4315 1528.62 32.4315 Q1524.73 32.4315 1521.04 33.3632 Q1517.36 34.295 1513.96 36.1584 L1513.96 29.2718 Q1518.05 27.692 1521.89 26.9223 Q1525.74 26.1121 1529.39 26.1121 Q1539.23 26.1121 1544.09 31.2163 Q1548.95 36.3204 1548.95 46.6907 Z" fill="#000000" fill-rule="nonzero" fill-opacity="1" /><path clip-path="url(#clip460)" d="M1602.02 45.1919 L1602.02 72.576 L1594.57 72.576 L1594.57 45.4349 Q1594.57 38.994 1592.06 35.7938 Q1589.55 32.5936 1584.52 32.5936 Q1578.49 32.5936 1575 36.4419 Q1571.52 40.2903 1571.52 46.9338 L1571.52 72.576 L1564.02 72.576 L1564.02 27.2059 L1571.52 27.2059 L1571.52 34.2544 Q1574.19 30.163 1577.8 28.1376 Q1581.44 26.1121 1586.18 26.1121 Q1594 26.1121 1598.01 30.9732 Q1602.02 35.7938 1602.02 45.1919 Z" fill="#000000" fill-rule="nonzero" fill-opacity="1" /><path clip-path="url(#clip460)" d="M1651.77 18.8205 L1651.77 65.8515 L1661.65 65.8515 Q1674.17 65.8515 1679.96 60.1802 Q1685.79 54.509 1685.79 42.2752 Q1685.79 30.1225 1679.96 24.4918 Q1674.17 18.8205 1661.65 18.8205 L1651.77 18.8205 M1643.58 12.096 L1660.4 12.096 Q1677.98 12.096 1686.2 19.4281 Q1694.42 26.7198 1694.42 42.2752 Q1694.42 57.9117 1686.16 65.2439 Q1677.9 72.576 1660.4 72.576 L1643.58 72.576 L1643.58 12.096 Z" fill="#000000" fill-rule="nonzero" fill-opacity="1" /><path clip-path="url(#clip460)" d="M1707.14 27.2059 L1714.6 27.2059 L1714.6 72.576 L1707.14 72.576 L1707.14 27.2059 M1707.14 9.54393 L1714.6 9.54393 L1714.6 18.9825 L1707.14 18.9825 L1707.14 9.54393 Z" fill="#000000" fill-rule="nonzero" fill-opacity="1" /><path clip-path="url(#clip460)" d="M1759.12 28.5427 L1759.12 35.5912 Q1755.96 33.9709 1752.55 33.1607 Q1749.15 32.3505 1745.5 32.3505 Q1739.96 32.3505 1737.16 34.0519 Q1734.41 35.7533 1734.41 39.156 Q1734.41 41.7486 1736.39 43.2475 Q1738.38 44.7058 1744.37 46.0426 L1746.92 46.6097 Q1754.86 48.3111 1758.18 51.4303 Q1761.55 54.509 1761.55 60.0587 Q1761.55 66.3781 1756.52 70.0644 Q1751.54 73.7508 1742.79 73.7508 Q1739.14 73.7508 1735.18 73.0216 Q1731.25 72.3329 1726.87 70.9151 L1726.87 63.2184 Q1731 65.3654 1735.01 66.4591 Q1739.02 67.5124 1742.95 67.5124 Q1748.22 67.5124 1751.05 65.73 Q1753.89 63.9071 1753.89 60.6258 Q1753.89 57.5877 1751.82 55.9673 Q1749.8 54.3469 1742.87 52.8481 L1740.28 52.2405 Q1733.35 50.7821 1730.27 47.7845 Q1727.19 44.7463 1727.19 39.4801 Q1727.19 33.0797 1731.73 29.5959 Q1736.27 26.1121 1744.61 26.1121 Q1748.75 26.1121 1752.39 26.7198 Q1756.04 27.3274 1759.12 28.5427 Z" fill="#000000" fill-rule="nonzero" fill-opacity="1" /><path clip-path="url(#clip460)" d="M1780.79 14.324 L1780.79 27.2059 L1796.14 27.2059 L1796.14 32.9987 L1780.79 32.9987 L1780.79 57.6282 Q1780.79 63.1779 1782.29 64.7578 Q1783.83 66.3376 1788.48 66.3376 L1796.14 66.3376 L1796.14 72.576 L1788.48 72.576 Q1779.86 72.576 1776.58 69.3758 Q1773.29 66.1351 1773.29 57.6282 L1773.29 32.9987 L1767.83 32.9987 L1767.83 27.2059 L1773.29 27.2059 L1773.29 14.324 L1780.79 14.324 Z" fill="#000000" fill-rule="nonzero" fill-opacity="1" /><path clip-path="url(#clip460)" d="M1832.23 34.1734 Q1830.98 33.4443 1829.48 33.1202 Q1828.02 32.7556 1826.24 32.7556 Q1819.92 32.7556 1816.52 36.8875 Q1813.15 40.9789 1813.15 48.6757 L1813.15 72.576 L1805.66 72.576 L1805.66 27.2059 L1813.15 27.2059 L1813.15 34.2544 Q1815.5 30.1225 1819.27 28.1376 Q1823.04 26.1121 1828.43 26.1121 Q1829.2 26.1121 1830.13 26.2337 Q1831.06 26.3147 1832.19 26.5172 L1832.23 34.1734 Z" fill="#000000" fill-rule="nonzero" fill-opacity="1" /><path clip-path="url(#clip460)" d="M1840.05 27.2059 L1847.51 27.2059 L1847.51 72.576 L1840.05 72.576 L1840.05 27.2059 M1840.05 9.54393 L1847.51 9.54393 L1847.51 18.9825 L1840.05 18.9825 L1840.05 9.54393 Z" fill="#000000" fill-rule="nonzero" fill-opacity="1" /><path clip-path="url(#clip460)" d="M1895.67 49.9314 Q1895.67 41.7081 1892.27 37.0496 Q1888.91 32.3505 1882.99 32.3505 Q1877.08 32.3505 1873.68 37.0496 Q1870.31 41.7081 1870.31 49.9314 Q1870.31 58.1548 1873.68 62.8538 Q1877.08 67.5124 1882.99 67.5124 Q1888.91 67.5124 1892.27 62.8538 Q1895.67 58.1548 1895.67 49.9314 M1870.31 34.0924 Q1872.66 30.0415 1876.23 28.0971 Q1879.83 26.1121 1884.82 26.1121 Q1893.08 26.1121 1898.22 32.6746 Q1903.41 39.2371 1903.41 49.9314 Q1903.41 60.6258 1898.22 67.1883 Q1893.08 73.7508 1884.82 73.7508 Q1879.83 73.7508 1876.23 71.8063 Q1872.66 69.8214 1870.31 65.7705 L1870.31 72.576 L1862.82 72.576 L1862.82 9.54393 L1870.31 9.54393 L1870.31 34.0924 Z" fill="#000000" fill-rule="nonzero" fill-opacity="1" /><path clip-path="url(#clip460)" d="M1914.99 54.671 L1914.99 27.2059 L1922.45 27.2059 L1922.45 54.3874 Q1922.45 60.8284 1924.96 64.0691 Q1927.47 67.2693 1932.49 67.2693 Q1938.53 67.2693 1942.01 63.421 Q1945.54 59.5726 1945.54 52.9291 L1945.54 27.2059 L1952.99 27.2059 L1952.99 72.576 L1945.54 72.576 L1945.54 65.6084 Q1942.82 69.7404 1939.22 71.7658 Q1935.65 73.7508 1930.91 73.7508 Q1923.1 73.7508 1919.05 68.8897 Q1914.99 64.0286 1914.99 54.671 M1933.75 26.1121 L1933.75 26.1121 Z" fill="#000000" fill-rule="nonzero" fill-opacity="1" /><path clip-path="url(#clip460)" d="M1975.72 14.324 L1975.72 27.2059 L1991.07 27.2059 L1991.07 32.9987 L1975.72 32.9987 L1975.72 57.6282 Q1975.72 63.1779 1977.22 64.7578 Q1978.76 66.3376 1983.41 66.3376 L1991.07 66.3376 L1991.07 72.576 L1983.41 72.576 Q1974.79 72.576 1971.5 69.3758 Q1968.22 66.1351 1968.22 57.6282 L1968.22 32.9987 L1962.75 32.9987 L1962.75 27.2059 L1968.22 27.2059 L1968.22 14.324 L1975.72 14.324 Z" fill="#000000" fill-rule="nonzero" fill-opacity="1" /><path clip-path="url(#clip460)" d="M2000.87 27.2059 L2008.33 27.2059 L2008.33 72.576 L2000.87 72.576 L2000.87 27.2059 M2000.87 9.54393 L2008.33 9.54393 L2008.33 18.9825 L2000.87 18.9825 L2000.87 9.54393 Z" fill="#000000" fill-rule="nonzero" fill-opacity="1" /><path clip-path="url(#clip460)" d="M2041.5 32.4315 Q2035.51 32.4315 2032.03 37.1306 Q2028.54 41.7891 2028.54 49.9314 Q2028.54 58.0738 2031.98 62.7728 Q2035.47 67.4314 2041.5 67.4314 Q2047.46 67.4314 2050.94 62.7323 Q2054.43 58.0333 2054.43 49.9314 Q2054.43 41.8701 2050.94 37.1711 Q2047.46 32.4315 2041.5 32.4315 M2041.5 26.1121 Q2051.23 26.1121 2056.78 32.4315 Q2062.33 38.7509 2062.33 49.9314 Q2062.33 61.0714 2056.78 67.4314 Q2051.23 73.7508 2041.5 73.7508 Q2031.74 73.7508 2026.19 67.4314 Q2020.68 61.0714 2020.68 49.9314 Q2020.68 38.7509 2026.19 32.4315 Q2031.74 26.1121 2041.5 26.1121 Z" fill="#000000" fill-rule="nonzero" fill-opacity="1" /><path clip-path="url(#clip460)" d="M2112.4 45.1919 L2112.4 72.576 L2104.94 72.576 L2104.94 45.4349 Q2104.94 38.994 2102.43 35.7938 Q2099.92 32.5936 2094.9 32.5936 Q2088.86 32.5936 2085.38 36.4419 Q2081.89 40.2903 2081.89 46.9338 L2081.89 72.576 L2074.4 72.576 L2074.4 27.2059 L2081.89 27.2059 L2081.89 34.2544 Q2084.57 30.163 2088.17 28.1376 Q2091.82 26.1121 2096.56 26.1121 Q2104.37 26.1121 2108.38 30.9732 Q2112.4 35.7938 2112.4 45.1919 Z" fill="#000000" fill-rule="nonzero" fill-opacity="1" /><path clip-path="url(#clip460)" d="M2126.09 9.62495 L2132.57 9.62495 Q2138.65 19.1851 2141.64 28.3401 Q2144.68 37.4952 2144.68 46.5287 Q2144.68 55.6027 2141.64 64.7983 Q2138.65 73.9938 2132.57 83.5134 L2126.09 83.5134 Q2131.48 74.2369 2134.11 65.0818 Q2136.78 55.8863 2136.78 46.5287 Q2136.78 37.1711 2134.11 28.0566 Q2131.48 18.942 2126.09 9.62495 Z" fill="#000000" fill-rule="nonzero" fill-opacity="1" /><polyline clip-path="url(#clip462)" style="stroke:#80c4ac; stroke-linecap:round; stroke-linejoin:round; stroke-width:8; stroke-opacity:1; fill:none" points="1313.89,956.727 1364.19,989.21 1414.49,1021.69 1464.78,1054.18 1515.08,1086.66 1565.38,1119.14 1615.68,1151.62 1665.97,1144.87 1716.27,1112.38 1766.57,1079.9 1816.86,1047.42 1816.13,1014.93 1765.83,982.451 1715.53,949.968 1665.24,917.485 1614.94,885.002 1564.64,852.519 1514.35,820.036 1464.05,787.553 1413.75,755.07 1363.46,722.588 1313.16,690.105 1262.86,671.682 1212.56,704.165 1162.27,736.647 1111.97,769.13 1061.67,801.613 1011.38,834.096 961.08,866.579 910.783,899.062 860.486,931.545 810.189,964.028 759.893,996.511 709.596,1028.99 659.299,1061.48 609.002,1093.96 608.432,1126.44 658.729,1158.93 709.025,1191.41 759.322,1223.89 809.619,1256.37 859.916,1288.86 910.213,1321.34 960.51,1324.83 1010.81,1292.35 1061.1,1259.86 1111.4,1227.38 1117.61,1194.9 1067.32,1162.41 1017.02,1129.93 966.722,1097.45 916.425,1064.97 866.128,1032.48 815.831,1000 765.534,967.517 715.237,935.034 664.941,902.551 614.644,870.068 564.347,837.585 514.05,805.102 463.753,772.62 413.456,740.137 363.159,755.686 312.862,788.169 314.945,820.652 365.242,853.135 415.539,885.617 465.836,918.1 516.133,950.583 566.43,983.066 616.727,1015.55 667.024,1048.03 717.32,1080.51 767.617,1113 817.914,1145.48 868.211,1177.96 918.508,1210.45 968.805,1242.93 1019.1,1243.07 1069.4,1210.59 1119.7,1178.1 1169.99,1145.62 1220.29,1113.14 1208.43,1080.66 1158.13,1048.17 1107.84,1015.69 1057.54,983.207 1007.24,950.725 956.945,918.242 906.648,885.759 856.351,853.276 806.055,820.793 755.758,788.31 705.461,777.912 667.3,810.395 717.597,842.877 767.894,875.36 818.191,907.843 868.488,940.326 918.784,972.809 969.081,1005.29 1019.38,994.632 1069.68,962.149 1052.53,929.666 1002.23,897.183 951.937,864.701 901.64,832.218 851.893,799.735 902.19,767.252 952.487,734.769 1002.78,702.286 1053.08,669.803 1103.38,637.32 1153.67,604.837 1203.97,572.354 1254.27,539.872 1304.57,507.389 1354.86,474.906 1405.16,442.423 1455.46,409.94 1505.75,410.12 1483.99,442.603 1433.69,475.085 1383.39,507.568 1333.09,540.051 1282.8,572.534 1232.5,605.017 1182.2,637.5 1131.91,669.983 1081.61,702.466 1031.31,734.949 981.016,767.432 930.719,799.914 880.422,832.397 830.126,864.88 779.829,897.363 729.532,929.846 766.569,962.329 816.866,994.812 867.163,1027.29 917.459,1059.78 967.756,1092.26 1018.05,1124.74 1068.35,1157.23 1118.65,1189.71 1168.94,1165.43 1191.92,1132.95 1141.63,1100.47 1091.33,1067.98 1041.03,1035.5 990.736,1003.02 940.44,970.536 890.143,938.053 839.846,905.57 789.549,873.087 792.661,840.604 842.958,808.121 893.255,775.638 943.552,743.155 993.849,710.672 1044.15,678.19 1094.44,645.707 1144.74,613.224 1195.04,580.741 1245.33,548.258 1295.63,515.775 1345.93,483.292 1396.22,450.809 1446.52,418.326 1496.82,385.843 1547.11,353.361 1597.41,320.878 1647.71,288.395 1698,255.912 1748.3,223.429 1798.6,190.946 1848.9,158.463 1899.19,167.379 1949.49,199.861 1999.79,232.344 2050.08,264.827 2100.38,297.31 2150.68,329.793 2200.14,362.276 2149.84,394.759 2099.54,427.242 2049.25,459.725 1998.95,492.208 1948.65,524.69 1898.36,557.173 1848.06,589.656 1797.76,622.139 1747.47,654.622 1697.17,687.105 1646.87,719.588 1596.57,752.071 1546.28,784.554 1495.98,817.037 1445.68,849.519 1395.39,882.002 1345.09,914.485 1294.79,946.968 1244.5,979.451 1194.2,1011.93 "/>
<circle clip-path="url(#clip462)" cx="1313.89" cy="956.727" r="7.2" fill="#80c4ac" fill-rule="evenodd" fill-opacity="0.6" stroke="#000000" stroke-opacity="0.6" stroke-width="3.072"/>
<circle clip-path="url(#clip462)" cx="1364.19" cy="989.21" r="7.2" fill="#80c4ac" fill-rule="evenodd" fill-opacity="0.6" stroke="#000000" stroke-opacity="0.6" stroke-width="3.072"/>
<circle clip-path="url(#clip462)" cx="1414.49" cy="1021.69" r="7.2" fill="#80c4ac" fill-rule="evenodd" fill-opacity="0.6" stroke="#000000" stroke-opacity="0.6" stroke-width="3.072"/>
<circle clip-path="url(#clip462)" cx="1464.78" cy="1054.18" r="7.2" fill="#80c4ac" fill-rule="evenodd" fill-opacity="0.6" stroke="#000000" stroke-opacity="0.6" stroke-width="3.072"/>
<circle clip-path="url(#clip462)" cx="1515.08" cy="1086.66" r="7.2" fill="#80c4ac" fill-rule="evenodd" fill-opacity="0.6" stroke="#000000" stroke-opacity="0.6" stroke-width="3.072"/>
<circle clip-path="url(#clip462)" cx="1565.38" cy="1119.14" r="7.2" fill="#80c4ac" fill-rule="evenodd" fill-opacity="0.6" stroke="#000000" stroke-opacity="0.6" stroke-width="3.072"/>
<circle clip-path="url(#clip462)" cx="1615.68" cy="1151.62" r="7.2" fill="#80c4ac" fill-rule="evenodd" fill-opacity="0.6" stroke="#000000" stroke-opacity="0.6" stroke-width="3.072"/>
<circle clip-path="url(#clip462)" cx="1665.97" cy="1144.87" r="7.2" fill="#80c4ac" fill-rule="evenodd" fill-opacity="0.6" stroke="#000000" stroke-opacity="0.6" stroke-width="3.072"/>
<circle clip-path="url(#clip462)" cx="1716.27" cy="1112.38" r="7.2" fill="#80c4ac" fill-rule="evenodd" fill-opacity="0.6" stroke="#000000" stroke-opacity="0.6" stroke-width="3.072"/>
<circle clip-path="url(#clip462)" cx="1766.57" cy="1079.9" r="7.2" fill="#80c4ac" fill-rule="evenodd" fill-opacity="0.6" stroke="#000000" stroke-opacity="0.6" stroke-width="3.072"/>
<circle clip-path="url(#clip462)" cx="1816.86" cy="1047.42" r="7.2" fill="#80c4ac" fill-rule="evenodd" fill-opacity="0.6" stroke="#000000" stroke-opacity="0.6" stroke-width="3.072"/>
<circle clip-path="url(#clip462)" cx="1816.13" cy="1014.93" r="7.2" fill="#80c4ac" fill-rule="evenodd" fill-opacity="0.6" stroke="#000000" stroke-opacity="0.6" stroke-width="3.072"/>
<circle clip-path="url(#clip462)" cx="1765.83" cy="982.451" r="7.2" fill="#80c4ac" fill-rule="evenodd" fill-opacity="0.6" stroke="#000000" stroke-opacity="0.6" stroke-width="3.072"/>
<circle clip-path="url(#clip462)" cx="1715.53" cy="949.968" r="7.2" fill="#80c4ac" fill-rule="evenodd" fill-opacity="0.6" stroke="#000000" stroke-opacity="0.6" stroke-width="3.072"/>
<circle clip-path="url(#clip462)" cx="1665.24" cy="917.485" r="7.2" fill="#80c4ac" fill-rule="evenodd" fill-opacity="0.6" stroke="#000000" stroke-opacity="0.6" stroke-width="3.072"/>
<circle clip-path="url(#clip462)" cx="1614.94" cy="885.002" r="7.2" fill="#80c4ac" fill-rule="evenodd" fill-opacity="0.6" stroke="#000000" stroke-opacity="0.6" stroke-width="3.072"/>
<circle clip-path="url(#clip462)" cx="1564.64" cy="852.519" r="7.2" fill="#80c4ac" fill-rule="evenodd" fill-opacity="0.6" stroke="#000000" stroke-opacity="0.6" stroke-width="3.072"/>
<circle clip-path="url(#clip462)" cx="1514.35" cy="820.036" r="7.2" fill="#80c4ac" fill-rule="evenodd" fill-opacity="0.6" stroke="#000000" stroke-opacity="0.6" stroke-width="3.072"/>
<circle clip-path="url(#clip462)" cx="1464.05" cy="787.553" r="7.2" fill="#80c4ac" fill-rule="evenodd" fill-opacity="0.6" stroke="#000000" stroke-opacity="0.6" stroke-width="3.072"/>
<circle clip-path="url(#clip462)" cx="1413.75" cy="755.07" r="7.2" fill="#80c4ac" fill-rule="evenodd" fill-opacity="0.6" stroke="#000000" stroke-opacity="0.6" stroke-width="3.072"/>
<circle clip-path="url(#clip462)" cx="1363.46" cy="722.588" r="7.2" fill="#80c4ac" fill-rule="evenodd" fill-opacity="0.6" stroke="#000000" stroke-opacity="0.6" stroke-width="3.072"/>
<circle clip-path="url(#clip462)" cx="1313.16" cy="690.105" r="7.2" fill="#80c4ac" fill-rule="evenodd" fill-opacity="0.6" stroke="#000000" stroke-opacity="0.6" stroke-width="3.072"/>
<circle clip-path="url(#clip462)" cx="1262.86" cy="671.682" r="7.2" fill="#80c4ac" fill-rule="evenodd" fill-opacity="0.6" stroke="#000000" stroke-opacity="0.6" stroke-width="3.072"/>
<circle clip-path="url(#clip462)" cx="1212.56" cy="704.165" r="7.2" fill="#80c4ac" fill-rule="evenodd" fill-opacity="0.6" stroke="#000000" stroke-opacity="0.6" stroke-width="3.072"/>
<circle clip-path="url(#clip462)" cx="1162.27" cy="736.647" r="7.2" fill="#80c4ac" fill-rule="evenodd" fill-opacity="0.6" stroke="#000000" stroke-opacity="0.6" stroke-width="3.072"/>
<circle clip-path="url(#clip462)" cx="1111.97" cy="769.13" r="7.2" fill="#80c4ac" fill-rule="evenodd" fill-opacity="0.6" stroke="#000000" stroke-opacity="0.6" stroke-width="3.072"/>
<circle clip-path="url(#clip462)" cx="1061.67" cy="801.613" r="7.2" fill="#80c4ac" fill-rule="evenodd" fill-opacity="0.6" stroke="#000000" stroke-opacity="0.6" stroke-width="3.072"/>
<circle clip-path="url(#clip462)" cx="1011.38" cy="834.096" r="7.2" fill="#80c4ac" fill-rule="evenodd" fill-opacity="0.6" stroke="#000000" stroke-opacity="0.6" stroke-width="3.072"/>
<circle clip-path="url(#clip462)" cx="961.08" cy="866.579" r="7.2" fill="#80c4ac" fill-rule="evenodd" fill-opacity="0.6" stroke="#000000" stroke-opacity="0.6" stroke-width="3.072"/>
<circle clip-path="url(#clip462)" cx="910.783" cy="899.062" r="7.2" fill="#80c4ac" fill-rule="evenodd" fill-opacity="0.6" stroke="#000000" stroke-opacity="0.6" stroke-width="3.072"/>
<circle clip-path="url(#clip462)" cx="860.486" cy="931.545" r="7.2" fill="#80c4ac" fill-rule="evenodd" fill-opacity="0.6" stroke="#000000" stroke-opacity="0.6" stroke-width="3.072"/>
<circle clip-path="url(#clip462)" cx="810.189" cy="964.028" r="7.2" fill="#80c4ac" fill-rule="evenodd" fill-opacity="0.6" stroke="#000000" stroke-opacity="0.6" stroke-width="3.072"/>
<circle clip-path="url(#clip462)" cx="759.893" cy="996.511" r="7.2" fill="#80c4ac" fill-rule="evenodd" fill-opacity="0.6" stroke="#000000" stroke-opacity="0.6" stroke-width="3.072"/>
<circle clip-path="url(#clip462)" cx="709.596" cy="1028.99" r="7.2" fill="#80c4ac" fill-rule="evenodd" fill-opacity="0.6" stroke="#000000" stroke-opacity="0.6" stroke-width="3.072"/>
<circle clip-path="url(#clip462)" cx="659.299" cy="1061.48" r="7.2" fill="#80c4ac" fill-rule="evenodd" fill-opacity="0.6" stroke="#000000" stroke-opacity="0.6" stroke-width="3.072"/>
<circle clip-path="url(#clip462)" cx="609.002" cy="1093.96" r="7.2" fill="#80c4ac" fill-rule="evenodd" fill-opacity="0.6" stroke="#000000" stroke-opacity="0.6" stroke-width="3.072"/>
<circle clip-path="url(#clip462)" cx="608.432" cy="1126.44" r="7.2" fill="#80c4ac" fill-rule="evenodd" fill-opacity="0.6" stroke="#000000" stroke-opacity="0.6" stroke-width="3.072"/>
<circle clip-path="url(#clip462)" cx="658.729" cy="1158.93" r="7.2" fill="#80c4ac" fill-rule="evenodd" fill-opacity="0.6" stroke="#000000" stroke-opacity="0.6" stroke-width="3.072"/>
<circle clip-path="url(#clip462)" cx="709.025" cy="1191.41" r="7.2" fill="#80c4ac" fill-rule="evenodd" fill-opacity="0.6" stroke="#000000" stroke-opacity="0.6" stroke-width="3.072"/>
<circle clip-path="url(#clip462)" cx="759.322" cy="1223.89" r="7.2" fill="#80c4ac" fill-rule="evenodd" fill-opacity="0.6" stroke="#000000" stroke-opacity="0.6" stroke-width="3.072"/>
<circle clip-path="url(#clip462)" cx="809.619" cy="1256.37" r="7.2" fill="#80c4ac" fill-rule="evenodd" fill-opacity="0.6" stroke="#000000" stroke-opacity="0.6" stroke-width="3.072"/>
<circle clip-path="url(#clip462)" cx="859.916" cy="1288.86" r="7.2" fill="#80c4ac" fill-rule="evenodd" fill-opacity="0.6" stroke="#000000" stroke-opacity="0.6" stroke-width="3.072"/>
<circle clip-path="url(#clip462)" cx="910.213" cy="1321.34" r="7.2" fill="#80c4ac" fill-rule="evenodd" fill-opacity="0.6" stroke="#000000" stroke-opacity="0.6" stroke-width="3.072"/>
<circle clip-path="url(#clip462)" cx="960.51" cy="1324.83" r="7.2" fill="#80c4ac" fill-rule="evenodd" fill-opacity="0.6" stroke="#000000" stroke-opacity="0.6" stroke-width="3.072"/>
<circle clip-path="url(#clip462)" cx="1010.81" cy="1292.35" r="7.2" fill="#80c4ac" fill-rule="evenodd" fill-opacity="0.6" stroke="#000000" stroke-opacity="0.6" stroke-width="3.072"/>
<circle clip-path="url(#clip462)" cx="1061.1" cy="1259.86" r="7.2" fill="#80c4ac" fill-rule="evenodd" fill-opacity="0.6" stroke="#000000" stroke-opacity="0.6" stroke-width="3.072"/>
<circle clip-path="url(#clip462)" cx="1111.4" cy="1227.38" r="7.2" fill="#80c4ac" fill-rule="evenodd" fill-opacity="0.6" stroke="#000000" stroke-opacity="0.6" stroke-width="3.072"/>
<circle clip-path="url(#clip462)" cx="1117.61" cy="1194.9" r="7.2" fill="#80c4ac" fill-rule="evenodd" fill-opacity="0.6" stroke="#000000" stroke-opacity="0.6" stroke-width="3.072"/>
<circle clip-path="url(#clip462)" cx="1067.32" cy="1162.41" r="7.2" fill="#80c4ac" fill-rule="evenodd" fill-opacity="0.6" stroke="#000000" stroke-opacity="0.6" stroke-width="3.072"/>
<circle clip-path="url(#clip462)" cx="1017.02" cy="1129.93" r="7.2" fill="#80c4ac" fill-rule="evenodd" fill-opacity="0.6" stroke="#000000" stroke-opacity="0.6" stroke-width="3.072"/>
<circle clip-path="url(#clip462)" cx="966.722" cy="1097.45" r="7.2" fill="#80c4ac" fill-rule="evenodd" fill-opacity="0.6" stroke="#000000" stroke-opacity="0.6" stroke-width="3.072"/>
<circle clip-path="url(#clip462)" cx="916.425" cy="1064.97" r="7.2" fill="#80c4ac" fill-rule="evenodd" fill-opacity="0.6" stroke="#000000" stroke-opacity="0.6" stroke-width="3.072"/>
<circle clip-path="url(#clip462)" cx="866.128" cy="1032.48" r="7.2" fill="#80c4ac" fill-rule="evenodd" fill-opacity="0.6" stroke="#000000" stroke-opacity="0.6" stroke-width="3.072"/>
<circle clip-path="url(#clip462)" cx="815.831" cy="1000" r="7.2" fill="#80c4ac" fill-rule="evenodd" fill-opacity="0.6" stroke="#000000" stroke-opacity="0.6" stroke-width="3.072"/>
<circle clip-path="url(#clip462)" cx="765.534" cy="967.517" r="7.2" fill="#80c4ac" fill-rule="evenodd" fill-opacity="0.6" stroke="#000000" stroke-opacity="0.6" stroke-width="3.072"/>
<circle clip-path="url(#clip462)" cx="715.237" cy="935.034" r="7.2" fill="#80c4ac" fill-rule="evenodd" fill-opacity="0.6" stroke="#000000" stroke-opacity="0.6" stroke-width="3.072"/>
<circle clip-path="url(#clip462)" cx="664.941" cy="902.551" r="7.2" fill="#80c4ac" fill-rule="evenodd" fill-opacity="0.6" stroke="#000000" stroke-opacity="0.6" stroke-width="3.072"/>
<circle clip-path="url(#clip462)" cx="614.644" cy="870.068" r="7.2" fill="#80c4ac" fill-rule="evenodd" fill-opacity="0.6" stroke="#000000" stroke-opacity="0.6" stroke-width="3.072"/>
<circle clip-path="url(#clip462)" cx="564.347" cy="837.585" r="7.2" fill="#80c4ac" fill-rule="evenodd" fill-opacity="0.6" stroke="#000000" stroke-opacity="0.6" stroke-width="3.072"/>
<circle clip-path="url(#clip462)" cx="514.05" cy="805.102" r="7.2" fill="#80c4ac" fill-rule="evenodd" fill-opacity="0.6" stroke="#000000" stroke-opacity="0.6" stroke-width="3.072"/>
<circle clip-path="url(#clip462)" cx="463.753" cy="772.62" r="7.2" fill="#80c4ac" fill-rule="evenodd" fill-opacity="0.6" stroke="#000000" stroke-opacity="0.6" stroke-width="3.072"/>
<circle clip-path="url(#clip462)" cx="413.456" cy="740.137" r="7.2" fill="#80c4ac" fill-rule="evenodd" fill-opacity="0.6" stroke="#000000" stroke-opacity="0.6" stroke-width="3.072"/>
<circle clip-path="url(#clip462)" cx="363.159" cy="755.686" r="7.2" fill="#80c4ac" fill-rule="evenodd" fill-opacity="0.6" stroke="#000000" stroke-opacity="0.6" stroke-width="3.072"/>
<circle clip-path="url(#clip462)" cx="312.862" cy="788.169" r="7.2" fill="#80c4ac" fill-rule="evenodd" fill-opacity="0.6" stroke="#000000" stroke-opacity="0.6" stroke-width="3.072"/>
<circle clip-path="url(#clip462)" cx="314.945" cy="820.652" r="7.2" fill="#80c4ac" fill-rule="evenodd" fill-opacity="0.6" stroke="#000000" stroke-opacity="0.6" stroke-width="3.072"/>
<circle clip-path="url(#clip462)" cx="365.242" cy="853.135" r="7.2" fill="#80c4ac" fill-rule="evenodd" fill-opacity="0.6" stroke="#000000" stroke-opacity="0.6" stroke-width="3.072"/>
<circle clip-path="url(#clip462)" cx="415.539" cy="885.617" r="7.2" fill="#80c4ac" fill-rule="evenodd" fill-opacity="0.6" stroke="#000000" stroke-opacity="0.6" stroke-width="3.072"/>
<circle clip-path="url(#clip462)" cx="465.836" cy="918.1" r="7.2" fill="#80c4ac" fill-rule="evenodd" fill-opacity="0.6" stroke="#000000" stroke-opacity="0.6" stroke-width="3.072"/>
<circle clip-path="url(#clip462)" cx="516.133" cy="950.583" r="7.2" fill="#80c4ac" fill-rule="evenodd" fill-opacity="0.6" stroke="#000000" stroke-opacity="0.6" stroke-width="3.072"/>
<circle clip-path="url(#clip462)" cx="566.43" cy="983.066" r="7.2" fill="#80c4ac" fill-rule="evenodd" fill-opacity="0.6" stroke="#000000" stroke-opacity="0.6" stroke-width="3.072"/>
<circle clip-path="url(#clip462)" cx="616.727" cy="1015.55" r="7.2" fill="#80c4ac" fill-rule="evenodd" fill-opacity="0.6" stroke="#000000" stroke-opacity="0.6" stroke-width="3.072"/>
<circle clip-path="url(#clip462)" cx="667.024" cy="1048.03" r="7.2" fill="#80c4ac" fill-rule="evenodd" fill-opacity="0.6" stroke="#000000" stroke-opacity="0.6" stroke-width="3.072"/>
<circle clip-path="url(#clip462)" cx="717.32" cy="1080.51" r="7.2" fill="#80c4ac" fill-rule="evenodd" fill-opacity="0.6" stroke="#000000" stroke-opacity="0.6" stroke-width="3.072"/>
<circle clip-path="url(#clip462)" cx="767.617" cy="1113" r="7.2" fill="#80c4ac" fill-rule="evenodd" fill-opacity="0.6" stroke="#000000" stroke-opacity="0.6" stroke-width="3.072"/>
<circle clip-path="url(#clip462)" cx="817.914" cy="1145.48" r="7.2" fill="#80c4ac" fill-rule="evenodd" fill-opacity="0.6" stroke="#000000" stroke-opacity="0.6" stroke-width="3.072"/>
<circle clip-path="url(#clip462)" cx="868.211" cy="1177.96" r="7.2" fill="#80c4ac" fill-rule="evenodd" fill-opacity="0.6" stroke="#000000" stroke-opacity="0.6" stroke-width="3.072"/>
<circle clip-path="url(#clip462)" cx="918.508" cy="1210.45" r="7.2" fill="#80c4ac" fill-rule="evenodd" fill-opacity="0.6" stroke="#000000" stroke-opacity="0.6" stroke-width="3.072"/>
<circle clip-path="url(#clip462)" cx="968.805" cy="1242.93" r="7.2" fill="#80c4ac" fill-rule="evenodd" fill-opacity="0.6" stroke="#000000" stroke-opacity="0.6" stroke-width="3.072"/>
<circle clip-path="url(#clip462)" cx="1019.1" cy="1243.07" r="7.2" fill="#80c4ac" fill-rule="evenodd" fill-opacity="0.6" stroke="#000000" stroke-opacity="0.6" stroke-width="3.072"/>
<circle clip-path="url(#clip462)" cx="1069.4" cy="1210.59" r="7.2" fill="#80c4ac" fill-rule="evenodd" fill-opacity="0.6" stroke="#000000" stroke-opacity="0.6" stroke-width="3.072"/>
<circle clip-path="url(#clip462)" cx="1119.7" cy="1178.1" r="7.2" fill="#80c4ac" fill-rule="evenodd" fill-opacity="0.6" stroke="#000000" stroke-opacity="0.6" stroke-width="3.072"/>
<circle clip-path="url(#clip462)" cx="1169.99" cy="1145.62" r="7.2" fill="#80c4ac" fill-rule="evenodd" fill-opacity="0.6" stroke="#000000" stroke-opacity="0.6" stroke-width="3.072"/>
<circle clip-path="url(#clip462)" cx="1220.29" cy="1113.14" r="7.2" fill="#80c4ac" fill-rule="evenodd" fill-opacity="0.6" stroke="#000000" stroke-opacity="0.6" stroke-width="3.072"/>
<circle clip-path="url(#clip462)" cx="1208.43" cy="1080.66" r="7.2" fill="#80c4ac" fill-rule="evenodd" fill-opacity="0.6" stroke="#000000" stroke-opacity="0.6" stroke-width="3.072"/>
<circle clip-path="url(#clip462)" cx="1158.13" cy="1048.17" r="7.2" fill="#80c4ac" fill-rule="evenodd" fill-opacity="0.6" stroke="#000000" stroke-opacity="0.6" stroke-width="3.072"/>
<circle clip-path="url(#clip462)" cx="1107.84" cy="1015.69" r="7.2" fill="#80c4ac" fill-rule="evenodd" fill-opacity="0.6" stroke="#000000" stroke-opacity="0.6" stroke-width="3.072"/>
<circle clip-path="url(#clip462)" cx="1057.54" cy="983.207" r="7.2" fill="#80c4ac" fill-rule="evenodd" fill-opacity="0.6" stroke="#000000" stroke-opacity="0.6" stroke-width="3.072"/>
<circle clip-path="url(#clip462)" cx="1007.24" cy="950.725" r="7.2" fill="#80c4ac" fill-rule="evenodd" fill-opacity="0.6" stroke="#000000" stroke-opacity="0.6" stroke-width="3.072"/>
<circle clip-path="url(#clip462)" cx="956.945" cy="918.242" r="7.2" fill="#80c4ac" fill-rule="evenodd" fill-opacity="0.6" stroke="#000000" stroke-opacity="0.6" stroke-width="3.072"/>
<circle clip-path="url(#clip462)" cx="906.648" cy="885.759" r="7.2" fill="#80c4ac" fill-rule="evenodd" fill-opacity="0.6" stroke="#000000" stroke-opacity="0.6" stroke-width="3.072"/>
<circle clip-path="url(#clip462)" cx="856.351" cy="853.276" r="7.2" fill="#80c4ac" fill-rule="evenodd" fill-opacity="0.6" stroke="#000000" stroke-opacity="0.6" stroke-width="3.072"/>
<circle clip-path="url(#clip462)" cx="806.055" cy="820.793" r="7.2" fill="#80c4ac" fill-rule="evenodd" fill-opacity="0.6" stroke="#000000" stroke-opacity="0.6" stroke-width="3.072"/>
<circle clip-path="url(#clip462)" cx="755.758" cy="788.31" r="7.2" fill="#80c4ac" fill-rule="evenodd" fill-opacity="0.6" stroke="#000000" stroke-opacity="0.6" stroke-width="3.072"/>
<circle clip-path="url(#clip462)" cx="705.461" cy="777.912" r="7.2" fill="#80c4ac" fill-rule="evenodd" fill-opacity="0.6" stroke="#000000" stroke-opacity="0.6" stroke-width="3.072"/>
<circle clip-path="url(#clip462)" cx="667.3" cy="810.395" r="7.2" fill="#80c4ac" fill-rule="evenodd" fill-opacity="0.6" stroke="#000000" stroke-opacity="0.6" stroke-width="3.072"/>
<circle clip-path="url(#clip462)" cx="717.597" cy="842.877" r="7.2" fill="#80c4ac" fill-rule="evenodd" fill-opacity="0.6" stroke="#000000" stroke-opacity="0.6" stroke-width="3.072"/>
<circle clip-path="url(#clip462)" cx="767.894" cy="875.36" r="7.2" fill="#80c4ac" fill-rule="evenodd" fill-opacity="0.6" stroke="#000000" stroke-opacity="0.6" stroke-width="3.072"/>
<circle clip-path="url(#clip462)" cx="818.191" cy="907.843" r="7.2" fill="#80c4ac" fill-rule="evenodd" fill-opacity="0.6" stroke="#000000" stroke-opacity="0.6" stroke-width="3.072"/>
<circle clip-path="url(#clip462)" cx="868.488" cy="940.326" r="7.2" fill="#80c4ac" fill-rule="evenodd" fill-opacity="0.6" stroke="#000000" stroke-opacity="0.6" stroke-width="3.072"/>
<circle clip-path="url(#clip462)" cx="918.784" cy="972.809" r="7.2" fill="#80c4ac" fill-rule="evenodd" fill-opacity="0.6" stroke="#000000" stroke-opacity="0.6" stroke-width="3.072"/>
<circle clip-path="url(#clip462)" cx="969.081" cy="1005.29" r="7.2" fill="#80c4ac" fill-rule="evenodd" fill-opacity="0.6" stroke="#000000" stroke-opacity="0.6" stroke-width="3.072"/>
<circle clip-path="url(#clip462)" cx="1019.38" cy="994.632" r="7.2" fill="#80c4ac" fill-rule="evenodd" fill-opacity="0.6" stroke="#000000" stroke-opacity="0.6" stroke-width="3.072"/>
<circle clip-path="url(#clip462)" cx="1069.68" cy="962.149" r="7.2" fill="#80c4ac" fill-rule="evenodd" fill-opacity="0.6" stroke="#000000" stroke-opacity="0.6" stroke-width="3.072"/>
<circle clip-path="url(#clip462)" cx="1052.53" cy="929.666" r="7.2" fill="#80c4ac" fill-rule="evenodd" fill-opacity="0.6" stroke="#000000" stroke-opacity="0.6" stroke-width="3.072"/>
<circle clip-path="url(#clip462)" cx="1002.23" cy="897.183" r="7.2" fill="#80c4ac" fill-rule="evenodd" fill-opacity="0.6" stroke="#000000" stroke-opacity="0.6" stroke-width="3.072"/>
<circle clip-path="url(#clip462)" cx="951.937" cy="864.701" r="7.2" fill="#80c4ac" fill-rule="evenodd" fill-opacity="0.6" stroke="#000000" stroke-opacity="0.6" stroke-width="3.072"/>
<circle clip-path="url(#clip462)" cx="901.64" cy="832.218" r="7.2" fill="#80c4ac" fill-rule="evenodd" fill-opacity="0.6" stroke="#000000" stroke-opacity="0.6" stroke-width="3.072"/>
<circle clip-path="url(#clip462)" cx="851.893" cy="799.735" r="7.2" fill="#80c4ac" fill-rule="evenodd" fill-opacity="0.6" stroke="#000000" stroke-opacity="0.6" stroke-width="3.072"/>
<circle clip-path="url(#clip462)" cx="902.19" cy="767.252" r="7.2" fill="#80c4ac" fill-rule="evenodd" fill-opacity="0.6" stroke="#000000" stroke-opacity="0.6" stroke-width="3.072"/>
<circle clip-path="url(#clip462)" cx="952.487" cy="734.769" r="7.2" fill="#80c4ac" fill-rule="evenodd" fill-opacity="0.6" stroke="#000000" stroke-opacity="0.6" stroke-width="3.072"/>
<circle clip-path="url(#clip462)" cx="1002.78" cy="702.286" r="7.2" fill="#80c4ac" fill-rule="evenodd" fill-opacity="0.6" stroke="#000000" stroke-opacity="0.6" stroke-width="3.072"/>
<circle clip-path="url(#clip462)" cx="1053.08" cy="669.803" r="7.2" fill="#80c4ac" fill-rule="evenodd" fill-opacity="0.6" stroke="#000000" stroke-opacity="0.6" stroke-width="3.072"/>
<circle clip-path="url(#clip462)" cx="1103.38" cy="637.32" r="7.2" fill="#80c4ac" fill-rule="evenodd" fill-opacity="0.6" stroke="#000000" stroke-opacity="0.6" stroke-width="3.072"/>
<circle clip-path="url(#clip462)" cx="1153.67" cy="604.837" r="7.2" fill="#80c4ac" fill-rule="evenodd" fill-opacity="0.6" stroke="#000000" stroke-opacity="0.6" stroke-width="3.072"/>
<circle clip-path="url(#clip462)" cx="1203.97" cy="572.354" r="7.2" fill="#80c4ac" fill-rule="evenodd" fill-opacity="0.6" stroke="#000000" stroke-opacity="0.6" stroke-width="3.072"/>
<circle clip-path="url(#clip462)" cx="1254.27" cy="539.872" r="7.2" fill="#80c4ac" fill-rule="evenodd" fill-opacity="0.6" stroke="#000000" stroke-opacity="0.6" stroke-width="3.072"/>
<circle clip-path="url(#clip462)" cx="1304.57" cy="507.389" r="7.2" fill="#80c4ac" fill-rule="evenodd" fill-opacity="0.6" stroke="#000000" stroke-opacity="0.6" stroke-width="3.072"/>
<circle clip-path="url(#clip462)" cx="1354.86" cy="474.906" r="7.2" fill="#80c4ac" fill-rule="evenodd" fill-opacity="0.6" stroke="#000000" stroke-opacity="0.6" stroke-width="3.072"/>
<circle clip-path="url(#clip462)" cx="1405.16" cy="442.423" r="7.2" fill="#80c4ac" fill-rule="evenodd" fill-opacity="0.6" stroke="#000000" stroke-opacity="0.6" stroke-width="3.072"/>
<circle clip-path="url(#clip462)" cx="1455.46" cy="409.94" r="7.2" fill="#80c4ac" fill-rule="evenodd" fill-opacity="0.6" stroke="#000000" stroke-opacity="0.6" stroke-width="3.072"/>
<circle clip-path="url(#clip462)" cx="1505.75" cy="410.12" r="7.2" fill="#80c4ac" fill-rule="evenodd" fill-opacity="0.6" stroke="#000000" stroke-opacity="0.6" stroke-width="3.072"/>
<circle clip-path="url(#clip462)" cx="1483.99" cy="442.603" r="7.2" fill="#80c4ac" fill-rule="evenodd" fill-opacity="0.6" stroke="#000000" stroke-opacity="0.6" stroke-width="3.072"/>
<circle clip-path="url(#clip462)" cx="1433.69" cy="475.085" r="7.2" fill="#80c4ac" fill-rule="evenodd" fill-opacity="0.6" stroke="#000000" stroke-opacity="0.6" stroke-width="3.072"/>
<circle clip-path="url(#clip462)" cx="1383.39" cy="507.568" r="7.2" fill="#80c4ac" fill-rule="evenodd" fill-opacity="0.6" stroke="#000000" stroke-opacity="0.6" stroke-width="3.072"/>
<circle clip-path="url(#clip462)" cx="1333.09" cy="540.051" r="7.2" fill="#80c4ac" fill-rule="evenodd" fill-opacity="0.6" stroke="#000000" stroke-opacity="0.6" stroke-width="3.072"/>
<circle clip-path="url(#clip462)" cx="1282.8" cy="572.534" r="7.2" fill="#80c4ac" fill-rule="evenodd" fill-opacity="0.6" stroke="#000000" stroke-opacity="0.6" stroke-width="3.072"/>
<circle clip-path="url(#clip462)" cx="1232.5" cy="605.017" r="7.2" fill="#80c4ac" fill-rule="evenodd" fill-opacity="0.6" stroke="#000000" stroke-opacity="0.6" stroke-width="3.072"/>
<circle clip-path="url(#clip462)" cx="1182.2" cy="637.5" r="7.2" fill="#80c4ac" fill-rule="evenodd" fill-opacity="0.6" stroke="#000000" stroke-opacity="0.6" stroke-width="3.072"/>
<circle clip-path="url(#clip462)" cx="1131.91" cy="669.983" r="7.2" fill="#80c4ac" fill-rule="evenodd" fill-opacity="0.6" stroke="#000000" stroke-opacity="0.6" stroke-width="3.072"/>
<circle clip-path="url(#clip462)" cx="1081.61" cy="702.466" r="7.2" fill="#80c4ac" fill-rule="evenodd" fill-opacity="0.6" stroke="#000000" stroke-opacity="0.6" stroke-width="3.072"/>
<circle clip-path="url(#clip462)" cx="1031.31" cy="734.949" r="7.2" fill="#80c4ac" fill-rule="evenodd" fill-opacity="0.6" stroke="#000000" stroke-opacity="0.6" stroke-width="3.072"/>
<circle clip-path="url(#clip462)" cx="981.016" cy="767.432" r="7.2" fill="#80c4ac" fill-rule="evenodd" fill-opacity="0.6" stroke="#000000" stroke-opacity="0.6" stroke-width="3.072"/>
<circle clip-path="url(#clip462)" cx="930.719" cy="799.914" r="7.2" fill="#80c4ac" fill-rule="evenodd" fill-opacity="0.6" stroke="#000000" stroke-opacity="0.6" stroke-width="3.072"/>
<circle clip-path="url(#clip462)" cx="880.422" cy="832.397" r="7.2" fill="#80c4ac" fill-rule="evenodd" fill-opacity="0.6" stroke="#000000" stroke-opacity="0.6" stroke-width="3.072"/>
<circle clip-path="url(#clip462)" cx="830.126" cy="864.88" r="7.2" fill="#80c4ac" fill-rule="evenodd" fill-opacity="0.6" stroke="#000000" stroke-opacity="0.6" stroke-width="3.072"/>
<circle clip-path="url(#clip462)" cx="779.829" cy="897.363" r="7.2" fill="#80c4ac" fill-rule="evenodd" fill-opacity="0.6" stroke="#000000" stroke-opacity="0.6" stroke-width="3.072"/>
<circle clip-path="url(#clip462)" cx="729.532" cy="929.846" r="7.2" fill="#80c4ac" fill-rule="evenodd" fill-opacity="0.6" stroke="#000000" stroke-opacity="0.6" stroke-width="3.072"/>
<circle clip-path="url(#clip462)" cx="766.569" cy="962.329" r="7.2" fill="#80c4ac" fill-rule="evenodd" fill-opacity="0.6" stroke="#000000" stroke-opacity="0.6" stroke-width="3.072"/>
<circle clip-path="url(#clip462)" cx="816.866" cy="994.812" r="7.2" fill="#80c4ac" fill-rule="evenodd" fill-opacity="0.6" stroke="#000000" stroke-opacity="0.6" stroke-width="3.072"/>
<circle clip-path="url(#clip462)" cx="867.163" cy="1027.29" r="7.2" fill="#80c4ac" fill-rule="evenodd" fill-opacity="0.6" stroke="#000000" stroke-opacity="0.6" stroke-width="3.072"/>
<circle clip-path="url(#clip462)" cx="917.459" cy="1059.78" r="7.2" fill="#80c4ac" fill-rule="evenodd" fill-opacity="0.6" stroke="#000000" stroke-opacity="0.6" stroke-width="3.072"/>
<circle clip-path="url(#clip462)" cx="967.756" cy="1092.26" r="7.2" fill="#80c4ac" fill-rule="evenodd" fill-opacity="0.6" stroke="#000000" stroke-opacity="0.6" stroke-width="3.072"/>
<circle clip-path="url(#clip462)" cx="1018.05" cy="1124.74" r="7.2" fill="#80c4ac" fill-rule="evenodd" fill-opacity="0.6" stroke="#000000" stroke-opacity="0.6" stroke-width="3.072"/>
<circle clip-path="url(#clip462)" cx="1068.35" cy="1157.23" r="7.2" fill="#80c4ac" fill-rule="evenodd" fill-opacity="0.6" stroke="#000000" stroke-opacity="0.6" stroke-width="3.072"/>
<circle clip-path="url(#clip462)" cx="1118.65" cy="1189.71" r="7.2" fill="#80c4ac" fill-rule="evenodd" fill-opacity="0.6" stroke="#000000" stroke-opacity="0.6" stroke-width="3.072"/>
<circle clip-path="url(#clip462)" cx="1168.94" cy="1165.43" r="7.2" fill="#80c4ac" fill-rule="evenodd" fill-opacity="0.6" stroke="#000000" stroke-opacity="0.6" stroke-width="3.072"/>
<circle clip-path="url(#clip462)" cx="1191.92" cy="1132.95" r="7.2" fill="#80c4ac" fill-rule="evenodd" fill-opacity="0.6" stroke="#000000" stroke-opacity="0.6" stroke-width="3.072"/>
<circle clip-path="url(#clip462)" cx="1141.63" cy="1100.47" r="7.2" fill="#80c4ac" fill-rule="evenodd" fill-opacity="0.6" stroke="#000000" stroke-opacity="0.6" stroke-width="3.072"/>
<circle clip-path="url(#clip462)" cx="1091.33" cy="1067.98" r="7.2" fill="#80c4ac" fill-rule="evenodd" fill-opacity="0.6" stroke="#000000" stroke-opacity="0.6" stroke-width="3.072"/>
<circle clip-path="url(#clip462)" cx="1041.03" cy="1035.5" r="7.2" fill="#80c4ac" fill-rule="evenodd" fill-opacity="0.6" stroke="#000000" stroke-opacity="0.6" stroke-width="3.072"/>
<circle clip-path="url(#clip462)" cx="990.736" cy="1003.02" r="7.2" fill="#80c4ac" fill-rule="evenodd" fill-opacity="0.6" stroke="#000000" stroke-opacity="0.6" stroke-width="3.072"/>
<circle clip-path="url(#clip462)" cx="940.44" cy="970.536" r="7.2" fill="#80c4ac" fill-rule="evenodd" fill-opacity="0.6" stroke="#000000" stroke-opacity="0.6" stroke-width="3.072"/>
<circle clip-path="url(#clip462)" cx="890.143" cy="938.053" r="7.2" fill="#80c4ac" fill-rule="evenodd" fill-opacity="0.6" stroke="#000000" stroke-opacity="0.6" stroke-width="3.072"/>
<circle clip-path="url(#clip462)" cx="839.846" cy="905.57" r="7.2" fill="#80c4ac" fill-rule="evenodd" fill-opacity="0.6" stroke="#000000" stroke-opacity="0.6" stroke-width="3.072"/>
<circle clip-path="url(#clip462)" cx="789.549" cy="873.087" r="7.2" fill="#80c4ac" fill-rule="evenodd" fill-opacity="0.6" stroke="#000000" stroke-opacity="0.6" stroke-width="3.072"/>
<circle clip-path="url(#clip462)" cx="792.661" cy="840.604" r="7.2" fill="#80c4ac" fill-rule="evenodd" fill-opacity="0.6" stroke="#000000" stroke-opacity="0.6" stroke-width="3.072"/>
<circle clip-path="url(#clip462)" cx="842.958" cy="808.121" r="7.2" fill="#80c4ac" fill-rule="evenodd" fill-opacity="0.6" stroke="#000000" stroke-opacity="0.6" stroke-width="3.072"/>
<circle clip-path="url(#clip462)" cx="893.255" cy="775.638" r="7.2" fill="#80c4ac" fill-rule="evenodd" fill-opacity="0.6" stroke="#000000" stroke-opacity="0.6" stroke-width="3.072"/>
<circle clip-path="url(#clip462)" cx="943.552" cy="743.155" r="7.2" fill="#80c4ac" fill-rule="evenodd" fill-opacity="0.6" stroke="#000000" stroke-opacity="0.6" stroke-width="3.072"/>
<circle clip-path="url(#clip462)" cx="993.849" cy="710.672" r="7.2" fill="#80c4ac" fill-rule="evenodd" fill-opacity="0.6" stroke="#000000" stroke-opacity="0.6" stroke-width="3.072"/>
<circle clip-path="url(#clip462)" cx="1044.15" cy="678.19" r="7.2" fill="#80c4ac" fill-rule="evenodd" fill-opacity="0.6" stroke="#000000" stroke-opacity="0.6" stroke-width="3.072"/>
<circle clip-path="url(#clip462)" cx="1094.44" cy="645.707" r="7.2" fill="#80c4ac" fill-rule="evenodd" fill-opacity="0.6" stroke="#000000" stroke-opacity="0.6" stroke-width="3.072"/>
<circle clip-path="url(#clip462)" cx="1144.74" cy="613.224" r="7.2" fill="#80c4ac" fill-rule="evenodd" fill-opacity="0.6" stroke="#000000" stroke-opacity="0.6" stroke-width="3.072"/>
<circle clip-path="url(#clip462)" cx="1195.04" cy="580.741" r="7.2" fill="#80c4ac" fill-rule="evenodd" fill-opacity="0.6" stroke="#000000" stroke-opacity="0.6" stroke-width="3.072"/>
<circle clip-path="url(#clip462)" cx="1245.33" cy="548.258" r="7.2" fill="#80c4ac" fill-rule="evenodd" fill-opacity="0.6" stroke="#000000" stroke-opacity="0.6" stroke-width="3.072"/>
<circle clip-path="url(#clip462)" cx="1295.63" cy="515.775" r="7.2" fill="#80c4ac" fill-rule="evenodd" fill-opacity="0.6" stroke="#000000" stroke-opacity="0.6" stroke-width="3.072"/>
<circle clip-path="url(#clip462)" cx="1345.93" cy="483.292" r="7.2" fill="#80c4ac" fill-rule="evenodd" fill-opacity="0.6" stroke="#000000" stroke-opacity="0.6" stroke-width="3.072"/>
<circle clip-path="url(#clip462)" cx="1396.22" cy="450.809" r="7.2" fill="#80c4ac" fill-rule="evenodd" fill-opacity="0.6" stroke="#000000" stroke-opacity="0.6" stroke-width="3.072"/>
<circle clip-path="url(#clip462)" cx="1446.52" cy="418.326" r="7.2" fill="#80c4ac" fill-rule="evenodd" fill-opacity="0.6" stroke="#000000" stroke-opacity="0.6" stroke-width="3.072"/>
<circle clip-path="url(#clip462)" cx="1496.82" cy="385.843" r="7.2" fill="#80c4ac" fill-rule="evenodd" fill-opacity="0.6" stroke="#000000" stroke-opacity="0.6" stroke-width="3.072"/>
<circle clip-path="url(#clip462)" cx="1547.11" cy="353.361" r="7.2" fill="#80c4ac" fill-rule="evenodd" fill-opacity="0.6" stroke="#000000" stroke-opacity="0.6" stroke-width="3.072"/>
<circle clip-path="url(#clip462)" cx="1597.41" cy="320.878" r="7.2" fill="#80c4ac" fill-rule="evenodd" fill-opacity="0.6" stroke="#000000" stroke-opacity="0.6" stroke-width="3.072"/>
<circle clip-path="url(#clip462)" cx="1647.71" cy="288.395" r="7.2" fill="#80c4ac" fill-rule="evenodd" fill-opacity="0.6" stroke="#000000" stroke-opacity="0.6" stroke-width="3.072"/>
<circle clip-path="url(#clip462)" cx="1698" cy="255.912" r="7.2" fill="#80c4ac" fill-rule="evenodd" fill-opacity="0.6" stroke="#000000" stroke-opacity="0.6" stroke-width="3.072"/>
<circle clip-path="url(#clip462)" cx="1748.3" cy="223.429" r="7.2" fill="#80c4ac" fill-rule="evenodd" fill-opacity="0.6" stroke="#000000" stroke-opacity="0.6" stroke-width="3.072"/>
<circle clip-path="url(#clip462)" cx="1798.6" cy="190.946" r="7.2" fill="#80c4ac" fill-rule="evenodd" fill-opacity="0.6" stroke="#000000" stroke-opacity="0.6" stroke-width="3.072"/>
<circle clip-path="url(#clip462)" cx="1848.9" cy="158.463" r="7.2" fill="#80c4ac" fill-rule="evenodd" fill-opacity="0.6" stroke="#000000" stroke-opacity="0.6" stroke-width="3.072"/>
<circle clip-path="url(#clip462)" cx="1899.19" cy="167.379" r="7.2" fill="#80c4ac" fill-rule="evenodd" fill-opacity="0.6" stroke="#000000" stroke-opacity="0.6" stroke-width="3.072"/>
<circle clip-path="url(#clip462)" cx="1949.49" cy="199.861" r="7.2" fill="#80c4ac" fill-rule="evenodd" fill-opacity="0.6" stroke="#000000" stroke-opacity="0.6" stroke-width="3.072"/>
<circle clip-path="url(#clip462)" cx="1999.79" cy="232.344" r="7.2" fill="#80c4ac" fill-rule="evenodd" fill-opacity="0.6" stroke="#000000" stroke-opacity="0.6" stroke-width="3.072"/>
<circle clip-path="url(#clip462)" cx="2050.08" cy="264.827" r="7.2" fill="#80c4ac" fill-rule="evenodd" fill-opacity="0.6" stroke="#000000" stroke-opacity="0.6" stroke-width="3.072"/>
<circle clip-path="url(#clip462)" cx="2100.38" cy="297.31" r="7.2" fill="#80c4ac" fill-rule="evenodd" fill-opacity="0.6" stroke="#000000" stroke-opacity="0.6" stroke-width="3.072"/>
<circle clip-path="url(#clip462)" cx="2150.68" cy="329.793" r="7.2" fill="#80c4ac" fill-rule="evenodd" fill-opacity="0.6" stroke="#000000" stroke-opacity="0.6" stroke-width="3.072"/>
<circle clip-path="url(#clip462)" cx="2200.14" cy="362.276" r="7.2" fill="#80c4ac" fill-rule="evenodd" fill-opacity="0.6" stroke="#000000" stroke-opacity="0.6" stroke-width="3.072"/>
<circle clip-path="url(#clip462)" cx="2149.84" cy="394.759" r="7.2" fill="#80c4ac" fill-rule="evenodd" fill-opacity="0.6" stroke="#000000" stroke-opacity="0.6" stroke-width="3.072"/>
<circle clip-path="url(#clip462)" cx="2099.54" cy="427.242" r="7.2" fill="#80c4ac" fill-rule="evenodd" fill-opacity="0.6" stroke="#000000" stroke-opacity="0.6" stroke-width="3.072"/>
<circle clip-path="url(#clip462)" cx="2049.25" cy="459.725" r="7.2" fill="#80c4ac" fill-rule="evenodd" fill-opacity="0.6" stroke="#000000" stroke-opacity="0.6" stroke-width="3.072"/>
<circle clip-path="url(#clip462)" cx="1998.95" cy="492.208" r="7.2" fill="#80c4ac" fill-rule="evenodd" fill-opacity="0.6" stroke="#000000" stroke-opacity="0.6" stroke-width="3.072"/>
<circle clip-path="url(#clip462)" cx="1948.65" cy="524.69" r="7.2" fill="#80c4ac" fill-rule="evenodd" fill-opacity="0.6" stroke="#000000" stroke-opacity="0.6" stroke-width="3.072"/>
<circle clip-path="url(#clip462)" cx="1898.36" cy="557.173" r="7.2" fill="#80c4ac" fill-rule="evenodd" fill-opacity="0.6" stroke="#000000" stroke-opacity="0.6" stroke-width="3.072"/>
<circle clip-path="url(#clip462)" cx="1848.06" cy="589.656" r="7.2" fill="#80c4ac" fill-rule="evenodd" fill-opacity="0.6" stroke="#000000" stroke-opacity="0.6" stroke-width="3.072"/>
<circle clip-path="url(#clip462)" cx="1797.76" cy="622.139" r="7.2" fill="#80c4ac" fill-rule="evenodd" fill-opacity="0.6" stroke="#000000" stroke-opacity="0.6" stroke-width="3.072"/>
<circle clip-path="url(#clip462)" cx="1747.47" cy="654.622" r="7.2" fill="#80c4ac" fill-rule="evenodd" fill-opacity="0.6" stroke="#000000" stroke-opacity="0.6" stroke-width="3.072"/>
<circle clip-path="url(#clip462)" cx="1697.17" cy="687.105" r="7.2" fill="#80c4ac" fill-rule="evenodd" fill-opacity="0.6" stroke="#000000" stroke-opacity="0.6" stroke-width="3.072"/>
<circle clip-path="url(#clip462)" cx="1646.87" cy="719.588" r="7.2" fill="#80c4ac" fill-rule="evenodd" fill-opacity="0.6" stroke="#000000" stroke-opacity="0.6" stroke-width="3.072"/>
<circle clip-path="url(#clip462)" cx="1596.57" cy="752.071" r="7.2" fill="#80c4ac" fill-rule="evenodd" fill-opacity="0.6" stroke="#000000" stroke-opacity="0.6" stroke-width="3.072"/>
<circle clip-path="url(#clip462)" cx="1546.28" cy="784.554" r="7.2" fill="#80c4ac" fill-rule="evenodd" fill-opacity="0.6" stroke="#000000" stroke-opacity="0.6" stroke-width="3.072"/>
<circle clip-path="url(#clip462)" cx="1495.98" cy="817.037" r="7.2" fill="#80c4ac" fill-rule="evenodd" fill-opacity="0.6" stroke="#000000" stroke-opacity="0.6" stroke-width="3.072"/>
<circle clip-path="url(#clip462)" cx="1445.68" cy="849.519" r="7.2" fill="#80c4ac" fill-rule="evenodd" fill-opacity="0.6" stroke="#000000" stroke-opacity="0.6" stroke-width="3.072"/>
<circle clip-path="url(#clip462)" cx="1395.39" cy="882.002" r="7.2" fill="#80c4ac" fill-rule="evenodd" fill-opacity="0.6" stroke="#000000" stroke-opacity="0.6" stroke-width="3.072"/>
<circle clip-path="url(#clip462)" cx="1345.09" cy="914.485" r="7.2" fill="#80c4ac" fill-rule="evenodd" fill-opacity="0.6" stroke="#000000" stroke-opacity="0.6" stroke-width="3.072"/>
<circle clip-path="url(#clip462)" cx="1294.79" cy="946.968" r="7.2" fill="#80c4ac" fill-rule="evenodd" fill-opacity="0.6" stroke="#000000" stroke-opacity="0.6" stroke-width="3.072"/>
<circle clip-path="url(#clip462)" cx="1244.5" cy="979.451" r="7.2" fill="#80c4ac" fill-rule="evenodd" fill-opacity="0.6" stroke="#000000" stroke-opacity="0.6" stroke-width="3.072"/>
<circle clip-path="url(#clip462)" cx="1194.2" cy="1011.93" r="7.2" fill="#80c4ac" fill-rule="evenodd" fill-opacity="0.6" stroke="#000000" stroke-opacity="0.6" stroke-width="3.072"/>
<circle clip-path="url(#clip462)" cx="1313.89" cy="956.727" r="21.6" fill="#008000" fill-rule="evenodd" fill-opacity="1" stroke="#000000" stroke-opacity="1" stroke-width="3.072"/>
<circle clip-path="url(#clip462)" cx="1194.2" cy="1011.93" r="21.6" fill="#ff0000" fill-rule="evenodd" fill-opacity="1" stroke="#000000" stroke-opacity="1" stroke-width="3.072"/>
<path clip-path="url(#clip460)" d="M322.928 372.044 L775.779 372.044 L775.779 164.684 L322.928 164.684  Z" fill="#ffffff" fill-rule="evenodd" fill-opacity="1"/>
<polyline clip-path="url(#clip460)" style="stroke:#000000; stroke-linecap:round; stroke-linejoin:round; stroke-width:4; stroke-opacity:1; fill:none" points="322.928,372.044 775.779,372.044 775.779,164.684 322.928,164.684 322.928,372.044 "/>
<polyline clip-path="url(#clip460)" style="stroke:#80c4ac; stroke-linecap:round; stroke-linejoin:round; stroke-width:8; stroke-opacity:1; fill:none" points="345.156,216.524 478.523,216.524 "/>
<circle clip-path="url(#clip460)" cx="411.839" cy="216.524" r="18.432" fill="#80c4ac" fill-rule="evenodd" fill-opacity="0.6" stroke="#000000" stroke-opacity="0.6" stroke-width="7.86432"/>
<path clip-path="url(#clip460)" d="M501.283 199.244 L528.436 199.244 L528.436 202.809 L506.584 229.869 L528.968 229.869 L528.968 233.804 L500.751 233.804 L500.751 230.239 L522.603 203.179 L501.283 203.179 L501.283 199.244 Z" fill="#000000" fill-rule="nonzero" fill-opacity="1" /><path clip-path="url(#clip460)" d="M535.566 207.878 L539.825 207.878 L539.825 233.804 L535.566 233.804 L535.566 207.878 M535.566 197.785 L539.825 197.785 L539.825 203.179 L535.566 203.179 L535.566 197.785 Z" fill="#000000" fill-rule="nonzero" fill-opacity="1" /><path clip-path="url(#clip460)" d="M565.797 220.54 Q565.797 215.91 563.876 213.364 Q561.978 210.818 558.529 210.818 Q555.103 210.818 553.181 213.364 Q551.283 215.91 551.283 220.54 Q551.283 225.146 553.181 227.693 Q555.103 230.239 558.529 230.239 Q561.978 230.239 563.876 227.693 Q565.797 225.146 565.797 220.54 M570.056 230.586 Q570.056 237.206 567.116 240.424 Q564.177 243.665 558.112 243.665 Q555.866 243.665 553.876 243.318 Q551.885 242.993 550.01 242.299 L550.01 238.156 Q551.885 239.174 553.714 239.66 Q555.542 240.146 557.441 240.146 Q561.63 240.146 563.714 237.947 Q565.797 235.771 565.797 231.35 L565.797 229.244 Q564.478 231.535 562.417 232.669 Q560.357 233.804 557.487 233.804 Q552.718 233.804 549.802 230.169 Q546.885 226.535 546.885 220.54 Q546.885 214.521 549.802 210.887 Q552.718 207.253 557.487 207.253 Q560.357 207.253 562.417 208.387 Q564.478 209.521 565.797 211.813 L565.797 207.878 L570.056 207.878 L570.056 230.586 Z" fill="#000000" fill-rule="nonzero" fill-opacity="1" /><path clip-path="url(#clip460)" d="M577.024 199.244 L604.176 199.244 L604.176 202.809 L582.325 229.869 L604.709 229.869 L604.709 233.804 L576.491 233.804 L576.491 230.239 L598.343 203.179 L577.024 203.179 L577.024 199.244 Z" fill="#000000" fill-rule="nonzero" fill-opacity="1" /><path clip-path="url(#clip460)" d="M623.088 220.771 Q617.926 220.771 615.936 221.952 Q613.945 223.132 613.945 225.98 Q613.945 228.248 615.426 229.591 Q616.931 230.91 619.5 230.91 Q623.042 230.91 625.172 228.41 Q627.324 225.887 627.324 221.72 L627.324 220.771 L623.088 220.771 M631.584 219.012 L631.584 233.804 L627.324 233.804 L627.324 229.869 Q625.866 232.23 623.69 233.364 Q621.514 234.475 618.366 234.475 Q614.385 234.475 612.024 232.253 Q609.686 230.007 609.686 226.257 Q609.686 221.882 612.602 219.66 Q615.542 217.438 621.352 217.438 L627.324 217.438 L627.324 217.021 Q627.324 214.082 625.38 212.484 Q623.459 210.864 619.963 210.864 Q617.741 210.864 615.635 211.396 Q613.528 211.929 611.584 212.994 L611.584 209.058 Q613.922 208.156 616.121 207.716 Q618.32 207.253 620.403 207.253 Q626.028 207.253 628.806 210.17 Q631.584 213.086 631.584 219.012 Z" fill="#000000" fill-rule="nonzero" fill-opacity="1" /><path clip-path="url(#clip460)" d="M657.417 220.54 Q657.417 215.91 655.496 213.364 Q653.597 210.818 650.148 210.818 Q646.722 210.818 644.801 213.364 Q642.903 215.91 642.903 220.54 Q642.903 225.146 644.801 227.693 Q646.722 230.239 650.148 230.239 Q653.597 230.239 655.496 227.693 Q657.417 225.146 657.417 220.54 M661.676 230.586 Q661.676 237.206 658.736 240.424 Q655.797 243.665 649.732 243.665 Q647.486 243.665 645.496 243.318 Q643.505 242.993 641.63 242.299 L641.63 238.156 Q643.505 239.174 645.334 239.66 Q647.162 240.146 649.06 240.146 Q653.25 240.146 655.334 237.947 Q657.417 235.771 657.417 231.35 L657.417 229.244 Q656.097 231.535 654.037 232.669 Q651.977 233.804 649.107 233.804 Q644.338 233.804 641.422 230.169 Q638.505 226.535 638.505 220.54 Q638.505 214.521 641.422 210.887 Q644.338 207.253 649.107 207.253 Q651.977 207.253 654.037 208.387 Q656.097 209.521 657.417 211.813 L657.417 207.878 L661.676 207.878 L661.676 230.586 Z" fill="#000000" fill-rule="nonzero" fill-opacity="1" /><path clip-path="url(#clip460)" d="M690.148 241.674 L690.148 244.984 L665.519 244.984 L665.519 241.674 L690.148 241.674 Z" fill="#000000" fill-rule="nonzero" fill-opacity="1" /><path clip-path="url(#clip460)" d="M698.782 229.869 L715.102 229.869 L715.102 233.804 L693.157 233.804 L693.157 229.869 Q695.819 227.114 700.403 222.484 Q705.009 217.832 706.19 216.489 Q708.435 213.966 709.315 212.23 Q710.218 210.471 710.218 208.781 Q710.218 206.026 708.273 204.29 Q706.352 202.554 703.25 202.554 Q701.051 202.554 698.597 203.318 Q696.167 204.082 693.389 205.633 L693.389 200.91 Q696.213 199.776 698.667 199.197 Q701.12 198.619 703.157 198.619 Q708.528 198.619 711.722 201.304 Q714.917 203.989 714.917 208.48 Q714.917 210.609 714.106 212.531 Q713.319 214.429 711.213 217.021 Q710.634 217.693 707.532 220.91 Q704.431 224.105 698.782 229.869 Z" fill="#000000" fill-rule="nonzero" fill-opacity="1" /><path clip-path="url(#clip460)" d="M729.176 203.086 L729.176 229.961 L734.824 229.961 Q741.977 229.961 745.287 226.72 Q748.62 223.48 748.62 216.489 Q748.62 209.545 745.287 206.327 Q741.977 203.086 734.824 203.086 L729.176 203.086 M724.5 199.244 L734.106 199.244 Q744.153 199.244 748.852 203.434 Q753.551 207.6 753.551 216.489 Q753.551 225.424 748.828 229.614 Q744.106 233.804 734.106 233.804 L724.5 233.804 L724.5 199.244 Z" fill="#000000" fill-rule="nonzero" fill-opacity="1" /><circle clip-path="url(#clip460)" cx="411.839" cy="268.364" r="21.2677" fill="#008000" fill-rule="evenodd" fill-opacity="1" stroke="#000000" stroke-opacity="1" stroke-width="3.02474"/>
<path clip-path="url(#clip460)" d="M522.996 252.218 L522.996 256.778 Q520.334 255.505 517.973 254.88 Q515.612 254.255 513.413 254.255 Q509.594 254.255 507.51 255.736 Q505.45 257.218 505.45 259.949 Q505.45 262.241 506.816 263.422 Q508.205 264.579 512.047 265.297 L514.871 265.875 Q520.103 266.871 522.58 269.394 Q525.08 271.894 525.08 276.107 Q525.08 281.13 521.7 283.722 Q518.344 286.315 511.839 286.315 Q509.385 286.315 506.607 285.759 Q503.853 285.204 500.89 284.116 L500.89 279.301 Q503.737 280.898 506.469 281.709 Q509.2 282.519 511.839 282.519 Q515.844 282.519 518.019 280.945 Q520.195 279.371 520.195 276.454 Q520.195 273.908 518.621 272.472 Q517.07 271.037 513.506 270.32 L510.658 269.764 Q505.427 268.723 503.089 266.5 Q500.751 264.278 500.751 260.32 Q500.751 255.736 503.969 253.098 Q507.209 250.459 512.881 250.459 Q515.311 250.459 517.834 250.899 Q520.357 251.338 522.996 252.218 Z" fill="#000000" fill-rule="nonzero" fill-opacity="1" /><path clip-path="url(#clip460)" d="M536.399 252.357 L536.399 259.718 L545.172 259.718 L545.172 263.028 L536.399 263.028 L536.399 277.102 Q536.399 280.273 537.255 281.176 Q538.135 282.079 540.797 282.079 L545.172 282.079 L545.172 285.644 L540.797 285.644 Q535.867 285.644 533.992 283.815 Q532.117 281.963 532.117 277.102 L532.117 263.028 L528.992 263.028 L528.992 259.718 L532.117 259.718 L532.117 252.357 L536.399 252.357 Z" fill="#000000" fill-rule="nonzero" fill-opacity="1" /><path clip-path="url(#clip460)" d="M562.556 272.611 Q557.394 272.611 555.404 273.792 Q553.413 274.972 553.413 277.82 Q553.413 280.088 554.894 281.431 Q556.399 282.75 558.968 282.75 Q562.51 282.75 564.64 280.25 Q566.792 277.727 566.792 273.56 L566.792 272.611 L562.556 272.611 M571.052 270.852 L571.052 285.644 L566.792 285.644 L566.792 281.709 Q565.334 284.07 563.158 285.204 Q560.982 286.315 557.834 286.315 Q553.853 286.315 551.492 284.093 Q549.154 281.847 549.154 278.097 Q549.154 273.722 552.07 271.5 Q555.01 269.278 560.82 269.278 L566.792 269.278 L566.792 268.861 Q566.792 265.922 564.848 264.324 Q562.927 262.704 559.431 262.704 Q557.209 262.704 555.103 263.236 Q552.996 263.769 551.052 264.834 L551.052 260.898 Q553.39 259.996 555.589 259.556 Q557.788 259.093 559.871 259.093 Q565.496 259.093 568.274 262.01 Q571.052 264.926 571.052 270.852 Z" fill="#000000" fill-rule="nonzero" fill-opacity="1" /><path clip-path="url(#clip460)" d="M594.848 263.699 Q594.13 263.283 593.274 263.098 Q592.44 262.889 591.422 262.889 Q587.811 262.889 585.866 265.25 Q583.945 267.588 583.945 271.986 L583.945 285.644 L579.663 285.644 L579.663 259.718 L583.945 259.718 L583.945 263.746 Q585.288 261.385 587.44 260.25 Q589.593 259.093 592.672 259.093 Q593.112 259.093 593.644 259.162 Q594.176 259.209 594.825 259.324 L594.848 263.699 Z" fill="#000000" fill-rule="nonzero" fill-opacity="1" /><path clip-path="url(#clip460)" d="M603.528 252.357 L603.528 259.718 L612.301 259.718 L612.301 263.028 L603.528 263.028 L603.528 277.102 Q603.528 280.273 604.385 281.176 Q605.264 282.079 607.926 282.079 L612.301 282.079 L612.301 285.644 L607.926 285.644 Q602.996 285.644 601.121 283.815 Q599.246 281.963 599.246 277.102 L599.246 263.028 L596.121 263.028 L596.121 259.718 L599.246 259.718 L599.246 252.357 L603.528 252.357 Z" fill="#000000" fill-rule="nonzero" fill-opacity="1" /><circle clip-path="url(#clip460)" cx="411.839" cy="320.204" r="21.2677" fill="#ff0000" fill-rule="evenodd" fill-opacity="1" stroke="#000000" stroke-opacity="1" stroke-width="3.02474"/>
<path clip-path="url(#clip460)" d="M500.751 302.924 L522.603 302.924 L522.603 306.859 L505.427 306.859 L505.427 317.09 L521.885 317.09 L521.885 321.025 L505.427 321.025 L505.427 333.549 L523.019 333.549 L523.019 337.484 L500.751 337.484 L500.751 302.924 Z" fill="#000000" fill-rule="nonzero" fill-opacity="1" /><path clip-path="url(#clip460)" d="M552.07 321.836 L552.07 337.484 L547.811 337.484 L547.811 321.975 Q547.811 318.294 546.376 316.465 Q544.941 314.637 542.07 314.637 Q538.621 314.637 536.63 316.836 Q534.64 319.035 534.64 322.831 L534.64 337.484 L530.357 337.484 L530.357 311.558 L534.64 311.558 L534.64 315.586 Q536.168 313.248 538.228 312.09 Q540.311 310.933 543.019 310.933 Q547.487 310.933 549.779 313.711 Q552.07 316.465 552.07 321.836 Z" fill="#000000" fill-rule="nonzero" fill-opacity="1" /><path clip-path="url(#clip460)" d="M577.626 315.493 L577.626 301.465 L581.885 301.465 L581.885 337.484 L577.626 337.484 L577.626 333.595 Q576.283 335.91 574.223 337.044 Q572.186 338.155 569.315 338.155 Q564.616 338.155 561.653 334.405 Q558.714 330.655 558.714 324.544 Q558.714 318.433 561.653 314.683 Q564.616 310.933 569.315 310.933 Q572.186 310.933 574.223 312.067 Q576.283 313.178 577.626 315.493 M563.112 324.544 Q563.112 329.243 565.033 331.928 Q566.978 334.59 570.357 334.59 Q573.737 334.59 575.681 331.928 Q577.626 329.243 577.626 324.544 Q577.626 319.845 575.681 317.183 Q573.737 314.498 570.357 314.498 Q566.978 314.498 565.033 317.183 Q563.112 319.845 563.112 324.544 Z" fill="#000000" fill-rule="nonzero" fill-opacity="1" /></svg>
