<?xml version="1.0" encoding="utf-8"?>
<svg xmlns="http://www.w3.org/2000/svg" xmlns:xlink="http://www.w3.org/1999/xlink" width="576" height="384" viewBox="0 0 2304 1536">
<defs>
  <clipPath id="clip780">
    <rect x="0" y="0" width="2304" height="1536"/>
  </clipPath>
</defs>
<path clip-path="url(#clip780)" d="M0 1536 L2304 1536 L2304 8.52651e-14 L0 8.52651e-14  Z" fill="#f0f1eb" fill-rule="evenodd" fill-opacity="1"/>
<defs>
  <clipPath id="clip781">
    <rect x="460" y="0" width="1614" height="1536"/>
  </clipPath>
</defs>
<path clip-path="url(#clip780)" d="M256.244 1359.82 L2256.76 1359.82 L2256.76 123.472 L256.244 123.472  Z" fill="#f0f1eb" fill-rule="evenodd" fill-opacity="1"/>
<defs>
  <clipPath id="clip782">
    <rect x="256" y="123" width="2002" height="1237"/>
  </clipPath>
</defs>
<polyline clip-path="url(#clip782)" style="stroke:#000000; stroke-linecap:round; stroke-linejoin:round; stroke-width:2; stroke-opacity:0.1; fill:none" points="426.387,1359.82 426.387,123.472 "/>
<polyline clip-path="url(#clip782)" style="stroke:#000000; stroke-linecap:round; stroke-linejoin:round; stroke-width:2; stroke-opacity:0.1; fill:none" points="726.791,1359.82 726.791,123.472 "/>
<polyline clip-path="url(#clip782)" style="stroke:#000000; stroke-linecap:round; stroke-linejoin:round; stroke-width:2; stroke-opacity:0.1; fill:none" points="1027.19,1359.82 1027.19,123.472 "/>
<polyline clip-path="url(#clip782)" style="stroke:#000000; stroke-linecap:round; stroke-linejoin:round; stroke-width:2; stroke-opacity:0.1; fill:none" points="1327.6,1359.82 1327.6,123.472 "/>
<polyline clip-path="url(#clip782)" style="stroke:#000000; stroke-linecap:round; stroke-linejoin:round; stroke-width:2; stroke-opacity:0.1; fill:none" points="1628,1359.82 1628,123.472 "/>
<polyline clip-path="url(#clip782)" style="stroke:#000000; stroke-linecap:round; stroke-linejoin:round; stroke-width:2; stroke-opacity:0.1; fill:none" points="1928.41,1359.82 1928.41,123.472 "/>
<polyline clip-path="url(#clip782)" style="stroke:#000000; stroke-linecap:round; stroke-linejoin:round; stroke-width:2; stroke-opacity:0.1; fill:none" points="2228.81,1359.82 2228.81,123.472 "/>
<polyline clip-path="url(#clip780)" style="stroke:#000000; stroke-linecap:round; stroke-linejoin:round; stroke-width:4; stroke-opacity:1; fill:none" points="256.244,1359.82 2256.76,1359.82 "/>
<polyline clip-path="url(#clip780)" style="stroke:#000000; stroke-linecap:round; stroke-linejoin:round; stroke-width:4; stroke-opacity:1; fill:none" points="426.387,1359.82 426.387,1340.92 "/>
<polyline clip-path="url(#clip780)" style="stroke:#000000; stroke-linecap:round; stroke-linejoin:round; stroke-width:4; stroke-opacity:1; fill:none" points="726.791,1359.82 726.791,1340.92 "/>
<polyline clip-path="url(#clip780)" style="stroke:#000000; stroke-linecap:round; stroke-linejoin:round; stroke-width:4; stroke-opacity:1; fill:none" points="1027.19,1359.82 1027.19,1340.92 "/>
<polyline clip-path="url(#clip780)" style="stroke:#000000; stroke-linecap:round; stroke-linejoin:round; stroke-width:4; stroke-opacity:1; fill:none" points="1327.6,1359.82 1327.6,1340.92 "/>
<polyline clip-path="url(#clip780)" style="stroke:#000000; stroke-linecap:round; stroke-linejoin:round; stroke-width:4; stroke-opacity:1; fill:none" points="1628,1359.82 1628,1340.92 "/>
<polyline clip-path="url(#clip780)" style="stroke:#000000; stroke-linecap:round; stroke-linejoin:round; stroke-width:4; stroke-opacity:1; fill:none" points="1928.41,1359.82 1928.41,1340.92 "/>
<polyline clip-path="url(#clip780)" style="stroke:#000000; stroke-linecap:round; stroke-linejoin:round; stroke-width:4; stroke-opacity:1; fill:none" points="2228.81,1359.82 2228.81,1340.92 "/>
<path clip-path="url(#clip780)" d="M373.412 1404.62 L403.088 1404.62 L403.088 1408.56 L373.412 1408.56 L373.412 1404.62 Z" fill="#000000" fill-rule="nonzero" fill-opacity="1" /><path clip-path="url(#clip780)" d="M413.991 1417.52 L421.63 1417.52 L421.63 1391.15 L413.32 1392.82 L413.32 1388.56 L421.583 1386.89 L426.259 1386.89 L426.259 1417.52 L433.898 1417.52 L433.898 1421.45 L413.991 1421.45 L413.991 1417.52 Z" fill="#000000" fill-rule="nonzero" fill-opacity="1" /><path clip-path="url(#clip780)" d="M443.343 1415.57 L448.227 1415.57 L448.227 1421.45 L443.343 1421.45 L443.343 1415.57 Z" fill="#000000" fill-rule="nonzero" fill-opacity="1" /><path clip-path="url(#clip780)" d="M458.458 1386.89 L476.815 1386.89 L476.815 1390.83 L462.741 1390.83 L462.741 1399.3 Q463.759 1398.95 464.778 1398.79 Q465.796 1398.6 466.815 1398.6 Q472.602 1398.6 475.981 1401.78 Q479.361 1404.95 479.361 1410.36 Q479.361 1415.94 475.889 1419.04 Q472.417 1422.12 466.097 1422.12 Q463.921 1422.12 461.653 1421.75 Q459.407 1421.38 457 1420.64 L457 1415.94 Q459.083 1417.08 461.306 1417.63 Q463.528 1418.19 466.005 1418.19 Q470.009 1418.19 472.347 1416.08 Q474.685 1413.98 474.685 1410.36 Q474.685 1406.75 472.347 1404.65 Q470.009 1402.54 466.005 1402.54 Q464.13 1402.54 462.255 1402.96 Q460.403 1403.37 458.458 1404.25 L458.458 1386.89 Z" fill="#000000" fill-rule="nonzero" fill-opacity="1" /><path clip-path="url(#clip780)" d="M673.319 1404.62 L702.995 1404.62 L702.995 1408.56 L673.319 1408.56 L673.319 1404.62 Z" fill="#000000" fill-rule="nonzero" fill-opacity="1" /><path clip-path="url(#clip780)" d="M713.897 1417.52 L721.536 1417.52 L721.536 1391.15 L713.226 1392.82 L713.226 1388.56 L721.49 1386.89 L726.166 1386.89 L726.166 1417.52 L733.805 1417.52 L733.805 1421.45 L713.897 1421.45 L713.897 1417.52 Z" fill="#000000" fill-rule="nonzero" fill-opacity="1" /><path clip-path="url(#clip780)" d="M743.249 1415.57 L748.133 1415.57 L748.133 1421.45 L743.249 1421.45 L743.249 1415.57 Z" fill="#000000" fill-rule="nonzero" fill-opacity="1" /><path clip-path="url(#clip780)" d="M768.318 1389.97 Q764.707 1389.97 762.879 1393.54 Q761.073 1397.08 761.073 1404.21 Q761.073 1411.31 762.879 1414.88 Q764.707 1418.42 768.318 1418.42 Q771.953 1418.42 773.758 1414.88 Q775.587 1411.31 775.587 1404.21 Q775.587 1397.08 773.758 1393.54 Q771.953 1389.97 768.318 1389.97 M768.318 1386.27 Q774.128 1386.27 777.184 1390.87 Q780.263 1395.46 780.263 1404.21 Q780.263 1412.93 777.184 1417.54 Q774.128 1422.12 768.318 1422.12 Q762.508 1422.12 759.429 1417.54 Q756.374 1412.93 756.374 1404.21 Q756.374 1395.46 759.429 1390.87 Q762.508 1386.27 768.318 1386.27 Z" fill="#000000" fill-rule="nonzero" fill-opacity="1" /><path clip-path="url(#clip780)" d="M974.221 1404.62 L1003.9 1404.62 L1003.9 1408.56 L974.221 1408.56 L974.221 1404.62 Z" fill="#000000" fill-rule="nonzero" fill-opacity="1" /><path clip-path="url(#clip780)" d="M1023.99 1389.97 Q1020.38 1389.97 1018.55 1393.54 Q1016.74 1397.08 1016.74 1404.21 Q1016.74 1411.31 1018.55 1414.88 Q1020.38 1418.42 1023.99 1418.42 Q1027.62 1418.42 1029.43 1414.88 Q1031.26 1411.31 1031.26 1404.21 Q1031.26 1397.08 1029.43 1393.54 Q1027.62 1389.97 1023.99 1389.97 M1023.99 1386.27 Q1029.8 1386.27 1032.85 1390.87 Q1035.93 1395.46 1035.93 1404.21 Q1035.93 1412.93 1032.85 1417.54 Q1029.8 1422.12 1023.99 1422.12 Q1018.18 1422.12 1015.1 1417.54 Q1012.04 1412.93 1012.04 1404.21 Q1012.04 1395.46 1015.1 1390.87 Q1018.18 1386.27 1023.99 1386.27 Z" fill="#000000" fill-rule="nonzero" fill-opacity="1" /><path clip-path="url(#clip780)" d="M1044.15 1415.57 L1049.03 1415.57 L1049.03 1421.45 L1044.15 1421.45 L1044.15 1415.57 Z" fill="#000000" fill-rule="nonzero" fill-opacity="1" /><path clip-path="url(#clip780)" d="M1059.27 1386.89 L1077.62 1386.89 L1077.62 1390.83 L1063.55 1390.83 L1063.55 1399.3 Q1064.57 1398.95 1065.59 1398.79 Q1066.6 1398.6 1067.62 1398.6 Q1073.41 1398.6 1076.79 1401.78 Q1080.17 1404.95 1080.17 1410.36 Q1080.17 1415.94 1076.7 1419.04 Q1073.22 1422.12 1066.91 1422.12 Q1064.73 1422.12 1062.46 1421.75 Q1060.22 1421.38 1057.81 1420.64 L1057.81 1415.94 Q1059.89 1417.08 1062.11 1417.63 Q1064.34 1418.19 1066.81 1418.19 Q1070.82 1418.19 1073.16 1416.08 Q1075.49 1413.98 1075.49 1410.36 Q1075.49 1406.75 1073.16 1404.65 Q1070.82 1402.54 1066.81 1402.54 Q1064.94 1402.54 1063.06 1402.96 Q1061.21 1403.37 1059.27 1404.25 L1059.27 1386.89 Z" fill="#000000" fill-rule="nonzero" fill-opacity="1" /><path clip-path="url(#clip780)" d="M1304.98 1389.97 Q1301.37 1389.97 1299.54 1393.54 Q1297.74 1397.08 1297.74 1404.21 Q1297.74 1411.31 1299.54 1414.88 Q1301.37 1418.42 1304.98 1418.42 Q1308.62 1418.42 1310.42 1414.88 Q1312.25 1411.31 1312.25 1404.21 Q1312.25 1397.08 1310.42 1393.54 Q1308.62 1389.97 1304.98 1389.97 M1304.98 1386.27 Q1310.79 1386.27 1313.85 1390.87 Q1316.93 1395.46 1316.93 1404.21 Q1316.93 1412.93 1313.85 1417.54 Q1310.79 1422.12 1304.98 1422.12 Q1299.17 1422.12 1296.09 1417.54 Q1293.04 1412.93 1293.04 1404.21 Q1293.04 1395.46 1296.09 1390.87 Q1299.17 1386.27 1304.98 1386.27 Z" fill="#000000" fill-rule="nonzero" fill-opacity="1" /><path clip-path="url(#clip780)" d="M1325.15 1415.57 L1330.03 1415.57 L1330.03 1421.45 L1325.15 1421.45 L1325.15 1415.57 Z" fill="#000000" fill-rule="nonzero" fill-opacity="1" /><path clip-path="url(#clip780)" d="M1350.21 1389.97 Q1346.6 1389.97 1344.77 1393.54 Q1342.97 1397.08 1342.97 1404.21 Q1342.97 1411.31 1344.77 1414.88 Q1346.6 1418.42 1350.21 1418.42 Q1353.85 1418.42 1355.65 1414.88 Q1357.48 1411.31 1357.48 1404.21 Q1357.48 1397.08 1355.65 1393.54 Q1353.85 1389.97 1350.21 1389.97 M1350.21 1386.27 Q1356.02 1386.27 1359.08 1390.87 Q1362.16 1395.46 1362.16 1404.21 Q1362.16 1412.93 1359.08 1417.54 Q1356.02 1422.12 1350.21 1422.12 Q1344.4 1422.12 1341.33 1417.54 Q1338.27 1412.93 1338.27 1404.21 Q1338.27 1395.46 1341.33 1390.87 Q1344.4 1386.27 1350.21 1386.27 Z" fill="#000000" fill-rule="nonzero" fill-opacity="1" /><path clip-path="url(#clip780)" d="M1605.88 1389.97 Q1602.27 1389.97 1600.45 1393.54 Q1598.64 1397.08 1598.64 1404.21 Q1598.64 1411.31 1600.45 1414.88 Q1602.27 1418.42 1605.88 1418.42 Q1609.52 1418.42 1611.32 1414.88 Q1613.15 1411.31 1613.15 1404.21 Q1613.15 1397.08 1611.32 1393.54 Q1609.52 1389.97 1605.88 1389.97 M1605.88 1386.27 Q1611.7 1386.27 1614.75 1390.87 Q1617.83 1395.46 1617.83 1404.21 Q1617.83 1412.93 1614.75 1417.54 Q1611.7 1422.12 1605.88 1422.12 Q1600.07 1422.12 1597 1417.54 Q1593.94 1412.93 1593.94 1404.21 Q1593.94 1395.46 1597 1390.87 Q1600.07 1386.27 1605.88 1386.27 Z" fill="#000000" fill-rule="nonzero" fill-opacity="1" /><path clip-path="url(#clip780)" d="M1626.05 1415.57 L1630.93 1415.57 L1630.93 1421.45 L1626.05 1421.45 L1626.05 1415.57 Z" fill="#000000" fill-rule="nonzero" fill-opacity="1" /><path clip-path="url(#clip780)" d="M1641.16 1386.89 L1659.52 1386.89 L1659.52 1390.83 L1645.44 1390.83 L1645.44 1399.3 Q1646.46 1398.95 1647.48 1398.79 Q1648.5 1398.6 1649.52 1398.6 Q1655.31 1398.6 1658.69 1401.78 Q1662.07 1404.95 1662.07 1410.36 Q1662.07 1415.94 1658.59 1419.04 Q1655.12 1422.12 1648.8 1422.12 Q1646.63 1422.12 1644.36 1421.75 Q1642.11 1421.38 1639.7 1420.64 L1639.7 1415.94 Q1641.79 1417.08 1644.01 1417.63 Q1646.23 1418.19 1648.71 1418.19 Q1652.71 1418.19 1655.05 1416.08 Q1657.39 1413.98 1657.39 1410.36 Q1657.39 1406.75 1655.05 1404.65 Q1652.71 1402.54 1648.71 1402.54 Q1646.83 1402.54 1644.96 1402.96 Q1643.11 1403.37 1641.16 1404.25 L1641.16 1386.89 Z" fill="#000000" fill-rule="nonzero" fill-opacity="1" /><path clip-path="url(#clip780)" d="M1895.56 1417.52 L1903.2 1417.52 L1903.2 1391.15 L1894.89 1392.82 L1894.89 1388.56 L1903.15 1386.89 L1907.83 1386.89 L1907.83 1417.52 L1915.47 1417.52 L1915.47 1421.45 L1895.56 1421.45 L1895.56 1417.52 Z" fill="#000000" fill-rule="nonzero" fill-opacity="1" /><path clip-path="url(#clip780)" d="M1924.91 1415.57 L1929.8 1415.57 L1929.8 1421.45 L1924.91 1421.45 L1924.91 1415.57 Z" fill="#000000" fill-rule="nonzero" fill-opacity="1" /><path clip-path="url(#clip780)" d="M1949.98 1389.97 Q1946.37 1389.97 1944.54 1393.54 Q1942.74 1397.08 1942.74 1404.21 Q1942.74 1411.31 1944.54 1414.88 Q1946.37 1418.42 1949.98 1418.42 Q1953.62 1418.42 1955.42 1414.88 Q1957.25 1411.31 1957.25 1404.21 Q1957.25 1397.08 1955.42 1393.54 Q1953.62 1389.97 1949.98 1389.97 M1949.98 1386.27 Q1955.79 1386.27 1958.85 1390.87 Q1961.93 1395.46 1961.93 1404.21 Q1961.93 1412.93 1958.85 1417.54 Q1955.79 1422.12 1949.98 1422.12 Q1944.17 1422.12 1941.09 1417.54 Q1938.04 1412.93 1938.04 1404.21 Q1938.04 1395.46 1941.09 1390.87 Q1944.17 1386.27 1949.98 1386.27 Z" fill="#000000" fill-rule="nonzero" fill-opacity="1" /><path clip-path="url(#clip780)" d="M2196.46 1417.52 L2204.1 1417.52 L2204.1 1391.15 L2195.79 1392.82 L2195.79 1388.56 L2204.05 1386.89 L2208.73 1386.89 L2208.73 1417.52 L2216.37 1417.52 L2216.37 1421.45 L2196.46 1421.45 L2196.46 1417.52 Z" fill="#000000" fill-rule="nonzero" fill-opacity="1" /><path clip-path="url(#clip780)" d="M2225.81 1415.57 L2230.7 1415.57 L2230.7 1421.45 L2225.81 1421.45 L2225.81 1415.57 Z" fill="#000000" fill-rule="nonzero" fill-opacity="1" /><path clip-path="url(#clip780)" d="M2240.93 1386.89 L2259.29 1386.89 L2259.29 1390.83 L2245.21 1390.83 L2245.21 1399.3 Q2246.23 1398.95 2247.25 1398.79 Q2248.27 1398.6 2249.29 1398.6 Q2255.07 1398.6 2258.45 1401.78 Q2261.83 1404.95 2261.83 1410.36 Q2261.83 1415.94 2258.36 1419.04 Q2254.89 1422.12 2248.57 1422.12 Q2246.39 1422.12 2244.12 1421.75 Q2241.88 1421.38 2239.47 1420.64 L2239.47 1415.94 Q2241.55 1417.08 2243.78 1417.63 Q2246 1418.19 2248.48 1418.19 Q2252.48 1418.19 2254.82 1416.08 Q2257.16 1413.98 2257.16 1410.36 Q2257.16 1406.75 2254.82 1404.65 Q2252.48 1402.54 2248.48 1402.54 Q2246.6 1402.54 2244.73 1402.96 Q2242.87 1403.37 2240.93 1404.25 L2240.93 1386.89 Z" fill="#000000" fill-rule="nonzero" fill-opacity="1" /><path clip-path="url(#clip780)" d="M1238.33 1455.72 L1245.23 1455.72 L1257.04 1473.39 L1268.91 1455.72 L1275.82 1455.72 L1260.54 1478.54 L1276.84 1503.24 L1269.93 1503.24 L1256.56 1483.03 L1243.1 1503.24 L1236.16 1503.24 L1253.13 1477.88 L1238.33 1455.72 Z" fill="#000000" fill-rule="nonzero" fill-opacity="1" /><polyline clip-path="url(#clip782)" style="stroke:#000000; stroke-linecap:round; stroke-linejoin:round; stroke-width:2; stroke-opacity:0.1; fill:none" points="256.244,1220.1 2256.76,1220.1 "/>
<polyline clip-path="url(#clip782)" style="stroke:#000000; stroke-linecap:round; stroke-linejoin:round; stroke-width:2; stroke-opacity:0.1; fill:none" points="256.244,1014.49 2256.76,1014.49 "/>
<polyline clip-path="url(#clip782)" style="stroke:#000000; stroke-linecap:round; stroke-linejoin:round; stroke-width:2; stroke-opacity:0.1; fill:none" points="256.244,808.882 2256.76,808.882 "/>
<polyline clip-path="url(#clip782)" style="stroke:#000000; stroke-linecap:round; stroke-linejoin:round; stroke-width:2; stroke-opacity:0.1; fill:none" points="256.244,603.275 2256.76,603.275 "/>
<polyline clip-path="url(#clip782)" style="stroke:#000000; stroke-linecap:round; stroke-linejoin:round; stroke-width:2; stroke-opacity:0.1; fill:none" points="256.244,397.667 2256.76,397.667 "/>
<polyline clip-path="url(#clip782)" style="stroke:#000000; stroke-linecap:round; stroke-linejoin:round; stroke-width:2; stroke-opacity:0.1; fill:none" points="256.244,192.06 2256.76,192.06 "/>
<polyline clip-path="url(#clip780)" style="stroke:#000000; stroke-linecap:round; stroke-linejoin:round; stroke-width:4; stroke-opacity:1; fill:none" points="256.244,1359.82 256.244,123.472 "/>
<polyline clip-path="url(#clip780)" style="stroke:#000000; stroke-linecap:round; stroke-linejoin:round; stroke-width:4; stroke-opacity:1; fill:none" points="256.244,1220.1 275.142,1220.1 "/>
<polyline clip-path="url(#clip780)" style="stroke:#000000; stroke-linecap:round; stroke-linejoin:round; stroke-width:4; stroke-opacity:1; fill:none" points="256.244,1014.49 275.142,1014.49 "/>
<polyline clip-path="url(#clip780)" style="stroke:#000000; stroke-linecap:round; stroke-linejoin:round; stroke-width:4; stroke-opacity:1; fill:none" points="256.244,808.882 275.142,808.882 "/>
<polyline clip-path="url(#clip780)" style="stroke:#000000; stroke-linecap:round; stroke-linejoin:round; stroke-width:4; stroke-opacity:1; fill:none" points="256.244,603.275 275.142,603.275 "/>
<polyline clip-path="url(#clip780)" style="stroke:#000000; stroke-linecap:round; stroke-linejoin:round; stroke-width:4; stroke-opacity:1; fill:none" points="256.244,397.667 275.142,397.667 "/>
<polyline clip-path="url(#clip780)" style="stroke:#000000; stroke-linecap:round; stroke-linejoin:round; stroke-width:4; stroke-opacity:1; fill:none" points="256.244,192.06 275.142,192.06 "/>
<path clip-path="url(#clip780)" d="M115.736 1220.55 L145.411 1220.55 L145.411 1224.48 L115.736 1224.48 L115.736 1220.55 Z" fill="#000000" fill-rule="nonzero" fill-opacity="1" /><path clip-path="url(#clip780)" d="M156.314 1233.44 L163.953 1233.44 L163.953 1207.08 L155.643 1208.74 L155.643 1204.48 L163.907 1202.82 L168.582 1202.82 L168.582 1233.44 L176.221 1233.44 L176.221 1237.38 L156.314 1237.38 L156.314 1233.44 Z" fill="#000000" fill-rule="nonzero" fill-opacity="1" /><path clip-path="url(#clip780)" d="M185.666 1231.5 L190.55 1231.5 L190.55 1237.38 L185.666 1237.38 L185.666 1231.5 Z" fill="#000000" fill-rule="nonzero" fill-opacity="1" /><path clip-path="url(#clip780)" d="M200.781 1202.82 L219.138 1202.82 L219.138 1206.75 L205.064 1206.75 L205.064 1215.22 Q206.082 1214.88 207.101 1214.72 Q208.119 1214.53 209.138 1214.53 Q214.925 1214.53 218.304 1217.7 Q221.684 1220.87 221.684 1226.29 Q221.684 1231.87 218.212 1234.97 Q214.74 1238.05 208.42 1238.05 Q206.244 1238.05 203.976 1237.68 Q201.73 1237.31 199.323 1236.57 L199.323 1231.87 Q201.406 1233 203.629 1233.56 Q205.851 1234.11 208.328 1234.11 Q212.332 1234.11 214.67 1232.01 Q217.008 1229.9 217.008 1226.29 Q217.008 1222.68 214.67 1220.57 Q212.332 1218.47 208.328 1218.47 Q206.453 1218.47 204.578 1218.88 Q202.726 1219.3 200.781 1220.18 L200.781 1202.82 Z" fill="#000000" fill-rule="nonzero" fill-opacity="1" /><path clip-path="url(#clip780)" d="M114.74 1014.94 L144.416 1014.94 L144.416 1018.88 L114.74 1018.88 L114.74 1014.94 Z" fill="#000000" fill-rule="nonzero" fill-opacity="1" /><path clip-path="url(#clip780)" d="M155.319 1027.83 L162.957 1027.83 L162.957 1001.47 L154.647 1003.14 L154.647 998.876 L162.911 997.21 L167.587 997.21 L167.587 1027.83 L175.226 1027.83 L175.226 1031.77 L155.319 1031.77 L155.319 1027.83 Z" fill="#000000" fill-rule="nonzero" fill-opacity="1" /><path clip-path="url(#clip780)" d="M184.67 1025.89 L189.555 1025.89 L189.555 1031.77 L184.67 1031.77 L184.67 1025.89 Z" fill="#000000" fill-rule="nonzero" fill-opacity="1" /><path clip-path="url(#clip780)" d="M209.74 1000.29 Q206.129 1000.29 204.3 1003.85 Q202.494 1007.39 202.494 1014.52 Q202.494 1021.63 204.3 1025.2 Q206.129 1028.74 209.74 1028.74 Q213.374 1028.74 215.179 1025.2 Q217.008 1021.63 217.008 1014.52 Q217.008 1007.39 215.179 1003.85 Q213.374 1000.29 209.74 1000.29 M209.74 996.585 Q215.55 996.585 218.605 1001.19 Q221.684 1005.77 221.684 1014.52 Q221.684 1023.25 218.605 1027.86 Q215.55 1032.44 209.74 1032.44 Q203.929 1032.44 200.851 1027.86 Q197.795 1023.25 197.795 1014.52 Q197.795 1005.77 200.851 1001.19 Q203.929 996.585 209.74 996.585 Z" fill="#000000" fill-rule="nonzero" fill-opacity="1" /><path clip-path="url(#clip780)" d="M115.736 809.334 L145.411 809.334 L145.411 813.269 L115.736 813.269 L115.736 809.334 Z" fill="#000000" fill-rule="nonzero" fill-opacity="1" /><path clip-path="url(#clip780)" d="M165.504 794.681 Q161.893 794.681 160.064 798.246 Q158.258 801.787 158.258 808.917 Q158.258 816.023 160.064 819.588 Q161.893 823.13 165.504 823.13 Q169.138 823.13 170.944 819.588 Q172.772 816.023 172.772 808.917 Q172.772 801.787 170.944 798.246 Q169.138 794.681 165.504 794.681 M165.504 790.977 Q171.314 790.977 174.369 795.584 Q177.448 800.167 177.448 808.917 Q177.448 817.644 174.369 822.25 Q171.314 826.834 165.504 826.834 Q159.694 826.834 156.615 822.25 Q153.559 817.644 153.559 808.917 Q153.559 800.167 156.615 795.584 Q159.694 790.977 165.504 790.977 Z" fill="#000000" fill-rule="nonzero" fill-opacity="1" /><path clip-path="url(#clip780)" d="M185.666 820.283 L190.55 820.283 L190.55 826.162 L185.666 826.162 L185.666 820.283 Z" fill="#000000" fill-rule="nonzero" fill-opacity="1" /><path clip-path="url(#clip780)" d="M200.781 791.602 L219.138 791.602 L219.138 795.537 L205.064 795.537 L205.064 804.01 Q206.082 803.662 207.101 803.5 Q208.119 803.315 209.138 803.315 Q214.925 803.315 218.304 806.486 Q221.684 809.658 221.684 815.074 Q221.684 820.653 218.212 823.755 Q214.74 826.834 208.42 826.834 Q206.244 826.834 203.976 826.463 Q201.73 826.093 199.323 825.352 L199.323 820.653 Q201.406 821.787 203.629 822.343 Q205.851 822.898 208.328 822.898 Q212.332 822.898 214.67 820.792 Q217.008 818.685 217.008 815.074 Q217.008 811.463 214.67 809.357 Q212.332 807.25 208.328 807.25 Q206.453 807.25 204.578 807.667 Q202.726 808.084 200.781 808.963 L200.781 791.602 Z" fill="#000000" fill-rule="nonzero" fill-opacity="1" /><path clip-path="url(#clip780)" d="M164.508 589.073 Q160.897 589.073 159.069 592.638 Q157.263 596.18 157.263 603.31 Q157.263 610.416 159.069 613.981 Q160.897 617.522 164.508 617.522 Q168.143 617.522 169.948 613.981 Q171.777 610.416 171.777 603.31 Q171.777 596.18 169.948 592.638 Q168.143 589.073 164.508 589.073 M164.508 585.37 Q170.319 585.37 173.374 589.976 Q176.453 594.56 176.453 603.31 Q176.453 612.036 173.374 616.643 Q170.319 621.226 164.508 621.226 Q158.698 621.226 155.62 616.643 Q152.564 612.036 152.564 603.31 Q152.564 594.56 155.62 589.976 Q158.698 585.37 164.508 585.37 Z" fill="#000000" fill-rule="nonzero" fill-opacity="1" /><path clip-path="url(#clip780)" d="M184.67 614.675 L189.555 614.675 L189.555 620.555 L184.67 620.555 L184.67 614.675 Z" fill="#000000" fill-rule="nonzero" fill-opacity="1" /><path clip-path="url(#clip780)" d="M209.74 589.073 Q206.129 589.073 204.3 592.638 Q202.494 596.18 202.494 603.31 Q202.494 610.416 204.3 613.981 Q206.129 617.522 209.74 617.522 Q213.374 617.522 215.179 613.981 Q217.008 610.416 217.008 603.31 Q217.008 596.18 215.179 592.638 Q213.374 589.073 209.74 589.073 M209.74 585.37 Q215.55 585.37 218.605 589.976 Q221.684 594.56 221.684 603.31 Q221.684 612.036 218.605 616.643 Q215.55 621.226 209.74 621.226 Q203.929 621.226 200.851 616.643 Q197.795 612.036 197.795 603.31 Q197.795 594.56 200.851 589.976 Q203.929 585.37 209.74 585.37 Z" fill="#000000" fill-rule="nonzero" fill-opacity="1" /><path clip-path="url(#clip780)" d="M165.504 383.466 Q161.893 383.466 160.064 387.031 Q158.258 390.573 158.258 397.702 Q158.258 404.809 160.064 408.373 Q161.893 411.915 165.504 411.915 Q169.138 411.915 170.944 408.373 Q172.772 404.809 172.772 397.702 Q172.772 390.573 170.944 387.031 Q169.138 383.466 165.504 383.466 M165.504 379.762 Q171.314 379.762 174.369 384.369 Q177.448 388.952 177.448 397.702 Q177.448 406.429 174.369 411.035 Q171.314 415.619 165.504 415.619 Q159.694 415.619 156.615 411.035 Q153.559 406.429 153.559 397.702 Q153.559 388.952 156.615 384.369 Q159.694 379.762 165.504 379.762 Z" fill="#000000" fill-rule="nonzero" fill-opacity="1" /><path clip-path="url(#clip780)" d="M185.666 409.068 L190.55 409.068 L190.55 414.947 L185.666 414.947 L185.666 409.068 Z" fill="#000000" fill-rule="nonzero" fill-opacity="1" /><path clip-path="url(#clip780)" d="M200.781 380.387 L219.138 380.387 L219.138 384.323 L205.064 384.323 L205.064 392.795 Q206.082 392.448 207.101 392.285 Q208.119 392.1 209.138 392.1 Q214.925 392.1 218.304 395.272 Q221.684 398.443 221.684 403.859 Q221.684 409.438 218.212 412.54 Q214.74 415.619 208.42 415.619 Q206.244 415.619 203.976 415.248 Q201.73 414.878 199.323 414.137 L199.323 409.438 Q201.406 410.572 203.629 411.128 Q205.851 411.684 208.328 411.684 Q212.332 411.684 214.67 409.577 Q217.008 407.471 217.008 403.859 Q217.008 400.248 214.67 398.142 Q212.332 396.035 208.328 396.035 Q206.453 396.035 204.578 396.452 Q202.726 396.869 200.781 397.748 L200.781 380.387 Z" fill="#000000" fill-rule="nonzero" fill-opacity="1" /><path clip-path="url(#clip780)" d="M155.319 205.405 L162.957 205.405 L162.957 179.039 L154.647 180.706 L154.647 176.447 L162.911 174.78 L167.587 174.78 L167.587 205.405 L175.226 205.405 L175.226 209.34 L155.319 209.34 L155.319 205.405 Z" fill="#000000" fill-rule="nonzero" fill-opacity="1" /><path clip-path="url(#clip780)" d="M184.67 203.46 L189.555 203.46 L189.555 209.34 L184.67 209.34 L184.67 203.46 Z" fill="#000000" fill-rule="nonzero" fill-opacity="1" /><path clip-path="url(#clip780)" d="M209.74 177.859 Q206.129 177.859 204.3 181.423 Q202.494 184.965 202.494 192.095 Q202.494 199.201 204.3 202.766 Q206.129 206.308 209.74 206.308 Q213.374 206.308 215.179 202.766 Q217.008 199.201 217.008 192.095 Q217.008 184.965 215.179 181.423 Q213.374 177.859 209.74 177.859 M209.74 174.155 Q215.55 174.155 218.605 178.761 Q221.684 183.345 221.684 192.095 Q221.684 200.822 218.605 205.428 Q215.55 210.011 209.74 210.011 Q203.929 210.011 200.851 205.428 Q197.795 200.822 197.795 192.095 Q197.795 183.345 200.851 178.761 Q203.929 174.155 209.74 174.155 Z" fill="#000000" fill-rule="nonzero" fill-opacity="1" /><path clip-path="url(#clip780)" d="M18.4042 761.682 L18.4042 754.775 L37.9469 741.598 L18.4042 728.517 L18.4042 721.61 L43.2941 738.415 L65.9242 738.415 L65.9242 744.877 L43.2941 744.877 L18.4042 761.682 Z" fill="#000000" fill-rule="nonzero" fill-opacity="1" /><path clip-path="url(#clip780)" d="M378.163 65.6895 L406.722 65.6895 L406.722 72.576 L368.319 72.576 L368.319 65.6895 Q372.978 60.8689 380.998 52.7671 Q389.06 44.6248 391.126 42.2752 Q395.055 37.8598 396.594 34.8216 Q398.174 31.7429 398.174 28.7857 Q398.174 23.9651 394.771 20.927 Q391.409 17.8888 385.981 17.8888 Q382.133 17.8888 377.839 19.2256 Q373.585 20.5624 368.724 23.2765 L368.724 15.0127 Q373.666 13.0277 377.96 12.015 Q382.254 11.0023 385.819 11.0023 Q395.217 11.0023 400.807 15.7013 Q406.397 20.4004 406.397 28.2591 Q406.397 31.9859 404.98 35.3482 Q403.602 38.6699 399.916 43.2069 Q398.903 44.3817 393.475 50.0125 Q388.047 55.6027 378.163 65.6895 Z" fill="#000000" fill-rule="nonzero" fill-opacity="1" /><path clip-path="url(#clip780)" d="M431.351 18.8205 L431.351 65.8515 L441.235 65.8515 Q453.753 65.8515 459.545 60.1802 Q465.379 54.509 465.379 42.2752 Q465.379 30.1225 459.545 24.4918 Q453.753 18.8205 441.235 18.8205 L431.351 18.8205 M423.168 12.096 L439.979 12.096 Q457.56 12.096 465.784 19.4281 Q474.007 26.7198 474.007 42.2752 Q474.007 57.9117 465.743 65.2439 Q457.479 72.576 439.979 72.576 L423.168 72.576 L423.168 12.096 Z" fill="#000000" fill-rule="nonzero" fill-opacity="1" /><path clip-path="url(#clip780)" d="M509.939 12.096 L557.456 12.096 L557.456 18.3344 L519.215 65.6895 L558.387 65.6895 L558.387 72.576 L509.007 72.576 L509.007 66.3376 L547.247 18.9825 L509.939 18.9825 L509.939 12.096 Z" fill="#000000" fill-rule="nonzero" fill-opacity="1" /><path clip-path="url(#clip780)" d="M569.932 27.2059 L577.386 27.2059 L577.386 72.576 L569.932 72.576 L569.932 27.2059 M569.932 9.54393 L577.386 9.54393 L577.386 18.9825 L569.932 18.9825 L569.932 9.54393 Z" fill="#000000" fill-rule="nonzero" fill-opacity="1" /><path clip-path="url(#clip780)" d="M622.837 49.3643 Q622.837 41.2625 619.475 36.8065 Q616.153 32.3505 610.117 32.3505 Q604.122 32.3505 600.76 36.8065 Q597.438 41.2625 597.438 49.3643 Q597.438 57.4256 600.76 61.8816 Q604.122 66.3376 610.117 66.3376 Q616.153 66.3376 619.475 61.8816 Q622.837 57.4256 622.837 49.3643 M630.291 66.9452 Q630.291 78.5308 625.146 84.1616 Q620.002 89.8329 609.388 89.8329 Q605.459 89.8329 601.975 89.2252 Q598.491 88.6581 595.21 87.4428 L595.21 80.1917 Q598.491 81.9741 601.692 82.8248 Q604.892 83.6755 608.214 83.6755 Q615.546 83.6755 619.191 79.8271 Q622.837 76.0193 622.837 68.282 L622.837 64.5957 Q620.528 68.6061 616.923 70.5911 Q613.318 72.576 608.295 72.576 Q599.95 72.576 594.846 66.2161 Q589.741 59.8562 589.741 49.3643 Q589.741 38.832 594.846 32.472 Q599.95 26.1121 608.295 26.1121 Q613.318 26.1121 616.923 28.0971 Q620.528 30.082 622.837 34.0924 L622.837 27.2059 L630.291 27.2059 L630.291 66.9452 Z" fill="#000000" fill-rule="nonzero" fill-opacity="1" /><path clip-path="url(#clip780)" d="M642.484 12.096 L690.001 12.096 L690.001 18.3344 L651.761 65.6895 L690.933 65.6895 L690.933 72.576 L641.552 72.576 L641.552 66.3376 L679.793 18.9825 L642.484 18.9825 L642.484 12.096 Z" fill="#000000" fill-rule="nonzero" fill-opacity="1" /><path clip-path="url(#clip780)" d="M723.097 49.7694 Q714.064 49.7694 710.58 51.8354 Q707.096 53.9013 707.096 58.8839 Q707.096 62.8538 709.689 65.2034 Q712.322 67.5124 716.818 67.5124 Q723.016 67.5124 726.743 63.1374 Q730.51 58.7219 730.51 51.4303 L730.51 49.7694 L723.097 49.7694 M737.964 46.6907 L737.964 72.576 L730.51 72.576 L730.51 65.6895 Q727.958 69.8214 724.15 71.8063 Q720.343 73.7508 714.833 73.7508 Q707.866 73.7508 703.734 69.8619 Q699.642 65.9325 699.642 59.3701 Q699.642 51.7138 704.747 47.825 Q709.891 43.9361 720.059 43.9361 L730.51 43.9361 L730.51 43.2069 Q730.51 38.0623 727.108 35.2672 Q723.745 32.4315 717.628 32.4315 Q713.74 32.4315 710.053 33.3632 Q706.367 34.295 702.964 36.1584 L702.964 29.2718 Q707.056 27.692 710.904 26.9223 Q714.752 26.1121 718.398 26.1121 Q728.242 26.1121 733.103 31.2163 Q737.964 36.3204 737.964 46.6907 Z" fill="#000000" fill-rule="nonzero" fill-opacity="1" /><path clip-path="url(#clip780)" d="M783.172 49.3643 Q783.172 41.2625 779.81 36.8065 Q776.488 32.3505 770.452 32.3505 Q764.457 32.3505 761.095 36.8065 Q757.773 41.2625 757.773 49.3643 Q757.773 57.4256 761.095 61.8816 Q764.457 66.3376 770.452 66.3376 Q776.488 66.3376 779.81 61.8816 Q783.172 57.4256 783.172 49.3643 M790.626 66.9452 Q790.626 78.5308 785.481 84.1616 Q780.336 89.8329 769.723 89.8329 Q765.794 89.8329 762.31 89.2252 Q758.826 88.6581 755.545 87.4428 L755.545 80.1917 Q758.826 81.9741 762.026 82.8248 Q765.227 83.6755 768.548 83.6755 Q775.88 83.6755 779.526 79.8271 Q783.172 76.0193 783.172 68.282 L783.172 64.5957 Q780.863 68.6061 777.258 70.5911 Q773.652 72.576 768.629 72.576 Q760.284 72.576 755.18 66.2161 Q750.076 59.8562 750.076 49.3643 Q750.076 38.832 755.18 32.472 Q760.284 26.1121 768.629 26.1121 Q773.652 26.1121 777.258 28.0971 Q780.863 30.082 783.172 34.0924 L783.172 27.2059 L790.626 27.2059 L790.626 66.9452 Z" fill="#000000" fill-rule="nonzero" fill-opacity="1" /><path clip-path="url(#clip780)" d="M868.93 14.0809 L868.93 22.0612 Q864.271 19.8332 860.139 18.7395 Q856.007 17.6457 852.159 17.6457 Q845.475 17.6457 841.829 20.2383 Q838.224 22.8309 838.224 27.611 Q838.224 31.6214 840.614 33.6873 Q843.044 35.7128 849.769 36.9686 L854.711 37.9813 Q863.866 39.7232 868.201 44.1387 Q872.576 48.5136 872.576 55.8863 Q872.576 64.6767 866.661 69.2137 Q860.787 73.7508 849.404 73.7508 Q845.11 73.7508 840.249 72.7785 Q835.429 71.8063 830.244 69.9024 L830.244 61.4765 Q835.226 64.2716 840.006 65.6895 Q844.786 67.1073 849.404 67.1073 Q856.412 67.1073 860.22 64.3527 Q864.028 61.598 864.028 56.4939 Q864.028 52.0379 861.273 49.5264 Q858.559 47.0148 852.321 45.759 L847.338 44.7868 Q838.183 42.9639 834.092 39.075 Q830.001 35.1862 830.001 28.2591 Q830.001 20.2383 835.631 15.6203 Q841.303 11.0023 851.227 11.0023 Q855.481 11.0023 859.896 11.7719 Q864.312 12.5416 868.93 14.0809 Z" fill="#000000" fill-rule="nonzero" fill-opacity="1" /><path clip-path="url(#clip780)" d="M905.631 49.7694 Q896.597 49.7694 893.114 51.8354 Q889.63 53.9013 889.63 58.8839 Q889.63 62.8538 892.222 65.2034 Q894.855 67.5124 899.352 67.5124 Q905.55 67.5124 909.277 63.1374 Q913.044 58.7219 913.044 51.4303 L913.044 49.7694 L905.631 49.7694 M920.498 46.6907 L920.498 72.576 L913.044 72.576 L913.044 65.6895 Q910.492 69.8214 906.684 71.8063 Q902.876 73.7508 897.367 73.7508 Q890.399 73.7508 886.268 69.8619 Q882.176 65.9325 882.176 59.3701 Q882.176 51.7138 887.28 47.825 Q892.425 43.9361 902.593 43.9361 L913.044 43.9361 L913.044 43.2069 Q913.044 38.0623 909.641 35.2672 Q906.279 32.4315 900.162 32.4315 Q896.273 32.4315 892.587 33.3632 Q888.901 34.295 885.498 36.1584 L885.498 29.2718 Q889.589 27.692 893.438 26.9223 Q897.286 26.1121 900.932 26.1121 Q910.776 26.1121 915.637 31.2163 Q920.498 36.3204 920.498 46.6907 Z" fill="#000000" fill-rule="nonzero" fill-opacity="1" /><path clip-path="url(#clip780)" d="M971.175 35.9153 Q973.97 30.8922 977.859 28.5022 Q981.747 26.1121 987.014 26.1121 Q994.103 26.1121 997.951 31.0947 Q1001.8 36.0368 1001.8 45.1919 L1001.8 72.576 L994.305 72.576 L994.305 45.4349 Q994.305 38.913 991.996 35.7533 Q989.687 32.5936 984.948 32.5936 Q979.155 32.5936 975.793 36.4419 Q972.43 40.2903 972.43 46.9338 L972.43 72.576 L964.936 72.576 L964.936 45.4349 Q964.936 38.8725 962.627 35.7533 Q960.318 32.5936 955.498 32.5936 Q949.786 32.5936 946.424 36.4824 Q943.061 40.3308 943.061 46.9338 L943.061 72.576 L935.567 72.576 L935.567 27.2059 L943.061 27.2059 L943.061 34.2544 Q945.613 30.082 949.178 28.0971 Q952.743 26.1121 957.645 26.1121 Q962.587 26.1121 966.03 28.6237 Q969.514 31.1352 971.175 35.9153 Z" fill="#000000" fill-rule="nonzero" fill-opacity="1" /><path clip-path="url(#clip780)" d="M1023.88 65.7705 L1023.88 89.8329 L1016.38 89.8329 L1016.38 27.2059 L1023.88 27.2059 L1023.88 34.0924 Q1026.23 30.0415 1029.79 28.0971 Q1033.4 26.1121 1038.38 26.1121 Q1046.64 26.1121 1051.79 32.6746 Q1056.97 39.2371 1056.97 49.9314 Q1056.97 60.6258 1051.79 67.1883 Q1046.64 73.7508 1038.38 73.7508 Q1033.4 73.7508 1029.79 71.8063 Q1026.23 69.8214 1023.88 65.7705 M1049.24 49.9314 Q1049.24 41.7081 1045.83 37.0496 Q1042.47 32.3505 1036.56 32.3505 Q1030.64 32.3505 1027.24 37.0496 Q1023.88 41.7081 1023.88 49.9314 Q1023.88 58.1548 1027.24 62.8538 Q1030.64 67.5124 1036.56 67.5124 Q1042.47 67.5124 1045.83 62.8538 Q1049.24 58.1548 1049.24 49.9314 Z" fill="#000000" fill-rule="nonzero" fill-opacity="1" /><path clip-path="url(#clip780)" d="M1069.33 9.54393 L1076.78 9.54393 L1076.78 72.576 L1069.33 72.576 L1069.33 9.54393 Z" fill="#000000" fill-rule="nonzero" fill-opacity="1" /><path clip-path="url(#clip780)" d="M1131.19 48.0275 L1131.19 51.6733 L1096.91 51.6733 Q1097.4 59.3701 1101.53 63.421 Q1105.71 67.4314 1113.12 67.4314 Q1117.41 67.4314 1121.42 66.3781 Q1125.47 65.3249 1129.44 63.2184 L1129.44 70.267 Q1125.43 71.9684 1121.22 72.8596 Q1117.01 73.7508 1112.67 73.7508 Q1101.82 73.7508 1095.46 67.4314 Q1089.14 61.1119 1089.14 50.3365 Q1089.14 39.1965 1095.13 32.6746 Q1101.17 26.1121 1111.38 26.1121 Q1120.53 26.1121 1125.84 32.0264 Q1131.19 37.9003 1131.19 48.0275 M1123.73 45.84 Q1123.65 39.7232 1120.29 36.0774 Q1116.97 32.4315 1111.46 32.4315 Q1105.22 32.4315 1101.45 35.9558 Q1097.72 39.4801 1097.16 45.8805 L1123.73 45.84 Z" fill="#000000" fill-rule="nonzero" fill-opacity="1" /><path clip-path="url(#clip780)" d="M1169.71 34.1734 Q1168.45 33.4443 1166.95 33.1202 Q1165.5 32.7556 1163.71 32.7556 Q1157.39 32.7556 1153.99 36.8875 Q1150.63 40.9789 1150.63 48.6757 L1150.63 72.576 L1143.14 72.576 L1143.14 27.2059 L1150.63 27.2059 L1150.63 34.2544 Q1152.98 30.1225 1156.75 28.1376 Q1160.51 26.1121 1165.9 26.1121 Q1166.67 26.1121 1167.6 26.2337 Q1168.53 26.3147 1169.67 26.5172 L1169.71 34.1734 Z" fill="#000000" fill-rule="nonzero" fill-opacity="1" /><path clip-path="url(#clip780)" d="M1221.8 9.62495 Q1216.38 18.942 1213.74 28.0566 Q1211.11 37.1711 1211.11 46.5287 Q1211.11 55.8863 1213.74 65.0818 Q1216.42 74.2369 1221.8 83.5134 L1215.32 83.5134 Q1209.25 73.9938 1206.21 64.7983 Q1203.21 55.6027 1203.21 46.5287 Q1203.21 37.4952 1206.21 28.3401 Q1209.21 19.1851 1215.32 9.62495 L1221.8 9.62495 Z" fill="#000000" fill-rule="nonzero" fill-opacity="1" /><path clip-path="url(#clip780)" d="M1277.83 63.9476 L1277.83 47.7034 L1264.46 47.7034 L1264.46 40.9789 L1285.93 40.9789 L1285.93 66.9452 Q1281.19 70.3075 1275.48 72.0494 Q1269.77 73.7508 1263.29 73.7508 Q1249.11 73.7508 1241.09 65.4869 Q1233.11 57.1826 1233.11 42.3968 Q1233.11 27.5705 1241.09 19.3066 Q1249.11 11.0023 1263.29 11.0023 Q1269.2 11.0023 1274.51 12.4606 Q1279.85 13.9189 1284.35 16.7545 L1284.35 25.464 Q1279.81 21.6156 1274.71 19.6712 Q1269.6 17.7268 1263.97 17.7268 Q1252.87 17.7268 1247.28 23.9246 Q1241.73 30.1225 1241.73 42.3968 Q1241.73 54.6305 1247.28 60.8284 Q1252.87 67.0263 1263.97 67.0263 Q1268.31 67.0263 1271.71 66.2971 Q1275.11 65.5274 1277.83 63.9476 Z" fill="#000000" fill-rule="nonzero" fill-opacity="1" /><path clip-path="url(#clip780)" d="M1321.17 49.7694 Q1312.14 49.7694 1308.66 51.8354 Q1305.17 53.9013 1305.17 58.8839 Q1305.17 62.8538 1307.76 65.2034 Q1310.4 67.5124 1314.89 67.5124 Q1321.09 67.5124 1324.82 63.1374 Q1328.59 58.7219 1328.59 51.4303 L1328.59 49.7694 L1321.17 49.7694 M1336.04 46.6907 L1336.04 72.576 L1328.59 72.576 L1328.59 65.6895 Q1326.03 69.8214 1322.23 71.8063 Q1318.42 73.7508 1312.91 73.7508 Q1305.94 73.7508 1301.81 69.8619 Q1297.72 65.9325 1297.72 59.3701 Q1297.72 51.7138 1302.82 47.825 Q1307.97 43.9361 1318.13 43.9361 L1328.59 43.9361 L1328.59 43.2069 Q1328.59 38.0623 1325.18 35.2672 Q1321.82 32.4315 1315.7 32.4315 Q1311.82 32.4315 1308.13 33.3632 Q1304.44 34.295 1301.04 36.1584 L1301.04 29.2718 Q1305.13 27.692 1308.98 26.9223 Q1312.83 26.1121 1316.47 26.1121 Q1326.32 26.1121 1331.18 31.2163 Q1336.04 36.3204 1336.04 46.6907 Z" fill="#000000" fill-rule="nonzero" fill-opacity="1" /><path clip-path="url(#clip780)" d="M1350.62 54.671 L1350.62 27.2059 L1358.08 27.2059 L1358.08 54.3874 Q1358.08 60.8284 1360.59 64.0691 Q1363.1 67.2693 1368.12 67.2693 Q1374.16 67.2693 1377.64 63.421 Q1381.17 59.5726 1381.17 52.9291 L1381.17 27.2059 L1388.62 27.2059 L1388.62 72.576 L1381.17 72.576 L1381.17 65.6084 Q1378.45 69.7404 1374.85 71.7658 Q1371.28 73.7508 1366.54 73.7508 Q1358.72 73.7508 1354.67 68.8897 Q1350.62 64.0286 1350.62 54.671 M1369.38 26.1121 L1369.38 26.1121 Z" fill="#000000" fill-rule="nonzero" fill-opacity="1" /><path clip-path="url(#clip780)" d="M1432.9 28.5427 L1432.9 35.5912 Q1429.74 33.9709 1426.33 33.1607 Q1422.93 32.3505 1419.29 32.3505 Q1413.74 32.3505 1410.94 34.0519 Q1408.19 35.7533 1408.19 39.156 Q1408.19 41.7486 1410.17 43.2475 Q1412.16 44.7058 1418.15 46.0426 L1420.7 46.6097 Q1428.64 48.3111 1431.96 51.4303 Q1435.33 54.509 1435.33 60.0587 Q1435.33 66.3781 1430.3 70.0644 Q1425.32 73.7508 1416.57 73.7508 Q1412.93 73.7508 1408.96 73.0216 Q1405.03 72.3329 1400.65 70.9151 L1400.65 63.2184 Q1404.78 65.3654 1408.79 66.4591 Q1412.8 67.5124 1416.73 67.5124 Q1422 67.5124 1424.84 65.73 Q1427.67 63.9071 1427.67 60.6258 Q1427.67 57.5877 1425.6 55.9673 Q1423.58 54.3469 1416.65 52.8481 L1414.06 52.2405 Q1407.13 50.7821 1404.05 47.7845 Q1400.98 44.7463 1400.98 39.4801 Q1400.98 33.0797 1405.51 29.5959 Q1410.05 26.1121 1418.39 26.1121 Q1422.53 26.1121 1426.17 26.7198 Q1429.82 27.3274 1432.9 28.5427 Z" fill="#000000" fill-rule="nonzero" fill-opacity="1" /><path clip-path="url(#clip780)" d="M1476.12 28.5427 L1476.12 35.5912 Q1472.96 33.9709 1469.56 33.1607 Q1466.15 32.3505 1462.51 32.3505 Q1456.96 32.3505 1454.16 34.0519 Q1451.41 35.7533 1451.41 39.156 Q1451.41 41.7486 1453.39 43.2475 Q1455.38 44.7058 1461.37 46.0426 L1463.93 46.6097 Q1471.87 48.3111 1475.19 51.4303 Q1478.55 54.509 1478.55 60.0587 Q1478.55 66.3781 1473.53 70.0644 Q1468.54 73.7508 1459.79 73.7508 Q1456.15 73.7508 1452.18 73.0216 Q1448.25 72.3329 1443.87 70.9151 L1443.87 63.2184 Q1448.01 65.3654 1452.02 66.4591 Q1456.03 67.5124 1459.96 67.5124 Q1465.22 67.5124 1468.06 65.73 Q1470.89 63.9071 1470.89 60.6258 Q1470.89 57.5877 1468.83 55.9673 Q1466.8 54.3469 1459.88 52.8481 L1457.28 52.2405 Q1450.36 50.7821 1447.28 47.7845 Q1444.2 44.7463 1444.2 39.4801 Q1444.2 33.0797 1448.74 29.5959 Q1453.27 26.1121 1461.62 26.1121 Q1465.75 26.1121 1469.4 26.7198 Q1473.04 27.3274 1476.12 28.5427 Z" fill="#000000" fill-rule="nonzero" fill-opacity="1" /><path clip-path="url(#clip780)" d="M1490.42 27.2059 L1497.87 27.2059 L1497.87 72.576 L1490.42 72.576 L1490.42 27.2059 M1490.42 9.54393 L1497.87 9.54393 L1497.87 18.9825 L1490.42 18.9825 L1490.42 9.54393 Z" fill="#000000" fill-rule="nonzero" fill-opacity="1" /><path clip-path="url(#clip780)" d="M1534.09 49.7694 Q1525.05 49.7694 1521.57 51.8354 Q1518.09 53.9013 1518.09 58.8839 Q1518.09 62.8538 1520.68 65.2034 Q1523.31 67.5124 1527.81 67.5124 Q1534.01 67.5124 1537.73 63.1374 Q1541.5 58.7219 1541.5 51.4303 L1541.5 49.7694 L1534.09 49.7694 M1548.95 46.6907 L1548.95 72.576 L1541.5 72.576 L1541.5 65.6895 Q1538.95 69.8214 1535.14 71.8063 Q1531.33 73.7508 1525.82 73.7508 Q1518.86 73.7508 1514.72 69.8619 Q1510.63 65.9325 1510.63 59.3701 Q1510.63 51.7138 1515.74 47.825 Q1520.88 43.9361 1531.05 43.9361 L1541.5 43.9361 L1541.5 43.2069 Q1541.5 38.0623 1538.1 35.2672 Q1534.74 32.4315 1528.62 32.4315 Q1524.73 32.4315 1521.04 33.3632 Q1517.36 34.295 1513.96 36.1584 L1513.96 29.2718 Q1518.05 27.692 1521.89 26.9223 Q1525.74 26.1121 1529.39 26.1121 Q1539.23 26.1121 1544.09 31.2163 Q1548.95 36.3204 1548.95 46.6907 Z" fill="#000000" fill-rule="nonzero" fill-opacity="1" /><path clip-path="url(#clip780)" d="M1602.02 45.1919 L1602.02 72.576 L1594.57 72.576 L1594.57 45.4349 Q1594.57 38.994 1592.06 35.7938 Q1589.55 32.5936 1584.52 32.5936 Q1578.49 32.5936 1575 36.4419 Q1571.52 40.2903 1571.52 46.9338 L1571.52 72.576 L1564.02 72.576 L1564.02 27.2059 L1571.52 27.2059 L1571.52 34.2544 Q1574.19 30.163 1577.8 28.1376 Q1581.44 26.1121 1586.18 26.1121 Q1594 26.1121 1598.01 30.9732 Q1602.02 35.7938 1602.02 45.1919 Z" fill="#000000" fill-rule="nonzero" fill-opacity="1" /><path clip-path="url(#clip780)" d="M1651.77 18.8205 L1651.77 65.8515 L1661.65 65.8515 Q1674.17 65.8515 1679.96 60.1802 Q1685.79 54.509 1685.79 42.2752 Q1685.79 30.1225 1679.96 24.4918 Q1674.17 18.8205 1661.65 18.8205 L1651.77 18.8205 M1643.58 12.096 L1660.4 12.096 Q1677.98 12.096 1686.2 19.4281 Q1694.42 26.7198 1694.42 42.2752 Q1694.42 57.9117 1686.16 65.2439 Q1677.9 72.576 1660.4 72.576 L1643.58 72.576 L1643.58 12.096 Z" fill="#000000" fill-rule="nonzero" fill-opacity="1" /><path clip-path="url(#clip780)" d="M1707.14 27.2059 L1714.6 27.2059 L1714.6 72.576 L1707.14 72.576 L1707.14 27.2059 M1707.14 9.54393 L1714.6 9.54393 L1714.6 18.9825 L1707.14 18.9825 L1707.14 9.54393 Z" fill="#000000" fill-rule="nonzero" fill-opacity="1" /><path clip-path="url(#clip780)" d="M1759.12 28.5427 L1759.12 35.5912 Q1755.96 33.9709 1752.55 33.1607 Q1749.15 32.3505 1745.5 32.3505 Q1739.96 32.3505 1737.16 34.0519 Q1734.41 35.7533 1734.41 39.156 Q1734.41 41.7486 1736.39 43.2475 Q1738.38 44.7058 1744.37 46.0426 L1746.92 46.6097 Q1754.86 48.3111 1758.18 51.4303 Q1761.55 54.509 1761.55 60.0587 Q1761.55 66.3781 1756.52 70.0644 Q1751.54 73.7508 1742.79 73.7508 Q1739.14 73.7508 1735.18 73.0216 Q1731.25 72.3329 1726.87 70.9151 L1726.87 63.2184 Q1731 65.3654 1735.01 66.4591 Q1739.02 67.5124 1742.95 67.5124 Q1748.22 67.5124 1751.05 65.73 Q1753.89 63.9071 1753.89 60.6258 Q1753.89 57.5877 1751.82 55.9673 Q1749.8 54.3469 1742.87 52.8481 L1740.28 52.2405 Q1733.35 50.7821 1730.27 47.7845 Q1727.19 44.7463 1727.19 39.4801 Q1727.19 33.0797 1731.73 29.5959 Q1736.27 26.1121 1744.61 26.1121 Q1748.75 26.1121 1752.39 26.7198 Q1756.04 27.3274 1759.12 28.5427 Z" fill="#000000" fill-rule="nonzero" fill-opacity="1" /><path clip-path="url(#clip780)" d="M1780.79 14.324 L1780.79 27.2059 L1796.14 27.2059 L1796.14 32.9987 L1780.79 32.9987 L1780.79 57.6282 Q1780.79 63.1779 1782.29 64.7578 Q1783.83 66.3376 1788.48 66.3376 L1796.14 66.3376 L1796.14 72.576 L1788.48 72.576 Q1779.86 72.576 1776.58 69.3758 Q1773.29 66.1351 1773.29 57.6282 L1773.29 32.9987 L1767.83 32.9987 L1767.83 27.2059 L1773.29 27.2059 L1773.29 14.324 L1780.79 14.324 Z" fill="#000000" fill-rule="nonzero" fill-opacity="1" /><path clip-path="url(#clip780)" d="M1832.23 34.1734 Q1830.98 33.4443 1829.48 33.1202 Q1828.02 32.7556 1826.24 32.7556 Q1819.92 32.7556 1816.52 36.8875 Q1813.15 40.9789 1813.15 48.6757 L1813.15 72.576 L1805.66 72.576 L1805.66 27.2059 L1813.15 27.2059 L1813.15 34.2544 Q1815.5 30.1225 1819.27 28.1376 Q1823.04 26.1121 1828.43 26.1121 Q1829.2 26.1121 1830.13 26.2337 Q1831.06 26.3147 1832.19 26.5172 L1832.23 34.1734 Z" fill="#000000" fill-rule="nonzero" fill-opacity="1" /><path clip-path="url(#clip780)" d="M1840.05 27.2059 L1847.51 27.2059 L1847.51 72.576 L1840.05 72.576 L1840.05 27.2059 M1840.05 9.54393 L1847.51 9.54393 L1847.51 18.9825 L1840.05 18.9825 L1840.05 9.54393 Z" fill="#000000" fill-rule="nonzero" fill-opacity="1" /><path clip-path="url(#clip780)" d="M1895.67 49.9314 Q1895.67 41.7081 1892.27 37.0496 Q1888.91 32.3505 1882.99 32.3505 Q1877.08 32.3505 1873.68 37.0496 Q1870.31 41.7081 1870.31 49.9314 Q1870.31 58.1548 1873.68 62.8538 Q1877.08 67.5124 1882.99 67.5124 Q1888.91 67.5124 1892.27 62.8538 Q1895.67 58.1548 1895.67 49.9314 M1870.31 34.0924 Q1872.66 30.0415 1876.23 28.0971 Q1879.83 26.1121 1884.82 26.1121 Q1893.08 26.1121 1898.22 32.6746 Q1903.41 39.2371 1903.41 49.9314 Q1903.41 60.6258 1898.22 67.1883 Q1893.08 73.7508 1884.82 73.7508 Q1879.83 73.7508 1876.23 71.8063 Q1872.66 69.8214 1870.31 65.7705 L1870.31 72.576 L1862.82 72.576 L1862.82 9.54393 L1870.31 9.54393 L1870.31 34.0924 Z" fill="#000000" fill-rule="nonzero" fill-opacity="1" /><path clip-path="url(#clip780)" d="M1914.99 54.671 L1914.99 27.2059 L1922.45 27.2059 L1922.45 54.3874 Q1922.45 60.8284 1924.96 64.0691 Q1927.47 67.2693 1932.49 67.2693 Q1938.53 67.2693 1942.01 63.421 Q1945.54 59.5726 1945.54 52.9291 L1945.54 27.2059 L1952.99 27.2059 L1952.99 72.576 L1945.54 72.576 L1945.54 65.6084 Q1942.82 69.7404 1939.22 71.7658 Q1935.65 73.7508 1930.91 73.7508 Q1923.1 73.7508 1919.05 68.8897 Q1914.99 64.0286 1914.99 54.671 M1933.75 26.1121 L1933.75 26.1121 Z" fill="#000000" fill-rule="nonzero" fill-opacity="1" /><path clip-path="url(#clip780)" d="M1975.72 14.324 L1975.72 27.2059 L1991.07 27.2059 L1991.07 32.9987 L1975.72 32.9987 L1975.72 57.6282 Q1975.72 63.1779 1977.22 64.7578 Q1978.76 66.3376 1983.41 66.3376 L1991.07 66.3376 L1991.07 72.576 L1983.41 72.576 Q1974.79 72.576 1971.5 69.3758 Q1968.22 66.1351 1968.22 57.6282 L1968.22 32.9987 L1962.75 32.9987 L1962.75 27.2059 L1968.22 27.2059 L1968.22 14.324 L1975.72 14.324 Z" fill="#000000" fill-rule="nonzero" fill-opacity="1" /><path clip-path="url(#clip780)" d="M2000.87 27.2059 L2008.33 27.2059 L2008.33 72.576 L2000.87 72.576 L2000.87 27.2059 M2000.87 9.54393 L2008.33 9.54393 L2008.33 18.9825 L2000.87 18.9825 L2000.87 9.54393 Z" fill="#000000" fill-rule="nonzero" fill-opacity="1" /><path clip-path="url(#clip780)" d="M2041.5 32.4315 Q2035.51 32.4315 2032.03 37.1306 Q2028.54 41.7891 2028.54 49.9314 Q2028.54 58.0738 2031.98 62.7728 Q2035.47 67.4314 2041.5 67.4314 Q2047.46 67.4314 2050.94 62.7323 Q2054.43 58.0333 2054.43 49.9314 Q2054.43 41.8701 2050.94 37.1711 Q2047.46 32.4315 2041.5 32.4315 M2041.5 26.1121 Q2051.23 26.1121 2056.78 32.4315 Q2062.33 38.7509 2062.33 49.9314 Q2062.33 61.0714 2056.78 67.4314 Q2051.23 73.7508 2041.5 73.7508 Q2031.74 73.7508 2026.19 67.4314 Q2020.68 61.0714 2020.68 49.9314 Q2020.68 38.7509 2026.19 32.4315 Q2031.74 26.1121 2041.5 26.1121 Z" fill="#000000" fill-rule="nonzero" fill-opacity="1" /><path clip-path="url(#clip780)" d="M2112.4 45.1919 L2112.4 72.576 L2104.94 72.576 L2104.94 45.4349 Q2104.94 38.994 2102.43 35.7938 Q2099.92 32.5936 2094.9 32.5936 Q2088.86 32.5936 2085.38 36.4419 Q2081.89 40.2903 2081.89 46.9338 L2081.89 72.576 L2074.4 72.576 L2074.4 27.2059 L2081.89 27.2059 L2081.89 34.2544 Q2084.57 30.163 2088.17 28.1376 Q2091.82 26.1121 2096.56 26.1121 Q2104.37 26.1121 2108.38 30.9732 Q2112.4 35.7938 2112.4 45.1919 Z" fill="#000000" fill-rule="nonzero" fill-opacity="1" /><path clip-path="url(#clip780)" d="M2126.09 9.62495 L2132.57 9.62495 Q2138.65 19.1851 2141.64 28.3401 Q2144.68 37.4952 2144.68 46.5287 Q2144.68 55.6027 2141.64 64.7983 Q2138.65 73.9938 2132.57 83.5134 L2126.09 83.5134 Q2131.48 74.2369 2134.11 65.0818 Q2136.78 55.8863 2136.78 46.5287 Q2136.78 37.1711 2134.11 28.0566 Q2131.48 18.942 2126.09 9.62495 Z" fill="#000000" fill-rule="nonzero" fill-opacity="1" /><polyline clip-path="url(#clip782)" style="stroke:#78c2ad; stroke-linecap:round; stroke-linejoin:round; stroke-width:8; stroke-opacity:1; fill:none" points="1353.17,624.421 490.821,1214.64 312.862,1092.84 879.136,705.262 1392.16,1056.4 1506.78,977.951 777.452,478.776 963.119,351.699 1642.03,816.367 899.135,1324.83 357.109,953.847 1120.5,431.352 1494.77,687.513 1736.01,522.394 1444.5,322.875 548.346,936.238 594.771,968.012 1029.61,670.39 1612.12,1069.08 2200.14,666.619 1457.69,158.463 1202.18,333.344 1794.77,738.931 1907.29,661.92 1572.86,433.03 1053.02,788.828 1164.94,865.424 "/>
<circle clip-path="url(#clip782)" cx="1353.17" cy="624.421" r="7.2" fill="#78c2ad" fill-rule="evenodd" fill-opacity="0.6" stroke="#000000" stroke-opacity="0.6" stroke-width="3.072"/>
<circle clip-path="url(#clip782)" cx="490.821" cy="1214.64" r="7.2" fill="#78c2ad" fill-rule="evenodd" fill-opacity="0.6" stroke="#000000" stroke-opacity="0.6" stroke-width="3.072"/>
<circle clip-path="url(#clip782)" cx="312.862" cy="1092.84" r="7.2" fill="#78c2ad" fill-rule="evenodd" fill-opacity="0.6" stroke="#000000" stroke-opacity="0.6" stroke-width="3.072"/>
<circle clip-path="url(#clip782)" cx="879.136" cy="705.262" r="7.2" fill="#78c2ad" fill-rule="evenodd" fill-opacity="0.6" stroke="#000000" stroke-opacity="0.6" stroke-width="3.072"/>
<circle clip-path="url(#clip782)" cx="1392.16" cy="1056.4" r="7.2" fill="#78c2ad" fill-rule="evenodd" fill-opacity="0.6" stroke="#000000" stroke-opacity="0.6" stroke-width="3.072"/>
<circle clip-path="url(#clip782)" cx="1506.78" cy="977.951" r="7.2" fill="#78c2ad" fill-rule="evenodd" fill-opacity="0.6" stroke="#000000" stroke-opacity="0.6" stroke-width="3.072"/>
<circle clip-path="url(#clip782)" cx="777.452" cy="478.776" r="7.2" fill="#78c2ad" fill-rule="evenodd" fill-opacity="0.6" stroke="#000000" stroke-opacity="0.6" stroke-width="3.072"/>
<circle clip-path="url(#clip782)" cx="963.119" cy="351.699" r="7.2" fill="#78c2ad" fill-rule="evenodd" fill-opacity="0.6" stroke="#000000" stroke-opacity="0.6" stroke-width="3.072"/>
<circle clip-path="url(#clip782)" cx="1642.03" cy="816.367" r="7.2" fill="#78c2ad" fill-rule="evenodd" fill-opacity="0.6" stroke="#000000" stroke-opacity="0.6" stroke-width="3.072"/>
<circle clip-path="url(#clip782)" cx="899.135" cy="1324.83" r="7.2" fill="#78c2ad" fill-rule="evenodd" fill-opacity="0.6" stroke="#000000" stroke-opacity="0.6" stroke-width="3.072"/>
<circle clip-path="url(#clip782)" cx="357.109" cy="953.847" r="7.2" fill="#78c2ad" fill-rule="evenodd" fill-opacity="0.6" stroke="#000000" stroke-opacity="0.6" stroke-width="3.072"/>
<circle clip-path="url(#clip782)" cx="1120.5" cy="431.352" r="7.2" fill="#78c2ad" fill-rule="evenodd" fill-opacity="0.6" stroke="#000000" stroke-opacity="0.6" stroke-width="3.072"/>
<circle clip-path="url(#clip782)" cx="1494.77" cy="687.513" r="7.2" fill="#78c2ad" fill-rule="evenodd" fill-opacity="0.6" stroke="#000000" stroke-opacity="0.6" stroke-width="3.072"/>
<circle clip-path="url(#clip782)" cx="1736.01" cy="522.394" r="7.2" fill="#78c2ad" fill-rule="evenodd" fill-opacity="0.6" stroke="#000000" stroke-opacity="0.6" stroke-width="3.072"/>
<circle clip-path="url(#clip782)" cx="1444.5" cy="322.875" r="7.2" fill="#78c2ad" fill-rule="evenodd" fill-opacity="0.6" stroke="#000000" stroke-opacity="0.6" stroke-width="3.072"/>
<circle clip-path="url(#clip782)" cx="548.346" cy="936.238" r="7.2" fill="#78c2ad" fill-rule="evenodd" fill-opacity="0.6" stroke="#000000" stroke-opacity="0.6" stroke-width="3.072"/>
<circle clip-path="url(#clip782)" cx="594.771" cy="968.012" r="7.2" fill="#78c2ad" fill-rule="evenodd" fill-opacity="0.6" stroke="#000000" stroke-opacity="0.6" stroke-width="3.072"/>
<circle clip-path="url(#clip782)" cx="1029.61" cy="670.39" r="7.2" fill="#78c2ad" fill-rule="evenodd" fill-opacity="0.6" stroke="#000000" stroke-opacity="0.6" stroke-width="3.072"/>
<circle clip-path="url(#clip782)" cx="1612.12" cy="1069.08" r="7.2" fill="#78c2ad" fill-rule="evenodd" fill-opacity="0.6" stroke="#000000" stroke-opacity="0.6" stroke-width="3.072"/>
<circle clip-path="url(#clip782)" cx="2200.14" cy="666.619" r="7.2" fill="#78c2ad" fill-rule="evenodd" fill-opacity="0.6" stroke="#000000" stroke-opacity="0.6" stroke-width="3.072"/>
<circle clip-path="url(#clip782)" cx="1457.69" cy="158.463" r="7.2" fill="#78c2ad" fill-rule="evenodd" fill-opacity="0.6" stroke="#000000" stroke-opacity="0.6" stroke-width="3.072"/>
<circle clip-path="url(#clip782)" cx="1202.18" cy="333.344" r="7.2" fill="#78c2ad" fill-rule="evenodd" fill-opacity="0.6" stroke="#000000" stroke-opacity="0.6" stroke-width="3.072"/>
<circle clip-path="url(#clip782)" cx="1794.77" cy="738.931" r="7.2" fill="#78c2ad" fill-rule="evenodd" fill-opacity="0.6" stroke="#000000" stroke-opacity="0.6" stroke-width="3.072"/>
<circle clip-path="url(#clip782)" cx="1907.29" cy="661.92" r="7.2" fill="#78c2ad" fill-rule="evenodd" fill-opacity="0.6" stroke="#000000" stroke-opacity="0.6" stroke-width="3.072"/>
<circle clip-path="url(#clip782)" cx="1572.86" cy="433.03" r="7.2" fill="#78c2ad" fill-rule="evenodd" fill-opacity="0.6" stroke="#000000" stroke-opacity="0.6" stroke-width="3.072"/>
<circle clip-path="url(#clip782)" cx="1053.02" cy="788.828" r="7.2" fill="#78c2ad" fill-rule="evenodd" fill-opacity="0.6" stroke="#000000" stroke-opacity="0.6" stroke-width="3.072"/>
<circle clip-path="url(#clip782)" cx="1164.94" cy="865.424" r="7.2" fill="#78c2ad" fill-rule="evenodd" fill-opacity="0.6" stroke="#000000" stroke-opacity="0.6" stroke-width="3.072"/>
<circle clip-path="url(#clip782)" cx="1164.94" cy="865.424" r="7.2" fill="#78c2ad" fill-rule="evenodd" fill-opacity="0.6" stroke="#000000" stroke-opacity="0.6" stroke-width="3.072"/>
<circle clip-path="url(#clip782)" cx="1353.17" cy="624.421" r="21.6" fill="#008000" fill-rule="evenodd" fill-opacity="1" stroke="#000000" stroke-opacity="1" stroke-width="3.072"/>
<circle clip-path="url(#clip782)" cx="1164.94" cy="865.424" r="21.6" fill="#ff0000" fill-rule="evenodd" fill-opacity="1" stroke="#000000" stroke-opacity="1" stroke-width="3.072"/>
<path clip-path="url(#clip780)" d="M1737.22 372.044 L2190.07 372.044 L2190.07 164.684 L1737.22 164.684  Z" fill="#f0f1eb" fill-rule="evenodd" fill-opacity="1"/>
<polyline clip-path="url(#clip780)" style="stroke:#000000; stroke-linecap:round; stroke-linejoin:round; stroke-width:4; stroke-opacity:1; fill:none" points="1737.22,372.044 2190.07,372.044 2190.07,164.684 1737.22,164.684 1737.22,372.044 "/>
<polyline clip-path="url(#clip780)" style="stroke:#78c2ad; stroke-linecap:round; stroke-linejoin:round; stroke-width:8; stroke-opacity:1; fill:none" points="1759.45,216.524 1892.82,216.524 "/>
<circle clip-path="url(#clip780)" cx="1826.13" cy="216.524" r="18.432" fill="#78c2ad" fill-rule="evenodd" fill-opacity="0.6" stroke="#000000" stroke-opacity="0.6" stroke-width="7.86432"/>
<path clip-path="url(#clip780)" d="M1915.58 199.244 L1942.73 199.244 L1942.73 202.809 L1920.88 229.869 L1943.26 229.869 L1943.26 233.804 L1915.04 233.804 L1915.04 230.239 L1936.9 203.179 L1915.58 203.179 L1915.58 199.244 Z" fill="#000000" fill-rule="nonzero" fill-opacity="1" /><path clip-path="url(#clip780)" d="M1949.86 207.878 L1954.12 207.878 L1954.12 233.804 L1949.86 233.804 L1949.86 207.878 M1949.86 197.785 L1954.12 197.785 L1954.12 203.179 L1949.86 203.179 L1949.86 197.785 Z" fill="#000000" fill-rule="nonzero" fill-opacity="1" /><path clip-path="url(#clip780)" d="M1980.09 220.54 Q1980.09 215.91 1978.17 213.364 Q1976.27 210.818 1972.82 210.818 Q1969.4 210.818 1967.47 213.364 Q1965.58 215.91 1965.58 220.54 Q1965.58 225.146 1967.47 227.693 Q1969.4 230.239 1972.82 230.239 Q1976.27 230.239 1978.17 227.693 Q1980.09 225.146 1980.09 220.54 M1984.35 230.586 Q1984.35 237.206 1981.41 240.424 Q1978.47 243.665 1972.41 243.665 Q1970.16 243.665 1968.17 243.318 Q1966.18 242.993 1964.3 242.299 L1964.3 238.156 Q1966.18 239.174 1968.01 239.66 Q1969.84 240.146 1971.73 240.146 Q1975.92 240.146 1978.01 237.947 Q1980.09 235.771 1980.09 231.35 L1980.09 229.244 Q1978.77 231.535 1976.71 232.669 Q1974.65 233.804 1971.78 233.804 Q1967.01 233.804 1964.1 230.169 Q1961.18 226.535 1961.18 220.54 Q1961.18 214.521 1964.1 210.887 Q1967.01 207.253 1971.78 207.253 Q1974.65 207.253 1976.71 208.387 Q1978.77 209.521 1980.09 211.813 L1980.09 207.878 L1984.35 207.878 L1984.35 230.586 Z" fill="#000000" fill-rule="nonzero" fill-opacity="1" /><path clip-path="url(#clip780)" d="M1991.32 199.244 L2018.47 199.244 L2018.47 202.809 L1996.62 229.869 L2019 229.869 L2019 233.804 L1990.79 233.804 L1990.79 230.239 L2012.64 203.179 L1991.32 203.179 L1991.32 199.244 Z" fill="#000000" fill-rule="nonzero" fill-opacity="1" /><path clip-path="url(#clip780)" d="M2037.38 220.771 Q2032.22 220.771 2030.23 221.952 Q2028.24 223.132 2028.24 225.98 Q2028.24 228.248 2029.72 229.591 Q2031.22 230.91 2033.79 230.91 Q2037.34 230.91 2039.47 228.41 Q2041.62 225.887 2041.62 221.72 L2041.62 220.771 L2037.38 220.771 M2045.88 219.012 L2045.88 233.804 L2041.62 233.804 L2041.62 229.869 Q2040.16 232.23 2037.98 233.364 Q2035.81 234.475 2032.66 234.475 Q2028.68 234.475 2026.32 232.253 Q2023.98 230.007 2023.98 226.257 Q2023.98 221.882 2026.9 219.66 Q2029.84 217.438 2035.65 217.438 L2041.62 217.438 L2041.62 217.021 Q2041.62 214.082 2039.67 212.484 Q2037.75 210.864 2034.26 210.864 Q2032.03 210.864 2029.93 211.396 Q2027.82 211.929 2025.88 212.994 L2025.88 209.058 Q2028.22 208.156 2030.41 207.716 Q2032.61 207.253 2034.7 207.253 Q2040.32 207.253 2043.1 210.17 Q2045.88 213.086 2045.88 219.012 Z" fill="#000000" fill-rule="nonzero" fill-opacity="1" /><path clip-path="url(#clip780)" d="M2071.71 220.54 Q2071.71 215.91 2069.79 213.364 Q2067.89 210.818 2064.44 210.818 Q2061.02 210.818 2059.09 213.364 Q2057.2 215.91 2057.2 220.54 Q2057.2 225.146 2059.09 227.693 Q2061.02 230.239 2064.44 230.239 Q2067.89 230.239 2069.79 227.693 Q2071.71 225.146 2071.71 220.54 M2075.97 230.586 Q2075.97 237.206 2073.03 240.424 Q2070.09 243.665 2064.03 243.665 Q2061.78 243.665 2059.79 243.318 Q2057.8 242.993 2055.92 242.299 L2055.92 238.156 Q2057.8 239.174 2059.63 239.66 Q2061.46 240.146 2063.35 240.146 Q2067.54 240.146 2069.63 237.947 Q2071.71 235.771 2071.71 231.35 L2071.71 229.244 Q2070.39 231.535 2068.33 232.669 Q2066.27 233.804 2063.4 233.804 Q2058.63 233.804 2055.72 230.169 Q2052.8 226.535 2052.8 220.54 Q2052.8 214.521 2055.72 210.887 Q2058.63 207.253 2063.4 207.253 Q2066.27 207.253 2068.33 208.387 Q2070.39 209.521 2071.71 211.813 L2071.71 207.878 L2075.97 207.878 L2075.97 230.586 Z" fill="#000000" fill-rule="nonzero" fill-opacity="1" /><path clip-path="url(#clip780)" d="M2104.44 241.674 L2104.44 244.984 L2079.81 244.984 L2079.81 241.674 L2104.44 241.674 Z" fill="#000000" fill-rule="nonzero" fill-opacity="1" /><path clip-path="url(#clip780)" d="M2113.08 229.869 L2129.4 229.869 L2129.4 233.804 L2107.45 233.804 L2107.45 229.869 Q2110.11 227.114 2114.7 222.484 Q2119.3 217.832 2120.48 216.489 Q2122.73 213.966 2123.61 212.23 Q2124.51 210.471 2124.51 208.781 Q2124.51 206.026 2122.57 204.29 Q2120.65 202.554 2117.54 202.554 Q2115.34 202.554 2112.89 203.318 Q2110.46 204.082 2107.68 205.633 L2107.68 200.91 Q2110.51 199.776 2112.96 199.197 Q2115.41 198.619 2117.45 198.619 Q2122.82 198.619 2126.02 201.304 Q2129.21 203.989 2129.21 208.48 Q2129.21 210.609 2128.4 212.531 Q2127.61 214.429 2125.51 217.021 Q2124.93 217.693 2121.83 220.91 Q2118.72 224.105 2113.08 229.869 Z" fill="#000000" fill-rule="nonzero" fill-opacity="1" /><path clip-path="url(#clip780)" d="M2143.47 203.086 L2143.47 229.961 L2149.12 229.961 Q2156.27 229.961 2159.58 226.72 Q2162.91 223.48 2162.91 216.489 Q2162.91 209.545 2159.58 206.327 Q2156.27 203.086 2149.12 203.086 L2143.47 203.086 M2138.79 199.244 L2148.4 199.244 Q2158.45 199.244 2163.15 203.434 Q2167.84 207.6 2167.84 216.489 Q2167.84 225.424 2163.12 229.614 Q2158.4 233.804 2148.4 233.804 L2138.79 233.804 L2138.79 199.244 Z" fill="#000000" fill-rule="nonzero" fill-opacity="1" /><circle clip-path="url(#clip780)" cx="1826.13" cy="268.364" r="21.2677" fill="#008000" fill-rule="evenodd" fill-opacity="1" stroke="#000000" stroke-opacity="1" stroke-width="3.02474"/>
<path clip-path="url(#clip780)" d="M1937.29 252.218 L1937.29 256.778 Q1934.63 255.505 1932.27 254.88 Q1929.91 254.255 1927.71 254.255 Q1923.89 254.255 1921.8 255.736 Q1919.74 257.218 1919.74 259.949 Q1919.74 262.241 1921.11 263.422 Q1922.5 264.579 1926.34 265.297 L1929.16 265.875 Q1934.4 266.871 1936.87 269.394 Q1939.37 271.894 1939.37 276.107 Q1939.37 281.13 1935.99 283.722 Q1932.64 286.315 1926.13 286.315 Q1923.68 286.315 1920.9 285.759 Q1918.15 285.204 1915.18 284.116 L1915.18 279.301 Q1918.03 280.898 1920.76 281.709 Q1923.49 282.519 1926.13 282.519 Q1930.14 282.519 1932.31 280.945 Q1934.49 279.371 1934.49 276.454 Q1934.49 273.908 1932.91 272.472 Q1931.36 271.037 1927.8 270.32 L1924.95 269.764 Q1919.72 268.723 1917.38 266.5 Q1915.04 264.278 1915.04 260.32 Q1915.04 255.736 1918.26 253.098 Q1921.5 250.459 1927.17 250.459 Q1929.6 250.459 1932.13 250.899 Q1934.65 251.338 1937.29 252.218 Z" fill="#000000" fill-rule="nonzero" fill-opacity="1" /><path clip-path="url(#clip780)" d="M1950.69 252.357 L1950.69 259.718 L1959.47 259.718 L1959.47 263.028 L1950.69 263.028 L1950.69 277.102 Q1950.69 280.273 1951.55 281.176 Q1952.43 282.079 1955.09 282.079 L1959.47 282.079 L1959.47 285.644 L1955.09 285.644 Q1950.16 285.644 1948.29 283.815 Q1946.41 281.963 1946.41 277.102 L1946.41 263.028 L1943.29 263.028 L1943.29 259.718 L1946.41 259.718 L1946.41 252.357 L1950.69 252.357 Z" fill="#000000" fill-rule="nonzero" fill-opacity="1" /><path clip-path="url(#clip780)" d="M1976.85 272.611 Q1971.69 272.611 1969.7 273.792 Q1967.71 274.972 1967.71 277.82 Q1967.71 280.088 1969.19 281.431 Q1970.69 282.75 1973.26 282.75 Q1976.8 282.75 1978.93 280.25 Q1981.09 277.727 1981.09 273.56 L1981.09 272.611 L1976.85 272.611 M1985.35 270.852 L1985.35 285.644 L1981.09 285.644 L1981.09 281.709 Q1979.63 284.07 1977.45 285.204 Q1975.28 286.315 1972.13 286.315 Q1968.15 286.315 1965.79 284.093 Q1963.45 281.847 1963.45 278.097 Q1963.45 273.722 1966.36 271.5 Q1969.3 269.278 1975.11 269.278 L1981.09 269.278 L1981.09 268.861 Q1981.09 265.922 1979.14 264.324 Q1977.22 262.704 1973.72 262.704 Q1971.5 262.704 1969.4 263.236 Q1967.29 263.769 1965.35 264.834 L1965.35 260.898 Q1967.68 259.996 1969.88 259.556 Q1972.08 259.093 1974.16 259.093 Q1979.79 259.093 1982.57 262.01 Q1985.35 264.926 1985.35 270.852 Z" fill="#000000" fill-rule="nonzero" fill-opacity="1" /><path clip-path="url(#clip780)" d="M2009.14 263.699 Q2008.42 263.283 2007.57 263.098 Q2006.73 262.889 2005.72 262.889 Q2002.1 262.889 2000.16 265.25 Q1998.24 267.588 1998.24 271.986 L1998.24 285.644 L1993.96 285.644 L1993.96 259.718 L1998.24 259.718 L1998.24 263.746 Q1999.58 261.385 2001.73 260.25 Q2003.89 259.093 2006.97 259.093 Q2007.41 259.093 2007.94 259.162 Q2008.47 259.209 2009.12 259.324 L2009.14 263.699 Z" fill="#000000" fill-rule="nonzero" fill-opacity="1" /><path clip-path="url(#clip780)" d="M2017.82 252.357 L2017.82 259.718 L2026.6 259.718 L2026.6 263.028 L2017.82 263.028 L2017.82 277.102 Q2017.82 280.273 2018.68 281.176 Q2019.56 282.079 2022.22 282.079 L2026.6 282.079 L2026.6 285.644 L2022.22 285.644 Q2017.29 285.644 2015.41 283.815 Q2013.54 281.963 2013.54 277.102 L2013.54 263.028 L2010.41 263.028 L2010.41 259.718 L2013.54 259.718 L2013.54 252.357 L2017.82 252.357 Z" fill="#000000" fill-rule="nonzero" fill-opacity="1" /><circle clip-path="url(#clip780)" cx="1826.13" cy="320.204" r="21.2677" fill="#ff0000" fill-rule="evenodd" fill-opacity="1" stroke="#000000" stroke-opacity="1" stroke-width="3.02474"/>
<path clip-path="url(#clip780)" d="M1915.04 302.924 L1936.9 302.924 L1936.9 306.859 L1919.72 306.859 L1919.72 317.09 L1936.18 317.09 L1936.18 321.025 L1919.72 321.025 L1919.72 333.549 L1937.31 333.549 L1937.31 337.484 L1915.04 337.484 L1915.04 302.924 Z" fill="#000000" fill-rule="nonzero" fill-opacity="1" /><path clip-path="url(#clip780)" d="M1966.36 321.836 L1966.36 337.484 L1962.1 337.484 L1962.1 321.975 Q1962.1 318.294 1960.67 316.465 Q1959.23 314.637 1956.36 314.637 Q1952.91 314.637 1950.92 316.836 Q1948.93 319.035 1948.93 322.831 L1948.93 337.484 L1944.65 337.484 L1944.65 311.558 L1948.93 311.558 L1948.93 315.586 Q1950.46 313.248 1952.52 312.09 Q1954.6 310.933 1957.31 310.933 Q1961.78 310.933 1964.07 313.711 Q1966.36 316.465 1966.36 321.836 Z" fill="#000000" fill-rule="nonzero" fill-opacity="1" /><path clip-path="url(#clip780)" d="M1991.92 315.493 L1991.92 301.465 L1996.18 301.465 L1996.18 337.484 L1991.92 337.484 L1991.92 333.595 Q1990.58 335.91 1988.52 337.044 Q1986.48 338.155 1983.61 338.155 Q1978.91 338.155 1975.95 334.405 Q1973.01 330.655 1973.01 324.544 Q1973.01 318.433 1975.95 314.683 Q1978.91 310.933 1983.61 310.933 Q1986.48 310.933 1988.52 312.067 Q1990.58 313.178 1991.92 315.493 M1977.41 324.544 Q1977.41 329.243 1979.33 331.928 Q1981.27 334.59 1984.65 334.59 Q1988.03 334.59 1989.97 331.928 Q1991.92 329.243 1991.92 324.544 Q1991.92 319.845 1989.97 317.183 Q1988.03 314.498 1984.65 314.498 Q1981.27 314.498 1979.33 317.183 Q1977.41 319.845 1977.41 324.544 Z" fill="#000000" fill-rule="nonzero" fill-opacity="1" /></svg>
