<?xml version="1.0" encoding="utf-8"?>
<svg xmlns="http://www.w3.org/2000/svg" xmlns:xlink="http://www.w3.org/1999/xlink" width="576" height="384" viewBox="0 0 2304 1536">
<defs>
  <clipPath id="clip060">
    <rect x="0" y="0" width="2304" height="1536"/>
  </clipPath>
</defs>
<path clip-path="url(#clip060)" d="M0 1536 L2304 1536 L2304 8.52651e-14 L0 8.52651e-14  Z" fill="#f0f1eb" fill-rule="evenodd" fill-opacity="1"/>
<defs>
  <clipPath id="clip061">
    <rect x="460" y="0" width="1614" height="1536"/>
  </clipPath>
</defs>
<path clip-path="url(#clip060)" d="M256.244 1359.82 L2256.76 1359.82 L2256.76 123.472 L256.244 123.472  Z" fill="#f0f1eb" fill-rule="evenodd" fill-opacity="1"/>
<defs>
  <clipPath id="clip062">
    <rect x="256" y="123" width="2002" height="1237"/>
  </clipPath>
</defs>
<polyline clip-path="url(#clip062)" style="stroke:#000000; stroke-linecap:round; stroke-linejoin:round; stroke-width:2; stroke-opacity:0.1; fill:none" points="565.578,1359.82 565.578,123.472 "/>
<polyline clip-path="url(#clip062)" style="stroke:#000000; stroke-linecap:round; stroke-linejoin:round; stroke-width:2; stroke-opacity:0.1; fill:none" points="879.183,1359.82 879.183,123.472 "/>
<polyline clip-path="url(#clip062)" style="stroke:#000000; stroke-linecap:round; stroke-linejoin:round; stroke-width:2; stroke-opacity:0.1; fill:none" points="1192.79,1359.82 1192.79,123.472 "/>
<polyline clip-path="url(#clip062)" style="stroke:#000000; stroke-linecap:round; stroke-linejoin:round; stroke-width:2; stroke-opacity:0.1; fill:none" points="1506.39,1359.82 1506.39,123.472 "/>
<polyline clip-path="url(#clip062)" style="stroke:#000000; stroke-linecap:round; stroke-linejoin:round; stroke-width:2; stroke-opacity:0.1; fill:none" points="1820,1359.82 1820,123.472 "/>
<polyline clip-path="url(#clip062)" style="stroke:#000000; stroke-linecap:round; stroke-linejoin:round; stroke-width:2; stroke-opacity:0.1; fill:none" points="2133.6,1359.82 2133.6,123.472 "/>
<polyline clip-path="url(#clip060)" style="stroke:#000000; stroke-linecap:round; stroke-linejoin:round; stroke-width:4; stroke-opacity:1; fill:none" points="256.244,1359.82 2256.76,1359.82 "/>
<polyline clip-path="url(#clip060)" style="stroke:#000000; stroke-linecap:round; stroke-linejoin:round; stroke-width:4; stroke-opacity:1; fill:none" points="565.578,1359.82 565.578,1340.92 "/>
<polyline clip-path="url(#clip060)" style="stroke:#000000; stroke-linecap:round; stroke-linejoin:round; stroke-width:4; stroke-opacity:1; fill:none" points="879.183,1359.82 879.183,1340.92 "/>
<polyline clip-path="url(#clip060)" style="stroke:#000000; stroke-linecap:round; stroke-linejoin:round; stroke-width:4; stroke-opacity:1; fill:none" points="1192.79,1359.82 1192.79,1340.92 "/>
<polyline clip-path="url(#clip060)" style="stroke:#000000; stroke-linecap:round; stroke-linejoin:round; stroke-width:4; stroke-opacity:1; fill:none" points="1506.39,1359.82 1506.39,1340.92 "/>
<polyline clip-path="url(#clip060)" style="stroke:#000000; stroke-linecap:round; stroke-linejoin:round; stroke-width:4; stroke-opacity:1; fill:none" points="1820,1359.82 1820,1340.92 "/>
<polyline clip-path="url(#clip060)" style="stroke:#000000; stroke-linecap:round; stroke-linejoin:round; stroke-width:4; stroke-opacity:1; fill:none" points="2133.6,1359.82 2133.6,1340.92 "/>
<path clip-path="url(#clip060)" d="M512.604 1404.62 L542.28 1404.62 L542.28 1408.56 L512.604 1408.56 L512.604 1404.62 Z" fill="#000000" fill-rule="nonzero" fill-opacity="1" /><path clip-path="url(#clip060)" d="M562.372 1389.97 Q558.761 1389.97 556.933 1393.54 Q555.127 1397.08 555.127 1404.21 Q555.127 1411.31 556.933 1414.88 Q558.761 1418.42 562.372 1418.42 Q566.007 1418.42 567.812 1414.88 Q569.641 1411.31 569.641 1404.21 Q569.641 1397.08 567.812 1393.54 Q566.007 1389.97 562.372 1389.97 M562.372 1386.27 Q568.183 1386.27 571.238 1390.87 Q574.317 1395.46 574.317 1404.21 Q574.317 1412.93 571.238 1417.54 Q568.183 1422.12 562.372 1422.12 Q556.562 1422.12 553.484 1417.54 Q550.428 1412.93 550.428 1404.21 Q550.428 1395.46 553.484 1390.87 Q556.562 1386.27 562.372 1386.27 Z" fill="#000000" fill-rule="nonzero" fill-opacity="1" /><path clip-path="url(#clip060)" d="M582.534 1415.57 L587.419 1415.57 L587.419 1421.45 L582.534 1421.45 L582.534 1415.57 Z" fill="#000000" fill-rule="nonzero" fill-opacity="1" /><path clip-path="url(#clip060)" d="M597.65 1386.89 L616.006 1386.89 L616.006 1390.83 L601.932 1390.83 L601.932 1399.3 Q602.951 1398.95 603.969 1398.79 Q604.988 1398.6 606.006 1398.6 Q611.793 1398.6 615.173 1401.78 Q618.553 1404.95 618.553 1410.36 Q618.553 1415.94 615.081 1419.04 Q611.608 1422.12 605.289 1422.12 Q603.113 1422.12 600.844 1421.75 Q598.599 1421.38 596.192 1420.64 L596.192 1415.94 Q598.275 1417.08 600.497 1417.63 Q602.719 1418.19 605.196 1418.19 Q609.201 1418.19 611.539 1416.08 Q613.877 1413.98 613.877 1410.36 Q613.877 1406.75 611.539 1404.65 Q609.201 1402.54 605.196 1402.54 Q603.321 1402.54 601.446 1402.96 Q599.594 1403.37 597.65 1404.25 L597.65 1386.89 Z" fill="#000000" fill-rule="nonzero" fill-opacity="1" /><path clip-path="url(#clip060)" d="M856.567 1389.97 Q852.956 1389.97 851.127 1393.54 Q849.322 1397.08 849.322 1404.21 Q849.322 1411.31 851.127 1414.88 Q852.956 1418.42 856.567 1418.42 Q860.201 1418.42 862.007 1414.88 Q863.836 1411.31 863.836 1404.21 Q863.836 1397.08 862.007 1393.54 Q860.201 1389.97 856.567 1389.97 M856.567 1386.27 Q862.377 1386.27 865.433 1390.87 Q868.512 1395.46 868.512 1404.21 Q868.512 1412.93 865.433 1417.54 Q862.377 1422.12 856.567 1422.12 Q850.757 1422.12 847.678 1417.54 Q844.623 1412.93 844.623 1404.21 Q844.623 1395.46 847.678 1390.87 Q850.757 1386.27 856.567 1386.27 Z" fill="#000000" fill-rule="nonzero" fill-opacity="1" /><path clip-path="url(#clip060)" d="M876.729 1415.57 L881.613 1415.57 L881.613 1421.45 L876.729 1421.45 L876.729 1415.57 Z" fill="#000000" fill-rule="nonzero" fill-opacity="1" /><path clip-path="url(#clip060)" d="M901.798 1389.97 Q898.187 1389.97 896.359 1393.54 Q894.553 1397.08 894.553 1404.21 Q894.553 1411.31 896.359 1414.88 Q898.187 1418.42 901.798 1418.42 Q905.433 1418.42 907.238 1414.88 Q909.067 1411.31 909.067 1404.21 Q909.067 1397.08 907.238 1393.54 Q905.433 1389.97 901.798 1389.97 M901.798 1386.27 Q907.609 1386.27 910.664 1390.87 Q913.743 1395.46 913.743 1404.21 Q913.743 1412.93 910.664 1417.54 Q907.609 1422.12 901.798 1422.12 Q895.988 1422.12 892.91 1417.54 Q889.854 1412.93 889.854 1404.21 Q889.854 1395.46 892.91 1390.87 Q895.988 1386.27 901.798 1386.27 Z" fill="#000000" fill-rule="nonzero" fill-opacity="1" /><path clip-path="url(#clip060)" d="M1170.67 1389.97 Q1167.06 1389.97 1165.23 1393.54 Q1163.42 1397.08 1163.42 1404.21 Q1163.42 1411.31 1165.23 1414.88 Q1167.06 1418.42 1170.67 1418.42 Q1174.3 1418.42 1176.11 1414.88 Q1177.94 1411.31 1177.94 1404.21 Q1177.94 1397.08 1176.11 1393.54 Q1174.3 1389.97 1170.67 1389.97 M1170.67 1386.27 Q1176.48 1386.27 1179.53 1390.87 Q1182.61 1395.46 1182.61 1404.21 Q1182.61 1412.93 1179.53 1417.54 Q1176.48 1422.12 1170.67 1422.12 Q1164.86 1422.12 1161.78 1417.54 Q1158.72 1412.93 1158.72 1404.21 Q1158.72 1395.46 1161.78 1390.87 Q1164.86 1386.27 1170.67 1386.27 Z" fill="#000000" fill-rule="nonzero" fill-opacity="1" /><path clip-path="url(#clip060)" d="M1190.83 1415.57 L1195.72 1415.57 L1195.72 1421.45 L1190.83 1421.45 L1190.83 1415.57 Z" fill="#000000" fill-rule="nonzero" fill-opacity="1" /><path clip-path="url(#clip060)" d="M1205.95 1386.89 L1224.3 1386.89 L1224.3 1390.83 L1210.23 1390.83 L1210.23 1399.3 Q1211.25 1398.95 1212.27 1398.79 Q1213.28 1398.6 1214.3 1398.6 Q1220.09 1398.6 1223.47 1401.78 Q1226.85 1404.95 1226.85 1410.36 Q1226.85 1415.94 1223.38 1419.04 Q1219.9 1422.12 1213.59 1422.12 Q1211.41 1422.12 1209.14 1421.75 Q1206.9 1421.38 1204.49 1420.64 L1204.49 1415.94 Q1206.57 1417.08 1208.79 1417.63 Q1211.02 1418.19 1213.49 1418.19 Q1217.5 1418.19 1219.84 1416.08 Q1222.17 1413.98 1222.17 1410.36 Q1222.17 1406.75 1219.84 1404.65 Q1217.5 1402.54 1213.49 1402.54 Q1211.62 1402.54 1209.74 1402.96 Q1207.89 1403.37 1205.95 1404.25 L1205.95 1386.89 Z" fill="#000000" fill-rule="nonzero" fill-opacity="1" /><path clip-path="url(#clip060)" d="M1473.54 1417.52 L1481.18 1417.52 L1481.18 1391.15 L1472.87 1392.82 L1472.87 1388.56 L1481.14 1386.89 L1485.81 1386.89 L1485.81 1417.52 L1493.45 1417.52 L1493.45 1421.45 L1473.54 1421.45 L1473.54 1417.52 Z" fill="#000000" fill-rule="nonzero" fill-opacity="1" /><path clip-path="url(#clip060)" d="M1502.9 1415.57 L1507.78 1415.57 L1507.78 1421.45 L1502.9 1421.45 L1502.9 1415.57 Z" fill="#000000" fill-rule="nonzero" fill-opacity="1" /><path clip-path="url(#clip060)" d="M1527.97 1389.97 Q1524.35 1389.97 1522.53 1393.54 Q1520.72 1397.08 1520.72 1404.21 Q1520.72 1411.31 1522.53 1414.88 Q1524.35 1418.42 1527.97 1418.42 Q1531.6 1418.42 1533.41 1414.88 Q1535.23 1411.31 1535.23 1404.21 Q1535.23 1397.08 1533.41 1393.54 Q1531.6 1389.97 1527.97 1389.97 M1527.97 1386.27 Q1533.78 1386.27 1536.83 1390.87 Q1539.91 1395.46 1539.91 1404.21 Q1539.91 1412.93 1536.83 1417.54 Q1533.78 1422.12 1527.97 1422.12 Q1522.16 1422.12 1519.08 1417.54 Q1516.02 1412.93 1516.02 1404.21 Q1516.02 1395.46 1519.08 1390.87 Q1522.16 1386.27 1527.97 1386.27 Z" fill="#000000" fill-rule="nonzero" fill-opacity="1" /><path clip-path="url(#clip060)" d="M1787.65 1417.52 L1795.29 1417.52 L1795.29 1391.15 L1786.98 1392.82 L1786.98 1388.56 L1795.24 1386.89 L1799.91 1386.89 L1799.91 1417.52 L1807.55 1417.52 L1807.55 1421.45 L1787.65 1421.45 L1787.65 1417.52 Z" fill="#000000" fill-rule="nonzero" fill-opacity="1" /><path clip-path="url(#clip060)" d="M1817 1415.57 L1821.88 1415.57 L1821.88 1421.45 L1817 1421.45 L1817 1415.57 Z" fill="#000000" fill-rule="nonzero" fill-opacity="1" /><path clip-path="url(#clip060)" d="M1832.11 1386.89 L1850.47 1386.89 L1850.47 1390.83 L1836.4 1390.83 L1836.4 1399.3 Q1837.41 1398.95 1838.43 1398.79 Q1839.45 1398.6 1840.47 1398.6 Q1846.26 1398.6 1849.64 1401.78 Q1853.02 1404.95 1853.02 1410.36 Q1853.02 1415.94 1849.54 1419.04 Q1846.07 1422.12 1839.75 1422.12 Q1837.58 1422.12 1835.31 1421.75 Q1833.06 1421.38 1830.66 1420.64 L1830.66 1415.94 Q1832.74 1417.08 1834.96 1417.63 Q1837.18 1418.19 1839.66 1418.19 Q1843.66 1418.19 1846 1416.08 Q1848.34 1413.98 1848.34 1410.36 Q1848.34 1406.75 1846 1404.65 Q1843.66 1402.54 1839.66 1402.54 Q1837.78 1402.54 1835.91 1402.96 Q1834.06 1403.37 1832.11 1404.25 L1832.11 1386.89 Z" fill="#000000" fill-rule="nonzero" fill-opacity="1" /><path clip-path="url(#clip060)" d="M2104.84 1417.52 L2121.16 1417.52 L2121.16 1421.45 L2099.21 1421.45 L2099.21 1417.52 Q2101.88 1414.76 2106.46 1410.13 Q2111.07 1405.48 2112.25 1404.14 Q2114.49 1401.61 2115.37 1399.88 Q2116.27 1398.12 2116.27 1396.43 Q2116.27 1393.67 2114.33 1391.94 Q2112.41 1390.2 2109.31 1390.2 Q2107.11 1390.2 2104.65 1390.97 Q2102.22 1391.73 2099.45 1393.28 L2099.45 1388.56 Q2102.27 1387.42 2104.72 1386.85 Q2107.18 1386.27 2109.21 1386.27 Q2114.58 1386.27 2117.78 1388.95 Q2120.97 1391.64 2120.97 1396.13 Q2120.97 1398.26 2120.16 1400.18 Q2119.38 1402.08 2117.27 1404.67 Q2116.69 1405.34 2113.59 1408.56 Q2110.49 1411.75 2104.84 1417.52 Z" fill="#000000" fill-rule="nonzero" fill-opacity="1" /><path clip-path="url(#clip060)" d="M2130.97 1415.57 L2135.86 1415.57 L2135.86 1421.45 L2130.97 1421.45 L2130.97 1415.57 Z" fill="#000000" fill-rule="nonzero" fill-opacity="1" /><path clip-path="url(#clip060)" d="M2156.04 1389.97 Q2152.43 1389.97 2150.6 1393.54 Q2148.8 1397.08 2148.8 1404.21 Q2148.8 1411.31 2150.6 1414.88 Q2152.43 1418.42 2156.04 1418.42 Q2159.68 1418.42 2161.48 1414.88 Q2163.31 1411.31 2163.31 1404.21 Q2163.31 1397.08 2161.48 1393.54 Q2159.68 1389.97 2156.04 1389.97 M2156.04 1386.27 Q2161.85 1386.27 2164.91 1390.87 Q2167.99 1395.46 2167.99 1404.21 Q2167.99 1412.93 2164.91 1417.54 Q2161.85 1422.12 2156.04 1422.12 Q2150.23 1422.12 2147.15 1417.54 Q2144.1 1412.93 2144.1 1404.21 Q2144.1 1395.46 2147.15 1390.87 Q2150.23 1386.27 2156.04 1386.27 Z" fill="#000000" fill-rule="nonzero" fill-opacity="1" /><path clip-path="url(#clip060)" d="M1238.33 1455.72 L1245.23 1455.72 L1257.04 1473.39 L1268.91 1455.72 L1275.82 1455.72 L1260.54 1478.54 L1276.84 1503.24 L1269.93 1503.24 L1256.56 1483.03 L1243.1 1503.24 L1236.16 1503.24 L1253.13 1477.88 L1238.33 1455.72 Z" fill="#000000" fill-rule="nonzero" fill-opacity="1" /><polyline clip-path="url(#clip062)" style="stroke:#000000; stroke-linecap:round; stroke-linejoin:round; stroke-width:2; stroke-opacity:0.1; fill:none" points="256.244,1200.3 2256.76,1200.3 "/>
<polyline clip-path="url(#clip062)" style="stroke:#000000; stroke-linecap:round; stroke-linejoin:round; stroke-width:2; stroke-opacity:0.1; fill:none" points="256.244,978.785 2256.76,978.785 "/>
<polyline clip-path="url(#clip062)" style="stroke:#000000; stroke-linecap:round; stroke-linejoin:round; stroke-width:2; stroke-opacity:0.1; fill:none" points="256.244,757.271 2256.76,757.271 "/>
<polyline clip-path="url(#clip062)" style="stroke:#000000; stroke-linecap:round; stroke-linejoin:round; stroke-width:2; stroke-opacity:0.1; fill:none" points="256.244,535.757 2256.76,535.757 "/>
<polyline clip-path="url(#clip062)" style="stroke:#000000; stroke-linecap:round; stroke-linejoin:round; stroke-width:2; stroke-opacity:0.1; fill:none" points="256.244,314.243 2256.76,314.243 "/>
<polyline clip-path="url(#clip060)" style="stroke:#000000; stroke-linecap:round; stroke-linejoin:round; stroke-width:4; stroke-opacity:1; fill:none" points="256.244,1359.82 256.244,123.472 "/>
<polyline clip-path="url(#clip060)" style="stroke:#000000; stroke-linecap:round; stroke-linejoin:round; stroke-width:4; stroke-opacity:1; fill:none" points="256.244,1200.3 275.142,1200.3 "/>
<polyline clip-path="url(#clip060)" style="stroke:#000000; stroke-linecap:round; stroke-linejoin:round; stroke-width:4; stroke-opacity:1; fill:none" points="256.244,978.785 275.142,978.785 "/>
<polyline clip-path="url(#clip060)" style="stroke:#000000; stroke-linecap:round; stroke-linejoin:round; stroke-width:4; stroke-opacity:1; fill:none" points="256.244,757.271 275.142,757.271 "/>
<polyline clip-path="url(#clip060)" style="stroke:#000000; stroke-linecap:round; stroke-linejoin:round; stroke-width:4; stroke-opacity:1; fill:none" points="256.244,535.757 275.142,535.757 "/>
<polyline clip-path="url(#clip060)" style="stroke:#000000; stroke-linecap:round; stroke-linejoin:round; stroke-width:4; stroke-opacity:1; fill:none" points="256.244,314.243 275.142,314.243 "/>
<path clip-path="url(#clip060)" d="M114.74 1200.75 L144.416 1200.75 L144.416 1204.69 L114.74 1204.69 L114.74 1200.75 Z" fill="#000000" fill-rule="nonzero" fill-opacity="1" /><path clip-path="url(#clip060)" d="M155.319 1213.64 L162.957 1213.64 L162.957 1187.28 L154.647 1188.95 L154.647 1184.69 L162.911 1183.02 L167.587 1183.02 L167.587 1213.64 L175.226 1213.64 L175.226 1217.58 L155.319 1217.58 L155.319 1213.64 Z" fill="#000000" fill-rule="nonzero" fill-opacity="1" /><path clip-path="url(#clip060)" d="M184.67 1211.7 L189.555 1211.7 L189.555 1217.58 L184.67 1217.58 L184.67 1211.7 Z" fill="#000000" fill-rule="nonzero" fill-opacity="1" /><path clip-path="url(#clip060)" d="M209.74 1186.1 Q206.129 1186.1 204.3 1189.66 Q202.494 1193.2 202.494 1200.33 Q202.494 1207.44 204.3 1211.01 Q206.129 1214.55 209.74 1214.55 Q213.374 1214.55 215.179 1211.01 Q217.008 1207.44 217.008 1200.33 Q217.008 1193.2 215.179 1189.66 Q213.374 1186.1 209.74 1186.1 M209.74 1182.39 Q215.55 1182.39 218.605 1187 Q221.684 1191.58 221.684 1200.33 Q221.684 1209.06 218.605 1213.67 Q215.55 1218.25 209.74 1218.25 Q203.929 1218.25 200.851 1213.67 Q197.795 1209.06 197.795 1200.33 Q197.795 1191.58 200.851 1187 Q203.929 1182.39 209.74 1182.39 Z" fill="#000000" fill-rule="nonzero" fill-opacity="1" /><path clip-path="url(#clip060)" d="M115.736 979.237 L145.411 979.237 L145.411 983.172 L115.736 983.172 L115.736 979.237 Z" fill="#000000" fill-rule="nonzero" fill-opacity="1" /><path clip-path="url(#clip060)" d="M165.504 964.584 Q161.893 964.584 160.064 968.149 Q158.258 971.69 158.258 978.82 Q158.258 985.926 160.064 989.491 Q161.893 993.033 165.504 993.033 Q169.138 993.033 170.944 989.491 Q172.772 985.926 172.772 978.82 Q172.772 971.69 170.944 968.149 Q169.138 964.584 165.504 964.584 M165.504 960.88 Q171.314 960.88 174.369 965.487 Q177.448 970.07 177.448 978.82 Q177.448 987.547 174.369 992.153 Q171.314 996.736 165.504 996.736 Q159.694 996.736 156.615 992.153 Q153.559 987.547 153.559 978.82 Q153.559 970.07 156.615 965.487 Q159.694 960.88 165.504 960.88 Z" fill="#000000" fill-rule="nonzero" fill-opacity="1" /><path clip-path="url(#clip060)" d="M185.666 990.186 L190.55 990.186 L190.55 996.065 L185.666 996.065 L185.666 990.186 Z" fill="#000000" fill-rule="nonzero" fill-opacity="1" /><path clip-path="url(#clip060)" d="M200.781 961.505 L219.138 961.505 L219.138 965.44 L205.064 965.44 L205.064 973.912 Q206.082 973.565 207.101 973.403 Q208.119 973.218 209.138 973.218 Q214.925 973.218 218.304 976.389 Q221.684 979.561 221.684 984.977 Q221.684 990.556 218.212 993.658 Q214.74 996.736 208.42 996.736 Q206.244 996.736 203.976 996.366 Q201.73 995.996 199.323 995.255 L199.323 990.556 Q201.406 991.69 203.629 992.246 Q205.851 992.801 208.328 992.801 Q212.332 992.801 214.67 990.695 Q217.008 988.588 217.008 984.977 Q217.008 981.366 214.67 979.26 Q212.332 977.153 208.328 977.153 Q206.453 977.153 204.578 977.57 Q202.726 977.987 200.781 978.866 L200.781 961.505 Z" fill="#000000" fill-rule="nonzero" fill-opacity="1" /><path clip-path="url(#clip060)" d="M164.508 743.07 Q160.897 743.07 159.069 746.635 Q157.263 750.176 157.263 757.306 Q157.263 764.412 159.069 767.977 Q160.897 771.519 164.508 771.519 Q168.143 771.519 169.948 767.977 Q171.777 764.412 171.777 757.306 Q171.777 750.176 169.948 746.635 Q168.143 743.07 164.508 743.07 M164.508 739.366 Q170.319 739.366 173.374 743.972 Q176.453 748.556 176.453 757.306 Q176.453 766.033 173.374 770.639 Q170.319 775.222 164.508 775.222 Q158.698 775.222 155.62 770.639 Q152.564 766.033 152.564 757.306 Q152.564 748.556 155.62 743.972 Q158.698 739.366 164.508 739.366 Z" fill="#000000" fill-rule="nonzero" fill-opacity="1" /><path clip-path="url(#clip060)" d="M184.67 768.671 L189.555 768.671 L189.555 774.551 L184.67 774.551 L184.67 768.671 Z" fill="#000000" fill-rule="nonzero" fill-opacity="1" /><path clip-path="url(#clip060)" d="M209.74 743.07 Q206.129 743.07 204.3 746.635 Q202.494 750.176 202.494 757.306 Q202.494 764.412 204.3 767.977 Q206.129 771.519 209.74 771.519 Q213.374 771.519 215.179 767.977 Q217.008 764.412 217.008 757.306 Q217.008 750.176 215.179 746.635 Q213.374 743.07 209.74 743.07 M209.74 739.366 Q215.55 739.366 218.605 743.972 Q221.684 748.556 221.684 757.306 Q221.684 766.033 218.605 770.639 Q215.55 775.222 209.74 775.222 Q203.929 775.222 200.851 770.639 Q197.795 766.033 197.795 757.306 Q197.795 748.556 200.851 743.972 Q203.929 739.366 209.74 739.366 Z" fill="#000000" fill-rule="nonzero" fill-opacity="1" /><path clip-path="url(#clip060)" d="M165.504 521.556 Q161.893 521.556 160.064 525.12 Q158.258 528.662 158.258 535.792 Q158.258 542.898 160.064 546.463 Q161.893 550.005 165.504 550.005 Q169.138 550.005 170.944 546.463 Q172.772 542.898 172.772 535.792 Q172.772 528.662 170.944 525.12 Q169.138 521.556 165.504 521.556 M165.504 517.852 Q171.314 517.852 174.369 522.458 Q177.448 527.042 177.448 535.792 Q177.448 544.518 174.369 549.125 Q171.314 553.708 165.504 553.708 Q159.694 553.708 156.615 549.125 Q153.559 544.518 153.559 535.792 Q153.559 527.042 156.615 522.458 Q159.694 517.852 165.504 517.852 Z" fill="#000000" fill-rule="nonzero" fill-opacity="1" /><path clip-path="url(#clip060)" d="M185.666 547.157 L190.55 547.157 L190.55 553.037 L185.666 553.037 L185.666 547.157 Z" fill="#000000" fill-rule="nonzero" fill-opacity="1" /><path clip-path="url(#clip060)" d="M200.781 518.477 L219.138 518.477 L219.138 522.412 L205.064 522.412 L205.064 530.884 Q206.082 530.537 207.101 530.375 Q208.119 530.19 209.138 530.19 Q214.925 530.19 218.304 533.361 Q221.684 536.532 221.684 541.949 Q221.684 547.528 218.212 550.63 Q214.74 553.708 208.42 553.708 Q206.244 553.708 203.976 553.338 Q201.73 552.967 199.323 552.227 L199.323 547.528 Q201.406 548.662 203.629 549.217 Q205.851 549.773 208.328 549.773 Q212.332 549.773 214.67 547.667 Q217.008 545.56 217.008 541.949 Q217.008 538.338 214.67 536.231 Q212.332 534.125 208.328 534.125 Q206.453 534.125 204.578 534.542 Q202.726 534.958 200.781 535.838 L200.781 518.477 Z" fill="#000000" fill-rule="nonzero" fill-opacity="1" /><path clip-path="url(#clip060)" d="M155.319 327.588 L162.957 327.588 L162.957 301.222 L154.647 302.889 L154.647 298.629 L162.911 296.963 L167.587 296.963 L167.587 327.588 L175.226 327.588 L175.226 331.523 L155.319 331.523 L155.319 327.588 Z" fill="#000000" fill-rule="nonzero" fill-opacity="1" /><path clip-path="url(#clip060)" d="M184.67 325.643 L189.555 325.643 L189.555 331.523 L184.67 331.523 L184.67 325.643 Z" fill="#000000" fill-rule="nonzero" fill-opacity="1" /><path clip-path="url(#clip060)" d="M209.74 300.041 Q206.129 300.041 204.3 303.606 Q202.494 307.148 202.494 314.277 Q202.494 321.384 204.3 324.949 Q206.129 328.49 209.74 328.49 Q213.374 328.49 215.179 324.949 Q217.008 321.384 217.008 314.277 Q217.008 307.148 215.179 303.606 Q213.374 300.041 209.74 300.041 M209.74 296.338 Q215.55 296.338 218.605 300.944 Q221.684 305.528 221.684 314.277 Q221.684 323.004 218.605 327.611 Q215.55 332.194 209.74 332.194 Q203.929 332.194 200.851 327.611 Q197.795 323.004 197.795 314.277 Q197.795 305.528 200.851 300.944 Q203.929 296.338 209.74 296.338 Z" fill="#000000" fill-rule="nonzero" fill-opacity="1" /><path clip-path="url(#clip060)" d="M18.4042 761.682 L18.4042 754.775 L37.9469 741.598 L18.4042 728.517 L18.4042 721.61 L43.2941 738.415 L65.9242 738.415 L65.9242 744.877 L43.2941 744.877 L18.4042 761.682 Z" fill="#000000" fill-rule="nonzero" fill-opacity="1" /><path clip-path="url(#clip060)" d="M378.163 65.6895 L406.722 65.6895 L406.722 72.576 L368.319 72.576 L368.319 65.6895 Q372.978 60.8689 380.998 52.7671 Q389.06 44.6248 391.126 42.2752 Q395.055 37.8598 396.594 34.8216 Q398.174 31.7429 398.174 28.7857 Q398.174 23.9651 394.771 20.927 Q391.409 17.8888 385.981 17.8888 Q382.133 17.8888 377.839 19.2256 Q373.585 20.5624 368.724 23.2765 L368.724 15.0127 Q373.666 13.0277 377.96 12.015 Q382.254 11.0023 385.819 11.0023 Q395.217 11.0023 400.807 15.7013 Q406.397 20.4004 406.397 28.2591 Q406.397 31.9859 404.98 35.3482 Q403.602 38.6699 399.916 43.2069 Q398.903 44.3817 393.475 50.0125 Q388.047 55.6027 378.163 65.6895 Z" fill="#000000" fill-rule="nonzero" fill-opacity="1" /><path clip-path="url(#clip060)" d="M431.351 18.8205 L431.351 65.8515 L441.235 65.8515 Q453.753 65.8515 459.545 60.1802 Q465.379 54.509 465.379 42.2752 Q465.379 30.1225 459.545 24.4918 Q453.753 18.8205 441.235 18.8205 L431.351 18.8205 M423.168 12.096 L439.979 12.096 Q457.56 12.096 465.784 19.4281 Q474.007 26.7198 474.007 42.2752 Q474.007 57.9117 465.743 65.2439 Q457.479 72.576 439.979 72.576 L423.168 72.576 L423.168 12.096 Z" fill="#000000" fill-rule="nonzero" fill-opacity="1" /><path clip-path="url(#clip060)" d="M509.939 12.096 L557.456 12.096 L557.456 18.3344 L519.215 65.6895 L558.387 65.6895 L558.387 72.576 L509.007 72.576 L509.007 66.3376 L547.247 18.9825 L509.939 18.9825 L509.939 12.096 Z" fill="#000000" fill-rule="nonzero" fill-opacity="1" /><path clip-path="url(#clip060)" d="M569.932 27.2059 L577.386 27.2059 L577.386 72.576 L569.932 72.576 L569.932 27.2059 M569.932 9.54393 L577.386 9.54393 L577.386 18.9825 L569.932 18.9825 L569.932 9.54393 Z" fill="#000000" fill-rule="nonzero" fill-opacity="1" /><path clip-path="url(#clip060)" d="M622.837 49.3643 Q622.837 41.2625 619.475 36.8065 Q616.153 32.3505 610.117 32.3505 Q604.122 32.3505 600.76 36.8065 Q597.438 41.2625 597.438 49.3643 Q597.438 57.4256 600.76 61.8816 Q604.122 66.3376 610.117 66.3376 Q616.153 66.3376 619.475 61.8816 Q622.837 57.4256 622.837 49.3643 M630.291 66.9452 Q630.291 78.5308 625.146 84.1616 Q620.002 89.8329 609.388 89.8329 Q605.459 89.8329 601.975 89.2252 Q598.491 88.6581 595.21 87.4428 L595.21 80.1917 Q598.491 81.9741 601.692 82.8248 Q604.892 83.6755 608.214 83.6755 Q615.546 83.6755 619.191 79.8271 Q622.837 76.0193 622.837 68.282 L622.837 64.5957 Q620.528 68.6061 616.923 70.5911 Q613.318 72.576 608.295 72.576 Q599.95 72.576 594.846 66.2161 Q589.741 59.8562 589.741 49.3643 Q589.741 38.832 594.846 32.472 Q599.95 26.1121 608.295 26.1121 Q613.318 26.1121 616.923 28.0971 Q620.528 30.082 622.837 34.0924 L622.837 27.2059 L630.291 27.2059 L630.291 66.9452 Z" fill="#000000" fill-rule="nonzero" fill-opacity="1" /><path clip-path="url(#clip060)" d="M642.484 12.096 L690.001 12.096 L690.001 18.3344 L651.761 65.6895 L690.933 65.6895 L690.933 72.576 L641.552 72.576 L641.552 66.3376 L679.793 18.9825 L642.484 18.9825 L642.484 12.096 Z" fill="#000000" fill-rule="nonzero" fill-opacity="1" /><path clip-path="url(#clip060)" d="M723.097 49.7694 Q714.064 49.7694 710.58 51.8354 Q707.096 53.9013 707.096 58.8839 Q707.096 62.8538 709.689 65.2034 Q712.322 67.5124 716.818 67.5124 Q723.016 67.5124 726.743 63.1374 Q730.51 58.7219 730.51 51.4303 L730.51 49.7694 L723.097 49.7694 M737.964 46.6907 L737.964 72.576 L730.51 72.576 L730.51 65.6895 Q727.958 69.8214 724.15 71.8063 Q720.343 73.7508 714.833 73.7508 Q707.866 73.7508 703.734 69.8619 Q699.642 65.9325 699.642 59.3701 Q699.642 51.7138 704.747 47.825 Q709.891 43.9361 720.059 43.9361 L730.51 43.9361 L730.51 43.2069 Q730.51 38.0623 727.108 35.2672 Q723.745 32.4315 717.628 32.4315 Q713.74 32.4315 710.053 33.3632 Q706.367 34.295 702.964 36.1584 L702.964 29.2718 Q707.056 27.692 710.904 26.9223 Q714.752 26.1121 718.398 26.1121 Q728.242 26.1121 733.103 31.2163 Q737.964 36.3204 737.964 46.6907 Z" fill="#000000" fill-rule="nonzero" fill-opacity="1" /><path clip-path="url(#clip060)" d="M783.172 49.3643 Q783.172 41.2625 779.81 36.8065 Q776.488 32.3505 770.452 32.3505 Q764.457 32.3505 761.095 36.8065 Q757.773 41.2625 757.773 49.3643 Q757.773 57.4256 761.095 61.8816 Q764.457 66.3376 770.452 66.3376 Q776.488 66.3376 779.81 61.8816 Q783.172 57.4256 783.172 49.3643 M790.626 66.9452 Q790.626 78.5308 785.481 84.1616 Q780.336 89.8329 769.723 89.8329 Q765.794 89.8329 762.31 89.2252 Q758.826 88.6581 755.545 87.4428 L755.545 80.1917 Q758.826 81.9741 762.026 82.8248 Q765.227 83.6755 768.548 83.6755 Q775.88 83.6755 779.526 79.8271 Q783.172 76.0193 783.172 68.282 L783.172 64.5957 Q780.863 68.6061 777.258 70.5911 Q773.652 72.576 768.629 72.576 Q760.284 72.576 755.18 66.2161 Q750.076 59.8562 750.076 49.3643 Q750.076 38.832 755.18 32.472 Q760.284 26.1121 768.629 26.1121 Q773.652 26.1121 777.258 28.0971 Q780.863 30.082 783.172 34.0924 L783.172 27.2059 L790.626 27.2059 L790.626 66.9452 Z" fill="#000000" fill-rule="nonzero" fill-opacity="1" /><path clip-path="url(#clip060)" d="M868.93 14.0809 L868.93 22.0612 Q864.271 19.8332 860.139 18.7395 Q856.007 17.6457 852.159 17.6457 Q845.475 17.6457 841.829 20.2383 Q838.224 22.8309 838.224 27.611 Q838.224 31.6214 840.614 33.6873 Q843.044 35.7128 849.769 36.9686 L854.711 37.9813 Q863.866 39.7232 868.201 44.1387 Q872.576 48.5136 872.576 55.8863 Q872.576 64.6767 866.661 69.2137 Q860.787 73.7508 849.404 73.7508 Q845.11 73.7508 840.249 72.7785 Q835.429 71.8063 830.244 69.9024 L830.244 61.4765 Q835.226 64.2716 840.006 65.6895 Q844.786 67.1073 849.404 67.1073 Q856.412 67.1073 860.22 64.3527 Q864.028 61.598 864.028 56.4939 Q864.028 52.0379 861.273 49.5264 Q858.559 47.0148 852.321 45.759 L847.338 44.7868 Q838.183 42.9639 834.092 39.075 Q830.001 35.1862 830.001 28.2591 Q830.001 20.2383 835.631 15.6203 Q841.303 11.0023 851.227 11.0023 Q855.481 11.0023 859.896 11.7719 Q864.312 12.5416 868.93 14.0809 Z" fill="#000000" fill-rule="nonzero" fill-opacity="1" /><path clip-path="url(#clip060)" d="M905.631 49.7694 Q896.597 49.7694 893.114 51.8354 Q889.63 53.9013 889.63 58.8839 Q889.63 62.8538 892.222 65.2034 Q894.855 67.5124 899.352 67.5124 Q905.55 67.5124 909.277 63.1374 Q913.044 58.7219 913.044 51.4303 L913.044 49.7694 L905.631 49.7694 M920.498 46.6907 L920.498 72.576 L913.044 72.576 L913.044 65.6895 Q910.492 69.8214 906.684 71.8063 Q902.876 73.7508 897.367 73.7508 Q890.399 73.7508 886.268 69.8619 Q882.176 65.9325 882.176 59.3701 Q882.176 51.7138 887.28 47.825 Q892.425 43.9361 902.593 43.9361 L913.044 43.9361 L913.044 43.2069 Q913.044 38.0623 909.641 35.2672 Q906.279 32.4315 900.162 32.4315 Q896.273 32.4315 892.587 33.3632 Q888.901 34.295 885.498 36.1584 L885.498 29.2718 Q889.589 27.692 893.438 26.9223 Q897.286 26.1121 900.932 26.1121 Q910.776 26.1121 915.637 31.2163 Q920.498 36.3204 920.498 46.6907 Z" fill="#000000" fill-rule="nonzero" fill-opacity="1" /><path clip-path="url(#clip060)" d="M971.175 35.9153 Q973.97 30.8922 977.859 28.5022 Q981.747 26.1121 987.014 26.1121 Q994.103 26.1121 997.951 31.0947 Q1001.8 36.0368 1001.8 45.1919 L1001.8 72.576 L994.305 72.576 L994.305 45.4349 Q994.305 38.913 991.996 35.7533 Q989.687 32.5936 984.948 32.5936 Q979.155 32.5936 975.793 36.4419 Q972.43 40.2903 972.43 46.9338 L972.43 72.576 L964.936 72.576 L964.936 45.4349 Q964.936 38.8725 962.627 35.7533 Q960.318 32.5936 955.498 32.5936 Q949.786 32.5936 946.424 36.4824 Q943.061 40.3308 943.061 46.9338 L943.061 72.576 L935.567 72.576 L935.567 27.2059 L943.061 27.2059 L943.061 34.2544 Q945.613 30.082 949.178 28.0971 Q952.743 26.1121 957.645 26.1121 Q962.587 26.1121 966.03 28.6237 Q969.514 31.1352 971.175 35.9153 Z" fill="#000000" fill-rule="nonzero" fill-opacity="1" /><path clip-path="url(#clip060)" d="M1023.88 65.7705 L1023.88 89.8329 L1016.38 89.8329 L1016.38 27.2059 L1023.88 27.2059 L1023.88 34.0924 Q1026.23 30.0415 1029.79 28.0971 Q1033.4 26.1121 1038.38 26.1121 Q1046.64 26.1121 1051.79 32.6746 Q1056.97 39.2371 1056.97 49.9314 Q1056.97 60.6258 1051.79 67.1883 Q1046.64 73.7508 1038.38 73.7508 Q1033.4 73.7508 1029.79 71.8063 Q1026.23 69.8214 1023.88 65.7705 M1049.24 49.9314 Q1049.24 41.7081 1045.83 37.0496 Q1042.47 32.3505 1036.56 32.3505 Q1030.64 32.3505 1027.24 37.0496 Q1023.88 41.7081 1023.88 49.9314 Q1023.88 58.1548 1027.24 62.8538 Q1030.64 67.5124 1036.56 67.5124 Q1042.47 67.5124 1045.83 62.8538 Q1049.24 58.1548 1049.24 49.9314 Z" fill="#000000" fill-rule="nonzero" fill-opacity="1" /><path clip-path="url(#clip060)" d="M1069.33 9.54393 L1076.78 9.54393 L1076.78 72.576 L1069.33 72.576 L1069.33 9.54393 Z" fill="#000000" fill-rule="nonzero" fill-opacity="1" /><path clip-path="url(#clip060)" d="M1131.19 48.0275 L1131.19 51.6733 L1096.91 51.6733 Q1097.4 59.3701 1101.53 63.421 Q1105.71 67.4314 1113.12 67.4314 Q1117.41 67.4314 1121.42 66.3781 Q1125.47 65.3249 1129.44 63.2184 L1129.44 70.267 Q1125.43 71.9684 1121.22 72.8596 Q1117.01 73.7508 1112.67 73.7508 Q1101.82 73.7508 1095.46 67.4314 Q1089.14 61.1119 1089.14 50.3365 Q1089.14 39.1965 1095.13 32.6746 Q1101.17 26.1121 1111.38 26.1121 Q1120.53 26.1121 1125.84 32.0264 Q1131.19 37.9003 1131.19 48.0275 M1123.73 45.84 Q1123.65 39.7232 1120.29 36.0774 Q1116.97 32.4315 1111.46 32.4315 Q1105.22 32.4315 1101.45 35.9558 Q1097.72 39.4801 1097.16 45.8805 L1123.73 45.84 Z" fill="#000000" fill-rule="nonzero" fill-opacity="1" /><path clip-path="url(#clip060)" d="M1169.71 34.1734 Q1168.45 33.4443 1166.95 33.1202 Q1165.5 32.7556 1163.71 32.7556 Q1157.39 32.7556 1153.99 36.8875 Q1150.63 40.9789 1150.63 48.6757 L1150.63 72.576 L1143.14 72.576 L1143.14 27.2059 L1150.63 27.2059 L1150.63 34.2544 Q1152.98 30.1225 1156.75 28.1376 Q1160.51 26.1121 1165.9 26.1121 Q1166.67 26.1121 1167.6 26.2337 Q1168.53 26.3147 1169.67 26.5172 L1169.71 34.1734 Z" fill="#000000" fill-rule="nonzero" fill-opacity="1" /><path clip-path="url(#clip060)" d="M1221.8 9.62495 Q1216.38 18.942 1213.74 28.0566 Q1211.11 37.1711 1211.11 46.5287 Q1211.11 55.8863 1213.74 65.0818 Q1216.42 74.2369 1221.8 83.5134 L1215.32 83.5134 Q1209.25 73.9938 1206.21 64.7983 Q1203.21 55.6027 1203.21 46.5287 Q1203.21 37.4952 1206.21 28.3401 Q1209.21 19.1851 1215.32 9.62495 L1221.8 9.62495 Z" fill="#000000" fill-rule="nonzero" fill-opacity="1" /><path clip-path="url(#clip060)" d="M1277.83 63.9476 L1277.83 47.7034 L1264.46 47.7034 L1264.46 40.9789 L1285.93 40.9789 L1285.93 66.9452 Q1281.19 70.3075 1275.48 72.0494 Q1269.77 73.7508 1263.29 73.7508 Q1249.11 73.7508 1241.09 65.4869 Q1233.11 57.1826 1233.11 42.3968 Q1233.11 27.5705 1241.09 19.3066 Q1249.11 11.0023 1263.29 11.0023 Q1269.2 11.0023 1274.51 12.4606 Q1279.85 13.9189 1284.35 16.7545 L1284.35 25.464 Q1279.81 21.6156 1274.71 19.6712 Q1269.6 17.7268 1263.97 17.7268 Q1252.87 17.7268 1247.28 23.9246 Q1241.73 30.1225 1241.73 42.3968 Q1241.73 54.6305 1247.28 60.8284 Q1252.87 67.0263 1263.97 67.0263 Q1268.31 67.0263 1271.71 66.2971 Q1275.11 65.5274 1277.83 63.9476 Z" fill="#000000" fill-rule="nonzero" fill-opacity="1" /><path clip-path="url(#clip060)" d="M1321.17 49.7694 Q1312.14 49.7694 1308.66 51.8354 Q1305.17 53.9013 1305.17 58.8839 Q1305.17 62.8538 1307.76 65.2034 Q1310.4 67.5124 1314.89 67.5124 Q1321.09 67.5124 1324.82 63.1374 Q1328.59 58.7219 1328.59 51.4303 L1328.59 49.7694 L1321.17 49.7694 M1336.04 46.6907 L1336.04 72.576 L1328.59 72.576 L1328.59 65.6895 Q1326.03 69.8214 1322.23 71.8063 Q1318.42 73.7508 1312.91 73.7508 Q1305.94 73.7508 1301.81 69.8619 Q1297.72 65.9325 1297.72 59.3701 Q1297.72 51.7138 1302.82 47.825 Q1307.97 43.9361 1318.13 43.9361 L1328.59 43.9361 L1328.59 43.2069 Q1328.59 38.0623 1325.18 35.2672 Q1321.82 32.4315 1315.7 32.4315 Q1311.82 32.4315 1308.13 33.3632 Q1304.44 34.295 1301.04 36.1584 L1301.04 29.2718 Q1305.13 27.692 1308.98 26.9223 Q1312.83 26.1121 1316.47 26.1121 Q1326.32 26.1121 1331.18 31.2163 Q1336.04 36.3204 1336.04 46.6907 Z" fill="#000000" fill-rule="nonzero" fill-opacity="1" /><path clip-path="url(#clip060)" d="M1350.62 54.671 L1350.62 27.2059 L1358.08 27.2059 L1358.08 54.3874 Q1358.08 60.8284 1360.59 64.0691 Q1363.1 67.2693 1368.12 67.2693 Q1374.16 67.2693 1377.64 63.421 Q1381.17 59.5726 1381.17 52.9291 L1381.17 27.2059 L1388.62 27.2059 L1388.62 72.576 L1381.17 72.576 L1381.17 65.6084 Q1378.45 69.7404 1374.85 71.7658 Q1371.28 73.7508 1366.54 73.7508 Q1358.72 73.7508 1354.67 68.8897 Q1350.62 64.0286 1350.62 54.671 M1369.38 26.1121 L1369.38 26.1121 Z" fill="#000000" fill-rule="nonzero" fill-opacity="1" /><path clip-path="url(#clip060)" d="M1432.9 28.5427 L1432.9 35.5912 Q1429.74 33.9709 1426.33 33.1607 Q1422.93 32.3505 1419.29 32.3505 Q1413.74 32.3505 1410.94 34.0519 Q1408.19 35.7533 1408.19 39.156 Q1408.19 41.7486 1410.17 43.2475 Q1412.16 44.7058 1418.15 46.0426 L1420.7 46.6097 Q1428.64 48.3111 1431.96 51.4303 Q1435.33 54.509 1435.33 60.0587 Q1435.33 66.3781 1430.3 70.0644 Q1425.32 73.7508 1416.57 73.7508 Q1412.93 73.7508 1408.96 73.0216 Q1405.03 72.3329 1400.65 70.9151 L1400.65 63.2184 Q1404.78 65.3654 1408.79 66.4591 Q1412.8 67.5124 1416.73 67.5124 Q1422 67.5124 1424.84 65.73 Q1427.67 63.9071 1427.67 60.6258 Q1427.67 57.5877 1425.6 55.9673 Q1423.58 54.3469 1416.65 52.8481 L1414.06 52.2405 Q1407.13 50.7821 1404.05 47.7845 Q1400.98 44.7463 1400.98 39.4801 Q1400.98 33.0797 1405.51 29.5959 Q1410.05 26.1121 1418.39 26.1121 Q1422.53 26.1121 1426.17 26.7198 Q1429.82 27.3274 1432.9 28.5427 Z" fill="#000000" fill-rule="nonzero" fill-opacity="1" /><path clip-path="url(#clip060)" d="M1476.12 28.5427 L1476.12 35.5912 Q1472.96 33.9709 1469.56 33.1607 Q1466.15 32.3505 1462.51 32.3505 Q1456.96 32.3505 1454.16 34.0519 Q1451.41 35.7533 1451.41 39.156 Q1451.41 41.7486 1453.39 43.2475 Q1455.38 44.7058 1461.37 46.0426 L1463.93 46.6097 Q1471.87 48.3111 1475.19 51.4303 Q1478.55 54.509 1478.55 60.0587 Q1478.55 66.3781 1473.53 70.0644 Q1468.54 73.7508 1459.79 73.7508 Q1456.15 73.7508 1452.18 73.0216 Q1448.25 72.3329 1443.87 70.9151 L1443.87 63.2184 Q1448.01 65.3654 1452.02 66.4591 Q1456.03 67.5124 1459.96 67.5124 Q1465.22 67.5124 1468.06 65.73 Q1470.89 63.9071 1470.89 60.6258 Q1470.89 57.5877 1468.83 55.9673 Q1466.8 54.3469 1459.88 52.8481 L1457.28 52.2405 Q1450.36 50.7821 1447.28 47.7845 Q1444.2 44.7463 1444.2 39.4801 Q1444.2 33.0797 1448.74 29.5959 Q1453.27 26.1121 1461.62 26.1121 Q1465.75 26.1121 1469.4 26.7198 Q1473.04 27.3274 1476.12 28.5427 Z" fill="#000000" fill-rule="nonzero" fill-opacity="1" /><path clip-path="url(#clip060)" d="M1490.42 27.2059 L1497.87 27.2059 L1497.87 72.576 L1490.42 72.576 L1490.42 27.2059 M1490.42 9.54393 L1497.87 9.54393 L1497.87 18.9825 L1490.42 18.9825 L1490.42 9.54393 Z" fill="#000000" fill-rule="nonzero" fill-opacity="1" /><path clip-path="url(#clip060)" d="M1534.09 49.7694 Q1525.05 49.7694 1521.57 51.8354 Q1518.09 53.9013 1518.09 58.8839 Q1518.09 62.8538 1520.68 65.2034 Q1523.31 67.5124 1527.81 67.5124 Q1534.01 67.5124 1537.73 63.1374 Q1541.5 58.7219 1541.5 51.4303 L1541.5 49.7694 L1534.09 49.7694 M1548.95 46.6907 L1548.95 72.576 L1541.5 72.576 L1541.5 65.6895 Q1538.95 69.8214 1535.14 71.8063 Q1531.33 73.7508 1525.82 73.7508 Q1518.86 73.7508 1514.72 69.8619 Q1510.63 65.9325 1510.63 59.3701 Q1510.63 51.7138 1515.74 47.825 Q1520.88 43.9361 1531.05 43.9361 L1541.5 43.9361 L1541.5 43.2069 Q1541.5 38.0623 1538.1 35.2672 Q1534.74 32.4315 1528.62 32.4315 Q1524.73 32.4315 1521.04 33.3632 Q1517.36 34.295 1513.96 36.1584 L1513.96 29.2718 Q1518.05 27.692 1521.89 26.9223 Q1525.74 26.1121 1529.39 26.1121 Q1539.23 26.1121 1544.09 31.2163 Q1548.95 36.3204 1548.95 46.6907 Z" fill="#000000" fill-rule="nonzero" fill-opacity="1" /><path clip-path="url(#clip060)" d="M1602.02 45.1919 L1602.02 72.576 L1594.57 72.576 L1594.57 45.4349 Q1594.57 38.994 1592.06 35.7938 Q1589.55 32.5936 1584.52 32.5936 Q1578.49 32.5936 1575 36.4419 Q1571.52 40.2903 1571.52 46.9338 L1571.52 72.576 L1564.02 72.576 L1564.02 27.2059 L1571.52 27.2059 L1571.52 34.2544 Q1574.19 30.163 1577.8 28.1376 Q1581.44 26.1121 1586.18 26.1121 Q1594 26.1121 1598.01 30.9732 Q1602.02 35.7938 1602.02 45.1919 Z" fill="#000000" fill-rule="nonzero" fill-opacity="1" /><path clip-path="url(#clip060)" d="M1651.77 18.8205 L1651.77 65.8515 L1661.65 65.8515 Q1674.17 65.8515 1679.96 60.1802 Q1685.79 54.509 1685.79 42.2752 Q1685.79 30.1225 1679.96 24.4918 Q1674.17 18.8205 1661.65 18.8205 L1651.77 18.8205 M1643.58 12.096 L1660.4 12.096 Q1677.98 12.096 1686.2 19.4281 Q1694.42 26.7198 1694.42 42.2752 Q1694.42 57.9117 1686.16 65.2439 Q1677.9 72.576 1660.4 72.576 L1643.58 72.576 L1643.58 12.096 Z" fill="#000000" fill-rule="nonzero" fill-opacity="1" /><path clip-path="url(#clip060)" d="M1707.14 27.2059 L1714.6 27.2059 L1714.6 72.576 L1707.14 72.576 L1707.14 27.2059 M1707.14 9.54393 L1714.6 9.54393 L1714.6 18.9825 L1707.14 18.9825 L1707.14 9.54393 Z" fill="#000000" fill-rule="nonzero" fill-opacity="1" /><path clip-path="url(#clip060)" d="M1759.12 28.5427 L1759.12 35.5912 Q1755.96 33.9709 1752.55 33.1607 Q1749.15 32.3505 1745.5 32.3505 Q1739.96 32.3505 1737.16 34.0519 Q1734.41 35.7533 1734.41 39.156 Q1734.41 41.7486 1736.39 43.2475 Q1738.38 44.7058 1744.37 46.0426 L1746.92 46.6097 Q1754.86 48.3111 1758.18 51.4303 Q1761.55 54.509 1761.55 60.0587 Q1761.55 66.3781 1756.52 70.0644 Q1751.54 73.7508 1742.79 73.7508 Q1739.14 73.7508 1735.18 73.0216 Q1731.25 72.3329 1726.87 70.9151 L1726.87 63.2184 Q1731 65.3654 1735.01 66.4591 Q1739.02 67.5124 1742.95 67.5124 Q1748.22 67.5124 1751.05 65.73 Q1753.89 63.9071 1753.89 60.6258 Q1753.89 57.5877 1751.82 55.9673 Q1749.8 54.3469 1742.87 52.8481 L1740.28 52.2405 Q1733.35 50.7821 1730.27 47.7845 Q1727.19 44.7463 1727.19 39.4801 Q1727.19 33.0797 1731.73 29.5959 Q1736.27 26.1121 1744.61 26.1121 Q1748.75 26.1121 1752.39 26.7198 Q1756.04 27.3274 1759.12 28.5427 Z" fill="#000000" fill-rule="nonzero" fill-opacity="1" /><path clip-path="url(#clip060)" d="M1780.79 14.324 L1780.79 27.2059 L1796.14 27.2059 L1796.14 32.9987 L1780.79 32.9987 L1780.79 57.6282 Q1780.79 63.1779 1782.29 64.7578 Q1783.83 66.3376 1788.48 66.3376 L1796.14 66.3376 L1796.14 72.576 L1788.48 72.576 Q1779.86 72.576 1776.58 69.3758 Q1773.29 66.1351 1773.29 57.6282 L1773.29 32.9987 L1767.83 32.9987 L1767.83 27.2059 L1773.29 27.2059 L1773.29 14.324 L1780.79 14.324 Z" fill="#000000" fill-rule="nonzero" fill-opacity="1" /><path clip-path="url(#clip060)" d="M1832.23 34.1734 Q1830.98 33.4443 1829.48 33.1202 Q1828.02 32.7556 1826.24 32.7556 Q1819.92 32.7556 1816.52 36.8875 Q1813.15 40.9789 1813.15 48.6757 L1813.15 72.576 L1805.66 72.576 L1805.66 27.2059 L1813.15 27.2059 L1813.15 34.2544 Q1815.5 30.1225 1819.27 28.1376 Q1823.04 26.1121 1828.43 26.1121 Q1829.2 26.1121 1830.13 26.2337 Q1831.06 26.3147 1832.19 26.5172 L1832.23 34.1734 Z" fill="#000000" fill-rule="nonzero" fill-opacity="1" /><path clip-path="url(#clip060)" d="M1840.05 27.2059 L1847.51 27.2059 L1847.51 72.576 L1840.05 72.576 L1840.05 27.2059 M1840.05 9.54393 L1847.51 9.54393 L1847.51 18.9825 L1840.05 18.9825 L1840.05 9.54393 Z" fill="#000000" fill-rule="nonzero" fill-opacity="1" /><path clip-path="url(#clip060)" d="M1895.67 49.9314 Q1895.67 41.7081 1892.27 37.0496 Q1888.91 32.3505 1882.99 32.3505 Q1877.08 32.3505 1873.68 37.0496 Q1870.31 41.7081 1870.31 49.9314 Q1870.31 58.1548 1873.68 62.8538 Q1877.08 67.5124 1882.99 67.5124 Q1888.91 67.5124 1892.27 62.8538 Q1895.67 58.1548 1895.67 49.9314 M1870.31 34.0924 Q1872.66 30.0415 1876.23 28.0971 Q1879.83 26.1121 1884.82 26.1121 Q1893.08 26.1121 1898.22 32.6746 Q1903.41 39.2371 1903.41 49.9314 Q1903.41 60.6258 1898.22 67.1883 Q1893.08 73.7508 1884.82 73.7508 Q1879.83 73.7508 1876.23 71.8063 Q1872.66 69.8214 1870.31 65.7705 L1870.31 72.576 L1862.82 72.576 L1862.82 9.54393 L1870.31 9.54393 L1870.31 34.0924 Z" fill="#000000" fill-rule="nonzero" fill-opacity="1" /><path clip-path="url(#clip060)" d="M1914.99 54.671 L1914.99 27.2059 L1922.45 27.2059 L1922.45 54.3874 Q1922.45 60.8284 1924.96 64.0691 Q1927.47 67.2693 1932.49 67.2693 Q1938.53 67.2693 1942.01 63.421 Q1945.54 59.5726 1945.54 52.9291 L1945.54 27.2059 L1952.99 27.2059 L1952.99 72.576 L1945.54 72.576 L1945.54 65.6084 Q1942.82 69.7404 1939.22 71.7658 Q1935.65 73.7508 1930.91 73.7508 Q1923.1 73.7508 1919.05 68.8897 Q1914.99 64.0286 1914.99 54.671 M1933.75 26.1121 L1933.75 26.1121 Z" fill="#000000" fill-rule="nonzero" fill-opacity="1" /><path clip-path="url(#clip060)" d="M1975.72 14.324 L1975.72 27.2059 L1991.07 27.2059 L1991.07 32.9987 L1975.72 32.9987 L1975.72 57.6282 Q1975.72 63.1779 1977.22 64.7578 Q1978.76 66.3376 1983.41 66.3376 L1991.07 66.3376 L1991.07 72.576 L1983.41 72.576 Q1974.79 72.576 1971.5 69.3758 Q1968.22 66.1351 1968.22 57.6282 L1968.22 32.9987 L1962.75 32.9987 L1962.75 27.2059 L1968.22 27.2059 L1968.22 14.324 L1975.72 14.324 Z" fill="#000000" fill-rule="nonzero" fill-opacity="1" /><path clip-path="url(#clip060)" d="M2000.87 27.2059 L2008.33 27.2059 L2008.33 72.576 L2000.87 72.576 L2000.87 27.2059 M2000.87 9.54393 L2008.33 9.54393 L2008.33 18.9825 L2000.87 18.9825 L2000.87 9.54393 Z" fill="#000000" fill-rule="nonzero" fill-opacity="1" /><path clip-path="url(#clip060)" d="M2041.5 32.4315 Q2035.51 32.4315 2032.03 37.1306 Q2028.54 41.7891 2028.54 49.9314 Q2028.54 58.0738 2031.98 62.7728 Q2035.47 67.4314 2041.5 67.4314 Q2047.46 67.4314 2050.94 62.7323 Q2054.43 58.0333 2054.43 49.9314 Q2054.43 41.8701 2050.94 37.1711 Q2047.46 32.4315 2041.5 32.4315 M2041.5 26.1121 Q2051.23 26.1121 2056.78 32.4315 Q2062.33 38.7509 2062.33 49.9314 Q2062.33 61.0714 2056.78 67.4314 Q2051.23 73.7508 2041.5 73.7508 Q2031.74 73.7508 2026.19 67.4314 Q2020.68 61.0714 2020.68 49.9314 Q2020.68 38.7509 2026.19 32.4315 Q2031.74 26.1121 2041.5 26.1121 Z" fill="#000000" fill-rule="nonzero" fill-opacity="1" /><path clip-path="url(#clip060)" d="M2112.4 45.1919 L2112.4 72.576 L2104.94 72.576 L2104.94 45.4349 Q2104.94 38.994 2102.43 35.7938 Q2099.92 32.5936 2094.9 32.5936 Q2088.86 32.5936 2085.38 36.4419 Q2081.89 40.2903 2081.89 46.9338 L2081.89 72.576 L2074.4 72.576 L2074.4 27.2059 L2081.89 27.2059 L2081.89 34.2544 Q2084.57 30.163 2088.17 28.1376 Q2091.82 26.1121 2096.56 26.1121 Q2104.37 26.1121 2108.38 30.9732 Q2112.4 35.7938 2112.4 45.1919 Z" fill="#000000" fill-rule="nonzero" fill-opacity="1" /><path clip-path="url(#clip060)" d="M2126.09 9.62495 L2132.57 9.62495 Q2138.65 19.1851 2141.64 28.3401 Q2144.68 37.4952 2144.68 46.5287 Q2144.68 55.6027 2141.64 64.7983 Q2138.65 73.9938 2132.57 83.5134 L2126.09 83.5134 Q2131.48 74.2369 2134.11 65.0818 Q2136.78 55.8863 2136.78 46.5287 Q2136.78 37.1711 2134.11 28.0566 Q2131.48 18.942 2126.09 9.62495 Z" fill="#000000" fill-rule="nonzero" fill-opacity="1" /><polyline clip-path="url(#clip062)" style="stroke:#78c2ad; stroke-linecap:round; stroke-linejoin:round; stroke-width:8; stroke-opacity:1; fill:none" points="1170.34,1017.9 1233.06,1062.2 1295.78,1106.5 1358.5,1150.8 1421.22,1195.11 1483.94,1167.63 1436.5,1123.33 1373.78,1079.02 1311.06,1034.72 1248.34,990.419 1185.62,946.116 1122.9,901.813 1060.17,857.51 997.454,813.207 934.733,768.905 872.012,724.602 809.291,680.299 746.57,635.996 705.014,591.693 767.734,547.39 830.455,503.088 893.176,458.785 955.897,414.482 1018.62,370.179 1081.34,340.704 1144.06,385.007 1206.78,429.309 1269.5,473.612 1332.22,517.915 1394.94,562.218 1342.58,606.521 1279.86,650.824 1217.14,695.126 1154.42,739.429 1091.7,783.732 1028.98,755.704 966.257,711.401 903.536,667.099 840.815,622.796 778.094,578.493 715.373,534.19 652.652,489.887 589.931,445.584 527.211,401.282 464.49,356.979 476.806,312.676 539.526,268.373 602.247,224.07 664.968,182.747 727.689,227.05 790.41,271.353 853.131,315.656 915.852,359.959 978.572,404.261 1041.29,448.564 1104.01,492.867 1166.74,537.17 1229.46,581.473 1292.18,625.776 1354.9,670.078 1417.62,714.381 1480.34,758.684 1543.06,802.987 1605.78,847.29 1668.5,891.592 1621.93,935.895 1559.21,980.198 1496.49,1024.5 1433.77,1068.8 1371.05,1113.11 1308.33,1157.41 1245.6,1201.71 1182.88,1246.02 1120.16,1290.32 1057.44,1324.83 994.721,1280.53 932.001,1236.22 869.28,1191.92 806.559,1147.62 743.838,1103.31 681.117,1059.01 618.396,1014.71 555.675,970.406 584.503,926.103 647.224,881.801 709.945,837.498 772.666,793.195 835.386,748.892 898.107,704.589 960.828,660.286 1023.55,615.984 1086.27,571.681 1148.99,527.378 1211.71,483.075 1274.43,438.772 1337.15,394.47 1399.87,350.167 1462.6,305.864 1525.32,261.561 1588.04,217.258 1589.45,172.955 1526.73,177.523 1464.01,221.826 1401.29,266.129 1338.57,310.432 1275.84,354.735 1213.12,399.038 1150.4,443.34 1087.68,487.643 1024.96,531.946 962.241,576.249 918.957,620.552 981.678,664.855 1044.4,709.157 1107.12,753.46 1169.84,797.763 1232.56,842.066 1295.28,886.369 1358,930.672 1420.72,974.974 1483.44,1019.28 1546.17,1063.58 1608.89,1107.88 1671.61,1152.19 1734.33,1192.06 1797.05,1147.76 1859.77,1103.46 1922.49,1059.15 1985.21,1014.85 2047.93,970.547 2110.65,926.244 2173.37,881.941 2200.14,837.638 2137.42,793.335 2074.7,749.033 2011.98,704.73 1949.25,660.427 1886.53,616.124 1823.81,571.821 1761.09,527.519 1698.37,483.216 1635.65,438.913 1572.93,394.61 1510.21,353.083 1447.49,397.386 1384.77,441.689 1322.05,485.992 1259.32,530.295 1196.6,574.597 1133.88,618.9 1071.16,663.203 1008.44,707.506 945.72,751.809 883,796.112 820.279,840.414 757.558,884.717 694.837,929.02 632.116,973.323 569.395,1017.63 506.674,1061.93 443.954,1106.23 381.233,1150.53 318.512,1194.84 312.862,1239.14 375.583,1221.73 438.304,1177.43 501.025,1133.13 563.746,1088.82 626.467,1044.52 689.187,1000.22 751.908,955.914 814.629,911.611 877.35,867.308 940.071,823.005 1002.79,778.703 1065.51,734.4 1128.23,690.097 1190.95,645.794 1253.68,601.491 1316.4,557.189 1379.12,512.886 1441.84,468.583 1504.56,424.28 1490.59,379.977 1427.87,335.674 1365.14,291.372 1302.42,247.069 1239.7,202.766 1176.98,158.463 1114.26,171.243 1051.54,215.546 988.819,259.848 926.098,304.151 918.497,348.454 981.218,392.757 1043.94,437.06 1106.66,481.362 1169.38,525.665 1232.1,569.968 1294.82,614.271 1315.97,658.574 1253.25,702.877 1190.53,747.179 1127.81,791.482 1065.09,835.785 1002.37,880.088 939.647,924.391 876.927,968.694 814.206,1013 751.485,1057.3 688.764,1101.6 626.043,1145.9 563.322,1190.21 500.601,1234.51 437.881,1278.81 "/>
<circle clip-path="url(#clip062)" cx="1170.34" cy="1017.9" r="7.2" fill="#78c2ad" fill-rule="evenodd" fill-opacity="0.6" stroke="#000000" stroke-opacity="0.6" stroke-width="3.072"/>
<circle clip-path="url(#clip062)" cx="1233.06" cy="1062.2" r="7.2" fill="#78c2ad" fill-rule="evenodd" fill-opacity="0.6" stroke="#000000" stroke-opacity="0.6" stroke-width="3.072"/>
<circle clip-path="url(#clip062)" cx="1295.78" cy="1106.5" r="7.2" fill="#78c2ad" fill-rule="evenodd" fill-opacity="0.6" stroke="#000000" stroke-opacity="0.6" stroke-width="3.072"/>
<circle clip-path="url(#clip062)" cx="1358.5" cy="1150.8" r="7.2" fill="#78c2ad" fill-rule="evenodd" fill-opacity="0.6" stroke="#000000" stroke-opacity="0.6" stroke-width="3.072"/>
<circle clip-path="url(#clip062)" cx="1421.22" cy="1195.11" r="7.2" fill="#78c2ad" fill-rule="evenodd" fill-opacity="0.6" stroke="#000000" stroke-opacity="0.6" stroke-width="3.072"/>
<circle clip-path="url(#clip062)" cx="1483.94" cy="1167.63" r="7.2" fill="#78c2ad" fill-rule="evenodd" fill-opacity="0.6" stroke="#000000" stroke-opacity="0.6" stroke-width="3.072"/>
<circle clip-path="url(#clip062)" cx="1436.5" cy="1123.33" r="7.2" fill="#78c2ad" fill-rule="evenodd" fill-opacity="0.6" stroke="#000000" stroke-opacity="0.6" stroke-width="3.072"/>
<circle clip-path="url(#clip062)" cx="1373.78" cy="1079.02" r="7.2" fill="#78c2ad" fill-rule="evenodd" fill-opacity="0.6" stroke="#000000" stroke-opacity="0.6" stroke-width="3.072"/>
<circle clip-path="url(#clip062)" cx="1311.06" cy="1034.72" r="7.2" fill="#78c2ad" fill-rule="evenodd" fill-opacity="0.6" stroke="#000000" stroke-opacity="0.6" stroke-width="3.072"/>
<circle clip-path="url(#clip062)" cx="1248.34" cy="990.419" r="7.2" fill="#78c2ad" fill-rule="evenodd" fill-opacity="0.6" stroke="#000000" stroke-opacity="0.6" stroke-width="3.072"/>
<circle clip-path="url(#clip062)" cx="1185.62" cy="946.116" r="7.2" fill="#78c2ad" fill-rule="evenodd" fill-opacity="0.6" stroke="#000000" stroke-opacity="0.6" stroke-width="3.072"/>
<circle clip-path="url(#clip062)" cx="1122.9" cy="901.813" r="7.2" fill="#78c2ad" fill-rule="evenodd" fill-opacity="0.6" stroke="#000000" stroke-opacity="0.6" stroke-width="3.072"/>
<circle clip-path="url(#clip062)" cx="1060.17" cy="857.51" r="7.2" fill="#78c2ad" fill-rule="evenodd" fill-opacity="0.6" stroke="#000000" stroke-opacity="0.6" stroke-width="3.072"/>
<circle clip-path="url(#clip062)" cx="997.454" cy="813.207" r="7.2" fill="#78c2ad" fill-rule="evenodd" fill-opacity="0.6" stroke="#000000" stroke-opacity="0.6" stroke-width="3.072"/>
<circle clip-path="url(#clip062)" cx="934.733" cy="768.905" r="7.2" fill="#78c2ad" fill-rule="evenodd" fill-opacity="0.6" stroke="#000000" stroke-opacity="0.6" stroke-width="3.072"/>
<circle clip-path="url(#clip062)" cx="872.012" cy="724.602" r="7.2" fill="#78c2ad" fill-rule="evenodd" fill-opacity="0.6" stroke="#000000" stroke-opacity="0.6" stroke-width="3.072"/>
<circle clip-path="url(#clip062)" cx="809.291" cy="680.299" r="7.2" fill="#78c2ad" fill-rule="evenodd" fill-opacity="0.6" stroke="#000000" stroke-opacity="0.6" stroke-width="3.072"/>
<circle clip-path="url(#clip062)" cx="746.57" cy="635.996" r="7.2" fill="#78c2ad" fill-rule="evenodd" fill-opacity="0.6" stroke="#000000" stroke-opacity="0.6" stroke-width="3.072"/>
<circle clip-path="url(#clip062)" cx="705.014" cy="591.693" r="7.2" fill="#78c2ad" fill-rule="evenodd" fill-opacity="0.6" stroke="#000000" stroke-opacity="0.6" stroke-width="3.072"/>
<circle clip-path="url(#clip062)" cx="767.734" cy="547.39" r="7.2" fill="#78c2ad" fill-rule="evenodd" fill-opacity="0.6" stroke="#000000" stroke-opacity="0.6" stroke-width="3.072"/>
<circle clip-path="url(#clip062)" cx="830.455" cy="503.088" r="7.2" fill="#78c2ad" fill-rule="evenodd" fill-opacity="0.6" stroke="#000000" stroke-opacity="0.6" stroke-width="3.072"/>
<circle clip-path="url(#clip062)" cx="893.176" cy="458.785" r="7.2" fill="#78c2ad" fill-rule="evenodd" fill-opacity="0.6" stroke="#000000" stroke-opacity="0.6" stroke-width="3.072"/>
<circle clip-path="url(#clip062)" cx="955.897" cy="414.482" r="7.2" fill="#78c2ad" fill-rule="evenodd" fill-opacity="0.6" stroke="#000000" stroke-opacity="0.6" stroke-width="3.072"/>
<circle clip-path="url(#clip062)" cx="1018.62" cy="370.179" r="7.2" fill="#78c2ad" fill-rule="evenodd" fill-opacity="0.6" stroke="#000000" stroke-opacity="0.6" stroke-width="3.072"/>
<circle clip-path="url(#clip062)" cx="1081.34" cy="340.704" r="7.2" fill="#78c2ad" fill-rule="evenodd" fill-opacity="0.6" stroke="#000000" stroke-opacity="0.6" stroke-width="3.072"/>
<circle clip-path="url(#clip062)" cx="1144.06" cy="385.007" r="7.2" fill="#78c2ad" fill-rule="evenodd" fill-opacity="0.6" stroke="#000000" stroke-opacity="0.6" stroke-width="3.072"/>
<circle clip-path="url(#clip062)" cx="1206.78" cy="429.309" r="7.2" fill="#78c2ad" fill-rule="evenodd" fill-opacity="0.6" stroke="#000000" stroke-opacity="0.6" stroke-width="3.072"/>
<circle clip-path="url(#clip062)" cx="1269.5" cy="473.612" r="7.2" fill="#78c2ad" fill-rule="evenodd" fill-opacity="0.6" stroke="#000000" stroke-opacity="0.6" stroke-width="3.072"/>
<circle clip-path="url(#clip062)" cx="1332.22" cy="517.915" r="7.2" fill="#78c2ad" fill-rule="evenodd" fill-opacity="0.6" stroke="#000000" stroke-opacity="0.6" stroke-width="3.072"/>
<circle clip-path="url(#clip062)" cx="1394.94" cy="562.218" r="7.2" fill="#78c2ad" fill-rule="evenodd" fill-opacity="0.6" stroke="#000000" stroke-opacity="0.6" stroke-width="3.072"/>
<circle clip-path="url(#clip062)" cx="1342.58" cy="606.521" r="7.2" fill="#78c2ad" fill-rule="evenodd" fill-opacity="0.6" stroke="#000000" stroke-opacity="0.6" stroke-width="3.072"/>
<circle clip-path="url(#clip062)" cx="1279.86" cy="650.824" r="7.2" fill="#78c2ad" fill-rule="evenodd" fill-opacity="0.6" stroke="#000000" stroke-opacity="0.6" stroke-width="3.072"/>
<circle clip-path="url(#clip062)" cx="1217.14" cy="695.126" r="7.2" fill="#78c2ad" fill-rule="evenodd" fill-opacity="0.6" stroke="#000000" stroke-opacity="0.6" stroke-width="3.072"/>
<circle clip-path="url(#clip062)" cx="1154.42" cy="739.429" r="7.2" fill="#78c2ad" fill-rule="evenodd" fill-opacity="0.6" stroke="#000000" stroke-opacity="0.6" stroke-width="3.072"/>
<circle clip-path="url(#clip062)" cx="1091.7" cy="783.732" r="7.2" fill="#78c2ad" fill-rule="evenodd" fill-opacity="0.6" stroke="#000000" stroke-opacity="0.6" stroke-width="3.072"/>
<circle clip-path="url(#clip062)" cx="1028.98" cy="755.704" r="7.2" fill="#78c2ad" fill-rule="evenodd" fill-opacity="0.6" stroke="#000000" stroke-opacity="0.6" stroke-width="3.072"/>
<circle clip-path="url(#clip062)" cx="966.257" cy="711.401" r="7.2" fill="#78c2ad" fill-rule="evenodd" fill-opacity="0.6" stroke="#000000" stroke-opacity="0.6" stroke-width="3.072"/>
<circle clip-path="url(#clip062)" cx="903.536" cy="667.099" r="7.2" fill="#78c2ad" fill-rule="evenodd" fill-opacity="0.6" stroke="#000000" stroke-opacity="0.6" stroke-width="3.072"/>
<circle clip-path="url(#clip062)" cx="840.815" cy="622.796" r="7.2" fill="#78c2ad" fill-rule="evenodd" fill-opacity="0.6" stroke="#000000" stroke-opacity="0.6" stroke-width="3.072"/>
<circle clip-path="url(#clip062)" cx="778.094" cy="578.493" r="7.2" fill="#78c2ad" fill-rule="evenodd" fill-opacity="0.6" stroke="#000000" stroke-opacity="0.6" stroke-width="3.072"/>
<circle clip-path="url(#clip062)" cx="715.373" cy="534.19" r="7.2" fill="#78c2ad" fill-rule="evenodd" fill-opacity="0.6" stroke="#000000" stroke-opacity="0.6" stroke-width="3.072"/>
<circle clip-path="url(#clip062)" cx="652.652" cy="489.887" r="7.2" fill="#78c2ad" fill-rule="evenodd" fill-opacity="0.6" stroke="#000000" stroke-opacity="0.6" stroke-width="3.072"/>
<circle clip-path="url(#clip062)" cx="589.931" cy="445.584" r="7.2" fill="#78c2ad" fill-rule="evenodd" fill-opacity="0.6" stroke="#000000" stroke-opacity="0.6" stroke-width="3.072"/>
<circle clip-path="url(#clip062)" cx="527.211" cy="401.282" r="7.2" fill="#78c2ad" fill-rule="evenodd" fill-opacity="0.6" stroke="#000000" stroke-opacity="0.6" stroke-width="3.072"/>
<circle clip-path="url(#clip062)" cx="464.49" cy="356.979" r="7.2" fill="#78c2ad" fill-rule="evenodd" fill-opacity="0.6" stroke="#000000" stroke-opacity="0.6" stroke-width="3.072"/>
<circle clip-path="url(#clip062)" cx="476.806" cy="312.676" r="7.2" fill="#78c2ad" fill-rule="evenodd" fill-opacity="0.6" stroke="#000000" stroke-opacity="0.6" stroke-width="3.072"/>
<circle clip-path="url(#clip062)" cx="539.526" cy="268.373" r="7.2" fill="#78c2ad" fill-rule="evenodd" fill-opacity="0.6" stroke="#000000" stroke-opacity="0.6" stroke-width="3.072"/>
<circle clip-path="url(#clip062)" cx="602.247" cy="224.07" r="7.2" fill="#78c2ad" fill-rule="evenodd" fill-opacity="0.6" stroke="#000000" stroke-opacity="0.6" stroke-width="3.072"/>
<circle clip-path="url(#clip062)" cx="664.968" cy="182.747" r="7.2" fill="#78c2ad" fill-rule="evenodd" fill-opacity="0.6" stroke="#000000" stroke-opacity="0.6" stroke-width="3.072"/>
<circle clip-path="url(#clip062)" cx="727.689" cy="227.05" r="7.2" fill="#78c2ad" fill-rule="evenodd" fill-opacity="0.6" stroke="#000000" stroke-opacity="0.6" stroke-width="3.072"/>
<circle clip-path="url(#clip062)" cx="790.41" cy="271.353" r="7.2" fill="#78c2ad" fill-rule="evenodd" fill-opacity="0.6" stroke="#000000" stroke-opacity="0.6" stroke-width="3.072"/>
<circle clip-path="url(#clip062)" cx="853.131" cy="315.656" r="7.2" fill="#78c2ad" fill-rule="evenodd" fill-opacity="0.6" stroke="#000000" stroke-opacity="0.6" stroke-width="3.072"/>
<circle clip-path="url(#clip062)" cx="915.852" cy="359.959" r="7.2" fill="#78c2ad" fill-rule="evenodd" fill-opacity="0.6" stroke="#000000" stroke-opacity="0.6" stroke-width="3.072"/>
<circle clip-path="url(#clip062)" cx="978.572" cy="404.261" r="7.2" fill="#78c2ad" fill-rule="evenodd" fill-opacity="0.6" stroke="#000000" stroke-opacity="0.6" stroke-width="3.072"/>
<circle clip-path="url(#clip062)" cx="1041.29" cy="448.564" r="7.2" fill="#78c2ad" fill-rule="evenodd" fill-opacity="0.6" stroke="#000000" stroke-opacity="0.6" stroke-width="3.072"/>
<circle clip-path="url(#clip062)" cx="1104.01" cy="492.867" r="7.2" fill="#78c2ad" fill-rule="evenodd" fill-opacity="0.6" stroke="#000000" stroke-opacity="0.6" stroke-width="3.072"/>
<circle clip-path="url(#clip062)" cx="1166.74" cy="537.17" r="7.2" fill="#78c2ad" fill-rule="evenodd" fill-opacity="0.6" stroke="#000000" stroke-opacity="0.6" stroke-width="3.072"/>
<circle clip-path="url(#clip062)" cx="1229.46" cy="581.473" r="7.2" fill="#78c2ad" fill-rule="evenodd" fill-opacity="0.6" stroke="#000000" stroke-opacity="0.6" stroke-width="3.072"/>
<circle clip-path="url(#clip062)" cx="1292.18" cy="625.776" r="7.2" fill="#78c2ad" fill-rule="evenodd" fill-opacity="0.6" stroke="#000000" stroke-opacity="0.6" stroke-width="3.072"/>
<circle clip-path="url(#clip062)" cx="1354.9" cy="670.078" r="7.2" fill="#78c2ad" fill-rule="evenodd" fill-opacity="0.6" stroke="#000000" stroke-opacity="0.6" stroke-width="3.072"/>
<circle clip-path="url(#clip062)" cx="1417.62" cy="714.381" r="7.2" fill="#78c2ad" fill-rule="evenodd" fill-opacity="0.6" stroke="#000000" stroke-opacity="0.6" stroke-width="3.072"/>
<circle clip-path="url(#clip062)" cx="1480.34" cy="758.684" r="7.2" fill="#78c2ad" fill-rule="evenodd" fill-opacity="0.6" stroke="#000000" stroke-opacity="0.6" stroke-width="3.072"/>
<circle clip-path="url(#clip062)" cx="1543.06" cy="802.987" r="7.2" fill="#78c2ad" fill-rule="evenodd" fill-opacity="0.6" stroke="#000000" stroke-opacity="0.6" stroke-width="3.072"/>
<circle clip-path="url(#clip062)" cx="1605.78" cy="847.29" r="7.2" fill="#78c2ad" fill-rule="evenodd" fill-opacity="0.6" stroke="#000000" stroke-opacity="0.6" stroke-width="3.072"/>
<circle clip-path="url(#clip062)" cx="1668.5" cy="891.592" r="7.2" fill="#78c2ad" fill-rule="evenodd" fill-opacity="0.6" stroke="#000000" stroke-opacity="0.6" stroke-width="3.072"/>
<circle clip-path="url(#clip062)" cx="1621.93" cy="935.895" r="7.2" fill="#78c2ad" fill-rule="evenodd" fill-opacity="0.6" stroke="#000000" stroke-opacity="0.6" stroke-width="3.072"/>
<circle clip-path="url(#clip062)" cx="1559.21" cy="980.198" r="7.2" fill="#78c2ad" fill-rule="evenodd" fill-opacity="0.6" stroke="#000000" stroke-opacity="0.6" stroke-width="3.072"/>
<circle clip-path="url(#clip062)" cx="1496.49" cy="1024.5" r="7.2" fill="#78c2ad" fill-rule="evenodd" fill-opacity="0.6" stroke="#000000" stroke-opacity="0.6" stroke-width="3.072"/>
<circle clip-path="url(#clip062)" cx="1433.77" cy="1068.8" r="7.2" fill="#78c2ad" fill-rule="evenodd" fill-opacity="0.6" stroke="#000000" stroke-opacity="0.6" stroke-width="3.072"/>
<circle clip-path="url(#clip062)" cx="1371.05" cy="1113.11" r="7.2" fill="#78c2ad" fill-rule="evenodd" fill-opacity="0.6" stroke="#000000" stroke-opacity="0.6" stroke-width="3.072"/>
<circle clip-path="url(#clip062)" cx="1308.33" cy="1157.41" r="7.2" fill="#78c2ad" fill-rule="evenodd" fill-opacity="0.6" stroke="#000000" stroke-opacity="0.6" stroke-width="3.072"/>
<circle clip-path="url(#clip062)" cx="1245.6" cy="1201.71" r="7.2" fill="#78c2ad" fill-rule="evenodd" fill-opacity="0.6" stroke="#000000" stroke-opacity="0.6" stroke-width="3.072"/>
<circle clip-path="url(#clip062)" cx="1182.88" cy="1246.02" r="7.2" fill="#78c2ad" fill-rule="evenodd" fill-opacity="0.6" stroke="#000000" stroke-opacity="0.6" stroke-width="3.072"/>
<circle clip-path="url(#clip062)" cx="1120.16" cy="1290.32" r="7.2" fill="#78c2ad" fill-rule="evenodd" fill-opacity="0.6" stroke="#000000" stroke-opacity="0.6" stroke-width="3.072"/>
<circle clip-path="url(#clip062)" cx="1057.44" cy="1324.83" r="7.2" fill="#78c2ad" fill-rule="evenodd" fill-opacity="0.6" stroke="#000000" stroke-opacity="0.6" stroke-width="3.072"/>
<circle clip-path="url(#clip062)" cx="994.721" cy="1280.53" r="7.2" fill="#78c2ad" fill-rule="evenodd" fill-opacity="0.6" stroke="#000000" stroke-opacity="0.6" stroke-width="3.072"/>
<circle clip-path="url(#clip062)" cx="932.001" cy="1236.22" r="7.2" fill="#78c2ad" fill-rule="evenodd" fill-opacity="0.6" stroke="#000000" stroke-opacity="0.6" stroke-width="3.072"/>
<circle clip-path="url(#clip062)" cx="869.28" cy="1191.92" r="7.2" fill="#78c2ad" fill-rule="evenodd" fill-opacity="0.6" stroke="#000000" stroke-opacity="0.6" stroke-width="3.072"/>
<circle clip-path="url(#clip062)" cx="806.559" cy="1147.62" r="7.2" fill="#78c2ad" fill-rule="evenodd" fill-opacity="0.6" stroke="#000000" stroke-opacity="0.6" stroke-width="3.072"/>
<circle clip-path="url(#clip062)" cx="743.838" cy="1103.31" r="7.2" fill="#78c2ad" fill-rule="evenodd" fill-opacity="0.6" stroke="#000000" stroke-opacity="0.6" stroke-width="3.072"/>
<circle clip-path="url(#clip062)" cx="681.117" cy="1059.01" r="7.2" fill="#78c2ad" fill-rule="evenodd" fill-opacity="0.6" stroke="#000000" stroke-opacity="0.6" stroke-width="3.072"/>
<circle clip-path="url(#clip062)" cx="618.396" cy="1014.71" r="7.2" fill="#78c2ad" fill-rule="evenodd" fill-opacity="0.6" stroke="#000000" stroke-opacity="0.6" stroke-width="3.072"/>
<circle clip-path="url(#clip062)" cx="555.675" cy="970.406" r="7.2" fill="#78c2ad" fill-rule="evenodd" fill-opacity="0.6" stroke="#000000" stroke-opacity="0.6" stroke-width="3.072"/>
<circle clip-path="url(#clip062)" cx="584.503" cy="926.103" r="7.2" fill="#78c2ad" fill-rule="evenodd" fill-opacity="0.6" stroke="#000000" stroke-opacity="0.6" stroke-width="3.072"/>
<circle clip-path="url(#clip062)" cx="647.224" cy="881.801" r="7.2" fill="#78c2ad" fill-rule="evenodd" fill-opacity="0.6" stroke="#000000" stroke-opacity="0.6" stroke-width="3.072"/>
<circle clip-path="url(#clip062)" cx="709.945" cy="837.498" r="7.2" fill="#78c2ad" fill-rule="evenodd" fill-opacity="0.6" stroke="#000000" stroke-opacity="0.6" stroke-width="3.072"/>
<circle clip-path="url(#clip062)" cx="772.666" cy="793.195" r="7.2" fill="#78c2ad" fill-rule="evenodd" fill-opacity="0.6" stroke="#000000" stroke-opacity="0.6" stroke-width="3.072"/>
<circle clip-path="url(#clip062)" cx="835.386" cy="748.892" r="7.2" fill="#78c2ad" fill-rule="evenodd" fill-opacity="0.6" stroke="#000000" stroke-opacity="0.6" stroke-width="3.072"/>
<circle clip-path="url(#clip062)" cx="898.107" cy="704.589" r="7.2" fill="#78c2ad" fill-rule="evenodd" fill-opacity="0.6" stroke="#000000" stroke-opacity="0.6" stroke-width="3.072"/>
<circle clip-path="url(#clip062)" cx="960.828" cy="660.286" r="7.2" fill="#78c2ad" fill-rule="evenodd" fill-opacity="0.6" stroke="#000000" stroke-opacity="0.6" stroke-width="3.072"/>
<circle clip-path="url(#clip062)" cx="1023.55" cy="615.984" r="7.2" fill="#78c2ad" fill-rule="evenodd" fill-opacity="0.6" stroke="#000000" stroke-opacity="0.6" stroke-width="3.072"/>
<circle clip-path="url(#clip062)" cx="1086.27" cy="571.681" r="7.2" fill="#78c2ad" fill-rule="evenodd" fill-opacity="0.6" stroke="#000000" stroke-opacity="0.6" stroke-width="3.072"/>
<circle clip-path="url(#clip062)" cx="1148.99" cy="527.378" r="7.2" fill="#78c2ad" fill-rule="evenodd" fill-opacity="0.6" stroke="#000000" stroke-opacity="0.6" stroke-width="3.072"/>
<circle clip-path="url(#clip062)" cx="1211.71" cy="483.075" r="7.2" fill="#78c2ad" fill-rule="evenodd" fill-opacity="0.6" stroke="#000000" stroke-opacity="0.6" stroke-width="3.072"/>
<circle clip-path="url(#clip062)" cx="1274.43" cy="438.772" r="7.2" fill="#78c2ad" fill-rule="evenodd" fill-opacity="0.6" stroke="#000000" stroke-opacity="0.6" stroke-width="3.072"/>
<circle clip-path="url(#clip062)" cx="1337.15" cy="394.47" r="7.2" fill="#78c2ad" fill-rule="evenodd" fill-opacity="0.6" stroke="#000000" stroke-opacity="0.6" stroke-width="3.072"/>
<circle clip-path="url(#clip062)" cx="1399.87" cy="350.167" r="7.2" fill="#78c2ad" fill-rule="evenodd" fill-opacity="0.6" stroke="#000000" stroke-opacity="0.6" stroke-width="3.072"/>
<circle clip-path="url(#clip062)" cx="1462.6" cy="305.864" r="7.2" fill="#78c2ad" fill-rule="evenodd" fill-opacity="0.6" stroke="#000000" stroke-opacity="0.6" stroke-width="3.072"/>
<circle clip-path="url(#clip062)" cx="1525.32" cy="261.561" r="7.2" fill="#78c2ad" fill-rule="evenodd" fill-opacity="0.6" stroke="#000000" stroke-opacity="0.6" stroke-width="3.072"/>
<circle clip-path="url(#clip062)" cx="1588.04" cy="217.258" r="7.2" fill="#78c2ad" fill-rule="evenodd" fill-opacity="0.6" stroke="#000000" stroke-opacity="0.6" stroke-width="3.072"/>
<circle clip-path="url(#clip062)" cx="1589.45" cy="172.955" r="7.2" fill="#78c2ad" fill-rule="evenodd" fill-opacity="0.6" stroke="#000000" stroke-opacity="0.6" stroke-width="3.072"/>
<circle clip-path="url(#clip062)" cx="1526.73" cy="177.523" r="7.2" fill="#78c2ad" fill-rule="evenodd" fill-opacity="0.6" stroke="#000000" stroke-opacity="0.6" stroke-width="3.072"/>
<circle clip-path="url(#clip062)" cx="1464.01" cy="221.826" r="7.2" fill="#78c2ad" fill-rule="evenodd" fill-opacity="0.6" stroke="#000000" stroke-opacity="0.6" stroke-width="3.072"/>
<circle clip-path="url(#clip062)" cx="1401.29" cy="266.129" r="7.2" fill="#78c2ad" fill-rule="evenodd" fill-opacity="0.6" stroke="#000000" stroke-opacity="0.6" stroke-width="3.072"/>
<circle clip-path="url(#clip062)" cx="1338.57" cy="310.432" r="7.2" fill="#78c2ad" fill-rule="evenodd" fill-opacity="0.6" stroke="#000000" stroke-opacity="0.6" stroke-width="3.072"/>
<circle clip-path="url(#clip062)" cx="1275.84" cy="354.735" r="7.2" fill="#78c2ad" fill-rule="evenodd" fill-opacity="0.6" stroke="#000000" stroke-opacity="0.6" stroke-width="3.072"/>
<circle clip-path="url(#clip062)" cx="1213.12" cy="399.038" r="7.2" fill="#78c2ad" fill-rule="evenodd" fill-opacity="0.6" stroke="#000000" stroke-opacity="0.6" stroke-width="3.072"/>
<circle clip-path="url(#clip062)" cx="1150.4" cy="443.34" r="7.2" fill="#78c2ad" fill-rule="evenodd" fill-opacity="0.6" stroke="#000000" stroke-opacity="0.6" stroke-width="3.072"/>
<circle clip-path="url(#clip062)" cx="1087.68" cy="487.643" r="7.2" fill="#78c2ad" fill-rule="evenodd" fill-opacity="0.6" stroke="#000000" stroke-opacity="0.6" stroke-width="3.072"/>
<circle clip-path="url(#clip062)" cx="1024.96" cy="531.946" r="7.2" fill="#78c2ad" fill-rule="evenodd" fill-opacity="0.6" stroke="#000000" stroke-opacity="0.6" stroke-width="3.072"/>
<circle clip-path="url(#clip062)" cx="962.241" cy="576.249" r="7.2" fill="#78c2ad" fill-rule="evenodd" fill-opacity="0.6" stroke="#000000" stroke-opacity="0.6" stroke-width="3.072"/>
<circle clip-path="url(#clip062)" cx="918.957" cy="620.552" r="7.2" fill="#78c2ad" fill-rule="evenodd" fill-opacity="0.6" stroke="#000000" stroke-opacity="0.6" stroke-width="3.072"/>
<circle clip-path="url(#clip062)" cx="981.678" cy="664.855" r="7.2" fill="#78c2ad" fill-rule="evenodd" fill-opacity="0.6" stroke="#000000" stroke-opacity="0.6" stroke-width="3.072"/>
<circle clip-path="url(#clip062)" cx="1044.4" cy="709.157" r="7.2" fill="#78c2ad" fill-rule="evenodd" fill-opacity="0.6" stroke="#000000" stroke-opacity="0.6" stroke-width="3.072"/>
<circle clip-path="url(#clip062)" cx="1107.12" cy="753.46" r="7.2" fill="#78c2ad" fill-rule="evenodd" fill-opacity="0.6" stroke="#000000" stroke-opacity="0.6" stroke-width="3.072"/>
<circle clip-path="url(#clip062)" cx="1169.84" cy="797.763" r="7.2" fill="#78c2ad" fill-rule="evenodd" fill-opacity="0.6" stroke="#000000" stroke-opacity="0.6" stroke-width="3.072"/>
<circle clip-path="url(#clip062)" cx="1232.56" cy="842.066" r="7.2" fill="#78c2ad" fill-rule="evenodd" fill-opacity="0.6" stroke="#000000" stroke-opacity="0.6" stroke-width="3.072"/>
<circle clip-path="url(#clip062)" cx="1295.28" cy="886.369" r="7.2" fill="#78c2ad" fill-rule="evenodd" fill-opacity="0.6" stroke="#000000" stroke-opacity="0.6" stroke-width="3.072"/>
<circle clip-path="url(#clip062)" cx="1358" cy="930.672" r="7.2" fill="#78c2ad" fill-rule="evenodd" fill-opacity="0.6" stroke="#000000" stroke-opacity="0.6" stroke-width="3.072"/>
<circle clip-path="url(#clip062)" cx="1420.72" cy="974.974" r="7.2" fill="#78c2ad" fill-rule="evenodd" fill-opacity="0.6" stroke="#000000" stroke-opacity="0.6" stroke-width="3.072"/>
<circle clip-path="url(#clip062)" cx="1483.44" cy="1019.28" r="7.2" fill="#78c2ad" fill-rule="evenodd" fill-opacity="0.6" stroke="#000000" stroke-opacity="0.6" stroke-width="3.072"/>
<circle clip-path="url(#clip062)" cx="1546.17" cy="1063.58" r="7.2" fill="#78c2ad" fill-rule="evenodd" fill-opacity="0.6" stroke="#000000" stroke-opacity="0.6" stroke-width="3.072"/>
<circle clip-path="url(#clip062)" cx="1608.89" cy="1107.88" r="7.2" fill="#78c2ad" fill-rule="evenodd" fill-opacity="0.6" stroke="#000000" stroke-opacity="0.6" stroke-width="3.072"/>
<circle clip-path="url(#clip062)" cx="1671.61" cy="1152.19" r="7.2" fill="#78c2ad" fill-rule="evenodd" fill-opacity="0.6" stroke="#000000" stroke-opacity="0.6" stroke-width="3.072"/>
<circle clip-path="url(#clip062)" cx="1734.33" cy="1192.06" r="7.2" fill="#78c2ad" fill-rule="evenodd" fill-opacity="0.6" stroke="#000000" stroke-opacity="0.6" stroke-width="3.072"/>
<circle clip-path="url(#clip062)" cx="1797.05" cy="1147.76" r="7.2" fill="#78c2ad" fill-rule="evenodd" fill-opacity="0.6" stroke="#000000" stroke-opacity="0.6" stroke-width="3.072"/>
<circle clip-path="url(#clip062)" cx="1859.77" cy="1103.46" r="7.2" fill="#78c2ad" fill-rule="evenodd" fill-opacity="0.6" stroke="#000000" stroke-opacity="0.6" stroke-width="3.072"/>
<circle clip-path="url(#clip062)" cx="1922.49" cy="1059.15" r="7.2" fill="#78c2ad" fill-rule="evenodd" fill-opacity="0.6" stroke="#000000" stroke-opacity="0.6" stroke-width="3.072"/>
<circle clip-path="url(#clip062)" cx="1985.21" cy="1014.85" r="7.2" fill="#78c2ad" fill-rule="evenodd" fill-opacity="0.6" stroke="#000000" stroke-opacity="0.6" stroke-width="3.072"/>
<circle clip-path="url(#clip062)" cx="2047.93" cy="970.547" r="7.2" fill="#78c2ad" fill-rule="evenodd" fill-opacity="0.6" stroke="#000000" stroke-opacity="0.6" stroke-width="3.072"/>
<circle clip-path="url(#clip062)" cx="2110.65" cy="926.244" r="7.2" fill="#78c2ad" fill-rule="evenodd" fill-opacity="0.6" stroke="#000000" stroke-opacity="0.6" stroke-width="3.072"/>
<circle clip-path="url(#clip062)" cx="2173.37" cy="881.941" r="7.2" fill="#78c2ad" fill-rule="evenodd" fill-opacity="0.6" stroke="#000000" stroke-opacity="0.6" stroke-width="3.072"/>
<circle clip-path="url(#clip062)" cx="2200.14" cy="837.638" r="7.2" fill="#78c2ad" fill-rule="evenodd" fill-opacity="0.6" stroke="#000000" stroke-opacity="0.6" stroke-width="3.072"/>
<circle clip-path="url(#clip062)" cx="2137.42" cy="793.335" r="7.2" fill="#78c2ad" fill-rule="evenodd" fill-opacity="0.6" stroke="#000000" stroke-opacity="0.6" stroke-width="3.072"/>
<circle clip-path="url(#clip062)" cx="2074.7" cy="749.033" r="7.2" fill="#78c2ad" fill-rule="evenodd" fill-opacity="0.6" stroke="#000000" stroke-opacity="0.6" stroke-width="3.072"/>
<circle clip-path="url(#clip062)" cx="2011.98" cy="704.73" r="7.2" fill="#78c2ad" fill-rule="evenodd" fill-opacity="0.6" stroke="#000000" stroke-opacity="0.6" stroke-width="3.072"/>
<circle clip-path="url(#clip062)" cx="1949.25" cy="660.427" r="7.2" fill="#78c2ad" fill-rule="evenodd" fill-opacity="0.6" stroke="#000000" stroke-opacity="0.6" stroke-width="3.072"/>
<circle clip-path="url(#clip062)" cx="1886.53" cy="616.124" r="7.2" fill="#78c2ad" fill-rule="evenodd" fill-opacity="0.6" stroke="#000000" stroke-opacity="0.6" stroke-width="3.072"/>
<circle clip-path="url(#clip062)" cx="1823.81" cy="571.821" r="7.2" fill="#78c2ad" fill-rule="evenodd" fill-opacity="0.6" stroke="#000000" stroke-opacity="0.6" stroke-width="3.072"/>
<circle clip-path="url(#clip062)" cx="1761.09" cy="527.519" r="7.2" fill="#78c2ad" fill-rule="evenodd" fill-opacity="0.6" stroke="#000000" stroke-opacity="0.6" stroke-width="3.072"/>
<circle clip-path="url(#clip062)" cx="1698.37" cy="483.216" r="7.2" fill="#78c2ad" fill-rule="evenodd" fill-opacity="0.6" stroke="#000000" stroke-opacity="0.6" stroke-width="3.072"/>
<circle clip-path="url(#clip062)" cx="1635.65" cy="438.913" r="7.2" fill="#78c2ad" fill-rule="evenodd" fill-opacity="0.6" stroke="#000000" stroke-opacity="0.6" stroke-width="3.072"/>
<circle clip-path="url(#clip062)" cx="1572.93" cy="394.61" r="7.2" fill="#78c2ad" fill-rule="evenodd" fill-opacity="0.6" stroke="#000000" stroke-opacity="0.6" stroke-width="3.072"/>
<circle clip-path="url(#clip062)" cx="1510.21" cy="353.083" r="7.2" fill="#78c2ad" fill-rule="evenodd" fill-opacity="0.6" stroke="#000000" stroke-opacity="0.6" stroke-width="3.072"/>
<circle clip-path="url(#clip062)" cx="1447.49" cy="397.386" r="7.2" fill="#78c2ad" fill-rule="evenodd" fill-opacity="0.6" stroke="#000000" stroke-opacity="0.6" stroke-width="3.072"/>
<circle clip-path="url(#clip062)" cx="1384.77" cy="441.689" r="7.2" fill="#78c2ad" fill-rule="evenodd" fill-opacity="0.6" stroke="#000000" stroke-opacity="0.6" stroke-width="3.072"/>
<circle clip-path="url(#clip062)" cx="1322.05" cy="485.992" r="7.2" fill="#78c2ad" fill-rule="evenodd" fill-opacity="0.6" stroke="#000000" stroke-opacity="0.6" stroke-width="3.072"/>
<circle clip-path="url(#clip062)" cx="1259.32" cy="530.295" r="7.2" fill="#78c2ad" fill-rule="evenodd" fill-opacity="0.6" stroke="#000000" stroke-opacity="0.6" stroke-width="3.072"/>
<circle clip-path="url(#clip062)" cx="1196.6" cy="574.597" r="7.2" fill="#78c2ad" fill-rule="evenodd" fill-opacity="0.6" stroke="#000000" stroke-opacity="0.6" stroke-width="3.072"/>
<circle clip-path="url(#clip062)" cx="1133.88" cy="618.9" r="7.2" fill="#78c2ad" fill-rule="evenodd" fill-opacity="0.6" stroke="#000000" stroke-opacity="0.6" stroke-width="3.072"/>
<circle clip-path="url(#clip062)" cx="1071.16" cy="663.203" r="7.2" fill="#78c2ad" fill-rule="evenodd" fill-opacity="0.6" stroke="#000000" stroke-opacity="0.6" stroke-width="3.072"/>
<circle clip-path="url(#clip062)" cx="1008.44" cy="707.506" r="7.2" fill="#78c2ad" fill-rule="evenodd" fill-opacity="0.6" stroke="#000000" stroke-opacity="0.6" stroke-width="3.072"/>
<circle clip-path="url(#clip062)" cx="945.72" cy="751.809" r="7.2" fill="#78c2ad" fill-rule="evenodd" fill-opacity="0.6" stroke="#000000" stroke-opacity="0.6" stroke-width="3.072"/>
<circle clip-path="url(#clip062)" cx="883" cy="796.112" r="7.2" fill="#78c2ad" fill-rule="evenodd" fill-opacity="0.6" stroke="#000000" stroke-opacity="0.6" stroke-width="3.072"/>
<circle clip-path="url(#clip062)" cx="820.279" cy="840.414" r="7.2" fill="#78c2ad" fill-rule="evenodd" fill-opacity="0.6" stroke="#000000" stroke-opacity="0.6" stroke-width="3.072"/>
<circle clip-path="url(#clip062)" cx="757.558" cy="884.717" r="7.2" fill="#78c2ad" fill-rule="evenodd" fill-opacity="0.6" stroke="#000000" stroke-opacity="0.6" stroke-width="3.072"/>
<circle clip-path="url(#clip062)" cx="694.837" cy="929.02" r="7.2" fill="#78c2ad" fill-rule="evenodd" fill-opacity="0.6" stroke="#000000" stroke-opacity="0.6" stroke-width="3.072"/>
<circle clip-path="url(#clip062)" cx="632.116" cy="973.323" r="7.2" fill="#78c2ad" fill-rule="evenodd" fill-opacity="0.6" stroke="#000000" stroke-opacity="0.6" stroke-width="3.072"/>
<circle clip-path="url(#clip062)" cx="569.395" cy="1017.63" r="7.2" fill="#78c2ad" fill-rule="evenodd" fill-opacity="0.6" stroke="#000000" stroke-opacity="0.6" stroke-width="3.072"/>
<circle clip-path="url(#clip062)" cx="506.674" cy="1061.93" r="7.2" fill="#78c2ad" fill-rule="evenodd" fill-opacity="0.6" stroke="#000000" stroke-opacity="0.6" stroke-width="3.072"/>
<circle clip-path="url(#clip062)" cx="443.954" cy="1106.23" r="7.2" fill="#78c2ad" fill-rule="evenodd" fill-opacity="0.6" stroke="#000000" stroke-opacity="0.6" stroke-width="3.072"/>
<circle clip-path="url(#clip062)" cx="381.233" cy="1150.53" r="7.2" fill="#78c2ad" fill-rule="evenodd" fill-opacity="0.6" stroke="#000000" stroke-opacity="0.6" stroke-width="3.072"/>
<circle clip-path="url(#clip062)" cx="318.512" cy="1194.84" r="7.2" fill="#78c2ad" fill-rule="evenodd" fill-opacity="0.6" stroke="#000000" stroke-opacity="0.6" stroke-width="3.072"/>
<circle clip-path="url(#clip062)" cx="312.862" cy="1239.14" r="7.2" fill="#78c2ad" fill-rule="evenodd" fill-opacity="0.6" stroke="#000000" stroke-opacity="0.6" stroke-width="3.072"/>
<circle clip-path="url(#clip062)" cx="375.583" cy="1221.73" r="7.2" fill="#78c2ad" fill-rule="evenodd" fill-opacity="0.6" stroke="#000000" stroke-opacity="0.6" stroke-width="3.072"/>
<circle clip-path="url(#clip062)" cx="438.304" cy="1177.43" r="7.2" fill="#78c2ad" fill-rule="evenodd" fill-opacity="0.6" stroke="#000000" stroke-opacity="0.6" stroke-width="3.072"/>
<circle clip-path="url(#clip062)" cx="501.025" cy="1133.13" r="7.2" fill="#78c2ad" fill-rule="evenodd" fill-opacity="0.6" stroke="#000000" stroke-opacity="0.6" stroke-width="3.072"/>
<circle clip-path="url(#clip062)" cx="563.746" cy="1088.82" r="7.2" fill="#78c2ad" fill-rule="evenodd" fill-opacity="0.6" stroke="#000000" stroke-opacity="0.6" stroke-width="3.072"/>
<circle clip-path="url(#clip062)" cx="626.467" cy="1044.52" r="7.2" fill="#78c2ad" fill-rule="evenodd" fill-opacity="0.6" stroke="#000000" stroke-opacity="0.6" stroke-width="3.072"/>
<circle clip-path="url(#clip062)" cx="689.187" cy="1000.22" r="7.2" fill="#78c2ad" fill-rule="evenodd" fill-opacity="0.6" stroke="#000000" stroke-opacity="0.6" stroke-width="3.072"/>
<circle clip-path="url(#clip062)" cx="751.908" cy="955.914" r="7.2" fill="#78c2ad" fill-rule="evenodd" fill-opacity="0.6" stroke="#000000" stroke-opacity="0.6" stroke-width="3.072"/>
<circle clip-path="url(#clip062)" cx="814.629" cy="911.611" r="7.2" fill="#78c2ad" fill-rule="evenodd" fill-opacity="0.6" stroke="#000000" stroke-opacity="0.6" stroke-width="3.072"/>
<circle clip-path="url(#clip062)" cx="877.35" cy="867.308" r="7.2" fill="#78c2ad" fill-rule="evenodd" fill-opacity="0.6" stroke="#000000" stroke-opacity="0.6" stroke-width="3.072"/>
<circle clip-path="url(#clip062)" cx="940.071" cy="823.005" r="7.2" fill="#78c2ad" fill-rule="evenodd" fill-opacity="0.6" stroke="#000000" stroke-opacity="0.6" stroke-width="3.072"/>
<circle clip-path="url(#clip062)" cx="1002.79" cy="778.703" r="7.2" fill="#78c2ad" fill-rule="evenodd" fill-opacity="0.6" stroke="#000000" stroke-opacity="0.6" stroke-width="3.072"/>
<circle clip-path="url(#clip062)" cx="1065.51" cy="734.4" r="7.2" fill="#78c2ad" fill-rule="evenodd" fill-opacity="0.6" stroke="#000000" stroke-opacity="0.6" stroke-width="3.072"/>
<circle clip-path="url(#clip062)" cx="1128.23" cy="690.097" r="7.2" fill="#78c2ad" fill-rule="evenodd" fill-opacity="0.6" stroke="#000000" stroke-opacity="0.6" stroke-width="3.072"/>
<circle clip-path="url(#clip062)" cx="1190.95" cy="645.794" r="7.2" fill="#78c2ad" fill-rule="evenodd" fill-opacity="0.6" stroke="#000000" stroke-opacity="0.6" stroke-width="3.072"/>
<circle clip-path="url(#clip062)" cx="1253.68" cy="601.491" r="7.2" fill="#78c2ad" fill-rule="evenodd" fill-opacity="0.6" stroke="#000000" stroke-opacity="0.6" stroke-width="3.072"/>
<circle clip-path="url(#clip062)" cx="1316.4" cy="557.189" r="7.2" fill="#78c2ad" fill-rule="evenodd" fill-opacity="0.6" stroke="#000000" stroke-opacity="0.6" stroke-width="3.072"/>
<circle clip-path="url(#clip062)" cx="1379.12" cy="512.886" r="7.2" fill="#78c2ad" fill-rule="evenodd" fill-opacity="0.6" stroke="#000000" stroke-opacity="0.6" stroke-width="3.072"/>
<circle clip-path="url(#clip062)" cx="1441.84" cy="468.583" r="7.2" fill="#78c2ad" fill-rule="evenodd" fill-opacity="0.6" stroke="#000000" stroke-opacity="0.6" stroke-width="3.072"/>
<circle clip-path="url(#clip062)" cx="1504.56" cy="424.28" r="7.2" fill="#78c2ad" fill-rule="evenodd" fill-opacity="0.6" stroke="#000000" stroke-opacity="0.6" stroke-width="3.072"/>
<circle clip-path="url(#clip062)" cx="1490.59" cy="379.977" r="7.2" fill="#78c2ad" fill-rule="evenodd" fill-opacity="0.6" stroke="#000000" stroke-opacity="0.6" stroke-width="3.072"/>
<circle clip-path="url(#clip062)" cx="1427.87" cy="335.674" r="7.2" fill="#78c2ad" fill-rule="evenodd" fill-opacity="0.6" stroke="#000000" stroke-opacity="0.6" stroke-width="3.072"/>
<circle clip-path="url(#clip062)" cx="1365.14" cy="291.372" r="7.2" fill="#78c2ad" fill-rule="evenodd" fill-opacity="0.6" stroke="#000000" stroke-opacity="0.6" stroke-width="3.072"/>
<circle clip-path="url(#clip062)" cx="1302.42" cy="247.069" r="7.2" fill="#78c2ad" fill-rule="evenodd" fill-opacity="0.6" stroke="#000000" stroke-opacity="0.6" stroke-width="3.072"/>
<circle clip-path="url(#clip062)" cx="1239.7" cy="202.766" r="7.2" fill="#78c2ad" fill-rule="evenodd" fill-opacity="0.6" stroke="#000000" stroke-opacity="0.6" stroke-width="3.072"/>
<circle clip-path="url(#clip062)" cx="1176.98" cy="158.463" r="7.2" fill="#78c2ad" fill-rule="evenodd" fill-opacity="0.6" stroke="#000000" stroke-opacity="0.6" stroke-width="3.072"/>
<circle clip-path="url(#clip062)" cx="1114.26" cy="171.243" r="7.2" fill="#78c2ad" fill-rule="evenodd" fill-opacity="0.6" stroke="#000000" stroke-opacity="0.6" stroke-width="3.072"/>
<circle clip-path="url(#clip062)" cx="1051.54" cy="215.546" r="7.2" fill="#78c2ad" fill-rule="evenodd" fill-opacity="0.6" stroke="#000000" stroke-opacity="0.6" stroke-width="3.072"/>
<circle clip-path="url(#clip062)" cx="988.819" cy="259.848" r="7.2" fill="#78c2ad" fill-rule="evenodd" fill-opacity="0.6" stroke="#000000" stroke-opacity="0.6" stroke-width="3.072"/>
<circle clip-path="url(#clip062)" cx="926.098" cy="304.151" r="7.2" fill="#78c2ad" fill-rule="evenodd" fill-opacity="0.6" stroke="#000000" stroke-opacity="0.6" stroke-width="3.072"/>
<circle clip-path="url(#clip062)" cx="918.497" cy="348.454" r="7.2" fill="#78c2ad" fill-rule="evenodd" fill-opacity="0.6" stroke="#000000" stroke-opacity="0.6" stroke-width="3.072"/>
<circle clip-path="url(#clip062)" cx="981.218" cy="392.757" r="7.2" fill="#78c2ad" fill-rule="evenodd" fill-opacity="0.6" stroke="#000000" stroke-opacity="0.6" stroke-width="3.072"/>
<circle clip-path="url(#clip062)" cx="1043.94" cy="437.06" r="7.2" fill="#78c2ad" fill-rule="evenodd" fill-opacity="0.6" stroke="#000000" stroke-opacity="0.6" stroke-width="3.072"/>
<circle clip-path="url(#clip062)" cx="1106.66" cy="481.362" r="7.2" fill="#78c2ad" fill-rule="evenodd" fill-opacity="0.6" stroke="#000000" stroke-opacity="0.6" stroke-width="3.072"/>
<circle clip-path="url(#clip062)" cx="1169.38" cy="525.665" r="7.2" fill="#78c2ad" fill-rule="evenodd" fill-opacity="0.6" stroke="#000000" stroke-opacity="0.6" stroke-width="3.072"/>
<circle clip-path="url(#clip062)" cx="1232.1" cy="569.968" r="7.2" fill="#78c2ad" fill-rule="evenodd" fill-opacity="0.6" stroke="#000000" stroke-opacity="0.6" stroke-width="3.072"/>
<circle clip-path="url(#clip062)" cx="1294.82" cy="614.271" r="7.2" fill="#78c2ad" fill-rule="evenodd" fill-opacity="0.6" stroke="#000000" stroke-opacity="0.6" stroke-width="3.072"/>
<circle clip-path="url(#clip062)" cx="1315.97" cy="658.574" r="7.2" fill="#78c2ad" fill-rule="evenodd" fill-opacity="0.6" stroke="#000000" stroke-opacity="0.6" stroke-width="3.072"/>
<circle clip-path="url(#clip062)" cx="1253.25" cy="702.877" r="7.2" fill="#78c2ad" fill-rule="evenodd" fill-opacity="0.6" stroke="#000000" stroke-opacity="0.6" stroke-width="3.072"/>
<circle clip-path="url(#clip062)" cx="1190.53" cy="747.179" r="7.2" fill="#78c2ad" fill-rule="evenodd" fill-opacity="0.6" stroke="#000000" stroke-opacity="0.6" stroke-width="3.072"/>
<circle clip-path="url(#clip062)" cx="1127.81" cy="791.482" r="7.2" fill="#78c2ad" fill-rule="evenodd" fill-opacity="0.6" stroke="#000000" stroke-opacity="0.6" stroke-width="3.072"/>
<circle clip-path="url(#clip062)" cx="1065.09" cy="835.785" r="7.2" fill="#78c2ad" fill-rule="evenodd" fill-opacity="0.6" stroke="#000000" stroke-opacity="0.6" stroke-width="3.072"/>
<circle clip-path="url(#clip062)" cx="1002.37" cy="880.088" r="7.2" fill="#78c2ad" fill-rule="evenodd" fill-opacity="0.6" stroke="#000000" stroke-opacity="0.6" stroke-width="3.072"/>
<circle clip-path="url(#clip062)" cx="939.647" cy="924.391" r="7.2" fill="#78c2ad" fill-rule="evenodd" fill-opacity="0.6" stroke="#000000" stroke-opacity="0.6" stroke-width="3.072"/>
<circle clip-path="url(#clip062)" cx="876.927" cy="968.694" r="7.2" fill="#78c2ad" fill-rule="evenodd" fill-opacity="0.6" stroke="#000000" stroke-opacity="0.6" stroke-width="3.072"/>
<circle clip-path="url(#clip062)" cx="814.206" cy="1013" r="7.2" fill="#78c2ad" fill-rule="evenodd" fill-opacity="0.6" stroke="#000000" stroke-opacity="0.6" stroke-width="3.072"/>
<circle clip-path="url(#clip062)" cx="751.485" cy="1057.3" r="7.2" fill="#78c2ad" fill-rule="evenodd" fill-opacity="0.6" stroke="#000000" stroke-opacity="0.6" stroke-width="3.072"/>
<circle clip-path="url(#clip062)" cx="688.764" cy="1101.6" r="7.2" fill="#78c2ad" fill-rule="evenodd" fill-opacity="0.6" stroke="#000000" stroke-opacity="0.6" stroke-width="3.072"/>
<circle clip-path="url(#clip062)" cx="626.043" cy="1145.9" r="7.2" fill="#78c2ad" fill-rule="evenodd" fill-opacity="0.6" stroke="#000000" stroke-opacity="0.6" stroke-width="3.072"/>
<circle clip-path="url(#clip062)" cx="563.322" cy="1190.21" r="7.2" fill="#78c2ad" fill-rule="evenodd" fill-opacity="0.6" stroke="#000000" stroke-opacity="0.6" stroke-width="3.072"/>
<circle clip-path="url(#clip062)" cx="500.601" cy="1234.51" r="7.2" fill="#78c2ad" fill-rule="evenodd" fill-opacity="0.6" stroke="#000000" stroke-opacity="0.6" stroke-width="3.072"/>
<circle clip-path="url(#clip062)" cx="437.881" cy="1278.81" r="7.2" fill="#78c2ad" fill-rule="evenodd" fill-opacity="0.6" stroke="#000000" stroke-opacity="0.6" stroke-width="3.072"/>
<circle clip-path="url(#clip062)" cx="1170.34" cy="1017.9" r="21.6" fill="#008000" fill-rule="evenodd" fill-opacity="1" stroke="#000000" stroke-opacity="1" stroke-width="3.072"/>
<circle clip-path="url(#clip062)" cx="437.881" cy="1278.81" r="21.6" fill="#ff0000" fill-rule="evenodd" fill-opacity="1" stroke="#000000" stroke-opacity="1" stroke-width="3.072"/>
<path clip-path="url(#clip060)" d="M1737.22 372.044 L2190.07 372.044 L2190.07 164.684 L1737.22 164.684  Z" fill="#f0f1eb" fill-rule="evenodd" fill-opacity="1"/>
<polyline clip-path="url(#clip060)" style="stroke:#000000; stroke-linecap:round; stroke-linejoin:round; stroke-width:4; stroke-opacity:1; fill:none" points="1737.22,372.044 2190.07,372.044 2190.07,164.684 1737.22,164.684 1737.22,372.044 "/>
<polyline clip-path="url(#clip060)" style="stroke:#78c2ad; stroke-linecap:round; stroke-linejoin:round; stroke-width:8; stroke-opacity:1; fill:none" points="1759.45,216.524 1892.82,216.524 "/>
<circle clip-path="url(#clip060)" cx="1826.13" cy="216.524" r="18.432" fill="#78c2ad" fill-rule="evenodd" fill-opacity="0.6" stroke="#000000" stroke-opacity="0.6" stroke-width="7.86432"/>
<path clip-path="url(#clip060)" d="M1915.58 199.244 L1942.73 199.244 L1942.73 202.809 L1920.88 229.869 L1943.26 229.869 L1943.26 233.804 L1915.04 233.804 L1915.04 230.239 L1936.9 203.179 L1915.58 203.179 L1915.58 199.244 Z" fill="#000000" fill-rule="nonzero" fill-opacity="1" /><path clip-path="url(#clip060)" d="M1949.86 207.878 L1954.12 207.878 L1954.12 233.804 L1949.86 233.804 L1949.86 207.878 M1949.86 197.785 L1954.12 197.785 L1954.12 203.179 L1949.86 203.179 L1949.86 197.785 Z" fill="#000000" fill-rule="nonzero" fill-opacity="1" /><path clip-path="url(#clip060)" d="M1980.09 220.54 Q1980.09 215.91 1978.17 213.364 Q1976.27 210.818 1972.82 210.818 Q1969.4 210.818 1967.47 213.364 Q1965.58 215.91 1965.58 220.54 Q1965.58 225.146 1967.47 227.693 Q1969.4 230.239 1972.82 230.239 Q1976.27 230.239 1978.17 227.693 Q1980.09 225.146 1980.09 220.54 M1984.35 230.586 Q1984.35 237.206 1981.41 240.424 Q1978.47 243.665 1972.41 243.665 Q1970.16 243.665 1968.17 243.318 Q1966.18 242.993 1964.3 242.299 L1964.3 238.156 Q1966.18 239.174 1968.01 239.66 Q1969.84 240.146 1971.73 240.146 Q1975.92 240.146 1978.01 237.947 Q1980.09 235.771 1980.09 231.35 L1980.09 229.244 Q1978.77 231.535 1976.71 232.669 Q1974.65 233.804 1971.78 233.804 Q1967.01 233.804 1964.1 230.169 Q1961.18 226.535 1961.18 220.54 Q1961.18 214.521 1964.1 210.887 Q1967.01 207.253 1971.78 207.253 Q1974.65 207.253 1976.71 208.387 Q1978.77 209.521 1980.09 211.813 L1980.09 207.878 L1984.35 207.878 L1984.35 230.586 Z" fill="#000000" fill-rule="nonzero" fill-opacity="1" /><path clip-path="url(#clip060)" d="M1991.32 199.244 L2018.47 199.244 L2018.47 202.809 L1996.62 229.869 L2019 229.869 L2019 233.804 L1990.79 233.804 L1990.79 230.239 L2012.64 203.179 L1991.32 203.179 L1991.32 199.244 Z" fill="#000000" fill-rule="nonzero" fill-opacity="1" /><path clip-path="url(#clip060)" d="M2037.38 220.771 Q2032.22 220.771 2030.23 221.952 Q2028.24 223.132 2028.24 225.98 Q2028.24 228.248 2029.72 229.591 Q2031.22 230.91 2033.79 230.91 Q2037.34 230.91 2039.47 228.41 Q2041.62 225.887 2041.62 221.72 L2041.62 220.771 L2037.38 220.771 M2045.88 219.012 L2045.88 233.804 L2041.62 233.804 L2041.62 229.869 Q2040.16 232.23 2037.98 233.364 Q2035.81 234.475 2032.66 234.475 Q2028.68 234.475 2026.32 232.253 Q2023.98 230.007 2023.98 226.257 Q2023.98 221.882 2026.9 219.66 Q2029.84 217.438 2035.65 217.438 L2041.62 217.438 L2041.62 217.021 Q2041.62 214.082 2039.67 212.484 Q2037.75 210.864 2034.26 210.864 Q2032.03 210.864 2029.93 211.396 Q2027.82 211.929 2025.88 212.994 L2025.88 209.058 Q2028.22 208.156 2030.41 207.716 Q2032.61 207.253 2034.7 207.253 Q2040.32 207.253 2043.1 210.17 Q2045.88 213.086 2045.88 219.012 Z" fill="#000000" fill-rule="nonzero" fill-opacity="1" /><path clip-path="url(#clip060)" d="M2071.71 220.54 Q2071.71 215.91 2069.79 213.364 Q2067.89 210.818 2064.44 210.818 Q2061.02 210.818 2059.09 213.364 Q2057.2 215.91 2057.2 220.54 Q2057.2 225.146 2059.09 227.693 Q2061.02 230.239 2064.44 230.239 Q2067.89 230.239 2069.79 227.693 Q2071.71 225.146 2071.71 220.54 M2075.97 230.586 Q2075.97 237.206 2073.03 240.424 Q2070.09 243.665 2064.03 243.665 Q2061.78 243.665 2059.79 243.318 Q2057.8 242.993 2055.92 242.299 L2055.92 238.156 Q2057.8 239.174 2059.63 239.66 Q2061.46 240.146 2063.35 240.146 Q2067.54 240.146 2069.63 237.947 Q2071.71 235.771 2071.71 231.35 L2071.71 229.244 Q2070.39 231.535 2068.33 232.669 Q2066.27 233.804 2063.4 233.804 Q2058.63 233.804 2055.72 230.169 Q2052.8 226.535 2052.8 220.54 Q2052.8 214.521 2055.72 210.887 Q2058.63 207.253 2063.4 207.253 Q2066.27 207.253 2068.33 208.387 Q2070.39 209.521 2071.71 211.813 L2071.71 207.878 L2075.97 207.878 L2075.97 230.586 Z" fill="#000000" fill-rule="nonzero" fill-opacity="1" /><path clip-path="url(#clip060)" d="M2104.44 241.674 L2104.44 244.984 L2079.81 244.984 L2079.81 241.674 L2104.44 241.674 Z" fill="#000000" fill-rule="nonzero" fill-opacity="1" /><path clip-path="url(#clip060)" d="M2113.08 229.869 L2129.4 229.869 L2129.4 233.804 L2107.45 233.804 L2107.45 229.869 Q2110.11 227.114 2114.7 222.484 Q2119.3 217.832 2120.48 216.489 Q2122.73 213.966 2123.61 212.23 Q2124.51 210.471 2124.51 208.781 Q2124.51 206.026 2122.57 204.29 Q2120.65 202.554 2117.54 202.554 Q2115.34 202.554 2112.89 203.318 Q2110.46 204.082 2107.68 205.633 L2107.68 200.91 Q2110.51 199.776 2112.96 199.197 Q2115.41 198.619 2117.45 198.619 Q2122.82 198.619 2126.02 201.304 Q2129.21 203.989 2129.21 208.48 Q2129.21 210.609 2128.4 212.531 Q2127.61 214.429 2125.51 217.021 Q2124.93 217.693 2121.83 220.91 Q2118.72 224.105 2113.08 229.869 Z" fill="#000000" fill-rule="nonzero" fill-opacity="1" /><path clip-path="url(#clip060)" d="M2143.47 203.086 L2143.47 229.961 L2149.12 229.961 Q2156.27 229.961 2159.58 226.72 Q2162.91 223.48 2162.91 216.489 Q2162.91 209.545 2159.58 206.327 Q2156.27 203.086 2149.12 203.086 L2143.47 203.086 M2138.79 199.244 L2148.4 199.244 Q2158.45 199.244 2163.15 203.434 Q2167.84 207.6 2167.84 216.489 Q2167.84 225.424 2163.12 229.614 Q2158.4 233.804 2148.4 233.804 L2138.79 233.804 L2138.79 199.244 Z" fill="#000000" fill-rule="nonzero" fill-opacity="1" /><circle clip-path="url(#clip060)" cx="1826.13" cy="268.364" r="21.2677" fill="#008000" fill-rule="evenodd" fill-opacity="1" stroke="#000000" stroke-opacity="1" stroke-width="3.02474"/>
<path clip-path="url(#clip060)" d="M1937.29 252.218 L1937.29 256.778 Q1934.63 255.505 1932.27 254.88 Q1929.91 254.255 1927.71 254.255 Q1923.89 254.255 1921.8 255.736 Q1919.74 257.218 1919.74 259.949 Q1919.74 262.241 1921.11 263.422 Q1922.5 264.579 1926.34 265.297 L1929.16 265.875 Q1934.4 266.871 1936.87 269.394 Q1939.37 271.894 1939.37 276.107 Q1939.37 281.13 1935.99 283.722 Q1932.64 286.315 1926.13 286.315 Q1923.68 286.315 1920.9 285.759 Q1918.15 285.204 1915.18 284.116 L1915.18 279.301 Q1918.03 280.898 1920.76 281.709 Q1923.49 282.519 1926.13 282.519 Q1930.14 282.519 1932.31 280.945 Q1934.49 279.371 1934.49 276.454 Q1934.49 273.908 1932.91 272.472 Q1931.36 271.037 1927.8 270.32 L1924.95 269.764 Q1919.72 268.723 1917.38 266.5 Q1915.04 264.278 1915.04 260.32 Q1915.04 255.736 1918.26 253.098 Q1921.5 250.459 1927.17 250.459 Q1929.6 250.459 1932.13 250.899 Q1934.65 251.338 1937.29 252.218 Z" fill="#000000" fill-rule="nonzero" fill-opacity="1" /><path clip-path="url(#clip060)" d="M1950.69 252.357 L1950.69 259.718 L1959.47 259.718 L1959.47 263.028 L1950.69 263.028 L1950.69 277.102 Q1950.69 280.273 1951.55 281.176 Q1952.43 282.079 1955.09 282.079 L1959.47 282.079 L1959.47 285.644 L1955.09 285.644 Q1950.16 285.644 1948.29 283.815 Q1946.41 281.963 1946.41 277.102 L1946.41 263.028 L1943.29 263.028 L1943.29 259.718 L1946.41 259.718 L1946.41 252.357 L1950.69 252.357 Z" fill="#000000" fill-rule="nonzero" fill-opacity="1" /><path clip-path="url(#clip060)" d="M1976.85 272.611 Q1971.69 272.611 1969.7 273.792 Q1967.71 274.972 1967.71 277.82 Q1967.71 280.088 1969.19 281.431 Q1970.69 282.75 1973.26 282.75 Q1976.8 282.75 1978.93 280.25 Q1981.09 277.727 1981.09 273.56 L1981.09 272.611 L1976.85 272.611 M1985.35 270.852 L1985.35 285.644 L1981.09 285.644 L1981.09 281.709 Q1979.63 284.07 1977.45 285.204 Q1975.28 286.315 1972.13 286.315 Q1968.15 286.315 1965.79 284.093 Q1963.45 281.847 1963.45 278.097 Q1963.45 273.722 1966.36 271.5 Q1969.3 269.278 1975.11 269.278 L1981.09 269.278 L1981.09 268.861 Q1981.09 265.922 1979.14 264.324 Q1977.22 262.704 1973.72 262.704 Q1971.5 262.704 1969.4 263.236 Q1967.29 263.769 1965.35 264.834 L1965.35 260.898 Q1967.68 259.996 1969.88 259.556 Q1972.08 259.093 1974.16 259.093 Q1979.79 259.093 1982.57 262.01 Q1985.35 264.926 1985.35 270.852 Z" fill="#000000" fill-rule="nonzero" fill-opacity="1" /><path clip-path="url(#clip060)" d="M2009.14 263.699 Q2008.42 263.283 2007.57 263.098 Q2006.73 262.889 2005.72 262.889 Q2002.1 262.889 2000.16 265.25 Q1998.24 267.588 1998.24 271.986 L1998.24 285.644 L1993.96 285.644 L1993.96 259.718 L1998.24 259.718 L1998.24 263.746 Q1999.58 261.385 2001.73 260.25 Q2003.89 259.093 2006.97 259.093 Q2007.41 259.093 2007.94 259.162 Q2008.47 259.209 2009.12 259.324 L2009.14 263.699 Z" fill="#000000" fill-rule="nonzero" fill-opacity="1" /><path clip-path="url(#clip060)" d="M2017.82 252.357 L2017.82 259.718 L2026.6 259.718 L2026.6 263.028 L2017.82 263.028 L2017.82 277.102 Q2017.82 280.273 2018.68 281.176 Q2019.56 282.079 2022.22 282.079 L2026.6 282.079 L2026.6 285.644 L2022.22 285.644 Q2017.29 285.644 2015.41 283.815 Q2013.54 281.963 2013.54 277.102 L2013.54 263.028 L2010.41 263.028 L2010.41 259.718 L2013.54 259.718 L2013.54 252.357 L2017.82 252.357 Z" fill="#000000" fill-rule="nonzero" fill-opacity="1" /><circle clip-path="url(#clip060)" cx="1826.13" cy="320.204" r="21.2677" fill="#ff0000" fill-rule="evenodd" fill-opacity="1" stroke="#000000" stroke-opacity="1" stroke-width="3.02474"/>
<path clip-path="url(#clip060)" d="M1915.04 302.924 L1936.9 302.924 L1936.9 306.859 L1919.72 306.859 L1919.72 317.09 L1936.18 317.09 L1936.18 321.025 L1919.72 321.025 L1919.72 333.549 L1937.31 333.549 L1937.31 337.484 L1915.04 337.484 L1915.04 302.924 Z" fill="#000000" fill-rule="nonzero" fill-opacity="1" /><path clip-path="url(#clip060)" d="M1966.36 321.836 L1966.36 337.484 L1962.1 337.484 L1962.1 321.975 Q1962.1 318.294 1960.67 316.465 Q1959.23 314.637 1956.36 314.637 Q1952.91 314.637 1950.92 316.836 Q1948.93 319.035 1948.93 322.831 L1948.93 337.484 L1944.65 337.484 L1944.65 311.558 L1948.93 311.558 L1948.93 315.586 Q1950.46 313.248 1952.52 312.09 Q1954.6 310.933 1957.31 310.933 Q1961.78 310.933 1964.07 313.711 Q1966.36 316.465 1966.36 321.836 Z" fill="#000000" fill-rule="nonzero" fill-opacity="1" /><path clip-path="url(#clip060)" d="M1991.92 315.493 L1991.92 301.465 L1996.18 301.465 L1996.18 337.484 L1991.92 337.484 L1991.92 333.595 Q1990.58 335.91 1988.52 337.044 Q1986.48 338.155 1983.61 338.155 Q1978.91 338.155 1975.95 334.405 Q1973.01 330.655 1973.01 324.544 Q1973.01 318.433 1975.95 314.683 Q1978.91 310.933 1983.61 310.933 Q1986.48 310.933 1988.52 312.067 Q1990.58 313.178 1991.92 315.493 M1977.41 324.544 Q1977.41 329.243 1979.33 331.928 Q1981.27 334.59 1984.65 334.59 Q1988.03 334.59 1989.97 331.928 Q1991.92 329.243 1991.92 324.544 Q1991.92 319.845 1989.97 317.183 Q1988.03 314.498 1984.65 314.498 Q1981.27 314.498 1979.33 317.183 Q1977.41 319.845 1977.41 324.544 Z" fill="#000000" fill-rule="nonzero" fill-opacity="1" /></svg>
