<?xml version="1.0" encoding="utf-8"?>
<svg xmlns="http://www.w3.org/2000/svg" xmlns:xlink="http://www.w3.org/1999/xlink" width="576" height="384" viewBox="0 0 2304 1536">
<defs>
  <clipPath id="clip000">
    <rect x="0" y="0" width="2304" height="1536"/>
  </clipPath>
</defs>
<path clip-path="url(#clip000)" d="M0 1536 L2304 1536 L2304 8.52651e-14 L0 8.52651e-14  Z" fill="#ffffff" fill-rule="evenodd" fill-opacity="1"/>
<defs>
  <clipPath id="clip001">
    <rect x="460" y="0" width="1614" height="1536"/>
  </clipPath>
</defs>
<path clip-path="url(#clip000)" d="M209.786 1359.82 L2256.76 1359.82 L2256.76 123.472 L209.786 123.472  Z" fill="#ffffff" fill-rule="evenodd" fill-opacity="1"/>
<defs>
  <clipPath id="clip002">
    <rect x="209" y="123" width="2048" height="1237"/>
  </clipPath>
</defs>
<polyline clip-path="url(#clip002)" style="stroke:#000000; stroke-linecap:round; stroke-linejoin:round; stroke-width:2; stroke-opacity:0.1; fill:none" points="572.67,1359.82 572.67,123.472 "/>
<polyline clip-path="url(#clip002)" style="stroke:#000000; stroke-linecap:round; stroke-linejoin:round; stroke-width:2; stroke-opacity:0.1; fill:none" points="1103.95,1359.82 1103.95,123.472 "/>
<polyline clip-path="url(#clip002)" style="stroke:#000000; stroke-linecap:round; stroke-linejoin:round; stroke-width:2; stroke-opacity:0.1; fill:none" points="1635.24,1359.82 1635.24,123.472 "/>
<polyline clip-path="url(#clip002)" style="stroke:#000000; stroke-linecap:round; stroke-linejoin:round; stroke-width:2; stroke-opacity:0.1; fill:none" points="2166.52,1359.82 2166.52,123.472 "/>
<polyline clip-path="url(#clip000)" style="stroke:#000000; stroke-linecap:round; stroke-linejoin:round; stroke-width:4; stroke-opacity:1; fill:none" points="209.786,1359.82 2256.76,1359.82 "/>
<polyline clip-path="url(#clip000)" style="stroke:#000000; stroke-linecap:round; stroke-linejoin:round; stroke-width:4; stroke-opacity:1; fill:none" points="572.67,1359.82 572.67,1340.92 "/>
<polyline clip-path="url(#clip000)" style="stroke:#000000; stroke-linecap:round; stroke-linejoin:round; stroke-width:4; stroke-opacity:1; fill:none" points="1103.95,1359.82 1103.95,1340.92 "/>
<polyline clip-path="url(#clip000)" style="stroke:#000000; stroke-linecap:round; stroke-linejoin:round; stroke-width:4; stroke-opacity:1; fill:none" points="1635.24,1359.82 1635.24,1340.92 "/>
<polyline clip-path="url(#clip000)" style="stroke:#000000; stroke-linecap:round; stroke-linejoin:round; stroke-width:4; stroke-opacity:1; fill:none" points="2166.52,1359.82 2166.52,1340.92 "/>
<path clip-path="url(#clip000)" d="M542.612 1404.62 L572.288 1404.62 L572.288 1408.56 L542.612 1408.56 L542.612 1404.62 Z" fill="#000000" fill-rule="nonzero" fill-opacity="1" /><path clip-path="url(#clip000)" d="M586.408 1417.52 L602.727 1417.52 L602.727 1421.45 L580.783 1421.45 L580.783 1417.52 Q583.445 1414.76 588.028 1410.13 Q592.635 1405.48 593.815 1404.14 Q596.061 1401.61 596.94 1399.88 Q597.843 1398.12 597.843 1396.43 Q597.843 1393.67 595.899 1391.94 Q593.977 1390.2 590.875 1390.2 Q588.676 1390.2 586.223 1390.97 Q583.792 1391.73 581.014 1393.28 L581.014 1388.56 Q583.838 1387.42 586.292 1386.85 Q588.746 1386.27 590.783 1386.27 Q596.153 1386.27 599.348 1388.95 Q602.542 1391.64 602.542 1396.13 Q602.542 1398.26 601.732 1400.18 Q600.945 1402.08 598.838 1404.67 Q598.26 1405.34 595.158 1408.56 Q592.056 1411.75 586.408 1417.52 Z" fill="#000000" fill-rule="nonzero" fill-opacity="1" /><path clip-path="url(#clip000)" d="M1073.71 1404.62 L1103.39 1404.62 L1103.39 1408.56 L1073.71 1408.56 L1073.71 1404.62 Z" fill="#000000" fill-rule="nonzero" fill-opacity="1" /><path clip-path="url(#clip000)" d="M1114.29 1417.52 L1121.93 1417.52 L1121.93 1391.15 L1113.62 1392.82 L1113.62 1388.56 L1121.88 1386.89 L1126.56 1386.89 L1126.56 1417.52 L1134.2 1417.52 L1134.2 1421.45 L1114.29 1421.45 L1114.29 1417.52 Z" fill="#000000" fill-rule="nonzero" fill-opacity="1" /><path clip-path="url(#clip000)" d="M1635.24 1389.97 Q1631.63 1389.97 1629.8 1393.54 Q1627.99 1397.08 1627.99 1404.21 Q1627.99 1411.31 1629.8 1414.88 Q1631.63 1418.42 1635.24 1418.42 Q1638.87 1418.42 1640.68 1414.88 Q1642.51 1411.31 1642.51 1404.21 Q1642.51 1397.08 1640.68 1393.54 Q1638.87 1389.97 1635.24 1389.97 M1635.24 1386.27 Q1641.05 1386.27 1644.11 1390.87 Q1647.18 1395.46 1647.18 1404.21 Q1647.18 1412.93 1644.11 1417.54 Q1641.05 1422.12 1635.24 1422.12 Q1629.43 1422.12 1626.35 1417.54 Q1623.3 1412.93 1623.3 1404.21 Q1623.3 1395.46 1626.35 1390.87 Q1629.43 1386.27 1635.24 1386.27 Z" fill="#000000" fill-rule="nonzero" fill-opacity="1" /><path clip-path="url(#clip000)" d="M2156.91 1417.52 L2164.55 1417.52 L2164.55 1391.15 L2156.24 1392.82 L2156.24 1388.56 L2164.5 1386.89 L2169.18 1386.89 L2169.18 1417.52 L2176.81 1417.52 L2176.81 1421.45 L2156.91 1421.45 L2156.91 1417.52 Z" fill="#000000" fill-rule="nonzero" fill-opacity="1" /><path clip-path="url(#clip000)" d="M1215.1 1455.72 L1222 1455.72 L1233.81 1473.39 L1245.68 1455.72 L1252.59 1455.72 L1237.31 1478.54 L1253.61 1503.24 L1246.7 1503.24 L1233.33 1483.03 L1219.87 1503.24 L1212.93 1503.24 L1229.9 1477.88 L1215.1 1455.72 Z" fill="#000000" fill-rule="nonzero" fill-opacity="1" /><polyline clip-path="url(#clip002)" style="stroke:#000000; stroke-linecap:round; stroke-linejoin:round; stroke-width:2; stroke-opacity:0.1; fill:none" points="209.786,1279.23 2256.76,1279.23 "/>
<polyline clip-path="url(#clip002)" style="stroke:#000000; stroke-linecap:round; stroke-linejoin:round; stroke-width:2; stroke-opacity:0.1; fill:none" points="209.786,947.435 2256.76,947.435 "/>
<polyline clip-path="url(#clip002)" style="stroke:#000000; stroke-linecap:round; stroke-linejoin:round; stroke-width:2; stroke-opacity:0.1; fill:none" points="209.786,615.638 2256.76,615.638 "/>
<polyline clip-path="url(#clip002)" style="stroke:#000000; stroke-linecap:round; stroke-linejoin:round; stroke-width:2; stroke-opacity:0.1; fill:none" points="209.786,283.841 2256.76,283.841 "/>
<polyline clip-path="url(#clip000)" style="stroke:#000000; stroke-linecap:round; stroke-linejoin:round; stroke-width:4; stroke-opacity:1; fill:none" points="209.786,1359.82 209.786,123.472 "/>
<polyline clip-path="url(#clip000)" style="stroke:#000000; stroke-linecap:round; stroke-linejoin:round; stroke-width:4; stroke-opacity:1; fill:none" points="209.786,1279.23 228.684,1279.23 "/>
<polyline clip-path="url(#clip000)" style="stroke:#000000; stroke-linecap:round; stroke-linejoin:round; stroke-width:4; stroke-opacity:1; fill:none" points="209.786,947.435 228.684,947.435 "/>
<polyline clip-path="url(#clip000)" style="stroke:#000000; stroke-linecap:round; stroke-linejoin:round; stroke-width:4; stroke-opacity:1; fill:none" points="209.786,615.638 228.684,615.638 "/>
<polyline clip-path="url(#clip000)" style="stroke:#000000; stroke-linecap:round; stroke-linejoin:round; stroke-width:4; stroke-opacity:1; fill:none" points="209.786,283.841 228.684,283.841 "/>
<path clip-path="url(#clip000)" d="M115.111 1279.68 L144.786 1279.68 L144.786 1283.62 L115.111 1283.62 L115.111 1279.68 Z" fill="#000000" fill-rule="nonzero" fill-opacity="1" /><path clip-path="url(#clip000)" d="M158.907 1292.58 L175.226 1292.58 L175.226 1296.51 L153.282 1296.51 L153.282 1292.58 Q155.944 1289.82 160.527 1285.19 Q165.133 1280.54 166.314 1279.2 Q168.559 1276.67 169.439 1274.94 Q170.342 1273.18 170.342 1271.49 Q170.342 1268.73 168.397 1267 Q166.476 1265.26 163.374 1265.26 Q161.175 1265.26 158.721 1266.03 Q156.291 1266.79 153.513 1268.34 L153.513 1263.62 Q156.337 1262.48 158.791 1261.91 Q161.245 1261.33 163.282 1261.33 Q168.652 1261.33 171.846 1264.01 Q175.041 1266.7 175.041 1271.19 Q175.041 1273.32 174.231 1275.24 Q173.444 1277.14 171.337 1279.73 Q170.758 1280.4 167.657 1283.62 Q164.555 1286.81 158.907 1292.58 Z" fill="#000000" fill-rule="nonzero" fill-opacity="1" /><path clip-path="url(#clip000)" d="M114.74 947.887 L144.416 947.887 L144.416 951.822 L114.74 951.822 L114.74 947.887 Z" fill="#000000" fill-rule="nonzero" fill-opacity="1" /><path clip-path="url(#clip000)" d="M155.319 960.78 L162.957 960.78 L162.957 934.415 L154.647 936.081 L154.647 931.822 L162.911 930.155 L167.587 930.155 L167.587 960.78 L175.226 960.78 L175.226 964.715 L155.319 964.715 L155.319 960.78 Z" fill="#000000" fill-rule="nonzero" fill-opacity="1" /><path clip-path="url(#clip000)" d="M163.282 601.437 Q159.67 601.437 157.842 605.002 Q156.036 608.543 156.036 615.673 Q156.036 622.779 157.842 626.344 Q159.67 629.886 163.282 629.886 Q166.916 629.886 168.721 626.344 Q170.55 622.779 170.55 615.673 Q170.55 608.543 168.721 605.002 Q166.916 601.437 163.282 601.437 M163.282 597.733 Q169.092 597.733 172.147 602.34 Q175.226 606.923 175.226 615.673 Q175.226 624.4 172.147 629.006 Q169.092 633.59 163.282 633.59 Q157.471 633.59 154.393 629.006 Q151.337 624.4 151.337 615.673 Q151.337 606.923 154.393 602.34 Q157.471 597.733 163.282 597.733 Z" fill="#000000" fill-rule="nonzero" fill-opacity="1" /><path clip-path="url(#clip000)" d="M155.319 297.186 L162.957 297.186 L162.957 270.82 L154.647 272.487 L154.647 268.228 L162.911 266.561 L167.587 266.561 L167.587 297.186 L175.226 297.186 L175.226 301.121 L155.319 301.121 L155.319 297.186 Z" fill="#000000" fill-rule="nonzero" fill-opacity="1" /><path clip-path="url(#clip000)" d="M18.4042 761.682 L18.4042 754.775 L37.9469 741.598 L18.4042 728.517 L18.4042 721.61 L43.2941 738.415 L65.9242 738.415 L65.9242 744.877 L43.2941 744.877 L18.4042 761.682 Z" fill="#000000" fill-rule="nonzero" fill-opacity="1" /><path clip-path="url(#clip000)" d="M859.676 65.6895 L888.235 65.6895 L888.235 72.576 L849.833 72.576 L849.833 65.6895 Q854.491 60.8689 862.512 52.7671 Q870.573 44.6248 872.639 42.2752 Q876.569 37.8598 878.108 34.8216 Q879.688 31.7429 879.688 28.7857 Q879.688 23.9651 876.285 20.927 Q872.923 17.8888 867.495 17.8888 Q863.646 17.8888 859.352 19.2256 Q855.099 20.5624 850.238 23.2765 L850.238 15.0127 Q855.18 13.0277 859.474 12.015 Q863.768 11.0023 867.332 11.0023 Q876.731 11.0023 882.321 15.7013 Q887.911 20.4004 887.911 28.2591 Q887.911 31.9859 886.493 35.3482 Q885.116 38.6699 881.43 43.2069 Q880.417 44.3817 874.989 50.0125 Q869.56 55.6027 859.676 65.6895 Z" fill="#000000" fill-rule="nonzero" fill-opacity="1" /><path clip-path="url(#clip000)" d="M912.865 18.8205 L912.865 65.8515 L922.749 65.8515 Q935.266 65.8515 941.059 60.1802 Q946.892 54.509 946.892 42.2752 Q946.892 30.1225 941.059 24.4918 Q935.266 18.8205 922.749 18.8205 L912.865 18.8205 M904.682 12.096 L921.493 12.096 Q939.074 12.096 947.297 19.4281 Q955.521 26.7198 955.521 42.2752 Q955.521 57.9117 947.257 65.2439 Q938.993 72.576 921.493 72.576 L904.682 72.576 L904.682 12.096 Z" fill="#000000" fill-rule="nonzero" fill-opacity="1" /><path clip-path="url(#clip000)" d="M991.452 12.096 L1038.97 12.096 L1038.97 18.3344 L1000.73 65.6895 L1039.9 65.6895 L1039.9 72.576 L990.52 72.576 L990.52 66.3376 L1028.76 18.9825 L991.452 18.9825 L991.452 12.096 Z" fill="#000000" fill-rule="nonzero" fill-opacity="1" /><path clip-path="url(#clip000)" d="M1051.45 27.2059 L1058.9 27.2059 L1058.9 72.576 L1051.45 72.576 L1051.45 27.2059 M1051.45 9.54393 L1058.9 9.54393 L1058.9 18.9825 L1051.45 18.9825 L1051.45 9.54393 Z" fill="#000000" fill-rule="nonzero" fill-opacity="1" /><path clip-path="url(#clip000)" d="M1104.35 49.3643 Q1104.35 41.2625 1100.99 36.8065 Q1097.67 32.3505 1091.63 32.3505 Q1085.64 32.3505 1082.27 36.8065 Q1078.95 41.2625 1078.95 49.3643 Q1078.95 57.4256 1082.27 61.8816 Q1085.64 66.3376 1091.63 66.3376 Q1097.67 66.3376 1100.99 61.8816 Q1104.35 57.4256 1104.35 49.3643 M1111.8 66.9452 Q1111.8 78.5308 1106.66 84.1616 Q1101.52 89.8329 1090.9 89.8329 Q1086.97 89.8329 1083.49 89.2252 Q1080 88.6581 1076.72 87.4428 L1076.72 80.1917 Q1080 81.9741 1083.21 82.8248 Q1086.41 83.6755 1089.73 83.6755 Q1097.06 83.6755 1100.71 79.8271 Q1104.35 76.0193 1104.35 68.282 L1104.35 64.5957 Q1102.04 68.6061 1098.44 70.5911 Q1094.83 72.576 1089.81 72.576 Q1081.46 72.576 1076.36 66.2161 Q1071.26 59.8562 1071.26 49.3643 Q1071.26 38.832 1076.36 32.472 Q1081.46 26.1121 1089.81 26.1121 Q1094.83 26.1121 1098.44 28.0971 Q1102.04 30.082 1104.35 34.0924 L1104.35 27.2059 L1111.8 27.2059 L1111.8 66.9452 Z" fill="#000000" fill-rule="nonzero" fill-opacity="1" /><path clip-path="url(#clip000)" d="M1124 12.096 L1171.51 12.096 L1171.51 18.3344 L1133.27 65.6895 L1172.45 65.6895 L1172.45 72.576 L1123.07 72.576 L1123.07 66.3376 L1161.31 18.9825 L1124 18.9825 L1124 12.096 Z" fill="#000000" fill-rule="nonzero" fill-opacity="1" /><path clip-path="url(#clip000)" d="M1204.61 49.7694 Q1195.58 49.7694 1192.09 51.8354 Q1188.61 53.9013 1188.61 58.8839 Q1188.61 62.8538 1191.2 65.2034 Q1193.84 67.5124 1198.33 67.5124 Q1204.53 67.5124 1208.26 63.1374 Q1212.02 58.7219 1212.02 51.4303 L1212.02 49.7694 L1204.61 49.7694 M1219.48 46.6907 L1219.48 72.576 L1212.02 72.576 L1212.02 65.6895 Q1209.47 69.8214 1205.66 71.8063 Q1201.86 73.7508 1196.35 73.7508 Q1189.38 73.7508 1185.25 69.8619 Q1181.16 65.9325 1181.16 59.3701 Q1181.16 51.7138 1186.26 47.825 Q1191.4 43.9361 1201.57 43.9361 L1212.02 43.9361 L1212.02 43.2069 Q1212.02 38.0623 1208.62 35.2672 Q1205.26 32.4315 1199.14 32.4315 Q1195.25 32.4315 1191.57 33.3632 Q1187.88 34.295 1184.48 36.1584 L1184.48 29.2718 Q1188.57 27.692 1192.42 26.9223 Q1196.27 26.1121 1199.91 26.1121 Q1209.76 26.1121 1214.62 31.2163 Q1219.48 36.3204 1219.48 46.6907 Z" fill="#000000" fill-rule="nonzero" fill-opacity="1" /><path clip-path="url(#clip000)" d="M1264.69 49.3643 Q1264.69 41.2625 1261.32 36.8065 Q1258 32.3505 1251.97 32.3505 Q1245.97 32.3505 1242.61 36.8065 Q1239.29 41.2625 1239.29 49.3643 Q1239.29 57.4256 1242.61 61.8816 Q1245.97 66.3376 1251.97 66.3376 Q1258 66.3376 1261.32 61.8816 Q1264.69 57.4256 1264.69 49.3643 M1272.14 66.9452 Q1272.14 78.5308 1266.99 84.1616 Q1261.85 89.8329 1251.24 89.8329 Q1247.31 89.8329 1243.82 89.2252 Q1240.34 88.6581 1237.06 87.4428 L1237.06 80.1917 Q1240.34 81.9741 1243.54 82.8248 Q1246.74 83.6755 1250.06 83.6755 Q1257.39 83.6755 1261.04 79.8271 Q1264.69 76.0193 1264.69 68.282 L1264.69 64.5957 Q1262.38 68.6061 1258.77 70.5911 Q1255.17 72.576 1250.14 72.576 Q1241.8 72.576 1236.69 66.2161 Q1231.59 59.8562 1231.59 49.3643 Q1231.59 38.832 1236.69 32.472 Q1241.8 26.1121 1250.14 26.1121 Q1255.17 26.1121 1258.77 28.0971 Q1262.38 30.082 1264.69 34.0924 L1264.69 27.2059 L1272.14 27.2059 L1272.14 66.9452 Z" fill="#000000" fill-rule="nonzero" fill-opacity="1" /><path clip-path="url(#clip000)" d="M1322.37 18.8205 L1322.37 41.5461 L1332.66 41.5461 Q1338.37 41.5461 1341.49 38.5889 Q1344.61 35.6318 1344.61 30.163 Q1344.61 24.7348 1341.49 21.7777 Q1338.37 18.8205 1332.66 18.8205 L1322.37 18.8205 M1314.19 12.096 L1332.66 12.096 Q1342.83 12.096 1348.01 16.714 Q1353.24 21.2916 1353.24 30.163 Q1353.24 39.1155 1348.01 43.6931 Q1342.83 48.2706 1332.66 48.2706 L1322.37 48.2706 L1322.37 72.576 L1314.19 72.576 L1314.19 12.096 Z" fill="#000000" fill-rule="nonzero" fill-opacity="1" /><path clip-path="url(#clip000)" d="M1388.72 34.1734 Q1387.47 33.4443 1385.97 33.1202 Q1384.51 32.7556 1382.73 32.7556 Q1376.41 32.7556 1373.01 36.8875 Q1369.64 40.9789 1369.64 48.6757 L1369.64 72.576 L1362.15 72.576 L1362.15 27.2059 L1369.64 27.2059 L1369.64 34.2544 Q1371.99 30.1225 1375.76 28.1376 Q1379.53 26.1121 1384.92 26.1121 Q1385.69 26.1121 1386.62 26.2337 Q1387.55 26.3147 1388.68 26.5172 L1388.72 34.1734 Z" fill="#000000" fill-rule="nonzero" fill-opacity="1" /><path clip-path="url(#clip000)" d="M1412.3 32.4315 Q1406.31 32.4315 1402.82 37.1306 Q1399.34 41.7891 1399.34 49.9314 Q1399.34 58.0738 1402.78 62.7728 Q1406.26 67.4314 1412.3 67.4314 Q1418.26 67.4314 1421.74 62.7323 Q1425.22 58.0333 1425.22 49.9314 Q1425.22 41.8701 1421.74 37.1711 Q1418.26 32.4315 1412.3 32.4315 M1412.3 26.1121 Q1422.02 26.1121 1427.57 32.4315 Q1433.12 38.7509 1433.12 49.9314 Q1433.12 61.0714 1427.57 67.4314 Q1422.02 73.7508 1412.3 73.7508 Q1402.54 73.7508 1396.99 67.4314 Q1391.48 61.0714 1391.48 49.9314 Q1391.48 38.7509 1396.99 32.4315 Q1402.54 26.1121 1412.3 26.1121 Z" fill="#000000" fill-rule="nonzero" fill-opacity="1" /><path clip-path="url(#clip000)" d="M1478.13 28.9478 L1478.13 35.9153 Q1474.97 34.1734 1471.77 33.3227 Q1468.61 32.4315 1465.37 32.4315 Q1458.12 32.4315 1454.11 37.0496 Q1450.1 41.6271 1450.1 49.9314 Q1450.1 58.2358 1454.11 62.8538 Q1458.12 67.4314 1465.37 67.4314 Q1468.61 67.4314 1471.77 66.5807 Q1474.97 65.6895 1478.13 63.9476 L1478.13 70.8341 Q1475.01 72.2924 1471.65 73.0216 Q1468.32 73.7508 1464.56 73.7508 Q1454.31 73.7508 1448.27 67.3098 Q1442.24 60.8689 1442.24 49.9314 Q1442.24 38.832 1448.31 32.472 Q1454.43 26.1121 1465.04 26.1121 Q1468.49 26.1121 1471.77 26.8413 Q1475.05 27.5299 1478.13 28.9478 Z" fill="#000000" fill-rule="nonzero" fill-opacity="1" /><path clip-path="url(#clip000)" d="M1529.9 48.0275 L1529.9 51.6733 L1495.63 51.6733 Q1496.11 59.3701 1500.25 63.421 Q1504.42 67.4314 1511.83 67.4314 Q1516.13 67.4314 1520.14 66.3781 Q1524.19 65.3249 1528.16 63.2184 L1528.16 70.267 Q1524.15 71.9684 1519.93 72.8596 Q1515.72 73.7508 1511.39 73.7508 Q1500.53 73.7508 1494.17 67.4314 Q1487.85 61.1119 1487.85 50.3365 Q1487.85 39.1965 1493.85 32.6746 Q1499.88 26.1121 1510.09 26.1121 Q1519.24 26.1121 1524.55 32.0264 Q1529.9 37.9003 1529.9 48.0275 M1522.44 45.84 Q1522.36 39.7232 1519 36.0774 Q1515.68 32.4315 1510.17 32.4315 Q1503.93 32.4315 1500.16 35.9558 Q1496.44 39.4801 1495.87 45.8805 L1522.44 45.84 Z" fill="#000000" fill-rule="nonzero" fill-opacity="1" /><path clip-path="url(#clip000)" d="M1571.06 28.5427 L1571.06 35.5912 Q1567.9 33.9709 1564.49 33.1607 Q1561.09 32.3505 1557.44 32.3505 Q1551.89 32.3505 1549.1 34.0519 Q1546.35 35.7533 1546.35 39.156 Q1546.35 41.7486 1548.33 43.2475 Q1550.31 44.7058 1556.31 46.0426 L1558.86 46.6097 Q1566.8 48.3111 1570.12 51.4303 Q1573.49 54.509 1573.49 60.0587 Q1573.49 66.3781 1568.46 70.0644 Q1563.48 73.7508 1554.73 73.7508 Q1551.08 73.7508 1547.11 73.0216 Q1543.19 72.3329 1538.81 70.9151 L1538.81 63.2184 Q1542.94 65.3654 1546.95 66.4591 Q1550.96 67.5124 1554.89 67.5124 Q1560.16 67.5124 1562.99 65.73 Q1565.83 63.9071 1565.83 60.6258 Q1565.83 57.5877 1563.76 55.9673 Q1561.74 54.3469 1554.81 52.8481 L1552.22 52.2405 Q1545.29 50.7821 1542.21 47.7845 Q1539.13 44.7463 1539.13 39.4801 Q1539.13 33.0797 1543.67 29.5959 Q1548.21 26.1121 1556.55 26.1121 Q1560.69 26.1121 1564.33 26.7198 Q1567.98 27.3274 1571.06 28.5427 Z" fill="#000000" fill-rule="nonzero" fill-opacity="1" /><path clip-path="url(#clip000)" d="M1614.28 28.5427 L1614.28 35.5912 Q1611.12 33.9709 1607.72 33.1607 Q1604.31 32.3505 1600.67 32.3505 Q1595.12 32.3505 1592.32 34.0519 Q1589.57 35.7533 1589.57 39.156 Q1589.57 41.7486 1591.55 43.2475 Q1593.54 44.7058 1599.53 46.0426 L1602.09 46.6097 Q1610.03 48.3111 1613.35 51.4303 Q1616.71 54.509 1616.71 60.0587 Q1616.71 66.3781 1611.69 70.0644 Q1606.7 73.7508 1597.95 73.7508 Q1594.31 73.7508 1590.34 73.0216 Q1586.41 72.3329 1582.03 70.9151 L1582.03 63.2184 Q1586.17 65.3654 1590.18 66.4591 Q1594.19 67.5124 1598.12 67.5124 Q1603.38 67.5124 1606.22 65.73 Q1609.05 63.9071 1609.05 60.6258 Q1609.05 57.5877 1606.99 55.9673 Q1604.96 54.3469 1598.03 52.8481 L1595.44 52.2405 Q1588.51 50.7821 1585.44 47.7845 Q1582.36 44.7463 1582.36 39.4801 Q1582.36 33.0797 1586.89 29.5959 Q1591.43 26.1121 1599.78 26.1121 Q1603.91 26.1121 1607.55 26.7198 Q1611.2 27.3274 1614.28 28.5427 Z" fill="#000000" fill-rule="nonzero" fill-opacity="1" /><polyline clip-path="url(#clip002)" style="stroke:#009af9; stroke-linecap:round; stroke-linejoin:round; stroke-width:8; stroke-opacity:1; fill:none" points="1651.25,541.305 1598.12,574.485 1544.99,607.665 1491.86,640.845 1438.74,674.024 1385.61,707.204 1332.48,740.384 1279.35,773.563 1226.22,806.743 1173.09,839.923 1119.96,873.102 1066.84,906.282 1013.71,939.462 960.579,972.642 907.45,1005.82 854.322,1039 801.193,1072.18 748.065,1105.36 694.936,1138.54 733.43,1171.72 786.558,1204.9 839.687,1238.08 892.815,1271.26 945.944,1304.44 999.072,1324.83 1052.2,1291.65 1105.33,1258.47 1158.46,1225.29 1211.59,1192.11 1264.71,1158.93 1317.84,1125.75 1370.97,1092.57 1424.1,1059.39 1477.23,1026.21 1530.36,993.032 1583.49,959.852 1636.61,926.672 1689.74,893.493 1742.87,860.313 1796,827.133 1849.13,793.954 1866.96,760.774 1813.83,727.594 1760.7,694.414 1707.57,661.235 1654.44,628.055 1601.31,594.875 1548.19,561.696 1495.06,528.516 1441.93,495.336 1388.8,516.062 1421.78,549.242 1474.91,582.422 1528.04,615.602 1581.16,648.781 1634.29,681.961 1687.42,715.141 1740.55,748.32 1793.68,781.5 1831.32,814.68 1778.19,847.86 1725.06,881.039 1671.93,914.219 1618.8,947.399 1565.67,980.578 1512.54,1013.76 1459.42,1046.94 1406.29,1032.61 1353.16,999.431 1300.03,966.251 1246.9,933.071 1193.77,899.892 1140.64,866.712 1087.52,833.532 1034.39,800.352 981.259,767.173 928.131,733.993 875.002,700.813 821.874,667.634 768.745,634.454 715.616,601.274 662.488,568.095 609.359,534.915 556.231,505.874 503.102,539.054 449.974,572.233 396.845,605.413 343.717,638.593 290.588,671.772 267.719,704.952 320.848,738.132 373.976,771.312 427.105,804.491 480.233,837.671 533.362,870.851 586.49,904.03 639.619,937.21 692.747,970.39 745.876,1003.57 799.004,1036.75 852.133,1021.14 905.261,987.956 958.39,954.776 1011.52,921.596 1064.65,888.417 1117.78,855.237 1170.9,822.057 1224.03,788.878 1277.16,755.698 1330.29,722.518 1383.42,689.338 1436.55,656.159 1489.67,622.979 1542.8,589.799 1595.93,556.62 1649.06,523.44 1702.19,490.26 1755.32,457.08 1808.45,423.901 1861.57,390.721 1914.7,357.541 1902.63,324.362 1849.5,291.182 1796.37,258.002 1743.24,224.823 1690.11,191.643 1636.98,158.463 1583.86,184.048 1530.73,217.227 1477.6,250.407 1424.47,283.587 1371.34,316.766 1321.2,349.946 1374.33,383.126 1427.46,416.305 1480.59,449.485 1533.72,482.665 1586.85,515.845 1639.97,549.024 1693.1,582.204 1746.23,615.384 1799.36,648.563 1852.49,681.743 1905.62,714.923 1958.74,748.103 2011.87,781.282 2065,814.462 2118.13,847.642 2171.26,880.821 2198.82,914.001 2145.69,947.181 2092.57,980.361 2039.44,1013.54 1986.31,1046.72 1933.18,1079.9 1880.05,1113.08 1826.92,1127.7 1773.79,1094.52 1720.67,1061.34 1667.54,1028.16 1614.41,994.978 1561.28,961.798 1508.15,928.618 1455.02,895.439 1401.9,862.259 1348.77,829.079 1295.64,795.899 1242.51,762.72 1207.88,729.54 1261.01,696.36 1314.14,663.181 1367.27,630.001 1420.4,596.821 1473.53,563.642 1526.65,530.462 1579.78,497.282 1632.91,464.102 1686.04,430.923 1739.17,397.743 1792.3,414.512 1845.43,447.692 1898.55,480.872 1951.68,514.051 2004.81,547.231 2057.94,580.411 2111.07,613.59 2108.42,646.322 2055.29,613.142 2002.17,579.962 1949.04,546.783 1895.91,513.603 1842.78,480.423 1789.65,447.244 1736.52,414.064 1683.39,380.884 1630.27,347.704 1577.14,314.525 1524.01,315.142 1470.88,348.322 1417.75,381.501 1364.62,414.681 1311.49,447.861 1258.37,481.04 1205.24,514.22 1152.11,547.4 1098.98,580.58 1045.85,613.759 992.724,646.939 939.595,680.119 886.467,713.298 833.338,746.478 "/>
<circle clip-path="url(#clip002)" cx="1651.25" cy="541.305" r="7.2" fill="#009af9" fill-rule="evenodd" fill-opacity="0.6" stroke="#000000" stroke-opacity="0.6" stroke-width="3.072"/>
<circle clip-path="url(#clip002)" cx="1598.12" cy="574.485" r="7.2" fill="#009af9" fill-rule="evenodd" fill-opacity="0.6" stroke="#000000" stroke-opacity="0.6" stroke-width="3.072"/>
<circle clip-path="url(#clip002)" cx="1544.99" cy="607.665" r="7.2" fill="#009af9" fill-rule="evenodd" fill-opacity="0.6" stroke="#000000" stroke-opacity="0.6" stroke-width="3.072"/>
<circle clip-path="url(#clip002)" cx="1491.86" cy="640.845" r="7.2" fill="#009af9" fill-rule="evenodd" fill-opacity="0.6" stroke="#000000" stroke-opacity="0.6" stroke-width="3.072"/>
<circle clip-path="url(#clip002)" cx="1438.74" cy="674.024" r="7.2" fill="#009af9" fill-rule="evenodd" fill-opacity="0.6" stroke="#000000" stroke-opacity="0.6" stroke-width="3.072"/>
<circle clip-path="url(#clip002)" cx="1385.61" cy="707.204" r="7.2" fill="#009af9" fill-rule="evenodd" fill-opacity="0.6" stroke="#000000" stroke-opacity="0.6" stroke-width="3.072"/>
<circle clip-path="url(#clip002)" cx="1332.48" cy="740.384" r="7.2" fill="#009af9" fill-rule="evenodd" fill-opacity="0.6" stroke="#000000" stroke-opacity="0.6" stroke-width="3.072"/>
<circle clip-path="url(#clip002)" cx="1279.35" cy="773.563" r="7.2" fill="#009af9" fill-rule="evenodd" fill-opacity="0.6" stroke="#000000" stroke-opacity="0.6" stroke-width="3.072"/>
<circle clip-path="url(#clip002)" cx="1226.22" cy="806.743" r="7.2" fill="#009af9" fill-rule="evenodd" fill-opacity="0.6" stroke="#000000" stroke-opacity="0.6" stroke-width="3.072"/>
<circle clip-path="url(#clip002)" cx="1173.09" cy="839.923" r="7.2" fill="#009af9" fill-rule="evenodd" fill-opacity="0.6" stroke="#000000" stroke-opacity="0.6" stroke-width="3.072"/>
<circle clip-path="url(#clip002)" cx="1119.96" cy="873.102" r="7.2" fill="#009af9" fill-rule="evenodd" fill-opacity="0.6" stroke="#000000" stroke-opacity="0.6" stroke-width="3.072"/>
<circle clip-path="url(#clip002)" cx="1066.84" cy="906.282" r="7.2" fill="#009af9" fill-rule="evenodd" fill-opacity="0.6" stroke="#000000" stroke-opacity="0.6" stroke-width="3.072"/>
<circle clip-path="url(#clip002)" cx="1013.71" cy="939.462" r="7.2" fill="#009af9" fill-rule="evenodd" fill-opacity="0.6" stroke="#000000" stroke-opacity="0.6" stroke-width="3.072"/>
<circle clip-path="url(#clip002)" cx="960.579" cy="972.642" r="7.2" fill="#009af9" fill-rule="evenodd" fill-opacity="0.6" stroke="#000000" stroke-opacity="0.6" stroke-width="3.072"/>
<circle clip-path="url(#clip002)" cx="907.45" cy="1005.82" r="7.2" fill="#009af9" fill-rule="evenodd" fill-opacity="0.6" stroke="#000000" stroke-opacity="0.6" stroke-width="3.072"/>
<circle clip-path="url(#clip002)" cx="854.322" cy="1039" r="7.2" fill="#009af9" fill-rule="evenodd" fill-opacity="0.6" stroke="#000000" stroke-opacity="0.6" stroke-width="3.072"/>
<circle clip-path="url(#clip002)" cx="801.193" cy="1072.18" r="7.2" fill="#009af9" fill-rule="evenodd" fill-opacity="0.6" stroke="#000000" stroke-opacity="0.6" stroke-width="3.072"/>
<circle clip-path="url(#clip002)" cx="748.065" cy="1105.36" r="7.2" fill="#009af9" fill-rule="evenodd" fill-opacity="0.6" stroke="#000000" stroke-opacity="0.6" stroke-width="3.072"/>
<circle clip-path="url(#clip002)" cx="694.936" cy="1138.54" r="7.2" fill="#009af9" fill-rule="evenodd" fill-opacity="0.6" stroke="#000000" stroke-opacity="0.6" stroke-width="3.072"/>
<circle clip-path="url(#clip002)" cx="733.43" cy="1171.72" r="7.2" fill="#009af9" fill-rule="evenodd" fill-opacity="0.6" stroke="#000000" stroke-opacity="0.6" stroke-width="3.072"/>
<circle clip-path="url(#clip002)" cx="786.558" cy="1204.9" r="7.2" fill="#009af9" fill-rule="evenodd" fill-opacity="0.6" stroke="#000000" stroke-opacity="0.6" stroke-width="3.072"/>
<circle clip-path="url(#clip002)" cx="839.687" cy="1238.08" r="7.2" fill="#009af9" fill-rule="evenodd" fill-opacity="0.6" stroke="#000000" stroke-opacity="0.6" stroke-width="3.072"/>
<circle clip-path="url(#clip002)" cx="892.815" cy="1271.26" r="7.2" fill="#009af9" fill-rule="evenodd" fill-opacity="0.6" stroke="#000000" stroke-opacity="0.6" stroke-width="3.072"/>
<circle clip-path="url(#clip002)" cx="945.944" cy="1304.44" r="7.2" fill="#009af9" fill-rule="evenodd" fill-opacity="0.6" stroke="#000000" stroke-opacity="0.6" stroke-width="3.072"/>
<circle clip-path="url(#clip002)" cx="999.072" cy="1324.83" r="7.2" fill="#009af9" fill-rule="evenodd" fill-opacity="0.6" stroke="#000000" stroke-opacity="0.6" stroke-width="3.072"/>
<circle clip-path="url(#clip002)" cx="1052.2" cy="1291.65" r="7.2" fill="#009af9" fill-rule="evenodd" fill-opacity="0.6" stroke="#000000" stroke-opacity="0.6" stroke-width="3.072"/>
<circle clip-path="url(#clip002)" cx="1105.33" cy="1258.47" r="7.2" fill="#009af9" fill-rule="evenodd" fill-opacity="0.6" stroke="#000000" stroke-opacity="0.6" stroke-width="3.072"/>
<circle clip-path="url(#clip002)" cx="1158.46" cy="1225.29" r="7.2" fill="#009af9" fill-rule="evenodd" fill-opacity="0.6" stroke="#000000" stroke-opacity="0.6" stroke-width="3.072"/>
<circle clip-path="url(#clip002)" cx="1211.59" cy="1192.11" r="7.2" fill="#009af9" fill-rule="evenodd" fill-opacity="0.6" stroke="#000000" stroke-opacity="0.6" stroke-width="3.072"/>
<circle clip-path="url(#clip002)" cx="1264.71" cy="1158.93" r="7.2" fill="#009af9" fill-rule="evenodd" fill-opacity="0.6" stroke="#000000" stroke-opacity="0.6" stroke-width="3.072"/>
<circle clip-path="url(#clip002)" cx="1317.84" cy="1125.75" r="7.2" fill="#009af9" fill-rule="evenodd" fill-opacity="0.6" stroke="#000000" stroke-opacity="0.6" stroke-width="3.072"/>
<circle clip-path="url(#clip002)" cx="1370.97" cy="1092.57" r="7.2" fill="#009af9" fill-rule="evenodd" fill-opacity="0.6" stroke="#000000" stroke-opacity="0.6" stroke-width="3.072"/>
<circle clip-path="url(#clip002)" cx="1424.1" cy="1059.39" r="7.2" fill="#009af9" fill-rule="evenodd" fill-opacity="0.6" stroke="#000000" stroke-opacity="0.6" stroke-width="3.072"/>
<circle clip-path="url(#clip002)" cx="1477.23" cy="1026.21" r="7.2" fill="#009af9" fill-rule="evenodd" fill-opacity="0.6" stroke="#000000" stroke-opacity="0.6" stroke-width="3.072"/>
<circle clip-path="url(#clip002)" cx="1530.36" cy="993.032" r="7.2" fill="#009af9" fill-rule="evenodd" fill-opacity="0.6" stroke="#000000" stroke-opacity="0.6" stroke-width="3.072"/>
<circle clip-path="url(#clip002)" cx="1583.49" cy="959.852" r="7.2" fill="#009af9" fill-rule="evenodd" fill-opacity="0.6" stroke="#000000" stroke-opacity="0.6" stroke-width="3.072"/>
<circle clip-path="url(#clip002)" cx="1636.61" cy="926.672" r="7.2" fill="#009af9" fill-rule="evenodd" fill-opacity="0.6" stroke="#000000" stroke-opacity="0.6" stroke-width="3.072"/>
<circle clip-path="url(#clip002)" cx="1689.74" cy="893.493" r="7.2" fill="#009af9" fill-rule="evenodd" fill-opacity="0.6" stroke="#000000" stroke-opacity="0.6" stroke-width="3.072"/>
<circle clip-path="url(#clip002)" cx="1742.87" cy="860.313" r="7.2" fill="#009af9" fill-rule="evenodd" fill-opacity="0.6" stroke="#000000" stroke-opacity="0.6" stroke-width="3.072"/>
<circle clip-path="url(#clip002)" cx="1796" cy="827.133" r="7.2" fill="#009af9" fill-rule="evenodd" fill-opacity="0.6" stroke="#000000" stroke-opacity="0.6" stroke-width="3.072"/>
<circle clip-path="url(#clip002)" cx="1849.13" cy="793.954" r="7.2" fill="#009af9" fill-rule="evenodd" fill-opacity="0.6" stroke="#000000" stroke-opacity="0.6" stroke-width="3.072"/>
<circle clip-path="url(#clip002)" cx="1866.96" cy="760.774" r="7.2" fill="#009af9" fill-rule="evenodd" fill-opacity="0.6" stroke="#000000" stroke-opacity="0.6" stroke-width="3.072"/>
<circle clip-path="url(#clip002)" cx="1813.83" cy="727.594" r="7.2" fill="#009af9" fill-rule="evenodd" fill-opacity="0.6" stroke="#000000" stroke-opacity="0.6" stroke-width="3.072"/>
<circle clip-path="url(#clip002)" cx="1760.7" cy="694.414" r="7.2" fill="#009af9" fill-rule="evenodd" fill-opacity="0.6" stroke="#000000" stroke-opacity="0.6" stroke-width="3.072"/>
<circle clip-path="url(#clip002)" cx="1707.57" cy="661.235" r="7.2" fill="#009af9" fill-rule="evenodd" fill-opacity="0.6" stroke="#000000" stroke-opacity="0.6" stroke-width="3.072"/>
<circle clip-path="url(#clip002)" cx="1654.44" cy="628.055" r="7.2" fill="#009af9" fill-rule="evenodd" fill-opacity="0.6" stroke="#000000" stroke-opacity="0.6" stroke-width="3.072"/>
<circle clip-path="url(#clip002)" cx="1601.31" cy="594.875" r="7.2" fill="#009af9" fill-rule="evenodd" fill-opacity="0.6" stroke="#000000" stroke-opacity="0.6" stroke-width="3.072"/>
<circle clip-path="url(#clip002)" cx="1548.19" cy="561.696" r="7.2" fill="#009af9" fill-rule="evenodd" fill-opacity="0.6" stroke="#000000" stroke-opacity="0.6" stroke-width="3.072"/>
<circle clip-path="url(#clip002)" cx="1495.06" cy="528.516" r="7.2" fill="#009af9" fill-rule="evenodd" fill-opacity="0.6" stroke="#000000" stroke-opacity="0.6" stroke-width="3.072"/>
<circle clip-path="url(#clip002)" cx="1441.93" cy="495.336" r="7.2" fill="#009af9" fill-rule="evenodd" fill-opacity="0.6" stroke="#000000" stroke-opacity="0.6" stroke-width="3.072"/>
<circle clip-path="url(#clip002)" cx="1388.8" cy="516.062" r="7.2" fill="#009af9" fill-rule="evenodd" fill-opacity="0.6" stroke="#000000" stroke-opacity="0.6" stroke-width="3.072"/>
<circle clip-path="url(#clip002)" cx="1421.78" cy="549.242" r="7.2" fill="#009af9" fill-rule="evenodd" fill-opacity="0.6" stroke="#000000" stroke-opacity="0.6" stroke-width="3.072"/>
<circle clip-path="url(#clip002)" cx="1474.91" cy="582.422" r="7.2" fill="#009af9" fill-rule="evenodd" fill-opacity="0.6" stroke="#000000" stroke-opacity="0.6" stroke-width="3.072"/>
<circle clip-path="url(#clip002)" cx="1528.04" cy="615.602" r="7.2" fill="#009af9" fill-rule="evenodd" fill-opacity="0.6" stroke="#000000" stroke-opacity="0.6" stroke-width="3.072"/>
<circle clip-path="url(#clip002)" cx="1581.16" cy="648.781" r="7.2" fill="#009af9" fill-rule="evenodd" fill-opacity="0.6" stroke="#000000" stroke-opacity="0.6" stroke-width="3.072"/>
<circle clip-path="url(#clip002)" cx="1634.29" cy="681.961" r="7.2" fill="#009af9" fill-rule="evenodd" fill-opacity="0.6" stroke="#000000" stroke-opacity="0.6" stroke-width="3.072"/>
<circle clip-path="url(#clip002)" cx="1687.42" cy="715.141" r="7.2" fill="#009af9" fill-rule="evenodd" fill-opacity="0.6" stroke="#000000" stroke-opacity="0.6" stroke-width="3.072"/>
<circle clip-path="url(#clip002)" cx="1740.55" cy="748.32" r="7.2" fill="#009af9" fill-rule="evenodd" fill-opacity="0.6" stroke="#000000" stroke-opacity="0.6" stroke-width="3.072"/>
<circle clip-path="url(#clip002)" cx="1793.68" cy="781.5" r="7.2" fill="#009af9" fill-rule="evenodd" fill-opacity="0.6" stroke="#000000" stroke-opacity="0.6" stroke-width="3.072"/>
<circle clip-path="url(#clip002)" cx="1831.32" cy="814.68" r="7.2" fill="#009af9" fill-rule="evenodd" fill-opacity="0.6" stroke="#000000" stroke-opacity="0.6" stroke-width="3.072"/>
<circle clip-path="url(#clip002)" cx="1778.19" cy="847.86" r="7.2" fill="#009af9" fill-rule="evenodd" fill-opacity="0.6" stroke="#000000" stroke-opacity="0.6" stroke-width="3.072"/>
<circle clip-path="url(#clip002)" cx="1725.06" cy="881.039" r="7.2" fill="#009af9" fill-rule="evenodd" fill-opacity="0.6" stroke="#000000" stroke-opacity="0.6" stroke-width="3.072"/>
<circle clip-path="url(#clip002)" cx="1671.93" cy="914.219" r="7.2" fill="#009af9" fill-rule="evenodd" fill-opacity="0.6" stroke="#000000" stroke-opacity="0.6" stroke-width="3.072"/>
<circle clip-path="url(#clip002)" cx="1618.8" cy="947.399" r="7.2" fill="#009af9" fill-rule="evenodd" fill-opacity="0.6" stroke="#000000" stroke-opacity="0.6" stroke-width="3.072"/>
<circle clip-path="url(#clip002)" cx="1565.67" cy="980.578" r="7.2" fill="#009af9" fill-rule="evenodd" fill-opacity="0.6" stroke="#000000" stroke-opacity="0.6" stroke-width="3.072"/>
<circle clip-path="url(#clip002)" cx="1512.54" cy="1013.76" r="7.2" fill="#009af9" fill-rule="evenodd" fill-opacity="0.6" stroke="#000000" stroke-opacity="0.6" stroke-width="3.072"/>
<circle clip-path="url(#clip002)" cx="1459.42" cy="1046.94" r="7.2" fill="#009af9" fill-rule="evenodd" fill-opacity="0.6" stroke="#000000" stroke-opacity="0.6" stroke-width="3.072"/>
<circle clip-path="url(#clip002)" cx="1406.29" cy="1032.61" r="7.2" fill="#009af9" fill-rule="evenodd" fill-opacity="0.6" stroke="#000000" stroke-opacity="0.6" stroke-width="3.072"/>
<circle clip-path="url(#clip002)" cx="1353.16" cy="999.431" r="7.2" fill="#009af9" fill-rule="evenodd" fill-opacity="0.6" stroke="#000000" stroke-opacity="0.6" stroke-width="3.072"/>
<circle clip-path="url(#clip002)" cx="1300.03" cy="966.251" r="7.2" fill="#009af9" fill-rule="evenodd" fill-opacity="0.6" stroke="#000000" stroke-opacity="0.6" stroke-width="3.072"/>
<circle clip-path="url(#clip002)" cx="1246.9" cy="933.071" r="7.2" fill="#009af9" fill-rule="evenodd" fill-opacity="0.6" stroke="#000000" stroke-opacity="0.6" stroke-width="3.072"/>
<circle clip-path="url(#clip002)" cx="1193.77" cy="899.892" r="7.2" fill="#009af9" fill-rule="evenodd" fill-opacity="0.6" stroke="#000000" stroke-opacity="0.6" stroke-width="3.072"/>
<circle clip-path="url(#clip002)" cx="1140.64" cy="866.712" r="7.2" fill="#009af9" fill-rule="evenodd" fill-opacity="0.6" stroke="#000000" stroke-opacity="0.6" stroke-width="3.072"/>
<circle clip-path="url(#clip002)" cx="1087.52" cy="833.532" r="7.2" fill="#009af9" fill-rule="evenodd" fill-opacity="0.6" stroke="#000000" stroke-opacity="0.6" stroke-width="3.072"/>
<circle clip-path="url(#clip002)" cx="1034.39" cy="800.352" r="7.2" fill="#009af9" fill-rule="evenodd" fill-opacity="0.6" stroke="#000000" stroke-opacity="0.6" stroke-width="3.072"/>
<circle clip-path="url(#clip002)" cx="981.259" cy="767.173" r="7.2" fill="#009af9" fill-rule="evenodd" fill-opacity="0.6" stroke="#000000" stroke-opacity="0.6" stroke-width="3.072"/>
<circle clip-path="url(#clip002)" cx="928.131" cy="733.993" r="7.2" fill="#009af9" fill-rule="evenodd" fill-opacity="0.6" stroke="#000000" stroke-opacity="0.6" stroke-width="3.072"/>
<circle clip-path="url(#clip002)" cx="875.002" cy="700.813" r="7.2" fill="#009af9" fill-rule="evenodd" fill-opacity="0.6" stroke="#000000" stroke-opacity="0.6" stroke-width="3.072"/>
<circle clip-path="url(#clip002)" cx="821.874" cy="667.634" r="7.2" fill="#009af9" fill-rule="evenodd" fill-opacity="0.6" stroke="#000000" stroke-opacity="0.6" stroke-width="3.072"/>
<circle clip-path="url(#clip002)" cx="768.745" cy="634.454" r="7.2" fill="#009af9" fill-rule="evenodd" fill-opacity="0.6" stroke="#000000" stroke-opacity="0.6" stroke-width="3.072"/>
<circle clip-path="url(#clip002)" cx="715.616" cy="601.274" r="7.2" fill="#009af9" fill-rule="evenodd" fill-opacity="0.6" stroke="#000000" stroke-opacity="0.6" stroke-width="3.072"/>
<circle clip-path="url(#clip002)" cx="662.488" cy="568.095" r="7.2" fill="#009af9" fill-rule="evenodd" fill-opacity="0.6" stroke="#000000" stroke-opacity="0.6" stroke-width="3.072"/>
<circle clip-path="url(#clip002)" cx="609.359" cy="534.915" r="7.2" fill="#009af9" fill-rule="evenodd" fill-opacity="0.6" stroke="#000000" stroke-opacity="0.6" stroke-width="3.072"/>
<circle clip-path="url(#clip002)" cx="556.231" cy="505.874" r="7.2" fill="#009af9" fill-rule="evenodd" fill-opacity="0.6" stroke="#000000" stroke-opacity="0.6" stroke-width="3.072"/>
<circle clip-path="url(#clip002)" cx="503.102" cy="539.054" r="7.2" fill="#009af9" fill-rule="evenodd" fill-opacity="0.6" stroke="#000000" stroke-opacity="0.6" stroke-width="3.072"/>
<circle clip-path="url(#clip002)" cx="449.974" cy="572.233" r="7.2" fill="#009af9" fill-rule="evenodd" fill-opacity="0.6" stroke="#000000" stroke-opacity="0.6" stroke-width="3.072"/>
<circle clip-path="url(#clip002)" cx="396.845" cy="605.413" r="7.2" fill="#009af9" fill-rule="evenodd" fill-opacity="0.6" stroke="#000000" stroke-opacity="0.6" stroke-width="3.072"/>
<circle clip-path="url(#clip002)" cx="343.717" cy="638.593" r="7.2" fill="#009af9" fill-rule="evenodd" fill-opacity="0.6" stroke="#000000" stroke-opacity="0.6" stroke-width="3.072"/>
<circle clip-path="url(#clip002)" cx="290.588" cy="671.772" r="7.2" fill="#009af9" fill-rule="evenodd" fill-opacity="0.6" stroke="#000000" stroke-opacity="0.6" stroke-width="3.072"/>
<circle clip-path="url(#clip002)" cx="267.719" cy="704.952" r="7.2" fill="#009af9" fill-rule="evenodd" fill-opacity="0.6" stroke="#000000" stroke-opacity="0.6" stroke-width="3.072"/>
<circle clip-path="url(#clip002)" cx="320.848" cy="738.132" r="7.2" fill="#009af9" fill-rule="evenodd" fill-opacity="0.6" stroke="#000000" stroke-opacity="0.6" stroke-width="3.072"/>
<circle clip-path="url(#clip002)" cx="373.976" cy="771.312" r="7.2" fill="#009af9" fill-rule="evenodd" fill-opacity="0.6" stroke="#000000" stroke-opacity="0.6" stroke-width="3.072"/>
<circle clip-path="url(#clip002)" cx="427.105" cy="804.491" r="7.2" fill="#009af9" fill-rule="evenodd" fill-opacity="0.6" stroke="#000000" stroke-opacity="0.6" stroke-width="3.072"/>
<circle clip-path="url(#clip002)" cx="480.233" cy="837.671" r="7.2" fill="#009af9" fill-rule="evenodd" fill-opacity="0.6" stroke="#000000" stroke-opacity="0.6" stroke-width="3.072"/>
<circle clip-path="url(#clip002)" cx="533.362" cy="870.851" r="7.2" fill="#009af9" fill-rule="evenodd" fill-opacity="0.6" stroke="#000000" stroke-opacity="0.6" stroke-width="3.072"/>
<circle clip-path="url(#clip002)" cx="586.49" cy="904.03" r="7.2" fill="#009af9" fill-rule="evenodd" fill-opacity="0.6" stroke="#000000" stroke-opacity="0.6" stroke-width="3.072"/>
<circle clip-path="url(#clip002)" cx="639.619" cy="937.21" r="7.2" fill="#009af9" fill-rule="evenodd" fill-opacity="0.6" stroke="#000000" stroke-opacity="0.6" stroke-width="3.072"/>
<circle clip-path="url(#clip002)" cx="692.747" cy="970.39" r="7.2" fill="#009af9" fill-rule="evenodd" fill-opacity="0.6" stroke="#000000" stroke-opacity="0.6" stroke-width="3.072"/>
<circle clip-path="url(#clip002)" cx="745.876" cy="1003.57" r="7.2" fill="#009af9" fill-rule="evenodd" fill-opacity="0.6" stroke="#000000" stroke-opacity="0.6" stroke-width="3.072"/>
<circle clip-path="url(#clip002)" cx="799.004" cy="1036.75" r="7.2" fill="#009af9" fill-rule="evenodd" fill-opacity="0.6" stroke="#000000" stroke-opacity="0.6" stroke-width="3.072"/>
<circle clip-path="url(#clip002)" cx="852.133" cy="1021.14" r="7.2" fill="#009af9" fill-rule="evenodd" fill-opacity="0.6" stroke="#000000" stroke-opacity="0.6" stroke-width="3.072"/>
<circle clip-path="url(#clip002)" cx="905.261" cy="987.956" r="7.2" fill="#009af9" fill-rule="evenodd" fill-opacity="0.6" stroke="#000000" stroke-opacity="0.6" stroke-width="3.072"/>
<circle clip-path="url(#clip002)" cx="958.39" cy="954.776" r="7.2" fill="#009af9" fill-rule="evenodd" fill-opacity="0.6" stroke="#000000" stroke-opacity="0.6" stroke-width="3.072"/>
<circle clip-path="url(#clip002)" cx="1011.52" cy="921.596" r="7.2" fill="#009af9" fill-rule="evenodd" fill-opacity="0.6" stroke="#000000" stroke-opacity="0.6" stroke-width="3.072"/>
<circle clip-path="url(#clip002)" cx="1064.65" cy="888.417" r="7.2" fill="#009af9" fill-rule="evenodd" fill-opacity="0.6" stroke="#000000" stroke-opacity="0.6" stroke-width="3.072"/>
<circle clip-path="url(#clip002)" cx="1117.78" cy="855.237" r="7.2" fill="#009af9" fill-rule="evenodd" fill-opacity="0.6" stroke="#000000" stroke-opacity="0.6" stroke-width="3.072"/>
<circle clip-path="url(#clip002)" cx="1170.9" cy="822.057" r="7.2" fill="#009af9" fill-rule="evenodd" fill-opacity="0.6" stroke="#000000" stroke-opacity="0.6" stroke-width="3.072"/>
<circle clip-path="url(#clip002)" cx="1224.03" cy="788.878" r="7.2" fill="#009af9" fill-rule="evenodd" fill-opacity="0.6" stroke="#000000" stroke-opacity="0.6" stroke-width="3.072"/>
<circle clip-path="url(#clip002)" cx="1277.16" cy="755.698" r="7.2" fill="#009af9" fill-rule="evenodd" fill-opacity="0.6" stroke="#000000" stroke-opacity="0.6" stroke-width="3.072"/>
<circle clip-path="url(#clip002)" cx="1330.29" cy="722.518" r="7.2" fill="#009af9" fill-rule="evenodd" fill-opacity="0.6" stroke="#000000" stroke-opacity="0.6" stroke-width="3.072"/>
<circle clip-path="url(#clip002)" cx="1383.42" cy="689.338" r="7.2" fill="#009af9" fill-rule="evenodd" fill-opacity="0.6" stroke="#000000" stroke-opacity="0.6" stroke-width="3.072"/>
<circle clip-path="url(#clip002)" cx="1436.55" cy="656.159" r="7.2" fill="#009af9" fill-rule="evenodd" fill-opacity="0.6" stroke="#000000" stroke-opacity="0.6" stroke-width="3.072"/>
<circle clip-path="url(#clip002)" cx="1489.67" cy="622.979" r="7.2" fill="#009af9" fill-rule="evenodd" fill-opacity="0.6" stroke="#000000" stroke-opacity="0.6" stroke-width="3.072"/>
<circle clip-path="url(#clip002)" cx="1542.8" cy="589.799" r="7.2" fill="#009af9" fill-rule="evenodd" fill-opacity="0.6" stroke="#000000" stroke-opacity="0.6" stroke-width="3.072"/>
<circle clip-path="url(#clip002)" cx="1595.93" cy="556.62" r="7.2" fill="#009af9" fill-rule="evenodd" fill-opacity="0.6" stroke="#000000" stroke-opacity="0.6" stroke-width="3.072"/>
<circle clip-path="url(#clip002)" cx="1649.06" cy="523.44" r="7.2" fill="#009af9" fill-rule="evenodd" fill-opacity="0.6" stroke="#000000" stroke-opacity="0.6" stroke-width="3.072"/>
<circle clip-path="url(#clip002)" cx="1702.19" cy="490.26" r="7.2" fill="#009af9" fill-rule="evenodd" fill-opacity="0.6" stroke="#000000" stroke-opacity="0.6" stroke-width="3.072"/>
<circle clip-path="url(#clip002)" cx="1755.32" cy="457.08" r="7.2" fill="#009af9" fill-rule="evenodd" fill-opacity="0.6" stroke="#000000" stroke-opacity="0.6" stroke-width="3.072"/>
<circle clip-path="url(#clip002)" cx="1808.45" cy="423.901" r="7.2" fill="#009af9" fill-rule="evenodd" fill-opacity="0.6" stroke="#000000" stroke-opacity="0.6" stroke-width="3.072"/>
<circle clip-path="url(#clip002)" cx="1861.57" cy="390.721" r="7.2" fill="#009af9" fill-rule="evenodd" fill-opacity="0.6" stroke="#000000" stroke-opacity="0.6" stroke-width="3.072"/>
<circle clip-path="url(#clip002)" cx="1914.7" cy="357.541" r="7.2" fill="#009af9" fill-rule="evenodd" fill-opacity="0.6" stroke="#000000" stroke-opacity="0.6" stroke-width="3.072"/>
<circle clip-path="url(#clip002)" cx="1902.63" cy="324.362" r="7.2" fill="#009af9" fill-rule="evenodd" fill-opacity="0.6" stroke="#000000" stroke-opacity="0.6" stroke-width="3.072"/>
<circle clip-path="url(#clip002)" cx="1849.5" cy="291.182" r="7.2" fill="#009af9" fill-rule="evenodd" fill-opacity="0.6" stroke="#000000" stroke-opacity="0.6" stroke-width="3.072"/>
<circle clip-path="url(#clip002)" cx="1796.37" cy="258.002" r="7.2" fill="#009af9" fill-rule="evenodd" fill-opacity="0.6" stroke="#000000" stroke-opacity="0.6" stroke-width="3.072"/>
<circle clip-path="url(#clip002)" cx="1743.24" cy="224.823" r="7.2" fill="#009af9" fill-rule="evenodd" fill-opacity="0.6" stroke="#000000" stroke-opacity="0.6" stroke-width="3.072"/>
<circle clip-path="url(#clip002)" cx="1690.11" cy="191.643" r="7.2" fill="#009af9" fill-rule="evenodd" fill-opacity="0.6" stroke="#000000" stroke-opacity="0.6" stroke-width="3.072"/>
<circle clip-path="url(#clip002)" cx="1636.98" cy="158.463" r="7.2" fill="#009af9" fill-rule="evenodd" fill-opacity="0.6" stroke="#000000" stroke-opacity="0.6" stroke-width="3.072"/>
<circle clip-path="url(#clip002)" cx="1583.86" cy="184.048" r="7.2" fill="#009af9" fill-rule="evenodd" fill-opacity="0.6" stroke="#000000" stroke-opacity="0.6" stroke-width="3.072"/>
<circle clip-path="url(#clip002)" cx="1530.73" cy="217.227" r="7.2" fill="#009af9" fill-rule="evenodd" fill-opacity="0.6" stroke="#000000" stroke-opacity="0.6" stroke-width="3.072"/>
<circle clip-path="url(#clip002)" cx="1477.6" cy="250.407" r="7.2" fill="#009af9" fill-rule="evenodd" fill-opacity="0.6" stroke="#000000" stroke-opacity="0.6" stroke-width="3.072"/>
<circle clip-path="url(#clip002)" cx="1424.47" cy="283.587" r="7.2" fill="#009af9" fill-rule="evenodd" fill-opacity="0.6" stroke="#000000" stroke-opacity="0.6" stroke-width="3.072"/>
<circle clip-path="url(#clip002)" cx="1371.34" cy="316.766" r="7.2" fill="#009af9" fill-rule="evenodd" fill-opacity="0.6" stroke="#000000" stroke-opacity="0.6" stroke-width="3.072"/>
<circle clip-path="url(#clip002)" cx="1321.2" cy="349.946" r="7.2" fill="#009af9" fill-rule="evenodd" fill-opacity="0.6" stroke="#000000" stroke-opacity="0.6" stroke-width="3.072"/>
<circle clip-path="url(#clip002)" cx="1374.33" cy="383.126" r="7.2" fill="#009af9" fill-rule="evenodd" fill-opacity="0.6" stroke="#000000" stroke-opacity="0.6" stroke-width="3.072"/>
<circle clip-path="url(#clip002)" cx="1427.46" cy="416.305" r="7.2" fill="#009af9" fill-rule="evenodd" fill-opacity="0.6" stroke="#000000" stroke-opacity="0.6" stroke-width="3.072"/>
<circle clip-path="url(#clip002)" cx="1480.59" cy="449.485" r="7.2" fill="#009af9" fill-rule="evenodd" fill-opacity="0.6" stroke="#000000" stroke-opacity="0.6" stroke-width="3.072"/>
<circle clip-path="url(#clip002)" cx="1533.72" cy="482.665" r="7.2" fill="#009af9" fill-rule="evenodd" fill-opacity="0.6" stroke="#000000" stroke-opacity="0.6" stroke-width="3.072"/>
<circle clip-path="url(#clip002)" cx="1586.85" cy="515.845" r="7.2" fill="#009af9" fill-rule="evenodd" fill-opacity="0.6" stroke="#000000" stroke-opacity="0.6" stroke-width="3.072"/>
<circle clip-path="url(#clip002)" cx="1639.97" cy="549.024" r="7.2" fill="#009af9" fill-rule="evenodd" fill-opacity="0.6" stroke="#000000" stroke-opacity="0.6" stroke-width="3.072"/>
<circle clip-path="url(#clip002)" cx="1693.1" cy="582.204" r="7.2" fill="#009af9" fill-rule="evenodd" fill-opacity="0.6" stroke="#000000" stroke-opacity="0.6" stroke-width="3.072"/>
<circle clip-path="url(#clip002)" cx="1746.23" cy="615.384" r="7.2" fill="#009af9" fill-rule="evenodd" fill-opacity="0.6" stroke="#000000" stroke-opacity="0.6" stroke-width="3.072"/>
<circle clip-path="url(#clip002)" cx="1799.36" cy="648.563" r="7.2" fill="#009af9" fill-rule="evenodd" fill-opacity="0.6" stroke="#000000" stroke-opacity="0.6" stroke-width="3.072"/>
<circle clip-path="url(#clip002)" cx="1852.49" cy="681.743" r="7.2" fill="#009af9" fill-rule="evenodd" fill-opacity="0.6" stroke="#000000" stroke-opacity="0.6" stroke-width="3.072"/>
<circle clip-path="url(#clip002)" cx="1905.62" cy="714.923" r="7.2" fill="#009af9" fill-rule="evenodd" fill-opacity="0.6" stroke="#000000" stroke-opacity="0.6" stroke-width="3.072"/>
<circle clip-path="url(#clip002)" cx="1958.74" cy="748.103" r="7.2" fill="#009af9" fill-rule="evenodd" fill-opacity="0.6" stroke="#000000" stroke-opacity="0.6" stroke-width="3.072"/>
<circle clip-path="url(#clip002)" cx="2011.87" cy="781.282" r="7.2" fill="#009af9" fill-rule="evenodd" fill-opacity="0.6" stroke="#000000" stroke-opacity="0.6" stroke-width="3.072"/>
<circle clip-path="url(#clip002)" cx="2065" cy="814.462" r="7.2" fill="#009af9" fill-rule="evenodd" fill-opacity="0.6" stroke="#000000" stroke-opacity="0.6" stroke-width="3.072"/>
<circle clip-path="url(#clip002)" cx="2118.13" cy="847.642" r="7.2" fill="#009af9" fill-rule="evenodd" fill-opacity="0.6" stroke="#000000" stroke-opacity="0.6" stroke-width="3.072"/>
<circle clip-path="url(#clip002)" cx="2171.26" cy="880.821" r="7.2" fill="#009af9" fill-rule="evenodd" fill-opacity="0.6" stroke="#000000" stroke-opacity="0.6" stroke-width="3.072"/>
<circle clip-path="url(#clip002)" cx="2198.82" cy="914.001" r="7.2" fill="#009af9" fill-rule="evenodd" fill-opacity="0.6" stroke="#000000" stroke-opacity="0.6" stroke-width="3.072"/>
<circle clip-path="url(#clip002)" cx="2145.69" cy="947.181" r="7.2" fill="#009af9" fill-rule="evenodd" fill-opacity="0.6" stroke="#000000" stroke-opacity="0.6" stroke-width="3.072"/>
<circle clip-path="url(#clip002)" cx="2092.57" cy="980.361" r="7.2" fill="#009af9" fill-rule="evenodd" fill-opacity="0.6" stroke="#000000" stroke-opacity="0.6" stroke-width="3.072"/>
<circle clip-path="url(#clip002)" cx="2039.44" cy="1013.54" r="7.2" fill="#009af9" fill-rule="evenodd" fill-opacity="0.6" stroke="#000000" stroke-opacity="0.6" stroke-width="3.072"/>
<circle clip-path="url(#clip002)" cx="1986.31" cy="1046.72" r="7.2" fill="#009af9" fill-rule="evenodd" fill-opacity="0.6" stroke="#000000" stroke-opacity="0.6" stroke-width="3.072"/>
<circle clip-path="url(#clip002)" cx="1933.18" cy="1079.9" r="7.2" fill="#009af9" fill-rule="evenodd" fill-opacity="0.6" stroke="#000000" stroke-opacity="0.6" stroke-width="3.072"/>
<circle clip-path="url(#clip002)" cx="1880.05" cy="1113.08" r="7.2" fill="#009af9" fill-rule="evenodd" fill-opacity="0.6" stroke="#000000" stroke-opacity="0.6" stroke-width="3.072"/>
<circle clip-path="url(#clip002)" cx="1826.92" cy="1127.7" r="7.2" fill="#009af9" fill-rule="evenodd" fill-opacity="0.6" stroke="#000000" stroke-opacity="0.6" stroke-width="3.072"/>
<circle clip-path="url(#clip002)" cx="1773.79" cy="1094.52" r="7.2" fill="#009af9" fill-rule="evenodd" fill-opacity="0.6" stroke="#000000" stroke-opacity="0.6" stroke-width="3.072"/>
<circle clip-path="url(#clip002)" cx="1720.67" cy="1061.34" r="7.2" fill="#009af9" fill-rule="evenodd" fill-opacity="0.6" stroke="#000000" stroke-opacity="0.6" stroke-width="3.072"/>
<circle clip-path="url(#clip002)" cx="1667.54" cy="1028.16" r="7.2" fill="#009af9" fill-rule="evenodd" fill-opacity="0.6" stroke="#000000" stroke-opacity="0.6" stroke-width="3.072"/>
<circle clip-path="url(#clip002)" cx="1614.41" cy="994.978" r="7.2" fill="#009af9" fill-rule="evenodd" fill-opacity="0.6" stroke="#000000" stroke-opacity="0.6" stroke-width="3.072"/>
<circle clip-path="url(#clip002)" cx="1561.28" cy="961.798" r="7.2" fill="#009af9" fill-rule="evenodd" fill-opacity="0.6" stroke="#000000" stroke-opacity="0.6" stroke-width="3.072"/>
<circle clip-path="url(#clip002)" cx="1508.15" cy="928.618" r="7.2" fill="#009af9" fill-rule="evenodd" fill-opacity="0.6" stroke="#000000" stroke-opacity="0.6" stroke-width="3.072"/>
<circle clip-path="url(#clip002)" cx="1455.02" cy="895.439" r="7.2" fill="#009af9" fill-rule="evenodd" fill-opacity="0.6" stroke="#000000" stroke-opacity="0.6" stroke-width="3.072"/>
<circle clip-path="url(#clip002)" cx="1401.9" cy="862.259" r="7.2" fill="#009af9" fill-rule="evenodd" fill-opacity="0.6" stroke="#000000" stroke-opacity="0.6" stroke-width="3.072"/>
<circle clip-path="url(#clip002)" cx="1348.77" cy="829.079" r="7.2" fill="#009af9" fill-rule="evenodd" fill-opacity="0.6" stroke="#000000" stroke-opacity="0.6" stroke-width="3.072"/>
<circle clip-path="url(#clip002)" cx="1295.64" cy="795.899" r="7.2" fill="#009af9" fill-rule="evenodd" fill-opacity="0.6" stroke="#000000" stroke-opacity="0.6" stroke-width="3.072"/>
<circle clip-path="url(#clip002)" cx="1242.51" cy="762.72" r="7.2" fill="#009af9" fill-rule="evenodd" fill-opacity="0.6" stroke="#000000" stroke-opacity="0.6" stroke-width="3.072"/>
<circle clip-path="url(#clip002)" cx="1207.88" cy="729.54" r="7.2" fill="#009af9" fill-rule="evenodd" fill-opacity="0.6" stroke="#000000" stroke-opacity="0.6" stroke-width="3.072"/>
<circle clip-path="url(#clip002)" cx="1261.01" cy="696.36" r="7.2" fill="#009af9" fill-rule="evenodd" fill-opacity="0.6" stroke="#000000" stroke-opacity="0.6" stroke-width="3.072"/>
<circle clip-path="url(#clip002)" cx="1314.14" cy="663.181" r="7.2" fill="#009af9" fill-rule="evenodd" fill-opacity="0.6" stroke="#000000" stroke-opacity="0.6" stroke-width="3.072"/>
<circle clip-path="url(#clip002)" cx="1367.27" cy="630.001" r="7.2" fill="#009af9" fill-rule="evenodd" fill-opacity="0.6" stroke="#000000" stroke-opacity="0.6" stroke-width="3.072"/>
<circle clip-path="url(#clip002)" cx="1420.4" cy="596.821" r="7.2" fill="#009af9" fill-rule="evenodd" fill-opacity="0.6" stroke="#000000" stroke-opacity="0.6" stroke-width="3.072"/>
<circle clip-path="url(#clip002)" cx="1473.53" cy="563.642" r="7.2" fill="#009af9" fill-rule="evenodd" fill-opacity="0.6" stroke="#000000" stroke-opacity="0.6" stroke-width="3.072"/>
<circle clip-path="url(#clip002)" cx="1526.65" cy="530.462" r="7.2" fill="#009af9" fill-rule="evenodd" fill-opacity="0.6" stroke="#000000" stroke-opacity="0.6" stroke-width="3.072"/>
<circle clip-path="url(#clip002)" cx="1579.78" cy="497.282" r="7.2" fill="#009af9" fill-rule="evenodd" fill-opacity="0.6" stroke="#000000" stroke-opacity="0.6" stroke-width="3.072"/>
<circle clip-path="url(#clip002)" cx="1632.91" cy="464.102" r="7.2" fill="#009af9" fill-rule="evenodd" fill-opacity="0.6" stroke="#000000" stroke-opacity="0.6" stroke-width="3.072"/>
<circle clip-path="url(#clip002)" cx="1686.04" cy="430.923" r="7.2" fill="#009af9" fill-rule="evenodd" fill-opacity="0.6" stroke="#000000" stroke-opacity="0.6" stroke-width="3.072"/>
<circle clip-path="url(#clip002)" cx="1739.17" cy="397.743" r="7.2" fill="#009af9" fill-rule="evenodd" fill-opacity="0.6" stroke="#000000" stroke-opacity="0.6" stroke-width="3.072"/>
<circle clip-path="url(#clip002)" cx="1792.3" cy="414.512" r="7.2" fill="#009af9" fill-rule="evenodd" fill-opacity="0.6" stroke="#000000" stroke-opacity="0.6" stroke-width="3.072"/>
<circle clip-path="url(#clip002)" cx="1845.43" cy="447.692" r="7.2" fill="#009af9" fill-rule="evenodd" fill-opacity="0.6" stroke="#000000" stroke-opacity="0.6" stroke-width="3.072"/>
<circle clip-path="url(#clip002)" cx="1898.55" cy="480.872" r="7.2" fill="#009af9" fill-rule="evenodd" fill-opacity="0.6" stroke="#000000" stroke-opacity="0.6" stroke-width="3.072"/>
<circle clip-path="url(#clip002)" cx="1951.68" cy="514.051" r="7.2" fill="#009af9" fill-rule="evenodd" fill-opacity="0.6" stroke="#000000" stroke-opacity="0.6" stroke-width="3.072"/>
<circle clip-path="url(#clip002)" cx="2004.81" cy="547.231" r="7.2" fill="#009af9" fill-rule="evenodd" fill-opacity="0.6" stroke="#000000" stroke-opacity="0.6" stroke-width="3.072"/>
<circle clip-path="url(#clip002)" cx="2057.94" cy="580.411" r="7.2" fill="#009af9" fill-rule="evenodd" fill-opacity="0.6" stroke="#000000" stroke-opacity="0.6" stroke-width="3.072"/>
<circle clip-path="url(#clip002)" cx="2111.07" cy="613.59" r="7.2" fill="#009af9" fill-rule="evenodd" fill-opacity="0.6" stroke="#000000" stroke-opacity="0.6" stroke-width="3.072"/>
<circle clip-path="url(#clip002)" cx="2108.42" cy="646.322" r="7.2" fill="#009af9" fill-rule="evenodd" fill-opacity="0.6" stroke="#000000" stroke-opacity="0.6" stroke-width="3.072"/>
<circle clip-path="url(#clip002)" cx="2055.29" cy="613.142" r="7.2" fill="#009af9" fill-rule="evenodd" fill-opacity="0.6" stroke="#000000" stroke-opacity="0.6" stroke-width="3.072"/>
<circle clip-path="url(#clip002)" cx="2002.17" cy="579.962" r="7.2" fill="#009af9" fill-rule="evenodd" fill-opacity="0.6" stroke="#000000" stroke-opacity="0.6" stroke-width="3.072"/>
<circle clip-path="url(#clip002)" cx="1949.04" cy="546.783" r="7.2" fill="#009af9" fill-rule="evenodd" fill-opacity="0.6" stroke="#000000" stroke-opacity="0.6" stroke-width="3.072"/>
<circle clip-path="url(#clip002)" cx="1895.91" cy="513.603" r="7.2" fill="#009af9" fill-rule="evenodd" fill-opacity="0.6" stroke="#000000" stroke-opacity="0.6" stroke-width="3.072"/>
<circle clip-path="url(#clip002)" cx="1842.78" cy="480.423" r="7.2" fill="#009af9" fill-rule="evenodd" fill-opacity="0.6" stroke="#000000" stroke-opacity="0.6" stroke-width="3.072"/>
<circle clip-path="url(#clip002)" cx="1789.65" cy="447.244" r="7.2" fill="#009af9" fill-rule="evenodd" fill-opacity="0.6" stroke="#000000" stroke-opacity="0.6" stroke-width="3.072"/>
<circle clip-path="url(#clip002)" cx="1736.52" cy="414.064" r="7.2" fill="#009af9" fill-rule="evenodd" fill-opacity="0.6" stroke="#000000" stroke-opacity="0.6" stroke-width="3.072"/>
<circle clip-path="url(#clip002)" cx="1683.39" cy="380.884" r="7.2" fill="#009af9" fill-rule="evenodd" fill-opacity="0.6" stroke="#000000" stroke-opacity="0.6" stroke-width="3.072"/>
<circle clip-path="url(#clip002)" cx="1630.27" cy="347.704" r="7.2" fill="#009af9" fill-rule="evenodd" fill-opacity="0.6" stroke="#000000" stroke-opacity="0.6" stroke-width="3.072"/>
<circle clip-path="url(#clip002)" cx="1577.14" cy="314.525" r="7.2" fill="#009af9" fill-rule="evenodd" fill-opacity="0.6" stroke="#000000" stroke-opacity="0.6" stroke-width="3.072"/>
<circle clip-path="url(#clip002)" cx="1524.01" cy="315.142" r="7.2" fill="#009af9" fill-rule="evenodd" fill-opacity="0.6" stroke="#000000" stroke-opacity="0.6" stroke-width="3.072"/>
<circle clip-path="url(#clip002)" cx="1470.88" cy="348.322" r="7.2" fill="#009af9" fill-rule="evenodd" fill-opacity="0.6" stroke="#000000" stroke-opacity="0.6" stroke-width="3.072"/>
<circle clip-path="url(#clip002)" cx="1417.75" cy="381.501" r="7.2" fill="#009af9" fill-rule="evenodd" fill-opacity="0.6" stroke="#000000" stroke-opacity="0.6" stroke-width="3.072"/>
<circle clip-path="url(#clip002)" cx="1364.62" cy="414.681" r="7.2" fill="#009af9" fill-rule="evenodd" fill-opacity="0.6" stroke="#000000" stroke-opacity="0.6" stroke-width="3.072"/>
<circle clip-path="url(#clip002)" cx="1311.49" cy="447.861" r="7.2" fill="#009af9" fill-rule="evenodd" fill-opacity="0.6" stroke="#000000" stroke-opacity="0.6" stroke-width="3.072"/>
<circle clip-path="url(#clip002)" cx="1258.37" cy="481.04" r="7.2" fill="#009af9" fill-rule="evenodd" fill-opacity="0.6" stroke="#000000" stroke-opacity="0.6" stroke-width="3.072"/>
<circle clip-path="url(#clip002)" cx="1205.24" cy="514.22" r="7.2" fill="#009af9" fill-rule="evenodd" fill-opacity="0.6" stroke="#000000" stroke-opacity="0.6" stroke-width="3.072"/>
<circle clip-path="url(#clip002)" cx="1152.11" cy="547.4" r="7.2" fill="#009af9" fill-rule="evenodd" fill-opacity="0.6" stroke="#000000" stroke-opacity="0.6" stroke-width="3.072"/>
<circle clip-path="url(#clip002)" cx="1098.98" cy="580.58" r="7.2" fill="#009af9" fill-rule="evenodd" fill-opacity="0.6" stroke="#000000" stroke-opacity="0.6" stroke-width="3.072"/>
<circle clip-path="url(#clip002)" cx="1045.85" cy="613.759" r="7.2" fill="#009af9" fill-rule="evenodd" fill-opacity="0.6" stroke="#000000" stroke-opacity="0.6" stroke-width="3.072"/>
<circle clip-path="url(#clip002)" cx="992.724" cy="646.939" r="7.2" fill="#009af9" fill-rule="evenodd" fill-opacity="0.6" stroke="#000000" stroke-opacity="0.6" stroke-width="3.072"/>
<circle clip-path="url(#clip002)" cx="939.595" cy="680.119" r="7.2" fill="#009af9" fill-rule="evenodd" fill-opacity="0.6" stroke="#000000" stroke-opacity="0.6" stroke-width="3.072"/>
<circle clip-path="url(#clip002)" cx="886.467" cy="713.298" r="7.2" fill="#009af9" fill-rule="evenodd" fill-opacity="0.6" stroke="#000000" stroke-opacity="0.6" stroke-width="3.072"/>
<circle clip-path="url(#clip002)" cx="833.338" cy="746.478" r="7.2" fill="#009af9" fill-rule="evenodd" fill-opacity="0.6" stroke="#000000" stroke-opacity="0.6" stroke-width="3.072"/>
<circle clip-path="url(#clip002)" cx="1651.25" cy="541.305" r="21.6" fill="#008000" fill-rule="evenodd" fill-opacity="1" stroke="#000000" stroke-opacity="1" stroke-width="3.072"/>
<circle clip-path="url(#clip002)" cx="833.338" cy="746.478" r="21.6" fill="#ff0000" fill-rule="evenodd" fill-opacity="1" stroke="#000000" stroke-opacity="1" stroke-width="3.072"/>
<path clip-path="url(#clip000)" d="M278.018 372.044 L892.273 372.044 L892.273 164.684 L278.018 164.684  Z" fill="#ffffff" fill-rule="evenodd" fill-opacity="1"/>
<polyline clip-path="url(#clip000)" style="stroke:#000000; stroke-linecap:round; stroke-linejoin:round; stroke-width:4; stroke-opacity:1; fill:none" points="278.018,372.044 892.273,372.044 892.273,164.684 278.018,164.684 278.018,372.044 "/>
<polyline clip-path="url(#clip000)" style="stroke:#009af9; stroke-linecap:round; stroke-linejoin:round; stroke-width:8; stroke-opacity:1; fill:none" points="300.762,216.524 437.227,216.524 "/>
<circle clip-path="url(#clip000)" cx="368.995" cy="216.524" r="18.432" fill="#009af9" fill-rule="evenodd" fill-opacity="0.6" stroke="#000000" stroke-opacity="0.6" stroke-width="7.86432"/>
<path clip-path="url(#clip000)" d="M460.504 199.244 L487.656 199.244 L487.656 202.809 L465.804 229.869 L488.189 229.869 L488.189 233.804 L459.971 233.804 L459.971 230.239 L481.823 203.179 L460.504 203.179 L460.504 199.244 Z" fill="#000000" fill-rule="nonzero" fill-opacity="1" /><path clip-path="url(#clip000)" d="M494.786 207.878 L499.045 207.878 L499.045 233.804 L494.786 233.804 L494.786 207.878 M494.786 197.785 L499.045 197.785 L499.045 203.179 L494.786 203.179 L494.786 197.785 Z" fill="#000000" fill-rule="nonzero" fill-opacity="1" /><path clip-path="url(#clip000)" d="M525.017 220.54 Q525.017 215.91 523.096 213.364 Q521.198 210.818 517.749 210.818 Q514.323 210.818 512.401 213.364 Q510.503 215.91 510.503 220.54 Q510.503 225.146 512.401 227.693 Q514.323 230.239 517.749 230.239 Q521.198 230.239 523.096 227.693 Q525.017 225.146 525.017 220.54 M529.276 230.586 Q529.276 237.206 526.337 240.424 Q523.397 243.665 517.332 243.665 Q515.087 243.665 513.096 243.318 Q511.105 242.993 509.23 242.299 L509.23 238.156 Q511.105 239.174 512.934 239.66 Q514.763 240.146 516.661 240.146 Q520.85 240.146 522.934 237.947 Q525.017 235.771 525.017 231.35 L525.017 229.244 Q523.698 231.535 521.637 232.669 Q519.577 233.804 516.707 233.804 Q511.938 233.804 509.022 230.169 Q506.105 226.535 506.105 220.54 Q506.105 214.521 509.022 210.887 Q511.938 207.253 516.707 207.253 Q519.577 207.253 521.637 208.387 Q523.698 209.521 525.017 211.813 L525.017 207.878 L529.276 207.878 L529.276 230.586 Z" fill="#000000" fill-rule="nonzero" fill-opacity="1" /><path clip-path="url(#clip000)" d="M536.244 199.244 L563.397 199.244 L563.397 202.809 L541.545 229.869 L563.929 229.869 L563.929 233.804 L535.711 233.804 L535.711 230.239 L557.563 203.179 L536.244 203.179 L536.244 199.244 Z" fill="#000000" fill-rule="nonzero" fill-opacity="1" /><path clip-path="url(#clip000)" d="M582.308 220.771 Q577.146 220.771 575.156 221.952 Q573.165 223.132 573.165 225.98 Q573.165 228.248 574.646 229.591 Q576.151 230.91 578.721 230.91 Q582.262 230.91 584.392 228.41 Q586.545 225.887 586.545 221.72 L586.545 220.771 L582.308 220.771 M590.804 219.012 L590.804 233.804 L586.545 233.804 L586.545 229.869 Q585.086 232.23 582.91 233.364 Q580.734 234.475 577.586 234.475 Q573.605 234.475 571.244 232.253 Q568.906 230.007 568.906 226.257 Q568.906 221.882 571.822 219.66 Q574.762 217.438 580.572 217.438 L586.545 217.438 L586.545 217.021 Q586.545 214.082 584.6 212.484 Q582.679 210.864 579.183 210.864 Q576.961 210.864 574.855 211.396 Q572.748 211.929 570.804 212.994 L570.804 209.058 Q573.142 208.156 575.341 207.716 Q577.54 207.253 579.623 207.253 Q585.248 207.253 588.026 210.17 Q590.804 213.086 590.804 219.012 Z" fill="#000000" fill-rule="nonzero" fill-opacity="1" /><path clip-path="url(#clip000)" d="M616.637 220.54 Q616.637 215.91 614.716 213.364 Q612.818 210.818 609.369 210.818 Q605.943 210.818 604.021 213.364 Q602.123 215.91 602.123 220.54 Q602.123 225.146 604.021 227.693 Q605.943 230.239 609.369 230.239 Q612.818 230.239 614.716 227.693 Q616.637 225.146 616.637 220.54 M620.896 230.586 Q620.896 237.206 617.956 240.424 Q615.017 243.665 608.952 243.665 Q606.706 243.665 604.716 243.318 Q602.725 242.993 600.85 242.299 L600.85 238.156 Q602.725 239.174 604.554 239.66 Q606.382 240.146 608.281 240.146 Q612.47 240.146 614.554 237.947 Q616.637 235.771 616.637 231.35 L616.637 229.244 Q615.318 231.535 613.257 232.669 Q611.197 233.804 608.327 233.804 Q603.558 233.804 600.642 230.169 Q597.725 226.535 597.725 220.54 Q597.725 214.521 600.642 210.887 Q603.558 207.253 608.327 207.253 Q611.197 207.253 613.257 208.387 Q615.318 209.521 616.637 211.813 L616.637 207.878 L620.896 207.878 L620.896 230.586 Z" fill="#000000" fill-rule="nonzero" fill-opacity="1" /><path clip-path="url(#clip000)" d="M648.952 200.517 L648.952 207.878 L657.725 207.878 L657.725 211.188 L648.952 211.188 L648.952 225.262 Q648.952 228.433 649.808 229.336 Q650.688 230.239 653.35 230.239 L657.725 230.239 L657.725 233.804 L653.35 233.804 Q648.419 233.804 646.544 231.975 Q644.669 230.123 644.669 225.262 L644.669 211.188 L641.544 211.188 L641.544 207.878 L644.669 207.878 L644.669 200.517 L648.952 200.517 Z" fill="#000000" fill-rule="nonzero" fill-opacity="1" /><path clip-path="url(#clip000)" d="M678.35 211.859 Q677.632 211.443 676.776 211.258 Q675.942 211.049 674.924 211.049 Q671.313 211.049 669.368 213.41 Q667.447 215.748 667.447 220.146 L667.447 233.804 L663.165 233.804 L663.165 207.878 L667.447 207.878 L667.447 211.906 Q668.789 209.545 670.942 208.41 Q673.095 207.253 676.174 207.253 Q676.614 207.253 677.146 207.322 Q677.678 207.369 678.326 207.484 L678.35 211.859 Z" fill="#000000" fill-rule="nonzero" fill-opacity="1" /><path clip-path="url(#clip000)" d="M694.6 220.771 Q689.438 220.771 687.447 221.952 Q685.456 223.132 685.456 225.98 Q685.456 228.248 686.938 229.591 Q688.442 230.91 691.012 230.91 Q694.553 230.91 696.683 228.41 Q698.836 225.887 698.836 221.72 L698.836 220.771 L694.6 220.771 M703.095 219.012 L703.095 233.804 L698.836 233.804 L698.836 229.869 Q697.377 232.23 695.201 233.364 Q693.025 234.475 689.877 234.475 Q685.896 234.475 683.535 232.253 Q681.197 230.007 681.197 226.257 Q681.197 221.882 684.113 219.66 Q687.053 217.438 692.863 217.438 L698.836 217.438 L698.836 217.021 Q698.836 214.082 696.891 212.484 Q694.97 210.864 691.475 210.864 Q689.252 210.864 687.146 211.396 Q685.039 211.929 683.095 212.994 L683.095 209.058 Q685.433 208.156 687.632 207.716 Q689.831 207.253 691.914 207.253 Q697.539 207.253 700.317 210.17 Q703.095 213.086 703.095 219.012 Z" fill="#000000" fill-rule="nonzero" fill-opacity="1" /><path clip-path="url(#clip000)" d="M711.868 207.878 L716.127 207.878 L716.127 234.267 Q716.127 239.22 714.229 241.443 Q712.354 243.665 708.164 243.665 L706.544 243.665 L706.544 240.054 L707.678 240.054 Q710.109 240.054 710.988 238.919 Q711.868 237.808 711.868 234.267 L711.868 207.878 M711.868 197.785 L716.127 197.785 L716.127 203.179 L711.868 203.179 L711.868 197.785 Z" fill="#000000" fill-rule="nonzero" fill-opacity="1" /><path clip-path="url(#clip000)" d="M747.215 219.776 L747.215 221.859 L727.632 221.859 Q727.91 226.257 730.271 228.572 Q732.655 230.864 736.891 230.864 Q739.345 230.864 741.636 230.262 Q743.951 229.66 746.22 228.457 L746.22 232.484 Q743.928 233.456 741.521 233.966 Q739.113 234.475 736.636 234.475 Q730.433 234.475 726.798 230.864 Q723.187 227.253 723.187 221.095 Q723.187 214.73 726.613 211.003 Q730.062 207.253 735.896 207.253 Q741.127 207.253 744.159 210.633 Q747.215 213.989 747.215 219.776 M742.956 218.526 Q742.909 215.031 740.988 212.947 Q739.09 210.864 735.942 210.864 Q732.377 210.864 730.224 212.878 Q728.095 214.892 727.771 218.549 L742.956 218.526 Z" fill="#000000" fill-rule="nonzero" fill-opacity="1" /><path clip-path="url(#clip000)" d="M772.863 208.873 L772.863 212.855 Q771.057 211.859 769.229 211.373 Q767.423 210.864 765.571 210.864 Q761.428 210.864 759.136 213.503 Q756.845 216.119 756.845 220.864 Q756.845 225.609 759.136 228.248 Q761.428 230.864 765.571 230.864 Q767.423 230.864 769.229 230.378 Q771.057 229.869 772.863 228.873 L772.863 232.808 Q771.081 233.642 769.159 234.058 Q767.261 234.475 765.108 234.475 Q759.252 234.475 755.803 230.794 Q752.354 227.114 752.354 220.864 Q752.354 214.521 755.826 210.887 Q759.321 207.253 765.386 207.253 Q767.354 207.253 769.229 207.67 Q771.104 208.063 772.863 208.873 Z" fill="#000000" fill-rule="nonzero" fill-opacity="1" /><path clip-path="url(#clip000)" d="M784.483 200.517 L784.483 207.878 L793.256 207.878 L793.256 211.188 L784.483 211.188 L784.483 225.262 Q784.483 228.433 785.34 229.336 Q786.219 230.239 788.881 230.239 L793.256 230.239 L793.256 233.804 L788.881 233.804 Q783.951 233.804 782.076 231.975 Q780.201 230.123 780.201 225.262 L780.201 211.188 L777.076 211.188 L777.076 207.878 L780.201 207.878 L780.201 200.517 L784.483 200.517 Z" fill="#000000" fill-rule="nonzero" fill-opacity="1" /><path clip-path="url(#clip000)" d="M808.904 210.864 Q805.479 210.864 803.488 213.549 Q801.497 216.211 801.497 220.864 Q801.497 225.517 803.465 228.202 Q805.455 230.864 808.904 230.864 Q812.307 230.864 814.298 228.179 Q816.289 225.494 816.289 220.864 Q816.289 216.258 814.298 213.572 Q812.307 210.864 808.904 210.864 M808.904 207.253 Q814.46 207.253 817.631 210.864 Q820.803 214.475 820.803 220.864 Q820.803 227.23 817.631 230.864 Q814.46 234.475 808.904 234.475 Q803.326 234.475 800.155 230.864 Q797.006 227.23 797.006 220.864 Q797.006 214.475 800.155 210.864 Q803.326 207.253 808.904 207.253 Z" fill="#000000" fill-rule="nonzero" fill-opacity="1" /><path clip-path="url(#clip000)" d="M842.886 211.859 Q842.168 211.443 841.312 211.258 Q840.478 211.049 839.46 211.049 Q835.849 211.049 833.904 213.41 Q831.983 215.748 831.983 220.146 L831.983 233.804 L827.701 233.804 L827.701 207.878 L831.983 207.878 L831.983 211.906 Q833.326 209.545 835.478 208.41 Q837.631 207.253 840.71 207.253 Q841.15 207.253 841.682 207.322 Q842.214 207.369 842.863 207.484 L842.886 211.859 Z" fill="#000000" fill-rule="nonzero" fill-opacity="1" /><path clip-path="url(#clip000)" d="M858.14 236.211 Q856.335 240.841 854.622 242.253 Q852.909 243.665 850.039 243.665 L846.636 243.665 L846.636 240.1 L849.136 240.1 Q850.895 240.1 851.867 239.267 Q852.839 238.433 854.02 235.331 L854.784 233.387 L844.298 207.878 L848.812 207.878 L856.913 228.156 L865.015 207.878 L869.529 207.878 L858.14 236.211 Z" fill="#000000" fill-rule="nonzero" fill-opacity="1" /><circle clip-path="url(#clip000)" cx="368.995" cy="268.364" r="21.2677" fill="#008000" fill-rule="evenodd" fill-opacity="1" stroke="#000000" stroke-opacity="1" stroke-width="3.02474"/>
<path clip-path="url(#clip000)" d="M482.216 252.218 L482.216 256.778 Q479.554 255.505 477.193 254.88 Q474.832 254.255 472.633 254.255 Q468.814 254.255 466.73 255.736 Q464.67 257.218 464.67 259.949 Q464.67 262.241 466.036 263.422 Q467.425 264.579 471.267 265.297 L474.091 265.875 Q479.323 266.871 481.8 269.394 Q484.3 271.894 484.3 276.107 Q484.3 281.13 480.92 283.722 Q477.564 286.315 471.059 286.315 Q468.605 286.315 465.828 285.759 Q463.073 285.204 460.11 284.116 L460.11 279.301 Q462.957 280.898 465.689 281.709 Q468.42 282.519 471.059 282.519 Q475.064 282.519 477.24 280.945 Q479.416 279.371 479.416 276.454 Q479.416 273.908 477.841 272.472 Q476.291 271.037 472.726 270.32 L469.879 269.764 Q464.647 268.723 462.309 266.5 Q459.971 264.278 459.971 260.32 Q459.971 255.736 463.189 253.098 Q466.429 250.459 472.101 250.459 Q474.531 250.459 477.054 250.899 Q479.578 251.338 482.216 252.218 Z" fill="#000000" fill-rule="nonzero" fill-opacity="1" /><path clip-path="url(#clip000)" d="M495.619 252.357 L495.619 259.718 L504.392 259.718 L504.392 263.028 L495.619 263.028 L495.619 277.102 Q495.619 280.273 496.476 281.176 Q497.355 282.079 500.017 282.079 L504.392 282.079 L504.392 285.644 L500.017 285.644 Q495.087 285.644 493.212 283.815 Q491.337 281.963 491.337 277.102 L491.337 263.028 L488.212 263.028 L488.212 259.718 L491.337 259.718 L491.337 252.357 L495.619 252.357 Z" fill="#000000" fill-rule="nonzero" fill-opacity="1" /><path clip-path="url(#clip000)" d="M521.776 272.611 Q516.614 272.611 514.624 273.792 Q512.633 274.972 512.633 277.82 Q512.633 280.088 514.114 281.431 Q515.619 282.75 518.188 282.75 Q521.73 282.75 523.86 280.25 Q526.012 277.727 526.012 273.56 L526.012 272.611 L521.776 272.611 M530.272 270.852 L530.272 285.644 L526.012 285.644 L526.012 281.709 Q524.554 284.07 522.378 285.204 Q520.202 286.315 517.054 286.315 Q513.073 286.315 510.712 284.093 Q508.374 281.847 508.374 278.097 Q508.374 273.722 511.29 271.5 Q514.23 269.278 520.04 269.278 L526.012 269.278 L526.012 268.861 Q526.012 265.922 524.068 264.324 Q522.147 262.704 518.651 262.704 Q516.429 262.704 514.323 263.236 Q512.216 263.769 510.272 264.834 L510.272 260.898 Q512.61 259.996 514.809 259.556 Q517.008 259.093 519.091 259.093 Q524.716 259.093 527.494 262.01 Q530.272 264.926 530.272 270.852 Z" fill="#000000" fill-rule="nonzero" fill-opacity="1" /><path clip-path="url(#clip000)" d="M554.068 263.699 Q553.35 263.283 552.494 263.098 Q551.66 262.889 550.642 262.889 Q547.031 262.889 545.086 265.25 Q543.165 267.588 543.165 271.986 L543.165 285.644 L538.883 285.644 L538.883 259.718 L543.165 259.718 L543.165 263.746 Q544.508 261.385 546.661 260.25 Q548.813 259.093 551.892 259.093 Q552.332 259.093 552.864 259.162 Q553.397 259.209 554.045 259.324 L554.068 263.699 Z" fill="#000000" fill-rule="nonzero" fill-opacity="1" /><path clip-path="url(#clip000)" d="M562.748 252.357 L562.748 259.718 L571.521 259.718 L571.521 263.028 L562.748 263.028 L562.748 277.102 Q562.748 280.273 563.605 281.176 Q564.484 282.079 567.147 282.079 L571.521 282.079 L571.521 285.644 L567.147 285.644 Q562.216 285.644 560.341 283.815 Q558.466 281.963 558.466 277.102 L558.466 263.028 L555.341 263.028 L555.341 259.718 L558.466 259.718 L558.466 252.357 L562.748 252.357 Z" fill="#000000" fill-rule="nonzero" fill-opacity="1" /><circle clip-path="url(#clip000)" cx="368.995" cy="320.204" r="21.2677" fill="#ff0000" fill-rule="evenodd" fill-opacity="1" stroke="#000000" stroke-opacity="1" stroke-width="3.02474"/>
<path clip-path="url(#clip000)" d="M459.971 302.924 L481.823 302.924 L481.823 306.859 L464.647 306.859 L464.647 317.09 L481.105 317.09 L481.105 321.025 L464.647 321.025 L464.647 333.549 L482.24 333.549 L482.24 337.484 L459.971 337.484 L459.971 302.924 Z" fill="#000000" fill-rule="nonzero" fill-opacity="1" /><path clip-path="url(#clip000)" d="M511.29 321.836 L511.29 337.484 L507.031 337.484 L507.031 321.975 Q507.031 318.294 505.596 316.465 Q504.161 314.637 501.29 314.637 Q497.841 314.637 495.851 316.836 Q493.86 319.035 493.86 322.831 L493.86 337.484 L489.577 337.484 L489.577 311.558 L493.86 311.558 L493.86 315.586 Q495.388 313.248 497.448 312.09 Q499.531 310.933 502.239 310.933 Q506.707 310.933 508.999 313.711 Q511.29 316.465 511.29 321.836 Z" fill="#000000" fill-rule="nonzero" fill-opacity="1" /><path clip-path="url(#clip000)" d="M536.846 315.493 L536.846 301.465 L541.105 301.465 L541.105 337.484 L536.846 337.484 L536.846 333.595 Q535.503 335.91 533.443 337.044 Q531.406 338.155 528.536 338.155 Q523.837 338.155 520.874 334.405 Q517.934 330.655 517.934 324.544 Q517.934 318.433 520.874 314.683 Q523.837 310.933 528.536 310.933 Q531.406 310.933 533.443 312.067 Q535.503 313.178 536.846 315.493 M522.332 324.544 Q522.332 329.243 524.253 331.928 Q526.198 334.59 529.577 334.59 Q532.957 334.59 534.901 331.928 Q536.846 329.243 536.846 324.544 Q536.846 319.845 534.901 317.183 Q532.957 314.498 529.577 314.498 Q526.198 314.498 524.253 317.183 Q522.332 319.845 522.332 324.544 Z" fill="#000000" fill-rule="nonzero" fill-opacity="1" /></svg>
