<?xml version="1.0" encoding="utf-8"?>
<svg xmlns="http://www.w3.org/2000/svg" xmlns:xlink="http://www.w3.org/1999/xlink" width="600" height="400" viewBox="0 0 2400 1600">
<defs>
  <clipPath id="clip950">
    <rect x="0" y="0" width="2400" height="1600"/>
  </clipPath>
</defs>
<path clip-path="url(#clip950)" d="M0 1600 L2400 1600 L2400 8.88178e-14 L0 8.88178e-14  Z" fill="#ffffff" fill-rule="evenodd" fill-opacity="1"/>
<defs>
  <clipPath id="clip951">
    <rect x="480" y="0" width="1681" height="1600"/>
  </clipPath>
</defs>
<path clip-path="url(#clip950)" d="M210.746 1423.18 L2352.76 1423.18 L2352.76 123.472 L210.746 123.472  Z" fill="#ffffff" fill-rule="evenodd" fill-opacity="1"/>
<defs>
  <clipPath id="clip952">
    <rect x="210" y="123" width="2143" height="1301"/>
  </clipPath>
</defs>
<polyline clip-path="url(#clip952)" style="stroke:#000000; stroke-linecap:round; stroke-linejoin:round; stroke-width:2; stroke-opacity:0.1; fill:none" points="434.116,1423.18 434.116,123.472 "/>
<polyline clip-path="url(#clip952)" style="stroke:#000000; stroke-linecap:round; stroke-linejoin:round; stroke-width:2; stroke-opacity:0.1; fill:none" points="754.007,1423.18 754.007,123.472 "/>
<polyline clip-path="url(#clip952)" style="stroke:#000000; stroke-linecap:round; stroke-linejoin:round; stroke-width:2; stroke-opacity:0.1; fill:none" points="1073.9,1423.18 1073.9,123.472 "/>
<polyline clip-path="url(#clip952)" style="stroke:#000000; stroke-linecap:round; stroke-linejoin:round; stroke-width:2; stroke-opacity:0.1; fill:none" points="1393.79,1423.18 1393.79,123.472 "/>
<polyline clip-path="url(#clip952)" style="stroke:#000000; stroke-linecap:round; stroke-linejoin:round; stroke-width:2; stroke-opacity:0.1; fill:none" points="1713.68,1423.18 1713.68,123.472 "/>
<polyline clip-path="url(#clip952)" style="stroke:#000000; stroke-linecap:round; stroke-linejoin:round; stroke-width:2; stroke-opacity:0.1; fill:none" points="2033.57,1423.18 2033.57,123.472 "/>
<polyline clip-path="url(#clip950)" style="stroke:#000000; stroke-linecap:round; stroke-linejoin:round; stroke-width:4; stroke-opacity:1; fill:none" points="210.746,1423.18 2352.76,1423.18 "/>
<polyline clip-path="url(#clip950)" style="stroke:#000000; stroke-linecap:round; stroke-linejoin:round; stroke-width:4; stroke-opacity:1; fill:none" points="434.116,1423.18 434.116,1404.28 "/>
<polyline clip-path="url(#clip950)" style="stroke:#000000; stroke-linecap:round; stroke-linejoin:round; stroke-width:4; stroke-opacity:1; fill:none" points="754.007,1423.18 754.007,1404.28 "/>
<polyline clip-path="url(#clip950)" style="stroke:#000000; stroke-linecap:round; stroke-linejoin:round; stroke-width:4; stroke-opacity:1; fill:none" points="1073.9,1423.18 1073.9,1404.28 "/>
<polyline clip-path="url(#clip950)" style="stroke:#000000; stroke-linecap:round; stroke-linejoin:round; stroke-width:4; stroke-opacity:1; fill:none" points="1393.79,1423.18 1393.79,1404.28 "/>
<polyline clip-path="url(#clip950)" style="stroke:#000000; stroke-linecap:round; stroke-linejoin:round; stroke-width:4; stroke-opacity:1; fill:none" points="1713.68,1423.18 1713.68,1404.28 "/>
<polyline clip-path="url(#clip950)" style="stroke:#000000; stroke-linecap:round; stroke-linejoin:round; stroke-width:4; stroke-opacity:1; fill:none" points="2033.57,1423.18 2033.57,1404.28 "/>
<path clip-path="url(#clip950)" d="M381.141 1468.75 L410.817 1468.75 L410.817 1472.69 L381.141 1472.69 L381.141 1468.75 Z" fill="#000000" fill-rule="nonzero" fill-opacity="1" /><path clip-path="url(#clip950)" d="M421.72 1481.64 L429.359 1481.64 L429.359 1455.28 L421.049 1456.95 L421.049 1452.69 L429.312 1451.02 L433.988 1451.02 L433.988 1481.64 L441.627 1481.64 L441.627 1485.58 L421.72 1485.58 L421.72 1481.64 Z" fill="#000000" fill-rule="nonzero" fill-opacity="1" /><path clip-path="url(#clip950)" d="M451.072 1479.7 L455.956 1479.7 L455.956 1485.58 L451.072 1485.58 L451.072 1479.7 Z" fill="#000000" fill-rule="nonzero" fill-opacity="1" /><path clip-path="url(#clip950)" d="M466.187 1451.02 L484.544 1451.02 L484.544 1454.96 L470.47 1454.96 L470.47 1463.43 Q471.488 1463.08 472.507 1462.92 Q473.525 1462.73 474.544 1462.73 Q480.331 1462.73 483.71 1465.9 Q487.09 1469.08 487.09 1474.49 Q487.09 1480.07 483.618 1483.17 Q480.145 1486.25 473.826 1486.25 Q471.65 1486.25 469.382 1485.88 Q467.136 1485.51 464.729 1484.77 L464.729 1480.07 Q466.812 1481.2 469.034 1481.76 Q471.257 1482.32 473.733 1482.32 Q477.738 1482.32 480.076 1480.21 Q482.414 1478.1 482.414 1474.49 Q482.414 1470.88 480.076 1468.77 Q477.738 1466.67 473.733 1466.67 Q471.858 1466.67 469.983 1467.08 Q468.132 1467.5 466.187 1468.38 L466.187 1451.02 Z" fill="#000000" fill-rule="nonzero" fill-opacity="1" /><path clip-path="url(#clip950)" d="M700.535 1468.75 L730.211 1468.75 L730.211 1472.69 L700.535 1472.69 L700.535 1468.75 Z" fill="#000000" fill-rule="nonzero" fill-opacity="1" /><path clip-path="url(#clip950)" d="M741.113 1481.64 L748.752 1481.64 L748.752 1455.28 L740.442 1456.95 L740.442 1452.69 L748.706 1451.02 L753.382 1451.02 L753.382 1481.64 L761.021 1481.64 L761.021 1485.58 L741.113 1485.58 L741.113 1481.64 Z" fill="#000000" fill-rule="nonzero" fill-opacity="1" /><path clip-path="url(#clip950)" d="M770.465 1479.7 L775.349 1479.7 L775.349 1485.58 L770.465 1485.58 L770.465 1479.7 Z" fill="#000000" fill-rule="nonzero" fill-opacity="1" /><path clip-path="url(#clip950)" d="M795.534 1454.1 Q791.923 1454.1 790.095 1457.66 Q788.289 1461.2 788.289 1468.33 Q788.289 1475.44 790.095 1479.01 Q791.923 1482.55 795.534 1482.55 Q799.169 1482.55 800.974 1479.01 Q802.803 1475.44 802.803 1468.33 Q802.803 1461.2 800.974 1457.66 Q799.169 1454.1 795.534 1454.1 M795.534 1450.39 Q801.345 1450.39 804.4 1455 Q807.479 1459.58 807.479 1468.33 Q807.479 1477.06 804.4 1481.67 Q801.345 1486.25 795.534 1486.25 Q789.724 1486.25 786.646 1481.67 Q783.59 1477.06 783.59 1468.33 Q783.59 1459.58 786.646 1455 Q789.724 1450.39 795.534 1450.39 Z" fill="#000000" fill-rule="nonzero" fill-opacity="1" /><path clip-path="url(#clip950)" d="M1020.92 1468.75 L1050.6 1468.75 L1050.6 1472.69 L1020.92 1472.69 L1020.92 1468.75 Z" fill="#000000" fill-rule="nonzero" fill-opacity="1" /><path clip-path="url(#clip950)" d="M1070.69 1454.1 Q1067.08 1454.1 1065.25 1457.66 Q1063.45 1461.2 1063.45 1468.33 Q1063.45 1475.44 1065.25 1479.01 Q1067.08 1482.55 1070.69 1482.55 Q1074.33 1482.55 1076.13 1479.01 Q1077.96 1475.44 1077.96 1468.33 Q1077.96 1461.2 1076.13 1457.66 Q1074.33 1454.1 1070.69 1454.1 M1070.69 1450.39 Q1076.5 1450.39 1079.56 1455 Q1082.64 1459.58 1082.64 1468.33 Q1082.64 1477.06 1079.56 1481.67 Q1076.5 1486.25 1070.69 1486.25 Q1064.88 1486.25 1061.8 1481.67 Q1058.75 1477.06 1058.75 1468.33 Q1058.75 1459.58 1061.8 1455 Q1064.88 1450.39 1070.69 1450.39 Z" fill="#000000" fill-rule="nonzero" fill-opacity="1" /><path clip-path="url(#clip950)" d="M1090.85 1479.7 L1095.74 1479.7 L1095.74 1485.58 L1090.85 1485.58 L1090.85 1479.7 Z" fill="#000000" fill-rule="nonzero" fill-opacity="1" /><path clip-path="url(#clip950)" d="M1105.97 1451.02 L1124.33 1451.02 L1124.33 1454.96 L1110.25 1454.96 L1110.25 1463.43 Q1111.27 1463.08 1112.29 1462.92 Q1113.31 1462.73 1114.33 1462.73 Q1120.11 1462.73 1123.49 1465.9 Q1126.87 1469.08 1126.87 1474.49 Q1126.87 1480.07 1123.4 1483.17 Q1119.93 1486.25 1113.61 1486.25 Q1111.43 1486.25 1109.16 1485.88 Q1106.92 1485.51 1104.51 1484.77 L1104.51 1480.07 Q1106.59 1481.2 1108.82 1481.76 Q1111.04 1482.32 1113.52 1482.32 Q1117.52 1482.32 1119.86 1480.21 Q1122.2 1478.1 1122.2 1474.49 Q1122.2 1470.88 1119.86 1468.77 Q1117.52 1466.67 1113.52 1466.67 Q1111.64 1466.67 1109.77 1467.08 Q1107.91 1467.5 1105.97 1468.38 L1105.97 1451.02 Z" fill="#000000" fill-rule="nonzero" fill-opacity="1" /><path clip-path="url(#clip950)" d="M1371.17 1454.1 Q1367.56 1454.1 1365.73 1457.66 Q1363.93 1461.2 1363.93 1468.33 Q1363.93 1475.44 1365.73 1479.01 Q1367.56 1482.55 1371.17 1482.55 Q1374.81 1482.55 1376.61 1479.01 Q1378.44 1475.44 1378.44 1468.33 Q1378.44 1461.2 1376.61 1457.66 Q1374.81 1454.1 1371.17 1454.1 M1371.17 1450.39 Q1376.98 1450.39 1380.04 1455 Q1383.12 1459.58 1383.12 1468.33 Q1383.12 1477.06 1380.04 1481.67 Q1376.98 1486.25 1371.17 1486.25 Q1365.36 1486.25 1362.28 1481.67 Q1359.23 1477.06 1359.23 1468.33 Q1359.23 1459.58 1362.28 1455 Q1365.36 1450.39 1371.17 1450.39 Z" fill="#000000" fill-rule="nonzero" fill-opacity="1" /><path clip-path="url(#clip950)" d="M1391.34 1479.7 L1396.22 1479.7 L1396.22 1485.58 L1391.34 1485.58 L1391.34 1479.7 Z" fill="#000000" fill-rule="nonzero" fill-opacity="1" /><path clip-path="url(#clip950)" d="M1416.41 1454.1 Q1412.79 1454.1 1410.97 1457.66 Q1409.16 1461.2 1409.16 1468.33 Q1409.16 1475.44 1410.97 1479.01 Q1412.79 1482.55 1416.41 1482.55 Q1420.04 1482.55 1421.84 1479.01 Q1423.67 1475.44 1423.67 1468.33 Q1423.67 1461.2 1421.84 1457.66 Q1420.04 1454.1 1416.41 1454.1 M1416.41 1450.39 Q1422.22 1450.39 1425.27 1455 Q1428.35 1459.58 1428.35 1468.33 Q1428.35 1477.06 1425.27 1481.67 Q1422.22 1486.25 1416.41 1486.25 Q1410.59 1486.25 1407.52 1481.67 Q1404.46 1477.06 1404.46 1468.33 Q1404.46 1459.58 1407.52 1455 Q1410.59 1450.39 1416.41 1450.39 Z" fill="#000000" fill-rule="nonzero" fill-opacity="1" /><path clip-path="url(#clip950)" d="M1691.56 1454.1 Q1687.95 1454.1 1686.12 1457.66 Q1684.32 1461.2 1684.32 1468.33 Q1684.32 1475.44 1686.12 1479.01 Q1687.95 1482.55 1691.56 1482.55 Q1695.2 1482.55 1697 1479.01 Q1698.83 1475.44 1698.83 1468.33 Q1698.83 1461.2 1697 1457.66 Q1695.2 1454.1 1691.56 1454.1 M1691.56 1450.39 Q1697.37 1450.39 1700.43 1455 Q1703.51 1459.58 1703.51 1468.33 Q1703.51 1477.06 1700.43 1481.67 Q1697.37 1486.25 1691.56 1486.25 Q1685.75 1486.25 1682.67 1481.67 Q1679.62 1477.06 1679.62 1468.33 Q1679.62 1459.58 1682.67 1455 Q1685.75 1450.39 1691.56 1450.39 Z" fill="#000000" fill-rule="nonzero" fill-opacity="1" /><path clip-path="url(#clip950)" d="M1711.72 1479.7 L1716.61 1479.7 L1716.61 1485.58 L1711.72 1485.58 L1711.72 1479.7 Z" fill="#000000" fill-rule="nonzero" fill-opacity="1" /><path clip-path="url(#clip950)" d="M1726.84 1451.02 L1745.2 1451.02 L1745.2 1454.96 L1731.12 1454.96 L1731.12 1463.43 Q1732.14 1463.08 1733.16 1462.92 Q1734.18 1462.73 1735.2 1462.73 Q1740.98 1462.73 1744.36 1465.9 Q1747.74 1469.08 1747.74 1474.49 Q1747.74 1480.07 1744.27 1483.17 Q1740.8 1486.25 1734.48 1486.25 Q1732.3 1486.25 1730.03 1485.88 Q1727.79 1485.51 1725.38 1484.77 L1725.38 1480.07 Q1727.47 1481.2 1729.69 1481.76 Q1731.91 1482.32 1734.39 1482.32 Q1738.39 1482.32 1740.73 1480.21 Q1743.07 1478.1 1743.07 1474.49 Q1743.07 1470.88 1740.73 1468.77 Q1738.39 1466.67 1734.39 1466.67 Q1732.51 1466.67 1730.64 1467.08 Q1728.78 1467.5 1726.84 1468.38 L1726.84 1451.02 Z" fill="#000000" fill-rule="nonzero" fill-opacity="1" /><path clip-path="url(#clip950)" d="M2000.72 1481.64 L2008.36 1481.64 L2008.36 1455.28 L2000.05 1456.95 L2000.05 1452.69 L2008.32 1451.02 L2012.99 1451.02 L2012.99 1481.64 L2020.63 1481.64 L2020.63 1485.58 L2000.72 1485.58 L2000.72 1481.64 Z" fill="#000000" fill-rule="nonzero" fill-opacity="1" /><path clip-path="url(#clip950)" d="M2030.08 1479.7 L2034.96 1479.7 L2034.96 1485.58 L2030.08 1485.58 L2030.08 1479.7 Z" fill="#000000" fill-rule="nonzero" fill-opacity="1" /><path clip-path="url(#clip950)" d="M2055.15 1454.1 Q2051.53 1454.1 2049.71 1457.66 Q2047.9 1461.2 2047.9 1468.33 Q2047.9 1475.44 2049.71 1479.01 Q2051.53 1482.55 2055.15 1482.55 Q2058.78 1482.55 2060.59 1479.01 Q2062.41 1475.44 2062.41 1468.33 Q2062.41 1461.2 2060.59 1457.66 Q2058.78 1454.1 2055.15 1454.1 M2055.15 1450.39 Q2060.96 1450.39 2064.01 1455 Q2067.09 1459.58 2067.09 1468.33 Q2067.09 1477.06 2064.01 1481.67 Q2060.96 1486.25 2055.15 1486.25 Q2049.34 1486.25 2046.26 1481.67 Q2043.2 1477.06 2043.2 1468.33 Q2043.2 1459.58 2046.26 1455 Q2049.34 1450.39 2055.15 1450.39 Z" fill="#000000" fill-rule="nonzero" fill-opacity="1" /><path clip-path="url(#clip950)" d="M1263.58 1520.52 L1270.48 1520.52 L1282.29 1538.19 L1294.16 1520.52 L1301.07 1520.52 L1285.79 1543.34 L1302.09 1568.04 L1295.18 1568.04 L1281.81 1547.83 L1268.35 1568.04 L1261.41 1568.04 L1278.38 1542.68 L1263.58 1520.52 Z" fill="#000000" fill-rule="nonzero" fill-opacity="1" /><polyline clip-path="url(#clip952)" style="stroke:#000000; stroke-linecap:round; stroke-linejoin:round; stroke-width:2; stroke-opacity:0.1; fill:none" points="210.746,1372.06 2352.76,1372.06 "/>
<polyline clip-path="url(#clip952)" style="stroke:#000000; stroke-linecap:round; stroke-linejoin:round; stroke-width:2; stroke-opacity:0.1; fill:none" points="210.746,1027.96 2352.76,1027.96 "/>
<polyline clip-path="url(#clip952)" style="stroke:#000000; stroke-linecap:round; stroke-linejoin:round; stroke-width:2; stroke-opacity:0.1; fill:none" points="210.746,683.862 2352.76,683.862 "/>
<polyline clip-path="url(#clip952)" style="stroke:#000000; stroke-linecap:round; stroke-linejoin:round; stroke-width:2; stroke-opacity:0.1; fill:none" points="210.746,339.764 2352.76,339.764 "/>
<polyline clip-path="url(#clip950)" style="stroke:#000000; stroke-linecap:round; stroke-linejoin:round; stroke-width:4; stroke-opacity:1; fill:none" points="210.746,1423.18 210.746,123.472 "/>
<polyline clip-path="url(#clip950)" style="stroke:#000000; stroke-linecap:round; stroke-linejoin:round; stroke-width:4; stroke-opacity:1; fill:none" points="210.746,1372.06 229.644,1372.06 "/>
<polyline clip-path="url(#clip950)" style="stroke:#000000; stroke-linecap:round; stroke-linejoin:round; stroke-width:4; stroke-opacity:1; fill:none" points="210.746,1027.96 229.644,1027.96 "/>
<polyline clip-path="url(#clip950)" style="stroke:#000000; stroke-linecap:round; stroke-linejoin:round; stroke-width:4; stroke-opacity:1; fill:none" points="210.746,683.862 229.644,683.862 "/>
<polyline clip-path="url(#clip950)" style="stroke:#000000; stroke-linecap:round; stroke-linejoin:round; stroke-width:4; stroke-opacity:1; fill:none" points="210.746,339.764 229.644,339.764 "/>
<path clip-path="url(#clip950)" d="M114.631 1372.51 L144.306 1372.51 L144.306 1376.44 L114.631 1376.44 L114.631 1372.51 Z" fill="#000000" fill-rule="nonzero" fill-opacity="1" /><path clip-path="url(#clip950)" d="M158.427 1385.4 L174.746 1385.4 L174.746 1389.34 L152.802 1389.34 L152.802 1385.4 Q155.464 1382.65 160.047 1378.02 Q164.653 1373.37 165.834 1372.02 Q168.079 1369.5 168.959 1367.76 Q169.862 1366 169.862 1364.31 Q169.862 1361.56 167.917 1359.82 Q165.996 1358.09 162.894 1358.09 Q160.695 1358.09 158.241 1358.85 Q155.811 1359.62 153.033 1361.17 L153.033 1356.44 Q155.857 1355.31 158.311 1354.73 Q160.765 1354.15 162.802 1354.15 Q168.172 1354.15 171.366 1356.84 Q174.561 1359.52 174.561 1364.01 Q174.561 1366.14 173.751 1368.06 Q172.964 1369.96 170.857 1372.56 Q170.278 1373.23 167.177 1376.44 Q164.075 1379.64 158.427 1385.4 Z" fill="#000000" fill-rule="nonzero" fill-opacity="1" /><path clip-path="url(#clip950)" d="M114.26 1028.41 L143.936 1028.41 L143.936 1032.35 L114.26 1032.35 L114.26 1028.41 Z" fill="#000000" fill-rule="nonzero" fill-opacity="1" /><path clip-path="url(#clip950)" d="M154.839 1041.3 L162.477 1041.3 L162.477 1014.94 L154.167 1016.61 L154.167 1012.35 L162.431 1010.68 L167.107 1010.68 L167.107 1041.3 L174.746 1041.3 L174.746 1045.24 L154.839 1045.24 L154.839 1041.3 Z" fill="#000000" fill-rule="nonzero" fill-opacity="1" /><path clip-path="url(#clip950)" d="M162.802 669.661 Q159.19 669.661 157.362 673.226 Q155.556 676.767 155.556 683.897 Q155.556 691.003 157.362 694.568 Q159.19 698.11 162.802 698.11 Q166.436 698.11 168.241 694.568 Q170.07 691.003 170.07 683.897 Q170.07 676.767 168.241 673.226 Q166.436 669.661 162.802 669.661 M162.802 665.957 Q168.612 665.957 171.667 670.564 Q174.746 675.147 174.746 683.897 Q174.746 692.624 171.667 697.23 Q168.612 701.813 162.802 701.813 Q156.991 701.813 153.913 697.23 Q150.857 692.624 150.857 683.897 Q150.857 675.147 153.913 670.564 Q156.991 665.957 162.802 665.957 Z" fill="#000000" fill-rule="nonzero" fill-opacity="1" /><path clip-path="url(#clip950)" d="M154.839 353.109 L162.477 353.109 L162.477 326.744 L154.167 328.41 L154.167 324.151 L162.431 322.484 L167.107 322.484 L167.107 353.109 L174.746 353.109 L174.746 357.044 L154.839 357.044 L154.839 353.109 Z" fill="#000000" fill-rule="nonzero" fill-opacity="1" /><path clip-path="url(#clip950)" d="M16.4842 793.362 L16.4842 786.455 L36.0269 773.278 L16.4842 760.197 L16.4842 753.29 L41.3741 770.095 L64.0042 770.095 L64.0042 776.557 L41.3741 776.557 L16.4842 793.362 Z" fill="#000000" fill-rule="nonzero" fill-opacity="1" /><path clip-path="url(#clip950)" d="M409.024 65.6895 L437.583 65.6895 L437.583 72.576 L399.18 72.576 L399.18 65.6895 Q403.839 60.8689 411.86 52.7671 Q419.921 44.6248 421.987 42.2752 Q425.916 37.8598 427.456 34.8216 Q429.036 31.7429 429.036 28.7857 Q429.036 23.9651 425.633 20.927 Q422.271 17.8888 416.842 17.8888 Q412.994 17.8888 408.7 19.2256 Q404.447 20.5624 399.586 23.2765 L399.586 15.0127 Q404.528 13.0277 408.822 12.015 Q413.116 11.0023 416.68 11.0023 Q426.078 11.0023 431.669 15.7013 Q437.259 20.4004 437.259 28.2591 Q437.259 31.9859 435.841 35.3482 Q434.464 38.6699 430.777 43.2069 Q429.765 44.3817 424.337 50.0125 Q418.908 55.6027 409.024 65.6895 Z" fill="#000000" fill-rule="nonzero" fill-opacity="1" /><path clip-path="url(#clip950)" d="M462.212 18.8205 L462.212 65.8515 L472.097 65.8515 Q484.614 65.8515 490.407 60.1802 Q496.24 54.509 496.24 42.2752 Q496.24 30.1225 490.407 24.4918 Q484.614 18.8205 472.097 18.8205 L462.212 18.8205 M454.03 12.096 L470.841 12.096 Q488.422 12.096 496.645 19.4281 Q504.869 26.7198 504.869 42.2752 Q504.869 57.9117 496.605 65.2439 Q488.341 72.576 470.841 72.576 L454.03 72.576 L454.03 12.096 Z" fill="#000000" fill-rule="nonzero" fill-opacity="1" /><path clip-path="url(#clip950)" d="M540.8 12.096 L588.317 12.096 L588.317 18.3344 L550.077 65.6895 L589.249 65.6895 L589.249 72.576 L539.868 72.576 L539.868 66.3376 L578.109 18.9825 L540.8 18.9825 L540.8 12.096 Z" fill="#000000" fill-rule="nonzero" fill-opacity="1" /><path clip-path="url(#clip950)" d="M600.794 27.2059 L608.248 27.2059 L608.248 72.576 L600.794 72.576 L600.794 27.2059 M600.794 9.54393 L608.248 9.54393 L608.248 18.9825 L600.794 18.9825 L600.794 9.54393 Z" fill="#000000" fill-rule="nonzero" fill-opacity="1" /><path clip-path="url(#clip950)" d="M653.699 49.3643 Q653.699 41.2625 650.336 36.8065 Q647.015 32.3505 640.979 32.3505 Q634.984 32.3505 631.621 36.8065 Q628.3 41.2625 628.3 49.3643 Q628.3 57.4256 631.621 61.8816 Q634.984 66.3376 640.979 66.3376 Q647.015 66.3376 650.336 61.8816 Q653.699 57.4256 653.699 49.3643 M661.152 66.9452 Q661.152 78.5308 656.008 84.1616 Q650.863 89.8329 640.25 89.8329 Q636.32 89.8329 632.837 89.2252 Q629.353 88.6581 626.072 87.4428 L626.072 80.1917 Q629.353 81.9741 632.553 82.8248 Q635.753 83.6755 639.075 83.6755 Q646.407 83.6755 650.053 79.8271 Q653.699 76.0193 653.699 68.282 L653.699 64.5957 Q651.39 68.6061 647.784 70.5911 Q644.179 72.576 639.156 72.576 Q630.811 72.576 625.707 66.2161 Q620.603 59.8562 620.603 49.3643 Q620.603 38.832 625.707 32.472 Q630.811 26.1121 639.156 26.1121 Q644.179 26.1121 647.784 28.0971 Q651.39 30.082 653.699 34.0924 L653.699 27.2059 L661.152 27.2059 L661.152 66.9452 Z" fill="#000000" fill-rule="nonzero" fill-opacity="1" /><path clip-path="url(#clip950)" d="M673.346 12.096 L720.863 12.096 L720.863 18.3344 L682.622 65.6895 L721.794 65.6895 L721.794 72.576 L672.414 72.576 L672.414 66.3376 L710.654 18.9825 L673.346 18.9825 L673.346 12.096 Z" fill="#000000" fill-rule="nonzero" fill-opacity="1" /><path clip-path="url(#clip950)" d="M753.959 49.7694 Q744.925 49.7694 741.441 51.8354 Q737.958 53.9013 737.958 58.8839 Q737.958 62.8538 740.55 65.2034 Q743.183 67.5124 747.68 67.5124 Q753.878 67.5124 757.604 63.1374 Q761.372 58.7219 761.372 51.4303 L761.372 49.7694 L753.959 49.7694 M768.825 46.6907 L768.825 72.576 L761.372 72.576 L761.372 65.6895 Q758.82 69.8214 755.012 71.8063 Q751.204 73.7508 745.695 73.7508 Q738.727 73.7508 734.595 69.8619 Q730.504 65.9325 730.504 59.3701 Q730.504 51.7138 735.608 47.825 Q740.753 43.9361 750.92 43.9361 L761.372 43.9361 L761.372 43.2069 Q761.372 38.0623 757.969 35.2672 Q754.607 32.4315 748.49 32.4315 Q744.601 32.4315 740.915 33.3632 Q737.228 34.295 733.826 36.1584 L733.826 29.2718 Q737.917 27.692 741.765 26.9223 Q745.614 26.1121 749.26 26.1121 Q759.103 26.1121 763.964 31.2163 Q768.825 36.3204 768.825 46.6907 Z" fill="#000000" fill-rule="nonzero" fill-opacity="1" /><path clip-path="url(#clip950)" d="M814.034 49.3643 Q814.034 41.2625 810.671 36.8065 Q807.35 32.3505 801.314 32.3505 Q795.318 32.3505 791.956 36.8065 Q788.634 41.2625 788.634 49.3643 Q788.634 57.4256 791.956 61.8816 Q795.318 66.3376 801.314 66.3376 Q807.35 66.3376 810.671 61.8816 Q814.034 57.4256 814.034 49.3643 M821.487 66.9452 Q821.487 78.5308 816.343 84.1616 Q811.198 89.8329 800.585 89.8329 Q796.655 89.8329 793.171 89.2252 Q789.688 88.6581 786.406 87.4428 L786.406 80.1917 Q789.688 81.9741 792.888 82.8248 Q796.088 83.6755 799.41 83.6755 Q806.742 83.6755 810.388 79.8271 Q814.034 76.0193 814.034 68.282 L814.034 64.5957 Q811.725 68.6061 808.119 70.5911 Q804.514 72.576 799.491 72.576 Q791.146 72.576 786.042 66.2161 Q780.938 59.8562 780.938 49.3643 Q780.938 38.832 786.042 32.472 Q791.146 26.1121 799.491 26.1121 Q804.514 26.1121 808.119 28.0971 Q811.725 30.082 814.034 34.0924 L814.034 27.2059 L821.487 27.2059 L821.487 66.9452 Z" fill="#000000" fill-rule="nonzero" fill-opacity="1" /><path clip-path="url(#clip950)" d="M899.791 14.0809 L899.791 22.0612 Q895.133 19.8332 891.001 18.7395 Q886.869 17.6457 883.02 17.6457 Q876.336 17.6457 872.691 20.2383 Q869.085 22.8309 869.085 27.611 Q869.085 31.6214 871.475 33.6873 Q873.906 35.7128 880.63 36.9686 L885.572 37.9813 Q894.728 39.7232 899.062 44.1387 Q903.437 48.5136 903.437 55.8863 Q903.437 64.6767 897.523 69.2137 Q891.649 73.7508 880.266 73.7508 Q875.972 73.7508 871.111 72.7785 Q866.29 71.8063 861.105 69.9024 L861.105 61.4765 Q866.088 64.2716 870.868 65.6895 Q875.648 67.1073 880.266 67.1073 Q887.274 67.1073 891.082 64.3527 Q894.89 61.598 894.89 56.4939 Q894.89 52.0379 892.135 49.5264 Q889.421 47.0148 883.182 45.759 L878.2 44.7868 Q869.045 42.9639 864.953 39.075 Q860.862 35.1862 860.862 28.2591 Q860.862 20.2383 866.493 15.6203 Q872.164 11.0023 882.089 11.0023 Q886.342 11.0023 890.758 11.7719 Q895.173 12.5416 899.791 14.0809 Z" fill="#000000" fill-rule="nonzero" fill-opacity="1" /><path clip-path="url(#clip950)" d="M936.492 49.7694 Q927.459 49.7694 923.975 51.8354 Q920.491 53.9013 920.491 58.8839 Q920.491 62.8538 923.084 65.2034 Q925.717 67.5124 930.213 67.5124 Q936.411 67.5124 940.138 63.1374 Q943.906 58.7219 943.906 51.4303 L943.906 49.7694 L936.492 49.7694 M951.359 46.6907 L951.359 72.576 L943.906 72.576 L943.906 65.6895 Q941.353 69.8214 937.546 71.8063 Q933.738 73.7508 928.229 73.7508 Q921.261 73.7508 917.129 69.8619 Q913.038 65.9325 913.038 59.3701 Q913.038 51.7138 918.142 47.825 Q923.286 43.9361 933.454 43.9361 L943.906 43.9361 L943.906 43.2069 Q943.906 38.0623 940.503 35.2672 Q937.141 32.4315 931.024 32.4315 Q927.135 32.4315 923.448 33.3632 Q919.762 34.295 916.359 36.1584 L916.359 29.2718 Q920.451 27.692 924.299 26.9223 Q928.147 26.1121 931.793 26.1121 Q941.637 26.1121 946.498 31.2163 Q951.359 36.3204 951.359 46.6907 Z" fill="#000000" fill-rule="nonzero" fill-opacity="1" /><path clip-path="url(#clip950)" d="M1002.04 35.9153 Q1004.83 30.8922 1008.72 28.5022 Q1012.61 26.1121 1017.88 26.1121 Q1024.96 26.1121 1028.81 31.0947 Q1032.66 36.0368 1032.66 45.1919 L1032.66 72.576 L1025.17 72.576 L1025.17 45.4349 Q1025.17 38.913 1022.86 35.7533 Q1020.55 32.5936 1015.81 32.5936 Q1010.02 32.5936 1006.65 36.4419 Q1003.29 40.2903 1003.29 46.9338 L1003.29 72.576 L995.798 72.576 L995.798 45.4349 Q995.798 38.8725 993.489 35.7533 Q991.18 32.5936 986.359 32.5936 Q980.647 32.5936 977.285 36.4824 Q973.923 40.3308 973.923 46.9338 L973.923 72.576 L966.429 72.576 L966.429 27.2059 L973.923 27.2059 L973.923 34.2544 Q976.475 30.082 980.04 28.0971 Q983.604 26.1121 988.506 26.1121 Q993.448 26.1121 996.891 28.6237 Q1000.38 31.1352 1002.04 35.9153 Z" fill="#000000" fill-rule="nonzero" fill-opacity="1" /><path clip-path="url(#clip950)" d="M1054.74 65.7705 L1054.74 89.8329 L1047.24 89.8329 L1047.24 27.2059 L1054.74 27.2059 L1054.74 34.0924 Q1057.09 30.0415 1060.65 28.0971 Q1064.26 26.1121 1069.24 26.1121 Q1077.5 26.1121 1082.65 32.6746 Q1087.83 39.2371 1087.83 49.9314 Q1087.83 60.6258 1082.65 67.1883 Q1077.5 73.7508 1069.24 73.7508 Q1064.26 73.7508 1060.65 71.8063 Q1057.09 69.8214 1054.74 65.7705 M1080.1 49.9314 Q1080.1 41.7081 1076.69 37.0496 Q1073.33 32.3505 1067.42 32.3505 Q1061.5 32.3505 1058.1 37.0496 Q1054.74 41.7081 1054.74 49.9314 Q1054.74 58.1548 1058.1 62.8538 Q1061.5 67.5124 1067.42 67.5124 Q1073.33 67.5124 1076.69 62.8538 Q1080.1 58.1548 1080.1 49.9314 Z" fill="#000000" fill-rule="nonzero" fill-opacity="1" /><path clip-path="url(#clip950)" d="M1100.19 9.54393 L1107.64 9.54393 L1107.64 72.576 L1100.19 72.576 L1100.19 9.54393 Z" fill="#000000" fill-rule="nonzero" fill-opacity="1" /><path clip-path="url(#clip950)" d="M1162.05 48.0275 L1162.05 51.6733 L1127.78 51.6733 Q1128.26 59.3701 1132.39 63.421 Q1136.57 67.4314 1143.98 67.4314 Q1148.27 67.4314 1152.28 66.3781 Q1156.33 65.3249 1160.3 63.2184 L1160.3 70.267 Q1156.29 71.9684 1152.08 72.8596 Q1147.87 73.7508 1143.53 73.7508 Q1132.68 73.7508 1126.32 67.4314 Q1120 61.1119 1120 50.3365 Q1120 39.1965 1125.99 32.6746 Q1132.03 26.1121 1142.24 26.1121 Q1151.39 26.1121 1156.7 32.0264 Q1162.05 37.9003 1162.05 48.0275 M1154.59 45.84 Q1154.51 39.7232 1151.15 36.0774 Q1147.83 32.4315 1142.32 32.4315 Q1136.08 32.4315 1132.31 35.9558 Q1128.59 39.4801 1128.02 45.8805 L1154.59 45.84 Z" fill="#000000" fill-rule="nonzero" fill-opacity="1" /><path clip-path="url(#clip950)" d="M1200.57 34.1734 Q1199.32 33.4443 1197.82 33.1202 Q1196.36 32.7556 1194.58 32.7556 Q1188.26 32.7556 1184.85 36.8875 Q1181.49 40.9789 1181.49 48.6757 L1181.49 72.576 L1174 72.576 L1174 27.2059 L1181.49 27.2059 L1181.49 34.2544 Q1183.84 30.1225 1187.61 28.1376 Q1191.38 26.1121 1196.76 26.1121 Q1197.53 26.1121 1198.46 26.2337 Q1199.4 26.3147 1200.53 26.5172 L1200.57 34.1734 Z" fill="#000000" fill-rule="nonzero" fill-opacity="1" /><path clip-path="url(#clip950)" d="M1252.67 9.62495 Q1247.24 18.942 1244.6 28.0566 Q1241.97 37.1711 1241.97 46.5287 Q1241.97 55.8863 1244.6 65.0818 Q1247.28 74.2369 1252.67 83.5134 L1246.18 83.5134 Q1240.11 73.9938 1237.07 64.7983 Q1234.07 55.6027 1234.07 46.5287 Q1234.07 37.4952 1237.07 28.3401 Q1240.07 19.1851 1246.18 9.62495 L1252.67 9.62495 Z" fill="#000000" fill-rule="nonzero" fill-opacity="1" /><path clip-path="url(#clip950)" d="M1308.69 63.9476 L1308.69 47.7034 L1295.32 47.7034 L1295.32 40.9789 L1316.79 40.9789 L1316.79 66.9452 Q1312.05 70.3075 1306.34 72.0494 Q1300.63 73.7508 1294.15 73.7508 Q1279.97 73.7508 1271.95 65.4869 Q1263.97 57.1826 1263.97 42.3968 Q1263.97 27.5705 1271.95 19.3066 Q1279.97 11.0023 1294.15 11.0023 Q1300.06 11.0023 1305.37 12.4606 Q1310.71 13.9189 1315.21 16.7545 L1315.21 25.464 Q1310.67 21.6156 1305.57 19.6712 Q1300.47 17.7268 1294.84 17.7268 Q1283.74 17.7268 1278.15 23.9246 Q1272.6 30.1225 1272.6 42.3968 Q1272.6 54.6305 1278.15 60.8284 Q1283.74 67.0263 1294.84 67.0263 Q1299.17 67.0263 1302.57 66.2971 Q1305.98 65.5274 1308.69 63.9476 Z" fill="#000000" fill-rule="nonzero" fill-opacity="1" /><path clip-path="url(#clip950)" d="M1352.03 49.7694 Q1343 49.7694 1339.52 51.8354 Q1336.03 53.9013 1336.03 58.8839 Q1336.03 62.8538 1338.63 65.2034 Q1341.26 67.5124 1345.76 67.5124 Q1351.95 67.5124 1355.68 63.1374 Q1359.45 58.7219 1359.45 51.4303 L1359.45 49.7694 L1352.03 49.7694 M1366.9 46.6907 L1366.9 72.576 L1359.45 72.576 L1359.45 65.6895 Q1356.9 69.8214 1353.09 71.8063 Q1349.28 73.7508 1343.77 73.7508 Q1336.8 73.7508 1332.67 69.8619 Q1328.58 65.9325 1328.58 59.3701 Q1328.58 51.7138 1333.68 47.825 Q1338.83 43.9361 1349 43.9361 L1359.45 43.9361 L1359.45 43.2069 Q1359.45 38.0623 1356.04 35.2672 Q1352.68 32.4315 1346.57 32.4315 Q1342.68 32.4315 1338.99 33.3632 Q1335.3 34.295 1331.9 36.1584 L1331.9 29.2718 Q1335.99 27.692 1339.84 26.9223 Q1343.69 26.1121 1347.34 26.1121 Q1357.18 26.1121 1362.04 31.2163 Q1366.9 36.3204 1366.9 46.6907 Z" fill="#000000" fill-rule="nonzero" fill-opacity="1" /><path clip-path="url(#clip950)" d="M1381.48 54.671 L1381.48 27.2059 L1388.94 27.2059 L1388.94 54.3874 Q1388.94 60.8284 1391.45 64.0691 Q1393.96 67.2693 1398.98 67.2693 Q1405.02 67.2693 1408.5 63.421 Q1412.03 59.5726 1412.03 52.9291 L1412.03 27.2059 L1419.48 27.2059 L1419.48 72.576 L1412.03 72.576 L1412.03 65.6084 Q1409.31 69.7404 1405.71 71.7658 Q1402.14 73.7508 1397.4 73.7508 Q1389.59 73.7508 1385.54 68.8897 Q1381.48 64.0286 1381.48 54.671 M1400.24 26.1121 L1400.24 26.1121 Z" fill="#000000" fill-rule="nonzero" fill-opacity="1" /><path clip-path="url(#clip950)" d="M1463.76 28.5427 L1463.76 35.5912 Q1460.6 33.9709 1457.2 33.1607 Q1453.79 32.3505 1450.15 32.3505 Q1444.6 32.3505 1441.8 34.0519 Q1439.05 35.7533 1439.05 39.156 Q1439.05 41.7486 1441.03 43.2475 Q1443.02 44.7058 1449.01 46.0426 L1451.56 46.6097 Q1459.5 48.3111 1462.83 51.4303 Q1466.19 54.509 1466.19 60.0587 Q1466.19 66.3781 1461.17 70.0644 Q1456.18 73.7508 1447.43 73.7508 Q1443.79 73.7508 1439.82 73.0216 Q1435.89 72.3329 1431.51 70.9151 L1431.51 63.2184 Q1435.64 65.3654 1439.66 66.4591 Q1443.67 67.5124 1447.59 67.5124 Q1452.86 67.5124 1455.7 65.73 Q1458.53 63.9071 1458.53 60.6258 Q1458.53 57.5877 1456.47 55.9673 Q1454.44 54.3469 1447.51 52.8481 L1444.92 52.2405 Q1437.99 50.7821 1434.92 47.7845 Q1431.84 44.7463 1431.84 39.4801 Q1431.84 33.0797 1436.37 29.5959 Q1440.91 26.1121 1449.26 26.1121 Q1453.39 26.1121 1457.03 26.7198 Q1460.68 27.3274 1463.76 28.5427 Z" fill="#000000" fill-rule="nonzero" fill-opacity="1" /><path clip-path="url(#clip950)" d="M1506.98 28.5427 L1506.98 35.5912 Q1503.82 33.9709 1500.42 33.1607 Q1497.02 32.3505 1493.37 32.3505 Q1487.82 32.3505 1485.03 34.0519 Q1482.27 35.7533 1482.27 39.156 Q1482.27 41.7486 1484.26 43.2475 Q1486.24 44.7058 1492.24 46.0426 L1494.79 46.6097 Q1502.73 48.3111 1506.05 51.4303 Q1509.41 54.509 1509.41 60.0587 Q1509.41 66.3781 1504.39 70.0644 Q1499.41 73.7508 1490.66 73.7508 Q1487.01 73.7508 1483.04 73.0216 Q1479.11 72.3329 1474.74 70.9151 L1474.74 63.2184 Q1478.87 65.3654 1482.88 66.4591 Q1486.89 67.5124 1490.82 67.5124 Q1496.08 67.5124 1498.92 65.73 Q1501.76 63.9071 1501.76 60.6258 Q1501.76 57.5877 1499.69 55.9673 Q1497.66 54.3469 1490.74 52.8481 L1488.14 52.2405 Q1481.22 50.7821 1478.14 47.7845 Q1475.06 44.7463 1475.06 39.4801 Q1475.06 33.0797 1479.6 29.5959 Q1484.13 26.1121 1492.48 26.1121 Q1496.61 26.1121 1500.26 26.7198 Q1503.9 27.3274 1506.98 28.5427 Z" fill="#000000" fill-rule="nonzero" fill-opacity="1" /><path clip-path="url(#clip950)" d="M1521.28 27.2059 L1528.73 27.2059 L1528.73 72.576 L1521.28 72.576 L1521.28 27.2059 M1521.28 9.54393 L1528.73 9.54393 L1528.73 18.9825 L1521.28 18.9825 L1521.28 9.54393 Z" fill="#000000" fill-rule="nonzero" fill-opacity="1" /><path clip-path="url(#clip950)" d="M1564.95 49.7694 Q1555.92 49.7694 1552.43 51.8354 Q1548.95 53.9013 1548.95 58.8839 Q1548.95 62.8538 1551.54 65.2034 Q1554.17 67.5124 1558.67 67.5124 Q1564.87 67.5124 1568.6 63.1374 Q1572.36 58.7219 1572.36 51.4303 L1572.36 49.7694 L1564.95 49.7694 M1579.82 46.6907 L1579.82 72.576 L1572.36 72.576 L1572.36 65.6895 Q1569.81 69.8214 1566 71.8063 Q1562.2 73.7508 1556.69 73.7508 Q1549.72 73.7508 1545.59 69.8619 Q1541.49 65.9325 1541.49 59.3701 Q1541.49 51.7138 1546.6 47.825 Q1551.74 43.9361 1561.91 43.9361 L1572.36 43.9361 L1572.36 43.2069 Q1572.36 38.0623 1568.96 35.2672 Q1565.6 32.4315 1559.48 32.4315 Q1555.59 32.4315 1551.91 33.3632 Q1548.22 34.295 1544.82 36.1584 L1544.82 29.2718 Q1548.91 27.692 1552.76 26.9223 Q1556.6 26.1121 1560.25 26.1121 Q1570.09 26.1121 1574.96 31.2163 Q1579.82 36.3204 1579.82 46.6907 Z" fill="#000000" fill-rule="nonzero" fill-opacity="1" /><path clip-path="url(#clip950)" d="M1632.88 45.1919 L1632.88 72.576 L1625.43 72.576 L1625.43 45.4349 Q1625.43 38.994 1622.92 35.7938 Q1620.41 32.5936 1615.38 32.5936 Q1609.35 32.5936 1605.86 36.4419 Q1602.38 40.2903 1602.38 46.9338 L1602.38 72.576 L1594.89 72.576 L1594.89 27.2059 L1602.38 27.2059 L1602.38 34.2544 Q1605.05 30.163 1608.66 28.1376 Q1612.3 26.1121 1617.04 26.1121 Q1624.86 26.1121 1628.87 30.9732 Q1632.88 35.7938 1632.88 45.1919 Z" fill="#000000" fill-rule="nonzero" fill-opacity="1" /><path clip-path="url(#clip950)" d="M1703.98 34.0924 L1703.98 9.54393 L1711.43 9.54393 L1711.43 72.576 L1703.98 72.576 L1703.98 65.7705 Q1701.63 69.8214 1698.02 71.8063 Q1694.46 73.7508 1689.43 73.7508 Q1681.21 73.7508 1676.03 67.1883 Q1670.88 60.6258 1670.88 49.9314 Q1670.88 39.2371 1676.03 32.6746 Q1681.21 26.1121 1689.43 26.1121 Q1694.46 26.1121 1698.02 28.0971 Q1701.63 30.0415 1703.98 34.0924 M1678.58 49.9314 Q1678.58 58.1548 1681.94 62.8538 Q1685.34 67.5124 1691.26 67.5124 Q1697.17 67.5124 1700.57 62.8538 Q1703.98 58.1548 1703.98 49.9314 Q1703.98 41.7081 1700.57 37.0496 Q1697.17 32.3505 1691.26 32.3505 Q1685.34 32.3505 1681.94 37.0496 Q1678.58 41.7081 1678.58 49.9314 Z" fill="#000000" fill-rule="nonzero" fill-opacity="1" /><path clip-path="url(#clip950)" d="M1726.78 27.2059 L1734.24 27.2059 L1734.24 72.576 L1726.78 72.576 L1726.78 27.2059 M1726.78 9.54393 L1734.24 9.54393 L1734.24 18.9825 L1726.78 18.9825 L1726.78 9.54393 Z" fill="#000000" fill-rule="nonzero" fill-opacity="1" /><path clip-path="url(#clip950)" d="M1778.76 28.5427 L1778.76 35.5912 Q1775.6 33.9709 1772.19 33.1607 Q1768.79 32.3505 1765.15 32.3505 Q1759.6 32.3505 1756.8 34.0519 Q1754.05 35.7533 1754.05 39.156 Q1754.05 41.7486 1756.03 43.2475 Q1758.02 44.7058 1764.01 46.0426 L1766.56 46.6097 Q1774.5 48.3111 1777.82 51.4303 Q1781.19 54.509 1781.19 60.0587 Q1781.19 66.3781 1776.16 70.0644 Q1771.18 73.7508 1762.43 73.7508 Q1758.79 73.7508 1754.82 73.0216 Q1750.89 72.3329 1746.51 70.9151 L1746.51 63.2184 Q1750.64 65.3654 1754.65 66.4591 Q1758.66 67.5124 1762.59 67.5124 Q1767.86 67.5124 1770.7 65.73 Q1773.53 63.9071 1773.53 60.6258 Q1773.53 57.5877 1771.46 55.9673 Q1769.44 54.3469 1762.51 52.8481 L1759.92 52.2405 Q1752.99 50.7821 1749.91 47.7845 Q1746.84 44.7463 1746.84 39.4801 Q1746.84 33.0797 1751.37 29.5959 Q1755.91 26.1121 1764.25 26.1121 Q1768.39 26.1121 1772.03 26.7198 Q1775.68 27.3274 1778.76 28.5427 Z" fill="#000000" fill-rule="nonzero" fill-opacity="1" /><path clip-path="url(#clip950)" d="M1800.43 14.324 L1800.43 27.2059 L1815.78 27.2059 L1815.78 32.9987 L1800.43 32.9987 L1800.43 57.6282 Q1800.43 63.1779 1801.93 64.7578 Q1803.47 66.3376 1808.13 66.3376 L1815.78 66.3376 L1815.78 72.576 L1808.13 72.576 Q1799.5 72.576 1796.22 69.3758 Q1792.93 66.1351 1792.93 57.6282 L1792.93 32.9987 L1787.47 32.9987 L1787.47 27.2059 L1792.93 27.2059 L1792.93 14.324 L1800.43 14.324 Z" fill="#000000" fill-rule="nonzero" fill-opacity="1" /><path clip-path="url(#clip950)" d="M1851.88 34.1734 Q1850.62 33.4443 1849.12 33.1202 Q1847.66 32.7556 1845.88 32.7556 Q1839.56 32.7556 1836.16 36.8875 Q1832.8 40.9789 1832.8 48.6757 L1832.8 72.576 L1825.3 72.576 L1825.3 27.2059 L1832.8 27.2059 L1832.8 34.2544 Q1835.14 30.1225 1838.91 28.1376 Q1842.68 26.1121 1848.07 26.1121 Q1848.84 26.1121 1849.77 26.2337 Q1850.7 26.3147 1851.83 26.5172 L1851.88 34.1734 Z" fill="#000000" fill-rule="nonzero" fill-opacity="1" /><path clip-path="url(#clip950)" d="M1859.69 27.2059 L1867.15 27.2059 L1867.15 72.576 L1859.69 72.576 L1859.69 27.2059 M1859.69 9.54393 L1867.15 9.54393 L1867.15 18.9825 L1859.69 18.9825 L1859.69 9.54393 Z" fill="#000000" fill-rule="nonzero" fill-opacity="1" /><path clip-path="url(#clip950)" d="M1915.31 49.9314 Q1915.31 41.7081 1911.91 37.0496 Q1908.55 32.3505 1902.63 32.3505 Q1896.72 32.3505 1893.32 37.0496 Q1889.95 41.7081 1889.95 49.9314 Q1889.95 58.1548 1893.32 62.8538 Q1896.72 67.5124 1902.63 67.5124 Q1908.55 67.5124 1911.91 62.8538 Q1915.31 58.1548 1915.31 49.9314 M1889.95 34.0924 Q1892.3 30.0415 1895.87 28.0971 Q1899.47 26.1121 1904.46 26.1121 Q1912.72 26.1121 1917.86 32.6746 Q1923.05 39.2371 1923.05 49.9314 Q1923.05 60.6258 1917.86 67.1883 Q1912.72 73.7508 1904.46 73.7508 Q1899.47 73.7508 1895.87 71.8063 Q1892.3 69.8214 1889.95 65.7705 L1889.95 72.576 L1882.46 72.576 L1882.46 9.54393 L1889.95 9.54393 L1889.95 34.0924 Z" fill="#000000" fill-rule="nonzero" fill-opacity="1" /><path clip-path="url(#clip950)" d="M1934.64 54.671 L1934.64 27.2059 L1942.09 27.2059 L1942.09 54.3874 Q1942.09 60.8284 1944.6 64.0691 Q1947.11 67.2693 1952.14 67.2693 Q1958.17 67.2693 1961.65 63.421 Q1965.18 59.5726 1965.18 52.9291 L1965.18 27.2059 L1972.63 27.2059 L1972.63 72.576 L1965.18 72.576 L1965.18 65.6084 Q1962.46 69.7404 1958.86 71.7658 Q1955.29 73.7508 1950.56 73.7508 Q1942.74 73.7508 1938.69 68.8897 Q1934.64 64.0286 1934.64 54.671 M1953.39 26.1121 L1953.39 26.1121 Z" fill="#000000" fill-rule="nonzero" fill-opacity="1" /><path clip-path="url(#clip950)" d="M1995.36 14.324 L1995.36 27.2059 L2010.71 27.2059 L2010.71 32.9987 L1995.36 32.9987 L1995.36 57.6282 Q1995.36 63.1779 1996.86 64.7578 Q1998.4 66.3376 2003.05 66.3376 L2010.71 66.3376 L2010.71 72.576 L2003.05 72.576 Q1994.43 72.576 1991.15 69.3758 Q1987.86 66.1351 1987.86 57.6282 L1987.86 32.9987 L1982.4 32.9987 L1982.4 27.2059 L1987.86 27.2059 L1987.86 14.324 L1995.36 14.324 Z" fill="#000000" fill-rule="nonzero" fill-opacity="1" /><path clip-path="url(#clip950)" d="M2020.51 27.2059 L2027.97 27.2059 L2027.97 72.576 L2020.51 72.576 L2020.51 27.2059 M2020.51 9.54393 L2027.97 9.54393 L2027.97 18.9825 L2020.51 18.9825 L2020.51 9.54393 Z" fill="#000000" fill-rule="nonzero" fill-opacity="1" /><path clip-path="url(#clip950)" d="M2061.14 32.4315 Q2055.15 32.4315 2051.67 37.1306 Q2048.18 41.7891 2048.18 49.9314 Q2048.18 58.0738 2051.63 62.7728 Q2055.11 67.4314 2061.14 67.4314 Q2067.1 67.4314 2070.58 62.7323 Q2074.07 58.0333 2074.07 49.9314 Q2074.07 41.8701 2070.58 37.1711 Q2067.1 32.4315 2061.14 32.4315 M2061.14 26.1121 Q2070.87 26.1121 2076.42 32.4315 Q2081.97 38.7509 2081.97 49.9314 Q2081.97 61.0714 2076.42 67.4314 Q2070.87 73.7508 2061.14 73.7508 Q2051.38 73.7508 2045.83 67.4314 Q2040.32 61.0714 2040.32 49.9314 Q2040.32 38.7509 2045.83 32.4315 Q2051.38 26.1121 2061.14 26.1121 Z" fill="#000000" fill-rule="nonzero" fill-opacity="1" /><path clip-path="url(#clip950)" d="M2132.04 45.1919 L2132.04 72.576 L2124.58 72.576 L2124.58 45.4349 Q2124.58 38.994 2122.07 35.7938 Q2119.56 32.5936 2114.54 32.5936 Q2108.5 32.5936 2105.02 36.4419 Q2101.53 40.2903 2101.53 46.9338 L2101.53 72.576 L2094.04 72.576 L2094.04 27.2059 L2101.53 27.2059 L2101.53 34.2544 Q2104.21 30.163 2107.81 28.1376 Q2111.46 26.1121 2116.2 26.1121 Q2124.01 26.1121 2128.03 30.9732 Q2132.04 35.7938 2132.04 45.1919 Z" fill="#000000" fill-rule="nonzero" fill-opacity="1" /><path clip-path="url(#clip950)" d="M2145.73 9.62495 L2152.21 9.62495 Q2158.29 19.1851 2161.28 28.3401 Q2164.32 37.4952 2164.32 46.5287 Q2164.32 55.6027 2161.28 64.7983 Q2158.29 73.9938 2152.21 83.5134 L2145.73 83.5134 Q2151.12 74.2369 2153.75 65.0818 Q2156.42 55.8863 2156.42 46.5287 Q2156.42 37.1711 2153.75 28.0566 Q2151.12 18.942 2145.73 9.62495 Z" fill="#000000" fill-rule="nonzero" fill-opacity="1" /><polyline clip-path="url(#clip952)" style="stroke:#80c4ac; stroke-linecap:round; stroke-linejoin:round; stroke-width:8; stroke-opacity:1; fill:none" points="479.182,645.788 543.16,663.79 607.138,698.2 671.116,732.61 735.095,767.02 799.073,801.429 863.051,835.839 927.029,870.249 991.008,904.659 1054.99,939.068 1118.96,973.478 1182.94,1007.89 1246.92,1042.3 1310.9,1076.71 1374.88,1111.12 1438.86,1145.53 1486.96,1179.94 1422.98,1214.35 1359,1248.76 1295.02,1283.17 1231.04,1317.58 1167.06,1351.99 1103.09,1386.4 1039.11,1383.5 975.13,1349.09 911.151,1314.68 847.173,1280.27 783.195,1245.86 719.217,1211.45 655.238,1177.04 591.26,1142.63 527.282,1108.22 463.304,1073.81 399.325,1039.4 335.347,1004.99 271.369,970.58 329.194,936.171 393.172,901.761 457.15,867.351 521.128,832.941 585.107,798.532 649.085,764.122 713.063,729.712 777.041,695.302 841.02,660.892 904.998,626.483 968.976,604.264 1032.95,638.674 1096.93,673.084 1160.91,707.493 1224.89,741.903 1288.87,754.841 1352.85,720.431 1416.82,686.021 1458.79,651.612 1394.81,617.202 1330.83,617.234 1266.86,651.644 1202.88,686.053 1138.9,720.463 1074.92,754.873 1010.94,789.283 946.964,823.693 882.986,858.102 819.008,892.512 755.03,926.922 691.051,961.332 627.073,995.742 563.095,1030.15 617.325,1064.56 681.303,1098.97 745.281,1133.38 809.26,1150.12 873.238,1115.71 937.216,1081.3 1001.19,1046.89 1065.17,1012.48 1129.15,978.068 1193.13,943.658 1257.11,909.248 1321.09,874.838 1385.06,840.428 1449.04,806.019 1513.02,771.609 1577,737.199 1640.98,702.789 1704.96,668.38 1768.93,633.97 1832.91,599.56 1882.59,565.15 1818.61,530.74 1754.64,496.331 1690.66,461.921 1626.68,467.929 1562.7,502.338 1498.72,536.748 1434.74,571.158 1370.77,605.568 1332.46,639.978 1396.44,674.387 1460.42,708.797 1524.39,743.207 1588.37,777.617 1652.35,745.223 1716.33,710.813 1780.31,676.403 1844.29,641.993 1908.26,607.584 1972.24,573.174 2036.22,538.764 2100.2,504.354 2164.18,469.944 2228.15,435.535 2292.13,401.125 2251.23,366.715 2187.26,332.305 2123.28,297.895 2059.3,263.486 1995.32,229.076 1931.34,194.666 1867.37,160.256 1803.39,186.375 1739.41,220.784 1675.43,255.194 1611.45,289.604 1547.47,324.014 1483.5,358.424 1419.52,392.833 1355.54,427.243 1291.56,461.653 1227.58,496.063 1163.6,530.472 1148.28,564.882 1212.26,599.292 1276.24,633.702 1340.21,668.112 1404.19,702.521 1468.17,736.931 1532.15,771.341 1596.13,782.318 1660.1,747.908 1657.13,713.498 1593.15,679.089 1529.17,644.679 1465.19,610.269 1401.21,575.859 1337.23,541.449 1273.26,507.04 1209.28,472.63 1145.3,438.22 1081.32,403.81 1017.34,377 1006.15,411.409 1070.13,445.819 1134.1,480.229 1198.08,514.639 1262.06,549.049 1326.04,583.458 1390.02,617.868 1453.99,652.278 1517.97,686.688 1581.95,714.631 1645.93,680.221 1709.91,645.812 1773.89,611.402 1837.86,576.992 1850.25,542.582 1786.27,508.172 1722.29,473.763 1658.31,439.353 1594.33,404.943 1530.36,370.533 1466.38,370.908 1402.4,405.318 1338.42,439.728 1274.44,474.137 1210.46,508.547 1146.49,542.957 1191.15,577.367 1255.13,611.776 1319.1,646.186 1383.08,680.596 1447.06,715.006 1511.04,749.416 1575.02,783.825 1639,818.235 1702.97,852.645 1766.95,887.055 1744.33,921.465 1680.35,955.874 1616.37,990.284 1552.39,1024.69 1488.42,1059.1 1424.44,1083.42 1360.46,1049.01 1296.48,1014.6 1232.5,980.189 1168.52,945.779 1104.55,911.369 1040.57,876.959 976.59,842.55 912.611,808.14 848.633,773.73 784.655,739.32 720.677,704.911 656.698,670.501 592.72,636.091 "/>
<circle clip-path="url(#clip952)" cx="479.182" cy="645.788" r="7.2" fill="#80c4ac" fill-rule="evenodd" fill-opacity="0.6" stroke="#000000" stroke-opacity="0.6" stroke-width="3.2"/>
<circle clip-path="url(#clip952)" cx="543.16" cy="663.79" r="7.2" fill="#80c4ac" fill-rule="evenodd" fill-opacity="0.6" stroke="#000000" stroke-opacity="0.6" stroke-width="3.2"/>
<circle clip-path="url(#clip952)" cx="607.138" cy="698.2" r="7.2" fill="#80c4ac" fill-rule="evenodd" fill-opacity="0.6" stroke="#000000" stroke-opacity="0.6" stroke-width="3.2"/>
<circle clip-path="url(#clip952)" cx="671.116" cy="732.61" r="7.2" fill="#80c4ac" fill-rule="evenodd" fill-opacity="0.6" stroke="#000000" stroke-opacity="0.6" stroke-width="3.2"/>
<circle clip-path="url(#clip952)" cx="735.095" cy="767.02" r="7.2" fill="#80c4ac" fill-rule="evenodd" fill-opacity="0.6" stroke="#000000" stroke-opacity="0.6" stroke-width="3.2"/>
<circle clip-path="url(#clip952)" cx="799.073" cy="801.429" r="7.2" fill="#80c4ac" fill-rule="evenodd" fill-opacity="0.6" stroke="#000000" stroke-opacity="0.6" stroke-width="3.2"/>
<circle clip-path="url(#clip952)" cx="863.051" cy="835.839" r="7.2" fill="#80c4ac" fill-rule="evenodd" fill-opacity="0.6" stroke="#000000" stroke-opacity="0.6" stroke-width="3.2"/>
<circle clip-path="url(#clip952)" cx="927.029" cy="870.249" r="7.2" fill="#80c4ac" fill-rule="evenodd" fill-opacity="0.6" stroke="#000000" stroke-opacity="0.6" stroke-width="3.2"/>
<circle clip-path="url(#clip952)" cx="991.008" cy="904.659" r="7.2" fill="#80c4ac" fill-rule="evenodd" fill-opacity="0.6" stroke="#000000" stroke-opacity="0.6" stroke-width="3.2"/>
<circle clip-path="url(#clip952)" cx="1054.99" cy="939.068" r="7.2" fill="#80c4ac" fill-rule="evenodd" fill-opacity="0.6" stroke="#000000" stroke-opacity="0.6" stroke-width="3.2"/>
<circle clip-path="url(#clip952)" cx="1118.96" cy="973.478" r="7.2" fill="#80c4ac" fill-rule="evenodd" fill-opacity="0.6" stroke="#000000" stroke-opacity="0.6" stroke-width="3.2"/>
<circle clip-path="url(#clip952)" cx="1182.94" cy="1007.89" r="7.2" fill="#80c4ac" fill-rule="evenodd" fill-opacity="0.6" stroke="#000000" stroke-opacity="0.6" stroke-width="3.2"/>
<circle clip-path="url(#clip952)" cx="1246.92" cy="1042.3" r="7.2" fill="#80c4ac" fill-rule="evenodd" fill-opacity="0.6" stroke="#000000" stroke-opacity="0.6" stroke-width="3.2"/>
<circle clip-path="url(#clip952)" cx="1310.9" cy="1076.71" r="7.2" fill="#80c4ac" fill-rule="evenodd" fill-opacity="0.6" stroke="#000000" stroke-opacity="0.6" stroke-width="3.2"/>
<circle clip-path="url(#clip952)" cx="1374.88" cy="1111.12" r="7.2" fill="#80c4ac" fill-rule="evenodd" fill-opacity="0.6" stroke="#000000" stroke-opacity="0.6" stroke-width="3.2"/>
<circle clip-path="url(#clip952)" cx="1438.86" cy="1145.53" r="7.2" fill="#80c4ac" fill-rule="evenodd" fill-opacity="0.6" stroke="#000000" stroke-opacity="0.6" stroke-width="3.2"/>
<circle clip-path="url(#clip952)" cx="1486.96" cy="1179.94" r="7.2" fill="#80c4ac" fill-rule="evenodd" fill-opacity="0.6" stroke="#000000" stroke-opacity="0.6" stroke-width="3.2"/>
<circle clip-path="url(#clip952)" cx="1422.98" cy="1214.35" r="7.2" fill="#80c4ac" fill-rule="evenodd" fill-opacity="0.6" stroke="#000000" stroke-opacity="0.6" stroke-width="3.2"/>
<circle clip-path="url(#clip952)" cx="1359" cy="1248.76" r="7.2" fill="#80c4ac" fill-rule="evenodd" fill-opacity="0.6" stroke="#000000" stroke-opacity="0.6" stroke-width="3.2"/>
<circle clip-path="url(#clip952)" cx="1295.02" cy="1283.17" r="7.2" fill="#80c4ac" fill-rule="evenodd" fill-opacity="0.6" stroke="#000000" stroke-opacity="0.6" stroke-width="3.2"/>
<circle clip-path="url(#clip952)" cx="1231.04" cy="1317.58" r="7.2" fill="#80c4ac" fill-rule="evenodd" fill-opacity="0.6" stroke="#000000" stroke-opacity="0.6" stroke-width="3.2"/>
<circle clip-path="url(#clip952)" cx="1167.06" cy="1351.99" r="7.2" fill="#80c4ac" fill-rule="evenodd" fill-opacity="0.6" stroke="#000000" stroke-opacity="0.6" stroke-width="3.2"/>
<circle clip-path="url(#clip952)" cx="1103.09" cy="1386.4" r="7.2" fill="#80c4ac" fill-rule="evenodd" fill-opacity="0.6" stroke="#000000" stroke-opacity="0.6" stroke-width="3.2"/>
<circle clip-path="url(#clip952)" cx="1039.11" cy="1383.5" r="7.2" fill="#80c4ac" fill-rule="evenodd" fill-opacity="0.6" stroke="#000000" stroke-opacity="0.6" stroke-width="3.2"/>
<circle clip-path="url(#clip952)" cx="975.13" cy="1349.09" r="7.2" fill="#80c4ac" fill-rule="evenodd" fill-opacity="0.6" stroke="#000000" stroke-opacity="0.6" stroke-width="3.2"/>
<circle clip-path="url(#clip952)" cx="911.151" cy="1314.68" r="7.2" fill="#80c4ac" fill-rule="evenodd" fill-opacity="0.6" stroke="#000000" stroke-opacity="0.6" stroke-width="3.2"/>
<circle clip-path="url(#clip952)" cx="847.173" cy="1280.27" r="7.2" fill="#80c4ac" fill-rule="evenodd" fill-opacity="0.6" stroke="#000000" stroke-opacity="0.6" stroke-width="3.2"/>
<circle clip-path="url(#clip952)" cx="783.195" cy="1245.86" r="7.2" fill="#80c4ac" fill-rule="evenodd" fill-opacity="0.6" stroke="#000000" stroke-opacity="0.6" stroke-width="3.2"/>
<circle clip-path="url(#clip952)" cx="719.217" cy="1211.45" r="7.2" fill="#80c4ac" fill-rule="evenodd" fill-opacity="0.6" stroke="#000000" stroke-opacity="0.6" stroke-width="3.2"/>
<circle clip-path="url(#clip952)" cx="655.238" cy="1177.04" r="7.2" fill="#80c4ac" fill-rule="evenodd" fill-opacity="0.6" stroke="#000000" stroke-opacity="0.6" stroke-width="3.2"/>
<circle clip-path="url(#clip952)" cx="591.26" cy="1142.63" r="7.2" fill="#80c4ac" fill-rule="evenodd" fill-opacity="0.6" stroke="#000000" stroke-opacity="0.6" stroke-width="3.2"/>
<circle clip-path="url(#clip952)" cx="527.282" cy="1108.22" r="7.2" fill="#80c4ac" fill-rule="evenodd" fill-opacity="0.6" stroke="#000000" stroke-opacity="0.6" stroke-width="3.2"/>
<circle clip-path="url(#clip952)" cx="463.304" cy="1073.81" r="7.2" fill="#80c4ac" fill-rule="evenodd" fill-opacity="0.6" stroke="#000000" stroke-opacity="0.6" stroke-width="3.2"/>
<circle clip-path="url(#clip952)" cx="399.325" cy="1039.4" r="7.2" fill="#80c4ac" fill-rule="evenodd" fill-opacity="0.6" stroke="#000000" stroke-opacity="0.6" stroke-width="3.2"/>
<circle clip-path="url(#clip952)" cx="335.347" cy="1004.99" r="7.2" fill="#80c4ac" fill-rule="evenodd" fill-opacity="0.6" stroke="#000000" stroke-opacity="0.6" stroke-width="3.2"/>
<circle clip-path="url(#clip952)" cx="271.369" cy="970.58" r="7.2" fill="#80c4ac" fill-rule="evenodd" fill-opacity="0.6" stroke="#000000" stroke-opacity="0.6" stroke-width="3.2"/>
<circle clip-path="url(#clip952)" cx="329.194" cy="936.171" r="7.2" fill="#80c4ac" fill-rule="evenodd" fill-opacity="0.6" stroke="#000000" stroke-opacity="0.6" stroke-width="3.2"/>
<circle clip-path="url(#clip952)" cx="393.172" cy="901.761" r="7.2" fill="#80c4ac" fill-rule="evenodd" fill-opacity="0.6" stroke="#000000" stroke-opacity="0.6" stroke-width="3.2"/>
<circle clip-path="url(#clip952)" cx="457.15" cy="867.351" r="7.2" fill="#80c4ac" fill-rule="evenodd" fill-opacity="0.6" stroke="#000000" stroke-opacity="0.6" stroke-width="3.2"/>
<circle clip-path="url(#clip952)" cx="521.128" cy="832.941" r="7.2" fill="#80c4ac" fill-rule="evenodd" fill-opacity="0.6" stroke="#000000" stroke-opacity="0.6" stroke-width="3.2"/>
<circle clip-path="url(#clip952)" cx="585.107" cy="798.532" r="7.2" fill="#80c4ac" fill-rule="evenodd" fill-opacity="0.6" stroke="#000000" stroke-opacity="0.6" stroke-width="3.2"/>
<circle clip-path="url(#clip952)" cx="649.085" cy="764.122" r="7.2" fill="#80c4ac" fill-rule="evenodd" fill-opacity="0.6" stroke="#000000" stroke-opacity="0.6" stroke-width="3.2"/>
<circle clip-path="url(#clip952)" cx="713.063" cy="729.712" r="7.2" fill="#80c4ac" fill-rule="evenodd" fill-opacity="0.6" stroke="#000000" stroke-opacity="0.6" stroke-width="3.2"/>
<circle clip-path="url(#clip952)" cx="777.041" cy="695.302" r="7.2" fill="#80c4ac" fill-rule="evenodd" fill-opacity="0.6" stroke="#000000" stroke-opacity="0.6" stroke-width="3.2"/>
<circle clip-path="url(#clip952)" cx="841.02" cy="660.892" r="7.2" fill="#80c4ac" fill-rule="evenodd" fill-opacity="0.6" stroke="#000000" stroke-opacity="0.6" stroke-width="3.2"/>
<circle clip-path="url(#clip952)" cx="904.998" cy="626.483" r="7.2" fill="#80c4ac" fill-rule="evenodd" fill-opacity="0.6" stroke="#000000" stroke-opacity="0.6" stroke-width="3.2"/>
<circle clip-path="url(#clip952)" cx="968.976" cy="604.264" r="7.2" fill="#80c4ac" fill-rule="evenodd" fill-opacity="0.6" stroke="#000000" stroke-opacity="0.6" stroke-width="3.2"/>
<circle clip-path="url(#clip952)" cx="1032.95" cy="638.674" r="7.2" fill="#80c4ac" fill-rule="evenodd" fill-opacity="0.6" stroke="#000000" stroke-opacity="0.6" stroke-width="3.2"/>
<circle clip-path="url(#clip952)" cx="1096.93" cy="673.084" r="7.2" fill="#80c4ac" fill-rule="evenodd" fill-opacity="0.6" stroke="#000000" stroke-opacity="0.6" stroke-width="3.2"/>
<circle clip-path="url(#clip952)" cx="1160.91" cy="707.493" r="7.2" fill="#80c4ac" fill-rule="evenodd" fill-opacity="0.6" stroke="#000000" stroke-opacity="0.6" stroke-width="3.2"/>
<circle clip-path="url(#clip952)" cx="1224.89" cy="741.903" r="7.2" fill="#80c4ac" fill-rule="evenodd" fill-opacity="0.6" stroke="#000000" stroke-opacity="0.6" stroke-width="3.2"/>
<circle clip-path="url(#clip952)" cx="1288.87" cy="754.841" r="7.2" fill="#80c4ac" fill-rule="evenodd" fill-opacity="0.6" stroke="#000000" stroke-opacity="0.6" stroke-width="3.2"/>
<circle clip-path="url(#clip952)" cx="1352.85" cy="720.431" r="7.2" fill="#80c4ac" fill-rule="evenodd" fill-opacity="0.6" stroke="#000000" stroke-opacity="0.6" stroke-width="3.2"/>
<circle clip-path="url(#clip952)" cx="1416.82" cy="686.021" r="7.2" fill="#80c4ac" fill-rule="evenodd" fill-opacity="0.6" stroke="#000000" stroke-opacity="0.6" stroke-width="3.2"/>
<circle clip-path="url(#clip952)" cx="1458.79" cy="651.612" r="7.2" fill="#80c4ac" fill-rule="evenodd" fill-opacity="0.6" stroke="#000000" stroke-opacity="0.6" stroke-width="3.2"/>
<circle clip-path="url(#clip952)" cx="1394.81" cy="617.202" r="7.2" fill="#80c4ac" fill-rule="evenodd" fill-opacity="0.6" stroke="#000000" stroke-opacity="0.6" stroke-width="3.2"/>
<circle clip-path="url(#clip952)" cx="1330.83" cy="617.234" r="7.2" fill="#80c4ac" fill-rule="evenodd" fill-opacity="0.6" stroke="#000000" stroke-opacity="0.6" stroke-width="3.2"/>
<circle clip-path="url(#clip952)" cx="1266.86" cy="651.644" r="7.2" fill="#80c4ac" fill-rule="evenodd" fill-opacity="0.6" stroke="#000000" stroke-opacity="0.6" stroke-width="3.2"/>
<circle clip-path="url(#clip952)" cx="1202.88" cy="686.053" r="7.2" fill="#80c4ac" fill-rule="evenodd" fill-opacity="0.6" stroke="#000000" stroke-opacity="0.6" stroke-width="3.2"/>
<circle clip-path="url(#clip952)" cx="1138.9" cy="720.463" r="7.2" fill="#80c4ac" fill-rule="evenodd" fill-opacity="0.6" stroke="#000000" stroke-opacity="0.6" stroke-width="3.2"/>
<circle clip-path="url(#clip952)" cx="1074.92" cy="754.873" r="7.2" fill="#80c4ac" fill-rule="evenodd" fill-opacity="0.6" stroke="#000000" stroke-opacity="0.6" stroke-width="3.2"/>
<circle clip-path="url(#clip952)" cx="1010.94" cy="789.283" r="7.2" fill="#80c4ac" fill-rule="evenodd" fill-opacity="0.6" stroke="#000000" stroke-opacity="0.6" stroke-width="3.2"/>
<circle clip-path="url(#clip952)" cx="946.964" cy="823.693" r="7.2" fill="#80c4ac" fill-rule="evenodd" fill-opacity="0.6" stroke="#000000" stroke-opacity="0.6" stroke-width="3.2"/>
<circle clip-path="url(#clip952)" cx="882.986" cy="858.102" r="7.2" fill="#80c4ac" fill-rule="evenodd" fill-opacity="0.6" stroke="#000000" stroke-opacity="0.6" stroke-width="3.2"/>
<circle clip-path="url(#clip952)" cx="819.008" cy="892.512" r="7.2" fill="#80c4ac" fill-rule="evenodd" fill-opacity="0.6" stroke="#000000" stroke-opacity="0.6" stroke-width="3.2"/>
<circle clip-path="url(#clip952)" cx="755.03" cy="926.922" r="7.2" fill="#80c4ac" fill-rule="evenodd" fill-opacity="0.6" stroke="#000000" stroke-opacity="0.6" stroke-width="3.2"/>
<circle clip-path="url(#clip952)" cx="691.051" cy="961.332" r="7.2" fill="#80c4ac" fill-rule="evenodd" fill-opacity="0.6" stroke="#000000" stroke-opacity="0.6" stroke-width="3.2"/>
<circle clip-path="url(#clip952)" cx="627.073" cy="995.742" r="7.2" fill="#80c4ac" fill-rule="evenodd" fill-opacity="0.6" stroke="#000000" stroke-opacity="0.6" stroke-width="3.2"/>
<circle clip-path="url(#clip952)" cx="563.095" cy="1030.15" r="7.2" fill="#80c4ac" fill-rule="evenodd" fill-opacity="0.6" stroke="#000000" stroke-opacity="0.6" stroke-width="3.2"/>
<circle clip-path="url(#clip952)" cx="617.325" cy="1064.56" r="7.2" fill="#80c4ac" fill-rule="evenodd" fill-opacity="0.6" stroke="#000000" stroke-opacity="0.6" stroke-width="3.2"/>
<circle clip-path="url(#clip952)" cx="681.303" cy="1098.97" r="7.2" fill="#80c4ac" fill-rule="evenodd" fill-opacity="0.6" stroke="#000000" stroke-opacity="0.6" stroke-width="3.2"/>
<circle clip-path="url(#clip952)" cx="745.281" cy="1133.38" r="7.2" fill="#80c4ac" fill-rule="evenodd" fill-opacity="0.6" stroke="#000000" stroke-opacity="0.6" stroke-width="3.2"/>
<circle clip-path="url(#clip952)" cx="809.26" cy="1150.12" r="7.2" fill="#80c4ac" fill-rule="evenodd" fill-opacity="0.6" stroke="#000000" stroke-opacity="0.6" stroke-width="3.2"/>
<circle clip-path="url(#clip952)" cx="873.238" cy="1115.71" r="7.2" fill="#80c4ac" fill-rule="evenodd" fill-opacity="0.6" stroke="#000000" stroke-opacity="0.6" stroke-width="3.2"/>
<circle clip-path="url(#clip952)" cx="937.216" cy="1081.3" r="7.2" fill="#80c4ac" fill-rule="evenodd" fill-opacity="0.6" stroke="#000000" stroke-opacity="0.6" stroke-width="3.2"/>
<circle clip-path="url(#clip952)" cx="1001.19" cy="1046.89" r="7.2" fill="#80c4ac" fill-rule="evenodd" fill-opacity="0.6" stroke="#000000" stroke-opacity="0.6" stroke-width="3.2"/>
<circle clip-path="url(#clip952)" cx="1065.17" cy="1012.48" r="7.2" fill="#80c4ac" fill-rule="evenodd" fill-opacity="0.6" stroke="#000000" stroke-opacity="0.6" stroke-width="3.2"/>
<circle clip-path="url(#clip952)" cx="1129.15" cy="978.068" r="7.2" fill="#80c4ac" fill-rule="evenodd" fill-opacity="0.6" stroke="#000000" stroke-opacity="0.6" stroke-width="3.2"/>
<circle clip-path="url(#clip952)" cx="1193.13" cy="943.658" r="7.2" fill="#80c4ac" fill-rule="evenodd" fill-opacity="0.6" stroke="#000000" stroke-opacity="0.6" stroke-width="3.2"/>
<circle clip-path="url(#clip952)" cx="1257.11" cy="909.248" r="7.2" fill="#80c4ac" fill-rule="evenodd" fill-opacity="0.6" stroke="#000000" stroke-opacity="0.6" stroke-width="3.2"/>
<circle clip-path="url(#clip952)" cx="1321.09" cy="874.838" r="7.2" fill="#80c4ac" fill-rule="evenodd" fill-opacity="0.6" stroke="#000000" stroke-opacity="0.6" stroke-width="3.2"/>
<circle clip-path="url(#clip952)" cx="1385.06" cy="840.428" r="7.2" fill="#80c4ac" fill-rule="evenodd" fill-opacity="0.6" stroke="#000000" stroke-opacity="0.6" stroke-width="3.2"/>
<circle clip-path="url(#clip952)" cx="1449.04" cy="806.019" r="7.2" fill="#80c4ac" fill-rule="evenodd" fill-opacity="0.6" stroke="#000000" stroke-opacity="0.6" stroke-width="3.2"/>
<circle clip-path="url(#clip952)" cx="1513.02" cy="771.609" r="7.2" fill="#80c4ac" fill-rule="evenodd" fill-opacity="0.6" stroke="#000000" stroke-opacity="0.6" stroke-width="3.2"/>
<circle clip-path="url(#clip952)" cx="1577" cy="737.199" r="7.2" fill="#80c4ac" fill-rule="evenodd" fill-opacity="0.6" stroke="#000000" stroke-opacity="0.6" stroke-width="3.2"/>
<circle clip-path="url(#clip952)" cx="1640.98" cy="702.789" r="7.2" fill="#80c4ac" fill-rule="evenodd" fill-opacity="0.6" stroke="#000000" stroke-opacity="0.6" stroke-width="3.2"/>
<circle clip-path="url(#clip952)" cx="1704.96" cy="668.38" r="7.2" fill="#80c4ac" fill-rule="evenodd" fill-opacity="0.6" stroke="#000000" stroke-opacity="0.6" stroke-width="3.2"/>
<circle clip-path="url(#clip952)" cx="1768.93" cy="633.97" r="7.2" fill="#80c4ac" fill-rule="evenodd" fill-opacity="0.6" stroke="#000000" stroke-opacity="0.6" stroke-width="3.2"/>
<circle clip-path="url(#clip952)" cx="1832.91" cy="599.56" r="7.2" fill="#80c4ac" fill-rule="evenodd" fill-opacity="0.6" stroke="#000000" stroke-opacity="0.6" stroke-width="3.2"/>
<circle clip-path="url(#clip952)" cx="1882.59" cy="565.15" r="7.2" fill="#80c4ac" fill-rule="evenodd" fill-opacity="0.6" stroke="#000000" stroke-opacity="0.6" stroke-width="3.2"/>
<circle clip-path="url(#clip952)" cx="1818.61" cy="530.74" r="7.2" fill="#80c4ac" fill-rule="evenodd" fill-opacity="0.6" stroke="#000000" stroke-opacity="0.6" stroke-width="3.2"/>
<circle clip-path="url(#clip952)" cx="1754.64" cy="496.331" r="7.2" fill="#80c4ac" fill-rule="evenodd" fill-opacity="0.6" stroke="#000000" stroke-opacity="0.6" stroke-width="3.2"/>
<circle clip-path="url(#clip952)" cx="1690.66" cy="461.921" r="7.2" fill="#80c4ac" fill-rule="evenodd" fill-opacity="0.6" stroke="#000000" stroke-opacity="0.6" stroke-width="3.2"/>
<circle clip-path="url(#clip952)" cx="1626.68" cy="467.929" r="7.2" fill="#80c4ac" fill-rule="evenodd" fill-opacity="0.6" stroke="#000000" stroke-opacity="0.6" stroke-width="3.2"/>
<circle clip-path="url(#clip952)" cx="1562.7" cy="502.338" r="7.2" fill="#80c4ac" fill-rule="evenodd" fill-opacity="0.6" stroke="#000000" stroke-opacity="0.6" stroke-width="3.2"/>
<circle clip-path="url(#clip952)" cx="1498.72" cy="536.748" r="7.2" fill="#80c4ac" fill-rule="evenodd" fill-opacity="0.6" stroke="#000000" stroke-opacity="0.6" stroke-width="3.2"/>
<circle clip-path="url(#clip952)" cx="1434.74" cy="571.158" r="7.2" fill="#80c4ac" fill-rule="evenodd" fill-opacity="0.6" stroke="#000000" stroke-opacity="0.6" stroke-width="3.2"/>
<circle clip-path="url(#clip952)" cx="1370.77" cy="605.568" r="7.2" fill="#80c4ac" fill-rule="evenodd" fill-opacity="0.6" stroke="#000000" stroke-opacity="0.6" stroke-width="3.2"/>
<circle clip-path="url(#clip952)" cx="1332.46" cy="639.978" r="7.2" fill="#80c4ac" fill-rule="evenodd" fill-opacity="0.6" stroke="#000000" stroke-opacity="0.6" stroke-width="3.2"/>
<circle clip-path="url(#clip952)" cx="1396.44" cy="674.387" r="7.2" fill="#80c4ac" fill-rule="evenodd" fill-opacity="0.6" stroke="#000000" stroke-opacity="0.6" stroke-width="3.2"/>
<circle clip-path="url(#clip952)" cx="1460.42" cy="708.797" r="7.2" fill="#80c4ac" fill-rule="evenodd" fill-opacity="0.6" stroke="#000000" stroke-opacity="0.6" stroke-width="3.2"/>
<circle clip-path="url(#clip952)" cx="1524.39" cy="743.207" r="7.2" fill="#80c4ac" fill-rule="evenodd" fill-opacity="0.6" stroke="#000000" stroke-opacity="0.6" stroke-width="3.2"/>
<circle clip-path="url(#clip952)" cx="1588.37" cy="777.617" r="7.2" fill="#80c4ac" fill-rule="evenodd" fill-opacity="0.6" stroke="#000000" stroke-opacity="0.6" stroke-width="3.2"/>
<circle clip-path="url(#clip952)" cx="1652.35" cy="745.223" r="7.2" fill="#80c4ac" fill-rule="evenodd" fill-opacity="0.6" stroke="#000000" stroke-opacity="0.6" stroke-width="3.2"/>
<circle clip-path="url(#clip952)" cx="1716.33" cy="710.813" r="7.2" fill="#80c4ac" fill-rule="evenodd" fill-opacity="0.6" stroke="#000000" stroke-opacity="0.6" stroke-width="3.2"/>
<circle clip-path="url(#clip952)" cx="1780.31" cy="676.403" r="7.2" fill="#80c4ac" fill-rule="evenodd" fill-opacity="0.6" stroke="#000000" stroke-opacity="0.6" stroke-width="3.2"/>
<circle clip-path="url(#clip952)" cx="1844.29" cy="641.993" r="7.2" fill="#80c4ac" fill-rule="evenodd" fill-opacity="0.6" stroke="#000000" stroke-opacity="0.6" stroke-width="3.2"/>
<circle clip-path="url(#clip952)" cx="1908.26" cy="607.584" r="7.2" fill="#80c4ac" fill-rule="evenodd" fill-opacity="0.6" stroke="#000000" stroke-opacity="0.6" stroke-width="3.2"/>
<circle clip-path="url(#clip952)" cx="1972.24" cy="573.174" r="7.2" fill="#80c4ac" fill-rule="evenodd" fill-opacity="0.6" stroke="#000000" stroke-opacity="0.6" stroke-width="3.2"/>
<circle clip-path="url(#clip952)" cx="2036.22" cy="538.764" r="7.2" fill="#80c4ac" fill-rule="evenodd" fill-opacity="0.6" stroke="#000000" stroke-opacity="0.6" stroke-width="3.2"/>
<circle clip-path="url(#clip952)" cx="2100.2" cy="504.354" r="7.2" fill="#80c4ac" fill-rule="evenodd" fill-opacity="0.6" stroke="#000000" stroke-opacity="0.6" stroke-width="3.2"/>
<circle clip-path="url(#clip952)" cx="2164.18" cy="469.944" r="7.2" fill="#80c4ac" fill-rule="evenodd" fill-opacity="0.6" stroke="#000000" stroke-opacity="0.6" stroke-width="3.2"/>
<circle clip-path="url(#clip952)" cx="2228.15" cy="435.535" r="7.2" fill="#80c4ac" fill-rule="evenodd" fill-opacity="0.6" stroke="#000000" stroke-opacity="0.6" stroke-width="3.2"/>
<circle clip-path="url(#clip952)" cx="2292.13" cy="401.125" r="7.2" fill="#80c4ac" fill-rule="evenodd" fill-opacity="0.6" stroke="#000000" stroke-opacity="0.6" stroke-width="3.2"/>
<circle clip-path="url(#clip952)" cx="2251.23" cy="366.715" r="7.2" fill="#80c4ac" fill-rule="evenodd" fill-opacity="0.6" stroke="#000000" stroke-opacity="0.6" stroke-width="3.2"/>
<circle clip-path="url(#clip952)" cx="2187.26" cy="332.305" r="7.2" fill="#80c4ac" fill-rule="evenodd" fill-opacity="0.6" stroke="#000000" stroke-opacity="0.6" stroke-width="3.2"/>
<circle clip-path="url(#clip952)" cx="2123.28" cy="297.895" r="7.2" fill="#80c4ac" fill-rule="evenodd" fill-opacity="0.6" stroke="#000000" stroke-opacity="0.6" stroke-width="3.2"/>
<circle clip-path="url(#clip952)" cx="2059.3" cy="263.486" r="7.2" fill="#80c4ac" fill-rule="evenodd" fill-opacity="0.6" stroke="#000000" stroke-opacity="0.6" stroke-width="3.2"/>
<circle clip-path="url(#clip952)" cx="1995.32" cy="229.076" r="7.2" fill="#80c4ac" fill-rule="evenodd" fill-opacity="0.6" stroke="#000000" stroke-opacity="0.6" stroke-width="3.2"/>
<circle clip-path="url(#clip952)" cx="1931.34" cy="194.666" r="7.2" fill="#80c4ac" fill-rule="evenodd" fill-opacity="0.6" stroke="#000000" stroke-opacity="0.6" stroke-width="3.2"/>
<circle clip-path="url(#clip952)" cx="1867.37" cy="160.256" r="7.2" fill="#80c4ac" fill-rule="evenodd" fill-opacity="0.6" stroke="#000000" stroke-opacity="0.6" stroke-width="3.2"/>
<circle clip-path="url(#clip952)" cx="1803.39" cy="186.375" r="7.2" fill="#80c4ac" fill-rule="evenodd" fill-opacity="0.6" stroke="#000000" stroke-opacity="0.6" stroke-width="3.2"/>
<circle clip-path="url(#clip952)" cx="1739.41" cy="220.784" r="7.2" fill="#80c4ac" fill-rule="evenodd" fill-opacity="0.6" stroke="#000000" stroke-opacity="0.6" stroke-width="3.2"/>
<circle clip-path="url(#clip952)" cx="1675.43" cy="255.194" r="7.2" fill="#80c4ac" fill-rule="evenodd" fill-opacity="0.6" stroke="#000000" stroke-opacity="0.6" stroke-width="3.2"/>
<circle clip-path="url(#clip952)" cx="1611.45" cy="289.604" r="7.2" fill="#80c4ac" fill-rule="evenodd" fill-opacity="0.6" stroke="#000000" stroke-opacity="0.6" stroke-width="3.2"/>
<circle clip-path="url(#clip952)" cx="1547.47" cy="324.014" r="7.2" fill="#80c4ac" fill-rule="evenodd" fill-opacity="0.6" stroke="#000000" stroke-opacity="0.6" stroke-width="3.2"/>
<circle clip-path="url(#clip952)" cx="1483.5" cy="358.424" r="7.2" fill="#80c4ac" fill-rule="evenodd" fill-opacity="0.6" stroke="#000000" stroke-opacity="0.6" stroke-width="3.2"/>
<circle clip-path="url(#clip952)" cx="1419.52" cy="392.833" r="7.2" fill="#80c4ac" fill-rule="evenodd" fill-opacity="0.6" stroke="#000000" stroke-opacity="0.6" stroke-width="3.2"/>
<circle clip-path="url(#clip952)" cx="1355.54" cy="427.243" r="7.2" fill="#80c4ac" fill-rule="evenodd" fill-opacity="0.6" stroke="#000000" stroke-opacity="0.6" stroke-width="3.2"/>
<circle clip-path="url(#clip952)" cx="1291.56" cy="461.653" r="7.2" fill="#80c4ac" fill-rule="evenodd" fill-opacity="0.6" stroke="#000000" stroke-opacity="0.6" stroke-width="3.2"/>
<circle clip-path="url(#clip952)" cx="1227.58" cy="496.063" r="7.2" fill="#80c4ac" fill-rule="evenodd" fill-opacity="0.6" stroke="#000000" stroke-opacity="0.6" stroke-width="3.2"/>
<circle clip-path="url(#clip952)" cx="1163.6" cy="530.472" r="7.2" fill="#80c4ac" fill-rule="evenodd" fill-opacity="0.6" stroke="#000000" stroke-opacity="0.6" stroke-width="3.2"/>
<circle clip-path="url(#clip952)" cx="1148.28" cy="564.882" r="7.2" fill="#80c4ac" fill-rule="evenodd" fill-opacity="0.6" stroke="#000000" stroke-opacity="0.6" stroke-width="3.2"/>
<circle clip-path="url(#clip952)" cx="1212.26" cy="599.292" r="7.2" fill="#80c4ac" fill-rule="evenodd" fill-opacity="0.6" stroke="#000000" stroke-opacity="0.6" stroke-width="3.2"/>
<circle clip-path="url(#clip952)" cx="1276.24" cy="633.702" r="7.2" fill="#80c4ac" fill-rule="evenodd" fill-opacity="0.6" stroke="#000000" stroke-opacity="0.6" stroke-width="3.2"/>
<circle clip-path="url(#clip952)" cx="1340.21" cy="668.112" r="7.2" fill="#80c4ac" fill-rule="evenodd" fill-opacity="0.6" stroke="#000000" stroke-opacity="0.6" stroke-width="3.2"/>
<circle clip-path="url(#clip952)" cx="1404.19" cy="702.521" r="7.2" fill="#80c4ac" fill-rule="evenodd" fill-opacity="0.6" stroke="#000000" stroke-opacity="0.6" stroke-width="3.2"/>
<circle clip-path="url(#clip952)" cx="1468.17" cy="736.931" r="7.2" fill="#80c4ac" fill-rule="evenodd" fill-opacity="0.6" stroke="#000000" stroke-opacity="0.6" stroke-width="3.2"/>
<circle clip-path="url(#clip952)" cx="1532.15" cy="771.341" r="7.2" fill="#80c4ac" fill-rule="evenodd" fill-opacity="0.6" stroke="#000000" stroke-opacity="0.6" stroke-width="3.2"/>
<circle clip-path="url(#clip952)" cx="1596.13" cy="782.318" r="7.2" fill="#80c4ac" fill-rule="evenodd" fill-opacity="0.6" stroke="#000000" stroke-opacity="0.6" stroke-width="3.2"/>
<circle clip-path="url(#clip952)" cx="1660.1" cy="747.908" r="7.2" fill="#80c4ac" fill-rule="evenodd" fill-opacity="0.6" stroke="#000000" stroke-opacity="0.6" stroke-width="3.2"/>
<circle clip-path="url(#clip952)" cx="1657.13" cy="713.498" r="7.2" fill="#80c4ac" fill-rule="evenodd" fill-opacity="0.6" stroke="#000000" stroke-opacity="0.6" stroke-width="3.2"/>
<circle clip-path="url(#clip952)" cx="1593.15" cy="679.089" r="7.2" fill="#80c4ac" fill-rule="evenodd" fill-opacity="0.6" stroke="#000000" stroke-opacity="0.6" stroke-width="3.2"/>
<circle clip-path="url(#clip952)" cx="1529.17" cy="644.679" r="7.2" fill="#80c4ac" fill-rule="evenodd" fill-opacity="0.6" stroke="#000000" stroke-opacity="0.6" stroke-width="3.2"/>
<circle clip-path="url(#clip952)" cx="1465.19" cy="610.269" r="7.2" fill="#80c4ac" fill-rule="evenodd" fill-opacity="0.6" stroke="#000000" stroke-opacity="0.6" stroke-width="3.2"/>
<circle clip-path="url(#clip952)" cx="1401.21" cy="575.859" r="7.2" fill="#80c4ac" fill-rule="evenodd" fill-opacity="0.6" stroke="#000000" stroke-opacity="0.6" stroke-width="3.2"/>
<circle clip-path="url(#clip952)" cx="1337.23" cy="541.449" r="7.2" fill="#80c4ac" fill-rule="evenodd" fill-opacity="0.6" stroke="#000000" stroke-opacity="0.6" stroke-width="3.2"/>
<circle clip-path="url(#clip952)" cx="1273.26" cy="507.04" r="7.2" fill="#80c4ac" fill-rule="evenodd" fill-opacity="0.6" stroke="#000000" stroke-opacity="0.6" stroke-width="3.2"/>
<circle clip-path="url(#clip952)" cx="1209.28" cy="472.63" r="7.2" fill="#80c4ac" fill-rule="evenodd" fill-opacity="0.6" stroke="#000000" stroke-opacity="0.6" stroke-width="3.2"/>
<circle clip-path="url(#clip952)" cx="1145.3" cy="438.22" r="7.2" fill="#80c4ac" fill-rule="evenodd" fill-opacity="0.6" stroke="#000000" stroke-opacity="0.6" stroke-width="3.2"/>
<circle clip-path="url(#clip952)" cx="1081.32" cy="403.81" r="7.2" fill="#80c4ac" fill-rule="evenodd" fill-opacity="0.6" stroke="#000000" stroke-opacity="0.6" stroke-width="3.2"/>
<circle clip-path="url(#clip952)" cx="1017.34" cy="377" r="7.2" fill="#80c4ac" fill-rule="evenodd" fill-opacity="0.6" stroke="#000000" stroke-opacity="0.6" stroke-width="3.2"/>
<circle clip-path="url(#clip952)" cx="1006.15" cy="411.409" r="7.2" fill="#80c4ac" fill-rule="evenodd" fill-opacity="0.6" stroke="#000000" stroke-opacity="0.6" stroke-width="3.2"/>
<circle clip-path="url(#clip952)" cx="1070.13" cy="445.819" r="7.2" fill="#80c4ac" fill-rule="evenodd" fill-opacity="0.6" stroke="#000000" stroke-opacity="0.6" stroke-width="3.2"/>
<circle clip-path="url(#clip952)" cx="1134.1" cy="480.229" r="7.2" fill="#80c4ac" fill-rule="evenodd" fill-opacity="0.6" stroke="#000000" stroke-opacity="0.6" stroke-width="3.2"/>
<circle clip-path="url(#clip952)" cx="1198.08" cy="514.639" r="7.2" fill="#80c4ac" fill-rule="evenodd" fill-opacity="0.6" stroke="#000000" stroke-opacity="0.6" stroke-width="3.2"/>
<circle clip-path="url(#clip952)" cx="1262.06" cy="549.049" r="7.2" fill="#80c4ac" fill-rule="evenodd" fill-opacity="0.6" stroke="#000000" stroke-opacity="0.6" stroke-width="3.2"/>
<circle clip-path="url(#clip952)" cx="1326.04" cy="583.458" r="7.2" fill="#80c4ac" fill-rule="evenodd" fill-opacity="0.6" stroke="#000000" stroke-opacity="0.6" stroke-width="3.2"/>
<circle clip-path="url(#clip952)" cx="1390.02" cy="617.868" r="7.2" fill="#80c4ac" fill-rule="evenodd" fill-opacity="0.6" stroke="#000000" stroke-opacity="0.6" stroke-width="3.2"/>
<circle clip-path="url(#clip952)" cx="1453.99" cy="652.278" r="7.2" fill="#80c4ac" fill-rule="evenodd" fill-opacity="0.6" stroke="#000000" stroke-opacity="0.6" stroke-width="3.2"/>
<circle clip-path="url(#clip952)" cx="1517.97" cy="686.688" r="7.2" fill="#80c4ac" fill-rule="evenodd" fill-opacity="0.6" stroke="#000000" stroke-opacity="0.6" stroke-width="3.2"/>
<circle clip-path="url(#clip952)" cx="1581.95" cy="714.631" r="7.2" fill="#80c4ac" fill-rule="evenodd" fill-opacity="0.6" stroke="#000000" stroke-opacity="0.6" stroke-width="3.2"/>
<circle clip-path="url(#clip952)" cx="1645.93" cy="680.221" r="7.2" fill="#80c4ac" fill-rule="evenodd" fill-opacity="0.6" stroke="#000000" stroke-opacity="0.6" stroke-width="3.2"/>
<circle clip-path="url(#clip952)" cx="1709.91" cy="645.812" r="7.2" fill="#80c4ac" fill-rule="evenodd" fill-opacity="0.6" stroke="#000000" stroke-opacity="0.6" stroke-width="3.2"/>
<circle clip-path="url(#clip952)" cx="1773.89" cy="611.402" r="7.2" fill="#80c4ac" fill-rule="evenodd" fill-opacity="0.6" stroke="#000000" stroke-opacity="0.6" stroke-width="3.2"/>
<circle clip-path="url(#clip952)" cx="1837.86" cy="576.992" r="7.2" fill="#80c4ac" fill-rule="evenodd" fill-opacity="0.6" stroke="#000000" stroke-opacity="0.6" stroke-width="3.2"/>
<circle clip-path="url(#clip952)" cx="1850.25" cy="542.582" r="7.2" fill="#80c4ac" fill-rule="evenodd" fill-opacity="0.6" stroke="#000000" stroke-opacity="0.6" stroke-width="3.2"/>
<circle clip-path="url(#clip952)" cx="1786.27" cy="508.172" r="7.2" fill="#80c4ac" fill-rule="evenodd" fill-opacity="0.6" stroke="#000000" stroke-opacity="0.6" stroke-width="3.2"/>
<circle clip-path="url(#clip952)" cx="1722.29" cy="473.763" r="7.2" fill="#80c4ac" fill-rule="evenodd" fill-opacity="0.6" stroke="#000000" stroke-opacity="0.6" stroke-width="3.2"/>
<circle clip-path="url(#clip952)" cx="1658.31" cy="439.353" r="7.2" fill="#80c4ac" fill-rule="evenodd" fill-opacity="0.6" stroke="#000000" stroke-opacity="0.6" stroke-width="3.2"/>
<circle clip-path="url(#clip952)" cx="1594.33" cy="404.943" r="7.2" fill="#80c4ac" fill-rule="evenodd" fill-opacity="0.6" stroke="#000000" stroke-opacity="0.6" stroke-width="3.2"/>
<circle clip-path="url(#clip952)" cx="1530.36" cy="370.533" r="7.2" fill="#80c4ac" fill-rule="evenodd" fill-opacity="0.6" stroke="#000000" stroke-opacity="0.6" stroke-width="3.2"/>
<circle clip-path="url(#clip952)" cx="1466.38" cy="370.908" r="7.2" fill="#80c4ac" fill-rule="evenodd" fill-opacity="0.6" stroke="#000000" stroke-opacity="0.6" stroke-width="3.2"/>
<circle clip-path="url(#clip952)" cx="1402.4" cy="405.318" r="7.2" fill="#80c4ac" fill-rule="evenodd" fill-opacity="0.6" stroke="#000000" stroke-opacity="0.6" stroke-width="3.2"/>
<circle clip-path="url(#clip952)" cx="1338.42" cy="439.728" r="7.2" fill="#80c4ac" fill-rule="evenodd" fill-opacity="0.6" stroke="#000000" stroke-opacity="0.6" stroke-width="3.2"/>
<circle clip-path="url(#clip952)" cx="1274.44" cy="474.137" r="7.2" fill="#80c4ac" fill-rule="evenodd" fill-opacity="0.6" stroke="#000000" stroke-opacity="0.6" stroke-width="3.2"/>
<circle clip-path="url(#clip952)" cx="1210.46" cy="508.547" r="7.2" fill="#80c4ac" fill-rule="evenodd" fill-opacity="0.6" stroke="#000000" stroke-opacity="0.6" stroke-width="3.2"/>
<circle clip-path="url(#clip952)" cx="1146.49" cy="542.957" r="7.2" fill="#80c4ac" fill-rule="evenodd" fill-opacity="0.6" stroke="#000000" stroke-opacity="0.6" stroke-width="3.2"/>
<circle clip-path="url(#clip952)" cx="1191.15" cy="577.367" r="7.2" fill="#80c4ac" fill-rule="evenodd" fill-opacity="0.6" stroke="#000000" stroke-opacity="0.6" stroke-width="3.2"/>
<circle clip-path="url(#clip952)" cx="1255.13" cy="611.776" r="7.2" fill="#80c4ac" fill-rule="evenodd" fill-opacity="0.6" stroke="#000000" stroke-opacity="0.6" stroke-width="3.2"/>
<circle clip-path="url(#clip952)" cx="1319.1" cy="646.186" r="7.2" fill="#80c4ac" fill-rule="evenodd" fill-opacity="0.6" stroke="#000000" stroke-opacity="0.6" stroke-width="3.2"/>
<circle clip-path="url(#clip952)" cx="1383.08" cy="680.596" r="7.2" fill="#80c4ac" fill-rule="evenodd" fill-opacity="0.6" stroke="#000000" stroke-opacity="0.6" stroke-width="3.2"/>
<circle clip-path="url(#clip952)" cx="1447.06" cy="715.006" r="7.2" fill="#80c4ac" fill-rule="evenodd" fill-opacity="0.6" stroke="#000000" stroke-opacity="0.6" stroke-width="3.2"/>
<circle clip-path="url(#clip952)" cx="1511.04" cy="749.416" r="7.2" fill="#80c4ac" fill-rule="evenodd" fill-opacity="0.6" stroke="#000000" stroke-opacity="0.6" stroke-width="3.2"/>
<circle clip-path="url(#clip952)" cx="1575.02" cy="783.825" r="7.2" fill="#80c4ac" fill-rule="evenodd" fill-opacity="0.6" stroke="#000000" stroke-opacity="0.6" stroke-width="3.2"/>
<circle clip-path="url(#clip952)" cx="1639" cy="818.235" r="7.2" fill="#80c4ac" fill-rule="evenodd" fill-opacity="0.6" stroke="#000000" stroke-opacity="0.6" stroke-width="3.2"/>
<circle clip-path="url(#clip952)" cx="1702.97" cy="852.645" r="7.2" fill="#80c4ac" fill-rule="evenodd" fill-opacity="0.6" stroke="#000000" stroke-opacity="0.6" stroke-width="3.2"/>
<circle clip-path="url(#clip952)" cx="1766.95" cy="887.055" r="7.2" fill="#80c4ac" fill-rule="evenodd" fill-opacity="0.6" stroke="#000000" stroke-opacity="0.6" stroke-width="3.2"/>
<circle clip-path="url(#clip952)" cx="1744.33" cy="921.465" r="7.2" fill="#80c4ac" fill-rule="evenodd" fill-opacity="0.6" stroke="#000000" stroke-opacity="0.6" stroke-width="3.2"/>
<circle clip-path="url(#clip952)" cx="1680.35" cy="955.874" r="7.2" fill="#80c4ac" fill-rule="evenodd" fill-opacity="0.6" stroke="#000000" stroke-opacity="0.6" stroke-width="3.2"/>
<circle clip-path="url(#clip952)" cx="1616.37" cy="990.284" r="7.2" fill="#80c4ac" fill-rule="evenodd" fill-opacity="0.6" stroke="#000000" stroke-opacity="0.6" stroke-width="3.2"/>
<circle clip-path="url(#clip952)" cx="1552.39" cy="1024.69" r="7.2" fill="#80c4ac" fill-rule="evenodd" fill-opacity="0.6" stroke="#000000" stroke-opacity="0.6" stroke-width="3.2"/>
<circle clip-path="url(#clip952)" cx="1488.42" cy="1059.1" r="7.2" fill="#80c4ac" fill-rule="evenodd" fill-opacity="0.6" stroke="#000000" stroke-opacity="0.6" stroke-width="3.2"/>
<circle clip-path="url(#clip952)" cx="1424.44" cy="1083.42" r="7.2" fill="#80c4ac" fill-rule="evenodd" fill-opacity="0.6" stroke="#000000" stroke-opacity="0.6" stroke-width="3.2"/>
<circle clip-path="url(#clip952)" cx="1360.46" cy="1049.01" r="7.2" fill="#80c4ac" fill-rule="evenodd" fill-opacity="0.6" stroke="#000000" stroke-opacity="0.6" stroke-width="3.2"/>
<circle clip-path="url(#clip952)" cx="1296.48" cy="1014.6" r="7.2" fill="#80c4ac" fill-rule="evenodd" fill-opacity="0.6" stroke="#000000" stroke-opacity="0.6" stroke-width="3.2"/>
<circle clip-path="url(#clip952)" cx="1232.5" cy="980.189" r="7.2" fill="#80c4ac" fill-rule="evenodd" fill-opacity="0.6" stroke="#000000" stroke-opacity="0.6" stroke-width="3.2"/>
<circle clip-path="url(#clip952)" cx="1168.52" cy="945.779" r="7.2" fill="#80c4ac" fill-rule="evenodd" fill-opacity="0.6" stroke="#000000" stroke-opacity="0.6" stroke-width="3.2"/>
<circle clip-path="url(#clip952)" cx="1104.55" cy="911.369" r="7.2" fill="#80c4ac" fill-rule="evenodd" fill-opacity="0.6" stroke="#000000" stroke-opacity="0.6" stroke-width="3.2"/>
<circle clip-path="url(#clip952)" cx="1040.57" cy="876.959" r="7.2" fill="#80c4ac" fill-rule="evenodd" fill-opacity="0.6" stroke="#000000" stroke-opacity="0.6" stroke-width="3.2"/>
<circle clip-path="url(#clip952)" cx="976.59" cy="842.55" r="7.2" fill="#80c4ac" fill-rule="evenodd" fill-opacity="0.6" stroke="#000000" stroke-opacity="0.6" stroke-width="3.2"/>
<circle clip-path="url(#clip952)" cx="912.611" cy="808.14" r="7.2" fill="#80c4ac" fill-rule="evenodd" fill-opacity="0.6" stroke="#000000" stroke-opacity="0.6" stroke-width="3.2"/>
<circle clip-path="url(#clip952)" cx="848.633" cy="773.73" r="7.2" fill="#80c4ac" fill-rule="evenodd" fill-opacity="0.6" stroke="#000000" stroke-opacity="0.6" stroke-width="3.2"/>
<circle clip-path="url(#clip952)" cx="784.655" cy="739.32" r="7.2" fill="#80c4ac" fill-rule="evenodd" fill-opacity="0.6" stroke="#000000" stroke-opacity="0.6" stroke-width="3.2"/>
<circle clip-path="url(#clip952)" cx="720.677" cy="704.911" r="7.2" fill="#80c4ac" fill-rule="evenodd" fill-opacity="0.6" stroke="#000000" stroke-opacity="0.6" stroke-width="3.2"/>
<circle clip-path="url(#clip952)" cx="656.698" cy="670.501" r="7.2" fill="#80c4ac" fill-rule="evenodd" fill-opacity="0.6" stroke="#000000" stroke-opacity="0.6" stroke-width="3.2"/>
<circle clip-path="url(#clip952)" cx="592.72" cy="636.091" r="7.2" fill="#80c4ac" fill-rule="evenodd" fill-opacity="0.6" stroke="#000000" stroke-opacity="0.6" stroke-width="3.2"/>
<circle clip-path="url(#clip952)" cx="479.182" cy="645.788" r="21.6" fill="#008000" fill-rule="evenodd" fill-opacity="1" stroke="#000000" stroke-opacity="1" stroke-width="3.2"/>
<circle clip-path="url(#clip952)" cx="592.72" cy="636.091" r="21.6" fill="#ff0000" fill-rule="evenodd" fill-opacity="1" stroke="#000000" stroke-opacity="1" stroke-width="3.2"/>
<path clip-path="url(#clip950)" d="M282.146 374.156 L905.905 374.156 L905.905 166.796 L282.146 166.796  Z" fill="#ffffff" fill-rule="evenodd" fill-opacity="1"/>
<polyline clip-path="url(#clip950)" style="stroke:#000000; stroke-linecap:round; stroke-linejoin:round; stroke-width:4; stroke-opacity:1; fill:none" points="282.146,374.156 905.905,374.156 905.905,166.796 282.146,166.796 282.146,374.156 "/>
<polyline clip-path="url(#clip950)" style="stroke:#80c4ac; stroke-linecap:round; stroke-linejoin:round; stroke-width:8; stroke-opacity:1; fill:none" points="305.946,218.636 448.747,218.636 "/>
<circle clip-path="url(#clip950)" cx="377.347" cy="218.636" r="18.432" fill="#80c4ac" fill-rule="evenodd" fill-opacity="0.6" stroke="#000000" stroke-opacity="0.6" stroke-width="8.192"/>
<path clip-path="url(#clip950)" d="M473.08 201.356 L500.232 201.356 L500.232 204.921 L478.38 231.981 L500.765 231.981 L500.765 235.916 L472.547 235.916 L472.547 232.351 L494.399 205.291 L473.08 205.291 L473.08 201.356 Z" fill="#000000" fill-rule="nonzero" fill-opacity="1" /><path clip-path="url(#clip950)" d="M507.362 209.99 L511.621 209.99 L511.621 235.916 L507.362 235.916 L507.362 209.99 M507.362 199.897 L511.621 199.897 L511.621 205.291 L507.362 205.291 L507.362 199.897 Z" fill="#000000" fill-rule="nonzero" fill-opacity="1" /><path clip-path="url(#clip950)" d="M537.593 222.652 Q537.593 218.022 535.672 215.476 Q533.774 212.93 530.325 212.93 Q526.899 212.93 524.977 215.476 Q523.079 218.022 523.079 222.652 Q523.079 227.258 524.977 229.805 Q526.899 232.351 530.325 232.351 Q533.774 232.351 535.672 229.805 Q537.593 227.258 537.593 222.652 M541.852 232.698 Q541.852 239.318 538.913 242.536 Q535.973 245.777 529.908 245.777 Q527.663 245.777 525.672 245.43 Q523.681 245.105 521.806 244.411 L521.806 240.268 Q523.681 241.286 525.51 241.772 Q527.339 242.258 529.237 242.258 Q533.426 242.258 535.51 240.059 Q537.593 237.883 537.593 233.462 L537.593 231.356 Q536.274 233.647 534.213 234.781 Q532.153 235.916 529.283 235.916 Q524.514 235.916 521.598 232.281 Q518.681 228.647 518.681 222.652 Q518.681 216.633 521.598 212.999 Q524.514 209.365 529.283 209.365 Q532.153 209.365 534.213 210.499 Q536.274 211.633 537.593 213.925 L537.593 209.99 L541.852 209.99 L541.852 232.698 Z" fill="#000000" fill-rule="nonzero" fill-opacity="1" /><path clip-path="url(#clip950)" d="M548.82 201.356 L575.973 201.356 L575.973 204.921 L554.121 231.981 L576.505 231.981 L576.505 235.916 L548.287 235.916 L548.287 232.351 L570.139 205.291 L548.82 205.291 L548.82 201.356 Z" fill="#000000" fill-rule="nonzero" fill-opacity="1" /><path clip-path="url(#clip950)" d="M594.884 222.883 Q589.722 222.883 587.732 224.064 Q585.741 225.244 585.741 228.092 Q585.741 230.36 587.222 231.703 Q588.727 233.022 591.297 233.022 Q594.838 233.022 596.968 230.522 Q599.121 227.999 599.121 223.832 L599.121 222.883 L594.884 222.883 M603.38 221.124 L603.38 235.916 L599.121 235.916 L599.121 231.981 Q597.662 234.342 595.486 235.476 Q593.31 236.587 590.162 236.587 Q586.181 236.587 583.82 234.365 Q581.482 232.119 581.482 228.369 Q581.482 223.994 584.398 221.772 Q587.338 219.55 593.148 219.55 L599.121 219.55 L599.121 219.133 Q599.121 216.194 597.176 214.596 Q595.255 212.976 591.759 212.976 Q589.537 212.976 587.431 213.508 Q585.324 214.041 583.38 215.106 L583.38 211.17 Q585.718 210.268 587.917 209.828 Q590.116 209.365 592.199 209.365 Q597.824 209.365 600.602 212.282 Q603.38 215.198 603.38 221.124 Z" fill="#000000" fill-rule="nonzero" fill-opacity="1" /><path clip-path="url(#clip950)" d="M629.213 222.652 Q629.213 218.022 627.292 215.476 Q625.394 212.93 621.945 212.93 Q618.519 212.93 616.597 215.476 Q614.699 218.022 614.699 222.652 Q614.699 227.258 616.597 229.805 Q618.519 232.351 621.945 232.351 Q625.394 232.351 627.292 229.805 Q629.213 227.258 629.213 222.652 M633.472 232.698 Q633.472 239.318 630.532 242.536 Q627.593 245.777 621.528 245.777 Q619.282 245.777 617.292 245.43 Q615.301 245.105 613.426 244.411 L613.426 240.268 Q615.301 241.286 617.13 241.772 Q618.958 242.258 620.857 242.258 Q625.046 242.258 627.13 240.059 Q629.213 237.883 629.213 233.462 L629.213 231.356 Q627.894 233.647 625.833 234.781 Q623.773 235.916 620.903 235.916 Q616.134 235.916 613.218 232.281 Q610.301 228.647 610.301 222.652 Q610.301 216.633 613.218 212.999 Q616.134 209.365 620.903 209.365 Q623.773 209.365 625.833 210.499 Q627.894 211.633 629.213 213.925 L629.213 209.99 L633.472 209.99 L633.472 232.698 Z" fill="#000000" fill-rule="nonzero" fill-opacity="1" /><path clip-path="url(#clip950)" d="M661.528 202.629 L661.528 209.99 L670.301 209.99 L670.301 213.3 L661.528 213.3 L661.528 227.374 Q661.528 230.545 662.384 231.448 Q663.264 232.351 665.926 232.351 L670.301 232.351 L670.301 235.916 L665.926 235.916 Q660.995 235.916 659.12 234.087 Q657.245 232.235 657.245 227.374 L657.245 213.3 L654.12 213.3 L654.12 209.99 L657.245 209.99 L657.245 202.629 L661.528 202.629 Z" fill="#000000" fill-rule="nonzero" fill-opacity="1" /><path clip-path="url(#clip950)" d="M690.926 213.971 Q690.208 213.555 689.352 213.37 Q688.518 213.161 687.5 213.161 Q683.889 213.161 681.944 215.522 Q680.023 217.86 680.023 222.258 L680.023 235.916 L675.741 235.916 L675.741 209.99 L680.023 209.99 L680.023 214.018 Q681.365 211.657 683.518 210.522 Q685.671 209.365 688.75 209.365 Q689.19 209.365 689.722 209.434 Q690.254 209.481 690.902 209.596 L690.926 213.971 Z" fill="#000000" fill-rule="nonzero" fill-opacity="1" /><path clip-path="url(#clip950)" d="M707.176 222.883 Q702.014 222.883 700.023 224.064 Q698.032 225.244 698.032 228.092 Q698.032 230.36 699.514 231.703 Q701.018 233.022 703.588 233.022 Q707.129 233.022 709.259 230.522 Q711.412 227.999 711.412 223.832 L711.412 222.883 L707.176 222.883 M715.671 221.124 L715.671 235.916 L711.412 235.916 L711.412 231.981 Q709.953 234.342 707.777 235.476 Q705.601 236.587 702.453 236.587 Q698.472 236.587 696.111 234.365 Q693.773 232.119 693.773 228.369 Q693.773 223.994 696.689 221.772 Q699.629 219.55 705.439 219.55 L711.412 219.55 L711.412 219.133 Q711.412 216.194 709.467 214.596 Q707.546 212.976 704.051 212.976 Q701.828 212.976 699.722 213.508 Q697.615 214.041 695.671 215.106 L695.671 211.17 Q698.009 210.268 700.208 209.828 Q702.407 209.365 704.49 209.365 Q710.115 209.365 712.893 212.282 Q715.671 215.198 715.671 221.124 Z" fill="#000000" fill-rule="nonzero" fill-opacity="1" /><path clip-path="url(#clip950)" d="M724.444 209.99 L728.703 209.99 L728.703 236.379 Q728.703 241.332 726.805 243.555 Q724.93 245.777 720.74 245.777 L719.12 245.777 L719.12 242.166 L720.254 242.166 Q722.685 242.166 723.564 241.031 Q724.444 239.92 724.444 236.379 L724.444 209.99 M724.444 199.897 L728.703 199.897 L728.703 205.291 L724.444 205.291 L724.444 199.897 Z" fill="#000000" fill-rule="nonzero" fill-opacity="1" /><path clip-path="url(#clip950)" d="M759.791 221.888 L759.791 223.971 L740.208 223.971 Q740.486 228.369 742.847 230.684 Q745.231 232.976 749.467 232.976 Q751.921 232.976 754.212 232.374 Q756.527 231.772 758.796 230.569 L758.796 234.596 Q756.504 235.568 754.097 236.078 Q751.689 236.587 749.212 236.587 Q743.009 236.587 739.374 232.976 Q735.763 229.365 735.763 223.207 Q735.763 216.842 739.189 213.115 Q742.638 209.365 748.472 209.365 Q753.703 209.365 756.735 212.745 Q759.791 216.101 759.791 221.888 M755.532 220.638 Q755.485 217.143 753.564 215.059 Q751.666 212.976 748.518 212.976 Q744.953 212.976 742.8 214.99 Q740.671 217.004 740.347 220.661 L755.532 220.638 Z" fill="#000000" fill-rule="nonzero" fill-opacity="1" /><path clip-path="url(#clip950)" d="M785.439 210.985 L785.439 214.967 Q783.633 213.971 781.805 213.485 Q779.999 212.976 778.147 212.976 Q774.004 212.976 771.712 215.615 Q769.421 218.231 769.421 222.976 Q769.421 227.721 771.712 230.36 Q774.004 232.976 778.147 232.976 Q779.999 232.976 781.805 232.49 Q783.633 231.981 785.439 230.985 L785.439 234.92 Q783.657 235.754 781.735 236.17 Q779.837 236.587 777.684 236.587 Q771.828 236.587 768.379 232.906 Q764.93 229.226 764.93 222.976 Q764.93 216.633 768.402 212.999 Q771.897 209.365 777.962 209.365 Q779.93 209.365 781.805 209.782 Q783.68 210.175 785.439 210.985 Z" fill="#000000" fill-rule="nonzero" fill-opacity="1" /><path clip-path="url(#clip950)" d="M797.059 202.629 L797.059 209.99 L805.832 209.99 L805.832 213.3 L797.059 213.3 L797.059 227.374 Q797.059 230.545 797.916 231.448 Q798.795 232.351 801.457 232.351 L805.832 232.351 L805.832 235.916 L801.457 235.916 Q796.527 235.916 794.652 234.087 Q792.777 232.235 792.777 227.374 L792.777 213.3 L789.652 213.3 L789.652 209.99 L792.777 209.99 L792.777 202.629 L797.059 202.629 Z" fill="#000000" fill-rule="nonzero" fill-opacity="1" /><path clip-path="url(#clip950)" d="M821.48 212.976 Q818.055 212.976 816.064 215.661 Q814.073 218.323 814.073 222.976 Q814.073 227.629 816.041 230.314 Q818.031 232.976 821.48 232.976 Q824.883 232.976 826.874 230.291 Q828.865 227.606 828.865 222.976 Q828.865 218.37 826.874 215.684 Q824.883 212.976 821.48 212.976 M821.48 209.365 Q827.036 209.365 830.207 212.976 Q833.379 216.587 833.379 222.976 Q833.379 229.342 830.207 232.976 Q827.036 236.587 821.48 236.587 Q815.902 236.587 812.731 232.976 Q809.582 229.342 809.582 222.976 Q809.582 216.587 812.731 212.976 Q815.902 209.365 821.48 209.365 Z" fill="#000000" fill-rule="nonzero" fill-opacity="1" /><path clip-path="url(#clip950)" d="M855.462 213.971 Q854.744 213.555 853.888 213.37 Q853.054 213.161 852.036 213.161 Q848.425 213.161 846.48 215.522 Q844.559 217.86 844.559 222.258 L844.559 235.916 L840.277 235.916 L840.277 209.99 L844.559 209.99 L844.559 214.018 Q845.902 211.657 848.054 210.522 Q850.207 209.365 853.286 209.365 Q853.726 209.365 854.258 209.434 Q854.79 209.481 855.439 209.596 L855.462 213.971 Z" fill="#000000" fill-rule="nonzero" fill-opacity="1" /><path clip-path="url(#clip950)" d="M870.716 238.323 Q868.911 242.953 867.198 244.365 Q865.485 245.777 862.615 245.777 L859.212 245.777 L859.212 242.212 L861.712 242.212 Q863.471 242.212 864.443 241.379 Q865.415 240.545 866.596 237.443 L867.36 235.499 L856.874 209.99 L861.388 209.99 L869.489 230.268 L877.591 209.99 L882.105 209.99 L870.716 238.323 Z" fill="#000000" fill-rule="nonzero" fill-opacity="1" /><circle clip-path="url(#clip950)" cx="377.347" cy="270.476" r="21.2677" fill="#008000" fill-rule="evenodd" fill-opacity="1" stroke="#000000" stroke-opacity="1" stroke-width="3.15077"/>
<path clip-path="url(#clip950)" d="M494.792 254.33 L494.792 258.89 Q492.13 257.617 489.769 256.992 Q487.408 256.367 485.209 256.367 Q481.39 256.367 479.306 257.848 Q477.246 259.33 477.246 262.061 Q477.246 264.353 478.612 265.534 Q480.001 266.691 483.843 267.409 L486.667 267.987 Q491.899 268.983 494.376 271.506 Q496.876 274.006 496.876 278.219 Q496.876 283.242 493.496 285.834 Q490.14 288.427 483.635 288.427 Q481.181 288.427 478.404 287.871 Q475.649 287.316 472.686 286.228 L472.686 281.413 Q475.533 283.01 478.265 283.821 Q480.996 284.631 483.635 284.631 Q487.64 284.631 489.816 283.057 Q491.992 281.483 491.992 278.566 Q491.992 276.02 490.417 274.584 Q488.867 273.149 485.302 272.432 L482.455 271.876 Q477.223 270.835 474.885 268.612 Q472.547 266.39 472.547 262.432 Q472.547 257.848 475.765 255.21 Q479.005 252.571 484.677 252.571 Q487.107 252.571 489.63 253.011 Q492.154 253.45 494.792 254.33 Z" fill="#000000" fill-rule="nonzero" fill-opacity="1" /><path clip-path="url(#clip950)" d="M508.195 254.469 L508.195 261.83 L516.968 261.83 L516.968 265.14 L508.195 265.14 L508.195 279.214 Q508.195 282.385 509.052 283.288 Q509.931 284.191 512.593 284.191 L516.968 284.191 L516.968 287.756 L512.593 287.756 Q507.663 287.756 505.788 285.927 Q503.913 284.075 503.913 279.214 L503.913 265.14 L500.788 265.14 L500.788 261.83 L503.913 261.83 L503.913 254.469 L508.195 254.469 Z" fill="#000000" fill-rule="nonzero" fill-opacity="1" /><path clip-path="url(#clip950)" d="M534.352 274.723 Q529.19 274.723 527.2 275.904 Q525.209 277.084 525.209 279.932 Q525.209 282.2 526.69 283.543 Q528.195 284.862 530.764 284.862 Q534.306 284.862 536.436 282.362 Q538.588 279.839 538.588 275.672 L538.588 274.723 L534.352 274.723 M542.848 272.964 L542.848 287.756 L538.588 287.756 L538.588 283.821 Q537.13 286.182 534.954 287.316 Q532.778 288.427 529.63 288.427 Q525.649 288.427 523.288 286.205 Q520.95 283.959 520.95 280.209 Q520.95 275.834 523.866 273.612 Q526.806 271.39 532.616 271.39 L538.588 271.39 L538.588 270.973 Q538.588 268.034 536.644 266.436 Q534.723 264.816 531.227 264.816 Q529.005 264.816 526.899 265.348 Q524.792 265.881 522.848 266.946 L522.848 263.01 Q525.186 262.108 527.385 261.668 Q529.584 261.205 531.667 261.205 Q537.292 261.205 540.07 264.122 Q542.848 267.038 542.848 272.964 Z" fill="#000000" fill-rule="nonzero" fill-opacity="1" /><path clip-path="url(#clip950)" d="M566.644 265.811 Q565.926 265.395 565.07 265.21 Q564.236 265.001 563.218 265.001 Q559.607 265.001 557.662 267.362 Q555.741 269.7 555.741 274.098 L555.741 287.756 L551.459 287.756 L551.459 261.83 L555.741 261.83 L555.741 265.858 Q557.084 263.497 559.237 262.362 Q561.389 261.205 564.468 261.205 Q564.908 261.205 565.44 261.274 Q565.973 261.321 566.621 261.436 L566.644 265.811 Z" fill="#000000" fill-rule="nonzero" fill-opacity="1" /><path clip-path="url(#clip950)" d="M575.324 254.469 L575.324 261.83 L584.097 261.83 L584.097 265.14 L575.324 265.14 L575.324 279.214 Q575.324 282.385 576.181 283.288 Q577.06 284.191 579.723 284.191 L584.097 284.191 L584.097 287.756 L579.723 287.756 Q574.792 287.756 572.917 285.927 Q571.042 284.075 571.042 279.214 L571.042 265.14 L567.917 265.14 L567.917 261.83 L571.042 261.83 L571.042 254.469 L575.324 254.469 Z" fill="#000000" fill-rule="nonzero" fill-opacity="1" /><circle clip-path="url(#clip950)" cx="377.347" cy="322.316" r="21.2677" fill="#ff0000" fill-rule="evenodd" fill-opacity="1" stroke="#000000" stroke-opacity="1" stroke-width="3.15077"/>
<path clip-path="url(#clip950)" d="M472.547 305.036 L494.399 305.036 L494.399 308.971 L477.223 308.971 L477.223 319.202 L493.681 319.202 L493.681 323.137 L477.223 323.137 L477.223 335.661 L494.816 335.661 L494.816 339.596 L472.547 339.596 L472.547 305.036 Z" fill="#000000" fill-rule="nonzero" fill-opacity="1" /><path clip-path="url(#clip950)" d="M523.866 323.948 L523.866 339.596 L519.607 339.596 L519.607 324.087 Q519.607 320.406 518.172 318.577 Q516.737 316.749 513.866 316.749 Q510.417 316.749 508.427 318.948 Q506.436 321.147 506.436 324.943 L506.436 339.596 L502.153 339.596 L502.153 313.67 L506.436 313.67 L506.436 317.698 Q507.964 315.36 510.024 314.202 Q512.107 313.045 514.815 313.045 Q519.283 313.045 521.575 315.823 Q523.866 318.577 523.866 323.948 Z" fill="#000000" fill-rule="nonzero" fill-opacity="1" /><path clip-path="url(#clip950)" d="M549.422 317.605 L549.422 303.577 L553.681 303.577 L553.681 339.596 L549.422 339.596 L549.422 335.707 Q548.079 338.022 546.019 339.156 Q543.982 340.267 541.112 340.267 Q536.413 340.267 533.45 336.517 Q530.51 332.767 530.51 326.656 Q530.51 320.545 533.45 316.795 Q536.413 313.045 541.112 313.045 Q543.982 313.045 546.019 314.179 Q548.079 315.29 549.422 317.605 M534.908 326.656 Q534.908 331.355 536.829 334.04 Q538.774 336.702 542.153 336.702 Q545.533 336.702 547.477 334.04 Q549.422 331.355 549.422 326.656 Q549.422 321.957 547.477 319.295 Q545.533 316.61 542.153 316.61 Q538.774 316.61 536.829 319.295 Q534.908 321.957 534.908 326.656 Z" fill="#000000" fill-rule="nonzero" fill-opacity="1" /></svg>
