<?xml version="1.0" encoding="utf-8"?>
<svg xmlns="http://www.w3.org/2000/svg" xmlns:xlink="http://www.w3.org/1999/xlink" width="600" height="400" viewBox="0 0 2400 1600">
<defs>
  <clipPath id="clip050">
    <rect x="0" y="0" width="2400" height="1600"/>
  </clipPath>
</defs>
<path clip-path="url(#clip050)" d="M0 1600 L2400 1600 L2400 8.88178e-14 L0 8.88178e-14  Z" fill="#f0f1eb" fill-rule="evenodd" fill-opacity="1"/>
<defs>
  <clipPath id="clip051">
    <rect x="480" y="0" width="1681" height="1600"/>
  </clipPath>
</defs>
<path clip-path="url(#clip050)" d="M226.109 1384.3 L2352.76 1384.3 L2352.76 47.2441 L226.109 47.2441  Z" fill="#f0f1eb" fill-rule="evenodd" fill-opacity="1"/>
<defs>
  <clipPath id="clip052">
    <rect x="226" y="47" width="2128" height="1338"/>
  </clipPath>
</defs>
<polyline clip-path="url(#clip052)" style="stroke:#000000; stroke-linecap:round; stroke-linejoin:round; stroke-width:2; stroke-opacity:0.1; fill:none" points="286.297,1384.3 286.297,47.2441 "/>
<polyline clip-path="url(#clip052)" style="stroke:#000000; stroke-linecap:round; stroke-linejoin:round; stroke-width:2; stroke-opacity:0.1; fill:none" points="787.865,1384.3 787.865,47.2441 "/>
<polyline clip-path="url(#clip052)" style="stroke:#000000; stroke-linecap:round; stroke-linejoin:round; stroke-width:2; stroke-opacity:0.1; fill:none" points="1289.43,1384.3 1289.43,47.2441 "/>
<polyline clip-path="url(#clip052)" style="stroke:#000000; stroke-linecap:round; stroke-linejoin:round; stroke-width:2; stroke-opacity:0.1; fill:none" points="1791,1384.3 1791,47.2441 "/>
<polyline clip-path="url(#clip052)" style="stroke:#000000; stroke-linecap:round; stroke-linejoin:round; stroke-width:2; stroke-opacity:0.1; fill:none" points="2292.57,1384.3 2292.57,47.2441 "/>
<polyline clip-path="url(#clip052)" style="stroke:#000000; stroke-linecap:round; stroke-linejoin:round; stroke-width:2; stroke-opacity:0.1; fill:none" points="226.109,1346.46 2352.76,1346.46 "/>
<polyline clip-path="url(#clip052)" style="stroke:#000000; stroke-linecap:round; stroke-linejoin:round; stroke-width:2; stroke-opacity:0.1; fill:none" points="226.109,949.615 2352.76,949.615 "/>
<polyline clip-path="url(#clip052)" style="stroke:#000000; stroke-linecap:round; stroke-linejoin:round; stroke-width:2; stroke-opacity:0.1; fill:none" points="226.109,552.771 2352.76,552.771 "/>
<polyline clip-path="url(#clip052)" style="stroke:#000000; stroke-linecap:round; stroke-linejoin:round; stroke-width:2; stroke-opacity:0.1; fill:none" points="226.109,155.928 2352.76,155.928 "/>
<polyline clip-path="url(#clip050)" style="stroke:#000000; stroke-linecap:round; stroke-linejoin:round; stroke-width:4; stroke-opacity:1; fill:none" points="226.109,1384.3 2352.76,1384.3 "/>
<polyline clip-path="url(#clip050)" style="stroke:#000000; stroke-linecap:round; stroke-linejoin:round; stroke-width:4; stroke-opacity:1; fill:none" points="286.297,1384.3 286.297,1365.4 "/>
<polyline clip-path="url(#clip050)" style="stroke:#000000; stroke-linecap:round; stroke-linejoin:round; stroke-width:4; stroke-opacity:1; fill:none" points="787.865,1384.3 787.865,1365.4 "/>
<polyline clip-path="url(#clip050)" style="stroke:#000000; stroke-linecap:round; stroke-linejoin:round; stroke-width:4; stroke-opacity:1; fill:none" points="1289.43,1384.3 1289.43,1365.4 "/>
<polyline clip-path="url(#clip050)" style="stroke:#000000; stroke-linecap:round; stroke-linejoin:round; stroke-width:4; stroke-opacity:1; fill:none" points="1791,1384.3 1791,1365.4 "/>
<polyline clip-path="url(#clip050)" style="stroke:#000000; stroke-linecap:round; stroke-linejoin:round; stroke-width:4; stroke-opacity:1; fill:none" points="2292.57,1384.3 2292.57,1365.4 "/>
<path clip-path="url(#clip050)" d="M258.028 1418.15 Q253.514 1418.15 251.228 1422.6 Q248.971 1427.03 248.971 1435.94 Q248.971 1444.83 251.228 1449.28 Q253.514 1453.71 258.028 1453.71 Q262.571 1453.71 264.827 1449.28 Q267.113 1444.83 267.113 1435.94 Q267.113 1427.03 264.827 1422.6 Q262.571 1418.15 258.028 1418.15 M258.028 1413.52 Q265.29 1413.52 269.11 1419.28 Q272.958 1425.01 272.958 1435.94 Q272.958 1446.85 269.11 1452.61 Q265.29 1458.34 258.028 1458.34 Q250.765 1458.34 246.917 1452.61 Q243.097 1446.85 243.097 1435.94 Q243.097 1425.01 246.917 1419.28 Q250.765 1413.52 258.028 1413.52 Z" fill="#000000" fill-rule="nonzero" fill-opacity="1" /><path clip-path="url(#clip050)" d="M283.23 1450.15 L289.335 1450.15 L289.335 1457.5 L283.23 1457.5 L283.23 1450.15 Z" fill="#000000" fill-rule="nonzero" fill-opacity="1" /><path clip-path="url(#clip050)" d="M314.567 1418.15 Q310.053 1418.15 307.767 1422.6 Q305.51 1427.03 305.51 1435.94 Q305.51 1444.83 307.767 1449.28 Q310.053 1453.71 314.567 1453.71 Q319.11 1453.71 321.367 1449.28 Q323.652 1444.83 323.652 1435.94 Q323.652 1427.03 321.367 1422.6 Q319.11 1418.15 314.567 1418.15 M314.567 1413.52 Q321.829 1413.52 325.649 1419.28 Q329.497 1425.01 329.497 1435.94 Q329.497 1446.85 325.649 1452.61 Q321.829 1458.34 314.567 1458.34 Q307.304 1458.34 303.456 1452.61 Q299.636 1446.85 299.636 1435.94 Q299.636 1425.01 303.456 1419.28 Q307.304 1413.52 314.567 1413.52 Z" fill="#000000" fill-rule="nonzero" fill-opacity="1" /><path clip-path="url(#clip050)" d="M752.535 1452.58 L772.934 1452.58 L772.934 1457.5 L745.504 1457.5 L745.504 1452.58 Q748.832 1449.14 754.561 1443.35 Q760.319 1437.53 761.794 1435.86 Q764.601 1432.7 765.701 1430.53 Q766.829 1428.33 766.829 1426.22 Q766.829 1422.78 764.399 1420.61 Q761.997 1418.44 758.12 1418.44 Q755.371 1418.44 752.304 1419.39 Q749.266 1420.35 745.793 1422.29 L745.793 1416.38 Q749.323 1414.97 752.391 1414.24 Q755.458 1413.52 758.004 1413.52 Q764.717 1413.52 768.71 1416.88 Q772.703 1420.23 772.703 1425.84 Q772.703 1428.51 771.69 1430.91 Q770.706 1433.28 768.073 1436.52 Q767.35 1437.36 763.473 1441.38 Q759.595 1445.38 752.535 1452.58 Z" fill="#000000" fill-rule="nonzero" fill-opacity="1" /><path clip-path="url(#clip050)" d="M785.203 1450.15 L791.308 1450.15 L791.308 1457.5 L785.203 1457.5 L785.203 1450.15 Z" fill="#000000" fill-rule="nonzero" fill-opacity="1" /><path clip-path="url(#clip050)" d="M804.097 1414.3 L827.043 1414.3 L827.043 1419.22 L809.45 1419.22 L809.45 1429.81 Q810.724 1429.37 811.997 1429.17 Q813.27 1428.94 814.543 1428.94 Q821.777 1428.94 826.001 1432.91 Q830.226 1436.87 830.226 1443.64 Q830.226 1450.61 825.886 1454.49 Q821.545 1458.34 813.646 1458.34 Q810.926 1458.34 808.09 1457.88 Q805.284 1457.41 802.275 1456.49 L802.275 1450.61 Q804.879 1452.03 807.656 1452.73 Q810.434 1453.42 813.53 1453.42 Q818.536 1453.42 821.458 1450.79 Q824.381 1448.15 824.381 1443.64 Q824.381 1439.13 821.458 1436.49 Q818.536 1433.86 813.53 1433.86 Q811.187 1433.86 808.843 1434.38 Q806.528 1434.9 804.097 1436 L804.097 1414.3 Z" fill="#000000" fill-rule="nonzero" fill-opacity="1" /><path clip-path="url(#clip050)" d="M1248.39 1414.3 L1271.33 1414.3 L1271.33 1419.22 L1253.74 1419.22 L1253.74 1429.81 Q1255.01 1429.37 1256.29 1429.17 Q1257.56 1428.94 1258.83 1428.94 Q1266.07 1428.94 1270.29 1432.91 Q1274.52 1436.87 1274.52 1443.64 Q1274.52 1450.61 1270.18 1454.49 Q1265.84 1458.34 1257.94 1458.34 Q1255.22 1458.34 1252.38 1457.88 Q1249.57 1457.41 1246.57 1456.49 L1246.57 1450.61 Q1249.17 1452.03 1251.95 1452.73 Q1254.72 1453.42 1257.82 1453.42 Q1262.83 1453.42 1265.75 1450.79 Q1268.67 1448.15 1268.67 1443.64 Q1268.67 1439.13 1265.75 1436.49 Q1262.83 1433.86 1257.82 1433.86 Q1255.48 1433.86 1253.13 1434.38 Q1250.82 1434.9 1248.39 1436 L1248.39 1414.3 Z" fill="#000000" fill-rule="nonzero" fill-opacity="1" /><path clip-path="url(#clip050)" d="M1286.03 1450.15 L1292.14 1450.15 L1292.14 1457.5 L1286.03 1457.5 L1286.03 1450.15 Z" fill="#000000" fill-rule="nonzero" fill-opacity="1" /><path clip-path="url(#clip050)" d="M1317.37 1418.15 Q1312.86 1418.15 1310.57 1422.6 Q1308.31 1427.03 1308.31 1435.94 Q1308.31 1444.83 1310.57 1449.28 Q1312.86 1453.71 1317.37 1453.71 Q1321.91 1453.71 1324.17 1449.28 Q1326.45 1444.83 1326.45 1435.94 Q1326.45 1427.03 1324.17 1422.6 Q1321.91 1418.15 1317.37 1418.15 M1317.37 1413.52 Q1324.63 1413.52 1328.45 1419.28 Q1332.3 1425.01 1332.3 1435.94 Q1332.3 1446.85 1328.45 1452.61 Q1324.63 1458.34 1317.37 1458.34 Q1310.11 1458.34 1306.26 1452.61 Q1302.44 1446.85 1302.44 1435.94 Q1302.44 1425.01 1306.26 1419.28 Q1310.11 1413.52 1317.37 1413.52 Z" fill="#000000" fill-rule="nonzero" fill-opacity="1" /><path clip-path="url(#clip050)" d="M1748.9 1414.3 L1776.68 1414.3 L1776.68 1416.79 L1760.99 1457.5 L1754.89 1457.5 L1769.65 1419.22 L1748.9 1419.22 L1748.9 1414.3 Z" fill="#000000" fill-rule="nonzero" fill-opacity="1" /><path clip-path="url(#clip050)" d="M1788.08 1450.15 L1794.18 1450.15 L1794.18 1457.5 L1788.08 1457.5 L1788.08 1450.15 Z" fill="#000000" fill-rule="nonzero" fill-opacity="1" /><path clip-path="url(#clip050)" d="M1806.97 1414.3 L1829.92 1414.3 L1829.92 1419.22 L1812.33 1419.22 L1812.33 1429.81 Q1813.6 1429.37 1814.87 1429.17 Q1816.14 1428.94 1817.42 1428.94 Q1824.65 1428.94 1828.88 1432.91 Q1833.1 1436.87 1833.1 1443.64 Q1833.1 1450.61 1828.76 1454.49 Q1824.42 1458.34 1816.52 1458.34 Q1813.8 1458.34 1810.97 1457.88 Q1808.16 1457.41 1805.15 1456.49 L1805.15 1450.61 Q1807.75 1452.03 1810.53 1452.73 Q1813.31 1453.42 1816.41 1453.42 Q1821.41 1453.42 1824.33 1450.79 Q1827.26 1448.15 1827.26 1443.64 Q1827.26 1439.13 1824.33 1436.49 Q1821.41 1433.86 1816.41 1433.86 Q1814.06 1433.86 1811.72 1434.38 Q1809.4 1434.9 1806.97 1436 L1806.97 1414.3 Z" fill="#000000" fill-rule="nonzero" fill-opacity="1" /><path clip-path="url(#clip050)" d="M2232.66 1452.58 L2242.21 1452.58 L2242.21 1419.62 L2231.82 1421.71 L2231.82 1416.38 L2242.15 1414.3 L2247.99 1414.3 L2247.99 1452.58 L2257.54 1452.58 L2257.54 1457.5 L2232.66 1457.5 L2232.66 1452.58 Z" fill="#000000" fill-rule="nonzero" fill-opacity="1" /><path clip-path="url(#clip050)" d="M2281.85 1418.15 Q2277.33 1418.15 2275.05 1422.6 Q2272.79 1427.03 2272.79 1435.94 Q2272.79 1444.83 2275.05 1449.28 Q2277.33 1453.71 2281.85 1453.71 Q2286.39 1453.71 2288.65 1449.28 Q2290.93 1444.83 2290.93 1435.94 Q2290.93 1427.03 2288.65 1422.6 Q2286.39 1418.15 2281.85 1418.15 M2281.85 1413.52 Q2289.11 1413.52 2292.93 1419.28 Q2296.78 1425.01 2296.78 1435.94 Q2296.78 1446.85 2292.93 1452.61 Q2289.11 1458.34 2281.85 1458.34 Q2274.58 1458.34 2270.74 1452.61 Q2266.92 1446.85 2266.92 1435.94 Q2266.92 1425.01 2270.74 1419.28 Q2274.58 1413.52 2281.85 1413.52 Z" fill="#000000" fill-rule="nonzero" fill-opacity="1" /><path clip-path="url(#clip050)" d="M2307.05 1450.15 L2313.16 1450.15 L2313.16 1457.5 L2307.05 1457.5 L2307.05 1450.15 Z" fill="#000000" fill-rule="nonzero" fill-opacity="1" /><path clip-path="url(#clip050)" d="M2338.39 1418.15 Q2333.87 1418.15 2331.59 1422.6 Q2329.33 1427.03 2329.33 1435.94 Q2329.33 1444.83 2331.59 1449.28 Q2333.87 1453.71 2338.39 1453.71 Q2342.93 1453.71 2345.19 1449.28 Q2347.47 1444.83 2347.47 1435.94 Q2347.47 1427.03 2345.19 1422.6 Q2342.93 1418.15 2338.39 1418.15 M2338.39 1413.52 Q2345.65 1413.52 2349.47 1419.28 Q2353.32 1425.01 2353.32 1435.94 Q2353.32 1446.85 2349.47 1452.61 Q2345.65 1458.34 2338.39 1458.34 Q2331.12 1458.34 2327.28 1452.61 Q2323.46 1446.85 2323.46 1435.94 Q2323.46 1425.01 2327.28 1419.28 Q2331.12 1413.52 2338.39 1413.52 Z" fill="#000000" fill-rule="nonzero" fill-opacity="1" /><path clip-path="url(#clip050)" d="M1312.78 1513.75 Q1312.78 1521.55 1308.78 1528.87 Q1304.83 1536.2 1298.61 1540.63 Q1292.44 1545.05 1286.22 1545.05 Q1279.21 1545.05 1275.58 1537.78 Q1268.99 1564.18 1268.62 1564.87 Q1267.09 1567.14 1264.88 1567.14 Q1263.51 1567.14 1262.67 1566.29 Q1261.82 1565.5 1261.82 1564.24 Q1261.88 1563.82 1262.19 1562.5 L1272.73 1520.07 Q1275.16 1510.22 1282.48 1503.21 Q1289.86 1496.15 1297.76 1496.15 Q1304.04 1496.15 1308.41 1500.84 Q1312.78 1505.53 1312.78 1513.75 M1305.04 1509.11 Q1305.04 1503.84 1302.93 1501.21 Q1300.82 1498.52 1297.55 1498.52 Q1294.55 1498.52 1290.91 1500.94 Q1287.33 1503.37 1284.17 1508.74 Q1282.48 1511.85 1281.27 1515.7 Q1280.06 1519.55 1277.69 1529.03 Q1276.84 1532.83 1276.84 1533.04 Q1276.84 1533.46 1277.05 1534.41 Q1277.32 1535.36 1277.95 1536.83 Q1278.63 1538.26 1279.58 1539.52 Q1280.53 1540.79 1282.27 1541.73 Q1284.01 1542.63 1286.12 1542.63 Q1289.38 1542.63 1292.86 1539.99 Q1296.39 1537.31 1298.98 1532.41 Q1301.14 1528.45 1303.09 1521.02 Q1305.04 1513.54 1305.04 1509.11 Z" fill="#000000" fill-rule="nonzero" fill-opacity="1" /><polyline clip-path="url(#clip050)" style="stroke:#000000; stroke-linecap:round; stroke-linejoin:round; stroke-width:4; stroke-opacity:1; fill:none" points="226.109,1384.3 226.109,47.2441 "/>
<polyline clip-path="url(#clip050)" style="stroke:#000000; stroke-linecap:round; stroke-linejoin:round; stroke-width:4; stroke-opacity:1; fill:none" points="226.109,1346.46 245.007,1346.46 "/>
<polyline clip-path="url(#clip050)" style="stroke:#000000; stroke-linecap:round; stroke-linejoin:round; stroke-width:4; stroke-opacity:1; fill:none" points="226.109,949.615 245.007,949.615 "/>
<polyline clip-path="url(#clip050)" style="stroke:#000000; stroke-linecap:round; stroke-linejoin:round; stroke-width:4; stroke-opacity:1; fill:none" points="226.109,552.771 245.007,552.771 "/>
<polyline clip-path="url(#clip050)" style="stroke:#000000; stroke-linecap:round; stroke-linejoin:round; stroke-width:4; stroke-opacity:1; fill:none" points="226.109,155.928 245.007,155.928 "/>
<path clip-path="url(#clip050)" d="M175.179 1328.71 Q170.665 1328.71 168.379 1333.16 Q166.122 1337.59 166.122 1346.5 Q166.122 1355.39 168.379 1359.84 Q170.665 1364.27 175.179 1364.27 Q179.721 1364.27 181.978 1359.84 Q184.264 1355.39 184.264 1346.5 Q184.264 1337.59 181.978 1333.16 Q179.721 1328.71 175.179 1328.71 M175.179 1324.08 Q182.441 1324.08 186.261 1329.84 Q190.109 1335.56 190.109 1346.5 Q190.109 1357.41 186.261 1363.17 Q182.441 1368.9 175.179 1368.9 Q167.916 1368.9 164.068 1363.17 Q160.248 1357.41 160.248 1346.5 Q160.248 1335.56 164.068 1329.84 Q167.916 1324.08 175.179 1324.08 Z" fill="#000000" fill-rule="nonzero" fill-opacity="1" /><path clip-path="url(#clip050)" d="M165.225 966.296 L174.774 966.296 L174.774 933.339 L164.386 935.422 L164.386 930.098 L174.716 928.015 L180.561 928.015 L180.561 966.296 L190.109 966.296 L190.109 971.215 L165.225 971.215 L165.225 966.296 Z" fill="#000000" fill-rule="nonzero" fill-opacity="1" /><path clip-path="url(#clip050)" d="M169.71 569.453 L190.109 569.453 L190.109 574.371 L162.679 574.371 L162.679 569.453 Q166.006 566.009 171.735 560.222 Q177.493 554.406 178.969 552.728 Q181.776 549.574 182.875 547.404 Q184.004 545.205 184.004 543.093 Q184.004 539.649 181.573 537.479 Q179.172 535.309 175.294 535.309 Q172.546 535.309 169.478 536.264 Q166.44 537.219 162.968 539.158 L162.968 533.255 Q166.498 531.837 169.565 531.114 Q172.632 530.39 175.179 530.39 Q181.892 530.39 185.885 533.747 Q189.878 537.103 189.878 542.717 Q189.878 545.379 188.865 547.78 Q187.881 550.153 185.248 553.394 Q184.525 554.233 180.647 558.255 Q176.77 562.248 169.71 569.453 Z" fill="#000000" fill-rule="nonzero" fill-opacity="1" /><path clip-path="url(#clip050)" d="M181.197 154.235 Q185.393 155.132 187.736 157.968 Q190.109 160.803 190.109 164.97 Q190.109 171.365 185.711 174.866 Q181.313 178.367 173.211 178.367 Q170.491 178.367 167.598 177.817 Q164.733 177.296 161.666 176.226 L161.666 170.584 Q164.097 172.001 166.99 172.725 Q169.884 173.448 173.037 173.448 Q178.535 173.448 181.4 171.278 Q184.293 169.108 184.293 164.97 Q184.293 161.151 181.602 159.009 Q178.94 156.839 174.166 156.839 L169.131 156.839 L169.131 152.036 L174.397 152.036 Q178.709 152.036 180.995 150.329 Q183.28 148.593 183.28 145.352 Q183.28 142.025 180.908 140.26 Q178.564 138.466 174.166 138.466 Q171.764 138.466 169.016 138.986 Q166.267 139.507 162.968 140.607 L162.968 135.399 Q166.296 134.473 169.189 134.01 Q172.112 133.547 174.687 133.547 Q181.342 133.547 185.219 136.585 Q189.096 139.594 189.096 144.745 Q189.096 148.332 187.042 150.821 Q184.988 153.28 181.197 154.235 Z" fill="#000000" fill-rule="nonzero" fill-opacity="1" /><path clip-path="url(#clip050)" d="M60.7684 779.659 Q64.4574 779.659 64.4574 784.929 L64.4574 796.786 Q69.2005 793.466 76.2097 793.466 Q82.2175 793.466 87.8565 795.943 Q93.4427 798.367 97.3426 802.267 Q101.242 806.114 103.614 810.963 Q105.933 815.811 105.933 820.554 Q105.933 827.774 101.032 832.254 Q96.1304 836.733 88.8578 836.733 Q85.0106 836.733 80.7419 835.416 Q76.4732 834.046 72.5206 831.463 Q68.5154 828.881 65.3007 825.508 Q62.0859 822.083 60.136 817.656 Q58.1861 813.176 58.1861 808.486 L58.1861 783.875 Q58.1861 782.557 58.2915 781.872 Q58.3442 781.134 58.9766 780.396 Q59.5563 779.659 60.7684 779.659 M74.9448 800.37 Q73.68 800.37 72.5733 800.528 Q71.4139 800.686 69.8856 801.266 Q68.3046 801.846 67.1979 802.847 Q66.0385 803.848 65.248 805.798 Q64.4574 807.695 64.4574 810.278 Q64.4574 813.914 66.4601 817.919 Q68.4627 821.924 73.4165 824.981 Q77.6326 827.511 83.1134 828.776 Q88.5943 830.04 91.8617 830.04 Q97.448 830.04 100.505 827.353 Q103.509 824.612 103.509 820.449 Q103.509 817.023 101.19 813.124 Q98.8182 809.224 94.3386 806.22 Q90.4388 803.585 84.7471 802.004 Q79.0555 800.37 74.9448 800.37 Z" fill="#000000" fill-rule="nonzero" fill-opacity="1" /><path clip-path="url(#clip050)" d="M73.5763 768.698 Q72.2113 768.698 71.8055 768.587 Q71.3997 768.439 70.7726 767.849 L54.6146 753.351 Q45.6871 745.42 37.9033 745.42 Q32.8493 745.42 29.2341 748.076 Q25.6188 750.695 25.6188 755.528 Q25.6188 758.848 27.6478 761.652 Q29.6767 764.455 33.292 765.746 Q33.2182 765.525 33.2182 764.75 Q33.2182 762.869 34.3987 761.836 Q35.5792 760.766 37.1655 760.766 Q39.1944 760.766 40.1905 762.094 Q41.1496 763.385 41.1496 764.677 Q41.1496 765.193 41.039 765.894 Q40.9283 766.558 39.8954 767.628 Q38.8255 768.698 36.9441 768.698 Q31.6688 768.698 27.4633 764.714 Q23.2578 760.693 23.2578 754.569 Q23.2578 747.633 27.3895 743.096 Q31.4844 738.521 37.9033 738.521 Q40.1536 738.521 42.2195 739.222 Q44.2484 739.886 45.8347 740.809 Q47.421 741.694 49.9664 744.129 Q52.5119 746.563 54.3195 748.519 Q56.1271 750.474 59.9637 754.864 L67.7476 762.869 L67.7476 749.256 Q67.7476 742.616 67.1573 742.1 Q66.0875 741.362 60.4433 740.44 L60.4433 738.521 L73.5763 740.661 L73.5763 768.698 Z" fill="#000000" fill-rule="nonzero" fill-opacity="1" /><path clip-path="url(#clip050)" d="M77.738 727.296 Q59.5036 727.296 44.8002 720.498 Q38.6342 717.6 33.4695 713.542 Q28.3049 709.484 26.0388 706.796 Q23.7727 704.108 23.7727 703.37 Q23.7727 702.316 24.8267 702.264 Q25.3537 702.264 26.6712 703.687 Q44.3786 721.078 77.738 721.025 Q111.203 721.025 128.225 704.108 Q130.07 702.264 130.649 702.264 Q131.703 702.264 131.703 703.37 Q131.703 704.108 129.543 706.691 Q127.382 709.273 122.428 713.278 Q117.474 717.283 111.414 720.182 Q96.7102 727.296 77.738 727.296 Z" fill="#000000" fill-rule="nonzero" fill-opacity="1" /><path clip-path="url(#clip050)" d="M74.6286 643.102 Q82.4283 643.102 89.7537 647.107 Q97.0791 651.06 101.506 657.279 Q105.933 663.444 105.933 669.663 Q105.933 676.672 98.6601 680.309 Q125.063 686.896 125.748 687.265 Q128.014 688.793 128.014 691.007 Q128.014 692.377 127.171 693.22 Q126.381 694.063 125.116 694.063 Q124.694 694.011 123.377 693.695 L80.9527 683.154 Q71.0977 680.73 64.0885 673.405 Q57.0267 666.027 57.0267 658.122 Q57.0267 651.85 61.717 647.476 Q66.4074 643.102 74.6286 643.102 M69.991 650.849 Q64.7209 650.849 62.0859 652.957 Q59.3982 655.065 59.3982 658.333 Q59.3982 661.336 61.8224 664.973 Q64.2466 668.556 69.6221 671.718 Q72.7314 673.405 76.5786 674.617 Q80.4257 675.829 89.9118 678.201 Q93.7062 679.044 93.917 679.044 Q94.3386 679.044 95.2872 678.833 Q96.2358 678.57 97.7115 677.937 Q99.1344 677.252 100.399 676.303 Q101.664 675.355 102.613 673.616 Q103.509 671.877 103.509 669.769 Q103.509 666.501 100.873 663.023 Q98.1858 659.492 93.2846 656.91 Q89.3321 654.749 81.9013 652.799 Q74.4178 650.849 69.991 650.849 Z" fill="#000000" fill-rule="nonzero" fill-opacity="1" /><path clip-path="url(#clip050)" d="M130.649 636.252 Q130.122 636.252 128.805 634.881 Q111.097 617.49 77.738 617.49 Q44.2732 617.49 27.3563 634.196 Q25.4064 636.252 24.8267 636.252 Q23.7727 636.252 23.7727 635.198 Q23.7727 634.46 25.9334 631.877 Q28.0941 629.242 33.0479 625.29 Q38.0018 621.285 44.0624 618.333 Q58.7658 611.219 77.738 611.219 Q95.9723 611.219 110.676 618.017 Q116.842 620.916 122.006 624.974 Q127.171 629.032 129.437 631.719 Q131.703 634.407 131.703 635.198 Q131.703 636.252 130.649 636.252 Z" fill="#000000" fill-rule="nonzero" fill-opacity="1" /><polyline clip-path="url(#clip052)" style="stroke:#0096ff; stroke-linecap:round; stroke-linejoin:round; stroke-width:12; stroke-opacity:1; fill:none" points="286.297,1346.46 288.306,1330.7 290.314,1315.18 292.322,1299.92 294.33,1284.91 296.339,1270.14 298.347,1255.62 300.355,1241.34 302.363,1227.3 304.372,1213.49 306.38,1199.92 308.388,1186.59 310.397,1173.48 312.405,1160.6 314.413,1147.95 316.421,1135.52 318.43,1123.31 320.438,1111.32 322.446,1099.55 324.455,1087.99 326.463,1076.64 328.471,1065.49 330.479,1054.56 332.488,1043.83 334.496,1033.29 336.504,1022.96 338.513,1012.82 340.521,1002.88 342.529,993.123 344.537,983.557 346.546,974.176 348.554,964.979 350.562,955.961 352.57,947.122 354.579,938.458 356.587,929.967 358.595,921.647 360.604,913.494 362.612,905.508 364.62,897.684 366.628,890.021 368.637,882.516 370.645,875.168 372.653,867.973 374.662,860.929 376.67,854.034 378.678,847.286 380.686,840.682 382.695,834.22 384.703,827.897 386.711,821.713 388.719,815.664 390.728,809.748 392.736,803.963 394.744,798.307 396.753,792.778 398.761,787.374 400.769,782.092 402.777,776.931 404.786,771.888 406.794,766.963 408.802,762.152 410.811,757.453 412.819,752.866 414.827,748.387 416.835,744.016 418.844,739.75 420.852,735.587 422.86,731.526 424.868,727.564 426.877,723.701 428.885,719.935 430.893,716.263 432.902,712.684 434.91,709.196 436.918,705.798 438.926,702.489 440.935,699.266 442.943,696.128 444.951,693.073 446.96,690.101 448.968,687.209 450.976,684.396 452.984,681.661 454.993,679.002 457.001,676.418 459.009,673.907 461.018,671.469 463.026,669.101 465.034,666.803 467.042,664.573 469.051,662.41 471.059,660.312 473.067,658.279 475.075,656.31 477.084,654.402 479.092,652.555 481.1,650.768 483.109,649.04 485.117,647.369 487.125,645.755 489.133,644.196 491.142,642.691 493.15,641.24 495.158,639.841 497.167,638.493 499.175,637.196 501.183,635.947 503.191,634.747 505.2,633.595 507.208,632.489 509.216,631.429 511.224,630.413 513.233,629.441 515.241,628.513 517.249,627.626 519.258,626.781 521.266,625.976 523.274,625.211 525.282,624.485 527.291,623.798 529.299,623.147 531.307,622.534 533.316,621.956 535.324,621.414 537.332,620.906 539.34,620.432 541.349,619.991 543.357,619.583 545.365,619.206 547.374,618.861 549.382,618.546 551.39,618.262 553.398,618.006 555.407,617.78 557.415,617.582 559.423,617.411 561.431,617.267 563.44,617.15 565.448,617.059 567.456,616.993 569.465,616.953 571.473,616.936 573.481,616.944 575.489,616.975 577.498,617.028 579.506,617.104 581.514,617.203 583.523,617.322 585.531,617.463 587.539,617.624 589.547,617.806 591.556,618.007 593.564,618.228 595.572,618.467 597.58,618.725 599.589,619.001 601.597,619.295 603.605,619.606 605.614,619.934 607.622,620.279 609.63,620.64 611.638,621.017 613.647,621.409 615.655,621.817 617.663,622.24 619.672,622.677 621.68,623.128 623.688,623.593 625.696,624.072 627.705,624.564 629.713,625.069 631.721,625.587 633.729,626.117 635.738,626.66 637.746,627.214 639.754,627.78 641.763,628.357 643.771,628.945 645.779,629.544 647.787,630.153 649.796,630.773 651.804,631.403 653.812,632.043 655.821,632.692 657.829,633.351 659.837,634.019 661.845,634.695 663.854,635.381 665.862,636.075 667.87,636.777 669.879,637.487 671.887,638.206 673.895,638.931 675.903,639.665 677.912,640.405 679.92,641.153 681.928,641.908 683.936,642.67 685.945,643.438 687.953,644.212 689.961,644.993 691.97,645.78 693.978,646.572 695.986,647.371 697.994,648.175 700.003,648.985 702.011,649.799 704.019,650.619 706.028,651.445 708.036,652.274 710.044,653.109 712.052,653.948 714.061,654.792 716.069,655.64 718.077,656.492 720.085,657.349 722.094,658.209 724.102,659.073 726.11,659.941 728.119,660.812 730.127,661.687 732.135,662.565 734.143,663.447 736.152,664.331 738.16,665.219 740.168,666.11 742.177,667.003 744.185,667.9 746.193,668.798 748.201,669.7 750.21,670.604 752.218,671.51 754.226,672.419 756.234,673.329 758.243,674.242 760.251,675.157 762.259,676.074 764.268,676.992 766.276,677.913 768.284,678.835 770.292,679.758 772.301,680.684 774.309,681.61 776.317,682.538 778.326,683.468 780.334,684.398 782.342,685.33 784.35,686.263 786.359,687.197 788.367,688.132 790.375,689.068 792.384,690.005 794.392,690.942 796.4,691.88 798.408,692.819 800.417,693.759 802.425,694.699 804.433,695.64 806.441,696.581 808.45,697.522 810.458,698.464 812.466,699.406 814.475,700.349 816.483,701.292 818.491,702.234 820.499,703.177 822.508,704.12 824.516,705.063 826.524,706.006 828.533,706.949 830.541,707.892 832.549,708.835 834.557,709.777 836.566,710.719 838.574,711.661 840.582,712.603 842.59,713.544 844.599,714.485 846.607,715.426 848.615,716.366 850.624,717.306 852.632,718.245 854.64,719.184 856.648,720.122 858.657,721.059 860.665,721.996 862.673,722.932 864.682,723.867 866.69,724.802 868.698,725.736 870.706,726.669 872.715,727.601 874.723,728.533 876.731,729.463 878.74,730.393 880.748,731.322 882.756,732.25 884.764,733.177 886.773,734.103 888.781,735.028 890.789,735.952 892.797,736.875 894.806,737.797 896.814,738.718 898.822,739.637 900.831,740.556 902.839,741.473 904.847,742.389 906.855,743.305 908.864,744.218 910.872,745.131 912.88,746.043 914.889,746.953 916.897,747.862 918.905,748.769 920.913,749.676 922.922,750.581 924.93,751.484 926.938,752.387 928.946,753.288 930.955,754.188 932.963,755.086 934.971,755.983 936.98,756.878 938.988,757.773 940.996,758.665 943.004,759.556 945.013,760.446 947.021,761.335 949.029,762.222 951.038,763.107 953.046,763.991 955.054,764.873 957.062,765.754 959.071,766.634 961.079,767.511 963.087,768.388 965.095,769.263 967.104,770.136 969.112,771.008 971.12,771.878 973.129,772.746 975.137,773.613 977.145,774.479 979.153,775.342 981.162,776.205 983.17,777.065 985.178,777.924 987.187,778.782 989.195,779.637 991.203,780.491 993.211,781.344 995.22,782.195 997.228,783.044 999.236,783.892 1001.24,784.737 1003.25,785.582 1005.26,786.424 1007.27,787.265 1009.28,788.104 1011.29,788.942 1013.29,789.778 1015.3,790.612 1017.31,791.445 1019.32,792.276 1021.33,793.105 1023.34,793.932 1025.34,794.758 1027.35,795.582 1029.36,796.405 1031.37,797.225 1033.38,798.044 1035.39,798.862 1037.39,799.677 1039.4,800.491 1041.41,801.303 1043.42,802.114 1045.43,802.922 1047.43,803.729 1049.44,804.535 1051.45,805.338 1053.46,806.14 1055.47,806.94 1057.48,807.739 1059.48,808.536 1061.49,809.331 1063.5,810.124 1065.51,810.916 1067.52,811.706 1069.53,812.494 1071.53,813.28 1073.54,814.065 1075.55,814.848 1077.56,815.629 1079.57,816.409 1081.58,817.187 1083.58,817.963 1085.59,818.737 1087.6,819.51 1089.61,820.281 1091.62,821.05 1093.63,821.818 1095.63,822.584 1097.64,823.348 1099.65,824.11 1101.66,824.871 1103.67,825.63 1105.68,826.388 1107.68,827.143 1109.69,827.897 1111.7,828.649 1113.71,829.4 1115.72,830.149 1117.72,830.896 1119.73,831.641 1121.74,832.385 1123.75,833.127 1125.76,833.868 1127.77,834.606 1129.77,835.343 1131.78,836.079 1133.79,836.813 1135.8,837.545 1137.81,838.275 1139.82,839.004 1141.82,839.73 1143.83,840.456 1145.84,841.179 1147.85,841.901 1149.86,842.622 1151.87,843.34 1153.87,844.057 1155.88,844.773 1157.89,845.487 1159.9,846.199 1161.91,846.909 1163.92,847.618 1165.92,848.325 1167.93,849.031 1169.94,849.734 1171.95,850.437 1173.96,851.137 1175.96,851.836 1177.97,852.534 1179.98,853.229 1181.99,853.924 1184,854.616 1186.01,855.307 1188.01,855.996 1190.02,856.684 1192.03,857.37 1194.04,858.055 1196.05,858.738 1198.06,859.419 1200.06,860.099 1202.07,860.777 1204.08,861.453 1206.09,862.128 1208.1,862.802 1210.11,863.474 1212.11,864.144 1214.12,864.813 1216.13,865.48 1218.14,866.145 1220.15,866.809 1222.16,867.472 1224.16,868.133 1226.17,868.792 1228.18,869.45 1230.19,870.106 1232.2,870.761 1234.2,871.414 1236.21,872.066 1238.22,872.716 1240.23,873.365 1242.24,874.012 1244.25,874.658 1246.25,875.302 1248.26,875.945 1250.27,876.586 1252.28,877.225 1254.29,877.863 1256.3,878.5 1258.3,879.135 1260.31,879.769 1262.32,880.401 1264.33,881.032 1266.34,881.661 1268.35,882.289 1270.35,882.915 1272.36,883.54 1274.37,884.163 1276.38,884.785 1278.39,885.406 1280.4,886.025 1282.4,886.642 1284.41,887.258 1286.42,887.873 1288.43,888.486 1290.44,889.098 1292.44,889.708 1294.45,890.317 1296.46,890.925 1298.47,891.531 1300.48,892.136 1302.49,892.739 1304.49,893.341 1306.5,893.941 1308.51,894.54 1310.52,895.138 1312.53,895.734 1314.54,896.329 1316.54,896.923 1318.55,897.515 1320.56,898.106 1322.57,898.695 1324.58,899.283 1326.59,899.87 1328.59,900.455 1330.6,901.039 1332.61,901.622 1334.62,902.203 1336.63,902.783 1338.64,903.361 1340.64,903.938 1342.65,904.514 1344.66,905.089 1346.67,905.662 1348.68,906.234 1350.69,906.804 1352.69,907.374 1354.7,907.942 1356.71,908.508 1358.72,909.073 1360.73,909.637 1362.73,910.2 1364.74,910.762 1366.75,911.322 1368.76,911.88 1370.77,912.438 1372.78,912.994 1374.78,913.549 1376.79,914.103 1378.8,914.655 1380.81,915.206 1382.82,915.756 1384.83,916.305 1386.83,916.852 1388.84,917.398 1390.85,917.943 1392.86,918.487 1394.87,919.029 1396.88,919.57 1398.88,920.11 1400.89,920.648 1402.9,921.186 1404.91,921.722 1406.92,922.257 1408.93,922.791 1410.93,923.323 1412.94,923.855 1414.95,924.385 1416.96,924.913 1418.97,925.441 1420.97,925.968 1422.98,926.493 1424.99,927.017 1427,927.54 1429.01,928.062 1431.02,928.582 1433.02,929.101 1435.03,929.62 1437.04,930.137 1439.05,930.652 1441.06,931.167 1443.07,931.68 1445.07,932.193 1447.08,932.704 1449.09,933.214 1451.1,933.723 1453.11,934.231 1455.12,934.737 1457.12,935.243 1459.13,935.747 1461.14,936.25 1463.15,936.752 1465.16,937.253 1467.17,937.753 1469.17,938.251 1471.18,938.749 1473.19,939.245 1475.2,939.741 1477.21,940.235 1479.21,940.728 1481.22,941.22 1483.23,941.711 1485.24,942.201 1487.25,942.689 1489.26,943.177 1491.26,943.664 1493.27,944.149 1495.28,944.633 1497.29,945.117 1499.3,945.599 1501.31,946.08 1503.31,946.56 1505.32,947.039 1507.33,947.517 1509.34,947.994 1511.35,948.47 1513.36,948.945 1515.36,949.419 1517.37,949.891 1519.38,950.363 1521.39,950.834 1523.4,951.303 1525.41,951.772 1527.41,952.239 1529.42,952.706 1531.43,953.171 1533.44,953.636 1535.45,954.099 1537.45,954.561 1539.46,955.023 1541.47,955.483 1543.48,955.943 1545.49,956.401 1547.5,956.858 1549.5,957.315 1551.51,957.77 1553.52,958.224 1555.53,958.678 1557.54,959.13 1559.55,959.582 1561.55,960.032 1563.56,960.482 1565.57,960.93 1567.58,961.378 1569.59,961.824 1571.6,962.27 1573.6,962.714 1575.61,963.158 1577.62,963.601 1579.63,964.042 1581.64,964.483 1583.65,964.923 1585.65,965.362 1587.66,965.8 1589.67,966.237 1591.68,966.673 1593.69,967.108 1595.7,967.542 1597.7,967.976 1599.71,968.408 1601.72,968.839 1603.73,969.27 1605.74,969.699 1607.74,970.128 1609.75,970.556 1611.76,970.983 1613.77,971.408 1615.78,971.833 1617.79,972.258 1619.79,972.681 1621.8,973.103 1623.81,973.524 1625.82,973.945 1627.83,974.364 1629.84,974.783 1631.84,975.201 1633.85,975.618 1635.86,976.034 1637.87,976.449 1639.88,976.864 1641.89,977.277 1643.89,977.69 1645.9,978.101 1647.91,978.512 1649.92,978.922 1651.93,979.331 1653.94,979.739 1655.94,980.147 1657.95,980.553 1659.96,980.959 1661.97,981.364 1663.98,981.768 1665.98,982.171 1667.99,982.573 1670,982.975 1672.01,983.375 1674.02,983.775 1676.03,984.174 1678.03,984.572 1680.04,984.969 1682.05,985.366 1684.06,985.761 1686.07,986.156 1688.08,986.55 1690.08,986.943 1692.09,987.336 1694.1,987.727 1696.11,988.118 1698.12,988.508 1700.13,988.897 1702.13,989.286 1704.14,989.673 1706.15,990.06 1708.16,990.446 1710.17,990.831 1712.18,991.215 1714.18,991.599 1716.19,991.982 1718.2,992.364 1720.21,992.745 1722.22,993.125 1724.22,993.505 1726.23,993.884 1728.24,994.262 1730.25,994.639 1732.26,995.016 1734.27,995.392 1736.27,995.767 1738.28,996.141 1740.29,996.515 1742.3,996.887 1744.31,997.259 1746.32,997.631 1748.32,998.001 1750.33,998.371 1752.34,998.74 1754.35,999.108 1756.36,999.476 1758.37,999.842 1760.37,1000.21 1762.38,1000.57 1764.39,1000.94 1766.4,1001.3 1768.41,1001.67 1770.42,1002.03 1772.42,1002.39 1774.43,1002.75 1776.44,1003.11 1778.45,1003.47 1780.46,1003.83 1782.46,1004.19 1784.47,1004.54 1786.48,1004.9 1788.49,1005.26 1790.5,1005.61 1792.51,1005.97 1794.51,1006.32 1796.52,1006.67 1798.53,1007.03 1800.54,1007.38 1802.55,1007.73 1804.56,1008.08 1806.56,1008.43 1808.57,1008.78 1810.58,1009.13 1812.59,1009.47 1814.6,1009.82 1816.61,1010.17 1818.61,1010.51 1820.62,1010.86 1822.63,1011.2 1824.64,1011.54 1826.65,1011.89 1828.66,1012.23 1830.66,1012.57 1832.67,1012.91 1834.68,1013.25 1836.69,1013.59 1838.7,1013.93 1840.71,1014.27 1842.71,1014.6 1844.72,1014.94 1846.73,1015.28 1848.74,1015.61 1850.75,1015.95 1852.75,1016.28 1854.76,1016.62 1856.77,1016.95 1858.78,1017.28 1860.79,1017.61 1862.8,1017.94 1864.8,1018.27 1866.81,1018.6 1868.82,1018.93 1870.83,1019.26 1872.84,1019.59 1874.85,1019.92 1876.85,1020.24 1878.86,1020.57 1880.87,1020.89 1882.88,1021.22 1884.89,1021.54 1886.9,1021.86 1888.9,1022.19 1890.91,1022.51 1892.92,1022.83 1894.93,1023.15 1896.94,1023.47 1898.95,1023.79 1900.95,1024.11 1902.96,1024.43 1904.97,1024.75 1906.98,1025.07 1908.99,1025.38 1910.99,1025.7 1913,1026.01 1915.01,1026.33 1917.02,1026.64 1919.03,1026.96 1921.04,1027.27 1923.04,1027.58 1925.05,1027.89 1927.06,1028.2 1929.07,1028.52 1931.08,1028.83 1933.09,1029.14 1935.09,1029.44 1937.1,1029.75 1939.11,1030.06 1941.12,1030.37 1943.13,1030.67 1945.14,1030.98 1947.14,1031.29 1949.15,1031.59 1951.16,1031.9 1953.17,1032.2 1955.18,1032.5 1957.19,1032.81 1959.19,1033.11 1961.2,1033.41 1963.21,1033.71 1965.22,1034.01 1967.23,1034.31 1969.23,1034.61 1971.24,1034.91 1973.25,1035.21 1975.26,1035.5 1977.27,1035.8 1979.28,1036.1 1981.28,1036.39 1983.29,1036.69 1985.3,1036.98 1987.31,1037.28 1989.32,1037.57 1991.33,1037.87 1993.33,1038.16 1995.34,1038.45 1997.35,1038.74 1999.36,1039.03 2001.37,1039.32 2003.38,1039.61 2005.38,1039.9 2007.39,1040.19 2009.4,1040.48 2011.41,1040.77 2013.42,1041.06 2015.43,1041.34 2017.43,1041.63 2019.44,1041.92 2021.45,1042.2 2023.46,1042.49 2025.47,1042.77 2027.47,1043.05 2029.48,1043.34 2031.49,1043.62 2033.5,1043.9 2035.51,1044.18 2037.52,1044.47 2039.52,1044.75 2041.53,1045.03 2043.54,1045.31 2045.55,1045.59 2047.56,1045.86 2049.57,1046.14 2051.57,1046.42 2053.58,1046.7 2055.59,1046.97 2057.6,1047.25 2059.61,1047.53 2061.62,1047.8 2063.62,1048.08 2065.63,1048.35 2067.64,1048.62 2069.65,1048.9 2071.66,1049.17 2073.67,1049.44 2075.67,1049.72 2077.68,1049.99 2079.69,1050.26 2081.7,1050.53 2083.71,1050.8 2085.72,1051.07 2087.72,1051.34 2089.73,1051.6 2091.74,1051.87 2093.75,1052.14 2095.76,1052.41 2097.76,1052.67 2099.77,1052.94 2101.78,1053.21 2103.79,1053.47 2105.8,1053.74 2107.81,1054 2109.81,1054.26 2111.82,1054.53 2113.83,1054.79 2115.84,1055.05 2117.85,1055.31 2119.86,1055.58 2121.86,1055.84 2123.87,1056.1 2125.88,1056.36 2127.89,1056.62 2129.9,1056.88 2131.91,1057.14 2133.91,1057.39 2135.92,1057.65 2137.93,1057.91 2139.94,1058.17 2141.95,1058.42 2143.96,1058.68 2145.96,1058.93 2147.97,1059.19 2149.98,1059.44 2151.99,1059.7 2154,1059.95 2156,1060.21 2158.01,1060.46 2160.02,1060.71 2162.03,1060.96 2164.04,1061.22 2166.05,1061.47 2168.05,1061.72 2170.06,1061.97 2172.07,1062.22 2174.08,1062.47 2176.09,1062.72 2178.1,1062.97 2180.1,1063.21 2182.11,1063.46 2184.12,1063.71 2186.13,1063.96 2188.14,1064.2 2190.15,1064.45 2192.15,1064.69 2194.16,1064.94 2196.17,1065.18 2198.18,1065.43 2200.19,1065.67 2202.2,1065.92 2204.2,1066.16 2206.21,1066.4 2208.22,1066.65 2210.23,1066.89 2212.24,1067.13 2214.24,1067.37 2216.25,1067.61 2218.26,1067.85 2220.27,1068.09 2222.28,1068.33 2224.29,1068.57 2226.29,1068.81 2228.3,1069.05 2230.31,1069.29 2232.32,1069.52 2234.33,1069.76 2236.34,1070 2238.34,1070.23 2240.35,1070.47 2242.36,1070.71 2244.37,1070.94 2246.38,1071.18 2248.39,1071.41 2250.39,1071.64 2252.4,1071.88 2254.41,1072.11 2256.42,1072.34 2258.43,1072.58 2260.44,1072.81 2262.44,1073.04 2264.45,1073.27 2266.46,1073.5 2268.47,1073.73 2270.48,1073.96 2272.49,1074.19 2274.49,1074.42 2276.5,1074.65 2278.51,1074.88 2280.52,1075.11 2282.53,1075.34 2284.53,1075.56 2286.54,1075.79 2288.55,1076.02 2290.56,1076.24 2292.57,1076.47 "/>
<polyline clip-path="url(#clip052)" style="stroke:#e95420; stroke-linecap:round; stroke-linejoin:round; stroke-width:12; stroke-opacity:1; fill:none" points="291.475,85.0853 296.653,90.3446 301.831,95.6908 307.009,101.12 337.337,134.358 367.664,169.465 397.991,205.681 428.319,242.346 456.535,276.382 484.752,309.986 522.572,353.891 560.393,396.093 591.644,429.48 622.896,461.432 651.957,489.826 681.017,516.95 717.499,549.23 753.98,579.605 786.704,605.304 819.428,629.613 856.885,655.829 894.342,680.438 922.341,697.85 950.34,714.472 986.151,734.649 1021.96,753.691 1054.65,770.148 1087.33,785.783 1124.53,802.647 1161.73,818.59 1191.22,830.617 1220.71,842.139 1293.98,868.76 1350.1,887.401 1429.21,911.429 1488.33,927.858 1555.57,945.14 1622.15,960.941 1695.41,976.981 1751.36,988.381 1821.97,1001.82 1887.27,1013.4 1954.63,1024.57 2022.9,1035.16 2094.18,1045.51 2150.34,1053.2 2278.22,1069.34 2292.57,1071.04 "/>
<path clip-path="url(#clip050)" d="M1833.54 325.093 L2281.87 325.093 L2281.87 91.8126 L1833.54 91.8126  Z" fill="#f0f1eb" fill-rule="evenodd" fill-opacity="1"/>
<polyline clip-path="url(#clip050)" style="stroke:#000000; stroke-linecap:round; stroke-linejoin:round; stroke-width:4; stroke-opacity:1; fill:none" points="1833.54,325.093 2281.87,325.093 2281.87,91.8126 1833.54,91.8126 1833.54,325.093 "/>
<polyline clip-path="url(#clip050)" style="stroke:#d55e00; stroke-linecap:round; stroke-linejoin:round; stroke-width:18; stroke-opacity:1; fill:none" points="1857.17,169.573 1998.95,169.573 "/>
<path clip-path="url(#clip050)" d="M2022.58 143.653 L2052.37 143.653 L2052.37 149.555 L2029.59 149.555 L2029.59 164.833 L2050.15 164.833 L2050.15 170.736 L2029.59 170.736 L2029.59 195.493 L2022.58 195.493 L2022.58 143.653 Z" fill="#000000" fill-rule="nonzero" fill-opacity="1" /><path clip-path="url(#clip050)" d="M2063.48 143.653 L2096.26 143.653 L2096.26 149.555 L2070.5 149.555 L2070.5 164.903 L2095.18 164.903 L2095.18 170.805 L2070.5 170.805 L2070.5 189.59 L2096.88 189.59 L2096.88 195.493 L2063.48 195.493 L2063.48 143.653 Z" fill="#000000" fill-rule="nonzero" fill-opacity="1" /><path clip-path="url(#clip050)" d="M2147.23 147.646 L2147.23 155.041 Q2143.69 151.743 2139.66 150.111 Q2135.67 148.479 2131.16 148.479 Q2122.27 148.479 2117.54 153.93 Q2112.82 159.347 2112.82 169.625 Q2112.82 179.868 2117.54 185.319 Q2122.27 190.736 2131.16 190.736 Q2135.67 190.736 2139.66 189.104 Q2143.69 187.472 2147.23 184.173 L2147.23 191.5 Q2143.55 194 2139.42 195.25 Q2135.32 196.5 2130.74 196.5 Q2118.97 196.5 2112.2 189.312 Q2105.43 182.09 2105.43 169.625 Q2105.43 157.125 2112.2 149.937 Q2118.97 142.715 2130.74 142.715 Q2135.39 142.715 2139.49 143.965 Q2143.62 145.18 2147.23 147.646 Z" fill="#000000" fill-rule="nonzero" fill-opacity="1" /><path clip-path="url(#clip050)" d="M2158.07 143.653 L2168.52 143.653 L2181.75 178.93 L2195.04 143.653 L2205.5 143.653 L2205.5 195.493 L2198.66 195.493 L2198.66 149.972 L2185.29 185.527 L2178.24 185.527 L2164.87 149.972 L2164.87 195.493 L2158.07 195.493 L2158.07 143.653 Z" fill="#000000" fill-rule="nonzero" fill-opacity="1" /><path clip-path="url(#clip050)" d="M2258.24 147.646 L2258.24 155.041 Q2254.7 151.743 2250.67 150.111 Q2246.68 148.479 2242.16 148.479 Q2233.27 148.479 2228.55 153.93 Q2223.83 159.347 2223.83 169.625 Q2223.83 179.868 2228.55 185.319 Q2233.27 190.736 2242.16 190.736 Q2246.68 190.736 2250.67 189.104 Q2254.7 187.472 2258.24 184.173 L2258.24 191.5 Q2254.56 194 2250.43 195.25 Q2246.33 196.5 2241.75 196.5 Q2229.97 196.5 2223.2 189.312 Q2216.43 182.09 2216.43 169.625 Q2216.43 157.125 2223.2 149.937 Q2229.97 142.715 2241.75 142.715 Q2246.4 142.715 2250.5 143.965 Q2254.63 145.18 2258.24 147.646 Z" fill="#000000" fill-rule="nonzero" fill-opacity="1" /><polyline clip-path="url(#clip050)" style="stroke:#56b4e9; stroke-linecap:round; stroke-linejoin:round; stroke-width:18; stroke-opacity:1; fill:none" points="1857.17,247.333 1998.95,247.333 "/>
<path clip-path="url(#clip050)" d="M2029.59 248.496 L2029.59 267.489 L2040.84 267.489 Q2046.5 267.489 2049.21 265.162 Q2051.95 262.801 2051.95 257.975 Q2051.95 253.114 2049.21 250.822 Q2046.5 248.496 2040.84 248.496 L2029.59 248.496 M2029.59 227.176 L2029.59 242.801 L2039.98 242.801 Q2045.11 242.801 2047.61 240.892 Q2050.15 238.947 2050.15 234.989 Q2050.15 231.065 2047.61 229.121 Q2045.11 227.176 2039.98 227.176 L2029.59 227.176 M2022.58 221.413 L2040.5 221.413 Q2048.52 221.413 2052.86 224.746 Q2057.2 228.079 2057.2 234.225 Q2057.2 238.982 2054.98 241.794 Q2052.75 244.607 2048.45 245.301 Q2053.62 246.412 2056.47 249.954 Q2059.35 253.461 2059.35 258.739 Q2059.35 265.683 2054.63 269.468 Q2049.91 273.253 2041.19 273.253 L2022.58 273.253 L2022.58 221.413 Z" fill="#000000" fill-rule="nonzero" fill-opacity="1" /><path clip-path="url(#clip050)" d="M2078.38 227.176 L2078.38 246.656 L2087.2 246.656 Q2092.09 246.656 2094.77 244.121 Q2097.44 241.586 2097.44 236.899 Q2097.44 232.246 2094.77 229.711 Q2092.09 227.176 2087.2 227.176 L2078.38 227.176 M2071.36 221.413 L2087.2 221.413 Q2095.91 221.413 2100.36 225.371 Q2104.84 229.295 2104.84 236.899 Q2104.84 244.572 2100.36 248.496 Q2095.91 252.419 2087.2 252.419 L2078.38 252.419 L2078.38 273.253 L2071.36 273.253 L2071.36 221.413 Z" fill="#000000" fill-rule="nonzero" fill-opacity="1" /><path clip-path="url(#clip050)" d="M2145.32 223.114 L2145.32 229.954 Q2141.33 228.045 2137.79 227.107 Q2134.25 226.17 2130.95 226.17 Q2125.22 226.17 2122.09 228.392 Q2119 230.614 2119 234.711 Q2119 238.149 2121.05 239.919 Q2123.13 241.656 2128.9 242.732 L2133.13 243.6 Q2140.98 245.093 2144.7 248.878 Q2148.45 252.628 2148.45 258.947 Q2148.45 266.482 2143.38 270.371 Q2138.34 274.26 2128.59 274.26 Q2124.91 274.26 2120.74 273.426 Q2116.61 272.593 2112.16 270.961 L2112.16 263.739 Q2116.43 266.135 2120.53 267.35 Q2124.63 268.565 2128.59 268.565 Q2134.59 268.565 2137.86 266.204 Q2141.12 263.843 2141.12 259.468 Q2141.12 255.649 2138.76 253.496 Q2136.43 251.343 2131.09 250.267 L2126.82 249.433 Q2118.97 247.871 2115.46 244.537 Q2111.95 241.204 2111.95 235.267 Q2111.95 228.392 2116.78 224.433 Q2121.64 220.475 2130.15 220.475 Q2133.79 220.475 2137.58 221.135 Q2141.36 221.795 2145.32 223.114 Z" fill="#000000" fill-rule="nonzero" fill-opacity="1" /></svg>
