<?xml version="1.0" encoding="UTF-8" standalone="no"?>
<svg
   width="16"
   height="16"
   fill="currentColor"
   class="bi bi-globe-asia-australia"
   viewBox="0 0 16 16"
   version="1.1"
   id="svg2"
   sodipodi:docname="globe-asia-australia.svg"
   inkscape:version="1.3.2 (091e20e, 2023-11-25)"
   xmlns:inkscape="http://www.inkscape.org/namespaces/inkscape"
   xmlns:sodipodi="http://sodipodi.sourceforge.net/DTD/sodipodi-0.dtd"
   xmlns="http://www.w3.org/2000/svg"
   xmlns:svg="http://www.w3.org/2000/svg">
  <defs
     id="defs2" />
  <sodipodi:namedview
     id="namedview2"
     pagecolor="#ffffff"
     bordercolor="#000000"
     borderopacity="0.25"
     inkscape:showpageshadow="2"
     inkscape:pageopacity="0.0"
     inkscape:pagecheckerboard="0"
     inkscape:deskcolor="#d1d1d1"
     inkscape:zoom="55.25"
     inkscape:cx="8.0090498"
     inkscape:cy="8"
     inkscape:window-width="1664"
     inkscape:window-height="1027"
     inkscape:window-x="54"
     inkscape:window-y="454"
     inkscape:window-maximized="0"
     inkscape:current-layer="svg2" />
  <path
     d="m10.495 6.92 1.278-.619a.483.483 0 0 0 .126-.782c-.252-.244-.682-.139-.932.107-.23.226-.513.373-.816.53l-.102.054c-.338.178-.264.626.1.736a.48.48 0 0 0 .346-.027ZM7.741 9.808V9.78a.413.413 0 1 1 .783.183l-.22.443a.6.6 0 0 1-.12.167l-.193.185a.36.36 0 1 1-.5-.516l.112-.108a.45.45 0 0 0 .138-.326M5.672 12.5l.482.233A.386.386 0 1 0 6.32 12h-.416a.7.7 0 0 1-.419-.139l-.277-.206a.302.302 0 1 0-.298.52z"
     id="path1"
     style="fill:#80c4ac;fill-opacity:1" />
  <path
     d="M8 0a8 8 0 1 0 0 16A8 8 0 0 0 8 0M1.612 10.867l.756-1.288a1 1 0 0 1 1.545-.225l1.074 1.005a.986.986 0 0 0 1.36-.011l.038-.037a.88.88 0 0 0 .26-.755c-.075-.548.37-1.033.92-1.099.728-.086 1.587-.324 1.728-.957.086-.386-.114-.83-.361-1.2-.207-.312 0-.8.374-.8.123 0 .24-.055.318-.15l.393-.474c.196-.237.491-.368.797-.403.554-.064 1.407-.277 1.583-.973.098-.391-.192-.634-.484-.88-.254-.212-.51-.426-.515-.741a7 7 0 0 1 3.425 7.692 1 1 0 0 0-.087-.063l-.316-.204a1 1 0 0 0-.977-.06l-.169.082a1 1 0 0 1-.741.051l-1.021-.329A1 1 0 0 0 11.205 9h-.165a1 1 0 0 0-.945.674l-.172.499a1 1 0 0 1-.404.514l-.802.518a1 1 0 0 0-.458.84v.455a1 1 0 0 0 1 1h.257a1 1 0 0 1 .542.16l.762.49a1 1 0 0 0 .283.126 7 7 0 0 1-9.49-3.409Z"
     id="path2"
     style="stroke-width:4078.14031736;fill:#80c4ac;fill-opacity:1" />
</svg>
