<?xml version="1.0" encoding="utf-8"?>
<svg xmlns="http://www.w3.org/2000/svg" xmlns:xlink="http://www.w3.org/1999/xlink" width="576" height="384" viewBox="0 0 2304 1536">
<defs>
  <clipPath id="clip680">
    <rect x="0" y="0" width="2304" height="1536"/>
  </clipPath>
</defs>
<path clip-path="url(#clip680)" d="M0 1536 L2304 1536 L2304 8.52651e-14 L0 8.52651e-14  Z" fill="#ffffff" fill-rule="evenodd" fill-opacity="1"/>
<defs>
  <clipPath id="clip681">
    <rect x="460" y="0" width="1614" height="1536"/>
  </clipPath>
</defs>
<path clip-path="url(#clip680)" d="M256.244 1359.82 L2256.76 1359.82 L2256.76 123.472 L256.244 123.472  Z" fill="#ffffff" fill-rule="evenodd" fill-opacity="1"/>
<defs>
  <clipPath id="clip682">
    <rect x="256" y="123" width="2002" height="1237"/>
  </clipPath>
</defs>
<polyline clip-path="url(#clip682)" style="stroke:#000000; stroke-linecap:round; stroke-linejoin:round; stroke-width:2; stroke-opacity:0.1; fill:none" points="484.433,1359.82 484.433,123.472 "/>
<polyline clip-path="url(#clip682)" style="stroke:#000000; stroke-linecap:round; stroke-linejoin:round; stroke-width:2; stroke-opacity:0.1; fill:none" points="913.359,1359.82 913.359,123.472 "/>
<polyline clip-path="url(#clip682)" style="stroke:#000000; stroke-linecap:round; stroke-linejoin:round; stroke-width:2; stroke-opacity:0.1; fill:none" points="1342.29,1359.82 1342.29,123.472 "/>
<polyline clip-path="url(#clip682)" style="stroke:#000000; stroke-linecap:round; stroke-linejoin:round; stroke-width:2; stroke-opacity:0.1; fill:none" points="1771.21,1359.82 1771.21,123.472 "/>
<polyline clip-path="url(#clip682)" style="stroke:#000000; stroke-linecap:round; stroke-linejoin:round; stroke-width:2; stroke-opacity:0.1; fill:none" points="2200.14,1359.82 2200.14,123.472 "/>
<polyline clip-path="url(#clip680)" style="stroke:#000000; stroke-linecap:round; stroke-linejoin:round; stroke-width:4; stroke-opacity:1; fill:none" points="256.244,1359.82 2256.76,1359.82 "/>
<polyline clip-path="url(#clip680)" style="stroke:#000000; stroke-linecap:round; stroke-linejoin:round; stroke-width:4; stroke-opacity:1; fill:none" points="484.433,1359.82 484.433,1340.92 "/>
<polyline clip-path="url(#clip680)" style="stroke:#000000; stroke-linecap:round; stroke-linejoin:round; stroke-width:4; stroke-opacity:1; fill:none" points="913.359,1359.82 913.359,1340.92 "/>
<polyline clip-path="url(#clip680)" style="stroke:#000000; stroke-linecap:round; stroke-linejoin:round; stroke-width:4; stroke-opacity:1; fill:none" points="1342.29,1359.82 1342.29,1340.92 "/>
<polyline clip-path="url(#clip680)" style="stroke:#000000; stroke-linecap:round; stroke-linejoin:round; stroke-width:4; stroke-opacity:1; fill:none" points="1771.21,1359.82 1771.21,1340.92 "/>
<polyline clip-path="url(#clip680)" style="stroke:#000000; stroke-linecap:round; stroke-linejoin:round; stroke-width:4; stroke-opacity:1; fill:none" points="2200.14,1359.82 2200.14,1340.92 "/>
<path clip-path="url(#clip680)" d="M451.586 1417.52 L459.225 1417.52 L459.225 1391.15 L450.914 1392.82 L450.914 1388.56 L459.178 1386.89 L463.854 1386.89 L463.854 1417.52 L471.493 1417.52 L471.493 1421.45 L451.586 1421.45 L451.586 1417.52 Z" fill="#000000" fill-rule="nonzero" fill-opacity="1" /><path clip-path="url(#clip680)" d="M480.937 1415.57 L485.822 1415.57 L485.822 1421.45 L480.937 1421.45 L480.937 1415.57 Z" fill="#000000" fill-rule="nonzero" fill-opacity="1" /><path clip-path="url(#clip680)" d="M506.007 1389.97 Q502.396 1389.97 500.567 1393.54 Q498.761 1397.08 498.761 1404.21 Q498.761 1411.31 500.567 1414.88 Q502.396 1418.42 506.007 1418.42 Q509.641 1418.42 511.447 1414.88 Q513.275 1411.31 513.275 1404.21 Q513.275 1397.08 511.447 1393.54 Q509.641 1389.97 506.007 1389.97 M506.007 1386.27 Q511.817 1386.27 514.872 1390.87 Q517.951 1395.46 517.951 1404.21 Q517.951 1412.93 514.872 1417.54 Q511.817 1422.12 506.007 1422.12 Q500.197 1422.12 497.118 1417.54 Q494.062 1412.93 494.062 1404.21 Q494.062 1395.46 497.118 1390.87 Q500.197 1386.27 506.007 1386.27 Z" fill="#000000" fill-rule="nonzero" fill-opacity="1" /><path clip-path="url(#clip680)" d="M881.01 1417.52 L888.648 1417.52 L888.648 1391.15 L880.338 1392.82 L880.338 1388.56 L888.602 1386.89 L893.278 1386.89 L893.278 1417.52 L900.917 1417.52 L900.917 1421.45 L881.01 1421.45 L881.01 1417.52 Z" fill="#000000" fill-rule="nonzero" fill-opacity="1" /><path clip-path="url(#clip680)" d="M910.361 1415.57 L915.246 1415.57 L915.246 1421.45 L910.361 1421.45 L910.361 1415.57 Z" fill="#000000" fill-rule="nonzero" fill-opacity="1" /><path clip-path="url(#clip680)" d="M925.477 1386.89 L943.833 1386.89 L943.833 1390.83 L929.759 1390.83 L929.759 1399.3 Q930.778 1398.95 931.796 1398.79 Q932.815 1398.6 933.833 1398.6 Q939.62 1398.6 943 1401.78 Q946.38 1404.95 946.38 1410.36 Q946.38 1415.94 942.907 1419.04 Q939.435 1422.12 933.116 1422.12 Q930.94 1422.12 928.671 1421.75 Q926.426 1421.38 924.019 1420.64 L924.019 1415.94 Q926.102 1417.08 928.324 1417.63 Q930.546 1418.19 933.023 1418.19 Q937.028 1418.19 939.366 1416.08 Q941.704 1413.98 941.704 1410.36 Q941.704 1406.75 939.366 1404.65 Q937.028 1402.54 933.023 1402.54 Q931.148 1402.54 929.273 1402.96 Q927.421 1403.37 925.477 1404.25 L925.477 1386.89 Z" fill="#000000" fill-rule="nonzero" fill-opacity="1" /><path clip-path="url(#clip680)" d="M1313.52 1417.52 L1329.84 1417.52 L1329.84 1421.45 L1307.9 1421.45 L1307.9 1417.52 Q1310.56 1414.76 1315.14 1410.13 Q1319.75 1405.48 1320.93 1404.14 Q1323.18 1401.61 1324.06 1399.88 Q1324.96 1398.12 1324.96 1396.43 Q1324.96 1393.67 1323.01 1391.94 Q1321.09 1390.2 1317.99 1390.2 Q1315.79 1390.2 1313.34 1390.97 Q1310.91 1391.73 1308.13 1393.28 L1308.13 1388.56 Q1310.95 1387.42 1313.41 1386.85 Q1315.86 1386.27 1317.9 1386.27 Q1323.27 1386.27 1326.46 1388.95 Q1329.66 1391.64 1329.66 1396.13 Q1329.66 1398.26 1328.85 1400.18 Q1328.06 1402.08 1325.95 1404.67 Q1325.38 1405.34 1322.27 1408.56 Q1319.17 1411.75 1313.52 1417.52 Z" fill="#000000" fill-rule="nonzero" fill-opacity="1" /><path clip-path="url(#clip680)" d="M1339.66 1415.57 L1344.54 1415.57 L1344.54 1421.45 L1339.66 1421.45 L1339.66 1415.57 Z" fill="#000000" fill-rule="nonzero" fill-opacity="1" /><path clip-path="url(#clip680)" d="M1364.73 1389.97 Q1361.12 1389.97 1359.29 1393.54 Q1357.48 1397.08 1357.48 1404.21 Q1357.48 1411.31 1359.29 1414.88 Q1361.12 1418.42 1364.73 1418.42 Q1368.36 1418.42 1370.17 1414.88 Q1372 1411.31 1372 1404.21 Q1372 1397.08 1370.17 1393.54 Q1368.36 1389.97 1364.73 1389.97 M1364.73 1386.27 Q1370.54 1386.27 1373.59 1390.87 Q1376.67 1395.46 1376.67 1404.21 Q1376.67 1412.93 1373.59 1417.54 Q1370.54 1422.12 1364.73 1422.12 Q1358.92 1422.12 1355.84 1417.54 Q1352.78 1412.93 1352.78 1404.21 Q1352.78 1395.46 1355.84 1390.87 Q1358.92 1386.27 1364.73 1386.27 Z" fill="#000000" fill-rule="nonzero" fill-opacity="1" /><path clip-path="url(#clip680)" d="M1742.95 1417.52 L1759.27 1417.52 L1759.27 1421.45 L1737.32 1421.45 L1737.32 1417.52 Q1739.98 1414.76 1744.57 1410.13 Q1749.17 1405.48 1750.36 1404.14 Q1752.6 1401.61 1753.48 1399.88 Q1754.38 1398.12 1754.38 1396.43 Q1754.38 1393.67 1752.44 1391.94 Q1750.52 1390.2 1747.42 1390.2 Q1745.22 1390.2 1742.76 1390.97 Q1740.33 1391.73 1737.55 1393.28 L1737.55 1388.56 Q1740.38 1387.42 1742.83 1386.85 Q1745.29 1386.27 1747.32 1386.27 Q1752.69 1386.27 1755.89 1388.95 Q1759.08 1391.64 1759.08 1396.13 Q1759.08 1398.26 1758.27 1400.18 Q1757.48 1402.08 1755.38 1404.67 Q1754.8 1405.34 1751.7 1408.56 Q1748.6 1411.75 1742.95 1417.52 Z" fill="#000000" fill-rule="nonzero" fill-opacity="1" /><path clip-path="url(#clip680)" d="M1769.08 1415.57 L1773.97 1415.57 L1773.97 1421.45 L1769.08 1421.45 L1769.08 1415.57 Z" fill="#000000" fill-rule="nonzero" fill-opacity="1" /><path clip-path="url(#clip680)" d="M1784.2 1386.89 L1802.55 1386.89 L1802.55 1390.83 L1788.48 1390.83 L1788.48 1399.3 Q1789.5 1398.95 1790.52 1398.79 Q1791.54 1398.6 1792.55 1398.6 Q1798.34 1398.6 1801.72 1401.78 Q1805.1 1404.95 1805.1 1410.36 Q1805.1 1415.94 1801.63 1419.04 Q1798.16 1422.12 1791.84 1422.12 Q1789.66 1422.12 1787.39 1421.75 Q1785.15 1421.38 1782.74 1420.64 L1782.74 1415.94 Q1784.82 1417.08 1787.04 1417.63 Q1789.27 1418.19 1791.74 1418.19 Q1795.75 1418.19 1798.09 1416.08 Q1800.42 1413.98 1800.42 1410.36 Q1800.42 1406.75 1798.09 1404.65 Q1795.75 1402.54 1791.74 1402.54 Q1789.87 1402.54 1787.99 1402.96 Q1786.14 1403.37 1784.2 1404.25 L1784.2 1386.89 Z" fill="#000000" fill-rule="nonzero" fill-opacity="1" /><path clip-path="url(#clip680)" d="M2181.45 1402.82 Q2184.8 1403.54 2186.68 1405.8 Q2188.58 1408.07 2188.58 1411.41 Q2188.58 1416.52 2185.06 1419.32 Q2181.54 1422.12 2175.06 1422.12 Q2172.88 1422.12 2170.57 1421.68 Q2168.27 1421.27 2165.82 1420.41 L2165.82 1415.9 Q2167.77 1417.03 2170.08 1417.61 Q2172.39 1418.19 2174.92 1418.19 Q2179.32 1418.19 2181.61 1416.45 Q2183.92 1414.72 2183.92 1411.41 Q2183.92 1408.35 2181.77 1406.64 Q2179.64 1404.9 2175.82 1404.9 L2171.79 1404.9 L2171.79 1401.06 L2176.01 1401.06 Q2179.45 1401.06 2181.28 1399.69 Q2183.11 1398.3 2183.11 1395.71 Q2183.11 1393.05 2181.21 1391.64 Q2179.34 1390.2 2175.82 1390.2 Q2173.9 1390.2 2171.7 1390.62 Q2169.5 1391.04 2166.86 1391.91 L2166.86 1387.75 Q2169.52 1387.01 2171.84 1386.64 Q2174.18 1386.27 2176.24 1386.27 Q2181.56 1386.27 2184.66 1388.7 Q2187.77 1391.1 2187.77 1395.23 Q2187.77 1398.1 2186.12 1400.09 Q2184.48 1402.05 2181.45 1402.82 Z" fill="#000000" fill-rule="nonzero" fill-opacity="1" /><path clip-path="url(#clip680)" d="M2197.44 1415.57 L2202.33 1415.57 L2202.33 1421.45 L2197.44 1421.45 L2197.44 1415.57 Z" fill="#000000" fill-rule="nonzero" fill-opacity="1" /><path clip-path="url(#clip680)" d="M2222.51 1389.97 Q2218.9 1389.97 2217.07 1393.54 Q2215.26 1397.08 2215.26 1404.21 Q2215.26 1411.31 2217.07 1414.88 Q2218.9 1418.42 2222.51 1418.42 Q2226.14 1418.42 2227.95 1414.88 Q2229.78 1411.31 2229.78 1404.21 Q2229.78 1397.08 2227.95 1393.54 Q2226.14 1389.97 2222.51 1389.97 M2222.51 1386.27 Q2228.32 1386.27 2231.38 1390.87 Q2234.45 1395.46 2234.45 1404.21 Q2234.45 1412.93 2231.38 1417.54 Q2228.32 1422.12 2222.51 1422.12 Q2216.7 1422.12 2213.62 1417.54 Q2210.57 1412.93 2210.57 1404.21 Q2210.57 1395.46 2213.62 1390.87 Q2216.7 1386.27 2222.51 1386.27 Z" fill="#000000" fill-rule="nonzero" fill-opacity="1" /><path clip-path="url(#clip680)" d="M1236.26 1473.07 Q1235.27 1472.5 1234.09 1472.24 Q1232.95 1471.96 1231.55 1471.96 Q1226.58 1471.96 1223.91 1475.2 Q1221.27 1478.42 1221.27 1484.47 L1221.27 1503.24 L1215.38 1503.24 L1215.38 1467.6 L1221.27 1467.6 L1221.27 1473.13 Q1223.11 1469.89 1226.07 1468.33 Q1229.03 1466.74 1233.27 1466.74 Q1233.87 1466.74 1234.6 1466.83 Q1235.33 1466.9 1236.23 1467.05 L1236.26 1473.07 Z" fill="#000000" fill-rule="nonzero" fill-opacity="1" /><path clip-path="url(#clip680)" d="M1252.81 1455.72 L1258.22 1455.72 L1241.67 1509.29 L1236.26 1509.29 L1252.81 1455.72 Z" fill="#000000" fill-rule="nonzero" fill-opacity="1" /><path clip-path="url(#clip680)" d="M1278.18 1472.24 Q1273.34 1472.24 1270.73 1475.74 Q1267.99 1479.4 1267.99 1485.45 Q1267.99 1491.85 1270.7 1495.54 Q1273.43 1499.2 1278.18 1499.2 Q1282.85 1499.2 1285.59 1495.51 Q1288.33 1491.82 1288.33 1485.45 Q1288.33 1479.63 1285.59 1475.74 Q1283.08 1472.24 1278.18 1472.24 M1278.18 1467.6 L1297.62 1467.6 L1297.62 1473.45 L1291.07 1473.45 Q1294.54 1478.42 1294.54 1485.45 Q1294.54 1494.2 1290.17 1499.17 Q1285.81 1504.17 1278.18 1504.17 Q1270.5 1504.17 1266.18 1499.17 Q1261.82 1494.2 1261.82 1485.45 Q1261.82 1476.64 1266.18 1471.7 Q1269.77 1467.6 1278.18 1467.6 Z" fill="#000000" fill-rule="nonzero" fill-opacity="1" /><polyline clip-path="url(#clip682)" style="stroke:#000000; stroke-linecap:round; stroke-linejoin:round; stroke-width:2; stroke-opacity:0.1; fill:none" points="256.244,1247.42 2256.76,1247.42 "/>
<polyline clip-path="url(#clip682)" style="stroke:#000000; stroke-linecap:round; stroke-linejoin:round; stroke-width:2; stroke-opacity:0.1; fill:none" points="256.244,966.436 2256.76,966.436 "/>
<polyline clip-path="url(#clip682)" style="stroke:#000000; stroke-linecap:round; stroke-linejoin:round; stroke-width:2; stroke-opacity:0.1; fill:none" points="256.244,685.448 2256.76,685.448 "/>
<polyline clip-path="url(#clip682)" style="stroke:#000000; stroke-linecap:round; stroke-linejoin:round; stroke-width:2; stroke-opacity:0.1; fill:none" points="256.244,404.46 2256.76,404.46 "/>
<polyline clip-path="url(#clip682)" style="stroke:#000000; stroke-linecap:round; stroke-linejoin:round; stroke-width:2; stroke-opacity:0.1; fill:none" points="256.244,123.472 2256.76,123.472 "/>
<polyline clip-path="url(#clip680)" style="stroke:#000000; stroke-linecap:round; stroke-linejoin:round; stroke-width:4; stroke-opacity:1; fill:none" points="256.244,1359.82 256.244,123.472 "/>
<polyline clip-path="url(#clip680)" style="stroke:#000000; stroke-linecap:round; stroke-linejoin:round; stroke-width:4; stroke-opacity:1; fill:none" points="256.244,1247.42 275.142,1247.42 "/>
<polyline clip-path="url(#clip680)" style="stroke:#000000; stroke-linecap:round; stroke-linejoin:round; stroke-width:4; stroke-opacity:1; fill:none" points="256.244,966.436 275.142,966.436 "/>
<polyline clip-path="url(#clip680)" style="stroke:#000000; stroke-linecap:round; stroke-linejoin:round; stroke-width:4; stroke-opacity:1; fill:none" points="256.244,685.448 275.142,685.448 "/>
<polyline clip-path="url(#clip680)" style="stroke:#000000; stroke-linecap:round; stroke-linejoin:round; stroke-width:4; stroke-opacity:1; fill:none" points="256.244,404.46 275.142,404.46 "/>
<polyline clip-path="url(#clip680)" style="stroke:#000000; stroke-linecap:round; stroke-linejoin:round; stroke-width:4; stroke-opacity:1; fill:none" points="256.244,123.472 275.142,123.472 "/>
<path clip-path="url(#clip680)" d="M114.74 1247.88 L144.416 1247.88 L144.416 1251.81 L114.74 1251.81 L114.74 1247.88 Z" fill="#000000" fill-rule="nonzero" fill-opacity="1" /><path clip-path="url(#clip680)" d="M155.319 1260.77 L162.957 1260.77 L162.957 1234.4 L154.647 1236.07 L154.647 1231.81 L162.911 1230.14 L167.587 1230.14 L167.587 1260.77 L175.226 1260.77 L175.226 1264.7 L155.319 1264.7 L155.319 1260.77 Z" fill="#000000" fill-rule="nonzero" fill-opacity="1" /><path clip-path="url(#clip680)" d="M184.67 1258.82 L189.555 1258.82 L189.555 1264.7 L184.67 1264.7 L184.67 1258.82 Z" fill="#000000" fill-rule="nonzero" fill-opacity="1" /><path clip-path="url(#clip680)" d="M209.74 1233.22 Q206.129 1233.22 204.3 1236.79 Q202.494 1240.33 202.494 1247.46 Q202.494 1254.57 204.3 1258.13 Q206.129 1261.67 209.74 1261.67 Q213.374 1261.67 215.179 1258.13 Q217.008 1254.57 217.008 1247.46 Q217.008 1240.33 215.179 1236.79 Q213.374 1233.22 209.74 1233.22 M209.74 1229.52 Q215.55 1229.52 218.605 1234.13 Q221.684 1238.71 221.684 1247.46 Q221.684 1256.19 218.605 1260.79 Q215.55 1265.38 209.74 1265.38 Q203.929 1265.38 200.851 1260.79 Q197.795 1256.19 197.795 1247.46 Q197.795 1238.71 200.851 1234.13 Q203.929 1229.52 209.74 1229.52 Z" fill="#000000" fill-rule="nonzero" fill-opacity="1" /><path clip-path="url(#clip680)" d="M115.736 966.888 L145.411 966.888 L145.411 970.823 L115.736 970.823 L115.736 966.888 Z" fill="#000000" fill-rule="nonzero" fill-opacity="1" /><path clip-path="url(#clip680)" d="M165.504 952.235 Q161.893 952.235 160.064 955.8 Q158.258 959.342 158.258 966.471 Q158.258 973.578 160.064 977.142 Q161.893 980.684 165.504 980.684 Q169.138 980.684 170.944 977.142 Q172.772 973.578 172.772 966.471 Q172.772 959.342 170.944 955.8 Q169.138 952.235 165.504 952.235 M165.504 948.531 Q171.314 948.531 174.369 953.138 Q177.448 957.721 177.448 966.471 Q177.448 975.198 174.369 979.804 Q171.314 984.388 165.504 984.388 Q159.694 984.388 156.615 979.804 Q153.559 975.198 153.559 966.471 Q153.559 957.721 156.615 953.138 Q159.694 948.531 165.504 948.531 Z" fill="#000000" fill-rule="nonzero" fill-opacity="1" /><path clip-path="url(#clip680)" d="M185.666 977.837 L190.55 977.837 L190.55 983.716 L185.666 983.716 L185.666 977.837 Z" fill="#000000" fill-rule="nonzero" fill-opacity="1" /><path clip-path="url(#clip680)" d="M200.781 949.156 L219.138 949.156 L219.138 953.092 L205.064 953.092 L205.064 961.564 Q206.082 961.217 207.101 961.055 Q208.119 960.869 209.138 960.869 Q214.925 960.869 218.304 964.041 Q221.684 967.212 221.684 972.629 Q221.684 978.207 218.212 981.309 Q214.74 984.388 208.42 984.388 Q206.244 984.388 203.976 984.017 Q201.73 983.647 199.323 982.906 L199.323 978.207 Q201.406 979.342 203.629 979.897 Q205.851 980.453 208.328 980.453 Q212.332 980.453 214.67 978.346 Q217.008 976.24 217.008 972.629 Q217.008 969.017 214.67 966.911 Q212.332 964.805 208.328 964.805 Q206.453 964.805 204.578 965.221 Q202.726 965.638 200.781 966.517 L200.781 949.156 Z" fill="#000000" fill-rule="nonzero" fill-opacity="1" /><path clip-path="url(#clip680)" d="M164.508 671.247 Q160.897 671.247 159.069 674.812 Q157.263 678.353 157.263 685.483 Q157.263 692.59 159.069 696.154 Q160.897 699.696 164.508 699.696 Q168.143 699.696 169.948 696.154 Q171.777 692.59 171.777 685.483 Q171.777 678.353 169.948 674.812 Q168.143 671.247 164.508 671.247 M164.508 667.543 Q170.319 667.543 173.374 672.15 Q176.453 676.733 176.453 685.483 Q176.453 694.21 173.374 698.816 Q170.319 703.4 164.508 703.4 Q158.698 703.4 155.62 698.816 Q152.564 694.21 152.564 685.483 Q152.564 676.733 155.62 672.15 Q158.698 667.543 164.508 667.543 Z" fill="#000000" fill-rule="nonzero" fill-opacity="1" /><path clip-path="url(#clip680)" d="M184.67 696.849 L189.555 696.849 L189.555 702.728 L184.67 702.728 L184.67 696.849 Z" fill="#000000" fill-rule="nonzero" fill-opacity="1" /><path clip-path="url(#clip680)" d="M209.74 671.247 Q206.129 671.247 204.3 674.812 Q202.494 678.353 202.494 685.483 Q202.494 692.59 204.3 696.154 Q206.129 699.696 209.74 699.696 Q213.374 699.696 215.179 696.154 Q217.008 692.59 217.008 685.483 Q217.008 678.353 215.179 674.812 Q213.374 671.247 209.74 671.247 M209.74 667.543 Q215.55 667.543 218.605 672.15 Q221.684 676.733 221.684 685.483 Q221.684 694.21 218.605 698.816 Q215.55 703.4 209.74 703.4 Q203.929 703.4 200.851 698.816 Q197.795 694.21 197.795 685.483 Q197.795 676.733 200.851 672.15 Q203.929 667.543 209.74 667.543 Z" fill="#000000" fill-rule="nonzero" fill-opacity="1" /><path clip-path="url(#clip680)" d="M165.504 390.259 Q161.893 390.259 160.064 393.824 Q158.258 397.365 158.258 404.495 Q158.258 411.601 160.064 415.166 Q161.893 418.708 165.504 418.708 Q169.138 418.708 170.944 415.166 Q172.772 411.601 172.772 404.495 Q172.772 397.365 170.944 393.824 Q169.138 390.259 165.504 390.259 M165.504 386.555 Q171.314 386.555 174.369 391.162 Q177.448 395.745 177.448 404.495 Q177.448 413.222 174.369 417.828 Q171.314 422.412 165.504 422.412 Q159.694 422.412 156.615 417.828 Q153.559 413.222 153.559 404.495 Q153.559 395.745 156.615 391.162 Q159.694 386.555 165.504 386.555 Z" fill="#000000" fill-rule="nonzero" fill-opacity="1" /><path clip-path="url(#clip680)" d="M185.666 415.861 L190.55 415.861 L190.55 421.74 L185.666 421.74 L185.666 415.861 Z" fill="#000000" fill-rule="nonzero" fill-opacity="1" /><path clip-path="url(#clip680)" d="M200.781 387.18 L219.138 387.18 L219.138 391.115 L205.064 391.115 L205.064 399.588 Q206.082 399.24 207.101 399.078 Q208.119 398.893 209.138 398.893 Q214.925 398.893 218.304 402.064 Q221.684 405.236 221.684 410.652 Q221.684 416.231 218.212 419.333 Q214.74 422.412 208.42 422.412 Q206.244 422.412 203.976 422.041 Q201.73 421.671 199.323 420.93 L199.323 416.231 Q201.406 417.365 203.629 417.921 Q205.851 418.476 208.328 418.476 Q212.332 418.476 214.67 416.37 Q217.008 414.263 217.008 410.652 Q217.008 407.041 214.67 404.935 Q212.332 402.828 208.328 402.828 Q206.453 402.828 204.578 403.245 Q202.726 403.662 200.781 404.541 L200.781 387.18 Z" fill="#000000" fill-rule="nonzero" fill-opacity="1" /><path clip-path="url(#clip680)" d="M155.319 136.817 L162.957 136.817 L162.957 110.451 L154.647 112.118 L154.647 107.859 L162.911 106.192 L167.587 106.192 L167.587 136.817 L175.226 136.817 L175.226 140.752 L155.319 140.752 L155.319 136.817 Z" fill="#000000" fill-rule="nonzero" fill-opacity="1" /><path clip-path="url(#clip680)" d="M184.67 134.873 L189.555 134.873 L189.555 140.752 L184.67 140.752 L184.67 134.873 Z" fill="#000000" fill-rule="nonzero" fill-opacity="1" /><path clip-path="url(#clip680)" d="M209.74 109.271 Q206.129 109.271 204.3 112.836 Q202.494 116.377 202.494 123.507 Q202.494 130.613 204.3 134.178 Q206.129 137.72 209.74 137.72 Q213.374 137.72 215.179 134.178 Q217.008 130.613 217.008 123.507 Q217.008 116.377 215.179 112.836 Q213.374 109.271 209.74 109.271 M209.74 105.567 Q215.55 105.567 218.605 110.174 Q221.684 114.757 221.684 123.507 Q221.684 132.234 218.605 136.84 Q215.55 141.423 209.74 141.423 Q203.929 141.423 200.851 136.84 Q197.795 132.234 197.795 123.507 Q197.795 114.757 200.851 110.174 Q203.929 105.567 209.74 105.567 Z" fill="#000000" fill-rule="nonzero" fill-opacity="1" /><path clip-path="url(#clip680)" d="M65.9242 810.762 L18.4042 828.904 L18.4042 822.188 L58.4126 807.133 L18.4042 792.046 L18.4042 785.362 L65.9242 803.473 L65.9242 810.762 Z" fill="#000000" fill-rule="nonzero" fill-opacity="1" /><path clip-path="url(#clip680)" d="M16.4626 764.61 Q23.7832 768.875 30.9446 770.944 Q38.106 773.013 45.4584 773.013 Q52.8108 773.013 60.0359 770.944 Q67.2291 768.843 74.5179 764.61 L74.5179 769.703 Q67.0382 774.477 59.8131 776.864 Q52.588 779.22 45.4584 779.22 Q38.3606 779.22 31.1674 776.864 Q23.9742 774.509 16.4626 769.703 L16.4626 764.61 Z" fill="#000000" fill-rule="nonzero" fill-opacity="1" /><path clip-path="url(#clip680)" d="M35.7507 732.591 Q35.1778 733.577 34.9232 734.755 Q34.6367 735.901 34.6367 737.301 Q34.6367 742.267 37.8832 744.94 Q41.0979 747.582 47.1453 747.582 L65.9242 747.582 L65.9242 753.47 L30.2762 753.47 L30.2762 747.582 L35.8144 747.582 Q32.5679 745.736 31.0083 742.776 Q29.4168 739.816 29.4168 735.583 Q29.4168 734.978 29.5123 734.246 Q29.576 733.514 29.7351 732.623 L35.7507 732.591 Z" fill="#000000" fill-rule="nonzero" fill-opacity="1" /><path clip-path="url(#clip680)" d="M16.4626 727.371 L16.4626 722.278 Q23.9742 717.504 31.1674 715.149 Q38.3606 712.762 45.4584 712.762 Q52.588 712.762 59.8131 715.149 Q67.0382 717.504 74.5179 722.278 L74.5179 727.371 Q67.2291 723.138 60.0359 721.069 Q52.8108 718.968 45.4584 718.968 Q38.106 718.968 30.9446 721.069 Q23.7832 723.138 16.4626 727.371 Z" fill="#000000" fill-rule="nonzero" fill-opacity="1" /><path clip-path="url(#clip680)" d="M18.4042 690.609 L18.4042 685.198 L71.9716 701.749 L71.9716 707.16 L18.4042 690.609 Z" fill="#000000" fill-rule="nonzero" fill-opacity="1" /><path clip-path="url(#clip680)" d="M46.6997 672.626 Q45.9358 676.191 43.867 678.1 Q41.83 680.01 38.8699 680.01 Q34.3821 680.01 31.8676 676.382 Q29.385 672.785 29.385 666.547 Q29.385 664.128 29.7669 661.422 Q30.1489 658.717 30.9128 655.598 L36.2281 655.598 Q35.3051 658.685 34.8913 661.231 Q34.4776 663.809 34.4776 666.069 Q34.4776 669.857 35.9417 672.053 Q37.4058 674.281 39.4428 674.281 Q41.6708 674.281 43.1031 672.117 Q44.5036 669.984 44.5036 666.292 L44.5036 661.359 L49.3415 661.359 L49.3415 666.069 Q49.3415 670.43 50.9647 672.721 Q52.7471 675.204 55.5481 675.204 Q58.4126 675.204 60.195 672.53 Q61.9774 669.825 61.9774 665.019 Q61.9774 662.059 61.4045 659.353 Q60.7998 656.648 59.6221 654.388 L65.0648 654.388 Q65.956 657.253 66.4016 659.926 Q66.8472 662.632 66.8472 665.178 Q66.8472 672.753 63.9508 676.859 Q61.0544 680.965 55.5481 680.965 Q52.1106 680.965 49.7871 678.769 Q47.4636 676.573 46.6997 672.626 Z" fill="#000000" fill-rule="nonzero" fill-opacity="1" /><path clip-path="url(#clip680)" d="M772.68 12.096 L780.863 12.096 L780.863 65.6895 L810.313 65.6895 L810.313 72.576 L772.68 72.576 L772.68 12.096 Z" fill="#000000" fill-rule="nonzero" fill-opacity="1" /><path clip-path="url(#clip680)" d="M855.926 48.0275 L855.926 51.6733 L821.656 51.6733 Q822.142 59.3701 826.274 63.421 Q830.446 67.4314 837.859 67.4314 Q842.153 67.4314 846.164 66.3781 Q850.215 65.3249 854.184 63.2184 L854.184 70.267 Q850.174 71.9684 845.961 72.8596 Q841.748 73.7508 837.414 73.7508 Q826.557 73.7508 820.197 67.4314 Q813.878 61.1119 813.878 50.3365 Q813.878 39.1965 819.873 32.6746 Q825.909 26.1121 836.117 26.1121 Q845.272 26.1121 850.579 32.0264 Q855.926 37.9003 855.926 48.0275 M848.473 45.84 Q848.392 39.7232 845.029 36.0774 Q841.708 32.4315 836.198 32.4315 Q829.96 32.4315 826.193 35.9558 Q822.466 39.4801 821.899 45.8805 L848.473 45.84 Z" fill="#000000" fill-rule="nonzero" fill-opacity="1" /><path clip-path="url(#clip680)" d="M905.874 45.1919 L905.874 72.576 L898.42 72.576 L898.42 45.4349 Q898.42 38.994 895.909 35.7938 Q893.397 32.5936 888.374 32.5936 Q882.338 32.5936 878.854 36.4419 Q875.371 40.2903 875.371 46.9338 L875.371 72.576 L867.876 72.576 L867.876 27.2059 L875.371 27.2059 L875.371 34.2544 Q878.044 30.163 881.65 28.1376 Q885.295 26.1121 890.035 26.1121 Q897.853 26.1121 901.864 30.9732 Q905.874 35.7938 905.874 45.1919 Z" fill="#000000" fill-rule="nonzero" fill-opacity="1" /><path clip-path="url(#clip680)" d="M958.455 45.1919 L958.455 72.576 L951.001 72.576 L951.001 45.4349 Q951.001 38.994 948.489 35.7938 Q945.978 32.5936 940.955 32.5936 Q934.919 32.5936 931.435 36.4419 Q927.951 40.2903 927.951 46.9338 L927.951 72.576 L920.457 72.576 L920.457 27.2059 L927.951 27.2059 L927.951 34.2544 Q930.625 30.163 934.23 28.1376 Q937.876 26.1121 942.616 26.1121 Q950.434 26.1121 954.444 30.9732 Q958.455 35.7938 958.455 45.1919 Z" fill="#000000" fill-rule="nonzero" fill-opacity="1" /><path clip-path="url(#clip680)" d="M993.941 49.7694 Q984.907 49.7694 981.423 51.8354 Q977.94 53.9013 977.94 58.8839 Q977.94 62.8538 980.532 65.2034 Q983.165 67.5124 987.662 67.5124 Q993.86 67.5124 997.586 63.1374 Q1001.35 58.7219 1001.35 51.4303 L1001.35 49.7694 L993.941 49.7694 M1008.81 46.6907 L1008.81 72.576 L1001.35 72.576 L1001.35 65.6895 Q998.802 69.8214 994.994 71.8063 Q991.186 73.7508 985.677 73.7508 Q978.709 73.7508 974.577 69.8619 Q970.486 65.9325 970.486 59.3701 Q970.486 51.7138 975.59 47.825 Q980.735 43.9361 990.902 43.9361 L1001.35 43.9361 L1001.35 43.2069 Q1001.35 38.0623 997.951 35.2672 Q994.589 32.4315 988.472 32.4315 Q984.583 32.4315 980.897 33.3632 Q977.21 34.295 973.808 36.1584 L973.808 29.2718 Q977.899 27.692 981.747 26.9223 Q985.596 26.1121 989.242 26.1121 Q999.085 26.1121 1003.95 31.2163 Q1008.81 36.3204 1008.81 46.6907 Z" fill="#000000" fill-rule="nonzero" fill-opacity="1" /><path clip-path="url(#clip680)" d="M1050.45 34.1734 Q1049.19 33.4443 1047.7 33.1202 Q1046.24 32.7556 1044.46 32.7556 Q1038.14 32.7556 1034.73 36.8875 Q1031.37 40.9789 1031.37 48.6757 L1031.37 72.576 L1023.88 72.576 L1023.88 27.2059 L1031.37 27.2059 L1031.37 34.2544 Q1033.72 30.1225 1037.49 28.1376 Q1041.26 26.1121 1046.64 26.1121 Q1047.41 26.1121 1048.34 26.2337 Q1049.28 26.3147 1050.41 26.5172 L1050.45 34.1734 Z" fill="#000000" fill-rule="nonzero" fill-opacity="1" /><path clip-path="url(#clip680)" d="M1086.67 34.0924 L1086.67 9.54393 L1094.12 9.54393 L1094.12 72.576 L1086.67 72.576 L1086.67 65.7705 Q1084.32 69.8214 1080.71 71.8063 Q1077.15 73.7508 1072.12 73.7508 Q1063.9 73.7508 1058.71 67.1883 Q1053.57 60.6258 1053.57 49.9314 Q1053.57 39.2371 1058.71 32.6746 Q1063.9 26.1121 1072.12 26.1121 Q1077.15 26.1121 1080.71 28.0971 Q1084.32 30.0415 1086.67 34.0924 M1061.27 49.9314 Q1061.27 58.1548 1064.63 62.8538 Q1068.03 67.5124 1073.95 67.5124 Q1079.86 67.5124 1083.26 62.8538 Q1086.67 58.1548 1086.67 49.9314 Q1086.67 41.7081 1083.26 37.0496 Q1079.86 32.3505 1073.95 32.3505 Q1068.03 32.3505 1064.63 37.0496 Q1061.27 41.7081 1061.27 49.9314 Z" fill="#000000" fill-rule="nonzero" fill-opacity="1" /><path clip-path="url(#clip680)" d="M1105.71 46.5287 L1127.54 46.5287 L1127.54 53.1722 L1105.71 53.1722 L1105.71 46.5287 Z" fill="#000000" fill-rule="nonzero" fill-opacity="1" /><path clip-path="url(#clip680)" d="M1144.35 12.096 L1152.53 12.096 L1152.53 68.3631 Q1152.53 79.3005 1148.36 84.2426 Q1144.23 89.1847 1135.03 89.1847 L1131.91 89.1847 L1131.91 82.2982 L1134.47 82.2982 Q1139.89 82.2982 1142.12 79.26 Q1144.35 76.2218 1144.35 68.3631 L1144.35 12.096 Z" fill="#000000" fill-rule="nonzero" fill-opacity="1" /><path clip-path="url(#clip680)" d="M1186.07 32.4315 Q1180.08 32.4315 1176.6 37.1306 Q1173.11 41.7891 1173.11 49.9314 Q1173.11 58.0738 1176.56 62.7728 Q1180.04 67.4314 1186.07 67.4314 Q1192.03 67.4314 1195.51 62.7323 Q1199 58.0333 1199 49.9314 Q1199 41.8701 1195.51 37.1711 Q1192.03 32.4315 1186.07 32.4315 M1186.07 26.1121 Q1195.8 26.1121 1201.35 32.4315 Q1206.9 38.7509 1206.9 49.9314 Q1206.9 61.0714 1201.35 67.4314 Q1195.8 73.7508 1186.07 73.7508 Q1176.31 73.7508 1170.76 67.4314 Q1165.25 61.0714 1165.25 49.9314 Q1165.25 38.7509 1170.76 32.4315 Q1176.31 26.1121 1186.07 26.1121 Z" fill="#000000" fill-rule="nonzero" fill-opacity="1" /><path clip-path="url(#clip680)" d="M1256.97 45.1919 L1256.97 72.576 L1249.51 72.576 L1249.51 45.4349 Q1249.51 38.994 1247 35.7938 Q1244.49 32.5936 1239.47 32.5936 Q1233.43 32.5936 1229.95 36.4419 Q1226.46 40.2903 1226.46 46.9338 L1226.46 72.576 L1218.97 72.576 L1218.97 27.2059 L1226.46 27.2059 L1226.46 34.2544 Q1229.14 30.163 1232.74 28.1376 Q1236.39 26.1121 1241.13 26.1121 Q1248.95 26.1121 1252.96 30.9732 Q1256.97 35.7938 1256.97 45.1919 Z" fill="#000000" fill-rule="nonzero" fill-opacity="1" /><path clip-path="url(#clip680)" d="M1310.64 48.0275 L1310.64 51.6733 L1276.37 51.6733 Q1276.86 59.3701 1280.99 63.421 Q1285.16 67.4314 1292.57 67.4314 Q1296.87 67.4314 1300.88 66.3781 Q1304.93 65.3249 1308.9 63.2184 L1308.9 70.267 Q1304.89 71.9684 1300.68 72.8596 Q1296.46 73.7508 1292.13 73.7508 Q1281.27 73.7508 1274.91 67.4314 Q1268.59 61.1119 1268.59 50.3365 Q1268.59 39.1965 1274.59 32.6746 Q1280.62 26.1121 1290.83 26.1121 Q1299.99 26.1121 1305.29 32.0264 Q1310.64 37.9003 1310.64 48.0275 M1303.19 45.84 Q1303.11 39.7232 1299.74 36.0774 Q1296.42 32.4315 1290.91 32.4315 Q1284.67 32.4315 1280.91 35.9558 Q1277.18 39.4801 1276.61 45.8805 L1303.19 45.84 Z" fill="#000000" fill-rule="nonzero" fill-opacity="1" /><path clip-path="url(#clip680)" d="M1351.8 28.5427 L1351.8 35.5912 Q1348.64 33.9709 1345.24 33.1607 Q1341.83 32.3505 1338.19 32.3505 Q1332.64 32.3505 1329.84 34.0519 Q1327.09 35.7533 1327.09 39.156 Q1327.09 41.7486 1329.07 43.2475 Q1331.06 44.7058 1337.05 46.0426 L1339.6 46.6097 Q1347.54 48.3111 1350.87 51.4303 Q1354.23 54.509 1354.23 60.0587 Q1354.23 66.3781 1349.2 70.0644 Q1344.22 73.7508 1335.47 73.7508 Q1331.83 73.7508 1327.86 73.0216 Q1323.93 72.3329 1319.55 70.9151 L1319.55 63.2184 Q1323.68 65.3654 1327.69 66.4591 Q1331.71 67.5124 1335.63 67.5124 Q1340.9 67.5124 1343.74 65.73 Q1346.57 63.9071 1346.57 60.6258 Q1346.57 57.5877 1344.51 55.9673 Q1342.48 54.3469 1335.55 52.8481 L1332.96 52.2405 Q1326.03 50.7821 1322.96 47.7845 Q1319.88 44.7463 1319.88 39.4801 Q1319.88 33.0797 1324.41 29.5959 Q1328.95 26.1121 1337.3 26.1121 Q1341.43 26.1121 1345.07 26.7198 Q1348.72 27.3274 1351.8 28.5427 Z" fill="#000000" fill-rule="nonzero" fill-opacity="1" /><path clip-path="url(#clip680)" d="M1400.98 18.8205 L1400.98 41.5461 L1411.26 41.5461 Q1416.98 41.5461 1420.1 38.5889 Q1423.21 35.6318 1423.21 30.163 Q1423.21 24.7348 1420.1 21.7777 Q1416.98 18.8205 1411.26 18.8205 L1400.98 18.8205 M1392.79 12.096 L1411.26 12.096 Q1421.43 12.096 1426.62 16.714 Q1431.84 21.2916 1431.84 30.163 Q1431.84 39.1155 1426.62 43.6931 Q1421.43 48.2706 1411.26 48.2706 L1400.98 48.2706 L1400.98 72.576 L1392.79 72.576 L1392.79 12.096 Z" fill="#000000" fill-rule="nonzero" fill-opacity="1" /><path clip-path="url(#clip680)" d="M1457.12 32.4315 Q1451.13 32.4315 1447.64 37.1306 Q1444.16 41.7891 1444.16 49.9314 Q1444.16 58.0738 1447.6 62.7728 Q1451.09 67.4314 1457.12 67.4314 Q1463.08 67.4314 1466.56 62.7323 Q1470.04 58.0333 1470.04 49.9314 Q1470.04 41.8701 1466.56 37.1711 Q1463.08 32.4315 1457.12 32.4315 M1457.12 26.1121 Q1466.84 26.1121 1472.39 32.4315 Q1477.94 38.7509 1477.94 49.9314 Q1477.94 61.0714 1472.39 67.4314 Q1466.84 73.7508 1457.12 73.7508 Q1447.36 73.7508 1441.81 67.4314 Q1436.3 61.0714 1436.3 49.9314 Q1436.3 38.7509 1441.81 32.4315 Q1447.36 26.1121 1457.12 26.1121 Z" fill="#000000" fill-rule="nonzero" fill-opacity="1" /><path clip-path="url(#clip680)" d="M1497.67 14.324 L1497.67 27.2059 L1513.02 27.2059 L1513.02 32.9987 L1497.67 32.9987 L1497.67 57.6282 Q1497.67 63.1779 1499.17 64.7578 Q1500.71 66.3376 1505.37 66.3376 L1513.02 66.3376 L1513.02 72.576 L1505.37 72.576 Q1496.74 72.576 1493.46 69.3758 Q1490.18 66.1351 1490.18 57.6282 L1490.18 32.9987 L1484.71 32.9987 L1484.71 27.2059 L1490.18 27.2059 L1490.18 14.324 L1497.67 14.324 Z" fill="#000000" fill-rule="nonzero" fill-opacity="1" /><path clip-path="url(#clip680)" d="M1561.63 48.0275 L1561.63 51.6733 L1527.36 51.6733 Q1527.85 59.3701 1531.98 63.421 Q1536.15 67.4314 1543.57 67.4314 Q1547.86 67.4314 1551.87 66.3781 Q1555.92 65.3249 1559.89 63.2184 L1559.89 70.267 Q1555.88 71.9684 1551.67 72.8596 Q1547.46 73.7508 1543.12 73.7508 Q1532.27 73.7508 1525.91 67.4314 Q1519.59 61.1119 1519.59 50.3365 Q1519.59 39.1965 1525.58 32.6746 Q1531.62 26.1121 1541.83 26.1121 Q1550.98 26.1121 1556.29 32.0264 Q1561.63 37.9003 1561.63 48.0275 M1554.18 45.84 Q1554.1 39.7232 1550.74 36.0774 Q1547.42 32.4315 1541.91 32.4315 Q1535.67 32.4315 1531.9 35.9558 Q1528.17 39.4801 1527.61 45.8805 L1554.18 45.84 Z" fill="#000000" fill-rule="nonzero" fill-opacity="1" /><path clip-path="url(#clip680)" d="M1611.58 45.1919 L1611.58 72.576 L1604.13 72.576 L1604.13 45.4349 Q1604.13 38.994 1601.62 35.7938 Q1599.11 32.5936 1594.08 32.5936 Q1588.05 32.5936 1584.56 36.4419 Q1581.08 40.2903 1581.08 46.9338 L1581.08 72.576 L1573.58 72.576 L1573.58 27.2059 L1581.08 27.2059 L1581.08 34.2544 Q1583.75 30.163 1587.36 28.1376 Q1591 26.1121 1595.74 26.1121 Q1603.56 26.1121 1607.57 30.9732 Q1611.58 35.7938 1611.58 45.1919 Z" fill="#000000" fill-rule="nonzero" fill-opacity="1" /><path clip-path="url(#clip680)" d="M1633.82 14.324 L1633.82 27.2059 L1649.17 27.2059 L1649.17 32.9987 L1633.82 32.9987 L1633.82 57.6282 Q1633.82 63.1779 1635.32 64.7578 Q1636.86 66.3376 1641.52 66.3376 L1649.17 66.3376 L1649.17 72.576 L1641.52 72.576 Q1632.89 72.576 1629.61 69.3758 Q1626.33 66.1351 1626.33 57.6282 L1626.33 32.9987 L1620.86 32.9987 L1620.86 27.2059 L1626.33 27.2059 L1626.33 14.324 L1633.82 14.324 Z" fill="#000000" fill-rule="nonzero" fill-opacity="1" /><path clip-path="url(#clip680)" d="M1658.98 27.2059 L1666.43 27.2059 L1666.43 72.576 L1658.98 72.576 L1658.98 27.2059 M1658.98 9.54393 L1666.43 9.54393 L1666.43 18.9825 L1658.98 18.9825 L1658.98 9.54393 Z" fill="#000000" fill-rule="nonzero" fill-opacity="1" /><path clip-path="url(#clip680)" d="M1702.65 49.7694 Q1693.61 49.7694 1690.13 51.8354 Q1686.65 53.9013 1686.65 58.8839 Q1686.65 62.8538 1689.24 65.2034 Q1691.87 67.5124 1696.37 67.5124 Q1702.57 67.5124 1706.29 63.1374 Q1710.06 58.7219 1710.06 51.4303 L1710.06 49.7694 L1702.65 49.7694 M1717.51 46.6907 L1717.51 72.576 L1710.06 72.576 L1710.06 65.6895 Q1707.51 69.8214 1703.7 71.8063 Q1699.89 73.7508 1694.38 73.7508 Q1687.41 73.7508 1683.28 69.8619 Q1679.19 65.9325 1679.19 59.3701 Q1679.19 51.7138 1684.3 47.825 Q1689.44 43.9361 1699.61 43.9361 L1710.06 43.9361 L1710.06 43.2069 Q1710.06 38.0623 1706.66 35.2672 Q1703.29 32.4315 1697.18 32.4315 Q1693.29 32.4315 1689.6 33.3632 Q1685.92 34.295 1682.51 36.1584 L1682.51 29.2718 Q1686.6 27.692 1690.45 26.9223 Q1694.3 26.1121 1697.95 26.1121 Q1707.79 26.1121 1712.65 31.2163 Q1717.51 36.3204 1717.51 46.6907 Z" fill="#000000" fill-rule="nonzero" fill-opacity="1" /><path clip-path="url(#clip680)" d="M1732.87 9.54393 L1740.32 9.54393 L1740.32 72.576 L1732.87 72.576 L1732.87 9.54393 Z" fill="#000000" fill-rule="nonzero" fill-opacity="1" /><polyline clip-path="url(#clip682)" style="stroke:#80c4ac; stroke-linecap:round; stroke-linejoin:round; stroke-width:8; stroke-opacity:1; fill:none" points="312.862,-23450.8 321.441,-19536.5 330.019,-16243 338.598,-13469 347.176,-11130.6 355.755,-9157.71 364.333,-7492.22 372.912,-6085.51 381.49,-4896.98 390.069,-3892.62 398.648,-3043.89 407.226,-2326.84 415.805,-1721.29 424.383,-1210.25 432.962,-779.384 441.54,-416.573 450.119,-111.568 458.697,144.312 467.276,358.432 475.854,537.04 484.433,685.448 493.011,808.175 501.59,909.066 510.168,991.398 518.747,1057.97 527.325,1111.15 535.904,1152.99 544.482,1185.23 553.061,1209.34 561.639,1226.59 570.218,1238.08 578.797,1244.73 587.375,1247.33 595.954,1246.55 604.532,1242.99 613.111,1237.13 621.689,1229.4 630.268,1220.15 638.846,1209.69 647.425,1198.28 656.003,1186.15 664.582,1173.48 673.16,1160.43 681.739,1147.14 690.317,1133.71 698.896,1120.25 707.474,1106.82 716.053,1093.51 724.631,1080.35 733.21,1067.39 741.789,1054.68 750.367,1042.23 758.946,1030.06 767.524,1018.2 776.103,1006.66 784.681,995.447 793.26,984.562 801.838,974.009 810.417,963.79 818.995,953.903 827.574,944.343 836.152,935.108 844.731,926.192 853.309,917.588 861.888,909.289 870.466,901.288 879.045,893.578 887.623,886.149 896.202,878.993 904.78,872.103 913.359,865.47 921.938,859.085 930.516,852.94 939.095,847.026 947.673,841.336 956.252,835.861 964.83,830.593 973.409,825.525 981.987,820.65 990.566,815.96 999.144,811.448 1007.72,807.107 1016.3,802.93 1024.88,798.912 1033.46,795.046 1042.04,791.325 1050.62,787.745 1059.19,784.3 1067.77,780.983 1076.35,777.792 1084.93,774.719 1093.51,771.761 1102.09,768.913 1110.67,766.17 1119.24,763.529 1127.82,760.985 1136.4,758.535 1144.98,756.175 1153.56,753.9 1162.14,751.708 1170.71,749.596 1179.29,747.56 1187.87,745.598 1196.45,743.706 1205.03,741.881 1213.61,740.122 1222.19,738.425 1230.76,736.788 1239.34,735.208 1247.92,733.685 1256.5,732.214 1265.08,730.794 1273.66,729.424 1282.24,728.101 1290.81,726.824 1299.39,725.59 1307.97,724.399 1316.55,723.248 1325.13,722.136 1333.71,721.061 1342.29,720.023 1350.86,719.019 1359.44,718.049 1368.02,717.111 1376.6,716.204 1385.18,715.327 1393.76,714.479 1402.33,713.658 1410.91,712.864 1419.49,712.096 1428.07,711.352 1436.65,710.633 1445.23,709.936 1453.81,709.262 1462.38,708.609 1470.96,707.977 1479.54,707.364 1488.12,706.771 1496.7,706.196 1505.28,705.639 1513.86,705.1 1522.43,704.577 1531.01,704.07 1539.59,703.579 1548.17,703.102 1556.75,702.64 1565.33,702.192 1573.91,701.758 1582.48,701.336 1591.06,700.927 1599.64,700.531 1608.22,700.146 1616.8,699.772 1625.38,699.409 1633.96,699.057 1642.53,698.716 1651.11,698.384 1659.69,698.062 1668.27,697.749 1676.85,697.445 1685.43,697.15 1694,696.863 1702.58,696.584 1711.16,696.313 1719.74,696.05 1728.32,695.794 1736.9,695.546 1745.48,695.304 1754.05,695.069 1762.63,694.84 1771.21,694.618 1779.79,694.402 1788.37,694.192 1796.95,693.987 1805.53,693.788 1814.1,693.595 1822.68,693.406 1831.26,693.223 1839.84,693.044 1848.42,692.871 1857,692.702 1865.58,692.537 1874.15,692.377 1882.73,692.221 1891.31,692.069 1899.89,691.92 1908.47,691.776 1917.05,691.636 1925.62,691.499 1934.2,691.366 1942.78,691.236 1951.36,691.109 1959.94,690.986 1968.52,690.865 1977.1,690.748 1985.67,690.634 1994.25,690.522 2002.83,690.414 2011.41,690.308 2019.99,690.204 2028.57,690.103 2037.15,690.005 2045.72,689.909 2054.3,689.816 2062.88,689.724 2071.46,689.635 2080.04,689.548 2088.62,689.464 2097.2,689.381 2105.77,689.3 2114.35,689.221 2122.93,689.144 2131.51,689.069 2140.09,688.996 2148.67,688.924 2157.25,688.854 2165.82,688.786 2174.4,688.719 2182.98,688.654 2191.56,688.59 2200.14,688.528 "/>
<polyline clip-path="url(#clip682)" style="stroke:#000000; stroke-linecap:round; stroke-linejoin:round; stroke-width:4; stroke-opacity:1; fill:none" stroke-dasharray="16, 10" points="-1744.27,685.448 4257.27,685.448 "/>
<path clip-path="url(#clip680)" d="M1735.97 268.364 L2190.07 268.364 L2190.07 164.684 L1735.97 164.684  Z" fill="#ffffff" fill-rule="evenodd" fill-opacity="1"/>
<polyline clip-path="url(#clip680)" style="stroke:#000000; stroke-linecap:round; stroke-linejoin:round; stroke-width:4; stroke-opacity:1; fill:none" points="1735.97,268.364 2190.07,268.364 2190.07,164.684 1735.97,164.684 1735.97,268.364 "/>
<polyline clip-path="url(#clip680)" style="stroke:#80c4ac; stroke-linecap:round; stroke-linejoin:round; stroke-width:8; stroke-opacity:1; fill:none" points="1758.2,216.524 1891.57,216.524 "/>
<path clip-path="url(#clip680)" d="M1913.79 199.244 L1918.47 199.244 L1918.47 229.869 L1935.3 229.869 L1935.3 233.804 L1913.79 233.804 L1913.79 199.244 Z" fill="#000000" fill-rule="nonzero" fill-opacity="1" /><path clip-path="url(#clip680)" d="M1940.21 199.244 L1944.88 199.244 L1944.88 231.396 Q1944.88 237.646 1942.5 240.47 Q1940.14 243.294 1934.88 243.294 L1933.1 243.294 L1933.1 239.359 L1934.56 239.359 Q1937.66 239.359 1938.93 237.623 Q1940.21 235.887 1940.21 231.396 L1940.21 199.244 Z" fill="#000000" fill-rule="nonzero" fill-opacity="1" /><path clip-path="url(#clip680)" d="M1973.93 203.086 L1973.93 216.072 L1979.81 216.072 Q1983.08 216.072 1984.86 214.383 Q1986.64 212.693 1986.64 209.568 Q1986.64 206.466 1984.86 204.776 Q1983.08 203.086 1979.81 203.086 L1973.93 203.086 M1969.26 199.244 L1979.81 199.244 Q1985.62 199.244 1988.59 201.883 Q1991.57 204.498 1991.57 209.568 Q1991.57 214.683 1988.59 217.299 Q1985.62 219.915 1979.81 219.915 L1973.93 219.915 L1973.93 233.804 L1969.26 233.804 L1969.26 199.244 Z" fill="#000000" fill-rule="nonzero" fill-opacity="1" /><path clip-path="url(#clip680)" d="M2006.02 210.864 Q2002.59 210.864 2000.6 213.549 Q1998.61 216.211 1998.61 220.864 Q1998.61 225.517 2000.58 228.202 Q2002.57 230.864 2006.02 230.864 Q2009.42 230.864 2011.41 228.179 Q2013.4 225.494 2013.4 220.864 Q2013.4 216.258 2011.41 213.572 Q2009.42 210.864 2006.02 210.864 M2006.02 207.253 Q2011.57 207.253 2014.74 210.864 Q2017.91 214.475 2017.91 220.864 Q2017.91 227.23 2014.74 230.864 Q2011.57 234.475 2006.02 234.475 Q2000.44 234.475 1997.27 230.864 Q1994.12 227.23 1994.12 220.864 Q1994.12 214.475 1997.27 210.864 Q2000.44 207.253 2006.02 207.253 Z" fill="#000000" fill-rule="nonzero" fill-opacity="1" /><path clip-path="url(#clip680)" d="M2029.19 200.517 L2029.19 207.878 L2037.96 207.878 L2037.96 211.188 L2029.19 211.188 L2029.19 225.262 Q2029.19 228.433 2030.04 229.336 Q2030.92 230.239 2033.59 230.239 L2037.96 230.239 L2037.96 233.804 L2033.59 233.804 Q2028.66 233.804 2026.78 231.975 Q2024.91 230.123 2024.91 225.262 L2024.91 211.188 L2021.78 211.188 L2021.78 207.878 L2024.91 207.878 L2024.91 200.517 L2029.19 200.517 Z" fill="#000000" fill-rule="nonzero" fill-opacity="1" /><path clip-path="url(#clip680)" d="M2065.74 219.776 L2065.74 221.859 L2046.16 221.859 Q2046.43 226.257 2048.79 228.572 Q2051.18 230.864 2055.41 230.864 Q2057.87 230.864 2060.16 230.262 Q2062.47 229.66 2064.74 228.457 L2064.74 232.484 Q2062.45 233.456 2060.04 233.966 Q2057.64 234.475 2055.16 234.475 Q2048.96 234.475 2045.32 230.864 Q2041.71 227.253 2041.71 221.095 Q2041.71 214.73 2045.14 211.003 Q2048.59 207.253 2054.42 207.253 Q2059.65 207.253 2062.68 210.633 Q2065.74 213.989 2065.74 219.776 M2061.48 218.526 Q2061.43 215.031 2059.51 212.947 Q2057.61 210.864 2054.47 210.864 Q2050.9 210.864 2048.75 212.878 Q2046.62 214.892 2046.29 218.549 L2061.48 218.526 Z" fill="#000000" fill-rule="nonzero" fill-opacity="1" /><path clip-path="url(#clip680)" d="M2094.28 218.156 L2094.28 233.804 L2090.02 233.804 L2090.02 218.295 Q2090.02 214.614 2088.59 212.785 Q2087.15 210.957 2084.28 210.957 Q2080.83 210.957 2078.84 213.156 Q2076.85 215.355 2076.85 219.151 L2076.85 233.804 L2072.57 233.804 L2072.57 207.878 L2076.85 207.878 L2076.85 211.906 Q2078.38 209.568 2080.44 208.41 Q2082.52 207.253 2085.23 207.253 Q2089.7 207.253 2091.99 210.031 Q2094.28 212.785 2094.28 218.156 Z" fill="#000000" fill-rule="nonzero" fill-opacity="1" /><path clip-path="url(#clip680)" d="M2106.99 200.517 L2106.99 207.878 L2115.76 207.878 L2115.76 211.188 L2106.99 211.188 L2106.99 225.262 Q2106.99 228.433 2107.84 229.336 Q2108.72 230.239 2111.39 230.239 L2115.76 230.239 L2115.76 233.804 L2111.39 233.804 Q2106.46 233.804 2104.58 231.975 Q2102.71 230.123 2102.71 225.262 L2102.71 211.188 L2099.58 211.188 L2099.58 207.878 L2102.71 207.878 L2102.71 200.517 L2106.99 200.517 Z" fill="#000000" fill-rule="nonzero" fill-opacity="1" /><path clip-path="url(#clip680)" d="M2121.36 207.878 L2125.62 207.878 L2125.62 233.804 L2121.36 233.804 L2121.36 207.878 M2121.36 197.785 L2125.62 197.785 L2125.62 203.179 L2121.36 203.179 L2121.36 197.785 Z" fill="#000000" fill-rule="nonzero" fill-opacity="1" /><path clip-path="url(#clip680)" d="M2146.32 220.771 Q2141.15 220.771 2139.16 221.952 Q2137.17 223.132 2137.17 225.98 Q2137.17 228.248 2138.65 229.591 Q2140.16 230.91 2142.73 230.91 Q2146.27 230.91 2148.4 228.41 Q2150.55 225.887 2150.55 221.72 L2150.55 220.771 L2146.32 220.771 M2154.81 219.012 L2154.81 233.804 L2150.55 233.804 L2150.55 229.869 Q2149.09 232.23 2146.92 233.364 Q2144.74 234.475 2141.59 234.475 Q2137.61 234.475 2135.25 232.253 Q2132.91 230.007 2132.91 226.257 Q2132.91 221.882 2135.83 219.66 Q2138.77 217.438 2144.58 217.438 L2150.55 217.438 L2150.55 217.021 Q2150.55 214.082 2148.61 212.484 Q2146.69 210.864 2143.19 210.864 Q2140.97 210.864 2138.86 211.396 Q2136.76 211.929 2134.81 212.994 L2134.81 209.058 Q2137.15 208.156 2139.35 207.716 Q2141.55 207.253 2143.63 207.253 Q2149.26 207.253 2152.03 210.17 Q2154.81 213.086 2154.81 219.012 Z" fill="#000000" fill-rule="nonzero" fill-opacity="1" /><path clip-path="url(#clip680)" d="M2163.59 197.785 L2167.84 197.785 L2167.84 233.804 L2163.59 233.804 L2163.59 197.785 Z" fill="#000000" fill-rule="nonzero" fill-opacity="1" /></svg>
