<?xml version="1.0" encoding="utf-8"?>
<svg xmlns="http://www.w3.org/2000/svg" xmlns:xlink="http://www.w3.org/1999/xlink" width="800" height="600" viewBox="0 0 3200 2400">
<defs>
  <clipPath id="clip120">
    <rect x="0" y="0" width="3200" height="2400"/>
  </clipPath>
</defs>
<path clip-path="url(#clip120)" d="M0 2400 L3200 2400 L3200 0 L0 0  Z" fill="#f0f1eb" fill-rule="evenodd" fill-opacity="1"/>
<defs>
  <clipPath id="clip121">
    <rect x="297" y="131" width="2856" height="1996"/>
  </clipPath>
</defs>
<path clip-path="url(#clip120)" d="M297.989 2125.99 L3152.76 2125.99 L3152.76 131.032 L297.989 131.032  Z" fill="#f0f1eb" fill-rule="evenodd" fill-opacity="1"/>
<polyline clip-path="url(#clip121)" style="stroke:#000000; stroke-linecap:round; stroke-linejoin:round; stroke-width:2; stroke-opacity:0.1; fill:none" points="430.576,2125.99 430.576,131.032 "/>
<polyline clip-path="url(#clip121)" style="stroke:#000000; stroke-linecap:round; stroke-linejoin:round; stroke-width:2; stroke-opacity:0.1; fill:none" points="948.495,2125.99 948.495,131.032 "/>
<polyline clip-path="url(#clip121)" style="stroke:#000000; stroke-linecap:round; stroke-linejoin:round; stroke-width:2; stroke-opacity:0.1; fill:none" points="1466.41,2125.99 1466.41,131.032 "/>
<polyline clip-path="url(#clip121)" style="stroke:#000000; stroke-linecap:round; stroke-linejoin:round; stroke-width:2; stroke-opacity:0.1; fill:none" points="1984.33,2125.99 1984.33,131.032 "/>
<polyline clip-path="url(#clip121)" style="stroke:#000000; stroke-linecap:round; stroke-linejoin:round; stroke-width:2; stroke-opacity:0.1; fill:none" points="2502.25,2125.99 2502.25,131.032 "/>
<polyline clip-path="url(#clip121)" style="stroke:#000000; stroke-linecap:round; stroke-linejoin:round; stroke-width:2; stroke-opacity:0.1; fill:none" points="3020.17,2125.99 3020.17,131.032 "/>
<polyline clip-path="url(#clip121)" style="stroke:#000000; stroke-linecap:round; stroke-linejoin:round; stroke-width:2; stroke-opacity:0.1; fill:none" points="297.989,1778.6 3152.76,1778.6 "/>
<polyline clip-path="url(#clip121)" style="stroke:#000000; stroke-linecap:round; stroke-linejoin:round; stroke-width:2; stroke-opacity:0.1; fill:none" points="297.989,1425.41 3152.76,1425.41 "/>
<polyline clip-path="url(#clip121)" style="stroke:#000000; stroke-linecap:round; stroke-linejoin:round; stroke-width:2; stroke-opacity:0.1; fill:none" points="297.989,1072.22 3152.76,1072.22 "/>
<polyline clip-path="url(#clip121)" style="stroke:#000000; stroke-linecap:round; stroke-linejoin:round; stroke-width:2; stroke-opacity:0.1; fill:none" points="297.989,719.036 3152.76,719.036 "/>
<polyline clip-path="url(#clip121)" style="stroke:#000000; stroke-linecap:round; stroke-linejoin:round; stroke-width:2; stroke-opacity:0.1; fill:none" points="297.989,365.848 3152.76,365.848 "/>
<polyline clip-path="url(#clip120)" style="stroke:#000000; stroke-linecap:round; stroke-linejoin:round; stroke-width:4; stroke-opacity:1; fill:none" points="297.989,2125.99 3152.76,2125.99 "/>
<polyline clip-path="url(#clip120)" style="stroke:#000000; stroke-linecap:round; stroke-linejoin:round; stroke-width:4; stroke-opacity:1; fill:none" points="430.576,2125.99 430.576,2107.09 "/>
<polyline clip-path="url(#clip120)" style="stroke:#000000; stroke-linecap:round; stroke-linejoin:round; stroke-width:4; stroke-opacity:1; fill:none" points="948.495,2125.99 948.495,2107.09 "/>
<polyline clip-path="url(#clip120)" style="stroke:#000000; stroke-linecap:round; stroke-linejoin:round; stroke-width:4; stroke-opacity:1; fill:none" points="1466.41,2125.99 1466.41,2107.09 "/>
<polyline clip-path="url(#clip120)" style="stroke:#000000; stroke-linecap:round; stroke-linejoin:round; stroke-width:4; stroke-opacity:1; fill:none" points="1984.33,2125.99 1984.33,2107.09 "/>
<polyline clip-path="url(#clip120)" style="stroke:#000000; stroke-linecap:round; stroke-linejoin:round; stroke-width:4; stroke-opacity:1; fill:none" points="2502.25,2125.99 2502.25,2107.09 "/>
<polyline clip-path="url(#clip120)" style="stroke:#000000; stroke-linecap:round; stroke-linejoin:round; stroke-width:4; stroke-opacity:1; fill:none" points="3020.17,2125.99 3020.17,2107.09 "/>
<path clip-path="url(#clip120)" d="M405.264 2190.86 L412.903 2190.86 L412.903 2164.49 L404.592 2166.16 L404.592 2161.9 L412.856 2160.23 L417.532 2160.23 L417.532 2190.86 L425.171 2190.86 L425.171 2194.79 L405.264 2194.79 L405.264 2190.86 Z" fill="#000000" fill-rule="nonzero" fill-opacity="1" /><path clip-path="url(#clip120)" d="M444.615 2163.31 Q441.004 2163.31 439.176 2166.88 Q437.37 2170.42 437.37 2177.55 Q437.37 2184.65 439.176 2188.22 Q441.004 2191.76 444.615 2191.76 Q448.25 2191.76 450.055 2188.22 Q451.884 2184.65 451.884 2177.55 Q451.884 2170.42 450.055 2166.88 Q448.25 2163.31 444.615 2163.31 M444.615 2159.61 Q450.426 2159.61 453.481 2164.21 Q456.56 2168.8 456.56 2177.55 Q456.56 2186.27 453.481 2190.88 Q450.426 2195.46 444.615 2195.46 Q438.805 2195.46 435.727 2190.88 Q432.671 2186.27 432.671 2177.55 Q432.671 2168.8 435.727 2164.21 Q438.805 2159.61 444.615 2159.61 Z" fill="#000000" fill-rule="nonzero" fill-opacity="1" /><path clip-path="url(#clip120)" d="M927.268 2190.86 L943.587 2190.86 L943.587 2194.79 L921.643 2194.79 L921.643 2190.86 Q924.305 2188.1 928.888 2183.47 Q933.495 2178.82 934.675 2177.48 Q936.921 2174.95 937.8 2173.22 Q938.703 2171.46 938.703 2169.77 Q938.703 2167.01 936.759 2165.28 Q934.837 2163.54 931.736 2163.54 Q929.536 2163.54 927.083 2164.31 Q924.652 2165.07 921.874 2166.62 L921.874 2161.9 Q924.699 2160.76 927.152 2160.19 Q929.606 2159.61 931.643 2159.61 Q937.013 2159.61 940.208 2162.29 Q943.402 2164.98 943.402 2169.47 Q943.402 2171.6 942.592 2173.52 Q941.805 2175.42 939.698 2178.01 Q939.12 2178.68 936.018 2181.9 Q932.916 2185.09 927.268 2190.86 Z" fill="#000000" fill-rule="nonzero" fill-opacity="1" /><path clip-path="url(#clip120)" d="M963.402 2163.31 Q959.791 2163.31 957.962 2166.88 Q956.157 2170.42 956.157 2177.55 Q956.157 2184.65 957.962 2188.22 Q959.791 2191.76 963.402 2191.76 Q967.036 2191.76 968.842 2188.22 Q970.67 2184.65 970.67 2177.55 Q970.67 2170.42 968.842 2166.88 Q967.036 2163.31 963.402 2163.31 M963.402 2159.61 Q969.212 2159.61 972.268 2164.21 Q975.346 2168.8 975.346 2177.55 Q975.346 2186.27 972.268 2190.88 Q969.212 2195.46 963.402 2195.46 Q957.592 2195.46 954.513 2190.88 Q951.458 2186.27 951.458 2177.55 Q951.458 2168.8 954.513 2164.21 Q957.592 2159.61 963.402 2159.61 Z" fill="#000000" fill-rule="nonzero" fill-opacity="1" /><path clip-path="url(#clip120)" d="M1454.58 2164.31 L1442.78 2182.75 L1454.58 2182.75 L1454.58 2164.31 M1453.36 2160.23 L1459.24 2160.23 L1459.24 2182.75 L1464.17 2182.75 L1464.17 2186.64 L1459.24 2186.64 L1459.24 2194.79 L1454.58 2194.79 L1454.58 2186.64 L1438.98 2186.64 L1438.98 2182.13 L1453.36 2160.23 Z" fill="#000000" fill-rule="nonzero" fill-opacity="1" /><path clip-path="url(#clip120)" d="M1481.9 2163.31 Q1478.29 2163.31 1476.46 2166.88 Q1474.65 2170.42 1474.65 2177.55 Q1474.65 2184.65 1476.46 2188.22 Q1478.29 2191.76 1481.9 2191.76 Q1485.53 2191.76 1487.34 2188.22 Q1489.17 2184.65 1489.17 2177.55 Q1489.17 2170.42 1487.34 2166.88 Q1485.53 2163.31 1481.9 2163.31 M1481.9 2159.61 Q1487.71 2159.61 1490.76 2164.21 Q1493.84 2168.8 1493.84 2177.55 Q1493.84 2186.27 1490.76 2190.88 Q1487.71 2195.46 1481.9 2195.46 Q1476.09 2195.46 1473.01 2190.88 Q1469.95 2186.27 1469.95 2177.55 Q1469.95 2168.8 1473.01 2164.21 Q1476.09 2159.61 1481.9 2159.61 Z" fill="#000000" fill-rule="nonzero" fill-opacity="1" /><path clip-path="url(#clip120)" d="M1969.2 2178.38 Q1965.87 2178.38 1963.95 2180.16 Q1962.05 2181.94 1962.05 2185.07 Q1962.05 2188.19 1963.95 2189.98 Q1965.87 2191.76 1969.2 2191.76 Q1972.54 2191.76 1974.46 2189.98 Q1976.38 2188.17 1976.38 2185.07 Q1976.38 2181.94 1974.46 2180.16 Q1972.56 2178.38 1969.2 2178.38 M1964.53 2176.39 Q1961.52 2175.65 1959.83 2173.59 Q1958.16 2171.53 1958.16 2168.57 Q1958.16 2164.42 1961.1 2162.01 Q1964.07 2159.61 1969.2 2159.61 Q1974.37 2159.61 1977.31 2162.01 Q1980.25 2164.42 1980.25 2168.57 Q1980.25 2171.53 1978.56 2173.59 Q1976.89 2175.65 1973.9 2176.39 Q1977.28 2177.18 1979.16 2179.47 Q1981.06 2181.76 1981.06 2185.07 Q1981.06 2190.09 1977.98 2192.78 Q1974.92 2195.46 1969.2 2195.46 Q1963.49 2195.46 1960.41 2192.78 Q1957.35 2190.09 1957.35 2185.07 Q1957.35 2181.76 1959.25 2179.47 Q1961.15 2177.18 1964.53 2176.39 M1962.82 2169 Q1962.82 2171.69 1964.48 2173.19 Q1966.17 2174.7 1969.2 2174.7 Q1972.21 2174.7 1973.9 2173.19 Q1975.62 2171.69 1975.62 2169 Q1975.62 2166.32 1973.9 2164.82 Q1972.21 2163.31 1969.2 2163.31 Q1966.17 2163.31 1964.48 2164.82 Q1962.82 2166.32 1962.82 2169 Z" fill="#000000" fill-rule="nonzero" fill-opacity="1" /><path clip-path="url(#clip120)" d="M1999.37 2163.31 Q1995.76 2163.31 1993.93 2166.88 Q1992.12 2170.42 1992.12 2177.55 Q1992.12 2184.65 1993.93 2188.22 Q1995.76 2191.76 1999.37 2191.76 Q2003 2191.76 2004.81 2188.22 Q2006.63 2184.65 2006.63 2177.55 Q2006.63 2170.42 2004.81 2166.88 Q2003 2163.31 1999.37 2163.31 M1999.37 2159.61 Q2005.18 2159.61 2008.23 2164.21 Q2011.31 2168.8 2011.31 2177.55 Q2011.31 2186.27 2008.23 2190.88 Q2005.18 2195.46 1999.37 2195.46 Q1993.56 2195.46 1990.48 2190.88 Q1987.42 2186.27 1987.42 2177.55 Q1987.42 2168.8 1990.48 2164.21 Q1993.56 2159.61 1999.37 2159.61 Z" fill="#000000" fill-rule="nonzero" fill-opacity="1" /><path clip-path="url(#clip120)" d="M2461.86 2190.86 L2469.5 2190.86 L2469.5 2164.49 L2461.19 2166.16 L2461.19 2161.9 L2469.45 2160.23 L2474.13 2160.23 L2474.13 2190.86 L2481.76 2190.86 L2481.76 2194.79 L2461.86 2194.79 L2461.86 2190.86 Z" fill="#000000" fill-rule="nonzero" fill-opacity="1" /><path clip-path="url(#clip120)" d="M2501.79 2175.65 Q2498.64 2175.65 2496.79 2177.8 Q2494.96 2179.95 2494.96 2183.7 Q2494.96 2187.43 2496.79 2189.61 Q2498.64 2191.76 2501.79 2191.76 Q2504.94 2191.76 2506.76 2189.61 Q2508.62 2187.43 2508.62 2183.7 Q2508.62 2179.95 2506.76 2177.8 Q2504.94 2175.65 2501.79 2175.65 M2511.07 2161 L2511.07 2165.25 Q2509.31 2164.42 2507.5 2163.98 Q2505.72 2163.54 2503.96 2163.54 Q2499.33 2163.54 2496.88 2166.67 Q2494.45 2169.79 2494.1 2176.11 Q2495.47 2174.1 2497.53 2173.03 Q2499.59 2171.94 2502.07 2171.94 Q2507.27 2171.94 2510.28 2175.12 Q2513.31 2178.26 2513.31 2183.7 Q2513.31 2189.03 2510.17 2192.25 Q2507.02 2195.46 2501.79 2195.46 Q2495.79 2195.46 2492.62 2190.88 Q2489.45 2186.27 2489.45 2177.55 Q2489.45 2169.35 2493.34 2164.49 Q2497.23 2159.61 2503.78 2159.61 Q2505.54 2159.61 2507.32 2159.95 Q2509.13 2160.3 2511.07 2161 Z" fill="#000000" fill-rule="nonzero" fill-opacity="1" /><path clip-path="url(#clip120)" d="M2531.37 2163.31 Q2527.76 2163.31 2525.93 2166.88 Q2524.13 2170.42 2524.13 2177.55 Q2524.13 2184.65 2525.93 2188.22 Q2527.76 2191.76 2531.37 2191.76 Q2535 2191.76 2536.81 2188.22 Q2538.64 2184.65 2538.64 2177.55 Q2538.64 2170.42 2536.81 2166.88 Q2535 2163.31 2531.37 2163.31 M2531.37 2159.61 Q2537.18 2159.61 2540.24 2164.21 Q2543.31 2168.8 2543.31 2177.55 Q2543.31 2186.27 2540.24 2190.88 Q2537.18 2195.46 2531.37 2195.46 Q2525.56 2195.46 2522.48 2190.88 Q2519.43 2186.27 2519.43 2177.55 Q2519.43 2168.8 2522.48 2164.21 Q2525.56 2159.61 2531.37 2159.61 Z" fill="#000000" fill-rule="nonzero" fill-opacity="1" /><path clip-path="url(#clip120)" d="M2993.93 2176.16 Q2997.29 2176.88 2999.16 2179.14 Q3001.06 2181.41 3001.06 2184.75 Q3001.06 2189.86 2997.54 2192.66 Q2994.02 2195.46 2987.54 2195.46 Q2985.37 2195.46 2983.05 2195.02 Q2980.76 2194.61 2978.31 2193.75 L2978.31 2189.24 Q2980.25 2190.37 2982.56 2190.95 Q2984.88 2191.53 2987.4 2191.53 Q2991.8 2191.53 2994.09 2189.79 Q2996.41 2188.06 2996.41 2184.75 Q2996.41 2181.69 2994.25 2179.98 Q2992.12 2178.24 2988.31 2178.24 L2984.28 2178.24 L2984.28 2174.4 L2988.49 2174.4 Q2991.94 2174.4 2993.77 2173.03 Q2995.6 2171.64 2995.6 2169.05 Q2995.6 2166.39 2993.7 2164.98 Q2991.82 2163.54 2988.31 2163.54 Q2986.38 2163.54 2984.19 2163.96 Q2981.99 2164.38 2979.35 2165.25 L2979.35 2161.09 Q2982.01 2160.35 2984.32 2159.98 Q2986.66 2159.61 2988.72 2159.61 Q2994.05 2159.61 2997.15 2162.04 Q3000.25 2164.44 3000.25 2168.57 Q3000.25 2171.44 2998.61 2173.43 Q2996.96 2175.39 2993.93 2176.16 Z" fill="#000000" fill-rule="nonzero" fill-opacity="1" /><path clip-path="url(#clip120)" d="M3013.95 2190.86 L3030.27 2190.86 L3030.27 2194.79 L3008.33 2194.79 L3008.33 2190.86 Q3010.99 2188.1 3015.57 2183.47 Q3020.18 2178.82 3021.36 2177.48 Q3023.61 2174.95 3024.49 2173.22 Q3025.39 2171.46 3025.39 2169.77 Q3025.39 2167.01 3023.44 2165.28 Q3021.52 2163.54 3018.42 2163.54 Q3016.22 2163.54 3013.77 2164.31 Q3011.34 2165.07 3008.56 2166.62 L3008.56 2161.9 Q3011.38 2160.76 3013.84 2160.19 Q3016.29 2159.61 3018.33 2159.61 Q3023.7 2159.61 3026.89 2162.29 Q3030.09 2164.98 3030.09 2169.47 Q3030.09 2171.6 3029.28 2173.52 Q3028.49 2175.42 3026.38 2178.01 Q3025.81 2178.68 3022.7 2181.9 Q3019.6 2185.09 3013.95 2190.86 Z" fill="#000000" fill-rule="nonzero" fill-opacity="1" /><path clip-path="url(#clip120)" d="M3050.09 2163.31 Q3046.48 2163.31 3044.65 2166.88 Q3042.84 2170.42 3042.84 2177.55 Q3042.84 2184.65 3044.65 2188.22 Q3046.48 2191.76 3050.09 2191.76 Q3053.72 2191.76 3055.53 2188.22 Q3057.36 2184.65 3057.36 2177.55 Q3057.36 2170.42 3055.53 2166.88 Q3053.72 2163.31 3050.09 2163.31 M3050.09 2159.61 Q3055.9 2159.61 3058.95 2164.21 Q3062.03 2168.8 3062.03 2177.55 Q3062.03 2186.27 3058.95 2190.88 Q3055.9 2195.46 3050.09 2195.46 Q3044.28 2195.46 3041.2 2190.88 Q3038.14 2186.27 3038.14 2177.55 Q3038.14 2168.8 3041.2 2164.21 Q3044.28 2159.61 3050.09 2159.61 Z" fill="#000000" fill-rule="nonzero" fill-opacity="1" /><path clip-path="url(#clip120)" d="M1374.44 2258.1 L1374.44 2338.72 L1391.38 2338.72 Q1412.84 2338.72 1422.77 2329 Q1432.77 2319.28 1432.77 2298.3 Q1432.77 2277.47 1422.77 2267.82 Q1412.84 2258.1 1391.38 2258.1 L1374.44 2258.1 M1360.41 2246.57 L1389.23 2246.57 Q1419.37 2246.57 1433.46 2259.14 Q1447.56 2271.64 1447.56 2298.3 Q1447.56 2325.11 1433.39 2337.68 Q1419.23 2350.25 1389.23 2350.25 L1360.41 2350.25 L1360.41 2246.57 Z" fill="#000000" fill-rule="nonzero" fill-opacity="1" /><path clip-path="url(#clip120)" d="M1469.37 2272.47 L1482.14 2272.47 L1482.14 2350.25 L1469.37 2350.25 L1469.37 2272.47 M1469.37 2242.19 L1482.14 2242.19 L1482.14 2258.37 L1469.37 2258.37 L1469.37 2242.19 Z" fill="#000000" fill-rule="nonzero" fill-opacity="1" /><path clip-path="url(#clip120)" d="M1569.44 2287.4 Q1574.23 2278.79 1580.89 2274.69 Q1587.56 2270.6 1596.59 2270.6 Q1608.74 2270.6 1615.34 2279.14 Q1621.94 2287.61 1621.94 2303.3 L1621.94 2350.25 L1609.09 2350.25 L1609.09 2303.72 Q1609.09 2292.54 1605.13 2287.12 Q1601.17 2281.71 1593.05 2281.71 Q1583.12 2281.71 1577.35 2288.3 Q1571.59 2294.9 1571.59 2306.29 L1571.59 2350.25 L1558.74 2350.25 L1558.74 2303.72 Q1558.74 2292.47 1554.78 2287.12 Q1550.82 2281.71 1542.56 2281.71 Q1532.77 2281.71 1527.01 2288.37 Q1521.24 2294.97 1521.24 2306.29 L1521.24 2350.25 L1508.39 2350.25 L1508.39 2272.47 L1521.24 2272.47 L1521.24 2284.55 Q1525.62 2277.4 1531.73 2274 Q1537.84 2270.6 1546.24 2270.6 Q1554.71 2270.6 1560.62 2274.9 Q1566.59 2279.21 1569.44 2287.4 Z" fill="#000000" fill-rule="nonzero" fill-opacity="1" /><path clip-path="url(#clip120)" d="M1713.95 2308.16 L1713.95 2314.41 L1655.2 2314.41 Q1656.03 2327.61 1663.12 2334.55 Q1670.27 2341.43 1682.98 2341.43 Q1690.34 2341.43 1697.21 2339.62 Q1704.16 2337.82 1710.96 2334.21 L1710.96 2346.29 Q1704.09 2349.21 1696.87 2350.73 Q1689.64 2352.26 1682.21 2352.26 Q1663.6 2352.26 1652.7 2341.43 Q1641.87 2330.6 1641.87 2312.12 Q1641.87 2293.03 1652.14 2281.85 Q1662.49 2270.6 1679.99 2270.6 Q1695.69 2270.6 1704.78 2280.73 Q1713.95 2290.8 1713.95 2308.16 M1701.17 2304.41 Q1701.03 2293.93 1695.27 2287.68 Q1689.57 2281.43 1680.13 2281.43 Q1669.44 2281.43 1662.98 2287.47 Q1656.59 2293.51 1655.62 2304.48 L1701.17 2304.41 Z" fill="#000000" fill-rule="nonzero" fill-opacity="1" /><path clip-path="url(#clip120)" d="M1799.57 2303.3 L1799.57 2350.25 L1786.8 2350.25 L1786.8 2303.72 Q1786.8 2292.68 1782.49 2287.19 Q1778.18 2281.71 1769.57 2281.71 Q1759.23 2281.71 1753.25 2288.3 Q1747.28 2294.9 1747.28 2306.29 L1747.28 2350.25 L1734.43 2350.25 L1734.43 2272.47 L1747.28 2272.47 L1747.28 2284.55 Q1751.87 2277.54 1758.05 2274.07 Q1764.3 2270.6 1772.42 2270.6 Q1785.82 2270.6 1792.7 2278.93 Q1799.57 2287.19 1799.57 2303.3 Z" fill="#000000" fill-rule="nonzero" fill-opacity="1" /><path clip-path="url(#clip120)" d="M1874.64 2274.76 L1874.64 2286.85 Q1869.23 2284.07 1863.39 2282.68 Q1857.56 2281.29 1851.31 2281.29 Q1841.8 2281.29 1837 2284.21 Q1832.28 2287.12 1832.28 2292.96 Q1832.28 2297.4 1835.68 2299.97 Q1839.09 2302.47 1849.36 2304.76 L1853.74 2305.73 Q1867.35 2308.65 1873.05 2314 Q1878.81 2319.28 1878.81 2328.79 Q1878.81 2339.62 1870.2 2345.94 Q1861.66 2352.26 1846.66 2352.26 Q1840.41 2352.26 1833.6 2351.01 Q1826.86 2349.83 1819.37 2347.4 L1819.37 2334.21 Q1826.45 2337.89 1833.32 2339.76 Q1840.2 2341.57 1846.93 2341.57 Q1855.96 2341.57 1860.82 2338.51 Q1865.68 2335.39 1865.68 2329.76 Q1865.68 2324.55 1862.14 2321.78 Q1858.67 2319 1846.8 2316.43 L1842.35 2315.39 Q1830.48 2312.89 1825.2 2307.75 Q1819.92 2302.54 1819.92 2293.51 Q1819.92 2282.54 1827.7 2276.57 Q1835.48 2270.6 1849.78 2270.6 Q1856.86 2270.6 1863.11 2271.64 Q1869.36 2272.68 1874.64 2274.76 Z" fill="#000000" fill-rule="nonzero" fill-opacity="1" /><path clip-path="url(#clip120)" d="M1899.16 2272.47 L1911.93 2272.47 L1911.93 2350.25 L1899.16 2350.25 L1899.16 2272.47 M1899.16 2242.19 L1911.93 2242.19 L1911.93 2258.37 L1899.16 2258.37 L1899.16 2242.19 Z" fill="#000000" fill-rule="nonzero" fill-opacity="1" /><path clip-path="url(#clip120)" d="M1968.81 2281.43 Q1958.53 2281.43 1952.56 2289.48 Q1946.59 2297.47 1946.59 2311.43 Q1946.59 2325.39 1952.49 2333.44 Q1958.46 2341.43 1968.81 2341.43 Q1979.02 2341.43 1984.99 2333.37 Q1990.96 2325.32 1990.96 2311.43 Q1990.96 2297.61 1984.99 2289.55 Q1979.02 2281.43 1968.81 2281.43 M1968.81 2270.6 Q1985.48 2270.6 1994.99 2281.43 Q2004.5 2292.26 2004.5 2311.43 Q2004.5 2330.53 1994.99 2341.43 Q1985.48 2352.26 1968.81 2352.26 Q1952.07 2352.26 1942.56 2341.43 Q1933.11 2330.53 1933.11 2311.43 Q1933.11 2292.26 1942.56 2281.43 Q1952.07 2270.6 1968.81 2270.6 Z" fill="#000000" fill-rule="nonzero" fill-opacity="1" /><path clip-path="url(#clip120)" d="M2090.34 2303.3 L2090.34 2350.25 L2077.56 2350.25 L2077.56 2303.72 Q2077.56 2292.68 2073.25 2287.19 Q2068.95 2281.71 2060.34 2281.71 Q2049.99 2281.71 2044.02 2288.3 Q2038.04 2294.9 2038.04 2306.29 L2038.04 2350.25 L2025.2 2350.25 L2025.2 2272.47 L2038.04 2272.47 L2038.04 2284.55 Q2042.63 2277.54 2048.81 2274.07 Q2055.06 2270.6 2063.18 2270.6 Q2076.59 2270.6 2083.46 2278.93 Q2090.34 2287.19 2090.34 2303.3 Z" fill="#000000" fill-rule="nonzero" fill-opacity="1" /><polyline clip-path="url(#clip120)" style="stroke:#000000; stroke-linecap:round; stroke-linejoin:round; stroke-width:4; stroke-opacity:1; fill:none" points="297.989,2125.99 297.989,131.032 "/>
<polyline clip-path="url(#clip120)" style="stroke:#000000; stroke-linecap:round; stroke-linejoin:round; stroke-width:4; stroke-opacity:1; fill:none" points="297.989,1778.6 316.887,1778.6 "/>
<polyline clip-path="url(#clip120)" style="stroke:#000000; stroke-linecap:round; stroke-linejoin:round; stroke-width:4; stroke-opacity:1; fill:none" points="297.989,1425.41 316.887,1425.41 "/>
<polyline clip-path="url(#clip120)" style="stroke:#000000; stroke-linecap:round; stroke-linejoin:round; stroke-width:4; stroke-opacity:1; fill:none" points="297.989,1072.22 316.887,1072.22 "/>
<polyline clip-path="url(#clip120)" style="stroke:#000000; stroke-linecap:round; stroke-linejoin:round; stroke-width:4; stroke-opacity:1; fill:none" points="297.989,719.036 316.887,719.036 "/>
<polyline clip-path="url(#clip120)" style="stroke:#000000; stroke-linecap:round; stroke-linejoin:round; stroke-width:4; stroke-opacity:1; fill:none" points="297.989,365.848 316.887,365.848 "/>
<path clip-path="url(#clip120)" d="M202.906 1791.94 L219.225 1791.94 L219.225 1795.88 L197.281 1795.88 L197.281 1791.94 Q199.943 1789.19 204.526 1784.56 Q209.133 1779.91 210.313 1778.56 Q212.559 1776.04 213.438 1774.31 Q214.341 1772.55 214.341 1770.86 Q214.341 1768.1 212.397 1766.37 Q210.475 1764.63 207.373 1764.63 Q205.174 1764.63 202.721 1765.39 Q200.29 1766.16 197.512 1767.71 L197.512 1762.99 Q200.336 1761.85 202.79 1761.27 Q205.244 1760.69 207.281 1760.69 Q212.651 1760.69 215.846 1763.38 Q219.04 1766.06 219.04 1770.56 Q219.04 1772.69 218.23 1774.61 Q217.443 1776.5 215.336 1779.1 Q214.758 1779.77 211.656 1782.99 Q208.554 1786.18 202.906 1791.94 Z" fill="#000000" fill-rule="nonzero" fill-opacity="1" /><path clip-path="url(#clip120)" d="M229.086 1761.32 L247.443 1761.32 L247.443 1765.25 L233.369 1765.25 L233.369 1773.73 Q234.387 1773.38 235.406 1773.22 Q236.424 1773.03 237.443 1773.03 Q243.23 1773.03 246.609 1776.2 Q249.989 1779.38 249.989 1784.79 Q249.989 1790.37 246.517 1793.47 Q243.045 1796.55 236.725 1796.55 Q234.549 1796.55 232.281 1796.18 Q230.035 1795.81 227.628 1795.07 L227.628 1790.37 Q229.711 1791.5 231.934 1792.06 Q234.156 1792.62 236.633 1792.62 Q240.637 1792.62 242.975 1790.51 Q245.313 1788.4 245.313 1784.79 Q245.313 1781.18 242.975 1779.07 Q240.637 1776.97 236.633 1776.97 Q234.758 1776.97 232.883 1777.38 Q231.031 1777.8 229.086 1778.68 L229.086 1761.32 Z" fill="#000000" fill-rule="nonzero" fill-opacity="1" /><path clip-path="url(#clip120)" d="M212.049 1424.06 Q215.406 1424.78 217.281 1427.04 Q219.179 1429.31 219.179 1432.65 Q219.179 1437.76 215.66 1440.56 Q212.142 1443.36 205.661 1443.36 Q203.485 1443.36 201.17 1442.92 Q198.878 1442.51 196.424 1441.65 L196.424 1437.14 Q198.369 1438.27 200.684 1438.85 Q202.999 1439.43 205.522 1439.43 Q209.92 1439.43 212.211 1437.69 Q214.526 1435.96 214.526 1432.65 Q214.526 1429.59 212.373 1427.88 Q210.244 1426.14 206.424 1426.14 L202.397 1426.14 L202.397 1422.3 L206.61 1422.3 Q210.059 1422.3 211.887 1420.93 Q213.716 1419.54 213.716 1416.95 Q213.716 1414.29 211.818 1412.88 Q209.943 1411.44 206.424 1411.44 Q204.503 1411.44 202.304 1411.86 Q200.105 1412.28 197.466 1413.15 L197.466 1408.99 Q200.128 1408.25 202.443 1407.88 Q204.781 1407.51 206.841 1407.51 Q212.165 1407.51 215.267 1409.94 Q218.369 1412.34 218.369 1416.47 Q218.369 1419.34 216.725 1421.33 Q215.082 1423.29 212.049 1424.06 Z" fill="#000000" fill-rule="nonzero" fill-opacity="1" /><path clip-path="url(#clip120)" d="M238.045 1411.21 Q234.434 1411.21 232.605 1414.78 Q230.799 1418.32 230.799 1425.45 Q230.799 1432.55 232.605 1436.12 Q234.434 1439.66 238.045 1439.66 Q241.679 1439.66 243.484 1436.12 Q245.313 1432.55 245.313 1425.45 Q245.313 1418.32 243.484 1414.78 Q241.679 1411.21 238.045 1411.21 M238.045 1407.51 Q243.855 1407.51 246.91 1412.11 Q249.989 1416.7 249.989 1425.45 Q249.989 1434.17 246.91 1438.78 Q243.855 1443.36 238.045 1443.36 Q232.234 1443.36 229.156 1438.78 Q226.1 1434.17 226.1 1425.45 Q226.1 1416.7 229.156 1412.11 Q232.234 1407.51 238.045 1407.51 Z" fill="#000000" fill-rule="nonzero" fill-opacity="1" /><path clip-path="url(#clip120)" d="M213.045 1070.87 Q216.401 1071.59 218.276 1073.86 Q220.174 1076.12 220.174 1079.46 Q220.174 1084.57 216.656 1087.37 Q213.137 1090.18 206.656 1090.18 Q204.48 1090.18 202.165 1089.74 Q199.874 1089.32 197.42 1088.46 L197.42 1083.95 Q199.364 1085.08 201.679 1085.66 Q203.994 1086.24 206.517 1086.24 Q210.915 1086.24 213.207 1084.5 Q215.522 1082.77 215.522 1079.46 Q215.522 1076.4 213.369 1074.69 Q211.239 1072.95 207.42 1072.95 L203.392 1072.95 L203.392 1069.11 L207.605 1069.11 Q211.054 1069.11 212.883 1067.74 Q214.711 1066.36 214.711 1063.76 Q214.711 1061.1 212.813 1059.69 Q210.938 1058.25 207.42 1058.25 Q205.499 1058.25 203.299 1058.67 Q201.1 1059.09 198.462 1059.97 L198.462 1055.8 Q201.124 1055.06 203.438 1054.69 Q205.776 1054.32 207.836 1054.32 Q213.16 1054.32 216.262 1056.75 Q219.364 1059.16 219.364 1063.28 Q219.364 1066.15 217.721 1068.14 Q216.077 1070.11 213.045 1070.87 Z" fill="#000000" fill-rule="nonzero" fill-opacity="1" /><path clip-path="url(#clip120)" d="M229.086 1054.94 L247.443 1054.94 L247.443 1058.88 L233.369 1058.88 L233.369 1067.35 Q234.387 1067 235.406 1066.84 Q236.424 1066.66 237.443 1066.66 Q243.23 1066.66 246.609 1069.83 Q249.989 1073 249.989 1078.42 Q249.989 1083.99 246.517 1087.1 Q243.045 1090.18 236.725 1090.18 Q234.549 1090.18 232.281 1089.8 Q230.035 1089.43 227.628 1088.69 L227.628 1083.99 Q229.711 1085.13 231.934 1085.68 Q234.156 1086.24 236.633 1086.24 Q240.637 1086.24 242.975 1084.13 Q245.313 1082.03 245.313 1078.42 Q245.313 1074.8 242.975 1072.7 Q240.637 1070.59 236.633 1070.59 Q234.758 1070.59 232.883 1071.01 Q231.031 1071.43 229.086 1072.3 L229.086 1054.94 Z" fill="#000000" fill-rule="nonzero" fill-opacity="1" /><path clip-path="url(#clip120)" d="M210.73 705.83 L198.924 724.279 L210.73 724.279 L210.73 705.83 M209.503 701.756 L215.383 701.756 L215.383 724.279 L220.313 724.279 L220.313 728.168 L215.383 728.168 L215.383 736.316 L210.73 736.316 L210.73 728.168 L195.128 728.168 L195.128 723.654 L209.503 701.756 Z" fill="#000000" fill-rule="nonzero" fill-opacity="1" /><path clip-path="url(#clip120)" d="M238.045 704.835 Q234.434 704.835 232.605 708.4 Q230.799 711.941 230.799 719.071 Q230.799 726.177 232.605 729.742 Q234.434 733.284 238.045 733.284 Q241.679 733.284 243.484 729.742 Q245.313 726.177 245.313 719.071 Q245.313 711.941 243.484 708.4 Q241.679 704.835 238.045 704.835 M238.045 701.131 Q243.855 701.131 246.91 705.738 Q249.989 710.321 249.989 719.071 Q249.989 727.798 246.91 732.404 Q243.855 736.987 238.045 736.987 Q232.234 736.987 229.156 732.404 Q226.1 727.798 226.1 719.071 Q226.1 710.321 229.156 705.738 Q232.234 701.131 238.045 701.131 Z" fill="#000000" fill-rule="nonzero" fill-opacity="1" /><path clip-path="url(#clip120)" d="M211.725 352.642 L199.92 371.091 L211.725 371.091 L211.725 352.642 M210.498 348.568 L216.378 348.568 L216.378 371.091 L221.309 371.091 L221.309 374.98 L216.378 374.98 L216.378 383.128 L211.725 383.128 L211.725 374.98 L196.124 374.98 L196.124 370.466 L210.498 348.568 Z" fill="#000000" fill-rule="nonzero" fill-opacity="1" /><path clip-path="url(#clip120)" d="M229.086 348.568 L247.443 348.568 L247.443 352.503 L233.369 352.503 L233.369 360.976 Q234.387 360.628 235.406 360.466 Q236.424 360.281 237.443 360.281 Q243.23 360.281 246.609 363.452 Q249.989 366.624 249.989 372.04 Q249.989 377.619 246.517 380.721 Q243.045 383.8 236.725 383.8 Q234.549 383.8 232.281 383.429 Q230.035 383.059 227.628 382.318 L227.628 377.619 Q229.711 378.753 231.934 379.309 Q234.156 379.864 236.633 379.864 Q240.637 379.864 242.975 377.758 Q245.313 375.651 245.313 372.04 Q245.313 368.429 242.975 366.323 Q240.637 364.216 236.633 364.216 Q234.758 364.216 232.883 364.633 Q231.031 365.05 229.086 365.929 L229.086 348.568 Z" fill="#000000" fill-rule="nonzero" fill-opacity="1" /><path clip-path="url(#clip120)" d="M12.3442 1639.59 L12.3442 1574.03 L24.1497 1574.03 L24.1497 1625.56 L54.844 1625.56 L54.844 1576.18 L66.6495 1576.18 L66.6495 1625.56 L104.219 1625.56 L104.219 1572.78 L116.024 1572.78 L116.024 1639.59 L12.3442 1639.59 Z" fill="#000000" fill-rule="nonzero" fill-opacity="1" /><path clip-path="url(#clip120)" d="M15.7469 1487.57 L29.4274 1487.57 Q25.608 1495.56 23.733 1502.64 Q21.858 1509.73 21.858 1516.32 Q21.858 1527.78 26.3024 1534.03 Q30.7469 1540.21 38.9413 1540.21 Q45.8162 1540.21 49.3579 1536.11 Q52.8301 1531.95 54.9828 1520.42 L56.719 1511.95 Q59.705 1496.25 67.2745 1488.82 Q74.7744 1481.32 87.4132 1481.32 Q102.483 1481.32 110.26 1491.46 Q118.038 1501.53 118.038 1521.04 Q118.038 1528.41 116.371 1536.74 Q114.705 1545 111.441 1553.89 L96.9965 1553.89 Q101.788 1545.35 104.219 1537.16 Q106.649 1528.96 106.649 1521.04 Q106.649 1509.03 101.927 1502.5 Q97.2048 1495.98 88.4549 1495.98 Q80.816 1495.98 76.5105 1500.7 Q72.205 1505.35 70.0522 1516.04 L68.3856 1524.59 Q65.2606 1540.28 58.5939 1547.29 Q51.9273 1554.31 40.0524 1554.31 Q26.3024 1554.31 18.3858 1544.66 Q10.4692 1534.93 10.4692 1517.92 Q10.4692 1510.63 11.7886 1503.06 Q13.1081 1495.49 15.7469 1487.57 Z" fill="#000000" fill-rule="nonzero" fill-opacity="1" /><path clip-path="url(#clip120)" d="M15.7469 1397.3 L29.4274 1397.3 Q25.608 1405.28 23.733 1412.36 Q21.858 1419.45 21.858 1426.05 Q21.858 1437.5 26.3024 1443.75 Q30.7469 1449.93 38.9413 1449.93 Q45.8162 1449.93 49.3579 1445.84 Q52.8301 1441.67 54.9828 1430.14 L56.719 1421.67 Q59.705 1405.98 67.2745 1398.55 Q74.7744 1391.05 87.4132 1391.05 Q102.483 1391.05 110.26 1401.18 Q118.038 1411.25 118.038 1430.77 Q118.038 1438.13 116.371 1446.46 Q114.705 1454.73 111.441 1463.61 L96.9965 1463.61 Q101.788 1455.07 104.219 1446.88 Q106.649 1438.68 106.649 1430.77 Q106.649 1418.75 101.927 1412.23 Q97.2048 1405.7 88.4549 1405.7 Q80.816 1405.7 76.5105 1410.42 Q72.205 1415.07 70.0522 1425.77 L68.3856 1434.31 Q65.2606 1450 58.5939 1457.02 Q51.9273 1464.03 40.0524 1464.03 Q26.3024 1464.03 18.3858 1454.38 Q10.4692 1444.66 10.4692 1427.64 Q10.4692 1420.35 11.7886 1412.78 Q13.1081 1405.21 15.7469 1397.3 Z" fill="#000000" fill-rule="nonzero" fill-opacity="1" /><path clip-path="url(#clip120)" d="M8.1081 1293.82 Q24.0802 1303.13 39.7052 1307.64 Q55.3301 1312.16 71.3717 1312.16 Q87.4132 1312.16 103.177 1307.64 Q118.871 1303.06 134.774 1293.82 L134.774 1304.93 Q118.455 1315.35 102.691 1320.56 Q86.9271 1325.7 71.3717 1325.7 Q55.8856 1325.7 40.1913 1320.56 Q24.4969 1315.42 8.1081 1304.93 L8.1081 1293.82 Z" fill="#000000" fill-rule="nonzero" fill-opacity="1" /><path clip-path="url(#clip120)" d="M26.858 1217.02 L53.7329 1217.02 L53.7329 1178.34 L65.5383 1178.34 L65.5383 1217.02 L92.4132 1217.02 L92.4132 1228.69 L65.5383 1228.69 L65.5383 1267.37 L53.7329 1267.37 L53.7329 1228.69 L26.858 1228.69 L26.858 1217.02 M104.219 1267.37 L104.219 1178.34 L116.024 1178.34 L116.024 1267.37 L104.219 1267.37 Z" fill="#000000" fill-rule="nonzero" fill-opacity="1" /><path clip-path="url(#clip120)" d="M113.871 1147.64 L101.094 1147.64 Q103.594 1142.37 104.913 1136.95 Q106.233 1131.53 106.233 1126.32 Q106.233 1112.44 96.9271 1105.14 Q87.5521 1097.78 68.5244 1096.74 Q74.4966 1100.77 77.6911 1106.95 Q80.8855 1113.13 80.8855 1120.63 Q80.8855 1136.19 71.5105 1145.28 Q62.0661 1154.31 45.7468 1154.31 Q29.7747 1154.31 20.1219 1144.87 Q10.4692 1135.42 10.4692 1119.73 Q10.4692 1101.74 24.2886 1092.3 Q38.0385 1082.78 64.2884 1082.78 Q88.8021 1082.78 103.455 1094.45 Q118.038 1106.05 118.038 1125.7 Q118.038 1130.98 116.996 1136.39 Q115.955 1141.81 113.871 1147.64 M69.9133 1119.73 Q69.9133 1110.28 63.455 1104.8 Q56.9967 1099.24 45.7468 1099.24 Q34.5663 1099.24 28.108 1104.8 Q21.5803 1110.28 21.5803 1119.73 Q21.5803 1129.17 28.108 1134.73 Q34.5663 1140.21 45.7468 1140.21 Q56.9967 1140.21 63.455 1134.73 Q69.9133 1129.17 69.9133 1119.73 Z" fill="#000000" fill-rule="nonzero" fill-opacity="1" /><path clip-path="url(#clip120)" d="M12.3442 1057.44 L12.3442 1002.37 L24.1497 1002.37 L24.1497 1044.59 L49.5662 1044.59 Q48.5246 1041.53 48.0384 1038.48 Q47.4829 1035.42 47.4829 1032.37 Q47.4829 1015.01 56.9967 1004.87 Q66.5106 994.728 82.7605 994.728 Q99.4965 994.728 108.802 1005.14 Q118.038 1015.56 118.038 1034.52 Q118.038 1041.05 116.927 1047.85 Q115.816 1054.59 113.594 1061.81 L99.4965 1061.81 Q102.899 1055.56 104.566 1048.89 Q106.233 1042.23 106.233 1034.8 Q106.233 1022.78 99.9132 1015.77 Q93.5938 1008.76 82.7605 1008.76 Q71.9272 1008.76 65.6078 1015.77 Q59.2884 1022.78 59.2884 1034.8 Q59.2884 1040.42 60.5384 1046.05 Q61.7884 1051.6 64.4272 1057.44 L12.3442 1057.44 Z" fill="#000000" fill-rule="nonzero" fill-opacity="1" /><path clip-path="url(#clip120)" d="M70.3994 878.895 Q70.3994 884.937 75.5383 888.409 Q80.6772 891.812 89.8438 891.812 Q98.8715 891.812 104.08 888.409 Q109.219 884.937 109.219 878.895 Q109.219 872.993 104.08 869.59 Q98.8715 866.118 89.8438 866.118 Q80.7466 866.118 75.6077 869.59 Q70.3994 872.993 70.3994 878.895 M61.58 878.895 Q61.58 867.923 69.2189 861.465 Q76.8577 855.006 89.8438 855.006 Q102.83 855.006 110.469 861.534 Q118.038 867.993 118.038 878.895 Q118.038 890.006 110.469 896.465 Q102.83 902.923 89.8438 902.923 Q76.7883 902.923 69.2189 896.465 Q61.58 889.937 61.58 878.895 M19.2886 950.562 Q19.2886 956.534 24.4969 960.006 Q29.6358 963.409 38.6635 963.409 Q47.8301 963.409 52.969 960.006 Q58.1078 956.603 58.1078 950.562 Q58.1078 944.52 52.969 941.117 Q47.8301 937.645 38.6635 937.645 Q29.7052 937.645 24.4969 941.117 Q19.2886 944.589 19.2886 950.562 M10.4692 887.854 L10.4692 876.742 L118.038 941.603 L118.038 952.714 L10.4692 887.854 M10.4692 950.562 Q10.4692 939.589 18.108 933.062 Q25.6775 926.534 38.6635 926.534 Q51.7884 926.534 59.3578 933.062 Q66.9272 939.52 66.9272 950.562 Q66.9272 961.603 59.3578 968.061 Q51.719 974.45 38.6635 974.45 Q25.7469 974.45 18.108 967.992 Q10.4692 961.534 10.4692 950.562 Z" fill="#000000" fill-rule="nonzero" fill-opacity="1" /><path clip-path="url(#clip120)" d="M20.3303 710.354 L35.1218 710.354 Q28.5247 717.438 25.2608 725.493 Q21.9969 733.479 21.9969 742.507 Q21.9969 760.285 32.8996 769.729 Q43.7329 779.174 64.2884 779.174 Q84.7744 779.174 95.6771 769.729 Q106.51 760.285 106.51 742.507 Q106.51 733.479 103.246 725.493 Q99.9826 717.438 93.3854 710.354 L108.038 710.354 Q113.038 717.716 115.538 725.979 Q118.038 734.174 118.038 743.34 Q118.038 766.882 103.663 780.424 Q89.2188 793.965 64.2884 793.965 Q39.2885 793.965 24.9136 780.424 Q10.4692 766.882 10.4692 743.34 Q10.4692 734.035 12.9692 725.841 Q15.3997 717.577 20.3303 710.354 Z" fill="#000000" fill-rule="nonzero" fill-opacity="1" /><path clip-path="url(#clip120)" d="M12.3442 688.688 L12.3442 674.66 L116.024 674.66 L116.024 688.688 L12.3442 688.688 Z" fill="#000000" fill-rule="nonzero" fill-opacity="1" /><path clip-path="url(#clip120)" d="M8.1081 649.313 L8.1081 638.202 Q24.4969 627.785 40.1913 622.647 Q55.8856 617.438 71.3717 617.438 Q86.9271 617.438 102.691 622.647 Q118.455 627.785 134.774 638.202 L134.774 649.313 Q118.871 640.077 103.177 635.563 Q87.4132 630.98 71.3717 630.98 Q55.3301 630.98 39.7052 635.563 Q24.0802 640.077 8.1081 649.313 Z" fill="#000000" fill-rule="nonzero" fill-opacity="1" /><path clip-path="url(#clip120)" d="M1234.3 14.0809 L1234.3 22.0612 Q1229.64 19.8332 1225.51 18.7395 Q1221.38 17.6457 1217.53 17.6457 Q1210.85 17.6457 1207.2 20.2383 Q1203.6 22.8309 1203.6 27.611 Q1203.6 31.6214 1205.99 33.6873 Q1208.42 35.7128 1215.14 36.9686 L1220.08 37.9813 Q1229.24 39.7232 1233.57 44.1387 Q1237.95 48.5136 1237.95 55.8863 Q1237.95 64.6767 1232.03 69.2137 Q1226.16 73.7508 1214.78 73.7508 Q1210.48 73.7508 1205.62 72.7785 Q1200.8 71.8063 1195.62 69.9024 L1195.62 61.4765 Q1200.6 64.2716 1205.38 65.6895 Q1210.16 67.1073 1214.78 67.1073 Q1221.78 67.1073 1225.59 64.3527 Q1229.4 61.598 1229.4 56.4939 Q1229.4 52.0379 1226.65 49.5264 Q1223.93 47.0148 1217.69 45.759 L1212.71 44.7868 Q1203.56 42.9639 1199.46 39.075 Q1195.37 35.1862 1195.37 28.2591 Q1195.37 20.2383 1201 15.6203 Q1206.67 11.0023 1216.6 11.0023 Q1220.85 11.0023 1225.27 11.7719 Q1229.68 12.5416 1234.3 14.0809 Z" fill="#000000" fill-rule="nonzero" fill-opacity="1" /><path clip-path="url(#clip120)" d="M1257.76 14.324 L1257.76 27.2059 L1273.11 27.2059 L1273.11 32.9987 L1257.76 32.9987 L1257.76 57.6282 Q1257.76 63.1779 1259.26 64.7578 Q1260.79 66.3376 1265.45 66.3376 L1273.11 66.3376 L1273.11 72.576 L1265.45 72.576 Q1256.82 72.576 1253.54 69.3758 Q1250.26 66.1351 1250.26 57.6282 L1250.26 32.9987 L1244.79 32.9987 L1244.79 27.2059 L1250.26 27.2059 L1250.26 14.324 L1257.76 14.324 Z" fill="#000000" fill-rule="nonzero" fill-opacity="1" /><path clip-path="url(#clip120)" d="M1303.53 49.7694 Q1294.5 49.7694 1291.01 51.8354 Q1287.53 53.9013 1287.53 58.8839 Q1287.53 62.8538 1290.12 65.2034 Q1292.76 67.5124 1297.25 67.5124 Q1303.45 67.5124 1307.18 63.1374 Q1310.94 58.7219 1310.94 51.4303 L1310.94 49.7694 L1303.53 49.7694 M1318.4 46.6907 L1318.4 72.576 L1310.94 72.576 L1310.94 65.6895 Q1308.39 69.8214 1304.58 71.8063 Q1300.78 73.7508 1295.27 73.7508 Q1288.3 73.7508 1284.17 69.8619 Q1280.08 65.9325 1280.08 59.3701 Q1280.08 51.7138 1285.18 47.825 Q1290.33 43.9361 1300.49 43.9361 L1310.94 43.9361 L1310.94 43.2069 Q1310.94 38.0623 1307.54 35.2672 Q1304.18 32.4315 1298.06 32.4315 Q1294.17 32.4315 1290.49 33.3632 Q1286.8 34.295 1283.4 36.1584 L1283.4 29.2718 Q1287.49 27.692 1291.34 26.9223 Q1295.19 26.1121 1298.83 26.1121 Q1308.68 26.1121 1313.54 31.2163 Q1318.4 36.3204 1318.4 46.6907 Z" fill="#000000" fill-rule="nonzero" fill-opacity="1" /><path clip-path="url(#clip120)" d="M1371.47 45.1919 L1371.47 72.576 L1364.01 72.576 L1364.01 45.4349 Q1364.01 38.994 1361.5 35.7938 Q1358.99 32.5936 1353.97 32.5936 Q1347.93 32.5936 1344.45 36.4419 Q1340.96 40.2903 1340.96 46.9338 L1340.96 72.576 L1333.47 72.576 L1333.47 27.2059 L1340.96 27.2059 L1340.96 34.2544 Q1343.64 30.163 1347.24 28.1376 Q1350.89 26.1121 1355.63 26.1121 Q1363.44 26.1121 1367.45 30.9732 Q1371.47 35.7938 1371.47 45.1919 Z" fill="#000000" fill-rule="nonzero" fill-opacity="1" /><path clip-path="url(#clip120)" d="M1416.19 34.0924 L1416.19 9.54393 L1423.64 9.54393 L1423.64 72.576 L1416.19 72.576 L1416.19 65.7705 Q1413.84 69.8214 1410.23 71.8063 Q1406.67 73.7508 1401.64 73.7508 Q1393.42 73.7508 1388.24 67.1883 Q1383.09 60.6258 1383.09 49.9314 Q1383.09 39.2371 1388.24 32.6746 Q1393.42 26.1121 1401.64 26.1121 Q1406.67 26.1121 1410.23 28.0971 Q1413.84 30.0415 1416.19 34.0924 M1390.79 49.9314 Q1390.79 58.1548 1394.15 62.8538 Q1397.55 67.5124 1403.47 67.5124 Q1409.38 67.5124 1412.78 62.8538 Q1416.19 58.1548 1416.19 49.9314 Q1416.19 41.7081 1412.78 37.0496 Q1409.38 32.3505 1403.47 32.3505 Q1397.55 32.3505 1394.15 37.0496 Q1390.79 41.7081 1390.79 49.9314 Z" fill="#000000" fill-rule="nonzero" fill-opacity="1" /><path clip-path="url(#clip120)" d="M1459.61 49.7694 Q1450.58 49.7694 1447.1 51.8354 Q1443.61 53.9013 1443.61 58.8839 Q1443.61 62.8538 1446.2 65.2034 Q1448.84 67.5124 1453.33 67.5124 Q1459.53 67.5124 1463.26 63.1374 Q1467.03 58.7219 1467.03 51.4303 L1467.03 49.7694 L1459.61 49.7694 M1474.48 46.6907 L1474.48 72.576 L1467.03 72.576 L1467.03 65.6895 Q1464.47 69.8214 1460.67 71.8063 Q1456.86 73.7508 1451.35 73.7508 Q1444.38 73.7508 1440.25 69.8619 Q1436.16 65.9325 1436.16 59.3701 Q1436.16 51.7138 1441.26 47.825 Q1446.41 43.9361 1456.57 43.9361 L1467.03 43.9361 L1467.03 43.2069 Q1467.03 38.0623 1463.62 35.2672 Q1460.26 32.4315 1454.14 32.4315 Q1450.26 32.4315 1446.57 33.3632 Q1442.88 34.295 1439.48 36.1584 L1439.48 29.2718 Q1443.57 27.692 1447.42 26.9223 Q1451.27 26.1121 1454.91 26.1121 Q1464.76 26.1121 1469.62 31.2163 Q1474.48 36.3204 1474.48 46.6907 Z" fill="#000000" fill-rule="nonzero" fill-opacity="1" /><path clip-path="url(#clip120)" d="M1516.12 34.1734 Q1514.87 33.4443 1513.37 33.1202 Q1511.91 32.7556 1510.13 32.7556 Q1503.81 32.7556 1500.41 36.8875 Q1497.04 40.9789 1497.04 48.6757 L1497.04 72.576 L1489.55 72.576 L1489.55 27.2059 L1497.04 27.2059 L1497.04 34.2544 Q1499.39 30.1225 1503.16 28.1376 Q1506.93 26.1121 1512.32 26.1121 Q1513.08 26.1121 1514.02 26.2337 Q1514.95 26.3147 1516.08 26.5172 L1516.12 34.1734 Z" fill="#000000" fill-rule="nonzero" fill-opacity="1" /><path clip-path="url(#clip120)" d="M1552.34 34.0924 L1552.34 9.54393 L1559.79 9.54393 L1559.79 72.576 L1552.34 72.576 L1552.34 65.7705 Q1549.99 69.8214 1546.38 71.8063 Q1542.82 73.7508 1537.8 73.7508 Q1529.57 73.7508 1524.39 67.1883 Q1519.24 60.6258 1519.24 49.9314 Q1519.24 39.2371 1524.39 32.6746 Q1529.57 26.1121 1537.8 26.1121 Q1542.82 26.1121 1546.38 28.0971 Q1549.99 30.0415 1552.34 34.0924 M1526.94 49.9314 Q1526.94 58.1548 1530.3 62.8538 Q1533.7 67.5124 1539.62 67.5124 Q1545.53 67.5124 1548.94 62.8538 Q1552.34 58.1548 1552.34 49.9314 Q1552.34 41.7081 1548.94 37.0496 Q1545.53 32.3505 1539.62 32.3505 Q1533.7 32.3505 1530.3 37.0496 Q1526.94 41.7081 1526.94 49.9314 Z" fill="#000000" fill-rule="nonzero" fill-opacity="1" /><path clip-path="url(#clip120)" d="M1643.08 63.9476 L1643.08 47.7034 L1629.71 47.7034 L1629.71 40.9789 L1651.18 40.9789 L1651.18 66.9452 Q1646.44 70.3075 1640.73 72.0494 Q1635.02 73.7508 1628.54 73.7508 Q1614.36 73.7508 1606.34 65.4869 Q1598.36 57.1826 1598.36 42.3968 Q1598.36 27.5705 1606.34 19.3066 Q1614.36 11.0023 1628.54 11.0023 Q1634.45 11.0023 1639.76 12.4606 Q1645.1 13.9189 1649.6 16.7545 L1649.6 25.464 Q1645.06 21.6156 1639.96 19.6712 Q1634.86 17.7268 1629.22 17.7268 Q1618.12 17.7268 1612.53 23.9246 Q1606.98 30.1225 1606.98 42.3968 Q1606.98 54.6305 1612.53 60.8284 Q1618.12 67.0263 1629.22 67.0263 Q1633.56 67.0263 1636.96 66.2971 Q1640.36 65.5274 1643.08 63.9476 Z" fill="#000000" fill-rule="nonzero" fill-opacity="1" /><path clip-path="url(#clip120)" d="M1686.42 49.7694 Q1677.39 49.7694 1673.91 51.8354 Q1670.42 53.9013 1670.42 58.8839 Q1670.42 62.8538 1673.01 65.2034 Q1675.65 67.5124 1680.14 67.5124 Q1686.34 67.5124 1690.07 63.1374 Q1693.84 58.7219 1693.84 51.4303 L1693.84 49.7694 L1686.42 49.7694 M1701.29 46.6907 L1701.29 72.576 L1693.84 72.576 L1693.84 65.6895 Q1691.28 69.8214 1687.48 71.8063 Q1683.67 73.7508 1678.16 73.7508 Q1671.19 73.7508 1667.06 69.8619 Q1662.97 65.9325 1662.97 59.3701 Q1662.97 51.7138 1668.07 47.825 Q1673.22 43.9361 1683.38 43.9361 L1693.84 43.9361 L1693.84 43.2069 Q1693.84 38.0623 1690.43 35.2672 Q1687.07 32.4315 1680.95 32.4315 Q1677.07 32.4315 1673.38 33.3632 Q1669.69 34.295 1666.29 36.1584 L1666.29 29.2718 Q1670.38 27.692 1674.23 26.9223 Q1678.08 26.1121 1681.72 26.1121 Q1691.57 26.1121 1696.43 31.2163 Q1701.29 36.3204 1701.29 46.6907 Z" fill="#000000" fill-rule="nonzero" fill-opacity="1" /><path clip-path="url(#clip120)" d="M1715.87 54.671 L1715.87 27.2059 L1723.33 27.2059 L1723.33 54.3874 Q1723.33 60.8284 1725.84 64.0691 Q1728.35 67.2693 1733.37 67.2693 Q1739.41 67.2693 1742.89 63.421 Q1746.42 59.5726 1746.42 52.9291 L1746.42 27.2059 L1753.87 27.2059 L1753.87 72.576 L1746.42 72.576 L1746.42 65.6084 Q1743.7 69.7404 1740.1 71.7658 Q1736.53 73.7508 1731.79 73.7508 Q1723.97 73.7508 1719.92 68.8897 Q1715.87 64.0286 1715.87 54.671 M1734.63 26.1121 L1734.63 26.1121 Z" fill="#000000" fill-rule="nonzero" fill-opacity="1" /><path clip-path="url(#clip120)" d="M1798.15 28.5427 L1798.15 35.5912 Q1794.99 33.9709 1791.58 33.1607 Q1788.18 32.3505 1784.54 32.3505 Q1778.99 32.3505 1776.19 34.0519 Q1773.44 35.7533 1773.44 39.156 Q1773.44 41.7486 1775.42 43.2475 Q1777.41 44.7058 1783.4 46.0426 L1785.95 46.6097 Q1793.89 48.3111 1797.22 51.4303 Q1800.58 54.509 1800.58 60.0587 Q1800.58 66.3781 1795.55 70.0644 Q1790.57 73.7508 1781.82 73.7508 Q1778.18 73.7508 1774.21 73.0216 Q1770.28 72.3329 1765.9 70.9151 L1765.9 63.2184 Q1770.03 65.3654 1774.04 66.4591 Q1778.05 67.5124 1781.98 67.5124 Q1787.25 67.5124 1790.09 65.73 Q1792.92 63.9071 1792.92 60.6258 Q1792.92 57.5877 1790.86 55.9673 Q1788.83 54.3469 1781.9 52.8481 L1779.31 52.2405 Q1772.38 50.7821 1769.3 47.7845 Q1766.23 44.7463 1766.23 39.4801 Q1766.23 33.0797 1770.76 29.5959 Q1775.3 26.1121 1783.64 26.1121 Q1787.78 26.1121 1791.42 26.7198 Q1795.07 27.3274 1798.15 28.5427 Z" fill="#000000" fill-rule="nonzero" fill-opacity="1" /><path clip-path="url(#clip120)" d="M1841.37 28.5427 L1841.37 35.5912 Q1838.21 33.9709 1834.81 33.1607 Q1831.4 32.3505 1827.76 32.3505 Q1822.21 32.3505 1819.41 34.0519 Q1816.66 35.7533 1816.66 39.156 Q1816.66 41.7486 1818.64 43.2475 Q1820.63 44.7058 1826.62 46.0426 L1829.18 46.6097 Q1837.12 48.3111 1840.44 51.4303 Q1843.8 54.509 1843.8 60.0587 Q1843.8 66.3781 1838.78 70.0644 Q1833.79 73.7508 1825.04 73.7508 Q1821.4 73.7508 1817.43 73.0216 Q1813.5 72.3329 1809.12 70.9151 L1809.12 63.2184 Q1813.26 65.3654 1817.27 66.4591 Q1821.28 67.5124 1825.21 67.5124 Q1830.47 67.5124 1833.31 65.73 Q1836.14 63.9071 1836.14 60.6258 Q1836.14 57.5877 1834.08 55.9673 Q1832.05 54.3469 1825.13 52.8481 L1822.53 52.2405 Q1815.61 50.7821 1812.53 47.7845 Q1809.45 44.7463 1809.45 39.4801 Q1809.45 33.0797 1813.99 29.5959 Q1818.52 26.1121 1826.87 26.1121 Q1831 26.1121 1834.65 26.7198 Q1838.29 27.3274 1841.37 28.5427 Z" fill="#000000" fill-rule="nonzero" fill-opacity="1" /><path clip-path="url(#clip120)" d="M1855.67 27.2059 L1863.12 27.2059 L1863.12 72.576 L1855.67 72.576 L1855.67 27.2059 M1855.67 9.54393 L1863.12 9.54393 L1863.12 18.9825 L1855.67 18.9825 L1855.67 9.54393 Z" fill="#000000" fill-rule="nonzero" fill-opacity="1" /><path clip-path="url(#clip120)" d="M1899.34 49.7694 Q1890.31 49.7694 1886.82 51.8354 Q1883.34 53.9013 1883.34 58.8839 Q1883.34 62.8538 1885.93 65.2034 Q1888.56 67.5124 1893.06 67.5124 Q1899.26 67.5124 1902.98 63.1374 Q1906.75 58.7219 1906.75 51.4303 L1906.75 49.7694 L1899.34 49.7694 M1914.21 46.6907 L1914.21 72.576 L1906.75 72.576 L1906.75 65.6895 Q1904.2 69.8214 1900.39 71.8063 Q1896.58 73.7508 1891.07 73.7508 Q1884.11 73.7508 1879.98 69.8619 Q1875.88 65.9325 1875.88 59.3701 Q1875.88 51.7138 1880.99 47.825 Q1886.13 43.9361 1896.3 43.9361 L1906.75 43.9361 L1906.75 43.2069 Q1906.75 38.0623 1903.35 35.2672 Q1899.99 32.4315 1893.87 32.4315 Q1889.98 32.4315 1886.29 33.3632 Q1882.61 34.295 1879.21 36.1584 L1879.21 29.2718 Q1883.3 27.692 1887.15 26.9223 Q1890.99 26.1121 1894.64 26.1121 Q1904.48 26.1121 1909.34 31.2163 Q1914.21 36.3204 1914.21 46.6907 Z" fill="#000000" fill-rule="nonzero" fill-opacity="1" /><path clip-path="url(#clip120)" d="M1967.27 45.1919 L1967.27 72.576 L1959.82 72.576 L1959.82 45.4349 Q1959.82 38.994 1957.31 35.7938 Q1954.8 32.5936 1949.77 32.5936 Q1943.74 32.5936 1940.25 36.4419 Q1936.77 40.2903 1936.77 46.9338 L1936.77 72.576 L1929.27 72.576 L1929.27 27.2059 L1936.77 27.2059 L1936.77 34.2544 Q1939.44 30.163 1943.05 28.1376 Q1946.69 26.1121 1951.43 26.1121 Q1959.25 26.1121 1963.26 30.9732 Q1967.27 35.7938 1967.27 45.1919 Z" fill="#000000" fill-rule="nonzero" fill-opacity="1" /><path clip-path="url(#clip120)" d="M2000.45 12.096 L2051.61 12.096 L2051.61 18.9825 L2030.14 18.9825 L2030.14 72.576 L2021.92 72.576 L2021.92 18.9825 L2000.45 18.9825 L2000.45 12.096 Z" fill="#000000" fill-rule="nonzero" fill-opacity="1" /><path clip-path="url(#clip120)" d="M2066.07 49.7694 Q2057.04 49.7694 2053.56 51.8354 Q2050.07 53.9013 2050.07 58.8839 Q2050.07 62.8538 2052.67 65.2034 Q2055.3 67.5124 2059.79 67.5124 Q2065.99 67.5124 2069.72 63.1374 Q2073.49 58.7219 2073.49 51.4303 L2073.49 49.7694 L2066.07 49.7694 M2080.94 46.6907 L2080.94 72.576 L2073.49 72.576 L2073.49 65.6895 Q2070.93 69.8214 2067.13 71.8063 Q2063.32 73.7508 2057.81 73.7508 Q2050.84 73.7508 2046.71 69.8619 Q2042.62 65.9325 2042.62 59.3701 Q2042.62 51.7138 2047.72 47.825 Q2052.87 43.9361 2063.04 43.9361 L2073.49 43.9361 L2073.49 43.2069 Q2073.49 38.0623 2070.08 35.2672 Q2066.72 32.4315 2060.61 32.4315 Q2056.72 32.4315 2053.03 33.3632 Q2049.34 34.295 2045.94 36.1584 L2045.94 29.2718 Q2050.03 27.692 2053.88 26.9223 Q2057.73 26.1121 2061.37 26.1121 Q2071.22 26.1121 2076.08 31.2163 Q2080.94 36.3204 2080.94 46.6907 Z" fill="#000000" fill-rule="nonzero" fill-opacity="1" /><path clip-path="url(#clip120)" d="M2122.58 34.1734 Q2121.33 33.4443 2119.83 33.1202 Q2118.37 32.7556 2116.59 32.7556 Q2110.27 32.7556 2106.87 36.8875 Q2103.5 40.9789 2103.5 48.6757 L2103.5 72.576 L2096.01 72.576 L2096.01 27.2059 L2103.5 27.2059 L2103.5 34.2544 Q2105.85 30.1225 2109.62 28.1376 Q2113.39 26.1121 2118.78 26.1121 Q2119.55 26.1121 2120.48 26.2337 Q2121.41 26.3147 2122.54 26.5172 L2122.58 34.1734 Z" fill="#000000" fill-rule="nonzero" fill-opacity="1" /><path clip-path="url(#clip120)" d="M2158.8 49.3643 Q2158.8 41.2625 2155.44 36.8065 Q2152.11 32.3505 2146.08 32.3505 Q2140.08 32.3505 2136.72 36.8065 Q2133.4 41.2625 2133.4 49.3643 Q2133.4 57.4256 2136.72 61.8816 Q2140.08 66.3376 2146.08 66.3376 Q2152.11 66.3376 2155.44 61.8816 Q2158.8 57.4256 2158.8 49.3643 M2166.25 66.9452 Q2166.25 78.5308 2161.11 84.1616 Q2155.96 89.8329 2145.35 89.8329 Q2141.42 89.8329 2137.94 89.2252 Q2134.45 88.6581 2131.17 87.4428 L2131.17 80.1917 Q2134.45 81.9741 2137.65 82.8248 Q2140.85 83.6755 2144.18 83.6755 Q2151.51 83.6755 2155.15 79.8271 Q2158.8 76.0193 2158.8 68.282 L2158.8 64.5957 Q2156.49 68.6061 2152.88 70.5911 Q2149.28 72.576 2144.26 72.576 Q2135.91 72.576 2130.81 66.2161 Q2125.7 59.8562 2125.7 49.3643 Q2125.7 38.832 2130.81 32.472 Q2135.91 26.1121 2144.26 26.1121 Q2149.28 26.1121 2152.88 28.0971 Q2156.49 30.082 2158.8 34.0924 L2158.8 27.2059 L2166.25 27.2059 L2166.25 66.9452 Z" fill="#000000" fill-rule="nonzero" fill-opacity="1" /><path clip-path="url(#clip120)" d="M2220.41 48.0275 L2220.41 51.6733 L2186.14 51.6733 Q2186.63 59.3701 2190.76 63.421 Q2194.93 67.4314 2202.35 67.4314 Q2206.64 67.4314 2210.65 66.3781 Q2214.7 65.3249 2218.67 63.2184 L2218.67 70.267 Q2214.66 71.9684 2210.45 72.8596 Q2206.24 73.7508 2201.9 73.7508 Q2191.04 73.7508 2184.68 67.4314 Q2178.36 61.1119 2178.36 50.3365 Q2178.36 39.1965 2184.36 32.6746 Q2190.4 26.1121 2200.6 26.1121 Q2209.76 26.1121 2215.07 32.0264 Q2220.41 37.9003 2220.41 48.0275 M2212.96 45.84 Q2212.88 39.7232 2209.52 36.0774 Q2206.19 32.4315 2200.69 32.4315 Q2194.45 32.4315 2190.68 35.9558 Q2186.95 39.4801 2186.39 45.8805 L2212.96 45.84 Z" fill="#000000" fill-rule="nonzero" fill-opacity="1" /><path clip-path="url(#clip120)" d="M2240.02 14.324 L2240.02 27.2059 L2255.37 27.2059 L2255.37 32.9987 L2240.02 32.9987 L2240.02 57.6282 Q2240.02 63.1779 2241.52 64.7578 Q2243.06 66.3376 2247.72 66.3376 L2255.37 66.3376 L2255.37 72.576 L2247.72 72.576 Q2239.09 72.576 2235.81 69.3758 Q2232.53 66.1351 2232.53 57.6282 L2232.53 32.9987 L2227.06 32.9987 L2227.06 27.2059 L2232.53 27.2059 L2232.53 14.324 L2240.02 14.324 Z" fill="#000000" fill-rule="nonzero" fill-opacity="1" /><polyline clip-path="url(#clip121)" style="stroke:#e95420; stroke-linecap:round; stroke-linejoin:round; stroke-width:8; stroke-opacity:1; fill:none" points="482.368,265.208 482.368,807.186 "/>
<polyline clip-path="url(#clip121)" style="stroke:#e95420; stroke-linecap:round; stroke-linejoin:round; stroke-width:8; stroke-opacity:1; fill:none" points="1000.29,187.493 1000.29,739.754 "/>
<polyline clip-path="url(#clip121)" style="stroke:#e95420; stroke-linecap:round; stroke-linejoin:round; stroke-width:8; stroke-opacity:1; fill:none" points="1518.21,398.41 1518.21,950.214 "/>
<polyline clip-path="url(#clip121)" style="stroke:#e95420; stroke-linecap:round; stroke-linejoin:round; stroke-width:8; stroke-opacity:1; fill:none" points="2036.12,447.865 2036.12,965.771 "/>
<polyline clip-path="url(#clip121)" style="stroke:#e95420; stroke-linecap:round; stroke-linejoin:round; stroke-width:8; stroke-opacity:1; fill:none" points="2554.04,569.713 2554.04,1020.74 "/>
<polyline clip-path="url(#clip121)" style="stroke:#e95420; stroke-linecap:round; stroke-linejoin:round; stroke-width:8; stroke-opacity:1; fill:none" points="3071.96,357.192 3071.96,900.702 "/>
<line clip-path="url(#clip121)" x1="538.368" y1="265.208" x2="426.368" y2="265.208" style="stroke:#e95420; stroke-width:9.6; stroke-opacity:1"/>
<line clip-path="url(#clip121)" x1="538.368" y1="807.186" x2="426.368" y2="807.186" style="stroke:#e95420; stroke-width:9.6; stroke-opacity:1"/>
<line clip-path="url(#clip121)" x1="1056.29" y1="187.493" x2="944.287" y2="187.493" style="stroke:#e95420; stroke-width:9.6; stroke-opacity:1"/>
<line clip-path="url(#clip121)" x1="1056.29" y1="739.754" x2="944.287" y2="739.754" style="stroke:#e95420; stroke-width:9.6; stroke-opacity:1"/>
<line clip-path="url(#clip121)" x1="1574.21" y1="398.41" x2="1462.21" y2="398.41" style="stroke:#e95420; stroke-width:9.6; stroke-opacity:1"/>
<line clip-path="url(#clip121)" x1="1574.21" y1="950.214" x2="1462.21" y2="950.214" style="stroke:#e95420; stroke-width:9.6; stroke-opacity:1"/>
<line clip-path="url(#clip121)" x1="2092.12" y1="447.865" x2="1980.12" y2="447.865" style="stroke:#e95420; stroke-width:9.6; stroke-opacity:1"/>
<line clip-path="url(#clip121)" x1="2092.12" y1="965.771" x2="1980.12" y2="965.771" style="stroke:#e95420; stroke-width:9.6; stroke-opacity:1"/>
<line clip-path="url(#clip121)" x1="2610.04" y1="569.713" x2="2498.04" y2="569.713" style="stroke:#e95420; stroke-width:9.6; stroke-opacity:1"/>
<line clip-path="url(#clip121)" x1="2610.04" y1="1020.74" x2="2498.04" y2="1020.74" style="stroke:#e95420; stroke-width:9.6; stroke-opacity:1"/>
<line clip-path="url(#clip121)" x1="3127.96" y1="357.192" x2="3015.96" y2="357.192" style="stroke:#e95420; stroke-width:9.6; stroke-opacity:1"/>
<line clip-path="url(#clip121)" x1="3127.96" y1="900.702" x2="3015.96" y2="900.702" style="stroke:#e95420; stroke-width:9.6; stroke-opacity:1"/>
<path clip-path="url(#clip121)" d="M482.368 486.741 L469.208 524.597 L429.112 525.437 L461.088 549.685 L449.44 588.045 L482.368 565.141 L515.296 588.045 L503.648 549.685 L535.624 525.437 L495.528 524.597 L482.368 486.741 Z" fill="#e95420" fill-rule="evenodd" fill-opacity="1" stroke="none"/>
<path clip-path="url(#clip121)" d="M1000.29 413.184 L987.127 451.04 L947.031 451.88 L979.007 476.128 L967.359 514.488 L1000.29 491.584 L1033.21 514.488 L1021.57 476.128 L1053.54 451.88 L1013.45 451.04 L1000.29 413.184 Z" fill="#e95420" fill-rule="evenodd" fill-opacity="1" stroke="none"/>
<path clip-path="url(#clip121)" d="M1518.21 622.717 L1505.05 660.573 L1464.95 661.413 L1496.93 685.661 L1485.28 724.021 L1518.21 701.117 L1551.13 724.021 L1539.49 685.661 L1571.46 661.413 L1531.37 660.573 L1518.21 622.717 Z" fill="#e95420" fill-rule="evenodd" fill-opacity="1" stroke="none"/>
<path clip-path="url(#clip121)" d="M2036.12 654.327 L2022.96 692.183 L1982.87 693.023 L2014.84 717.271 L2003.2 755.631 L2036.12 732.727 L2069.05 755.631 L2057.4 717.271 L2089.38 693.023 L2049.28 692.183 L2036.12 654.327 Z" fill="#e95420" fill-rule="evenodd" fill-opacity="1" stroke="none"/>
<path clip-path="url(#clip121)" d="M2554.04 741.958 L2540.88 779.814 L2500.79 780.654 L2532.76 804.902 L2521.11 843.262 L2554.04 820.358 L2586.97 843.262 L2575.32 804.902 L2607.3 780.654 L2567.2 779.814 L2554.04 741.958 Z" fill="#e95420" fill-rule="evenodd" fill-opacity="1" stroke="none"/>
<path clip-path="url(#clip121)" d="M3071.96 579.98 L3058.8 617.836 L3018.7 618.676 L3050.68 642.924 L3039.03 681.284 L3071.96 658.38 L3104.89 681.284 L3093.24 642.924 L3125.22 618.676 L3085.12 617.836 L3071.96 579.98 Z" fill="#e95420" fill-rule="evenodd" fill-opacity="1" stroke="none"/>
<polyline clip-path="url(#clip121)" style="stroke:#0096ff; stroke-linecap:round; stroke-linejoin:round; stroke-width:8; stroke-opacity:1; fill:none" points="378.784,1772.52 378.784,2069.53 "/>
<polyline clip-path="url(#clip121)" style="stroke:#0096ff; stroke-linecap:round; stroke-linejoin:round; stroke-width:8; stroke-opacity:1; fill:none" points="896.703,1760.04 896.703,2056.28 "/>
<polyline clip-path="url(#clip121)" style="stroke:#0096ff; stroke-linecap:round; stroke-linejoin:round; stroke-width:8; stroke-opacity:1; fill:none" points="1414.62,1601.22 1414.62,1927.46 "/>
<polyline clip-path="url(#clip121)" style="stroke:#0096ff; stroke-linecap:round; stroke-linejoin:round; stroke-width:8; stroke-opacity:1; fill:none" points="1932.54,1709.49 1932.54,1989.64 "/>
<polyline clip-path="url(#clip121)" style="stroke:#0096ff; stroke-linecap:round; stroke-linejoin:round; stroke-width:8; stroke-opacity:1; fill:none" points="2450.46,1636.36 2450.46,1945.38 "/>
<polyline clip-path="url(#clip121)" style="stroke:#0096ff; stroke-linecap:round; stroke-linejoin:round; stroke-width:8; stroke-opacity:1; fill:none" points="2968.38,1710.31 2968.38,2012.23 "/>
<line clip-path="url(#clip121)" x1="418.784" y1="1772.52" x2="338.784" y2="1772.52" style="stroke:#0096ff; stroke-width:9.6; stroke-opacity:1"/>
<line clip-path="url(#clip121)" x1="418.784" y1="2069.53" x2="338.784" y2="2069.53" style="stroke:#0096ff; stroke-width:9.6; stroke-opacity:1"/>
<line clip-path="url(#clip121)" x1="936.703" y1="1760.04" x2="856.703" y2="1760.04" style="stroke:#0096ff; stroke-width:9.6; stroke-opacity:1"/>
<line clip-path="url(#clip121)" x1="936.703" y1="2056.28" x2="856.703" y2="2056.28" style="stroke:#0096ff; stroke-width:9.6; stroke-opacity:1"/>
<line clip-path="url(#clip121)" x1="1454.62" y1="1601.22" x2="1374.62" y2="1601.22" style="stroke:#0096ff; stroke-width:9.6; stroke-opacity:1"/>
<line clip-path="url(#clip121)" x1="1454.62" y1="1927.46" x2="1374.62" y2="1927.46" style="stroke:#0096ff; stroke-width:9.6; stroke-opacity:1"/>
<line clip-path="url(#clip121)" x1="1972.54" y1="1709.49" x2="1892.54" y2="1709.49" style="stroke:#0096ff; stroke-width:9.6; stroke-opacity:1"/>
<line clip-path="url(#clip121)" x1="1972.54" y1="1989.64" x2="1892.54" y2="1989.64" style="stroke:#0096ff; stroke-width:9.6; stroke-opacity:1"/>
<line clip-path="url(#clip121)" x1="2490.46" y1="1636.36" x2="2410.46" y2="1636.36" style="stroke:#0096ff; stroke-width:9.6; stroke-opacity:1"/>
<line clip-path="url(#clip121)" x1="2490.46" y1="1945.38" x2="2410.46" y2="1945.38" style="stroke:#0096ff; stroke-width:9.6; stroke-opacity:1"/>
<line clip-path="url(#clip121)" x1="3008.38" y1="1710.31" x2="2928.38" y2="1710.31" style="stroke:#0096ff; stroke-width:9.6; stroke-opacity:1"/>
<line clip-path="url(#clip121)" x1="3008.38" y1="2012.23" x2="2928.38" y2="2012.23" style="stroke:#0096ff; stroke-width:9.6; stroke-opacity:1"/>
<circle clip-path="url(#clip121)" cx="378.784" cy="1920.3" r="36" fill="#0096ff" fill-rule="evenodd" fill-opacity="1" stroke="none"/>
<circle clip-path="url(#clip121)" cx="896.703" cy="1912.97" r="36" fill="#0096ff" fill-rule="evenodd" fill-opacity="1" stroke="none"/>
<circle clip-path="url(#clip121)" cx="1414.62" cy="1773.21" r="36" fill="#0096ff" fill-rule="evenodd" fill-opacity="1" stroke="none"/>
<circle clip-path="url(#clip121)" cx="1932.54" cy="1853.91" r="36" fill="#0096ff" fill-rule="evenodd" fill-opacity="1" stroke="none"/>
<circle clip-path="url(#clip121)" cx="2450.46" cy="1795.52" r="36" fill="#0096ff" fill-rule="evenodd" fill-opacity="1" stroke="none"/>
<circle clip-path="url(#clip121)" cx="2968.38" cy="1866.58" r="36" fill="#0096ff" fill-rule="evenodd" fill-opacity="1" stroke="none"/>
<polyline clip-path="url(#clip121)" style="stroke:#000000; stroke-linecap:round; stroke-linejoin:round; stroke-width:8; stroke-opacity:1; fill:none" stroke-dasharray="32, 20" points="-2556.78,726.524 6007.52,726.524 "/>
<polyline clip-path="url(#clip121)" style="stroke:#000000; stroke-linecap:round; stroke-linejoin:round; stroke-width:8; stroke-opacity:1; fill:none" stroke-dasharray="32, 20" points="-2556.78,1921.36 6007.52,1921.36 "/>
<path clip-path="url(#clip120)" d="M1814.19 1499.4 L3115.72 1499.4 L3115.72 1084.68 L1814.19 1084.68  Z" fill="#f0f1eb" fill-rule="evenodd" fill-opacity="1"/>
<polyline clip-path="url(#clip120)" style="stroke:#000000; stroke-linecap:round; stroke-linejoin:round; stroke-width:4; stroke-opacity:1; fill:none" points="1814.19,1499.4 3115.72,1499.4 3115.72,1084.68 1814.19,1084.68 1814.19,1499.4 "/>
<path clip-path="url(#clip120)" d="M1941.07 1140.57 L1929.84 1172.88 L1895.62 1173.59 L1922.91 1194.29 L1912.97 1227.02 L1941.07 1207.48 L1969.16 1227.02 L1959.22 1194.29 L1986.51 1173.59 L1952.3 1172.88 L1941.07 1140.57 Z" fill="#e95420" fill-rule="evenodd" fill-opacity="1" stroke="none"/>
<path clip-path="url(#clip120)" d="M2067.94 1153.8 L2107.67 1153.8 L2107.67 1161.67 L2077.3 1161.67 L2077.3 1182.04 L2104.7 1182.04 L2104.7 1189.91 L2077.3 1189.91 L2077.3 1222.92 L2067.94 1222.92 L2067.94 1153.8 Z" fill="#000000" fill-rule="nonzero" fill-opacity="1" /><path clip-path="url(#clip120)" d="M2122.48 1153.8 L2166.18 1153.8 L2166.18 1161.67 L2131.83 1161.67 L2131.83 1182.13 L2164.75 1182.13 L2164.75 1190 L2131.83 1190 L2131.83 1215.05 L2167.02 1215.05 L2167.02 1222.92 L2122.48 1222.92 L2122.48 1153.8 Z" fill="#000000" fill-rule="nonzero" fill-opacity="1" /><path clip-path="url(#clip120)" d="M2234.15 1159.12 L2234.15 1168.99 Q2229.43 1164.59 2224.05 1162.41 Q2218.73 1160.24 2212.71 1160.24 Q2200.86 1160.24 2194.56 1167.5 Q2188.27 1174.73 2188.27 1188.43 Q2188.27 1202.09 2194.56 1209.36 Q2200.86 1216.58 2212.71 1216.58 Q2218.73 1216.58 2224.05 1214.4 Q2229.43 1212.23 2234.15 1207.83 L2234.15 1217.6 Q2229.24 1220.93 2223.73 1222.6 Q2218.27 1224.26 2212.16 1224.26 Q2196.46 1224.26 2187.43 1214.68 Q2178.41 1205.05 2178.41 1188.43 Q2178.41 1171.76 2187.43 1162.18 Q2196.46 1152.55 2212.16 1152.55 Q2218.36 1152.55 2223.82 1154.22 Q2229.33 1155.84 2234.15 1159.12 Z" fill="#000000" fill-rule="nonzero" fill-opacity="1" /><path clip-path="url(#clip120)" d="M2248.59 1153.8 L2262.53 1153.8 L2280.17 1200.84 L2297.9 1153.8 L2311.83 1153.8 L2311.83 1222.92 L2302.71 1222.92 L2302.71 1162.23 L2284.89 1209.63 L2275.49 1209.63 L2257.67 1162.23 L2257.67 1222.92 L2248.59 1222.92 L2248.59 1153.8 Z" fill="#000000" fill-rule="nonzero" fill-opacity="1" /><path clip-path="url(#clip120)" d="M2382.16 1159.12 L2382.16 1168.99 Q2377.43 1164.59 2372.06 1162.41 Q2366.74 1160.24 2360.72 1160.24 Q2348.87 1160.24 2342.57 1167.5 Q2336.28 1174.73 2336.28 1188.43 Q2336.28 1202.09 2342.57 1209.36 Q2348.87 1216.58 2360.72 1216.58 Q2366.74 1216.58 2372.06 1214.4 Q2377.43 1212.23 2382.16 1207.83 L2382.16 1217.6 Q2377.25 1220.93 2371.74 1222.6 Q2366.28 1224.26 2360.17 1224.26 Q2344.47 1224.26 2335.44 1214.68 Q2326.42 1205.05 2326.42 1188.43 Q2326.42 1171.76 2335.44 1162.18 Q2344.47 1152.55 2360.17 1152.55 Q2366.37 1152.55 2371.83 1154.22 Q2377.34 1155.84 2382.16 1159.12 Z" fill="#000000" fill-rule="nonzero" fill-opacity="1" /><circle clip-path="url(#clip120)" cx="1941.07" cy="1292.04" r="41.8909" fill="#0096ff" fill-rule="evenodd" fill-opacity="1" stroke="none"/>
<path clip-path="url(#clip120)" d="M2077.3 1293.59 L2077.3 1318.92 L2092.3 1318.92 Q2099.84 1318.92 2103.45 1315.81 Q2107.11 1312.67 2107.11 1306.23 Q2107.11 1299.75 2103.45 1296.69 Q2099.84 1293.59 2092.3 1293.59 L2077.3 1293.59 M2077.3 1265.17 L2077.3 1286 L2091.14 1286 Q2097.99 1286 2101.32 1283.45 Q2104.7 1280.86 2104.7 1275.58 Q2104.7 1270.35 2101.32 1267.76 Q2097.99 1265.17 2091.14 1265.17 L2077.3 1265.17 M2067.94 1257.48 L2091.83 1257.48 Q2102.53 1257.48 2108.31 1261.93 Q2114.1 1266.37 2114.1 1274.56 Q2114.1 1280.91 2111.14 1284.66 Q2108.18 1288.41 2102.44 1289.33 Q2109.33 1290.81 2113.13 1295.54 Q2116.97 1300.21 2116.97 1307.25 Q2116.97 1316.51 2110.68 1321.55 Q2104.38 1326.6 2092.76 1326.6 L2067.94 1326.6 L2067.94 1257.48 Z" fill="#000000" fill-rule="nonzero" fill-opacity="1" /><path clip-path="url(#clip120)" d="M2142.34 1265.17 L2142.34 1291.14 L2154.1 1291.14 Q2160.63 1291.14 2164.19 1287.76 Q2167.76 1284.38 2167.76 1278.13 Q2167.76 1271.93 2164.19 1268.55 Q2160.63 1265.17 2154.1 1265.17 L2142.34 1265.17 M2132.99 1257.48 L2154.1 1257.48 Q2165.72 1257.48 2171.65 1262.76 Q2177.62 1267.99 2177.62 1278.13 Q2177.62 1288.36 2171.65 1293.59 Q2165.72 1298.82 2154.1 1298.82 L2142.34 1298.82 L2142.34 1326.6 L2132.99 1326.6 L2132.99 1257.48 Z" fill="#000000" fill-rule="nonzero" fill-opacity="1" /><path clip-path="url(#clip120)" d="M2231.6 1259.75 L2231.6 1268.87 Q2226.28 1266.32 2221.55 1265.07 Q2216.83 1263.82 2212.43 1263.82 Q2204.8 1263.82 2200.63 1266.79 Q2196.51 1269.75 2196.51 1275.21 Q2196.51 1279.8 2199.24 1282.16 Q2202.02 1284.47 2209.7 1285.91 L2215.35 1287.06 Q2225.81 1289.05 2230.77 1294.1 Q2235.77 1299.1 2235.77 1307.53 Q2235.77 1317.57 2229.01 1322.76 Q2222.3 1327.94 2209.29 1327.94 Q2204.38 1327.94 2198.82 1326.83 Q2193.31 1325.72 2187.39 1323.55 L2187.39 1313.92 Q2193.08 1317.11 2198.55 1318.73 Q2204.01 1320.35 2209.29 1320.35 Q2217.3 1320.35 2221.65 1317.2 Q2226 1314.05 2226 1308.22 Q2226 1303.13 2222.85 1300.26 Q2219.75 1297.39 2212.62 1295.95 L2206.93 1294.84 Q2196.46 1292.76 2191.79 1288.31 Q2187.11 1283.87 2187.11 1275.95 Q2187.11 1266.79 2193.55 1261.51 Q2200.03 1256.23 2211.37 1256.23 Q2216.23 1256.23 2221.28 1257.11 Q2226.32 1257.99 2231.6 1259.75 Z" fill="#000000" fill-rule="nonzero" fill-opacity="1" /><path clip-path="url(#clip120)" d="M2300.58 1254.66 Q2294.38 1265.3 2291.37 1275.72 Q2288.36 1286.14 2288.36 1296.83 Q2288.36 1307.53 2291.37 1318.04 Q2294.42 1328.5 2300.58 1339.1 L2293.17 1339.1 Q2286.23 1328.22 2282.76 1317.71 Q2279.33 1307.2 2279.33 1296.83 Q2279.33 1286.51 2282.76 1276.05 Q2286.18 1265.58 2293.17 1254.66 L2300.58 1254.66 Z" fill="#000000" fill-rule="nonzero" fill-opacity="1" /><path clip-path="url(#clip120)" d="M2337.2 1280.72 Q2330.35 1280.72 2326.37 1286.09 Q2322.39 1291.42 2322.39 1300.72 Q2322.39 1310.03 2326.32 1315.4 Q2330.3 1320.72 2337.2 1320.72 Q2344.01 1320.72 2347.99 1315.35 Q2351.97 1309.98 2351.97 1300.72 Q2351.97 1291.51 2347.99 1286.14 Q2344.01 1280.72 2337.2 1280.72 M2337.2 1273.5 Q2348.31 1273.5 2354.66 1280.72 Q2361 1287.94 2361 1300.72 Q2361 1313.45 2354.66 1320.72 Q2348.31 1327.94 2337.2 1327.94 Q2326.04 1327.94 2319.7 1320.72 Q2313.41 1313.45 2313.41 1300.72 Q2313.41 1287.94 2319.7 1280.72 Q2326.04 1273.5 2337.2 1273.5 Z" fill="#000000" fill-rule="nonzero" fill-opacity="1" /><path clip-path="url(#clip120)" d="M2383.36 1318.82 L2383.36 1346.32 L2374.79 1346.32 L2374.79 1274.75 L2383.36 1274.75 L2383.36 1282.62 Q2386.04 1277.99 2390.12 1275.77 Q2394.24 1273.5 2399.93 1273.5 Q2409.38 1273.5 2415.26 1281 Q2421.18 1288.5 2421.18 1300.72 Q2421.18 1312.94 2415.26 1320.44 Q2409.38 1327.94 2399.93 1327.94 Q2394.24 1327.94 2390.12 1325.72 Q2386.04 1323.45 2383.36 1318.82 M2412.34 1300.72 Q2412.34 1291.32 2408.45 1286 Q2404.61 1280.63 2397.85 1280.63 Q2391.09 1280.63 2387.2 1286 Q2383.36 1291.32 2383.36 1300.72 Q2383.36 1310.12 2387.2 1315.49 Q2391.09 1320.81 2397.85 1320.81 Q2404.61 1320.81 2408.45 1315.49 Q2412.34 1310.12 2412.34 1300.72 Z" fill="#000000" fill-rule="nonzero" fill-opacity="1" /><path clip-path="url(#clip120)" d="M2443.73 1260.03 L2443.73 1274.75 L2461.28 1274.75 L2461.28 1281.37 L2443.73 1281.37 L2443.73 1309.52 Q2443.73 1315.86 2445.44 1317.67 Q2447.2 1319.47 2452.53 1319.47 L2461.28 1319.47 L2461.28 1326.6 L2452.53 1326.6 Q2442.66 1326.6 2438.91 1322.94 Q2435.16 1319.24 2435.16 1309.52 L2435.16 1281.37 L2428.91 1281.37 L2428.91 1274.75 L2435.16 1274.75 L2435.16 1260.03 L2443.73 1260.03 Z" fill="#000000" fill-rule="nonzero" fill-opacity="1" /><path clip-path="url(#clip120)" d="M2472.48 1274.75 L2481 1274.75 L2481 1326.6 L2472.48 1326.6 L2472.48 1274.75 M2472.48 1254.56 L2481 1254.56 L2481 1265.35 L2472.48 1265.35 L2472.48 1254.56 Z" fill="#000000" fill-rule="nonzero" fill-opacity="1" /><path clip-path="url(#clip120)" d="M2539.19 1284.7 Q2542.39 1278.96 2546.83 1276.23 Q2551.28 1273.5 2557.29 1273.5 Q2565.4 1273.5 2569.79 1279.19 Q2574.19 1284.84 2574.19 1295.3 L2574.19 1326.6 L2565.63 1326.6 L2565.63 1295.58 Q2565.63 1288.13 2562.99 1284.52 Q2560.35 1280.91 2554.93 1280.91 Q2548.31 1280.91 2544.47 1285.3 Q2540.63 1289.7 2540.63 1297.3 L2540.63 1326.6 L2532.06 1326.6 L2532.06 1295.58 Q2532.06 1288.08 2529.42 1284.52 Q2526.78 1280.91 2521.28 1280.91 Q2514.75 1280.91 2510.91 1285.35 Q2507.06 1289.75 2507.06 1297.3 L2507.06 1326.6 L2498.5 1326.6 L2498.5 1274.75 L2507.06 1274.75 L2507.06 1282.8 Q2509.98 1278.04 2514.05 1275.77 Q2518.13 1273.5 2523.73 1273.5 Q2529.38 1273.5 2533.31 1276.37 Q2537.29 1279.24 2539.19 1284.7 Z" fill="#000000" fill-rule="nonzero" fill-opacity="1" /><path clip-path="url(#clip120)" d="M2614.75 1300.54 Q2604.42 1300.54 2600.44 1302.9 Q2596.46 1305.26 2596.46 1310.95 Q2596.46 1315.49 2599.42 1318.17 Q2602.43 1320.81 2607.57 1320.81 Q2614.65 1320.81 2618.91 1315.81 Q2623.22 1310.77 2623.22 1302.43 L2623.22 1300.54 L2614.75 1300.54 M2631.74 1297.02 L2631.74 1326.6 L2623.22 1326.6 L2623.22 1318.73 Q2620.3 1323.45 2615.95 1325.72 Q2611.6 1327.94 2605.3 1327.94 Q2597.34 1327.94 2592.62 1323.5 Q2587.94 1319.01 2587.94 1311.51 Q2587.94 1302.76 2593.77 1298.31 Q2599.65 1293.87 2611.27 1293.87 L2623.22 1293.87 L2623.22 1293.04 Q2623.22 1287.16 2619.33 1283.96 Q2615.49 1280.72 2608.5 1280.72 Q2604.05 1280.72 2599.84 1281.79 Q2595.63 1282.85 2591.74 1284.98 L2591.74 1277.11 Q2596.41 1275.3 2600.81 1274.43 Q2605.21 1273.5 2609.38 1273.5 Q2620.63 1273.5 2626.18 1279.33 Q2631.74 1285.17 2631.74 1297.02 Z" fill="#000000" fill-rule="nonzero" fill-opacity="1" /><path clip-path="url(#clip120)" d="M2649.28 1254.56 L2657.8 1254.56 L2657.8 1326.6 L2649.28 1326.6 L2649.28 1254.56 Z" fill="#000000" fill-rule="nonzero" fill-opacity="1" /><path clip-path="url(#clip120)" d="M2675.63 1254.56 L2684.14 1254.56 L2684.14 1326.6 L2675.63 1326.6 L2675.63 1254.56 Z" fill="#000000" fill-rule="nonzero" fill-opacity="1" /><path clip-path="url(#clip120)" d="M2723.54 1331.42 Q2719.93 1340.67 2716.51 1343.5 Q2713.08 1346.32 2707.34 1346.32 L2700.53 1346.32 L2700.53 1339.19 L2705.53 1339.19 Q2709.05 1339.19 2711 1337.53 Q2712.94 1335.86 2715.3 1329.66 L2716.83 1325.77 L2695.86 1274.75 L2704.89 1274.75 L2721.09 1315.3 L2737.29 1274.75 L2746.32 1274.75 L2723.54 1331.42 Z" fill="#000000" fill-rule="nonzero" fill-opacity="1" /><path clip-path="url(#clip120)" d="M2796.64 1260.03 L2796.64 1274.75 L2814.19 1274.75 L2814.19 1281.37 L2796.64 1281.37 L2796.64 1309.52 Q2796.64 1315.86 2798.36 1317.67 Q2800.12 1319.47 2805.44 1319.47 L2814.19 1319.47 L2814.19 1326.6 L2805.44 1326.6 Q2795.58 1326.6 2791.83 1322.94 Q2788.08 1319.24 2788.08 1309.52 L2788.08 1281.37 L2781.83 1281.37 L2781.83 1274.75 L2788.08 1274.75 L2788.08 1260.03 L2796.64 1260.03 Z" fill="#000000" fill-rule="nonzero" fill-opacity="1" /><path clip-path="url(#clip120)" d="M2824.51 1306.14 L2824.51 1274.75 L2833.03 1274.75 L2833.03 1305.81 Q2833.03 1313.17 2835.9 1316.88 Q2838.77 1320.54 2844.51 1320.54 Q2851.41 1320.54 2855.39 1316.14 Q2859.42 1311.74 2859.42 1304.15 L2859.42 1274.75 L2867.94 1274.75 L2867.94 1326.6 L2859.42 1326.6 L2859.42 1318.64 Q2856.32 1323.36 2852.2 1325.67 Q2848.13 1327.94 2842.71 1327.94 Q2833.77 1327.94 2829.14 1322.39 Q2824.51 1316.83 2824.51 1306.14 M2845.95 1273.5 L2845.95 1273.5 Z" fill="#000000" fill-rule="nonzero" fill-opacity="1" /><path clip-path="url(#clip120)" d="M2928.59 1295.3 L2928.59 1326.6 L2920.07 1326.6 L2920.07 1295.58 Q2920.07 1288.22 2917.2 1284.56 Q2914.33 1280.91 2908.59 1280.91 Q2901.69 1280.91 2897.71 1285.3 Q2893.73 1289.7 2893.73 1297.3 L2893.73 1326.6 L2885.16 1326.6 L2885.16 1274.75 L2893.73 1274.75 L2893.73 1282.8 Q2896.78 1278.13 2900.9 1275.81 Q2905.07 1273.5 2910.49 1273.5 Q2919.42 1273.5 2924 1279.05 Q2928.59 1284.56 2928.59 1295.3 Z" fill="#000000" fill-rule="nonzero" fill-opacity="1" /><path clip-path="url(#clip120)" d="M2989.93 1298.55 L2989.93 1302.71 L2950.76 1302.71 Q2951.32 1311.51 2956.04 1316.14 Q2960.81 1320.72 2969.28 1320.72 Q2974.19 1320.72 2978.77 1319.52 Q2983.4 1318.31 2987.94 1315.91 L2987.94 1323.96 Q2983.36 1325.91 2978.54 1326.92 Q2973.73 1327.94 2968.77 1327.94 Q2956.37 1327.94 2949.1 1320.72 Q2941.87 1313.5 2941.87 1301.18 Q2941.87 1288.45 2948.73 1281 Q2955.62 1273.5 2967.29 1273.5 Q2977.75 1273.5 2983.82 1280.26 Q2989.93 1286.97 2989.93 1298.55 M2981.41 1296.05 Q2981.32 1289.05 2977.48 1284.89 Q2973.68 1280.72 2967.38 1280.72 Q2960.25 1280.72 2955.95 1284.75 Q2951.69 1288.78 2951.04 1296.09 L2981.41 1296.05 Z" fill="#000000" fill-rule="nonzero" fill-opacity="1" /><path clip-path="url(#clip120)" d="M3038.03 1282.62 L3038.03 1254.56 L3046.55 1254.56 L3046.55 1326.6 L3038.03 1326.6 L3038.03 1318.82 Q3035.35 1323.45 3031.23 1325.72 Q3027.15 1327.94 3021.41 1327.94 Q3012.01 1327.94 3006.09 1320.44 Q3000.21 1312.94 3000.21 1300.72 Q3000.21 1288.5 3006.09 1281 Q3012.01 1273.5 3021.41 1273.5 Q3027.15 1273.5 3031.23 1275.77 Q3035.35 1277.99 3038.03 1282.62 M3009 1300.72 Q3009 1310.12 3012.85 1315.49 Q3016.74 1320.81 3023.49 1320.81 Q3030.25 1320.81 3034.14 1315.49 Q3038.03 1310.12 3038.03 1300.72 Q3038.03 1291.32 3034.14 1286 Q3030.25 1280.63 3023.49 1280.63 Q3016.74 1280.63 3012.85 1286 Q3009 1291.32 3009 1300.72 Z" fill="#000000" fill-rule="nonzero" fill-opacity="1" /><path clip-path="url(#clip120)" d="M3062.75 1254.66 L3070.16 1254.66 Q3077.11 1265.58 3080.53 1276.05 Q3084 1286.51 3084 1296.83 Q3084 1307.2 3080.53 1317.71 Q3077.11 1328.22 3070.16 1339.1 L3062.75 1339.1 Q3068.91 1328.5 3071.92 1318.04 Q3074.98 1307.53 3074.98 1296.83 Q3074.98 1286.14 3071.92 1275.72 Q3068.91 1265.3 3062.75 1254.66 Z" fill="#000000" fill-rule="nonzero" fill-opacity="1" /><polyline clip-path="url(#clip120)" style="stroke:#000000; stroke-linecap:round; stroke-linejoin:round; stroke-width:16; stroke-opacity:1; fill:none" stroke-dasharray="64, 40" points="1845.91,1395.72 2036.22,1395.72 "/>
<path clip-path="url(#clip120)" d="M2099.98 1367.5 Q2089.8 1367.5 2083.78 1375.1 Q2077.81 1382.69 2077.81 1395.79 Q2077.81 1408.85 2083.78 1416.44 Q2089.8 1424.03 2099.98 1424.03 Q2110.17 1424.03 2116.09 1416.44 Q2122.06 1408.85 2122.06 1395.79 Q2122.06 1382.69 2116.09 1375.1 Q2110.17 1367.5 2099.98 1367.5 M2099.98 1359.91 Q2114.52 1359.91 2123.22 1369.68 Q2131.93 1379.4 2131.93 1395.79 Q2131.93 1412.13 2123.22 1421.9 Q2114.52 1431.62 2099.98 1431.62 Q2085.4 1431.62 2076.65 1421.9 Q2067.94 1412.18 2067.94 1395.79 Q2067.94 1379.4 2076.65 1369.68 Q2085.4 1359.91 2099.98 1359.91 Z" fill="#000000" fill-rule="nonzero" fill-opacity="1" /><path clip-path="url(#clip120)" d="M2145.31 1409.82 L2145.31 1378.43 L2153.82 1378.43 L2153.82 1409.49 Q2153.82 1416.85 2156.69 1420.56 Q2159.56 1424.22 2165.31 1424.22 Q2172.2 1424.22 2176.18 1419.82 Q2180.21 1415.42 2180.21 1407.83 L2180.21 1378.43 L2188.73 1378.43 L2188.73 1430.28 L2180.21 1430.28 L2180.21 1422.32 Q2177.11 1427.04 2172.99 1429.35 Q2168.92 1431.62 2163.5 1431.62 Q2154.56 1431.62 2149.93 1426.07 Q2145.31 1420.51 2145.31 1409.82 M2166.74 1377.18 L2166.74 1377.18 Z" fill="#000000" fill-rule="nonzero" fill-opacity="1" /><path clip-path="url(#clip120)" d="M2236.32 1386.39 Q2234.89 1385.56 2233.18 1385.19 Q2231.51 1384.77 2229.47 1384.77 Q2222.25 1384.77 2218.36 1389.49 Q2214.52 1394.17 2214.52 1402.97 L2214.52 1430.28 L2205.95 1430.28 L2205.95 1378.43 L2214.52 1378.43 L2214.52 1386.48 Q2217.2 1381.76 2221.51 1379.49 Q2225.81 1377.18 2231.97 1377.18 Q2232.85 1377.18 2233.92 1377.32 Q2234.98 1377.41 2236.28 1377.64 L2236.32 1386.39 Z" fill="#000000" fill-rule="nonzero" fill-opacity="1" /><path clip-path="url(#clip120)" d="M2283.82 1363.71 L2283.82 1378.43 L2301.37 1378.43 L2301.37 1385.05 L2283.82 1385.05 L2283.82 1413.2 Q2283.82 1419.54 2285.54 1421.35 Q2287.3 1423.15 2292.62 1423.15 L2301.37 1423.15 L2301.37 1430.28 L2292.62 1430.28 Q2282.76 1430.28 2279.01 1426.62 Q2275.26 1422.92 2275.26 1413.2 L2275.26 1385.05 L2269.01 1385.05 L2269.01 1378.43 L2275.26 1378.43 L2275.26 1363.71 L2283.82 1363.71 Z" fill="#000000" fill-rule="nonzero" fill-opacity="1" /><path clip-path="url(#clip120)" d="M2355.67 1398.98 L2355.67 1430.28 L2347.16 1430.28 L2347.16 1399.26 Q2347.16 1391.9 2344.29 1388.24 Q2341.42 1384.59 2335.67 1384.59 Q2328.78 1384.59 2324.79 1388.98 Q2320.81 1393.38 2320.81 1400.98 L2320.81 1430.28 L2312.25 1430.28 L2312.25 1358.24 L2320.81 1358.24 L2320.81 1386.48 Q2323.87 1381.81 2327.99 1379.49 Q2332.16 1377.18 2337.57 1377.18 Q2346.51 1377.18 2351.09 1382.73 Q2355.67 1388.24 2355.67 1398.98 Z" fill="#000000" fill-rule="nonzero" fill-opacity="1" /><path clip-path="url(#clip120)" d="M2417.02 1402.23 L2417.02 1406.39 L2377.85 1406.39 Q2378.41 1415.19 2383.13 1419.82 Q2387.9 1424.4 2396.37 1424.4 Q2401.28 1424.4 2405.86 1423.2 Q2410.49 1421.99 2415.03 1419.59 L2415.03 1427.64 Q2410.44 1429.59 2405.63 1430.6 Q2400.81 1431.62 2395.86 1431.62 Q2383.45 1431.62 2376.18 1424.4 Q2368.96 1417.18 2368.96 1404.86 Q2368.96 1392.13 2375.81 1384.68 Q2382.71 1377.18 2394.38 1377.18 Q2404.84 1377.18 2410.91 1383.94 Q2417.02 1390.65 2417.02 1402.23 M2408.5 1399.73 Q2408.41 1392.73 2404.56 1388.57 Q2400.77 1384.4 2394.47 1384.4 Q2387.34 1384.4 2383.04 1388.43 Q2378.78 1392.46 2378.13 1399.77 L2408.5 1399.73 Z" fill="#000000" fill-rule="nonzero" fill-opacity="1" /><path clip-path="url(#clip120)" d="M2451.09 1384.4 Q2444.24 1384.4 2440.26 1389.77 Q2436.28 1395.1 2436.28 1404.4 Q2436.28 1413.71 2440.21 1419.08 Q2444.19 1424.4 2451.09 1424.4 Q2457.9 1424.4 2461.88 1419.03 Q2465.86 1413.66 2465.86 1404.4 Q2465.86 1395.19 2461.88 1389.82 Q2457.9 1384.4 2451.09 1384.4 M2451.09 1377.18 Q2462.2 1377.18 2468.54 1384.4 Q2474.89 1391.62 2474.89 1404.4 Q2474.89 1417.13 2468.54 1424.4 Q2462.2 1431.62 2451.09 1431.62 Q2439.93 1431.62 2433.59 1424.4 Q2427.29 1417.13 2427.29 1404.4 Q2427.29 1391.62 2433.59 1384.4 Q2439.93 1377.18 2451.09 1377.18 Z" fill="#000000" fill-rule="nonzero" fill-opacity="1" /><path clip-path="url(#clip120)" d="M2519.05 1386.39 Q2517.62 1385.56 2515.91 1385.19 Q2514.24 1384.77 2512.2 1384.77 Q2504.98 1384.77 2501.09 1389.49 Q2497.25 1394.17 2497.25 1402.97 L2497.25 1430.28 L2488.68 1430.28 L2488.68 1378.43 L2497.25 1378.43 L2497.25 1386.48 Q2499.93 1381.76 2504.24 1379.49 Q2508.54 1377.18 2514.7 1377.18 Q2515.58 1377.18 2516.65 1377.32 Q2517.71 1377.41 2519.01 1377.64 L2519.05 1386.39 Z" fill="#000000" fill-rule="nonzero" fill-opacity="1" /><path clip-path="url(#clip120)" d="M2549.56 1435.1 Q2545.95 1444.35 2542.53 1447.18 Q2539.1 1450 2533.36 1450 L2526.55 1450 L2526.55 1442.87 L2531.55 1442.87 Q2535.07 1442.87 2537.02 1441.21 Q2538.96 1439.54 2541.32 1433.34 L2542.85 1429.45 L2521.88 1378.43 L2530.9 1378.43 L2547.11 1418.98 L2563.31 1378.43 L2572.34 1378.43 L2549.56 1435.1 Z" fill="#000000" fill-rule="nonzero" fill-opacity="1" /></svg>
