<?xml version="1.0" encoding="utf-8"?>
<svg xmlns="http://www.w3.org/2000/svg" xmlns:xlink="http://www.w3.org/1999/xlink" width="600" height="400" viewBox="0 0 2400 1600">
<defs>
  <clipPath id="clip440">
    <rect x="0" y="0" width="2400" height="1600"/>
  </clipPath>
</defs>
<path clip-path="url(#clip440)" d="M0 1600 L2400 1600 L2400 8.88178e-14 L0 8.88178e-14  Z" fill="#ffffff" fill-rule="evenodd" fill-opacity="1"/>
<defs>
  <clipPath id="clip441">
    <rect x="480" y="0" width="1681" height="1600"/>
  </clipPath>
</defs>
<path clip-path="url(#clip440)" d="M219.542 1423.18 L2352.76 1423.18 L2352.76 123.472 L219.542 123.472  Z" fill="#ffffff" fill-rule="evenodd" fill-opacity="1"/>
<defs>
  <clipPath id="clip442">
    <rect x="219" y="123" width="2134" height="1301"/>
  </clipPath>
</defs>
<polyline clip-path="url(#clip442)" style="stroke:#000000; stroke-linecap:round; stroke-linejoin:round; stroke-width:2; stroke-opacity:0.1; fill:none" points="307.539,1423.18 307.539,123.472 "/>
<polyline clip-path="url(#clip442)" style="stroke:#000000; stroke-linecap:round; stroke-linejoin:round; stroke-width:2; stroke-opacity:0.1; fill:none" points="901.459,1423.18 901.459,123.472 "/>
<polyline clip-path="url(#clip442)" style="stroke:#000000; stroke-linecap:round; stroke-linejoin:round; stroke-width:2; stroke-opacity:0.1; fill:none" points="1495.38,1423.18 1495.38,123.472 "/>
<polyline clip-path="url(#clip442)" style="stroke:#000000; stroke-linecap:round; stroke-linejoin:round; stroke-width:2; stroke-opacity:0.1; fill:none" points="2089.3,1423.18 2089.3,123.472 "/>
<polyline clip-path="url(#clip442)" style="stroke:#000000; stroke-linecap:round; stroke-linejoin:round; stroke-width:2; stroke-opacity:0.1; fill:none" points="219.542,1310.66 2352.76,1310.66 "/>
<polyline clip-path="url(#clip442)" style="stroke:#000000; stroke-linecap:round; stroke-linejoin:round; stroke-width:2; stroke-opacity:0.1; fill:none" points="219.542,1125.63 2352.76,1125.63 "/>
<polyline clip-path="url(#clip442)" style="stroke:#000000; stroke-linecap:round; stroke-linejoin:round; stroke-width:2; stroke-opacity:0.1; fill:none" points="219.542,940.602 2352.76,940.602 "/>
<polyline clip-path="url(#clip442)" style="stroke:#000000; stroke-linecap:round; stroke-linejoin:round; stroke-width:2; stroke-opacity:0.1; fill:none" points="219.542,755.573 2352.76,755.573 "/>
<polyline clip-path="url(#clip442)" style="stroke:#000000; stroke-linecap:round; stroke-linejoin:round; stroke-width:2; stroke-opacity:0.1; fill:none" points="219.542,570.544 2352.76,570.544 "/>
<polyline clip-path="url(#clip442)" style="stroke:#000000; stroke-linecap:round; stroke-linejoin:round; stroke-width:2; stroke-opacity:0.1; fill:none" points="219.542,385.515 2352.76,385.515 "/>
<polyline clip-path="url(#clip442)" style="stroke:#000000; stroke-linecap:round; stroke-linejoin:round; stroke-width:2; stroke-opacity:0.1; fill:none" points="219.542,200.486 2352.76,200.486 "/>
<polyline clip-path="url(#clip440)" style="stroke:#000000; stroke-linecap:round; stroke-linejoin:round; stroke-width:4; stroke-opacity:1; fill:none" points="219.542,1423.18 2352.76,1423.18 "/>
<polyline clip-path="url(#clip440)" style="stroke:#000000; stroke-linecap:round; stroke-linejoin:round; stroke-width:4; stroke-opacity:1; fill:none" points="307.539,1423.18 307.539,1404.28 "/>
<polyline clip-path="url(#clip440)" style="stroke:#000000; stroke-linecap:round; stroke-linejoin:round; stroke-width:4; stroke-opacity:1; fill:none" points="901.459,1423.18 901.459,1404.28 "/>
<polyline clip-path="url(#clip440)" style="stroke:#000000; stroke-linecap:round; stroke-linejoin:round; stroke-width:4; stroke-opacity:1; fill:none" points="1495.38,1423.18 1495.38,1404.28 "/>
<polyline clip-path="url(#clip440)" style="stroke:#000000; stroke-linecap:round; stroke-linejoin:round; stroke-width:4; stroke-opacity:1; fill:none" points="2089.3,1423.18 2089.3,1404.28 "/>
<path clip-path="url(#clip440)" d="M254.565 1468.75 L284.241 1468.75 L284.241 1472.69 L254.565 1472.69 L254.565 1468.75 Z" fill="#000000" fill-rule="nonzero" fill-opacity="1" /><path clip-path="url(#clip440)" d="M295.144 1481.64 L302.782 1481.64 L302.782 1455.28 L294.472 1456.95 L294.472 1452.69 L302.736 1451.02 L307.412 1451.02 L307.412 1481.64 L315.051 1481.64 L315.051 1485.58 L295.144 1485.58 L295.144 1481.64 Z" fill="#000000" fill-rule="nonzero" fill-opacity="1" /><path clip-path="url(#clip440)" d="M324.495 1479.7 L329.379 1479.7 L329.379 1485.58 L324.495 1485.58 L324.495 1479.7 Z" fill="#000000" fill-rule="nonzero" fill-opacity="1" /><path clip-path="url(#clip440)" d="M339.611 1451.02 L357.967 1451.02 L357.967 1454.96 L343.893 1454.96 L343.893 1463.43 Q344.912 1463.08 345.93 1462.92 Q346.949 1462.73 347.967 1462.73 Q353.754 1462.73 357.134 1465.9 Q360.514 1469.08 360.514 1474.49 Q360.514 1480.07 357.041 1483.17 Q353.569 1486.25 347.25 1486.25 Q345.074 1486.25 342.805 1485.88 Q340.56 1485.51 338.153 1484.77 L338.153 1480.07 Q340.236 1481.2 342.458 1481.76 Q344.68 1482.32 347.157 1482.32 Q351.162 1482.32 353.5 1480.21 Q355.838 1478.1 355.838 1474.49 Q355.838 1470.88 353.5 1468.77 Q351.162 1466.67 347.157 1466.67 Q345.282 1466.67 343.407 1467.08 Q341.555 1467.5 339.611 1468.38 L339.611 1451.02 Z" fill="#000000" fill-rule="nonzero" fill-opacity="1" /><path clip-path="url(#clip440)" d="M847.987 1468.75 L877.663 1468.75 L877.663 1472.69 L847.987 1472.69 L847.987 1468.75 Z" fill="#000000" fill-rule="nonzero" fill-opacity="1" /><path clip-path="url(#clip440)" d="M888.565 1481.64 L896.204 1481.64 L896.204 1455.28 L887.894 1456.95 L887.894 1452.69 L896.158 1451.02 L900.834 1451.02 L900.834 1481.64 L908.473 1481.64 L908.473 1485.58 L888.565 1485.58 L888.565 1481.64 Z" fill="#000000" fill-rule="nonzero" fill-opacity="1" /><path clip-path="url(#clip440)" d="M917.917 1479.7 L922.801 1479.7 L922.801 1485.58 L917.917 1485.58 L917.917 1479.7 Z" fill="#000000" fill-rule="nonzero" fill-opacity="1" /><path clip-path="url(#clip440)" d="M942.986 1454.1 Q939.375 1454.1 937.547 1457.66 Q935.741 1461.2 935.741 1468.33 Q935.741 1475.44 937.547 1479.01 Q939.375 1482.55 942.986 1482.55 Q946.621 1482.55 948.426 1479.01 Q950.255 1475.44 950.255 1468.33 Q950.255 1461.2 948.426 1457.66 Q946.621 1454.1 942.986 1454.1 M942.986 1450.39 Q948.797 1450.39 951.852 1455 Q954.931 1459.58 954.931 1468.33 Q954.931 1477.06 951.852 1481.67 Q948.797 1486.25 942.986 1486.25 Q937.176 1486.25 934.098 1481.67 Q931.042 1477.06 931.042 1468.33 Q931.042 1459.58 934.098 1455 Q937.176 1450.39 942.986 1450.39 Z" fill="#000000" fill-rule="nonzero" fill-opacity="1" /><path clip-path="url(#clip440)" d="M1442.4 1468.75 L1472.08 1468.75 L1472.08 1472.69 L1442.4 1472.69 L1442.4 1468.75 Z" fill="#000000" fill-rule="nonzero" fill-opacity="1" /><path clip-path="url(#clip440)" d="M1492.17 1454.1 Q1488.56 1454.1 1486.73 1457.66 Q1484.93 1461.2 1484.93 1468.33 Q1484.93 1475.44 1486.73 1479.01 Q1488.56 1482.55 1492.17 1482.55 Q1495.81 1482.55 1497.61 1479.01 Q1499.44 1475.44 1499.44 1468.33 Q1499.44 1461.2 1497.61 1457.66 Q1495.81 1454.1 1492.17 1454.1 M1492.17 1450.39 Q1497.98 1450.39 1501.04 1455 Q1504.12 1459.58 1504.12 1468.33 Q1504.12 1477.06 1501.04 1481.67 Q1497.98 1486.25 1492.17 1486.25 Q1486.36 1486.25 1483.28 1481.67 Q1480.23 1477.06 1480.23 1468.33 Q1480.23 1459.58 1483.28 1455 Q1486.36 1450.39 1492.17 1450.39 Z" fill="#000000" fill-rule="nonzero" fill-opacity="1" /><path clip-path="url(#clip440)" d="M1512.33 1479.7 L1517.22 1479.7 L1517.22 1485.58 L1512.33 1485.58 L1512.33 1479.7 Z" fill="#000000" fill-rule="nonzero" fill-opacity="1" /><path clip-path="url(#clip440)" d="M1527.45 1451.02 L1545.81 1451.02 L1545.81 1454.96 L1531.73 1454.96 L1531.73 1463.43 Q1532.75 1463.08 1533.77 1462.92 Q1534.79 1462.73 1535.81 1462.73 Q1541.59 1462.73 1544.97 1465.9 Q1548.35 1469.08 1548.35 1474.49 Q1548.35 1480.07 1544.88 1483.17 Q1541.41 1486.25 1535.09 1486.25 Q1532.91 1486.25 1530.64 1485.88 Q1528.4 1485.51 1525.99 1484.77 L1525.99 1480.07 Q1528.08 1481.2 1530.3 1481.76 Q1532.52 1482.32 1535 1482.32 Q1539 1482.32 1541.34 1480.21 Q1543.68 1478.1 1543.68 1474.49 Q1543.68 1470.88 1541.34 1468.77 Q1539 1466.67 1535 1466.67 Q1533.12 1466.67 1531.25 1467.08 Q1529.39 1467.5 1527.45 1468.38 L1527.45 1451.02 Z" fill="#000000" fill-rule="nonzero" fill-opacity="1" /><path clip-path="url(#clip440)" d="M2066.68 1454.1 Q2063.07 1454.1 2061.24 1457.66 Q2059.44 1461.2 2059.44 1468.33 Q2059.44 1475.44 2061.24 1479.01 Q2063.07 1482.55 2066.68 1482.55 Q2070.32 1482.55 2072.12 1479.01 Q2073.95 1475.44 2073.95 1468.33 Q2073.95 1461.2 2072.12 1457.66 Q2070.32 1454.1 2066.68 1454.1 M2066.68 1450.39 Q2072.49 1450.39 2075.55 1455 Q2078.63 1459.58 2078.63 1468.33 Q2078.63 1477.06 2075.55 1481.67 Q2072.49 1486.25 2066.68 1486.25 Q2060.87 1486.25 2057.79 1481.67 Q2054.74 1477.06 2054.74 1468.33 Q2054.74 1459.58 2057.79 1455 Q2060.87 1450.39 2066.68 1450.39 Z" fill="#000000" fill-rule="nonzero" fill-opacity="1" /><path clip-path="url(#clip440)" d="M2086.84 1479.7 L2091.73 1479.7 L2091.73 1485.58 L2086.84 1485.58 L2086.84 1479.7 Z" fill="#000000" fill-rule="nonzero" fill-opacity="1" /><path clip-path="url(#clip440)" d="M2111.91 1454.1 Q2108.3 1454.1 2106.47 1457.66 Q2104.67 1461.2 2104.67 1468.33 Q2104.67 1475.44 2106.47 1479.01 Q2108.3 1482.55 2111.91 1482.55 Q2115.55 1482.55 2117.35 1479.01 Q2119.18 1475.44 2119.18 1468.33 Q2119.18 1461.2 2117.35 1457.66 Q2115.55 1454.1 2111.91 1454.1 M2111.91 1450.39 Q2117.72 1450.39 2120.78 1455 Q2123.86 1459.58 2123.86 1468.33 Q2123.86 1477.06 2120.78 1481.67 Q2117.72 1486.25 2111.91 1486.25 Q2106.1 1486.25 2103.02 1481.67 Q2099.97 1477.06 2099.97 1468.33 Q2099.97 1459.58 2103.02 1455 Q2106.1 1450.39 2111.91 1450.39 Z" fill="#000000" fill-rule="nonzero" fill-opacity="1" /><path clip-path="url(#clip440)" d="M1288.15 1519.67 Q1288.15 1521.47 1287.02 1522.5 Q1285.89 1523.5 1284.6 1523.5 Q1283.38 1523.5 1282.74 1522.79 Q1282.09 1522.08 1282.09 1521.18 Q1282.09 1519.96 1282.99 1518.89 Q1283.9 1517.83 1285.25 1517.6 Q1283.93 1516.77 1281.96 1516.77 Q1280.67 1516.77 1279.55 1517.44 Q1278.45 1518.12 1277.78 1518.99 Q1277.13 1519.86 1276.55 1521.11 Q1276 1522.34 1275.78 1523.08 Q1275.59 1523.79 1275.43 1524.56 L1273.17 1533.58 Q1272.08 1537.86 1272.08 1539.38 Q1272.08 1541.24 1272.98 1542.5 Q1273.88 1543.72 1275.68 1543.72 Q1276.39 1543.72 1277.2 1543.53 Q1278 1543.3 1279.03 1542.72 Q1280.1 1542.11 1281.03 1541.21 Q1282 1540.28 1282.93 1538.7 Q1283.86 1537.12 1284.48 1535.09 Q1284.67 1534.38 1285.31 1534.38 Q1286.12 1534.38 1286.12 1535.03 Q1286.12 1535.58 1285.67 1536.73 Q1285.25 1537.86 1284.31 1539.34 Q1283.41 1540.79 1282.22 1542.11 Q1281.03 1543.4 1279.26 1544.3 Q1277.49 1545.2 1275.55 1545.2 Q1272.78 1545.2 1270.95 1543.72 Q1269.11 1542.24 1268.44 1540.18 Q1268.28 1540.47 1268.05 1540.86 Q1267.82 1541.24 1267.15 1542.11 Q1266.5 1542.95 1265.76 1543.59 Q1265.02 1544.21 1263.86 1544.69 Q1262.74 1545.2 1261.51 1545.2 Q1259.97 1545.2 1258.58 1544.75 Q1257.23 1544.3 1256.26 1543.27 Q1255.3 1542.24 1255.3 1540.82 Q1255.3 1539.25 1256.36 1538.15 Q1257.45 1537.02 1258.94 1537.02 Q1259.87 1537.02 1260.61 1537.57 Q1261.38 1538.12 1261.38 1539.31 Q1261.38 1540.63 1260.48 1541.63 Q1259.58 1542.63 1258.29 1542.89 Q1259.61 1543.72 1261.58 1543.72 Q1263.7 1543.72 1265.38 1541.86 Q1267.05 1539.99 1267.86 1536.86 Q1269.85 1529.36 1270.63 1526.01 Q1271.4 1522.63 1271.4 1521.18 Q1271.4 1519.83 1271.05 1518.89 Q1270.69 1517.96 1270.08 1517.54 Q1269.5 1517.09 1268.95 1516.93 Q1268.44 1516.77 1267.86 1516.77 Q1266.89 1516.77 1265.8 1517.15 Q1264.73 1517.54 1263.44 1518.44 Q1262.19 1519.31 1261 1521.11 Q1259.81 1522.92 1259 1525.4 Q1258.84 1526.14 1258.13 1526.14 Q1257.36 1526.11 1257.36 1525.46 Q1257.36 1524.91 1257.78 1523.79 Q1258.23 1522.63 1259.13 1521.18 Q1260.06 1519.73 1261.25 1518.44 Q1262.48 1517.12 1264.25 1516.22 Q1266.05 1515.32 1267.99 1515.32 Q1268.86 1515.32 1269.69 1515.51 Q1270.56 1515.67 1271.59 1516.15 Q1272.66 1516.64 1273.59 1517.7 Q1274.52 1518.76 1275.1 1520.31 Q1275.49 1519.57 1276 1518.86 Q1276.55 1518.15 1277.39 1517.28 Q1278.26 1516.38 1279.45 1515.87 Q1280.67 1515.32 1282.03 1515.32 Q1283.35 1515.32 1284.64 1515.67 Q1285.92 1515.99 1287.02 1517.06 Q1288.15 1518.09 1288.15 1519.67 Z" fill="#000000" fill-rule="nonzero" fill-opacity="1" /><path clip-path="url(#clip440)" d="M1294.87 1537.12 L1294.87 1535.68 Q1300.41 1535.68 1303.28 1532.72 Q1304.07 1532.72 1304.2 1532.91 Q1304.34 1533.09 1304.34 1533.92 L1304.34 1559.82 Q1304.34 1561.2 1305.01 1561.63 Q1305.69 1562.05 1308.64 1562.05 L1310.11 1562.05 L1310.11 1563.47 Q1308.48 1563.34 1302.62 1563.34 Q1296.76 1563.34 1295.16 1563.47 L1295.16 1562.05 L1296.63 1562.05 Q1299.53 1562.05 1300.23 1561.65 Q1300.93 1561.22 1300.93 1559.82 L1300.93 1535.9 Q1298.52 1537.12 1294.87 1537.12 Z" fill="#000000" fill-rule="nonzero" fill-opacity="1" /><polyline clip-path="url(#clip440)" style="stroke:#000000; stroke-linecap:round; stroke-linejoin:round; stroke-width:4; stroke-opacity:1; fill:none" points="219.542,1423.18 219.542,123.472 "/>
<polyline clip-path="url(#clip440)" style="stroke:#000000; stroke-linecap:round; stroke-linejoin:round; stroke-width:4; stroke-opacity:1; fill:none" points="219.542,1310.66 238.44,1310.66 "/>
<polyline clip-path="url(#clip440)" style="stroke:#000000; stroke-linecap:round; stroke-linejoin:round; stroke-width:4; stroke-opacity:1; fill:none" points="219.542,1125.63 238.44,1125.63 "/>
<polyline clip-path="url(#clip440)" style="stroke:#000000; stroke-linecap:round; stroke-linejoin:round; stroke-width:4; stroke-opacity:1; fill:none" points="219.542,940.602 238.44,940.602 "/>
<polyline clip-path="url(#clip440)" style="stroke:#000000; stroke-linecap:round; stroke-linejoin:round; stroke-width:4; stroke-opacity:1; fill:none" points="219.542,755.573 238.44,755.573 "/>
<polyline clip-path="url(#clip440)" style="stroke:#000000; stroke-linecap:round; stroke-linejoin:round; stroke-width:4; stroke-opacity:1; fill:none" points="219.542,570.544 238.44,570.544 "/>
<polyline clip-path="url(#clip440)" style="stroke:#000000; stroke-linecap:round; stroke-linejoin:round; stroke-width:4; stroke-opacity:1; fill:none" points="219.542,385.515 238.44,385.515 "/>
<polyline clip-path="url(#clip440)" style="stroke:#000000; stroke-linecap:round; stroke-linejoin:round; stroke-width:4; stroke-opacity:1; fill:none" points="219.542,200.486 238.44,200.486 "/>
<path clip-path="url(#clip440)" d="M126.205 1296.46 Q122.593 1296.46 120.765 1300.02 Q118.959 1303.57 118.959 1310.7 Q118.959 1317.8 120.765 1321.37 Q122.593 1324.91 126.205 1324.91 Q129.839 1324.91 131.644 1321.37 Q133.473 1317.8 133.473 1310.7 Q133.473 1303.57 131.644 1300.02 Q129.839 1296.46 126.205 1296.46 M126.205 1292.76 Q132.015 1292.76 135.07 1297.36 Q138.149 1301.95 138.149 1310.7 Q138.149 1319.42 135.07 1324.03 Q132.015 1328.61 126.205 1328.61 Q120.394 1328.61 117.316 1324.03 Q114.26 1319.42 114.26 1310.7 Q114.26 1301.95 117.316 1297.36 Q120.394 1292.76 126.205 1292.76 Z" fill="#000000" fill-rule="nonzero" fill-opacity="1" /><path clip-path="url(#clip440)" d="M146.366 1322.06 L151.251 1322.06 L151.251 1327.94 L146.366 1327.94 L146.366 1322.06 Z" fill="#000000" fill-rule="nonzero" fill-opacity="1" /><path clip-path="url(#clip440)" d="M172.014 1308.8 Q168.866 1308.8 167.015 1310.95 Q165.186 1313.1 165.186 1316.85 Q165.186 1320.58 167.015 1322.76 Q168.866 1324.91 172.014 1324.91 Q175.163 1324.91 176.991 1322.76 Q178.843 1320.58 178.843 1316.85 Q178.843 1313.1 176.991 1310.95 Q175.163 1308.8 172.014 1308.8 M181.297 1294.14 L181.297 1298.4 Q179.538 1297.57 177.732 1297.13 Q175.95 1296.69 174.19 1296.69 Q169.561 1296.69 167.107 1299.82 Q164.677 1302.94 164.329 1309.26 Q165.695 1307.25 167.755 1306.18 Q169.815 1305.09 172.292 1305.09 Q177.501 1305.09 180.51 1308.26 Q183.542 1311.41 183.542 1316.85 Q183.542 1322.18 180.394 1325.39 Q177.246 1328.61 172.014 1328.61 Q166.019 1328.61 162.848 1324.03 Q159.677 1319.42 159.677 1310.7 Q159.677 1302.5 163.565 1297.64 Q167.454 1292.76 174.005 1292.76 Q175.764 1292.76 177.547 1293.1 Q179.352 1293.45 181.297 1294.14 Z" fill="#000000" fill-rule="nonzero" fill-opacity="1" /><path clip-path="url(#clip440)" d="M126.459 1111.43 Q122.848 1111.43 121.019 1114.99 Q119.214 1118.54 119.214 1125.67 Q119.214 1132.77 121.019 1136.34 Q122.848 1139.88 126.459 1139.88 Q130.093 1139.88 131.899 1136.34 Q133.728 1132.77 133.728 1125.67 Q133.728 1118.54 131.899 1114.99 Q130.093 1111.43 126.459 1111.43 M126.459 1107.73 Q132.269 1107.73 135.325 1112.33 Q138.404 1116.92 138.404 1125.67 Q138.404 1134.39 135.325 1139 Q132.269 1143.58 126.459 1143.58 Q120.649 1143.58 117.57 1139 Q114.515 1134.39 114.515 1125.67 Q114.515 1116.92 117.57 1112.33 Q120.649 1107.73 126.459 1107.73 Z" fill="#000000" fill-rule="nonzero" fill-opacity="1" /><path clip-path="url(#clip440)" d="M146.621 1137.03 L151.505 1137.03 L151.505 1142.91 L146.621 1142.91 L146.621 1137.03 Z" fill="#000000" fill-rule="nonzero" fill-opacity="1" /><path clip-path="url(#clip440)" d="M171.69 1126.5 Q168.357 1126.5 166.436 1128.28 Q164.538 1130.06 164.538 1133.19 Q164.538 1136.31 166.436 1138.1 Q168.357 1139.88 171.69 1139.88 Q175.024 1139.88 176.945 1138.1 Q178.866 1136.29 178.866 1133.19 Q178.866 1130.06 176.945 1128.28 Q175.047 1126.5 171.69 1126.5 M167.015 1124.51 Q164.005 1123.77 162.315 1121.71 Q160.649 1119.65 160.649 1116.68 Q160.649 1112.54 163.589 1110.13 Q166.552 1107.73 171.69 1107.73 Q176.852 1107.73 179.792 1110.13 Q182.732 1112.54 182.732 1116.68 Q182.732 1119.65 181.042 1121.71 Q179.376 1123.77 176.389 1124.51 Q179.769 1125.3 181.644 1127.59 Q183.542 1129.88 183.542 1133.19 Q183.542 1138.21 180.464 1140.9 Q177.408 1143.58 171.69 1143.58 Q165.973 1143.58 162.894 1140.9 Q159.839 1138.21 159.839 1133.19 Q159.839 1129.88 161.737 1127.59 Q163.635 1125.3 167.015 1124.51 M165.302 1117.12 Q165.302 1119.81 166.968 1121.31 Q168.658 1122.82 171.69 1122.82 Q174.7 1122.82 176.389 1121.31 Q178.102 1119.81 178.102 1117.12 Q178.102 1114.44 176.389 1112.93 Q174.7 1111.43 171.69 1111.43 Q168.658 1111.43 166.968 1112.93 Q165.302 1114.44 165.302 1117.12 Z" fill="#000000" fill-rule="nonzero" fill-opacity="1" /><path clip-path="url(#clip440)" d="M117.177 953.947 L124.816 953.947 L124.816 927.581 L116.506 929.248 L116.506 924.989 L124.769 923.322 L129.445 923.322 L129.445 953.947 L137.084 953.947 L137.084 957.882 L117.177 957.882 L117.177 953.947 Z" fill="#000000" fill-rule="nonzero" fill-opacity="1" /><path clip-path="url(#clip440)" d="M146.529 952.003 L151.413 952.003 L151.413 957.882 L146.529 957.882 L146.529 952.003 Z" fill="#000000" fill-rule="nonzero" fill-opacity="1" /><path clip-path="url(#clip440)" d="M171.598 926.401 Q167.987 926.401 166.158 929.966 Q164.352 933.507 164.352 940.637 Q164.352 947.743 166.158 951.308 Q167.987 954.85 171.598 954.85 Q175.232 954.85 177.038 951.308 Q178.866 947.743 178.866 940.637 Q178.866 933.507 177.038 929.966 Q175.232 926.401 171.598 926.401 M171.598 922.697 Q177.408 922.697 180.464 927.304 Q183.542 931.887 183.542 940.637 Q183.542 949.364 180.464 953.97 Q177.408 958.553 171.598 958.553 Q165.788 958.553 162.709 953.97 Q159.653 949.364 159.653 940.637 Q159.653 931.887 162.709 927.304 Q165.788 922.697 171.598 922.697 Z" fill="#000000" fill-rule="nonzero" fill-opacity="1" /><path clip-path="url(#clip440)" d="M118.774 768.918 L126.413 768.918 L126.413 742.552 L118.103 744.219 L118.103 739.96 L126.367 738.293 L131.042 738.293 L131.042 768.918 L138.681 768.918 L138.681 772.853 L118.774 772.853 L118.774 768.918 Z" fill="#000000" fill-rule="nonzero" fill-opacity="1" /><path clip-path="url(#clip440)" d="M148.126 766.973 L153.01 766.973 L153.01 772.853 L148.126 772.853 L148.126 766.973 Z" fill="#000000" fill-rule="nonzero" fill-opacity="1" /><path clip-path="url(#clip440)" d="M167.223 768.918 L183.542 768.918 L183.542 772.853 L161.598 772.853 L161.598 768.918 Q164.26 766.163 168.843 761.534 Q173.45 756.881 174.63 755.538 Q176.876 753.015 177.755 751.279 Q178.658 749.52 178.658 747.83 Q178.658 745.075 176.714 743.339 Q174.792 741.603 171.69 741.603 Q169.491 741.603 167.038 742.367 Q164.607 743.131 161.829 744.682 L161.829 739.96 Q164.653 738.826 167.107 738.247 Q169.561 737.668 171.598 737.668 Q176.968 737.668 180.163 740.353 Q183.357 743.038 183.357 747.529 Q183.357 749.659 182.547 751.58 Q181.76 753.478 179.653 756.071 Q179.075 756.742 175.973 759.96 Q172.871 763.154 167.223 768.918 Z" fill="#000000" fill-rule="nonzero" fill-opacity="1" /><path clip-path="url(#clip440)" d="M116.691 583.889 L124.33 583.889 L124.33 557.523 L116.019 559.19 L116.019 554.931 L124.283 553.264 L128.959 553.264 L128.959 583.889 L136.598 583.889 L136.598 587.824 L116.691 587.824 L116.691 583.889 Z" fill="#000000" fill-rule="nonzero" fill-opacity="1" /><path clip-path="url(#clip440)" d="M146.042 581.944 L150.927 581.944 L150.927 587.824 L146.042 587.824 L146.042 581.944 Z" fill="#000000" fill-rule="nonzero" fill-opacity="1" /><path clip-path="url(#clip440)" d="M173.959 557.338 L162.153 575.787 L173.959 575.787 L173.959 557.338 M172.732 553.264 L178.612 553.264 L178.612 575.787 L183.542 575.787 L183.542 579.676 L178.612 579.676 L178.612 587.824 L173.959 587.824 L173.959 579.676 L158.357 579.676 L158.357 575.162 L172.732 553.264 Z" fill="#000000" fill-rule="nonzero" fill-opacity="1" /><path clip-path="url(#clip440)" d="M117.015 398.86 L124.654 398.86 L124.654 372.494 L116.343 374.161 L116.343 369.902 L124.607 368.235 L129.283 368.235 L129.283 398.86 L136.922 398.86 L136.922 402.795 L117.015 402.795 L117.015 398.86 Z" fill="#000000" fill-rule="nonzero" fill-opacity="1" /><path clip-path="url(#clip440)" d="M146.366 396.915 L151.251 396.915 L151.251 402.795 L146.366 402.795 L146.366 396.915 Z" fill="#000000" fill-rule="nonzero" fill-opacity="1" /><path clip-path="url(#clip440)" d="M172.014 383.651 Q168.866 383.651 167.015 385.804 Q165.186 387.957 165.186 391.707 Q165.186 395.434 167.015 397.61 Q168.866 399.763 172.014 399.763 Q175.163 399.763 176.991 397.61 Q178.843 395.434 178.843 391.707 Q178.843 387.957 176.991 385.804 Q175.163 383.651 172.014 383.651 M181.297 368.999 L181.297 373.258 Q179.538 372.425 177.732 371.985 Q175.95 371.545 174.19 371.545 Q169.561 371.545 167.107 374.67 Q164.677 377.795 164.329 384.114 Q165.695 382.101 167.755 381.036 Q169.815 379.948 172.292 379.948 Q177.501 379.948 180.51 383.119 Q183.542 386.267 183.542 391.707 Q183.542 397.031 180.394 400.249 Q177.246 403.466 172.014 403.466 Q166.019 403.466 162.848 398.883 Q159.677 394.276 159.677 385.55 Q159.677 377.355 163.565 372.494 Q167.454 367.61 174.005 367.61 Q175.764 367.61 177.547 367.957 Q179.352 368.304 181.297 368.999 Z" fill="#000000" fill-rule="nonzero" fill-opacity="1" /><path clip-path="url(#clip440)" d="M117.269 213.831 L124.908 213.831 L124.908 187.465 L116.598 189.132 L116.598 184.872 L124.862 183.206 L129.538 183.206 L129.538 213.831 L137.177 213.831 L137.177 217.766 L117.269 217.766 L117.269 213.831 Z" fill="#000000" fill-rule="nonzero" fill-opacity="1" /><path clip-path="url(#clip440)" d="M146.621 211.886 L151.505 211.886 L151.505 217.766 L146.621 217.766 L146.621 211.886 Z" fill="#000000" fill-rule="nonzero" fill-opacity="1" /><path clip-path="url(#clip440)" d="M171.69 201.354 Q168.357 201.354 166.436 203.136 Q164.538 204.919 164.538 208.044 Q164.538 211.169 166.436 212.951 Q168.357 214.733 171.69 214.733 Q175.024 214.733 176.945 212.951 Q178.866 211.145 178.866 208.044 Q178.866 204.919 176.945 203.136 Q175.047 201.354 171.69 201.354 M167.015 199.363 Q164.005 198.622 162.315 196.562 Q160.649 194.502 160.649 191.539 Q160.649 187.396 163.589 184.988 Q166.552 182.581 171.69 182.581 Q176.852 182.581 179.792 184.988 Q182.732 187.396 182.732 191.539 Q182.732 194.502 181.042 196.562 Q179.376 198.622 176.389 199.363 Q179.769 200.15 181.644 202.442 Q183.542 204.733 183.542 208.044 Q183.542 213.067 180.464 215.752 Q177.408 218.437 171.69 218.437 Q165.973 218.437 162.894 215.752 Q159.839 213.067 159.839 208.044 Q159.839 204.733 161.737 202.442 Q163.635 200.15 167.015 199.363 M165.302 191.979 Q165.302 194.664 166.968 196.169 Q168.658 197.673 171.69 197.673 Q174.7 197.673 176.389 196.169 Q178.102 194.664 178.102 191.979 Q178.102 189.294 176.389 187.789 Q174.7 186.284 171.69 186.284 Q168.658 186.284 166.968 187.789 Q165.302 189.294 165.302 191.979 Z" fill="#000000" fill-rule="nonzero" fill-opacity="1" /><path clip-path="url(#clip440)" d="M29.8817 772.909 Q31.6852 772.909 32.7158 774.036 Q33.7142 775.163 33.7142 776.452 Q33.7142 777.675 33.0056 778.32 Q32.2971 778.964 31.3954 778.964 Q30.1715 778.964 29.1087 778.062 Q28.0459 777.16 27.8205 775.808 Q26.9831 777.128 26.9831 779.092 Q26.9831 780.381 27.6595 781.508 Q28.3358 782.603 29.2054 783.279 Q30.0749 783.923 31.3309 784.503 Q32.5548 785.051 33.2955 785.276 Q34.004 785.469 34.777 785.63 L43.7946 787.885 Q48.078 788.98 49.5917 788.98 Q51.4596 788.98 52.7156 788.078 Q53.9395 787.176 53.9395 785.373 Q53.9395 784.664 53.7462 783.859 Q53.5208 783.054 52.9411 782.023 Q52.3292 780.96 51.4274 780.026 Q50.4934 779.06 48.9153 778.126 Q47.3373 777.192 45.3083 776.58 Q44.5998 776.387 44.5998 775.743 Q44.5998 774.938 45.2439 774.938 Q45.7914 774.938 46.9508 775.389 Q48.078 775.808 49.5595 776.741 Q51.0087 777.643 52.3292 778.835 Q53.6174 780.026 54.5192 781.798 Q55.4209 783.569 55.4209 785.501 Q55.4209 788.271 53.9395 790.107 Q52.458 791.943 50.3968 792.619 Q50.6867 792.78 51.0731 793.005 Q51.4596 793.231 52.3292 793.907 Q53.1665 794.551 53.8106 795.292 Q54.4225 796.033 54.9056 797.192 Q55.4209 798.319 55.4209 799.543 Q55.4209 801.089 54.97 802.474 Q54.5192 803.827 53.4886 804.793 Q52.458 805.759 51.0409 805.759 Q49.4628 805.759 48.3678 804.696 Q47.2406 803.601 47.2406 802.12 Q47.2406 801.186 47.7881 800.445 Q48.3356 799.672 49.5273 799.672 Q50.8477 799.672 51.8461 800.574 Q52.8445 801.476 53.1021 802.764 Q53.9395 801.443 53.9395 799.479 Q53.9395 797.353 52.0715 795.679 Q50.2036 794.004 47.0796 793.199 Q39.5756 791.202 36.2262 790.429 Q32.8446 789.656 31.3954 789.656 Q30.0427 789.656 29.1087 790.01 Q28.1748 790.365 27.7561 790.976 Q27.3052 791.556 27.1442 792.104 Q26.9831 792.619 26.9831 793.199 Q26.9831 794.165 27.3696 795.26 Q27.7561 796.323 28.6579 797.611 Q29.5274 798.867 31.3309 800.059 Q33.1345 801.25 35.6143 802.055 Q36.3551 802.216 36.3551 802.925 Q36.3228 803.698 35.6787 803.698 Q35.1312 803.698 34.004 803.279 Q32.8446 802.828 31.3954 801.926 Q29.9461 800.992 28.6579 799.801 Q27.3374 798.577 26.4356 796.806 Q25.5339 795.002 25.5339 793.07 Q25.5339 792.2 25.7271 791.363 Q25.8881 790.493 26.3712 789.463 Q26.8543 788.4 27.9171 787.466 Q28.9799 786.532 30.5258 785.952 Q29.7851 785.566 29.0765 785.051 Q28.368 784.503 27.4984 783.666 Q26.5967 782.796 26.0814 781.605 Q25.5339 780.381 25.5339 779.028 Q25.5339 777.708 25.8881 776.419 Q26.2102 775.131 27.273 774.036 Q28.3036 772.909 29.8817 772.909 Z" fill="#000000" fill-rule="nonzero" fill-opacity="1" /><path clip-path="url(#clip440)" d="M73.6911 766.188 Q72.857 766.188 72.609 766.12 Q72.361 766.03 71.9778 765.669 L62.1035 756.809 Q56.6478 751.962 51.891 751.962 Q48.8024 751.962 46.5931 753.586 Q44.3838 755.186 44.3838 758.139 Q44.3838 760.168 45.6237 761.882 Q46.8636 763.595 49.073 764.384 Q49.0279 764.249 49.0279 763.775 Q49.0279 762.626 49.7493 761.994 Q50.4707 761.341 51.4401 761.341 Q52.68 761.341 53.2887 762.152 Q53.8749 762.941 53.8749 763.73 Q53.8749 764.046 53.8072 764.474 Q53.7396 764.88 53.1084 765.534 Q52.4546 766.188 51.3048 766.188 Q48.081 766.188 45.511 763.753 Q42.941 761.296 42.941 757.553 Q42.941 753.315 45.4659 750.542 Q47.9683 747.747 51.891 747.747 Q53.2662 747.747 54.5286 748.175 Q55.7686 748.581 56.738 749.144 Q57.7074 749.685 59.2629 751.173 Q60.8184 752.661 61.9231 753.856 Q63.0278 755.051 65.3724 757.734 L70.1292 762.626 L70.1292 754.307 Q70.1292 750.249 69.7685 749.933 Q69.1147 749.483 65.6654 748.919 L65.6654 747.747 L73.6911 749.054 L73.6911 766.188 Z" fill="#000000" fill-rule="nonzero" fill-opacity="1" /><path clip-path="url(#clip440)" d="M234.798 43.6931 L234.798 65.8515 L247.923 65.8515 Q254.526 65.8515 257.685 63.1374 Q260.885 60.3828 260.885 54.752 Q260.885 49.0808 257.685 46.4072 Q254.526 43.6931 247.923 43.6931 L234.798 43.6931 M234.798 18.8205 L234.798 37.0496 L246.91 37.0496 Q252.905 37.0496 255.822 34.8216 Q258.779 32.5531 258.779 27.935 Q258.779 23.3575 255.822 21.089 Q252.905 18.8205 246.91 18.8205 L234.798 18.8205 M226.615 12.096 L247.517 12.096 Q256.875 12.096 261.939 15.9849 Q267.002 19.8737 267.002 27.0438 Q267.002 32.5936 264.41 35.8748 Q261.817 39.156 256.794 39.9662 Q262.83 41.2625 266.152 45.3944 Q269.514 49.4858 269.514 55.6432 Q269.514 63.745 264.005 68.1605 Q258.495 72.576 248.328 72.576 L226.615 72.576 L226.615 12.096 Z" fill="#000000" fill-rule="nonzero" fill-opacity="1" /><path clip-path="url(#clip440)" d="M300.787 32.4315 Q294.792 32.4315 291.308 37.1306 Q287.824 41.7891 287.824 49.9314 Q287.824 58.0738 291.267 62.7728 Q294.751 67.4314 300.787 67.4314 Q306.742 67.4314 310.225 62.7323 Q313.709 58.0333 313.709 49.9314 Q313.709 41.8701 310.225 37.1711 Q306.742 32.4315 300.787 32.4315 M300.787 26.1121 Q310.509 26.1121 316.059 32.4315 Q321.609 38.7509 321.609 49.9314 Q321.609 61.0714 316.059 67.4314 Q310.509 73.7508 300.787 73.7508 Q291.024 73.7508 285.474 67.4314 Q279.965 61.0714 279.965 49.9314 Q279.965 38.7509 285.474 32.4315 Q291.024 26.1121 300.787 26.1121 Z" fill="#000000" fill-rule="nonzero" fill-opacity="1" /><path clip-path="url(#clip440)" d="M333.194 54.671 L333.194 27.2059 L340.648 27.2059 L340.648 54.3874 Q340.648 60.8284 343.159 64.0691 Q345.671 67.2693 350.694 67.2693 Q356.73 67.2693 360.214 63.421 Q363.738 59.5726 363.738 52.9291 L363.738 27.2059 L371.192 27.2059 L371.192 72.576 L363.738 72.576 L363.738 65.6084 Q361.024 69.7404 357.418 71.7658 Q353.854 73.7508 349.114 73.7508 Q341.296 73.7508 337.245 68.8897 Q333.194 64.0286 333.194 54.671 M351.95 26.1121 L351.95 26.1121 Z" fill="#000000" fill-rule="nonzero" fill-opacity="1" /><path clip-path="url(#clip440)" d="M424.258 45.1919 L424.258 72.576 L416.805 72.576 L416.805 45.4349 Q416.805 38.994 414.293 35.7938 Q411.782 32.5936 406.759 32.5936 Q400.723 32.5936 397.239 36.4419 Q393.755 40.2903 393.755 46.9338 L393.755 72.576 L386.261 72.576 L386.261 27.2059 L393.755 27.2059 L393.755 34.2544 Q396.429 30.163 400.034 28.1376 Q403.68 26.1121 408.419 26.1121 Q416.238 26.1121 420.248 30.9732 Q424.258 35.7938 424.258 45.1919 Z" fill="#000000" fill-rule="nonzero" fill-opacity="1" /><path clip-path="url(#clip440)" d="M471.776 28.9478 L471.776 35.9153 Q468.616 34.1734 465.416 33.3227 Q462.256 32.4315 459.015 32.4315 Q451.764 32.4315 447.754 37.0496 Q443.743 41.6271 443.743 49.9314 Q443.743 58.2358 447.754 62.8538 Q451.764 67.4314 459.015 67.4314 Q462.256 67.4314 465.416 66.5807 Q468.616 65.6895 471.776 63.9476 L471.776 70.8341 Q468.656 72.2924 465.294 73.0216 Q461.972 73.7508 458.205 73.7508 Q447.956 73.7508 441.92 67.3098 Q435.885 60.8689 435.885 49.9314 Q435.885 38.832 441.961 32.472 Q448.078 26.1121 458.691 26.1121 Q462.134 26.1121 465.416 26.8413 Q468.697 27.5299 471.776 28.9478 Z" fill="#000000" fill-rule="nonzero" fill-opacity="1" /><path clip-path="url(#clip440)" d="M503.616 76.7889 Q500.456 84.8907 497.458 87.3618 Q494.461 89.8329 489.437 89.8329 L483.483 89.8329 L483.483 83.5945 L487.858 83.5945 Q490.936 83.5945 492.638 82.1361 Q494.339 80.6778 496.405 75.2496 L497.742 71.8468 L479.391 27.2059 L487.29 27.2059 L501.469 62.6918 L515.647 27.2059 L523.546 27.2059 L503.616 76.7889 Z" fill="#000000" fill-rule="nonzero" fill-opacity="1" /><path clip-path="url(#clip440)" d="M568.714 18.8205 L568.714 41.5461 L579.003 41.5461 Q584.715 41.5461 587.834 38.5889 Q590.953 35.6318 590.953 30.163 Q590.953 24.7348 587.834 21.7777 Q584.715 18.8205 579.003 18.8205 L568.714 18.8205 M560.531 12.096 L579.003 12.096 Q589.171 12.096 594.356 16.714 Q599.582 21.2916 599.582 30.163 Q599.582 39.1155 594.356 43.6931 Q589.171 48.2706 579.003 48.2706 L568.714 48.2706 L568.714 72.576 L560.531 72.576 L560.531 12.096 Z" fill="#000000" fill-rule="nonzero" fill-opacity="1" /><path clip-path="url(#clip440)" d="M627.128 49.7694 Q618.094 49.7694 614.61 51.8354 Q611.127 53.9013 611.127 58.8839 Q611.127 62.8538 613.719 65.2034 Q616.352 67.5124 620.849 67.5124 Q627.047 67.5124 630.774 63.1374 Q634.541 58.7219 634.541 51.4303 L634.541 49.7694 L627.128 49.7694 M641.995 46.6907 L641.995 72.576 L634.541 72.576 L634.541 65.6895 Q631.989 69.8214 628.181 71.8063 Q624.373 73.7508 618.864 73.7508 Q611.896 73.7508 607.764 69.8619 Q603.673 65.9325 603.673 59.3701 Q603.673 51.7138 608.777 47.825 Q613.922 43.9361 624.09 43.9361 L634.541 43.9361 L634.541 43.2069 Q634.541 38.0623 631.138 35.2672 Q627.776 32.4315 621.659 32.4315 Q617.77 32.4315 614.084 33.3632 Q610.397 34.295 606.995 36.1584 L606.995 29.2718 Q611.086 27.692 614.934 26.9223 Q618.783 26.1121 622.429 26.1121 Q632.272 26.1121 637.133 31.2163 Q641.995 36.3204 641.995 46.6907 Z" fill="#000000" fill-rule="nonzero" fill-opacity="1" /><path clip-path="url(#clip440)" d="M683.638 34.1734 Q682.382 33.4443 680.883 33.1202 Q679.425 32.7556 677.642 32.7556 Q671.323 32.7556 667.92 36.8875 Q664.558 40.9789 664.558 48.6757 L664.558 72.576 L657.064 72.576 L657.064 27.2059 L664.558 27.2059 L664.558 34.2544 Q666.908 30.1225 670.675 28.1376 Q674.442 26.1121 679.83 26.1121 Q680.6 26.1121 681.531 26.2337 Q682.463 26.3147 683.597 26.5172 L683.638 34.1734 Z" fill="#000000" fill-rule="nonzero" fill-opacity="1" /><path clip-path="url(#clip440)" d="M698.829 14.324 L698.829 27.2059 L714.182 27.2059 L714.182 32.9987 L698.829 32.9987 L698.829 57.6282 Q698.829 63.1779 700.328 64.7578 Q701.867 66.3376 706.525 66.3376 L714.182 66.3376 L714.182 72.576 L706.525 72.576 Q697.897 72.576 694.616 69.3758 Q691.335 66.1351 691.335 57.6282 L691.335 32.9987 L685.866 32.9987 L685.866 27.2059 L691.335 27.2059 L691.335 14.324 L698.829 14.324 Z" fill="#000000" fill-rule="nonzero" fill-opacity="1" /><path clip-path="url(#clip440)" d="M723.985 27.2059 L731.438 27.2059 L731.438 72.576 L723.985 72.576 L723.985 27.2059 M723.985 9.54393 L731.438 9.54393 L731.438 18.9825 L723.985 18.9825 L723.985 9.54393 Z" fill="#000000" fill-rule="nonzero" fill-opacity="1" /><path clip-path="url(#clip440)" d="M779.685 28.9478 L779.685 35.9153 Q776.525 34.1734 773.325 33.3227 Q770.165 32.4315 766.924 32.4315 Q759.673 32.4315 755.663 37.0496 Q751.652 41.6271 751.652 49.9314 Q751.652 58.2358 755.663 62.8538 Q759.673 67.4314 766.924 67.4314 Q770.165 67.4314 773.325 66.5807 Q776.525 65.6895 779.685 63.9476 L779.685 70.8341 Q776.566 72.2924 773.203 73.0216 Q769.882 73.7508 766.114 73.7508 Q755.865 73.7508 749.83 67.3098 Q743.794 60.8689 743.794 49.9314 Q743.794 38.832 749.87 32.472 Q755.987 26.1121 766.6 26.1121 Q770.044 26.1121 773.325 26.8413 Q776.606 27.5299 779.685 28.9478 Z" fill="#000000" fill-rule="nonzero" fill-opacity="1" /><path clip-path="url(#clip440)" d="M792.648 9.54393 L800.101 9.54393 L800.101 72.576 L792.648 72.576 L792.648 9.54393 Z" fill="#000000" fill-rule="nonzero" fill-opacity="1" /><path clip-path="url(#clip440)" d="M854.505 48.0275 L854.505 51.6733 L820.234 51.6733 Q820.72 59.3701 824.852 63.421 Q829.025 67.4314 836.438 67.4314 Q840.732 67.4314 844.742 66.3781 Q848.793 65.3249 852.763 63.2184 L852.763 70.267 Q848.753 71.9684 844.54 72.8596 Q840.327 73.7508 835.992 73.7508 Q825.136 73.7508 818.776 67.4314 Q812.457 61.1119 812.457 50.3365 Q812.457 39.1965 818.452 32.6746 Q824.488 26.1121 834.696 26.1121 Q843.851 26.1121 849.158 32.0264 Q854.505 37.9003 854.505 48.0275 M847.051 45.84 Q846.97 39.7232 843.608 36.0774 Q840.286 32.4315 834.777 32.4315 Q828.539 32.4315 824.771 35.9558 Q821.044 39.4801 820.477 45.8805 L847.051 45.84 Z" fill="#000000" fill-rule="nonzero" fill-opacity="1" /><path clip-path="url(#clip440)" d="M929.69 14.0809 L929.69 22.0612 Q925.031 19.8332 920.899 18.7395 Q916.767 17.6457 912.919 17.6457 Q906.235 17.6457 902.589 20.2383 Q898.984 22.8309 898.984 27.611 Q898.984 31.6214 901.374 33.6873 Q903.804 35.7128 910.529 36.9686 L915.471 37.9813 Q924.626 39.7232 928.961 44.1387 Q933.336 48.5136 933.336 55.8863 Q933.336 64.6767 927.421 69.2137 Q921.547 73.7508 910.164 73.7508 Q905.87 73.7508 901.009 72.7785 Q896.189 71.8063 891.004 69.9024 L891.004 61.4765 Q895.986 64.2716 900.766 65.6895 Q905.546 67.1073 910.164 67.1073 Q917.172 67.1073 920.98 64.3527 Q924.788 61.598 924.788 56.4939 Q924.788 52.0379 922.034 49.5264 Q919.319 47.0148 913.081 45.759 L908.098 44.7868 Q898.943 42.9639 894.852 39.075 Q890.761 35.1862 890.761 28.2591 Q890.761 20.2383 896.391 15.6203 Q902.063 11.0023 911.987 11.0023 Q916.241 11.0023 920.656 11.7719 Q925.072 12.5416 929.69 14.0809 Z" fill="#000000" fill-rule="nonzero" fill-opacity="1" /><path clip-path="url(#clip440)" d="M966.391 49.7694 Q957.357 49.7694 953.874 51.8354 Q950.39 53.9013 950.39 58.8839 Q950.39 62.8538 952.982 65.2034 Q955.616 67.5124 960.112 67.5124 Q966.31 67.5124 970.037 63.1374 Q973.804 58.7219 973.804 51.4303 L973.804 49.7694 L966.391 49.7694 M981.258 46.6907 L981.258 72.576 L973.804 72.576 L973.804 65.6895 Q971.252 69.8214 967.444 71.8063 Q963.636 73.7508 958.127 73.7508 Q951.16 73.7508 947.028 69.8619 Q942.936 65.9325 942.936 59.3701 Q942.936 51.7138 948.04 47.825 Q953.185 43.9361 963.353 43.9361 L973.804 43.9361 L973.804 43.2069 Q973.804 38.0623 970.401 35.2672 Q967.039 32.4315 960.922 32.4315 Q957.033 32.4315 953.347 33.3632 Q949.661 34.295 946.258 36.1584 L946.258 29.2718 Q950.349 27.692 954.198 26.9223 Q958.046 26.1121 961.692 26.1121 Q971.536 26.1121 976.397 31.2163 Q981.258 36.3204 981.258 46.6907 Z" fill="#000000" fill-rule="nonzero" fill-opacity="1" /><path clip-path="url(#clip440)" d="M1031.93 35.9153 Q1034.73 30.8922 1038.62 28.5022 Q1042.51 26.1121 1047.77 26.1121 Q1054.86 26.1121 1058.71 31.0947 Q1062.56 36.0368 1062.56 45.1919 L1062.56 72.576 L1055.07 72.576 L1055.07 45.4349 Q1055.07 38.913 1052.76 35.7533 Q1050.45 32.5936 1045.71 32.5936 Q1039.91 32.5936 1036.55 36.4419 Q1033.19 40.2903 1033.19 46.9338 L1033.19 72.576 L1025.7 72.576 L1025.7 45.4349 Q1025.7 38.8725 1023.39 35.7533 Q1021.08 32.5936 1016.26 32.5936 Q1010.55 32.5936 1007.18 36.4824 Q1003.82 40.3308 1003.82 46.9338 L1003.82 72.576 L996.327 72.576 L996.327 27.2059 L1003.82 27.2059 L1003.82 34.2544 Q1006.37 30.082 1009.94 28.0971 Q1013.5 26.1121 1018.4 26.1121 Q1023.35 26.1121 1026.79 28.6237 Q1030.27 31.1352 1031.93 35.9153 Z" fill="#000000" fill-rule="nonzero" fill-opacity="1" /><path clip-path="url(#clip440)" d="M1084.64 65.7705 L1084.64 89.8329 L1077.14 89.8329 L1077.14 27.2059 L1084.64 27.2059 L1084.64 34.0924 Q1086.99 30.0415 1090.55 28.0971 Q1094.16 26.1121 1099.14 26.1121 Q1107.4 26.1121 1112.55 32.6746 Q1117.73 39.2371 1117.73 49.9314 Q1117.73 60.6258 1112.55 67.1883 Q1107.4 73.7508 1099.14 73.7508 Q1094.16 73.7508 1090.55 71.8063 Q1086.99 69.8214 1084.64 65.7705 M1110 49.9314 Q1110 41.7081 1106.59 37.0496 Q1103.23 32.3505 1097.32 32.3505 Q1091.4 32.3505 1088 37.0496 Q1084.64 41.7081 1084.64 49.9314 Q1084.64 58.1548 1088 62.8538 Q1091.4 67.5124 1097.32 67.5124 Q1103.23 67.5124 1106.59 62.8538 Q1110 58.1548 1110 49.9314 Z" fill="#000000" fill-rule="nonzero" fill-opacity="1" /><path clip-path="url(#clip440)" d="M1130.09 9.54393 L1137.54 9.54393 L1137.54 72.576 L1130.09 72.576 L1130.09 9.54393 Z" fill="#000000" fill-rule="nonzero" fill-opacity="1" /><path clip-path="url(#clip440)" d="M1191.95 48.0275 L1191.95 51.6733 L1157.67 51.6733 Q1158.16 59.3701 1162.29 63.421 Q1166.47 67.4314 1173.88 67.4314 Q1178.17 67.4314 1182.18 66.3781 Q1186.23 65.3249 1190.2 63.2184 L1190.2 70.267 Q1186.19 71.9684 1181.98 72.8596 Q1177.77 73.7508 1173.43 73.7508 Q1162.58 73.7508 1156.22 67.4314 Q1149.9 61.1119 1149.9 50.3365 Q1149.9 39.1965 1155.89 32.6746 Q1161.93 26.1121 1172.14 26.1121 Q1181.29 26.1121 1186.6 32.0264 Q1191.95 37.9003 1191.95 48.0275 M1184.49 45.84 Q1184.41 39.7232 1181.05 36.0774 Q1177.73 32.4315 1172.22 32.4315 Q1165.98 32.4315 1162.21 35.9558 Q1158.48 39.4801 1157.92 45.8805 L1184.49 45.84 Z" fill="#000000" fill-rule="nonzero" fill-opacity="1" /><path clip-path="url(#clip440)" d="M1230.47 34.1734 Q1229.21 33.4443 1227.71 33.1202 Q1226.26 32.7556 1224.47 32.7556 Q1218.15 32.7556 1214.75 36.8875 Q1211.39 40.9789 1211.39 48.6757 L1211.39 72.576 L1203.9 72.576 L1203.9 27.2059 L1211.39 27.2059 L1211.39 34.2544 Q1213.74 30.1225 1217.51 28.1376 Q1221.27 26.1121 1226.66 26.1121 Q1227.43 26.1121 1228.36 26.2337 Q1229.29 26.3147 1230.43 26.5172 L1230.47 34.1734 Z" fill="#000000" fill-rule="nonzero" fill-opacity="1" /><path clip-path="url(#clip440)" d="M1260.32 27.2059 L1267.78 27.2059 L1277.1 62.6108 L1286.37 27.2059 L1295.16 27.2059 L1304.48 62.6108 L1313.76 27.2059 L1321.21 27.2059 L1309.34 72.576 L1300.55 72.576 L1290.79 35.3887 L1280.98 72.576 L1272.19 72.576 L1260.32 27.2059 Z" fill="#000000" fill-rule="nonzero" fill-opacity="1" /><path clip-path="url(#clip440)" d="M1332.51 27.2059 L1339.97 27.2059 L1339.97 72.576 L1332.51 72.576 L1332.51 27.2059 M1332.51 9.54393 L1339.97 9.54393 L1339.97 18.9825 L1332.51 18.9825 L1332.51 9.54393 Z" fill="#000000" fill-rule="nonzero" fill-opacity="1" /><path clip-path="url(#clip440)" d="M1362.93 14.324 L1362.93 27.2059 L1378.29 27.2059 L1378.29 32.9987 L1362.93 32.9987 L1362.93 57.6282 Q1362.93 63.1779 1364.43 64.7578 Q1365.97 66.3376 1370.63 66.3376 L1378.29 66.3376 L1378.29 72.576 L1370.63 72.576 Q1362 72.576 1358.72 69.3758 Q1355.44 66.1351 1355.44 57.6282 L1355.44 32.9987 L1349.97 32.9987 L1349.97 27.2059 L1355.44 27.2059 L1355.44 14.324 L1362.93 14.324 Z" fill="#000000" fill-rule="nonzero" fill-opacity="1" /><path clip-path="url(#clip440)" d="M1425.8 45.1919 L1425.8 72.576 L1418.35 72.576 L1418.35 45.4349 Q1418.35 38.994 1415.84 35.7938 Q1413.33 32.5936 1408.3 32.5936 Q1402.27 32.5936 1398.78 36.4419 Q1395.3 40.2903 1395.3 46.9338 L1395.3 72.576 L1387.81 72.576 L1387.81 9.54393 L1395.3 9.54393 L1395.3 34.2544 Q1397.97 30.163 1401.58 28.1376 Q1405.23 26.1121 1409.96 26.1121 Q1417.78 26.1121 1421.79 30.9732 Q1425.8 35.7938 1425.8 45.1919 Z" fill="#000000" fill-rule="nonzero" fill-opacity="1" /><path clip-path="url(#clip440)" d="M1467.37 12.096 L1478.38 12.096 L1505.2 62.6918 L1505.2 12.096 L1513.14 12.096 L1513.14 72.576 L1502.12 72.576 L1475.31 21.9802 L1475.31 72.576 L1467.37 72.576 L1467.37 12.096 Z" fill="#000000" fill-rule="nonzero" fill-opacity="1" /><path clip-path="url(#clip440)" d="M1546.68 32.4315 Q1540.69 32.4315 1537.2 37.1306 Q1533.72 41.7891 1533.72 49.9314 Q1533.72 58.0738 1537.16 62.7728 Q1540.65 67.4314 1546.68 67.4314 Q1552.64 67.4314 1556.12 62.7323 Q1559.61 58.0333 1559.61 49.9314 Q1559.61 41.8701 1556.12 37.1711 Q1552.64 32.4315 1546.68 32.4315 M1546.68 26.1121 Q1556.41 26.1121 1561.95 32.4315 Q1567.5 38.7509 1567.5 49.9314 Q1567.5 61.0714 1561.95 67.4314 Q1556.41 73.7508 1546.68 73.7508 Q1536.92 73.7508 1531.37 67.4314 Q1525.86 61.0714 1525.86 49.9314 Q1525.86 38.7509 1531.37 32.4315 Q1536.92 26.1121 1546.68 26.1121 Z" fill="#000000" fill-rule="nonzero" fill-opacity="1" /><path clip-path="url(#clip440)" d="M1606.15 34.1734 Q1604.89 33.4443 1603.4 33.1202 Q1601.94 32.7556 1600.15 32.7556 Q1593.84 32.7556 1590.43 36.8875 Q1587.07 40.9789 1587.07 48.6757 L1587.07 72.576 L1579.58 72.576 L1579.58 27.2059 L1587.07 27.2059 L1587.07 34.2544 Q1589.42 30.1225 1593.19 28.1376 Q1596.95 26.1121 1602.34 26.1121 Q1603.11 26.1121 1604.04 26.2337 Q1604.98 26.3147 1606.11 26.5172 L1606.15 34.1734 Z" fill="#000000" fill-rule="nonzero" fill-opacity="1" /><path clip-path="url(#clip440)" d="M1647.83 35.9153 Q1650.63 30.8922 1654.52 28.5022 Q1658.41 26.1121 1663.67 26.1121 Q1670.76 26.1121 1674.61 31.0947 Q1678.46 36.0368 1678.46 45.1919 L1678.46 72.576 L1670.96 72.576 L1670.96 45.4349 Q1670.96 38.913 1668.66 35.7533 Q1666.35 32.5936 1661.61 32.5936 Q1655.81 32.5936 1652.45 36.4419 Q1649.09 40.2903 1649.09 46.9338 L1649.09 72.576 L1641.6 72.576 L1641.6 45.4349 Q1641.6 38.8725 1639.29 35.7533 Q1636.98 32.5936 1632.16 32.5936 Q1626.45 32.5936 1623.08 36.4824 Q1619.72 40.3308 1619.72 46.9338 L1619.72 72.576 L1612.23 72.576 L1612.23 27.2059 L1619.72 27.2059 L1619.72 34.2544 Q1622.27 30.082 1625.84 28.0971 Q1629.4 26.1121 1634.3 26.1121 Q1639.25 26.1121 1642.69 28.6237 Q1646.17 31.1352 1647.83 35.9153 Z" fill="#000000" fill-rule="nonzero" fill-opacity="1" /><path clip-path="url(#clip440)" d="M1713.94 49.7694 Q1704.91 49.7694 1701.43 51.8354 Q1697.94 53.9013 1697.94 58.8839 Q1697.94 62.8538 1700.54 65.2034 Q1703.17 67.5124 1707.67 67.5124 Q1713.86 67.5124 1717.59 63.1374 Q1721.36 58.7219 1721.36 51.4303 L1721.36 49.7694 L1713.94 49.7694 M1728.81 46.6907 L1728.81 72.576 L1721.36 72.576 L1721.36 65.6895 Q1718.81 69.8214 1715 71.8063 Q1711.19 73.7508 1705.68 73.7508 Q1698.71 73.7508 1694.58 69.8619 Q1690.49 65.9325 1690.49 59.3701 Q1690.49 51.7138 1695.59 47.825 Q1700.74 43.9361 1710.91 43.9361 L1721.36 43.9361 L1721.36 43.2069 Q1721.36 38.0623 1717.96 35.2672 Q1714.59 32.4315 1708.48 32.4315 Q1704.59 32.4315 1700.9 33.3632 Q1697.21 34.295 1693.81 36.1584 L1693.81 29.2718 Q1697.9 27.692 1701.75 26.9223 Q1705.6 26.1121 1709.25 26.1121 Q1719.09 26.1121 1723.95 31.2163 Q1728.81 36.3204 1728.81 46.6907 Z" fill="#000000" fill-rule="nonzero" fill-opacity="1" /><path clip-path="url(#clip440)" d="M1744.16 9.54393 L1751.62 9.54393 L1751.62 72.576 L1744.16 72.576 L1744.16 9.54393 Z" fill="#000000" fill-rule="nonzero" fill-opacity="1" /><path clip-path="url(#clip440)" d="M1767.21 27.2059 L1774.67 27.2059 L1774.67 72.576 L1767.21 72.576 L1767.21 27.2059 M1767.21 9.54393 L1774.67 9.54393 L1774.67 18.9825 L1767.21 18.9825 L1767.21 9.54393 Z" fill="#000000" fill-rule="nonzero" fill-opacity="1" /><path clip-path="url(#clip440)" d="M1787.02 27.2059 L1822.43 27.2059 L1822.43 34.0114 L1794.4 66.6212 L1822.43 66.6212 L1822.43 72.576 L1786.01 72.576 L1786.01 65.7705 L1814.04 33.1607 L1787.02 33.1607 L1787.02 27.2059 Z" fill="#000000" fill-rule="nonzero" fill-opacity="1" /><path clip-path="url(#clip440)" d="M1872.62 48.0275 L1872.62 51.6733 L1838.35 51.6733 Q1838.83 59.3701 1842.97 63.421 Q1847.14 67.4314 1854.55 67.4314 Q1858.85 67.4314 1862.86 66.3781 Q1866.91 65.3249 1870.88 63.2184 L1870.88 70.267 Q1866.87 71.9684 1862.65 72.8596 Q1858.44 73.7508 1854.11 73.7508 Q1843.25 73.7508 1836.89 67.4314 Q1830.57 61.1119 1830.57 50.3365 Q1830.57 39.1965 1836.57 32.6746 Q1842.6 26.1121 1852.81 26.1121 Q1861.96 26.1121 1867.27 32.0264 Q1872.62 37.9003 1872.62 48.0275 M1865.17 45.84 Q1865.08 39.7232 1861.72 36.0774 Q1858.4 32.4315 1852.89 32.4315 Q1846.65 32.4315 1842.89 35.9558 Q1839.16 39.4801 1838.59 45.8805 L1865.17 45.84 Z" fill="#000000" fill-rule="nonzero" fill-opacity="1" /><path clip-path="url(#clip440)" d="M1914.71 34.0924 L1914.71 9.54393 L1922.16 9.54393 L1922.16 72.576 L1914.71 72.576 L1914.71 65.7705 Q1912.36 69.8214 1908.75 71.8063 Q1905.19 73.7508 1900.16 73.7508 Q1891.94 73.7508 1886.76 67.1883 Q1881.61 60.6258 1881.61 49.9314 Q1881.61 39.2371 1886.76 32.6746 Q1891.94 26.1121 1900.16 26.1121 Q1905.19 26.1121 1908.75 28.0971 Q1912.36 30.0415 1914.71 34.0924 M1889.31 49.9314 Q1889.31 58.1548 1892.67 62.8538 Q1896.07 67.5124 1901.99 67.5124 Q1907.9 67.5124 1911.3 62.8538 Q1914.71 58.1548 1914.71 49.9314 Q1914.71 41.7081 1911.3 37.0496 Q1907.9 32.3505 1901.99 32.3505 Q1896.07 32.3505 1892.67 37.0496 Q1889.31 41.7081 1889.31 49.9314 Z" fill="#000000" fill-rule="nonzero" fill-opacity="1" /><path clip-path="url(#clip440)" d="M1979.81 72.576 L1956.72 12.096 L1965.26 12.096 L1984.42 63.0159 L2003.62 12.096 L2012.13 12.096 L1989.08 72.576 L1979.81 72.576 Z" fill="#000000" fill-rule="nonzero" fill-opacity="1" /><path clip-path="url(#clip440)" d="M2053.01 48.0275 L2053.01 51.6733 L2018.73 51.6733 Q2019.22 59.3701 2023.35 63.421 Q2027.53 67.4314 2034.94 67.4314 Q2039.23 67.4314 2043.24 66.3781 Q2047.29 65.3249 2051.26 63.2184 L2051.26 70.267 Q2047.25 71.9684 2043.04 72.8596 Q2038.83 73.7508 2034.49 73.7508 Q2023.64 73.7508 2017.28 67.4314 Q2010.96 61.1119 2010.96 50.3365 Q2010.96 39.1965 2016.95 32.6746 Q2022.99 26.1121 2033.2 26.1121 Q2042.35 26.1121 2047.66 32.0264 Q2053.01 37.9003 2053.01 48.0275 M2045.55 45.84 Q2045.47 39.7232 2042.11 36.0774 Q2038.79 32.4315 2033.28 32.4315 Q2027.04 32.4315 2023.27 35.9558 Q2019.55 39.4801 2018.98 45.8805 L2045.55 45.84 Z" fill="#000000" fill-rule="nonzero" fill-opacity="1" /><path clip-path="url(#clip440)" d="M2065.24 9.54393 L2072.69 9.54393 L2072.69 72.576 L2065.24 72.576 L2065.24 9.54393 Z" fill="#000000" fill-rule="nonzero" fill-opacity="1" /><path clip-path="url(#clip440)" d="M2105.87 32.4315 Q2099.87 32.4315 2096.39 37.1306 Q2092.91 41.7891 2092.91 49.9314 Q2092.91 58.0738 2096.35 62.7728 Q2099.83 67.4314 2105.87 67.4314 Q2111.82 67.4314 2115.31 62.7323 Q2118.79 58.0333 2118.79 49.9314 Q2118.79 41.8701 2115.31 37.1711 Q2111.82 32.4315 2105.87 32.4315 M2105.87 26.1121 Q2115.59 26.1121 2121.14 32.4315 Q2126.69 38.7509 2126.69 49.9314 Q2126.69 61.0714 2121.14 67.4314 Q2115.59 73.7508 2105.87 73.7508 Q2096.11 73.7508 2090.56 67.4314 Q2085.05 61.0714 2085.05 49.9314 Q2085.05 38.7509 2090.56 32.4315 Q2096.11 26.1121 2105.87 26.1121 Z" fill="#000000" fill-rule="nonzero" fill-opacity="1" /><path clip-path="url(#clip440)" d="M2171.7 28.9478 L2171.7 35.9153 Q2168.54 34.1734 2165.34 33.3227 Q2162.18 32.4315 2158.94 32.4315 Q2151.69 32.4315 2147.68 37.0496 Q2143.66 41.6271 2143.66 49.9314 Q2143.66 58.2358 2147.68 62.8538 Q2151.69 67.4314 2158.94 67.4314 Q2162.18 67.4314 2165.34 66.5807 Q2168.54 65.6895 2171.7 63.9476 L2171.7 70.8341 Q2168.58 72.2924 2165.22 73.0216 Q2161.89 73.7508 2158.13 73.7508 Q2147.88 73.7508 2141.84 67.3098 Q2135.81 60.8689 2135.81 49.9314 Q2135.81 38.832 2141.88 32.472 Q2148 26.1121 2158.61 26.1121 Q2162.06 26.1121 2165.34 26.8413 Q2168.62 27.5299 2171.7 28.9478 Z" fill="#000000" fill-rule="nonzero" fill-opacity="1" /><path clip-path="url(#clip440)" d="M2184.66 27.2059 L2192.11 27.2059 L2192.11 72.576 L2184.66 72.576 L2184.66 27.2059 M2184.66 9.54393 L2192.11 9.54393 L2192.11 18.9825 L2184.66 18.9825 L2184.66 9.54393 Z" fill="#000000" fill-rule="nonzero" fill-opacity="1" /><path clip-path="url(#clip440)" d="M2215.08 14.324 L2215.08 27.2059 L2230.44 27.2059 L2230.44 32.9987 L2215.08 32.9987 L2215.08 57.6282 Q2215.08 63.1779 2216.58 64.7578 Q2218.12 66.3376 2222.78 66.3376 L2230.44 66.3376 L2230.44 72.576 L2222.78 72.576 Q2214.15 72.576 2210.87 69.3758 Q2207.59 66.1351 2207.59 57.6282 L2207.59 32.9987 L2202.12 32.9987 L2202.12 27.2059 L2207.59 27.2059 L2207.59 14.324 L2215.08 14.324 Z" fill="#000000" fill-rule="nonzero" fill-opacity="1" /><path clip-path="url(#clip440)" d="M2240.24 27.2059 L2247.69 27.2059 L2247.69 72.576 L2240.24 72.576 L2240.24 27.2059 M2240.24 9.54393 L2247.69 9.54393 L2247.69 18.9825 L2240.24 18.9825 L2240.24 9.54393 Z" fill="#000000" fill-rule="nonzero" fill-opacity="1" /><path clip-path="url(#clip440)" d="M2302.1 48.0275 L2302.1 51.6733 L2267.82 51.6733 Q2268.31 59.3701 2272.44 63.421 Q2276.62 67.4314 2284.03 67.4314 Q2288.32 67.4314 2292.33 66.3781 Q2296.38 65.3249 2300.35 63.2184 L2300.35 70.267 Q2296.34 71.9684 2292.13 72.8596 Q2287.92 73.7508 2283.58 73.7508 Q2272.73 73.7508 2266.37 67.4314 Q2260.05 61.1119 2260.05 50.3365 Q2260.05 39.1965 2266.04 32.6746 Q2272.08 26.1121 2282.29 26.1121 Q2291.44 26.1121 2296.75 32.0264 Q2302.1 37.9003 2302.1 48.0275 M2294.64 45.84 Q2294.56 39.7232 2291.2 36.0774 Q2287.88 32.4315 2282.37 32.4315 Q2276.13 32.4315 2272.36 35.9558 Q2268.64 39.4801 2268.07 45.8805 L2294.64 45.84 Z" fill="#000000" fill-rule="nonzero" fill-opacity="1" /><path clip-path="url(#clip440)" d="M2343.25 28.5427 L2343.25 35.5912 Q2340.09 33.9709 2336.69 33.1607 Q2333.29 32.3505 2329.64 32.3505 Q2324.09 32.3505 2321.3 34.0519 Q2318.54 35.7533 2318.54 39.156 Q2318.54 41.7486 2320.53 43.2475 Q2322.51 44.7058 2328.51 46.0426 L2331.06 46.6097 Q2339 48.3111 2342.32 51.4303 Q2345.68 54.509 2345.68 60.0587 Q2345.68 66.3781 2340.66 70.0644 Q2335.68 73.7508 2326.93 73.7508 Q2323.28 73.7508 2319.31 73.0216 Q2315.38 72.3329 2311.01 70.9151 L2311.01 63.2184 Q2315.14 65.3654 2319.15 66.4591 Q2323.16 67.5124 2327.09 67.5124 Q2332.36 67.5124 2335.19 65.73 Q2338.03 63.9071 2338.03 60.6258 Q2338.03 57.5877 2335.96 55.9673 Q2333.94 54.3469 2327.01 52.8481 L2324.42 52.2405 Q2317.49 50.7821 2314.41 47.7845 Q2311.33 44.7463 2311.33 39.4801 Q2311.33 33.0797 2315.87 29.5959 Q2320.41 26.1121 2328.75 26.1121 Q2332.88 26.1121 2336.53 26.7198 Q2340.17 27.3274 2343.25 28.5427 Z" fill="#000000" fill-rule="nonzero" fill-opacity="1" /><polyline clip-path="url(#clip442)" style="stroke:#78c2ad; stroke-linecap:round; stroke-linejoin:round; stroke-width:8; stroke-opacity:1; fill:none" points="1021.32,828.527 1031.76,895.539 1041.03,884.061 1053.36,885.451 1094.23,890.405 1116.79,903.964 1115.6,903.804 1112,894.85 1099.05,895.542 1096.24,896.366 971.269,878.881 959.933,877.825 940.965,874.993 897.963,881.043 878.826,874.936 873.997,873.599 873.528,873.578 884.037,886.343 887.605,890.484 847.277,893.509 749.999,902.285 708.108,908.154 716.434,906.872 717.822,914.777 725.175,947.479 736.579,941.064 696.753,939.145 695.911,945.728 776.552,974.924 855.055,1005.94 878.989,1015.71 879.398,1016.18 858.808,1022.63 858.155,1022.93 855.245,1023.11 855.081,1022.87 855.381,1022.85 862.931,1023.94 905.689,1053.62 958.184,1090.01 955.461,1097.81 954.797,1094.9 960.928,1098.37 952.336,1096.63 950.906,1101.52 948.032,1099.75 957.159,1113.7 927.532,1111.8 923.63,1100.56 923.646,1100.41 902.697,1090.12 903.593,1091.2 893.858,1078.16 894.12,1074.7 898.465,1049.16 879.039,1033.15 764.938,981.699 755.32,977.513 755.334,977.479 684.584,939.554 639.536,916.068 640.061,917.084 593.435,915.844 598.316,916.783 569.527,939.791 522.455,980.554 552.775,965.3 551.488,966.407 560.296,1000.45 567.061,1020.16 572.252,888.761 576.507,848.392 580.535,852.202 576.46,846.985 617.94,846.096 617.144,839.178 615.176,838.166 614.441,839.317 596.347,826.161 568.138,838.87 533.433,856.716 553.137,847.876 555.74,843.198 559.882,838.942 446.312,998.421 511.346,1107.62 524.246,1170.04 412.251,1172.92 413.017,1173.08 405.268,1158.63 403.033,1153.93 392.247,1139.03 391.45,1140.49 387.03,1150.51 372.536,1163.11 374.474,1171.03 279.916,1170.12 317.561,1176.4 394.417,1189.53 394.879,1178.91 412.329,1109.88 422.817,1089.27 431.368,1117.63 439.695,1114.82 433.586,1111.69 421.33,1105.34 409.787,1095.85 398.336,1086.07 367.744,1123.01 353.045,1100.63 381.42,1113.96 373.264,1110.38 371.926,1109.18 383.862,1073.78 383.914,1073.66 428.161,1017 429.295,1016.63 429.438,1015.83 469.12,1023.63 591.483,1050.8 660.805,1061.62 659.851,1060.39 642.668,1037.46 626.503,1014.84 622.476,1008.95 628.676,1011 626.728,993.973 794.448,892.039 806.532,888.99 839.033,880.241 1003.32,860.127 1014.97,859.562 1018.46,862.078 1015.95,816.663 1018.86,762.467 1016.09,764.123 1030.48,718.412 1042.06,692.029 997.314,593.933 1015.61,592.713 1015.83,592.651 1028.65,589.794 1035.69,614.386 1039.87,621.499 1041.25,623.622 1043.99,620.191 1081.31,578.562 1122.84,541.843 1149.44,529.296 1173.19,520.916 1203.09,502.725 1214.26,496.728 1196.51,480.458 1198.59,481.948 1349.22,343.217 1399.93,298.793 1452.33,257.674 1454.61,256.555 1451.92,261.538 1359.57,253.546 1250.46,254.932 1169.03,260.578 1113.74,268.506 1110.36,274.025 1113.2,276.313 1097.04,287.156 1153.34,218.677 1163.28,220.287 1155.87,216.898 1155.11,215.984 1167.15,206.432 1227.91,206.336 1236.05,205.372 1294.75,203.637 1288.01,205.364 1301.98,204.954 1253.01,233.831 1249.61,236.393 1238.37,241.041 1248.62,190.068 1256.17,160.256 1256.25,160.291 1249.97,176.325 1245.62,199.12 1259.8,193.091 1295.18,190.079 1298.37,191.105 1317.74,256.44 1318.14,257.732 1318.23,257.669 1320.23,257.334 1397.56,276.277 1382.06,284.089 1375.71,299.079 1389.35,316.556 1393.72,310.697 1435.71,263.617 1443.59,255.877 1441.12,250.853 1433.68,255.946 1416.5,277.149 1418.68,260.028 1422.29,266.507 1436.94,293.843 1433.05,274.873 1441.64,255.113 1440.85,255.432 1443.72,281.887 1472.37,296.295 1505.92,316.959 1505.79,316.953 1512.68,299.423 1531.2,305.618 1722.17,387.766 1741.06,396.424 1734.35,403.672 1709.06,445.422 1691.29,468.526 1707.99,464.124 1582.4,461.161 1579.66,461.255 1609.66,474.322 1587.82,481.459 1572,526.995 1556.29,586.601 1555.48,585.937 1552,571.344 1551.76,570.11 1600.6,536.65 1618.74,603.65 1624.62,625.238 1664.19,631.402 1648.74,618.561 1620.04,597.796 1609.53,576.794 1604.8,563.637 1611.65,569.347 1607.81,566.994 1598.23,563.704 1591.34,537.983 1592.83,538.629 1600.85,552.603 1572.71,495.725 1553.9,482.433 1561.47,545.857 1567.13,524.072 1551.31,508.63 1511.1,471.306 1475.26,462.809 1517.09,408.761 1505.31,408.713 1506.18,404.387 1513.46,416.967 1540.79,465.768 1542.22,469.655 1670.09,441.25 1727.97,430.4 1725.43,423.24 1714.35,446.611 1700.08,460.124 1668.52,492.283 1672.94,498.339 1742.21,597.478 1741.75,608.988 1725.08,616.105 1662.59,645.332 1652.22,637.407 1658.36,622.217 1717.03,633.549 1682.45,635.88 1688.42,596.888 1681.85,600.1 1681.91,599.914 1685.4,638.781 1691.44,694.481 1692.68,694.218 1692.43,693.503 1720.26,680.667 1749.31,670.95 1722.84,646.723 1693,622.593 1661.76,651.995 1690.16,635.588 1707.66,627.159 1707.56,627.034 1649.18,527.715 1692.59,526.651 1721.92,527.218 1735.4,497.553 1842.56,281.171 1835.54,299.638 1830.83,313.378 1781.25,382.322 1766.36,395.166 1782.89,420.251 1783.76,419.075 1781.94,414.394 1767.73,380.01 1766.14,376.357 1749.82,461.238 1742.24,507.109 1772.22,506.354 1819.68,505.999 1825.68,506.17 1830.24,435.601 1834.38,377.75 1906.12,370.099 1801.09,344.603 1678.67,321.99 1679.05,320.588 1683.74,318.695 1690.37,323.926 1685.26,350.147 1683.58,359.382 1686.8,354.419 1675.57,382.022 1675.99,382.637 1671.65,382.529 1647.18,384.189 1634.98,436.667 1628.59,472.152 1640.65,473.405 1616.74,490.803 1553.22,555.874 1553.59,556.152 1557.91,559.553 1604.61,692.787 1617.28,728.594 1623.85,727.554 1629.34,727.054 1633.73,735.08 1638.47,743.784 1638.28,744.064 1612.08,709.99 1604.82,710.785 1608.66,746.363 1622.07,739.466 1629.92,736.862 1630.6,736.757 1629.27,735.363 1634.52,748.347 1625.76,756.889 1627.67,707.996 1630.11,688.781 1587.96,691.563 1548.43,695.699 1564.15,697.013 1560.77,695.526 1558.28,694.556 1505.7,690.042 1515.13,676.141 1517.78,676.651 1534.31,728.033 1534.17,731.421 1488.97,719.711 1489.17,727.055 1494.86,722.81 1496.21,722.123 1536.2,755.163 1572.18,785.435 1543.31,771.793 1536.51,769.061 1537.33,760.868 1528.9,750.519 1532.68,751.111 1528.63,782.171 1525.09,782.366 1511.91,789.163 1487.8,789.432 1481.75,782.691 1464.84,765.131 1481.96,763.263 1487.22,761.03 1493.83,759.225 1493.86,758.667 1496.25,753.541 1507.88,757.563 1513.13,760.124 1535.32,772.564 1533.88,759.037 1533.98,748.042 1464.04,768.115 1462.38,766.953 1458.59,764.453 1455.62,747.144 1473.08,717.513 1494.76,717.205 1622.33,727.28 1623.27,727.455 1590.36,722.185 1600.05,725.822 1616.97,759.61 1588.62,789.965 1594.47,821.24 1618.17,929.47 1633.37,994.293 1650.34,992.018 1679.79,990.469 1826.67,1052.55 1908.11,1088.46 1916.32,1087.44 1918.68,1088.58 1918.34,1089.28 1932.92,1059 1920.97,1070.41 1931.98,1101.39 1935.08,1110.71 1990.75,1066.13 1971.3,1073.41 1966.16,1075.41 1976.63,1070.33 2065.68,1032.31 2038.27,971.256 2043.17,969.478 2063.4,974.235 2081.59,980.11 1981.75,910.618 1939.86,911.277 1934.16,904.393 1930.07,850.845 1931.91,851.473 1934.32,853.261 1936.63,857.356 1969.11,916.634 1949.34,924.3 1942.74,941.581 1962.87,985.977 1967.22,986.809 1995.34,970.656 2008.12,976.84 2068.7,1007.84 2065.55,1007.09 2063.9,1008.22 2053.56,1031.69 2049.69,1041.78 2049.57,1054.52 2050.84,1054.18 2053.93,1058.16 2029.51,1073.15 2036.31,1090.04 2041.43,1137.87 2042.7,1150.31 2035.65,1140.89 2032.96,1137.91 2033.08,1135.38 2020.18,1126.64 2025.63,1131.49 2072.74,1129.27 2151.23,1133.05 2183.4,1135.44 2188.53,1135.95 2133.6,1154.22 2119.64,1198.56 2108.33,1235.8 2086.32,1240.96 2080.23,1242.49 2071.96,1227.59 2092.07,1254.67 2091.2,1232.95 2017.26,1265.19 2034.08,1253.08 2058.52,1237.14 2071.68,1240.19 2072.48,1231.79 2074.07,1215.5 2055.08,1204.65 2051,1202.5 2033.05,1203.85 2034.7,1200.16 2039.61,1204.62 2030.85,1218.19 2022.42,1231.95 2011.23,1204.35 2050.21,1198.54 2069.76,1196.4 2068.7,1195.97 2060.87,1194.37 2024.41,1185.14 1987.57,1177.48 1994.78,1170.32 2018.16,1147.47 2017.38,1172.24 2017.19,1178.94 2016.44,1180.76 2031.98,1179.31 2017.81,1186.96 2011.75,1190.37 2040.17,1232.55 2035.56,1226.49 2031.86,1207.78 2030.88,1219.06 2202.62,1246.26 2265.31,1259.94 2110.32,1226.69 2119.94,1227.52 2184.37,1279.28 2159.67,1268.41 2180.51,1286.62 2269.16,1365.19 2292.38,1386.4 "/>
</svg>
