<?xml version="1.0" encoding="utf-8"?>
<svg xmlns="http://www.w3.org/2000/svg" xmlns:xlink="http://www.w3.org/1999/xlink" width="1400" height="380" viewBox="0 0 5600 1520">
<defs>
  <clipPath id="clip830">
    <rect x="0" y="0" width="5600" height="1520"/>
  </clipPath>
</defs>
<path clip-path="url(#clip830)" d="M0 1520 L5600 1520 L5600 1.15463e-13 L0 1.15463e-13  Z" fill="#f0f1eb" fill-rule="evenodd" fill-opacity="1"/>
<defs>
  <clipPath id="clip831">
    <rect x="1691" y="134" width="3815" height="1156"/>
  </clipPath>
</defs>
<path clip-path="url(#clip830)" d="M94.4882 1288.91 L1298.97 1288.91 L1298.97 134.129 L94.4882 134.129  Z" fill="#f0f1eb" fill-rule="evenodd" fill-opacity="1"/>
<defs>
  <clipPath id="clip832">
    <rect x="94" y="134" width="1205" height="1156"/>
  </clipPath>
</defs>
<polyline clip-path="url(#clip830)" style="stroke:#000000; stroke-linecap:round; stroke-linejoin:round; stroke-width:4; stroke-opacity:1; fill:none" points="1298.97,1288.91 94.4882,1288.91 "/>
<polyline clip-path="url(#clip830)" style="stroke:#000000; stroke-linecap:round; stroke-linejoin:round; stroke-width:4; stroke-opacity:1; fill:none" points="1298.97,134.129 94.4882,134.129 "/>
<polyline clip-path="url(#clip830)" style="stroke:#000000; stroke-linecap:round; stroke-linejoin:round; stroke-width:4; stroke-opacity:1; fill:none" points="1151.21,1288.91 1151.21,1270.01 "/>
<polyline clip-path="url(#clip830)" style="stroke:#000000; stroke-linecap:round; stroke-linejoin:round; stroke-width:4; stroke-opacity:1; fill:none" points="902.074,1288.91 902.074,1270.01 "/>
<polyline clip-path="url(#clip830)" style="stroke:#000000; stroke-linecap:round; stroke-linejoin:round; stroke-width:4; stroke-opacity:1; fill:none" points="652.939,1288.91 652.939,1270.01 "/>
<polyline clip-path="url(#clip830)" style="stroke:#000000; stroke-linecap:round; stroke-linejoin:round; stroke-width:4; stroke-opacity:1; fill:none" points="403.804,1288.91 403.804,1270.01 "/>
<polyline clip-path="url(#clip830)" style="stroke:#000000; stroke-linecap:round; stroke-linejoin:round; stroke-width:4; stroke-opacity:1; fill:none" points="154.669,1288.91 154.669,1270.01 "/>
<polyline clip-path="url(#clip830)" style="stroke:#000000; stroke-linecap:round; stroke-linejoin:round; stroke-width:4; stroke-opacity:1; fill:none" points="1151.21,134.129 1151.21,153.026 "/>
<polyline clip-path="url(#clip830)" style="stroke:#000000; stroke-linecap:round; stroke-linejoin:round; stroke-width:4; stroke-opacity:1; fill:none" points="902.074,134.129 902.074,153.026 "/>
<polyline clip-path="url(#clip830)" style="stroke:#000000; stroke-linecap:round; stroke-linejoin:round; stroke-width:4; stroke-opacity:1; fill:none" points="652.939,134.129 652.939,153.026 "/>
<polyline clip-path="url(#clip830)" style="stroke:#000000; stroke-linecap:round; stroke-linejoin:round; stroke-width:4; stroke-opacity:1; fill:none" points="403.804,134.129 403.804,153.026 "/>
<polyline clip-path="url(#clip830)" style="stroke:#000000; stroke-linecap:round; stroke-linejoin:round; stroke-width:4; stroke-opacity:1; fill:none" points="154.669,134.129 154.669,153.026 "/>
<g clip-path="url(#clip830)">
<text style="fill:#000000; fill-opacity:1; font-family:Arial,Helvetica Neue,Helvetica,sans-serif; font-size:59px; text-anchor:middle;" transform="rotate(0, 1151.21, 1386.64)" x="1151.21" y="1386.64">0.20</text>
</g>
<g clip-path="url(#clip830)">
<text style="fill:#000000; fill-opacity:1; font-family:Arial,Helvetica Neue,Helvetica,sans-serif; font-size:59px; text-anchor:middle;" transform="rotate(0, 902.074, 1386.64)" x="902.074" y="1386.64">0.22</text>
</g>
<g clip-path="url(#clip830)">
<text style="fill:#000000; fill-opacity:1; font-family:Arial,Helvetica Neue,Helvetica,sans-serif; font-size:59px; text-anchor:middle;" transform="rotate(0, 652.939, 1386.64)" x="652.939" y="1386.64">0.24</text>
</g>
<g clip-path="url(#clip830)">
<text style="fill:#000000; fill-opacity:1; font-family:Arial,Helvetica Neue,Helvetica,sans-serif; font-size:59px; text-anchor:middle;" transform="rotate(0, 403.804, 1386.64)" x="403.804" y="1386.64">0.26</text>
</g>
<g clip-path="url(#clip830)">
<text style="fill:#000000; fill-opacity:1; font-family:Arial,Helvetica Neue,Helvetica,sans-serif; font-size:59px; text-anchor:middle;" transform="rotate(0, 154.669, 1386.64)" x="154.669" y="1386.64">0.28</text>
</g>
<g clip-path="url(#clip830)">
<text style="fill:#000000; fill-opacity:1; font-family:Arial,Helvetica Neue,Helvetica,sans-serif; font-size:71px; text-anchor:middle;" transform="rotate(0, 696.728, 1500.83)" x="696.728" y="1500.83">N(0, 2) density</text>
</g>
<polyline clip-path="url(#clip830)" style="stroke:#000000; stroke-linecap:round; stroke-linejoin:round; stroke-width:4; stroke-opacity:1; fill:none" points="94.4882,1288.91 94.4882,134.129 "/>
<polyline clip-path="url(#clip830)" style="stroke:#000000; stroke-linecap:round; stroke-linejoin:round; stroke-width:4; stroke-opacity:1; fill:none" points="1298.97,1288.91 1298.97,134.129 "/>
<path clip-path="url(#clip832)" d="M1264.88 6485.41 L1259.57 6471.64 L1254.26 6457.87 L1248.95 6444.11 L1243.65 6430.34 L1238.35 6416.57 L1233.05 6402.81 L1227.76 6389.04 L1222.47 6375.27 L1217.19 6361.51 L1211.91 6347.74 L1206.63 6333.97 L1201.36 6320.2 L1196.09 6306.44 L1190.83 6292.67 L1185.57 6278.9 L1180.32 6265.14 L1175.07 6251.37 L1169.82 6237.6 L1164.58 6223.83 L1159.35 6210.07 L1154.12 6196.3 L1148.89 6182.53 L1143.67 6168.77 L1138.45 6155 L1133.24 6141.23 L1128.04 6127.47 L1122.84 6113.7 L1117.64 6099.93 L1112.45 6086.16 L1107.27 6072.4 L1102.09 6058.63 L1096.92 6044.86 L1091.75 6031.1 L1086.59 6017.33 L1081.44 6003.56 L1076.29 5989.8 L1071.15 5976.03 L1066.01 5962.26 L1060.88 5948.49 L1055.76 5934.73 L1050.64 5920.96 L1045.53 5907.19 L1040.42 5893.43 L1035.33 5879.66 L1030.24 5865.89 L1025.15 5852.13 L1020.07 5838.36 L1015 5824.59 L1009.94 5810.82 L1004.88 5797.06 L999.836 5783.29 L994.794 5769.52 L989.76 5755.76 L984.733 5741.99 L979.713 5728.22 L974.701 5714.45 L969.697 5700.69 L964.701 5686.92 L959.712 5673.15 L954.731 5659.39 L949.759 5645.62 L944.794 5631.85 L939.837 5618.09 L934.889 5604.32 L929.949 5590.55 L925.017 5576.78 L920.094 5563.02 L915.179 5549.25 L910.273 5535.48 L905.376 5521.72 L900.487 5507.95 L895.607 5494.18 L890.736 5480.42 L885.874 5466.65 L881.022 5452.88 L876.178 5439.11 L871.343 5425.35 L866.518 5411.58 L861.702 5397.81 L856.896 5384.05 L852.099 5370.28 L847.312 5356.51 L842.535 5342.75 L837.767 5328.98 L833.009 5315.21 L828.261 5301.44 L823.523 5287.68 L818.796 5273.91 L814.078 5260.14 L809.37 5246.38 L804.673 5232.61 L799.987 5218.84 L795.31 5205.07 L790.645 5191.31 L785.99 5177.54 L781.345 5163.77 L776.712 5150.01 L772.089 5136.24 L767.477 5122.47 L762.876 5108.71 L758.287 5094.94 L753.708 5081.17 L749.141 5067.4 L744.585 5053.64 L740.04 5039.87 L735.507 5026.1 L730.985 5012.34 L726.475 4998.57 L721.977 4984.8 L717.491 4971.04 L713.016 4957.27 L708.553 4943.5 L704.102 4929.73 L699.664 4915.97 L695.237 4902.2 L690.823 4888.43 L686.421 4874.67 L682.031 4860.9 L677.654 4847.13 L673.289 4833.37 L668.937 4819.6 L664.598 4805.83 L660.271 4792.06 L655.957 4778.3 L651.656 4764.53 L647.368 4750.76 L643.093 4737 L638.831 4723.23 L634.583 4709.46 L630.347 4695.69 L626.125 4681.93 L621.916 4668.16 L617.721 4654.39 L613.539 4640.63 L609.371 4626.86 L605.217 4613.09 L601.076 4599.33 L596.949 4585.56 L592.837 4571.79 L588.738 4558.02 L584.653 4544.26 L580.582 4530.49 L576.526 4516.72 L572.483 4502.96 L568.455 4489.19 L564.442 4475.42 L560.443 4461.66 L556.458 4447.89 L552.488 4434.12 L548.533 4420.35 L544.593 4406.59 L540.667 4392.82 L536.756 4379.05 L532.86 4365.29 L528.98 4351.52 L525.114 4337.75 L521.263 4323.99 L517.428 4310.22 L513.608 4296.45 L509.803 4282.68 L506.014 4268.92 L502.241 4255.15 L498.482 4241.38 L494.74 4227.62 L491.013 4213.85 L487.302 4200.08 L483.607 4186.31 L479.928 4172.55 L476.264 4158.78 L472.617 4145.01 L468.986 4131.25 L465.371 4117.48 L461.772 4103.71 L458.19 4089.95 L454.623 4076.18 L451.074 4062.41 L447.54 4048.64 L444.024 4034.88 L440.524 4021.11 L437.04 4007.34 L433.574 3993.58 L430.124 3979.81 L426.691 3966.04 L423.274 3952.28 L419.875 3938.51 L416.493 3924.74 L413.128 3910.97 L409.78 3897.21 L406.45 3883.44 L403.137 3869.67 L399.841 3855.91 L396.562 3842.14 L393.301 3828.37 L390.057 3814.61 L386.831 3800.84 L383.623 3787.07 L380.432 3773.3 L377.26 3759.54 L374.105 3745.77 L370.967 3732 L367.848 3718.24 L364.747 3704.47 L361.664 3690.7 L358.599 3676.94 L355.552 3663.17 L352.523 3649.4 L349.513 3635.63 L346.52 3621.87 L343.547 3608.1 L340.591 3594.33 L337.655 3580.57 L334.736 3566.8 L331.837 3553.03 L328.956 3539.26 L326.093 3525.5 L323.25 3511.73 L320.425 3497.96 L317.619 3484.2 L314.832 3470.43 L312.064 3456.66 L309.315 3442.9 L306.585 3429.13 L303.874 3415.36 L301.183 3401.59 L298.51 3387.83 L295.857 3374.06 L293.223 3360.29 L290.609 3346.53 L288.014 3332.76 L285.438 3318.99 L282.882 3305.23 L280.346 3291.46 L277.829 3277.69 L275.331 3263.92 L272.854 3250.16 L270.396 3236.39 L267.958 3222.62 L265.54 3208.86 L263.141 3195.09 L260.763 3181.32 L258.405 3167.56 L256.066 3153.79 L253.748 3140.02 L251.45 3126.25 L249.172 3112.49 L246.914 3098.72 L244.676 3084.95 L242.459 3071.19 L240.261 3057.42 L238.085 3043.65 L235.928 3029.88 L233.792 3016.12 L231.677 3002.35 L229.582 2988.58 L227.508 2974.82 L225.454 2961.05 L223.421 2947.28 L221.408 2933.52 L219.417 2919.75 L217.446 2905.98 L215.495 2892.21 L213.566 2878.45 L211.657 2864.68 L209.77 2850.91 L207.903 2837.15 L206.057 2823.38 L204.233 2809.61 L202.429 2795.85 L200.646 2782.08 L198.885 2768.31 L197.144 2754.54 L195.425 2740.78 L193.727 2727.01 L192.05 2713.24 L190.395 2699.48 L188.76 2685.71 L187.147 2671.94 L185.556 2658.18 L183.986 2644.41 L182.437 2630.64 L180.909 2616.87 L179.404 2603.11 L177.919 2589.34 L176.456 2575.57 L175.015 2561.81 L173.596 2548.04 L172.197 2534.27 L170.821 2520.5 L169.466 2506.74 L168.133 2492.97 L166.822 2479.2 L165.532 2465.44 L164.265 2451.67 L163.018 2437.9 L161.794 2424.14 L160.592 2410.37 L159.411 2396.6 L158.253 2382.83 L157.116 2369.07 L156.001 2355.3 L154.908 2341.53 L153.838 2327.77 L152.789 2314 L151.762 2300.23 L150.757 2286.47 L149.774 2272.7 L148.813 2258.93 L147.875 2245.16 L146.958 2231.4 L146.064 2217.63 L145.192 2203.86 L144.342 2190.1 L143.514 2176.33 L142.708 2162.56 L141.924 2148.8 L141.163 2135.03 L140.424 2121.26 L139.707 2107.49 L139.012 2093.73 L138.34 2079.96 L137.69 2066.19 L137.062 2052.43 L136.457 2038.66 L135.874 2024.89 L135.313 2011.12 L134.775 1997.36 L134.259 1983.59 L133.765 1969.82 L133.294 1956.06 L132.845 1942.29 L132.418 1928.52 L132.014 1914.76 L131.632 1900.99 L131.273 1887.22 L130.936 1873.45 L130.622 1859.69 L130.33 1845.92 L130.06 1832.15 L129.813 1818.39 L129.588 1804.62 L129.386 1790.85 L129.206 1777.09 L129.049 1763.32 L128.914 1749.55 L128.802 1735.78 L128.712 1722.02 L128.645 1708.25 L128.6 1694.48 L128.577 1680.72 L128.577 1666.95 L128.6 1653.18 L128.645 1639.42 L128.712 1625.65 L128.802 1611.88 L128.914 1598.11 L129.049 1584.35 L129.206 1570.58 L129.386 1556.81 L129.588 1543.05 L129.813 1529.28 L130.06 1515.51 L130.33 1501.74 L130.622 1487.98 L130.936 1474.21 L131.273 1460.44 L131.632 1446.68 L132.014 1432.91 L132.418 1419.14 L132.845 1405.38 L133.294 1391.61 L133.765 1377.84 L134.259 1364.07 L134.775 1350.31 L135.313 1336.54 L135.874 1322.77 L136.457 1309.01 L137.062 1295.24 L137.69 1281.47 L138.34 1267.71 L139.012 1253.94 L139.707 1240.17 L140.424 1226.4 L141.163 1212.64 L141.924 1198.87 L142.708 1185.1 L143.514 1171.34 L144.342 1157.57 L145.192 1143.8 L146.064 1130.04 L146.958 1116.27 L147.875 1102.5 L148.813 1088.73 L149.774 1074.97 L150.757 1061.2 L151.762 1047.43 L152.789 1033.67 L153.838 1019.9 L154.908 1006.13 L156.001 992.365 L157.116 978.598 L158.253 964.831 L159.411 951.064 L160.592 937.297 L161.794 923.53 L163.018 909.763 L164.265 895.996 L165.532 882.229 L166.822 868.462 L168.133 854.695 L169.466 840.928 L170.821 827.161 L172.197 813.394 L173.596 799.627 L175.015 785.86 L176.456 772.093 L177.919 758.326 L179.404 744.559 L180.909 730.791 L182.437 717.024 L183.986 703.257 L185.556 689.49 L187.147 675.723 L188.76 661.956 L190.395 648.189 L192.05 634.422 L193.727 620.655 L195.425 606.888 L197.144 593.121 L198.885 579.354 L200.646 565.587 L202.429 551.82 L204.233 538.053 L206.057 524.286 L207.903 510.519 L209.77 496.752 L211.657 482.985 L213.566 469.218 L215.495 455.451 L217.446 441.684 L219.417 427.917 L221.408 414.15 L223.421 400.383 L225.454 386.616 L227.508 372.849 L229.582 359.082 L231.677 345.315 L233.792 331.548 L235.928 317.781 L238.085 304.014 L240.261 290.247 L242.459 276.48 L244.676 262.713 L246.914 248.946 L249.172 235.179 L251.45 221.412 L253.748 207.645 L256.066 193.877 L258.405 180.11 L260.763 166.343 L263.141 152.576 L265.54 138.809 L267.958 125.042 L270.396 111.275 L272.854 97.5083 L275.331 83.7413 L277.829 69.9742 L280.346 56.2072 L282.882 42.4402 L285.438 28.6732 L288.014 14.9061 L290.609 1.13912 L293.223 -12.6279 L295.857 -26.3949 L298.51 -40.162 L301.183 -53.929 L303.874 -67.696 L306.585 -81.463 L309.315 -95.2301 L312.064 -108.997 L314.832 -122.764 L317.619 -136.531 L320.425 -150.298 L323.25 -164.065 L326.093 -177.832 L328.956 -191.599 L331.837 -205.366 L334.736 -219.133 L337.655 -232.9 L340.591 -246.667 L343.547 -260.434 L346.52 -274.201 L349.513 -287.968 L352.523 -301.735 L355.552 -315.502 L358.599 -329.269 L361.664 -343.037 L364.747 -356.804 L367.848 -370.571 L370.967 -384.338 L374.105 -398.105 L377.26 -411.872 L380.432 -425.639 L383.623 -439.406 L386.831 -453.173 L390.057 -466.94 L393.301 -480.707 L396.562 -494.474 L399.841 -508.241 L403.137 -522.008 L406.45 -535.775 L409.78 -549.542 L413.128 -563.309 L416.493 -577.076 L419.875 -590.843 L423.274 -604.61 L426.691 -618.377 L430.124 -632.144 L433.574 -645.911 L437.04 -659.678 L440.524 -673.445 L444.024 -687.212 L447.54 -700.979 L451.074 -714.746 L454.623 -728.513 L458.19 -742.28 L461.772 -756.047 L465.371 -769.814 L468.986 -783.581 L472.617 -797.348 L476.264 -811.115 L479.928 -824.882 L483.607 -838.649 L487.302 -852.416 L491.013 -866.184 L494.74 -879.951 L498.482 -893.718 L502.241 -907.485 L506.014 -921.252 L509.803 -935.019 L513.608 -948.786 L517.428 -962.553 L521.263 -976.32 L525.114 -990.087 L528.98 -1003.85 L532.86 -1017.62 L536.756 -1031.39 L540.667 -1045.15 L544.593 -1058.92 L548.533 -1072.69 L552.488 -1086.46 L556.458 -1100.22 L560.443 -1113.99 L564.442 -1127.76 L568.455 -1141.52 L572.483 -1155.29 L576.526 -1169.06 L580.582 -1182.83 L584.653 -1196.59 L588.738 -1210.36 L592.837 -1224.13 L596.949 -1237.89 L601.076 -1251.66 L605.217 -1265.43 L609.371 -1279.19 L613.539 -1292.96 L617.721 -1306.73 L621.916 -1320.5 L626.125 -1334.26 L630.347 -1348.03 L634.583 -1361.8 L638.831 -1375.56 L643.093 -1389.33 L647.368 -1403.1 L651.656 -1416.86 L655.957 -1430.63 L660.271 -1444.4 L664.598 -1458.17 L668.937 -1471.93 L673.289 -1485.7 L677.654 -1499.47 L682.031 -1513.23 L686.421 -1527 L690.823 -1540.77 L695.237 -1554.53 L699.664 -1568.3 L704.102 -1582.07 L708.553 -1595.84 L713.016 -1609.6 L717.491 -1623.37 L721.977 -1637.14 L726.475 -1650.9 L730.985 -1664.67 L735.507 -1678.44 L740.04 -1692.21 L744.585 -1705.97 L749.141 -1719.74 L753.708 -1733.51 L758.287 -1747.27 L762.876 -1761.04 L767.477 -1774.81 L772.089 -1788.57 L776.712 -1802.34 L781.345 -1816.11 L785.99 -1829.88 L790.645 -1843.64 L795.31 -1857.41 L799.987 -1871.18 L804.673 -1884.94 L809.37 -1898.71 L814.078 -1912.48 L818.796 -1926.24 L823.523 -1940.01 L828.261 -1953.78 L833.009 -1967.55 L837.767 -1981.31 L842.535 -1995.08 L847.312 -2008.85 L852.099 -2022.61 L856.896 -2036.38 L861.702 -2050.15 L866.518 -2063.91 L871.343 -2077.68 L876.178 -2091.45 L881.022 -2105.22 L885.874 -2118.98 L890.736 -2132.75 L895.607 -2146.52 L900.487 -2160.28 L905.376 -2174.05 L910.273 -2187.82 L915.179 -2201.59 L920.094 -2215.35 L925.017 -2229.12 L929.949 -2242.89 L934.889 -2256.65 L939.837 -2270.42 L944.794 -2284.19 L949.759 -2297.95 L954.731 -2311.72 L959.712 -2325.49 L964.701 -2339.26 L969.697 -2353.02 L974.701 -2366.79 L979.713 -2380.56 L984.733 -2394.32 L989.76 -2408.09 L994.794 -2421.86 L999.836 -2435.62 L1004.88 -2449.39 L1009.94 -2463.16 L1015 -2476.93 L1020.07 -2490.69 L1025.15 -2504.46 L1030.24 -2518.23 L1035.33 -2531.99 L1040.42 -2545.76 L1045.53 -2559.53 L1050.64 -2573.29 L1055.76 -2587.06 L1060.88 -2600.83 L1066.01 -2614.6 L1071.15 -2628.36 L1076.29 -2642.13 L1081.44 -2655.9 L1086.59 -2669.66 L1091.75 -2683.43 L1096.92 -2697.2 L1102.09 -2710.96 L1107.27 -2724.73 L1112.45 -2738.5 L1117.64 -2752.27 L1122.84 -2766.03 L1128.04 -2779.8 L1133.24 -2793.57 L1138.45 -2807.33 L1143.67 -2821.1 L1148.89 -2834.87 L1154.12 -2848.64 L1159.35 -2862.4 L1164.58 -2876.17 L1169.82 -2889.94 L1175.07 -2903.7 L1180.32 -2917.47 L1185.57 -2931.24 L1190.83 -2945 L1196.09 -2958.77 L1201.36 -2972.54 L1206.63 -2986.31 L1211.91 -3000.07 L1217.19 -3013.84 L1222.47 -3027.61 L1227.76 -3041.37 L1233.05 -3055.14 L1238.35 -3068.91 L1243.65 -3082.67 L1248.95 -3096.44 L1254.26 -3110.21 L1259.57 -3123.98 L1264.88 -3137.74 L1264.88 1673.83 L1259.57 1673.83 L1254.26 1673.83 L1248.95 1673.83 L1243.65 1673.83 L1238.35 1673.83 L1233.05 1673.83 L1227.76 1673.83 L1222.47 1673.83 L1217.19 1673.83 L1211.91 1673.83 L1206.63 1673.83 L1201.36 1673.83 L1196.09 1673.83 L1190.83 1673.83 L1185.57 1673.83 L1180.32 1673.83 L1175.07 1673.83 L1169.82 1673.83 L1164.58 1673.83 L1159.35 1673.83 L1154.12 1673.83 L1148.89 1673.83 L1143.67 1673.83 L1138.45 1673.83 L1133.24 1673.83 L1128.04 1673.83 L1122.84 1673.83 L1117.64 1673.83 L1112.45 1673.83 L1107.27 1673.83 L1102.09 1673.83 L1096.92 1673.83 L1091.75 1673.83 L1086.59 1673.83 L1081.44 1673.83 L1076.29 1673.83 L1071.15 1673.83 L1066.01 1673.83 L1060.88 1673.83 L1055.76 1673.83 L1050.64 1673.83 L1045.53 1673.83 L1040.42 1673.83 L1035.33 1673.83 L1030.24 1673.83 L1025.15 1673.83 L1020.07 1673.83 L1015 1673.83 L1009.94 1673.83 L1004.88 1673.83 L999.836 1673.83 L994.794 1673.83 L989.76 1673.83 L984.733 1673.83 L979.713 1673.83 L974.701 1673.83 L969.697 1673.83 L964.701 1673.83 L959.712 1673.83 L954.731 1673.83 L949.759 1673.83 L944.794 1673.83 L939.837 1673.83 L934.889 1673.83 L929.949 1673.83 L925.017 1673.83 L920.094 1673.83 L915.179 1673.83 L910.273 1673.83 L905.376 1673.83 L900.487 1673.83 L895.607 1673.83 L890.736 1673.83 L885.874 1673.83 L881.022 1673.83 L876.178 1673.83 L871.343 1673.83 L866.518 1673.83 L861.702 1673.83 L856.896 1673.83 L852.099 1673.83 L847.312 1673.83 L842.535 1673.83 L837.767 1673.83 L833.009 1673.83 L828.261 1673.83 L823.523 1673.83 L818.796 1673.83 L814.078 1673.83 L809.37 1673.83 L804.673 1673.83 L799.987 1673.83 L795.31 1673.83 L790.645 1673.83 L785.99 1673.83 L781.345 1673.83 L776.712 1673.83 L772.089 1673.83 L767.477 1673.83 L762.876 1673.83 L758.287 1673.83 L753.708 1673.83 L749.141 1673.83 L744.585 1673.83 L740.04 1673.83 L735.507 1673.83 L730.985 1673.83 L726.475 1673.83 L721.977 1673.83 L717.491 1673.83 L713.016 1673.83 L708.553 1673.83 L704.102 1673.83 L699.664 1673.83 L695.237 1673.83 L690.823 1673.83 L686.421 1673.83 L682.031 1673.83 L677.654 1673.83 L673.289 1673.83 L668.937 1673.83 L664.598 1673.83 L660.271 1673.83 L655.957 1673.83 L651.656 1673.83 L647.368 1673.83 L643.093 1673.83 L638.831 1673.83 L634.583 1673.83 L630.347 1673.83 L626.125 1673.83 L621.916 1673.83 L617.721 1673.83 L613.539 1673.83 L609.371 1673.83 L605.217 1673.83 L601.076 1673.83 L596.949 1673.83 L592.837 1673.83 L588.738 1673.83 L584.653 1673.83 L580.582 1673.83 L576.526 1673.83 L572.483 1673.83 L568.455 1673.83 L564.442 1673.83 L560.443 1673.83 L556.458 1673.83 L552.488 1673.83 L548.533 1673.83 L544.593 1673.83 L540.667 1673.83 L536.756 1673.83 L532.86 1673.83 L528.98 1673.83 L525.114 1673.83 L521.263 1673.83 L517.428 1673.83 L513.608 1673.83 L509.803 1673.83 L506.014 1673.83 L502.241 1673.83 L498.482 1673.83 L494.74 1673.83 L491.013 1673.83 L487.302 1673.83 L483.607 1673.83 L479.928 1673.83 L476.264 1673.83 L472.617 1673.83 L468.986 1673.83 L465.371 1673.83 L461.772 1673.83 L458.19 1673.83 L454.623 1673.83 L451.074 1673.83 L447.54 1673.83 L444.024 1673.83 L440.524 1673.83 L437.04 1673.83 L433.574 1673.83 L430.124 1673.83 L426.691 1673.83 L423.274 1673.83 L419.875 1673.83 L416.493 1673.83 L413.128 1673.83 L409.78 1673.83 L406.45 1673.83 L403.137 1673.83 L399.841 1673.83 L396.562 1673.83 L393.301 1673.83 L390.057 1673.83 L386.831 1673.83 L383.623 1673.83 L380.432 1673.83 L377.26 1673.83 L374.105 1673.83 L370.967 1673.83 L367.848 1673.83 L364.747 1673.83 L361.664 1673.83 L358.599 1673.83 L355.552 1673.83 L352.523 1673.83 L349.513 1673.83 L346.52 1673.83 L343.547 1673.83 L340.591 1673.83 L337.655 1673.83 L334.736 1673.83 L331.837 1673.83 L328.956 1673.83 L326.093 1673.83 L323.25 1673.83 L320.425 1673.83 L317.619 1673.83 L314.832 1673.83 L312.064 1673.83 L309.315 1673.83 L306.585 1673.83 L303.874 1673.83 L301.183 1673.83 L298.51 1673.83 L295.857 1673.83 L293.223 1673.83 L290.609 1673.83 L288.014 1673.83 L285.438 1673.83 L282.882 1673.83 L280.346 1673.83 L277.829 1673.83 L275.331 1673.83 L272.854 1673.83 L270.396 1673.83 L267.958 1673.83 L265.54 1673.83 L263.141 1673.83 L260.763 1673.83 L258.405 1673.83 L256.066 1673.83 L253.748 1673.83 L251.45 1673.83 L249.172 1673.83 L246.914 1673.83 L244.676 1673.83 L242.459 1673.83 L240.261 1673.83 L238.085 1673.83 L235.928 1673.83 L233.792 1673.83 L231.677 1673.83 L229.582 1673.83 L227.508 1673.83 L225.454 1673.83 L223.421 1673.83 L221.408 1673.83 L219.417 1673.83 L217.446 1673.83 L215.495 1673.83 L213.566 1673.83 L211.657 1673.83 L209.77 1673.83 L207.903 1673.83 L206.057 1673.83 L204.233 1673.83 L202.429 1673.83 L200.646 1673.83 L198.885 1673.83 L197.144 1673.83 L195.425 1673.83 L193.727 1673.83 L192.05 1673.83 L190.395 1673.83 L188.76 1673.83 L187.147 1673.83 L185.556 1673.83 L183.986 1673.83 L182.437 1673.83 L180.909 1673.83 L179.404 1673.83 L177.919 1673.83 L176.456 1673.83 L175.015 1673.83 L173.596 1673.83 L172.197 1673.83 L170.821 1673.83 L169.466 1673.83 L168.133 1673.83 L166.822 1673.83 L165.532 1673.83 L164.265 1673.83 L163.018 1673.83 L161.794 1673.83 L160.592 1673.83 L159.411 1673.83 L158.253 1673.83 L157.116 1673.83 L156.001 1673.83 L154.908 1673.83 L153.838 1673.83 L152.789 1673.83 L151.762 1673.83 L150.757 1673.83 L149.774 1673.83 L148.813 1673.83 L147.875 1673.83 L146.958 1673.83 L146.064 1673.83 L145.192 1673.83 L144.342 1673.83 L143.514 1673.83 L142.708 1673.83 L141.924 1673.83 L141.163 1673.83 L140.424 1673.83 L139.707 1673.83 L139.012 1673.83 L138.34 1673.83 L137.69 1673.83 L137.062 1673.83 L136.457 1673.83 L135.874 1673.83 L135.313 1673.83 L134.775 1673.83 L134.259 1673.83 L133.765 1673.83 L133.294 1673.83 L132.845 1673.83 L132.418 1673.83 L132.014 1673.83 L131.632 1673.83 L131.273 1673.83 L130.936 1673.83 L130.622 1673.83 L130.33 1673.83 L130.06 1673.83 L129.813 1673.83 L129.588 1673.83 L129.386 1673.83 L129.206 1673.83 L129.049 1673.83 L128.914 1673.83 L128.802 1673.83 L128.712 1673.83 L128.645 1673.83 L128.6 1673.83 L128.577 1673.83 L128.577 1673.83 L128.6 1673.83 L128.645 1673.83 L128.712 1673.83 L128.802 1673.83 L128.914 1673.83 L129.049 1673.83 L129.206 1673.83 L129.386 1673.83 L129.588 1673.83 L129.813 1673.83 L130.06 1673.83 L130.33 1673.83 L130.622 1673.83 L130.936 1673.83 L131.273 1673.83 L131.632 1673.83 L132.014 1673.83 L132.418 1673.83 L132.845 1673.83 L133.294 1673.83 L133.765 1673.83 L134.259 1673.83 L134.775 1673.83 L135.313 1673.83 L135.874 1673.83 L136.457 1673.83 L137.062 1673.83 L137.69 1673.83 L138.34 1673.83 L139.012 1673.83 L139.707 1673.83 L140.424 1673.83 L141.163 1673.83 L141.924 1673.83 L142.708 1673.83 L143.514 1673.83 L144.342 1673.83 L145.192 1673.83 L146.064 1673.83 L146.958 1673.83 L147.875 1673.83 L148.813 1673.83 L149.774 1673.83 L150.757 1673.83 L151.762 1673.83 L152.789 1673.83 L153.838 1673.83 L154.908 1673.83 L156.001 1673.83 L157.116 1673.83 L158.253 1673.83 L159.411 1673.83 L160.592 1673.83 L161.794 1673.83 L163.018 1673.83 L164.265 1673.83 L165.532 1673.83 L166.822 1673.83 L168.133 1673.83 L169.466 1673.83 L170.821 1673.83 L172.197 1673.83 L173.596 1673.83 L175.015 1673.83 L176.456 1673.83 L177.919 1673.83 L179.404 1673.83 L180.909 1673.83 L182.437 1673.83 L183.986 1673.83 L185.556 1673.83 L187.147 1673.83 L188.76 1673.83 L190.395 1673.83 L192.05 1673.83 L193.727 1673.83 L195.425 1673.83 L197.144 1673.83 L198.885 1673.83 L200.646 1673.83 L202.429 1673.83 L204.233 1673.83 L206.057 1673.83 L207.903 1673.83 L209.77 1673.83 L211.657 1673.83 L213.566 1673.83 L215.495 1673.83 L217.446 1673.83 L219.417 1673.83 L221.408 1673.83 L223.421 1673.83 L225.454 1673.83 L227.508 1673.83 L229.582 1673.83 L231.677 1673.83 L233.792 1673.83 L235.928 1673.83 L238.085 1673.83 L240.261 1673.83 L242.459 1673.83 L244.676 1673.83 L246.914 1673.83 L249.172 1673.83 L251.45 1673.83 L253.748 1673.83 L256.066 1673.83 L258.405 1673.83 L260.763 1673.83 L263.141 1673.83 L265.54 1673.83 L267.958 1673.83 L270.396 1673.83 L272.854 1673.83 L275.331 1673.83 L277.829 1673.83 L280.346 1673.83 L282.882 1673.83 L285.438 1673.83 L288.014 1673.83 L290.609 1673.83 L293.223 1673.83 L295.857 1673.83 L298.51 1673.83 L301.183 1673.83 L303.874 1673.83 L306.585 1673.83 L309.315 1673.83 L312.064 1673.83 L314.832 1673.83 L317.619 1673.83 L320.425 1673.83 L323.25 1673.83 L326.093 1673.83 L328.956 1673.83 L331.837 1673.83 L334.736 1673.83 L337.655 1673.83 L340.591 1673.83 L343.547 1673.83 L346.52 1673.83 L349.513 1673.83 L352.523 1673.83 L355.552 1673.83 L358.599 1673.83 L361.664 1673.83 L364.747 1673.83 L367.848 1673.83 L370.967 1673.83 L374.105 1673.83 L377.26 1673.83 L380.432 1673.83 L383.623 1673.83 L386.831 1673.83 L390.057 1673.83 L393.301 1673.83 L396.562 1673.83 L399.841 1673.83 L403.137 1673.83 L406.45 1673.83 L409.78 1673.83 L413.128 1673.83 L416.493 1673.83 L419.875 1673.83 L423.274 1673.83 L426.691 1673.83 L430.124 1673.83 L433.574 1673.83 L437.04 1673.83 L440.524 1673.83 L444.024 1673.83 L447.54 1673.83 L451.074 1673.83 L454.623 1673.83 L458.19 1673.83 L461.772 1673.83 L465.371 1673.83 L468.986 1673.83 L472.617 1673.83 L476.264 1673.83 L479.928 1673.83 L483.607 1673.83 L487.302 1673.83 L491.013 1673.83 L494.74 1673.83 L498.482 1673.83 L502.241 1673.83 L506.014 1673.83 L509.803 1673.83 L513.608 1673.83 L517.428 1673.83 L521.263 1673.83 L525.114 1673.83 L528.98 1673.83 L532.86 1673.83 L536.756 1673.83 L540.667 1673.83 L544.593 1673.83 L548.533 1673.83 L552.488 1673.83 L556.458 1673.83 L560.443 1673.83 L564.442 1673.83 L568.455 1673.83 L572.483 1673.83 L576.526 1673.83 L580.582 1673.83 L584.653 1673.83 L588.738 1673.83 L592.837 1673.83 L596.949 1673.83 L601.076 1673.83 L605.217 1673.83 L609.371 1673.83 L613.539 1673.83 L617.721 1673.83 L621.916 1673.83 L626.125 1673.83 L630.347 1673.83 L634.583 1673.83 L638.831 1673.83 L643.093 1673.83 L647.368 1673.83 L651.656 1673.83 L655.957 1673.83 L660.271 1673.83 L664.598 1673.83 L668.937 1673.83 L673.289 1673.83 L677.654 1673.83 L682.031 1673.83 L686.421 1673.83 L690.823 1673.83 L695.237 1673.83 L699.664 1673.83 L704.102 1673.83 L708.553 1673.83 L713.016 1673.83 L717.491 1673.83 L721.977 1673.83 L726.475 1673.83 L730.985 1673.83 L735.507 1673.83 L740.04 1673.83 L744.585 1673.83 L749.141 1673.83 L753.708 1673.83 L758.287 1673.83 L762.876 1673.83 L767.477 1673.83 L772.089 1673.83 L776.712 1673.83 L781.345 1673.83 L785.99 1673.83 L790.645 1673.83 L795.31 1673.83 L799.987 1673.83 L804.673 1673.83 L809.37 1673.83 L814.078 1673.83 L818.796 1673.83 L823.523 1673.83 L828.261 1673.83 L833.009 1673.83 L837.767 1673.83 L842.535 1673.83 L847.312 1673.83 L852.099 1673.83 L856.896 1673.83 L861.702 1673.83 L866.518 1673.83 L871.343 1673.83 L876.178 1673.83 L881.022 1673.83 L885.874 1673.83 L890.736 1673.83 L895.607 1673.83 L900.487 1673.83 L905.376 1673.83 L910.273 1673.83 L915.179 1673.83 L920.094 1673.83 L925.017 1673.83 L929.949 1673.83 L934.889 1673.83 L939.837 1673.83 L944.794 1673.83 L949.759 1673.83 L954.731 1673.83 L959.712 1673.83 L964.701 1673.83 L969.697 1673.83 L974.701 1673.83 L979.713 1673.83 L984.733 1673.83 L989.76 1673.83 L994.794 1673.83 L999.836 1673.83 L1004.88 1673.83 L1009.94 1673.83 L1015 1673.83 L1020.07 1673.83 L1025.15 1673.83 L1030.24 1673.83 L1035.33 1673.83 L1040.42 1673.83 L1045.53 1673.83 L1050.64 1673.83 L1055.76 1673.83 L1060.88 1673.83 L1066.01 1673.83 L1071.15 1673.83 L1076.29 1673.83 L1081.44 1673.83 L1086.59 1673.83 L1091.75 1673.83 L1096.92 1673.83 L1102.09 1673.83 L1107.27 1673.83 L1112.45 1673.83 L1117.64 1673.83 L1122.84 1673.83 L1128.04 1673.83 L1133.24 1673.83 L1138.45 1673.83 L1143.67 1673.83 L1148.89 1673.83 L1154.12 1673.83 L1159.35 1673.83 L1164.58 1673.83 L1169.82 1673.83 L1175.07 1673.83 L1180.32 1673.83 L1185.57 1673.83 L1190.83 1673.83 L1196.09 1673.83 L1201.36 1673.83 L1206.63 1673.83 L1211.91 1673.83 L1217.19 1673.83 L1222.47 1673.83 L1227.76 1673.83 L1233.05 1673.83 L1238.35 1673.83 L1243.65 1673.83 L1248.95 1673.83 L1254.26 1673.83 L1259.57 1673.83 L1264.88 1673.83  Z" fill="#e95420" fill-rule="evenodd" fill-opacity="0.16"/>
<polyline clip-path="url(#clip832)" style="stroke:#e95420; stroke-linecap:round; stroke-linejoin:round; stroke-width:16; stroke-opacity:1; fill:none" points="1264.88,6485.41 1259.57,6471.64 1254.26,6457.87 1248.95,6444.11 1243.65,6430.34 1238.35,6416.57 1233.05,6402.81 1227.76,6389.04 1222.47,6375.27 1217.19,6361.51 1211.91,6347.74 1206.63,6333.97 1201.36,6320.2 1196.09,6306.44 1190.83,6292.67 1185.57,6278.9 1180.32,6265.14 1175.07,6251.37 1169.82,6237.6 1164.58,6223.83 1159.35,6210.07 1154.12,6196.3 1148.89,6182.53 1143.67,6168.77 1138.45,6155 1133.24,6141.23 1128.04,6127.47 1122.84,6113.7 1117.64,6099.93 1112.45,6086.16 1107.27,6072.4 1102.09,6058.63 1096.92,6044.86 1091.75,6031.1 1086.59,6017.33 1081.44,6003.56 1076.29,5989.8 1071.15,5976.03 1066.01,5962.26 1060.88,5948.49 1055.76,5934.73 1050.64,5920.96 1045.53,5907.19 1040.42,5893.43 1035.33,5879.66 1030.24,5865.89 1025.15,5852.13 1020.07,5838.36 1015,5824.59 1009.94,5810.82 1004.88,5797.06 999.836,5783.29 994.794,5769.52 989.76,5755.76 984.733,5741.99 979.713,5728.22 974.701,5714.45 969.697,5700.69 964.701,5686.92 959.712,5673.15 954.731,5659.39 949.759,5645.62 944.794,5631.85 939.837,5618.09 934.889,5604.32 929.949,5590.55 925.017,5576.78 920.094,5563.02 915.179,5549.25 910.273,5535.48 905.376,5521.72 900.487,5507.95 895.607,5494.18 890.736,5480.42 885.874,5466.65 881.022,5452.88 876.178,5439.11 871.343,5425.35 866.518,5411.58 861.702,5397.81 856.896,5384.05 852.099,5370.28 847.312,5356.51 842.535,5342.75 837.767,5328.98 833.009,5315.21 828.261,5301.44 823.523,5287.68 818.796,5273.91 814.078,5260.14 809.37,5246.38 804.673,5232.61 799.987,5218.84 795.31,5205.07 790.645,5191.31 785.99,5177.54 781.345,5163.77 776.712,5150.01 772.089,5136.24 767.477,5122.47 762.876,5108.71 758.287,5094.94 753.708,5081.17 749.141,5067.4 744.585,5053.64 740.04,5039.87 735.507,5026.1 730.985,5012.34 726.475,4998.57 721.977,4984.8 717.491,4971.04 713.016,4957.27 708.553,4943.5 704.102,4929.73 699.664,4915.97 695.237,4902.2 690.823,4888.43 686.421,4874.67 682.031,4860.9 677.654,4847.13 673.289,4833.37 668.937,4819.6 664.598,4805.83 660.271,4792.06 655.957,4778.3 651.656,4764.53 647.368,4750.76 643.093,4737 638.831,4723.23 634.583,4709.46 630.347,4695.69 626.125,4681.93 621.916,4668.16 617.721,4654.39 613.539,4640.63 609.371,4626.86 605.217,4613.09 601.076,4599.33 596.949,4585.56 592.837,4571.79 588.738,4558.02 584.653,4544.26 580.582,4530.49 576.526,4516.72 572.483,4502.96 568.455,4489.19 564.442,4475.42 560.443,4461.66 556.458,4447.89 552.488,4434.12 548.533,4420.35 544.593,4406.59 540.667,4392.82 536.756,4379.05 532.86,4365.29 528.98,4351.52 525.114,4337.75 521.263,4323.99 517.428,4310.22 513.608,4296.45 509.803,4282.68 506.014,4268.92 502.241,4255.15 498.482,4241.38 494.74,4227.62 491.013,4213.85 487.302,4200.08 483.607,4186.31 479.928,4172.55 476.264,4158.78 472.617,4145.01 468.986,4131.25 465.371,4117.48 461.772,4103.71 458.19,4089.95 454.623,4076.18 451.074,4062.41 447.54,4048.64 444.024,4034.88 440.524,4021.11 437.04,4007.34 433.574,3993.58 430.124,3979.81 426.691,3966.04 423.274,3952.28 419.875,3938.51 416.493,3924.74 413.128,3910.97 409.78,3897.21 406.45,3883.44 403.137,3869.67 399.841,3855.91 396.562,3842.14 393.301,3828.37 390.057,3814.61 386.831,3800.84 383.623,3787.07 380.432,3773.3 377.26,3759.54 374.105,3745.77 370.967,3732 367.848,3718.24 364.747,3704.47 361.664,3690.7 358.599,3676.94 355.552,3663.17 352.523,3649.4 349.513,3635.63 346.52,3621.87 343.547,3608.1 340.591,3594.33 337.655,3580.57 334.736,3566.8 331.837,3553.03 328.956,3539.26 326.093,3525.5 323.25,3511.73 320.425,3497.96 317.619,3484.2 314.832,3470.43 312.064,3456.66 309.315,3442.9 306.585,3429.13 303.874,3415.36 301.183,3401.59 298.51,3387.83 295.857,3374.06 293.223,3360.29 290.609,3346.53 288.014,3332.76 285.438,3318.99 282.882,3305.23 280.346,3291.46 277.829,3277.69 275.331,3263.92 272.854,3250.16 270.396,3236.39 267.958,3222.62 265.54,3208.86 263.141,3195.09 260.763,3181.32 258.405,3167.56 256.066,3153.79 253.748,3140.02 251.45,3126.25 249.172,3112.49 246.914,3098.72 244.676,3084.95 242.459,3071.19 240.261,3057.42 238.085,3043.65 235.928,3029.88 233.792,3016.12 231.677,3002.35 229.582,2988.58 227.508,2974.82 225.454,2961.05 223.421,2947.28 221.408,2933.52 219.417,2919.75 217.446,2905.98 215.495,2892.21 213.566,2878.45 211.657,2864.68 209.77,2850.91 207.903,2837.15 206.057,2823.38 204.233,2809.61 202.429,2795.85 200.646,2782.08 198.885,2768.31 197.144,2754.54 195.425,2740.78 193.727,2727.01 192.05,2713.24 190.395,2699.48 188.76,2685.71 187.147,2671.94 185.556,2658.18 183.986,2644.41 182.437,2630.64 180.909,2616.87 179.404,2603.11 177.919,2589.34 176.456,2575.57 175.015,2561.81 173.596,2548.04 172.197,2534.27 170.821,2520.5 169.466,2506.74 168.133,2492.97 166.822,2479.2 165.532,2465.44 164.265,2451.67 163.018,2437.9 161.794,2424.14 160.592,2410.37 159.411,2396.6 158.253,2382.83 157.116,2369.07 156.001,2355.3 154.908,2341.53 153.838,2327.77 152.789,2314 151.762,2300.23 150.757,2286.47 149.774,2272.7 148.813,2258.93 147.875,2245.16 146.958,2231.4 146.064,2217.63 145.192,2203.86 144.342,2190.1 143.514,2176.33 142.708,2162.56 141.924,2148.8 141.163,2135.03 140.424,2121.26 139.707,2107.49 139.012,2093.73 138.34,2079.96 137.69,2066.19 137.062,2052.43 136.457,2038.66 135.874,2024.89 135.313,2011.12 134.775,1997.36 134.259,1983.59 133.765,1969.82 133.294,1956.06 132.845,1942.29 132.418,1928.52 132.014,1914.76 131.632,1900.99 131.273,1887.22 130.936,1873.45 130.622,1859.69 130.33,1845.92 130.06,1832.15 129.813,1818.39 129.588,1804.62 129.386,1790.85 129.206,1777.09 129.049,1763.32 128.914,1749.55 128.802,1735.78 128.712,1722.02 128.645,1708.25 128.6,1694.48 128.577,1680.72 128.577,1666.95 128.6,1653.18 128.645,1639.42 128.712,1625.65 128.802,1611.88 128.914,1598.11 129.049,1584.35 129.206,1570.58 129.386,1556.81 129.588,1543.05 129.813,1529.28 130.06,1515.51 130.33,1501.74 130.622,1487.98 130.936,1474.21 131.273,1460.44 131.632,1446.68 132.014,1432.91 132.418,1419.14 132.845,1405.38 133.294,1391.61 133.765,1377.84 134.259,1364.07 134.775,1350.31 135.313,1336.54 135.874,1322.77 136.457,1309.01 137.062,1295.24 137.69,1281.47 138.34,1267.71 139.012,1253.94 139.707,1240.17 140.424,1226.4 141.163,1212.64 141.924,1198.87 142.708,1185.1 143.514,1171.34 144.342,1157.57 145.192,1143.8 146.064,1130.04 146.958,1116.27 147.875,1102.5 148.813,1088.73 149.774,1074.97 150.757,1061.2 151.762,1047.43 152.789,1033.67 153.838,1019.9 154.908,1006.13 156.001,992.365 157.116,978.598 158.253,964.831 159.411,951.064 160.592,937.297 161.794,923.53 163.018,909.763 164.265,895.996 165.532,882.229 166.822,868.462 168.133,854.695 169.466,840.928 170.821,827.161 172.197,813.394 173.596,799.627 175.015,785.86 176.456,772.093 177.919,758.326 179.404,744.559 180.909,730.791 182.437,717.024 183.986,703.257 185.556,689.49 187.147,675.723 188.76,661.956 190.395,648.189 192.05,634.422 193.727,620.655 195.425,606.888 197.144,593.121 198.885,579.354 200.646,565.587 202.429,551.82 204.233,538.053 206.057,524.286 207.903,510.519 209.77,496.752 211.657,482.985 213.566,469.218 215.495,455.451 217.446,441.684 219.417,427.917 221.408,414.15 223.421,400.383 225.454,386.616 227.508,372.849 229.582,359.082 231.677,345.315 233.792,331.548 235.928,317.781 238.085,304.014 240.261,290.247 242.459,276.48 244.676,262.713 246.914,248.946 249.172,235.179 251.45,221.412 253.748,207.645 256.066,193.877 258.405,180.11 260.763,166.343 263.141,152.576 265.54,138.809 267.958,125.042 270.396,111.275 272.854,97.5083 275.331,83.7413 277.829,69.9742 280.346,56.2072 282.882,42.4402 285.438,28.6732 288.014,14.9061 290.609,1.13912 293.223,-12.6279 295.857,-26.3949 298.51,-40.162 301.183,-53.929 303.874,-67.696 306.585,-81.463 309.315,-95.2301 312.064,-108.997 314.832,-122.764 317.619,-136.531 320.425,-150.298 323.25,-164.065 326.093,-177.832 328.956,-191.599 331.837,-205.366 334.736,-219.133 337.655,-232.9 340.591,-246.667 343.547,-260.434 346.52,-274.201 349.513,-287.968 352.523,-301.735 355.552,-315.502 358.599,-329.269 361.664,-343.037 364.747,-356.804 367.848,-370.571 370.967,-384.338 374.105,-398.105 377.26,-411.872 380.432,-425.639 383.623,-439.406 386.831,-453.173 390.057,-466.94 393.301,-480.707 396.562,-494.474 399.841,-508.241 403.137,-522.008 406.45,-535.775 409.78,-549.542 413.128,-563.309 416.493,-577.076 419.875,-590.843 423.274,-604.61 426.691,-618.377 430.124,-632.144 433.574,-645.911 437.04,-659.678 440.524,-673.445 444.024,-687.212 447.54,-700.979 451.074,-714.746 454.623,-728.513 458.19,-742.28 461.772,-756.047 465.371,-769.814 468.986,-783.581 472.617,-797.348 476.264,-811.115 479.928,-824.882 483.607,-838.649 487.302,-852.416 491.013,-866.184 494.74,-879.951 498.482,-893.718 502.241,-907.485 506.014,-921.252 509.803,-935.019 513.608,-948.786 517.428,-962.553 521.263,-976.32 525.114,-990.087 528.98,-1003.85 532.86,-1017.62 536.756,-1031.39 540.667,-1045.15 544.593,-1058.92 548.533,-1072.69 552.488,-1086.46 556.458,-1100.22 560.443,-1113.99 564.442,-1127.76 568.455,-1141.52 572.483,-1155.29 576.526,-1169.06 580.582,-1182.83 584.653,-1196.59 588.738,-1210.36 592.837,-1224.13 596.949,-1237.89 601.076,-1251.66 605.217,-1265.43 609.371,-1279.19 613.539,-1292.96 617.721,-1306.73 621.916,-1320.5 626.125,-1334.26 630.347,-1348.03 634.583,-1361.8 638.831,-1375.56 643.093,-1389.33 647.368,-1403.1 651.656,-1416.86 655.957,-1430.63 660.271,-1444.4 664.598,-1458.17 668.937,-1471.93 673.289,-1485.7 677.654,-1499.47 682.031,-1513.23 686.421,-1527 690.823,-1540.77 695.237,-1554.53 699.664,-1568.3 704.102,-1582.07 708.553,-1595.84 713.016,-1609.6 717.491,-1623.37 721.977,-1637.14 726.475,-1650.9 730.985,-1664.67 735.507,-1678.44 740.04,-1692.21 744.585,-1705.97 749.141,-1719.74 753.708,-1733.51 758.287,-1747.27 762.876,-1761.04 767.477,-1774.81 772.089,-1788.57 776.712,-1802.34 781.345,-1816.11 785.99,-1829.88 790.645,-1843.64 795.31,-1857.41 799.987,-1871.18 804.673,-1884.94 809.37,-1898.71 814.078,-1912.48 818.796,-1926.24 823.523,-1940.01 828.261,-1953.78 833.009,-1967.55 837.767,-1981.31 842.535,-1995.08 847.312,-2008.85 852.099,-2022.61 856.896,-2036.38 861.702,-2050.15 866.518,-2063.91 871.343,-2077.68 876.178,-2091.45 881.022,-2105.22 885.874,-2118.98 890.736,-2132.75 895.607,-2146.52 900.487,-2160.28 905.376,-2174.05 910.273,-2187.82 915.179,-2201.59 920.094,-2215.35 925.017,-2229.12 929.949,-2242.89 934.889,-2256.65 939.837,-2270.42 944.794,-2284.19 949.759,-2297.95 954.731,-2311.72 959.712,-2325.49 964.701,-2339.26 969.697,-2353.02 974.701,-2366.79 979.713,-2380.56 984.733,-2394.32 989.76,-2408.09 994.794,-2421.86 999.836,-2435.62 1004.88,-2449.39 1009.94,-2463.16 1015,-2476.93 1020.07,-2490.69 1025.15,-2504.46 1030.24,-2518.23 1035.33,-2531.99 1040.42,-2545.76 1045.53,-2559.53 1050.64,-2573.29 1055.76,-2587.06 1060.88,-2600.83 1066.01,-2614.6 1071.15,-2628.36 1076.29,-2642.13 1081.44,-2655.9 1086.59,-2669.66 1091.75,-2683.43 1096.92,-2697.2 1102.09,-2710.96 1107.27,-2724.73 1112.45,-2738.5 1117.64,-2752.27 1122.84,-2766.03 1128.04,-2779.8 1133.24,-2793.57 1138.45,-2807.33 1143.67,-2821.1 1148.89,-2834.87 1154.12,-2848.64 1159.35,-2862.4 1164.58,-2876.17 1169.82,-2889.94 1175.07,-2903.7 1180.32,-2917.47 1185.57,-2931.24 1190.83,-2945 1196.09,-2958.77 1201.36,-2972.54 1206.63,-2986.31 1211.91,-3000.07 1217.19,-3013.84 1222.47,-3027.61 1227.76,-3041.37 1233.05,-3055.14 1238.35,-3068.91 1243.65,-3082.67 1248.95,-3096.44 1254.26,-3110.21 1259.57,-3123.98 1264.88,-3137.74 "/>
<path clip-path="url(#clip830)" d="M1691.33 1288.91 L5505.51 1288.91 L5505.51 134.129 L1691.33 134.129  Z" fill="#f0f1eb" fill-rule="evenodd" fill-opacity="1"/>
<polyline clip-path="url(#clip831)" style="stroke:#000000; stroke-linecap:round; stroke-linejoin:round; stroke-width:2; stroke-opacity:0.08; fill:none" points="1691.33,1288.91 1691.33,134.129 "/>
<polyline clip-path="url(#clip831)" style="stroke:#000000; stroke-linecap:round; stroke-linejoin:round; stroke-width:2; stroke-opacity:0.08; fill:none" points="2454.16,1288.91 2454.16,134.129 "/>
<polyline clip-path="url(#clip831)" style="stroke:#000000; stroke-linecap:round; stroke-linejoin:round; stroke-width:2; stroke-opacity:0.08; fill:none" points="3217,1288.91 3217,134.129 "/>
<polyline clip-path="url(#clip831)" style="stroke:#000000; stroke-linecap:round; stroke-linejoin:round; stroke-width:2; stroke-opacity:0.08; fill:none" points="3979.84,1288.91 3979.84,134.129 "/>
<polyline clip-path="url(#clip831)" style="stroke:#000000; stroke-linecap:round; stroke-linejoin:round; stroke-width:2; stroke-opacity:0.08; fill:none" points="4742.67,1288.91 4742.67,134.129 "/>
<polyline clip-path="url(#clip831)" style="stroke:#000000; stroke-linecap:round; stroke-linejoin:round; stroke-width:2; stroke-opacity:0.08; fill:none" points="5505.51,1288.91 5505.51,134.129 "/>
<polyline clip-path="url(#clip831)" style="stroke:#000000; stroke-linecap:round; stroke-linejoin:round; stroke-width:2; stroke-opacity:0.08; fill:none" points="1691.33,1288.91 1691.33,134.129 "/>
<polyline clip-path="url(#clip831)" style="stroke:#000000; stroke-linecap:round; stroke-linejoin:round; stroke-width:2; stroke-opacity:0.08; fill:none" points="2454.16,1288.91 2454.16,134.129 "/>
<polyline clip-path="url(#clip831)" style="stroke:#000000; stroke-linecap:round; stroke-linejoin:round; stroke-width:2; stroke-opacity:0.08; fill:none" points="3217,1288.91 3217,134.129 "/>
<polyline clip-path="url(#clip831)" style="stroke:#000000; stroke-linecap:round; stroke-linejoin:round; stroke-width:2; stroke-opacity:0.08; fill:none" points="3979.84,1288.91 3979.84,134.129 "/>
<polyline clip-path="url(#clip831)" style="stroke:#000000; stroke-linecap:round; stroke-linejoin:round; stroke-width:2; stroke-opacity:0.08; fill:none" points="4742.67,1288.91 4742.67,134.129 "/>
<polyline clip-path="url(#clip831)" style="stroke:#000000; stroke-linecap:round; stroke-linejoin:round; stroke-width:2; stroke-opacity:0.08; fill:none" points="5505.51,1288.91 5505.51,134.129 "/>
<polyline clip-path="url(#clip831)" style="stroke:#000000; stroke-linecap:round; stroke-linejoin:round; stroke-width:2; stroke-opacity:0.08; fill:none" points="1691.33,1288.91 5505.51,1288.91 "/>
<polyline clip-path="url(#clip831)" style="stroke:#000000; stroke-linecap:round; stroke-linejoin:round; stroke-width:2; stroke-opacity:0.08; fill:none" points="1691.33,903.981 5505.51,903.981 "/>
<polyline clip-path="url(#clip831)" style="stroke:#000000; stroke-linecap:round; stroke-linejoin:round; stroke-width:2; stroke-opacity:0.08; fill:none" points="1691.33,519.055 5505.51,519.055 "/>
<polyline clip-path="url(#clip831)" style="stroke:#000000; stroke-linecap:round; stroke-linejoin:round; stroke-width:2; stroke-opacity:0.08; fill:none" points="1691.33,134.129 5505.51,134.129 "/>
<polyline clip-path="url(#clip831)" style="stroke:#000000; stroke-linecap:round; stroke-linejoin:round; stroke-width:2; stroke-opacity:0.08; fill:none" points="1691.33,1288.91 5505.51,1288.91 "/>
<polyline clip-path="url(#clip831)" style="stroke:#000000; stroke-linecap:round; stroke-linejoin:round; stroke-width:2; stroke-opacity:0.08; fill:none" points="1691.33,903.981 5505.51,903.981 "/>
<polyline clip-path="url(#clip831)" style="stroke:#000000; stroke-linecap:round; stroke-linejoin:round; stroke-width:2; stroke-opacity:0.08; fill:none" points="1691.33,519.055 5505.51,519.055 "/>
<polyline clip-path="url(#clip831)" style="stroke:#000000; stroke-linecap:round; stroke-linejoin:round; stroke-width:2; stroke-opacity:0.08; fill:none" points="1691.33,134.129 5505.51,134.129 "/>
<polyline clip-path="url(#clip830)" style="stroke:#000000; stroke-linecap:round; stroke-linejoin:round; stroke-width:4; stroke-opacity:1; fill:none" points="1691.33,1288.91 5505.51,1288.91 "/>
<polyline clip-path="url(#clip830)" style="stroke:#000000; stroke-linecap:round; stroke-linejoin:round; stroke-width:4; stroke-opacity:1; fill:none" points="1691.33,134.129 5505.51,134.129 "/>
<polyline clip-path="url(#clip830)" style="stroke:#000000; stroke-linecap:round; stroke-linejoin:round; stroke-width:4; stroke-opacity:1; fill:none" points="1691.33,1288.91 1691.33,1270.01 "/>
<polyline clip-path="url(#clip830)" style="stroke:#000000; stroke-linecap:round; stroke-linejoin:round; stroke-width:4; stroke-opacity:1; fill:none" points="2454.16,1288.91 2454.16,1270.01 "/>
<polyline clip-path="url(#clip830)" style="stroke:#000000; stroke-linecap:round; stroke-linejoin:round; stroke-width:4; stroke-opacity:1; fill:none" points="3217,1288.91 3217,1270.01 "/>
<polyline clip-path="url(#clip830)" style="stroke:#000000; stroke-linecap:round; stroke-linejoin:round; stroke-width:4; stroke-opacity:1; fill:none" points="3979.84,1288.91 3979.84,1270.01 "/>
<polyline clip-path="url(#clip830)" style="stroke:#000000; stroke-linecap:round; stroke-linejoin:round; stroke-width:4; stroke-opacity:1; fill:none" points="4742.67,1288.91 4742.67,1270.01 "/>
<polyline clip-path="url(#clip830)" style="stroke:#000000; stroke-linecap:round; stroke-linejoin:round; stroke-width:4; stroke-opacity:1; fill:none" points="5505.51,1288.91 5505.51,1270.01 "/>
<polyline clip-path="url(#clip830)" style="stroke:#000000; stroke-linecap:round; stroke-linejoin:round; stroke-width:4; stroke-opacity:1; fill:none" points="1691.33,134.129 1691.33,153.026 "/>
<polyline clip-path="url(#clip830)" style="stroke:#000000; stroke-linecap:round; stroke-linejoin:round; stroke-width:4; stroke-opacity:1; fill:none" points="2454.16,134.129 2454.16,153.026 "/>
<polyline clip-path="url(#clip830)" style="stroke:#000000; stroke-linecap:round; stroke-linejoin:round; stroke-width:4; stroke-opacity:1; fill:none" points="3217,134.129 3217,153.026 "/>
<polyline clip-path="url(#clip830)" style="stroke:#000000; stroke-linecap:round; stroke-linejoin:round; stroke-width:4; stroke-opacity:1; fill:none" points="3979.84,134.129 3979.84,153.026 "/>
<polyline clip-path="url(#clip830)" style="stroke:#000000; stroke-linecap:round; stroke-linejoin:round; stroke-width:4; stroke-opacity:1; fill:none" points="4742.67,134.129 4742.67,153.026 "/>
<polyline clip-path="url(#clip830)" style="stroke:#000000; stroke-linecap:round; stroke-linejoin:round; stroke-width:4; stroke-opacity:1; fill:none" points="5505.51,134.129 5505.51,153.026 "/>
<g clip-path="url(#clip830)">
<text style="fill:#000000; fill-opacity:1; font-family:Arial,Helvetica Neue,Helvetica,sans-serif; font-size:66px; text-anchor:middle;" transform="rotate(0, 1691.33, 1392.29)" x="1691.33" y="1392.29">0</text>
</g>
<g clip-path="url(#clip830)">
<text style="fill:#000000; fill-opacity:1; font-family:Arial,Helvetica Neue,Helvetica,sans-serif; font-size:66px; text-anchor:middle;" transform="rotate(0, 2454.16, 1392.29)" x="2454.16" y="1392.29">100</text>
</g>
<g clip-path="url(#clip830)">
<text style="fill:#000000; fill-opacity:1; font-family:Arial,Helvetica Neue,Helvetica,sans-serif; font-size:66px; text-anchor:middle;" transform="rotate(0, 3217, 1392.29)" x="3217" y="1392.29">200</text>
</g>
<g clip-path="url(#clip830)">
<text style="fill:#000000; fill-opacity:1; font-family:Arial,Helvetica Neue,Helvetica,sans-serif; font-size:66px; text-anchor:middle;" transform="rotate(0, 3979.84, 1392.29)" x="3979.84" y="1392.29">300</text>
</g>
<g clip-path="url(#clip830)">
<text style="fill:#000000; fill-opacity:1; font-family:Arial,Helvetica Neue,Helvetica,sans-serif; font-size:66px; text-anchor:middle;" transform="rotate(0, 4742.67, 1392.29)" x="4742.67" y="1392.29">400</text>
</g>
<g clip-path="url(#clip830)">
<text style="fill:#000000; fill-opacity:1; font-family:Arial,Helvetica Neue,Helvetica,sans-serif; font-size:66px; text-anchor:middle;" transform="rotate(0, 5505.51, 1392.29)" x="5505.51" y="1392.29">500</text>
</g>
<g clip-path="url(#clip830)">
<text style="fill:#000000; fill-opacity:1; font-family:Arial,Helvetica Neue,Helvetica,sans-serif; font-size:82px; text-anchor:middle;" transform="rotate(0, 3598.42, 1518.09)" x="3598.42" y="1518.09">t</text>
</g>
<polyline clip-path="url(#clip830)" style="stroke:#000000; stroke-linecap:round; stroke-linejoin:round; stroke-width:4; stroke-opacity:1; fill:none" points="1691.33,1288.91 1691.33,134.129 "/>
<polyline clip-path="url(#clip830)" style="stroke:#000000; stroke-linecap:round; stroke-linejoin:round; stroke-width:4; stroke-opacity:1; fill:none" points="5505.51,1288.91 5505.51,134.129 "/>
<polyline clip-path="url(#clip830)" style="stroke:#000000; stroke-linecap:round; stroke-linejoin:round; stroke-width:4; stroke-opacity:1; fill:none" points="1691.33,1288.91 1710.23,1288.91 "/>
<polyline clip-path="url(#clip830)" style="stroke:#000000; stroke-linecap:round; stroke-linejoin:round; stroke-width:4; stroke-opacity:1; fill:none" points="1691.33,903.981 1710.23,903.981 "/>
<polyline clip-path="url(#clip830)" style="stroke:#000000; stroke-linecap:round; stroke-linejoin:round; stroke-width:4; stroke-opacity:1; fill:none" points="1691.33,519.055 1710.23,519.055 "/>
<polyline clip-path="url(#clip830)" style="stroke:#000000; stroke-linecap:round; stroke-linejoin:round; stroke-width:4; stroke-opacity:1; fill:none" points="1691.33,134.129 1710.23,134.129 "/>
<polyline clip-path="url(#clip830)" style="stroke:#000000; stroke-linecap:round; stroke-linejoin:round; stroke-width:4; stroke-opacity:1; fill:none" points="5505.51,1288.91 5486.61,1288.91 "/>
<polyline clip-path="url(#clip830)" style="stroke:#000000; stroke-linecap:round; stroke-linejoin:round; stroke-width:4; stroke-opacity:1; fill:none" points="5505.51,903.981 5486.61,903.981 "/>
<polyline clip-path="url(#clip830)" style="stroke:#000000; stroke-linecap:round; stroke-linejoin:round; stroke-width:4; stroke-opacity:1; fill:none" points="5505.51,519.055 5486.61,519.055 "/>
<polyline clip-path="url(#clip830)" style="stroke:#000000; stroke-linecap:round; stroke-linejoin:round; stroke-width:4; stroke-opacity:1; fill:none" points="5505.51,134.129 5486.61,134.129 "/>
<g clip-path="url(#clip830)">
<text style="fill:#000000; fill-opacity:1; font-family:Arial,Helvetica Neue,Helvetica,sans-serif; font-size:66px; text-anchor:middle;" transform="rotate(0, 1561.33, 1312.91)" x="1561.33" y="1312.91">0.1</text>
</g>
<g clip-path="url(#clip830)">
<text style="fill:#000000; fill-opacity:1; font-family:Arial,Helvetica Neue,Helvetica,sans-serif; font-size:66px; text-anchor:middle;" transform="rotate(0, 1561.33, 927.981)" x="1561.33" y="927.981">0.2</text>
</g>
<g clip-path="url(#clip830)">
<text style="fill:#000000; fill-opacity:1; font-family:Arial,Helvetica Neue,Helvetica,sans-serif; font-size:66px; text-anchor:middle;" transform="rotate(0, 1561.33, 543.055)" x="1561.33" y="543.055">0.3</text>
</g>
<g clip-path="url(#clip830)">
<text style="fill:#000000; fill-opacity:1; font-family:Arial,Helvetica Neue,Helvetica,sans-serif; font-size:66px; text-anchor:middle;" transform="rotate(0, 1561.33, 158.129)" x="1561.33" y="158.129">0.4</text>
</g>
<g clip-path="url(#clip830)">
<text style="fill:#000000; fill-opacity:1; font-family:Arial,Helvetica Neue,Helvetica,sans-serif; font-size:82px; text-anchor:middle;" transform="rotate(-90, 1415.31, 711.518)" x="1415.31" y="711.518">y</text>
</g>
<g clip-path="url(#clip830)">
<text style="fill:#000000; fill-opacity:1; font-family:Arial,Helvetica Neue,Helvetica,sans-serif; font-size:82px; text-anchor:middle;" transform="rotate(0, 3598.42, 72)" x="3598.42" y="72">BPS via PDMPFlux.jl  |  y = (|x|^2 - d)/sqrt(d)  |  d = 10^4  |  events 249</text>
</g>
<polyline clip-path="url(#clip831)" style="stroke:#e95420; stroke-linecap:round; stroke-linejoin:round; stroke-width:6.2; stroke-opacity:1; fill:none" points="1691.33,835.728 1698.96,794.157 1706.58,675.601 1714.21,785.729 1721.84,835.031 1729.47,867.949 1737.1,830.074 1744.73,715.212 1752.35,732.972 1759.98,838.642 1767.61,867.327 1775.24,819.027 1782.87,850.39 1790.5,863.898 1798.12,867.658 1805.75,837.545 1813.38,873.024 1821.01,864.459 1828.64,862.379 1836.27,838.611 1843.9,872.959 1851.52,865.406 1859.15,868.106 1866.78,860.122 1874.41,843.809 1882.04,872.439 1889.67,824.084 1897.29,698.743 1904.92,740.287 1912.55,844.78 1920.18,872.615 1927.81,872.937 1935.44,835.443 1943.06,873.066 1950.69,833.703 1958.32,767.115 1965.95,856.349 1973.58,868.597 1981.21,803.861 1988.83,866.837 1996.46,859.324 2004.09,849.136 2011.72,871.349 2019.35,865.892 2026.98,860.128 2034.6,777.076 2042.23,815.294 2049.86,871.081 2057.49,849.884 2065.12,725.38 2072.75,750.331 2080.37,901.279 2088,975.241 2095.63,972.219 2103.26,892.211 2110.89,931.544 2118.52,982.417 2126.14,956.305 2133.77,887.091 2141.4,819.007 2149.03,889.416 2156.66,882.839 2164.29,893.475 2171.91,835.144 2179.54,870.053 2187.17,894.805 2194.8,890.581 2202.43,823.117 2210.06,889.988 2217.69,892.901 2225.31,876.364 2232.94,819.55 2240.57,889.574 2248.2,882.613 2255.83,895.107 2263.46,890.985 2271.08,888.032 2278.71,849.775 2286.34,898.507 2293.97,870.254 2301.6,895.806 2309.23,897.074 2316.85,882.761 2324.48,894.56 2332.11,850.332 2339.74,911.631 2347.37,895.944 2355,913.339 2362.62,907.1 2370.25,978.003 2377.88,971.922 2385.51,888.855 2393.14,941.577 2400.77,984.687 2408.39,950.812 2416.02,909.115 2423.65,978.591 2431.28,971.082 2438.91,920.031 2446.54,981.421 2454.16,977.861 2461.79,984.379 2469.42,979.405 2477.05,969.803 2484.68,883.217 2492.31,939.588 2499.93,971.398 2507.56,1012.29 2515.19,1040.14 2522.82,994.51 2530.45,1040.51 2538.08,1035.26 2545.7,1026.16 2553.33,940.329 2560.96,1026.26 2568.59,1045.13 2576.22,996.235 2583.85,994.683 2591.48,1044.93 2599.1,1018.2 2606.73,994.244 2614.36,1044.87 2621.99,1043.81 2629.62,987.675 2637.25,854.557 2644.87,952.761 2652.5,1033.98 2660.13,1038.2 2667.76,966.063 2675.39,1038.39 2683.02,1033.74 2690.64,1032.84 2698.27,1039.07 2705.9,968.3 2713.53,1025.02 2721.16,1043.13 2728.79,1045.64 2736.41,1044.85 2744.04,994.113 2751.67,1040.85 2759.3,1020.78 2766.93,1048.82 2774.56,1032.53 2782.18,1052.21 2789.81,1005.28 2797.44,1018.39 2805.07,992.355 2812.7,1007.4 2820.33,1011.89 2827.95,939.389 2835.58,789.905 2843.21,926.802 2850.84,1007.71 2858.47,1011.64 2866.1,1015.42 2873.72,1001.67 2881.35,949.658 2888.98,1014.79 2896.61,1002.94 2904.24,1016.14 2911.87,1008.19 2919.5,1011.24 2927.12,937.305 2934.75,1000.8 2942.38,1015.82 2950.01,977.99 2957.64,947.643 2965.27,899.927 2972.89,971.37 2980.52,977.928 2988.15,998.505 2995.78,942.097 3003.41,980.029 3011.04,997.801 3018.66,958.322 3026.29,1000.5 3033.92,965.695 3041.55,992.427 3049.18,998.098 3056.81,936.425 3064.43,938.319 3072.06,923.76 3079.69,934.109 3087.32,867.473 3094.95,912.266 3102.58,938.235 3110.2,887.218 3117.83,832.313 3125.46,880.039 3133.09,890.588 3140.72,832.071 3148.35,892.526 3155.97,934.335 3163.6,941.887 3171.23,872.454 3178.86,901.291 3186.49,947.698 3194.12,917.119 3201.74,859.124 3209.37,937.68 3217,939.251 3224.63,891.65 3232.26,946.39 3239.89,924.145 3247.51,888.37 3255.14,900.005 3262.77,909.82 3270.4,819.778 3278.03,989.336 3285.66,1083.49 3293.29,1100.67 3300.91,1040.86 3308.54,1016.24 3316.17,1017.49 3323.8,1016.94 3331.43,1003.64 3339.06,1024.47 3346.68,968.314 3354.31,951.652 3361.94,1020.51 3369.57,1012.38 3377.2,1020.65 3384.83,1012.17 3392.45,972.437 3400.08,1007.86 3407.71,1001.24 3415.34,995.265 3422.97,988.86 3430.6,1004.81 3438.22,943.775 3445.85,892.304 3453.48,987.343 3461.11,1005.4 3468.74,1008.03 3476.37,960.509 3483.99,983.918 3491.62,1009.09 3499.25,957.277 3506.88,828.478 3514.51,853.917 3522.14,970.568 3529.76,1010.23 3537.39,994.947 3545.02,1004.98 3552.65,938.036 3560.28,999.814 3567.91,1001.39 3575.53,925.987 3583.16,773.596 3590.79,869.979 3598.42,978.444 3606.05,1009.92 3613.68,1025.5 3621.3,1090.39 3628.93,1078.3 3636.56,1091.49 3644.19,1075.98 3651.82,983.487 3659.45,982.1 3667.08,1075.4 3674.7,1091.72 3682.33,1031.06 3689.96,1067.98 3697.59,1093.89 3705.22,1091.67 3712.85,1092.37 3720.47,1094.63 3728.1,1062.8 3735.73,1094.86 3743.36,1059.34 3750.99,1015.57 3758.62,926.322 3766.24,799.933 3773.87,801.678 3781.5,802.289 3789.13,764.887 3796.76,776.586 3804.39,801.012 3812.01,790.028 3819.64,793.66 3827.27,779.852 3834.9,755.117 3842.53,755.644 3850.16,792.434 3857.78,752.239 3865.41,635.059 3873.04,707.294 3880.67,783.309 3888.3,792.34 3895.93,749.675 3903.55,630.025 3911.18,691.04 3918.81,777.506 3926.44,786.987 3934.07,791.449 3941.7,765.39 3949.32,672.066 3956.95,769.72 3964.58,790.39 3972.21,682.381 3979.84,478.098 3987.47,362.313 3995.09,600.89 4002.72,762.482 4010.35,847.088 4017.98,854.709 4025.61,785.345 4033.24,851.885 4040.87,850.646 4048.49,772.422 4056.12,773.442 4063.75,850.992 4071.38,851.556 4079.01,859.464 4086.64,835.837 4094.26,735.224 4101.89,817.747 4109.52,861.654 4117.15,828.577 4124.78,830.215 4132.41,861.508 4140.03,815.816 4147.66,693.138 4155.29,493.476 4162.92,658.438 4170.55,796.916 4178.18,858.409 4185.8,850.325 4193.43,853.948 4201.06,914.901 4208.69,904.075 4216.32,908.224 4223.95,912.081 4231.57,838.952 4239.2,844.668 4246.83,913.782 4254.46,905.911 4262.09,919.674 4269.72,917.64 4277.34,875.444 4284.97,756.264 4292.6,863.014 4300.23,916.306 4307.86,892.614 4315.49,873.139 4323.11,917.505 4330.74,884.848 4338.37,889.798 4346,917.228 4353.63,913.741 4361.26,915.282 4368.88,901.257 4376.51,895.471 4384.14,915.905 4391.77,859.353 4399.4,734.149 4407.03,863.916 4414.66,916.697 4422.28,916.553 4429.91,894.723 4437.54,916.126 4445.17,915.943 4452.8,923.66 4460.43,922.981 4468.05,924.044 4475.68,848.528 4483.31,860.166 4490.94,927.532 4498.57,917.914 4506.2,831.31 4513.82,757.492 4521.45,883.361 4529.08,932.246 4536.71,904.145 4544.34,799.058 4551.97,852.541 4559.59,925.314 4567.22,921.103 4574.85,912.47 4582.48,839.375 4590.11,757.218 4597.74,685.917 4605.36,755.347 4612.99,753.794 4620.62,740.674 4628.25,762.379 4635.88,744.115 4643.51,790.028 4651.13,759.902 4658.76,787.704 4666.39,769.896 4674.02,790.206 4681.65,758.248 4689.28,669.544 4696.9,767.51 4704.53,788.491 4712.16,751.923 4719.79,790.483 4727.42,773.386 4735.05,786.201 4742.67,744.753 4750.3,790.171 4757.93,789.717 4765.56,752.506 4773.19,790.481 4780.82,751.471 4788.45,775.095 4796.07,782.992 4803.7,797.772 4811.33,779.225 4818.96,800.099 4826.59,765.342 4834.22,821.424 4841.84,809.965 4849.47,823.411 4857.1,805.531 4864.73,710.665 4872.36,796.878 4879.99,825.543 4887.61,816.843 4895.24,816.247 4902.87,738.665 4910.5,645.814 4918.13,773.963 4925.76,825.128 4933.38,830.773 4941.01,807.672 4948.64,750.159 4956.27,744.702 4963.9,765.363 4971.53,709.039 4979.15,575.729 4986.78,644.998 4994.41,743.803 5002.04,765.622 5009.67,710.457 5017.3,630.102 5024.92,737.019 5032.55,766.952 5040.18,719.899 5047.81,683.888 5055.44,758.809 5063.07,756.745 5070.69,692.71 5078.32,761.476 5085.95,753.256 5093.58,761.403 5101.21,753.367 5108.84,668.346 5116.47,570.116 5124.09,705.923 5131.72,764.744 5139.35,746.58 5146.98,651.431 5154.61,746.276 5162.24,797.911 5169.86,792.842 5177.49,710.789 5185.12,713.32 5192.75,676.012 5200.38,561.719 5208.01,657.892 5215.63,701.232 5223.26,682.514 5230.89,760.692 5238.52,761.884 5246.15,768.318 5253.78,769.831 5261.4,744.29 5269.03,641.763 5276.66,516.636 5284.29,567.263 5291.92,472.249 5299.55,421.161 5307.17,301.482 5314.8,435.335 5322.43,491.294 5330.06,470.267 5337.69,461.61 5345.32,492.942 5352.94,470.266 5360.57,484.888 5368.2,479.442 5375.83,472.739 5383.46,389.052 5391.09,293.759 5398.71,427.314 5406.34,483.883 5413.97,482.996 5421.6,466.03 5429.23,372.078 5436.86,457.111 5444.48,485.319 5452.11,436.541 5459.74,310.779 5467.37,417.909 5475,481.812 5482.63,468.73 5490.26,378.662 5497.88,411.019 5505.51,479.978 "/>
</svg>
