<?xml version="1.0" encoding="utf-8"?>
<svg xmlns="http://www.w3.org/2000/svg" xmlns:xlink="http://www.w3.org/1999/xlink" width="600" height="400" viewBox="0 0 2400 1600">
<defs>
  <clipPath id="clip670">
    <rect x="0" y="0" width="2400" height="1600"/>
  </clipPath>
</defs>
<path clip-path="url(#clip670)" d="M0 1600 L2400 1600 L2400 8.88178e-14 L0 8.88178e-14  Z" fill="#f0f1eb" fill-rule="evenodd" fill-opacity="1"/>
<defs>
  <clipPath id="clip671">
    <rect x="235" y="47" width="2119" height="1377"/>
  </clipPath>
</defs>
<path clip-path="url(#clip670)" d="M235.128 1423.18 L2352.76 1423.18 L2352.76 47.2441 L235.128 47.2441  Z" fill="#f0f1eb" fill-rule="evenodd" fill-opacity="1"/>
<polyline clip-path="url(#clip671)" style="stroke:#000000; stroke-linecap:round; stroke-linejoin:round; stroke-width:2; stroke-opacity:0.1; fill:none" points="276.65,1423.18 276.65,47.2441 "/>
<polyline clip-path="url(#clip671)" style="stroke:#000000; stroke-linecap:round; stroke-linejoin:round; stroke-width:2; stroke-opacity:0.1; fill:none" points="572.135,1423.18 572.135,47.2441 "/>
<polyline clip-path="url(#clip671)" style="stroke:#000000; stroke-linecap:round; stroke-linejoin:round; stroke-width:2; stroke-opacity:0.1; fill:none" points="691.871,1423.18 691.871,47.2441 "/>
<polyline clip-path="url(#clip671)" style="stroke:#000000; stroke-linecap:round; stroke-linejoin:round; stroke-width:2; stroke-opacity:0.1; fill:none" points="1107.09,1423.18 1107.09,47.2441 "/>
<polyline clip-path="url(#clip671)" style="stroke:#000000; stroke-linecap:round; stroke-linejoin:round; stroke-width:2; stroke-opacity:0.1; fill:none" points="1522.31,1423.18 1522.31,47.2441 "/>
<polyline clip-path="url(#clip671)" style="stroke:#000000; stroke-linecap:round; stroke-linejoin:round; stroke-width:2; stroke-opacity:0.1; fill:none" points="1937.53,1423.18 1937.53,47.2441 "/>
<polyline clip-path="url(#clip671)" style="stroke:#000000; stroke-linecap:round; stroke-linejoin:round; stroke-width:2; stroke-opacity:0.1; fill:none" points="2352.76,1423.18 2352.76,47.2441 "/>
<polyline clip-path="url(#clip671)" style="stroke:#000000; stroke-linecap:round; stroke-linejoin:round; stroke-width:2; stroke-opacity:0.1; fill:none" points="235.128,1374.9 2352.76,1374.9 "/>
<polyline clip-path="url(#clip671)" style="stroke:#000000; stroke-linecap:round; stroke-linejoin:round; stroke-width:2; stroke-opacity:0.1; fill:none" points="235.128,1073.16 2352.76,1073.16 "/>
<polyline clip-path="url(#clip671)" style="stroke:#000000; stroke-linecap:round; stroke-linejoin:round; stroke-width:2; stroke-opacity:0.1; fill:none" points="235.128,771.421 2352.76,771.421 "/>
<polyline clip-path="url(#clip671)" style="stroke:#000000; stroke-linecap:round; stroke-linejoin:round; stroke-width:2; stroke-opacity:0.1; fill:none" points="235.128,469.681 2352.76,469.681 "/>
<polyline clip-path="url(#clip671)" style="stroke:#000000; stroke-linecap:round; stroke-linejoin:round; stroke-width:2; stroke-opacity:0.1; fill:none" points="235.128,167.94 2352.76,167.94 "/>
<polyline clip-path="url(#clip670)" style="stroke:#000000; stroke-linecap:round; stroke-linejoin:round; stroke-width:4; stroke-opacity:1; fill:none" points="235.128,1423.18 2352.76,1423.18 "/>
<polyline clip-path="url(#clip670)" style="stroke:#000000; stroke-linecap:round; stroke-linejoin:round; stroke-width:4; stroke-opacity:1; fill:none" points="276.65,1423.18 276.65,1404.28 "/>
<polyline clip-path="url(#clip670)" style="stroke:#000000; stroke-linecap:round; stroke-linejoin:round; stroke-width:4; stroke-opacity:1; fill:none" points="572.135,1423.18 572.135,1404.28 "/>
<polyline clip-path="url(#clip670)" style="stroke:#000000; stroke-linecap:round; stroke-linejoin:round; stroke-width:4; stroke-opacity:1; fill:none" points="691.871,1423.18 691.871,1404.28 "/>
<polyline clip-path="url(#clip670)" style="stroke:#000000; stroke-linecap:round; stroke-linejoin:round; stroke-width:4; stroke-opacity:1; fill:none" points="1107.09,1423.18 1107.09,1404.28 "/>
<polyline clip-path="url(#clip670)" style="stroke:#000000; stroke-linecap:round; stroke-linejoin:round; stroke-width:4; stroke-opacity:1; fill:none" points="1522.31,1423.18 1522.31,1404.28 "/>
<polyline clip-path="url(#clip670)" style="stroke:#000000; stroke-linecap:round; stroke-linejoin:round; stroke-width:4; stroke-opacity:1; fill:none" points="1937.53,1423.18 1937.53,1404.28 "/>
<polyline clip-path="url(#clip670)" style="stroke:#000000; stroke-linecap:round; stroke-linejoin:round; stroke-width:4; stroke-opacity:1; fill:none" points="2352.76,1423.18 2352.76,1404.28 "/>
<path clip-path="url(#clip670)" d="M254.035 1454.1 Q250.424 1454.1 248.595 1457.66 Q246.789 1461.2 246.789 1468.33 Q246.789 1475.44 248.595 1479.01 Q250.424 1482.55 254.035 1482.55 Q257.669 1482.55 259.474 1479.01 Q261.303 1475.44 261.303 1468.33 Q261.303 1461.2 259.474 1457.66 Q257.669 1454.1 254.035 1454.1 M254.035 1450.39 Q259.845 1450.39 262.9 1455 Q265.979 1459.58 265.979 1468.33 Q265.979 1477.06 262.9 1481.67 Q259.845 1486.25 254.035 1486.25 Q248.225 1486.25 245.146 1481.67 Q242.09 1477.06 242.09 1468.33 Q242.09 1459.58 245.146 1455 Q248.225 1450.39 254.035 1450.39 Z" fill="#000000" fill-rule="nonzero" fill-opacity="1" /><path clip-path="url(#clip670)" d="M274.197 1479.7 L279.081 1479.7 L279.081 1485.58 L274.197 1485.58 L274.197 1479.7 Z" fill="#000000" fill-rule="nonzero" fill-opacity="1" /><path clip-path="url(#clip670)" d="M299.266 1454.1 Q295.655 1454.1 293.826 1457.66 Q292.021 1461.2 292.021 1468.33 Q292.021 1475.44 293.826 1479.01 Q295.655 1482.55 299.266 1482.55 Q302.9 1482.55 304.706 1479.01 Q306.534 1475.44 306.534 1468.33 Q306.534 1461.2 304.706 1457.66 Q302.9 1454.1 299.266 1454.1 M299.266 1450.39 Q305.076 1450.39 308.132 1455 Q311.21 1459.58 311.21 1468.33 Q311.21 1477.06 308.132 1481.67 Q305.076 1486.25 299.266 1486.25 Q293.456 1486.25 290.377 1481.67 Q287.322 1477.06 287.322 1468.33 Q287.322 1459.58 290.377 1455 Q293.456 1450.39 299.266 1450.39 Z" fill="#000000" fill-rule="nonzero" fill-opacity="1" /><path clip-path="url(#clip670)" d="M521.936 1452.29 L521.526 1452.96 Q518.985 1451.86 515.821 1450.11 Q512.656 1451.86 510.115 1452.96 L509.721 1452.29 Q512.492 1449.88 515.821 1448.03 Q519.182 1449.9 521.936 1452.29 Z" fill="#000000" fill-rule="nonzero" fill-opacity="1" /><path clip-path="url(#clip670)" d="M524 1465.89 Q524 1469.35 522.22 1472.61 Q520.463 1475.86 517.7 1477.83 Q514.959 1479.8 512.195 1479.8 Q509.08 1479.8 507.464 1476.57 Q504.536 1488.3 504.372 1488.61 Q503.693 1489.61 502.709 1489.61 Q502.1 1489.61 501.725 1489.24 Q501.351 1488.89 501.351 1488.33 Q501.374 1488.14 501.515 1487.55 L506.199 1468.7 Q507.277 1464.32 510.532 1461.2 Q513.811 1458.06 517.325 1458.06 Q520.112 1458.06 522.056 1460.15 Q524 1462.23 524 1465.89 M520.557 1463.83 Q520.557 1461.48 519.62 1460.31 Q518.683 1459.12 517.231 1459.12 Q515.896 1459.12 514.28 1460.19 Q512.687 1461.27 511.282 1463.66 Q510.532 1465.04 509.994 1466.75 Q509.455 1468.46 508.401 1472.68 Q508.026 1474.37 508.026 1474.46 Q508.026 1474.65 508.12 1475.07 Q508.237 1475.49 508.518 1476.15 Q508.822 1476.78 509.244 1477.34 Q509.666 1477.9 510.439 1478.32 Q511.212 1478.72 512.148 1478.72 Q513.601 1478.72 515.147 1477.55 Q516.716 1476.36 517.864 1474.18 Q518.824 1472.42 519.69 1469.12 Q520.557 1465.79 520.557 1463.83 Z" fill="#000000" fill-rule="nonzero" fill-opacity="1" /><path clip-path="url(#clip670)" d="M537.846 1471.98 Q537.893 1471.39 538.807 1471.39 L568.202 1471.39 Q569.584 1471.39 569.607 1471.93 Q569.607 1472.52 568.296 1472.49 L539.135 1472.49 Q537.846 1472.52 537.846 1471.98 M537.846 1462.61 Q537.846 1462.02 538.854 1462.05 L568.155 1462.05 Q569.584 1462.05 569.607 1462.61 Q569.607 1463.15 568.389 1463.15 L538.807 1463.15 Q537.846 1463.15 537.846 1462.61 Z" fill="#000000" fill-rule="nonzero" fill-opacity="1" /><path clip-path="url(#clip670)" d="M588.098 1451.88 L588.098 1450.38 Q593.86 1450.38 596.835 1447.31 Q597.654 1447.31 597.795 1447.5 Q597.936 1447.69 597.936 1448.55 L597.936 1475.47 Q597.936 1476.9 598.638 1477.34 Q599.341 1477.79 602.409 1477.79 L603.932 1477.79 L603.932 1479.26 Q602.245 1479.12 596.155 1479.12 Q590.066 1479.12 588.403 1479.26 L588.403 1477.79 L589.925 1477.79 Q592.947 1477.79 593.673 1477.36 Q594.399 1476.92 594.399 1475.47 L594.399 1450.62 Q591.893 1451.88 588.098 1451.88 Z" fill="#000000" fill-rule="nonzero" fill-opacity="1" /><path clip-path="url(#clip670)" d="M607.699 1478.49 Q606.973 1477.71 606.973 1476.71 Q606.973 1475.7 607.699 1474.97 Q608.425 1474.22 609.526 1474.22 Q610.58 1474.22 611.283 1474.93 Q612.009 1475.61 612.009 1476.73 Q612.009 1477.83 611.236 1478.56 Q610.487 1479.26 609.526 1479.26 Q608.425 1479.26 607.699 1478.49 Z" fill="#000000" fill-rule="nonzero" fill-opacity="1" /><path clip-path="url(#clip670)" d="M620.17 1471.34 L620.17 1469.87 L634.903 1447.36 Q635.278 1446.77 635.863 1446.8 Q636.402 1446.8 636.519 1447.01 Q636.636 1447.22 636.636 1448.04 L636.636 1469.87 L641.438 1469.87 L641.438 1471.34 L636.636 1471.34 L636.636 1475.51 Q636.636 1476.9 637.198 1477.34 Q637.784 1477.79 640.267 1477.79 L641.274 1477.79 L641.274 1479.26 Q639.306 1479.12 634.762 1479.12 Q630.242 1479.12 628.274 1479.26 L628.274 1477.79 L629.281 1477.79 Q631.764 1477.79 632.35 1477.36 Q632.935 1476.92 632.935 1475.51 L632.935 1471.34 L620.17 1471.34 M621.529 1469.87 L633.216 1469.87 L633.216 1451.97 L621.529 1469.87 Z" fill="#000000" fill-rule="nonzero" fill-opacity="1" /><path clip-path="url(#clip670)" d="M663.11 1481.64 L679.429 1481.64 L679.429 1485.58 L657.485 1485.58 L657.485 1481.64 Q660.147 1478.89 664.73 1474.26 Q669.337 1469.61 670.517 1468.27 Q672.763 1465.74 673.642 1464.01 Q674.545 1462.25 674.545 1460.56 Q674.545 1457.8 672.601 1456.07 Q670.679 1454.33 667.578 1454.33 Q665.379 1454.33 662.925 1455.09 Q660.494 1455.86 657.717 1457.41 L657.717 1452.69 Q660.541 1451.55 662.994 1450.97 Q665.448 1450.39 667.485 1450.39 Q672.855 1450.39 676.05 1453.08 Q679.244 1455.77 679.244 1460.26 Q679.244 1462.39 678.434 1464.31 Q677.647 1466.2 675.54 1468.8 Q674.962 1469.47 671.86 1472.69 Q668.758 1475.88 663.11 1481.64 Z" fill="#000000" fill-rule="nonzero" fill-opacity="1" /><path clip-path="url(#clip670)" d="M689.244 1479.7 L694.128 1479.7 L694.128 1485.58 L689.244 1485.58 L689.244 1479.7 Z" fill="#000000" fill-rule="nonzero" fill-opacity="1" /><path clip-path="url(#clip670)" d="M714.313 1454.1 Q710.702 1454.1 708.874 1457.66 Q707.068 1461.2 707.068 1468.33 Q707.068 1475.44 708.874 1479.01 Q710.702 1482.55 714.313 1482.55 Q717.948 1482.55 719.753 1479.01 Q721.582 1475.44 721.582 1468.33 Q721.582 1461.2 719.753 1457.66 Q717.948 1454.1 714.313 1454.1 M714.313 1450.39 Q720.124 1450.39 723.179 1455 Q726.258 1459.58 726.258 1468.33 Q726.258 1477.06 723.179 1481.67 Q720.124 1486.25 714.313 1486.25 Q708.503 1486.25 705.425 1481.67 Q702.369 1477.06 702.369 1468.33 Q702.369 1459.58 705.425 1455 Q708.503 1450.39 714.313 1450.39 Z" fill="#000000" fill-rule="nonzero" fill-opacity="1" /><path clip-path="url(#clip670)" d="M1087.73 1455.09 L1075.92 1473.54 L1087.73 1473.54 L1087.73 1455.09 M1086.5 1451.02 L1092.38 1451.02 L1092.38 1473.54 L1097.31 1473.54 L1097.31 1477.43 L1092.38 1477.43 L1092.38 1485.58 L1087.73 1485.58 L1087.73 1477.43 L1072.13 1477.43 L1072.13 1472.92 L1086.5 1451.02 Z" fill="#000000" fill-rule="nonzero" fill-opacity="1" /><path clip-path="url(#clip670)" d="M1105.04 1479.7 L1109.93 1479.7 L1109.93 1485.58 L1105.04 1485.58 L1105.04 1479.7 Z" fill="#000000" fill-rule="nonzero" fill-opacity="1" /><path clip-path="url(#clip670)" d="M1130.11 1454.1 Q1126.5 1454.1 1124.67 1457.66 Q1122.87 1461.2 1122.87 1468.33 Q1122.87 1475.44 1124.67 1479.01 Q1126.5 1482.55 1130.11 1482.55 Q1133.75 1482.55 1135.55 1479.01 Q1137.38 1475.44 1137.38 1468.33 Q1137.38 1461.2 1135.55 1457.66 Q1133.75 1454.1 1130.11 1454.1 M1130.11 1450.39 Q1135.92 1450.39 1138.98 1455 Q1142.06 1459.58 1142.06 1468.33 Q1142.06 1477.06 1138.98 1481.67 Q1135.92 1486.25 1130.11 1486.25 Q1124.3 1486.25 1121.22 1481.67 Q1118.17 1477.06 1118.17 1468.33 Q1118.17 1459.58 1121.22 1455 Q1124.3 1450.39 1130.11 1450.39 Z" fill="#000000" fill-rule="nonzero" fill-opacity="1" /><path clip-path="url(#clip670)" d="M1500.18 1466.44 Q1497.04 1466.44 1495.18 1468.59 Q1493.36 1470.74 1493.36 1474.49 Q1493.36 1478.22 1495.18 1480.39 Q1497.04 1482.55 1500.18 1482.55 Q1503.33 1482.55 1505.16 1480.39 Q1507.01 1478.22 1507.01 1474.49 Q1507.01 1470.74 1505.16 1468.59 Q1503.33 1466.44 1500.18 1466.44 M1509.47 1451.78 L1509.47 1456.04 Q1507.71 1455.21 1505.9 1454.77 Q1504.12 1454.33 1502.36 1454.33 Q1497.73 1454.33 1495.28 1457.45 Q1492.85 1460.58 1492.5 1466.9 Q1493.86 1464.89 1495.92 1463.82 Q1497.99 1462.73 1500.46 1462.73 Q1505.67 1462.73 1508.68 1465.9 Q1511.71 1469.05 1511.71 1474.49 Q1511.71 1479.82 1508.56 1483.03 Q1505.42 1486.25 1500.18 1486.25 Q1494.19 1486.25 1491.02 1481.67 Q1487.85 1477.06 1487.85 1468.33 Q1487.85 1460.14 1491.74 1455.28 Q1495.62 1450.39 1502.17 1450.39 Q1503.93 1450.39 1505.72 1450.74 Q1507.52 1451.09 1509.47 1451.78 Z" fill="#000000" fill-rule="nonzero" fill-opacity="1" /><path clip-path="url(#clip670)" d="M1519.77 1479.7 L1524.65 1479.7 L1524.65 1485.58 L1519.77 1485.58 L1519.77 1479.7 Z" fill="#000000" fill-rule="nonzero" fill-opacity="1" /><path clip-path="url(#clip670)" d="M1544.84 1454.1 Q1541.23 1454.1 1539.4 1457.66 Q1537.59 1461.2 1537.59 1468.33 Q1537.59 1475.44 1539.4 1479.01 Q1541.23 1482.55 1544.84 1482.55 Q1548.47 1482.55 1550.28 1479.01 Q1552.11 1475.44 1552.11 1468.33 Q1552.11 1461.2 1550.28 1457.66 Q1548.47 1454.1 1544.84 1454.1 M1544.84 1450.39 Q1550.65 1450.39 1553.7 1455 Q1556.78 1459.58 1556.78 1468.33 Q1556.78 1477.06 1553.7 1481.67 Q1550.65 1486.25 1544.84 1486.25 Q1539.03 1486.25 1535.95 1481.67 Q1532.89 1477.06 1532.89 1468.33 Q1532.89 1459.58 1535.95 1455 Q1539.03 1450.39 1544.84 1450.39 Z" fill="#000000" fill-rule="nonzero" fill-opacity="1" /><path clip-path="url(#clip670)" d="M1914.87 1469.17 Q1911.54 1469.17 1909.62 1470.95 Q1907.72 1472.73 1907.72 1475.86 Q1907.72 1478.98 1909.62 1480.77 Q1911.54 1482.55 1914.87 1482.55 Q1918.21 1482.55 1920.13 1480.77 Q1922.05 1478.96 1922.05 1475.86 Q1922.05 1472.73 1920.13 1470.95 Q1918.23 1469.17 1914.87 1469.17 M1910.2 1467.18 Q1907.19 1466.44 1905.5 1464.38 Q1903.83 1462.32 1903.83 1459.35 Q1903.83 1455.21 1906.77 1452.8 Q1909.73 1450.39 1914.87 1450.39 Q1920.03 1450.39 1922.97 1452.8 Q1925.91 1455.21 1925.91 1459.35 Q1925.91 1462.32 1924.22 1464.38 Q1922.56 1466.44 1919.57 1467.18 Q1922.95 1467.96 1924.83 1470.26 Q1926.72 1472.55 1926.72 1475.86 Q1926.72 1480.88 1923.65 1483.57 Q1920.59 1486.25 1914.87 1486.25 Q1909.16 1486.25 1906.08 1483.57 Q1903.02 1480.88 1903.02 1475.86 Q1903.02 1472.55 1904.92 1470.26 Q1906.82 1467.96 1910.2 1467.18 M1908.48 1459.79 Q1908.48 1462.48 1910.15 1463.98 Q1911.84 1465.49 1914.87 1465.49 Q1917.88 1465.49 1919.57 1463.98 Q1921.28 1462.48 1921.28 1459.79 Q1921.28 1457.11 1919.57 1455.6 Q1917.88 1454.1 1914.87 1454.1 Q1911.84 1454.1 1910.15 1455.6 Q1908.48 1457.11 1908.48 1459.79 Z" fill="#000000" fill-rule="nonzero" fill-opacity="1" /><path clip-path="url(#clip670)" d="M1935.03 1479.7 L1939.92 1479.7 L1939.92 1485.58 L1935.03 1485.58 L1935.03 1479.7 Z" fill="#000000" fill-rule="nonzero" fill-opacity="1" /><path clip-path="url(#clip670)" d="M1960.1 1454.1 Q1956.49 1454.1 1954.66 1457.66 Q1952.86 1461.2 1952.86 1468.33 Q1952.86 1475.44 1954.66 1479.01 Q1956.49 1482.55 1960.1 1482.55 Q1963.74 1482.55 1965.54 1479.01 Q1967.37 1475.44 1967.37 1468.33 Q1967.37 1461.2 1965.54 1457.66 Q1963.74 1454.1 1960.1 1454.1 M1960.1 1450.39 Q1965.91 1450.39 1968.97 1455 Q1972.05 1459.58 1972.05 1468.33 Q1972.05 1477.06 1968.97 1481.67 Q1965.91 1486.25 1960.1 1486.25 Q1954.29 1486.25 1951.22 1481.67 Q1948.16 1477.06 1948.16 1468.33 Q1948.16 1459.58 1951.22 1455 Q1954.29 1450.39 1960.1 1450.39 Z" fill="#000000" fill-rule="nonzero" fill-opacity="1" /><path clip-path="url(#clip670)" d="M2304.83 1481.64 L2312.47 1481.64 L2312.47 1455.28 L2304.16 1456.95 L2304.16 1452.69 L2312.42 1451.02 L2317.1 1451.02 L2317.1 1481.64 L2324.74 1481.64 L2324.74 1485.58 L2304.83 1485.58 L2304.83 1481.64 Z" fill="#000000" fill-rule="nonzero" fill-opacity="1" /><path clip-path="url(#clip670)" d="M2344.18 1454.1 Q2340.57 1454.1 2338.74 1457.66 Q2336.93 1461.2 2336.93 1468.33 Q2336.93 1475.44 2338.74 1479.01 Q2340.57 1482.55 2344.18 1482.55 Q2347.81 1482.55 2349.62 1479.01 Q2351.45 1475.44 2351.45 1468.33 Q2351.45 1461.2 2349.62 1457.66 Q2347.81 1454.1 2344.18 1454.1 M2344.18 1450.39 Q2349.99 1450.39 2353.05 1455 Q2356.12 1459.58 2356.12 1468.33 Q2356.12 1477.06 2353.05 1481.67 Q2349.99 1486.25 2344.18 1486.25 Q2338.37 1486.25 2335.29 1481.67 Q2332.24 1477.06 2332.24 1468.33 Q2332.24 1459.58 2335.29 1455 Q2338.37 1450.39 2344.18 1450.39 Z" fill="#000000" fill-rule="nonzero" fill-opacity="1" /><path clip-path="url(#clip670)" d="M2364.34 1479.7 L2369.23 1479.7 L2369.23 1485.58 L2364.34 1485.58 L2364.34 1479.7 Z" fill="#000000" fill-rule="nonzero" fill-opacity="1" /><path clip-path="url(#clip670)" d="M2389.41 1454.1 Q2385.8 1454.1 2383.97 1457.66 Q2382.17 1461.2 2382.17 1468.33 Q2382.17 1475.44 2383.97 1479.01 Q2385.8 1482.55 2389.41 1482.55 Q2393.05 1482.55 2394.85 1479.01 Q2396.68 1475.44 2396.68 1468.33 Q2396.68 1461.2 2394.85 1457.66 Q2393.05 1454.1 2389.41 1454.1 M2389.41 1450.39 Q2395.22 1450.39 2398.28 1455 Q2401.36 1459.58 2401.36 1468.33 Q2401.36 1477.06 2398.28 1481.67 Q2395.22 1486.25 2389.41 1486.25 Q2383.6 1486.25 2380.52 1481.67 Q2377.47 1477.06 2377.47 1468.33 Q2377.47 1459.58 2380.52 1455 Q2383.6 1450.39 2389.41 1450.39 Z" fill="#000000" fill-rule="nonzero" fill-opacity="1" /><path clip-path="url(#clip670)" d="M1308.21 1528.53 Q1308.21 1533.3 1305.76 1537.78 Q1303.35 1542.25 1299.55 1544.96 Q1295.78 1547.66 1291.98 1547.66 Q1287.7 1547.66 1285.47 1543.22 Q1281.45 1559.35 1281.22 1559.77 Q1280.29 1561.16 1278.94 1561.16 Q1278.1 1561.16 1277.58 1560.64 Q1277.07 1560.16 1277.07 1559.39 Q1277.1 1559.13 1277.29 1558.32 L1283.73 1532.4 Q1285.22 1526.38 1289.69 1522.09 Q1294.2 1517.78 1299.03 1517.78 Q1302.86 1517.78 1305.54 1520.64 Q1308.21 1523.51 1308.21 1528.53 M1303.48 1525.7 Q1303.48 1522.48 1302.19 1520.87 Q1300.9 1519.23 1298.9 1519.23 Q1297.07 1519.23 1294.85 1520.71 Q1292.66 1522.19 1290.72 1525.47 Q1289.69 1527.37 1288.95 1529.72 Q1288.21 1532.08 1286.76 1537.87 Q1286.25 1540.19 1286.25 1540.32 Q1286.25 1540.58 1286.38 1541.16 Q1286.54 1541.74 1286.92 1542.64 Q1287.34 1543.51 1287.92 1544.28 Q1288.5 1545.05 1289.56 1545.63 Q1290.63 1546.18 1291.91 1546.18 Q1293.91 1546.18 1296.04 1544.57 Q1298.19 1542.93 1299.77 1539.93 Q1301.09 1537.52 1302.28 1532.98 Q1303.48 1528.4 1303.48 1525.7 Z" fill="#000000" fill-rule="nonzero" fill-opacity="1" /><polyline clip-path="url(#clip670)" style="stroke:#000000; stroke-linecap:round; stroke-linejoin:round; stroke-width:4; stroke-opacity:1; fill:none" points="235.128,1423.18 235.128,47.2441 "/>
<polyline clip-path="url(#clip670)" style="stroke:#000000; stroke-linecap:round; stroke-linejoin:round; stroke-width:4; stroke-opacity:1; fill:none" points="235.128,1374.9 254.026,1374.9 "/>
<polyline clip-path="url(#clip670)" style="stroke:#000000; stroke-linecap:round; stroke-linejoin:round; stroke-width:4; stroke-opacity:1; fill:none" points="235.128,1073.16 254.026,1073.16 "/>
<polyline clip-path="url(#clip670)" style="stroke:#000000; stroke-linecap:round; stroke-linejoin:round; stroke-width:4; stroke-opacity:1; fill:none" points="235.128,771.421 254.026,771.421 "/>
<polyline clip-path="url(#clip670)" style="stroke:#000000; stroke-linecap:round; stroke-linejoin:round; stroke-width:4; stroke-opacity:1; fill:none" points="235.128,469.681 254.026,469.681 "/>
<polyline clip-path="url(#clip670)" style="stroke:#000000; stroke-linecap:round; stroke-linejoin:round; stroke-width:4; stroke-opacity:1; fill:none" points="235.128,167.94 254.026,167.94 "/>
<path clip-path="url(#clip670)" d="M141.953 1360.7 Q138.341 1360.7 136.513 1364.26 Q134.707 1367.81 134.707 1374.94 Q134.707 1382.04 136.513 1385.61 Q138.341 1389.15 141.953 1389.15 Q145.587 1389.15 147.392 1385.61 Q149.221 1382.04 149.221 1374.94 Q149.221 1367.81 147.392 1364.26 Q145.587 1360.7 141.953 1360.7 M141.953 1357 Q147.763 1357 150.818 1361.6 Q153.897 1366.19 153.897 1374.94 Q153.897 1383.66 150.818 1388.27 Q147.763 1392.85 141.953 1392.85 Q136.142 1392.85 133.064 1388.27 Q130.008 1383.66 130.008 1374.94 Q130.008 1366.19 133.064 1361.6 Q136.142 1357 141.953 1357 Z" fill="#000000" fill-rule="nonzero" fill-opacity="1" /><path clip-path="url(#clip670)" d="M162.114 1386.3 L166.999 1386.3 L166.999 1392.18 L162.114 1392.18 L162.114 1386.3 Z" fill="#000000" fill-rule="nonzero" fill-opacity="1" /><path clip-path="url(#clip670)" d="M187.184 1360.7 Q183.573 1360.7 181.744 1364.26 Q179.938 1367.81 179.938 1374.94 Q179.938 1382.04 181.744 1385.61 Q183.573 1389.15 187.184 1389.15 Q190.818 1389.15 192.624 1385.61 Q194.452 1382.04 194.452 1374.94 Q194.452 1367.81 192.624 1364.26 Q190.818 1360.7 187.184 1360.7 M187.184 1357 Q192.994 1357 196.05 1361.6 Q199.128 1366.19 199.128 1374.94 Q199.128 1383.66 196.05 1388.27 Q192.994 1392.85 187.184 1392.85 Q181.374 1392.85 178.295 1388.27 Q175.239 1383.66 175.239 1374.94 Q175.239 1366.19 178.295 1361.6 Q181.374 1357 187.184 1357 Z" fill="#000000" fill-rule="nonzero" fill-opacity="1" /><path clip-path="url(#clip670)" d="M142.948 1058.96 Q139.337 1058.96 137.508 1062.52 Q135.703 1066.07 135.703 1073.2 Q135.703 1080.3 137.508 1083.87 Q139.337 1087.41 142.948 1087.41 Q146.582 1087.41 148.388 1083.87 Q150.216 1080.3 150.216 1073.2 Q150.216 1066.07 148.388 1062.52 Q146.582 1058.96 142.948 1058.96 M142.948 1055.26 Q148.758 1055.26 151.814 1059.86 Q154.892 1064.45 154.892 1073.2 Q154.892 1081.92 151.814 1086.53 Q148.758 1091.11 142.948 1091.11 Q137.138 1091.11 134.059 1086.53 Q131.004 1081.92 131.004 1073.2 Q131.004 1064.45 134.059 1059.86 Q137.138 1055.26 142.948 1055.26 Z" fill="#000000" fill-rule="nonzero" fill-opacity="1" /><path clip-path="url(#clip670)" d="M163.11 1084.56 L167.994 1084.56 L167.994 1090.44 L163.11 1090.44 L163.11 1084.56 Z" fill="#000000" fill-rule="nonzero" fill-opacity="1" /><path clip-path="url(#clip670)" d="M178.226 1055.88 L196.582 1055.88 L196.582 1059.82 L182.508 1059.82 L182.508 1068.29 Q183.526 1067.94 184.545 1067.78 Q185.563 1067.59 186.582 1067.59 Q192.369 1067.59 195.749 1070.77 Q199.128 1073.94 199.128 1079.35 Q199.128 1084.93 195.656 1088.03 Q192.184 1091.11 185.864 1091.11 Q183.688 1091.11 181.42 1090.74 Q179.175 1090.37 176.767 1089.63 L176.767 1084.93 Q178.851 1086.07 181.073 1086.62 Q183.295 1087.18 185.772 1087.18 Q189.776 1087.18 192.114 1085.07 Q194.452 1082.96 194.452 1079.35 Q194.452 1075.74 192.114 1073.64 Q189.776 1071.53 185.772 1071.53 Q183.897 1071.53 182.022 1071.95 Q180.17 1072.36 178.226 1073.24 L178.226 1055.88 Z" fill="#000000" fill-rule="nonzero" fill-opacity="1" /><path clip-path="url(#clip670)" d="M132.763 784.766 L140.402 784.766 L140.402 758.4 L132.092 760.067 L132.092 755.807 L140.355 754.141 L145.031 754.141 L145.031 784.766 L152.67 784.766 L152.67 788.701 L132.763 788.701 L132.763 784.766 Z" fill="#000000" fill-rule="nonzero" fill-opacity="1" /><path clip-path="url(#clip670)" d="M162.114 782.821 L166.999 782.821 L166.999 788.701 L162.114 788.701 L162.114 782.821 Z" fill="#000000" fill-rule="nonzero" fill-opacity="1" /><path clip-path="url(#clip670)" d="M187.184 757.219 Q183.573 757.219 181.744 760.784 Q179.938 764.326 179.938 771.456 Q179.938 778.562 181.744 782.127 Q183.573 785.668 187.184 785.668 Q190.818 785.668 192.624 782.127 Q194.452 778.562 194.452 771.456 Q194.452 764.326 192.624 760.784 Q190.818 757.219 187.184 757.219 M187.184 753.516 Q192.994 753.516 196.05 758.122 Q199.128 762.706 199.128 771.456 Q199.128 780.182 196.05 784.789 Q192.994 789.372 187.184 789.372 Q181.374 789.372 178.295 784.789 Q175.239 780.182 175.239 771.456 Q175.239 762.706 178.295 758.122 Q181.374 753.516 187.184 753.516 Z" fill="#000000" fill-rule="nonzero" fill-opacity="1" /><path clip-path="url(#clip670)" d="M133.758 483.025 L141.397 483.025 L141.397 456.66 L133.087 458.326 L133.087 454.067 L141.351 452.401 L146.027 452.401 L146.027 483.025 L153.665 483.025 L153.665 486.961 L133.758 486.961 L133.758 483.025 Z" fill="#000000" fill-rule="nonzero" fill-opacity="1" /><path clip-path="url(#clip670)" d="M163.11 481.081 L167.994 481.081 L167.994 486.961 L163.11 486.961 L163.11 481.081 Z" fill="#000000" fill-rule="nonzero" fill-opacity="1" /><path clip-path="url(#clip670)" d="M178.226 452.401 L196.582 452.401 L196.582 456.336 L182.508 456.336 L182.508 464.808 Q183.526 464.461 184.545 464.299 Q185.563 464.113 186.582 464.113 Q192.369 464.113 195.749 467.285 Q199.128 470.456 199.128 475.873 Q199.128 481.451 195.656 484.553 Q192.184 487.632 185.864 487.632 Q183.688 487.632 181.42 487.261 Q179.175 486.891 176.767 486.15 L176.767 481.451 Q178.851 482.586 181.073 483.141 Q183.295 483.697 185.772 483.697 Q189.776 483.697 192.114 481.59 Q194.452 479.484 194.452 475.873 Q194.452 472.262 192.114 470.155 Q189.776 468.049 185.772 468.049 Q183.897 468.049 182.022 468.465 Q180.17 468.882 178.226 469.762 L178.226 452.401 Z" fill="#000000" fill-rule="nonzero" fill-opacity="1" /><path clip-path="url(#clip670)" d="M135.98 181.285 L152.3 181.285 L152.3 185.22 L130.355 185.22 L130.355 181.285 Q133.017 178.53 137.601 173.901 Q142.207 169.248 143.388 167.905 Q145.633 165.382 146.513 163.646 Q147.416 161.887 147.416 160.197 Q147.416 157.443 145.471 155.706 Q143.55 153.97 140.448 153.97 Q138.249 153.97 135.795 154.734 Q133.365 155.498 130.587 157.049 L130.587 152.327 Q133.411 151.193 135.865 150.614 Q138.318 150.035 140.355 150.035 Q145.726 150.035 148.92 152.72 Q152.115 155.406 152.115 159.896 Q152.115 162.026 151.304 163.947 Q150.517 165.845 148.411 168.438 Q147.832 169.109 144.73 172.327 Q141.628 175.521 135.98 181.285 Z" fill="#000000" fill-rule="nonzero" fill-opacity="1" /><path clip-path="url(#clip670)" d="M162.114 179.341 L166.999 179.341 L166.999 185.22 L162.114 185.22 L162.114 179.341 Z" fill="#000000" fill-rule="nonzero" fill-opacity="1" /><path clip-path="url(#clip670)" d="M187.184 153.739 Q183.573 153.739 181.744 157.304 Q179.938 160.845 179.938 167.975 Q179.938 175.081 181.744 178.646 Q183.573 182.188 187.184 182.188 Q190.818 182.188 192.624 178.646 Q194.452 175.081 194.452 167.975 Q194.452 160.845 192.624 157.304 Q190.818 153.739 187.184 153.739 M187.184 150.035 Q192.994 150.035 196.05 154.642 Q199.128 159.225 199.128 167.975 Q199.128 176.702 196.05 181.308 Q192.994 185.892 187.184 185.892 Q181.374 185.892 178.295 181.308 Q175.239 176.702 175.239 167.975 Q175.239 159.225 178.295 154.642 Q181.374 150.035 187.184 150.035 Z" fill="#000000" fill-rule="nonzero" fill-opacity="1" /><path clip-path="url(#clip670)" d="M55.2197 774.252 Q57.4741 774.252 57.4741 777.472 L57.4741 784.719 Q60.3726 782.69 64.656 782.69 Q68.3275 782.69 71.7735 784.203 Q75.1873 785.685 77.5706 788.068 Q79.9538 790.419 81.4031 793.382 Q82.8201 796.345 82.8201 799.243 Q82.8201 803.656 79.825 806.393 Q76.8298 809.131 72.3854 809.131 Q70.0344 809.131 67.4257 808.326 Q64.8171 807.488 62.4016 805.91 Q59.954 804.332 57.9894 802.271 Q56.0249 800.177 54.8332 797.472 Q53.6416 794.735 53.6416 791.868 L53.6416 776.828 Q53.6416 776.023 53.706 775.604 Q53.7382 775.153 54.1247 774.703 Q54.479 774.252 55.2197 774.252 M63.8831 786.909 Q63.1101 786.909 62.4338 787.005 Q61.7253 787.102 60.7913 787.456 Q59.8251 787.81 59.1488 788.422 Q58.4403 789.034 57.9572 790.226 Q57.4741 791.385 57.4741 792.963 Q57.4741 795.186 58.6979 797.633 Q59.9218 800.081 62.9491 801.949 Q65.5256 803.495 68.875 804.268 Q72.2244 805.041 74.2212 805.041 Q77.635 805.041 79.5029 803.398 Q81.3387 801.723 81.3387 799.179 Q81.3387 797.086 79.9216 794.702 Q78.4723 792.319 75.7348 790.483 Q73.3516 788.873 69.8734 787.907 Q66.3951 786.909 63.8831 786.909 Z" fill="#000000" fill-rule="nonzero" fill-opacity="1" /><path clip-path="url(#clip670)" d="M63.0458 767.559 Q62.2117 767.559 61.9637 767.492 Q61.7157 767.402 61.3324 767.041 L51.4581 758.181 Q46.0025 753.334 41.2457 753.334 Q38.1571 753.334 35.9478 754.957 Q33.7385 756.558 33.7385 759.511 Q33.7385 761.54 34.9784 763.253 Q36.2183 764.967 38.4276 765.756 Q38.3825 765.621 38.3825 765.147 Q38.3825 763.997 39.104 763.366 Q39.8254 762.712 40.7948 762.712 Q42.0347 762.712 42.6434 763.524 Q43.2295 764.313 43.2295 765.102 Q43.2295 765.418 43.1619 765.846 Q43.0943 766.252 42.463 766.906 Q41.8093 767.559 40.6595 767.559 Q37.4357 767.559 34.8657 765.125 Q32.2956 762.667 32.2956 758.925 Q32.2956 754.687 34.8206 751.914 Q37.323 749.118 41.2457 749.118 Q42.6208 749.118 43.8833 749.547 Q45.1232 749.952 46.0926 750.516 Q47.062 751.057 48.6176 752.545 Q50.1731 754.033 51.2778 755.228 Q52.3824 756.423 54.727 759.105 L59.4838 763.997 L59.4838 755.679 Q59.4838 751.621 59.1231 751.305 Q58.4693 750.854 55.0201 750.291 L55.0201 749.118 L63.0458 750.426 L63.0458 767.559 Z" fill="#000000" fill-rule="nonzero" fill-opacity="1" /><path clip-path="url(#clip670)" d="M65.59 742.265 Q54.4468 742.265 45.4613 738.11 Q41.6932 736.339 38.5371 733.859 Q35.3809 731.379 33.996 729.737 Q32.6112 728.094 32.6112 727.643 Q32.6112 726.999 33.2553 726.967 Q33.5774 726.967 34.3825 727.836 Q45.2037 738.464 65.59 738.432 Q86.0407 738.432 96.4432 728.094 Q97.5704 726.967 97.9247 726.967 Q98.5688 726.967 98.5688 727.643 Q98.5688 728.094 97.2484 729.672 Q95.9279 731.25 92.9006 733.698 Q89.8732 736.146 86.1695 737.917 Q77.1841 742.265 65.59 742.265 Z" fill="#000000" fill-rule="nonzero" fill-opacity="1" /><path clip-path="url(#clip670)" d="M63.6898 690.81 Q68.4563 690.81 72.9329 693.258 Q77.4095 695.673 80.1148 699.474 Q82.8201 703.242 82.8201 707.042 Q82.8201 711.325 78.3757 713.548 Q94.5109 717.573 94.9295 717.799 Q96.3144 718.733 96.3144 720.085 Q96.3144 720.923 95.7991 721.438 Q95.316 721.953 94.5431 721.953 Q94.2854 721.921 93.4803 721.728 L67.5545 715.287 Q61.5321 713.805 57.2487 709.329 Q52.9331 704.82 52.9331 699.989 Q52.9331 696.156 55.7994 693.483 Q58.6657 690.81 63.6898 690.81 M60.8557 695.544 Q57.6351 695.544 56.0249 696.833 Q54.3824 698.121 54.3824 700.118 Q54.3824 701.953 55.8638 704.176 Q57.3453 706.366 60.6303 708.298 Q62.5304 709.329 64.8815 710.069 Q67.2325 710.81 73.0295 712.259 Q75.3484 712.775 75.4772 712.775 Q75.7348 712.775 76.3145 712.646 Q76.8942 712.485 77.796 712.098 Q78.6656 711.68 79.4385 711.1 Q80.2115 710.52 80.7912 709.457 Q81.3387 708.395 81.3387 707.106 Q81.3387 705.11 79.7284 702.984 Q78.0859 700.826 75.0907 699.248 Q72.6753 697.928 68.1343 696.736 Q63.561 695.544 60.8557 695.544 Z" fill="#000000" fill-rule="nonzero" fill-opacity="1" /><path clip-path="url(#clip670)" d="M97.9247 686.621 Q97.6026 686.621 96.7975 685.783 Q85.9763 675.155 65.59 675.155 Q45.1393 675.155 34.8012 685.365 Q33.6096 686.621 33.2553 686.621 Q32.6112 686.621 32.6112 685.977 Q32.6112 685.526 33.9316 683.948 Q35.2521 682.337 38.2794 679.922 Q41.3068 677.474 45.0104 675.671 Q53.9959 671.323 65.59 671.323 Q76.7332 671.323 85.7187 675.477 Q89.4867 677.249 92.6429 679.729 Q95.7991 682.208 97.1839 683.851 Q98.5688 685.493 98.5688 685.977 Q98.5688 686.621 97.9247 686.621 Z" fill="#000000" fill-rule="nonzero" fill-opacity="1" /><polyline clip-path="url(#clip671)" style="stroke:#009af9; stroke-linecap:round; stroke-linejoin:round; stroke-width:12; stroke-opacity:1; fill:none" points="276.65,1374.9 279.329,1344.07 282.009,1313.87 284.688,1284.31 287.367,1255.36 290.046,1227.03 292.725,1199.31 295.404,1172.2 298.083,1145.67 302.006,1107.89 305.929,1071.34 309.852,1036 313.775,1001.84 317.698,968.84 321.621,936.973 325.543,906.212 329.466,876.531 333.389,847.905 337.312,820.307 341.235,793.713 345.158,768.094 349.081,743.427 353.004,719.686 356.926,696.846 360.849,674.881 364.772,653.768 368.695,633.482 372.618,613.999 376.541,595.296 380.464,577.349 384.386,560.137 388.309,543.637 392.232,527.827 400.078,498.194 407.924,471.073 415.769,446.307 423.615,423.746 430.915,404.612 438.214,387.156 445.514,371.275 452.814,356.871 460.113,343.852 467.413,332.13 474.713,321.622 482.012,312.251 491.797,301.345 501.581,292.184 511.365,284.616 521.15,278.5 530.934,273.707 540.718,270.118 550.502,267.625 560.287,266.127 576.456,265.592 592.626,267.158 608.796,270.505 624.965,275.357 640.002,281.009 655.038,287.589 670.074,294.951 685.11,302.968 722.861,325.295 760.612,349.718 794.475,372.606 828.338,395.897 905.86,448.985 963.807,487.33 1000.87,510.962 1037.92,533.814 1071.75,553.959 1105.57,573.413 1144.06,594.717 1182.56,615.142 1213.07,630.723 1243.59,645.781 1319.41,681.03 1377.48,706.065 1459.35,738.725 1520.53,761.29 1590.1,785.215 1659,807.25 1734.81,829.765 1792.71,845.851 1865.78,864.901 1933.36,881.384 2003.05,897.342 2073.7,912.529 2147.46,927.419 2205.57,938.507 2337.91,961.862 2352.76,964.331 "/>
<polyline clip-path="url(#clip671)" style="stroke:#000000; stroke-linecap:round; stroke-linejoin:round; stroke-width:8; stroke-opacity:0.8; fill:none" stroke-dasharray="32, 20" points="572.135,2799.12 572.135,-1328.69 "/>
<circle clip-path="url(#clip671)" cx="572.135" cy="265.515" r="21.6" fill="#000000" fill-rule="evenodd" fill-opacity="0.8" stroke="none"/>
</svg>
