<?xml version="1.0" encoding="utf-8"?>
<svg xmlns="http://www.w3.org/2000/svg" xmlns:xlink="http://www.w3.org/1999/xlink" width="800" height="600" viewBox="0 0 3200 2400">
<defs>
  <clipPath id="clip240">
    <rect x="0" y="0" width="3200" height="2400"/>
  </clipPath>
</defs>
<path clip-path="url(#clip240)" d="M0 2400 L3200 2400 L3200 0 L0 0  Z" fill="#f0f1eb" fill-rule="evenodd" fill-opacity="1"/>
<defs>
  <clipPath id="clip241">
    <rect x="163" y="199" width="2990" height="2076"/>
  </clipPath>
</defs>
<path clip-path="url(#clip240)" d="M163.765 2274.13 L3152.76 2274.13 L3152.76 199.072 L163.765 199.072  Z" fill="#f0f1eb" fill-rule="evenodd" fill-opacity="1"/>
<polyline clip-path="url(#clip241)" style="stroke:#000000; stroke-linecap:round; stroke-linejoin:round; stroke-width:2; stroke-opacity:0.1; fill:none" points="248.359,2274.13 248.359,199.072 "/>
<polyline clip-path="url(#clip241)" style="stroke:#000000; stroke-linecap:round; stroke-linejoin:round; stroke-width:2; stroke-opacity:0.1; fill:none" points="953.31,2274.13 953.31,199.072 "/>
<polyline clip-path="url(#clip241)" style="stroke:#000000; stroke-linecap:round; stroke-linejoin:round; stroke-width:2; stroke-opacity:0.1; fill:none" points="1658.26,2274.13 1658.26,199.072 "/>
<polyline clip-path="url(#clip241)" style="stroke:#000000; stroke-linecap:round; stroke-linejoin:round; stroke-width:2; stroke-opacity:0.1; fill:none" points="2363.21,2274.13 2363.21,199.072 "/>
<polyline clip-path="url(#clip241)" style="stroke:#000000; stroke-linecap:round; stroke-linejoin:round; stroke-width:2; stroke-opacity:0.1; fill:none" points="3068.16,2274.13 3068.16,199.072 "/>
<polyline clip-path="url(#clip241)" style="stroke:#000000; stroke-linecap:round; stroke-linejoin:round; stroke-width:2; stroke-opacity:0.1; fill:none" points="163.765,2112.19 3152.76,2112.19 "/>
<polyline clip-path="url(#clip241)" style="stroke:#000000; stroke-linecap:round; stroke-linejoin:round; stroke-width:2; stroke-opacity:0.1; fill:none" points="163.765,1596.86 3152.76,1596.86 "/>
<polyline clip-path="url(#clip241)" style="stroke:#000000; stroke-linecap:round; stroke-linejoin:round; stroke-width:2; stroke-opacity:0.1; fill:none" points="163.765,1081.53 3152.76,1081.53 "/>
<polyline clip-path="url(#clip241)" style="stroke:#000000; stroke-linecap:round; stroke-linejoin:round; stroke-width:2; stroke-opacity:0.1; fill:none" points="163.765,566.205 3152.76,566.205 "/>
<path clip-path="url(#clip240)" d="M278.441 24.192 L347.955 24.192 L347.955 37.9651 L294.807 37.9651 L294.807 73.613 L342.77 73.613 L342.77 87.3861 L294.807 87.3861 L294.807 145.152 L278.441 145.152 L278.441 24.192 Z" fill="#000000" fill-rule="nonzero" fill-opacity="1" /><path clip-path="url(#clip240)" d="M402.48 64.8631 Q390.489 64.8631 383.522 74.2612 Q376.554 83.5783 376.554 99.8629 Q376.554 116.148 383.441 125.546 Q390.408 134.863 402.48 134.863 Q414.39 134.863 421.357 125.465 Q428.325 116.067 428.325 99.8629 Q428.325 83.7403 421.357 74.3422 Q414.39 64.8631 402.48 64.8631 M402.48 52.2243 Q421.924 52.2243 433.024 64.8631 Q444.123 77.5019 444.123 99.8629 Q444.123 122.143 433.024 134.863 Q421.924 147.502 402.48 147.502 Q382.955 147.502 371.855 134.863 Q360.837 122.143 360.837 99.8629 Q360.837 77.5019 371.855 64.8631 Q382.955 52.2243 402.48 52.2243 Z" fill="#000000" fill-rule="nonzero" fill-opacity="1" /><path clip-path="url(#clip240)" d="M521.415 68.3469 Q518.903 66.8885 515.905 66.2404 Q512.989 65.5112 509.424 65.5112 Q496.785 65.5112 489.98 73.7751 Q483.255 81.9579 483.255 97.3513 L483.255 145.152 L468.267 145.152 L468.267 54.4117 L483.255 54.4117 L483.255 68.5089 Q487.954 60.245 495.489 56.2752 Q503.024 52.2243 513.799 52.2243 Q515.338 52.2243 517.202 52.4673 Q519.065 52.6293 521.334 53.0344 L521.415 68.3469 Z" fill="#000000" fill-rule="nonzero" fill-opacity="1" /><path clip-path="url(#clip240)" d="M528.382 54.4117 L543.29 54.4117 L561.924 125.222 L580.477 54.4117 L598.058 54.4117 L616.692 125.222 L635.245 54.4117 L650.152 54.4117 L626.414 145.152 L608.833 145.152 L589.308 70.7774 L569.701 145.152 L552.12 145.152 L528.382 54.4117 Z" fill="#000000" fill-rule="nonzero" fill-opacity="1" /><path clip-path="url(#clip240)" d="M713.995 99.5388 Q695.928 99.5388 688.96 103.671 Q681.992 107.803 681.992 117.768 Q681.992 125.708 687.178 130.407 Q692.444 135.025 701.437 135.025 Q713.833 135.025 721.286 126.275 Q728.821 117.444 728.821 102.861 L728.821 99.5388 L713.995 99.5388 M743.728 93.3814 L743.728 145.152 L728.821 145.152 L728.821 131.379 Q723.717 139.643 716.101 143.613 Q708.485 147.502 697.467 147.502 Q683.532 147.502 675.268 139.724 Q667.085 131.865 667.085 118.74 Q667.085 103.428 677.293 95.65 Q687.583 87.8722 707.918 87.8722 L728.821 87.8722 L728.821 86.4139 Q728.821 76.1246 722.015 70.5343 Q715.291 64.8631 703.057 64.8631 Q695.279 64.8631 687.907 66.7265 Q680.534 68.5899 673.729 72.3167 L673.729 58.5437 Q681.911 55.384 689.608 53.8446 Q697.305 52.2243 704.597 52.2243 Q724.284 52.2243 734.006 62.4325 Q743.728 72.6408 743.728 93.3814 Z" fill="#000000" fill-rule="nonzero" fill-opacity="1" /><path clip-path="url(#clip240)" d="M827.015 68.3469 Q824.503 66.8885 821.506 66.2404 Q818.589 65.5112 815.024 65.5112 Q802.385 65.5112 795.58 73.7751 Q788.855 81.9579 788.855 97.3513 L788.855 145.152 L773.867 145.152 L773.867 54.4117 L788.855 54.4117 L788.855 68.5089 Q793.554 60.245 801.089 56.2752 Q808.624 52.2243 819.399 52.2243 Q820.939 52.2243 822.802 52.4673 Q824.665 52.6293 826.934 53.0344 L827.015 68.3469 Z" fill="#000000" fill-rule="nonzero" fill-opacity="1" /><path clip-path="url(#clip240)" d="M899.445 68.1848 L899.445 19.0879 L914.352 19.0879 L914.352 145.152 L899.445 145.152 L899.445 131.541 Q894.746 139.643 887.535 143.613 Q880.406 147.502 870.36 147.502 Q853.913 147.502 843.543 134.377 Q833.253 121.252 833.253 99.8629 Q833.253 78.4741 843.543 65.3492 Q853.913 52.2243 870.36 52.2243 Q880.406 52.2243 887.535 56.1941 Q894.746 60.083 899.445 68.1848 M848.647 99.8629 Q848.647 116.31 855.371 125.708 Q862.177 135.025 874.005 135.025 Q885.834 135.025 892.64 125.708 Q899.445 116.31 899.445 99.8629 Q899.445 83.4162 892.64 74.0991 Q885.834 64.701 874.005 64.701 Q862.177 64.701 855.371 74.0991 Q848.647 83.4162 848.647 99.8629 Z" fill="#000000" fill-rule="nonzero" fill-opacity="1" /><path clip-path="url(#clip240)" d="M998.449 24.192 L1074.93 24.192 L1074.93 37.9651 L1014.81 37.9651 L1014.81 73.7751 L1072.42 73.7751 L1072.42 87.5481 L1014.81 87.5481 L1014.81 131.379 L1076.39 131.379 L1076.39 145.152 L998.449 145.152 L998.449 24.192 Z" fill="#000000" fill-rule="nonzero" fill-opacity="1" /><path clip-path="url(#clip240)" d="M1091.94 54.4117 L1107.74 54.4117 L1136.1 130.569 L1164.46 54.4117 L1180.25 54.4117 L1146.23 145.152 L1125.97 145.152 L1091.94 54.4117 Z" fill="#000000" fill-rule="nonzero" fill-opacity="1" /><path clip-path="url(#clip240)" d="M1278.45 96.055 L1278.45 103.347 L1209.91 103.347 Q1210.88 118.74 1219.14 126.842 Q1227.49 134.863 1242.31 134.863 Q1250.9 134.863 1258.92 132.756 Q1267.02 130.65 1274.96 126.437 L1274.96 140.534 Q1266.94 143.937 1258.52 145.719 Q1250.09 147.502 1241.42 147.502 Q1219.71 147.502 1206.99 134.863 Q1194.35 122.224 1194.35 100.673 Q1194.35 78.3931 1206.34 65.3492 Q1218.41 52.2243 1238.83 52.2243 Q1257.14 52.2243 1267.75 64.0529 Q1278.45 75.8005 1278.45 96.055 M1263.54 91.6801 Q1263.38 79.4463 1256.65 72.1547 Q1250.01 64.8631 1238.99 64.8631 Q1226.52 64.8631 1218.98 71.9117 Q1211.53 78.9602 1210.39 91.7611 L1263.54 91.6801 Z" fill="#000000" fill-rule="nonzero" fill-opacity="1" /><path clip-path="url(#clip240)" d="M1378.34 90.3838 L1378.34 145.152 L1363.44 145.152 L1363.44 90.8699 Q1363.44 77.988 1358.41 71.5876 Q1353.39 65.1872 1343.34 65.1872 Q1331.27 65.1872 1324.3 72.8839 Q1317.34 80.5806 1317.34 93.8676 L1317.34 145.152 L1302.35 145.152 L1302.35 54.4117 L1317.34 54.4117 L1317.34 68.5089 Q1322.68 60.3261 1329.89 56.2752 Q1337.19 52.2243 1346.66 52.2243 Q1362.3 52.2243 1370.32 61.9464 Q1378.34 71.5876 1378.34 90.3838 Z" fill="#000000" fill-rule="nonzero" fill-opacity="1" /><path clip-path="url(#clip240)" d="M1422.82 28.648 L1422.82 54.4117 L1453.53 54.4117 L1453.53 65.9973 L1422.82 65.9973 L1422.82 115.256 Q1422.82 126.356 1425.82 129.516 Q1428.9 132.675 1438.22 132.675 L1453.53 132.675 L1453.53 145.152 L1438.22 145.152 Q1420.96 145.152 1414.4 138.752 Q1407.83 132.27 1407.83 115.256 L1407.83 65.9973 L1396.9 65.9973 L1396.9 54.4117 L1407.83 54.4117 L1407.83 28.648 L1422.82 28.648 Z" fill="#000000" fill-rule="nonzero" fill-opacity="1" /><path clip-path="url(#clip240)" d="M1465.6 93.0574 L1509.27 93.0574 L1509.27 106.344 L1465.6 106.344 L1465.6 93.0574 Z" fill="#000000" fill-rule="nonzero" fill-opacity="1" /><path clip-path="url(#clip240)" d="M1624.23 33.5091 L1624.23 50.7659 Q1615.97 43.0692 1606.57 39.2614 Q1597.25 35.4535 1586.72 35.4535 Q1565.98 35.4535 1554.96 48.1734 Q1543.94 60.8122 1543.94 84.7935 Q1543.94 108.694 1554.96 121.414 Q1565.98 134.053 1586.72 134.053 Q1597.25 134.053 1606.57 130.245 Q1615.97 126.437 1624.23 118.74 L1624.23 135.835 Q1615.64 141.668 1606 144.585 Q1596.44 147.502 1585.75 147.502 Q1558.28 147.502 1542.49 130.731 Q1526.69 113.879 1526.69 84.7935 Q1526.69 55.627 1542.49 38.8563 Q1558.28 22.0045 1585.75 22.0045 Q1596.61 22.0045 1606.17 24.9212 Q1615.81 27.7568 1624.23 33.5091 Z" fill="#000000" fill-rule="nonzero" fill-opacity="1" /><path clip-path="url(#clip240)" d="M1724.29 90.3838 L1724.29 145.152 L1709.38 145.152 L1709.38 90.8699 Q1709.38 77.988 1704.36 71.5876 Q1699.34 65.1872 1689.29 65.1872 Q1677.22 65.1872 1670.25 72.8839 Q1663.28 80.5806 1663.28 93.8676 L1663.28 145.152 L1648.3 145.152 L1648.3 19.0879 L1663.28 19.0879 L1663.28 68.5089 Q1668.63 60.3261 1675.84 56.2752 Q1683.13 52.2243 1692.61 52.2243 Q1708.25 52.2243 1716.27 61.9464 Q1724.29 71.5876 1724.29 90.3838 Z" fill="#000000" fill-rule="nonzero" fill-opacity="1" /><path clip-path="url(#clip240)" d="M1795.26 99.5388 Q1777.19 99.5388 1770.23 103.671 Q1763.26 107.803 1763.26 117.768 Q1763.26 125.708 1768.45 130.407 Q1773.71 135.025 1782.7 135.025 Q1795.1 135.025 1802.55 126.275 Q1810.09 117.444 1810.09 102.861 L1810.09 99.5388 L1795.26 99.5388 M1825 93.3814 L1825 145.152 L1810.09 145.152 L1810.09 131.379 Q1804.98 139.643 1797.37 143.613 Q1789.75 147.502 1778.73 147.502 Q1764.8 147.502 1756.54 139.724 Q1748.35 131.865 1748.35 118.74 Q1748.35 103.428 1758.56 95.65 Q1768.85 87.8722 1789.19 87.8722 L1810.09 87.8722 L1810.09 86.4139 Q1810.09 76.1246 1803.28 70.5343 Q1796.56 64.8631 1784.32 64.8631 Q1776.55 64.8631 1769.17 66.7265 Q1761.8 68.5899 1755 72.3167 L1755 58.5437 Q1763.18 55.384 1770.88 53.8446 Q1778.57 52.2243 1785.86 52.2243 Q1805.55 52.2243 1815.27 62.4325 Q1825 72.6408 1825 93.3814 Z" fill="#000000" fill-rule="nonzero" fill-opacity="1" /><path clip-path="url(#clip240)" d="M1855.7 54.4117 L1870.61 54.4117 L1870.61 145.152 L1855.7 145.152 L1855.7 54.4117 M1855.7 19.0879 L1870.61 19.0879 L1870.61 37.9651 L1855.7 37.9651 L1855.7 19.0879 Z" fill="#000000" fill-rule="nonzero" fill-opacity="1" /><path clip-path="url(#clip240)" d="M1977.23 90.3838 L1977.23 145.152 L1962.32 145.152 L1962.32 90.8699 Q1962.32 77.988 1957.3 71.5876 Q1952.28 65.1872 1942.23 65.1872 Q1930.16 65.1872 1923.19 72.8839 Q1916.22 80.5806 1916.22 93.8676 L1916.22 145.152 L1901.23 145.152 L1901.23 54.4117 L1916.22 54.4117 L1916.22 68.5089 Q1921.57 60.3261 1928.78 56.2752 Q1936.07 52.2243 1945.55 52.2243 Q1961.19 52.2243 1969.21 61.9464 Q1977.23 71.5876 1977.23 90.3838 Z" fill="#000000" fill-rule="nonzero" fill-opacity="1" /><path clip-path="url(#clip240)" d="M2060.35 24.192 L2084.74 24.192 L2115.61 106.506 L2146.64 24.192 L2171.02 24.192 L2171.02 145.152 L2155.06 145.152 L2155.06 38.9373 L2123.87 121.9 L2107.42 121.9 L2076.23 38.9373 L2076.23 145.152 L2060.35 145.152 L2060.35 24.192 Z" fill="#000000" fill-rule="nonzero" fill-opacity="1" /><path clip-path="url(#clip240)" d="M2238.03 64.8631 Q2226.04 64.8631 2219.07 74.2612 Q2212.1 83.5783 2212.1 99.8629 Q2212.1 116.148 2218.99 125.546 Q2225.95 134.863 2238.03 134.863 Q2249.94 134.863 2256.9 125.465 Q2263.87 116.067 2263.87 99.8629 Q2263.87 83.7403 2256.9 74.3422 Q2249.94 64.8631 2238.03 64.8631 M2238.03 52.2243 Q2257.47 52.2243 2268.57 64.8631 Q2279.67 77.5019 2279.67 99.8629 Q2279.67 122.143 2268.57 134.863 Q2257.47 147.502 2238.03 147.502 Q2218.5 147.502 2207.4 134.863 Q2196.38 122.143 2196.38 99.8629 Q2196.38 77.5019 2207.4 64.8631 Q2218.5 52.2243 2238.03 52.2243 Z" fill="#000000" fill-rule="nonzero" fill-opacity="1" /><path clip-path="url(#clip240)" d="M2379.81 90.3838 L2379.81 145.152 L2364.9 145.152 L2364.9 90.8699 Q2364.9 77.988 2359.88 71.5876 Q2354.85 65.1872 2344.81 65.1872 Q2332.74 65.1872 2325.77 72.8839 Q2318.8 80.5806 2318.8 93.8676 L2318.8 145.152 L2303.81 145.152 L2303.81 54.4117 L2318.8 54.4117 L2318.8 68.5089 Q2324.15 60.3261 2331.36 56.2752 Q2338.65 52.2243 2348.13 52.2243 Q2363.77 52.2243 2371.79 61.9464 Q2379.81 71.5876 2379.81 90.3838 Z" fill="#000000" fill-rule="nonzero" fill-opacity="1" /><path clip-path="url(#clip240)" d="M2424.29 28.648 L2424.29 54.4117 L2454.99 54.4117 L2454.99 65.9973 L2424.29 65.9973 L2424.29 115.256 Q2424.29 126.356 2427.28 129.516 Q2430.36 132.675 2439.68 132.675 L2454.99 132.675 L2454.99 145.152 L2439.68 145.152 Q2422.42 145.152 2415.86 138.752 Q2409.3 132.27 2409.3 115.256 L2409.3 65.9973 L2398.36 65.9973 L2398.36 54.4117 L2409.3 54.4117 L2409.3 28.648 L2424.29 28.648 Z" fill="#000000" fill-rule="nonzero" fill-opacity="1" /><path clip-path="url(#clip240)" d="M2552.21 96.055 L2552.21 103.347 L2483.67 103.347 Q2484.64 118.74 2492.91 126.842 Q2501.25 134.863 2516.08 134.863 Q2524.67 134.863 2532.69 132.756 Q2540.79 130.65 2548.73 126.437 L2548.73 140.534 Q2540.71 143.937 2532.28 145.719 Q2523.86 147.502 2515.19 147.502 Q2493.48 147.502 2480.76 134.863 Q2468.12 122.224 2468.12 100.673 Q2468.12 78.3931 2480.11 65.3492 Q2492.18 52.2243 2512.6 52.2243 Q2530.91 52.2243 2541.52 64.0529 Q2552.21 75.8005 2552.21 96.055 M2537.31 91.6801 Q2537.14 79.4463 2530.42 72.1547 Q2523.78 64.8631 2512.76 64.8631 Q2500.28 64.8631 2492.75 71.9117 Q2485.29 78.9602 2484.16 91.7611 L2537.31 91.6801 Z" fill="#000000" fill-rule="nonzero" fill-opacity="1" /><path clip-path="url(#clip240)" d="M2720.65 33.5091 L2720.65 50.7659 Q2712.39 43.0692 2702.99 39.2614 Q2693.67 35.4535 2683.14 35.4535 Q2662.4 35.4535 2651.38 48.1734 Q2640.36 60.8122 2640.36 84.7935 Q2640.36 108.694 2651.38 121.414 Q2662.4 134.053 2683.14 134.053 Q2693.67 134.053 2702.99 130.245 Q2712.39 126.437 2720.65 118.74 L2720.65 135.835 Q2712.06 141.668 2702.42 144.585 Q2692.86 147.502 2682.17 147.502 Q2654.7 147.502 2638.9 130.731 Q2623.1 113.879 2623.1 84.7935 Q2623.1 55.627 2638.9 38.8563 Q2654.7 22.0045 2682.17 22.0045 Q2693.02 22.0045 2702.58 24.9212 Q2712.22 27.7568 2720.65 33.5091 Z" fill="#000000" fill-rule="nonzero" fill-opacity="1" /><path clip-path="url(#clip240)" d="M2786.52 99.5388 Q2768.45 99.5388 2761.48 103.671 Q2754.52 107.803 2754.52 117.768 Q2754.52 125.708 2759.7 130.407 Q2764.97 135.025 2773.96 135.025 Q2786.36 135.025 2793.81 126.275 Q2801.34 117.444 2801.34 102.861 L2801.34 99.5388 L2786.52 99.5388 M2816.25 93.3814 L2816.25 145.152 L2801.34 145.152 L2801.34 131.379 Q2796.24 139.643 2788.62 143.613 Q2781.01 147.502 2769.99 147.502 Q2756.06 147.502 2747.79 139.724 Q2739.61 131.865 2739.61 118.74 Q2739.61 103.428 2749.82 95.65 Q2760.11 87.8722 2780.44 87.8722 L2801.34 87.8722 L2801.34 86.4139 Q2801.34 76.1246 2794.54 70.5343 Q2787.81 64.8631 2775.58 64.8631 Q2767.8 64.8631 2760.43 66.7265 Q2753.06 68.5899 2746.25 72.3167 L2746.25 58.5437 Q2754.44 55.384 2762.13 53.8446 Q2769.83 52.2243 2777.12 52.2243 Q2796.81 52.2243 2806.53 62.4325 Q2816.25 72.6408 2816.25 93.3814 Z" fill="#000000" fill-rule="nonzero" fill-opacity="1" /><path clip-path="url(#clip240)" d="M2899.54 68.3469 Q2897.03 66.8885 2894.03 66.2404 Q2891.11 65.5112 2887.55 65.5112 Q2874.91 65.5112 2868.1 73.7751 Q2861.38 81.9579 2861.38 97.3513 L2861.38 145.152 L2846.39 145.152 L2846.39 54.4117 L2861.38 54.4117 L2861.38 68.5089 Q2866.08 60.245 2873.61 56.2752 Q2881.15 52.2243 2891.92 52.2243 Q2893.46 52.2243 2895.33 52.4673 Q2897.19 52.6293 2899.46 53.0344 L2899.54 68.3469 Z" fill="#000000" fill-rule="nonzero" fill-opacity="1" /><path clip-path="url(#clip240)" d="M2915.17 19.0879 L2930.08 19.0879 L2930.08 145.152 L2915.17 145.152 L2915.17 19.0879 Z" fill="#000000" fill-rule="nonzero" fill-opacity="1" /><path clip-path="url(#clip240)" d="M2996.44 64.8631 Q2984.45 64.8631 2977.48 74.2612 Q2970.51 83.5783 2970.51 99.8629 Q2970.51 116.148 2977.4 125.546 Q2984.36 134.863 2996.44 134.863 Q3008.35 134.863 3015.31 125.465 Q3022.28 116.067 3022.28 99.8629 Q3022.28 83.7403 3015.31 74.3422 Q3008.35 64.8631 2996.44 64.8631 M2996.44 52.2243 Q3015.88 52.2243 3026.98 64.8631 Q3038.08 77.5019 3038.08 99.8629 Q3038.08 122.143 3026.98 134.863 Q3015.88 147.502 2996.44 147.502 Q2976.91 147.502 2965.81 134.863 Q2954.79 122.143 2954.79 99.8629 Q2954.79 77.5019 2965.81 64.8631 Q2976.91 52.2243 2996.44 52.2243 Z" fill="#000000" fill-rule="nonzero" fill-opacity="1" /><polyline clip-path="url(#clip241)" style="stroke:#e95420; stroke-linecap:round; stroke-linejoin:round; stroke-width:16; stroke-opacity:1; fill:none" points="248.359,1798.87 249.156,1725.44 249.861,1727.86 250.316,1735.86 251.268,1735.32 251.87,1741.29 252.239,1753.72 253.018,1767.91 253.913,1747.55 254.474,1749.56 254.817,1753.18 255.564,1710.64 256.196,1695.11 256.69,1692.59 258.099,1634.6 258.607,1631.48 259.215,1629 259.679,1641.64 260.638,1612.16 261.473,1552.38 262.27,1556.06 263.005,1619.11 264.206,1663.76 264.798,1646.07 265.379,1673.99 265.843,1677.1 266.597,1680.8 267.085,1682.73 267.606,1671.07 268.796,1756.52 269.699,1737.9 269.914,1737.46 270.773,1733.9 271.443,1739.33 272.303,1754.98 273.334,1790.72 273.687,1792.17 274.301,1807.04 275.319,1711.08 275.934,1711.59 276.555,1723.15 277.221,1716.89 277.88,1687.75 278.368,1679.4 278.951,1693.17 279.653,1704.28 280.318,1707.48 281.456,1718.15 282.389,1678.65 282.984,1665.2 283.46,1660.88 284.384,1632.94 285.097,1628.44 285.618,1621.42 286.396,1616.25 287.013,1601.76 288.158,1575.34 288.992,1570.35 289.712,1566.41 290.289,1567.03 290.776,1562.06 291.367,1545.2 292.178,1533.19 293.241,1482.95 294.141,1494.68 294.452,1490.31 294.802,1487.15 295.532,1457.86 296.382,1501.51 297.18,1540.02 297.949,1525.78 298.608,1493.16 299.141,1506.55 299.96,1501.03 300.759,1535.06 301.441,1501.4 302.668,1450.85 303.256,1448.52 303.983,1425.86 304.508,1393.07 305.137,1371.24 305.497,1370.59 306.118,1384.05 307.035,1350.15 307.673,1334.8 308.181,1351.08 309.628,1405.19 310.567,1401.01 311.347,1381.65 312.117,1383.06 312.867,1327.61 313.948,1337.98 314.609,1344.79 314.892,1350.89 315.784,1334.9 316.531,1363.87 317.371,1412.3 318.044,1367.22 318.558,1368.28 319.007,1377.68 319.805,1411.82 320.738,1469.11 320.879,1467.51 321.696,1495.88 322.121,1499.18 323.341,1477.28 324.471,1499.11 325.608,1521.9 326.644,1522.98 327.117,1498.56 327.937,1490.12 328.621,1513.35 329.356,1519.28 329.976,1488.35 330.51,1495.06 331.084,1504.74 331.308,1510 332.554,1406.37 332.993,1399.84 333.595,1395.03 334.581,1358.06 335.184,1319.8 335.666,1337.57 336.101,1336.17 337.096,1356.31 337.804,1338.05 338.655,1381.18 339.198,1361.52 339.827,1353.08 340.592,1349.81 341.151,1339.59 341.859,1352.23 342.725,1314.32 343.39,1276.98 344.305,1241.85 345.497,1170.88 345.858,1173.81 346.605,1152.04 347.362,1129.69 348.638,1069.54 349.168,1078.01 350.147,1107.67 351.709,1209.28 352.183,1188.43 353.203,1162.05 353.691,1179.77 354.457,1178.08 355.075,1191.38 355.58,1194.33 356.111,1181.22 356.525,1200.04 357.066,1222.27 357.34,1218.31 358.27,1217.45 358.807,1213.95 359.669,1225.77 360.498,1249.23 360.583,1249.18 361.133,1242.27 361.918,1262.73 362.651,1265.5 363.191,1240.38 364.032,1240.19 364.602,1236.66 365.382,1290.04 365.659,1289.89 366.21,1272.27 366.618,1291.59 367.18,1276.29 367.835,1263.77 368.887,1210.92 369.372,1215.04 370.144,1185.98 370.78,1198.66 371.244,1208.66 371.869,1175.35 372.545,1180.49 373.308,1202.82 374.201,1191.67 374.839,1178.41 375.733,1199 376.516,1195.65 377.616,1082.47 378.69,1112.72 379.669,1141.97 380.454,1179.25 380.91,1169.02 381.625,1131.25 382.64,1125.41 383.028,1136.77 383.652,1139.95 384.32,1108.61 384.733,1099.38 385.398,1100.87 386.249,1084.05 386.853,1083.62 387.499,1120.47 388.149,1113.66 388.926,1102.26 390.514,981.571 391.175,943.408 391.706,955.481 392.154,963.307 392.936,917.698 393.474,907.638 393.679,906.732 394.668,869.243 395.162,894.379 395.88,934.439 396.437,931.107 396.981,930.384 397.834,893.333 398.451,902.796 399.255,911.483 399.687,919.027 400.586,845.428 401.197,829.356 401.696,818.998 403.186,695.39 403.726,701.393 404.553,715.074 404.884,706.846 405.214,702.336 406.062,713.453 407.261,730.727 408.462,709.07 409.212,668.682 409.756,701.178 410.152,696.209 410.942,746.462 411.884,755.373 412.7,701.641 413.438,670.292 413.859,678.152 415.022,721.709 415.926,677.225 417.162,810.658 417.802,854.999 418.831,892.052 420.16,961.191 420.672,947.389 421.309,928.535 422.275,935.148 423.193,859.942 424.088,814.631 424.883,835.865 425.445,815.45 426.433,791.833 427.53,759.274 428.395,809.444 429.154,827.253 430.025,818.61 430.762,791.002 431.418,788.693 431.943,785.075 432.688,811.248 433.002,807.509 433.682,820.04 434.861,891.422 435.671,886.106 436.701,916.694 437.272,900.631 438.223,886.576 439.205,923.408 439.968,897.44 441.214,927.984 441.612,933.793 442.402,895.003 443.329,940.267 443.919,946.458 444.456,958.545 444.834,972.834 445.333,978.233 446.014,990.174 446.546,997.229 446.975,991.912 447.742,969.148 448.319,937.451 449.003,936.339 449.466,943.594 450.608,1028.86 451.054,1033.9 451.606,1051.64 451.863,1052.42 453.026,1047.94 453.928,1036.1 454.637,1050.86 455.095,1065.91 455.942,1116.15 456.587,1133.91 457.412,1131.57 458.173,1151.98 459.495,1166.97 460.041,1150.52 460.625,1167.07 461.116,1154.56 462.401,1107.94 463.295,1122.27 463.663,1122.13 464.027,1116.05 465.092,1128.47 465.879,1113.01 466.531,1091.4 467.156,1088.9 467.816,1087.2 468.591,1022.64 469.125,1048.52 469.535,1053.37 469.956,1062.98 471.045,1079.27 471.77,1039.5 472.785,1079.92 473.567,1113.45 474.235,1129.49 474.964,1142.35 476.046,1161.88 476.776,1174.21 477.442,1135.81 477.967,1140.46 478.49,1140.33 479.057,1141.64 480.43,1166.09 481.641,1175.46 482.506,1182.64 483.392,1200.11 484.517,1200.38 484.877,1205.46 486.188,1217.12 486.867,1183.16 487.333,1201.1 487.565,1200.28 487.928,1195.94 488.495,1225.94 489.448,1262.98 490.416,1212.76 491.934,1304.38 492.482,1296.09 492.812,1289.12 493.886,1331.81 494.898,1365.08 495.512,1390.63 496.716,1388.82 497.442,1385.42 497.648,1385.16 498.866,1498.82 499.447,1514.16 500.292,1535.76 500.887,1548.46 501.657,1544.02 502.411,1573.59 502.811,1571.68 503.923,1619.23 504.527,1592.13 505.197,1630 505.757,1639.05 506.507,1645.46 507.175,1629.68 507.716,1661.19 508.113,1662.98 509.012,1669.29 509.596,1666.71 510.294,1641.18 510.61,1642.39 511.528,1610.8 512.755,1596.78 513.367,1580.26 514.301,1523.47 515.232,1535.15 515.826,1540.31 517.053,1575.13 517.98,1498.52 518.644,1522.89 519.183,1511.06 520.023,1491.57 521.018,1466.54 521.596,1468.96 522.184,1462.72 522.953,1478.46 523.718,1470.71 524.16,1485.57 524.684,1483.34 525.361,1487.4 525.789,1494.6 526.176,1487.84 526.653,1474.1 527.589,1418.29 527.902,1415.46 528.374,1423.59 528.766,1421.7 529.375,1400.57 530.03,1370.56 530.749,1372.72 531.212,1370.03 532.084,1410.16 532.834,1389.84 533.465,1384.56 534.372,1377.87 534.845,1389.72 536.011,1394.91 536.509,1410.06 537.083,1410.27 537.935,1455.29 538.915,1555.88 539.28,1553.13 540.077,1545.38 540.441,1547.46 541.176,1584.2 542.437,1487.6 543.256,1552.19 544.336,1600.14 545.366,1606.51 546.004,1609.9 546.354,1616.96 547.226,1624.8 547.534,1619.18 548.241,1618.46 548.748,1613.72 549.44,1625.09 551.227,1720.58 551.652,1716.69 552.392,1716.79 552.752,1714.49 552.94,1716.07 553.508,1717.95 554.043,1723.76 554.505,1719.22 555.094,1701.01 555.854,1703.95 557.198,1652.1 557.548,1655.64 558.033,1662.46 558.806,1668.63 559.254,1652.3 560.212,1715.46 560.682,1715.87 561.43,1718.32 562.424,1702.22 563.343,1672.5 564.136,1693.26 564.702,1678.74 565.629,1669.73 566.534,1648.89 567.008,1668.66 567.422,1664.09 568.47,1623.84 569.088,1606.63 569.614,1602.35 570.573,1663.26 571.752,1630.24 572.3,1646.86 572.669,1639.89 573.71,1726.94 574.309,1722.35 575.138,1751.45 575.545,1742.64 576.083,1757.26 576.806,1757.29 577.314,1760.62 577.602,1760.65 578.845,1696.13 579.378,1713.94 580.362,1773.66 580.848,1792.69 581.3,1801.19 581.834,1793.1 582.67,1791.51 583.403,1776.62 584.05,1751.18 584.704,1754.29 585.521,1777.67 586.457,1812.08 587.436,1798 587.881,1785.11 588.734,1795.14 589.393,1785.07 589.84,1766.58 590.327,1767.06 590.788,1754.66 591.306,1731.5 592.257,1742.41 593.46,1863.31 593.988,1872.84 594.249,1878.16 594.833,1851.25 595.999,1909.93 596.853,1944.86 597.432,1926.52 598.301,1918.17 598.68,1919.56 599.366,1919.06 599.597,1922.75 600.248,1937.11 600.57,1931.85 601.216,1911.13 602.1,1924.77 602.94,1873.81 603.852,1849.66 604.714,1877.58 605.33,1869.42 606.384,1832.83 607.297,1895.34 607.93,1931.59 608.467,1911.79 609.019,1914.31 609.74,1959.02 610.661,1971.5 611.468,1965.19 612.629,2004.27 613.54,2065.71 614.167,2072.04 614.744,2082.79 615.72,2108.26 616.178,2126.24 616.645,2150.43 617.167,2173.21 617.599,2160.04 618.727,2197.64 619.356,2156.76 620.129,2160.43 621.055,2088.61 622.081,2102.59 623.02,2138.84 623.356,2139.34 623.877,2137.7 624.287,2127.96 625.021,2131.36 625.981,2150.9 626.928,2174.13 627.573,2170.26 628.62,2192.24 629.148,2190.73 630.056,2178.51 630.72,2170.54 631.132,2179.42 631.726,2209.64 632.175,2215.4 633.356,2131.34 633.725,2130.32 634.219,2116.47 635.268,2074.68 635.82,2085.51 636.174,2073.46 636.639,2094.29 637.349,2077.74 638.007,2035.08 638.719,2066.07 639.297,2053.38 639.81,2055.63 640.197,2063.11 640.815,2065.82 641.591,2090.49 642.052,2087.33 642.948,2121.91 643.596,2139.66 645.107,2015.33 645.493,2010.25 645.919,1997.34 646.647,1974.45 647.577,1956.94 648.163,1932.72 649.102,1965.62 649.809,1941.89 650.314,1936.19 651.078,1924.39 651.428,1932.37 652.363,2028.91 652.825,2022.85 653.492,1999.4 653.757,1998.56 654.701,2027.21 655.23,2007.55 656.349,2022.87 657.397,2009.93 658.926,1995.94 659.931,1986.71 660.499,1986.91 661.255,1967.92 662.315,1965.06 662.97,1983.69 663.49,1996.47 664.067,2024.75 665.349,1938.57 666.534,1936.61 667.478,1904.55 668.472,1931.41 669.035,1944.76 670.135,2016.82 670.712,1999.85 671.225,1997.93 671.685,1982.34 672.381,2012.71 672.885,2038.23 672.963,2037.65 673.321,2037.35 673.951,2051.11 674.554,2037.74 675.375,2039.34 676.267,2048.24 676.667,2045.36 677.399,2009.18 678.308,2064.12 679.474,1972.24 679.94,1956.08 680.783,1908.29 681.309,1886.76 681.92,1894.61 683.215,1923.01 683.581,1923.5 684.626,1879.42 685.4,1894.39 685.794,1890.48 686.485,1854.7 687.286,1837.81 688.413,1831.67 689.037,1870.68 689.479,1862.89 690.101,1876.97 690.616,1866.41 691.699,1886.29 691.999,1883.72 692.28,1884.95 692.924,1908.16 693.519,1902.51 694.08,1909.74 694.699,1933.53 695.406,1909.26 696.095,1907.4 696.613,1936.32 697.826,1937.54 698.485,1930.36 699.34,1976.5 700.079,1987.78 700.99,1941.06 702.178,1993.84 702.682,1973.32 703.377,1968.3 703.912,1961.21 704.68,1942.14 705.217,1952.88 705.683,1961.48 706.801,1964.11 707.46,1936.26 708.101,1917.9 708.648,1924.22 709.556,1981.01 710.227,1985.73 710.751,1979.39 711.736,1870.37 712.465,1923.35 713.195,1937.35 714.122,2000.3 714.754,2000.62 715.582,2009.16 715.992,2005.99 717.253,1966.86 718.204,2013.06 719.088,2099.26 719.744,2097.4 720.118,2094 720.675,2108.29 721.217,2107.93 722.199,2101.13 723.136,2078.33 723.828,2085.73 725.053,2073.84 725.938,2096.69 726.453,2095.23 727.471,2116.45 728.349,2088.28 729.122,2091.26 729.758,2108.62 730.33,2102.6 731.246,2091.7 731.771,2078.75 731.989,2073.74 732.787,2073.89 733.166,2080.56 734.001,2092.13 734.758,2064.2 735.722,2089.42 737.011,2115.66 737.515,2129.08 738.565,2130.79 739.074,2115.03 739.702,2129.62 739.906,2126.21 740.686,2107.08 740.984,2107.58 741.863,2116.41 742.648,2071.07 743.311,2079.85 744.256,2066.61 745.187,2038.58 746.461,1983.12 747.171,2016.18 748.386,1991.79 748.959,1977.29 750.124,2028.04 750.655,2051.63 751.016,2040.39 751.722,2056.81 752.836,2034.71 753.245,2031.18 754.433,1989.19 755.095,2006.49 755.592,2011.57 756.512,1981.04 757.553,1983.77 758.502,2013.12 759.338,2028.68 760.484,2006.37 761.419,1989.14 762.546,1990.86 763.1,2018.98 763.999,1988.98 764.568,1990.28 765.001,2004.53 765.554,1997.1 766.116,2023.78 767.152,2008.32 767.55,2000.3 768.088,1987.73 768.743,2013.7 769.056,2013.03 769.252,2015.88 769.542,2014.39 769.979,2013.73 770.451,2022.35 771.332,2025.59 771.968,2020.3 772.585,1988.93 773.375,2037.48 773.667,2030.32 774.279,2028.92 774.866,2029.14 775.237,2030.17 775.821,2043.32 776.441,2035.68 777.502,2020.33 778.446,2085.57 778.983,2090.95 779.477,2071.86 780.006,2075.05 780.567,2108.44 781.186,2108.72 781.779,2119.17 782.307,2096.26 783.378,2061.91 784.591,2062.28 784.987,2062.42 785.87,2027.3 786.42,2046.09 787.014,2083.63 788.016,2055.14 789.048,2058.75 789.377,2057.75 790.018,2059.32 790.881,2141.89 791.658,2149.95 792.601,2156.96 793.549,2176.56 793.941,2165.6 795.318,2109.91 796.052,2069.2 797.124,2030.3 798.068,1991.49 798.716,1955.47 799.316,1971.18 799.873,1953.08 800.602,1945.9 801.867,2016.12 802.24,2020.29 802.727,2024.08 803.15,2018.52 803.545,2017.1 804.05,2004.53 804.562,2005.99 805.338,2003.55 806.046,2008.04 806.823,2023.26 807.437,1985.78 808.184,2017.29 808.734,2020.28 809.604,2038 809.959,2032.81 810.943,2075.97 811.309,2082.72 811.815,2075.54 812.192,2080.69 813.119,2008.33 813.965,2006.75 814.652,1989.39 815.57,1963.82 816.255,1963.67 817.028,1987.2 818.204,1977.02 819.061,1896.12 819.751,1892.28 820.067,1882.44 820.885,1862.95 821.504,1832.12 822.277,1856.09 822.586,1855.9 823.62,1854.46 824.019,1863.33 825.064,1850.58 826.006,1880.34 826.76,1874.73 827.114,1864.78 827.363,1863.09 828.015,1849.68 829.161,1828.47 829.846,1831.97 830.269,1838.07 830.641,1837.01 831.531,1819.39 832.968,1714.12 833.346,1701.71 833.826,1687.06 834.247,1684.26 835.716,1771.46 836.047,1771.76 836.883,1787.92 837.718,1833.65 838.474,1814.96 839.164,1871.1 839.762,1855.38 840.612,1864.18 841.436,1867.53 841.872,1858.72 842.733,1869.2 843.476,1935.66 844.293,1920.26 844.807,1931.13 845.397,1954.76 845.554,1954.17 845.985,1958.92 846.988,1957 847.868,1881.08 848.217,1890.67 848.933,1881.1 849.573,1887.34 850.343,1872.75 851.043,1854.82 852.392,1835.72 853.446,1859.2 853.983,1847.83 855.111,1914.15 855.705,1905.61 856.45,1921.87 857.196,1934.85 857.89,1940.35 859.417,1944.59 860.028,1942.63 860.375,1947.92 860.759,1954.69 861.335,1968.48 861.668,1962.26 862.47,1974.17 863.179,1918.21 864.053,1934.24 864.65,1915.62 865.84,1960.52 866.871,1910.05 867.322,1896.57 867.69,1899.77 868.128,1915.91 868.844,1874.19 869.382,1885.97 869.959,1872.39 870.551,1900.5 871.091,1907.36 871.725,1956.18 872.112,1954.18 872.772,1947.69 873.449,1968.25 873.727,1972.64 874.669,1928.64 875.203,1900.84 875.746,1922.95 876.354,1933.44 876.978,1898.07 877.506,1898.12 878.334,1927.01 878.991,1966.26 879.942,2054.89 880.339,2050.71 881.448,2042.43 882.267,2083.89 883.226,2099.21 883.832,2122.67 884.2,2119.44 884.695,2121.91 885.628,2080.05 886.042,2076.91 886.94,2119.76 887.511,2118.25 888.488,2162.21 889.714,2092.66 890.479,2086.62 891.044,2079.12 891.58,2071.52 892.027,2075.74 892.878,2061.34 893.446,2055.38 893.579,2055.97 894.264,2094.76 894.812,2085.29 895.249,2094.97 895.836,2115.86 896.995,2097.16 897.435,2088.73 897.538,2089.05 898.594,2053.05 899.777,2009.16 900.516,1978.05 901.666,1995.33 902.548,2026.15 903.178,2017.8 903.574,2022.28 904.331,2006.63 904.768,1999.53 905.416,2020.75 906.428,2055.76 907.406,2079.71 907.745,2087.45 908.468,2120.14 909.128,2114.13 909.692,2110.14 910.459,2145.72 911.679,2122.63 912.105,2115.27 912.429,2106.93 913.236,2144.32 913.868,2121.23 914.476,2143.94 914.804,2137.44 915.278,2122.69 915.655,2113.66 916.487,2072.49 916.994,2071.7 917.437,2064.68 918.137,2065.69 918.608,2056.88 919.473,2027.53 920.094,2012.09 920.641,2025.15 921.768,2041.22 923.161,2077.86 924.259,2079.95 925.022,2059.89 925.281,2053.61 926.043,2047.35 926.551,2060.35 927.363,2052.18 928.19,2027.95 929.061,2052.61 930.074,2003.05 930.626,2020.34 931.141,2047.98 931.981,2070.77 932.43,2056.06 933.339,1967.07 933.69,1962.31 934.038,1956.43 935.014,1954.07 935.755,1946.96 936.378,1939.1 936.712,1939.42 937.451,1944.84 938.358,1880.85 939.061,1892.12 939.755,1905.5 940.415,1912.46 941.237,1955.64 942.102,1938.8 942.792,1959.62 943.508,1928.34 944.984,1970.84 945.502,1991.94 946.012,2005.61 946.271,2004.42 946.791,1991.17 947.968,1895.01 949.132,1959.16 949.792,1922.44 950.138,1921.92 950.674,1919.7 951.238,1924.22 952.61,1921.23 953.393,1880.25 953.79,1883.65 954.738,1859.49 955.745,1881.89 956.404,1869.3 957.281,1826.77 958.091,1818.18 959.39,1927.23 959.618,1922.51 960.615,1910.27 961.279,1893.91 962.128,1896.3 962.83,1916.34 963.365,1882.2 964.344,1885.1 965.238,1895.59 965.85,1900.83 966.298,1914.01 967.253,1878.65 968.051,1861.07 969.072,1898.99 970.016,1925.74 970.574,1946.5 971.228,1923.12 971.687,1920.96 972.608,1972.57 973.336,1995.5 974.634,2005.69 975.451,2048.76 975.872,2035.98 976.652,2039.25 977.034,2050.06 978.452,2043.59 980.002,1977.01 980.673,1940.72 981.705,1978.56 982.234,1954.25 982.82,1954.67 983.393,1931.9 983.683,1941.86 985.083,1936.4 985.403,1931.94 985.967,1942.49 986.152,1942.54 986.972,1955.03 987.505,1956.38 988.008,1967.79 989.07,1918.08 989.779,1913.5 990.697,1915.45 991.2,1912.52 992.441,1889.34 992.974,1867.02 993.86,1919.68 994.545,1920.4 995.347,1919.19 995.766,1905.38 996.314,1921.79 996.944,1919.04 997.486,1916.27 998.585,1905.36 998.977,1886.84 999.737,1896.86 1000.74,1872.28 1001.57,1834.88 1002.22,1816.31 1002.9,1839.23 1003.15,1842.09 1003.85,1853.82 1004.7,1812.17 1005.17,1797.45 1005.95,1834.23 1007.06,1843.82 1008.35,1787.03 1009.38,1818.26 1009.54,1817.02 1010.45,1776.12 1010.82,1787.75 1011.35,1816.3 1012.16,1847.69 1013.21,1852.39 1013.98,1870.82 1014.78,1891.36 1015.57,1846.3 1016.35,1853.87 1016.94,1888.21 1017.97,1933.69 1019.34,1969.52 1020.8,1939.48 1021.42,1949.34 1022.54,1909.37 1022.94,1908.48 1023.96,1908.23 1025.1,1988.07 1025.83,1937.97 1026.5,1939.37 1027.66,1933.69 1027.97,1940.43 1028.71,1903.31 1029.42,1940.34 1030.42,1885.72 1031.2,1876.53 1032.02,1865.29 1032.64,1908.21 1033.11,1918.03 1033.92,1920.22 1034.87,1906.9 1035.9,1920.96 1036.71,1938.44 1037.34,1950.25 1037.83,1932.81 1038.85,1995.41 1039.23,1997.26 1039.71,2006.3 1040.29,2005.54 1041.15,1950.43 1041.84,1950.64 1042.5,1978.61 1043.19,2005.17 1043.97,2042.97 1044.74,2044.51 1045.71,2040.5 1046.65,1984.13 1047.34,1960.94 1047.89,1953.75 1048.63,1925.26 1049.47,1930.37 1050.26,1906.93 1051.05,1872.83 1051.78,1904.35 1052.14,1903.45 1052.82,1913.02 1053.62,1897.04 1054.5,1902.37 1055.4,1884.02 1056.47,1886.65 1057.28,1850.71 1057.59,1854.09 1058.35,1879.92 1059.28,1864.97 1060,1859.2 1060.8,1848.9 1061.15,1862.02 1061.73,1875.19 1062.95,1912.97 1063.66,1901.16 1064.18,1894.69 1064.79,1865.38 1065.5,1875.23 1066.26,1857.65 1067.01,1865.11 1067.76,1842.99 1068.37,1834.57 1068.83,1851.16 1069.58,1840.27 1070.17,1869.65 1070.83,1902.93 1071.54,1899.88 1072.08,1889.08 1073.44,1890.5 1073.98,1893.37 1074.47,1868.68 1074.99,1887.81 1075.5,1868.8 1076.37,1890.74 1077.38,1888.32 1078,1871.13 1079.37,1908.57 1080.08,1905.19 1081.09,1907.31 1082.24,1874.9 1082.96,1854.13 1083.7,1880.25 1084.49,1906.55 1085.4,1948.7 1086.17,1916.5 1086.85,1927.98 1087.61,1936.44 1088.36,1950.27 1089.44,1990.22 1090.07,2005.16 1090.58,1991.32 1091.18,1993.92 1092.04,1939.64 1092.54,1961.2 1093.33,1949.99 1093.66,1944.18 1094.45,1924.55 1095.58,1864.75 1096.52,1824.13 1097.08,1847.33 1097.92,1867.26 1098.85,1879.05 1099.28,1873.94 1099.63,1868.72 1100.35,1852.06 1101,1832.69 1101.72,1856.3 1102.57,1896.91 1103.9,1860.33 1104.49,1853.31 1104.75,1852.13 1105.23,1840.05 1106.16,1793.43 1107.03,1814.44 1108.29,1819.13 1108.87,1812.53 1109.44,1791.95 1110.09,1797.21 1110.82,1786.73 1111.69,1796.09 1111.87,1796.47 1112.81,1803.14 1113.26,1808.21 1113.76,1821.71 1114.21,1812.11 1115.29,1797.05 1116.16,1806.37 1116.58,1797.91 1117.24,1804.66 1117.72,1799.15 1118.08,1798.99 1118.91,1835.71 1119.92,1818.75 1120.88,1866.55 1121.82,1937.9 1122.56,1932.63 1123.55,1946.38 1124.61,1947.93 1125.42,1937.25 1126.17,1950.07 1126.99,1923.96 1127.96,1913.12 1128.82,1886.42 1129.82,1922.16 1130.49,1971.67 1131.38,1922.01 1131.6,1925.69 1132,1925.28 1132.41,1934.17 1133.27,1857.07 1133.58,1849.51 1134.55,1868.18 1135.55,1949.74 1137.24,1880.86 1138.15,1909.75 1138.41,1908.82 1139.16,1916.69 1140.15,1879.12 1140.72,1893.95 1141.58,1857.94 1142.06,1865.92 1142.7,1858.17 1143.58,1858.26 1144.42,1818.86 1145.16,1786.62 1146.08,1827.21 1146.99,1787.35 1147.34,1777.61 1147.6,1780.95 1148.69,1706.46 1149.17,1687.06 1149.62,1704.58 1150.11,1687.76 1150.47,1684.96 1151.32,1655.82 1152.23,1650.8 1152.53,1654.49 1153.12,1641.77 1153.86,1654.64 1154.84,1718.04 1155.91,1675.21 1156.17,1671.18 1157.01,1626.66 1157.5,1621.32 1158.05,1611.77 1158.81,1634.94 1159.68,1651.1 1160.53,1605.27 1161.31,1563.91 1161.62,1568.92 1162.6,1581.13 1163.36,1605.15 1164.42,1685.45 1165,1712.77 1166.06,1775.02 1166.81,1786.82 1167.66,1806.28 1168.63,1855.85 1169.07,1859.06 1170.3,1874.17 1170.97,1890.1 1171.99,1857.21 1172.89,1855.73 1173.86,1843.16 1174.38,1849.71 1175.54,1802.53 1176.29,1843.17 1176.92,1876.18 1177.79,1891.32 1178.27,1898.47 1178.92,1885.35 1179.8,1870.47 1180.34,1893.11 1180.8,1904.26 1181.18,1901.14 1181.99,1863.86 1182.61,1846.01 1183.11,1841.14 1183.88,1851.2 1185.48,1902.95 1186.42,1934.29 1186.82,1923.77 1187.38,1907.21 1187.91,1904.64 1189,1971.73 1189.62,1930.17 1190.16,1930.4 1191.11,1927.28 1192.05,1927.77 1192.82,1969.95 1193.47,1924.66 1194.82,1958.71 1195.87,1935.18 1196.51,1970.19 1197.33,1911.92 1198.37,1891.53 1198.84,1879.85 1199.2,1877.58 1199.82,1882.78 1200.28,1867.3 1200.7,1865.58 1201.35,1872.33 1201.98,1880.26 1202.68,1866.49 1203.12,1852.35 1204.17,1870.27 1204.99,1882.87 1205.51,1876.23 1206.02,1868.7 1207.07,1896.72 1207.9,1924.39 1208.18,1929.62 1208.47,1932.79 1208.93,1928.41 1209.85,1908.15 1210.76,1913.68 1211.33,1928.34 1211.54,1927.31 1211.96,1909.88 1212.72,1902.47 1213.11,1914.75 1214.1,1899.08 1214.83,1901.34 1215.87,1893.64 1216.45,1888.92 1217.37,1921.58 1217.82,1932.02 1218.26,1942.37 1219.2,1913.19 1219.93,1936.02 1220.69,1899.62 1221.7,1947.56 1222.65,1855.93 1223.28,1848.35 1224.16,1821.57 1225.04,1851.1 1226.01,1955.8 1226.48,1964.5 1227.72,1865.7 1228.7,1851.33 1229.67,1871.26 1230.81,1864.82 1231.18,1854.06 1232.84,1948.7 1233.45,1918.98 1234.56,1844.27 1235.07,1848.17 1235.66,1856.36 1236.47,1837.42 1237.11,1886.81 1237.44,1888.51 1238.14,1923.67 1238.35,1925.6 1238.59,1928.08 1239.16,1945.49 1239.43,1950.35 1239.82,1933.3 1240.23,1932.8 1240.9,1941.41 1241.69,1935.45 1242.21,1945.77 1243.3,1907.64 1243.84,1906.91 1244.92,1920.81 1245.91,1947.66 1246.61,1920.35 1247.36,1880.97 1248.03,1836.41 1248.79,1864.79 1249.7,1909.62 1250.34,1917.85 1251.26,1964.93 1252.21,1918.57 1253.11,1871.27 1253.35,1877.7 1253.58,1875.96 1253.75,1872.57 1254.49,1848.71 1255.04,1850.09 1255.79,1833.4 1256.53,1819.35 1257.61,1895.95 1258.2,1887 1258.77,1865.4 1259.22,1867.99 1259.51,1873.25 1260.15,1824.5 1260.75,1807.97 1261.2,1821.85 1262.16,1808.62 1263.12,1760.35 1264.06,1752.42 1265.38,1689.88 1266.22,1737.86 1266.93,1733.53 1267.14,1730.95 1267.67,1734.23 1268.46,1754.32 1269.09,1772.39 1269.58,1782.92 1270.58,1814.73 1270.7,1814.15 1271.65,1778.59 1272.12,1769.33 1272.86,1794.57 1274.09,1804.94 1274.77,1785.54 1275.72,1799.4 1276.11,1803.31 1276.93,1817.68 1277.61,1773.53 1278.91,1789.94 1279.42,1784.34 1280.33,1791.41 1281.42,1705.56 1282.5,1751.93 1282.93,1749.22 1283.44,1761.92 1283.88,1775.41 1284.58,1728.79 1285.31,1768.12 1286.03,1789.22 1286.6,1788.16 1287.12,1804.55 1288.12,1800.51 1288.82,1774.69 1289.31,1755.01 1290.26,1774.3 1291.12,1811.69 1291.43,1811.01 1291.97,1819.89 1292.81,1842.45 1293.8,1879.11 1295.3,1970.19 1295.56,1965.09 1296.37,1971.25 1296.86,1951.19 1297.64,1949.88 1298.69,1891.08 1299.19,1910.45 1299.92,1928.45 1300.51,1910.52 1300.77,1908.87 1301.57,1896.17 1301.91,1908.25 1303.06,1863.25 1303.78,1884.02 1304.61,1856.36 1305.54,1803.31 1306.19,1800.22 1307.15,1799.34 1308,1779.27 1308.52,1766.34 1309.32,1795.67 1309.87,1814.52 1310.65,1839.17 1311.58,1836.99 1312.56,1820.33 1313.8,1899.35 1314.24,1909.55 1314.83,1893 1315.79,1885.14 1316.76,1842.74 1317.7,1857.29 1318.68,1812.91 1319.38,1834.7 1320.34,1890.1 1321.49,1852.08 1322.17,1833.71 1323.31,1877.44 1324.08,1880.25 1324.53,1879.91 1325.11,1882.46 1325.57,1863.66 1326.36,1852.56 1326.84,1850.65 1327.61,1841.24 1328.19,1832 1328.7,1821.53 1329.02,1820.92 1329.89,1796.18 1330.86,1802.31 1331.65,1778.88 1332.32,1800.96 1333.11,1763.44 1334.09,1690.2 1334.92,1626.51 1335.46,1630.36 1336.29,1698.37 1337.26,1680.38 1337.59,1684.71 1338.05,1663.79 1338.91,1658.24 1339.54,1652.02 1340.5,1666 1341.75,1633.9 1342.77,1679.27 1343.49,1703.49 1344.29,1684.99 1344.89,1676.46 1345.68,1659.83 1346.62,1661.86 1347.33,1669.3 1347.8,1675.52 1348.48,1657.95 1349.29,1610.27 1349.68,1602.64 1350.48,1579.36 1350.9,1569.18 1352.1,1574.41 1353.02,1566.4 1353.58,1575.25 1354.68,1648.74 1355.13,1650.55 1355.99,1594.23 1356.84,1624.85 1357.33,1612.89 1358.1,1600.19 1358.66,1599.01 1359.28,1616.38 1359.85,1616.54 1360.85,1615.54 1361.31,1612.23 1361.83,1619.57 1362.44,1632.79 1363.56,1591.21 1364.01,1602.45 1365.32,1633.97 1365.97,1616.05 1366.69,1605.77 1367.08,1595.23 1367.84,1540.83 1368.28,1552.41 1369.1,1546.49 1369.93,1524.7 1370.53,1508.18 1371.51,1495.7 1372.37,1497.89 1372.99,1514.15 1374.06,1535.09 1374.81,1498.37 1375.79,1564.19 1376.4,1569.56 1377.02,1543.18 1377.62,1540.73 1378.34,1498.26 1379.36,1507.75 1380.48,1424.48 1381.16,1405.03 1381.55,1402.86 1382.03,1389.49 1382.59,1415.41 1383.66,1364.09 1384.28,1405.9 1384.83,1423.05 1385.24,1434.01 1385.43,1433.41 1386.19,1406.91 1386.74,1394.38 1387.75,1307.61 1388.43,1321.86 1388.75,1320.91 1389.3,1331.84 1390.78,1337.23 1391.59,1333.7 1392.75,1330.87 1393.48,1330.34 1393.89,1336.48 1394.64,1348.64 1395.56,1336.63 1395.94,1340.24 1396.66,1293.11 1397.3,1290.8 1398.39,1179.12 1399.27,1173.81 1399.88,1157.76 1400.41,1133.22 1400.75,1131.83 1401.5,1107.4 1402.8,1151.68 1403.64,1171.9 1404.42,1171.85 1404.81,1166.88 1405.68,1152.9 1406.11,1155.45 1406.62,1161.28 1407.37,1194.81 1407.63,1193.98 1408.49,1238.06 1408.85,1229.65 1409.53,1218.16 1409.93,1223.09 1410.82,1277.63 1411.32,1258.51 1412.33,1166.81 1413.13,1205.94 1414.28,1203.08 1414.95,1184.83 1415.11,1182.45 1415.57,1178.55 1416.93,1176.35 1417.66,1148.01 1417.85,1146.36 1418.46,1187.3 1419.21,1190.37 1419.7,1180.51 1420.38,1194.58 1421.03,1188.68 1421.51,1194.46 1422.05,1203.75 1423.09,1152.09 1424.49,1103.24 1425.56,1081.5 1425.89,1074.37 1426.62,1048.19 1427.36,1015.22 1428.65,1080.05 1429.46,1069.12 1430.38,1034.86 1431.62,1004.58 1431.97,1017.24 1432.55,993.543 1433.23,990.312 1433.77,1001.93 1434.39,978.605 1434.88,962.523 1435.78,941.154 1436.57,909.528 1437.14,926.845 1438.51,943.524 1439.29,956.153 1440.05,957.55 1440.85,947.699 1441.51,924.839 1441.87,910.995 1442.61,904.022 1443.26,881.808 1443.93,910.598 1444.47,889.371 1445.27,901.761 1445.81,896.134 1446.79,831.222 1447.49,836.445 1448.25,818.164 1448.61,827.195 1449.09,826.47 1449.72,847.082 1450.32,856.939 1450.96,884.669 1451.89,898.1 1452.86,880.098 1453.88,880.99 1454.87,892.589 1455.6,936.444 1456.19,943.26 1456.55,940.761 1457.25,974.033 1457.97,945.555 1458.91,882.228 1459.98,837.905 1461.12,839.638 1461.34,834.798 1462.08,837.639 1463.21,891.392 1464.28,878.425 1465.12,883.985 1465.71,887.653 1466.13,881.953 1466.61,890.17 1467.16,880.84 1468.2,896.694 1468.62,894.075 1470.03,850.734 1470.54,832.78 1471.12,814.911 1471.75,784.762 1472.69,805.294 1473.42,835.052 1474.03,845.147 1474.53,865.297 1474.98,863.122 1475.74,859.267 1476.46,882.356 1477.21,907.554 1478.6,847.919 1479.29,799.217 1479.92,799.755 1480.68,805.682 1481.02,806.249 1481.74,833.604 1482.53,849.215 1482.99,867.186 1484.14,940.414 1484.56,933.938 1485.27,957.572 1485.86,944.236 1487.08,917.555 1488.06,936.378 1488.97,951.437 1490.02,901.947 1490.74,919.429 1491.54,871.029 1492.93,934.327 1493.38,951.982 1493.91,946.064 1494.57,968.198 1495.4,987.923 1496.19,1019.76 1497.1,1000.86 1497.47,1001.98 1498.14,991.459 1498.91,996.346 1499.69,1052.76 1500.36,1079.35 1500.93,1076.86 1501.4,1070.09 1502.22,1077.38 1502.66,1094.42 1503.65,1175.88 1504.87,1122.76 1505.56,1120.69 1506.42,1065.6 1506.61,1061.05 1507.39,1030.04 1507.93,1014.11 1508.11,1012.01 1509.15,1080.13 1509.77,1081.74 1510.44,1099.89 1510.84,1093.85 1511.52,1093.9 1511.94,1102.78 1512.59,1113.14 1513.89,1127.84 1514.48,1129.15 1515.03,1142.58 1515.87,1097.6 1517.04,981.089 1517.35,984.424 1518.02,987.867 1518.62,971.026 1519.17,956.509 1519.48,963.298 1520.16,964.696 1520.54,963.338 1520.98,953.243 1521.74,960.929 1522.62,929.638 1523.51,949.321 1524.37,949.704 1525.12,952.576 1525.65,930.251 1526.54,937.693 1527.51,973.684 1528.24,981.23 1529,953.504 1529.79,981.891 1530.65,977.465 1531.32,954.311 1531.93,938.154 1532.54,955.714 1532.84,954.609 1534.03,893.198 1534.29,890.133 1534.7,896.765 1535.42,911.298 1535.82,898.87 1536.11,898.29 1536.42,898.922 1536.96,878.095 1537.51,876.831 1538.34,836.637 1538.83,832.95 1539.36,841.731 1539.8,834.68 1540.67,834.52 1541.2,835.42 1541.7,841.461 1542.54,815.578 1542.98,810.392 1544.05,804.898 1544.93,798.642 1545.31,797.736 1545.89,807.576 1546.33,820.944 1546.47,819.439 1546.98,804.588 1547.76,752.973 1548.51,759.932 1549.67,770.856 1550.18,765.407 1551.08,788.261 1551.49,779.703 1552.03,784.22 1552.37,794.652 1553.11,778.127 1553.55,790.072 1554.19,764.383 1554.89,753.08 1555.44,735.85 1555.87,747.155 1556.29,746.571 1557.17,750.997 1557.78,721.269 1558.53,688.636 1559.27,638.977 1560.24,667.729 1560.76,671.048 1561.65,682.369 1562.05,676.724 1562.48,660.055 1563.05,653.773 1563.6,661.246 1564.17,684.748 1564.95,680.948 1565.89,627.099 1567.06,583.289 1567.96,671.648 1568.44,675.257 1568.92,648.968 1569.3,642.13 1570.09,680.809 1570.89,667.136 1571.52,647.378 1572.13,643.136 1573.36,583.194 1574.42,671.207 1575.19,716.728 1576.01,707.004 1576.62,682.505 1577.82,633.745 1578.39,633.22 1579.57,576.445 1580.15,574.173 1580.71,571.173 1581.31,565.588 1582.22,607.685 1583.09,608.887 1584.03,584.839 1584.44,599.087 1585.08,607.367 1585.51,619.805 1586.7,634.602 1587.47,639.271 1588.43,631.791 1588.92,624.508 1589.41,601.481 1590.31,581.162 1590.91,588.337 1591.88,588.434 1592.18,585.62 1592.57,572.248 1593.96,626.976 1594.59,656.196 1595.11,646.006 1596.09,611.773 1596.36,615.525 1597.34,627.945 1598.1,606.314 1599.12,618.102 1600.04,651.004 1600.78,622.689 1601.48,649.302 1602.29,659.292 1602.9,646.252 1603.67,618.686 1604.34,601.053 1605.62,645.111 1606.5,670.515 1606.68,671.68 1607.5,695.478 1608.2,687.035 1608.76,702.63 1609.87,638.133 1610.57,655.428 1611.37,616.496 1611.8,627.895 1612.67,575.142 1613.84,596.008 1614.42,597.851 1615.14,649.81 1615.52,642.717 1616.4,698.647 1617.19,681.229 1618.01,694.847 1618.93,707.893 1619.85,710.733 1620.89,715.356 1621.95,828.604 1622.6,823.574 1623.63,835.154 1624.62,825.509 1625.06,808.997 1625.74,768.745 1627.06,808.526 1627.81,804.239 1628.37,808.99 1628.96,790.875 1630.17,830.788 1630.49,825.983 1631.14,825.093 1631.78,831.332 1632.55,859.062 1632.98,842.149 1633.71,843.63 1634.56,891.318 1635.52,929.093 1636.33,942.641 1636.66,941.027 1637.47,939.338 1638.29,902.071 1638.93,921.028 1640.06,852.821 1640.5,830.409 1641.14,843.512 1641.54,843.832 1642.05,853.345 1642.36,853.799 1642.87,856.215 1643.68,820.183 1644.2,833.381 1644.79,822.648 1645.52,818.717 1645.83,815.842 1646.76,822.699 1647.42,832.866 1648.17,797.055 1649.18,830.015 1649.32,827.997 1649.79,836.398 1650.34,822.451 1651.12,828.547 1652.08,873.531 1652.72,917.318 1653.27,903.898 1654.3,852.456 1655.35,821.324 1656.22,818.091 1656.58,817.216 1657.25,818.896 1658.16,747.581 1658.53,746.938 1659.14,720.115 1660.02,646.688 1660.89,647.903 1661.45,674.556 1662.11,672.174 1662.61,679.188 1663.09,663.905 1663.5,674.116 1664.35,706.774 1665.11,722.004 1665.67,697.198 1666.3,671.77 1667.27,723.625 1667.45,724.749 1668.09,739.746 1669.03,771.414 1670.18,704.392 1670.82,723.601 1671.49,717.752 1672,720.693 1672.39,722.998 1673.62,763.961 1674.37,771.658 1674.71,763.897 1675.49,805.29 1676.44,809.162 1677.27,830.821 1677.78,844.834 1678.7,860.573 1679.05,870.711 1679.67,892.151 1680.05,896.842 1680.81,932.45 1681.49,910.619 1682.53,880.516 1683.12,895.793 1684.31,924.612 1685.24,937.598 1685.96,955.055 1686.41,974.291 1686.81,989.582 1687.57,969.729 1687.98,962.9 1688.26,961.617 1689.5,840.914 1690.36,894.014 1691,891.873 1691.63,880.52 1692.28,864.621 1693,845.052 1693.42,844.471 1694.08,834.053 1695.16,748.677 1695.82,729.876 1697.06,684.161 1697.82,665.516 1698.42,667.827 1699.7,680.957 1700.91,652.003 1701.32,655.925 1701.99,636.038 1702.55,629.689 1703.09,637.434 1703.65,621.289 1704.28,625.192 1705,605.221 1705.61,640.315 1706.26,635.725 1707.34,646.629 1708.07,642.795 1708.97,693.634 1709.6,659.831 1710.37,662.48 1710.92,679.529 1711.84,690.451 1713.08,541.013 1713.54,550.341 1713.81,552.468 1714.41,524.974 1714.9,529.201 1715.69,510.629 1716.16,534.918 1716.71,533.267 1717.64,539.97 1718.2,543.271 1719.08,508.808 1719.57,506.01 1720.09,485.904 1720.94,574.09 1721.73,592.369 1722.48,624.731 1723.11,584.142 1724.24,560.11 1725.25,535.267 1725.98,550.061 1726.38,545.952 1727.17,595.252 1727.46,595.282 1727.83,591.217 1728.7,593.354 1729,591.142 1729.46,586.877 1730.21,635.387 1730.76,627.046 1731.65,657.244 1732.84,667.283 1733.29,681.034 1733.7,672.261 1734.3,697.116 1735.01,692.491 1735.23,688.337 1736.15,693.296 1736.8,700.959 1737.86,690.602 1738.74,716.692 1739.4,716.438 1739.9,718.499 1740.69,745.283 1741.41,755.022 1742.26,715.932 1742.95,701.935 1744.09,673.315 1745.25,667.807 1745.84,676.592 1746.28,657.989 1747.01,688.613 1748.21,701.566 1748.51,706.639 1749.24,701.189 1749.56,703.992 1750.47,660.368 1751.09,638.549 1752.14,632.66 1753.01,591.825 1753.75,587.007 1754.29,581.054 1754.95,591.949 1756.02,607.428 1757.25,640.876 1757.86,667.659 1758.46,643.503 1758.69,640.103 1759.58,651.69 1760.53,622.164 1761.19,629.911 1762.08,685.429 1763.34,705.928 1764.12,694.182 1765.23,748.252 1765.82,767.162 1766.45,761.626 1766.98,750.299 1767.72,779.892 1768.4,790.098 1768.9,787.372 1769.63,744.355 1770.25,723.917 1771.16,653.423 1772.03,648.047 1772.44,642.275 1773.33,669.053 1774.18,669.606 1775.01,661.215 1775.72,625.623 1776.06,628.541 1776.6,609.747 1777.16,610.66 1778.01,690.868 1778.53,693.463 1779.06,670.652 1779.76,693.957 1780.26,671.686 1781.19,735.843 1782.19,667.198 1782.56,669.211 1782.67,669.072 1783.11,678.185 1783.64,662.445 1784.2,670.69 1785.07,686.011 1785.58,693.496 1786.33,694.402 1786.95,682.629 1788,762.035 1789.19,738.538 1789.56,733.862 1790.7,695.744 1791.55,639.198 1792.3,683.16 1792.88,680.664 1793.87,735.772 1793.93,735.499 1794.42,755.668 1795.25,774.888 1795.57,782.601 1796.49,739.83 1797.06,756.155 1797.36,761.93 1798.13,747.385 1798.64,742.785 1799.22,719.76 1799.59,724.462 1800.37,696.581 1800.77,709.141 1801.35,719.813 1801.88,701.433 1802.84,660.857 1803.02,664.051 1803.51,640.938 1803.95,637.507 1804.92,572.297 1805.86,496.502 1806.59,467.147 1807.12,442.939 1808.3,475.464 1809.06,453.468 1810.43,400.847 1810.8,403.216 1811.04,398.036 1811.66,414.539 1812.06,424.35 1813.03,501.147 1813.78,507.557 1814.56,498.392 1815.28,514.966 1815.91,497.182 1816.84,448.548 1817.29,448.198 1817.89,433.91 1818.31,429.579 1818.91,442.819 1819.84,467.01 1820.67,461.26 1821.36,451.649 1822.13,459.92 1822.51,461.618 1822.88,469.028 1823.26,460.52 1823.78,472.694 1824.49,481.595 1825.21,510.455 1826.47,586.974 1827.08,593.574 1828.18,593.082 1828.94,589.665 1829.51,576.571 1830.45,509.694 1831.17,554.246 1831.58,545.967 1832.27,524.95 1832.81,511.108 1833.46,512.718 1834.3,521.564 1834.75,513.77 1835.1,517.839 1836.01,571.843 1836.7,585.314 1837.31,578.975 1837.8,581.63 1838.65,597.029 1839.26,612.686 1839.89,622.144 1841.02,549.909 1841.83,510.698 1842.33,508.532 1842.94,497.59 1843.93,494.482 1844.61,450.865 1845.65,388.882 1845.87,392.908 1846.27,398.857 1846.91,404.372 1847.77,427.555 1848.22,419.841 1848.73,432.548 1849.32,460.617 1849.99,481.892 1850.5,488.812 1851.18,503.488 1851.77,500.699 1852.14,498.324 1853.44,434.079 1854.25,403.911 1855.26,338.702 1856.04,355 1856.25,352.963 1856.93,342.258 1857.56,360.239 1858.14,344.6 1858.95,353.993 1859.74,343.904 1860.1,351.319 1860.8,375.526 1861.39,378.582 1862.18,403.205 1862.85,392.424 1863.76,405.708 1864.42,365.05 1865.03,355.964 1865.76,318.456 1866.25,313.392 1866.91,288.221 1867.48,295.364 1867.82,297.134 1868.38,305.561 1869.73,388.419 1870.49,403.973 1870.96,421.128 1872.01,409.423 1872.87,402.848 1873.47,393.992 1873.82,397.961 1874.49,411.477 1875.15,459.629 1876.27,458.04 1876.61,461.232 1877.35,490.451 1878.07,449.046 1879.15,472.201 1880.09,482.378 1880.71,476.182 1881.15,462.887 1881.66,486.916 1882.81,405.125 1883.58,388.17 1884.02,368.607 1884.82,389.585 1885.6,397.608 1886.23,416.641 1887.2,368.777 1888.33,373.592 1888.97,371.009 1889.37,387.41 1889.93,397.471 1890.48,390.171 1891.37,390.754 1892.35,328.347 1892.76,347.61 1893.98,287.137 1894.79,259.048 1895.01,257.8 1895.85,278.584 1896.54,284.862 1896.82,281.204 1897.56,323.217 1898.26,382.31 1899.45,381.334 1900.2,368.312 1900.99,347.183 1901.66,345.108 1902.39,336.91 1902.83,345.387 1903.52,312.954 1904.41,289.815 1905.56,290.559 1906.44,324.213 1907.47,316.733 1908.6,312.806 1909.43,327.108 1910.3,317.798 1911.34,418.298 1911.85,417.362 1912.64,411.397 1913.01,424.662 1913.58,425.389 1914.17,401.068 1914.86,411.891 1915.75,462.444 1916.24,477.928 1916.89,467.699 1917.13,465.283 1917.95,448.375 1918.27,453.316 1919.2,382.445 1920.35,440.993 1920.73,451.326 1921.18,456.652 1921.46,461.989 1922.4,496.514 1923.04,503.967 1923.7,490.829 1924.63,548.69 1925.43,475.434 1925.99,466.685 1927.11,503.617 1927.44,504.894 1928.42,518.107 1929.47,592.931 1930.47,603.917 1931.29,585.686 1931.58,582.074 1932.14,576.067 1932.81,610.719 1933.64,646.01 1934.19,666.694 1935.36,694.163 1936.05,676.176 1936.52,684.06 1937.34,663.994 1938.02,681.998 1938.96,652.98 1939.39,634.631 1940.42,594.874 1940.92,623.007 1941.37,633.584 1942.15,608.771 1942.77,584.707 1943.2,565.628 1944.4,666.124 1945.01,676.332 1945.41,682.908 1945.99,676.652 1946.74,709.446 1947.37,697.509 1947.74,712.887 1948.53,745.603 1949.27,767.769 1949.96,805.767 1951.08,835.305 1951.81,810.418 1952.8,819.67 1953.27,809.448 1953.99,793.082 1954.32,795.969 1954.91,806.859 1955.55,820.436 1956.38,849.568 1956.92,857.059 1957.58,853.528 1958.35,889.462 1959.02,895.904 1959.64,876.533 1960.6,835.447 1961.94,784.966 1962.67,812.779 1963.38,822.47 1964.07,845.578 1964.32,844.499 1964.92,857.959 1965.55,822.971 1966.18,825.454 1966.91,857.014 1967.68,842.631 1968.93,764.114 1969.42,785.143 1970.01,803.512 1970.84,812.106 1971.54,841.865 1972.58,835.213 1973.49,849.404 1973.81,850.931 1974.92,809.858 1975.64,798.448 1976.29,778.998 1976.74,798.451 1977.3,791.635 1977.68,781.35 1978.29,804.486 1978.91,827.425 1979.17,827.245 1979.49,825.86 1980.62,831.367 1981.58,826.766 1982.28,858.428 1982.68,864.72 1983.17,871.114 1983.73,888.788 1984.54,914.687 1985.72,850.036 1986.73,852.754 1987.56,855.635 1988.1,881.844 1988.75,899.729 1989.5,926.442 1990.3,890.537 1990.67,880.431 1991.48,896.441 1992.12,867.091 1992.67,861.872 1993.79,867.895 1994.55,874.516 1995.69,832.947 1996.5,867.131 1996.86,871.945 1997.57,887.186 1998.18,905.404 1998.78,905.49 1999.86,916.364 2000.39,907.483 2001.3,974.094 2001.87,972.945 2002.49,963.634 2004.21,1062.73 2004.96,1023.5 2005.33,1033.58 2005.85,1057.03 2006.67,1060.49 2007.35,1065.76 2007.89,1063.33 2008.66,1073.51 2009.27,1076.82 2009.68,1087.58 2010.57,1159.1 2010.95,1150.39 2012.25,1110.25 2012.72,1117.31 2013.6,1117.76 2014.29,1144.81 2014.9,1155.97 2015.61,1155.11 2016.59,1165.02 2016.99,1169.71 2017.47,1158.4 2018.26,1161.11 2019.09,1228.28 2019.83,1190.84 2020.24,1185.28 2020.7,1194.41 2021.16,1201.69 2022.04,1151 2022.39,1139.7 2022.81,1148.48 2023.35,1176.96 2023.97,1194.83 2025.04,1263.25 2025.72,1251.35 2026.55,1262.27 2027.36,1278.75 2028.07,1323.31 2029.42,1341.42 2030.25,1367.15 2030.89,1411.08 2031.91,1428.94 2032.35,1415.48 2032.74,1409.2 2033.5,1369.03 2034.81,1321.58 2035.43,1325.08 2036.01,1319.77 2036.44,1298.53 2037.44,1275.24 2038.4,1187.76 2038.93,1163.09 2039.51,1155.6 2040.76,1251.57 2041.6,1268.55 2042.02,1264.02 2042.95,1310.18 2044.14,1192.43 2044.79,1201.22 2045.02,1204.68 2046.32,1214.3 2047.16,1236.08 2048.24,1248.97 2049.25,1289.17 2050.27,1320.47 2051.24,1324.98 2051.61,1318.29 2052.62,1316.55 2053.2,1303.25 2054.19,1334.98 2054.71,1333.09 2055.22,1318.82 2055.46,1322.06 2056.27,1320.73 2056.82,1321.63 2057.56,1332.12 2058.33,1380.09 2059.2,1393.6 2059.75,1388.54 2060.6,1348.07 2061.42,1316.16 2062.58,1382.54 2063.64,1450.09 2064.55,1386.34 2065.18,1357.11 2066.16,1445 2066.45,1444.68 2067.56,1435.77 2068.07,1446.44 2069.01,1452.61 2069.56,1457.95 2070.13,1433.25 2070.86,1383.75 2071.61,1419.84 2072.14,1429.74 2073.11,1470.41 2073.74,1480.94 2074.42,1468.28 2074.98,1475.67 2076,1452.3 2076.68,1421.96 2077.29,1431.73 2077.98,1428.33 2078.52,1435.09 2079.11,1416.04 2080,1444.9 2080.89,1401.54 2082.06,1424.44 2082.78,1438.54 2083.34,1439.85 2083.8,1439.72 2084.56,1469.1 2085.4,1473.18 2085.67,1471.9 2086.11,1472.63 2086.93,1460.87 2087.75,1460.01 2088.82,1422.2 2089.62,1403.39 2090.19,1403.24 2090.86,1460.28 2091.93,1487.04 2092.23,1490.33 2093.17,1506.84 2093.65,1508.56 2094.39,1455.5 2095.08,1471.14 2095.62,1438.48 2096.25,1436.9 2097.12,1393.23 2097.53,1394.55 2098.24,1380.74 2098.79,1414.24 2099.8,1462.17 2100.59,1423.06 2101.55,1382.44 2102.06,1394.93 2102.84,1389.99 2103.89,1454.68 2104.22,1446.52 2104.91,1463.54 2105.16,1458.59 2105.87,1456.43 2106.51,1451.67 2107.27,1448.36 2107.91,1464.28 2108.86,1472.93 2109.68,1470.3 2110.63,1467.38 2111.51,1498.77 2112.56,1527.11 2113.35,1499.84 2114.14,1449.7 2114.92,1459.67 2115.22,1452.33 2116.03,1462.73 2116.73,1457.12 2116.97,1458.6 2117.39,1468.38 2118,1461.53 2118.82,1435.17 2119.45,1452.39 2119.97,1444.93 2120.17,1445.36 2120.94,1420.26 2121.4,1404.26 2121.57,1400.65 2122.42,1434.02 2122.95,1432.28 2123.64,1473.49 2124.05,1479.12 2124.58,1472.29 2125.41,1522.23 2126.04,1537.15 2126.47,1534.98 2126.94,1543.99 2127.7,1592.09 2128.13,1595.47 2128.57,1573.38 2129.42,1583.72 2129.86,1586.36 2131.57,1594.14 2132.35,1587.65 2133.17,1560.68 2133.73,1591.36 2134.38,1606.21 2135.01,1603.78 2136.22,1609.75 2136.96,1575.73 2137.67,1575.18 2138.65,1570.57 2139.65,1603.9 2140.16,1596.47 2140.96,1598.93 2141.75,1607.16 2142.19,1603.32 2142.95,1587.78 2143.38,1586.25 2143.69,1595.29 2144.14,1611.93 2144.82,1614.86 2145.76,1634.58 2146.79,1626.83 2147.68,1626.48 2148.18,1640.64 2148.9,1658.6 2149.74,1661.03 2150.53,1677.15 2151.51,1667.01 2152.31,1665.35 2153.12,1662.74 2153.94,1650.11 2154.8,1676.2 2155.25,1669.97 2155.77,1688.89 2156.48,1716.2 2157.25,1694.77 2158.24,1643.01 2159.18,1628.76 2160.34,1694.26 2161.42,1668.12 2161.88,1648.08 2162.54,1629.72 2163.02,1640.73 2163.48,1643.86 2164.04,1619.63 2164.74,1586.53 2165.24,1587.26 2166.25,1643.43 2166.78,1628.01 2167.86,1632.51 2168.26,1641.72 2169.4,1674.54 2169.79,1664.99 2170.98,1681.09 2172.1,1697.01 2172.98,1665.52 2174.57,1681.43 2175.18,1688.85 2176,1675.01 2176.61,1661.55 2177.15,1695.04 2177.62,1705.81 2178,1698.06 2178.32,1695.38 2178.56,1698.13 2179.45,1718.76 2180.59,1697.98 2181.28,1700.49 2181.91,1741.79 2182.47,1730.15 2182.91,1726.99 2183.34,1718.2 2184.13,1695.43 2184.91,1656.56 2185.82,1648.02 2186.67,1591.42 2187.54,1606.89 2188.07,1595.81 2189.16,1565.01 2189.33,1566.03 2189.69,1569.63 2190.38,1550.66 2191.01,1533.21 2191.98,1550.04 2192.64,1512.6 2193.57,1533.02 2194.29,1547.99 2194.81,1559.18 2195.26,1557.35 2195.98,1538.45 2196.81,1539.63 2197.47,1541.34 2198.81,1545.13 2199.19,1537.25 2199.7,1549.94 2199.96,1549.07 2200.75,1550.89 2201.04,1553.99 2201.53,1574.32 2201.85,1582.96 2203.16,1564.89 2203.78,1568.41 2204.08,1572.37 2205.02,1584.25 2205.72,1549.64 2206.68,1517.91 2207.52,1480.72 2207.92,1477.15 2208.36,1469.47 2209.13,1455.12 2209.77,1433.09 2210.34,1430.57 2211.19,1419.15 2211.9,1395.59 2212.68,1410.25 2213.3,1374.06 2213.91,1359.77 2214.76,1379.22 2215.52,1339.7 2216.38,1321.07 2217.01,1326.5 2217.66,1304.62 2218.6,1287.39 2219.1,1269.66 2219.69,1289.08 2220.86,1315.51 2221.86,1285.93 2222.61,1304.59 2223.26,1292.72 2223.81,1280.8 2224.4,1279.6 2224.99,1267.06 2226.26,1243.31 2226.64,1229.77 2227.34,1243.3 2228.12,1249.44 2228.58,1260.87 2229.48,1251.27 2229.87,1256.38 2230.75,1199.24 2231.17,1195.9 2232.39,1141.76 2233.49,1121.11 2233.88,1124.96 2234.26,1117.24 2235.2,1130.2 2236.23,1212.01 2236.99,1248.8 2237.54,1237.27 2238.08,1236.57 2238.53,1232.72 2239.04,1223.25 2240.13,1217.39 2240.88,1233.28 2241.91,1192.26 2242.8,1259.57 2243.11,1258.72 2243.96,1272.31 2244.66,1242.78 2245.31,1286.43 2246.28,1219.32 2248.24,1022.94 2248.7,1021.18 2249.26,1042.58 2249.75,1032.47 2250.95,1140.99 2252.02,1134.81 2252.91,1122.73 2253.29,1125 2253.71,1112.05 2254.36,1110.7 2255.27,1040.29 2256.2,1080.97 2256.87,1102.59 2258.09,1127.77 2259,1149.58 2260.14,1149.69 2260.87,1152.8 2261.58,1143.06 2262.71,1209.59 2263.59,1241.18 2264.06,1230.31 2264.57,1223.41 2265.34,1189.92 2265.94,1195.33 2266.35,1208.13 2267.13,1153.05 2267.96,1149.19 2268.87,1159.55 2269.58,1154.26 2270.17,1139.45 2271.01,1133.04 2271.31,1137.31 2272.21,1130.08 2272.87,1109.67 2273.13,1113.43 2273.59,1104.72 2274.03,1094.61 2275.23,1133.03 2275.48,1137.37 2277.12,1080.48 2277.89,1101.7 2278.94,1030.64 2280.14,1073.88 2280.85,1090.99 2282.11,1130.01 2282.44,1119.77 2282.82,1109.73 2283.77,1038.21 2283.88,1037.89 2284.61,1042.85 2285.51,1028.97 2286.9,1065.41 2287.42,1063.43 2288.29,1006.91 2288.89,975.614 2289.6,1026.37 2290.05,1008.13 2290.49,1017.58 2290.96,1028.65 2291.61,1006.91 2291.95,998.927 2292.47,1012.96 2293.44,1065.55 2294.26,1084.13 2295.14,1008.01 2295.61,1006.96 2296.17,1041.42 2296.96,1077.91 2297.68,1077.47 2298.27,1097.8 2299.03,1051.74 2299.65,1062.38 2299.97,1063.76 2300.86,1096.33 2301.28,1098.54 2301.84,1092.17 2302.66,1060.91 2303.4,1070.98 2303.66,1073.35 2304.02,1072.51 2304.69,1060.72 2305.46,1026.85 2305.94,1027.38 2306.89,1006.73 2307.42,1008.32 2308.56,950.85 2309.08,956.51 2309.87,948.106 2310.69,933.155 2311.33,957.359 2311.84,957.477 2312.74,952.206 2313.23,958.948 2314.13,954.432 2314.77,958.858 2315.82,987.051 2316.3,979.554 2317.36,960.18 2317.94,951.83 2318.78,945.036 2319.68,876.08 2319.95,877.285 2320.26,876.246 2320.97,841.707 2322.05,839.371 2323.1,872.15 2323.66,877.566 2324.43,913.627 2325.29,901.403 2325.88,923.985 2326.59,923.791 2327.47,899.001 2327.81,889.283 2328.6,931.689 2329.08,910.295 2329.59,900.721 2330.24,901.533 2330.88,914.293 2331.3,911.045 2331.67,913.374 2332.82,910.33 2332.94,911.74 2333.8,911.344 2334.27,936.964 2335.22,948.873 2336.08,986.425 2336.73,962.375 2337.55,1026.12 2338.16,990.281 2338.88,996.674 2339.45,1010.84 2340.5,957.131 2341.28,958.677 2342.08,922.463 2342.83,921.718 2343.37,909.882 2344.07,882.997 2345.04,826.732 2345.67,851.474 2346.68,920.716 2347.32,899.442 2347.57,897.278 2347.92,907.649 2348.99,936.874 2349.8,961.877 2350.37,963.447 2350.71,960.313 2351,962.45 2351.88,969.077 2352.46,936.746 2353.58,912.501 2354.31,932.389 2354.67,928.069 2355.34,877.749 2356.37,868.139 2356.74,855.652 2357.47,854.431 2357.97,872.598 2358.84,878.886 2359.39,890.143 2360.25,818.098 2360.88,805.397 2361.77,807.513 2362.43,769.423 2363.09,768.114 2363.85,751.666 2364.08,753.846 2364.79,809.247 2365.63,836.592 2366.17,843.033 2366.82,830.066 2367.69,853.248 2368.79,920.709 2369.76,866.022 2370.33,834.901 2371.04,795.125 2371.31,795.36 2372.21,823.53 2372.76,853.115 2373.23,860.078 2373.78,870.807 2374.53,880.889 2374.99,894.151 2375.98,848.685 2376.61,881.212 2377.16,885.661 2378.33,827.404 2379.45,779.663 2379.91,777.25 2380.87,839.918 2381.56,876.692 2381.9,875.725 2382.63,859.068 2383.22,851.328 2384.2,790.868 2384.73,799.39 2385.39,840.576 2385.78,849.638 2386.52,899.598 2387.37,899.937 2388.09,868.252 2388.99,884.829 2389.73,885.345 2390.44,896.596 2391.74,808.689 2392.3,804.262 2392.93,806.094 2393.69,806.707 2394.28,791.084 2394.54,793.191 2395.17,816.012 2395.92,812.629 2396.18,816.138 2396.95,809.697 2397.82,819.005 2398.36,831.763 2399.05,836.794 2399.32,838.455 2399.82,837.729 2400.19,850.902 2400.62,868.829 2401.92,838.175 2402.71,833.289 2403.84,884.974 2404.06,882.8 2404.72,895.095 2405.3,855.803 2405.85,873.636 2406.25,868.004 2406.99,898.398 2407.44,903.491 2408.15,922.053 2409.2,909.621 2409.54,900.792 2410.33,919.897 2411.34,838.784 2412.16,888.523 2412.84,878.776 2413.66,919.469 2414.46,931.834 2414.97,943.327 2415.55,942.475 2415.92,940.204 2416.95,857.325 2417.42,840.063 2418.18,816.85 2418.58,807.079 2419.55,819.48 2420.43,791.807 2421.4,821.021 2422.06,793.616 2422.71,829.197 2423.6,845.092 2424,837.524 2425.13,802.779 2425.51,791.37 2426.02,800.082 2426.37,801.248 2426.95,795.852 2427.8,768.686 2428.65,747.256 2429,755.957 2429.51,762.434 2430.13,773.122 2431.11,697.766 2431.67,714.072 2432.4,717.018 2432.76,719.801 2434.01,632.852 2435.06,641.844 2435.86,699.933 2436.6,673.917 2437.1,698.612 2437.66,692.398 2437.93,692.396 2438.32,692.398 2438.82,694.733 2439.55,710.997 2440.71,706.701 2441.73,734.069 2442.15,727.816 2442.94,738.673 2443.42,750.056 2444.51,763.325 2445.5,859.651 2445.83,871.148 2446.42,902.487 2447.2,890.953 2448.11,880.347 2448.83,898.523 2449.51,929.437 2449.94,935.513 2450.94,960.159 2451.58,941.24 2451.85,941.138 2452.17,944.487 2452.55,936.307 2453.32,931.026 2454.03,894.791 2454.58,893.608 2455.06,872.562 2455.64,876.298 2456.35,858.657 2457.38,833.814 2458.27,884.278 2459.14,873.083 2459.81,903.592 2460.26,914.533 2461.23,954.85 2461.57,954.011 2461.9,956.387 2462.7,951.153 2464,1029.5 2464.62,996.623 2465.49,944.389 2466.17,963.988 2467.08,1058.55 2467.66,1080.73 2467.99,1080.85 2468.43,1103.94 2469.19,1131.61 2469.42,1128.33 2470.05,1148.15 2470.48,1134.04 2471.18,1086.02 2471.62,1076.33 2472.52,1091.12 2473.31,1067.68 2474.28,1000.35 2475.26,930.016 2476.57,842.928 2477.36,814.513 2478.1,858.217 2479.68,850.131 2480.66,780.621 2480.96,771.319 2481.73,740.267 2482.89,791.666 2483.62,807.801 2484.18,799.459 2484.81,811.552 2485.41,794.906 2486.39,855.561 2487.85,867.286 2488.63,840.558 2488.95,837.632 2489.93,912.488 2490.54,911.169 2491.17,904.177 2491.79,889.598 2492.67,886.065 2493.13,899.393 2493.67,882.42 2494.72,921.257 2495.29,915.008 2495.77,888.045 2496.26,887.501 2496.8,908.579 2497.41,913.984 2497.99,894.109 2499.11,890.792 2500.01,813.764 2500.51,814.43 2501.25,806.71 2502.36,776.507 2503.14,775.557 2504.04,792.03 2505.02,762.041 2505.79,737.513 2506.25,737.936 2507.16,714.316 2507.88,707.827 2508.71,716.251 2509.33,730.99 2509.85,718.491 2511.05,781.232 2511.82,785.708 2512.7,742.87 2513.02,747.344 2513.59,751.313 2514.41,757.085 2515.4,766.736 2515.92,780.314 2516.56,772.381 2517.76,736.692 2518.62,716.379 2518.94,726.448 2519.47,706.032 2520.6,644.198 2521.39,657.822 2521.91,652.119 2522.62,657.654 2523.29,688.28 2524.09,685.869 2524.69,687.109 2525.84,711.777 2526.8,811.293 2527.4,844.552 2528,860.551 2529.27,907.778 2529.69,898.898 2530.17,889.407 2530.76,867.576 2531.19,869.434 2531.52,861.076 2531.66,860.542 2532.76,789.844 2533.81,834.291 2534.56,800.86 2534.86,807.223 2535.6,796.336 2536.63,768.477 2536.94,769.994 2537.55,774.753 2538.16,805.086 2539.12,733.333 2540.13,690.66 2540.5,689.796 2541.24,682.11 2541.49,677.646 2542.13,708.396 2542.8,701.851 2543.35,711.94 2543.96,735.565 2544.94,725.299 2545.88,681.244 2546.39,688.006 2546.82,692.066 2547.13,692.209 2548.09,720.535 2549.17,696.493 2549.56,687.223 2550.12,672.867 2550.33,672.878 2550.5,674.775 2551.45,714.499 2552.77,627.027 2553.43,619.607 2554.25,584.389 2555.05,601.041 2555.56,596.392 2556.32,646.593 2557.27,625.917 2558.25,586.234 2558.8,582.874 2559.83,630.461 2560.32,641.697 2561.09,624.82 2561.41,624.648 2562.19,696.849 2563.16,697.509 2563.92,671.997 2564.89,670.484 2565.56,669.994 2566.24,638.032 2566.65,635.826 2567.63,557.635 2568.26,577.689 2568.88,542.719 2569.68,504.542 2569.95,499.928 2570.93,487.019 2571.58,500.387 2572.11,493.995 2572.89,512.828 2573.81,486.842 2574.51,476.61 2575.01,469.698 2575.49,461.501 2576.1,482.225 2576.59,500.713 2577.72,580.16 2578.37,594.505 2578.83,584.468 2579.34,570.357 2579.99,572.97 2580.8,615.134 2581.94,621.408 2582.43,608.622 2583.02,616.784 2583.5,602.95 2584.47,640.529 2585.49,630.194 2586.05,601.544 2586.67,620.541 2588.04,663.138 2588.87,662.717 2589.45,645.744 2590.13,614.259 2590.77,592.218 2591.17,585.784 2592.05,534.84 2592.44,534.543 2593.17,510.626 2593.9,501.876 2594.64,458.695 2595.56,505.918 2596.49,543.502 2597,562.248 2597.74,550.874 2598.67,513.615 2599.73,544.529 2600.85,480.181 2601.24,475.761 2601.61,482.782 2602.3,526.182 2602.61,522.173 2603.11,537.036 2603.66,550.28 2604.39,547.962 2604.95,537.529 2605.46,549.652 2606,531.402 2606.78,568.434 2607.56,576.416 2608.27,565.014 2608.78,555.901 2609.71,522.884 2610.87,452.872 2611.83,491.752 2612.48,509.423 2612.98,495.427 2613.73,491.585 2614.33,473.754 2614.92,473.829 2615.59,478.363 2616.15,460.542 2616.56,452.397 2617.42,458.717 2617.76,469.638 2618.6,438.432 2619.06,425.848 2619.65,441.028 2620.87,341.879 2621.72,308.577 2622.42,325.731 2623.14,338.836 2624.06,287.492 2624.36,280.165 2625.09,327.552 2625.97,392.043 2626.87,433.507 2627.55,474.17 2628.07,464.54 2628.88,486.567 2629.45,491.831 2630.17,479.418 2630.88,498.813 2631.78,459.676 2632.18,449.161 2632.59,452.748 2633.51,446.16 2634.01,422.573 2634.49,416.018 2635.41,432.577 2636.1,436.39 2636.34,435.472 2636.77,438.887 2637.78,427.864 2638.73,460.528 2639.71,510.16 2640.25,542.858 2640.9,534.924 2641.61,549.457 2642.45,560.671 2643.32,576.939 2644.11,562.948 2644.63,553.237 2645.71,551.361 2646.19,576.941 2646.74,556.934 2647.6,547.096 2648.22,584.027 2649.28,445.922 2650.09,430.4 2650.77,419.389 2651.21,430.594 2651.92,467.038 2652.31,466.658 2652.9,457.066 2653.66,431.689 2654.61,441.446 2655.45,483.518 2655.99,504.323 2656.57,479.513 2657.25,444.632 2657.83,436.302 2658.87,457.309 2659.5,448.184 2660.5,386.156 2661.78,347.889 2662.25,349.698 2662.94,350.152 2663.94,369 2664.64,385.78 2665.48,370.328 2666.45,371.274 2667.18,401.896 2668.26,406.909 2668.93,429.464 2669.7,426.498 2670.28,445.964 2670.71,446.062 2671.23,448.17 2671.55,448.211 2672.1,429.821 2672.63,439.384 2672.97,447.567 2673.78,433.75 2674.93,445.413 2675.81,410.973 2676.29,413.135 2676.98,415.975 2677.19,413.726 2678.14,381.29 2678.81,403.467 2679.64,393.033 2680.52,405.956 2680.94,402.935 2681.69,387.956 2682.92,414.11 2683.56,423.994 2684.36,405.174 2685.29,394.396 2686.2,412.633 2686.64,416.588 2687.36,399.546 2688.08,395.816 2688.92,382.854 2689.54,345.067 2689.8,343.368 2690.39,345.195 2691.18,368.701 2691.57,374.538 2692.39,357.011 2692.71,352.281 2693.03,346.724 2693.97,378.473 2694.58,365.188 2695.12,383.712 2695.76,382.493 2696.47,375.011 2696.97,372.701 2697.56,381.984 2698.42,383.59 2699.27,407.987 2699.77,396.095 2700.52,397.331 2701.08,401.953 2702.05,368.566 2702.91,395.405 2703.72,393.166 2704.32,410.173 2705.08,390.74 2705.97,366.061 2706.35,356.893 2706.72,356.468 2707.48,350.445 2708.06,348.175 2708.99,361 2709.94,407.536 2710.54,393.681 2710.99,396.391 2711.47,388.718 2712.13,350.93 2712.49,343.685 2713.25,325.004 2713.9,298.759 2714.88,344.654 2715.85,387.99 2716.37,394.173 2717.09,409.547 2717.67,419.906 2718.86,535.151 2719.3,534.575 2719.81,530.884 2720.49,547.201 2721.23,537.982 2722.11,608.177 2722.61,609.397 2723.54,648.069 2724.63,602.486 2725.57,643.966 2726.53,609.677 2727.05,604.523 2728.1,630.564 2728.95,630.023 2729.38,639.562 2729.85,619.831 2730.35,632.57 2731.07,600.229 2731.57,603.284 2731.83,609.351 2733.06,609.289 2733.37,613.984 2734.1,576.478 2734.86,556.856 2735.74,607.326 2736.88,652.961 2737.46,680.288 2738.61,702.048 2738.85,706.232 2739.96,779.834 2740.31,780.576 2741.12,830.306 2741.54,821.278 2742.38,820.644 2743.06,852.247 2743.94,829.178 2744.77,852.916 2745.66,869.35 2746.57,888.584 2747.82,842.297 2748.62,833.127 2749.72,855.406 2750.48,880.022 2750.93,872.367 2751.52,864.954 2752.1,860.439 2752.52,869.407 2754.13,941.409 2754.98,923.772 2755.96,992.614 2756.7,984.789 2757.2,993.324 2757.7,978.481 2758.2,991.33 2758.95,1010.72 2759.86,1052.5 2760.64,1021.34 2761.14,1032.61 2762.28,1053.78 2762.94,1021.19 2763.59,1000.7 2764.47,1001.18 2765.33,1028.86 2766.04,1031.97 2766.71,1035 2767.11,1026 2767.98,989.002 2768.93,962.543 2769.26,964.392 2769.83,976.17 2770.27,977.832 2770.98,967.334 2771.69,949.053 2772.16,925.129 2772.74,918.94 2773.31,921.902 2774.58,876.541 2775.47,838.44 2775.95,834.821 2776.47,842.524 2776.95,866.122 2778.03,946.595 2778.58,945.753 2779.29,972.479 2779.55,978.963 2780.82,900.807 2781.66,900.722 2782.15,906.583 2782.7,923.767 2784.2,896.708 2784.51,900.906 2785,922.777 2785.57,947.616 2786.2,921.413 2787,961.573 2787.4,963.281 2788.5,1033.47 2788.92,1033.28 2789.64,1049.77 2789.99,1049.76 2790.85,1049.14 2791.69,1019.4 2792.54,1004.17 2793.34,1005.15 2794.03,1016.71 2795.16,1030.97 2795.51,1043.53 2795.95,1046.99 2796.76,1075.09 2797.73,1049.64 2798.53,1038.78 2799.36,1014.95 2800.45,1073.94 2800.76,1079.6 2801.23,1094.42 2801.55,1093.06 2802.15,1101.85 2802.7,1114.44 2803.77,1059.56 2804.83,1034.62 2805.58,1043.17 2806.25,1047.89 2807.13,1068.13 2808.19,1038.82 2808.89,1051.54 2809.45,1016.88 2810.23,1012.32 2811.31,1044.62 2812.26,1046.2 2813,1057.75 2813.81,1090.75 2814.28,1080.9 2815.25,1089.61 2816.07,1120.27 2816.89,1159.59 2817.98,1173.19 2818.28,1172.48 2819.8,1209.9 2820.62,1247.25 2821.65,1227.27 2822.16,1240.39 2823.19,1221.46 2823.93,1255.98 2824.25,1259.42 2824.7,1262.01 2825.14,1264.58 2825.66,1257.04 2826.14,1250.62 2826.46,1245.93 2827.21,1261.01 2827.65,1267.86 2828.44,1259.69 2829.11,1271.43 2830.01,1288.24 2830.33,1284.89 2830.89,1270.94 2831.55,1276.68 2832.17,1240.7 2833.09,1249.38 2833.96,1234.72 2834.94,1233.37 2835.5,1210.48 2836.03,1184.99 2836.63,1157.15 2837.02,1159.95 2838.04,1245.33 2839.12,1181.67 2840.11,1130.72 2840.73,1166.9 2841.55,1175.24 2841.99,1174.78 2842.82,1135.34 2843.28,1122.94 2843.65,1123.36 2843.8,1122.87 2844.55,1133.84 2845.25,1124.97 2846.01,1129.07 2846.58,1108.32 2847.02,1104.5 2847.9,1157.73 2848.37,1143.92 2849.53,1150.12 2850.09,1136.31 2850.79,1137.07 2851.43,1154.48 2852.31,1169.72 2853.21,1248.42 2854.15,1274.02 2854.84,1266.04 2855.53,1276.26 2856.28,1271 2856.82,1290.4 2857.93,1300.69 2858.61,1326.26 2859.11,1311.78 2860.13,1243.05 2860.74,1237.67 2861.5,1259.1 2862.37,1266.87 2862.84,1267.3 2863.58,1262.84 2863.99,1263.79 2864.69,1247.27 2865.32,1210.4 2865.91,1209.37 2866.58,1219.18 2866.95,1201.66 2868.08,1228.19 2868.47,1235.96 2869.8,1237.5 2870.61,1252.68 2871.36,1250.69 2872.47,1241.33 2872.8,1254.05 2873.25,1256.09 2873.87,1236.98 2874.6,1227.59 2875.2,1214.87 2875.64,1221.36 2876.22,1207.29 2876.98,1164.18 2877.59,1190.69 2878.13,1189.68 2879.02,1212.82 2880.03,1249.19 2881.22,1252.48 2882.23,1238.87 2883.19,1236.64 2884.02,1258.65 2884.68,1249.03 2885,1260.43 2885.68,1271.95 2886.03,1278.49 2886.43,1280.82 2887.06,1265.61 2887.97,1190.48 2888.39,1181.79 2888.75,1191.92 2889.52,1237.81 2890.38,1235.5 2890.99,1244.01 2891.42,1223.02 2892.29,1193.42 2893.48,1251.11 2894.49,1210.53 2894.78,1208.85 2895.61,1230.96 2896.43,1254.88 2897.02,1248.59 2897.79,1219.55 2898.03,1221.84 2898.68,1232.84 2900.08,1369.4 2900.97,1384.14 2901.72,1395.41 2902.38,1401.8 2903.3,1338.18 2904.09,1316.55 2904.64,1299.43 2905.31,1297.48 2905.62,1289.54 2906.37,1317.64 2907.25,1271.45 2907.67,1260.23 2908.07,1266.28 2908.48,1277.81 2909.18,1251.8 2910.23,1241.55 2911.14,1236.49 2912.21,1232.83 2912.79,1244.06 2913.8,1175.42 2914.41,1166.9 2915.27,1177.32 2915.89,1170.09 2916.78,1171.82 2917.47,1181.24 2918.42,1143.77 2918.89,1133.91 2919.88,1061.58 2920.12,1064.37 2920.9,1054.03 2921.34,1049.7 2922.35,1025.06 2922.75,1031.91 2923.23,1017.53 2923.94,959.875 2925.12,885.678 2926.55,820.32 2927.12,847.058 2928.17,833.78 2929.45,818.12 2930.01,845.499 2930.51,830.794 2931.31,839.44 2931.84,848.475 2932.64,894.2 2932.87,893.085 2933.44,914.125 2933.76,912.746 2934.39,904.508 2935.17,913.293 2935.85,929.705 2936.27,916.252 2936.62,916.581 2937.39,925.928 2938.23,881.113 2938.88,864.471 2939.14,865.892 2940.1,905.51 2941.34,878.952 2942.07,893.188 2943.1,836.944 2943.7,808.546 2944.56,792.125 2944.79,794.278 2945.27,803.97 2946.45,895.388 2947.23,901.711 2947.9,896.834 2948.24,886.221 2949.1,897.996 2949.68,919.074 2950.63,843.113 2951.2,826.977 2951.72,809.818 2952.71,769.303 2953.21,771.009 2954.02,745.53 2954.69,758.99 2955.55,737.308 2956.07,761.684 2956.61,781.626 2957.27,782.088 2958,773.553 2958.8,805.192 2959.54,786.771 2959.93,776.573 2960.83,837.729 2961.86,851.916 2962.57,810.713 2963.12,829.169 2964.13,814.451 2964.9,814.685 2965.63,815.077 2966.56,880.318 2967.96,891.846 2968.52,898.396 2968.97,900.453 2969.69,852.921 2970.23,837.642 2971.58,854.274 2973.02,784.643 2974.21,822.175 2974.56,820.988 2975.12,830.302 2976,793.681 2976.77,806.633 2977.48,822.301 2978.03,798.803 2978.69,804.313 2979.1,806.57 2979.59,796.81 2980.26,762.119 2981.3,772.049 2981.56,770.357 2982.18,758.816 2982.84,744.55 2983.29,759.686 2983.93,742.818 2984.24,746.263 2985.39,728.937 2986.08,774.473 2986.96,776.325 2987.97,845.001 2988.42,836.628 2988.87,837.873 2989.53,827.291 2989.83,829.446 2990.73,837.297 2991.26,842.155 2992.03,847.278 2992.63,830.257 2993.07,842.52 2993.48,845.753 2993.84,857.235 2994.62,849.714 2995.62,820.952 2996.76,816.561 2997.28,825.713 2998.24,829.334 2999.74,826.758 3000.44,794.081 3001.12,776.231 3001.48,778.032 3002.78,805.889 3003.49,778.556 3004.42,707.102 3004.9,701.293 3005.6,727.773 3006.44,726.094 3007.1,743.082 3007.52,747.629 3009.32,752.76 3010.16,792.511 3010.65,792.876 3011.6,776.541 3012.33,802.428 3012.8,792.478 3013.73,779.647 3014.63,777.762 3015.01,786.266 3016.07,796.945 3016.87,786.462 3017.34,795.55 3017.89,814.859 3019.01,840.865 3020.14,886.144 3020.41,888.903 3021.35,877.219 3022.22,821.464 3022.69,819.475 3023.29,851.412 3024.29,853.703 3024.94,863.917 3025.75,882.003 3026.68,886.036 3027.38,862.42 3028.65,842.84 3029.56,886.841 3030.23,878.239 3030.95,868.624 3031.6,854.302 3032.3,878.97 3033.23,828.255 3033.58,838.051 3034.22,840.628 3034.78,843.493 3035.46,834.597 3036.06,820.92 3036.83,792.976 3037.44,788.297 3037.84,783.904 3038.47,755.527 3039.05,789.854 3039.81,789.581 3040.39,786.514 3041.39,803.039 3042.22,824.235 3042.89,815.056 3044.39,771.335 3044.81,766.108 3045.38,753.014 3046.5,673.541 3047.41,712.472 3048.06,733.402 3048.93,759.037 3049.56,780.55 3049.91,786.075 3051.17,841.414 3051.7,838.017 3052.56,886.704 3053,885.332 3053.67,875.776 3055.12,807.041 3055.68,819.211 3056.47,853.66 3057.02,875.172 3057.54,878.398 3058.16,916.848 3059.16,974.624 3060.09,900.622 3061.19,947.534 3062.35,960.824 3063.08,978.02 3063.86,953.676 3064.47,965.044 3064.79,971.889 3065.03,975.663 3065.82,988.017 3066.61,978.749 3067.42,970.968 3068.11,964.86 3068.16,969.093 "/>
</svg>
